<?xml version="1.0" standalone="no"?>
<!DOCTYPE svg PUBLIC "-//W3C//DTD SVG 1.1//EN" "http://www.w3.org/Graphics/SVG/1.1/DTD/svg11.dtd" >
<svg>
<metadata>
Created by FontForge 20090622 at Fri Jan 29 10:54:34 2016
 By deploy user
Copyright (c) 2014 by Fontfabric LLC. All rights reserved.
</metadata>
<defs>
<font id="GloberBook" horiz-adv-x="548" >
  <font-face 
    font-family="Glober Book"
    font-weight="400"
    font-stretch="normal"
    units-per-em="1000"
    panose-1="0 0 0 0 0 0 0 0 0 0"
    ascent="750"
    descent="-250"
    x-height="526"
    cap-height="720"
    bbox="-154 -250.286 1019 1052.17"
    underline-thickness="50"
    underline-position="-50"
    unicode-range="U+0020-U+FB02"
  />
<missing-glyph horiz-adv-x="618" 
d="M37 0v720h538v-720h-538zM455 505q0 55 -36.5 91.5t-112.5 36.5q-28 0 -50.5 -4t-38.5 -9q-18 -6 -33 -13q-3 -19 13 -30q12 6 28 10q14 4 33 7t44 3q59 0 84.5 -27t25.5 -68q0 -34 -10.5 -56.5t-26 -39.5t-34 -32.5t-34 -36t-26 -50.5t-10.5 -75q1 -1 4 -2q6 -2 12 -2
q7 0 13 2q3 1 4 2q0 39 11 65t28 45.5t36.5 35.5t36.5 35.5t28 45.5t11 66zM313 129q-2 0 -6 1q-8 2 -19 2t-19 -2q-4 -1 -6 -1v-45q2 -1 6 -2t19 -1h11t8 1q4 1 6 2v45z" />
    <glyph glyph-name="fi" unicode="fi" horiz-adv-x="558" 
d="M106 586q0 39 9 69.5t29.5 51.5t55 32t85.5 11q36 0 68.5 -4.5t56.5 -9.5q28 -6 53 -14q3 -24 -13 -40q-21 7 -47 12q-22 5 -51 9t-62 4q-78 0 -106 -29t-28 -87v-65h284q7 0 15.5 -1t13.5 -1v-520q-2 -1 -6 -2q-8 -2 -19 -2q-8 0 -12.5 0.5t-7.5 1.5q-4 1 -5 2v480h-263
v-480q-2 -1 -6 -2q-8 -2 -19 -2t-19 2q-4 1 -6 2v480h-64q-1 1 -2 5q-2 6 -2 16q0 8 2 16q1 3 2 5h64v60v0z" />
    <glyph glyph-name="fl" unicode="fl" horiz-adv-x="560" 
d="M106 586q0 37 8.5 67t29 51.5t53 33.5t80.5 12q38 0 73.5 -5.5t61.5 -11.5q31 -8 57 -17v-712q-2 -1 -6 -2q-8 -2 -19 -2q-8 0 -12.5 0.5t-7.5 1.5q-4 1 -5 2v682q-22 7 -57 14t-80 7q-36 0 -60.5 -7.5t-39 -22.5t-20.5 -36.5t-6 -49.5v-65h124q1 -2 2.5 -7t1.5 -14
q0 -8 -1.5 -13.5t-2.5 -7.5h-124v-480q-2 -1 -6 -2q-8 -2 -19 -2t-19 2q-4 1 -6 2v480h-64q-1 2 -2.5 7t-1.5 14t1.5 14t2.5 7h64v60v0z" />
    <glyph glyph-name=".notdef" horiz-adv-x="618" 
d="M37 0v720h538v-720h-538zM455 505q0 55 -36.5 91.5t-112.5 36.5q-28 0 -50.5 -4t-38.5 -9q-18 -6 -33 -13q-3 -19 13 -30q12 6 28 10q14 4 33 7t44 3q59 0 84.5 -27t25.5 -68q0 -34 -10.5 -56.5t-26 -39.5t-34 -32.5t-34 -36t-26 -50.5t-10.5 -75q1 -1 4 -2q6 -2 12 -2
q7 0 13 2q3 1 4 2q0 39 11 65t28 45.5t36.5 35.5t36.5 35.5t28 45.5t11 66zM313 129q-2 0 -6 1q-8 2 -19 2t-19 -2q-4 -1 -6 -1v-45q2 -1 6 -2t19 -1h11t8 1q4 1 6 2v45z" />
    <glyph glyph-name="A" unicode="A" horiz-adv-x="642" 
d="M295 716q3 1 7 2q8 2 19 2t19 -2q4 -1 7 -2l275 -712q-3 -1 -7 -2q-10 -2 -21 -2q-7 0 -11.5 0.5t-8.5 1.5t-7 2l-79 204h-337l-80 -204q-2 -1 -6 -2q-8 -2 -21 -2q-7 0 -11 0.5t-7 1.5q-4 1 -6 2zM319 653q-1 -6 -4 -14l-5 -17t-7 -21l-136 -347h304l-134 347
q-5 12 -8 21.5t-5 16.5q-3 8 -3 14h-2z" />
    <glyph glyph-name="AE" unicode="&#xc6;" horiz-adv-x="853" 
d="M789 720q5 -10 5 -23t-5 -23h-286v-286h236q10 -25 0 -46h-236v-296h296q5 -11 5 -23.5t-5 -22.5h-347v198h-267l-117 -194q-6 -2 -12.5 -3t-14.5 -1t-16 1t-13 3l433 716h344zM452 244v398l-240 -398h240z" />
    <glyph glyph-name="AEacute" unicode="&#x1fc;" horiz-adv-x="853" 
d="M582 757q-23 3 -33 19l111 148q14 1 27 -5.5t20 -17.5zM68 4q-6 -2 -13 -3t-15 -1t-15.5 1t-12.5 3l433 716h344q5 -10 5 -23t-5 -23h-287v-286h237q10 -25 0 -46h-237v-296h297q10 -23 0 -46h-347v198h-268zM212 244h240v398z" />
    <glyph glyph-name="Aacute" unicode="&#xc1;" horiz-adv-x="642" 
d="M386 923q14 1 27 -5.5t20 -17.5l-125 -144q-23 3 -33 19zM295 716q3 1 7 2q8 2 19 2t19 -2q4 -1 7 -2l275 -712q-3 -1 -7 -2q-10 -2 -21 -2q-7 0 -11.5 0.5t-8.5 1.5t-7 2l-79 204h-337l-80 -204q-2 -1 -6 -2q-8 -2 -21 -2q-7 0 -11 0.5t-7 1.5q-4 1 -6 2zM319 653
q-1 -6 -4 -14l-5 -17t-7 -21l-136 -347h304l-134 347q-5 12 -8 21.5t-5 16.5q-3 8 -3 14h-2z" />
    <glyph glyph-name="Abreve" unicode="&#x102;" horiz-adv-x="642" 
d="M317 826q26 0 47 5.5t36 13.5q18 9 31 20q20 -6 25 -26q-15 -16 -35 -27q-17 -11 -43 -19t-61 -8t-61.5 8t-43.5 19q-20 11 -35 27q6 19 26 26q13 -11 31 -20q15 -8 36 -13.5t47 -5.5zM295 716q3 1 7 2q8 2 19 2t19 -2q4 -1 7 -2l275 -712q-3 -1 -7 -2q-10 -2 -21 -2
q-7 0 -11.5 0.5t-8.5 1.5t-7 2l-79 204h-337l-80 -204q-2 -1 -6 -2q-8 -2 -21 -2q-7 0 -11 0.5t-7 1.5q-4 1 -6 2zM319 653q-1 -6 -4 -14l-5 -17t-7 -21l-136 -347h304l-134 347q-5 12 -8 21.5t-5 16.5q-3 8 -3 14h-2z" />
    <glyph glyph-name="Acircumflex" unicode="&#xc2;" horiz-adv-x="642" 
d="M460 795q-3 -10 -9 -17.5t-15 -9.5l-117 85l-115 -86q-19 7 -25 28l128 104h26zM295 716q3 1 7 2q8 2 19 2t19 -2q4 -1 7 -2l275 -712q-3 -1 -7 -2q-10 -2 -21 -2q-7 0 -11.5 0.5t-8.5 1.5t-7 2l-79 204h-337l-80 -204q-2 -1 -6 -2q-8 -2 -21 -2q-7 0 -11 0.5t-7 1.5
q-4 1 -6 2zM319 653q-1 -6 -4 -14l-5 -17t-7 -21l-136 -347h304l-134 347q-5 12 -8 21.5t-5 16.5q-3 8 -3 14h-2z" />
    <glyph glyph-name="Adieresis" unicode="&#xc4;" horiz-adv-x="642" 
d="M216 831q3 0 7 1t9.5 1.5t13.5 0.5q12 0 22 -2q4 -1 7 -1v-53q-3 -1 -7 -2q-10 -2 -22 -2q-8 0 -13.5 0.5t-9.5 1.5t-7 2v53zM364 831q3 0 7 1q10 2 23 2q8 0 13 -0.5t9 -1.5t8 -1v-53l-8 -2t-9 -1.5t-13 -0.5q-13 0 -23 2q-4 1 -7 2v53zM295 716q3 1 7 2q8 2 19 2t19 -2
q4 -1 7 -2l275 -712q-3 -1 -7 -2q-10 -2 -21 -2q-7 0 -11.5 0.5t-8.5 1.5t-7 2l-79 204h-337l-80 -204q-2 -1 -6 -2q-8 -2 -21 -2q-7 0 -11 0.5t-7 1.5q-4 1 -6 2zM319 653q-1 -6 -4 -14l-5 -17t-7 -21l-136 -347h304l-134 347q-5 12 -8 21.5t-5 16.5q-3 8 -3 14h-2z" />
    <glyph glyph-name="Agrave" unicode="&#xc0;" horiz-adv-x="642" 
d="M374 774q-10 -16 -33 -19l-125 144q6 10 19.5 17t27.5 6zM295 716q3 1 7 2q8 2 19 2t19 -2q4 -1 7 -2l275 -712q-3 -1 -7 -2q-10 -2 -21 -2q-7 0 -11.5 0.5t-8.5 1.5t-7 2l-79 204h-337l-80 -204q-2 -1 -6 -2q-8 -2 -21 -2q-7 0 -11 0.5t-7 1.5q-4 1 -6 2zM319 653
q-1 -6 -4 -14l-5 -17t-7 -21l-136 -347h304l-134 347q-5 12 -8 21.5t-5 16.5q-3 8 -3 14h-2z" />
    <glyph glyph-name="Amacron" unicode="&#x100;" horiz-adv-x="642" 
d="M454 832q5 -8 4.5 -19.5t-4.5 -20.5h-275q-10 20 0 40h275zM295 716q3 1 7 2q8 2 19 2t19 -2q4 -1 7 -2l275 -712q-3 -1 -7 -2q-10 -2 -21 -2q-7 0 -11.5 0.5t-8.5 1.5t-7 2l-79 204h-337l-80 -204q-2 -1 -6 -2q-8 -2 -21 -2q-7 0 -11 0.5t-7 1.5q-4 1 -6 2zM319 653
q-1 -6 -4 -14l-5 -17t-7 -21l-136 -347h304l-134 347q-5 12 -8 21.5t-5 16.5q-3 8 -3 14h-2z" />
    <glyph glyph-name="Aogonek" unicode="&#x104;" horiz-adv-x="641" 
d="M295 716q3 1 7 2q8 2 19 2t19 -2q4 -1 7 -2l275 -712q-25 -14 -48.5 -35t-41.5 -45t-27 -49.5t-4 -47.5q5 -20 19.5 -27.5t31.5 -8.5q14 0 26 3.5t28 10.5q5 -5 10.5 -15.5t5.5 -18.5q-13 -9 -32.5 -15t-42.5 -6q-33 0 -57 11t-34 46q-8 27 -1 54.5t23.5 54t39.5 49.5
t48 40l-78 203h-337l-80 -204q-2 -1 -6 -2q-8 -2 -21 -2q-7 0 -11 0.5t-7 1.5q-4 1 -6 2zM319 653q-1 -6 -4 -14l-5 -17t-7 -21l-136 -347h304l-134 347q-5 12 -8 21.5t-5 16.5q-3 8 -3 14h-2z" />
    <glyph glyph-name="Aring" unicode="&#xc5;" horiz-adv-x="643" 
d="M622 4q-3 -1 -7 -2q-10 -2 -21 -2q-7 0 -11.5 0.5t-8.5 1.5t-7 2l-79 204h-337l-80 -204q-2 -1 -6 -2q-8 -2 -21 -2q-7 0 -11 0.5t-7 1.5q-4 1 -6 2l267 691q-35 8 -58 33.5t-23 67.5q0 26 9.5 45.5t25.5 33t36.5 20.5t42.5 7q21 0 42 -6.5t37.5 -20t26.5 -33.5t10 -46
q0 -42 -23 -67t-58 -33zM397 796q0 28 -19.5 49.5t-58.5 21.5q-38 0 -56 -22t-18 -49t18 -49.5t56 -22.5q39 0 58.5 23t19.5 49zM337 601q-5 12 -8 21.5t-5 16.5q-3 8 -3 14h-2q-1 -6 -4 -14l-5 -17t-7 -21l-136 -347h304z" />
    <glyph glyph-name="Aringacute" unicode="&#x1fa;" horiz-adv-x="643" 
d="M320 929q-20 1 -30 13l103 110q14 1 26 -4t18 -13zM622 4q-3 -1 -7 -2q-10 -2 -21 -2q-7 0 -11.5 0.5t-8.5 1.5t-7 2l-79 204h-337l-80 -204q-2 -1 -6 -2q-8 -2 -21 -2q-7 0 -11 0.5t-7 1.5q-4 1 -6 2l266 691q-35 7 -58 33t-23 68q0 26 9.5 45.5t25.5 33t37 20.5t43 7
q21 0 42 -6.5t37 -20t26 -33.5t10 -46q0 -41 -23 -66.5t-57 -33.5zM396 796q0 28 -19.5 49.5t-57.5 21.5t-56.5 -22t-18.5 -49t18.5 -49.5t56.5 -22.5t57.5 23t19.5 49zM337 601q-5 12 -8 21.5t-5 16.5q-3 8 -3 14h-2q-1 -6 -4 -14l-5 -17t-7 -21l-136 -347h304z" />
    <glyph glyph-name="Atilde" unicode="&#xc3;" horiz-adv-x="642" 
d="M194 800q6 14 17 25q9 10 22.5 17.5t33.5 8.5q19 0 33 -5.5t26.5 -12.5t24 -12.5t26.5 -5.5q11 0 18 4.5t12 9.5q5 6 9 14q22 0 32 -17q-6 -13 -17 -24q-9 -9 -23.5 -17t-34.5 -8q-19 0 -33 5.5t-26 12t-23.5 12t-26.5 5.5q-11 0 -18 -5t-12 -10q-5 -6 -9 -14
q-11 0 -19.5 4.5t-11.5 12.5zM295 716q3 1 7 2q8 2 19 2t19 -2q4 -1 7 -2l275 -712q-3 -1 -7 -2q-10 -2 -21 -2q-7 0 -11.5 0.5t-8.5 1.5t-7 2l-79 204h-337l-80 -204q-2 -1 -6 -2q-8 -2 -21 -2q-7 0 -11 0.5t-7 1.5q-4 1 -6 2zM319 653q-1 -6 -4 -14l-5 -17t-7 -21
l-136 -347h304l-134 347q-5 12 -8 21.5t-5 16.5q-3 8 -3 14h-2z" />
    <glyph glyph-name="B" unicode="B" horiz-adv-x="626" 
d="M344 720q54 0 91 -15.5t60 -41.5t33 -60t10 -72q0 -45 -12 -75t-27.5 -49t-30.5 -28.5t-21 -12.5q5 -2 23.5 -10t38.5 -26.5t36 -51.5t16 -85q0 -43 -12.5 -78.5t-38.5 -61t-66 -39.5t-96 -14h-246v720h242zM334 386q41 0 69.5 10.5t46.5 29.5t26 45.5t8 59.5t-7.5 59.5
t-25.5 45t-47 29t-72 10.5h-178v-289h180zM342 45q91 0 127.5 39t36.5 109q0 77 -39.5 113t-125.5 36h-187v-297h188z" />
    <glyph glyph-name="C" unicode="C" horiz-adv-x="557" 
d="M70 360q0 370 270 370q41 0 72 -5.5t52 -11.5q25 -7 43 -16q-1 -23 -17 -40q-18 7 -40 13q-19 5 -45 9.5t-58 4.5q-50 0 -91 -15.5t-70 -53t-45 -100t-16 -156.5t16 -156t45 -99t70 -52t91 -15q35 0 63.5 4t48.5 9q24 6 42 14q8 -8 12 -19t5 -22q-19 -10 -45 -17
q-23 -6 -55.5 -11t-77.5 -5q-136 0 -203 91t-67 279z" />
    <glyph glyph-name="nonmarkingreturn" horiz-adv-x="322" 
 />
    <glyph glyph-name="Cacute" unicode="&#x106;" horiz-adv-x="558" 
d="M298 760q-24 6 -31 22l121 140q14 -1 26.5 -8.5t18.5 -18.5zM340 -10q-136 0 -203 91t-67 279q0 370 270 370q41 0 72 -5.5t52 -11.5q25 -7 43 -16q0 -12 -4.5 -22t-12.5 -18q-18 7 -40 13q-19 5 -45 9.5t-58 4.5q-50 0 -91 -15.5t-70 -53t-45 -100t-16 -156.5t16 -156
t45 -99t70 -52t91 -15q35 0 63.5 4t48.5 9q24 6 42 14q15 -15 17 -41q-19 -10 -45 -17q-23 -6 -55.5 -11t-77.5 -5z" />
    <glyph glyph-name="Ccaron" unicode="&#x10c;" horiz-adv-x="557" 
d="M198 871q6 21 25 28l117 -86l115 85q9 -2 15 -9.5t9 -17.5l-127 -104h-26zM340 -10q-136 0 -203 91t-67 279q0 370 270 370q41 0 72 -5.5t52 -11.5q25 -7 43 -16q0 -13 -4.5 -22.5t-12.5 -17.5q-18 7 -40 13q-19 5 -45 9.5t-58 4.5q-50 0 -91 -15.5t-70 -53t-45 -100
t-16 -156.5t16 -156t45 -99t70 -52t91 -15q35 0 63.5 4t48.5 9q24 6 42 14q15 -15 17 -41q-19 -10 -45 -17q-23 -6 -55.5 -11t-77.5 -5z" />
    <glyph glyph-name="Ccedilla" unicode="&#xc7;" horiz-adv-x="556" 
d="M513 47q3 -11 3 -17v-7q-19 -10 -45 -17q-23 -6 -55 -11t-76 -5l-19 -57q59 0 84 -23t25 -65q0 -95 -115 -95q-20 0 -36.5 3t-27.5 8q-14 5 -24 12q1 19 14 28q2 -1 23 -9t51 -8q35 0 54.5 13.5t19.5 46.5q0 56 -69 56h-32l-8 10l28 82q-119 11 -179.5 101.5t-60.5 266.5
q0 370 270 370q41 0 72 -5.5t52 -11.5q25 -7 43 -16v-6q0 -6 -3 -15q-5 -11 -9 -15q-3 -3 -5 -4q-18 7 -40 13q-19 5 -45 9.5t-58 4.5q-50 0 -91 -15.5t-70 -53t-45 -100t-16 -156.5t16 -156t45 -99t70 -52t91 -15q35 0 63.5 4t48.5 9q24 6 42 14q2 -1 5 -4q5 -5 9 -13z" />
    <glyph glyph-name="Ccircumflex" unicode="&#x108;" horiz-adv-x="558" 
d="M488 778q-3 -9 -9 -16.5t-15 -9.5l-117 85l-115 -86q-19 7 -25 27l128 105h26zM340 -10q-136 0 -203 91t-67 279q0 370 270 370q41 0 72 -5.5t52 -11.5q25 -7 43 -16q0 -12 -4.5 -22t-12.5 -18q-18 7 -40 13q-19 5 -45 9.5t-58 4.5q-50 0 -91 -15.5t-70 -53t-45 -100
t-16 -156.5t16 -156t45 -99t70 -52t91 -15q35 0 63.5 4t48.5 9q24 6 42 14q8 -8 12 -18.5t5 -22.5q-19 -10 -45 -17q-23 -6 -55.5 -11t-77.5 -5z" />
    <glyph glyph-name="Cdotaccent" unicode="&#x10a;" horiz-adv-x="557" 
d="M372 791l-8 -2q-10 -2 -23 -2q-8 0 -13.5 0.5t-9.5 1.5t-7 2v54q3 1 7 2t9.5 1.5t13.5 0.5q13 0 23 -2l8 -2v-54zM340 -10q-136 0 -203 91t-67 279q0 370 270 370q41 0 72 -5.5t52 -11.5q25 -7 43 -16q0 -23 -17 -40q-18 7 -40 13q-19 5 -45 9.5t-58 4.5q-50 0 -91 -15.5
t-70 -53t-45 -100t-16 -156.5t16 -156t45 -99t70 -52t91 -15q35 0 63.5 4t48.5 9q24 6 42 14q15 -15 17 -41q-19 -10 -45 -17q-23 -6 -55.5 -11t-77.5 -5z" />
    <glyph glyph-name="D" unicode="D" horiz-adv-x="659" 
d="M300 720q71 0 125 -17.5t90.5 -59.5t55 -111t18.5 -172t-18.5 -172t-55 -111t-90.5 -59.5t-125 -17.5h-198v720h198zM295 46q57 0 101.5 14t75 49t46 96t15.5 155t-15.5 155t-46 96.5t-75 49t-101.5 13.5h-141v-628h141z" />
    <glyph glyph-name="Dcaron" unicode="&#x10e;" horiz-adv-x="659" 
d="M148 871q6 21 25 28l117 -86l115 85q9 -2 15 -9.5t9 -17.5l-127 -104h-26zM300 720q71 0 125 -17.5t90.5 -59.5t55 -111t18.5 -172t-18.5 -172t-55 -111t-90.5 -59.5t-125 -17.5h-198v720h198zM295 46q57 0 101.5 14t75 49t46 96t15.5 155t-15.5 155t-46 96.5t-75 49
t-101.5 13.5h-141v-628h141z" />
    <glyph glyph-name="Dcroat" unicode="&#x110;" horiz-adv-x="665" 
d="M306 720q71 0 125 -17.5t90.5 -59.5t55 -111t18.5 -172t-18.5 -172t-55 -111t-90.5 -59.5t-125 -17.5h-198v337h-85q-5 19 0 40h85v343h198zM160 377h146q5 -18 0 -40h-146v-291h141q57 0 101.5 14t75 49t46 96t15.5 155t-15.5 155t-46 96.5t-75 49t-101.5 13.5h-141
v-297z" />
    <glyph glyph-name="Delta" unicode="&#x2206;" horiz-adv-x="641" 
d="M296 716q3 1 9.5 2.5t17.5 1.5t17.5 -1.5t9.5 -2.5l262 -685q-6 -20 -20 -31h-544q-16 13 -19 31zM320 657q-2 -5 -8 -28.5t-21 -61.5l-205 -521h467l-202 522q-14 35 -20.5 59.5t-8.5 29.5h-2z" />
    <glyph glyph-name="E" unicode="E" horiz-adv-x="556" 
d="M493 720q2 -5 3 -10t1 -12q0 -15 -4 -24h-339v-286h289q2 -5 3 -10.5t1 -11.5q0 -14 -4 -23h-289v-297h349q2 -5 3 -10.5t1 -11.5q0 -15 -4 -24h-401v720h391z" />
    <glyph glyph-name="Eacute" unicode="&#xc9;" horiz-adv-x="556" 
d="M253 757q-23 3 -33 19l111 148q14 1 27 -5.5t20 -17.5zM493 720q2 -5 3 -10t1 -12q0 -15 -4 -24h-339v-286h289q2 -5 3 -10.5t1 -11.5q0 -14 -4 -23h-289v-297h349q2 -5 3 -10.5t1 -11.5q0 -15 -4 -24h-401v720h391z" />
    <glyph glyph-name="Ebreve" unicode="&#x114;" horiz-adv-x="556" 
d="M435 847q-16 -16 -36 -27q-18 -10 -43.5 -18t-60.5 -8t-61.5 8t-43.5 18q-20 11 -35 27q6 20 26 27q13 -11 31 -20q15 -8 36 -13.5t47 -5.5t47 5.5t36 13.5q18 9 31 20q20 -6 26 -27zM493 720q2 -5 3 -10t1 -12q0 -15 -4 -24h-339v-286h289q2 -5 3 -10.5t1 -11.5
q0 -14 -4 -23h-289v-297h349q2 -5 3 -10.5t1 -11.5q0 -15 -4 -24h-401v720h391z" />
    <glyph glyph-name="Ecaron" unicode="&#x11a;" horiz-adv-x="556" 
d="M144 871q6 21 25 28l117 -86l115 85q9 -2 15 -9.5t9 -17.5l-127 -104h-26zM493 720q2 -5 3 -10t1 -12q0 -15 -4 -24h-339v-286h289q2 -5 3 -10.5t1 -11.5q0 -14 -4 -23h-289v-297h349q2 -5 3 -10.5t1 -11.5q0 -15 -4 -24h-401v720h391z" />
    <glyph glyph-name="Ecircumflex" unicode="&#xca;" horiz-adv-x="556" 
d="M434 795q-3 -10 -9 -17.5t-15 -9.5l-117 85l-115 -86q-19 7 -25 28l128 104h26zM493 720q2 -5 3 -10t1 -12q0 -15 -4 -24h-339v-286h289q2 -5 3 -10.5t1 -11.5q0 -14 -4 -23h-289v-297h349q2 -5 3 -10.5t1 -11.5q0 -15 -4 -24h-401v720h391z" />
    <glyph glyph-name="Edieresis" unicode="&#xcb;" horiz-adv-x="556" 
d="M257 770q-3 -1 -7 -2q-10 -2 -22 -2q-13 0 -23 2q-4 1 -7 2v53q3 0 7 1q10 2 23 2q12 0 22 -2q4 -1 7 -1v-53zM406 770l-8 -2t-9 -1.5t-13 -0.5t-13 0.5t-9 1.5t-7 2v53q3 0 7 1t9 1.5t13 0.5t13 -0.5t9 -1.5t8 -1v-53zM493 720q2 -5 3 -10t1 -12q0 -15 -4 -24h-339v-286
h289q2 -5 3 -10.5t1 -11.5q0 -14 -4 -23h-289v-297h349q2 -5 3 -10.5t1 -11.5q0 -15 -4 -24h-401v720h391z" />
    <glyph glyph-name="Edotaccent" unicode="&#x116;" horiz-adv-x="556" 
d="M331 788l-8 -2q-10 -2 -23 -2q-8 0 -13.5 0.5t-9.5 1.5t-7 2v54q3 1 7 2t9.5 1.5t13.5 0.5q13 0 23 -2l8 -2v-54zM493 720q2 -5 3 -10t1 -12q0 -15 -4 -24h-339v-286h289q2 -5 3 -10.5t1 -11.5q0 -14 -4 -23h-289v-297h349q2 -5 3 -10.5t1 -11.5q0 -15 -4 -24h-401v720
h391z" />
    <glyph glyph-name="Egrave" unicode="&#xc8;" horiz-adv-x="556" 
d="M183 899q6 10 19.5 17t27.5 6l111 -148q-10 -16 -33 -19zM493 720q2 -5 3 -10t1 -12q0 -15 -4 -24h-339v-286h289q2 -5 3 -10.5t1 -11.5q0 -14 -4 -23h-289v-297h349q2 -5 3 -10.5t1 -11.5q0 -15 -4 -24h-401v720h391z" />
    <glyph glyph-name="Emacron" unicode="&#x112;" horiz-adv-x="556" 
d="M159 792q-7 20 0 40h275q4 -8 3.5 -19.5t-3.5 -20.5h-275zM493 720q2 -5 3 -10t1 -12q0 -15 -4 -24h-339v-286h289q2 -5 3 -10.5t1 -11.5q0 -14 -4 -23h-289v-297h349q2 -5 3 -10.5t1 -11.5q0 -15 -4 -24h-401v720h391z" />
    <glyph glyph-name="Eng" unicode="&#x14a;" horiz-adv-x="694" 
d="M542 716q2 1 6 2q8 2 20 2q10 0 18 -2q4 -1 6 -2v-768q0 -34 -4.5 -62t-17 -49.5t-34 -37.5t-54.5 -27q-10 6 -14 16.5t-2 22.5q42 14 58.5 44t16.5 91v56q-3 0 -4.5 0.5t-3.5 0.5t-2 1l-331 552q-14 21 -23 38.5t-15 30.5q-7 15 -12 27h-2q1 -14 2 -34q1 -17 1.5 -43.5
t0.5 -62.5v-508q-2 -1 -6 -2q-8 -2 -20 -2q-7 0 -11 0.5t-7 1.5q-4 1 -6 2v712l8 2q10 2 23 2q8 0 13 -0.5t9 -1.5l8 -2l329 -545l21 -38.5l17 -32.5l15 -31h2q-2 16 -3 37q-1 17 -1.5 42t-0.5 54v514v0z" />
    <glyph glyph-name="Eogonek" unicode="&#x118;" horiz-adv-x="556" 
d="M493 720q2 -5 3 -10t1 -12q0 -15 -4 -24h-339v-286h289q2 -5 3 -10.5t1 -11.5q0 -14 -4 -23h-289v-297h349q2 -5 3 -10.5t1 -11.5q0 -15 -4 -24q-25 -15 -48.5 -35.5t-40.5 -43.5t-26 -47.5t-4 -46.5q5 -20 19.5 -27.5t31.5 -8.5q14 0 26 3.5t28 10.5q5 -5 10.5 -15.5
t5.5 -18.5q-13 -9 -32.5 -15t-42.5 -6q-33 0 -57 11t-34 46q-8 27 -1.5 54t22.5 52.5t38.5 47.5t47.5 39h-344v720h391z" />
    <glyph glyph-name="Eth" unicode="&#xd0;" horiz-adv-x="665" 
d="M306 720q71 0 125 -17.5t90.5 -59.5t55 -111t18.5 -172t-18.5 -172t-55 -111t-90.5 -59.5t-125 -17.5h-198v337h-85q-5 21 0 40h85v343h198zM160 377h146q5 -20 0 -40h-146v-291h141q57 0 101.5 14t75 49t46 96t15.5 155t-15.5 155t-46 96.5t-75 49t-101.5 13.5h-141
v-297z" />
    <glyph glyph-name="Euro" unicode="&#x20ac;" horiz-adv-x="585" 
d="M138 435q32 245 235 245q38 0 65.5 -5t45.5 -11q21 -7 36 -15q-1 -11 -4.5 -19.5t-11.5 -16.5q-15 7 -34 12q-17 5 -39.5 8.5t-50.5 3.5q-38 0 -69.5 -10t-55.5 -33.5t-41 -62.5t-24 -96h270q2 -9 0 -19.5t-7 -18.5h-268q-1 -15 -1 -30.5v-32.5v-30.5t1 -28.5h234
q2 -8 0 -18.5t-7 -18.5h-223q7 -59 23.5 -98t41 -62.5t56.5 -33.5t70 -10q31 0 56 3.5t42 8.5q20 5 36 12q8 -7 11.5 -16.5t4.5 -20.5q-16 -9 -39 -16q-20 -6 -49.5 -10.5t-68.5 -4.5q-205 0 -236 248h-82q-2 9 0 19t6 18h73q-1 14 -1.5 29t-0.5 31v30.5t2 31.5h-79
q-2 9 0 19.5t6 18.5h77v0z" />
    <glyph glyph-name="F" unicode="F" horiz-adv-x="533" 
d="M154 4q-2 -1 -6 -2q-8 -2 -20 -2t-20 2q-4 1 -6 2v716h389q1 -2 2.5 -7.5t1.5 -15.5q0 -9 -1.5 -15t-2.5 -8h-337v-296h293q1 -2 2.5 -7.5t1.5 -14.5t-1.5 -15t-2.5 -8h-293v-329z" />
    <glyph glyph-name="G" unicode="G" horiz-adv-x="620" 
d="M69 360q0 185 72.5 277.5t209.5 92.5q43 0 77.5 -5.5t57.5 -11.5q27 -7 48 -16q-2 -11 -6 -21t-11 -18q-21 7 -47 13q-22 5 -50.5 9t-61.5 4q-50 0 -92.5 -15.5t-74 -53t-49.5 -100t-18 -156.5t17.5 -156t49 -99t74.5 -52t93 -15q46 0 82 6t54 10v282h-180q-1 2 -2 6
q-2 8 -2 17q0 6 0.5 10t1.5 7q1 4 2 6h231v-358q-23 -10 -52 -17q-26 -6 -61.5 -11t-80.5 -5q-135 0 -208.5 91.5t-73.5 278.5z" />
    <glyph glyph-name="Gbreve" unicode="&#x11e;" horiz-adv-x="620" 
d="M494 839q-15 -16 -35 -27q-17 -11 -43 -19t-61 -8t-61.5 8t-43.5 19q-20 11 -35 27q6 19 25 26q14 -11 32 -20q15 -8 36 -13.5t47 -5.5t47 5.5t36 13.5q18 9 31 20q20 -6 25 -26zM351 -10q-135 0 -208.5 91.5t-73.5 278.5q0 185 72.5 277.5t209.5 92.5q43 0 77.5 -5.5
t57.5 -11.5q27 -7 48 -16q-2 -24 -17 -39q-21 7 -47 13q-22 5 -50.5 9t-61.5 4q-50 0 -92.5 -15.5t-74 -53t-49.5 -100t-18 -156.5t17.5 -156t49 -99t74.5 -52t93 -15q46 0 82 6t54 10v282h-180q-1 2 -2 6q-2 8 -2 17q0 6 0.5 10t1.5 7q1 4 2 6h231v-358q-23 -10 -52 -17
q-26 -6 -61.5 -11t-80.5 -5z" />
    <glyph glyph-name="Gcircumflex" unicode="&#x11c;" horiz-adv-x="620" 
d="M511 795q-3 -10 -9 -17.5t-15 -9.5l-117 85l-115 -86q-19 7 -25 28l128 104h26zM351 -10q-135 0 -208.5 91.5t-73.5 278.5q0 185 72.5 277.5t209.5 92.5q43 0 77.5 -5.5t57.5 -11.5q27 -7 48 -16q-3 -25 -17 -39q-21 7 -47 13q-22 5 -50.5 9t-61.5 4q-50 0 -92.5 -15.5
t-74 -53t-49.5 -100t-18 -156.5t17.5 -156t49 -99t74.5 -52t93 -15q46 0 82 6t54 10v282h-180q-1 2 -2 6q-2 8 -2 17q0 6 0.5 10t1.5 7q1 4 2 6h231v-358q-23 -10 -52 -17q-26 -6 -61.5 -11t-80.5 -5z" />
    <glyph glyph-name="Gcommaaccent" unicode="&#x122;" horiz-adv-x="620" 
d="M351 -10q-135 0 -208.5 91.5t-73.5 278.5q0 185 72.5 277.5t209.5 92.5q43 0 77.5 -5.5t57.5 -11.5q27 -7 48 -16q-2 -22 -17 -39q-21 7 -47 13q-22 5 -50.5 9t-61.5 4q-50 0 -92.5 -15.5t-74 -53t-49.5 -100t-18 -156.5t17.5 -156t49 -99t74.5 -52t93 -15q46 0 82 6
t54 10v282h-180q-1 2 -2 6q-2 8 -2 17q0 6 0.5 10t1.5 7q1 4 2 6h231v-358q-23 -10 -52 -17q-26 -6 -61.5 -11t-80.5 -5zM309 -203q8 9 16 21q6 11 12 26t8 35q-6 0 -10 0.5t-7 1.5q-4 1 -6 2v52q4 1 9 2t11 1.5t14 0.5t14 -0.5t11 -1.5l8 -2v-38q0 -29 -9 -50t-20 -35
q-12 -17 -28 -29z" />
    <glyph glyph-name="Gdotaccent" unicode="&#x120;" horiz-adv-x="620" 
d="M384 788l-8 -2t-9 -1.5t-13 -0.5t-13.5 0.5t-9.5 1.5l-8 2v54l8 2t9.5 1.5t13.5 0.5t13 -0.5t9 -1.5l8 -2v-54zM351 -10q-135 0 -208.5 91.5t-73.5 278.5q0 185 72.5 277.5t209.5 92.5q43 0 77.5 -5.5t57.5 -11.5q27 -7 48 -16q-2 -24 -17 -39q-21 7 -47 13
q-22 5 -50.5 9t-61.5 4q-50 0 -92.5 -15.5t-74 -53t-49.5 -100t-18 -156.5t17.5 -156t49 -99t74.5 -52t93 -15q46 0 82 6t54 10v282h-180q-1 2 -2 6q-2 8 -2 17q0 6 0.5 10t1.5 7q1 4 2 6h231v-358q-23 -10 -52 -17q-26 -6 -61.5 -11t-80.5 -5z" />
    <glyph glyph-name="H" unicode="H" horiz-adv-x="676" 
d="M522 716q3 1 7 2q8 2 19 2t19 -2q4 -1 7 -2v-712q-2 -1 -6 -2q-8 -2 -20 -2q-13 0 -21 2q-4 1 -5 2v341h-368v-341q-3 -1 -7 -2q-8 -2 -19 -2q-8 0 -12.5 0.5t-7.5 1.5q-4 1 -6 2v712q3 1 7 2q8 2 19 2t19 -2q4 -1 7 -2v-323h368v323z" />
    <glyph glyph-name="Hbar" unicode="&#x126;" horiz-adv-x="686" 
d="M655 592q3 -8 3 -19t-3 -18h-75v-551q-2 -1 -6 -2q-8 -2 -20 -2q-13 0 -21 2q-4 1 -5 2v341h-368v-341q-3 -1 -7 -2q-8 -2 -19 -2q-8 0 -12.5 0.5t-7.5 1.5q-4 1 -6 2v551h-65q-7 20 0 37h65v124q3 1 7 2q8 2 19 2t19 -2q4 -1 7 -2v-124h368v124q3 1 7 2q8 2 19 2t19 -2
q4 -1 7 -2v-124h75zM160 393h368v162h-368v-162z" />
    <glyph glyph-name="Hcircumflex" unicode="&#x124;" horiz-adv-x="676" 
d="M485 795q-3 -10 -9 -17.5t-15 -9.5l-117 85l-115 -86q-19 7 -25 28l128 104h26zM522 716q3 1 7 2q8 2 19 2t19 -2q4 -1 7 -2v-712q-2 -1 -6 -2q-8 -2 -20 -2q-13 0 -21 2q-4 1 -5 2v341h-368v-341q-3 -1 -7 -2q-8 -2 -19 -2q-8 0 -12.5 0.5t-7.5 1.5q-4 1 -6 2v712
q3 1 7 2q8 2 19 2t19 -2q4 -1 7 -2v-323h368v323z" />
    <glyph glyph-name="I" unicode="I" horiz-adv-x="256" 
d="M102 716q2 1 6 2q8 2 20 2t20 -2q4 -1 6 -2v-712q-2 -1 -6 -2q-8 -2 -20 -2q-8 0 -12.5 0.5t-7.5 1.5q-4 1 -6 2v712z" />
    <glyph glyph-name="IJ" unicode="&#x132;" horiz-adv-x="639" 
d="M102 716q2 1 6 2q8 2 20 2t20 -2q4 -1 6 -2v-712q-2 -1 -6 -2q-8 -2 -20 -2q-8 0 -12.5 0.5t-7.5 1.5q-4 1 -6 2v712zM489 716q2 1 6 2q3 1 7.5 1.5t12.5 0.5q11 0 19 -2q4 -1 7 -2v-553q0 -90 -40.5 -131.5t-122.5 -41.5q-29 0 -53.5 4.5t-43.5 10.5q-22 6 -40 15
q-2 27 15 41q17 -7 35 -12q16 -5 37 -8.5t44 -3.5q26 0 47.5 6.5t37 21t24 38.5t8.5 60v553z" />
    <glyph glyph-name="Iacute" unicode="&#xcd;" horiz-adv-x="256" 
d="M89 757q-23 3 -33 19l111 148q14 1 27 -5.5t20 -17.5zM102 716q2 1 6 2q8 2 20 2t20 -2q4 -1 6 -2v-712q-2 -1 -6 -2q-8 -2 -20 -2q-8 0 -12.5 0.5t-7.5 1.5q-4 1 -6 2v712z" />
    <glyph glyph-name="Ibreve" unicode="&#x12c;" horiz-adv-x="256" 
d="M265 839q-15 -16 -35 -27q-17 -11 -43 -19t-61 -8t-61.5 8t-43.5 19q-20 11 -35 27q6 19 26 26q13 -11 31 -20q15 -8 36 -13.5t47 -5.5t47 5.5t36 13.5q18 9 31 20q20 -6 25 -26zM102 716q2 1 6 2q8 2 20 2t20 -2q4 -1 6 -2v-712q-2 -1 -6 -2q-8 -2 -20 -2
q-8 0 -12.5 0.5t-7.5 1.5q-4 1 -6 2v712z" />
    <glyph glyph-name="Icircumflex" unicode="&#xce;" horiz-adv-x="256" 
d="M268 795q-3 -10 -9 -17.5t-15 -9.5l-117 85l-115 -86q-19 7 -25 28l128 104h26zM102 716q2 1 6 2q8 2 20 2t20 -2q4 -1 6 -2v-712q-2 -1 -6 -2q-8 -2 -20 -2q-8 0 -12.5 0.5t-7.5 1.5q-4 1 -6 2v712z" />
    <glyph glyph-name="Idieresis" unicode="&#xcf;" horiz-adv-x="256" 
d="M84 770l-8 -2t-9 -1.5t-13 -0.5q-13 0 -23 2q-4 1 -7 2v53q3 0 7 1q10 2 23 2q8 0 13 -0.5t9 -1.5t8 -1v-53zM233 770l-8 -2t-9 -1.5t-13 -0.5q-13 0 -23 2q-4 1 -7 2v53q3 0 7 1q10 2 23 2q8 0 13 -0.5t9 -1.5t8 -1v-53zM102 716q2 1 6 2q8 2 20 2t20 -2q4 -1 6 -2v-712
q-2 -1 -6 -2q-8 -2 -20 -2q-8 0 -12.5 0.5t-7.5 1.5q-4 1 -6 2v712z" />
    <glyph glyph-name="Idotaccent" unicode="&#x130;" horiz-adv-x="256" 
d="M97 840l8 2t9.5 1.5t13.5 0.5q14 0 24 -2l8 -2v-56l-8 -2q-10 -2 -24 -2q-8 0 -13.5 0.5t-9.5 1.5l-8 2v56zM102 716q2 1 6 2q8 2 20 2t20 -2q4 -1 6 -2v-712q-2 -1 -6 -2q-8 -2 -20 -2q-8 0 -12.5 0.5t-7.5 1.5q-4 1 -6 2v712z" />
    <glyph glyph-name="Igrave" unicode="&#xcc;" horiz-adv-x="256" 
d="M29 899q6 10 19.5 17t27.5 6l111 -148q-10 -16 -33 -19zM102 716q2 1 6 2q8 2 20 2t20 -2q4 -1 6 -2v-712q-2 -1 -6 -2q-8 -2 -20 -2q-8 0 -12.5 0.5t-7.5 1.5q-4 1 -6 2v712z" />
    <glyph glyph-name="Imacron" unicode="&#x12a;" horiz-adv-x="256" 
d="M1 777q-10 20 0 40h255q5 -8 4.5 -19.5t-4.5 -20.5h-255zM101 716q2 1 6 2q8 2 20 2t20 -2q4 -1 6 -2v-712q-2 -1 -6 -2q-8 -2 -20 -2q-8 0 -12.5 0.5t-7.5 1.5q-4 1 -6 2v712z" />
    <glyph glyph-name="Iogonek" unicode="&#x12e;" horiz-adv-x="256" 
d="M154 0q-17 -20 -32 -41.5t-25 -43t-14 -44t1 -44.5q5 -20 21.5 -27.5t33.5 -8.5q14 0 26 3.5t28 10.5q5 -5 10.5 -15.5t5.5 -18.5q-13 -9 -32.5 -15t-42.5 -6q-33 0 -59 11t-36 46q-8 27 -4.5 53.5t14.5 51t26.5 47t31.5 41.5h-5v716q2 1 6 2q8 2 20 2t20 -2q4 -1 6 -2
v-716v0z" />
    <glyph glyph-name="Itilde" unicode="&#x128;" horiz-adv-x="256" 
d="M191 804q11 0 18.5 4t13.5 9q6 6 12 14q15 -5 20 -21q-1 -3 -5.5 -10t-13 -14.5t-21.5 -13.5t-29 -6q-18 0 -31.5 5.5t-25.5 12l-23 12t-25 5.5q-11 0 -19 -4t-13 -9q-6 -6 -10 -13q-18 8 -22 22q5 11 15 21q8 8 21 14.5t33 6.5q18 0 31.5 -5.5t25.5 -12l23 -12t25 -5.5z
M102 716q2 1 6 2q8 2 20 2t20 -2q4 -1 6 -2v-712q-2 -1 -6 -2q-8 -2 -20 -2q-8 0 -12.5 0.5t-7.5 1.5q-4 1 -6 2v712z" />
    <glyph glyph-name="J" unicode="J" horiz-adv-x="425" 
d="M275 716q2 1 6 2q3 1 7.5 1.5t12.5 0.5q11 0 19 -2q4 -1 7 -2v-552q0 -90 -40.5 -132t-122.5 -42q-29 0 -53.5 4.5t-43.5 10.5q-22 6 -40 15q-2 27 15 41q17 -7 35 -12q16 -5 37 -8.5t44 -3.5q26 0 47.5 6.5t37 21t24 38.5t8.5 60v553z" />
    <glyph glyph-name="Jcircumflex" unicode="&#x134;" horiz-adv-x="425" 
d="M441 795q-3 -10 -9 -17.5t-15 -9.5l-117 85l-115 -86q-19 7 -25 28l128 104h26zM275 716q2 1 6 2q3 1 7.5 1.5t12.5 0.5q11 0 19 -2q4 -1 7 -2v-552q0 -90 -40.5 -132t-122.5 -42q-29 0 -53.5 4.5t-43.5 10.5q-22 6 -40 15q-2 27 15 41q17 -7 35 -12q16 -5 37 -8.5
t44 -3.5q26 0 47.5 6.5t37 21t24 38.5t8.5 60v553z" />
    <glyph glyph-name="K" unicode="K" horiz-adv-x="610" 
d="M503 716q2 1 9.5 2.5t18.5 1.5t18 -1.5t10 -2.5l-236 -337l265 -375l-8 -2t-9 -1.5t-13 -0.5q-14 0 -24 2q-5 1 -8 2l-246 347h-126v-347q-2 -1 -6 -2q-8 -2 -20 -2q-11 0 -19 2q-4 1 -7 2v712q3 1 7 2q8 2 20 2q11 0 19 -2q4 -1 6 -2v-319h125z" />
    <glyph glyph-name="Kcommaaccent" unicode="&#x136;" horiz-adv-x="610" 
d="M503 716q2 1 9.5 2.5t18.5 1.5t18 -1.5t10 -2.5l-236 -337l265 -375l-8 -2t-9 -1.5t-13 -0.5q-14 0 -24 2q-5 1 -8 2l-246 347h-126v-347q-2 -1 -6 -2q-8 -2 -20 -2q-11 0 -19 2q-4 1 -7 2v712q3 1 7 2q8 2 20 2q11 0 19 -2q4 -1 6 -2v-319h125zM274 -191q8 9 15 22
q6 11 11.5 27t7.5 38q-8 0 -16 2q-4 1 -6 2v56l8 2q10 2 24 2t24 -2l8 -2v-40q0 -31 -8.5 -53.5t-18.5 -38.5q-12 -18 -27 -31z" />
    <glyph glyph-name="L" unicode="L" horiz-adv-x="507" 
d="M102 716q3 1 7 2q8 2 19 2q12 0 20 -2q4 -1 6 -2v-669h323q1 -2 2.5 -8.5t1.5 -14.5q0 -9 -1.5 -15t-2.5 -9h-375v716z" />
    <glyph glyph-name="Lacute" unicode="&#x139;" horiz-adv-x="507" 
d="M113 757q-23 3 -33 19l111 148q14 1 27 -5.5t20 -17.5zM102 716q3 1 7 2q8 2 19 2q12 0 20 -2q4 -1 6 -2v-669h323q1 -2 2.5 -8.5t1.5 -14.5q0 -9 -1.5 -15t-2.5 -9h-375v716z" />
    <glyph glyph-name="Lcaron" unicode="&#x13d;" horiz-adv-x="507" 
d="M284 588q-18 3 -25 17q34 27 49 62t17 82q32 3 47 -10q-2 -22 -9 -44.5t-18.5 -42.5t-26.5 -37t-34 -27zM102 716q3 1 7 2q8 2 19 2q12 0 20 -2q4 -1 6 -2v-669h323q1 -2 2.5 -8.5t1.5 -14.5q0 -9 -1.5 -15t-2.5 -9h-375v716z" />
    <glyph glyph-name="Lcommaaccent" unicode="&#x13b;" horiz-adv-x="507" 
d="M102 716q3 1 7 2q8 2 19 2q12 0 20 -2q4 -1 6 -2v-669h323q1 -2 2.5 -8.5t1.5 -14.5q0 -9 -1.5 -15t-2.5 -9h-375v716zM253 -191q8 9 15 22q6 11 11.5 27t7.5 38q-6 0 -10 0.5t-7 1.5q-4 1 -6 2v56l8 2q10 2 24 2t24 -2l8 -2v-40q0 -31 -8.5 -53.5t-18.5 -38.5
q-12 -18 -27 -31z" />
    <glyph glyph-name="Ldot" unicode="&#x13f;" horiz-adv-x="511" 
d="M102 716q3 1 7 2q8 2 19 2q12 0 20 -2q4 -1 6 -2v-669h323q1 -2 2.5 -8.5t1.5 -14.5q0 -9 -1.5 -15t-2.5 -9h-375v716zM386 308l-8 -2t-9 -1.5t-13 -0.5q-13 0 -23 2q-4 1 -7 2v52q3 1 7 2q10 2 23 2q8 0 13 -0.5t9 -1.5l8 -2v-52z" />
    <glyph glyph-name="Lslash" unicode="&#x141;" horiz-adv-x="522" 
d="M117 716q3 1 7 2q8 2 19 2q12 0 20 -2q4 -1 6 -2v-308l116 68q16 -11 19 -34l-135 -79v-316h323q1 -2 2.5 -8.5t1.5 -14.5q0 -9 -1.5 -15t-2.5 -9h-375v333l-71 -40q-17 12 -19 33l90 52v338v0z" />
    <glyph glyph-name="M" unicode="M" horiz-adv-x="842" 
d="M671 716q4 1 12 2.5t22 1.5q8 0 14.5 -0.5t11.5 -1.5t9 -2v-712q-2 -1 -6 -2q-8 -2 -20 -2t-20 2q-4 1 -6 2v507q0 57 1.5 96.5t3.5 51.5h-3q-2 -9 -15.5 -38t-35.5 -67l-205 -356l-6 -2q-3 -1 -6 -1.5t-8 -0.5q-9 0 -15 2q-4 1 -5 2l-197 355q-20 36 -34 66.5t-16 39.5
h-3q2 -11 4.5 -51t2.5 -101v-503q-2 -1 -6 -2q-8 -2 -18 -2q-11 0 -19 2q-4 1 -6 2v712q4 1 9 2t10.5 1.5t13.5 0.5q7 0 13 -0.5t11 -1.5t9 -2l206 -372q17 -31 27 -52t13 -29h2q2 4 9.5 20.5t22.5 42.5l111.5 194.5z" />
    <glyph glyph-name="N" unicode="N" horiz-adv-x="694" 
d="M200 556q-14 21 -23 38.5t-15 30.5q-7 15 -12 27h-2q1 -14 2 -34q1 -17 1.5 -43.5t0.5 -62.5v-508q-2 -1 -6 -2q-8 -2 -20 -2q-10 0 -18 2q-4 1 -6 2v712l8 2q10 2 23 2t23 -2q4 -1 7 -2l329 -545q12 -20 21.5 -38.5l16.5 -32.5l15 -31h2q-1 16 -2 37q-1 17 -1.5 42
t-0.5 54v514q2 1 6 2q8 2 19 2q10 0 18 -2q4 -1 6 -2v-712q-3 -1 -7 -2q-10 -2 -23 -2q-8 0 -13.5 0.5t-9.5 1.5l-8 2z" />
    <glyph glyph-name="Nacute" unicode="&#x143;" horiz-adv-x="694" 
d="M348 757q-23 3 -33 19l111 148q14 1 27 -5.5t20 -17.5zM200 556q-14 21 -23 38.5t-15 30.5q-7 15 -12 27h-2q1 -14 2 -34q1 -17 1.5 -43.5t0.5 -62.5v-508q-2 -1 -6 -2q-8 -2 -20 -2q-7 0 -11 0.5t-7 1.5q-4 1 -6 2v712l8 2q10 2 23 2q8 0 13 -0.5t9 -1.5l8 -2l329 -545
l21 -38.5l17 -32.5l15 -31h2q-2 16 -3 37q-1 17 -1.5 42t-0.5 54v514q2 1 6 2q8 2 20 2q10 0 18 -2q4 -1 6 -2v-712q-3 -1 -7 -2q-10 -2 -23 -2q-8 0 -13.5 0.5t-9.5 1.5l-8 2z" />
    <glyph glyph-name="Ncaron" unicode="&#x147;" horiz-adv-x="694" 
d="M213 871q6 21 25 28l117 -86l115 85q9 -2 15 -9.5t9 -17.5l-127 -104h-26zM200 556q-14 21 -23 38.5t-15 30.5q-7 15 -12 27h-2q1 -14 2 -34q1 -17 1.5 -43.5t0.5 -62.5v-508q-2 -1 -6 -2q-8 -2 -20 -2q-7 0 -11 0.5t-7 1.5q-4 1 -6 2v712l8 2q10 2 23 2q8 0 13 -0.5
t9 -1.5l8 -2l329 -545l21 -38.5l17 -32.5l15 -31h2q-2 16 -3 37q-1 17 -1.5 42t-0.5 54v514q2 1 6 2q8 2 20 2q10 0 18 -2q4 -1 6 -2v-712q-3 -1 -7 -2q-10 -2 -23 -2q-8 0 -13.5 0.5t-9.5 1.5l-8 2z" />
    <glyph glyph-name="Ncommaaccent" unicode="&#x145;" horiz-adv-x="694" 
d="M200 556q-14 21 -23 38.5t-15 30.5q-7 15 -12 27h-2q1 -14 2 -34q1 -17 1.5 -43.5t0.5 -62.5v-508q-2 -1 -6 -2q-8 -2 -20 -2q-7 0 -11 0.5t-7 1.5q-4 1 -6 2v712l8 2q10 2 23 2q8 0 13 -0.5t9 -1.5l8 -2l329 -545l21 -38.5l17 -32.5l15 -31h2q-2 16 -3 37q-1 17 -1.5 42
t-0.5 54v514q2 1 6 2q8 2 20 2q10 0 18 -2q4 -1 6 -2v-712q-3 -1 -7 -2q-10 -2 -23 -2q-8 0 -13.5 0.5t-9.5 1.5l-8 2zM309 -191q8 9 15 22q6 11 11.5 27t7.5 38q-8 0 -16 2q-4 1 -6 2v56l8 2q10 2 24 2t24 -2l8 -2v-40q0 -31 -8.5 -53.5t-18.5 -38.5q-12 -18 -27 -31z" />
    <glyph glyph-name="Ntilde" unicode="&#xd1;" horiz-adv-x="694" 
d="M412 806q11 0 19.5 4t13.5 9q6 5 11 13q8 -2 15 -9.5t9 -16.5q-2 -3 -7.5 -10t-14.5 -13.5t-22 -11.5t-29 -5q-19 0 -32.5 5.5t-25.5 12.5t-23 12.5t-26 5.5q-11 0 -19.5 -5t-13.5 -10q-6 -6 -11 -14q-19 8 -25 25q5 11 16 21q8 8 22.5 15t34.5 7q19 0 33 -5.5t26 -12
t23.5 -12t25.5 -5.5zM200 556q-14 21 -23 38.5t-15 30.5q-7 15 -12 27h-2q1 -14 2 -34q1 -17 1.5 -43.5t0.5 -62.5v-508q-2 -1 -6 -2q-8 -2 -20 -2q-7 0 -11 0.5t-7 1.5q-4 1 -6 2v712l8 2q10 2 23 2q8 0 13 -0.5t9 -1.5l8 -2l329 -545l21 -38.5l17 -32.5l15 -31h2
q-2 16 -3 37q-1 17 -1.5 42t-0.5 54v514q2 1 6 2q8 2 20 2q10 0 18 -2q4 -1 6 -2v-712q-3 -1 -7 -2q-10 -2 -23 -2q-8 0 -13.5 0.5t-9.5 1.5l-8 2z" />
    <glyph glyph-name="O" unicode="O" horiz-adv-x="680" 
d="M70 360q0 97 18.5 167t53.5 115t85 66.5t113 21.5t113 -21.5t85 -66.5t53.5 -115t18.5 -167t-18.5 -167t-53.5 -115t-85 -66.5t-113 -21.5t-113 21.5t-85 66.5t-53.5 115t-18.5 167zM554 360q0 90 -15 152t-43 100.5t-67.5 55.5t-88.5 17t-88.5 -17t-67.5 -55.5
t-43 -100.5t-15 -152q0 -89 15 -151t43 -100.5t67.5 -56t88.5 -17.5t88.5 17.5t67.5 56t43 100.5t15 151z" />
    <glyph glyph-name="OE" unicode="&#x152;" horiz-adv-x="839" 
d="M69 360q0 97 19.5 167t55.5 115t87.5 66.5t116.5 21.5q26 0 48 -3t38 -7h342q4 -8 4 -23t-4 -23h-292v-286h242q4 -9 4 -22q0 -14 -4 -23h-242v-297h302q4 -9 4 -22q0 -15 -4 -24h-353q-16 -4 -37 -7t-48 -3q-65 0 -116.5 21.5t-87.5 66.5t-55.5 115t-19.5 167zM431 672
q-15 5 -36.5 9t-46.5 4q-51 0 -92 -17.5t-70.5 -56t-45.5 -100.5t-16 -151q0 -90 16 -152t45.5 -100.5t70.5 -55.5t92 -17q25 0 47 4t36 10v623z" />
    <glyph glyph-name="Oacute" unicode="&#xd3;" horiz-adv-x="680" 
d="M434 929q14 1 27 -5.5t20 -17.5l-120 -136q-24 3 -33 18zM70 360q0 97 18.5 167t53.5 115t85 66.5t113 21.5t113 -21.5t85 -66.5t53.5 -115t18.5 -167t-18.5 -167t-53.5 -115t-85 -66.5t-113 -21.5t-113 21.5t-85 66.5t-53.5 115t-18.5 167zM554 360q0 90 -15 152
t-43 100.5t-67.5 55.5t-88.5 17t-88.5 -17t-67.5 -55.5t-43 -100.5t-15 -152q0 -89 15 -151t43 -100.5t67.5 -56t88.5 -17.5t88.5 17.5t67.5 56t43 100.5t15 151z" />
    <glyph glyph-name="Obreve" unicode="&#x14e;" horiz-adv-x="680" 
d="M342 826q26 0 47 5.5t36 13.5q18 9 31 20q20 -6 25 -26q-15 -16 -35 -27q-17 -11 -43 -19t-61 -8t-61.5 8t-43.5 19q-20 11 -35 27q6 19 26 26q13 -11 31 -20q15 -8 36 -13.5t47 -5.5zM70 360q0 97 18.5 167t53.5 115t85 66.5t113 21.5t113 -21.5t85 -66.5t53.5 -115
t18.5 -167t-18.5 -167t-53.5 -115t-85 -66.5t-113 -21.5t-113 21.5t-85 66.5t-53.5 115t-18.5 167zM554 360q0 90 -15 152t-43 100.5t-67.5 55.5t-88.5 17t-88.5 -17t-67.5 -55.5t-43 -100.5t-15 -152q0 -89 15 -151t43 -100.5t67.5 -56t88.5 -17.5t88.5 17.5t67.5 56
t43 100.5t15 151z" />
    <glyph glyph-name="Ocircumflex" unicode="&#xd4;" horiz-adv-x="680" 
d="M482 795q-3 -10 -9 -17.5t-15 -9.5l-117 85l-115 -86q-19 7 -25 28l128 104h26zM70 360q0 97 18.5 167t53.5 115t85 66.5t113 21.5t113 -21.5t85 -66.5t53.5 -115t18.5 -167t-18.5 -167t-53.5 -115t-85 -66.5t-113 -21.5t-113 21.5t-85 66.5t-53.5 115t-18.5 167z
M554 360q0 90 -15 152t-43 100.5t-67.5 55.5t-88.5 17t-88.5 -17t-67.5 -55.5t-43 -100.5t-15 -152q0 -89 15 -151t43 -100.5t67.5 -56t88.5 -17.5t88.5 17.5t67.5 56t43 100.5t15 151z" />
    <glyph glyph-name="Odieresis" unicode="&#xd6;" horiz-adv-x="680" 
d="M235 843q3 0 7 1q10 2 23 2q8 0 13 -0.5t9 -1.5t8 -1v-53l-8 -2t-9 -1.5t-13 -0.5q-13 0 -23 2q-4 1 -7 2v53zM384 843q3 0 7 1q10 2 23 2q12 0 22 -2q4 -1 8 -1v-53l-8 -2q-10 -2 -22 -2q-13 0 -23 2q-4 1 -7 2v53zM70 360q0 97 18.5 167t53.5 115t85 66.5t113 21.5
t113 -21.5t85 -66.5t53.5 -115t18.5 -167t-18.5 -167t-53.5 -115t-85 -66.5t-113 -21.5t-113 21.5t-85 66.5t-53.5 115t-18.5 167zM554 360q0 90 -15 152t-43 100.5t-67.5 55.5t-88.5 17t-88.5 -17t-67.5 -55.5t-43 -100.5t-15 -152q0 -89 15 -151t43 -100.5t67.5 -56
t88.5 -17.5t88.5 17.5t67.5 56t43 100.5t15 151z" />
    <glyph glyph-name="Ograve" unicode="&#xd2;" horiz-adv-x="680" 
d="M407 781q-10 -17 -33 -18l-118 136q6 10 19.5 17t27.5 6zM70 360q0 97 18.5 167t53.5 115t85 66.5t113 21.5t113 -21.5t85 -66.5t53.5 -115t18.5 -167t-18.5 -167t-53.5 -115t-85 -66.5t-113 -21.5t-113 21.5t-85 66.5t-53.5 115t-18.5 167zM554 360q0 90 -15 152
t-43 100.5t-67.5 55.5t-88.5 17t-88.5 -17t-67.5 -55.5t-43 -100.5t-15 -152q0 -89 15 -151t43 -100.5t67.5 -56t88.5 -17.5t88.5 17.5t67.5 56t43 100.5t15 151z" />
    <glyph glyph-name="Ohungarumlaut" unicode="&#x150;" horiz-adv-x="680" 
d="M323 916q15 1 28.5 -5t21.5 -17l-103 -120q-24 3 -31 18zM471 916q15 1 28 -5t21 -17l-103 -120q-23 3 -32 18zM70 360q0 97 18.5 167t53.5 115t85 66.5t113 21.5t113 -21.5t85 -66.5t53.5 -115t18.5 -167t-18.5 -167t-53.5 -115t-85 -66.5t-113 -21.5t-113 21.5
t-85 66.5t-53.5 115t-18.5 167zM554 360q0 90 -15 152t-43 100.5t-67.5 55.5t-88.5 17t-88.5 -17t-67.5 -55.5t-43 -100.5t-15 -152q0 -89 15 -151t43 -100.5t67.5 -56t88.5 -17.5t88.5 17.5t67.5 56t43 100.5t15 151z" />
    <glyph glyph-name="Omacron" unicode="&#x14c;" horiz-adv-x="680" 
d="M478 845q4 -8 3.5 -19.5t-3.5 -20.5h-270q-7 19 0 40h270zM70 360q0 97 18.5 167t53.5 115t85 66.5t113 21.5t113 -21.5t85 -66.5t53.5 -115t18.5 -167t-18.5 -167t-53.5 -115t-85 -66.5t-113 -21.5t-113 21.5t-85 66.5t-53.5 115t-18.5 167zM554 360q0 90 -15 152
t-43 100.5t-67.5 55.5t-88.5 17t-88.5 -17t-67.5 -55.5t-43 -100.5t-15 -152q0 -89 15 -151t43 -100.5t67.5 -56t88.5 -17.5t88.5 17.5t67.5 56t43 100.5t15 151z" />
    <glyph glyph-name="Omega" unicode="&#x2126;" horiz-adv-x="716" 
d="M79 380q0 92 20 158.5t57 109t88.5 62.5t113.5 20t113.5 -20t88 -62.5t57 -109t20.5 -158.5q0 -74 -21.5 -132.5t-48.5 -101t-51.5 -67.5t-30.5 -32h165q5 -13 5 -23q0 -7 -1.5 -13t-3.5 -11h-231q-6 11 -6 25t6 25q19 16 46.5 44.5t53.5 70t44.5 95.5t18.5 120
q0 79 -16 136.5t-45.5 95t-70.5 55.5t-92 18t-92 -18t-70.5 -55.5t-45.5 -95t-16 -136.5q0 -66 18.5 -120t44.5 -95.5t53.5 -70t46.5 -44.5q11 -24 0 -50h-231q-5 12 -5 23q0 15 5 24h165q-6 7 -30.5 32t-51.5 67.5t-48.5 101t-21.5 132.5z" />
    <glyph glyph-name="Oslash" unicode="&#xd8;" horiz-adv-x="679" 
d="M530 764q23 -5 41 -21l-49 -85q42 -44 64.5 -117.5t22.5 -180.5q0 -97 -18.5 -167t-53.5 -115t-85 -66.5t-113 -21.5q-101 0 -164 54l-51 -89q-25 5 -40 20l58 102q-35 45 -54 115t-19 168q0 97 18.5 167t53.5 115t85 66.5t113 21.5q44 0 81 -10t68 -32zM463 646
q-25 20 -56.5 29.5t-67.5 9.5q-49 0 -88.5 -17t-67.5 -55.5t-43 -100.5t-15 -152q0 -78 12 -135.5t35 -95.5zM200 88q27 -28 62 -40.5t77 -12.5q49 0 88.5 17.5t67.5 56t43 100.5t15 151t-15.5 150t-44.5 98z" />
    <glyph glyph-name="Oslashacute" unicode="&#x1fe;" horiz-adv-x="680" 
d="M306 766q-23 4 -31 21l120 140q32 -2 46 -27zM520 662q44 -44 67 -118.5t23 -183.5q0 -97 -18.5 -167t-53.5 -115t-85 -66.5t-113 -21.5q-101 0 -164 54l-49 -87q-2 -1 -6 -2q-8 -2 -19 -2q-10 0 -18 2q-4 1 -6 2l66 119q-36 45 -55 115t-19 169q0 97 18.5 167t53.5 115
t85 66.5t113 21.5q86 0 145 -40l40 72q2 1 6 2q3 1 8 2t11 1q7 0 12 -1t8 -2q4 -1 5 -2zM340 685q-49 0 -88.5 -17t-67.5 -55.5t-43 -100.5t-15 -152q0 -79 12 -136t35 -95l288 519q-25 20 -55.5 28.5t-65.5 8.5zM200 88q27 -28 62.5 -40.5t77.5 -12.5q49 0 88.5 17.5
t67.5 56t43 100.5t15 151q0 91 -16 153.5t-45 100.5z" />
    <glyph glyph-name="Otilde" unicode="&#xd5;" horiz-adv-x="680" 
d="M400 830q11 0 19 5t13 10q6 6 11 14q18 -5 23 -23q-5 -12 -15 -22q-8 -8 -21.5 -15.5t-33.5 -8.5q-18 -1 -32 4t-26 11.5t-24 11.5t-27 5q-11 -1 -19 -5.5t-13 -9.5q-6 -6 -11 -14q-18 9 -23 23q5 12 15 22q8 8 21.5 15t33.5 8q19 1 33 -4t26 -11t24 -11t26 -5zM340 -10
q-63 0 -113 21.5t-85 66.5t-53.5 115t-18.5 167t18.5 167t53.5 115t85 66.5t113 21.5t113 -21.5t85 -66.5t53.5 -115t18.5 -167t-18.5 -167t-53.5 -115t-85 -66.5t-113 -21.5zM340 685q-49 0 -88.5 -17t-67.5 -55.5t-43 -100.5t-15 -152q0 -89 15 -151t43 -100.5t67.5 -56
t88.5 -17.5t88.5 17.5t67.5 56t43 100.5t15 151q0 90 -15 152t-43 100.5t-67.5 55.5t-88.5 17z" />
    <glyph glyph-name="P" unicode="P" horiz-adv-x="599" 
d="M154 4q-2 -1 -6 -2q-8 -2 -19 -2q-13 0 -21 2q-4 1 -6 2v716h247q47 0 84.5 -15t63 -43t39 -66.5t13.5 -85.5t-13.5 -85t-39 -66t-63 -43t-84.5 -15h-195v-297zM347 348q71 0 109 43t38 118q0 78 -38 121.5t-109 43.5h-193v-326h193z" />
    <glyph glyph-name="Q" unicode="Q" horiz-adv-x="680" 
d="M70 360q0 97 18.5 167t53.5 115t85 66.5t113 21.5t113 -21.5t85 -66.5t53.5 -115t18.5 -167q0 -118 -26.5 -195t-76.5 -120q28 -28 63 -45t65 -25q-3 -31 -30 -45q-36 10 -73 34.5t-62 56.5q-55 -31 -130 -31q-63 0 -113 21.5t-85 66.5t-53.5 115t-18.5 167zM554 360
q0 90 -15 152t-43 100.5t-67.5 55.5t-88.5 17t-88.5 -17t-67.5 -55.5t-43 -100.5t-15 -152q0 -89 15 -151t43 -100.5t67.5 -56t88.5 -17.5t88.5 17.5t67.5 56t43 100.5t15 151z" />
    <glyph glyph-name="R" unicode="R" horiz-adv-x="618" 
d="M343 720q47 0 84.5 -14.5t63.5 -41t39.5 -63.5t13.5 -82q0 -76 -38.5 -127.5t-108.5 -66.5l173 -321l-8 -2t-9 -1.5t-13 -0.5q-13 0 -23 2l-8 2l-168 315h-187v-315q-2 -1 -6 -2q-8 -2 -19 -2q-13 0 -21 2q-4 1 -6 2v716h241zM154 365h188q68 0 107.5 40.5t39.5 113.5
q0 74 -39.5 114.5t-107.5 40.5h-188v-309z" />
    <glyph glyph-name="Racute" unicode="&#x154;" horiz-adv-x="618" 
d="M331 924q14 1 27 -5.5t20 -17.5l-125 -144q-23 3 -33 19zM343 720q47 0 84.5 -14.5t63.5 -41t39.5 -63.5t13.5 -82q0 -76 -38.5 -127.5t-108.5 -66.5l173 -321l-8 -2t-9 -1.5t-13 -0.5q-13 0 -23 2l-8 2l-168 315h-187v-315q-2 -1 -6 -2q-8 -2 -19 -2q-13 0 -21 2
q-4 1 -6 2v716h241zM154 365h188q68 0 107.5 40.5t39.5 113.5q0 74 -39.5 114.5t-107.5 40.5h-188v-309z" />
    <glyph glyph-name="Rcaron" unicode="&#x158;" horiz-adv-x="618" 
d="M405 898q9 -2 15 -9.5t9 -17.5l-127 -104h-26l-128 104q6 21 25 28l117 -86zM343 720q47 0 84.5 -14.5t63.5 -41t39.5 -63.5t13.5 -82q0 -76 -38.5 -127.5t-108.5 -66.5l173 -321l-8 -2t-9 -1.5t-13 -0.5q-13 0 -23 2l-8 2l-168 315h-187v-315q-2 -1 -6 -2q-8 -2 -19 -2
q-13 0 -21 2q-4 1 -6 2v716h241zM154 365h188q68 0 107.5 40.5t39.5 113.5q0 74 -39.5 114.5t-107.5 40.5h-188v-309z" />
    <glyph glyph-name="Rcommaaccent" unicode="&#x156;" horiz-adv-x="618" 
d="M343 720q47 0 84.5 -14.5t63.5 -41t39.5 -63.5t13.5 -82q0 -76 -38.5 -127.5t-108.5 -66.5l173 -321l-8 -2t-9 -1.5t-13 -0.5q-13 0 -23 2l-8 2l-168 315h-187v-315q-2 -1 -6 -2q-8 -2 -19 -2q-13 0 -21 2q-4 1 -6 2v716h241zM154 365h188q68 0 107.5 40.5t39.5 113.5
q0 74 -39.5 114.5t-107.5 40.5h-188v-309zM286 -44l8 2q10 2 24 2t24 -2l8 -2v-40q0 -31 -8.5 -53.5t-18.5 -38.5q-12 -18 -27 -31l-22 16q8 9 15 22q6 11 11.5 27t7.5 38q-8 0 -16 2q-4 1 -6 2v56z" />
    <glyph glyph-name="S" unicode="S" horiz-adv-x="561" 
d="M64 536q0 89 59 141.5t171 52.5q42 0 76 -4t58 -9q28 -5 50 -12q0 -12 -3 -23t-11 -19q-23 6 -49 10q-23 4 -52 7.5t-62 3.5q-94 0 -139 -39t-45 -106q0 -38 14.5 -62.5t40 -41t59.5 -27l73 -21.5q37 -11 73.5 -24t64.5 -35t45.5 -56t17.5 -85q0 -93 -62 -145t-176 -52
q-47 0 -84.5 5.5t-63.5 13.5q-31 8 -55 19q0 11 3.5 23t10.5 20q26 -9 56 -16q26 -6 59 -11t69 -5q91 0 140 37.5t49 109.5q0 38 -13.5 63t-36.5 41.5t-53 27t-63 19.5l-79.5 24.5t-71 33.5t-51 54.5t-19.5 86.5z" />
    <glyph glyph-name="Sacute" unicode="&#x15a;" horiz-adv-x="561" 
d="M274 770q-24 3 -32 20l105 136q14 1 27 -6t20 -18zM301 684q-94 0 -139 -39t-45 -106q0 -39 15 -63.5t40.5 -40.5t60 -27t73.5 -22q37 -11 73 -24t64 -35t45 -55.5t17 -84.5q0 -93 -62 -145t-176 -52q-47 0 -84.5 5.5t-63.5 13.5q-31 8 -55 19q-1 12 2.5 23.5t11.5 19.5
q26 -9 56 -16q26 -6 59 -11t69 -5q91 0 140 37.5t49 109.5q0 38 -14 63.5t-37.5 42.5t-54.5 27.5t-65 19.5q-40 11 -78.5 24t-69 34t-49.5 54t-19 85q0 89 59 141.5t171 52.5q42 0 76 -4t58 -9q28 -5 50 -12q2 -28 -14 -42q-23 6 -49 10q-23 4 -52 7.5t-62 3.5z" />
    <glyph glyph-name="Scaron" unicode="&#x160;" horiz-adv-x="561" 
d="M156 881q6 21 25 28l117 -86l114 85q10 -2 16 -9.5t9 -17.5l-127 -103h-26zM301 684q-94 0 -139 -39t-45 -106q0 -38 14.5 -62.5t40 -41t59.5 -27l73 -21.5q37 -11 73.5 -24t64.5 -35t45.5 -56t17.5 -85q0 -93 -62 -145t-176 -52q-47 0 -84.5 5.5t-63.5 13.5
q-31 8 -55 19q-1 11 3 23t11 20q26 -9 56 -16q26 -6 59 -11t69 -5q91 0 140 37.5t49 109.5q0 39 -14.5 64t-38.5 42t-55.5 28t-65.5 20q-39 11 -77 24t-68.5 34t-49 54t-18.5 84q0 89 59 141.5t171 52.5q42 0 76 -4t58 -9q28 -5 50 -12q2 -28 -14 -42q-23 6 -49 10
q-23 4 -52 7.5t-62 3.5z" />
    <glyph glyph-name="Scedilla" unicode="&#x15e;" horiz-adv-x="561" 
d="M307 386q37 -11 72.5 -24t63.5 -35t45 -55.5t17 -84.5q0 -89 -56.5 -140.5t-160.5 -56.5l-11 -52q59 0 85.5 -24t26.5 -66q0 -98 -115 -98q-20 0 -36.5 3t-27.5 8q-14 5 -24 12q1 19 14 28q2 -1 23 -9t51 -8q35 0 54.5 16t19.5 49q0 56 -70 56h-32l-8 10l15 75
q-44 1 -78.5 7t-59.5 13q-29 8 -51 18q-1 12 2.5 23.5t11.5 19.5q26 -9 56 -16q26 -6 59 -11t69 -5q91 0 140 37.5t49 109.5q0 39 -14 64t-38 42t-55.5 28t-65.5 20q-39 11 -77.5 23.5t-69 34t-49 54.5t-18.5 84q0 89 59 141.5t171 52.5q42 0 76 -4t58 -9q28 -5 50 -12
q2 -28 -14 -42q-23 6 -49 10q-23 4 -52 7.5t-62 3.5q-94 0 -139 -39t-45 -106q0 -39 15 -63.5t40.5 -40.5t60.5 -27t74 -22z" />
    <glyph glyph-name="Scircumflex" unicode="&#x15c;" horiz-adv-x="561" 
d="M430 800q-3 -10 -9 -17.5t-15 -9.5l-117 85l-115 -86q-18 7 -25 28l128 104h26zM301 684q-94 0 -139 -39t-45 -106q0 -39 15 -63.5t40.5 -40.5t60.5 -27t74 -22q37 -11 73 -24t63.5 -35t44.5 -55.5t17 -84.5q0 -93 -62 -145t-176 -52q-47 0 -84.5 5.5t-63.5 13.5
q-31 8 -55 19q-1 12 2.5 23.5t11.5 19.5q26 -9 56 -16q26 -6 59 -11t69 -5q91 0 140 37.5t49 109.5q0 39 -14.5 64.5t-39 42.5t-56.5 28t-66 20q-39 11 -77 23.5t-67.5 33.5t-48 54t-18.5 84q0 89 59 141.5t171 52.5q42 0 76 -4t58 -9q28 -5 50 -12q2 -28 -14 -42
q-23 6 -49 10q-23 4 -52 7.5t-62 3.5z" />
    <glyph glyph-name="Scommaaccent" unicode="&#x218;" horiz-adv-x="561" 
d="M301 684q-94 0 -139 -39t-45 -106q0 -38 14.5 -62.5t40 -41t59.5 -27l73 -21.5q37 -11 73.5 -24t64.5 -35t45.5 -56t17.5 -85q0 -93 -62 -145t-176 -52q-47 0 -84.5 5.5t-63.5 13.5q-31 8 -55 19q-1 12 2.5 23.5t11.5 19.5q26 -9 56 -16q26 -6 59 -11t69 -5
q91 0 140 37.5t49 109.5q0 39 -14.5 64.5t-38.5 42.5t-56 27.5t-66 20.5q-39 11 -77 23.5t-68 33.5t-48.5 54t-18.5 84q0 89 59 141.5t171 52.5q42 0 76 -4t58 -9q28 -5 50 -12q2 -28 -14 -42q-23 6 -49 10q-23 4 -52 7.5t-62 3.5zM241 -207q8 9 15 22q6 11 11.5 27t7.5 38
q-6 0 -10 0.5t-7 1.5q-4 1 -5 2v56l8 2q10 2 24 2q13 0 23 -2l8 -2v-40q0 -31 -8.5 -53.5t-18.5 -38.5q-11 -18 -26 -31z" />
    <glyph glyph-name="T" unicode="T" horiz-adv-x="533" 
d="M498 720q1 -2 2 -6q2 -8 2 -17t-2 -17q-1 -4 -2 -6h-203v-670q-2 -1 -6 -2q-8 -2 -20 -2q-8 0 -12.5 0.5t-7.5 1.5q-4 1 -6 2v670h-208q-1 2 -2 6q-2 8 -2 17t2 17q1 4 2 6h463z" />
    <glyph glyph-name="Tbar" unicode="&#x166;" horiz-adv-x="547" 
d="M433 363q5 -19 0 -38h-131v-321q-2 -1 -6 -2q-8 -2 -20 -2q-8 0 -12.5 0.5t-7.5 1.5q-4 1 -6 2v321h-132q-5 20 0 38h132v311h-208q-1 2 -2 6q-2 8 -2 17t2 17q1 4 2 6h463q1 -2 2 -6q2 -8 2 -17t-2 -17q-1 -4 -2 -6h-203v-311h131z" />
    <glyph glyph-name="Tcaron" unicode="&#x164;" horiz-adv-x="533" 
d="M129 871q6 21 25 28l117 -86l115 85q9 -2 15 -9.5t9 -17.5l-127 -104h-26zM498 720q1 -2 2 -6q2 -8 2 -17t-2 -17q-1 -4 -2 -6h-203v-670q-2 -1 -6 -2q-8 -2 -20 -2q-8 0 -12.5 0.5t-7.5 1.5q-4 1 -6 2v670h-208q-1 2 -2 6q-2 8 -2 17t2 17q1 4 2 6h463z" />
    <glyph glyph-name="Thorn" unicode="&#xde;" horiz-adv-x="602" 
d="M102 716q2 1 6 2q3 1 7.5 1.5t12.5 0.5q12 0 20 -2q4 -1 6 -2v-141h195q47 0 84.5 -14.5t63 -41.5t39 -64.5t13.5 -83.5q0 -45 -13.5 -82.5t-39 -64.5t-63 -41.5t-84.5 -14.5h-195v-164q-2 -1 -6 -2q-8 -2 -20 -2q-8 0 -12.5 0.5t-7.5 1.5q-4 1 -6 2v712zM154 215h193
q71 0 109 41t38 114q0 75 -38 116.5t-109 41.5h-193v-313z" />
    <glyph glyph-name="U" unicode="U" horiz-adv-x="667" 
d="M570 228q0 -57 -17 -101.5t-48 -75t-75 -46t-97 -15.5t-96.5 16t-74.5 46.5t-48 74.5t-17 101v488q3 1 7 2q8 2 19 2q7 0 11.5 -0.5t8.5 -1.5t7 -2v-495q0 -89 48.5 -137.5t136.5 -48.5t136 48.5t48 137.5v495q2 1 6 2q8 2 19 2t19 -2q4 -1 7 -2v-488z" />
    <glyph glyph-name="Uacute" unicode="&#xda;" horiz-adv-x="667" 
d="M304 757q-23 3 -33 19l111 148q14 1 27 -5.5t20 -17.5zM570 228q0 -57 -17 -101.5t-48 -75t-75 -46t-97 -15.5t-96.5 16t-74.5 46.5t-48 74.5t-17 101v488q3 1 7 2q8 2 19 2q7 0 11.5 -0.5t8.5 -1.5t7 -2v-495q0 -89 48.5 -137.5t136.5 -48.5t136 48.5t48 137.5v495
q2 1 6 2q8 2 19 2t19 -2q4 -1 7 -2v-488z" />
    <glyph glyph-name="Ubreve" unicode="&#x16c;" horiz-adv-x="667" 
d="M471 839q-16 -16 -36 -27q-18 -11 -43.5 -19t-60.5 -8t-61 8t-43 19q-20 11 -35 27q5 19 25 26q13 -11 31 -20q15 -8 36 -13.5t47 -5.5t47 5.5t36 13.5q18 9 31 20q20 -6 26 -26zM570 228q0 -57 -17 -101.5t-48 -75t-75 -46t-97 -15.5t-96.5 16t-74.5 46.5t-48 74.5
t-17 101v488q3 1 7 2q8 2 19 2q7 0 11.5 -0.5t8.5 -1.5t7 -2v-495q0 -89 48.5 -137.5t136.5 -48.5t136 48.5t48 137.5v495q2 1 6 2q8 2 19 2t19 -2q4 -1 7 -2v-488z" />
    <glyph glyph-name="Ucircumflex" unicode="&#xdb;" horiz-adv-x="667" 
d="M477 795q-3 -10 -9 -17.5t-15 -9.5l-117 85l-115 -86q-19 7 -25 28l128 104h26zM570 228q0 -57 -17 -101.5t-48 -75t-75 -46t-97 -15.5t-96.5 16t-74.5 46.5t-48 74.5t-17 101v488q3 1 7 2q8 2 19 2q7 0 11.5 -0.5t8.5 -1.5t7 -2v-495q0 -89 48.5 -137.5t136.5 -48.5
t136 48.5t48 137.5v495q2 1 6 2q8 2 19 2t19 -2q4 -1 7 -2v-488z" />
    <glyph glyph-name="Udieresis" unicode="&#xdc;" horiz-adv-x="667" 
d="M288 786l-8 -2t-9 -1.5t-13 -0.5q-13 0 -23 2q-4 1 -7 2v53q3 0 7 1q10 2 23 2q8 0 13 -0.5t9 -1.5t8 -1v-53zM437 786l-8 -2t-9 -1.5t-13 -0.5q-13 0 -23 2q-4 1 -7 2v53q3 0 7 1q10 2 23 2q8 0 13 -0.5t9 -1.5t8 -1v-53zM570 228q0 -57 -17 -101.5t-48 -75t-75 -46
t-97 -15.5t-96.5 16t-74.5 46.5t-48 74.5t-17 101v488q3 1 7 2q8 2 19 2q7 0 11.5 -0.5t8.5 -1.5t7 -2v-495q0 -89 48.5 -137.5t136.5 -48.5t136 48.5t48 137.5v495q2 1 6 2q8 2 19 2t19 -2q4 -1 7 -2v-488z" />
    <glyph glyph-name="Ugrave" unicode="&#xd9;" horiz-adv-x="667" 
d="M224 899q6 10 19.5 17t27.5 6l103 -139q-9 -16 -33 -19zM570 228q0 -57 -17 -101.5t-48 -75t-75 -46t-97 -15.5t-96.5 16t-74.5 46.5t-48 74.5t-17 101v488q3 1 7 2q8 2 19 2q7 0 11.5 -0.5t8.5 -1.5t7 -2v-495q0 -89 48.5 -137.5t136.5 -48.5t136 48.5t48 137.5v495
q2 1 6 2q8 2 19 2t19 -2q4 -1 7 -2v-488z" />
    <glyph glyph-name="Uhungarumlaut" unicode="&#x170;" horiz-adv-x="667" 
d="M256 763q-22 3 -31 19l97 137q15 1 28.5 -5.5t21.5 -17.5zM405 763q-23 3 -32 19l98 137q15 1 28.5 -5.5t21.5 -17.5zM570 228q0 -57 -17 -101.5t-48 -75t-75 -46t-97 -15.5t-96.5 16t-74.5 46.5t-48 74.5t-17 101v488q3 1 7 2q8 2 19 2q7 0 11.5 -0.5t8.5 -1.5t7 -2
v-495q0 -89 48.5 -137.5t136.5 -48.5t136 48.5t48 137.5v495q2 1 6 2q8 2 19 2t19 -2q4 -1 7 -2v-488z" />
    <glyph glyph-name="Umacron" unicode="&#x16a;" horiz-adv-x="667" 
d="M199 790q-8 21 0 40h274q4 -8 4 -19.5t-4 -20.5h-274zM570 228q0 -57 -17 -101.5t-48 -75t-75 -46t-97 -15.5t-96.5 16t-74.5 46.5t-48 74.5t-17 101v488q3 1 7 2q8 2 19 2q7 0 11.5 -0.5t8.5 -1.5t7 -2v-495q0 -89 48.5 -137.5t136.5 -48.5t136 48.5t48 137.5v495
q2 1 6 2q8 2 19 2t19 -2q4 -1 7 -2v-488z" />
    <glyph glyph-name="Uogonek" unicode="&#x172;" horiz-adv-x="667" 
d="M570 228q0 -72 -25.5 -121.5t-70.5 -80.5q-26 -18 -51 -43t-43.5 -52t-28 -54.5t-4.5 -49.5q5 -20 19.5 -27.5t31.5 -8.5q14 0 26 3.5t28 10.5q5 -5 10.5 -15.5t5.5 -18.5q-13 -9 -32.5 -15t-42.5 -6q-33 0 -57 11t-34 46q-6 22 -2.5 45.5t14.5 47.5t28.5 48t39.5 46
q-12 -2 -24 -3t-25 -1q-53 0 -96.5 16t-74.5 46.5t-48 74.5t-17 101v488q3 1 7 2q8 2 19 2q7 0 11.5 -0.5t8.5 -1.5t7 -2v-495q0 -89 48.5 -137.5t136.5 -48.5t136 48.5t48 137.5v495q2 1 6 2q8 2 19 2t19 -2q4 -1 7 -2v-488z" />
    <glyph glyph-name="Uring" unicode="&#x16e;" horiz-adv-x="667" 
d="M334 767q-48 0 -80.5 28t-32.5 80q0 26 9.5 45.5t25.5 33t36.5 20.5t42.5 7q21 0 42 -6.5t37 -20t26 -33.5t10 -46t-9.5 -46t-25 -34t-36.5 -21t-45 -7zM411 875q0 28 -19 49.5t-58 21.5q-38 0 -56 -22t-18 -49q0 -28 18 -50t56 -22q39 0 58 22.5t19 49.5zM570 228
q0 -57 -17 -101.5t-48 -75t-75 -46t-97 -15.5t-96.5 16t-74.5 46.5t-48 74.5t-17 101v488q3 1 7 2q8 2 19 2q7 0 11.5 -0.5t8.5 -1.5t7 -2v-495q0 -89 48.5 -137.5t136.5 -48.5t136 48.5t48 137.5v495q2 1 6 2q8 2 19 2t19 -2q4 -1 7 -2v-488z" />
    <glyph glyph-name="Utilde" unicode="&#x168;" horiz-adv-x="667" 
d="M393 821q11 0 19 4t13 9q6 6 10 14q19 -6 24 -24q-6 -12 -16 -21q-8 -8 -21.5 -14t-33.5 -6q-18 0 -31.5 5.5t-25.5 12t-24 12t-27 5.5q-11 0 -19 -5t-13 -10q-6 -6 -11 -14q-19 8 -24 24q5 11 16 21q8 8 22.5 15t34.5 7q19 0 32.5 -5.5t25 -12t23 -12t26.5 -5.5z
M570 228q0 -57 -17 -101.5t-48 -75t-75 -46t-97 -15.5t-96.5 16t-74.5 46.5t-48 74.5t-17 101v488q3 1 7 2q8 2 19 2q7 0 11.5 -0.5t8.5 -1.5t7 -2v-495q0 -89 48.5 -137.5t136.5 -48.5t136 48.5t48 137.5v495q2 1 6 2q8 2 19 2t19 -2q4 -1 7 -2v-488z" />
    <glyph glyph-name="V" unicode="V" horiz-adv-x="616" 
d="M286 141q5 -16 9.5 -29t6.5 -23q3 -11 5 -21h3q1 10 4 21q2 10 6 22.5t10 28.5l207 576q2 1 6 2q8 2 20 2q13 0 21 -2q4 -1 6 -2l-256 -712q-3 -1 -7 -2t-8.5 -1.5t-10.5 -0.5q-11 0 -19 2q-4 1 -7 2l-256 711q2 1 6 2q3 1 8.5 2t13.5 1q11 0 19 -2q4 -1 6 -2z" />
    <glyph glyph-name="W" unicode="W" horiz-adv-x="949" 
d="M499 549q-7 26 -11 44.5t-6 31.5q-3 15 -3 25h-3q0 -10 -3 -25q-2 -13 -6 -31.5t-11 -44.5l-160 -545q-3 -1 -10.5 -2.5t-17.5 -1.5t-16.5 1.5t-9.5 2.5l-212 712q2 1 6 2q8 2 20 2q13 0 21 -2q4 -1 6 -2l163 -546q7 -22 11.5 -40.5t7.5 -32.5q4 -17 5 -30h3q1 13 4 30
q2 14 6 32.5t11 40.5l160 546q2 1 6 2q8 2 19 2t19 -2q4 -1 6 -2l160 -546q6 -23 10 -41.5t6 -32.5q3 -16 4 -29h2q1 13 5 29q2 14 6.5 32.5t11.5 41.5l156 546q2 1 6 2q8 2 19 2q10 0 18 -2q4 -1 7 -2l-204 -712q-3 -1 -7 -2q-8 -2 -19 -2t-19 2q-4 1 -7 2z" />
    <glyph glyph-name="Wacute" unicode="&#x1e82;" horiz-adv-x="949" 
d="M441 764q-24 3 -33 19l106 141q14 1 27 -5.5t20 -17.5zM499 549q-7 26 -11 44.5t-6 31.5q-3 15 -3 25h-3q0 -10 -3 -25q-2 -13 -6 -31.5t-11 -44.5l-160 -545q-3 -1 -10.5 -2.5t-17.5 -1.5t-16.5 1.5t-9.5 2.5l-212 712q2 1 6 2q8 2 20 2q13 0 21 -2q4 -1 6 -2l163 -546
q7 -22 11.5 -40.5t7.5 -32.5q4 -17 5 -30h3q1 13 4 30q2 14 6 32.5t11 40.5l160 546q2 1 6 2q8 2 19 2t19 -2q4 -1 6 -2l160 -546q6 -23 10 -41.5t6 -32.5q3 -16 4 -29h2q1 13 5 29q2 14 6.5 32.5t11.5 41.5l156 546q2 1 6 2q8 2 19 2q10 0 18 -2q4 -1 7 -2l-204 -712
q-3 -1 -7 -2q-8 -2 -19 -2t-19 2q-4 1 -7 2z" />
    <glyph glyph-name="Wcircumflex" unicode="&#x174;" horiz-adv-x="949" 
d="M621 795q-3 -10 -9 -17.5t-15 -9.5l-117 85l-115 -86q-19 7 -25 28l128 104h26zM499 549q-7 26 -11 44.5t-6 31.5q-3 15 -3 25h-3q0 -10 -3 -25q-2 -13 -6 -31.5t-11 -44.5l-160 -545q-3 -1 -10.5 -2.5t-17.5 -1.5t-16.5 1.5t-9.5 2.5l-212 712q2 1 6 2q8 2 20 2
q13 0 21 -2q4 -1 6 -2l163 -546q7 -22 11.5 -40.5t7.5 -32.5q4 -17 5 -30h3q1 13 4 30q2 14 6 32.5t11 40.5l160 546q2 1 6 2q8 2 19 2t19 -2q4 -1 6 -2l160 -546q6 -23 10 -41.5t6 -32.5q3 -16 4 -29h2q1 13 5 29q2 14 6.5 32.5t11.5 41.5l156 546q2 1 6 2q8 2 19 2
q10 0 18 -2q4 -1 7 -2l-204 -712q-3 -1 -7 -2q-8 -2 -19 -2t-19 2q-4 1 -7 2z" />
    <glyph glyph-name="Wdieresis" unicode="&#x1e84;" horiz-adv-x="949" 
d="M434 790l-8 -2t-9 -1.5t-13 -0.5q-13 0 -23 2q-4 1 -7 2v53q3 0 7 1q10 2 23 2q8 0 13 -0.5t9 -1.5t8 -1v-53zM583 790l-8 -2t-9 -1.5t-13 -0.5q-13 0 -23 2q-4 1 -7 2v53q3 0 7 1q10 2 23 2q8 0 13 -0.5t9 -1.5t8 -1v-53zM499 549q-7 26 -11 44.5t-6 31.5q-3 15 -3 25
h-3q0 -10 -3 -25q-2 -13 -6 -31.5t-11 -44.5l-160 -545q-3 -1 -10.5 -2.5t-17.5 -1.5t-16.5 1.5t-9.5 2.5l-212 712q2 1 6 2q8 2 20 2q13 0 21 -2q4 -1 6 -2l163 -546q7 -22 11.5 -40.5t7.5 -32.5q4 -17 5 -30h3q1 13 4 30q2 14 6 32.5t11 40.5l160 546q2 1 6 2q8 2 19 2
t19 -2q4 -1 6 -2l160 -546q6 -23 10 -41.5t6 -32.5q3 -16 4 -29h2q1 13 5 29q2 14 6.5 32.5t11.5 41.5l156 546q2 1 6 2q8 2 19 2q10 0 18 -2q4 -1 7 -2l-204 -712q-3 -1 -7 -2q-8 -2 -19 -2t-19 2q-4 1 -7 2z" />
    <glyph glyph-name="Wgrave" unicode="&#x1e80;" horiz-adv-x="949" 
d="M366 899q6 10 19.5 17t27.5 6l104 -141q-10 -17 -33 -18zM499 549q-7 26 -11 44.5t-6 31.5q-3 15 -3 25h-3q0 -10 -3 -25q-2 -13 -6 -31.5t-11 -44.5l-160 -545q-3 -1 -10.5 -2.5t-17.5 -1.5t-16.5 1.5t-9.5 2.5l-212 712q2 1 6 2q8 2 20 2q13 0 21 -2q4 -1 6 -2
l163 -546q7 -22 11.5 -40.5t7.5 -32.5q4 -17 5 -30h3q1 13 4 30q2 14 6 32.5t11 40.5l160 546q2 1 6 2q8 2 19 2t19 -2q4 -1 6 -2l160 -546q6 -23 10 -41.5t6 -32.5q3 -16 4 -29h2q1 13 5 29q2 14 6.5 32.5t11.5 41.5l156 546q2 1 6 2q8 2 19 2q10 0 18 -2q4 -1 7 -2
l-204 -712q-3 -1 -7 -2q-8 -2 -19 -2t-19 2q-4 1 -7 2z" />
    <glyph glyph-name="X" unicode="X" horiz-adv-x="599" 
d="M498 716q3 1 10.5 2.5t19.5 1.5t19.5 -1.5t10.5 -2.5l-225 -344l236 -367q-4 -2 -8 -3q-10 -2 -24 -2q-8 0 -13.5 0.5t-9.5 1.5l-8 2l-211 328l-205 -328q-3 -1 -11 -2.5t-19 -1.5q-12 0 -19.5 1.5t-10.5 2.5l230 366l-220 346l8 2q10 2 24 2q12 0 22 -2l8 -2l196 -308
l200 308v0z" />
    <glyph glyph-name="Y" unicode="Y" horiz-adv-x="620" 
d="M540 716q3 1 7 2t8.5 1.5t12.5 0.5q13 0 23 -2l8 -2l-264 -412v-300q-3 -1 -7 -2q-8 -2 -19 -2t-19 2q-4 1 -7 2v299l-257 413l8 2q10 2 24 2q8 0 13 -0.5t9 -1.5l8 -2l223 -357l229 357v0z" />
    <glyph glyph-name="Yacute" unicode="&#xdd;" horiz-adv-x="620" 
d="M368 924q14 1 27 -5.5t20 -17.5l-125 -144q-23 3 -33 19zM540 716q3 1 7 2t8.5 1.5t12.5 0.5q13 0 23 -2l8 -2l-264 -412v-300q-3 -1 -7 -2q-8 -2 -19 -2t-19 2q-4 1 -7 2v299l-257 413l8 2q10 2 24 2q8 0 13 -0.5t9 -1.5l8 -2l223 -357z" />
    <glyph glyph-name="Ycircumflex" unicode="&#x176;" horiz-adv-x="620" 
d="M458 795q-3 -10 -9 -17.5t-16 -9.5l-116 85l-115 -86q-19 7 -25 28l128 104h26zM540 716q3 1 7 2t8.5 1.5t12.5 0.5q13 0 23 -2l8 -2l-264 -412v-300q-3 -1 -7 -2q-8 -2 -19 -2t-19 2q-4 1 -7 2v299l-257 413l8 2q10 2 24 2q8 0 13 -0.5t9 -1.5l8 -2l223 -357z" />
    <glyph glyph-name="Ydieresis" unicode="&#x178;" horiz-adv-x="620" 
d="M206 840q3 0 7 1q10 2 23 2q8 0 13 -0.5t9 -1.5t8 -1v-53l-8 -2t-9 -1.5t-13 -0.5q-13 0 -23 2q-4 1 -7 2v53zM355 840q3 0 7 1q10 2 23 2q8 0 13 -0.5t9 -1.5t8 -1v-53l-8 -2t-9 -1.5t-13 -0.5q-13 0 -23 2q-4 1 -7 2v53zM540 716q3 1 7 2t8.5 1.5t12.5 0.5q13 0 23 -2
l8 -2l-264 -412v-300q-3 -1 -7 -2q-8 -2 -19 -2t-19 2q-4 1 -7 2v299l-257 413l8 2q10 2 24 2q8 0 13 -0.5t9 -1.5l8 -2l223 -357z" />
    <glyph glyph-name="Ygrave" unicode="&#x1ef2;" horiz-adv-x="620" 
d="M358 774q-10 -16 -33 -19l-125 144q6 10 19.5 17t27.5 6zM540 716q3 1 7 2t8.5 1.5t12.5 0.5q13 0 23 -2l8 -2l-264 -412v-300q-3 -1 -7 -2q-8 -2 -19 -2t-19 2q-4 1 -7 2v299l-257 413l8 2q10 2 24 2q8 0 13 -0.5t9 -1.5l8 -2l223 -357z" />
    <glyph glyph-name="Z" unicode="Z" horiz-adv-x="580" 
d="M517 720q1 -2 2.5 -8t1.5 -15t-1.5 -15.5t-2.5 -9.5l-412 -624h425q1 -2 2.5 -8t1.5 -16q0 -9 -1.5 -15t-2.5 -9h-485q-1 3 -2.5 9t-1.5 15t1.5 15t2.5 9l412 624h-385q-1 3 -2.5 9t-1.5 16t1.5 15.5t2.5 7.5h445z" />
    <glyph glyph-name="Zacute" unicode="&#x179;" horiz-adv-x="580" 
d="M346 924q14 1 27 -5.5t20 -17.5l-118 -135q-24 3 -33 19zM517 720q1 -2 2.5 -8t1.5 -15t-1.5 -15.5t-2.5 -9.5l-412 -624h425q1 -2 2.5 -8t1.5 -16q0 -9 -1.5 -15t-2.5 -9h-485q-1 3 -2.5 9t-1.5 15t1.5 15t2.5 9l412 624h-385q-1 3 -2.5 9t-1.5 16t1.5 15.5t2.5 7.5h445
z" />
    <glyph glyph-name="Zcaron" unicode="&#x17d;" horiz-adv-x="580" 
d="M410 898q9 -2 15 -9.5t9 -17.5l-127 -104h-26l-128 104q6 21 25 28l117 -86zM517 720q1 -2 2.5 -8t1.5 -15t-1.5 -15.5t-2.5 -9.5l-412 -624h425q1 -2 2.5 -8t1.5 -16q0 -9 -1.5 -15t-2.5 -9h-485q-1 3 -2.5 9t-1.5 15t1.5 15t2.5 9l412 624h-385q-1 3 -2.5 9t-1.5 16
t1.5 15.5t2.5 7.5h445z" />
    <glyph glyph-name="Zdotaccent" unicode="&#x17b;" horiz-adv-x="580" 
d="M269 876q3 1 7 2t9.5 1.5t13.5 0.5t13 -0.5t9 -1.5l8 -2v-54l-8 -2t-9 -1.5t-13 -0.5t-13.5 0.5t-9.5 1.5t-7 2v54zM517 720q1 -2 2.5 -8t1.5 -15t-1.5 -15.5t-2.5 -9.5l-412 -624h425q1 -2 2.5 -8t1.5 -16q0 -9 -1.5 -15t-2.5 -9h-485q-1 3 -2.5 9t-1.5 15t1.5 15t2.5 9
l412 624h-385q-1 3 -2.5 9t-1.5 16t1.5 15.5t2.5 7.5h445z" />
    <glyph glyph-name="_0020" horiz-adv-x="0" 
 />
    <glyph glyph-name="_375" horiz-adv-x="646" 
d="M299 716q3 1 9.5 2.5t17.5 1.5t17.5 -1.5t9.5 -2.5l262 -685q-6 -20 -20 -31h-544q-16 13 -19 31zM323 657q-2 -5 -8 -28.5t-21 -61.5l-205 -521h467l-202 522q-14 35 -20.5 59.5t-8.5 29.5h-2z" />
    <glyph glyph-name="_376" horiz-adv-x="700" 
d="M410 0q-6 11 -6 25t6 25q19 16 46.5 44.5t53.5 70t44.5 95.5t18.5 120q0 79 -16 136.5t-45.5 95t-70.5 55.5t-92 18t-92 -18t-70.5 -55.5t-45.5 -95t-16 -136.5q0 -66 18.5 -120t44.5 -95.5t53.5 -70t46.5 -44.5q11 -24 0 -50h-231q-5 12 -5 23q0 15 5 24h165
q-6 7 -30.5 32t-51.5 67.5t-48.5 101t-21.5 132.5q0 92 20 158.5t57 109t88.5 62.5t113.5 20t113.5 -20t88 -62.5t57 -109t20.5 -158.5q0 -74 -21.5 -132.5t-48.5 -101t-51.5 -67.5t-30.5 -32h165q5 -13 5 -23q0 -7 -1.5 -13t-3.5 -11h-231z" />
    <glyph glyph-name="a" unicode="a" horiz-adv-x="512" 
d="M90 505q24 8 50 15q23 6 52.5 11t63.5 5q54 0 87.5 -13.5t53 -40t26.5 -65t7 -89.5v-324q-2 -1 -5 -2q-6 -2 -15 -2q-5 0 -8.5 0.5t-6.5 1.5q-4 1 -6 2l-8 84q-23 -48 -68 -73t-108 -25q-69 0 -112 39.5t-43 115.5q0 77 45.5 115.5t140.5 38.5q49 0 88 -3.5t56 -5.5v68
q0 74 -32.5 104t-97.5 30q-29 0 -55 -4t-46 -9q-23 -6 -43 -13q-2 2 -6 5.5t-7 10.5q-3 8 -3.5 14t0.5 9zM380 251q-17 2 -55.5 5.5t-80.5 3.5q-72 0 -106.5 -26.5t-34.5 -88.5q0 -59 31 -85.5t84 -26.5q36 0 65.5 12.5t51 35t33.5 55t12 71.5v44z" />
    <glyph glyph-name="aacute" unicode="&#xe1;" horiz-adv-x="512" 
d="M304 775q14 1 27 -5.5t20 -17.5l-125 -144q-23 3 -33 19zM90 505q24 8 50 15q23 6 52.5 11t63.5 5q54 0 87.5 -13.5t53 -40t26.5 -65t7 -89.5v-324q-2 -1 -5 -2q-6 -2 -15 -2q-5 0 -8.5 0.5t-6.5 1.5q-4 1 -6 2l-8 84q-23 -48 -68 -73t-108 -25q-69 0 -112 40t-43 115
q0 74 45.5 114t140.5 40q49 0 88 -3.5t56 -5.5v68q0 72 -32 103t-98 31q-29 0 -55 -4t-46 -9q-23 -6 -43 -13q-2 2 -6 5.5t-7 10.5q-3 8 -3.5 14t0.5 9zM380 251q-17 2 -55.5 5.5t-80.5 3.5q-72 0 -106.5 -28t-34.5 -87q0 -58 31 -85t84 -27q36 0 65.5 12.5t51 35t33.5 55
t12 71.5v44z" />
    <glyph glyph-name="abreve" unicode="&#x103;" horiz-adv-x="512" 
d="M254 671q25 0 46 6t35 14q17 9 30 20q19 -6 24 -27q-15 -16 -34 -28q-17 -11 -42 -19.5t-59 -8.5t-59 8.5t-42 19.5q-20 12 -34 28q6 20 24 27q13 -11 30 -20q14 -8 34.5 -14t46.5 -6zM90 505q24 8 50 15q23 6 52.5 11t63.5 5q54 0 87.5 -13.5t53 -40t26.5 -65t7 -89.5
v-324q-2 -1 -5 -2q-6 -2 -15 -2q-5 0 -8.5 0.5t-6.5 1.5q-4 1 -6 2l-8 84q-23 -48 -68 -73t-108 -25q-69 0 -112 40t-43 115q0 74 45.5 114t140.5 40q49 0 88 -3.5t56 -5.5v70q0 71 -32 101.5t-98 30.5q-29 0 -55 -4t-46 -9q-23 -6 -43 -13q-2 2 -6 5.5t-7 10.5q-3 8 -3 14
v9zM380 251q-17 2 -55.5 5.5t-80.5 3.5q-72 0 -106.5 -28t-34.5 -87q0 -58 31 -85t84 -27q36 0 65.5 12.5t51 35t33.5 55t12 71.5v44z" />
    <glyph glyph-name="acircumflex" unicode="&#xe2;" horiz-adv-x="512" 
d="M392 628q-3 -8 -9 -15.5t-15 -9.5l-114 83l-113 -84q-18 7 -24 26l125 103h25zM90 505q24 8 50 15q23 6 52.5 11t63.5 5q54 0 87.5 -13.5t53 -40t26.5 -65t7 -89.5v-324q-2 -1 -5 -2q-6 -2 -15 -2q-5 0 -8.5 0.5t-6.5 1.5q-4 1 -6 2l-8 84q-23 -48 -68 -73t-108 -25
q-69 0 -112 40t-43 115q0 74 45.5 114t140.5 40q49 0 88 -3.5t56 -5.5v69q0 72 -32 102.5t-98 30.5q-29 0 -55 -4t-46 -9q-23 -6 -43 -13q-2 2 -6 5.5t-7 10.5q-3 8 -3.5 14t0.5 9zM380 251q-17 2 -55.5 5.5t-80.5 3.5q-72 0 -106.5 -28t-34.5 -87q0 -58 31 -85t84 -27
q36 0 65.5 12.5t51 35t33.5 55t12 71.5v44z" />
    <glyph glyph-name="acute" unicode="&#xb4;" horiz-adv-x="224" 
d="M63 641q-23 3 -33 19l111 148q14 1 27 -5.5t20 -17.5z" />
    <glyph glyph-name="adieresis" unicode="&#xe4;" horiz-adv-x="512" 
d="M150 704q3 0 7 1q10 2 23 2q8 0 13 -0.5t9 -1.5t8 -1v-53l-8 -2t-9 -1.5t-13 -0.5q-13 0 -23 2q-4 1 -7 2v53zM299 704q3 0 7 1q10 2 23 2q8 0 13 -0.5t9 -1.5t8 -1v-53l-8 -2t-9 -1.5t-13 -0.5q-13 0 -23 2q-4 1 -7 2v53zM90 505q24 8 50 15q23 6 52.5 11t63.5 5
q54 0 87.5 -13.5t53 -40t26.5 -65t7 -89.5v-324q-2 -1 -5 -2q-6 -2 -15 -2q-5 0 -8.5 0.5t-6.5 1.5q-4 1 -6 2l-8 84q-23 -48 -68 -73t-108 -25q-69 0 -112 40t-43 115q0 74 45.5 114t140.5 40q49 0 88 -3.5t56 -5.5v69q0 72 -32 102.5t-98 30.5q-29 0 -55 -4t-46 -9
q-23 -6 -43 -13q-2 2 -6 5.5t-7 10.5q-3 8 -3.5 14t0.5 9zM380 251q-17 2 -55.5 5.5t-80.5 3.5q-72 0 -106.5 -28t-34.5 -87q0 -58 31 -85t84 -27q36 0 65.5 12.5t51 35t33.5 55t12 71.5v44z" />
    <glyph glyph-name="ae" unicode="&#xe6;" horiz-adv-x="778" 
d="M397 433q22 52 62.5 77.5t93.5 25.5q85 0 127.5 -52t42.5 -136q0 -20 -2 -37.5t-4 -29.5q-3 -15 -5 -26h-300q5 -113 41.5 -166.5t107.5 -53.5q28 0 49.5 5.5t36.5 12.5q18 8 30 18q18 -12 20 -36q-14 -13 -35 -23q-18 -8 -45 -15t-63 -7q-66 0 -108.5 35t-59.5 95
q-16 -58 -62.5 -94t-123.5 -36q-69 0 -109.5 40.5t-40.5 114.5t42.5 112.5t135.5 38.5h133v64q0 72 -29 102t-91 30q-28 0 -52 -4t-43 -9q-22 -6 -40 -13q-16 14 -16 39q21 8 47 15q22 6 50 11t60 5q66 0 101.5 -26.5t48.5 -76.5zM672 354q0 28 -6 53t-20 44t-37 30.5
t-56 11.5q-29 0 -53.5 -10.5t-43.5 -34t-30.5 -61t-13.5 -91.5h255q1 5 2 14q1 7 2 18t1 26zM236 255q-70 0 -101.5 -26t-31.5 -84q0 -57 28 -84.5t77 -27.5q68 0 110.5 44.5t42.5 128.5v49h-125z" />
    <glyph glyph-name="aeacute" unicode="&#x1fd;" horiz-adv-x="778" 
d="M355 608q-23 3 -33 19l111 148q14 1 27 -5.5t20 -17.5zM397 433q22 52 62.5 77.5t93.5 25.5q85 0 127.5 -52t42.5 -136q0 -20 -2 -37.5t-4 -29.5q-3 -15 -5 -26h-300q5 -113 41.5 -166.5t107.5 -53.5q28 0 49.5 5.5t36.5 12.5q18 8 30 18q18 -12 20 -36q-14 -13 -35 -23
q-18 -8 -45 -15t-63 -7q-66 0 -108.5 35t-59.5 95q-16 -58 -62.5 -94t-123.5 -36q-69 0 -109.5 40.5t-40.5 114.5t42.5 112.5t135.5 38.5h133v64q0 72 -29 102t-91 30q-28 0 -52 -4t-43 -9q-22 -6 -40 -13q-16 14 -16 39q21 8 47 15q22 6 50 11t60 5q66 0 101.5 -26.5
t48.5 -76.5zM672 354q0 28 -6 53t-20 44t-37 30.5t-56 11.5q-29 0 -53.5 -10.5t-43.5 -34t-30.5 -61t-13.5 -91.5h255q1 5 2 14q1 7 2 18t1 26zM236 255q-70 0 -101.5 -26t-31.5 -84q0 -57 28 -84.5t77 -27.5q68 0 110.5 44.5t42.5 128.5v49h-125z" />
    <glyph glyph-name="agrave" unicode="&#xe0;" horiz-adv-x="512" 
d="M290 627q-10 -16 -33 -19l-125 144q6 10 19.5 17t27.5 6zM90 505q24 8 50 15q23 6 52.5 11t63.5 5q54 0 87.5 -13.5t53 -40t26.5 -65t7 -89.5v-324q-2 -1 -5 -2q-6 -2 -15 -2q-5 0 -8.5 0.5t-6.5 1.5q-4 1 -6 2l-8 84q-23 -48 -68 -73t-108 -25q-69 0 -112 40t-43 115
q0 74 45.5 114t140.5 40q49 0 88 -3.5t56 -5.5v69q0 72 -32 102.5t-98 30.5q-29 0 -55 -4t-46 -9q-23 -6 -43 -13q-2 2 -6 5.5t-7 10.5q-3 8 -3 14v9zM380 251q-17 2 -55.5 5.5t-80.5 3.5q-72 0 -106.5 -28t-34.5 -87q0 -58 31 -85t84 -27q36 0 65.5 12.5t51 35t33.5 55
t12 71.5v44z" />
    <glyph glyph-name="amacron" unicode="&#x101;" horiz-adv-x="512" 
d="M387 693q3 -9 2.5 -19t-2.5 -18h-259q-8 20 0 37h259zM90 505q24 8 50 15q23 6 52.5 11t63.5 5q54 0 87.5 -13.5t53 -40t26.5 -65t7 -89.5v-324q-2 -1 -5 -2q-6 -2 -15 -2q-5 0 -8.5 0.5t-6.5 1.5q-4 1 -6 2l-8 84q-23 -48 -68 -73t-108 -25q-69 0 -112 40t-43 115
q0 74 45.5 114t140.5 40q49 0 88 -3.5t56 -5.5v68q0 72 -32 103t-98 31q-29 0 -55 -4t-46 -9q-23 -6 -43 -13q-2 2 -6 5.5t-7 10.5q-3 8 -3.5 14t0.5 9zM380 251q-17 2 -55.5 5.5t-80.5 3.5q-72 0 -106.5 -28t-34.5 -87q0 -58 31 -85t84 -27q36 0 65.5 12.5t51 35t33.5 55
t12 71.5v44z" />
    <glyph glyph-name="ampersand" unicode="&#x26;" horiz-adv-x="635" 
d="M323 690q33 0 59 -10t43.5 -26.5t26.5 -38t9 -45.5q0 -39 -15 -70t-41.5 -57t-63.5 -49t-81 -47q29 -57 76 -111t109 -100q29 35 46.5 73t26.5 71q13 1 25.5 -4.5t18.5 -14.5q-8 -31 -28.5 -70t-55.5 -80q29 -20 61 -37t67 -31q1 -14 -5.5 -26t-16.5 -18q-38 15 -73 34
t-67 41q-6 -6 -21.5 -20t-41.5 -28t-61.5 -25t-80.5 -11q-36 0 -70 9.5t-60 30.5t-42 53t-16 77q0 42 16.5 75.5t40 58.5t49 42t44.5 26q-36 79 -36 155q0 79 39.5 126t118.5 47zM319 650q-49 0 -77 -32.5t-28 -96.5q0 -67 29 -137q37 19 68 38.5t53 41t34.5 45.5t12.5 54
q0 40 -23.5 63.5t-68.5 23.5zM246 34q32 0 58.5 7.5t47.5 18t36 21.5t23 18q-64 49 -112.5 107t-80.5 120q-15 -9 -34.5 -23t-37.5 -34t-30 -46t-12 -58q0 -62 38.5 -96.5t103.5 -34.5z" />
    <glyph glyph-name="aogonek" unicode="&#x105;" horiz-adv-x="512" 
d="M90 505q24 8 50 15q23 6 52.5 11t63.5 5q54 0 87.5 -13.5t53 -40t26.5 -65t7 -89.5v-324l-1 -1q-1 0 -1 -0.5t-1 -0.5q-24 -15 -47 -35.5t-39.5 -44.5t-24.5 -48.5t-3 -46.5q5 -20 19.5 -27.5t31.5 -8.5q14 0 26 3.5t28 10.5q5 -5 10.5 -15.5t5.5 -18.5q-13 -9 -32.5 -15
t-42.5 -6q-33 0 -57 11t-34 46q-8 26 0 55t26 56t43 50.5t51 39.5l-7 80q-23 -48 -68 -73t-108 -25q-69 0 -112 39.5t-43 115.5q0 77 45.5 115.5t140.5 38.5q49 0 88 -3.5t56 -5.5v68q0 74 -32.5 104t-97.5 30q-29 0 -55 -4t-46 -9q-23 -6 -43 -13q-2 2 -6 5.5t-7 10.5
q-3 8 -3.5 14t0.5 9zM380 251q-17 2 -55.5 5.5t-80.5 3.5q-72 0 -106.5 -26.5t-34.5 -88.5q0 -59 31 -85.5t84 -26.5q36 0 65.5 12.5t51 35t33.5 55t12 71.5v44z" />
    <glyph glyph-name="approxequal" unicode="&#x2248;" horiz-adv-x="539" 
d="M188 370q-18 0 -32 -5.5t-24 -12.5q-11 -8 -20 -18q-11 2 -18.5 10t-9.5 19q9 15 25 26q13 10 33.5 18t49.5 8q25 0 43.5 -8t36 -17.5t35.5 -17.5t42 -8q18 0 32 5.5t24 12.5q11 8 20 18q24 -4 30 -28q-9 -16 -25 -27q-14 -10 -35 -18t-50 -8q-25 0 -43.5 8t-36 17.5
t-35.5 17.5t-42 8zM188 207q-18 0 -32 -5.5t-24 -12.5q-11 -8 -20 -18q-11 2 -18.5 10t-9.5 19q9 15 25 26q13 10 33.5 18t49.5 8q25 0 43.5 -8t36 -17.5t35.5 -17.5t42 -8q18 0 32 5.5t24 12.5q11 8 20 18q12 -2 19.5 -9.5t10.5 -18.5q-9 -16 -25 -27q-14 -10 -35 -18
t-50 -8q-25 0 -43.5 8t-36 17.5t-35.5 17.5t-42 8z" />
    <glyph glyph-name="aring" unicode="&#xe5;" horiz-adv-x="512" 
d="M146 697q0 25 9.5 43.5t24.5 31.5t35 19.5t41 6.5t40.5 -6.5t35.5 -19t25.5 -31.5t9.5 -44q0 -50 -33 -76t-79 -26q-47 0 -78 26t-31 76zM328 697q0 26 -18 46t-55 20q-35 0 -52.5 -20t-17.5 -46t17.5 -46.5t52.5 -20.5q37 0 55 21t18 46zM90 505q24 8 50 15
q23 6 52.5 11t63.5 5q54 0 87.5 -13.5t53 -40t26.5 -65t7 -89.5v-324q-2 -1 -5 -2q-6 -2 -15 -2q-5 0 -8.5 0.5t-6.5 1.5q-4 1 -6 2l-8 84q-23 -48 -68 -73t-108 -25q-69 0 -112 40t-43 115q0 74 45.5 114t140.5 40q49 0 88 -3.5t56 -5.5v68q0 72 -32 103t-98 31
q-29 0 -55 -4t-46 -9q-23 -6 -43 -13q-2 2 -6 5.5t-7 10.5q-3 8 -3 14v9zM380 251q-17 2 -55.5 5.5t-80.5 3.5q-72 0 -106.5 -28t-34.5 -87q0 -58 31 -85t84 -27q36 0 65.5 12.5t51 35t33.5 55t12 71.5v44z" />
    <glyph glyph-name="aringacute" unicode="&#x1fb;" horiz-adv-x="512" 
d="M302 930q14 1 26 -4t18 -13l-117 -106q-20 1 -30 13zM147 680q0 24 9.5 42.5t24.5 31t35 18.5t41 6t40.5 -6t35.5 -18.5t25.5 -31t9.5 -42.5q0 -48 -33 -73.5t-79 -25.5q-47 0 -78 25.5t-31 73.5zM329 680q0 25 -18 45t-55 20q-35 0 -52.5 -20.5t-17.5 -44.5t17.5 -44.5
t52.5 -20.5q37 0 55 20.5t18 44.5zM90 505q24 8 50 15q23 6 52.5 11t63.5 5q54 0 87.5 -13.5t53 -40t26.5 -65t7 -89.5v-324q-2 -1 -5 -2q-6 -2 -15 -2q-5 0 -8.5 0.5t-6.5 1.5q-4 1 -6 2l-8 84q-23 -48 -68 -73t-108 -25q-69 0 -112 40t-43 115q0 74 45.5 114t140.5 40
q49 0 88 -3.5t56 -5.5v68q0 73 -32 103.5t-98 30.5q-29 0 -55 -4t-46 -9q-23 -6 -43 -13q-2 2 -6 5.5t-7 10.5t-3.5 13.5t0.5 9.5zM380 251q-17 2 -55.5 5.5t-80.5 3.5q-72 0 -106.5 -28t-34.5 -87q0 -58 31 -85t84 -27q36 0 65.5 12.5t51 35t33.5 55t12 71.5v44z" />
    <glyph glyph-name="arrowdown" unicode="&#x2193;" horiz-adv-x="494" 
d="M227 607q2 1 7 2t13 1t13 -1t7 -2v-447l163 163q20 -7 25 -26l-208 -208l-208 208q3 8 9.5 15.5t16.5 10.5l162 -163v447v0z" />
    <glyph glyph-name="arrowleft" unicode="&#x2190;" horiz-adv-x="621" 
d="M254 558q8 -3 15.5 -9.5t10.5 -16.5l-163 -162h447q1 -2 2 -7t1 -13t-1 -13t-2 -7h-447l163 -163q-7 -20 -26 -25l-208 208z" />
    <glyph glyph-name="arrowright" unicode="&#x2192;" horiz-adv-x="620" 
d="M366 142q-18 5 -26 25l163 163h-447q-1 2 -2 7t-1 13t1 13t2 7h447l-163 162q7 19 26 26l208 -208z" />
    <glyph glyph-name="arrowup" unicode="&#x2191;" horiz-adv-x="494" 
d="M455 402q-5 -18 -25 -26l-163 163v-447q-2 -1 -7 -2t-13 -1t-13 1t-7 2v447l-162 -163q-19 7 -26 26l208 208z" />
    <glyph glyph-name="asciicircum" unicode="^" horiz-adv-x="516" 
d="M458 456q-1 -1 -5 -2q-8 -2 -19 -2q-12 0 -20 2q-4 1 -6 2l-151 224l-150 -224q-2 -1 -6 -2q-8 -2 -19 -2t-19 2q-4 1 -5 2l175 260q2 1 6 2q8 2 19 2t19 -2q4 -1 6 -2z" />
    <glyph glyph-name="asciitilde" unicode="~" horiz-adv-x="536" 
d="M187 303q-18 0 -32 -5.5t-24 -12.5q-11 -8 -20 -18q-11 2 -18.5 10t-9.5 19q9 15 25 26q13 10 33.5 18t49.5 8q25 0 43.5 -8t36 -17.5t35.5 -17.5t42 -8q18 0 32 5.5t24 12.5q11 8 20 18q24 -4 30 -28q-9 -16 -25 -27q-14 -10 -35 -18t-50 -8q-25 0 -43.5 8t-36 17.5
t-35.5 17.5t-42 8z" />
    <glyph glyph-name="asterisk" unicode="*" horiz-adv-x="347" 
d="M157 703q17 6 33 0v-87l84 28q10 -10 10 -32l-85 -27l54 -74q-5 -5 -11.5 -10.5t-14.5 -7.5l-54 72l-52 -73q-8 2 -15 7.5t-12 10.5l53 75l-84 27q0 21 10 32l84 -28v87z" />
    <glyph glyph-name="at" unicode="@" horiz-adv-x="915" 
d="M846 303q0 -102 -43.5 -160t-124.5 -58q-38 0 -66 17t-39 54q-16 -31 -47 -51t-82 -20q-33 0 -61.5 10t-50.5 32.5t-34.5 59.5t-12.5 91q0 55 12.5 92t34.5 59.5t50.5 32.5t61.5 10q46 0 75 -16t46 -42v55q2 1 6 2q8 2 16 2q9 0 17 -2q4 -1 6 -2v-249q0 -52 18 -75
t52 -23q24 0 46 10t39 32t27 56.5t10 82.5q0 76 -23 139t-66.5 107.5t-107 69t-144.5 24.5q-76 0 -140 -25t-110.5 -72.5t-72.5 -115t-26 -151.5q0 -93 28 -160.5t75 -111t109 -64t130 -20.5q82 0 152.5 24.5t124.5 59.5q19 -8 19 -29q-67 -49 -144 -71.5t-161 -22.5
q-76 0 -145 24.5t-121 73.5t-82.5 123t-30.5 174q0 93 30 167t82.5 126t125 80t157.5 28q93 0 164.5 -27.5t120.5 -77.5t74.5 -119.5t25.5 -152.5zM334 278q0 -47 10 -77t26.5 -48t39 -25t46.5 -7q25 0 45 9t34 24t21.5 34.5t8.5 39.5v98q0 21 -7 40.5t-21 35t-34.5 25
t-46.5 9.5q-24 0 -46.5 -6.5t-39 -24t-26.5 -48t-10 -79.5z" />
    <glyph glyph-name="atilde" unicode="&#xe3;" horiz-adv-x="512" 
d="M134 665q1 2 6.5 9t14.5 14.5t22 13.5t30 6q19 0 32.5 -5.5t25.5 -12l23 -12t26 -5.5q21 0 30.5 9.5t13.5 16.5q9 -2 15 -9t8 -15q-1 -2 -6 -9t-14 -14t-22 -12.5t-29 -5.5q-19 0 -33 5.5t-26 12t-23.5 12t-25.5 5.5q-11 0 -19 -4.5t-14 -9.5q-7 -6 -12 -14q-17 8 -23 24
zM90 505q24 8 50 15q23 6 52.5 11t63.5 5q54 0 87.5 -13.5t53 -40t26.5 -65t7 -89.5v-324q-2 -1 -5 -2q-6 -2 -15 -2q-5 0 -8.5 0.5t-6.5 1.5q-4 1 -6 2l-8 84q-23 -48 -68 -73t-108 -25q-69 0 -112 40t-43 115q0 74 45.5 114t140.5 40q49 0 88 -3.5t56 -5.5v70
q0 72 -32 102t-98 30q-29 0 -55 -4t-46 -9q-23 -6 -43 -13q-2 2 -6 5.5t-7 10.5t-3.5 13.5t0.5 9.5zM380 251q-17 2 -55.5 5.5t-80.5 3.5q-72 0 -106.5 -28t-34.5 -87q0 -58 31 -85t84 -27q36 0 65.5 12.5t51 35t33.5 55t12 71.5v44z" />
    <glyph glyph-name="b" unicode="b" horiz-adv-x="554" 
d="M136 448q23 41 61.5 64.5t99.5 23.5q45 0 81 -14t61.5 -46t39 -84.5t13.5 -128.5q0 -77 -13.5 -129t-39 -84t-61.5 -46t-81 -14q-61 0 -99.5 23.5t-61.5 64.5v-74q-2 -1 -6 -2q-8 -2 -19 -2t-19 2q-4 1 -6 2v742q2 1 6 2q8 2 19 2t19 -2q4 -1 6 -2v-298zM439 263
q0 62 -9 105.5t-28 71t-48.5 40t-71.5 12.5q-36 0 -63 -14.5t-45 -37.5t-27.5 -51.5t-10.5 -57.5v-131q0 -30 9.5 -59.5t27.5 -53t45.5 -38.5t63.5 -15q42 0 71.5 12.5t48.5 40t28 71t9 105.5z" />
    <glyph glyph-name="backslash" unicode="\" horiz-adv-x="439" 
d="M415 -42q-3 -2 -7 -3t-8.5 -1.5t-11.5 -0.5q-11 0 -21 2q-4 1 -7 3l-336 787q3 1 7 2q3 1 8 2t12 1t12 -1t9 -2t7 -2z" />
    <glyph glyph-name="bar" unicode="|" horiz-adv-x="250" 
d="M100 786q2 1 6 2q8 2 19 2t19 -2q4 -1 6 -2v-979q-2 -1 -6 -2q-8 -2 -19 -2t-19 2q-4 1 -6 2v979v0z" />
    <glyph glyph-name="braceleft" unicode="{" horiz-adv-x="338" 
d="M295 810q1 -2 2.5 -8t1.5 -14t-1.5 -14t-2.5 -8h-39q-49 0 -70.5 -23.5t-21.5 -67.5v-250q0 -33 -6.5 -54.5t-26.5 -35.5q20 -14 26.5 -36t6.5 -55v-250q0 -44 21.5 -67.5t70.5 -23.5h39q1 -2 2.5 -7t1.5 -15t-1.5 -15t-2.5 -7h-48q-67 0 -100 36.5t-33 96.5v270
q0 20 -9.5 35t-32.5 15h-33q-1 2 -2.5 8t-1.5 14q0 9 1.5 15t2.5 8h33q23 0 32.5 15t9.5 35v270q0 60 33 96.5t100 36.5h48z" />
    <glyph glyph-name="braceright" unicode="}" horiz-adv-x="337" 
d="M90 810q67 0 100 -36.5t33 -96.5v-270q0 -20 9.5 -35t32.5 -15h33q1 -2 2.5 -8t1.5 -14q0 -9 -1.5 -15t-2.5 -8h-33q-23 0 -32.5 -15t-9.5 -35v-270q0 -60 -33 -96.5t-100 -36.5h-48q-1 2 -2 7.5t-1 14.5q0 8 1 14t2 8h39q50 0 71 23.5t21 67.5v250q0 33 6.5 54.5
t26.5 35.5q-20 14 -26.5 36t-6.5 55v250q0 44 -21 67.5t-71 23.5h-39q0 2 -1.5 7t-1.5 14q0 11 1 16t2 7h48z" />
    <glyph glyph-name="bracketleft" unicode="[" horiz-adv-x="316" 
d="M273 810q1 -2 2 -6q1 -3 1.5 -7t0.5 -10q0 -10 -2 -18q-1 -4 -2 -5h-123v-888h123q1 -2 2 -6q2 -8 2 -17q0 -10 -2 -18q-1 -4 -2 -5h-173v980h173z" />
    <glyph glyph-name="bracketright" unicode="]" horiz-adv-x="315" 
d="M42 -170q-1 1 -2 5q-2 8 -2 18q0 9 2 17q1 4 2 6h123v888h-123q-1 1 -2 5q-2 8 -2 18q0 6 0.5 10t1.5 7q1 4 2 6h173v-980h-173z" />
    <glyph glyph-name="breve" unicode="&#x2d8;" horiz-adv-x="324" 
d="M295 678q-15 -16 -34 -28q-17 -11 -42 -19.5t-59 -8.5t-59 8.5t-42 19.5q-20 12 -34 28q6 20 24 27q13 -11 30 -20q14 -8 34.5 -14t46.5 -6q25 0 46 6t35 14q17 9 30 20q19 -6 24 -27z" />
    <glyph glyph-name="brokenbar" unicode="&#xa6;" horiz-adv-x="238" 
d="M99 786q2 1 6 2q8 2 19 2t19 -2q4 -1 6 -2v-437q-2 -1 -6 -2q-8 -2 -19 -2t-19 2q-4 1 -6 2v437zM99 244q2 1 6 2q8 2 19 2t19 -2q4 -1 6 -2v-437q-2 -1 -6 -2q-8 -2 -19 -2t-19 2q-4 1 -6 2v437z" />
    <glyph glyph-name="bullet" unicode="&#x2022;" horiz-adv-x="298" 
d="M194 282q0 -20 -12.5 -32t-32.5 -12q-19 0 -32 12t-13 32q0 21 13 33t32 12q20 0 32.5 -12t12.5 -33z" />
    <glyph glyph-name="c" unicode="c" horiz-adv-x="444" 
d="M281 491q-88 0 -128 -57t-40 -171q0 -115 42 -170.5t130 -55.5q23 0 41.5 3t31.5 7q15 4 27 11q8 -5 12.5 -16t5.5 -23q-15 -9 -34 -15q-17 -5 -41.5 -9.5t-56.5 -4.5q-102 0 -156 69.5t-54 203.5t54 203.5t156 69.5q30 0 53 -3.5t38 -8.5q18 -5 30 -12q0 -11 -4 -21.5
t-13 -17.5q-11 5 -25 9q-12 3 -29.5 6t-39.5 3z" />
    <glyph glyph-name="cacute" unicode="&#x107;" horiz-adv-x="445" 
d="M219 608q-23 3 -33 19l111 148q14 1 27 -5.5t20 -17.5zM281 491q-88 0 -128 -57t-40 -171q0 -115 42 -170.5t130 -55.5q23 0 41.5 3t31.5 7q15 4 27 11q8 -5 12.5 -16t5.5 -23q-15 -9 -34 -15q-17 -5 -41.5 -9.5t-56.5 -4.5q-102 0 -156 69.5t-54 203.5t54 203.5
t156 69.5q30 0 53 -3.5t38 -8.5q18 -5 30 -12q0 -11 -4 -21.5t-13 -17.5q-11 5 -25 9q-12 3 -29.5 6t-39.5 3z" />
    <glyph glyph-name="caron" unicode="&#x2c7;" horiz-adv-x="404" 
d="M57 654q6 21 25 28l117 -86l115 85q9 -2 15 -9.5t9 -17.5l-127 -104h-26z" />
    <glyph glyph-name="ccaron" unicode="&#x10d;" horiz-adv-x="445" 
d="M139 698q6 19 23 26l107 -79l105 78q9 -2 14.5 -9t8.5 -16l-117 -96h-23zM281 491q-88 0 -128 -57t-40 -171q0 -115 42 -170.5t130 -55.5q23 0 41.5 3t31.5 7q15 4 27 11q8 -5 12.5 -16t5.5 -23q-15 -9 -34 -15q-17 -5 -41.5 -9.5t-56.5 -4.5q-102 0 -156 69.5t-54 203.5
t54 203.5t156 69.5q30 0 53 -3.5t38 -8.5q18 -5 30 -12q0 -11 -4 -21.5t-13 -17.5q-11 5 -25 9q-12 3 -29.5 6t-39.5 3z" />
    <glyph glyph-name="ccedilla" unicode="&#xe7;" horiz-adv-x="444" 
d="M251 -72q59 0 85.5 -22.5t26.5 -63.5q0 -48 -29 -70t-86 -22q-20 0 -36.5 3t-27.5 8q-14 5 -24 12q1 19 14 28q2 -1 23 -9t51 -8q35 0 54.5 13t19.5 46q0 54 -69 54h-32l-8 10l17 87q-86 13 -127.5 82t-41.5 187q0 134 54 203.5t156 69.5q30 0 53 -3.5t38 -8.5
q18 -5 30 -12q0 -25 -17 -38q-11 5 -25 9q-12 3 -29.5 6t-39.5 3q-88 0 -128 -57.5t-40 -171.5q0 -115 42 -171t130 -56q23 0 41.5 3t31.5 7q15 4 27 11q8 -5 12.5 -15.5t5.5 -22.5q-14 -9 -34 -15q-17 -5 -43.5 -9.5t-62.5 -4.5z" />
    <glyph glyph-name="ccircumflex" unicode="&#x109;" horiz-adv-x="445" 
d="M398 631q-3 -9 -9 -16.5t-15 -9.5l-114 83l-112 -83q-18 5 -24 26l124 102h25zM281 491q-88 0 -128 -57t-40 -171q0 -115 42 -170.5t130 -55.5q23 0 41.5 3t31.5 7q15 4 27 11q8 -5 12.5 -16t5.5 -23q-15 -9 -34 -15q-17 -5 -41.5 -9.5t-56.5 -4.5q-102 0 -156 69.5
t-54 203.5t54 203.5t156 69.5q30 0 53 -3.5t38 -8.5q18 -5 30 -12q0 -11 -4 -21.5t-13 -17.5q-11 5 -25 9q-12 3 -29.5 6t-39.5 3z" />
    <glyph glyph-name="cdotaccent" unicode="&#x10b;" horiz-adv-x="445" 
d="M291 653l-8 -2q-10 -2 -23 -2t-23 2q-4 1 -7 2v54q3 1 7 2q10 2 23 2t23 -2l8 -2v-54zM281 491q-88 0 -128 -57t-40 -171q0 -115 42 -170.5t130 -55.5q23 0 41.5 3t31.5 7q15 4 27 11q8 -5 12.5 -16t5.5 -23q-15 -9 -34 -15q-17 -5 -41.5 -9.5t-56.5 -4.5
q-102 0 -156 69.5t-54 203.5t54 203.5t156 69.5q30 0 53 -3.5t38 -8.5q18 -5 30 -12q0 -11 -4 -21.5t-13 -17.5q-11 5 -25 9q-12 3 -29.5 6t-39.5 3z" />
    <glyph glyph-name="cedilla" unicode="&#xb8;" horiz-adv-x="296" 
d="M152 37l-11 -63q59 0 85 -24t26 -66q0 -98 -115 -98q-20 0 -36.5 3t-27.5 8q-14 5 -24 12q1 19 14 28q2 -1 23 -9t51 -8q35 0 54.5 16t19.5 49q0 56 -69 56h-32l-8 10l16 91z" />
    <glyph glyph-name="cent" unicode="&#xa2;" horiz-adv-x="465" 
d="M248 627q10 4 25 4q16 0 24 -4l-5 -91q26 -2 45.5 -5t33.5 -8q15 -5 26 -11q0 -25 -17 -38q-11 5 -25 9q-12 3 -29.5 6t-39.5 3q-88 0 -128 -57.5t-40 -171.5q0 -115 42 -171t130 -56q23 0 41.5 3t31.5 7q15 4 27 11q8 -5 12.5 -15.5t5.5 -22.5q-12 -7 -30 -13
q-15 -5 -36.5 -10t-49.5 -6l5 -91q-4 -2 -10.5 -3.5t-14.5 -1.5t-14.5 1.5t-9.5 3.5l5 92q-91 8 -139 76.5t-48 195.5t48 195.5t139 76.5l-5 92v0z" />
    <glyph glyph-name="circumflex" unicode="&#x2c6;" horiz-adv-x="396" 
d="M338 588q-3 -9 -9 -16.5t-15 -9.5l-117 85l-115 -86q-19 7 -25 27l128 105h26z" />
    <glyph glyph-name="colon" unicode=":" horiz-adv-x="224" 
d="M144 399l-8 -2q-10 -2 -24 -2t-24 2l-8 2v56l8 2q10 2 24 2t24 -2l8 -2v-56zM144 4l-8 -2q-10 -2 -24 -2t-24 2l-8 2v56l8 2q10 2 24 2t24 -2l8 -2v-56z" />
    <glyph glyph-name="comma" unicode="," horiz-adv-x="218" 
d="M65 -87q8 9 15 22q6 11 11.5 27t7.5 38q-8 0 -16 2q-4 1 -6 2v56l8 2q10 2 24 2t24 -2l8 -2v-40q0 -31 -8.5 -53.5t-18.5 -37.5q-12 -18 -27 -31z" />
    <glyph glyph-name="commaaccentcomb" unicode="&#xf6c3;" horiz-adv-x="0" 
d="M45 -87q8 9 15 22q6 11 11.5 27t7.5 38q-8 0 -16 2q-4 1 -6 2v56l8 2q10 2 24 2t24 -2l8 -2v-40q0 -31 -8.5 -53.5t-18.5 -37.5q-12 -18 -27 -31z" />
    <glyph glyph-name="commaaccentcomb.alt" horiz-adv-x="0" 
d="M122 704q-9 -10 -16 -22q-6 -11 -11.5 -27t-7.5 -38q6 -1 10.5 -1t7.5 -1q4 -1 6 -1v-57l-8 -2q-10 -2 -24 -2t-24 2l-8 2v41q0 30 8 52.5t19 38.5q11 18 27 31z" />
    <glyph glyph-name="copyright" unicode="&#xa9;" horiz-adv-x="807" 
d="M404 2q-70 0 -131.5 26.5t-107.5 72.5t-72.5 107.5t-26.5 131.5t26.5 131.5t72.5 107t107.5 72t131.5 26.5t131.5 -26.5t107 -72t72 -107t26.5 -131.5t-26.5 -131.5t-72 -107.5t-107 -72.5t-131.5 -26.5zM404 639q-62 0 -116.5 -23.5t-95.5 -64t-64.5 -95t-23.5 -116.5
t23.5 -116.5t64.5 -95.5t95.5 -64.5t116.5 -23.5t116.5 23.5t95 64.5t64 95.5t23.5 116.5t-23.5 116.5t-64 95t-95 64t-116.5 23.5zM406 147q-85 0 -127.5 51.5t-42.5 148.5q0 199 170 199q25 0 43.5 -3.5t31.5 -7.5q15 -5 26 -11q0 -19 -15 -31q-11 5 -24 9q-11 3 -26 6
t-31 3q-68 0 -100 -37.5t-32 -126.5q0 -84 33 -123.5t99 -39.5q17 0 33 2.5t28 5.5q14 4 25 8q8 -5 11 -13t4 -17q-11 -7 -27 -12q-14 -5 -33.5 -8t-45.5 -3z" />
    <glyph glyph-name="currency" unicode="&#xa4;" horiz-adv-x="587" 
d="M415 120q-25 -20 -55.5 -31.5t-65.5 -11.5t-66 11.5t-56 31.5l-74 -74q-2 0 -5 1l-6 3t-8 7q-7 7 -9 13q-1 3 -1 5l74 74q-20 25 -31.5 56t-11.5 66t12 66t32 56l-75 74q1 2 2 6q2 7 8 13q9 7 14 9q3 1 5 1l76 -74q25 20 55 31.5t65 11.5q34 0 64.5 -11.5t55.5 -31.5
l73 74q2 0 5 -1q5 -2 14 -9q4 -4 5.5 -7.5t3.5 -5.5q1 -4 2 -6l-73 -74q20 -26 32 -56.5t12 -65.5t-12 -66t-32 -56l75 -74l-2 -6q-2 -6 -8 -12q-8 -8 -14 -10q-3 -1 -5 -1zM294 424q-32 0 -60 -12t-48.5 -32.5t-32.5 -48.5t-12 -60t12 -60t32.5 -48.5t48.5 -32.5t60 -12
t60 12t48.5 32.5t32.5 48.5t12 60t-12 60t-32.5 48.5t-48.5 32.5t-60 12z" />
    <glyph glyph-name="d" unicode="d" horiz-adv-x="554" 
d="M418 746q2 1 6 2q8 2 19 2t19 -2q4 -1 6 -2v-742q-2 -1 -6 -2q-8 -2 -15 -2q-8 0 -16 2q-4 1 -6 2l-5 77q-23 -42 -61.5 -66.5t-101.5 -24.5q-45 0 -81 14t-61.5 46t-39 84t-13.5 129q0 76 13.5 128.5t39 84.5t61.5 46t81 14q61 0 99.5 -23.5t61.5 -64.5v298zM418 327
q0 29 -9.5 58.5t-28 53t-45.5 38.5t-63 15q-42 0 -71.5 -12.5t-48.5 -40t-28 -71t-9 -105.5t9 -105.5t28 -71t48.5 -40t71.5 -12.5q36 0 63.5 15t45.5 38.5t27.5 53t9.5 59.5v127z" />
    <glyph glyph-name="dagger" unicode="&#x2020;" horiz-adv-x="580" 
d="M266 -109l7 545l-236 -6q-1 2 -2 6q-2 8 -2 17t2 17q1 4 2 5l236 -6l-7 229q2 0 6 1q8 2 19 2q10 0 18 -2q4 -1 6 -1l-7 -229l235 6q1 -2 2 -6q2 -8 2 -16q0 -9 -2 -17q-1 -4 -2 -6l-235 6l7 -545l-24 -18z" />
    <glyph glyph-name="daggerdbl" unicode="&#x2021;" horiz-adv-x="633" 
d="M570 149q0 -2 1 -6q1 -3 1.5 -7t0.5 -10q0 -11 -2 -17q-1 -4 -1 -5l-236 7l7 -230q-2 -1 -6 -2q-3 -1 -8 -1h-11q-14 0 -18 1t-6 2l7 230l-235 -7q-1 1 -2 5q-1 3 -1.5 7t-0.5 10t0.5 10t1.5 7q1 4 2 6l235 -7l-7 147l7 147l-236 -6q-1 1 -2 5t-1 18q0 13 1 17q1 3 2 5
l236 -6l-7 229q2 0 6 1q8 2 19 2q10 0 18 -2q4 -1 6 -1l-7 -229l235 6q1 -1 2 -5q2 -8 2 -17q0 -10 -2 -18q-1 -4 -2 -5l-235 6l7 -147l-7 -147z" />
    <glyph glyph-name="dcaron" unicode="&#x10f;" horiz-adv-x="566" 
d="M521 599q32 31 43 67.5t8 82.5q29 8 47 -4q1 -45 -17.5 -90t-54.5 -70q-18 1 -26 14zM418 746q2 1 6 2q8 2 19 2t19 -2q4 -1 6 -2v-742q-2 -1 -6 -2q-8 -2 -15 -2q-8 0 -16 2q-4 1 -6 2l-5 77q-23 -42 -61.5 -66.5t-101.5 -24.5q-45 0 -81 14t-61.5 46t-39 84t-13.5 129
q0 76 13.5 128.5t39 84.5t61.5 46t81 14q61 0 99.5 -23.5t61.5 -64.5v298zM418 327q0 29 -9.5 58.5t-28 53t-45.5 38.5t-63 15q-42 0 -71.5 -12.5t-48.5 -40t-28 -71t-9 -105.5t9 -105.5t28 -71t48.5 -40t71.5 -12.5q36 0 63.5 15t45.5 38.5t27.5 53t9.5 59.5v127z" />
    <glyph glyph-name="dcroat" unicode="&#x111;" horiz-adv-x="554" 
d="M539 662q0 -1 1 -4q2 -6 2 -14t-2 -14q-1 -3 -1 -4h-71v-622q-2 -1 -6 -2q-8 -2 -15 -2q-8 0 -16 2q-4 1 -6 2l-5 77q-23 -42 -61.5 -66.5t-101.5 -24.5q-45 0 -81 14t-61.5 46t-39 84t-13.5 129q0 76 13.5 128.5t39 84.5t61.5 46t81 14q61 0 99.5 -23.5t61.5 -64.5v178
h-117q-1 1 -2 4t-1 14t1 14t2 4h117v84q2 1 6 2q8 2 19 2t19 -2q4 -1 6 -2v-84h71zM418 327q0 29 -9.5 58.5t-28 53t-45.5 38.5t-63 15q-42 0 -71.5 -12.5t-48.5 -40t-28 -71t-9 -105.5t9 -105.5t28 -71t48.5 -40t71.5 -12.5q36 0 63.5 15t45.5 38.5t27.5 53t9.5 59.5v127z
" />
    <glyph glyph-name="degree" unicode="&#xb0;" horiz-adv-x="360" 
d="M59 617q0 22 8 43.5t23.5 39t38.5 28t53 10.5t52.5 -10.5t37 -27t22 -37.5t7.5 -43t-7.5 -43.5t-22 -38t-37 -27t-52.5 -10.5q-32 0 -55 10t-38 26.5t-22.5 37t-7.5 42.5zM270 619q0 17 -5.5 33.5t-16.5 29t-27.5 20.5t-39.5 8t-40 -8t-28.5 -21t-17 -29.5t-5.5 -33.5
q0 -34 22 -61.5t69 -27.5q23 0 39.5 7.5t27.5 20t16.5 29t5.5 33.5z" />
    <glyph glyph-name="dieresis" unicode="&#xa8;" horiz-adv-x="455" 
d="M179 615l-8 -2t-9 -1.5t-13 -0.5q-13 0 -23 2q-4 1 -7 2v53q3 0 7 1q10 2 23 2q8 0 13 -0.5t9 -1.5t8 -1v-53zM328 615l-8 -2t-9 -1.5t-13 -0.5q-13 0 -23 2q-4 1 -7 2v53q3 0 7 1q10 2 23 2q8 0 13 -0.5t9 -1.5t8 -1v-53z" />
    <glyph glyph-name="divide" unicode="&#xf7;" horiz-adv-x="561" 
d="M313 423l-8 -2q-10 -2 -24 -2t-24 2l-8 2v56l8 2q10 2 24 2t24 -2l8 -2v-56zM86 269q-1 1 -2 5q-2 6 -2 16q0 8 2 16q1 3 2 5h389q1 -2 2 -5q2 -8 2 -16q0 -10 -2 -16q-1 -4 -2 -5h-389zM313 101l-8 -2q-10 -2 -24 -2t-24 2l-8 2v56l8 2q10 2 24 2t24 -2l8 -2v-56z" />
    <glyph glyph-name="dollar" unicode="$" horiz-adv-x="559" 
d="M252 785q2 1 6 2q8 2 19 2q12 0 20 -2q4 -1 6 -2l-6 -117q39 -1 70 -4t53 -8q26 -5 45 -11q0 -3 -0.5 -8.5t-2.5 -13.5q-3 -8 -6.5 -12t-5.5 -6q-20 5 -44 9q-20 4 -48.5 7t-60.5 3q-93 0 -138 -33.5t-45 -93.5q0 -47 28.5 -72t71.5 -40t93.5 -26t93.5 -30.5t71.5 -53.5
t28.5 -95q0 -78 -53 -124.5t-152 -52.5l7 -128q-2 -1 -6 -2q-8 -2 -19 -2q-12 0 -20 2q-4 1 -6 2l6 127q-45 0 -81 5.5t-62 11.5q-30 7 -53 17v8.5t2 13.5t5.5 12t5.5 6q26 -8 56 -14q26 -5 59 -9t69 -4q90 0 139.5 31t49.5 97q0 37 -16.5 61t-44 39.5t-62 25t-71 18.5
t-71 20.5t-62 30.5t-44 48t-16.5 73q0 75 50 121t147 53l-6 118v0z" />
    <glyph glyph-name="dotaccent" unicode="&#x2d9;" horiz-adv-x="176" 
d="M117 607l-8 -2t-9 -1.5t-13 -0.5t-13.5 0.5t-9.5 1.5t-7 2v54q3 1 7 2t9.5 1.5t13.5 0.5t13 -0.5t9 -1.5l8 -2v-54z" />
    <glyph glyph-name="dotlessi" unicode="&#x131;" horiz-adv-x="228" 
d="M139 4q-2 -1 -6 -2q-8 -2 -19 -2t-19 2q-4 1 -6 2v518q2 1 6 2q8 2 19 2t19 -2q4 -1 6 -2v-518z" />
    <glyph glyph-name="dotlessj" unicode="&#x237;" horiz-adv-x="228" 
d="M89 522q1 1 5 2q3 1 7.5 1.5t12.5 0.5q11 0 19 -2q4 -1 6 -2v-610q0 -84 -36 -123t-99 -39q-16 0 -27 1t-18 3q-9 2 -14 5q-1 1 -1 3q-1 2 -1 9q0 14 3 20q1 4 3 6q5 -1 11 -2q5 -1 13 -1.5t19 -0.5q49 0 73 26.5t24 88.5v614z" />
    <glyph glyph-name="e" unicode="e" horiz-adv-x="509" 
d="M113 247q5 -114 46 -162t122 -48q29 0 52.5 5.5t40.5 12.5q19 8 33 19q8 -6 14 -16.5t7 -22.5q-16 -13 -40 -23q-20 -8 -50 -15t-69 -7q-103 0 -155.5 69.5t-52.5 206.5q0 71 15 122t43 84t66 48.5t85 15.5q90 0 137 -52t47 -136q0 -23 -2 -42t-4 -32l-5 -27h-330z
M402 354q0 28 -7.5 53t-23 44t-40.5 30.5t-61 11.5q-69 0 -111 -48.5t-46 -156.5h284q0 2 2.5 19t2.5 47z" />
    <glyph glyph-name="eacute" unicode="&#xe9;" horiz-adv-x="509" 
d="M225 608q-23 3 -33 19l111 148q14 1 27 -5.5t20 -17.5zM113 247q5 -114 46 -162t122 -48q29 0 52.5 5.5t40.5 12.5q19 8 33 19q8 -6 14 -16.5t7 -22.5q-16 -13 -40 -23q-20 -8 -50 -15t-69 -7q-103 0 -155.5 69.5t-52.5 206.5q0 71 15 122t43 84t66 48.5t85 15.5
q90 0 137 -52t47 -136q0 -23 -2 -42t-4 -32l-5 -27h-330zM402 354q0 28 -7.5 53t-23 44t-40.5 30.5t-61 11.5q-69 0 -111 -48.5t-46 -156.5h284q0 2 2.5 19t2.5 47z" />
    <glyph glyph-name="ebreve" unicode="&#x115;" horiz-adv-x="509" 
d="M403 684q-15 -16 -34 -28q-17 -11 -42 -19.5t-59 -8.5t-59 8.5t-42 19.5q-20 12 -34 28q6 20 24 27q13 -11 30 -20q14 -8 34.5 -14t46.5 -6q25 0 46 6t35 14q17 9 30 20q19 -6 24 -27zM113 247q5 -114 46 -162t122 -48q29 0 52.5 5.5t40.5 12.5q19 8 33 19q8 -6 14 -16.5
t7 -22.5q-16 -13 -40 -23q-20 -8 -50 -15t-69 -7q-103 0 -155.5 69.5t-52.5 206.5q0 71 15 122t43 84t66 48.5t85 15.5q90 0 137 -52t47 -136q0 -23 -2 -42t-4 -32l-5 -27h-330zM402 354q0 28 -7.5 53t-23 44t-40.5 30.5t-61 11.5q-69 0 -111 -48.5t-46 -156.5h284
q0 2 2.5 19t2.5 47z" />
    <glyph glyph-name="ecaron" unicode="&#x11b;" horiz-adv-x="509" 
d="M133 701q6 20 24 26l111 -82l110 81q8 -2 14 -9t9 -16l-121 -99h-25zM113 247q5 -114 46 -162t122 -48q29 0 52.5 5.5t40.5 12.5q19 8 33 19q8 -6 14 -16.5t7 -22.5q-16 -13 -40 -23q-20 -8 -50 -15t-69 -7q-103 0 -155.5 69.5t-52.5 206.5q0 71 15 122t43 84t66 48.5
t85 15.5q90 0 137 -52t47 -136q0 -23 -2 -42t-4 -32l-5 -27h-330zM402 354q0 28 -7.5 53t-23 44t-40.5 30.5t-61 11.5q-69 0 -111 -48.5t-46 -156.5h284q0 2 2.5 19t2.5 47z" />
    <glyph glyph-name="ecircumflex" unicode="&#xea;" horiz-adv-x="509" 
d="M406 628q-3 -8 -9 -15.5t-15 -9.5l-114 83l-112 -84q-18 7 -24 26l124 103h25zM113 247q5 -114 46 -162t122 -48q29 0 52.5 5.5t40.5 12.5q19 8 33 19q8 -6 14 -16.5t7 -22.5q-16 -13 -40 -23q-20 -8 -50 -15t-69 -7q-103 0 -155.5 69.5t-52.5 206.5q0 71 15 122t43 84
t66 48.5t85 15.5q90 0 137 -52t47 -136q0 -23 -2 -42t-4 -32l-5 -27h-330zM402 354q0 28 -7.5 53t-23 44t-40.5 30.5t-61 11.5q-69 0 -111 -48.5t-46 -156.5h284q0 2 2.5 19t2.5 47z" />
    <glyph glyph-name="edieresis" unicode="&#xeb;" horiz-adv-x="509" 
d="M225 638l-8 -2t-9 -1.5t-13 -0.5q-13 0 -23 2q-4 1 -7 2v53q3 0 7 1q10 2 23 2q8 0 13 -0.5t9 -1.5t8 -1v-53zM374 638l-8 -2t-9 -1.5t-13 -0.5q-13 0 -23 2q-4 1 -7 2v53q3 0 7 1q10 2 23 2q8 0 13 -0.5t9 -1.5t8 -1v-53zM113 247q5 -114 46 -162t122 -48q29 0 52.5 5.5
t40.5 12.5q19 8 33 19q8 -6 14 -16.5t7 -22.5q-16 -13 -40 -23q-20 -8 -50 -15t-69 -7q-103 0 -155.5 69.5t-52.5 206.5q0 71 15 122t43 84t66 48.5t85 15.5q90 0 137 -52t47 -136q0 -23 -2 -42t-4 -32l-5 -27h-330zM402 354q0 28 -7.5 53t-23 44t-40.5 30.5t-61 11.5
q-69 0 -111 -48.5t-46 -156.5h284q0 2 2.5 19t2.5 47z" />
    <glyph glyph-name="edotaccent" unicode="&#x117;" horiz-adv-x="509" 
d="M300 647l-8 -2t-9 -1.5t-13 -0.5t-13.5 0.5t-9.5 1.5t-7 2v54q3 1 7 2t9.5 1.5t13.5 0.5t13 -0.5t9 -1.5l8 -2v-54zM113 247q5 -114 46 -162t122 -48q29 0 52.5 5.5t40.5 12.5q19 8 33 19q8 -6 14 -16.5t7 -22.5q-16 -13 -40 -23q-20 -8 -50 -15t-69 -7
q-103 0 -155.5 69.5t-52.5 206.5q0 71 15 122t43 84t66 48.5t85 15.5q90 0 137 -52t47 -136q0 -23 -2 -42t-4 -32l-5 -27h-330zM402 354q0 28 -7.5 53t-23 44t-40.5 30.5t-61 11.5q-69 0 -111 -48.5t-46 -156.5h284q0 2 2.5 19t2.5 47z" />
    <glyph glyph-name="egrave" unicode="&#xe8;" horiz-adv-x="509" 
d="M164 752q6 10 19.5 17t27.5 6l111 -148q-10 -16 -33 -19zM113 247q5 -114 46 -162t122 -48q29 0 52.5 5.5t40.5 12.5q19 8 33 19q8 -6 14 -16.5t7 -22.5q-16 -13 -40 -23q-20 -8 -50 -15t-69 -7q-103 0 -155.5 69.5t-52.5 206.5q0 71 15 122t43 84t66 48.5t85 15.5
q90 0 137 -52t47 -136q0 -23 -2 -42t-4 -32l-5 -27h-330zM402 354q0 28 -7.5 53t-23 44t-40.5 30.5t-61 11.5q-69 0 -111 -48.5t-46 -156.5h284q0 2 2.5 19t2.5 47z" />
    <glyph glyph-name="eight" unicode="8" horiz-adv-x="581" 
d="M287 -10q-54 0 -95 13t-69 35.5t-42.5 53.5t-14.5 68q0 43 15.5 77.5t38 60t46.5 43t41 27.5q-24 12 -45.5 27t-37.5 34.5t-25.5 44t-9.5 56.5q0 73 53.5 116.5t145.5 43.5q93 0 146.5 -43t53.5 -116q0 -38 -12 -67.5t-29.5 -52t-37.5 -38t-36 -24.5q29 -14 55 -30
t45.5 -37.5t31 -50t11.5 -66.5q0 -79 -58.5 -127t-170.5 -48zM288 647q-69 0 -108.5 -31t-39.5 -83q0 -36 16.5 -61t43.5 -44t61.5 -33l70.5 -29q14 9 32 23t34.5 34t27.5 46t11 58q0 57 -40 88.5t-109 31.5zM291 34q84 0 128.5 36.5t44.5 92.5q0 41 -19.5 69t-50.5 48
t-69.5 35.5t-76.5 32.5q-9 -5 -31 -19.5t-44 -38t-39 -55t-17 -71.5q0 -56 42.5 -93t131.5 -37z" />
    <glyph glyph-name="eight.denom" horiz-adv-x="320" 
d="M52 265q0 37 27 60t81 23q50 0 78.5 -21.5t28.5 -61.5q0 -33 -16.5 -54.5t-39.5 -35.5q28 -14 48 -33.5t20 -54.5q0 -44 -31 -68t-87 -24q-54 0 -87 23t-33 68q0 38 20.5 62t45.5 38q-23 13 -39 31t-16 48zM232 263q0 56 -73 56q-34 0 -52.5 -14t-18.5 -38q0 -17 8 -28.5
t21.5 -20.5t30.5 -16.5t35 -14.5q22 14 35.5 32.5t13.5 43.5zM243 85q0 19 -10 32t-25.5 23t-34.5 17.5t-37 15.5q-7 -4 -17 -11t-19.5 -17.5t-16.5 -24.5t-7 -32q0 -33 22.5 -48t63.5 -15q34 0 57.5 14.5t23.5 45.5z" />
    <glyph glyph-name="eight.num" horiz-adv-x="320" 
d="M52 611q0 37 27 60t81 23q50 0 78.5 -21.5t28.5 -61.5q0 -33 -16.5 -54.5t-39.5 -35.5q28 -14 48 -33.5t20 -54.5q0 -44 -31 -68t-87 -24q-54 0 -87 23t-33 68q0 38 20.5 62t45.5 38q-23 13 -39 31t-16 48zM232 609q0 56 -73 56q-34 0 -52.5 -14t-18.5 -38q0 -17 8 -28.5
t21.5 -20.5t30.5 -16.5t35 -14.5q22 14 35.5 32.5t13.5 43.5zM243 431q0 19 -10 32t-25.5 23t-34.5 17.5t-37 15.5q-7 -4 -17 -11t-19.5 -17.5t-16.5 -24.5t-7 -32q0 -33 22.5 -48t63.5 -15q34 0 57.5 14.5t23.5 45.5z" />
    <glyph glyph-name="eightinferior" unicode="&#x2088;" horiz-adv-x="320" 
d="M52 169q0 37 27 60t81 23q50 0 78.5 -21.5t28.5 -61.5q0 -33 -16.5 -54.5t-39.5 -35.5q28 -14 48 -33.5t20 -54.5q0 -44 -31 -68t-87 -24q-54 0 -87 23t-33 68q0 38 20.5 62t45.5 38q-23 13 -39 31t-16 48zM232 167q0 56 -73 56q-34 0 -52.5 -14t-18.5 -38q0 -17 8 -28.5
t21.5 -20.5t30.5 -16.5t35 -14.5q22 14 35.5 32.5t13.5 43.5zM243 -11q0 19 -10 32t-25.5 23t-34.5 17.5t-37 15.5q-7 -4 -17 -11t-19.5 -17.5t-16.5 -24.5t-7 -32q0 -33 22.5 -48t63.5 -15q34 0 57.5 14.5t23.5 45.5z" />
    <glyph glyph-name="ellipsis" unicode="&#x2026;" horiz-adv-x="544" 
d="M141 4l-8 -2q-10 -2 -24 -2t-24 2l-8 2v56l8 2q10 2 24 2t24 -2l8 -2v-56zM304 4l-8 -2q-10 -2 -24 -2q-8 0 -13.5 0.5t-9.5 1.5l-8 2v56l8 2t9.5 1.5t13.5 0.5q14 0 24 -2l8 -2v-56zM467 4l-8 -2q-10 -2 -24 -2q-8 0 -13.5 0.5t-9.5 1.5l-8 2v56l8 2t9.5 1.5t13.5 0.5
q14 0 24 -2l8 -2v-56z" />
    <glyph glyph-name="emacron" unicode="&#x113;" horiz-adv-x="509" 
d="M152 646q-8 19 0 39h241q3 -8 3.5 -19.5t-3.5 -19.5h-241zM113 247q5 -114 46 -162t122 -48q29 0 52.5 5.5t40.5 12.5q19 8 33 19q8 -6 14 -16.5t7 -22.5q-16 -13 -40 -23q-20 -8 -50 -15t-69 -7q-103 0 -155.5 69.5t-52.5 206.5q0 71 15 122t43 84t66 48.5t85 15.5
q90 0 137 -52t47 -136q0 -23 -2 -42t-4 -32l-5 -27h-330zM402 354q0 28 -7.5 53t-23 44t-40.5 30.5t-61 11.5q-69 0 -111 -48.5t-46 -156.5h284q0 2 2.5 19t2.5 47z" />
    <glyph glyph-name="emdash" unicode="&#x2014;" horiz-adv-x="806" 
d="M84 269q-1 1 -2 5q-2 6 -2 16q0 8 2 16q1 3 2 5h638q1 -2 2 -5q2 -8 2 -16q0 -10 -2 -16q-1 -4 -2 -5h-638z" />
    <glyph glyph-name="endash" unicode="&#x2013;" horiz-adv-x="556" 
d="M84 269q-1 1 -2 5q-2 6 -2 16q0 8 2 16q1 3 2 5h388q1 -2 2 -5q2 -8 2 -16q0 -10 -2 -16q-1 -4 -2 -5h-388z" />
    <glyph glyph-name="eng" unicode="&#x14b;" horiz-adv-x="549" 
d="M136 445q30 43 75 67t103 24q72 0 112 -40.5t40 -108.5v-439q0 -34 -4.5 -62t-17 -49.5t-34 -37.5t-54.5 -27q-18 13 -16 38q43 15 59.5 46t16.5 90v430q0 60 -30 88.5t-90 28.5q-48 0 -91.5 -29.5t-68.5 -83.5v-376q-2 -1 -6 -2q-8 -2 -19 -2t-19 2q-4 1 -6 2v518
q2 1 6 2q8 2 19 2t19 -2q4 -1 6 -2v-77v0z" />
    <glyph glyph-name="eogonek" unicode="&#x119;" horiz-adv-x="509" 
d="M113 247q5 -114 46 -162t122 -48q29 0 52.5 5.5t40.5 12.5q19 8 33 19q8 -6 14 -16.5t7 -22.5q-28 -17 -58 -42.5t-53.5 -54t-36.5 -58t-8 -53.5q5 -20 19.5 -27.5t31.5 -8.5q14 0 26 3.5t28 10.5q5 -5 10.5 -15.5t5.5 -18.5q-13 -9 -32.5 -15t-42.5 -6q-33 0 -57 11
t-34 46q-7 24 -1.5 49.5t19.5 50.5t34 47t42 40q-12 -2 -25 -3t-27 -1q-103 0 -155.5 69.5t-52.5 206.5q0 71 15 122t43 84t66 48.5t85 15.5q90 0 137 -52t47 -136q0 -23 -2 -42t-4 -32l-5 -27h-330zM402 354q0 28 -7.5 53t-23 44t-40.5 30.5t-61 11.5q-69 0 -111 -48.5
t-46 -156.5h284q0 2 2.5 19t2.5 47z" />
    <glyph glyph-name="equal" unicode="=" horiz-adv-x="509" 
d="M87 354q-5 22 0 42h336q3 -11 2.5 -21.5t-2.5 -20.5h-336zM87 184q-6 22 0 42h336q3 -10 2.5 -20.5t-2.5 -21.5h-336z" />
    <glyph glyph-name="estimated" unicode="&#x212e;" horiz-adv-x="817" 
d="M671 95q-48 -51 -112.5 -78t-141.5 -27q-73 0 -137 27.5t-112 75.5t-75.5 112t-27.5 137t27.5 137t75.5 112t112 75.5t137 27.5t137 -27.5t112 -75.5t75.5 -112t27.5 -137v-24h-544v-218q42 -31 91 -49t101 -18q51 0 98.5 16.5t88.5 45.5h67zM609 583q-41 32 -90 50
t-102 18q-52 0 -101 -17.5t-91 -49.5v-222h384v221z" />
    <glyph glyph-name="eth" unicode="&#xf0;" horiz-adv-x="554" 
d="M347 660q67 -57 104.5 -145.5t37.5 -207.5q0 -91 -14.5 -152t-42.5 -97.5t-68.5 -52t-91.5 -15.5q-48 0 -87 14.5t-66.5 46t-42 81t-14.5 120.5q0 70 14.5 120t41 81.5t63.5 46t82 14.5q61 0 102.5 -24t63.5 -64q-12 62 -41.5 115.5t-77.5 93.5l-131 -82q-9 5 -14.5 14.5
t-7.5 18.5l117 74q-58 38 -133 53q-3 23 11 37q90 -16 161 -64l75 47q19 -11 22 -34zM272 32q35 0 64 10.5t50 36t33 68t12 105.5q0 64 -12.5 106.5t-34 67.5t-52 35t-66.5 10q-35 0 -63 -10.5t-47.5 -36t-30 -67.5t-10.5 -105t11.5 -105.5t32 -68t49.5 -36t64 -10.5z" />
    <glyph glyph-name="exclam" unicode="!" horiz-adv-x="246" 
d="M96 716q0 1 4 2q6 2 23 2q10 0 15 -0.5t8 -1.5t4 -2l-8 -552q-2 -2 -5 -3q-6 -2 -14 -2q-9 0 -15 2q-3 1 -4 3zM153 4q-3 -1 -7 -2q-10 -2 -23 -2q-8 0 -13.5 0.5t-9.5 1.5t-7 2v56q3 1 7 2t9.5 1.5t13.5 0.5q13 0 23 -2q4 -1 7 -2v-56z" />
    <glyph glyph-name="exclamdown" unicode="&#xa1;" horiz-adv-x="235" 
d="M85 514l8 2q10 2 24 2t24 -2l8 -2v-56l-8 -2q-10 -2 -24 -2t-24 2l-8 2v56zM98 354q1 1 4 2q2 1 6 2t9 1t8.5 -1t5.5 -2q3 -1 5 -2l8 -552q-1 -1 -4 -2t-8 -1.5t-15 -0.5q-17 0 -23 2q-4 1 -4 2z" />
    <glyph glyph-name="f" unicode="f" horiz-adv-x="344" 
d="M109 586q0 36 6.5 66.5t24 52t46.5 33.5t74 12q20 0 37.5 -2.5l30.5 -4.5l27 -7q2 -24 -14 -40q-10 2 -21 5q-10 2 -23.5 4t-30.5 2q-33 0 -54 -7.5t-32.5 -22.5t-16 -36.5t-4.5 -49.5v-65h154q1 -2 2.5 -7t1.5 -14q0 -8 -1.5 -13.5t-2.5 -7.5h-154v-480q-2 -1 -6 -2
q-8 -2 -19 -2t-19 2q-4 1 -6 2v480h-70q-1 2 -2.5 7t-1.5 14t1.5 14t2.5 7h70v60v0z" />
    <glyph glyph-name="five" unicode="5" horiz-adv-x="516" 
d="M144 381q2 0 24.5 3t56.5 3q119 0 174.5 -51t55.5 -150q0 -95 -59 -145.5t-187 -50.5q-41 0 -69.5 4t-47.5 9q-22 6 -37 14q-2 11 1.5 22t11.5 17q18 -7 39 -11q18 -4 42.5 -7t53.5 -3q100 0 149 36.5t49 114.5q0 34 -8.5 62.5t-30.5 49.5t-58.5 32.5t-93.5 11.5
q-21 0 -41 -1.5t-35.5 -3t-26.5 -3.5t-14 -2v348h333q9 -24 0 -47h-282v-252z" />
    <glyph glyph-name="five.denom" horiz-adv-x="295" 
d="M95 206q76 0 119 -22.5t43 -84.5q0 -54 -35 -79t-98 -25q-20 0 -36.5 2t-27.5 5q-14 4 -24 8q-2 16 9 27l23 -6q23 -5 53 -5q54 0 76.5 18.5t22.5 53.5q0 45 -30.5 60.5t-95.5 15.5h-34v169h178q7 -17 0 -33h-143v-104z" />
    <glyph glyph-name="five.num" horiz-adv-x="295" 
d="M95 552q76 0 119 -22.5t43 -84.5q0 -54 -35 -79t-98 -25q-20 0 -36.5 2t-27.5 5q-14 4 -24 8q-2 16 9 27l23 -6q23 -5 53 -5q54 0 76.5 18.5t22.5 53.5q0 45 -30.5 60.5t-95.5 15.5h-34v169h178q7 -17 0 -33h-143v-104z" />
    <glyph glyph-name="fiveeighths" unicode="&#x215d;" horiz-adv-x="750" 
d="M546 698q2 1 5 2q6 2 15 2q8 0 14 -2q3 -1 4 -2l-387 -705q-2 -1 -5 -2q-2 -1 -6 -1h-9q-11 0 -14 1t-5 2zM255 689q7 -17 0 -33h-143v-104q76 0 119 -22.5t43 -84.5q0 -54 -35 -79t-98 -25q-20 0 -36.5 2t-27.5 5q-14 4 -24 8q0 7 2 14.5t7 12.5l23 -6q23 -5 53 -5
q54 0 76.5 18.5t22.5 53.5q0 45 -30.5 60.5t-95.5 15.5h-34v169h178zM473 265q0 37 26.5 60t80.5 23q50 0 78.5 -21.5t28.5 -61.5q0 -33 -16.5 -54.5t-39.5 -35.5q28 -14 48 -33.5t20 -54.5q0 -44 -31 -68t-87 -24q-53 0 -86.5 23t-33.5 68q0 38 20.5 62t45.5 38
q-23 13 -38.5 31t-15.5 48zM652 263q0 56 -73 56q-34 0 -52.5 -14t-18.5 -38q0 -17 8 -28.5t21.5 -20.5t30.5 -16.5t35 -14.5q22 14 35.5 32.5t13.5 43.5zM664 85q0 19 -10 32t-26 23t-35 17.5t-37 15.5q-7 -4 -17 -11t-19.5 -17.5t-16.5 -24.5t-7 -32q0 -33 22.5 -48
t63.5 -15q34 0 58 14.5t24 45.5z" />
    <glyph glyph-name="fiveinferior" unicode="&#x2085;" horiz-adv-x="295" 
d="M95 110q76 0 119 -22.5t43 -84.5q0 -54 -35 -79t-98 -25q-20 0 -36.5 2t-27.5 5q-14 4 -24 8q-2 16 9 27l23 -6q23 -5 53 -5q54 0 76.5 18.5t22.5 53.5q0 45 -30.5 60.5t-95.5 15.5h-34v169h178q7 -17 0 -33h-143v-104z" />
    <glyph glyph-name="florin" unicode="&#x192;" horiz-adv-x="434" 
d="M190 12q-8 -80 -42 -116.5t-100 -36.5q-18 0 -34 2.5t-27 6.5q-14 4 -25 10q-2 23 13 35l21 -6q22 -5 49 -5q40 0 65 23t31 85l40 404h-95q-1 1 -2 5q-2 6 -2 16q0 8 2 14q1 3 2 5h99l8 83q8 81 40.5 117.5t99.5 36.5q20 0 36 -3t27 -6q13 -4 24 -8q0 -21 -13 -35
q-11 2 -22 5q-10 2 -23 4t-27 2q-42 0 -64.5 -24t-28.5 -87l-8 -85h99q1 -2 2 -5q2 -6 2 -15t-2 -15q-1 -3 -2 -5h-103z" />
    <glyph glyph-name="four" unicode="4" horiz-adv-x="572" 
d="M373 676q2 1 6 2q8 2 21 2q11 0 19 -2q4 -1 6 -2v-451h102q1 -1 2 -5q2 -8 2 -17q0 -6 -0.5 -10t-1.5 -7q-1 -4 -2 -5h-102v-177q-2 -1 -6 -2q-8 -2 -19 -2t-19 2q-4 1 -6 2v177h-334q-1 1 -2 5q-1 3 -1.5 7t-0.5 10q0 9 2 17q1 4 2 5zM97 225h278v378z" />
    <glyph glyph-name="four.denom" horiz-adv-x="320" 
d="M286 124q1 -2 2 -6t1 -9q0 -7 -1 -10.5t-2 -5.5h-42v-90q-2 -1 -5.5 -2t-9.5 -1q-7 0 -11 1t-6 2v90h-180q-1 2 -2 4.5t-1 7.5q0 4 1 6.5t2 4.5l177 224q2 1 6 2t12 1q7 0 11 -1t6 -2v-216h42zM76 124h136v171z" />
    <glyph glyph-name="four.num" horiz-adv-x="321" 
d="M286 470q1 -2 2 -6t1 -9q0 -7 -1 -10.5t-2 -5.5h-42v-90q-2 -1 -5.5 -2t-9.5 -1q-7 0 -11 1t-6 2v90h-180q-1 2 -2 4.5t-1 7.5q0 4 1 6.5t2 4.5l177 224q2 1 6 2t12 1q7 0 11 -1t6 -2v-216h42zM76 470h136v171z" />
    <glyph glyph-name="fourinferior" unicode="&#x2084;" horiz-adv-x="320" 
d="M286 28q1 -2 2 -6t1 -9q0 -7 -1 -10.5t-2 -5.5h-42v-90q-2 -1 -5.5 -2t-9.5 -1q-7 0 -11 1t-6 2v90h-180q-1 2 -2 4.5t-1 7.5q0 4 1 6.5t2 4.5l177 224q2 1 6 2t12 1q7 0 11 -1t6 -2v-216h42zM76 28h136v171z" />
    <glyph glyph-name="fraction" unicode="&#x2044;" horiz-adv-x="127" 
d="M233 698q2 1 6 2q8 2 18 2q9 0 17 -2q4 -1 5 -2l-388 -703q-2 -2 -6 -3q-8 -2 -18 -2t-16 2q-4 1 -5 3z" />
    <glyph glyph-name="g" unicode="g" horiz-adv-x="521" 
d="M486 535q10 -23 0 -48l-95 -6q40 -45 40 -118q0 -80 -47 -126t-136 -46q-17 0 -32 2t-28 5q-11 -14 -22 -35.5t-11 -49.5q1 -28 25.5 -39.5t61.5 -17.5t79.5 -10t79 -17t60.5 -39.5t24 -76.5q0 -33 -15.5 -62.5t-46 -52t-76 -35.5t-106.5 -13q-53 0 -90.5 11t-61.5 30.5
t-35.5 46t-11.5 56.5t10 55t24.5 43.5t29.5 31.5t24 19q-11 10 -18 24t-7 34q0 32 16 61t31 48q-87 41 -87 153q0 81 47.5 127t135.5 46q32 0 58.5 -6.5t47.5 -17.5zM380 364q0 66 -36 99t-96 33q-59 0 -95.5 -33t-36.5 -99q0 -67 36.5 -100t95.5 -33q60 0 96 33t36 100z
M435 -92q0 29 -13.5 47t-35.5 28t-50.5 14.5t-58.5 8l-59.5 7t-52.5 12.5q-34 -23 -52.5 -56t-18.5 -66q0 -51 37 -81.5t111 -30.5q89 0 141 32t52 85z" />
    <glyph glyph-name="g.alt" horiz-adv-x="554" 
d="M418 79q-22 -39 -59 -64t-102 -25q-45 0 -81 14t-61.5 46t-39 84t-13.5 129q0 76 13.5 128.5t39 84.5t61.5 46t81 14q65 0 102 -25.5t59 -64.5v76q2 1 6 2q8 2 19 2t19 -2q4 -1 6 -2v-496q0 -69 -9.5 -121t-34 -86.5t-67.5 -51.5t-109 -17q-32 0 -58.5 4t-44.5 9
q-22 6 -38 14q0 11 3.5 21.5t11.5 16.5q17 -6 37 -10q17 -4 39 -7t46 -3q47 0 80 10t54 36t30.5 71t9.5 114v53zM115 263q0 -62 9 -105.5t28 -71t48.5 -40t71.5 -12.5q39 0 66.5 16.5t45 40.5t25.5 52t9 52v135q-1 24 -9 52.5t-25 52.5t-44.5 40.5t-67.5 16.5
q-42 0 -71.5 -12.5t-48.5 -40t-28 -71t-9 -105.5z" />
    <glyph glyph-name="gbreve" unicode="&#x11f;" horiz-adv-x="521" 
d="M386 684q-15 -16 -34 -28q-17 -11 -42 -19.5t-59 -8.5t-59 8.5t-42 19.5q-20 12 -34 28q6 20 24 27q13 -11 30 -20q14 -8 34.5 -14t46.5 -6q25 0 46 6t35 14q17 9 30 20q19 -6 24 -27zM152 210q-87 41 -87 153q0 81 47.5 127t135.5 46q32 0 58.5 -6.5t47.5 -17.5l132 23
q10 -23 0 -47l-95 -7q40 -45 40 -118q0 -80 -47 -126t-136 -46q-17 0 -32 2t-28 5q-11 -14 -22 -35.5t-11 -49.5q1 -28 25.5 -39.5t61.5 -17.5t79.5 -10t79 -17t60.5 -39.5t24 -76.5q0 -33 -15.5 -62.5t-46 -52t-76 -35.5t-106.5 -13q-53 0 -90.5 11t-61.5 30.5t-35.5 46
t-11.5 56.5t10 55t24.5 43.5t29.5 31.5t24 19q-11 10 -18 24t-7 34q0 32 16 61t31 48zM248 496q-59 0 -95.5 -33t-36.5 -99q0 -67 36.5 -100t95.5 -33q60 0 96 33t36 100q0 66 -36 99t-96 33zM242 -209q89 0 141 32t52 85q0 29 -13.5 47t-35.5 28t-50.5 14.5t-58.5 8
l-59.5 7t-52.5 12.5q-34 -23 -52.5 -56t-18.5 -66q0 -51 37 -81.5t111 -30.5z" />
    <glyph glyph-name="gbreve.alt" horiz-adv-x="554" 
d="M420 684q-15 -16 -34 -28q-17 -11 -42 -19.5t-59 -8.5t-59 8.5t-42 19.5q-20 12 -34 28q6 20 24 27q13 -11 30 -20q14 -8 34.5 -14t46.5 -6q25 0 46 6t35 14q17 9 30 20q19 -6 24 -27zM418 79q-22 -39 -59 -64t-102 -25q-45 0 -81 14t-61.5 46t-39 84t-13.5 129
q0 76 13.5 128.5t39 84.5t61.5 46t81 14q65 0 102 -25.5t59 -64.5v76q2 1 6 2q8 2 19 2t19 -2q4 -1 6 -2v-496q0 -69 -9.5 -121t-34 -86.5t-67.5 -51.5t-109 -17q-32 0 -58.5 4t-44.5 9q-22 6 -38 14q0 11 3.5 21.5t11.5 16.5q17 -6 37 -10q17 -4 39 -7t46 -3q47 0 80 10
t54 36t30.5 71t9.5 114v53zM115 263q0 -62 9 -105.5t28 -71t48.5 -40t71.5 -12.5q39 0 66.5 16.5t45 40.5t25.5 52t9 52v135q-1 24 -9 52.5t-25 52.5t-44.5 40.5t-67.5 16.5q-42 0 -71.5 -12.5t-48.5 -40t-28 -71t-9 -105.5z" />
    <glyph glyph-name="gcircumflex" unicode="&#x11d;" horiz-adv-x="520" 
d="M384 628q-3 -8 -9 -15.5t-15 -9.5l-114 83l-113 -84q-18 7 -24 26l125 103h25zM152 210q-87 41 -87 153q0 81 47.5 127t135.5 46q32 0 58.5 -6.5t47.5 -17.5l132 23q10 -23 0 -48l-95 -6q40 -45 40 -118q0 -80 -47 -126t-136 -46q-17 0 -32 2t-28 5q-11 -14 -22 -35.5
t-11 -49.5q1 -28 25.5 -39.5t61.5 -17.5t79.5 -10t79 -17t60.5 -39.5t24 -76.5q0 -33 -15.5 -62.5t-46 -52t-76 -35.5t-106.5 -13q-53 0 -90.5 11t-61.5 30.5t-35.5 46t-11.5 56.5t10 55t24.5 43.5t29.5 31.5t24 19q-11 10 -18 24t-7 34q0 32 16 61t31 48zM248 496
q-59 0 -95.5 -33t-36.5 -99q0 -67 36.5 -100t95.5 -33q60 0 96 33t36 100q0 66 -36 99t-96 33zM242 -209q89 0 141 32t52 85q0 29 -13.5 47t-35.5 28t-50.5 14.5t-58.5 8l-59.5 7t-52.5 12.5q-34 -23 -52.5 -56t-18.5 -66q0 -51 37 -81.5t111 -30.5z" />
    <glyph glyph-name="gcircumflex.alt" horiz-adv-x="554" 
d="M412 636q-3 -8 -9 -15.5t-15 -9.5l-114 83l-113 -84q-18 7 -24 26l125 103h25zM418 79q-22 -39 -59 -64t-102 -25q-45 0 -81 14t-61.5 46t-39 84t-13.5 129q0 76 13.5 128.5t39 84.5t61.5 46t81 14q65 0 102 -25.5t59 -64.5v76q2 1 6 2q8 2 19 2t19 -2q4 -1 6 -2v-496
q0 -69 -9.5 -121t-34 -86.5t-67.5 -51.5t-109 -17q-32 0 -58.5 4t-44.5 9q-22 6 -38 14q0 11 3.5 21.5t11.5 16.5q17 -6 37 -10q17 -4 39 -7t46 -3q47 0 80 10t54 36t30.5 71t9.5 114v53zM115 263q0 -62 9 -105.5t28 -71t48.5 -40t71.5 -12.5q39 0 66.5 16.5t45 40.5
t25.5 52t9 52v135q-1 24 -9 52.5t-25 52.5t-44.5 40.5t-67.5 16.5q-42 0 -71.5 -12.5t-48.5 -40t-28 -71t-9 -105.5z" />
    <glyph glyph-name="gcommaaccent" unicode="&#x123;" horiz-adv-x="520" 
d="M294 737q-9 -8 -16 -19q-6 -10 -11.5 -24.5t-7.5 -33.5q9 0 17 -2q4 -1 6 -2v-49l-8 -2t-10 -1h-14h-13.5t-10.5 1t-9 2v36q0 26 8 46t19 34q12 16 28 27zM152 210q-87 41 -87 153q0 81 47.5 127t135.5 46q32 0 58.5 -6.5t47.5 -17.5l132 23q10 -23 0 -48l-95 -6
q40 -45 40 -118q0 -80 -47 -126t-136 -46q-17 0 -32 2t-28 5q-11 -14 -22 -35.5t-11 -49.5q1 -28 25.5 -39.5t61.5 -17.5t79.5 -10t79 -17t60.5 -39.5t24 -76.5q0 -33 -15.5 -62.5t-46 -52t-76 -35.5t-106.5 -13q-53 0 -90.5 11t-61.5 30.5t-35.5 46t-11.5 56.5t10 55
t24.5 43.5t29.5 31.5t24 19q-11 10 -18 24t-7 34q0 32 16 61t31 48zM248 496q-59 0 -95.5 -33t-36.5 -99q0 -67 36.5 -100t95.5 -33q60 0 96 33t36 100q0 66 -36 99t-96 33zM242 -209q89 0 141 32t52 85q0 29 -13.5 47t-35.5 28t-50.5 14.5t-58.5 8l-59.5 7t-52.5 12.5
q-34 -23 -52.5 -56t-18.5 -66q0 -51 37 -81.5t111 -30.5z" />
    <glyph glyph-name="gcommaaccent.alt" horiz-adv-x="554" 
d="M308 746q-8 -9 -15 -21q-6 -11 -11.5 -27t-7.5 -36q9 0 17 -2q4 -1 5 -1v-54l-8 -2q-10 -2 -23 -2q-14 0 -24 2l-8 2v39q0 29 8 50.5t19 36.5q11 18 27 30zM418 79q-22 -39 -59 -64t-102 -25q-45 0 -81 14t-61.5 46t-39 84t-13.5 129q0 76 13.5 128.5t39 84.5t61.5 46
t81 14q65 0 102 -25.5t59 -64.5v76q2 1 6 2q8 2 19 2t19 -2q4 -1 6 -2v-496q0 -69 -9.5 -121t-34 -86.5t-67.5 -51.5t-109 -17q-32 0 -58.5 4t-44.5 9q-22 6 -38 14q0 11 3.5 21.5t11.5 16.5q17 -6 37 -10q17 -4 39 -7t46 -3q47 0 80 10t54 36t30.5 71t9.5 114v53zM115 263
q0 -62 9 -105.5t28 -71t48.5 -40t71.5 -12.5q39 0 66.5 16.5t45 40.5t25.5 52t9 52v135q-1 24 -9 52.5t-25 52.5t-44.5 40.5t-67.5 16.5q-42 0 -71.5 -12.5t-48.5 -40t-28 -71t-9 -105.5z" />
    <glyph glyph-name="gdotaccent" unicode="&#x121;" horiz-adv-x="520" 
d="M282 645l-8 -2t-9 -1.5t-13 -0.5t-13.5 0.5t-9.5 1.5t-7 2v54q3 1 7 2t9.5 1.5t13.5 0.5t13 -0.5t9 -1.5l8 -2v-54zM152 210q-87 41 -87 153q0 81 47.5 127t135.5 46q32 0 58.5 -6.5t47.5 -17.5l132 23q10 -23 0 -48l-95 -6q40 -45 40 -118q0 -80 -47 -126t-136 -46
q-17 0 -32 2t-28 5q-11 -14 -22 -35.5t-11 -49.5q1 -28 25.5 -39.5t61.5 -17.5t79.5 -10t79 -17t60.5 -39.5t24 -76.5q0 -33 -15.5 -62.5t-46 -52t-76 -35.5t-106.5 -13q-53 0 -90.5 11t-61.5 30.5t-35.5 46t-11.5 56.5t10 55t24.5 43.5t29.5 31.5t24 19q-11 10 -18 24
t-7 34q0 32 16 61t31 48zM248 496q-59 0 -95.5 -33t-36.5 -99q0 -67 36.5 -100t95.5 -33q60 0 96 33t36 100q0 66 -36 99t-96 33zM242 -209q89 0 141 32t52 85q0 29 -13.5 47t-35.5 28t-50.5 14.5t-58.5 8l-59.5 7t-52.5 12.5q-34 -23 -52.5 -56t-18.5 -66q0 -51 37 -81.5
t111 -30.5z" />
    <glyph glyph-name="gdotaccent.alt" horiz-adv-x="554" 
d="M304 653l-8 -2t-9 -1.5t-13 -0.5t-13.5 0.5t-9.5 1.5t-7 2v54q3 1 7 2t9.5 1.5t13.5 0.5t13 -0.5t9 -1.5l8 -2v-54zM418 79q-22 -39 -59 -64t-102 -25q-45 0 -81 14t-61.5 46t-39 84t-13.5 129q0 76 13.5 128.5t39 84.5t61.5 46t81 14q65 0 102 -25.5t59 -64.5v76
q2 1 6 2q8 2 19 2t19 -2q4 -1 6 -2v-496q0 -69 -9.5 -121t-34 -86.5t-67.5 -51.5t-109 -17q-32 0 -58.5 4t-44.5 9q-22 6 -38 14q0 11 3.5 21.5t11.5 16.5q17 -6 37 -10q17 -4 39 -7t46 -3q47 0 80 10t54 36t30.5 71t9.5 114v53zM115 263q0 -62 9 -105.5t28 -71t48.5 -40
t71.5 -12.5q39 0 66.5 16.5t45 40.5t25.5 52t9 52v135q-1 24 -9 52.5t-25 52.5t-44.5 40.5t-67.5 16.5q-42 0 -71.5 -12.5t-48.5 -40t-28 -71t-9 -105.5z" />
    <glyph glyph-name="germandbls" unicode="&#xdf;" horiz-adv-x="570" 
d="M86 556q0 100 51 147t149 47q48 0 83 -14.5t57 -38.5t32.5 -55t10.5 -63q0 -20 -3 -36.5t-7 -29t-7 -20.5t-4 -10q-33 -1 -59 -12q-23 -9 -41 -28.5t-18 -54.5q0 -28 14.5 -46t36 -32.5t46.5 -29t46.5 -33.5t36 -47t14.5 -69q0 -66 -41 -103.5t-119 -37.5q-26 0 -45 2.5
t-32 6.5q-15 4 -25 9q-2 11 1 20.5t11 15.5q14 -5 38 -8t44 -3q63 0 90.5 27.5t27.5 68.5q0 34 -14.5 56.5t-36 39t-47 31t-47 31.5t-36 40t-14.5 58q0 44 19.5 68.5t43.5 38.5q28 15 64 21q1 2 5.5 20.5t4.5 44.5q0 25 -7.5 48.5t-23 41.5t-40.5 28.5t-60 10.5
q-80 0 -114.5 -40t-34.5 -111v-552q-2 -1 -6 -2q-8 -2 -19 -2t-19 2q-4 1 -6 2v552z" />
    <glyph glyph-name="grave" unicode="`" horiz-adv-x="238" 
d="M44 785q6 10 19.5 17t27.5 6l111 -148q-10 -16 -33 -19z" />
    <glyph glyph-name="greater" unicode="&#x3e;" horiz-adv-x="468" 
d="M86 116q-1 2 -2 6q-1 3 -1.5 7t-0.5 10t0.5 10t1.5 7q1 4 2 6l280 127l-280 129q-1 2 -2 6q-1 3 -1.5 7t-0.5 10t0.5 10t1.5 7t2 5l320 -147q1 -3 2 -7t1.5 -8.5t0.5 -10.5q0 -10 -2 -20q-1 -4 -2 -7z" />
    <glyph glyph-name="greaterequal" unicode="&#x2265;" horiz-adv-x="471" 
d="M89 226q-1 2 -2 6q-1 3 -1.5 7t-0.5 10t0.5 10t1.5 7q1 4 2 6l249 97l-249 99q-1 2 -2 6q-1 3 -1.5 7t-0.5 10t0.5 10t1.5 7t2 5l294 -117q1 -3 2 -7t1.5 -8.5t0.5 -10.5q0 -10 -2 -20q-1 -4 -2 -7zM89 119q-1 1 -2 5q-2 6 -2 16q0 8 2 16q1 3 2 5h294q1 -2 2 -5
q2 -8 2 -16q0 -10 -2 -16q-1 -3 -2 -5h-294z" />
    <glyph glyph-name="guillemotleft" unicode="&#xab;" horiz-adv-x="493" 
d="M261 509q8 -5 12.5 -14.5t5.5 -19.5l-183 -205l183 -206q-1 -11 -5.5 -20t-12.5 -14l-206 218q-1 2 -2 6q-1 3 -1.5 6.5t-0.5 8.5q0 8 2 16q1 4 2 6zM412 489q8 -5 12 -14t5 -19l-164 -186l164 -187q-1 -11 -5 -19.5t-12 -13.5l-188 199q-1 2 -2 5t-1 15t1 16q1 3 2 5z
" />
    <glyph glyph-name="guillemotright" unicode="&#xbb;" horiz-adv-x="494" 
d="M438 291q1 -2 2 -6q2 -8 2 -16q0 -5 -0.5 -8.5t-1.5 -6.5q-1 -4 -2 -6l-206 -218q-16 11 -18 34l183 206l-183 205q1 10 5.5 19.5t12.5 14.5zM269 290q0 -2 1 -5q2 -8 2 -16q0 -9 -2 -15q-1 -3 -1 -5l-188 -199q-8 5 -12 13.5t-5 19.5l165 187l-165 186q1 10 5 19t12 14z
" />
    <glyph glyph-name="guilsinglleft" unicode="&#x2039;" horiz-adv-x="338" 
d="M261 509q8 -5 12.5 -14.5t5.5 -19.5l-183 -205l183 -206q-1 -11 -5.5 -20t-12.5 -14l-206 218q-1 2 -2 6q-1 3 -1.5 6.5t-0.5 8.5q0 8 2 16q1 4 2 6z" />
    <glyph glyph-name="guilsinglright" unicode="&#x203a;" horiz-adv-x="338" 
d="M283 291q1 -2 2 -6q2 -8 2 -16q0 -5 -0.5 -8.5t-1.5 -6.5q-1 -4 -2 -6l-206 -218q-8 5 -12.5 14t-5.5 20l183 206l-183 205q1 10 5.5 19.5t12.5 14.5z" />
    <glyph glyph-name="h" unicode="h" horiz-adv-x="549" 
d="M466 4q-2 -1 -6 -2q-8 -2 -19 -2t-19 2q-4 1 -6 2v372q0 60 -30 88.5t-90 28.5q-48 0 -91.5 -29.5t-68.5 -83.5v-376q-2 -1 -6 -2q-8 -2 -19 -2t-19 2q-4 1 -6 2v742q2 1 6 2q8 2 19 2t19 -2q4 -1 6 -2v-301q30 43 75 67t103 24q72 0 112 -40.5t40 -108.5v-383z" />
    <glyph glyph-name="hbar" unicode="&#x127;" horiz-adv-x="549" 
d="M136 445q30 43 75 67t103 24q72 0 112 -40.5t40 -108.5v-383q-2 -1 -6 -2q-8 -2 -19 -2t-19 2q-4 1 -6 2v372q0 60 -30 88.5t-90 28.5q-48 0 -91.5 -29.5t-68.5 -83.5v-376q-2 -1 -6 -2q-8 -2 -19 -2t-19 2q-4 1 -6 2v621h-71q-3 8 -3 18.5t3 18.5h71v84q2 1 6 2
q8 2 19 2t19 -2q4 -1 6 -2v-84h153q7 -17 0 -37h-153v-180v0z" />
    <glyph glyph-name="hcircumflex" unicode="&#x125;" horiz-adv-x="549" 
d="M252 791q-7 -22 -24 -26l-112 82l-110 -82q-18 6 -24 26l123 100h25zM466 4q-2 -1 -6 -2q-8 -2 -19 -2t-19 2q-4 1 -6 2v372q0 60 -30 88.5t-90 28.5q-48 0 -91.5 -29.5t-68.5 -83.5v-376q-2 -1 -6 -2q-8 -2 -19 -2t-19 2q-4 1 -6 2v742q2 1 6 2q8 2 19 2t19 -2
q4 -1 6 -2v-301q30 43 75 67t103 24q72 0 112 -40.5t40 -108.5v-383z" />
    <glyph glyph-name="hungarumlaut" unicode="&#x2dd;" horiz-adv-x="386" 
d="M61 641q-23 3 -33 19l106 148q16 1 30 -5.5t22 -17.5zM214 641q-22 3 -33 19l107 148q16 1 29.5 -5.5t21.5 -17.5z" />
    <glyph glyph-name="hyphen" unicode="-" horiz-adv-x="356" 
d="M84 269q-1 1 -2 5q-2 6 -2 16q0 8 2 16q1 3 2 5h188q1 -2 2 -5q2 -8 2 -16q0 -10 -2 -16q-1 -4 -2 -5h-188z" />
    <glyph glyph-name="i" unicode="i" horiz-adv-x="228" 
d="M146 650l-8 -2q-10 -2 -24 -2t-24 2l-8 2v56l8 2q10 2 24 2t24 -2l8 -2v-56zM139 4q-2 -1 -6 -2q-8 -2 -19 -2t-19 2q-4 1 -6 2v518q2 1 6 2q8 2 19 2t19 -2q4 -1 6 -2v-518z" />
    <glyph glyph-name="iacute" unicode="&#xed;" horiz-adv-x="228" 
d="M85 608q-23 3 -33 19l111 148q14 1 27 -5.5t20 -17.5zM139 4q-2 -1 -6 -2q-8 -2 -19 -2t-19 2q-4 1 -6 2v518q2 1 6 2q8 2 19 2t19 -2q4 -1 6 -2v-518z" />
    <glyph glyph-name="ibreve" unicode="&#x12d;" horiz-adv-x="228" 
d="M248 687q-15 -17 -34 -29q-17 -11 -42 -19.5t-59 -8.5t-59 8.5t-42 19.5q-20 12 -34 29q6 21 24 26q13 -11 30 -20q14 -8 34.5 -14t46.5 -6q25 0 46 6t35 14q17 9 30 20q19 -6 24 -26zM139 4q-2 -1 -6 -2q-8 -2 -19 -2t-19 2q-4 1 -6 2v518q2 1 6 2q8 2 19 2t19 -2
q4 -1 6 -2v-518z" />
    <glyph glyph-name="icircumflex" unicode="&#xee;" horiz-adv-x="228" 
d="M253 628q-3 -8 -9 -15.5t-15 -9.5l-114 83l-113 -84q-18 7 -24 26l125 103h25zM139 4q-2 -1 -6 -2q-8 -2 -19 -2t-19 2q-4 1 -6 2v518q2 1 6 2q8 2 19 2t19 -2q4 -1 6 -2v-518z" />
    <glyph glyph-name="idieresis" unicode="&#xef;" horiz-adv-x="228" 
d="M67 644l-8 -2q-5 -1 -22 -1h-13.5t-9.5 1t-7 2v53q3 1 7 2q10 2 23 2q8 0 13 -0.5t9 -1.5l8 -2v-53zM216 644l-8 -2q-5 -1 -22 -1h-13.5t-9.5 1t-7 2v53q3 1 7 2q10 2 23 2q8 0 13 -0.5t9 -1.5l8 -2v-53zM139 4q-2 -1 -6 -2q-8 -2 -19 -2t-19 2q-4 1 -6 2v518q2 1 6 2
q8 2 19 2t19 -2q4 -1 6 -2v-518z" />
    <glyph glyph-name="igrave" unicode="&#xec;" horiz-adv-x="228" 
d="M9 754q6 10 19.5 17t27.5 6l111 -148q-10 -16 -33 -19zM139 4q-2 -1 -6 -2q-8 -2 -19 -2t-19 2q-4 1 -6 2v518q2 1 6 2q8 2 19 2t19 -2q4 -1 6 -2v-518z" />
    <glyph glyph-name="ij" unicode="&#x133;" horiz-adv-x="418" 
d="M146 650l-8 -2q-10 -2 -24 -2t-24 2l-8 2v56l8 2q10 2 24 2t24 -2l8 -2v-56zM139 4q-2 -1 -6 -2q-8 -2 -19 -2t-19 2q-4 1 -6 2v518q2 1 6 2q8 2 19 2t19 -2q4 -1 6 -2v-518zM335 653l-8 -2q-10 -2 -23 -2q-14 0 -24 2l-8 2v56l8 2q10 2 24 2q13 0 23 -2l8 -2v-56z
M279 522q1 1 5 2q3 1 7.5 1.5t12.5 0.5q11 0 19 -2q4 -1 6 -2v-610q0 -84 -36 -123t-99 -39q-16 0 -27 1t-18 3q-9 2 -14 5q-1 1 -1 3q-1 2 -1 9q0 14 3 20q1 4 3 6q5 -1 11 -2q5 -1 13 -1.5t19 -0.5q49 0 73 26.5t24 88.5v614z" />
    <glyph glyph-name="imacron" unicode="&#x12b;" horiz-adv-x="228" 
d="M25 656q-3 8 -3.5 17.5t3.5 19.5h180q3 -8 3.5 -18.5t-3.5 -18.5h-180zM139 4q-2 -1 -6 -2q-8 -2 -19 -2t-19 2q-4 1 -6 2v518q2 1 6 2q8 2 19 2t19 -2q4 -1 6 -2v-518z" />
    <glyph glyph-name="infinity" unicode="&#x221e;" horiz-adv-x="824" 
d="M588 160q-49 0 -82 19.5t-54 43.5q-25 27 -40 63q-15 -36 -40 -63q-21 -24 -54.5 -43.5t-81.5 -19.5q-44 0 -76 14t-53 37.5t-31 53t-10 60.5t10 60.5t31 52.5t53 37.5t76 14.5q48 0 81.5 -20t54.5 -44q25 -28 40 -63q17 35 43 63q22 24 54.5 44t78.5 20q44 0 76 -14.5
t53 -37.5t31 -52.5t10 -60.5t-10 -60.5t-31 -53t-53 -37.5t-76 -14zM235 202q41 0 69 19t46 42q21 27 34 62q-13 34 -34 61q-18 23 -46 42.5t-69 19.5q-35 0 -59 -11t-38.5 -28.5t-21 -39.5t-6.5 -44t6.5 -44t21 -39.5t38.5 -28.5t59 -11zM589 448q-42 0 -69.5 -19.5
t-45.5 -42.5q-21 -27 -34 -61q13 -35 34 -62q18 -23 45.5 -42t69.5 -19q35 0 59 11t38.5 28.5t21 39.5t6.5 44t-6.5 44t-21 39.5t-38.5 28.5t-59 11z" />
    <glyph glyph-name="integral" unicode="&#x222b;" horiz-adv-x="502" 
d="M228 570q0 72 33 111.5t99 39.5q42 0 72.5 -12t50.5 -24q-3 -22 -20 -32q-23 13 -48 20.5t-54 7.5q-42 -1 -66 -26t-24 -83v-613q0 -42 -10.5 -70.5t-28.5 -46.5t-43 -25.5t-53 -7.5q-34 0 -64 11.5t-53 25.5q3 21 20 32q17 -11 43.5 -20.5t58.5 -8.5q16 0 32 5t28 17.5
t19.5 33.5t7.5 54v611z" />
    <glyph glyph-name="iogonek" unicode="&#x12f;" horiz-adv-x="229" 
d="M83 666l8 2q10 2 24 2t24 -2l8 -2v-56l-8 -2q-10 -2 -24 -2t-24 2l-8 2v56zM140 0q-17 -14 -32.5 -36t-26 -46t-14 -48.5t2.5 -42.5q5 -15 18.5 -25t36.5 -11q14 0 26 3.5t28 10.5q5 -5 10.5 -15.5t5.5 -18.5q-13 -9 -32.5 -15t-42.5 -6q-33 0 -59 11t-36 46
q-8 27 -4 53.5t14.5 51t26.5 47t32 41.5h-4v522q2 1 6 2q8 2 19 2t19 -2q4 -1 6 -2v-522z" />
    <glyph glyph-name="itilde" unicode="&#x129;" horiz-adv-x="228" 
d="M160 671q8 0 15 4.5t12 10.5t9 15q7 -3 13.5 -9.5t7.5 -15.5q-2 -4 -6 -11t-11.5 -14t-18.5 -12.5t-26 -5.5t-26 5.5t-20.5 11.5l-19 11.5t-21.5 5.5q-9 0 -15.5 -4.5t-11.5 -9.5q-5 -6 -9 -14q-7 4 -13 10t-7 15q1 3 5 10t11.5 14t18.5 12t26 5t26.5 -5.5t21 -11.5
l18.5 -11.5t21 -5.5zM139 4q-2 -1 -6 -2q-8 -2 -19 -2t-19 2q-4 1 -6 2v518q2 1 6 2q8 2 19 2t19 -2q4 -1 6 -2v-518z" />
    <glyph glyph-name="j" unicode="j" horiz-adv-x="228" 
d="M145 653l-8 -2q-10 -2 -23 -2q-14 0 -24 2l-8 2v56l8 2q10 2 24 2q13 0 23 -2l8 -2v-56zM89 522q1 1 5 2q3 1 7.5 1.5t12.5 0.5q11 0 19 -2q4 -1 6 -2v-610q0 -84 -36 -123t-99 -39q-16 0 -27 1t-18 3q-9 2 -14 5q-1 1 -1 3q-1 2 -1 9q0 14 3 20q1 4 3 6q5 -1 11 -2
q5 -1 13 -1.5t19 -0.5q49 0 73 26.5t24 88.5v614z" />
    <glyph glyph-name="jcircumflex" unicode="&#x135;" horiz-adv-x="228" 
d="M251 610q-3 -9 -9 -16.5t-15 -9.5l-114 83l-113 -84q-18 7 -24 27l125 102h26zM89 522q1 1 5 2q3 1 7.5 1.5t12.5 0.5q11 0 19 -2q4 -1 6 -2v-610q0 -84 -36 -123t-99 -39q-16 0 -27 1t-18 3q-9 2 -14 5q-1 1 -1 3q-1 2 -1 9q0 14 3 20q1 4 3 6q5 -1 11 -2q5 -1 13 -1.5
t19 -0.5q49 0 73 26.5t24 88.5v614z" />
    <glyph glyph-name="k" unicode="k" horiz-adv-x="496" 
d="M398 522q3 1 7 2t9 1.5t13 0.5q11 0 19 -2q4 -1 6 -1l-168 -245l192 -273q-3 -2 -7 -3q-10 -2 -22 -2q-13 0 -23 2q-4 1 -7 3l-176 249h-105v-250q-2 -1 -6 -2q-8 -2 -19 -2t-19 2q-4 1 -6 2v742q2 1 6 2q8 2 19 2t19 -2q4 -1 6 -2v-450h106z" />
    <glyph glyph-name="kcommaaccent" unicode="&#x137;" horiz-adv-x="496" 
d="M398 522q3 1 7 2t9 1.5t13 0.5q11 0 19 -2q4 -1 6 -1l-168 -245l192 -273q-3 -2 -7 -3q-10 -2 -22 -2q-13 0 -23 2q-4 1 -7 3l-176 249h-105v-250q-2 -1 -6 -2q-8 -2 -19 -2t-19 2q-4 1 -6 2v742q2 1 6 2q8 2 19 2t19 -2q4 -1 6 -2v-450h106zM224 -192q8 9 15 22
q6 11 11.5 27t7.5 38q-6 0 -10 0.5t-7 1.5q-4 1 -5 2v56l8 2q10 2 24 2t24 -2l8 -2v-40q0 -31 -8.5 -53.5t-18.5 -37.5q-12 -18 -27 -31z" />
    <glyph glyph-name="kgreenlandic" unicode="&#x138;" horiz-adv-x="504" 
d="M483 5q-4 -2 -8 -3t-9 -1.5t-13 -0.5q-14 0 -24 2q-4 1 -7 2l-190 257l-96 -107v-150q-8 -4 -25 -4q-16 0 -25 4v519q9 3 26 3q8 0 14.5 -0.5t9.5 -2.5v-304l267 303q11 4 29 4t30 -4l-195 -220z" />
    <glyph glyph-name="l" unicode="l" horiz-adv-x="232" 
d="M141 4q-2 -1 -6 -2q-8 -2 -19 -2t-19 2q-4 1 -6 2v742q2 1 6 2q8 2 19 2t19 -2q4 -1 6 -2v-742z" />
    <glyph glyph-name="lacute" unicode="&#x13a;" horiz-adv-x="232" 
d="M86 778q-23 3 -33 19l111 148q14 1 27 -5.5t20 -17.5zM141 4q-2 -1 -6 -2q-8 -2 -19 -2t-19 2q-4 1 -6 2v742q2 1 6 2q8 2 19 2t19 -2q4 -1 6 -2v-742z" />
    <glyph glyph-name="lcaron" unicode="&#x13e;" horiz-adv-x="239" 
d="M220 585q-18 1 -26 14q32 31 43 67.5t8 82.5q29 8 47 -4q1 -45 -17.5 -90t-54.5 -70zM141 4q-2 -1 -6 -2q-8 -2 -19 -2t-19 2q-4 1 -6 2v742q2 1 6 2q8 2 19 2t19 -2q4 -1 6 -2v-742z" />
    <glyph glyph-name="lcommaaccent" unicode="&#x13c;" horiz-adv-x="232" 
d="M141 4q-2 -1 -6 -2q-8 -2 -19 -2t-19 2q-4 1 -6 2v742q2 1 6 2q8 2 19 2t19 -2q4 -1 6 -2v-742zM73 -191q8 9 15 22q6 11 11.5 27t7.5 38q-6 0 -10 0.5t-7 1.5q-4 1 -5 2v56l8 2t9.5 1.5t13.5 0.5q14 0 24 -2l8 -2v-40q0 -31 -8.5 -53.5t-18.5 -38.5q-12 -18 -27 -31z
" />
    <glyph glyph-name="ldot" unicode="&#x140;" horiz-adv-x="286" 
d="M141 4q-2 -1 -6 -2q-8 -2 -19 -2t-19 2q-4 1 -6 2v742q2 1 6 2q8 2 19 2t19 -2q4 -1 6 -2v-742zM287 308l-8 -2t-9 -1.5t-13 -0.5q-13 0 -23 2q-4 1 -7 2v52q3 1 7 2q10 2 23 2q8 0 13 -0.5t9 -1.5l8 -2v-52z" />
    <glyph glyph-name="less" unicode="&#x3c;" horiz-adv-x="468" 
d="M62 263q-1 3 -2 7q-2 10 -2 20q0 6 0.5 10.5t1.5 8.5t2 7l320 147q1 -2 2 -5t1.5 -7t0.5 -10t-0.5 -10t-1.5 -7q-1 -4 -2 -6l-280 -129l280 -127q1 -2 2 -6q1 -3 1.5 -7t0.5 -10t-0.5 -10t-1.5 -7q-1 -4 -2 -6z" />
    <glyph glyph-name="lessequal" unicode="&#x2264;" horiz-adv-x="470" 
d="M87 343q-1 3 -2 7q-2 10 -2 20q0 6 0.5 10.5t1.5 8.5t2 7l294 117q1 -2 2 -5t1.5 -7t0.5 -10t-0.5 -10t-1.5 -7q-1 -4 -2 -6l-249 -99l249 -97q1 -2 2 -6q1 -3 1.5 -7t0.5 -10t-0.5 -10t-1.5 -7q-1 -4 -2 -6zM87 119q-1 2 -2 5q-2 6 -2 16q0 8 2 16q1 3 2 5h294
q1 -2 2 -5q2 -8 2 -16q0 -10 -2 -16q-1 -4 -2 -5h-294z" />
    <glyph glyph-name="logicalnot" unicode="&#xac;" horiz-adv-x="601" 
d="M515 185q-2 -1 -6 -2q-8 -2 -17 -2q-6 0 -10 0.5t-7 1.5q-4 1 -5 2v209h-403q-1 2 -2 6q-2 8 -2 16q0 9 2 17q1 4 2 6h448v-254z" />
    <glyph glyph-name="longs" unicode="&#x17f;" horiz-adv-x="267" 
d="M161 4q-2 -1 -6 -2q-8 -2 -19 -2t-19 2q-4 1 -6 2v480h-74q-5 21 0 42h74v60q0 36 6.5 66.5t24 52t46.5 33.5t74 12q20 0 37.5 -2.5l30.5 -4.5l27 -7q2 -24 -14 -40q-10 2 -21 5q-10 2 -23.5 4t-30.5 2q-33 0 -54 -7.5t-32.5 -22.5t-16 -36.5t-4.5 -49.5v-587z" />
    <glyph glyph-name="lozenge" unicode="&#x25ca;" horiz-adv-x="547" 
d="M52 352l210 344h23l213 -344l-213 -345h-23zM274 633l-169 -282l169 -282l172 282z" />
    <glyph glyph-name="lslash" unicode="&#x142;" horiz-adv-x="310" 
d="M123 746q2 1 6 2q8 2 19 2t19 -2q4 -1 6 -2v-306l83 47q2 -2 6 -5.5t7 -8.5q7 -13 7 -20l-103 -59v-390q-2 -1 -6 -2q-8 -2 -19 -2t-19 2q-4 1 -6 2v361l-74 -43q-5 2 -13 14q-4 7 -5 11.5t-1 8.5l93 54v336v0z" />
    <glyph glyph-name="m" unicode="m" horiz-adv-x="840" 
d="M438 438q30 46 74 72t103 26q68 0 105 -40.5t37 -108.5v-383q-2 -1 -6 -2q-8 -2 -19 -2t-19 2q-4 1 -6 2v372q0 61 -27.5 89t-82.5 28q-45 0 -86.5 -29t-64.5 -86v-374q-2 -1 -6 -2q-8 -2 -19 -2t-19 2q-4 1 -6 2v372q0 61 -27.5 89t-82.5 28q-44 0 -85 -29.5t-64 -83.5
v-376q-3 -1 -7 -2q-8 -2 -19 -2t-19 2q-4 1 -6 2v518q2 1 6 2q8 2 19 2t19 -2q4 -1 7 -2v-76q28 42 70 66t97 24q48 0 84 -23.5t50 -74.5z" />
    <glyph glyph-name="macron" unicode="&#xaf;" horiz-adv-x="407" 
d="M50 630q-10 20 0 40h291q5 -8 4.5 -19.5t-4.5 -20.5h-291z" />
    <glyph glyph-name="minus" unicode="&#x2212;" horiz-adv-x="464" 
d="M88 307q-1 1 -2 5q-2 8 -2 18q0 6 0.5 10t1.5 7q1 4 2 6h288q1 -2 2 -6q1 -3 1.5 -7t0.5 -10q0 -10 -2 -18q-1 -4 -2 -5h-288z" />
    <glyph glyph-name="mu" unicode="&#xb5;" horiz-adv-x="576" 
d="M426 522q2 1 6 2q8 2 19 2t19 -2q4 -1 6 -2v-518q-2 -1 -6 -2q-8 -2 -19 -2t-19 2q-4 1 -6 2v75q-30 -42 -72.5 -65.5t-95.5 -23.5q-48 0 -75 14.5t-42 32.5q2 -81 7 -133t10 -84q6 -37 13 -57q-10 -9 -25.5 -12t-29.5 1q-6 21 -10 54q-4 29 -7 73t-3 107v536q2 1 6 2
q8 2 19 2q12 0 20 -2q4 -1 5 -2v-374q0 -24 6 -45t20 -36.5t37 -24.5t58 -9q28 0 52.5 9.5t45 25.5t36 36t25.5 41v377v0z" />
    <glyph glyph-name="multiply" unicode="&#xd7;" horiz-adv-x="458" 
d="M113 141q-3 1 -6 3q-2 2 -5.5 4t-6.5 7q-5 3 -7 6.5t-4 5.5q-2 3 -3 6l115 116l-115 116q1 3 3 6q4 6 11 12q3 4 6.5 6.5t5.5 4.5q3 2 6 3l116 -115l116 115q3 -1 6 -3t12 -11t11 -12t3 -6l-115 -116l115 -116q-1 -3 -3 -6q-2 -2 -4.5 -5.5t-6.5 -6.5q-6 -7 -12 -11
q-3 -2 -6 -3l-116 115z" />
    <glyph glyph-name="n" unicode="n" 
d="M466 4q-2 -1 -6 -2q-8 -2 -19 -2t-19 2q-4 1 -6 2v372q0 60 -30 88.5t-90 28.5q-48 0 -91.5 -29.5t-68.5 -83.5v-376q-2 -1 -6 -2q-8 -2 -19 -2t-19 2q-4 1 -6 2v518q2 1 6 2q8 2 19 2t19 -2q4 -1 6 -2v-77q30 43 75 67t103 24q72 0 112 -40.5t40 -108.5v-383z" />
    <glyph glyph-name="nacute" unicode="&#x144;" 
d="M229 608q-23 3 -33 19l111 148q14 1 27 -5.5t20 -17.5zM466 4q-2 -1 -6 -2q-8 -2 -19 -2t-19 2q-4 1 -6 2v372q0 60 -30 88.5t-90 28.5q-48 0 -91.5 -29.5t-68.5 -83.5v-376q-2 -1 -6 -2q-8 -2 -19 -2t-19 2q-4 1 -6 2v518q2 1 6 2q8 2 19 2t19 -2q4 -1 6 -2v-77
q30 43 75 67t103 24q72 0 112 -40.5t40 -108.5v-383z" />
    <glyph glyph-name="napostrophe" unicode="&#x149;" 
d="M102 588q-18 3 -25 17q34 27 49 62t17 82q32 3 47 -10q-2 -22 -9 -44.5t-18.5 -42.5t-26.5 -37t-34 -27zM466 4q-2 -1 -6 -2q-8 -2 -19 -2t-19 2q-4 1 -6 2v372q0 60 -30 88.5t-90 28.5q-48 0 -91.5 -29.5t-68.5 -83.5v-376q-2 -1 -6 -2q-8 -2 -19 -2t-19 2q-4 1 -6 2
v518q2 1 6 2q8 2 19 2t19 -2q4 -1 6 -2v-77q30 43 75 67t103 24q72 0 112 -40.5t40 -108.5v-383z" />
    <glyph glyph-name="ncaron" unicode="&#x148;" 
d="M386 729q16 -4 23 -24l-117 -97h-23l-117 97q6 19 22 25l107 -79zM86 522q2 1 6 2q8 2 19 2t19 -2q4 -1 6 -2v-77q30 43 75 67t103 24q72 0 112 -40.5t40 -108.5v-383q-2 -1 -6 -2q-8 -2 -19 -2t-19 2q-4 1 -6 2v372q0 60 -30 88.5t-90 28.5q-48 0 -91.5 -29.5
t-68.5 -83.5v-376q-2 -1 -6 -2q-8 -2 -19 -2t-19 2q-4 1 -6 2v518z" />
    <glyph glyph-name="ncommaaccent" unicode="&#x146;" 
d="M466 4q-2 -1 -6 -2q-8 -2 -19 -2t-19 2q-4 1 -6 2v372q0 60 -30 88.5t-90 28.5q-48 0 -91.5 -29.5t-68.5 -83.5v-376q-2 -1 -6 -2q-8 -2 -19 -2t-19 2q-4 1 -6 2v518q2 1 6 2q8 2 19 2t19 -2q4 -1 6 -2v-77q30 43 75 67t103 24q72 0 112 -40.5t40 -108.5v-383zM237 -198
q8 9 15 22q6 11 11.5 27t7.5 38q-6 0 -10 0.5t-7 1.5q-4 1 -5 2v57l8 2q10 2 24 2q13 0 23 -2l8 -2v-41q0 -30 -8.5 -53t-18.5 -38q-11 -18 -26 -31z" />
    <glyph glyph-name="nine" unicode="9" horiz-adv-x="551" 
d="M125 0q-5 10 -5 21.5t4 20.5q58 6 107.5 23.5t87 50t63 80t36.5 113.5q-23 -14 -64.5 -29.5t-97.5 -15.5q-42 0 -79 12t-64.5 37.5t-43 66t-15.5 97.5q0 52 15.5 92t44 67t68 40.5t86.5 13.5t86 -15.5t67.5 -48t44.5 -83t16 -120.5q0 -105 -26 -182.5t-73 -129
t-112.5 -79t-145.5 -32.5zM108 477q0 -44 11.5 -76t32 -53t48.5 -31t62 -10q28 0 54 6t47.5 15t37.5 18t25 15q3 31 3 66q0 58 -12 99.5t-33.5 68.5t-51 39.5t-64.5 12.5q-70 0 -115 -42t-45 -128z" />
    <glyph glyph-name="nine.denom" horiz-adv-x="307" 
d="M35 242q0 27 9 47t25 33t36 19.5t43 6.5q57 0 87.5 -37t30.5 -111q0 -41 -11.5 -76t-35 -62t-59.5 -44t-85 -21q-4 5 -4.5 13.5t2.5 15.5q66 9 105.5 43t47.5 93q-11 -7 -32 -14.5t-52 -7.5q-50 0 -78.5 27t-28.5 75zM230 197q-2 121 -82 121q-35 0 -55.5 -20t-20.5 -56
q0 -31 19.5 -51t54.5 -20q36 0 56 10t28 16z" />
    <glyph glyph-name="nine.num" horiz-adv-x="307" 
d="M35 588q0 27 9 47t25 33t36 19.5t43 6.5q57 0 87.5 -37t30.5 -111q0 -41 -11.5 -76t-35 -62t-59.5 -44t-85 -21q-4 5 -4.5 13.5t2.5 15.5q66 9 105.5 43t47.5 93q-11 -7 -32 -14.5t-52 -7.5q-50 0 -78.5 27t-28.5 75zM230 543q-2 121 -82 121q-35 0 -55.5 -20t-20.5 -56
q0 -31 19.5 -51t54.5 -20q36 0 56 10t28 16z" />
    <glyph glyph-name="nineinferior" unicode="&#x2089;" horiz-adv-x="307" 
d="M35 146q0 27 9 47t25 33t36 19.5t43 6.5q57 0 87.5 -37t30.5 -111q0 -41 -11.5 -76t-35 -62t-59.5 -44t-85 -21q-4 5 -4.5 13.5t2.5 15.5q66 9 105.5 43.5t47.5 92.5q-11 -7 -32 -14.5t-52 -7.5q-50 0 -78.5 27t-28.5 75zM230 101q-2 121 -82 121q-35 0 -55.5 -20
t-20.5 -56q0 -31 19.5 -51t54.5 -20q36 0 56 10t28 16z" />
    <glyph glyph-name="notequal" unicode="&#x2260;" horiz-adv-x="473" 
d="M142 89q-2 -1 -8 -2.5t-15 -1.5q-7 0 -12.5 1.5t-7.5 2.5l53 95h-84q-1 2 -2.5 6.5t-1.5 14.5q0 9 1.5 14t2.5 7h107l70 128h-177q-1 2 -2.5 7t-1.5 14t1.5 14t2.5 7h201l48 87q2 1 8 2.5t14 1.5t13.5 -1.5t7.5 -2.5l-49 -87h93q1 -2 2.5 -7t1.5 -14t-1.5 -14t-2.5 -7
h-116l-71 -128h187q1 -2 2.5 -7t1.5 -14t-1.5 -14t-2.5 -7h-210z" />
    <glyph glyph-name="ntilde" unicode="&#xf1;" 
d="M151 671q6 12 17 22q9 8 22.5 15.5t33.5 7.5q19 0 33 -5.5t26 -12t23.5 -12t26.5 -5.5q11 0 19 4.5t13 10.5q6 7 11 16q9 -2 16.5 -9t9.5 -17q-6 -13 -17 -23q-9 -8 -23.5 -15t-34.5 -7q-19 0 -32.5 5.5t-25.5 12.5t-23.5 12.5t-26.5 5.5q-11 0 -19 -5.5t-13 -11.5
q-6 -7 -11 -16q-22 8 -25 27zM136 445q30 43 75 67t103 24q72 0 112 -40.5t40 -108.5v-383q-2 -1 -6 -2q-8 -2 -19 -2t-19 2q-4 1 -6 2v372q0 60 -30 88.5t-90 28.5q-48 0 -91.5 -29.5t-68.5 -83.5v-376q-2 -1 -6 -2q-8 -2 -19 -2t-19 2q-4 1 -6 2v518q2 1 6 2q8 2 19 2
t19 -2q4 -1 6 -2v-77z" />
    <glyph glyph-name="_300" horiz-adv-x="0" 
 />
    <glyph glyph-name="numbersign" unicode="#" horiz-adv-x="652" 
d="M498 619q11 4 24 4q6 0 12 -1t11 -3l-41 -145h98q2 -5 3 -10t1 -11q0 -7 -1 -12.5t-3 -10.5h-110l-69 -245h95q4 -8 4 -22t-4 -22h-108l-38 -136q-2 -1 -8 -3t-16 -2t-15.5 2t-7.5 3l38 136h-167l-38 -136q-2 -1 -8 -3t-17 -2q-9 0 -14.5 2t-7.5 3l38 136h-102q-1 2 -2 8
t-1 14t1 13.5t2 8.5h115l69 245h-100q-2 5 -3 10.5t-1 11.5t1 11.5t3 10.5h112l41 145q11 4 24 4q6 0 12 -1t11 -3l-41 -145h167zM209 185h167l69 245h-167z" />
    <glyph glyph-name="o" unicode="o" horiz-adv-x="540" 
d="M62 263q0 74 14 126t41 84.5t65.5 47.5t87.5 15t87.5 -15t65.5 -47.5t41 -84.5t14 -126t-14 -126t-41 -84.5t-65.5 -47.5t-87.5 -15t-87.5 15t-65.5 47.5t-41 84.5t-14 126zM426 263q0 66 -11 110.5t-31 71.5t-49 38t-65 11t-65 -11t-49 -38t-31 -71.5t-11 -110.5
t11 -110.5t31 -71.5t49 -38t65 -11t65 11t49 38t31 71.5t11 110.5z" />
    <glyph glyph-name="oacute" unicode="&#xf3;" horiz-adv-x="540" 
d="M301 775q14 1 27 -5.5t20 -17.5l-125 -144q-23 3 -33 19zM62 263q0 74 14 126t41 84.5t65.5 47.5t87.5 15t87.5 -15t65.5 -47.5t41 -84.5t14 -126t-14 -126t-41 -84.5t-65.5 -47.5t-87.5 -15t-87.5 15t-65.5 47.5t-41 84.5t-14 126zM426 263q0 66 -11 110.5t-31 71.5
t-49 38t-65 11t-65 -11t-49 -38t-31 -71.5t-11 -110.5t11 -110.5t31 -71.5t49 -38t65 -11t65 11t49 38t31 71.5t11 110.5z" />
    <glyph glyph-name="obreve" unicode="&#x14f;" horiz-adv-x="540" 
d="M269 678q25 0 46 6t35 14q17 9 30 20q19 -6 24 -26q-15 -17 -34 -29q-17 -11 -42 -19.5t-59 -8.5t-59 8.5t-42 19.5q-20 12 -34 29q6 19 24 26q13 -11 30 -20q14 -8 34.5 -14t46.5 -6zM62 263q0 74 14 126t41 84.5t65.5 47.5t87.5 15t87.5 -15t65.5 -47.5t41 -84.5
t14 -126t-14 -126t-41 -84.5t-65.5 -47.5t-87.5 -15t-87.5 15t-65.5 47.5t-41 84.5t-14 126zM426 263q0 66 -11 110.5t-31 71.5t-49 38t-65 11t-65 -11t-49 -38t-31 -71.5t-11 -110.5t11 -110.5t31 -71.5t49 -38t65 -11t65 11t49 38t31 71.5t11 110.5z" />
    <glyph glyph-name="ocircumflex" unicode="&#xf4;" horiz-adv-x="540" 
d="M406 628q-3 -8 -9 -15.5t-15 -9.5l-114 83l-113 -84q-18 7 -24 26l125 103h25zM62 263q0 74 14 126t41 84.5t65.5 47.5t87.5 15t87.5 -15t65.5 -47.5t41 -84.5t14 -126t-14 -126t-41 -84.5t-65.5 -47.5t-87.5 -15t-87.5 15t-65.5 47.5t-41 84.5t-14 126zM426 263
q0 66 -11 110.5t-31 71.5t-49 38t-65 11t-65 -11t-49 -38t-31 -71.5t-11 -110.5t11 -110.5t31 -71.5t49 -38t65 -11t65 11t49 38t31 71.5t11 110.5z" />
    <glyph glyph-name="odieresis" unicode="&#xf6;" horiz-adv-x="540" 
d="M165 703q3 1 7 2q10 2 23 2q12 0 22 -2l8 -2v-53l-8 -2q-10 -2 -22 -2q-13 0 -23 2q-4 1 -7 2v53zM314 703q3 1 7 2t9.5 1.5t13.5 0.5q12 0 22 -2q4 -1 7 -2v-53q-3 -1 -7 -2q-10 -2 -22 -2q-8 0 -13.5 0.5t-9.5 1.5t-7 2v53zM62 263q0 74 14 126t41 84.5t65.5 47.5
t87.5 15t87.5 -15t65.5 -47.5t41 -84.5t14 -126t-14 -126t-41 -84.5t-65.5 -47.5t-87.5 -15t-87.5 15t-65.5 47.5t-41 84.5t-14 126zM426 263q0 66 -11 110.5t-31 71.5t-49 38t-65 11t-65 -11t-49 -38t-31 -71.5t-11 -110.5t11 -110.5t31 -71.5t49 -38t65 -11t65 11t49 38
t31 71.5t11 110.5z" />
    <glyph glyph-name="oe" unicode="&#x153;" horiz-adv-x="827" 
d="M457 247q5 -114 40.5 -163t109.5 -49q26 0 48 5.5t38 12.5q18 8 32 18q9 -5 14 -15t7 -21q-16 -13 -38 -23q-19 -8 -47 -15t-66 -7q-121 0 -163 125q-22 -66 -61.5 -95.5t-104.5 -29.5q-48 0 -86 15t-64 47.5t-40 84.5t-14 126t14 126t40 84.5t64 47.5t86 15
q64 0 105 -29.5t62 -96.5q23 66 64.5 96t98.5 30q87 0 131.5 -52t44.5 -136q0 -23 -2 -42t-4 -32l-5 -27h-304zM266 494q-35 0 -63 -11t-47.5 -38t-30 -71.5t-10.5 -110.5t10.5 -110.5t30 -71.5t47.5 -38t63 -11t61 11.5t43.5 38.5t26.5 71.5t9 111.5q0 66 -9 110.5
t-26.5 70.5t-43.5 37t-61 11zM720 354q0 28 -6.5 53t-21.5 44t-38.5 30.5t-57.5 11.5q-62 0 -98.5 -48.5t-40.5 -156.5h258q0 2 2.5 19t2.5 47z" />
    <glyph glyph-name="ogonek" unicode="&#x2db;" horiz-adv-x="283" 
d="M230 0q-25 -15 -48 -35.5t-40 -43.5t-25.5 -47.5t-3.5 -46.5q5 -20 19.5 -27.5t31.5 -8.5q14 0 26 3.5t28 10.5q5 -5 10.5 -15.5t5.5 -18.5q-13 -9 -32.5 -15t-42.5 -6q-33 0 -57 11t-34 46q-8 27 -1.5 54t21.5 52.5t37.5 47.5t47.5 39h57z" />
    <glyph glyph-name="ograve" unicode="&#xf2;" horiz-adv-x="540" 
d="M311 627q-10 -16 -33 -19l-125 144q6 10 19.5 17t27.5 6zM62 263q0 74 14 126t41 84.5t65.5 47.5t87.5 15t87.5 -15t65.5 -47.5t41 -84.5t14 -126t-14 -126t-41 -84.5t-65.5 -47.5t-87.5 -15t-87.5 15t-65.5 47.5t-41 84.5t-14 126zM426 263q0 66 -11 110.5t-31 71.5
t-49 38t-65 11t-65 -11t-49 -38t-31 -71.5t-11 -110.5t11 -110.5t31 -71.5t49 -38t65 -11t65 11t49 38t31 71.5t11 110.5z" />
    <glyph glyph-name="ohungarumlaut" unicode="&#x151;" horiz-adv-x="540" 
d="M271 745q15 1 27.5 -4t19.5 -15l-115 -119q-20 1 -30 16zM412 745q14 1 27 -4t21 -15l-115 -119q-22 2 -30 16zM62 263q0 74 14 126t41 84.5t65.5 47.5t87.5 15t87.5 -15t65.5 -47.5t41 -84.5t14 -126t-14 -126t-41 -84.5t-65.5 -47.5t-87.5 -15t-87.5 15t-65.5 47.5
t-41 84.5t-14 126zM426 263q0 66 -11 110.5t-31 71.5t-49 38t-65 11t-65 -11t-49 -38t-31 -71.5t-11 -110.5t11 -110.5t31 -71.5t49 -38t65 -11t65 11t49 38t31 71.5t11 110.5z" />
    <glyph glyph-name="omacron" unicode="&#x14d;" horiz-adv-x="540" 
d="M386 694q4 -8 4 -19.5t-4 -20.5h-234q-3 9 -3 20.5t3 19.5h234zM62 263q0 74 14 126t41 84.5t65.5 47.5t87.5 15t87.5 -15t65.5 -47.5t41 -84.5t14 -126t-14 -126t-41 -84.5t-65.5 -47.5t-87.5 -15t-87.5 15t-65.5 47.5t-41 84.5t-14 126zM426 263q0 66 -11 110.5
t-31 71.5t-49 38t-65 11t-65 -11t-49 -38t-31 -71.5t-11 -110.5t11 -110.5t31 -71.5t49 -38t65 -11t65 11t49 38t31 71.5t11 110.5z" />
    <glyph glyph-name="one" unicode="1" horiz-adv-x="394" 
d="M38 524q63 17 114.5 55t87.5 97q2 1 6 2q8 2 19 2q10 0 18 -2q4 -1 6 -2v-672q-2 -1 -6 -2q-8 -2 -20 -2t-20 2q-4 1 -6 2v460q0 45 1.5 80t3.5 58q-35 -47 -86.5 -77.5t-104.5 -44.5q-8 8 -11.5 19.5t-1.5 24.5z" />
    <glyph glyph-name="one.denom" horiz-adv-x="240" 
d="M30 271q35 9 65 28.5t49 40.5q6 3 18 3q11 0 16 -3v-337q-6 -3 -17 -3t-18 3v252v22t1 19q-43 -39 -106 -55q-11 11 -8 30z" />
    <glyph glyph-name="one.num" horiz-adv-x="256" 
d="M30 617q35 9 65 28.5t49 40.5q6 3 18 3q11 0 16 -3v-337q-6 -3 -16 -3q-5 0 -9.5 0.5t-9.5 2.5v252v22t1 19q-43 -39 -106 -55q-11 11 -8 30z" />
    <glyph glyph-name="oneeighth" unicode="&#x215b;" horiz-adv-x="708" 
d="M504 698q2 1 5 2q6 2 15 2q8 0 14 -2q3 -1 4 -2l-387 -705q-2 -1 -5 -2q-2 -1 -6 -1h-9q-11 0 -14 1t-5 2zM153 686q6 3 18 3q11 0 16 -3v-338q-8 -2 -16 -2h-9.5t-9.5 2v253v21.5t1 18.5q-21 -18 -47.5 -32t-58.5 -22q-11 11 -8 30q35 9 65 28.5t49 40.5zM431 265
q0 37 26.5 60t80.5 23q50 0 78.5 -21.5t28.5 -61.5q0 -33 -16.5 -54.5t-39.5 -35.5q28 -14 48 -33.5t20 -54.5q0 -44 -31 -68t-87 -24q-53 0 -86.5 23t-33.5 68q0 38 20.5 62t45.5 38q-23 13 -38.5 31t-15.5 48zM610 263q0 56 -73 56q-34 0 -52.5 -14t-18.5 -38
q0 -17 8 -28.5t21.5 -20.5t30.5 -16.5t35 -14.5q22 14 35.5 32.5t13.5 43.5zM622 85q0 19 -10 32t-26 23t-35 17.5t-37 15.5q-7 -4 -17 -11t-19.5 -17.5t-16.5 -24.5t-7 -32q0 -33 22.5 -48t63.5 -15q34 0 58 14.5t24 45.5z" />
    <glyph glyph-name="onehalf" unicode="&#xbd;" horiz-adv-x="704" 
d="M498 698q2 1 5 2q6 2 15 2q8 0 14 -2q3 -1 4 -2l-387 -705q-2 -1 -5 -2q-2 -1 -6 -1h-9q-11 0 -14 1t-5 2zM152 686q7 3 18 3t17 -3v-338q-8 -2 -17 -2h-9t-9 2v253v21.5t1 18.5q-21 -18 -47.5 -32t-58.5 -22q-11 11 -8 30q35 9 64.5 28.5t48.5 40.5zM451 335q11 3 24 6
q11 2 26.5 4.5t35.5 2.5q60 0 87 -25.5t27 -66.5q0 -32 -14 -52.5t-35 -34.5t-46 -25.5t-45.5 -25.5t-34 -34t-12.5 -51h182q4 -7 4 -17q0 -9 -4 -16h-214l-2 12q-1 5 -1.5 12.5t-0.5 16.5q0 34 14 56t34.5 37.5t45 26.5t45 23t34.5 28t14 41t-18.5 44.5t-65.5 19.5
q-26 0 -48.5 -4.5t-23.5 -5.5q-11 13 -8 28z" />
    <glyph glyph-name="oneinferior" unicode="&#x2081;" horiz-adv-x="240" 
d="M30 175q35 9 65 28.5t49 40.5q6 3 18 3q11 0 16 -3v-337q-6 -3 -16 -3q-5 0 -9.5 0.5t-9.5 2.5v252v22t1 19q-43 -39 -106 -55q-11 11 -8 30z" />
    <glyph glyph-name="onequarter" unicode="&#xbc;" horiz-adv-x="646" 
d="M498 698q2 1 5 2q6 2 15 2q8 0 14 -2q3 -1 4 -2l-387 -705q-2 -1 -5 -2q-2 -1 -6 -1h-9q-11 0 -14 1t-5 2zM39 617q35 9 64.5 28.5t48.5 40.5q7 3 18 3t17 -3v-338q-8 -2 -17 -2h-9t-9 2v253v21.5t1 18.5q-21 -18 -47.5 -32t-58.5 -22q-11 11 -8 30zM597 124q1 -2 2 -6
t1 -9q0 -7 -1 -10.5t-2 -5.5h-42v-90q-2 -1 -5.5 -2t-9.5 -1q-7 0 -11 1t-6 2v90h-180l-2 4t-1 7t1 7.5t2 4.5l177 224q2 1 6 2t12 1q7 0 11 -1t6 -2v-216h42zM386 124h137v171z" />
    <glyph glyph-name="onesuperior" unicode="&#xb9;" horiz-adv-x="240" 
d="M30 617q35 9 65 28.5t49 40.5q6 3 18 3q11 0 16 -3v-338q-8 -2 -16 -2h-9.5t-9.5 2v253v21.5t1 18.5q-21 -18 -47.5 -32t-58.5 -22q-11 11 -8 30z" />
    <glyph glyph-name="ordfeminine" unicode="&#xaa;" horiz-adv-x="361" 
d="M85 610q13 6 30 10q14 4 32.5 7t39.5 3q56 0 81 -26.5t25 -78.5v-219l-4 -2q-4 -2 -10 -2q-7 0 -11 2q-3 1 -4 2l-5 42q-14 -25 -41.5 -38.5t-62.5 -13.5q-42 0 -68.5 25t-26.5 71q0 45 28 69.5t86 24.5q29 0 52 -2t32 -3v39q0 42 -19 60t-57 18q-17 0 -33 -2.5t-28 -5.5
q-14 -4 -26 -8q-5 5 -8 13t-2 15zM258 453q-9 1 -31.5 2.5t-47.5 1.5q-83 0 -83 -65q0 -35 18 -50t49 -15q41 0 67 25.5t28 71.5v29zM290 244q5 -16 0 -31h-226q-5 15 0 31h226z" />
    <glyph glyph-name="ordmasculine" unicode="&#xba;" horiz-adv-x="378" 
d="M61 463q0 88 31.5 127.5t96.5 39.5t97 -38.5t32 -128.5t-32 -129t-97 -39t-96.5 39t-31.5 129zM281 463q0 73 -22 104.5t-70 31.5q-49 0 -70 -31.5t-21 -104.5q0 -75 21 -105.5t70 -30.5q48 0 70 30.5t22 105.5zM304 244q1 -2 2 -5.5t1 -9.5t-1 -10t-2 -6h-230q-1 2 -2 6
t-1 10q0 5 1 9t2 6h230z" />
    <glyph glyph-name="oslash" unicode="&#xf8;" horiz-adv-x="540" 
d="M426 570q11 -2 20.5 -7t15.5 -12l-42 -74q29 -32 43.5 -84.5t14.5 -129.5q0 -74 -14 -126t-41 -84.5t-65.5 -47.5t-87.5 -15q-66 0 -111 27l-34 -61q-23 5 -35 20l37 65q-32 32 -48.5 86.5t-16.5 135.5q0 74 14 126t41 84.5t65.5 47.5t87.5 15q73 0 118 -32zM366 464
q-37 30 -96 30q-36 0 -65 -11t-49 -38t-31 -71.5t-11 -110.5q0 -63 10.5 -105t30.5 -68zM182 56q18 -13 40 -18.5t48 -5.5q36 0 65 11t49 38t31 71.5t11 110.5q0 58 -9 98.5t-26 66.5z" />
    <glyph glyph-name="oslashacute" unicode="&#x1ff;" horiz-adv-x="540" 
d="M227 608q-23 3 -33 19l111 148q14 1 27 -5.5t20 -17.5zM426 570q11 -2 20.5 -7t15.5 -12l-42 -74q29 -32 43.5 -84.5t14.5 -129.5q0 -74 -14 -126t-41 -84.5t-65.5 -47.5t-87.5 -15q-66 0 -111 27l-34 -61q-23 5 -35 20l37 65q-32 32 -48.5 86.5t-16.5 135.5q0 74 14 126
t41 84.5t65.5 47.5t87.5 15q73 0 118 -32zM366 464q-37 30 -96 30q-36 0 -65 -11t-49 -38t-31 -71.5t-11 -110.5q0 -63 10.5 -105t30.5 -68zM182 56q18 -13 40 -18.5t48 -5.5q36 0 65 11t49 38t31 71.5t11 110.5q0 58 -9 98.5t-26 66.5z" />
    <glyph glyph-name="otilde" unicode="&#xf5;" horiz-adv-x="540" 
d="M144 663q6 12 17 22q9 8 23 15.5t34 7.5q19 0 33 -5.5t26 -12t23.5 -12t26.5 -5.5q11 0 19 4.5t13 10.5q6 7 11 16q20 -6 26 -26q-6 -13 -17 -23q-9 -8 -23.5 -15t-34.5 -7q-19 0 -32.5 5.5t-25.5 12.5t-23.5 12.5t-26.5 5.5q-11 0 -19 -5t-14 -11q-7 -7 -12 -15
q-19 7 -24 25zM62 263q0 74 14 126t41 84.5t65.5 47.5t87.5 15t87.5 -15t65.5 -47.5t41 -84.5t14 -126t-14 -126t-41 -84.5t-65.5 -47.5t-87.5 -15t-87.5 15t-65.5 47.5t-41 84.5t-14 126zM426 263q0 66 -11 110.5t-31 71.5t-49 38t-65 11t-65 -11t-49 -38t-31 -71.5
t-11 -110.5t11 -110.5t31 -71.5t49 -38t65 -11t65 11t49 38t31 71.5t11 110.5z" />
    <glyph glyph-name="p" unicode="p" horiz-adv-x="554" 
d="M136 448q23 41 61.5 64.5t99.5 23.5q45 0 81 -14t61.5 -46t39 -84.5t13.5 -128.5q0 -77 -13.5 -129t-39 -84t-61.5 -46t-81 -14q-61 0 -99.5 23.5t-61.5 64.5v-319q-2 -1 -6 -2q-8 -2 -19 -2t-19 2q-4 1 -6 2v763q2 1 6 2q8 2 19 2t19 -2q4 -1 6 -2v-74zM439 263
q0 62 -9 105.5t-28 71t-48.5 40t-71.5 12.5q-36 0 -63 -14.5t-45 -37.5t-27.5 -51.5t-10.5 -57.5v-131q0 -30 9.5 -59.5t27.5 -53t45.5 -38.5t63.5 -15q42 0 71.5 12.5t48.5 40t28 71t9 105.5z" />
    <glyph glyph-name="paragraph" unicode="&#xb6;" horiz-adv-x="468" 
d="M148 467q-29 1 -50 11t-34.5 26.5t-20.5 37t-7 41.5q0 22 7.5 42.5t22 37t36 26.5t50.5 10h39v-922q-1 -1 -5 -2q-8 -2 -17 -2q-11 0 -17 2q-3 1 -4 2v690zM362 -223q-2 -1 -5 -2q-6 -2 -16 -2q-11 0 -17 2q-4 1 -5 2v918q1 1 5 2q6 2 17 2q10 0 16 -2q3 -1 5 -2v-918z
" />
    <glyph glyph-name="parenleft" unicode="(" horiz-adv-x="285" 
d="M233 805q5 -3 7.5 -6t4.5 -5q2 -3 4 -5q-38 -56 -68 -128q-26 -62 -47 -148t-21 -193q0 -108 21 -193.5t47 -147.5q30 -72 68 -128q-2 -2 -4 -5q-2 -2 -4.5 -5.5t-7.5 -5.5q-5 -3 -9 -4t-7 -2q-4 -1 -6 0q-42 61 -75 138q-28 66 -51 155t-23 198q0 108 23 197.5t51 155.5
q33 77 75 138q2 1 6 0q8 -2 16 -6z" />
    <glyph glyph-name="parenright" unicode=")" horiz-adv-x="284" 
d="M171 320q0 107 -21 193t-47 148q-30 72 -67 128q1 2 3 5q4 6 13 11q9 4 15 6q4 1 6 0q41 -61 74 -138q28 -66 51.5 -155.5t23.5 -197.5q0 -109 -23.5 -198t-51.5 -155q-33 -77 -74 -138q-3 -1 -7 0q-3 1 -6.5 2t-8.5 4q-5 2 -7.5 5.5t-4.5 5.5q-2 3 -3 5q37 56 67 128
q26 62 47 147.5t21 193.5z" />
    <glyph glyph-name="partialdiff" unicode="&#x2202;" horiz-adv-x="555" 
d="M142 707q-2 12 -0.5 23.5t8.5 19.5q161 -26 249.5 -136.5t88.5 -303.5q0 -90 -15 -151.5t-42.5 -99t-67.5 -53.5t-91 -16q-48 0 -87 14.5t-66.5 46t-42 81t-14.5 120.5q0 70 14.5 120t41 81.5t63.5 46t82 14.5q57 0 97 -22t65 -54q-11 50 -34.5 94.5t-58.5 79.5
t-82.5 59.5t-107.5 35.5zM432 372q-25 51 -70 75t-96 24q-35 0 -63 -10.5t-47.5 -35.5t-30 -67.5t-10.5 -105.5t11.5 -105.5t32 -68t49.5 -36t64 -10.5q46 0 77 17t50 46.5t27 69.5t8 87v60t-2 60z" />
    <glyph glyph-name="percent" unicode="%" horiz-adv-x="747" 
d="M206 -6q-2 -1 -6 -2q-8 -2 -20 -2q-6 0 -10 0.5t-7 1.5q-4 1 -6 2l388 704q2 1 6 2q8 2 19 2q10 0 18 -2q4 -1 6 -2zM181 345q-61 0 -95 39.5t-34 133.5q0 93 34 133t95 40q60 0 95.5 -39.5t35.5 -133.5t-35.5 -133.5t-95.5 -39.5zM181 653q-19 0 -34.5 -6.5t-26.5 -22.5
t-17 -41.5t-6 -64.5t6 -65t17 -41t26.5 -21.5t34.5 -6.5t34.5 6.5t26.5 21.5t17 41t6 65q0 76 -23 105.5t-61 29.5zM566 -10q-61 0 -95 39.5t-34 133.5q0 93 34 133t95 40q60 0 95.5 -39.5t35.5 -133.5t-35.5 -133.5t-95.5 -39.5zM566 298q-19 0 -34.5 -6.5t-26.5 -22.5
t-17 -41.5t-6 -64.5t6 -65t17 -41t26.5 -21.5t34.5 -6.5t34.5 6.5t26.5 21.5t17 41t6 65q0 76 -23 105.5t-61 29.5z" />
    <glyph glyph-name="period" unicode="." horiz-adv-x="218" 
d="M141 4l-8 -2q-10 -2 -24 -2t-24 2l-8 2v56l8 2q10 2 24 2t24 -2l8 -2v-56z" />
    <glyph glyph-name="periodcentered" unicode="&#xb7;" horiz-adv-x="220" 
d="M140 258l-8 -2t-9 -1.5t-13 -0.5q-13 0 -23 2q-4 1 -7 2v52q3 1 7 2q10 2 23 2q8 0 13 -0.5t9 -1.5l8 -2v-52z" />
    <glyph glyph-name="perthousand" unicode="&#x2030;" horiz-adv-x="1068" 
d="M206 -6q-2 -1 -6 -2q-8 -2 -20 -2q-6 0 -10 0.5t-7 1.5q-4 1 -6 2l388 704q2 1 6 2q8 2 19 2q10 0 18 -2q4 -1 6 -2zM181 345q-61 0 -95 39.5t-34 133.5q0 93 34 133t95 40q60 0 95.5 -39.5t35.5 -133.5t-35.5 -133.5t-95.5 -39.5zM181 653q-19 0 -34.5 -6.5t-26.5 -22.5
t-17 -41.5t-6 -64.5t6 -65t17 -41t26.5 -21.5t34.5 -6.5t34.5 6.5t26.5 21.5t17 41t6 65q0 76 -23 105.5t-61 29.5zM566 -10q-61 0 -95 39.5t-34 133.5q0 93 34 133t95 40q60 0 95.5 -39.5t35.5 -133.5t-35.5 -133.5t-95.5 -39.5zM888 -10q-61 0 -95 39.5t-34 133.5
q0 93 34 133t95 40q60 0 95.5 -39.5t35.5 -133.5t-35.5 -133.5t-95.5 -39.5zM566 298q-19 0 -34.5 -6.5t-26.5 -22.5t-17 -41.5t-6 -64.5t6 -65t17 -41t26.5 -21.5t34.5 -6.5t34.5 6.5t26.5 21.5t17 41t6 65q0 76 -23 105.5t-61 29.5zM888 298q-19 0 -34.5 -6.5t-26.5 -22.5
t-17 -41.5t-6 -64.5t6 -65t17 -41t26.5 -21.5t34.5 -6.5t34.5 6.5t26.5 21.5t17 41t6 65q0 76 -23 105.5t-61 29.5z" />
    <glyph glyph-name="pi" unicode="&#x3c0;" horiz-adv-x="602" 
d="M561 526q4 -8 4 -22t-4 -22h-73v-246q0 -64 5 -106.5t12 -68.5q8 -31 18 -48q-11 -13 -37 -13h-8.5t-7.5 2q-10 19 -17 51q-6 27 -11 71.5t-5 111.5v246h-277v-478q-2 -1 -6 -2q-8 -2 -19 -2t-19 2q-4 1 -6 2v476q-33 -3 -51 -6q-11 -2 -19 -3q-4 8 -4 22t4 21q13 3 33 6
q17 2 45 4t67 2h376z" />
    <glyph glyph-name="plus" unicode="+" horiz-adv-x="466" 
d="M64 269q-1 1 -2 5q-2 6 -2 16q0 8 2 16q1 3 2 5h148v148q1 1 5 2q6 2 16 2q8 0 16 -2q3 -1 5 -2v-148h148q1 -2 2 -5q2 -8 2 -16q0 -10 -2 -16q-1 -4 -2 -5h-148v-148q-2 -1 -5 -2q-8 -2 -16 -2q-10 0 -16 2q-4 1 -5 2v148h-148z" />
    <glyph glyph-name="plusminus" unicode="&#xb1;" horiz-adv-x="514" 
d="M88 381q-1 1 -2 5q-2 6 -2 16q0 8 2 16q1 3 2 5h148v118q1 1 5 2q6 2 16 2q8 0 16 -2q3 -1 5 -2v-118h148q1 -2 2 -5q2 -8 2 -16q0 -10 -2 -16q-1 -4 -2 -5h-148v-118q-2 -1 -5 -2q-8 -2 -16 -2q-10 0 -16 2q-4 1 -5 2v118h-148zM88 143q-1 1 -2 5q-2 6 -2 16q0 8 2 16
q1 3 2 5h338q1 -2 2 -5q2 -8 2 -16q0 -10 -2 -16q-1 -4 -2 -5h-338z" />
    <glyph glyph-name="product" unicode="&#x220f;" horiz-adv-x="709" 
d="M603 -203q-2 -1 -6 -2q-8 -2 -20 -2q-10 0 -18 2q-4 1 -6 2v849h-397v-849q-2 -1 -6 -2q-8 -2 -20 -2q-7 0 -11 0.5t-7 1.5q-4 1 -6 2v896h497v-896z" />
    <glyph glyph-name="q" unicode="q" horiz-adv-x="554" 
d="M418 78q-23 -41 -61.5 -64.5t-99.5 -23.5q-45 0 -81 14t-61.5 46t-39 84t-13.5 129q0 76 13.5 128.5t39 84.5t61.5 46t81 14q61 0 99.5 -23.5t61.5 -64.5v74q1 1 5 2q8 2 19 2q12 0 20 -2q4 -1 6 -2v-763q-2 -1 -6 -2q-8 -2 -19 -2t-19 2q-4 1 -6 2v319zM115 263
q0 -62 9 -105.5t28 -71t48.5 -40t71.5 -12.5q35 0 61.5 14t45 36.5t28.5 51.5t11 58v137q-1 29 -11 57.5t-28 51.5t-45 37.5t-62 14.5q-42 0 -71.5 -12.5t-48.5 -40t-28 -71t-9 -105.5z" />
    <glyph glyph-name="question" unicode="?" horiz-adv-x="431" 
d="M380 530q0 -50 -14 -82.5t-34.5 -57t-45 -44.5t-45 -44t-34.5 -56.5t-14 -81.5q-1 -2 -5 -3q-8 -2 -17 -2q-5 0 -8.5 0.5t-6.5 1.5q-4 1 -6 3q0 57 13 94t33 63t42.5 45t42.5 40.5t33 49.5t13 71q0 51 -31.5 84.5t-105.5 33.5q-31 0 -55.5 -4t-41.5 -9q-20 -5 -35 -12
q-9 6 -13.5 16.5t-2.5 21.5q17 9 41 16q20 6 48.5 11t64.5 5q47 0 81.5 -12t57.5 -33.5t34 -51t11 -63.5zM204 4l-8 -2q-10 -2 -24 -2t-24 2l-8 2v56l8 2q10 2 24 2t24 -2l8 -2v-56z" />
    <glyph glyph-name="questiondown" unicode="&#xbf;" horiz-adv-x="422" 
d="M225 516l8 2q10 2 24 2q13 0 23 -2l8 -2v-56l-8 -2q-10 -2 -23 -2q-14 0 -24 2l-8 2v56zM48 -10q0 50 14 82.5t35 57t45 44.5t45 44t35 56.5t14 81.5q1 1 5 2q6 2 16 2q8 0 16 -2q3 -1 5 -2q0 -57 -13 -94t-32.5 -63t-42.5 -45t-42.5 -40.5t-32.5 -49.5t-13 -71
q0 -51 31.5 -84.5t105.5 -33.5q31 0 55.5 3.5t41.5 8.5q20 5 35 13q9 -6 13.5 -16.5t2.5 -21.5q-18 -9 -42 -16q-20 -6 -48.5 -11t-63.5 -5q-47 0 -81.5 12t-57.5 33.5t-34.5 51t-11.5 63.5z" />
    <glyph glyph-name="quotedbl" unicode="&#x22;" horiz-adv-x="310" 
d="M71 716q3 1 7 2q8 2 19 2q12 0 20 -2q4 -1 6 -2l-10 -194q-1 -1 -4 -2t-12 -1t-12 1t-4 2zM187 716q2 1 6 2q8 2 20 2t20 -2q4 -1 6 -2l-10 -194q-1 -1 -4 -2t-12 -1t-12 1t-4 2z" />
    <glyph glyph-name="quotedblbase" unicode="&#x201e;" horiz-adv-x="331" 
d="M65 -87q8 9 15 22q6 11 11.5 27t7.5 38q-6 0 -10 0.5t-7 1.5q-4 1 -5 2v56l8 2q10 2 24 2q13 0 23 -2l8 -2v-40q0 -31 -8.5 -53.5t-18.5 -37.5q-11 -18 -26 -31zM179 -87q8 9 15 22q6 11 11.5 27t7.5 38q-6 0 -10 0.5t-7 1.5q-4 1 -5 2v56l8 2q10 2 24 2q13 0 23 -2l8 -2
v-40q0 -31 -8.5 -53.5t-18.5 -37.5q-11 -18 -26 -31z" />
    <glyph glyph-name="quotedblleft" unicode="&#x201c;" horiz-adv-x="286" 
d="M246 703q-9 -9 -16 -22q-6 -11 -11 -27.5t-7 -37.5q9 0 17 -2q4 -1 5 -2v-56l-8 -2q-10 -2 -24 -2q-8 0 -13.5 0.5t-9.5 1.5l-8 2v40q0 30 8 53t18 39q11 18 27 31zM134 703q-8 -9 -15 -22q-6 -11 -11.5 -27.5t-7.5 -37.5q9 0 17 -2q4 -1 5 -2v-56l-8 -2q-10 -2 -24 -2
q-13 0 -23 2l-8 2v40q0 30 8 53t18 39q11 18 27 31z" />
    <glyph glyph-name="quotedblright" unicode="&#x201d;" horiz-adv-x="313" 
d="M65 569q8 9 15 22q6 11 11.5 27t7.5 38q-6 0 -10 0.5t-7 1.5q-4 1 -5 2v56l8 2q10 2 24 2q13 0 23 -2l8 -2v-40q0 -31 -8.5 -53.5t-18.5 -38.5q-11 -18 -26 -31zM177 569q8 9 15 22q6 11 11.5 27t7.5 38q-6 0 -10 0.5t-7 1.5q-4 1 -5 2v56l8 2q10 2 24 2q13 0 23 -2l8 -2
v-40q0 -31 -8.5 -53.5t-18.5 -38.5q-11 -18 -26 -31z" />
    <glyph glyph-name="quoteleft" unicode="&#x2018;" horiz-adv-x="208" 
d="M144 704q-9 -10 -16 -22q-6 -11 -11.5 -27t-7.5 -38q6 -1 10.5 -1t7.5 -1q4 -1 6 -1v-57l-8 -2q-10 -2 -24 -2t-24 2l-8 2v41q0 30 8 52.5t19 38.5q11 18 27 31z" />
    <glyph glyph-name="quoteright" unicode="&#x2019;" horiz-adv-x="201" 
d="M65 569q8 9 15 22q6 11 11.5 27t7.5 38q-6 0 -10 0.5t-7 1.5q-4 1 -5 2v56l8 2t9.5 1.5t13.5 0.5q14 0 24 -2l8 -2v-40q0 -31 -8.5 -53.5t-18.5 -38.5q-12 -18 -27 -31z" />
    <glyph glyph-name="quotesinglbase" unicode="&#x201a;" horiz-adv-x="218" 
d="M65 -87q8 9 15 22q6 11 11.5 27t7.5 38q-8 0 -16 2q-4 1 -6 2v56l8 2q10 2 24 2t24 -2l8 -2v-40q0 -31 -8.5 -53.5t-18.5 -37.5q-12 -18 -27 -31z" />
    <glyph glyph-name="quotesingle" unicode="'" horiz-adv-x="194" 
d="M71 716q2 1 6 2q8 2 20 2t20 -2q4 -1 6 -2l-10 -194q-1 -1 -4 -2t-12 -1t-12 1t-4 2z" />
    <glyph glyph-name="r" unicode="r" horiz-adv-x="388" 
d="M136 430q17 33 36 54t38 32t37 15t34 4q36 0 57.5 -10t26.5 -13q-2 -29 -24 -42q-17 9 -33 13.5t-39 4.5q-39 0 -74 -32.5t-59 -86.5v-365q-2 -1 -6 -2q-8 -2 -19 -2t-19 2q-4 1 -6 2v518q2 1 6 2q8 2 19 2t19 -2q4 -1 6 -2v-92v0z" />
    <glyph glyph-name="racute" unicode="&#x155;" horiz-adv-x="388" 
d="M257 775q14 1 27 -5.5t20 -17.5l-125 -144q-23 3 -33 19zM136 430q17 34 36 54.5t38 31.5t37 15t34 4q36 0 57.5 -10t26.5 -13q-2 -29 -24 -42q-17 9 -33 13.5t-39 4.5q-39 0 -73.5 -32.5t-59.5 -86.5v-365q-2 -1 -6 -2q-8 -2 -19 -2t-19 2q-4 1 -6 2v518q2 1 6 2
q8 2 19 2t19 -2q4 -1 6 -2v-92z" />
    <glyph glyph-name="radical" unicode="&#x221a;" horiz-adv-x="629" 
d="M157 365l-108 -46q-8 5 -13 15.5t-3 22.5l149 65l152 -371l228 679q11 2 22 -0.5t18 -10.5l-245 -734h-44z" />
    <glyph glyph-name="rcaron" unicode="&#x159;" horiz-adv-x="388" 
d="M308 723q9 -2 14.5 -9t8.5 -16l-117 -96h-23l-118 96q6 19 23 26l107 -79zM136 430q19 32 38 52.5t37.5 32t36 16t33.5 4.5q36 0 57.5 -10t26.5 -13q-2 -29 -24 -42q-17 9 -33 13.5t-39 4.5q-39 0 -72 -34t-61 -85v-365q-2 -1 -6 -2q-8 -2 -19 -2t-19 2q-4 1 -6 2v518
q2 1 6 2q8 2 19 2t19 -2q4 -1 6 -2v-92z" />
    <glyph glyph-name="rcommaaccent" unicode="&#x157;" horiz-adv-x="388" 
d="M136 430q19 32 38 52.5t37.5 32t36 16t33.5 4.5q36 0 57.5 -10t26.5 -13q-2 -29 -24 -42q-17 9 -33 13.5t-39 4.5q-39 0 -72 -34t-61 -85v-365q-2 -1 -6 -2q-8 -2 -19 -2t-19 2q-4 1 -6 2v518q2 1 6 2q8 2 19 2t19 -2q4 -1 6 -2v-92zM80 -44l8 2q10 2 23 2q14 0 24 -2
l8 -2v-40q0 -31 -8.5 -53.5t-18.5 -38.5q-12 -18 -27 -31l-21 16q8 9 15 22q6 11 11.5 27t7.5 38q-6 0 -10 0.5t-7 1.5q-4 1 -5 2v56z" />
    <glyph glyph-name="registered" unicode="&#xae;" horiz-adv-x="554" 
d="M277 263q-43 0 -81 16.5t-66 44.5t-44.5 66t-16.5 81t16.5 81t44.5 66t66 44.5t81 16.5t81 -16.5t66 -44.5t44.5 -66t16.5 -81t-16.5 -81t-44.5 -66t-66 -44.5t-81 -16.5zM277 655q-38 0 -71.5 -14.5t-58 -39.5t-39 -58.5t-14.5 -71.5t14.5 -71.5t39 -58.5t58 -39.5
t71.5 -14.5t71.5 14.5t58 39.5t39 58.5t14.5 71.5t-14.5 71.5t-39 58.5t-58 39.5t-71.5 14.5zM293 589q36 0 54 -17t18 -49q0 -23 -10 -38t-34 -23l58 -97l-4 -2q-4 -2 -10 -2q-8 0 -10 1l-4 2l-57 95h-63v-95q-1 -1 -3 -2t-9 -1q-8 0 -10 1t-3 2v225h87zM293 481
q26 0 36 11t10 31q0 22 -10 33t-36 11h-62v-86h62z" />
    <glyph glyph-name="ring" unicode="&#x2da;" horiz-adv-x="344" 
d="M170 507q-48 0 -80.5 28t-32.5 80q0 26 9.5 45.5t25.5 33t36.5 20.5t42.5 7q21 0 42 -6.5t37 -20t26 -33.5t10 -46t-9.5 -46t-25 -34t-36.5 -21t-45 -7zM247 615q0 28 -19 49.5t-58 21.5q-38 0 -56 -22t-18 -49q0 -28 18 -50t56 -22q39 0 58 22.5t19 49.5z" />
    <glyph glyph-name="s" unicode="s" horiz-adv-x="443" 
d="M59 388q0 66 43.5 107t133.5 41q30 0 54 -3.5t41 -8.5q19 -5 35 -11q1 -11 -3 -22t-12 -17q-14 5 -32 9q-15 3 -35 6t-43 3q-65 0 -98 -26t-33 -76q0 -23 10.5 -39t28 -27t39.5 -19t46 -15q28 -8 56 -18t50.5 -26t37 -41.5t14.5 -65.5q0 -69 -44 -109t-134 -40
q-37 0 -65.5 5t-48.5 11q-24 7 -41 16q-2 25 14 39q19 -8 41 -13q19 -5 44 -9t52 -4q57 0 93.5 24t36.5 78q0 28 -11.5 46.5t-30 30t-43 19l-49.5 14.5q-26 7 -52.5 17.5t-47.5 26t-34 39t-13 58.5z" />
    <glyph glyph-name="sacute" unicode="&#x15b;" horiz-adv-x="443" 
d="M188 608q-23 3 -33 19l111 148q14 1 27 -5.5t20 -17.5zM59 388q0 66 43.5 107t133.5 41q30 0 54 -3.5t41 -8.5q19 -5 35 -11q1 -11 -3 -22t-12 -17q-14 5 -32 9q-15 3 -35 6t-43 3q-65 0 -98 -26t-33 -76q0 -23 10 -39t27 -27t39 -19t45 -14q28 -8 57 -17.5t52 -26
t37.5 -42.5t14.5 -66q0 -69 -44 -109t-134 -40q-37 0 -65.5 5t-48.5 11q-24 7 -41 16q-2 25 14 39q19 -8 41 -13q19 -5 44 -9t52 -4q57 0 93.5 24t36.5 78q0 28 -11.5 46.5t-30 30t-43 19l-49.5 14.5q-27 7 -53 17.5t-47 26t-34 39t-13 58.5z" />
    <glyph glyph-name="scaron" unicode="&#x161;" horiz-adv-x="443" 
d="M107 702q5 20 23 24l105 -77l104 77q15 -6 22 -24l-115 -94h-24zM59 388q0 66 43.5 107t133.5 41q30 0 54 -3.5t41 -8.5q19 -5 35 -11q1 -11 -3 -22t-12 -17q-14 5 -32 9q-15 3 -35 6t-43 3q-65 0 -98 -26t-33 -76q0 -23 10 -39t27 -27t38.5 -19t44.5 -14q28 -8 57 -17.5
t52.5 -26t38 -42.5t14.5 -66q0 -69 -44 -109t-134 -40q-37 0 -65.5 5t-48.5 11q-24 7 -41 16q-2 25 14 39q19 -8 41 -13q19 -5 44 -9t52 -4q57 0 93.5 24t36.5 78q0 28 -11.5 46.5t-30 30t-42.5 19t-49 14.5q-27 7 -53.5 17.5t-47.5 26t-34 39t-13 58.5z" />
    <glyph glyph-name="scedilla" unicode="&#x15f;" horiz-adv-x="443" 
d="M59 388q0 66 43.5 107t133.5 41q30 0 54 -3.5t41 -8.5q19 -5 35 -11q1 -11 -3 -22t-12 -17q-14 5 -32 9q-15 3 -35 6t-43 3q-65 0 -98 -26t-33 -76q0 -23 10 -39t27 -27t39 -19t46 -14q28 -8 56.5 -18t51.5 -26.5t37.5 -42t14.5 -65.5q0 -66 -39.5 -105t-119.5 -44
l-14 -60q57 0 82.5 -23t25.5 -63q0 -47 -29 -70.5t-83 -23.5q-20 0 -35.5 3t-26.5 8q-13 4 -24 11q0 9 4 15.5t9 11.5q2 -1 22.5 -9t49.5 -8q35 0 54 15.5t19 47.5q0 26 -17 40t-50 14h-32l-8 9l18 82q-33 2 -58.5 6.5t-43.5 10.5q-21 6 -37 15q-2 25 14 39q19 -8 41 -13
q19 -5 44 -9t52 -4q57 0 93.5 24t36.5 78q0 28 -11.5 46.5t-30 30t-43 19l-49.5 14.5q-26 7 -52.5 17.5t-47.5 26t-34 39t-13 58.5z" />
    <glyph glyph-name="scircumflex" unicode="&#x15d;" horiz-adv-x="443" 
d="M367 626q-3 -9 -9 -16.5t-15 -9.5l-114 83l-113 -84q-18 7 -24 27l125 102h25zM59 388q0 66 43.5 107t133.5 41q30 0 54 -3.5t41 -8.5q19 -5 35 -11q1 -11 -3 -22t-12 -17q-14 5 -32 9q-15 3 -35 6t-43 3q-65 0 -98 -26t-33 -76q0 -23 10.5 -39t28 -27t39.5 -19t46 -15
q28 -8 56.5 -18t51 -26t36.5 -41.5t14 -65.5q0 -69 -44 -109t-134 -40q-37 0 -65.5 5t-48.5 11q-24 7 -41 16q-2 25 14 39q19 -8 41 -13q19 -5 44 -9t52 -4q57 0 93.5 24t36.5 78q0 28 -11.5 46.5t-30 30t-42.5 19t-49 14.5q-27 7 -53.5 17.5t-47.5 26t-34 39t-13 58.5z" />
    <glyph glyph-name="scommaaccent" unicode="&#x219;" horiz-adv-x="443" 
d="M59 388q0 66 43.5 107t133.5 41q30 0 54 -3.5t41 -8.5q19 -5 35 -11q1 -11 -3 -22t-12 -17q-14 5 -32 9q-15 3 -35 6t-43 3q-65 0 -98 -26t-33 -76q0 -23 10 -39t27 -27t39 -19t46 -14q28 -8 56.5 -18t51.5 -26.5t37.5 -42t14.5 -65.5q0 -69 -44 -109t-134 -40
q-37 0 -65.5 5t-48.5 11q-24 7 -41 16q-2 25 14 39q19 -8 41 -13q19 -5 44 -9t52 -4q57 0 93.5 24t36.5 78q0 28 -11.5 46.5t-30 30t-43 19l-49.5 14.5q-26 7 -52.5 17.5t-47.5 26t-34 39t-13 58.5zM181 -227q8 9 15 22q6 11 11.5 27t7.5 38q-6 0 -10 0.5t-7 1.5q-4 1 -6 2
v56l8 2q10 2 24 2t24 -2l8 -2v-41q0 -30 -8.5 -53t-18.5 -38q-12 -18 -27 -31z" />
    <glyph glyph-name="section" unicode="&#xa7;" horiz-adv-x="482" 
d="M365 121q0 29 -22 45.5t-54.5 28t-71 21.5t-71 25.5t-54.5 39t-22 63.5q0 24 8 43t20 34t25.5 25.5t24.5 16.5q-29 15 -48.5 39t-19.5 64q0 63 44.5 93.5t122.5 30.5q28 0 51.5 -3t41 -6.5t28.5 -7l14 -4.5q2 -10 -1 -21t-11 -16q-2 0 -12 3t-26 6t-35.5 5.5t-38.5 2.5
q-72 0 -100.5 -22t-28.5 -60q0 -30 21 -47t52 -29t67.5 -22.5t67.5 -25.5t52 -38.5t21 -62.5q0 -24 -7.5 -42.5t-19 -32.5t-23.5 -24t-21 -16q32 -16 54.5 -40t22.5 -66q0 -38 -14.5 -63t-40 -40t-60 -21.5t-74.5 -6.5q-34 0 -62 3.5t-48 8.5q-24 5 -44 12q-2 11 1 21.5
t11 17.5q1 0 14 -3t31.5 -6.5t41.5 -6.5t46 -3q75 0 111 20t36 67zM189 444q-10 -6 -22 -14.5t-22.5 -20t-18 -26t-7.5 -32.5q0 -27 16 -44t41.5 -28t56.5 -18.5t62 -17.5q9 5 20 13.5t21.5 20t17.5 26.5t7 33q0 26 -16 42t-41 27.5t-55.5 19.5t-59.5 19z" />
    <glyph glyph-name="semicolon" unicode=";" horiz-adv-x="239" 
d="M154 399l-8 -2q-10 -2 -24 -2t-24 2l-8 2v56l8 2q10 2 24 2t24 -2l8 -2v-56zM79 -87q8 9 15 22q6 11 11 27t7 38q-8 0 -16 2q-4 1 -6 2v56l8 2q10 2 24 2t24 -2l8 -2v-40q0 -31 -8.5 -53.5t-18.5 -37.5q-12 -18 -27 -31z" />
    <glyph glyph-name="seven" unicode="7" horiz-adv-x="494" 
d="M448 680q4 -13 4 -30q0 -63 -19.5 -111t-47.5 -91t-61 -85.5t-61 -93.5t-47 -115t-19 -150q-3 -1 -9 -2.5t-16 -1.5t-17 1.5t-9 2.5q0 87 17.5 152.5t44 117.5t58 94l60 82.5t49 84t25.5 97.5h-359q-1 2 -2 6q-2 8 -2 18t2 18q1 4 2 6h407z" />
    <glyph glyph-name="seven.denom" horiz-adv-x="273" 
d="M32 310q-1 2 -2 5.5t-1 10.5t1 11t2 6h209q0 -3 1 -7q2 -8 2 -17q0 -35 -9.5 -60t-24 -46t-31 -40.5t-31 -43t-24 -54t-9.5 -73.5q-4 -1 -8.5 -1.5t-10.5 -0.5q-9 0 -17 2q0 45 8.5 77t22 56t29.5 43.5t30 38.5t24 41t13 52h-174z" />
    <glyph glyph-name="seven.num" horiz-adv-x="274" 
d="M242 689q3 -11 3 -24q0 -35 -9.5 -60t-24 -46t-31 -40.5t-31 -43t-24 -54t-9.5 -73.5q-19 -5 -36 0q0 45 8.5 77t22 56t29.5 43.5t30 38.5t24 41t13 52h-174q-8 16 0 33h209z" />
    <glyph glyph-name="seveneighths" unicode="&#x215e;" horiz-adv-x="664" 
d="M459 698q2 1 5 2q6 2 15 2q8 0 14 -2q3 -1 4 -2l-387 -705q-2 -1 -5 -2q-2 -1 -6 -1h-9q-11 0 -14 1t-5 2zM262 689q0 -3 1 -7q2 -8 2 -17q0 -35 -9.5 -60t-24 -46t-31 -40.5t-31 -43t-24 -54t-9.5 -73.5q-19 -5 -36 0q0 44 8.5 76t22 56.5t29.5 43.5t30 38.5t24 41.5
t13 52h-174q-7 16 0 33h209zM386 265q0 37 26.5 60t80.5 23q50 0 78.5 -21.5t28.5 -61.5q0 -33 -16.5 -54.5t-39.5 -35.5q28 -14 48 -33.5t20 -54.5q0 -44 -31 -68t-87 -24q-53 0 -86.5 23t-33.5 68q0 38 20.5 62t45.5 38q-23 13 -38.5 31t-15.5 48zM565 263q0 56 -73 56
q-34 0 -52.5 -14t-18.5 -38q0 -17 8 -28.5t21.5 -20.5t30.5 -16.5t35 -14.5q22 14 35.5 32.5t13.5 43.5zM577 85q0 19 -10 32t-26 23t-35 17.5t-37 15.5q-7 -4 -17 -11t-19.5 -17.5t-16.5 -24.5t-7 -32q0 -33 22.5 -48t63.5 -15q34 0 58 14.5t24 45.5z" />
    <glyph glyph-name="seveninferior" unicode="&#x2087;" horiz-adv-x="274" 
d="M33 214q-8 16 0 33h209q0 -3 1 -7q2 -8 2 -17q0 -35 -10 -60t-24.5 -46t-31.5 -40.5t-31.5 -43t-24 -54t-9.5 -73.5q-19 -5 -36 0q0 45 9 77t22.5 56.5t29.5 43.5t30 38t24.5 41t13.5 52h-174z" />
    <glyph glyph-name="six" unicode="6" horiz-adv-x="552" 
d="M427 680q8 -21 0 -42q-59 -6 -108 -23.5t-86.5 -50t-63 -80t-37.5 -113.5q24 14 65.5 29.5t97.5 15.5q42 0 79 -12t64.5 -37.5t43 -66t15.5 -97.5q0 -53 -15.5 -92.5t-44 -66.5t-68 -40.5t-86.5 -13.5t-86 15.5t-67.5 48t-44.5 83t-16 120.5q0 105 26 182t73 129
t113 79.5t146 32.5zM443 203q0 44 -11.5 76t-32 53t-48.5 31t-62 10q-29 0 -55 -6.5t-47 -15t-37 -17.5t-25 -15q-3 -32 -3 -66q0 -58 12 -99.5t33.5 -68.5t51 -39.5t64.5 -12.5q70 0 115 42t45 128z" />
    <glyph glyph-name="six.denom" horiz-adv-x="307" 
d="M41 143q0 82 47.5 138t145.5 65q3 -6 3 -14.5t-3 -14.5q-66 -9 -105.5 -43.5t-47.5 -92.5q11 6 31.5 14t52.5 8q50 0 78.5 -27t28.5 -75q0 -27 -9 -47t-24.5 -33t-36 -19.5t-42.5 -6.5q-57 0 -88 37t-31 111zM235 101q0 31 -19 51t-55 20t-56 -10.5t-27 -15.5
q0 -121 82 -121q34 0 54.5 20t20.5 56z" />
    <glyph glyph-name="six.num" horiz-adv-x="307" 
d="M41 491q0 81 47 137t146 66q7 -15 0 -30q-66 -8 -105.5 -42.5t-47.5 -93.5q11 7 31.5 15t52.5 8q50 0 78.5 -27t28.5 -75q0 -27 -9 -47t-24.5 -33t-36 -19.5t-42.5 -6.5q-57 0 -88 37t-31 111zM235 449q0 31 -19 51t-55 20t-56 -10.5t-27 -16.5q0 -121 82 -121
q34 0 54.5 20.5t20.5 56.5z" />
    <glyph glyph-name="sixinferior" unicode="&#x2086;" horiz-adv-x="307" 
d="M41 47q0 82 47.5 138t145.5 65q5 -15 0 -29q-66 -9 -105.5 -43.5t-47.5 -92.5q11 6 31.5 14t52.5 8q50 0 78.5 -27t28.5 -75q0 -27 -9 -47t-24.5 -33t-36 -19.5t-42.5 -6.5q-57 0 -88 37t-31 111zM235 5q0 31 -19 51t-55 20t-56 -10.5t-27 -15.5q0 -121 82 -121
q34 0 54.5 20t20.5 56z" />
    <glyph glyph-name="slash" unicode="/" horiz-adv-x="437" 
d="M361 746q3 1 7 2q8 2 19 2q13 0 21 -2q4 -1 6 -2l-338 -789q-3 -1 -7 -2q-10 -2 -21 -2t-19 2q-4 1 -6 2z" />
    <glyph glyph-name="space" unicode=" " horiz-adv-x="247" 
 />
    <glyph glyph-name="sterling" unicode="&#xa3;" horiz-adv-x="517" 
d="M204 316q9 -32 13.5 -65t-1 -66.5t-23 -68t-53.5 -68.5h313q5 -5 5 -24t-5 -24h-379v48q41 36 61 70t26 67t1 65.5t-15 65.5h-83q-1 2 -2.5 7.5t-1.5 13.5q0 15 4 21h70q-13 38 -24 76t-11 79q0 47 15 80.5t41.5 55.5t64 32t82.5 10q30 0 56 -3.5t46.5 -8.5t33.5 -9.5
t17 -5.5q1 -12 -3 -23t-14 -17q-2 1 -13.5 4.5t-29 7.5t-40.5 7t-48 3q-74 0 -113.5 -33.5t-39.5 -102.5q0 -37 11.5 -74.5t25.5 -77.5h195q2 -2 3.5 -7t1.5 -13q0 -15 -5 -22h-182z" />
    <glyph glyph-name="summation" unicode="&#x2211;" horiz-adv-x="575" 
d="M265 261l-210 409v24h467q1 -2 2 -6q2 -8 2 -17q0 -6 -0.5 -10t-1.5 -7q-1 -4 -2 -6h-400l199 -387l-216 -422h423q1 -2 2 -6q2 -8 2 -17q0 -6 -0.5 -10t-1.5 -7q-1 -4 -2 -6h-490v29z" />
    <glyph glyph-name="t" unicode="t" horiz-adv-x="359" 
d="M165 176q0 -75 23.5 -108.5t87.5 -33.5q11 0 20.5 0.5t17.5 1.5q9 1 16 3q1 -2 2 -6q1 -3 2 -7t1 -9q0 -8 -2 -14q-1 -3 -1 -5q-4 -1 -22.5 -4.5t-45.5 -3.5q-43 0 -71.5 12.5t-46 36t-24.5 58t-7 78.5v309h-80q-1 2 -2 5q-2 6 -2 16t2 16q1 3 2 5h80v99q10 7 23 10.5
t27 1.5v-111h153q1 -2 2 -5t2 -7t1 -9t-1 -9.5t-2 -6.5q-1 -4 -2 -5h-153v-308z" />
    <glyph glyph-name="tbar" unicode="&#x167;" horiz-adv-x="361" 
d="M278 34q11 0 20.5 0.5t17.5 1.5q9 1 16 3q1 -2 2 -6q1 -3 2 -7t1 -9q0 -8 -2 -14q-1 -3 -1 -5q-4 -1 -22.5 -4.5t-45.5 -3.5q-43 0 -71.5 12.5t-46 36t-24.5 58t-7 78.5v90h-67q-5 20 0 37h67v182h-80q-1 2 -2 5q-2 6 -2 16t2 16q1 3 2 5h80v99q10 7 23 10.5t27 1.5v-111
h153q1 -2 2 -5t2 -7t1 -9t-1 -9.5t-2 -6.5q-1 -4 -2 -5h-153v-182h126q5 -18 0 -37h-126v-89q0 -75 23.5 -108.5t87.5 -33.5z" />
    <glyph glyph-name="tcaron" unicode="&#x165;" horiz-adv-x="359" 
d="M293 588q-18 3 -25 17q34 27 49 62t17 82q32 3 47 -10q-2 -22 -9 -44.5t-18.5 -42.5t-26.5 -37t-34 -27zM165 176q0 -75 23.5 -108.5t87.5 -33.5q11 0 20.5 0.5t17.5 1.5q9 1 16 3q1 -2 2 -6q1 -3 2 -7t1 -9q0 -8 -2 -14q-1 -3 -1 -5q-4 -1 -22.5 -4.5t-45.5 -3.5
q-43 0 -71.5 12.5t-46 36t-24.5 58t-7 78.5v309h-80q-1 2 -2 5q-2 6 -2 16t2 16q1 3 2 5h80v99q10 7 23 10.5t27 1.5v-111h153q1 -2 2 -5t2 -7t1 -9t-1 -9.5t-2 -6.5q-1 -4 -2 -5h-153v-308z" />
    <glyph glyph-name="thorn" unicode="&#xfe;" horiz-adv-x="554" 
d="M86 746q2 1 6 2q8 2 19 2t19 -2q4 -1 6 -2v-298q23 41 61.5 64.5t99.5 23.5q45 0 81 -14t61.5 -46t39 -84.5t13.5 -128.5q0 -77 -13.5 -129t-39 -84t-61.5 -46t-81 -14q-61 0 -99.5 23.5t-61.5 64.5v-319q-2 -1 -6 -2q-8 -2 -19 -2t-19 2q-4 1 -6 2v987zM439 263
q0 62 -9 105.5t-28 71t-48.5 40t-71.5 12.5q-36 0 -63 -14.5t-45 -37.5t-27.5 -51.5t-10.5 -57.5v-131q0 -30 9.5 -59.5t27.5 -53t45.5 -38.5t63.5 -15q42 0 71.5 12.5t48.5 40t28 71t9 105.5z" />
    <glyph glyph-name="three" unicode="3" horiz-adv-x="516" 
d="M448 173q0 -36 -12 -69t-39 -58.5t-71 -40.5t-108 -15q-38 0 -68.5 5t-51.5 11q-26 7 -44 17q-1 10 3 21.5t11 16.5q17 -5 54.5 -15t92.5 -10q50 0 84.5 10.5t56 30t31 46t9.5 58.5q0 48 -16 78t-41.5 47t-57.5 23t-64 6h-53q-8 21 0 43h53q28 0 56.5 5.5t51 20.5t37 42
t14.5 70q0 61 -37.5 95.5t-117.5 34.5q-31 0 -56 -4t-44 -9q-22 -5 -40 -12q-9 5 -14 15.5t-4 21.5q19 9 45 16q22 6 52 11t66 5q51 0 88.5 -12t63 -34t38 -52.5t12.5 -67.5q0 -60 -23.5 -103t-83.5 -64q69 -20 98 -67.5t29 -116.5z" />
    <glyph glyph-name="three.denom" horiz-adv-x="300" 
d="M258 93q0 -20 -6.5 -38t-21.5 -31.5t-40.5 -21t-63.5 -7.5q-20 0 -36.5 2t-27.5 5q-14 4 -24 8q-1 7 1.5 14t7.5 12q11 -3 23 -5q23 -5 54 -5t50 5.5t29.5 15t14.5 22t4 26.5q0 37 -23 53t-58 16h-44q-7 15 0 31h44q35 0 52 16.5t17 44.5q0 61 -77 61q-17 0 -31 -1.5
t-25 -3.5q-12 -2 -22 -4q-10 10 -8 27q11 3 24 6q11 2 27.5 4.5t36.5 2.5q55 0 83.5 -23t28.5 -66q0 -55 -47 -78q26 -11 42 -30t16 -58z" />
    <glyph glyph-name="three.num" horiz-adv-x="300" 
d="M258 439q0 -20 -6.5 -38t-21.5 -31.5t-40.5 -21t-63.5 -7.5q-20 0 -36.5 2t-27.5 5q-14 4 -24 8q-1 7 1.5 14t7.5 12q11 -3 23 -5q23 -5 54 -5t50 5.5t29.5 15t14.5 22t4 26.5q0 37 -23 53t-58 16h-44q-7 15 0 31h44q35 0 52 16.5t17 44.5q0 61 -77 61q-17 0 -31 -1.5
t-25 -3.5q-12 -2 -22 -4q-10 10 -8 27q11 3 24 6q11 2 27.5 4.5t36.5 2.5q55 0 83.5 -23t28.5 -66q0 -55 -47 -78q26 -11 42 -30t16 -58z" />
    <glyph glyph-name="threeeighths" unicode="&#x215c;" horiz-adv-x="754" 
d="M550 698q2 1 5 2q6 2 15 2q8 0 14 -2q3 -1 4 -2l-387 -705q-2 -1 -5 -2q-2 -1 -6 -1h-9q-11 0 -14 1t-5 2zM64 681q11 3 24 6q11 2 27.5 4.5t36.5 2.5q55 0 83.5 -23t28.5 -66q0 -55 -47 -78q26 -11 42 -30t16 -58q0 -20 -6.5 -38t-21.5 -31.5t-40.5 -21t-63.5 -7.5
q-20 0 -36.5 2t-27.5 5q-14 4 -24 8q-1 7 1.5 14t7.5 12q11 -3 23 -5q23 -5 54 -5t50 5.5t29.5 15t14.5 22t4 26.5q0 37 -23 53t-58 16h-44q-7 15 0 31h44q35 0 52.5 16.5t17.5 44.5q0 30 -20 45.5t-58 15.5q-17 0 -31 -1.5t-25 -3.5q-12 -2 -22 -4q-10 10 -8 27zM477 265
q0 37 26.5 60t80.5 23q50 0 78.5 -21.5t28.5 -61.5q0 -33 -16.5 -54.5t-39.5 -35.5q28 -14 48 -33.5t20 -54.5q0 -44 -31 -68t-87 -24q-53 0 -86.5 23t-33.5 68q0 38 20.5 62t45.5 38q-23 13 -38.5 31t-15.5 48zM656 263q0 56 -73 56q-34 0 -52.5 -14t-18.5 -38
q0 -17 8 -28.5t21.5 -20.5t30.5 -16.5t35 -14.5q22 14 35.5 32.5t13.5 43.5zM668 85q0 19 -10 32t-26 23t-35 17.5t-37 15.5q-7 -4 -17 -11t-19.5 -17.5t-16.5 -24.5t-7 -32q0 -33 22.5 -48t63.5 -15q34 0 58 14.5t24 45.5z" />
    <glyph glyph-name="threeinferior" unicode="&#x2083;" horiz-adv-x="300" 
d="M258 -3q0 -20 -6.5 -38t-21.5 -31.5t-40.5 -21t-63.5 -7.5q-20 0 -36.5 2t-27.5 5q-14 4 -24 8q-1 7 1.5 14t7.5 12q11 -3 23 -5q23 -5 54 -5t50 5.5t29.5 15t14.5 22t4 26.5q0 37 -23 53t-58 16h-44q-7 15 0 31h44q35 0 52 16.5t17 44.5q0 61 -77 61q-17 0 -31 -1.5
t-25 -3.5q-12 -2 -22 -4q-10 10 -8 27q11 3 24 6q11 2 27.5 4.5t36.5 2.5q55 0 83.5 -23t28.5 -66q0 -55 -47 -78q26 -11 42 -30t16 -58z" />
    <glyph glyph-name="threequarters" unicode="&#xbe;" horiz-adv-x="702" 
d="M554 698q2 1 5 2q6 2 15 2q8 0 14 -2q3 -1 4 -2l-387 -705q-2 -1 -5 -2q-2 -1 -6 -1h-9q-11 0 -14 1t-5 2zM64 681q11 3 24 6q11 2 27.5 4.5t36.5 2.5q55 0 83.5 -23t28.5 -66q0 -55 -47 -78q26 -11 42 -30t16 -58q0 -20 -6.5 -38t-21.5 -31.5t-40.5 -21t-63.5 -7.5
q-20 0 -36.5 2t-27.5 5q-14 4 -24 8q-1 7 1.5 14t7.5 12q11 -3 23 -5q23 -5 54 -5t50 5.5t29.5 15t14.5 22t4 26.5q0 37 -23 53t-58 16h-44q-7 15 0 31h44q35 0 52 16.5t17 44.5q0 61 -77 61q-17 0 -31 -1.5t-25 -3.5q-12 -2 -22 -4q-10 10 -8 27zM576 340q2 1 6 2t12 1
q7 0 11 -1t6 -2v-216h42q1 -2 2 -6t1 -9q0 -7 -1 -10.5t-2 -5.5h-42v-90q-2 -1 -5.5 -2t-9.5 -1q-7 0 -11 1t-6 2v90h-180q-1 2 -2 4.5t-1 7.5q0 4 1 6.5t2 4.5zM579 124v171l-137 -171h137z" />
    <glyph glyph-name="threesuperior" unicode="&#xb3;" horiz-adv-x="299" 
d="M258 439q0 -20 -6.5 -38t-21.5 -31.5t-40.5 -21t-63.5 -7.5q-20 0 -36.5 2t-27.5 5q-14 4 -24 8q-1 7 1.5 14t7.5 12q11 -3 23 -5q23 -5 54 -5t50 5.5t29.5 15t14.5 22t4 26.5q0 37 -23 53t-58 16h-44q-7 15 0 31h44q35 0 52 16.5t17 44.5q0 61 -77 61q-17 0 -31 -1.5
t-25 -3.5q-12 -2 -22 -4q-10 10 -8 27q11 3 24 6q11 2 27.5 4.5t36.5 2.5q55 0 83.5 -23t28.5 -66q0 -55 -47 -78q26 -11 42 -30t16 -58z" />
    <glyph glyph-name="tilde" unicode="&#x2dc;" horiz-adv-x="327" 
d="M230 657q11 0 19 4.5t14 10.5q7 6 12 15q8 -3 14.5 -9.5t8.5 -15.5q-6 -13 -16 -23q-9 -8 -23 -15t-34 -7q-19 0 -33 5.5t-26 12t-23.5 12t-25.5 5.5q-11 0 -19.5 -5t-13.5 -10q-6 -7 -11 -15q-22 8 -25 24q6 12 17 23q9 8 23 15.5t34 7.5q19 0 33 -5.5t26 -12t23.5 -12
t25.5 -5.5z" />
    <glyph glyph-name="trademark" unicode="&#x2122;" horiz-adv-x="629" 
d="M301 717q1 0 4 1q2 1 4.5 1.5t7.5 0.5q7 0 10 -1t5 -2l55 -108q10 -19 18.5 -37.5t15.5 -35.5q7 16 15.5 33.5t19.5 36.5l56 111q1 0 4 1q6 2 12 2t12 -2q3 -1 4 -1v-282q-1 -1 -3 -2t-9 -1q-8 0 -10 1t-3 2v245l-15.5 -31.5t-15.5 -30.5l-55 -106q-1 -1 -3 -2t-10 -1
t-10 1t-3 2l-52 106q-8 17 -16 31.5l-16 30.5q2 -26 2 -55v-61v-129q-1 -1 -3 -2t-9 -1t-9 1t-3 2v282zM248 720q3 -6 3 -12t-3 -13h-87v-260q-1 -1 -3 -2t-11 -1q-8 0 -10 1t-3 2v260h-89q-2 8 -2 13q0 8 2 12h203z" />
    <glyph glyph-name="two" unicode="2" horiz-adv-x="528" 
d="M98 616q-17 12 -15 38q22 10 50 18q24 7 57.5 12.5t75.5 5.5q41 0 77.5 -9.5t63.5 -30t43 -53.5t16 -80q0 -43 -13 -74.5t-38 -57.5t-60 -49.5t-80 -50.5l-55.5 -33t-54.5 -39.5t-41.5 -53.5t-16.5 -75q0 -16 1 -25.5t1 -10.5h343q1 -2 2.5 -7.5t1.5 -16.5t-1.5 -16.5
t-2.5 -7.5h-389q-2 9 -3 20q-3 18 -3 47q0 58 17 97.5t45 67.5t62 49l69 43l65 41.5t51.5 40.5t33.5 47.5t12 62.5q0 23 -6.5 46t-23.5 42t-47 30.5t-78 11.5q-32 0 -60.5 -5t-50.5 -10q-26 -7 -48 -15z" />
    <glyph glyph-name="two.denom" horiz-adv-x="300" 
d="M35 41q0 34 14 56t34.5 37.5t45 26.5t45 23t34.5 28t14 41q0 26 -18 44.5t-65 19.5q-27 0 -49 -4.5t-24 -5.5q-11 13 -8 28q11 3 24 6q11 2 26.5 4.5t35.5 2.5q60 0 87 -25.5t27 -66.5q0 -32 -14 -52.5t-35 -34.5t-46 -25.5t-45.5 -25.5t-34 -34t-12.5 -51h182
q4 -7 4 -17q0 -9 -4 -16h-214l-2 12q-1 5 -1.5 12.5t-0.5 16.5z" />
    <glyph glyph-name="two.num" horiz-adv-x="300" 
d="M35 387q0 34 14 56t34.5 37.5t45 26.5t45 23t34.5 28t14 41q0 26 -18 45t-65 19q-27 0 -49 -4.5t-24 -5.5q-11 13 -8 28q11 3 24 6q11 2 26.5 4.5t35.5 2.5q60 0 87 -25.5t27 -66.5q0 -32 -14 -52.5t-35 -34.5t-46 -25.5t-45.5 -25.5t-34 -34t-12.5 -51h182q4 -7 4 -17
q0 -9 -4 -16h-214l-2 12q-1 5 -1.5 12.5t-0.5 16.5z" />
    <glyph glyph-name="twoinferior" unicode="&#x2082;" horiz-adv-x="300" 
d="M35 -55q0 34 14 56t34.5 37.5t45 26.5t45 23t34.5 28t14 41t-18.5 44.5t-65.5 19.5q-26 0 -48.5 -4.5t-23.5 -5.5q-11 13 -8 28q11 3 24 6q11 2 26.5 4.5t35.5 2.5q60 0 87 -25.5t27 -66.5q0 -32 -14 -52.5t-35 -34.5t-46 -25.5t-45.5 -25.5t-34 -34t-12.5 -51h182
q4 -7 4 -17q0 -9 -4 -16h-214l-2 12q-1 5 -1.5 12.5t-0.5 16.5z" />
    <glyph glyph-name="twosuperior" unicode="&#xb2;" horiz-adv-x="300" 
d="M35 387q0 34 14 56t34.5 37.5t45 26.5t45 23t34.5 28t14 41t-18.5 44.5t-65.5 19.5q-26 0 -48.5 -4.5t-23.5 -5.5q-11 13 -8 28q11 3 24 6q11 2 26.5 4.5t35.5 2.5q60 0 87 -25.5t27 -66.5q0 -32 -14 -52.5t-35 -34.5t-46 -25.5t-45.5 -25.5t-34 -34t-12.5 -51h182
q4 -7 4 -17q0 -9 -4 -16h-214l-2 12q-1 5 -1.5 12.5t-0.5 16.5z" />
    <glyph glyph-name="u" unicode="u" 
d="M82 522q2 1 6 2q8 2 19 2t19 -2q4 -1 6 -2v-372q0 -60 30 -88.5t90 -28.5q47 0 91 29.5t69 83.5v376q2 1 6 2q8 2 19 2t19 -2q4 -1 6 -2v-518q-2 -1 -6 -2q-8 -2 -19 -2t-19 2q-4 1 -6 2v77q-31 -42 -76 -66.5t-102 -24.5q-72 0 -112 40.5t-40 108.5v383z" />
    <glyph glyph-name="uacute" unicode="&#xfa;" 
d="M235 608q-23 3 -33 19l111 148q14 1 27 -5.5t20 -17.5zM82 522q2 1 6 2q8 2 19 2t19 -2q4 -1 6 -2v-372q0 -60 30 -88.5t90 -28.5q47 0 91 29.5t69 83.5v376q2 1 6 2q8 2 19 2t19 -2q4 -1 6 -2v-518q-2 -1 -6 -2q-8 -2 -19 -2t-19 2q-4 1 -6 2v77q-31 -42 -76 -66.5
t-102 -24.5q-72 0 -112 40.5t-40 108.5v383z" />
    <glyph glyph-name="ubreve" unicode="&#x16d;" 
d="M273 675q25 0 45.5 6t34.5 14q17 9 30 20q20 -5 25 -27q-15 -16 -34 -28q-17 -11 -42 -19.5t-59 -8.5t-59.5 8.5t-42.5 19.5q-20 12 -34 28q6 20 25 27q13 -11 30 -20q14 -8 34.5 -14t46.5 -6zM412 522q2 1 6 2q8 2 19 2t19 -2q4 -1 6 -2v-518q-2 -1 -6 -2q-8 -2 -19 -2
t-19 2q-4 1 -6 2v77q-31 -42 -76 -66.5t-102 -24.5q-72 0 -112 40.5t-40 108.5v383q2 1 6 2q8 2 19 2t19 -2q4 -1 6 -2v-372q0 -60 30 -88.5t90 -28.5q47 0 91 29.5t69 83.5v376z" />
    <glyph glyph-name="ucircumflex" unicode="&#xfb;" 
d="M410 628q-3 -8 -9 -15.5t-15 -9.5l-114 83l-113 -84q-18 7 -24 26l125 103h25zM82 522q2 1 6 2q8 2 19 2t19 -2q4 -1 6 -2v-372q0 -60 30 -88.5t90 -28.5q47 0 91 29.5t69 83.5v376q2 1 6 2q8 2 19 2t19 -2q4 -1 6 -2v-518q-2 -1 -6 -2q-8 -2 -19 -2t-19 2q-4 1 -6 2v77
q-31 -42 -76 -66.5t-102 -24.5q-72 0 -112 40.5t-40 108.5v383z" />
    <glyph glyph-name="udieresis" unicode="&#xfc;" 
d="M165 705q3 1 7 2q10 2 23 2q12 0 22 -2l8 -2v-53l-8 -2t-9.5 -1h-12.5h-13.5t-9.5 1t-7 2v53zM314 705q3 1 7 2t9 1.5t13 0.5t13 -0.5t9 -1.5l8 -2v-53l-8 -2q-5 -1 -22 -1t-22 1q-4 1 -7 2v53zM412 522q2 1 6 2q8 2 19 2t19 -2q4 -1 6 -2v-518q-2 -1 -6 -2q-8 -2 -19 -2
t-19 2q-4 1 -6 2v77q-31 -42 -76 -66.5t-102 -24.5q-72 0 -112 40.5t-40 108.5v383q2 1 6 2q8 2 19 2t19 -2q4 -1 6 -2v-372q0 -60 30 -88.5t90 -28.5q47 0 91 29.5t69 83.5v376z" />
    <glyph glyph-name="ugrave" unicode="&#xf9;" 
d="M324 627q-10 -16 -33 -19l-125 144q6 10 19.5 17t27.5 6zM412 522q2 1 6 2q8 2 19 2t19 -2q4 -1 6 -2v-518q-2 -1 -6 -2q-8 -2 -19 -2t-19 2q-4 1 -6 2v77q-31 -42 -76 -66.5t-102 -24.5q-72 0 -112 40.5t-40 108.5v383q2 1 6 2q8 2 19 2t19 -2q4 -1 6 -2v-372
q0 -60 30 -88.5t90 -28.5q47 0 91 29.5t69 83.5v376z" />
    <glyph glyph-name="uhungarumlaut" unicode="&#x171;" 
d="M193 608q-21 1 -30 17l98 135q15 1 27.5 -4.5t20.5 -15.5zM336 608q-22 2 -31 17l98 135q14 1 27 -4.5t21 -15.5zM82 522q2 1 6 2q8 2 19 2t19 -2q4 -1 6 -2v-372q0 -60 30 -88.5t90 -28.5q47 0 91 29.5t69 83.5v376q2 1 6 2q8 2 19 2t19 -2q4 -1 6 -2v-518q-2 -1 -6 -2
q-8 -2 -19 -2t-19 2q-4 1 -6 2v77q-31 -42 -76 -66.5t-102 -24.5q-72 0 -112 40.5t-40 108.5v383z" />
    <glyph glyph-name="umacron" unicode="&#x16b;" 
d="M387 699q4 -8 3.5 -18.5t-3.5 -18.5h-225q-6 19 0 37h225zM412 522q2 1 6 2q8 2 19 2t19 -2q4 -1 6 -2v-518q-2 -1 -6 -2q-8 -2 -19 -2t-19 2q-4 1 -6 2v77q-31 -42 -76 -66.5t-102 -24.5q-72 0 -112 40.5t-40 108.5v383q2 1 6 2q8 2 19 2t19 -2q4 -1 6 -2v-372
q0 -60 30 -88.5t90 -28.5q47 0 91 29.5t69 83.5v376z" />
    <glyph glyph-name="underscore" unicode="_" horiz-adv-x="535" 
d="M64 -59q-1 1 -2 4q-2 6 -2 16q0 9 2 15q1 3 2 4h408q1 -1 2 -4q2 -6 2 -15q0 -10 -2 -16q-1 -3 -2 -4h-408z" />
    <glyph glyph-name="uni00AD" unicode="&#xad;" horiz-adv-x="270" 
 />
    <glyph glyph-name="Tcommaaccent" unicode="&#x162;" horiz-adv-x="533" 
d="M498 720q1 -2 2 -6q2 -8 2 -17t-2 -17q-1 -4 -2 -6h-203v-670q-2 -1 -6 -2q-8 -2 -20 -2q-8 0 -12.5 0.5t-7.5 1.5q-4 1 -6 2v670h-208q-1 2 -2 6q-2 8 -2 17t2 17q1 4 2 6h463zM228 -207q8 9 15 22q6 11 11.5 27t7.5 38q-6 0 -10 0.5t-7 1.5q-4 1 -5 2v56l8 2q10 2 24 2
q13 0 23 -2l8 -2v-40q0 -31 -8.5 -53.5t-18.5 -38.5q-11 -18 -26 -31z" />
    <glyph glyph-name="Tcommaaccent" unicode="&#x21a;" horiz-adv-x="533" 
d="M498 720q1 -2 2 -6q2 -8 2 -17t-2 -17q-1 -4 -2 -6h-203v-670q-2 -1 -6 -2q-8 -2 -20 -2q-8 0 -12.5 0.5t-7.5 1.5q-4 1 -6 2v670h-208q-1 2 -2 6q-2 8 -2 17t2 17q1 4 2 6h463zM228 -207q8 9 15 22q6 11 11.5 27t7.5 38q-6 0 -10 0.5t-7 1.5q-4 1 -5 2v56l8 2q10 2 24 2
q13 0 23 -2l8 -2v-40q0 -31 -8.5 -53.5t-18.5 -38.5q-11 -18 -26 -31z" />
    <glyph glyph-name="tcommaaccent" unicode="&#x163;" horiz-adv-x="359" 
d="M165 176q0 -75 23.5 -108.5t87.5 -33.5q11 0 20.5 0.5t17.5 1.5q9 1 16 3q1 -2 2 -6q1 -3 2 -7t1 -9q0 -8 -2 -14q-1 -3 -1 -5q-4 -1 -22.5 -4.5t-45.5 -3.5q-43 0 -71.5 12.5t-46 36t-24.5 58t-7 78.5v309h-80q-1 2 -2 5q-2 6 -2 16t2 16q1 3 2 5h80v99q10 7 23 10.5
t27 1.5v-111h153q1 -2 2 -5t2 -7t1 -9t-1 -9.5t-2 -6.5q-1 -4 -2 -5h-153v-308zM177 -227q8 9 15 22q6 11 11.5 27t7.5 38q-6 0 -10 0.5t-7 1.5q-4 1 -6 2v56l8 2q10 2 24 2t24 -2l8 -2v-41q0 -30 -8.5 -53t-18.5 -38q-12 -18 -27 -31z" />
    <glyph glyph-name="tcommaaccent" unicode="&#x21b;" horiz-adv-x="359" 
d="M165 176q0 -75 23.5 -108.5t87.5 -33.5q11 0 20.5 0.5t17.5 1.5q9 1 16 3q1 -2 2 -6q1 -3 2 -7t1 -9q0 -8 -2 -14q-1 -3 -1 -5q-4 -1 -22.5 -4.5t-45.5 -3.5q-43 0 -71.5 12.5t-46 36t-24.5 58t-7 78.5v309h-80q-1 2 -2 5q-2 6 -2 16t2 16q1 3 2 5h80v99q10 7 23 10.5
t27 1.5v-111h153q1 -2 2 -5t2 -7t1 -9t-1 -9.5t-2 -6.5q-1 -4 -2 -5h-153v-308zM177 -227q8 9 15 22q6 11 11.5 27t7.5 38q-6 0 -10 0.5t-7 1.5q-4 1 -6 2v56l8 2q10 2 24 2t24 -2l8 -2v-41q0 -30 -8.5 -53t-18.5 -38q-12 -18 -27 -31z" />
    <glyph glyph-name="uni0401" unicode="&#x401;" horiz-adv-x="556" 
d="M201 857q3 1 7 2q10 2 23 2q8 0 13 -0.5t9 -1.5l8 -2v-53l-8 -2t-9 -1.5t-13 -0.5q-13 0 -23 2q-4 1 -7 2v53zM350 857q3 1 7 2q10 2 23 2q8 0 13 -0.5t9 -1.5l8 -2v-53l-8 -2t-9 -1.5t-13 -0.5q-13 0 -23 2q-4 1 -7 2v53zM493 720q2 -5 3 -10t1 -12q0 -8 -1 -13.5
t-3 -10.5h-339v-286h289q2 -5 3 -10.5t1 -11.5q0 -7 -1 -12.5t-3 -10.5h-289v-297h349q2 -5 3 -10.5t1 -11.5q0 -7 -1 -13t-3 -11h-401v720h391z" />
    <glyph glyph-name="uni0410" unicode="&#x410;" horiz-adv-x="642" 
d="M295 716q3 1 7 2q8 2 19 2t19 -2q4 -1 7 -2l275 -712q-3 -1 -7 -2q-10 -2 -21 -2q-7 0 -11.5 0.5t-8.5 1.5t-7 2l-79 204h-337l-80 -204q-2 -1 -6 -2q-8 -2 -21 -2q-7 0 -11 0.5t-7 1.5q-4 1 -6 2zM319 653q-1 -6 -4 -14l-5 -17t-7 -21l-136 -347h304l-134 347
q-5 12 -8 21.5t-5 16.5q-3 8 -3 14h-2z" />
    <glyph glyph-name="uni0411" unicode="&#x411;" horiz-adv-x="611" 
d="M485 720q1 -2 2 -6q1 -3 2 -8t1 -10t-1 -9.5t-2 -7.5q-1 -4 -2 -6h-331v-268h203q46 0 83.5 -14.5t64 -40.5t40.5 -63t14 -83t-14 -83.5t-40.5 -64.5t-64 -41.5t-83.5 -14.5h-255v720h383zM154 44h195q76 0 116 43.5t40 115.5q0 73 -40 115.5t-116 42.5h-195v-317z" />
    <glyph glyph-name="uni0412" unicode="&#x412;" horiz-adv-x="626" 
d="M344 720q54 0 91 -15.5t60 -41.5t33 -60t10 -72q0 -45 -12 -75t-27.5 -49t-30.5 -28.5t-21 -12.5q5 -2 23.5 -10t38.5 -26.5t36 -51.5t16 -85q0 -43 -12.5 -78.5t-38.5 -61t-66 -39.5t-96 -14h-246v720h242zM334 386q41 0 69.5 10.5t46.5 29.5t26 45.5t8 59.5t-7.5 59.5
t-25.5 45t-47 29t-72 10.5h-178v-289h180zM342 45q91 0 127.5 39t36.5 109q0 77 -39.5 113t-125.5 36h-187v-297h188z" />
    <glyph glyph-name="uni0413" unicode="&#x413;" horiz-adv-x="496" 
d="M466 720q1 -2 2 -6q2 -8 2 -17t-2 -17q-1 -4 -2 -7h-312v-669q-3 -1 -7 -2q-8 -2 -19 -2t-19 2q-4 1 -7 2v716h364z" />
    <glyph glyph-name="uni0414" unicode="&#x414;" horiz-adv-x="676" 
d="M629 46v-184q-2 -1 -8.5 -2.5t-15.5 -1.5q-10 0 -16 1.5t-9 2.5v138h-511v-138q-3 -1 -9 -2.5t-16 -1.5q-9 0 -15.5 1.5t-8.5 2.5v184h61q35 45 53.5 125t27.5 196l27 353h362v-674h78zM212 361q-8 -107 -25.5 -188.5t-46.5 -126.5h359v631h-264z" />
    <glyph glyph-name="uni0415" unicode="&#x415;" horiz-adv-x="556" 
d="M493 720q2 -5 3 -10t1 -12q0 -15 -4 -24h-339v-286h289q2 -5 3 -10.5t1 -11.5q0 -14 -4 -23h-289v-297h349q2 -5 3 -10.5t1 -11.5q0 -15 -4 -24h-401v720h391z" />
    <glyph glyph-name="uni0416" unicode="&#x416;" horiz-adv-x="943" 
d="M835 716q2 1 9.5 2.5t18.5 1.5t18 -1.5t9 -2.5l-213 -334l244 -378l-8 -2q-10 -2 -23 -2q-8 0 -13.5 0.5t-10.5 1.5t-9 2l-224 347h-135v-347q-2 -1 -6 -2q-8 -2 -20 -2q-11 0 -19 2q-4 1 -7 2v347h-140l-223 -347l-8 -2q-10 -2 -23 -2q-8 0 -13 0.5t-9 1.5t-7 2l242 376
l-213 336q3 1 10 2.5t18 1.5t18.5 -1.5t9.5 -2.5l203 -320h135v320q3 1 7 2q8 2 19 2t19 -2q4 -1 7 -2v-320h133l204 320v0z" />
    <glyph glyph-name="uni0417" unicode="&#x417;" horiz-adv-x="546" 
d="M55 697q22 9 50 16q24 6 57 11.5t73 5.5q112 0 167.5 -51t55.5 -135q0 -47 -13.5 -79t-32.5 -52t-38 -29.5t-29 -12.5v-2q12 -3 34.5 -13t44.5 -31t38.5 -55t16.5 -86q0 -40 -13.5 -75.5t-43.5 -61.5t-78.5 -41.5t-118.5 -15.5q-42 0 -76 4.5t-57 10.5q-27 6 -48 15
q-1 11 3.5 23t12.5 18q24 -8 63.5 -16t95.5 -8t95.5 11t64 31t35.5 47.5t11 59.5q0 51 -18 82t-47.5 48t-65.5 23t-72 6h-54q-5 11 -5 23.5t5 22.5h54q32 0 64.5 5.5t58.5 22t42.5 45.5t16.5 77q0 66 -43.5 104t-130.5 38q-34 0 -62.5 -4t-49.5 -9q-25 -6 -45 -13
q-11 7 -15.5 17.5t-2.5 22.5z" />
    <glyph glyph-name="uni0418" unicode="&#x418;" horiz-adv-x="686" 
d="M524 716q3 1 7 2t9.5 1.5t13.5 0.5q13 0 23 -2q4 -1 7 -2v-712q-2 -1 -6 -2q-8 -2 -20 -2q-8 0 -12.5 0.5t-7.5 1.5q-4 1 -6 2v484q0 46 0.5 76.5t1.5 49.5q1 22 3 35h-3q-4 -11 -12 -28l-18 -36.5t-28 -51.5l-312 -529q-1 0 -9 -2t-23 -2q-8 0 -13.5 0.5t-9.5 1.5t-7 2
v712q3 1 7 2q8 2 19 2q7 0 11.5 -0.5t8.5 -1.5t7 -2v-490q0 -35 -1 -63.5t-2 -49.5q-1 -25 -2 -44h2q3 10 20 45.5t42 78.5l310 523v0z" />
    <glyph glyph-name="uni0419" unicode="&#x419;" horiz-adv-x="686" 
d="M355 868q26 0 47.5 5.5t38.5 13.5q19 9 36 20q19 -7 25 -29q-17 -16 -39 -28q-19 -11 -46 -19t-62 -8t-62 8t-47 19q-23 12 -40 28q8 21 26 29q17 -11 36 -20q17 -8 39 -13.5t48 -5.5zM524 716q3 1 7 2t9.5 1.5t13.5 0.5q13 0 23 -2q4 -1 7 -2v-712q-2 -1 -6 -2
q-8 -2 -20 -2q-8 0 -12.5 0.5t-7.5 1.5q-4 1 -6 2v484q0 46 0.5 76.5t1.5 49.5q1 22 3 35h-3q-4 -11 -12 -28l-18 -36.5t-28 -51.5l-312 -529q-1 0 -9 -2t-23 -2q-8 0 -13.5 0.5t-9.5 1.5t-7 2v712q3 1 7 2q8 2 19 2q7 0 11.5 -0.5t8.5 -1.5t7 -2v-490q0 -35 -1 -63.5
t-2 -49.5q-1 -25 -2 -44h2q3 10 20 45.5t42 78.5z" />
    <glyph glyph-name="uni041A" unicode="&#x41a;" horiz-adv-x="610" 
d="M503 716q2 1 9.5 2.5t18.5 1.5t18 -1.5t10 -2.5l-236 -337l265 -375l-8 -2t-9 -1.5t-13 -0.5q-14 0 -24 2q-5 1 -8 2l-246 347h-126v-347q-2 -1 -6 -2q-8 -2 -20 -2q-11 0 -19 2q-4 1 -7 2v712q3 1 7 2q8 2 20 2q11 0 19 -2q4 -1 6 -2v-319h125z" />
    <glyph glyph-name="uni041B" unicode="&#x41b;" horiz-adv-x="657" 
d="M56 -6q-8 0 -17 2t-16 4q-1 2 -2.5 7t-1.5 13t1.5 13.5t2.5 7.5q5 0 11 -0.5t13 -0.5q15 0 33 8t35.5 42.5t33 106t25.5 198.5l25 325h356v-716q-3 -1 -7 -2q-8 -2 -19 -2q-14 0 -20.5 2t-5.5 2v671h-258l-21 -282q-11 -138 -29.5 -218t-41.5 -120t-48.5 -50.5
t-48.5 -10.5z" />
    <glyph glyph-name="uni041C" unicode="&#x41c;" horiz-adv-x="842" 
d="M671 716q4 1 12 2.5t22 1.5q8 0 14.5 -0.5t11.5 -1.5t9 -2v-712q-2 -1 -6 -2q-8 -2 -20 -2t-20 2q-4 1 -6 2v507q0 57 1.5 96.5t3.5 51.5h-3q-2 -9 -15.5 -38t-35.5 -67l-205 -356l-6 -2q-3 -1 -6 -1.5t-8 -0.5q-9 0 -15 2q-4 1 -5 2l-197 355q-20 36 -34 66.5t-16 39.5
h-3q2 -11 4.5 -51t2.5 -101v-503q-2 -1 -6 -2q-8 -2 -18 -2q-11 0 -19 2q-4 1 -6 2v712q4 1 9 2t10.5 1.5t13.5 0.5q7 0 13 -0.5t11 -1.5t9 -2l206 -372q17 -31 27 -52t13 -29h2q2 4 9.5 20.5t22.5 42.5l111.5 194.5z" />
    <glyph glyph-name="uni041D" unicode="&#x41d;" horiz-adv-x="676" 
d="M522 716q3 1 7 2q8 2 19 2t19 -2q4 -1 7 -2v-712q-2 -1 -6 -2q-8 -2 -20 -2q-13 0 -21 2q-4 1 -5 2v341h-368v-341q-3 -1 -7 -2q-8 -2 -19 -2q-8 0 -12.5 0.5t-7.5 1.5q-4 1 -6 2v712q3 1 7 2q8 2 19 2t19 -2q4 -1 7 -2v-323h368v323z" />
    <glyph glyph-name="uni041E" unicode="&#x41e;" horiz-adv-x="680" 
d="M70 360q0 97 18.5 167t53.5 115t85 66.5t113 21.5t113 -21.5t85 -66.5t53.5 -115t18.5 -167t-18.5 -167t-53.5 -115t-85 -66.5t-113 -21.5t-113 21.5t-85 66.5t-53.5 115t-18.5 167zM554 360q0 90 -15 152t-43 100.5t-67.5 55.5t-88.5 17t-88.5 -17t-67.5 -55.5
t-43 -100.5t-15 -152q0 -89 15 -151t43 -100.5t67.5 -56t88.5 -17.5t88.5 17.5t67.5 56t43 100.5t15 151z" />
    <glyph glyph-name="uni041F" unicode="&#x41f;" horiz-adv-x="664" 
d="M562 4q-3 -1 -7 -2q-8 -2 -18 -2q-13 0 -21 2q-4 1 -6 2v669h-355v-669q-3 -1 -7 -2q-10 -2 -20 -2q-11 0 -19 2q-4 1 -7 2v716h460v-716z" />
    <glyph glyph-name="uni0420" unicode="&#x420;" horiz-adv-x="599" 
d="M154 4q-2 -1 -6 -2q-8 -2 -19 -2q-13 0 -21 2q-4 1 -6 2v716h247q47 0 84.5 -15t63 -43t39 -66.5t13.5 -85.5t-13.5 -85t-39 -66t-63 -43t-84.5 -15h-195v-297zM347 348q71 0 109 43t38 118q0 78 -38 121.5t-109 43.5h-193v-326h193z" />
    <glyph glyph-name="uni0421" unicode="&#x421;" horiz-adv-x="558" 
d="M70 360q0 370 270 370q41 0 72 -5.5t52 -11.5q25 -7 43 -16q0 -23 -17 -40q-18 7 -40 13q-19 5 -45 9.5t-58 4.5q-50 0 -91 -15.5t-70 -53t-45 -100t-16 -156.5t16 -156t45 -99t70 -52t91 -15q35 0 63.5 4t48.5 9q24 6 42 14q15 -14 17 -41q-19 -10 -45 -17
q-23 -6 -55.5 -11t-77.5 -5q-136 0 -203 91t-67 279z" />
    <glyph glyph-name="uni0422" unicode="&#x422;" horiz-adv-x="533" 
d="M498 720q1 -2 2 -6q2 -8 2 -17t-2 -17q-1 -4 -2 -6h-203v-670q-2 -1 -6 -2q-8 -2 -20 -2q-8 0 -12.5 0.5t-7.5 1.5q-4 1 -6 2v670h-208q-1 2 -2 6q-2 8 -2 17t2 17q1 4 2 6h463z" />
    <glyph glyph-name="uni0423" unicode="&#x423;" horiz-adv-x="607" 
d="M529 716q2 1 6 2q8 2 20 2q7 0 11.5 -0.5t8.5 -1.5t7 -2l-204 -523q-25 -63 -48 -101.5t-47 -58.5t-48.5 -26.5t-52.5 -6.5q-26 0 -39 3q-8 2 -15 4q-4 8 -4 23t4 21l14 -2q6 -1 13 -1.5t14 -0.5q20 0 38 2.5t34.5 13t32.5 32t33 58.5h-13l-270 563q3 1 7 2t9 1.5t13 0.5
t13 -0.5t9 -1.5t7 -2l221 -460l14 -34l9 -22h2q3 7 8.5 22.5l13.5 36.5l179 457v0z" />
    <glyph glyph-name="uni0424" unicode="&#x424;" horiz-adv-x="792" 
d="M369 726q3 1 7 2q8 2 19 2t19 -2q4 -1 7 -2v-77q66 0 124 -12.5t101 -43.5t68 -84t25 -133t-25 -133t-68 -84.5t-101 -44t-124 -12.5v-98q-3 -1 -7 -2t-8.5 -1.5t-10.5 -0.5q-12 0 -20 2q-4 1 -6 2v98q-66 0 -124 12.5t-100.5 44t-67 84.5t-24.5 133t24.5 133t67 84
t100.5 43.5t124 12.5v77zM369 606q-57 0 -105 -10t-83 -36t-54.5 -70.5t-19.5 -113.5t19.5 -113.5t54.5 -70.5t83 -36t105 -10v460zM421 146q57 0 105.5 10t83.5 36t54.5 70.5t19.5 113.5t-19.5 113.5t-54.5 70.5t-83.5 36t-105.5 10v-460z" />
    <glyph glyph-name="uni0425" unicode="&#x425;" horiz-adv-x="599" 
d="M498 716q3 1 10.5 2.5t19.5 1.5t19.5 -1.5t10.5 -2.5l-225 -344l236 -367q-4 -2 -8 -3q-10 -2 -24 -2q-8 0 -13.5 0.5t-9.5 1.5l-8 2l-211 328l-205 -328q-3 -1 -11 -2.5t-19 -1.5q-12 0 -19.5 1.5t-10.5 2.5l230 366l-220 346l8 2q10 2 24 2q12 0 22 -2l8 -2l196 -308
l200 308v0z" />
    <glyph glyph-name="uni0426" unicode="&#x426;" horiz-adv-x="695" 
d="M102 716q2 1 6 2q8 2 20 2q11 0 19 -2q4 -1 7 -2v-669h364v669q2 1 6 2q8 2 20 2q11 0 19 -2q4 -1 7 -2v-669h77v-185q-9 -4 -25 -4q-15 0 -24 4v138h-496v716z" />
    <glyph glyph-name="uni0427" unicode="&#x427;" horiz-adv-x="631" 
d="M477 716q3 1 7 2q8 2 19 2t19 -2q4 -1 7 -2v-712q-3 -1 -7 -2q-8 -2 -19 -2q-12 0 -20 2q-4 1 -6 2v332q-2 -1 -17.5 -6.5t-41.5 -12t-61 -12t-76 -5.5q-50 0 -90 10.5t-69 37t-44.5 70.5t-15.5 111v187q2 1 6 2q8 2 19 2q7 0 11.5 -0.5t8.5 -1.5t7 -2v-187
q0 -52 10.5 -87t32.5 -56t55.5 -30t79.5 -9q39 0 72 5.5t57.5 12.5t39 13t16.5 7v331z" />
    <glyph glyph-name="uni0428" unicode="&#x428;" horiz-adv-x="955" 
d="M102 716q2 1 6 2q8 2 20 2t20 -2q4 -1 6 -2v-669h297v669q2 1 6 2q3 1 8 1.5t13 0.5q12 0 20 -2q4 -1 6 -2v-669h297v669q2 1 6 2q3 1 7.5 1.5t12.5 0.5q12 0 20 -2q4 -1 6 -2v-716h-751v716z" />
    <glyph glyph-name="uni0429" unicode="&#x429;" horiz-adv-x="978" 
d="M102 716q2 1 6 2q8 2 20 2q11 0 19 -2q4 -1 7 -2v-669h297v669q3 1 7 2q8 2 20 2q11 0 19 -2q4 -1 7 -2v-669h297v669q2 1 6 2q8 2 20 2q11 0 19 -2q4 -1 7 -2v-669h77v-185q-9 -4 -24 -4q-14 0 -25 4v138h-779v716z" />
    <glyph glyph-name="uni042A" unicode="&#x42a;" horiz-adv-x="693" 
d="M439 406q47 0 84.5 -14.5t64 -40.5t41 -63t14.5 -83t-14.5 -84t-41 -65t-64 -41.5t-84.5 -14.5h-254v673h-154q-1 2 -2 6q-2 8 -2 17q0 10 2 18q1 4 2 6h206v-314h202zM237 46h196q75 0 115 43t40 115t-40 114t-115 42h-196v-314z" />
    <glyph glyph-name="uni042B" unicode="&#x42b;" horiz-adv-x="859" 
d="M102 716q2 1 6 2q8 2 21 2q11 0 19 -2q4 -1 6 -2v-310h202q47 0 84.5 -14.5t64 -40.5t41 -63t14.5 -83t-14.5 -84t-41 -65t-64 -41.5t-84.5 -14.5h-254v716zM705 716q2 1 6 2q8 2 20 2t20 -2q4 -1 6 -2v-712q-2 -1 -6 -2q-8 -2 -20 -2t-20 2q-4 1 -6 2v712zM154 46h196
q75 0 115 43t40 115t-40 114t-115 42h-196v-314z" />
    <glyph glyph-name="uni042C" unicode="&#x42c;" horiz-adv-x="610" 
d="M356 406q47 0 84.5 -14.5t64 -40.5t41 -63t14.5 -83t-14.5 -84t-41 -65t-64 -41.5t-84.5 -14.5h-254v716q2 1 6 2q8 2 21 2q11 0 19 -2q4 -1 6 -2v-310h202zM350 46q75 0 115 43t40 115t-40 114t-115 42h-196v-314h196z" />
    <glyph glyph-name="uni042D" unicode="&#x42d;" horiz-adv-x="581" 
d="M54 697q20 9 46 16q23 6 55.5 11.5t75.5 5.5q280 0 280 -370q0 -188 -70 -279t-210 -91q-47 0 -81.5 5t-58.5 11q-28 7 -48 17q2 26 17 40q19 -8 45 -13q22 -5 52 -9t67 -4q51 0 93 14.5t72.5 49.5t47.5 94t19 148h-285q-1 2 -2 6q-2 8 -2 17t2 17q1 4 2 6h284
q-3 85 -20.5 141.5t-48 90.5t-72 48.5t-90.5 14.5q-34 0 -62 -4t-48 -9q-24 -6 -43 -13q-17 15 -17 39z" />
    <glyph glyph-name="uni042E" unicode="&#x42e;" horiz-adv-x="948" 
d="M102 716q3 1 7 2q8 2 19 2q7 0 11.5 -0.5t8.5 -1.5t7 -2v-333h184q4 181 75 264t194 83q63 0 113.5 -21.5t85 -66.5t53 -115t18.5 -167t-18.5 -167t-53 -115t-85 -66.5t-113.5 -21.5q-62 0 -111 20t-83.5 62.5t-53.5 108t-21 156.5h-184v-333q-3 -1 -7 -2t-8.5 -1.5
t-10.5 -0.5q-12 0 -20 2q-4 1 -7 2v712zM608 685q-50 0 -89.5 -17t-67 -55.5t-42.5 -100.5t-15 -152q0 -89 15 -151t42.5 -100.5t67 -56t89.5 -17.5t89.5 17.5t67.5 56t42.5 100.5t14.5 151q0 90 -14.5 152t-42.5 100.5t-67.5 55.5t-89.5 17z" />
    <glyph glyph-name="uni042F" unicode="&#x42f;" horiz-adv-x="621" 
d="M519 4q-2 -1 -6 -2q-8 -2 -21 -2q-12 0 -20 2q-4 1 -6 2v307h-189l-165 -307l-8 -2q-10 -2 -23 -2q-8 0 -13 0.5t-9 1.5t-7 2l168 313q-71 15 -109.5 67.5t-38.5 131.5q0 46 13.5 83.5t39.5 64.5t63 41.5t84 14.5h247v-716zM274 674q-69 0 -108 -41.5t-39 -116.5
t39 -116.5t108 -41.5h192v316h-192z" />
    <glyph glyph-name="uni0430" unicode="&#x430;" horiz-adv-x="512" 
d="M90 505q24 8 50 15q23 6 52.5 11t63.5 5q54 0 87.5 -13.5t53 -40t26.5 -65t7 -89.5v-324q-2 -1 -5 -2q-6 -2 -15 -2q-5 0 -8.5 0.5t-6.5 1.5q-4 1 -6 2l-8 84q-23 -48 -68 -73t-108 -25q-69 0 -112 40t-43 115q0 74 45.5 114t140.5 40q49 0 88 -3.5t56 -5.5v68
q0 72 -32 103t-98 31q-29 0 -55 -4t-46 -9q-23 -6 -43 -13q-2 2 -6 5.5t-7 10.5q-3 8 -3.5 14t0.5 9zM380 251q-17 2 -55.5 5.5t-80.5 3.5q-72 0 -106.5 -28t-34.5 -87q0 -58 31 -85t84 -27q36 0 65.5 12.5t51 35t33.5 55t12 71.5v44z" />
    <glyph glyph-name="uni0431" unicode="&#x431;" horiz-adv-x="569" 
d="M76 351q0 112 18 178t56 104t96.5 56t139.5 33l23 5t15.5 6t11.5 9.5t11 14.5q12 -1 22 -5.5t15 -12.5q-4 -14 -10 -24t-16 -17.5t-24.5 -12.5t-36.5 -9q-71 -14 -122 -28t-84.5 -41t-51 -74t-21.5 -126h4q18 45 62 76t120 31q93 0 148 -62t55 -200t-55.5 -200
t-155.5 -62q-48 0 -88 13.5t-69.5 52.5t-46 110t-16.5 185zM296 472q-33 0 -62 -9.5t-50.5 -34.5t-34 -67.5t-12.5 -108.5q0 -65 12 -107t33.5 -67.5t50.5 -35.5t63 -10t63 10t50.5 35.5t33.5 67.5t12 107q0 64 -12 106.5t-33.5 68t-50.5 35.5t-63 10z" />
    <glyph glyph-name="uni0432" unicode="&#x432;" horiz-adv-x="514" 
d="M290 526q67 0 106 -34.5t39 -101.5q0 -44 -18.5 -74t-50.5 -45q45 -14 67 -48t22 -82q0 -69 -41 -105t-116 -36h-212v526h204zM280 287q51 0 78 26t27 74q0 49 -27 73t-78 24h-144v-197h144zM291 42q54 0 82.5 24.5t28.5 75.5q0 48 -27 76t-84 28h-155v-204h155z" />
    <glyph glyph-name="uni0433" unicode="&#x433;" horiz-adv-x="399" 
d="M368 526q1 -2 2 -6q2 -8 2 -16t-2 -16q-1 -4 -2 -6h-232v-478q-1 -1 -5 -2q-8 -2 -20 -2q-11 0 -19 2q-4 1 -6 2v522h282z" />
    <glyph glyph-name="uni0434" unicode="&#x434;" horiz-adv-x="566" 
d="M70 42q10 12 18.5 29.5t16 46t13.5 70t11 100.5l19 238h312v-484h63v-166q-2 -1 -7.5 -2.5t-14.5 -1.5q-10 0 -16 1.5t-9 2.5v124h-403v-124q-2 -1 -7.5 -2.5t-16.5 -1.5q-10 0 -15.5 1.5t-7.5 2.5v166h44zM176 284q-4 -51 -9 -89t-11 -66.5t-13.5 -49.5t-15.5 -37h283
v441h-219z" />
    <glyph glyph-name="uni0435" unicode="&#x435;" horiz-adv-x="509" 
d="M113 247q5 -114 46 -162t122 -48q29 0 52.5 5.5t40.5 12.5q19 8 33 19q9 -6 14 -16.5t7 -22.5q-16 -13 -40 -23q-20 -8 -50 -15t-69 -7q-103 0 -155.5 69.5t-52.5 206.5q0 71 15 122t43 84t66 48.5t85 15.5q90 0 137 -52t47 -136q0 -23 -2 -42t-4 -32l-5 -27h-330z
M402 354q0 28 -7.5 53t-23 44t-40.5 30.5t-61 11.5q-69 0 -111 -48.5t-46 -156.5h284q0 2 2.5 19t2.5 47z" />
    <glyph glyph-name="uni0436" unicode="&#x436;" horiz-adv-x="771" 
d="M668 522q3 1 7 2q10 2 23 2q11 0 19 -2q4 -1 6 -2l-155 -244l180 -273q-3 -2 -7 -3q-10 -2 -23 -2q-8 0 -13 0.5t-9 1.5t-7 3l-165 249h-113v-250q-2 -1 -6 -2q-8 -2 -19 -2t-19 2q-4 1 -6 2v250h-113l-165 -249q-4 -2 -8 -3q-10 -2 -22 -2q-8 0 -13 0.5t-9 1.5t-7 3
l180 273l-156 244q2 1 6 2q8 2 21 2q12 0 22 -2q4 -1 7 -2l144 -226h113v226q2 1 6 2q8 2 19 2q10 0 18 -2q4 -1 7 -2v-226h113l144 226v0z" />
    <glyph glyph-name="uni0437" unicode="&#x437;" horiz-adv-x="453" 
d="M56 512q15 7 37 12q19 5 46 8.5t64 3.5q47 0 80.5 -10t54.5 -28.5t31 -45t10 -58.5q0 -45 -18 -77.5t-60 -47.5v-1q46 -15 69 -48.5t23 -78.5q0 -32 -9.5 -59.5t-32.5 -48t-63 -32t-100 -11.5q-36 0 -63 4t-46 9q-22 6 -38 14q0 24 15 38q15 -7 35 -11q17 -4 41 -7t54 -3
q84 0 119.5 28.5t35.5 81.5q0 52 -38.5 77t-107.5 25h-57q-2 2 -3 6q-2 8 -2 16q0 7 2 15q1 4 3 6h57q29 0 53 5t41.5 16.5t27.5 30.5t10 48q0 53 -31.5 78.5t-104.5 25.5q-28 0 -50 -3t-38 -7q-18 -4 -33 -9q-8 6 -11.5 16.5t-2.5 21.5z" />
    <glyph glyph-name="uni0438" unicode="&#x438;" horiz-adv-x="577" 
d="M436 522q2 1 6 2q8 2 21 2q8 0 12.5 -0.5t8.5 -1.5t7 -2v-518q-3 -1 -7 -2q-8 -2 -18 -2q-11 0 -19 2q-4 1 -7 2v348q0 49 1 78t2 29h-3q1 0 -3.5 -8.5t-12.5 -22l-18.5 -30l-21.5 -33.5l-243 -361q-3 -1 -7 -2q-10 -2 -21 -2q-12 0 -20 2q-4 1 -7 2v518q2 1 6 2
q8 2 19 2t19 -2q4 -1 6 -2v-353q0 -22 -0.5 -40t-1.5 -32q-1 -16 -1 -30h2l11 21q11 21 32 52z" />
    <glyph glyph-name="uni0439" unicode="&#x439;" horiz-adv-x="577" 
d="M289 671q25 0 46 6t35 14q17 9 30 20q19 -6 24 -27q-15 -16 -34 -28q-17 -11 -42 -19.5t-59 -8.5t-59 8.5t-42 19.5q-20 12 -34 28q6 20 24 27q13 -11 30 -20q14 -8 34.5 -14t46.5 -6zM436 522q2 1 6 2q8 2 21 2q8 0 12.5 -0.5t8.5 -1.5t7 -2v-518q-3 -1 -7 -2
q-8 -2 -18 -2q-11 0 -19 2q-4 1 -7 2v348q0 48 1 77t2 30h-3q-6 -12 -13 -24q-6 -11 -14.5 -25t-18.5 -29l-253 -377q-3 -1 -7 -2q-10 -2 -21 -2q-12 0 -20 2q-4 1 -7 2v518q2 1 6 2q8 2 19 2t19 -2q4 -1 6 -2v-353q0 -22 -0.5 -40t-1.5 -32q-1 -16 -1 -30h2l11 21
q11 21 32 52z" />
    <glyph glyph-name="uni043A" unicode="&#x43a;" horiz-adv-x="498" 
d="M396 522l8 2t9 1.5t13 0.5q12 0 20 -2q4 -1 6 -1l-168 -245l192 -273q-4 -2 -8 -3q-10 -2 -23 -2q-8 0 -13 0.5t-9 1.5t-8 3l-175 249h-104v-250q-2 -1 -6 -2q-8 -2 -19 -2t-19 2q-4 1 -6 2v518q2 1 6 2q8 2 19 2t19 -2q4 -1 6 -2v-226h104z" />
    <glyph glyph-name="uni043B" unicode="&#x43b;" horiz-adv-x="551" 
d="M188 290q-9 -99 -22 -158t-29.5 -89.5t-36.5 -39.5t-42 -9q-7 0 -12 0.5t-10 1.5t-10 3q-1 1 -2 4q-2 6 -2 14q0 5 0.5 8t1.5 6l2 6q4 -1 8 -1t8.5 -0.5t10.5 0.5q16 0 30 14t25 45t19.5 79.5t13.5 119.5l18 232h306v-522q-3 -1 -7 -2q-8 -2 -18 -2q-11 0 -19 2
q-4 1 -6 2v479h-212l-15 -193v0z" />
    <glyph glyph-name="uni043C" unicode="&#x43c;" horiz-adv-x="671" 
d="M529 522l8 2t8.5 1.5t11.5 0.5q10 0 20 -2l8 -2v-518q-2 -1 -6 -2q-8 -2 -18 -2q-11 0 -19 2q-4 1 -6 2v357q0 36 1.5 60t2.5 35h-2q-5 -10 -13.5 -28.5t-24.5 -45.5l-155 -255q-1 -1 -4 -2t-11 -1t-11 1t-4 2l-146 250q-16 28 -25 48t-13 30h-3q2 -10 4 -34.5t2 -59.5
v-357q-2 -1 -6 -2q-8 -2 -18 -2t-18 2q-4 1 -6 2v518q3 1 7 2t8.5 1.5t11.5 0.5q11 0 21 -2q4 -1 7 -2l158 -274q9 -16 16.5 -31l14.5 -29h2l14.5 28.5l16.5 31.5l166 274v0z" />
    <glyph glyph-name="uni043D" unicode="&#x43d;" horiz-adv-x="560" 
d="M136 4q-2 -1 -6 -2q-8 -2 -19 -2t-19 2q-4 1 -6 2v518q2 1 6 2q8 2 19 2t19 -2q4 -1 6 -2v-229h288v229q2 1 6 2q8 2 19 2t19 -2q4 -1 6 -2v-518q-2 -1 -6 -2q-8 -2 -19 -2t-19 2q-4 1 -6 2v245h-288v-245z" />
    <glyph glyph-name="uni043E" unicode="&#x43e;" horiz-adv-x="540" 
d="M62 263q0 74 14 126t41 84.5t65.5 47.5t87.5 15t87.5 -15t65.5 -47.5t41 -84.5t14 -126t-14 -126t-41 -84.5t-65.5 -47.5t-87.5 -15t-87.5 15t-65.5 47.5t-41 84.5t-14 126zM426 263q0 66 -11 110.5t-31 71.5t-49 38t-65 11t-65 -11t-49 -38t-31 -71.5t-11 -110.5
t11 -110.5t31 -71.5t49 -38t65 -11t65 11t49 38t31 71.5t11 110.5z" />
    <glyph glyph-name="uni043F" unicode="&#x43f;" horiz-adv-x="549" 
d="M136 4q-2 -1 -6 -2q-8 -2 -19 -2t-19 2q-4 1 -6 2v522h377v-522q-2 -1 -6 -2q-8 -2 -18 -2q-12 0 -20 2q-4 1 -6 2v478h-277v-478z" />
    <glyph glyph-name="uni0440" unicode="&#x440;" horiz-adv-x="554" 
d="M136 448q23 41 61.5 64.5t99.5 23.5q45 0 81 -14t61.5 -46t39 -84.5t13.5 -128.5q0 -77 -13.5 -129t-39 -84t-61.5 -46t-81 -14q-61 0 -99.5 23.5t-61.5 64.5v-319q-2 -1 -6 -2q-8 -2 -19 -2t-19 2q-4 1 -6 2v763q2 1 6 2q8 2 19 2t19 -2q4 -1 6 -2v-74zM439 263
q0 62 -9 105.5t-28 71t-48.5 40t-71.5 12.5q-36 0 -63 -14.5t-45 -37.5t-27.5 -51.5t-10.5 -57.5v-131q0 -30 9.5 -59.5t27.5 -53t45.5 -38.5t63.5 -15q42 0 71.5 12.5t48.5 40t28 71t9 105.5z" />
    <glyph glyph-name="uni0441" unicode="&#x441;" horiz-adv-x="444" 
d="M281 491q-88 0 -128 -57t-40 -171q0 -115 42 -170.5t130 -55.5q23 0 41.5 3t31.5 7q15 4 27 11q8 -5 12.5 -16t5.5 -23q-15 -9 -34 -15q-17 -5 -41.5 -9.5t-56.5 -4.5q-102 0 -156 69.5t-54 203.5t54 203.5t156 69.5q30 0 53 -3.5t38 -8.5q18 -5 30 -12q0 -11 -4 -21.5
t-13 -17.5q-11 5 -25 9q-12 3 -29.5 6t-39.5 3z" />
    <glyph glyph-name="uni0442" unicode="&#x442;" horiz-adv-x="435" 
d="M404 526q1 -1 2 -5q1 -3 2 -7.5t1 -9.5q0 -6 -1 -10t-2 -7q-1 -4 -2 -6h-161v-477q-2 -1 -6 -2q-8 -2 -19 -2t-19 2q-4 1 -6 2v477h-161q-2 2 -3 6q-1 3 -1.5 7t-0.5 10q0 9 2 17q1 4 3 5h372z" />
    <glyph glyph-name="uni0443" unicode="&#x443;" horiz-adv-x="522" 
d="M266 -113q-11 -32 -23 -57.5t-27.5 -43t-36.5 -27t-49 -9.5q-22 0 -35 3q-8 2 -14 4q-1 2 -2.5 7.5t-1.5 12.5q0 8 1.5 14t3.5 8q5 -2 12 -3q6 -1 13.5 -1.5t17.5 -0.5q15 0 27.5 5t23.5 17t21.5 32t21.5 51l37 102q-5 1 -9 2t-9 3l-209 516q3 1 7 2q10 2 21 2
q7 0 11.5 -0.5t8.5 -1.5t7 -2l152 -373l14.5 -39l11.5 -32l9 -28h4q3 12 8 28q4 14 10 31.5l14 39.5l133 373q2 1 6 2q3 1 7.5 1.5t12.5 0.5q11 0 19 -2q4 -1 7 -2z" />
    <glyph glyph-name="uni0444" unicode="&#x444;" horiz-adv-x="776" 
d="M363 746q2 1 6 2q8 2 19 2t19 -2q4 -1 6 -2v-232q16 6 34 11q16 5 38 8t48 3q100 -2 140 -70.5t40 -202.5q0 -67 -9.5 -118t-30.5 -85.5t-55.5 -52t-84.5 -17.5q-29 0 -50.5 3.5t-37.5 8.5q-18 5 -32 13v-261q-2 -1 -6 -2q-8 -2 -19 -2t-19 2q-4 1 -6 2v261
q-14 -8 -32 -13q-16 -5 -38 -8.5t-50 -3.5q-50 0 -84.5 17.5t-55.5 52t-30.5 85.5t-9.5 118t9.5 118t30.5 85.5t55.5 52t84.5 17.5q26 0 48 -3.5t38 -7.5q18 -5 34 -11v232zM364 470l-8 3.5t-22.5 8t-35 8t-47.5 3.5q-75 0 -105.5 -56t-30.5 -174t30.5 -173.5t105.5 -55.5
q25 0 45.5 4t35.5 9q18 6 32 14v409zM661 263q0 118 -30.5 174t-105.5 56q-27 0 -47.5 -3.5t-35 -8t-22.5 -8l-8 -3.5v-409q14 -8 32 -14q15 -5 35.5 -9t45.5 -4q75 0 105.5 55.5t30.5 173.5z" />
    <glyph glyph-name="uni0445" unicode="&#x445;" horiz-adv-x="489" 
d="M35 522q3 1 7 2t8.5 1.5t12.5 0.5t13 -0.5t9 -1.5l8 -2l154 -218l152 218q2 1 6 2q8 2 21 2q11 0 21 -2q4 -1 7 -2l-179 -255l185 -263q-3 -1 -7 -2q-10 -2 -21 -2q-8 0 -13.5 0.5t-9.5 1.5t-7 2l-161 226l-157 -226q-3 -1 -7 -2t-9 -1.5t-13 -0.5q-11 0 -19 2q-4 1 -7 2
l184 264z" />
    <glyph glyph-name="uni0446" unicode="&#x446;" horiz-adv-x="572" 
d="M415 522q2 1 6 2q8 2 19 2q12 0 20 -2q4 -1 6 -2v-478h63v-168q-2 -1 -7.5 -2.5t-15.5 -1.5t-16 1.5t-8 2.5v124h-396v522q2 1 6 2q8 2 19 2q12 0 20 -2q4 -1 6 -2v-478h278v478v0z" />
    <glyph glyph-name="uni0447" unicode="&#x447;" horiz-adv-x="520" 
d="M434 4q-2 -1 -6 -2q-8 -2 -19 -2t-19 2q-4 1 -6 2v234q-16 -9 -53 -22t-97 -13q-94 0 -136 41.5t-42 118.5v159q2 1 6 2q8 2 19 2t19 -2q4 -1 6 -2v-160q0 -60 31 -88t103 -28q54 0 91 14t53 24v238q2 1 6 2q8 2 19 2t19 -2q4 -1 6 -2v-518z" />
    <glyph glyph-name="uni0448" unicode="&#x448;" horiz-adv-x="790" 
d="M86 522q2 1 6 2q8 2 19 2t19 -2q4 -1 6 -2v-478h233v478q2 1 6 2q8 2 19 2q12 0 20 -2q4 -1 6 -2v-478h234v478q2 1 6 2q8 2 19 2t19 -2q4 -1 6 -2v-522h-618v522z" />
    <glyph glyph-name="uni0449" unicode="&#x449;" horiz-adv-x="810" 
d="M767 -124q-2 -1 -7.5 -2.5t-15.5 -1.5t-16 1.5t-8 2.5v124h-634v522q2 1 6 2q8 2 19 2t19 -2q4 -1 6 -2v-478h233v478q2 1 6 2q8 2 19 2q12 0 20 -2q4 -1 6 -2v-478h234v478q2 1 6 2q8 2 19 2t19 -2q4 -1 6 -2v-478h63v-168z" />
    <glyph glyph-name="uni044A" unicode="&#x44a;" horiz-adv-x="569" 
d="M371 300q72 0 111 -41t39 -109t-39 -109t-111 -41h-219v481h-119q-1 2 -3 7.5t-2 15.5q0 9 2 14.5t3 7.5h169v-226h169zM363 42q54 0 80 28t26 79t-26 80t-80 29h-161v-216h161z" />
    <glyph glyph-name="uni044B" unicode="&#x44b;" horiz-adv-x="712" 
d="M86 522q3 1 9.5 2.5t15.5 1.5q10 0 16.5 -1.5t8.5 -2.5v-222h169q72 0 111 -41t39 -109t-39 -109t-111 -41h-219v522zM575 522q3 1 9 2.5t17 1.5t16.5 -1.5t8.5 -2.5v-518q-3 -1 -9 -2.5t-17 -1.5t-16.5 1.5t-8.5 2.5v518zM136 42h161q54 0 80 28t26 79t-26 80t-80 29
h-161v-216z" />
    <glyph glyph-name="uni044C" unicode="&#x44c;" horiz-adv-x="503" 
d="M305 300q72 0 111 -41t39 -109t-39 -109t-111 -41h-219v522q3 1 9.5 2.5t15.5 1.5q10 0 16.5 -1.5t8.5 -2.5v-222h169zM297 42q54 0 80 28t26 79t-26 80t-80 29h-161v-216h161z" />
    <glyph glyph-name="uni044D" unicode="&#x44d;" horiz-adv-x="453" 
d="M126 245q-1 2 -2.5 7.5t-1.5 13.5t1.5 13.5t2.5 7.5h212q-4 102 -45.5 154t-123.5 52q-23 0 -40.5 -3t-31.5 -6q-16 -4 -28 -8q-15 13 -15 36q14 7 32 12q16 5 39 8.5t54 3.5q103 0 158 -69.5t55 -203.5t-55.5 -203.5t-157.5 -69.5q-32 0 -58 4.5t-43 9.5q-21 6 -36 15
q2 25 17 37q13 -7 30 -11q14 -4 33.5 -7t42.5 -3q168 0 174 210h-213z" />
    <glyph glyph-name="uni044E" unicode="&#x44e;" horiz-adv-x="779" 
d="M294 281q2 69 17 117.5t42 79t65.5 44.5t86.5 14q50 0 89.5 -15t66.5 -47.5t41.5 -84.5t14.5 -126t-14.5 -126t-42 -84.5t-67 -47.5t-88.5 -15q-47 0 -85 13.5t-65 43t-42.5 76.5t-18.5 114h-158v-233q-2 -1 -8 -2.5t-17 -1.5t-16.5 1.5t-8.5 2.5v518q3 1 8.5 2.5
t16.5 1.5t17 -1.5t8 -2.5v-241h158zM664 263q0 66 -11 110.5t-32 71.5t-50.5 38t-65.5 11t-65.5 -11t-50.5 -38t-32 -71.5t-11 -110.5t11 -110.5t32 -71.5t50.5 -38t65.5 -11t65.5 11t50.5 38t32 71.5t11 110.5z" />
    <glyph glyph-name="uni044F" unicode="&#x44f;" horiz-adv-x="519" 
d="M105 4q-3 -1 -11 -2.5t-21 -1.5q-11 0 -17.5 1.5t-9.5 2.5l124 222q-51 15 -76.5 53t-25.5 92q0 69 41.5 112t121.5 43h202v-522q-3 -1 -8.5 -2.5t-16.5 -1.5t-17 1.5t-8 2.5v214h-162zM239 484q-61 0 -90 -29.5t-29 -83.5q0 -50 29 -80.5t90 -30.5h144v224h-144z" />
    <glyph glyph-name="uni0451" unicode="&#x451;" horiz-adv-x="509" 
d="M164 699q3 1 7 2q10 2 23 2q8 0 13 -0.5t9 -1.5l8 -2v-53l-8 -2t-9 -1.5t-13 -0.5q-13 0 -23 2q-4 1 -7 2v53zM313 699q3 1 7 2q10 2 23 2q8 0 13 -0.5t9 -1.5l8 -2v-53l-8 -2t-9 -1.5t-13 -0.5q-13 0 -23 2q-4 1 -7 2v53zM61 266q0 71 15 122t43 84t66 48.5t85 15.5
q90 0 137 -52t47 -136q0 -23 -2 -42t-4 -32l-5 -27h-330q5 -114 46 -162.5t122 -48.5q29 0 52.5 5.5t40.5 12.5q19 8 33 19q18 -13 21 -38q-16 -13 -40 -23q-20 -8 -50 -15t-69 -7q-103 0 -155.5 69.5t-52.5 206.5zM402 354q0 28 -7.5 53t-23 44t-40.5 30.5t-61 11.5
q-69 0 -111 -48.5t-46 -156.5h284q0 2 2.5 19t2.5 47z" />
    <glyph glyph-name="uni2113" unicode="&#x2113;" horiz-adv-x="456" 
d="M125 526q0 57 7.5 99.5t24.5 70t46 41t72 13.5q69 0 102 -41t33 -108q0 -47 -17.5 -94t-48.5 -91.5t-74.5 -85.5t-94.5 -76v-114q0 -60 21.5 -82.5t63.5 -22.5q25 0 48 8.5t40 19.5q20 12 37 28q10 -2 17.5 -9t9.5 -17q-19 -21 -44 -38q-21 -14 -51.5 -25.5t-69.5 -11.5
q-35 0 -58 10.5t-37.5 33.5t-20.5 59t-6 86v46q-13 -8 -36.5 -20.5l-37.5 -19.5q-16 13 -16 36q24 11 47 24.5t43 27.5v253zM360 600q0 50 -18.5 80t-64.5 30q-24 0 -43 -7t-32 -23.5t-20 -44t-7 -68.5v-260q39 31 73 66t58.5 72t39 76t14.5 79z" />
    <glyph glyph-name="uni2117" unicode="&#x2117;" horiz-adv-x="807" 
d="M66 340q0 70 26.5 131.5t72.5 107t107.5 72t131.5 26.5t131.5 -26.5t107 -72t72 -107t26.5 -131.5t-26.5 -131.5t-72 -107.5t-107 -72.5t-131.5 -26.5t-131.5 26.5t-107.5 72.5t-72.5 107.5t-26.5 131.5zM703 340q0 62 -23.5 116.5t-64 95t-95 64t-116.5 23.5
t-116.5 -23.5t-95.5 -64t-64.5 -95t-23.5 -116.5t23.5 -116.5t64.5 -95.5t95.5 -64.5t116.5 -23.5t116.5 23.5t95 64.5t64 95.5t23.5 116.5zM439 523q60 0 95 -35.5t35 -92.5q0 -59 -35 -94t-95 -35h-99v-124q-8 -4 -19.5 -4t-20.5 4v381h139zM340 302h95q42 0 67 23t25 70
q0 45 -25 68.5t-67 23.5h-95v-185z" />
    <glyph glyph-name="uni2153" unicode="&#x2153;" horiz-adv-x="708" 
d="M504 698q2 1 5 2q6 2 15 2q8 0 14 -2q3 -1 4 -2l-387 -705q-2 -1 -5 -2q-2 -1 -6 -1h-9q-11 0 -14 1t-5 2zM153 686q6 3 18 3q11 0 16 -3v-338q-8 -2 -16 -2h-9.5t-9.5 2v253v21.5t1 18.5q-21 -18 -47.5 -32t-58.5 -22q-11 11 -8 30q35 9 65 28.5t49 40.5zM446 335
q11 3 24 6q11 2 27.5 4.5t36.5 2.5q55 0 83 -23t28 -66q0 -29 -10.5 -47.5t-35.5 -30.5q26 -11 42 -30t16 -58q0 -20 -6.5 -38t-21.5 -31.5t-40.5 -21t-64.5 -7.5q-20 0 -36 2t-27 5q-13 4 -24 8q-1 7 1.5 14t7.5 12q10 -3 22 -5q23 -5 55 -5q31 0 50 5.5t29.5 15t14.5 22
t4 26.5q0 37 -23 53t-58 16h-44q-7 15 0 31h44q35 0 52 16.5t17 44.5q0 61 -77 61q-17 0 -31 -1.5t-25 -3.5q-12 -2 -22 -4q-10 10 -8 27z" />
    <glyph glyph-name="uni2154" unicode="&#x2154;" horiz-adv-x="771" 
d="M567 698q2 1 5 2q6 2 15 2q8 0 14 -2q3 -1 4 -2l-387 -705q-2 -1 -5 -2q-2 -1 -6 -1h-9q-11 0 -14 1t-5 2zM51 387q0 34 14 56t34.5 37.5t45 26.5t45 23t34.5 28t14 41q0 26 -18 44.5t-65 19.5q-27 0 -49 -4.5t-24 -5.5q-10 13 -8 28q11 3 24 6q11 2 26.5 4.5t35.5 2.5
q60 0 87 -25.5t27 -66.5q0 -32 -14 -52.5t-35 -34.5t-46 -25.5t-45.5 -25.5t-34 -34t-12.5 -51h182q4 -7 4 -17q0 -9 -4 -16h-214l-2 12q-1 5 -1.5 12.5t-0.5 16.5zM720 93q0 -20 -6.5 -38t-21.5 -31.5t-40.5 -21t-64.5 -7.5q-20 0 -36 2t-27 5q-13 4 -24 8q-1 7 1.5 14
t7.5 12q10 -3 22 -5q23 -5 55 -5q31 0 50 5.5t29.5 15t14.5 22t4 26.5q0 37 -23 53t-58 16h-44q-7 15 0 31h44q35 0 52 16.5t17 44.5q0 61 -77 61q-17 0 -31 -1.5t-25 -3.5q-12 -2 -22 -4q-10 10 -8 27q11 3 24 6q11 2 27.5 4.5t36.5 2.5q55 0 83 -23t28 -66
q0 -29 -10.5 -47.5t-35.5 -30.5q26 -11 42 -30t16 -58z" />
    <glyph glyph-name="uni2196" unicode="&#x2196;" horiz-adv-x="513" 
d="M374 534q3 -9 3 -19q0 -9 -3 -18h-230l316 -315q-4 -10 -12 -17t-17 -12l-316 317l1 -230q-7 -4 -18 -4t-19 4v294h295z" />
    <glyph glyph-name="uni2197" unicode="&#x2197;" horiz-adv-x="513" 
d="M434 240q-8 -4 -19 -4t-18 4v229l-315 -316q-21 8 -29 29l316 315h-230q-3 9 -3 18q0 10 3 19h295v-294z" />
    <glyph glyph-name="uni2198" unicode="&#x2198;" horiz-adv-x="507" 
d="M388 436q7 4 18 4t19 -4v-294h-295q-3 9 -3 19q0 9 3 18h230l-316 315q3 10 11 17t18 12l315 -316v229z" />
    <glyph glyph-name="uni2199" unicode="&#x2199;" horiz-adv-x="509" 
d="M435 524q10 -5 18 -12.5t11 -16.5l-316 -315h230q3 -9 3 -19q0 -11 -3 -18h-295v294q8 4 19 4t18 -4v-229z" />
    <glyph glyph-name="uni2215" unicode="&#x2215;" horiz-adv-x="469" 
d="M404 698q2 1 6 2q8 2 18 2q9 0 17 -2q4 -1 5 -2l-388 -703q-2 -2 -6 -3q-8 -2 -18 -2t-16 2q-4 1 -5 3z" />
    <glyph glyph-name="uni2219" unicode="&#x2219;" horiz-adv-x="226" 
d="M113 303q-13 0 -23 8t-10 25t10 25t23 8q12 0 22.5 -8t10.5 -25t-10.5 -25t-22.5 -8z" />
    <glyph glyph-name="uogonek" unicode="&#x173;" 
d="M82 522q2 1 6 2q8 2 19 2t19 -2q4 -1 6 -2v-372q0 -60 30 -88.5t90 -28.5q47 0 91 29.5t69 83.5v376q2 1 6 2q8 2 19 2t19 -2q4 -1 6 -2v-518l-1 -1q-25 -14 -48 -35t-40.5 -45t-26 -49t-3.5 -47q5 -20 19.5 -27.5t31.5 -8.5q14 0 26 3.5t28 10.5q5 -5 10.5 -15.5
t5.5 -18.5q-13 -9 -32.5 -15t-42.5 -6q-33 0 -57 11t-34 46q-8 27 -0.5 55t24.5 55t41 50t49 40v74q-31 -42 -76 -66.5t-102 -24.5q-72 0 -112 40.5t-40 108.5v383z" />
    <glyph glyph-name="uring" unicode="&#x16f;" 
d="M159 701q0 26 9.5 45.5t25.5 33t36.5 20.5t42.5 7q21 0 42 -6.5t37 -20t26 -33.5t10 -46t-9.5 -46t-25 -34t-36.5 -21t-45 -7q-48 0 -80.5 28t-32.5 80zM349 701q0 28 -19 49.5t-58 21.5q-38 0 -56 -22t-18 -49q0 -28 18 -50t56 -22q39 0 58 22.5t19 49.5zM412 522
q2 1 6 2q8 2 19 2t19 -2q4 -1 6 -2v-518q-2 -1 -6 -2q-8 -2 -19 -2t-19 2q-4 1 -6 2v77q-31 -42 -76 -66.5t-102 -24.5q-72 0 -112 40.5t-40 108.5v383q2 1 6 2q8 2 19 2t19 -2q4 -1 6 -2v-372q0 -60 30 -88.5t90 -28.5q47 0 91 29.5t69 83.5v376z" />
    </font>
</defs>
</svg>
