<?xml version="1.0" standalone="no"?>
<!DOCTYPE svg PUBLIC "-//W3C//DTD SVG 1.1//EN" "http://www.w3.org/Graphics/SVG/1.1/DTD/svg11.dtd" >
<svg>
<metadata>
Created by FontForge 20090622 at Fri Jan 29 10:58:51 2016
 By deploy user
Copyright (c) 2014 by Fontfabric LLC. All rights reserved.
</metadata>
<defs>
<font id="GloberxBold" horiz-adv-x="674" >
  <font-face 
    font-family="Glober xBold"
    font-weight="800"
    font-stretch="normal"
    units-per-em="1000"
    panose-1="0 0 0 0 0 0 0 0 0 0"
    ascent="750"
    descent="-250"
    x-height="530"
    cap-height="720"
    bbox="-178 -347 1075 1079.89"
    underline-thickness="50"
    underline-position="-50"
    unicode-range="U+0020-U+FB02"
  />
<missing-glyph horiz-adv-x="618" 
d="M37 0v720h538v-720h-538zM466 487q0 40 -14 68t-37 45.5t-54 25t-65 7.5q-32 0 -55.5 -5t-40.5 -10q-19 -6 -34 -14q-5 -46 31 -72q10 5 22 9q11 4 26.5 7t35.5 3q33 0 57 -13t24 -55q0 -27 -8.5 -43t-21 -28.5t-27 -23.5t-27 -28t-21 -43t-8.5 -67q5 -3 11 -5
q12 -5 29 -5q19 0 29 5q5 2 9 5q0 28 10.5 46t25.5 31.5t33.5 25.5t33.5 29t25.5 41.5t10.5 63.5zM339 179q-5 1 -13 3q-7 2 -16.5 3t-21.5 1q-14 0 -23 -1t-15 -3l-12 -3v-92q5 -2 12 -3q12 -3 38 -3q24 0 38 3q8 1 13 3v92z" />
    <glyph glyph-name="fi" unicode="fi" horiz-adv-x="599" 
d="M91 586q0 78 50 121t159 43q55 0 99 -6t75 -13q36 -8 64 -18q-2 -32 -13 -57.5t-28 -45.5q-23 6 -51 11q-24 4 -57 7.5t-71 3.5t-55.5 -12t-17.5 -40v-50h221q19 0 33 -1t24 -3q11 -2 20 -4v-514q-9 -2 -20 -4q-10 -2 -24 -3t-33 -1q-20 0 -34 1t-24 3q-11 2 -19 4v408
h-144v-408q-9 -2 -20 -4q-10 -2 -24 -3t-33 -1q-20 0 -34 1t-24 3q-11 2 -19 4v408h-64q-2 7 -3 16q-3 15 -3 42q0 26 3 41q1 9 3 15h64v56v0z" />
    <glyph glyph-name="fl" unicode="fl" horiz-adv-x="600" 
d="M91 586q0 78 50 121t159 43q47 0 90.5 -6t77.5 -13q40 -8 75 -18v-705q-9 -2 -20 -4q-10 -2 -24 -3t-33 -1q-20 0 -34 1t-24 3q-11 2 -19 4v621l-33.5 2t-37.5 1q-38 0 -55.5 -12t-17.5 -40v-50h73q6 -26 6 -57q0 -32 -6 -57h-73v-408q-9 -2 -20 -4q-10 -2 -24 -3t-33 -1
q-20 0 -34 1t-24 3q-11 2 -19 4v408h-64q-5 28 -5 56q0 16 1 30.5t4 27.5h64v56v0z" />
    <glyph glyph-name=".notdef" horiz-adv-x="618" 
d="M37 0v720h538v-720h-538zM466 487q0 40 -14 68t-37 45.5t-54 25t-65 7.5q-32 0 -55.5 -5t-40.5 -10q-19 -6 -34 -14q-5 -46 31 -72q10 5 22 9q11 4 26.5 7t35.5 3q33 0 57 -13t24 -55q0 -27 -8.5 -43t-21 -28.5t-27 -23.5t-27 -28t-21 -43t-8.5 -67q5 -3 11 -5
q12 -5 29 -5q19 0 29 5q5 2 9 5q0 28 10.5 46t25.5 31.5t33.5 25.5t33.5 29t25.5 41.5t10.5 63.5zM339 179q-5 1 -13 3q-7 2 -16.5 3t-21.5 1q-14 0 -23 -1t-15 -3l-12 -3v-92q5 -2 12 -3q12 -3 38 -3q24 0 38 3q8 1 13 3v92z" />
    <glyph glyph-name="A" unicode="A" 
d="M236 711q12 2 27 4q13 2 31.5 3.5t42.5 1.5q25 0 43.5 -1.5t31.5 -3.5q15 -2 26 -4l228 -702q-9 -3 -21 -5q-11 -2 -26.5 -3t-36.5 -1q-20 0 -34 1t-24 3q-11 2 -19 5l-47 146h-251l-47 -146q-10 -3 -21 -5q-10 -2 -24.5 -3t-32.5 -1t-31.5 1t-23.5 3q-11 2 -19 5z
M330 570q-2 -17 -6 -35q-3 -16 -8 -37.5t-13 -44.5l-59 -181h177l-58 181q-8 24 -13 45l-9 37q-4 18 -7 35h-4z" />
    <glyph glyph-name="AE" unicode="&#xc6;" horiz-adv-x="902" 
d="M851 720q11 -28 10 -61.5t-10 -58.5h-247v-176h197q10 -28 10 -61.5t-10 -59.5h-197v-182h257q10 -29 10.5 -62.5t-10.5 -58.5h-410v159h-200l-88 -149q-15 -5 -39 -7.5t-47 -2.5t-46 2.5t-36 7.5l433 710h423zM451 279v217l-129 -217h129z" />
    <glyph glyph-name="AEacute" unicode="&#x1fc;" horiz-adv-x="901" 
d="M624 750q-26 5 -48.5 15.5t-36.5 28.5l91 148q18 2 38 -1.5t38 -10.5t32.5 -17.5t22.5 -22.5zM163 10q-14 -5 -38 -7.5t-47 -2.5t-46 2.5t-37 7.5l433 710h423q9 -27 9 -61t-9 -59h-247v-176h197q10 -29 10 -62t-10 -59h-197v-182h257q10 -29 10.5 -61t-10.5 -60h-410
v159h-200zM323 279h129v217z" />
    <glyph glyph-name="Aacute" unicode="&#xc1;" 
d="M357 941q18 2 38 -1t38 -10t32.5 -17.5t22.5 -23.5l-137 -139q-26 4 -48.5 14.5t-36.5 29.5zM236 711q12 2 27 4q13 2 31.5 3.5t42.5 1.5q25 0 43.5 -1.5t31.5 -3.5q15 -2 26 -4l228 -702q-9 -3 -21 -5q-11 -2 -26.5 -3t-36.5 -1q-20 0 -34 1t-24 3q-11 2 -19 5l-47 146
h-251l-47 -146q-10 -3 -21 -5q-10 -2 -24.5 -3t-32.5 -1t-31.5 1t-23.5 3q-11 2 -19 5zM330 570q-2 -17 -6 -35q-3 -16 -8 -37.5t-13 -44.5l-59 -181h177l-58 181q-8 24 -13 45l-9 37q-4 18 -7 35h-4z" />
    <glyph glyph-name="Abreve" unicode="&#x102;" 
d="M333 879q26 0 46 4t34 9q16 5 28 13q23 -8 40 -26.5t25 -38.5q-17 -20 -42 -36q-21 -14 -53.5 -24.5t-77.5 -10.5t-78 10.5t-54 24.5q-26 16 -42 36q8 20 25.5 38.5t40.5 26.5q12 -8 28 -13q14 -5 34 -9t46 -4zM236 711q11 2 27 4q13 2 32 3.5t42 1.5q25 0 44 -1.5
t32 -3.5q15 -2 25 -4l228 -702q-9 -3 -21 -5q-11 -2 -26.5 -3t-36.5 -1q-20 0 -34 1t-24 3q-11 2 -19 5l-47 146h-251l-47 -146q-10 -3 -21 -5q-10 -2 -24 -3t-32 -1t-32 1t-24 3q-11 2 -19 5zM330 570q-2 -17 -6 -35q-3 -16 -8 -37.5t-12 -44.5l-60 -181h177l-58 181
q-8 24 -13 45l-9 37q-4 18 -7 35h-4z" />
    <glyph glyph-name="Acircumflex" unicode="&#xc2;" horiz-adv-x="675" 
d="M507 818q-11 -23 -28 -41t-40 -27l-107 67l-105 -66q-23 9 -40.5 26.5t-28.5 40.5l156 132h36zM237 711q12 2 27 4q13 2 31.5 3.5t42.5 1.5q25 0 43.5 -1.5t31.5 -3.5q15 -2 25 -4l229 -702q-9 -3 -21 -5q-11 -2 -27 -3t-36 -1t-34.5 1t-24.5 3q-11 2 -19 5l-47 146h-251
l-47 -146q-9 -3 -20 -5q-10 -2 -24.5 -3t-32.5 -1t-31.5 1t-23.5 3q-11 2 -20 5zM331 570q-2 -17 -6 -35q-3 -16 -8 -37.5t-13 -44.5l-60 -181h177l-58 181q-8 24 -13.5 45t-8.5 37q-4 18 -6 35h-4z" />
    <glyph glyph-name="Adieresis" unicode="&#xc4;" 
d="M169 872q6 1 16 3q8 2 20.5 3t29.5 1q16 0 28.5 -1t20.5 -3q10 -2 17 -3v-115q-7 -2 -17 -4q-17 -3 -49 -3q-33 0 -49 3q-10 2 -17 4v115zM366 872q6 1 16 3q8 2 20.5 3t29.5 1q16 0 28.5 -1t20.5 -3q10 -2 17 -3v-115q-7 -2 -17 -4q-17 -3 -49 -3q-34 0 -50 3
q-10 2 -16 4v115zM236 711q11 2 27 4q13 2 32 3.5t42 1.5q25 0 44 -1.5t32 -3.5q15 -2 25 -4l228 -702q-9 -3 -21 -5q-11 -2 -26.5 -3t-36.5 -1q-20 0 -34 1t-24 3q-11 2 -19 5l-47 146h-251l-47 -146q-10 -3 -21 -5q-10 -2 -24 -3t-32 -1t-32 1t-24 3q-11 2 -19 5zM330 570
q-2 -17 -6 -35q-3 -16 -8 -37.5t-12 -44.5l-60 -181h177l-58 181q-8 24 -13 45l-9 37q-4 18 -7 35h-4z" />
    <glyph glyph-name="Agrave" unicode="&#xc0;" 
d="M418 793q-14 -19 -36.5 -29t-48.5 -15l-137 139q8 13 22.5 23.5t32.5 17.5t38 10t38 1zM236 711q11 2 27 4q13 2 32 3.5t42 1.5q25 0 44 -1.5t32 -3.5q15 -2 25 -4l228 -702q-9 -3 -21 -5q-11 -2 -26.5 -3t-36.5 -1q-20 0 -34 1t-24 3q-11 2 -19 5l-47 146h-251l-47 -146
q-10 -3 -21 -5q-10 -2 -24 -3t-32 -1t-32 1t-24 3q-11 2 -19 5zM330 570q-2 -17 -6 -35q-3 -16 -8 -37.5t-12 -44.5l-60 -181h177l-58 181q-8 24 -13 45l-9 37q-4 18 -7 35h-4z" />
    <glyph glyph-name="Amacron" unicode="&#x100;" 
d="M489 861q5 -20 5 -45t-5 -45h-312q-5 21 -5 46t5 44h312zM237 711q12 2 27 4q13 2 31.5 3.5t41.5 1.5q25 0 44 -1.5t32 -3.5q15 -2 25 -4l228 -702q-9 -3 -21 -5q-11 -2 -26.5 -3t-36.5 -1q-20 0 -34 1t-24 3q-11 2 -19 5l-47 146h-251l-47 -146q-9 -3 -20 -5
q-10 -2 -24.5 -3t-32.5 -1t-32 1t-24 3q-11 2 -19 5zM331 570q-2 -17 -6 -35q-3 -16 -8 -37.5t-13 -44.5l-60 -181h177l-58 181q-8 24 -13.5 45t-8.5 37q-4 18 -6 35h-4z" />
    <glyph glyph-name="Aogonek" unicode="&#x104;" 
d="M236 711q12 2 27 4q13 2 31.5 3.5t42.5 1.5q25 0 43.5 -1.5t31.5 -3.5q15 -2 26 -4l228 -702q-17 -15 -32.5 -33.5t-26 -37.5t-15.5 -37t-2 -30q8 -33 49 -13q6 -6 11.5 -16t9.5 -22t6 -23.5t2 -19.5q-18 -12 -46 -19.5t-59 -7.5q-48 0 -71.5 19.5t-30.5 52.5
q-10 46 12 91.5t71 87.5q-19 1 -30 5l-9 3l-47 146h-251l-47 -146q-10 -3 -21 -5q-10 -2 -24.5 -3t-32.5 -1t-31.5 1t-23.5 3q-11 2 -19 5zM330 570q-2 -17 -6 -35q-3 -16 -8 -37.5t-13 -44.5l-59 -181h177l-58 181q-8 24 -13 45l-9 37q-4 18 -7 35h-4z" />
    <glyph glyph-name="Aring" unicode="&#xc5;" 
d="M667 9q-10 -3 -22 -5q-11 -2 -26.5 -3t-36.5 -1q-20 0 -34 1t-24 3q-11 2 -19 5l-47 146h-251l-47 -146q-10 -3 -21 -5q-10 -2 -24 -3t-32 -1t-32 1t-24 3q-11 2 -20 5l226 679q-39 33 -39 89q0 32 12 56t31.5 40.5t45 24.5t52.5 8t52.5 -8t45.5 -24t32.5 -40.5
t12.5 -56.5q0 -28 -10 -50t-27 -37zM387 777q0 19 -13 34t-40 15q-26 0 -38 -15.5t-12 -33.5q0 -19 12 -34t38 -15q27 0 40 15.5t13 33.5zM363 449q-8 24 -13 45l-9 37q-4 18 -7 35h-4q-2 -17 -6 -35q-3 -16 -8 -37.5t-13 -44.5l-59 -177h177z" />
    <glyph glyph-name="Aringacute" unicode="&#x1fa;" horiz-adv-x="675" 
d="M363 937q-25 3 -46 11t-34 22l85 109q17 2 35.5 -0.5t35.5 -8t30.5 -13.5t21.5 -17zM668 9q-10 -3 -22 -5q-11 -2 -26.5 -3t-36.5 -1q-20 0 -34 1t-24 3q-11 2 -19 5l-47 146h-251l-47 -146q-10 -3 -21 -5q-10 -2 -24 -3t-32 -1t-32.5 1t-24.5 3q-11 2 -20 5l226 677
q-39 34 -39 91q0 32 12 56t31.5 40.5t45 24.5t52.5 8q26 0 51.5 -8t45.5 -24t32.5 -40.5t12.5 -56.5q0 -53 -35 -86zM386 777q0 19 -13 34t-39 15t-38.5 -15.5t-12.5 -33.5q0 -19 12.5 -34t38.5 -15t39 15.5t13 33.5zM364 449q-8 24 -13 45.5l-9 37.5q-4 18 -7 34h-4
q-2 -17 -6 -35q-3 -16 -7.5 -37.5t-12.5 -44.5l-60 -177h177z" />
    <glyph glyph-name="Atilde" unicode="&#xc3;" 
d="M163 808q2 7 9.5 19t20 24t31 21.5t42.5 10.5t40.5 -5t31 -13.5t28.5 -13.5t32 -5q11 1 19.5 5t14.5 9q7 5 12 12q20 -7 38 -21t27 -31q-3 -6 -11 -17t-21.5 -21.5t-31.5 -19t-42 -9.5t-40.5 4t-30 12t-27 12.5t-31.5 4.5q-13 -1 -22 -4.5t-15 -8.5q-7 -5 -12 -13
q-22 5 -38 17t-24 31zM236 711q12 2 27 4q13 2 31.5 3.5t42.5 1.5q25 0 43.5 -1.5t31.5 -3.5q15 -2 26 -4l228 -702q-9 -3 -21 -5q-11 -2 -26.5 -3t-36.5 -1q-20 0 -34 1t-24 3q-11 2 -19 5l-47 146h-252l-47 -146q-9 -3 -20 -5q-10 -2 -24.5 -3t-32.5 -1t-31.5 1t-23.5 3
q-11 2 -19 5zM330 570q-2 -17 -6 -35q-3 -16 -8 -37.5t-13 -44.5l-59 -181h177l-59 181q-8 24 -13.5 45t-8.5 37q-4 18 -6 35h-4z" />
    <glyph glyph-name="B" unicode="B" horiz-adv-x="630" 
d="M363 720q98 0 153 -53.5t55 -147.5q0 -51 -20.5 -87.5t-57.5 -59.5q46 -23 72.5 -63.5t26.5 -100.5q0 -101 -60 -154.5t-165 -53.5h-298v720h294zM331 423q41 0 61 24.5t20 66.5q0 43 -20 67t-61 24h-103v-182h103zM336 116q94 0 94 96q0 51 -23.5 73.5t-70.5 22.5h-108
v-192h108z" />
    <glyph glyph-name="C" unicode="C" horiz-adv-x="570" 
d="M41 360q0 183 80.5 277.5t234.5 94.5q45 0 79.5 -6t57.5 -14q27 -9 47 -19q2 -34 -11 -61.5t-35 -48.5q-17 6 -35 10q-16 4 -37.5 7t-44.5 3q-38 0 -69 -11.5t-53 -39t-33.5 -74.5t-11.5 -119t11.5 -118.5t33.5 -73.5t53 -38t69 -11q26 0 48.5 3t39.5 8q20 4 38 11
q23 -20 35 -50.5t12 -62.5q-21 -11 -49 -20q-25 -8 -61 -13.5t-84 -5.5q-154 0 -234.5 94.5t-80.5 277.5z" />
    <glyph glyph-name="nonmarkingreturn" horiz-adv-x="322" 
 />
    <glyph glyph-name="Cacute" unicode="&#x106;" horiz-adv-x="569" 
d="M336 750q-26 5 -49 15.5t-37 28.5l91 148q18 2 38 -1.5t38 -10.5t32.5 -17.5t22.5 -22.5zM356 -12q-155 0 -235 94.5t-80 277.5t80 277.5t235 94.5q45 0 79 -6t57 -14q27 -9 47 -19q2 -34 -10.5 -61.5t-35.5 -48.5q-17 6 -35 10q-16 4 -37 7t-44 3q-39 0 -69.5 -11.5
t-52.5 -39t-33.5 -74.5t-11.5 -119t11.5 -118.5t33.5 -73.5t52.5 -38t69.5 -11q26 0 48.5 3t39.5 8q20 4 37 11q23 -20 35.5 -50.5t11.5 -62.5q-21 -11 -49 -20q-24 -8 -60 -13.5t-84 -5.5z" />
    <glyph glyph-name="Ccaron" unicode="&#x10c;" horiz-adv-x="569" 
d="M181 882q11 23 28 41t40 27l107 -67l105 66q23 -9 40 -26.5t28 -40.5l-155 -132h-36zM356 -12q-154 0 -234.5 94.5t-80.5 277.5t80.5 277.5t234.5 94.5q45 0 79.5 -6t57.5 -14q27 -9 47 -19q1 -34 -11.5 -61.5t-35.5 -48.5q-17 6 -35 10q-16 4 -37 7t-44 3
q-38 0 -69 -11.5t-53 -39t-33.5 -74.5t-11.5 -119t11.5 -118.5t33.5 -73.5t53 -38t69 -11q26 0 48.5 3t39.5 8q20 4 37 11q23 -20 35.5 -50.5t12.5 -62.5q-21 -11 -49 -20q-25 -8 -61 -13.5t-84 -5.5z" />
    <glyph glyph-name="Ccedilla" unicode="&#xc7;" horiz-adv-x="569" 
d="M537 90q10 -25 12 -43q1 -10 1 -18q-18 -10 -44 -18q-22 -7 -54.5 -12.5t-74.5 -7.5l-11 -39q58 0 81.5 -28t23.5 -71q0 -52 -35.5 -77.5t-95.5 -25.5q-26 0 -45 3.5t-33 8.5q-16 5 -27 12q-1 16 6 33t19 25q11 -5 29 -9t36 -4q24 -1 42 7t18 31q0 16 -10 25.5t-33 9.5
h-53l-14 16l25 87q-131 17 -195 109.5t-64 255.5q0 182 80.5 276t234.5 94q45 0 79.5 -6t57.5 -13q27 -9 47 -19q0 -7 -1 -17q-1 -8 -3 -19t-7 -24q-6 -14 -12.5 -23.5t-11.5 -15.5q-6 -7 -12 -11q-17 6 -35 10q-16 4 -37 7t-44 3q-38 0 -69 -11t-53 -39t-33.5 -74.5
t-11.5 -118.5t11.5 -118.5t33.5 -73.5t53 -37.5t69 -10.5q26 0 48.5 3t39.5 8q20 4 37 11q6 -5 12 -12q12 -13 23 -39z" />
    <glyph glyph-name="Ccircumflex" unicode="&#x108;" horiz-adv-x="569" 
d="M534 818q-11 -23 -28.5 -41t-39.5 -27l-107 67l-106 -66q-22 9 -39.5 26.5t-28.5 40.5l156 132h36zM356 -12q-155 0 -235 94.5t-80 277.5t80 277.5t235 94.5q45 0 79 -6t57 -14q27 -9 47 -19q2 -34 -10.5 -61.5t-35.5 -48.5q-17 6 -35 10q-16 4 -37 7t-44 3
q-39 0 -69.5 -11.5t-52.5 -39t-33.5 -74.5t-11.5 -119t11.5 -118.5t33.5 -73.5t52.5 -38t69.5 -11q26 0 48.5 3t39.5 8q20 4 37 11q23 -20 35.5 -50.5t11.5 -62.5q-21 -11 -49 -20q-24 -8 -60 -13.5t-84 -5.5z" />
    <glyph glyph-name="Cdotaccent" unicode="&#x10a;" horiz-adv-x="569" 
d="M424 776q-7 -2 -18 -4q-18 -3 -52 -3q-35 0 -53 3q-11 2 -17 4v128q6 1 17 3q9 2 22 3t31 1q17 0 30 -1t22 -3l18 -3v-128zM356 -12q-154 0 -234.5 94.5t-80.5 277.5t80.5 277.5t234.5 94.5q45 0 79.5 -6t57.5 -14q27 -9 47 -19q1 -34 -11.5 -61.5t-35.5 -48.5
q-17 6 -35 10q-16 4 -37 7t-44 3q-38 0 -69 -11.5t-53 -39t-33.5 -74.5t-11.5 -119t11.5 -118.5t33.5 -73.5t53 -38t69 -11q26 0 48.5 3t39.5 8q20 4 37 11q23 -20 35.5 -50.5t12.5 -62.5q-21 -11 -49 -20q-25 -8 -61 -13.5t-84 -5.5z" />
    <glyph glyph-name="D" unicode="D" horiz-adv-x="667" 
d="M316 720q73 0 130.5 -20t97.5 -63t60.5 -111.5t20.5 -165.5t-20.5 -165.5t-60.5 -111.5t-97.5 -63t-130.5 -20h-247v720h247zM310 125q34 0 61 9.5t46 35.5t29 72t10 118q0 73 -10 119t-29 71.5t-46 35t-61 9.5h-81v-470h81z" />
    <glyph glyph-name="Dcaron" unicode="&#x10e;" horiz-adv-x="667" 
d="M124 882q11 23 28.5 41t40.5 27l106 -67l106 66q23 -9 40 -26.5t28 -40.5l-155 -132h-37zM316 720q73 0 130.5 -20t97.5 -63t60.5 -111.5t20.5 -165.5t-20.5 -165.5t-60.5 -111.5t-97.5 -63t-130.5 -20h-247v720h247zM310 125q34 0 61 9.5t46 35.5t29 72t10 118
q0 73 -10 119t-29 71.5t-46 35t-61 9.5h-81v-470h81z" />
    <glyph glyph-name="Dcroat" unicode="&#x110;" horiz-adv-x="689" 
d="M339 720q73 0 130.5 -20t97 -63t60 -111.5t20.5 -165.5t-20.5 -165.5t-60 -111.5t-97 -63t-130.5 -20h-247v305h-74q-6 22 -6 52.5t6 50.5h74v312h247zM251 408h109q3 -10 4.5 -24t1.5 -28t-1.5 -27.5t-4.5 -23.5h-109v-180h82q34 0 61 9.5t46 35.5t29 72t10 118
q0 73 -10 119t-29 71.5t-46 35t-61 9.5h-82v-187z" />
    <glyph glyph-name="Delta" unicode="&#x2206;" horiz-adv-x="672" 
d="M264 712q32 8 74 8t77 -8l236 -633q-14 -48 -49 -79h-531q-42 32 -50 78zM331 524q-8 -29 -19.5 -66.5t-22.5 -68.5l-99 -268h284l-99 269q-11 30 -22 67t-18 67h-4z" />
    <glyph glyph-name="E" unicode="E" horiz-adv-x="558" 
d="M507 720q4 -11 7 -26t3 -32q0 -36 -10 -64h-278v-174h228q4 -13 7 -27t3 -32q0 -19 -2.5 -33.5t-7.5 -28.5h-228v-181h288q5 -12 7.5 -27.5t2.5 -32.5t-2.5 -32.5t-7.5 -29.5h-448v720h438z" />
    <glyph glyph-name="Eacute" unicode="&#xc9;" horiz-adv-x="557" 
d="M281 750q-26 5 -49 15.5t-37 28.5l91 148q18 2 38 -1.5t38 -10.5t32.5 -17.5t22.5 -22.5zM506 720q10 -25 10 -58q0 -18 -2.5 -34.5t-7.5 -29.5h-278v-174h228q5 -13 7.5 -27t2.5 -32q0 -36 -10 -62h-228v-181h288q5 -12 7.5 -27.5t2.5 -32.5t-2.5 -32.5t-7.5 -29.5h-447
v720h437z" />
    <glyph glyph-name="Ebreve" unicode="&#x114;" horiz-adv-x="558" 
d="M455 840q-16 -20 -41 -36q-21 -14 -53.5 -24.5t-77.5 -10.5t-78 10.5t-54 24.5q-26 16 -42 36q8 20 25.5 38.5t40.5 26.5q12 -8 28 -13q14 -5 34 -9t46 -4t46 4t34 9q16 5 28 13q23 -8 40 -26.5t24 -38.5zM507 720q4 -11 7 -26t3 -32q0 -36 -10 -64h-278v-174h228
q4 -13 7 -27t3 -32q0 -19 -2.5 -33.5t-7.5 -28.5h-228v-181h288q5 -12 7.5 -27.5t2.5 -32.5t-2.5 -32.5t-7.5 -29.5h-448v720h438z" />
    <glyph glyph-name="Ecaron" unicode="&#x11a;" horiz-adv-x="558" 
d="M103 882q11 23 28 41t40 27l107 -67l105 66q23 -9 40 -26.5t28 -40.5l-155 -132h-36zM507 720q4 -11 7 -26t3 -32q0 -36 -10 -64h-278v-174h228q4 -13 7 -27t3 -32q0 -19 -2.5 -33.5t-7.5 -28.5h-228v-181h288q5 -12 7.5 -27.5t2.5 -32.5t-2.5 -32.5t-7.5 -29.5h-448v720
h438z" />
    <glyph glyph-name="Ecircumflex" unicode="&#xca;" horiz-adv-x="558" 
d="M464 818q-11 -23 -28.5 -41t-39.5 -27l-107 67l-106 -66q-23 9 -40 26.5t-28 40.5l156 132h36zM507 720q4 -11 7 -26t3 -32q0 -36 -10 -64h-278v-174h228q4 -13 7 -27t3 -32q0 -19 -2.5 -33.5t-7.5 -28.5h-228v-181h288q5 -12 7.5 -27.5t2.5 -32.5t-2.5 -32.5t-7.5 -29.5
h-448v720h438z" />
    <glyph glyph-name="Edieresis" unicode="&#xcb;" horiz-adv-x="558" 
d="M251 757q-7 -2 -17 -4q-17 -3 -49 -3q-34 0 -50 3q-10 2 -16 4v115q6 1 16 3q8 2 20.5 3t29.5 1q16 0 28.5 -1t20.5 -3q10 -2 17 -3v-115zM447 757q-7 -2 -17 -4q-17 -3 -49 -3q-33 0 -49 3q-10 2 -17 4v115q6 1 16 3q8 2 20.5 3t29.5 1q16 0 28.5 -1t20.5 -3
q10 -2 17 -3v-115zM507 720q4 -11 7 -26t3 -32q0 -36 -10 -64h-278v-174h228q4 -13 7 -27t3 -32q0 -19 -2.5 -33.5t-7.5 -28.5h-228v-181h288q5 -12 7.5 -27.5t2.5 -32.5t-2.5 -32.5t-7.5 -29.5h-448v720h438z" />
    <glyph glyph-name="Edotaccent" unicode="&#x116;" horiz-adv-x="558" 
d="M354 776q-7 -2 -18 -4q-18 -3 -52 -3q-36 0 -52 3q-10 2 -17 4v128q7 1 17 3q8 2 21 3t31 1q17 0 30 -1t22 -3l18 -3v-128zM507 720q4 -11 7 -26t3 -32q0 -36 -10 -64h-278v-174h228q4 -13 7 -27t3 -32q0 -19 -2.5 -33.5t-7.5 -28.5h-228v-181h288q5 -12 7.5 -27.5
t2.5 -32.5t-2.5 -32.5t-7.5 -29.5h-448v720h438z" />
    <glyph glyph-name="Egrave" unicode="&#xc8;" horiz-adv-x="557" 
d="M141 888q8 13 22.5 23.5t32.5 17.5t38 10t38 1l91 -147q-14 -19 -36.5 -29t-48.5 -15zM506 720q10 -25 10 -58q0 -18 -2.5 -34.5t-7.5 -29.5h-278v-174h228q5 -13 7.5 -27t2.5 -32q0 -36 -10 -62h-228v-181h288q5 -12 7.5 -27.5t2.5 -32.5t-2.5 -32.5t-7.5 -29.5h-447
v720h437z" />
    <glyph glyph-name="Emacron" unicode="&#x112;" horiz-adv-x="558" 
d="M127 771q-6 21 -6 46t6 44h311q6 -20 5.5 -45t-5.5 -45h-311zM507 720q4 -11 7 -26t3 -32q0 -36 -10 -64h-278v-174h228q4 -13 7 -27t3 -32q0 -19 -2.5 -33.5t-7.5 -28.5h-228v-181h288q5 -12 7.5 -27.5t2.5 -32.5t-2.5 -32.5t-7.5 -29.5h-448v720h438z" />
    <glyph glyph-name="Eng" unicode="&#x14a;" horiz-adv-x="703" 
d="M493 711q8 2 19 4q9 2 22.5 3.5t30.5 1.5t30.5 -1.5t21.5 -3.5q10 -2 17 -4v-749q0 -84 -33.5 -130.5t-106.5 -68.5q-26 16 -38.5 42t-12.5 57q25 11 35 32.5t10 67.5v40q-14 1 -24 2.5l-17 2.5q-8 1 -14 2l-170 365q-14 32 -24.5 62.5l-18.5 53.5q-9 27 -16 52h-5
q2 -25 5 -55q2 -26 3.5 -60.5t1.5 -75.5v-342q-7 -3 -18 -5q-9 -2 -22 -3t-31 -1t-31 1t-21 3q-10 2 -17 5v702q10 2 25 4q13 2 32 3.5t45 1.5t44.5 -1.5t30.5 -3.5q14 -2 24 -4l166 -362q14 -32 25.5 -63.5t19.5 -57.5q10 -30 17 -58h4q-3 28 -5 61q-2 28 -3 64.5t-1 77.5
v338v0z" />
    <glyph glyph-name="Eogonek" unicode="&#x118;" horiz-adv-x="557" 
d="M507 720q4 -11 7 -26t3 -32q0 -36 -10 -64h-278v-174h228q4 -13 7 -27t3 -32q0 -19 -2.5 -33.5t-7.5 -28.5h-228v-181h288q5 -12 7.5 -27.5t2.5 -32.5t-2.5 -32.5t-7.5 -29.5q-17 -12 -30.5 -29t-22.5 -35t-13 -35.5t-1 -29.5q8 -33 49 -13q6 -6 11.5 -16t9.5 -22
t6 -23.5t2 -19.5q-18 -12 -46 -19.5t-59 -7.5q-48 0 -71.5 19.5t-30.5 52.5q-10 47 16 91t77 87h-345v720h438z" />
    <glyph glyph-name="Eth" unicode="&#xd0;" horiz-adv-x="689" 
d="M339 720q73 0 130.5 -20t97 -63t60 -111.5t20.5 -165.5t-20.5 -165.5t-60 -111.5t-97 -63t-130.5 -20h-247v305h-74q-6 22 -6 52.5t6 50.5h74v312h247zM251 408h109q3 -10 4.5 -24t1.5 -28t-1.5 -27.5t-4.5 -23.5h-109v-180h82q34 0 61 9.5t46 35.5t29 72t10 118
q0 73 -10 119t-29 71.5t-46 35t-61 9.5h-82v-187z" />
    <glyph glyph-name="Euro" unicode="&#x20ac;" horiz-adv-x="595" 
d="M119 461q23 108 90.5 163.5t179.5 55.5q40 0 70.5 -5.5t51.5 -12.5q25 -8 42 -18q0 -66 -44 -101q-14 5 -31 9q-14 4 -33 7t-39 3q-48 0 -81.5 -22t-50.5 -79h218q5 -20 1 -46.5t-15 -44.5h-218q-1 -9 -1 -17.5v-18.5v-17t1 -16h191q5 -20 1 -46.5t-15 -44.5h-163
q16 -58 50 -78.5t82 -20.5q22 0 42.5 2.5t36.5 6.5q18 4 34 10q23 -17 33 -46t10 -57q-19 -11 -45 -19q-22 -7 -54 -12.5t-74 -5.5q-112 0 -179.5 55.5t-90.5 164.5h-84q-5 20 -1 47t15 44h58v69h-72q-5 20 -1 47t15 44h70v0z" />
    <glyph glyph-name="F" unicode="F" horiz-adv-x="535" 
d="M229 9q-10 -3 -22 -5q-11 -2 -25.5 -3t-33.5 -1t-33 1t-25 3q-12 2 -21 5v711h428q4 -12 7 -27.5t3 -32.5q0 -34 -10 -62h-268v-187h238q10 -23 10 -59q0 -19 -2.5 -35t-7.5 -28h-238v-280z" />
    <glyph glyph-name="G" unicode="G" horiz-adv-x="638" 
d="M41 360q0 182 85 276t247 94q50 0 87.5 -6t63.5 -14q30 -9 52 -20q-1 -32 -12.5 -61t-32.5 -50q-19 7 -42 12q-20 5 -45 8.5t-53 3.5q-41 0 -75 -11.5t-58 -39.5t-37.5 -75t-13.5 -118t13 -117.5t36.5 -73.5t56.5 -38t74 -11h17.5t15.5 1l16 2v176h-109q-3 6 -5 15
q-5 17 -5 45t5 46q2 9 5 16h259v-390q-23 -11 -55 -20q-27 -8 -67 -14t-91 -6q-162 0 -247 94t-85 276z" />
    <glyph glyph-name="Gbreve" unicode="&#x11e;" horiz-adv-x="637" 
d="M552 840q-17 -20 -42 -36q-21 -14 -53.5 -24.5t-77.5 -10.5t-78 10.5t-54 24.5q-26 16 -42 36q8 20 25.5 38.5t40.5 26.5q12 -8 28 -13q14 -5 34 -9t46 -4t46 4t34 9q16 5 28 13q23 -8 40 -26.5t25 -38.5zM373 -10q-162 0 -247 94t-85 276t85 276t247 94q50 0 87 -6
t63 -14q30 -9 52 -20q0 -32 -12 -61t-33 -50q-20 7 -42 12q-20 5 -44.5 8.5t-52.5 3.5q-41 0 -75 -11.5t-58.5 -39.5t-38 -75t-13.5 -118t13 -117.5t36.5 -73.5t57 -38t74.5 -11h17.5t15.5 1l16 2v176h-109q-3 6 -5 15q-5 17 -5 45t5 46q2 9 5 16h258v-390q-23 -11 -55 -20
q-27 -8 -66.5 -14t-90.5 -6z" />
    <glyph glyph-name="Gcircumflex" unicode="&#x11c;" horiz-adv-x="637" 
d="M550 818q-11 -23 -28.5 -41t-39.5 -27l-107 67l-106 -66q-23 9 -40 26.5t-28 40.5l156 132h36zM373 -10q-162 0 -247 94t-85 276t85 276t247 94q49 0 86.5 -6t63.5 -14q30 -9 52 -20q-1 -32 -12.5 -61t-32.5 -50q-19 7 -42 12q-20 5 -45 8.5t-53 3.5q-41 0 -75 -11.5
t-58 -39.5t-37.5 -75t-13.5 -118t13 -117.5t36.5 -73.5t57 -38t74.5 -11h17.5t15.5 1q8 1 15 2v176h-108q-3 6 -6 15q-5 17 -5 45t5 46q3 9 6 16h258v-390q-23 -11 -55 -20q-27 -8 -66.5 -14t-90.5 -6z" />
    <glyph glyph-name="Gcommaaccent" unicode="&#x122;" horiz-adv-x="637" 
d="M373 -10q-162 0 -247 94t-85 276t85 276t247 94q50 0 87 -6t63 -14q30 -9 52 -20q0 -32 -12 -61t-33 -50q-20 7 -42 12q-20 5 -44.5 8.5t-52.5 3.5q-41 0 -75 -11.5t-58.5 -39.5t-38 -75t-13.5 -118t13 -117.5t36.5 -73.5t57 -38t74.5 -11h17.5t15.5 1l16 2v176h-109
q-3 6 -5 15q-5 17 -5 45t5 46q2 9 5 16h258v-390q-23 -11 -55 -20q-27 -8 -66.5 -14t-90.5 -6zM305 -293q9 11 18 27q7 13 13.5 32t8.5 44q-12 1 -21.5 1.5t-16.5 2.5q-8 1 -14 3v134q9 2 21 4q11 2 25.5 3t34.5 1t34.5 -1t25.5 -3q12 -2 22 -4v-96q0 -45 -15 -79t-32 -57
q-20 -27 -46 -47z" />
    <glyph glyph-name="Gdotaccent" unicode="&#x120;" horiz-adv-x="637" 
d="M442 776q-7 -2 -18 -4q-18 -3 -51 -3q-35 0 -53 3q-11 2 -17 4v128q6 1 17 3q9 2 22 3t31 1q17 0 29.5 -1t21.5 -3l18 -3v-128zM373 -10q-162 0 -247 94t-85 276t85 276t247 94q50 0 87 -6t63 -14q30 -9 52 -20q0 -32 -12 -61t-33 -50q-20 7 -42 12q-20 5 -44.5 8.5
t-52.5 3.5q-41 0 -75 -11.5t-58.5 -39.5t-38 -75t-13.5 -118t13 -117.5t36.5 -73.5t57 -38t74.5 -11h17.5t15.5 1l16 2v176h-109q-3 6 -5 15q-5 17 -5 45t5 46q2 9 5 16h258v-390q-23 -11 -55 -20q-27 -8 -66.5 -14t-90.5 -6z" />
    <glyph glyph-name="H" unicode="H" horiz-adv-x="681" 
d="M453 711q10 2 22 4q11 2 25 3.5t33 1.5q18 0 32.5 -1.5t25.5 -3.5q12 -2 22 -4v-702q-9 -3 -21 -5q-11 -2 -25.5 -3t-32.5 -1q-20 0 -35.5 1t-25.5 3q-12 2 -20 5v295h-225v-295q-10 -3 -22 -5q-11 -2 -25.5 -3t-32.5 -1q-20 0 -35 1t-25 3q-11 2 -20 5v702q9 2 21 4
q11 2 25 3.5t33 1.5t33.5 -1.5t25.5 -3.5q12 -2 22 -4v-277h225v277z" />
    <glyph glyph-name="Hbar" unicode="&#x126;" horiz-adv-x="715" 
d="M694 622q7 -20 6.5 -46.5t-6.5 -46.5h-64v-520q-9 -3 -21 -5q-11 -2 -25.5 -3t-32.5 -1q-20 0 -35.5 1t-25.5 3q-12 2 -20 5v295h-225v-295q-10 -3 -22 -5q-11 -2 -25.5 -3t-32.5 -1q-20 0 -35 1t-25 3q-11 2 -20 5v520h-65q-6 23 -6 48t6 45h65v89q9 2 21 4q11 2 25 3.5
t33 1.5t33.5 -1.5t25.5 -3.5q12 -2 22 -4v-89h225v89q10 2 22 4q11 2 25 3.5t33 1.5q18 0 32.5 -1.5t25.5 -3.5q12 -2 22 -4v-89h64zM245 434h225v95h-225v-95z" />
    <glyph glyph-name="Hcircumflex" unicode="&#x124;" horiz-adv-x="681" 
d="M522 818q-11 -23 -28.5 -41t-40.5 -27l-106 67l-106 -66q-23 9 -40 26.5t-28 40.5l156 132h36zM454 711q9 2 21 4q11 2 25 3.5t33 1.5q18 0 32.5 -1.5t25.5 -3.5q12 -2 22 -4v-702q-9 -3 -21 -5q-11 -2 -25.5 -3t-32.5 -1q-20 0 -35 1t-25 3q-11 2 -20 5v295h-226v-295
q-10 -3 -22 -5q-11 -2 -25.5 -3t-32.5 -1q-20 0 -34.5 1t-24.5 3q-11 2 -20 5v702l21 4q10 2 24 3.5t33 1.5t33.5 -1.5t25.5 -3.5q12 -2 22 -4v-277h226v277z" />
    <glyph glyph-name="I" unicode="I" horiz-adv-x="296" 
d="M68 711q9 2 21 4q11 2 25 3.5t33 1.5t33.5 -1.5t25.5 -3.5q12 -2 22 -4v-702q-10 -3 -22 -5q-11 -2 -25.5 -3t-32.5 -1q-20 0 -35 1t-25 3q-11 2 -20 5v702z" />
    <glyph glyph-name="IJ" unicode="&#x132;" horiz-adv-x="750" 
d="M69 711q9 2 21 4q11 2 25 3.5t33 1.5t33.5 -1.5t25.5 -3.5q12 -2 22 -4v-702q-10 -3 -22 -5q-11 -2 -25.5 -3t-32.5 -1q-20 0 -35 1t-25 3q-11 2 -20 5v702zM525 711q9 2 20 4q10 2 25 3.5t35 1.5q19 0 33.5 -1.5t25.5 -3.5q12 -2 21 -4v-510q0 -53 -16 -92.5t-45 -66
t-69.5 -39.5t-90.5 -13q-38 0 -68.5 5t-52.5 12q-26 7 -46 17q-1 31 9.5 62t31.5 53q12 -4 27 -8q12 -3 28.5 -5.5t33.5 -2.5q44 0 71 21t27 75v492z" />
    <glyph glyph-name="Iacute" unicode="&#xcd;" horiz-adv-x="296" 
d="M139 750q-26 5 -48.5 15.5t-36.5 28.5l91 148q18 2 38 -1.5t38 -10.5t32.5 -17.5t22.5 -22.5zM68 711q9 2 21 4q11 2 25 3.5t33 1.5t33.5 -1.5t25.5 -3.5q12 -2 22 -4v-702q-10 -3 -22 -5q-11 -2 -25.5 -3t-32.5 -1q-20 0 -35 1t-25 3q-11 2 -20 5v702z" />
    <glyph glyph-name="Ibreve" unicode="&#x12c;" horiz-adv-x="296" 
d="M319 840q-17 -20 -42 -36q-21 -14 -53.5 -24.5t-77.5 -10.5t-78 10.5t-54 24.5q-26 16 -42 36q8 20 25.5 38.5t40.5 26.5q12 -8 28 -13q14 -5 34 -9t46 -4t46 4t34 9q16 5 28 13q23 -8 40 -26.5t25 -38.5zM68 711q9 2 21 4q11 2 25 3.5t33 1.5t33.5 -1.5t25.5 -3.5
q12 -2 22 -4v-702q-10 -3 -22 -5q-11 -2 -25.5 -3t-32.5 -1q-20 0 -35 1t-25 3q-11 2 -20 5v702z" />
    <glyph glyph-name="Icircumflex" unicode="&#xce;" horiz-adv-x="296" 
d="M324 818q-11 -23 -28 -41t-40 -27l-106 67l-106 -66q-23 9 -40 26.5t-28 40.5l155 132h36zM69 711l21 4q10 2 24 3.5t33 1.5t33.5 -1.5t25.5 -3.5q12 -2 22 -4v-702q-10 -3 -22 -5q-11 -2 -25.5 -3t-32.5 -1q-20 0 -34.5 1t-24.5 3q-11 2 -20 5v702z" />
    <glyph glyph-name="Idieresis" unicode="&#xcf;" horiz-adv-x="295" 
d="M113 757q-7 -2 -17 -4q-17 -3 -49 -3q-33 0 -49 3q-10 2 -17 4v115q6 1 16 3q8 2 20.5 3t29.5 1q16 0 28.5 -1t20.5 -3q10 -2 17 -3v-115zM310 757q-7 -2 -17 -4q-17 -3 -49 -3q-34 0 -50 3q-10 2 -16 4v115q6 1 16 3q8 2 20.5 3t29.5 1q16 0 28.5 -1t20.5 -3
q10 -2 17 -3v-115zM68 711q9 2 21 4q11 2 25 3.5t33 1.5t33.5 -1.5t25.5 -3.5q12 -2 21 -4v-702q-10 -3 -22 -5q-11 -2 -25 -3t-32 -1q-20 0 -35 1t-25 3q-11 2 -20 5v702z" />
    <glyph glyph-name="Idotaccent" unicode="&#x130;" horiz-adv-x="296" 
d="M72 886q8 2 19 4q10 2 24 3t34 1q18 0 32.5 -1t24.5 -3q11 -2 20 -4v-135q-9 -2 -20 -4q-10 -2 -24.5 -3t-32.5 -1q-20 0 -34 1t-24 3q-11 2 -19 4v135zM68 711q9 2 21 4q11 2 25 3.5t33 1.5t33.5 -1.5t25.5 -3.5q12 -2 22 -4v-702q-10 -3 -22 -5q-11 -2 -25.5 -3
t-32.5 -1q-20 0 -35 1t-25 3q-11 2 -20 5v702z" />
    <glyph glyph-name="Igrave" unicode="&#xcc;" horiz-adv-x="296" 
d="M13 888q8 13 22.5 23.5t32.5 17.5t38 10t38 1l91 -147q-14 -19 -36.5 -29t-48.5 -15zM68 711q9 2 21 4q11 2 25 3.5t33 1.5t33.5 -1.5t25.5 -3.5q12 -2 22 -4v-702q-10 -3 -22 -5q-11 -2 -25.5 -3t-32.5 -1q-20 0 -35 1t-25 3q-11 2 -20 5v702z" />
    <glyph glyph-name="Imacron" unicode="&#x12a;" horiz-adv-x="296" 
d="M-6 750q-6 22 -6 47t6 44h311q6 -20 5.5 -45.5t-5.5 -45.5h-311zM68 711q9 2 21 4q11 2 25 3.5t33 1.5t33.5 -1.5t25.5 -3.5q12 -2 22 -4v-702q-10 -3 -22 -5q-11 -2 -25.5 -3t-32.5 -1q-20 0 -35 1t-25 3q-11 2 -20 5v702z" />
    <glyph glyph-name="Iogonek" unicode="&#x12e;" horiz-adv-x="296" 
d="M228 9q-30 -42 -43 -77.5t-7 -60.5q8 -33 49 -13q6 -6 11.5 -16t9.5 -22t6 -23.5t2 -19.5q-18 -12 -46 -19.5t-59 -7.5q-48 0 -74 19.5t-31 52.5q-8 44 10.5 91t66.5 89q-20 1 -32.5 3t-22.5 4v702q9 2 21 4q11 2 25 3.5t33 1.5t33.5 -1.5t25.5 -3.5q12 -2 22 -4v-702v0z
" />
    <glyph glyph-name="Itilde" unicode="&#x128;" horiz-adv-x="296" 
d="M209 849q13 0 22 3.5t16 8.5t13 13q21 -11 34 -31.5t16 -42.5q-11 -14 -26 -25q-13 -10 -32 -17.5t-43 -7.5t-39.5 5t-28.5 10.5l-26 10.5t-31 5q-13 0 -22 -4t-16 -9q-8 -5 -13 -12q-23 12 -35.5 31.5t-14.5 42.5q11 14 27 25q13 9 32 17t42 8q24 0 39.5 -5t28.5 -10.5
l26 -10.5t31 -5zM68 711q9 2 21 4q11 2 25 3.5t33 1.5t33.5 -1.5t25.5 -3.5q12 -2 22 -4v-702q-10 -3 -22 -5q-11 -2 -25.5 -3t-32.5 -1q-20 0 -35 1t-25 3q-11 2 -20 5v702z" />
    <glyph glyph-name="J" unicode="J" horiz-adv-x="465" 
d="M240 711q9 2 20 4q10 2 25 3.5t35 1.5q19 0 33.5 -1.5t25.5 -3.5q12 -2 21 -4v-507q0 -53 -16 -93t-45 -67t-70 -40.5t-91 -13.5q-38 0 -68 5t-52 12q-26 7 -46 17q-1 31 9.5 62t31.5 53l27 -8q12 -3 28 -5.5t33 -2.5q45 0 72 21t27 75v492z" />
    <glyph glyph-name="Jcircumflex" unicode="&#x134;" horiz-adv-x="465" 
d="M495 818q-11 -23 -28.5 -41t-39.5 -27l-107 67l-106 -66q-22 9 -39.5 26.5t-28.5 40.5l156 132h36zM240 711q9 2 20 4q10 2 25 3.5t35 1.5q19 0 33.5 -1.5t25.5 -3.5q12 -2 21 -4v-507q0 -53 -16 -93t-45 -67t-70 -40.5t-91 -13.5q-38 0 -68 5t-52 12q-26 7 -46 17
q-1 31 9.5 62t31.5 53l27 -8q12 -3 28 -5.5t33 -2.5q45 0 72 21t27 75v492z" />
    <glyph glyph-name="K" unicode="K" horiz-adv-x="630" 
d="M438 711q17 4 35.5 6.5t44.5 2.5t46.5 -2.5t38.5 -6.5l-200 -323l231 -379q-12 -3 -26 -5q-12 -2 -29.5 -3t-38.5 -1t-37.5 1t-27.5 3q-13 2 -23 5l-186 305h-38v-305q-8 -3 -19 -5q-10 -2 -25.5 -3t-35.5 -1t-34 1t-25 3q-12 2 -21 5v702q9 2 21 4q11 2 25.5 3.5
t34.5 1.5q19 0 34 -1.5t25 -3.5q11 -2 20 -4v-277h38z" />
    <glyph glyph-name="Kcommaaccent" unicode="&#x136;" horiz-adv-x="629" 
d="M438 711q16 4 35 6.5t45 2.5t46.5 -2.5t38.5 -6.5l-200 -323l230 -379q-11 -3 -25 -5q-12 -2 -29.5 -3t-38.5 -1t-37.5 1t-27.5 3q-13 2 -23 5l-186 305h-39v-305q-8 -3 -19 -5q-10 -2 -25 -3t-35 -1t-34 1t-25 3q-12 2 -21 5v702q9 2 21 4q11 2 25.5 3.5t34.5 1.5
q19 0 33.5 -1.5t24.5 -3.5q11 -2 20 -4v-277h39zM268 -309q10 12 18 29q7 14 13 34.5t8 46.5q-11 1 -20 2t-16 3q-8 2 -14 3v143q9 2 20 4q10 2 24 3t33 1q18 0 32 -1t24 -3l21 -4v-103q0 -48 -13.5 -84.5t-30.5 -61.5q-19 -29 -44 -50z" />
    <glyph glyph-name="L" unicode="L" horiz-adv-x="532" 
d="M69 711q9 2 21 4q11 2 25 3.5t33 1.5t33.5 -1.5t25.5 -3.5q12 -2 22 -4v-581h280q5 -15 7.5 -31.5t2.5 -33.5t-2.5 -33t-7.5 -32h-440v711z" />
    <glyph glyph-name="Lacute" unicode="&#x139;" horiz-adv-x="531" 
d="M139 750q-26 5 -48.5 15.5t-36.5 28.5l91 148q18 2 38 -1.5t38 -10.5t32.5 -17.5t22.5 -22.5zM69 711q9 2 21 4q11 2 25 3.5t33 1.5t33.5 -1.5t25.5 -3.5q12 -2 21 -4v-581h280q5 -15 7.5 -31.5t2.5 -33.5t-2.5 -33t-7.5 -32h-439v711z" />
    <glyph glyph-name="Lcaron" unicode="&#x13d;" horiz-adv-x="531" 
d="M331 571q-20 2 -38 12t-27 25q16 16 27.5 31.5t18.5 31.5t10.5 35t4.5 43q35 2 67 -4t52 -23q-11 -54 -42 -95.5t-73 -55.5zM69 711q9 2 21 4q11 2 25 3.5t33 1.5t33.5 -1.5t25.5 -3.5q12 -2 21 -4v-581h280q5 -15 7.5 -31.5t2.5 -33.5t-2.5 -33t-7.5 -32h-439v711z" />
    <glyph glyph-name="Lcommaaccent" unicode="&#x13b;" horiz-adv-x="531" 
d="M69 711q9 2 21 4q11 2 25 3.5t33 1.5t33.5 -1.5t25.5 -3.5q12 -2 21 -4v-581h280q5 -15 7.5 -31.5t2.5 -33.5t-2.5 -33t-7.5 -32h-439v711zM225 -309q10 12 18 29q7 14 13 34.5t8 46.5q-11 1 -20 2t-16 3q-8 2 -14 3v143q9 2 20 4q10 2 24 3t33 1q18 0 32 -1t24 -3l21 -4
v-103q0 -48 -13.5 -84.5t-30.5 -61.5q-19 -29 -44 -50z" />
    <glyph glyph-name="Ldot" unicode="&#x13f;" horiz-adv-x="541" 
d="M69 711q9 2 21 4q11 2 25 3.5t33 1.5t33.5 -1.5t25.5 -3.5q12 -2 21 -4v-581h280q5 -15 7.5 -31.5t2.5 -33.5t-2.5 -33t-7.5 -32h-439v711zM467 273q-8 -2 -18 -4q-9 -2 -21 -3t-29 -1t-30 1t-21 3q-10 2 -16 4v124q6 2 16 4q8 2 21 3t30 1t29 -1t21 -3q10 -2 18 -4v-124
z" />
    <glyph glyph-name="Lslash" unicode="&#x141;" horiz-adv-x="562" 
d="M100 711q9 2 21 4q11 2 25 3.5t33 1.5t33.5 -1.5t25.5 -3.5q12 -2 21 -4v-232l93 54q16 -17 27.5 -36t17.5 -42l-138 -80v-245h280q5 -15 7.5 -31.5t2.5 -33.5t-2.5 -33t-7.5 -32h-439v283l-61 -35q-17 17 -27.5 36.5t-17.5 41.5l106 61v324v0z" />
    <glyph glyph-name="M" unicode="M" horiz-adv-x="829" 
d="M559 711q13 3 38.5 6t58.5 3q16 0 33 -1t31.5 -2.5t25 -3t15.5 -2.5v-702q-9 -3 -20 -5q-10 -2 -24 -3t-32 -1q-19 0 -33.5 1t-24.5 3q-11 2 -20 5v210q0 44 1 91.5t3 91t4 79t5 55.5h-6l-14 -43t-21 -59.5l-25.5 -66.5l-26.5 -65l-65 -153q-6 -2 -15 -4q-15 -3 -42 -3
t-40 3q-8 2 -13 4l-32 73.5l-31 73.5l-28.5 68.5t-26.5 68.5l-21.5 60t-13.5 43h-6q4 -18 7 -50.5t5 -74t3.5 -87.5t1.5 -89v-226q-8 -3 -19 -5q-9 -2 -22 -3t-30 -1t-30 1t-22 3q-11 2 -19 5v702q13 2 40.5 5.5t57.5 3.5q20 0 37.5 -1.5t30.5 -3.5q15 -2 27 -4l79 -184
q23 -54 41.5 -104.5t27.5 -88.5h5q5 24 13 52.5t21 61.5l54.5 131z" />
    <glyph glyph-name="N" unicode="N" horiz-adv-x="701" 
d="M262 374q-14 32 -24.5 62.5l-18.5 53.5q-9 27 -16 52h-5q2 -25 5 -55q2 -26 3.5 -60.5t1.5 -75.5v-342q-7 -3 -18 -5q-9 -2 -22 -3t-31 -1t-31 1t-21 3q-10 2 -17 5v702q10 2 25 4q13 2 32 3.5t45 1.5t44.5 -1.5t30.5 -3.5q14 -2 24 -4l166 -362q14 -32 25.5 -63.5
t19.5 -57.5q10 -30 17 -58h4q-3 28 -5 61q-2 28 -3 64.5t-1 77.5v338q8 2 19 4q9 2 22.5 3.5t30.5 1.5t30.5 -1.5t21.5 -3.5q10 -2 17 -4v-702q-10 -3 -24 -5q-12 -2 -31 -3t-45 -1q-24 0 -43 1t-32 3q-15 2 -26 5z" />
    <glyph glyph-name="Nacute" unicode="&#x143;" horiz-adv-x="701" 
d="M364 750q-26 5 -49 15.5t-37 28.5l91 148q18 2 38 -1.5t38 -10.5t32.5 -17.5t22.5 -22.5zM262 374q-14 32 -25 62.5l-19 53.5q-9 27 -16 52h-4q2 -25 5 -55q2 -26 3.5 -60.5t1.5 -75.5v-342q-7 -3 -18 -5q-9 -2 -22.5 -3t-31.5 -1t-31 1t-21 3q-10 2 -16 5v702q10 2 25 4
q13 2 31.5 3.5t44.5 1.5t44.5 -1.5t30.5 -3.5q14 -2 24 -4l166 -362q14 -32 26 -63.5t20 -57.5q10 -30 17 -58h4q-3 28 -5 61q-2 28 -3 64.5t-1 77.5v338q8 2 19 4q9 2 22 3.5t30 1.5q18 0 31 -1.5t21 -3.5q10 -2 17 -4v-702q-10 -3 -24 -5q-12 -2 -30.5 -3t-44.5 -1
q-25 0 -43.5 1t-31.5 3q-15 2 -26 5z" />
    <glyph glyph-name="Ncaron" unicode="&#x147;" horiz-adv-x="701" 
d="M186 882q11 23 28 41t40 27l107 -67l105 66q23 -9 40 -26.5t28 -40.5l-155 -132h-36zM262 374q-14 32 -25 62.5l-19 53.5q-9 27 -16 52h-4q2 -25 5 -55q2 -26 3.5 -60.5t1.5 -75.5v-342q-7 -3 -18 -5q-9 -2 -22.5 -3t-31.5 -1t-31 1t-21 3q-10 2 -16 5v702q10 2 25 4
q13 2 31.5 3.5t44.5 1.5t44.5 -1.5t30.5 -3.5q14 -2 24 -4l166 -362q14 -32 26 -63.5t20 -57.5q10 -30 17 -58h4q-3 28 -5 61q-2 28 -3 64.5t-1 77.5v338q8 2 19 4q9 2 22 3.5t30 1.5q18 0 31 -1.5t21 -3.5q10 -2 17 -4v-702q-10 -3 -24 -5q-12 -2 -30.5 -3t-44.5 -1
q-25 0 -43.5 1t-31.5 3q-15 2 -26 5z" />
    <glyph glyph-name="Ncommaaccent" unicode="&#x145;" horiz-adv-x="700" 
d="M262 374q-14 32 -25 62.5l-19 53.5q-9 27 -16 52h-4q2 -25 5 -55q2 -26 3.5 -60.5t1.5 -75.5v-342q-7 -3 -18 -5q-9 -2 -22.5 -3t-31.5 -1t-31 1t-21 3q-10 2 -16 5v702q10 2 25 4q13 2 31.5 3.5t44.5 1.5t44.5 -1.5t30.5 -3.5q14 -2 24 -4l166 -362q14 -32 26 -63.5
t20 -57.5q10 -30 17 -58h4q-3 28 -5 61q-2 28 -3 64.5t-1 77.5v338q8 2 19 4q9 2 22 3.5t30 1.5q18 0 31 -1.5t21 -3.5q10 -2 17 -4v-702q-10 -3 -24 -5q-12 -2 -30.5 -3t-44.5 -1q-25 0 -43.5 1t-31.5 3q-15 2 -26 5zM290 -309q10 12 18 29q7 14 13 34.5t8 46.5
q-11 1 -20 2t-16 3q-8 2 -14 3v143q9 2 20 4q10 2 24 3t33 1q18 0 32 -1t24 -3l21 -4v-103q0 -48 -13.5 -84.5t-30.5 -61.5q-19 -29 -44 -50z" />
    <glyph glyph-name="Ntilde" unicode="&#xd1;" horiz-adv-x="700" 
d="M428 852q14 0 23.5 4t16.5 9q8 5 13 13q22 -11 35 -32.5t16 -44.5q-11 -15 -27 -26q-14 -10 -33 -17.5t-44 -7.5q-24 0 -40 5t-29.5 11t-27 11t-31.5 5q-13 0 -22 -4t-16 -9q-8 -6 -14 -13q-46 25 -51 77q11 14 27 25q14 10 33 18t43 8t40.5 -5t29.5 -11t26.5 -11
t31.5 -5zM262 374q-14 32 -25 62.5l-19 53.5q-9 27 -16 52h-5q2 -25 5 -55q2 -26 4 -60.5t2 -75.5v-342q-7 -3 -18 -5q-9 -2 -22.5 -3t-31.5 -1t-31 1t-21 3q-10 2 -16 5v702q10 2 25 4q13 2 31.5 3.5t44.5 1.5t44.5 -1.5t30.5 -3.5q14 -2 24 -4l166 -362q14 -32 25.5 -63.5
t19.5 -57.5q10 -30 17 -58h5q-3 28 -5 61q-2 28 -3 64.5t-1 77.5v338q8 2 19 4q9 2 22 3.5t30 1.5t30.5 -1.5t21.5 -3.5q10 -2 17 -4v-702q-10 -3 -24 -5q-12 -2 -30.5 -3t-44.5 -1q-25 0 -43.5 1t-31.5 3q-15 2 -27 5z" />
    <glyph glyph-name="O" unicode="O" horiz-adv-x="689" 
d="M42 360q0 96 21.5 166.5t61 116t95.5 67.5t125 22t125 -21.5t95 -67t60.5 -116t21.5 -167.5q0 -98 -21 -168t-60 -115.5t-95 -67t-126 -21.5t-126 21.5t-95.5 67t-60.5 115.5t-21 168zM478 360q0 75 -9 122.5t-26.5 75.5t-42 38.5t-55.5 10.5t-55.5 -10.5t-42 -38.5
t-26.5 -75.5t-9 -122.5q0 -74 9 -122t26.5 -75.5t42 -38t55.5 -10.5t55.5 10.5t42 38t26.5 75.5t9 122z" />
    <glyph glyph-name="OE" unicode="&#x152;" horiz-adv-x="893" 
d="M42 360q0 97 21 167t60 115t95.5 66.5t127.5 21.5q23 0 46 -2.5t45 -7.5h405q5 -12 7.5 -27.5t2.5 -32.5t-2.5 -32.5t-7.5 -27.5h-248v-176h198q5 -12 7.5 -27.5t2.5 -32.5t-2.5 -33t-7.5 -28h-198v-182h258q10 -28 10 -61q0 -17 -2.5 -32.5t-7.5 -27.5h-416
q-22 -5 -44.5 -7.5t-45.5 -2.5q-71 0 -127.5 22t-95.5 67t-60 115t-21 166zM438 585q-46 22 -92 22q-33 0 -59.5 -10.5t-44.5 -38t-28 -75.5t-10 -123t10 -123t28 -75.5t44.5 -37.5t59.5 -10q23 0 46.5 5t45.5 16v450z" />
    <glyph glyph-name="Oacute" unicode="&#xd3;" horiz-adv-x="689" 
d="M392 961q18 2 38 -1t38 -10t32.5 -17.5t22.5 -23.5l-136 -139q-26 5 -49 15t-37 29zM42 360q0 96 21.5 166.5t60.5 116t95 67.5t125 22t125 -21.5t95.5 -67t61 -116t21.5 -167.5q0 -98 -21 -168t-60.5 -115.5t-95.5 -67t-126 -21.5t-126 21.5t-95 67t-60 115.5t-21 168z
M477 360q0 75 -9 122.5t-26 75.5t-42 38.5t-56 10.5q-30 0 -54.5 -10.5t-42 -38.5t-26.5 -75.5t-9 -122.5q0 -74 9 -122t26.5 -75.5t42 -38t54.5 -10.5q31 0 56 10.5t42 38t26 75.5t9 122z" />
    <glyph glyph-name="Obreve" unicode="&#x14e;" horiz-adv-x="689" 
d="M346 879q26 0 46 4t34 9q16 5 28 13q23 -8 40 -26.5t25 -38.5q-17 -20 -42 -36q-21 -14 -53.5 -24.5t-77.5 -10.5t-78 10.5t-54 24.5q-26 16 -42 36q8 20 25.5 38.5t40.5 26.5q12 -8 28 -13q14 -5 34 -9t46 -4zM42 360q0 96 21.5 166.5t60.5 116t95 67.5t125 22
t125 -21.5t95.5 -67t61 -116t21.5 -167.5q0 -98 -21 -168t-60.5 -115.5t-95.5 -67t-126 -21.5t-126 21.5t-95 67t-60 115.5t-21 168zM477 360q0 75 -9 122.5t-26 75.5t-42 38.5t-56 10.5q-30 0 -54.5 -10.5t-42 -38.5t-26.5 -75.5t-9 -122.5q0 -74 9 -122t26.5 -75.5t42 -38
t54.5 -10.5q31 0 56 10.5t42 38t26 75.5t9 122z" />
    <glyph glyph-name="Ocircumflex" unicode="&#xd4;" horiz-adv-x="688" 
d="M519 818q-11 -23 -28 -41t-40 -27l-107 67l-105 -66q-23 9 -40 26.5t-28 40.5l155 132h36zM41 360q0 96 21.5 166.5t61 116t95.5 67.5t125 22t125 -21.5t95.5 -67t60.5 -116t21 -167.5q0 -98 -21 -168t-60 -115.5t-95 -67t-126 -21.5t-126 21.5t-95.5 67t-60.5 115.5
t-21 168zM477 360q0 75 -9 122.5t-26.5 75.5t-42 38.5t-55.5 10.5t-55.5 -10.5t-42 -38.5t-26.5 -75.5t-9 -122.5q0 -74 9 -122t26.5 -75.5t42 -38t55.5 -10.5t55.5 10.5t42 38t26.5 75.5t9 122z" />
    <glyph glyph-name="Odieresis" unicode="&#xd6;" horiz-adv-x="689" 
d="M182 883q6 1 16 3q8 2 20.5 3t29.5 1q16 0 28.5 -1t20.5 -3q10 -2 17 -3v-115q-7 -2 -17 -4q-17 -3 -49 -3q-34 0 -50 3q-10 2 -16 4v115zM378 883q6 1 16 3q8 2 20.5 3t29.5 1q16 0 28.5 -1t20.5 -3q10 -2 17 -3v-115q-7 -2 -17 -4q-17 -3 -49 -3q-33 0 -49 3
q-10 2 -17 4v115zM42 360q0 96 21.5 166.5t60.5 116t95 67.5t125 22t125 -21.5t95.5 -67t61 -116t21.5 -167.5q0 -98 -21 -168t-60.5 -115.5t-95.5 -67t-126 -21.5t-126 21.5t-95 67t-60 115.5t-21 168zM477 360q0 75 -9 122.5t-26 75.5t-42 38.5t-56 10.5
q-30 0 -54.5 -10.5t-42 -38.5t-26.5 -75.5t-9 -122.5q0 -74 9 -122t26.5 -75.5t42 -38t54.5 -10.5q31 0 56 10.5t42 38t26 75.5t9 122z" />
    <glyph glyph-name="Ograve" unicode="&#xd2;" horiz-adv-x="689" 
d="M439 796q-14 -18 -36.5 -28.5t-48.5 -14.5l-137 139q8 13 22.5 23.5t32.5 17.5t38 10t38 1zM42 360q0 96 21.5 166.5t60.5 116t95 67.5t125 22t125 -21.5t95.5 -67t61 -116t21.5 -167.5q0 -98 -21 -168t-60.5 -115.5t-95.5 -67t-126 -21.5t-126 21.5t-95 67t-60 115.5
t-21 168zM477 360q0 75 -9 122.5t-26 75.5t-42 38.5t-56 10.5q-30 0 -54.5 -10.5t-42 -38.5t-26.5 -75.5t-9 -122.5q0 -74 9 -122t26.5 -75.5t42 -38t54.5 -10.5q31 0 56 10.5t42 38t26 75.5t9 122z" />
    <glyph glyph-name="Ohungarumlaut" unicode="&#x150;" horiz-adv-x="689" 
d="M270 937q18 2 36.5 -1t36 -10t31.5 -17t22 -22l-132 -133q-25 4 -46.5 14t-34.5 27zM455 937q18 2 36.5 -1t36 -10t31 -17t21.5 -22l-130 -133q-25 4 -47 14t-35 27zM42 360q0 96 21.5 166.5t60.5 116t95 67.5t125 22t125 -21.5t95.5 -67t61 -116t21.5 -167.5
q0 -98 -21 -168t-60.5 -115.5t-95.5 -67t-126 -21.5t-126 21.5t-95 67t-60 115.5t-21 168zM477 360q0 75 -9 122.5t-26 75.5t-42 38.5t-56 10.5q-30 0 -54.5 -10.5t-42 -38.5t-26.5 -75.5t-9 -122.5q0 -74 9 -122t26.5 -75.5t42 -38t54.5 -10.5q31 0 56 10.5t42 38t26 75.5
t9 122z" />
    <glyph glyph-name="Omacron" unicode="&#x14c;" horiz-adv-x="689" 
d="M494 870q5 -20 5 -45.5t-5 -45.5h-299q-5 22 -5 46.5t5 44.5h299zM42 360q0 96 21 166.5t60.5 116t95.5 67.5t125 22t125 -21.5t95.5 -67t61 -116t21.5 -167.5q0 -98 -21 -168t-60.5 -115.5t-95.5 -67t-126 -21.5t-126 21.5t-95 67t-60 115.5t-21 168zM477 360
q0 75 -9 122.5t-26 75.5t-42 38.5t-56 10.5q-30 0 -54.5 -10.5t-42 -38.5t-26.5 -75.5t-9 -122.5q0 -74 9 -122t26.5 -75.5t42 -38t54.5 -10.5q31 0 56 10.5t42 38t26 75.5t9 122z" />
    <glyph glyph-name="Omega" unicode="&#x2126;" horiz-adv-x="735" 
d="M64 380q0 92 21 158.5t60 109t95.5 62.5t127.5 20t127.5 -20t96 -62.5t60.5 -109t21 -158.5q0 -81 -24 -143.5t-60 -108.5h97q5 -16 7.5 -32t2.5 -32q0 -17 -2.5 -33t-7.5 -31h-267q-11 27 -11 63.5t11 64.5q19 18 35.5 41.5t29 54t20 69t7.5 87.5q0 68 -10 112
t-28.5 69.5t-45 35.5t-59.5 10t-59.5 -10t-44.5 -35.5t-28 -69.5t-10 -112q0 -49 7.5 -87.5t20 -69t29 -54t35.5 -41.5q10 -28 10 -63t-10 -65h-267q-12 28 -12 63q0 17 2.5 33.5t9.5 31.5h96q-37 46 -60 108.5t-23 143.5z" />
    <glyph glyph-name="Oslash" unicode="&#xd8;" horiz-adv-x="688" 
d="M525 773q30 -1 57.5 -15t44.5 -34l-55 -90q36 -46 55 -113.5t19 -160.5q0 -98 -21 -168t-60 -115.5t-95 -67t-126 -21.5q-86 0 -147 32l-44 -73q-29 1 -57.5 14t-45.5 36l59 96q-33 45 -50.5 111t-17.5 156q0 96 21.5 166.5t61 116t95.5 67.5t125 22q77 0 138 -29z
M418 585q-16 12 -34.5 17t-39.5 5q-31 0 -55.5 -10.5t-42 -38.5t-26.5 -75.5t-9 -122.5q0 -30 1.5 -55t6.5 -45zM267 138q15 -14 34.5 -19t42.5 -5q31 0 55.5 10.5t42 38t26.5 75.5t9 122q0 33 -2.5 59.5t-7.5 48.5z" />
    <glyph glyph-name="Oslashacute" unicode="&#x1fe;" horiz-adv-x="688" 
d="M383 770q-26 5 -49 15t-37 29l91 147q18 2 38 -1t38 -10t32.5 -17.5t22.5 -23.5zM525 773q30 -1 57.5 -15t44.5 -34l-55 -90q36 -46 55 -113.5t19 -160.5q0 -98 -21 -168t-60 -115.5t-95 -67t-126 -21.5q-86 0 -147 32l-44 -73q-29 1 -57.5 14t-45.5 36l59 96
q-33 45 -50.5 111t-17.5 156q0 96 21.5 166.5t61 116t95.5 67.5t125 22q77 0 138 -29zM418 585q-16 12 -34.5 17t-39.5 5q-31 0 -55.5 -10.5t-42 -38.5t-26.5 -75.5t-9 -122.5q0 -30 1.5 -55t6.5 -45zM267 138q15 -14 34.5 -19t42.5 -5q31 0 55.5 10.5t42 38t26.5 75.5
t9 122q0 33 -2.5 59.5t-7.5 48.5z" />
    <glyph glyph-name="Otilde" unicode="&#xd5;" horiz-adv-x="689" 
d="M412 870q13 1 23 5.5t16 9.5q7 6 12 13q22 -10 36 -31t18 -43q-11 -16 -26 -27q-13 -11 -32 -19t-44 -9q-21 -1 -37 3.5t-30.5 10t-29 10t-32.5 4.5q-13 -1 -22 -5t-16 -9q-8 -6 -13 -14q-24 11 -37.5 30.5t-16.5 44.5q11 15 27 26q13 10 32 18.5t43 9.5t40.5 -3.5
t30 -10t27 -10t31.5 -4.5zM345 -12q-70 0 -126 21.5t-95.5 67t-60.5 115.5t-21 168q0 96 21.5 166.5t61 116t95.5 67.5t125 22t125 -21.5t95.5 -67t60.5 -116t21 -167.5q0 -98 -21 -168t-60 -115.5t-95 -67t-126 -21.5zM345 607q-31 0 -55.5 -10.5t-42 -38.5t-26.5 -75.5
t-9 -122.5q0 -74 9 -122t26.5 -75.5t42 -38t55.5 -10.5t55.5 10.5t42 38t26.5 75.5t9 122q0 75 -9 122.5t-26.5 75.5t-42 38.5t-55.5 10.5z" />
    <glyph glyph-name="P" unicode="P" horiz-adv-x="608" 
d="M229 9q-9 -3 -21 -5q-11 -2 -25.5 -3t-33.5 -1q-20 0 -35 1t-25 3q-11 2 -20 5v711h277q54 0 97.5 -16t74 -45.5t47 -72t16.5 -96.5q0 -53 -16.5 -95.5t-47 -72t-74 -45.5t-97.5 -16h-117v-252zM323 385q45 0 69 27t24 78q0 52 -24 78.5t-69 26.5h-94v-210h94z" />
    <glyph glyph-name="Q" unicode="Q" horiz-adv-x="689" 
d="M42 360q0 96 21.5 166.5t61 116t95.5 67.5t125 22t125 -21.5t95 -67t60.5 -116t21.5 -167.5q0 -107 -24.5 -180.5t-70.5 -118.5q29 -20 62 -32.5t71 -20.5q-3 -44 -26 -77.5t-51 -47.5q-53 19 -92.5 51.5t-66.5 68.5q-47 -15 -104 -15q-70 0 -126 21.5t-95.5 67
t-60.5 115.5t-21 168zM478 360q0 75 -9 122.5t-26.5 75.5t-42 38.5t-55.5 10.5t-55.5 -10.5t-42 -38.5t-26.5 -75.5t-9 -122.5q0 -74 9 -122t26.5 -75.5t42 -38t55.5 -10.5t55.5 10.5t42 38t26.5 75.5t9 122z" />
    <glyph glyph-name="R" unicode="R" horiz-adv-x="633" 
d="M344 720q57 0 101 -16t74 -45t45.5 -70t15.5 -90q0 -71 -32.5 -123.5t-92.5 -76.5l163 -290q-11 -3 -24 -5q-12 -2 -28.5 -3t-38.5 -1q-21 0 -37.5 1t-27.5 3q-13 2 -23 5l-148 270h-62v-270q-9 -3 -21 -5q-11 -2 -25.5 -3t-32.5 -1q-20 0 -35.5 1t-25.5 3q-12 2 -20 5
v711h275zM229 403h92q46 0 69 25t23 71q0 47 -23 72t-69 25h-92v-193z" />
    <glyph glyph-name="Racute" unicode="&#x154;" horiz-adv-x="633" 
d="M292 942q18 2 38 -1.5t38 -10.5t32.5 -17.5t22.5 -22.5l-137 -140q-26 5 -48.5 15.5t-36.5 28.5zM344 720q57 0 101 -16t74 -45t45 -70t15 -90q0 -71 -32 -123.5t-92 -76.5l163 -290q-11 -3 -24 -5q-12 -2 -28.5 -3t-38.5 -1q-21 0 -37.5 1t-27.5 3q-13 2 -23 5l-148 270
h-63v-270q-10 -3 -21 -5q-10 -2 -24.5 -3t-32.5 -1q-20 0 -35.5 1t-25.5 3q-12 2 -20 5v711h275zM228 403h93q46 0 69 25t23 71q0 47 -23 72t-69 25h-93v-193z" />
    <glyph glyph-name="Rcaron" unicode="&#x158;" horiz-adv-x="633" 
d="M398 949q23 -9 40 -26.5t28 -40.5l-156 -132h-36l-157 132q11 23 28.5 41t39.5 27l107 -67zM344 720q57 0 101 -16t74 -45t45 -70t15 -90q0 -71 -32 -123.5t-92 -76.5l163 -290q-11 -3 -24 -5q-12 -2 -28.5 -3t-38.5 -1q-21 0 -37.5 1t-27.5 3q-13 2 -23 5l-148 270h-63
v-270q-10 -3 -21 -5q-10 -2 -24.5 -3t-32.5 -1q-20 0 -35.5 1t-25.5 3q-12 2 -20 5v711h275zM228 403h93q46 0 69 25t23 71q0 47 -23 72t-69 25h-93v-193z" />
    <glyph glyph-name="Rcommaaccent" unicode="&#x156;" horiz-adv-x="632" 
d="M343 720q57 0 101 -16t74 -45t45 -70t15 -90q0 -71 -32 -123.5t-92 -76.5l163 -290q-11 -3 -24 -5q-12 -2 -28.5 -3t-38.5 -1q-21 0 -37.5 1t-27.5 3q-13 2 -23 5l-148 270h-63v-270q-10 -3 -21 -5q-10 -2 -24.5 -3t-32.5 -1q-20 0 -35.5 1t-25.5 3q-12 2 -20 5v711h275z
M227 403h93q46 0 69 25t23 71q0 47 -23 72t-69 25h-93v-193zM247 -48q9 2 20 4q10 2 24 3t33 1q18 0 32 -1t24 -3l21 -4v-103q0 -48 -13.5 -84.5t-30.5 -61.5q-19 -29 -44 -50l-55 38q9 12 17 29q7 14 13 34.5t8 46.5q-22 1 -36 5q-8 2 -13 3v143z" />
    <glyph glyph-name="S" unicode="S" horiz-adv-x="577" 
d="M41 512q0 49 16 89.5t48.5 69.5t82 45t117.5 16q49 0 88 -5.5t66 -11.5q32 -8 56 -17q0 -32 -10 -63.5t-30 -54.5q-20 6 -43 10q-20 4 -46.5 7t-55.5 3q-127 0 -127 -77q0 -21 14.5 -34.5t37.5 -24t53 -19.5t62 -20q33 -12 64.5 -28.5t56.5 -41t40 -59.5t15 -84
q0 -109 -66.5 -166.5t-203.5 -57.5q-56 0 -100 7.5t-75 16.5q-36 11 -64 25q0 32 10.5 65t27.5 57q26 -9 57 -16q26 -6 60.5 -10.5t72.5 -4.5q60 0 87.5 19.5t27.5 57.5q0 17 -8 30t-22 23t-32.5 17.5t-40.5 15.5l-79.5 26t-76 37.5t-57.5 61t-23 96.5z" />
    <glyph glyph-name="Sacute" unicode="&#x15a;" horiz-adv-x="578" 
d="M303 763q-26 5 -48 16.5t-35 30.5l96 142q18 1 38 -2.5t37.5 -11.5t31.5 -19t22 -24zM331 600q-127 0 -127 -77q0 -21 15.5 -35t41 -25t58 -20.5t65.5 -22.5q31 -12 60.5 -28t52 -40.5t36.5 -58.5t14 -81q0 -109 -66.5 -166.5t-203.5 -57.5q-55 0 -99 7.5t-75 16.5
q-37 11 -65 25q-1 34 9.5 67.5t28.5 54.5q26 -9 57 -16q26 -6 60.5 -10.5t72.5 -4.5q60 0 87.5 19.5t27.5 57.5q0 20 -11 34.5t-30 25.5t-43.5 19.5l-51.5 17.5q-35 12 -71.5 26t-65.5 37.5t-47.5 58.5t-18.5 88q0 49 16 89.5t48.5 69.5t82 45t117.5 16q49 0 88 -5.5
t66 -11.5q32 -8 56 -17q1 -32 -8.5 -64t-31.5 -54q-20 6 -43 10q-20 4 -46.5 7t-55.5 3z" />
    <glyph glyph-name="Scaron" unicode="&#x160;" horiz-adv-x="577" 
d="M132 886q11 22 28.5 40t39.5 27l107 -65l106 64q23 -9 40 -26.5t28 -39.5l-156 -120h-36zM330 600q-65 0 -96 -18t-31 -59q0 -21 15 -35t39.5 -24.5t56 -20t63.5 -21.5t62.5 -28.5t54.5 -40.5t38.5 -58.5t14.5 -82.5q0 -109 -67 -166.5t-204 -57.5q-55 0 -99 7.5
t-75 16.5q-36 11 -64 25q0 31 10 64.5t27 57.5q26 -9 57 -16q26 -6 60.5 -10.5t72.5 -4.5q60 0 88 19.5t28 57.5q0 21 -11 35t-29.5 25t-43 19l-51.5 17q-35 11 -71.5 25.5t-66 38t-48.5 59t-19 88.5q0 49 16 89.5t48.5 69.5t82 45t117.5 16q49 0 88 -5.5t66 -11.5
q32 -8 56 -17q1 -32 -9 -63.5t-30 -54.5q-20 6 -43 10q-20 4 -46.5 7t-56.5 3z" />
    <glyph glyph-name="Scedilla" unicode="&#x15e;" horiz-adv-x="578" 
d="M386 419q31 -12 60 -28t51.5 -40t36 -58t13.5 -81q0 -100 -56 -156.5t-171 -65.5l-8 -45q58 0 81.5 -28t23.5 -71q0 -52 -35.5 -77.5t-95.5 -25.5q-26 0 -45 3.5t-33 8.5q-16 5 -27 12q-1 16 6 33t19 25q11 -5 29 -9t36 -4q24 -1 42 7t18 31q0 16 -10 25.5t-33 9.5h-53
l-14 16l20 89q-47 2 -84.5 10t-63.5 16q-31 10 -55 21q-1 34 9.5 67.5t28.5 54.5q26 -9 57 -16q26 -6 60.5 -10.5t72.5 -4.5q60 0 87.5 19.5t27.5 57.5q0 21 -12 35.5t-31.5 25.5t-46 20l-54.5 18q-35 12 -69.5 26.5t-62.5 37.5t-45.5 58t-17.5 86q0 49 16 89.5t48.5 69.5
t82 45t117.5 16q49 0 88 -5.5t66 -11.5q32 -8 56 -17q1 -32 -8.5 -64.5t-31.5 -53.5q-20 6 -43 10q-20 4 -46.5 7t-55.5 3q-127 0 -127 -77q0 -21 16 -35t41.5 -25t58.5 -21t66 -23z" />
    <glyph glyph-name="Scircumflex" unicode="&#x15c;" horiz-adv-x="578" 
d="M478 826q-11 -22 -28.5 -40t-39.5 -26l-107 69l-106 -68q-22 8 -39.5 25.5t-28.5 39.5l156 132h36zM331 600q-127 0 -127 -77q0 -22 16 -36t42.5 -25t59.5 -21t67 -23q30 -12 58.5 -28t50.5 -40.5t35.5 -58t13.5 -79.5q0 -109 -66.5 -166.5t-203.5 -57.5q-56 0 -100 7.5
t-75 16.5q-36 11 -64 25q-1 34 9.5 67.5t28.5 54.5q26 -9 57 -16q26 -6 60.5 -10.5t72.5 -4.5q60 0 87.5 19.5t27.5 57.5q0 22 -13 37t-34 26t-48.5 20l-56.5 19q-34 11 -67.5 25.5t-60 38t-43 57.5t-16.5 84q0 49 16 89.5t48.5 69.5t82 45t117.5 16q49 0 88 -5.5t66 -11.5
q32 -8 56 -17q0 -32 -9.5 -64t-30.5 -54q-20 6 -43 10q-20 4 -46.5 7t-55.5 3z" />
    <glyph glyph-name="Scommaaccent" unicode="&#x218;" horiz-adv-x="577" 
d="M331 600q-127 0 -127 -77q0 -21 15 -35t40 -24.5t56 -20t64 -21.5q32 -12 62 -28.5t53.5 -41t38 -58.5t14.5 -82q0 -109 -66.5 -166.5t-203.5 -57.5q-56 0 -100 7.5t-75 16.5q-36 11 -64 25q-1 34 9.5 67.5t28.5 54.5q26 -9 57 -16q26 -6 60.5 -10.5t72.5 -4.5
q60 0 87.5 19.5t27.5 57.5q0 21 -12 36t-32 25.5t-46 19.5l-54 18q-35 11 -70 26t-62.5 38t-45 58t-17.5 86q0 49 16 89.5t48.5 69.5t82 45t117.5 16q49 0 88 -5.5t66 -11.5q32 -8 56 -17q0 -32 -9 -64t-31 -54q-20 6 -43 10q-20 4 -46.5 7t-55.5 3zM220 -309q9 12 17 29
q7 14 13 34.5t8 46.5q-22 1 -36 5q-8 2 -13 3v143q9 2 20 4q10 2 24 3t33 1q18 0 32 -1t24 -3l21 -4v-103q0 -48 -13.5 -84.5t-30.5 -61.5q-19 -29 -44 -50z" />
    <glyph glyph-name="T" unicode="T" horiz-adv-x="566" 
d="M539 720q2 -8 5 -19q2 -9 3.5 -21t1.5 -26q0 -15 -1.5 -27.5t-3.5 -21.5q-3 -11 -5 -19h-174v-577q-10 -3 -22 -5q-11 -2 -25.5 -3t-32.5 -1q-20 0 -34.5 1t-24.5 3q-11 2 -20 5v577h-179q-3 7 -5 18q-5 18 -5 48q0 29 5 49q2 11 5 19h512z" />
    <glyph glyph-name="Tbar" unicode="&#x166;" horiz-adv-x="581" 
d="M497 390q7 -20 6.5 -46.5t-6.5 -46.5h-124v-288q-10 -3 -22 -5q-11 -2 -25.5 -3t-32.5 -1q-20 0 -35 1t-25 3q-11 2 -20 5v288h-130q-6 23 -6 48t6 45h130v196h-178q-3 7 -5 18q-5 18 -5 48q0 29 5 49q2 11 5 19h511q2 -8 5 -19q2 -9 3.5 -21t1.5 -26q0 -15 -1.5 -27.5
t-3.5 -21.5q-3 -11 -5 -19h-173v-196h124z" />
    <glyph glyph-name="Tcaron" unicode="&#x164;" horiz-adv-x="566" 
d="M112 882q11 23 28 41t40 27l107 -67l105 66q23 -9 40.5 -26.5t28.5 -40.5l-156 -128h-36zM539 720q2 -8 5 -19q2 -9 3.5 -21t1.5 -26q0 -15 -1.5 -27.5t-3.5 -21.5q-3 -11 -5 -19h-173v-577q-10 -3 -22 -5q-11 -2 -25.5 -3t-32.5 -1q-20 0 -35 1t-25 3q-11 2 -20 5v577
h-178q-3 7 -5 18q-5 18 -5 48q0 29 5 49q2 11 5 19h511z" />
    <glyph glyph-name="Thorn" unicode="&#xde;" horiz-adv-x="609" 
d="M69 711q9 2 20 4q10 2 24 3.5t33 1.5t33 -1.5t25 -3.5l21 -4v-112h126q53 0 95.5 -16t72.5 -46t46 -72t16 -94t-16 -94t-46 -72t-72.5 -46t-95.5 -16h-126v-134q-10 -3 -21 -5t-25 -3t-32 -1q-20 0 -34.5 1t-24.5 3q-11 2 -19 5v702zM225 267h94q50 0 75 25t25 79t-25 79
t-75 25h-94v-208z" />
    <glyph glyph-name="U" unicode="U" 
d="M610 251q0 -63 -19.5 -112t-55.5 -82.5t-86.5 -51t-112.5 -17.5t-112 17.5t-85.5 51.5t-55 83t-19.5 111v460q9 2 20 4q10 2 24.5 3.5t34.5 1.5q19 0 33.5 -1.5t25.5 -3.5q12 -2 21 -4v-472q0 -57 29.5 -86.5t85.5 -29.5q57 0 85.5 29.5t28.5 86.5v472q9 2 20 4
q10 2 24 3.5t34 1.5q19 0 33.5 -1.5t25.5 -3.5q12 -2 21 -4v-460z" />
    <glyph glyph-name="Uacute" unicode="&#xda;" 
d="M341 750q-26 5 -48.5 15.5t-36.5 28.5l91 148q18 2 38 -1.5t38 -10.5t32.5 -17.5t22.5 -22.5zM610 251q0 -63 -19.5 -112t-55.5 -82.5t-86.5 -51t-112.5 -17.5t-112 17.5t-85.5 51.5t-55 83t-19.5 111v460q9 2 20 4q10 2 24.5 3.5t34.5 1.5q19 0 33.5 -1.5t25.5 -3.5
q12 -2 21 -4v-472q0 -57 29.5 -86.5t85.5 -29.5q57 0 85.5 29.5t28.5 86.5v472q9 2 20 4q10 2 24 3.5t34 1.5q19 0 33.5 -1.5t25.5 -3.5q12 -2 21 -4v-460z" />
    <glyph glyph-name="Ubreve" unicode="&#x16c;" 
d="M516 840q-17 -20 -42 -36q-21 -14 -53.5 -24.5t-77.5 -10.5t-78 10.5t-54 24.5q-26 16 -42 36q8 20 25.5 38.5t40.5 26.5q12 -8 28 -13q14 -5 34 -9t46 -4t46 4t34 9q16 5 28 13q23 -8 40 -26.5t25 -38.5zM610 251q0 -63 -19.5 -112t-55.5 -82.5t-86.5 -51t-112.5 -17.5
t-112 17.5t-85.5 51.5t-55 83t-19.5 111v460q9 2 20 4q10 2 24.5 3.5t34.5 1.5q19 0 33.5 -1.5t25.5 -3.5q12 -2 21 -4v-472q0 -57 29.5 -86.5t85.5 -29.5q57 0 85.5 29.5t28.5 86.5v472q9 2 20 4q10 2 24 3.5t34 1.5q19 0 33.5 -1.5t25.5 -3.5q12 -2 21 -4v-460z" />
    <glyph glyph-name="Ucircumflex" unicode="&#xdb;" 
d="M521 818q-11 -23 -28.5 -41t-39.5 -27l-107 67l-105 -66q-23 9 -40.5 26.5t-28.5 40.5l156 132h36zM610 251q0 -63 -19.5 -112t-55 -82.5t-86 -51t-112.5 -17.5t-112.5 17.5t-86 51.5t-55 83t-19.5 111v460q9 2 20 4q10 2 24.5 3.5t34.5 1.5t34.5 -1.5t25.5 -3.5
q12 -2 21 -4v-472q0 -57 29 -86.5t86 -29.5q56 0 85 29.5t29 86.5v472q8 2 19 4q10 2 24 3.5t34 1.5q19 0 33.5 -1.5t25.5 -3.5q12 -2 21 -4v-460z" />
    <glyph glyph-name="Udieresis" unicode="&#xdc;" 
d="M307 757q-7 -2 -17 -4q-17 -3 -49 -3q-34 0 -50 3q-10 2 -16 4v115q6 1 16 3q8 2 20.5 3t29.5 1q16 0 28.5 -1t20.5 -3q10 -2 17 -3v-115zM503 757q-7 -2 -17 -4q-17 -3 -49 -3q-34 0 -50 3q-10 2 -16 4v115q6 1 16 3q8 2 20.5 3t29.5 1q16 0 28.5 -1t20.5 -3
q10 -2 17 -3v-115zM610 251q0 -63 -19.5 -112t-55.5 -82.5t-86.5 -51t-112.5 -17.5t-112 17.5t-85.5 51.5t-55 83t-19.5 111v460q9 2 20 4q10 2 24.5 3.5t34.5 1.5q19 0 33.5 -1.5t25.5 -3.5q12 -2 21 -4v-472q0 -57 29.5 -86.5t85.5 -29.5q57 0 85.5 29.5t28.5 86.5v472
q9 2 20 4q10 2 24 3.5t34 1.5q19 0 33.5 -1.5t25.5 -3.5q12 -2 21 -4v-460z" />
    <glyph glyph-name="Ugrave" unicode="&#xd9;" 
d="M195 888q8 13 22.5 23.5t32.5 17.5t38 10t38 1l91 -147q-14 -19 -36.5 -29t-48.5 -15zM610 251q0 -63 -19.5 -112t-55.5 -82.5t-86.5 -51t-112.5 -17.5t-112 17.5t-85.5 51.5t-55 83t-19.5 111v460q9 2 20 4q10 2 24.5 3.5t34.5 1.5q19 0 33.5 -1.5t25.5 -3.5
q12 -2 21 -4v-472q0 -57 29.5 -86.5t85.5 -29.5q57 0 85.5 29.5t28.5 86.5v472q9 2 20 4q10 2 24 3.5t34 1.5q19 0 33.5 -1.5t25.5 -3.5q12 -2 21 -4v-460z" />
    <glyph glyph-name="Uhungarumlaut" unicode="&#x170;" 
d="M265 750q-26 4 -47.5 14.5t-34.5 28.5l88 143q18 2 37 -1t36 -10t31 -17.5t22 -22.5zM448 750q-25 4 -47 14.5t-35 28.5l87 143q18 2 37.5 -1t36.5 -10t31 -17.5t22 -22.5zM610 251q0 -63 -19.5 -112t-55.5 -82.5t-86.5 -51t-112.5 -17.5t-112 17.5t-85.5 51.5t-55 83
t-19.5 111v460q9 2 20 4q10 2 24.5 3.5t34.5 1.5q19 0 33.5 -1.5t25.5 -3.5q12 -2 21 -4v-472q0 -57 29.5 -86.5t85.5 -29.5q57 0 85.5 29.5t28.5 86.5v472q9 2 20 4q10 2 24 3.5t34 1.5q19 0 33.5 -1.5t25.5 -3.5q12 -2 21 -4v-460z" />
    <glyph glyph-name="Umacron" unicode="&#x16a;" horiz-adv-x="673" 
d="M183 781q-5 22 -5 46.5t5 44.5h312q5 -20 5 -45.5t-5 -45.5h-312zM609 251q0 -63 -19.5 -112t-55 -82.5t-86 -51t-112.5 -17.5t-112 17.5t-85.5 51.5t-55 83t-19.5 111v460q9 2 20 4q10 2 24.5 3.5t33.5 1.5q20 0 34.5 -1.5t25.5 -3.5q12 -2 21 -4v-472q0 -57 29 -86.5
t86 -29.5t85.5 29.5t28.5 86.5v472q9 2 20 4q10 2 24 3.5t34 1.5q19 0 33 -1.5t25 -3.5l21 -4v-460z" />
    <glyph glyph-name="Uogonek" unicode="&#x172;" 
d="M610 251q0 -66 -21.5 -116t-59.5 -84q-27 -25 -47.5 -51.5t-33 -51t-17.5 -45t-2 -32.5q8 -33 49 -13q6 -6 11.5 -16t9.5 -22t6 -23.5t2 -19.5q-18 -12 -46 -19.5t-59 -7.5q-48 0 -71.5 19.5t-30.5 52.5q-9 44 10 85.5t64 82.5q-10 -1 -19 -1.5t-19 -0.5q-62 0 -112 17.5
t-85.5 51.5t-55 83t-19.5 111v460q9 2 20 4q10 2 24.5 3.5t34.5 1.5q19 0 33.5 -1.5t25.5 -3.5q12 -2 21 -4v-472q0 -57 29.5 -86.5t85.5 -29.5q57 0 85.5 29.5t28.5 86.5v472q9 2 20 4q10 2 24 3.5t34 1.5q19 0 33.5 -1.5t25.5 -3.5q12 -2 21 -4v-460z" />
    <glyph glyph-name="Uring" unicode="&#x16e;" 
d="M341 750q-60 0 -100 34.5t-40 97.5q0 32 12 56t31.5 40.5t45 24.5t52.5 8q26 0 51.5 -8t45.5 -24t32.5 -40.5t12.5 -56.5t-11.5 -56.5t-31 -41.5t-45.5 -25.5t-55 -8.5zM393 882q0 19 -13 34t-39 15t-38.5 -15.5t-12.5 -33.5q0 -19 12.5 -34t38.5 -15t39 15.5t13 33.5z
M610 251q0 -63 -19.5 -112t-55.5 -82.5t-86.5 -51t-112.5 -17.5t-112 17.5t-85.5 51.5t-55 83t-19.5 111v460q9 2 20 4q10 2 24.5 3.5t34.5 1.5q19 0 33.5 -1.5t25.5 -3.5q12 -2 21 -4v-472q0 -57 29.5 -86.5t85.5 -29.5q57 0 85.5 29.5t28.5 86.5v472q9 2 20 4q10 2 24 3.5
t34 1.5q19 0 33.5 -1.5t25.5 -3.5q12 -2 21 -4v-460z" />
    <glyph glyph-name="Utilde" unicode="&#x168;" horiz-adv-x="673" 
d="M407 848q14 0 23.5 3.5t16.5 8.5q8 5 13 13q22 -11 35 -31.5t16 -42.5q-11 -14 -27 -25q-14 -9 -33 -16.5t-44 -7.5q-24 0 -40 5t-29.5 10.5l-27 10.5t-31.5 5q-13 0 -22 -4t-16 -9q-8 -5 -14 -12q-46 24 -51 73q11 13 27 24q14 9 33 17t43 8t40.5 -4.5t29.5 -10.5
t26.5 -10.5t31.5 -4.5zM609 251q0 -63 -19.5 -112t-55 -82.5t-86 -51t-112.5 -17.5t-112 17.5t-85.5 51.5t-55 83t-19.5 111v460q9 2 20 4q10 2 24.5 3.5t33.5 1.5q20 0 34.5 -1.5t25.5 -3.5q12 -2 21 -4v-472q0 -57 29 -86.5t86 -29.5t85.5 29.5t28.5 86.5v472q9 2 20 4
q10 2 24 3.5t34 1.5q19 0 33 -1.5t25 -3.5l21 -4v-460z" />
    <glyph glyph-name="V" unicode="V" horiz-adv-x="666" 
d="M296 312q11 -35 17.5 -64.5l11.5 -50.5l9 -45h4l9 45l12 50.5t18 65.5l126 397q6 2 17 5q9 2 23 3.5t34 1.5q19 0 33.5 -1.5t25.5 -3.5q12 -3 21 -5l-222 -702q-12 -2 -28 -4q-14 -2 -32.5 -3t-41.5 -1q-24 0 -42.5 1t-32.5 3q-16 2 -28 4l-221 700q10 3 23 6
q11 2 27.5 4t36.5 2q19 0 32.5 -1.5t23.5 -3.5q11 -3 19 -5z" />
    <glyph glyph-name="W" unicode="W" horiz-adv-x="988" 
d="M521 392q-8 40 -12.5 73t-6.5 57q-3 28 -3 50h-5q0 -22 -3 -50q-2 -24 -7 -57t-13 -73l-77 -383q-18 -4 -47 -6.5t-59 -2.5t-56.5 2.5t-43.5 6.5l-171 702q9 2 21 4q11 2 25.5 3.5t34.5 1.5q19 0 33 -1.5t24 -3.5q11 -2 19 -4l96 -400q6 -29 11 -57.5l9 -51.5l8 -51h4
q1 24 5 50q3 23 7.5 51t10.5 58l83 401q9 2 22 4q11 2 28.5 3.5t41.5 1.5q23 0 40.5 -1.5t29.5 -3.5q13 -2 23 -4l82 -400q6 -32 10 -61t6 -51q3 -26 5 -48h4q2 21 6 47q3 22 8.5 50.5t13.5 61.5l98 401q8 2 19 4q9 2 22.5 3.5t30.5 1.5t30 -1.5t23 -3.5l21 -4l-173 -702
q-11 -3 -26 -5q-13 -2 -31 -3t-41 -1q-24 0 -43 1t-33 3q-16 2 -27 5z" />
    <glyph glyph-name="Wacute" unicode="&#x1e82;" horiz-adv-x="989" 
d="M493 750q-26 5 -48.5 15.5t-36.5 28.5l91 148q18 2 38 -1.5t38 -10.5t32.5 -17.5t22.5 -22.5zM521 392q-8 40 -12.5 73t-6.5 57q-3 28 -3 50h-5q-1 -22 -4 -50q-2 -24 -6.5 -57t-12.5 -73l-78 -383q-17 -4 -46 -6.5t-59 -2.5t-56.5 2.5t-43.5 6.5l-171 702q9 2 21 4
q11 2 25.5 3.5t34.5 1.5q19 0 32.5 -1.5t23.5 -3.5q11 -2 19 -4l97 -400q6 -29 11 -57.5l9 -51.5q4 -26 7 -51h4q2 24 6 50q3 23 7.5 51t10.5 58l83 401q9 2 22 4q11 2 28.5 3.5t40.5 1.5t41 -1.5t29 -3.5q13 -2 23 -4l82 -400q6 -32 10.5 -61t6.5 -51q3 -26 5 -48h4
q2 21 6 47q3 22 8.5 50.5t13.5 61.5l98 401q8 2 19 4q9 2 22.5 3.5t30.5 1.5t30 -1.5t23 -3.5l21 -4l-173 -702q-11 -3 -26 -5q-13 -2 -31 -3t-41 -1q-24 0 -43 1t-33 3q-16 2 -27 5z" />
    <glyph glyph-name="Wcircumflex" unicode="&#x174;" horiz-adv-x="988" 
d="M676 818q-11 -23 -28.5 -41t-39.5 -27l-107 67l-106 -66q-23 9 -40 26.5t-28 40.5l156 132h36zM521 392q-8 40 -12.5 73t-6.5 57q-3 28 -3 50h-5q-1 -22 -4 -50q-2 -24 -6.5 -57t-12.5 -73l-78 -383q-17 -4 -46 -6.5t-59 -2.5t-56.5 2.5t-43.5 6.5l-171 702q9 2 21 4
q11 2 25 3.5t34 1.5q19 0 33 -1.5t24 -3.5q11 -2 19 -4l97 -400q6 -29 11 -57.5l9 -51.5q4 -26 7 -51h4q2 24 6 50q3 23 7.5 51t10.5 58l83 401q9 2 22 4q11 2 28.5 3.5t40.5 1.5t41 -1.5t29 -3.5q13 -2 23 -4l82 -400q6 -32 10.5 -61t6.5 -51q3 -26 5 -48h4q2 21 6 47
q3 22 8.5 50.5t13.5 61.5l98 401q8 2 19 4q9 2 22.5 3.5t30.5 1.5t30 -1.5t23 -3.5l21 -4l-173 -702q-11 -3 -26 -5q-13 -2 -31 -3t-41 -1q-24 0 -43 1t-33 3q-16 2 -27 5z" />
    <glyph glyph-name="Wdieresis" unicode="&#x1e84;" horiz-adv-x="988" 
d="M465 773q-7 -2 -17 -4q-17 -3 -49 -3q-34 0 -50 3q-10 2 -16 4v115q6 1 16 3q8 2 20.5 3t29.5 1q16 0 28.5 -1t20.5 -3q10 -2 17 -3v-115zM665 773q-7 -2 -17 -4q-17 -3 -48 -3q-34 0 -50 3q-10 2 -16 4v115q6 1 16 3q8 2 20.5 3t29.5 1q16 0 28 -1t20 -3q10 -2 17 -3
v-115zM521 392q-8 40 -12.5 73t-6.5 57q-3 28 -3 50h-5q-1 -22 -4 -50q-2 -24 -6.5 -57t-12.5 -73l-78 -383q-17 -4 -46 -6.5t-59 -2.5t-56.5 2.5t-43.5 6.5l-171 702q9 2 21 4q11 2 25.5 3.5t34.5 1.5q19 0 32.5 -1.5t23.5 -3.5q11 -2 19 -4l97 -400q6 -29 11 -57.5
l9 -51.5q4 -26 7 -51h4q2 24 6 50q3 23 7.5 51t10.5 58l83 401q9 2 22 4q11 2 28.5 3.5t40.5 1.5t41 -1.5t29 -3.5q13 -2 23 -4l82 -400q6 -32 10.5 -61t6.5 -51q3 -26 5 -48h4q2 21 6 47q3 22 8.5 50.5t13.5 61.5l98 401q8 2 19 4q9 2 22.5 3.5t30.5 1.5t30 -1.5t23 -3.5
l21 -4l-173 -702q-11 -3 -26 -5q-13 -2 -31 -3t-41 -1q-24 0 -43 1t-33 3q-16 2 -27 5z" />
    <glyph glyph-name="Wgrave" unicode="&#x1e80;" horiz-adv-x="988" 
d="M350 888q8 13 22.5 23.5t32.5 17.5t38 10t38 1l91 -147q-14 -19 -36.5 -29t-48.5 -15zM521 392q-8 40 -12.5 73t-6.5 57q-3 28 -3 50h-5q-1 -22 -4 -50q-2 -24 -6.5 -57t-12.5 -73l-78 -383q-17 -4 -46 -6.5t-59 -2.5t-56.5 2.5t-43.5 6.5l-171 702q9 2 21 4
q11 2 25.5 3.5t34.5 1.5q19 0 32.5 -1.5t23.5 -3.5q11 -2 19 -4l97 -400q6 -29 11 -57.5l9 -51.5q4 -26 7 -51h4q2 24 6 50q3 23 7.5 51t10.5 58l83 401q9 2 22 4q11 2 28.5 3.5t40.5 1.5t41 -1.5t29 -3.5q13 -2 23 -4l82 -400q6 -32 10.5 -61t6.5 -51q3 -26 5 -48h4
q2 21 6 47q3 22 8.5 50.5t13.5 61.5l98 401q8 2 19 4q9 2 22.5 3.5t30.5 1.5t30 -1.5t23 -3.5l21 -4l-173 -702q-11 -3 -26 -5q-13 -2 -31 -3t-41 -1q-24 0 -43 1t-33 3q-16 2 -27 5z" />
    <glyph glyph-name="X" unicode="X" horiz-adv-x="645" 
d="M457 711q39 9 82 9q45 0 84 -9l-195 -329l215 -371q-10 -3 -23 -6q-25 -5 -66 -5t-66 5q-13 2 -23 5l-148 251l-151 -253q-35 -8 -76 -8q-25 0 -48 1.5t-43 6.5l217 368l-191 335q9 2 23 4q11 2 29 3.5t41 1.5q20 0 36.5 -1.5t27.5 -3.5q13 -2 24 -4l124 -213l127 213v0z
" />
    <glyph glyph-name="Y" unicode="Y" horiz-adv-x="649" 
d="M478 711q10 2 22 4q11 2 25.5 3.5t34.5 1.5t35.5 -1.5t26.5 -3.5q13 -2 24 -4l-243 -426v-276q-9 -3 -20 -5q-10 -2 -24.5 -3t-33.5 -1q-22 0 -37 1t-25 3q-11 2 -19 5v275l-236 427q10 2 24 4q12 2 29.5 3.5t40.5 1.5q20 0 36.5 -1.5t27.5 -3.5q13 -2 23 -4l143 -261
l146 261v0z" />
    <glyph glyph-name="Yacute" unicode="&#xdd;" horiz-adv-x="650" 
d="M336 942q18 2 38 -1.5t38 -10.5t32.5 -17.5t22.5 -22.5l-137 -140q-26 5 -48.5 15.5t-36.5 28.5zM478 711q10 2 22 4q11 2 26 3.5t35 1.5q19 0 35 -1.5t27 -3.5q13 -2 24 -4l-243 -426v-276q-9 -3 -20 -5q-10 -2 -24.5 -3t-33.5 -1q-22 0 -37 1t-25 3q-11 2 -19 5v275
l-237 427q10 2 24 4q12 2 30 3.5t41 1.5q20 0 36.5 -1.5t27.5 -3.5q13 -2 23 -4l143 -261z" />
    <glyph glyph-name="Ycircumflex" unicode="&#x176;" horiz-adv-x="650" 
d="M508 818q-11 -23 -28 -41t-40 -27l-107 67l-105 -66q-23 9 -40 26.5t-28 40.5l155 132h36zM477 711q10 2 22 4q11 2 26 3.5t35 1.5q19 0 35 -1.5t27 -3.5q13 -2 24 -4l-243 -426v-276q-9 -3 -20 -5q-10 -2 -24.5 -3t-33.5 -1q-22 0 -37 1t-25 3q-11 2 -19 5v275l-236 427
q10 2 24 4q12 2 29.5 3.5t40.5 1.5q20 0 36.5 -1.5t27.5 -3.5q13 -2 23 -4l143 -261z" />
    <glyph glyph-name="Ydieresis" unicode="&#x178;" horiz-adv-x="650" 
d="M171 873q6 1 16 3q8 2 20.5 3t29.5 1q16 0 28.5 -1t20.5 -3q10 -2 17 -3v-115q-7 -2 -17 -4q-17 -3 -49 -3q-33 0 -49 3q-10 2 -17 4v115zM368 873q6 1 16 3q8 2 20.5 3t29.5 1q16 0 28.5 -1t20.5 -3q10 -2 17 -3v-115q-7 -2 -17 -4q-17 -3 -49 -3q-34 0 -50 3
q-10 2 -16 4v115zM478 711q10 2 22 4q11 2 26 3.5t35 1.5q19 0 35 -1.5t27 -3.5q13 -2 24 -4l-243 -426v-276q-9 -3 -20 -5q-10 -2 -24.5 -3t-33.5 -1q-22 0 -37 1t-25 3q-11 2 -19 5v275l-237 427q10 2 24 4q12 2 30 3.5t41 1.5q20 0 36.5 -1.5t27.5 -3.5q13 -2 23 -4
l143 -261z" />
    <glyph glyph-name="Ygrave" unicode="&#x1ef2;" horiz-adv-x="650" 
d="M403 793q-14 -19 -36.5 -29t-48.5 -15l-137 139q8 13 22.5 23.5t32.5 17.5t38 10t38 1zM478 711q10 2 22 4q11 2 26 3.5t35 1.5q19 0 35 -1.5t27 -3.5q13 -2 24 -4l-243 -426v-276q-9 -3 -20 -5q-10 -2 -24.5 -3t-33.5 -1q-22 0 -37 1t-25 3q-11 2 -19 5v275l-237 427
q10 2 24 4q12 2 30 3.5t41 1.5q20 0 36.5 -1.5t27.5 -3.5q13 -2 23 -4l143 -261z" />
    <glyph glyph-name="Z" unicode="Z" horiz-adv-x="611" 
d="M557 720q5 -13 7.5 -29t2.5 -33q0 -40 -10 -69l-339 -457h352q8 -30 8 -64q0 -18 -1.5 -35t-6.5 -33h-534q-5 16 -7.5 33.5t-2.5 34.5t2.5 33.5t7.5 30.5l333 457h-305q-9 31 -9 69q0 33 9 62h493z" />
    <glyph glyph-name="Zacute" unicode="&#x179;" horiz-adv-x="611" 
d="M313 942q18 2 38 -1.5t38 -10.5t32.5 -17.5t22.5 -22.5l-137 -140q-26 5 -48.5 15.5t-36.5 28.5zM557 720q5 -13 7.5 -29t2.5 -33q0 -40 -10 -69l-339 -457h352q8 -30 8 -64q0 -18 -1.5 -35t-6.5 -33h-534q-5 16 -7.5 33.5t-2.5 34.5t2.5 33.5t7.5 30.5l333 457h-305
q-9 31 -9 69q0 33 9 62h493z" />
    <glyph glyph-name="Zcaron" unicode="&#x17d;" horiz-adv-x="611" 
d="M415 949q23 -9 40 -26.5t28 -40.5l-156 -128h-36l-157 128q11 23 28.5 41t39.5 27l107 -67zM557 720q5 -13 7.5 -29t2.5 -33q0 -40 -10 -69l-339 -457h352q8 -30 8 -64q0 -18 -1.5 -35t-6.5 -33h-534q-5 16 -7.5 33.5t-2.5 34.5t2.5 33.5t7.5 30.5l333 457h-305
q-9 31 -9 69q0 33 9 62h493z" />
    <glyph glyph-name="Zdotaccent" unicode="&#x17b;" horiz-adv-x="610" 
d="M250 920q7 1 17 3q8 2 21 3t31 1q17 0 30 -1t22 -3l18 -3v-128q-7 -2 -18 -4q-18 -3 -52 -3q-36 0 -52 3q-11 2 -17 4v128zM557 720q10 -28 10 -62q0 -19 -2.5 -36.5t-7.5 -32.5l-340 -457h353q3 -14 5 -30.5t2 -33.5q0 -18 -1.5 -35t-5.5 -33h-535q-9 31 -9 68t9 64
l333 457h-305q-8 34 -8 69q0 32 8 62h494z" />
    <glyph glyph-name="_0020" horiz-adv-x="0" 
 />
    <glyph glyph-name="_375" horiz-adv-x="646" 
d="M251 712q32 8 74 8t77 -8l236 -633q-14 -48 -49 -79h-531q-42 32 -50 78zM318 524q-8 -29 -19.5 -66.5t-22.5 -68.5l-99 -268h284l-99 269q-11 30 -22 67t-18 67h-4z" />
    <glyph glyph-name="_376" horiz-adv-x="700" 
d="M400 0q-11 27 -11 63.5t11 64.5q19 18 35.5 41.5t29 54t20 69t7.5 87.5q0 68 -10 112t-28.5 69.5t-45 35.5t-59.5 10t-59.5 -10t-44.5 -35.5t-28 -69.5t-10 -112q0 -49 7.5 -87.5t20 -69t29 -54t35.5 -41.5q10 -28 10 -63t-10 -65h-267q-12 28 -12 63q0 17 2.5 33.5
t9.5 31.5h96q-37 46 -60 108.5t-23 143.5q0 92 21 158.5t60 109t95.5 62.5t127.5 20t127.5 -20t96 -62.5t60.5 -109t21 -158.5q0 -81 -24 -143.5t-60 -108.5h97q5 -16 7.5 -32t2.5 -32q0 -17 -2.5 -33t-7.5 -31h-267z" />
    <glyph glyph-name="a" unicode="a" horiz-adv-x="517" 
d="M65 498q23 11 53 20q26 8 60.5 14.5t76.5 6.5q113 0 162 -45t49 -140v-346q-6 -2 -16 -4q-8 -2 -20 -3t-28 -1q-15 0 -27 1t-20 3q-10 2 -17 4l-18 49q-34 -67 -140 -67q-75 0 -115 43t-40 131q0 86 50.5 123.5t149.5 37.5q23 0 45 -1t42 -3v16q0 34 -18 55t-64 21
q-23 0 -45 -3.5t-39 -8.5q-20 -5 -38 -11q-6 4 -12 11q-5 6 -10.5 15t-10.5 21t-7 23t-3 19q-1 10 0 19zM312 228q-30 3 -64 3q-33 0 -51 -15.5t-18 -52.5q0 -39 15 -54.5t43 -15.5q21 0 35 9t23 23.5t13 33.5t4 39v30z" />
    <glyph glyph-name="aacute" unicode="&#xe1;" horiz-adv-x="517" 
d="M255 786q18 2 38 -1t38 -10t32.5 -17.5t22.5 -23.5l-136 -139q-26 5 -49 15t-37 29zM65 498q23 11 53 21q26 8 60.5 14.5t76.5 6.5q113 0 162 -45.5t49 -140.5v-346q-6 -2 -16 -4q-8 -2 -20 -3t-28 -1q-15 0 -27 1t-20 3q-10 2 -17 4l-18 49q-34 -67 -140 -67
q-75 0 -115 43t-40 131q0 86 50.5 123.5t149.5 37.5q23 0 45 -1t42 -3v21q0 32 -18 51.5t-64 19.5q-23 0 -45 -3.5t-39 -8.5q-20 -5 -38 -11q-6 4 -12 11q-5 6 -10.5 15t-10.5 21t-7 23t-3 19q-1 10 0 19zM312 228q-30 3 -64 3q-33 0 -51 -15.5t-18 -52.5q0 -39 15 -54.5
t43 -15.5q21 0 35 9t23 23.5t13 33.5t4 39v30z" />
    <glyph glyph-name="abreve" unicode="&#x103;" horiz-adv-x="517" 
d="M259 710q25 0 44.5 4.5t33.5 9.5q16 6 27 14q22 -9 39 -28t25 -41q-16 -21 -41 -37q-21 -14 -52.5 -25.5t-75.5 -11.5t-76 11.5t-52 25.5q-25 16 -40 37q8 22 24.5 41t38.5 28q11 -8 27 -14q14 -5 33 -9.5t45 -4.5zM65 498q23 11 53 21q26 8 60.5 14.5t76.5 6.5
q113 0 162 -45.5t49 -140.5v-346q-6 -2 -16 -4q-8 -2 -20 -3t-28 -1q-15 0 -27 1t-20 3q-10 2 -17 4l-18 49q-34 -67 -140 -67q-75 0 -115 43t-40 131q0 86 50.5 123.5t149.5 37.5q23 0 45 -1t42 -3v26q0 30 -19 48t-63 18q-23 0 -45 -3.5t-39 -8.5q-20 -5 -38 -11
q-6 4 -12 11q-5 6 -10.5 15t-10.5 21t-7 23t-3 19q-1 10 0 19zM312 228q-30 3 -64 3q-33 0 -51 -15.5t-18 -52.5q0 -39 15 -54.5t43 -15.5q21 0 35 9t23 23.5t13 33.5t4 39v30z" />
    <glyph glyph-name="acircumflex" unicode="&#xe2;" horiz-adv-x="517" 
d="M435 661q-11 -22 -28 -40t-39 -26l-104 65l-103 -64q-23 8 -39.5 25.5t-27.5 39.5l152 129h35zM65 498q23 11 53 21q26 8 60.5 14.5t76.5 6.5q113 0 162 -45.5t49 -140.5v-346q-6 -2 -16 -4q-8 -2 -20 -3t-28 -1q-15 0 -27 1t-20 3q-10 2 -17 4l-18 49q-34 -67 -140 -67
q-75 0 -115 43t-40 131q0 86 50.5 123.5t149.5 37.5q23 0 45 -1t42 -3v24q0 32 -18.5 50t-63.5 18q-23 0 -45 -3.5t-39 -8.5q-20 -5 -38 -11q-6 4 -12 11q-5 6 -10.5 15t-10.5 21t-7 23t-3 19q-1 10 0 19zM312 228q-30 3 -64 3q-33 0 -51 -15.5t-18 -52.5q0 -39 15 -54.5
t43 -15.5q21 0 35 9t23 23.5t13 33.5t4 39v30z" />
    <glyph glyph-name="acute" unicode="&#xb4;" horiz-adv-x="224" 
d="M90 628q-26 5 -49 15t-37 29l91 147q18 2 38 -1t38 -10t32.5 -17.5t22.5 -23.5z" />
    <glyph glyph-name="adieresis" unicode="&#xe4;" horiz-adv-x="517" 
d="M99 717q6 1 16 3q8 2 20.5 3t29.5 1q16 0 28.5 -1t20.5 -3q10 -2 17 -3v-115q-7 -2 -17 -4q-17 -3 -49 -3q-33 0 -49 3q-10 2 -17 4v115zM296 717q6 1 16 3q8 2 20.5 3t29.5 1q16 0 28.5 -1t20.5 -3q10 -2 17 -3v-115q-7 -2 -17 -4q-17 -3 -49 -3q-34 0 -50 3
q-10 2 -16 4v115zM65 498q23 11 53 21q26 8 60.5 14.5t76.5 6.5q113 0 162 -45.5t49 -140.5v-346q-6 -2 -16 -4q-8 -2 -20 -3t-28 -1q-15 0 -27 1t-20 3q-10 2 -17 4l-18 49q-34 -67 -140 -67q-75 0 -115 43t-40 131q0 86 50.5 123.5t149.5 37.5q23 0 45 -1t42 -3v23
q0 32 -18.5 50.5t-63.5 18.5q-23 0 -45 -3.5t-39 -8.5q-20 -5 -38 -11q-6 4 -12 11q-5 6 -10.5 15t-10.5 21t-7 23t-3 19q-1 10 0 19zM312 228q-30 3 -64 3q-33 0 -51 -15.5t-18 -52.5q0 -39 15 -54.5t43 -15.5q21 0 35 9t23 23.5t13 33.5t4 39v30z" />
    <glyph glyph-name="ae" unicode="&#xe6;" horiz-adv-x="772" 
d="M397 480q60 60 140 60q93 0 149.5 -51t56.5 -158q0 -23 -2 -43t-4 -34q-3 -17 -5 -31h-271q7 -60 33.5 -86t71.5 -26q22 0 41 3t33 8q16 5 29 12q18 -15 30.5 -42t14.5 -57q-16 -13 -42 -23q-22 -8 -54.5 -15t-77.5 -7q-40 0 -69.5 9.5t-50 22.5t-33.5 27.5t-19 25.5
q-6 -10 -18.5 -24.5t-33 -28t-50 -23t-71.5 -9.5q-87 0 -128.5 44t-41.5 129t51.5 121t148.5 36h80v27q0 32 -17 49t-61 17q-23 0 -44 -3.5t-38 -8.5q-19 -5 -36 -11q-42 44 -44 108q23 11 52 21q25 8 59 14.5t76 6.5q57 0 90.5 -17t54.5 -43zM595 346q0 35 -12 58.5
t-47 23.5q-30 0 -50 -24t-26 -86h133q0 5 1 9q0 4 0.5 9t0.5 10zM247 226q-36 0 -51.5 -15t-15.5 -51q0 -65 52 -65q39 0 56 29.5t17 72.5v29h-58z" />
    <glyph glyph-name="aeacute" unicode="&#x1fd;" horiz-adv-x="772" 
d="M377 595q-26 5 -48.5 15t-36.5 29l91 147q18 2 38 -1t38 -10t32.5 -17.5t22.5 -23.5zM397 480q60 60 140 60q93 0 149.5 -51t56.5 -158q0 -23 -2 -43t-4 -34q-3 -17 -5 -31h-271q7 -60 33.5 -86t71.5 -26q22 0 41 3t33 8q16 5 29 12q18 -15 30.5 -42t14.5 -57
q-16 -13 -42 -23q-22 -8 -54.5 -15t-77.5 -7q-40 0 -69.5 9.5t-50 22.5t-33.5 27.5t-19 25.5q-6 -10 -18.5 -24.5t-33 -28t-50 -23t-71.5 -9.5q-87 0 -128.5 44t-41.5 129t51.5 121t148.5 36h80v27q0 32 -17 49t-61 17q-23 0 -44 -3.5t-38 -8.5q-19 -5 -36 -11
q-42 44 -44 108q23 11 52 21q25 8 59 14.5t76 6.5q57 0 90.5 -17t54.5 -43zM595 346q0 35 -12 58.5t-47 23.5q-30 0 -50 -24t-26 -86h133q0 5 1 9q0 4 0.5 9t0.5 10zM247 226q-36 0 -51.5 -15t-15.5 -51q0 -65 52 -65q39 0 56 29.5t17 72.5v29h-58z" />
    <glyph glyph-name="agrave" unicode="&#xe0;" horiz-adv-x="517" 
d="M323 639q-14 -19 -36.5 -29t-48.5 -15l-137 139q8 13 22.5 23.5t32.5 17.5t38 10t38 1zM65 498q23 11 53 21q26 8 60.5 14.5t76.5 6.5q113 0 162 -45.5t49 -140.5v-346q-6 -2 -16 -4q-8 -2 -20 -3t-28 -1q-15 0 -27 1t-20 3q-10 2 -17 4l-18 49q-34 -67 -140 -67
q-75 0 -115 43t-40 131q0 86 50.5 123.5t149.5 37.5q23 0 45 -1t42 -3v21q0 32 -18 51.5t-64 19.5q-23 0 -45 -3.5t-39 -8.5q-20 -5 -38 -11q-6 4 -12 11q-5 6 -10.5 15t-10.5 21t-7 23t-3 19q-1 10 0 19zM312 228q-30 3 -64 3q-33 0 -51 -15.5t-18 -52.5q0 -39 15 -54.5
t43 -15.5q21 0 35 9t23 23.5t13 33.5t4 39v30z" />
    <glyph glyph-name="amacron" unicode="&#x101;" horiz-adv-x="517" 
d="M413 701q6 -18 5.5 -42t-5.5 -44h-303q-5 21 -5 45t5 41h303zM65 498q23 11 53 21q26 8 61 14.5t77 6.5q113 0 161.5 -45.5t48.5 -140.5v-346q-6 -2 -16 -4q-8 -2 -20 -3t-28 -1q-15 0 -27 1t-20 3q-10 2 -17 4l-17 49q-35 -67 -141 -67q-74 0 -114.5 43t-40.5 131
q0 86 51 123.5t150 37.5q22 0 44 -1t42 -3v21q0 34 -18 52.5t-63 18.5q-24 0 -46 -3.5t-39 -8.5q-20 -5 -37 -11q-6 4 -12 11q-5 6 -11 15t-11 21t-7 23t-3 19q-1 10 0 19zM312 228q-29 3 -63 3q-33 0 -51 -15.5t-18 -52.5q0 -39 15 -54.5t43 -15.5q20 0 34 9t23 23.5
t13 33.5t4 39v30z" />
    <glyph glyph-name="ampersand" unicode="&#x26;" horiz-adv-x="650" 
d="M318 690q78 0 123.5 -34t45.5 -97q0 -36 -13 -66t-34.5 -54.5t-49 -45.5t-56.5 -40q22 -32 50.5 -63.5t63.5 -61.5q11 19 20.5 39.5t17.5 41.5q33 1 62 -13t46 -37q-9 -20 -23 -44t-34 -50q50 -31 109 -55q-3 -37 -25.5 -68t-50.5 -43q-67 26 -129 65q-14 -12 -33.5 -25
t-45 -24t-57 -18t-69.5 -7q-41 0 -78.5 10t-66 31t-45.5 54t-17 78q0 42 15 75.5t37 60t46.5 45t44.5 30.5q-17 40 -25.5 78t-8.5 72q0 37 10.5 67.5t32.5 52.5t56 34t81 12zM312 599q-21 0 -33.5 -15t-12.5 -48q0 -46 21 -95q29 22 48 48t19 65q0 20 -10.5 32.5t-31.5 12.5
zM257 103q32 0 56 9t40 19q-40 35 -72.5 73t-58.5 79q-18 -17 -35 -41.5t-17 -58.5q0 -36 24 -58t63 -22z" />
    <glyph glyph-name="aogonek" unicode="&#x105;" horiz-adv-x="517" 
d="M65 498q23 11 53 20q26 8 60.5 14.5t76.5 6.5q113 0 162 -45t49 -140v-346q-17 -12 -32 -30t-26 -37.5t-16.5 -38.5t-2.5 -31q8 -33 49 -13q6 -6 11.5 -16t9.5 -22t6 -23.5t2 -19.5q-18 -12 -46 -19.5t-59 -7.5q-48 0 -71.5 19.5t-30.5 52.5q-10 45 13 91.5t71 88.5
l-24 55q-34 -67 -140 -67q-75 0 -115 43t-40 131q0 86 50.5 123.5t149.5 37.5q23 0 45 -1t42 -3v16q0 34 -18 55t-64 21q-23 0 -45 -3.5t-39 -8.5q-20 -5 -38 -11q-6 4 -12 11q-5 6 -10.5 15t-10.5 21t-7 23t-3 19q-1 10 0 19zM312 228q-30 3 -64 3q-33 0 -51 -15.5
t-18 -52.5q0 -39 15 -54.5t43 -15.5q21 0 35 9t23 23.5t13 33.5t4 39v30z" />
    <glyph glyph-name="approxequal" unicode="&#x2248;" horiz-adv-x="522" 
d="M181 347q-18 0 -30.5 -5.5t-20.5 -12.5q-10 -8 -16 -18q-26 10 -43.5 29t-23.5 45q11 20 29 36q15 14 39.5 25.5t59.5 11.5q28 0 49 -8t39 -17.5t36.5 -17.5t42.5 -8q17 0 29.5 5t20.5 12q10 8 16 18q26 -9 44 -28.5t23 -45.5q-11 -20 -29 -36q-15 -14 -39.5 -25
t-59.5 -11q-28 0 -49 8t-39 17.5t-36.5 17.5t-41.5 8zM181 163q-18 0 -30.5 -5.5t-20.5 -12.5q-10 -8 -16 -17q-26 9 -43.5 28.5t-23.5 45.5q11 20 29 36q15 14 39.5 25.5t59.5 11.5q28 0 49 -8t39 -17.5t36.5 -17.5t42.5 -8q17 0 29.5 5t20.5 12q10 8 16 18q26 -9 44 -28.5
t23 -45.5q-11 -21 -29 -37q-15 -14 -39.5 -25t-59.5 -11q-28 0 -49 8t-39 17.5t-36.5 17.5t-41.5 8z" />
    <glyph glyph-name="aring" unicode="&#xe5;" horiz-adv-x="517" 
d="M123 700q0 29 11.5 51t31 37t44 22.5t51.5 7.5q26 0 51 -7.5t44.5 -22t31.5 -36.5t12 -52q0 -29 -11 -51.5t-30.5 -38t-45 -23.5t-53.5 -8q-59 0 -98 31.5t-39 89.5zM309 700q0 17 -12 29.5t-37 12.5q-23 0 -35 -13t-12 -29q0 -17 12 -29.5t35 -12.5q25 0 37 13t12 29z
M65 498q23 11 53 21q26 8 60.5 14.5t76.5 6.5q113 0 162 -45.5t49 -140.5v-346q-6 -2 -16 -4q-8 -2 -20 -3t-28 -1q-15 0 -27 1t-20 3q-10 2 -17 4l-18 49q-34 -67 -140 -67q-75 0 -115 43t-40 131q0 86 50.5 123.5t149.5 37.5q23 0 45 -1t42 -3v21q0 33 -18 52t-64 19
q-23 0 -45 -3.5t-39 -8.5q-20 -5 -38 -11q-6 4 -12 11q-5 6 -10.5 15t-10.5 21t-7 23t-3 19q-1 10 0 19zM312 228q-30 3 -64 3q-33 0 -51 -15.5t-18 -52.5q0 -39 15 -54.5t43 -15.5q21 0 35 9t23 23.5t13 33.5t4 39v30z" />
    <glyph glyph-name="aringacute" unicode="&#x1fb;" horiz-adv-x="517" 
d="M258 973q17 1 35.5 -1t35.5 -7.5t30.5 -13.5t21.5 -17l-128 -103q-25 3 -46 10.5t-34 21.5zM126 690q0 30 11.5 53.5t30.5 39t43.5 23.5t50.5 8q25 0 50 -8t44 -23.5t31 -38.5t12 -54t-11 -54.5t-30 -39.5t-44 -24.5t-53 -8.5q-58 0 -96.5 33t-38.5 94zM310 690
q0 17 -12 31t-37 14q-24 0 -36 -14t-12 -31t12 -31.5t36 -14.5q25 0 37 14.5t12 31.5zM65 498q23 11 53 21q26 8 60.5 14.5t76.5 6.5q113 0 162 -45.5t49 -140.5v-346q-6 -2 -16 -4q-8 -2 -20 -3t-28 -1q-15 0 -27 1t-20 3q-10 2 -17 4l-18 49q-34 -67 -140 -67
q-75 0 -115 43t-40 131q0 86 50.5 123.5t149.5 37.5q23 0 45 -1t42 -3v22q0 36 -18.5 53t-63.5 17q-23 0 -45 -3.5t-39 -8.5q-20 -5 -38 -11q-6 4 -12 11q-5 6 -10.5 15t-10.5 21t-7 23t-3 19q-1 10 0 19zM312 228q-30 3 -64 3q-33 0 -51 -15.5t-18 -52.5q0 -39 15 -54.5
t43 -15.5q21 0 35 9t23 23.5t13 33.5t4 39v30z" />
    <glyph glyph-name="arrowdown" unicode="&#x2193;" horiz-adv-x="520" 
d="M209 630q12 3 24.5 5t26.5 2q13 0 26 -1.5t25 -5.5v-398l126 128q21 -8 38 -23.5t24 -35.5l-239 -238l-239 238q7 19 24 35t37 24l127 -128v398v0z" />
    <glyph glyph-name="arrowleft" unicode="&#x2190;" horiz-adv-x="624" 
d="M257 589q20 -7 36 -24t23 -37l-128 -127h398q7 -22 7 -51q0 -13 -1.5 -26t-5.5 -25h-398l128 -126q-8 -21 -24 -38t-35 -24l-238 239z" />
    <glyph glyph-name="arrowright" unicode="&#x2192;" horiz-adv-x="624" 
d="M367 111q-19 7 -35 24t-24 38l128 126h-398q-3 12 -5 25t-2 26q0 29 7 51h398l-128 127q8 20 23.5 37t35.5 24l238 -239z" />
    <glyph glyph-name="arrowup" unicode="&#x2191;" horiz-adv-x="520" 
d="M499 399q-7 -20 -24 -36t-38 -23l-126 127v-397q-12 -4 -25 -5.5t-26 -1.5q-29 0 -51 7v397l-127 -127q-20 8 -37 24t-24 35l239 238z" />
    <glyph glyph-name="asciicircum" unicode="^" horiz-adv-x="536" 
d="M508 449q-7 -2 -17 -4q-17 -3 -45 -3t-46 3q-11 2 -19 4l-113 165l-112 -165q-8 -2 -19 -4q-18 -3 -47 -3t-45 3q-10 2 -17 4l181 264q7 1 16 3q8 2 18.5 3t24.5 1t24.5 -1t18.5 -3q9 -2 17 -3z" />
    <glyph glyph-name="asciitilde" unicode="~" horiz-adv-x="512" 
d="M176 245q-18 0 -30.5 -5.5t-20.5 -12.5q-10 -8 -16 -17q-26 9 -43.5 28.5t-22.5 45.5q11 20 29 36q15 14 39 25.5t59 11.5q28 0 49 -8t39 -17.5t36.5 -17.5t42.5 -8q17 0 29.5 5t20.5 12q10 8 16 18q26 -9 44 -28.5t23 -45.5q-11 -21 -29 -37q-15 -14 -39 -25t-59 -11
q-29 0 -49.5 8t-39 17.5t-37 17.5t-41.5 8z" />
    <glyph glyph-name="asterisk" unicode="*" horiz-adv-x="329" 
d="M127 715q18 6 38 5.5t37 -6.5v-72l71 22q11 -13 16 -31.5t5 -38.5l-69 -23l45 -61q-11 -13 -27.5 -25t-35.5 -17l-42 59l-42 -59q-20 5 -36 17t-27 25l43 60l-68 24q0 20 5.5 38.5t17.5 31.5l69 -22v73z" />
    <glyph glyph-name="at" unicode="@" horiz-adv-x="908" 
d="M866 303q0 -54 -14.5 -94.5t-40 -68t-61 -41.5t-77.5 -14q-55 0 -89.5 14.5t-51.5 40.5q-17 -26 -47.5 -40.5t-80.5 -14.5q-35 0 -63.5 10t-49 32.5t-31.5 59.5t-11 91q0 55 11 92t31.5 59.5t49 32.5t63.5 10q38 0 65 -8t45 -24v27q5 2 14 5q8 2 19.5 3.5t28.5 1.5
t28 -1.5t19 -3.5q9 -3 14 -5v-236q0 -26 9.5 -39t32.5 -13q33 0 51 29t18 95q0 65 -18.5 118t-54 90t-87.5 57t-119 20q-143 0 -222.5 -80t-79.5 -229q0 -83 25 -140t67 -92t96 -51t113 -16q63 0 127 16t123 50q19 -9 30 -28.5t13 -42.5q-73 -49 -151.5 -71.5t-156.5 -22.5
q-80 0 -155 24t-133.5 73.5t-93.5 124t-35 176.5q0 96 32.5 171t90.5 126.5t137.5 79t172.5 27.5t167 -27t125 -76.5t78 -119.5t27 -157zM382 278q0 -62 16 -83.5t52 -21.5q28 0 45 17t19 49v82q-2 32 -19.5 48t-44.5 16q-18 0 -31 -4.5t-21 -16.5t-12 -32.5t-4 -53.5z" />
    <glyph glyph-name="atilde" unicode="&#xe3;" horiz-adv-x="517" 
d="M93 679q12 14 28 25q14 10 33 18t43 8t40 -5t29.5 -11t27 -11t31.5 -5q13 0 22.5 4t16.5 9q8 5 13 13q22 -11 35.5 -32.5t15.5 -44.5q-12 -15 -27 -26q-14 -10 -32.5 -17.5t-43.5 -7.5q-24 0 -40.5 5t-29.5 11t-26.5 11t-31.5 5q-13 0 -22.5 -4t-16.5 -9q-8 -6 -14 -13
q-46 26 -51 77zM65 498q23 11 53 21q26 8 60.5 14.5t76.5 6.5q113 0 162 -45.5t49 -140.5v-346q-6 -2 -16 -4q-8 -2 -20 -3t-28 -1q-15 0 -27 1t-20 3q-10 2 -17 4l-18 49q-34 -67 -140 -67q-75 0 -115 43t-40 131q0 86 50.5 123.5t149.5 37.5q23 0 45 -1t42 -3v26
q0 35 -19 50.5t-63 15.5q-23 0 -45 -3.5t-39 -8.5q-20 -5 -38 -11q-6 4 -12 11q-5 6 -10.5 15t-10.5 21t-7 23t-3 19q-1 10 0 19zM312 228q-30 3 -64 3q-33 0 -51 -15.5t-18 -52.5q0 -39 15 -54.5t43 -15.5q21 0 35 9t23 23.5t13 33.5t4 39v30z" />
    <glyph glyph-name="b" unicode="b" horiz-adv-x="561" 
d="M209 488q21 25 52 38t76 13q42 0 76.5 -14t59 -46.5t38 -85t13.5 -129.5t-13.5 -129.5t-38 -84.5t-59 -46t-76.5 -14q-45 0 -76 13t-52 37v-32l-21 -4q-10 -2 -24.5 -3t-32.5 -1q-19 0 -32.5 1t-23.5 3q-11 2 -20 4v734q9 2 20 4q10 2 23.5 3t32.5 1q18 0 32.5 -1
t24.5 -3l21 -4v-254zM362 264q0 47 -5 77t-15 47.5t-25 24t-35 6.5q-33 0 -52.5 -24.5t-20.5 -66.5v-128q0 -42 20 -66t53 -24q20 0 35 6.5t25 23.5t15 47t5 77z" />
    <glyph glyph-name="backslash" unicode="\" horiz-adv-x="526" 
d="M508 -38q-10 -3 -22 -5q-11 -2 -25.5 -3t-32.5 -1q-17 0 -31 1t-25 3q-12 2 -22 5l-333 779q10 2 22 4q11 2 25.5 3.5t32.5 1.5q17 0 31.5 -1.5t25.5 -3.5q12 -2 21 -4z" />
    <glyph glyph-name="bar" unicode="|" horiz-adv-x="305" 
d="M74 782q9 2 20 4q10 2 24.5 3t34.5 1q18 0 32 -1t25 -3q12 -2 22 -4v-971q-10 -2 -22 -4q-11 -2 -25 -3t-32 -1q-20 0 -34.5 1t-24.5 3q-11 2 -20 4v971v0z" />
    <glyph glyph-name="braceleft" unicode="{" horiz-adv-x="374" 
d="M341 810q4 -12 5.5 -26.5t1.5 -29.5t-2 -29.5t-5 -26.5h-48q-26 0 -37.5 -13t-11.5 -36v-201q0 -37 -12 -66t-38 -47q26 -18 38 -47t12 -67v-201q0 -23 11.5 -36t37.5 -13h48q7 -24 7 -58q0 -15 -1.5 -29t-5.5 -25h-105q-69 0 -104.5 38.5t-35.5 101.5v231q0 23 -11.5 36
t-37.5 13h-26q-5 11 -6.5 26t-1.5 30q0 31 8 55h26q26 0 37.5 13t11.5 36v231q0 63 35.5 101.5t104.5 38.5h105z" />
    <glyph glyph-name="braceright" unicode="}" horiz-adv-x="373" 
d="M138 810q69 0 104.5 -38.5t35.5 -101.5v-231q0 -23 11.5 -36t37.5 -13h26q8 -24 8 -55q0 -15 -1.5 -30t-6.5 -26h-26q-26 0 -37.5 -13t-11.5 -36v-231q0 -63 -35.5 -101.5t-104.5 -38.5h-105q-4 11 -5.5 25t-1.5 29q0 34 7 58h48q26 0 37.5 13t11.5 36v201q0 38 12 67
t38 47q-26 18 -38 47t-12 66v201q0 23 -11.5 36t-37.5 13h-48q-3 12 -5 26.5t-2 29.5t1.5 29.5t5.5 26.5h105z" />
    <glyph glyph-name="bracketleft" unicode="[" horiz-adv-x="342" 
d="M309 810q1 -6 3 -14q2 -7 3 -17.5t1 -24.5t-1 -24t-3 -17q-2 -8 -3 -13h-90v-760h90q1 -6 3 -14q2 -7 3 -17t1 -24t-1 -24t-3 -17q-2 -8 -3 -14h-234v980h234z" />
    <glyph glyph-name="bracketright" unicode="]" horiz-adv-x="342" 
d="M33 -170q-2 6 -4 14q-3 13 -3 41q0 27 3 41q2 8 4 14h90v760h-90q-2 5 -4 13q-3 13 -3 41t3 42q2 8 4 14h234v-980h-234z" />
    <glyph glyph-name="breve" unicode="&#x2d8;" horiz-adv-x="324" 
d="M329 663q-16 -21 -41 -37q-21 -14 -52.5 -25.5t-75.5 -11.5t-76 11.5t-52 25.5q-25 16 -40 37q8 22 24.5 41t38.5 28q11 -8 27 -14q14 -5 33 -9.5t45 -4.5q25 0 44.5 4.5t33.5 9.5q16 6 27 14q22 -9 39 -28t25 -41z" />
    <glyph glyph-name="brokenbar" unicode="&#xa6;" horiz-adv-x="298" 
d="M70 786q9 2 20 4q10 2 24.5 3t34.5 1q18 0 32 -1t25 -3q12 -2 22 -4v-428q-10 -2 -22 -4q-11 -2 -25 -3t-32 -1q-20 0 -34.5 1t-24.5 3q-11 2 -20 4v428zM70 246q9 2 20 4q10 2 24.5 3t34.5 1q18 0 32 -1t25 -3q12 -2 22 -4v-439q-10 -2 -22 -4q-11 -2 -25 -3t-32 -1
q-20 0 -34.5 1t-24.5 3q-11 2 -20 4v439z" />
    <glyph glyph-name="bullet" unicode="&#x2022;" horiz-adv-x="362" 
d="M300 282q0 -53 -33.5 -84.5t-84.5 -31.5t-85.5 31.5t-34.5 84.5q0 27 9 48.5t25.5 37t38 24t47.5 8.5q51 0 84.5 -32t33.5 -86z" />
    <glyph glyph-name="c" unicode="c" horiz-adv-x="448" 
d="M298 417q-57 0 -80.5 -36t-23.5 -117t25.5 -114.5t82.5 -33.5q18 0 33 2t26 5l23 8q19 -18 30.5 -46.5t13.5 -59.5q-16 -10 -39 -18q-20 -7 -49.5 -12t-71.5 -5q-118 0 -175.5 66.5t-57.5 206.5q0 276 233 276q39 0 67 -5t47 -11q21 -7 36 -15q-1 -29 -12.5 -57.5
t-31.5 -47.5q-10 3 -21 7q-10 2 -24 4.5t-31 2.5z" />
    <glyph glyph-name="cacute" unicode="&#x107;" horiz-adv-x="448" 
d="M249 595q-26 5 -48.5 15t-36.5 29l91 147q18 2 38 -1t38 -10t32.5 -17.5t22.5 -23.5zM298 418q-57 0 -80 -36t-23 -118q0 -81 25 -114.5t82 -33.5q18 0 33 2t26 5q13 4 24 8q19 -18 30.5 -46.5t13.5 -59.5q-16 -10 -39 -18q-20 -7 -50 -12t-71 -5q-118 0 -176 66.5
t-58 206.5q0 277 234 277q38 0 66.5 -5t47.5 -11q22 -7 36 -15q-2 -29 -13 -57.5t-31 -47.5q-10 3 -21 7l-25 4.5t-31 2.5z" />
    <glyph glyph-name="caron" unicode="&#x2c7;" horiz-adv-x="404" 
d="M23 670q11 22 28.5 40.5t39.5 26.5l107 -66l106 65q23 -8 40 -26t28 -40l-156 -132h-36z" />
    <glyph glyph-name="ccaron" unicode="&#x10d;" horiz-adv-x="448" 
d="M110 717q10 20 26 37.5t36 25.5l97 -62l97 61q21 -8 37 -25t26 -37l-143 -122h-32zM298 418q-57 0 -80 -36t-23 -118q0 -81 25 -114.5t82 -33.5q18 0 33 2t26 5l23 8q20 -18 31.5 -46.5t13.5 -59.5q-16 -10 -39 -18q-20 -7 -50 -12t-71 -5q-118 0 -176 66.5t-58 206.5
q0 277 233 277q39 0 67 -5t47 -11q22 -7 37 -15q-2 -29 -13.5 -57.5t-31.5 -47.5q-10 3 -21 7q-10 2 -24 4.5t-31 2.5z" />
    <glyph glyph-name="ccedilla" unicode="&#xe7;" horiz-adv-x="448" 
d="M276 -48q58 0 81 -28t23 -71q0 -52 -35.5 -77.5t-94.5 -25.5q-26 0 -45 3.5t-33 8.5q-16 5 -27 12q-1 16 6 33t19 25q11 -5 28.5 -9t36.5 -4q23 -1 41.5 7t18.5 31q0 16 -10.5 25.5t-33.5 9.5h-52l-14 16l16 88q-84 18 -125 83.5t-41 183.5q0 277 234 277q38 0 66.5 -5
t47.5 -11q22 -7 36 -15q-2 -29 -13.5 -54.5t-30.5 -44.5l-21 6l-25 4.5t-31 2.5q-57 0 -80 -38.5t-23 -120.5q0 -81 25 -117.5t82 -36.5q18 0 33 2t26 5q13 4 24 8q38 -36 44 -100q-15 -9 -36 -16q-18 -6 -45 -12t-65 -7z" />
    <glyph glyph-name="ccircumflex" unicode="&#x109;" horiz-adv-x="448" 
d="M425 661q-11 -21 -27 -38.5t-38 -25.5l-102 64l-101 -63q-22 8 -38.5 25t-27.5 38l149 127h35zM298 418q-57 0 -80 -36t-23 -118q0 -81 25 -114.5t82 -33.5q18 0 33 2t26 5q13 4 24 8q19 -18 30.5 -46.5t13.5 -59.5q-16 -10 -39 -18q-20 -7 -50 -12t-71 -5
q-118 0 -176 66.5t-58 206.5q0 277 234 277q38 0 66.5 -5t47.5 -11q22 -7 36 -15q-2 -29 -13 -57.5t-31 -47.5q-10 3 -21 7l-25 4.5t-31 2.5z" />
    <glyph glyph-name="cdotaccent" unicode="&#x10b;" horiz-adv-x="448" 
d="M331 606q-7 -2 -18 -4q-9 -2 -21.5 -3t-29.5 -1q-18 0 -31 1t-22 3q-11 2 -17 4v125q6 1 17 3q9 2 22 3t31 1q17 0 29.5 -1t21.5 -3l18 -3v-125zM298 418q-57 0 -80 -36t-23 -118q0 -81 25 -114.5t82 -33.5q18 0 33 2t26 5q13 4 24 8q19 -18 30.5 -46.5t13.5 -59.5
q-16 -10 -39 -18q-20 -7 -50 -12t-71 -5q-118 0 -176 66.5t-58 206.5q0 277 234 277q38 0 66.5 -5t47.5 -11q22 -7 36 -15q-2 -29 -13 -57.5t-31 -47.5q-10 3 -21 7l-25 4.5t-31 2.5z" />
    <glyph glyph-name="cedilla" unicode="&#xb8;" horiz-adv-x="296" 
d="M177 35l-11 -58q58 0 81.5 -28t23.5 -71q0 -52 -35.5 -77.5t-95.5 -25.5q-26 0 -45 3.5t-33 8.5q-16 5 -27 12q-1 16 6 33t19 25q11 -5 29 -9t36 -4q24 -1 42 7t18 31q0 16 -10 25.5t-33 9.5h-53l-14 16l22 120z" />
    <glyph glyph-name="cent" unicode="&#xa2;" horiz-adv-x="463" 
d="M210 627q8 2 19 5q9 2 20.5 3.5t25.5 1.5q15 0 27 -1.5t21 -3.5q10 -3 18 -5l-9 -93q23 -3 40.5 -7t28.5 -8q13 -4 21 -10q-2 -29 -13.5 -54.5t-30.5 -44.5l-21 6l-25 4.5t-31 2.5q-57 0 -80 -38.5t-23 -120.5q0 -81 25 -117.5t82 -36.5q18 0 33 2t26 5q13 4 24 8
q38 -36 44 -100q-11 -7 -25 -12q-13 -5 -31 -10t-44 -8l9 -96q-8 -3 -18 -5q-20 -5 -48 -5q-26 0 -46 5q-11 2 -19 5l8 95q-180 27 -180 269q0 244 180 272l-8 92v0z" />
    <glyph glyph-name="circumflex" unicode="&#x2c6;" horiz-adv-x="396" 
d="M372 620q-11 -23 -28.5 -41t-40.5 -27l-106 67l-106 -66q-23 9 -40 26.5t-28 40.5l155 132h37z" />
    <glyph glyph-name="colon" unicode=":" horiz-adv-x="262" 
d="M208 375q-9 -2 -20 -4q-10 -2 -24 -3t-33 -1q-20 0 -34 1t-24 3q-11 2 -19 4v143q8 2 19 4q10 2 24 3t34 1q19 0 33 -1t24 -3q11 -2 20 -4v-143zM208 8q-9 -2 -20 -4q-10 -2 -24 -3t-33 -1q-20 0 -34 1t-24 3q-11 2 -19 4v143q8 2 19 4q10 2 24 3t34 1q19 0 33 -1t24 -3
q11 -2 20 -4v-143z" />
    <glyph glyph-name="comma" unicode="," horiz-adv-x="254" 
d="M61 -110q10 12 18 29q7 14 13 34.5t8 46.5q-12 1 -21 2t-16 3q-8 2 -13 3v143q9 2 20 4q10 2 24 3t33 1q18 0 32 -1t24 -3l21 -4v-103q0 -48 -13.5 -84.5t-30.5 -61.5q-19 -29 -44 -50z" />
    <glyph glyph-name="commaaccentcomb" unicode="&#xf6c3;" horiz-adv-x="0" 
d="M41 -110q10 12 18 29q7 14 13 34.5t8 46.5q-12 1 -21 2t-16 3q-8 2 -13 3v143q8 2 19 4q10 2 24 3t34 1q18 0 32 -1t24 -3l21 -4v-103q0 -48 -13.5 -84.5t-30.5 -61.5q-19 -29 -44 -50z" />
    <glyph glyph-name="commaaccentcomb.alt" horiz-adv-x="0" 
d="M163 683q-10 -12 -18 -29q-7 -14 -13 -35t-8 -47q11 -1 20.5 -2t16.5 -2q8 -2 13 -3v-143q-8 -2 -19 -4q-10 -2 -24.5 -3t-33.5 -1q-18 0 -32.5 1t-24.5 3q-11 2 -20 4v103q0 48 13.5 84t30.5 61q19 29 44 50z" />
    <glyph glyph-name="copyright" unicode="&#xa9;" horiz-adv-x="792" 
d="M396 -17q-74 0 -139 28t-113.5 76.5t-76.5 113.5t-28 139t28 139t76.5 113.5t113.5 76.5t139 28t139 -28t113.5 -76.5t76.5 -113.5t28 -139t-28 -139t-76.5 -113.5t-113.5 -76.5t-139 -28zM396 599q-54 0 -101 -20t-82 -55.5t-55 -82.5t-20 -101t20 -101t55 -82.5
t82 -55.5t101 -20t101 20t82 55.5t55 82.5t20 101t-20 101t-55 82.5t-82 55.5t-101 20zM400 146q-88 0 -133.5 51.5t-45.5 148.5q0 99 45.5 149t133.5 50q26 0 47 -4.5t36 -9.5q18 -6 31 -14q-1 -47 -38 -74q-9 3 -19 7q-8 2 -19.5 4.5t-23.5 2.5q-36 0 -58.5 -24t-22.5 -88
q0 -32 6 -52.5t16.5 -32.5t25.5 -17t33 -5q27 0 47 5q11 3 19 6q20 -11 29 -32t10 -43q-14 -8 -32 -14q-16 -5 -38 -9.5t-49 -4.5z" />
    <glyph glyph-name="currency" unicode="&#xa4;" horiz-adv-x="601" 
d="M411 83q-24 -14 -52 -22t-58 -8q-31 0 -59 8t-52 22l-71 -71q-7 0 -15 4q-7 3 -16.5 8t-19.5 16q-10 10 -15 18.5t-7 15.5q-3 8 -4 15l72 72q-14 23 -22.5 51t-8.5 59q0 30 8.5 58t22.5 52l-72 72q0 7 4 15q3 7 8 16t15 19t19 16t16 8q8 3 15 3l71 -72q50 31 111 31
q30 0 58 -8.5t52 -22.5l72 72q7 0 15 -3q14 -5 35 -24q9 -10 14.5 -19t8.5 -16q4 -8 4 -15l-72 -72q14 -24 22.5 -52t8.5 -58q0 -31 -8.5 -59t-22.5 -52l72 -71q-1 -8 -4 -16q-5 -17 -22 -35q-11 -11 -20 -16.5t-16 -7.5q-8 -3 -15 -2zM301 381q-23 0 -43 -8.5t-35 -23.5
t-23.5 -35t-8.5 -43t8.5 -43t23.5 -35t35 -23.5t43 -8.5q47 0 78.5 31.5t31.5 78.5t-31.5 78.5t-78.5 31.5z" />
    <glyph glyph-name="d" unicode="d" horiz-adv-x="560" 
d="M351 742l21 4q10 2 24 3t33 1q18 0 32 -1t24 -3q11 -2 20 -4v-734q-8 -2 -19 -4q-9 -2 -22 -3t-28 -1q-16 0 -29 1t-22 3q-11 2 -19 4l-7 41q-21 -28 -54 -43.5t-81 -15.5q-42 0 -76.5 14t-59 46t-38 84t-13.5 129q0 76 13 129t37 85.5t58.5 47t78.5 14.5t75 -13t52 -38
v254zM351 336q-2 36 -20.5 59.5t-51.5 23.5q-20 0 -35.5 -6.5t-25.5 -24t-15 -47.5t-5 -78q0 -46 5 -75.5t15 -47t25.5 -24t35.5 -6.5q34 0 52.5 24t19.5 60v142z" />
    <glyph glyph-name="dagger" unicode="&#x2020;" horiz-adv-x="565" 
d="M226 -101l7 505l-205 -7q-2 8 -3 17q-1 8 -1.5 18t-0.5 21q0 13 0.5 23.5t1.5 17.5q1 8 3 14l205 -7l-7 199q8 1 19 2q8 1 19.5 2t24.5 1t24.5 -1t19.5 -2q10 -1 18 -2l-7 -199l193 7q1 -7 3 -16q1 -8 2 -18t1 -21q0 -12 -1 -22t-2 -18q-2 -9 -3 -16l-193 7l7 -505
l-61 -34z" />
    <glyph glyph-name="daggerdbl" unicode="&#x2021;" horiz-adv-x="625" 
d="M573 182q1 -7 2 -16q1 -8 2 -18.5t1 -21.5q0 -13 -1 -23t-2 -17q-1 -9 -2 -15l-205 7l7 -199q-9 -2 -19 -3q-9 -1 -20 -1.5t-24 -0.5q-14 0 -25 0.5t-19 1.5q-10 1 -18 3l7 199l-204 -7q-2 7 -3 16q-3 15 -3 39q0 25 3 40q1 9 3 16l204 -7l-7 114l7 115l-205 -7
q-2 8 -3 17q-1 8 -1.5 18t-0.5 21q0 13 0.5 22.5t1.5 17.5t3 15l205 -7l-7 199q8 1 19 2q8 1 19.5 2t24.5 1t24.5 -1t19.5 -2q10 -1 18 -2l-7 -199l204 7q1 -7 3 -16q1 -8 2 -18t1 -21q0 -12 -1 -22t-2 -18q-2 -9 -3 -16l-204 7l7 -115l-7 -114z" />
    <glyph glyph-name="dcaron" unicode="&#x10f;" horiz-adv-x="578" 
d="M539 599q28 36 39 67t7 79q35 7 66.5 3.5t53.5 -17.5q-5 -54 -31.5 -98.5t-66.5 -63.5q-20 1 -38.5 8.5t-29.5 21.5zM352 742l21 4q10 2 24 3t33 1q18 0 32 -1t24 -3q11 -2 20 -4v-734q-8 -2 -19 -4q-9 -2 -22 -3t-28 -1q-16 0 -29 1t-22 3q-11 2 -19 4l-7 41
q-21 -28 -54 -43.5t-81 -15.5q-42 0 -76.5 14t-59.5 46t-38.5 84t-13.5 129q0 76 13 129t37.5 86t59 47.5t78.5 14.5t75 -13.5t52 -38.5v254zM352 336q-2 36 -20.5 59.5t-51.5 23.5q-20 0 -35.5 -6.5t-25.5 -24t-15 -47.5t-5 -78q0 -46 5 -75.5t15 -47t25.5 -24t35.5 -6.5
q34 0 52.5 24t19.5 60v142z" />
    <glyph glyph-name="dcroat" unicode="&#x111;" horiz-adv-x="561" 
d="M568 675q1 -6 2 -14t1 -18q0 -11 -1 -19t-2 -14l-3 -12h-59v-590q-8 -2 -19 -4q-9 -2 -22 -3t-28 -1q-17 0 -29.5 1t-21.5 3q-11 2 -19 4l-8 41q-20 -28 -53 -43.5t-82 -15.5q-42 0 -76.5 14t-59 46t-38 84t-13.5 129q0 76 13 129t37.5 86t59 47.5t77.5 14.5
q45 0 75.5 -13.5t52.5 -38.5v110h-103q-2 5 -3 12q-3 12 -3 33q0 20 3 32q1 7 3 12h103v55l21 4q10 2 24 3t33 1q18 0 32 -1t24 -3q11 -2 20 -4v-55h59zM352 336q-2 36 -20.5 59.5t-51.5 23.5q-20 0 -35.5 -6.5t-25.5 -24t-15 -47.5t-5 -78q0 -46 5 -75.5t15 -47t25.5 -24
t35.5 -6.5q34 0 52.5 24t19.5 60v142z" />
    <glyph glyph-name="degree" unicode="&#xb0;" horiz-adv-x="353" 
d="M32 604q0 27 9.5 52.5t28 45.5t45.5 32.5t63 12.5t62.5 -12t44.5 -31.5t27 -45t9 -51.5t-9 -51.5t-27 -45t-44.5 -31.5t-62.5 -12q-37 0 -64.5 11.5t-45.5 31t-27 44t-9 50.5zM227 606q0 20 -12.5 36t-37.5 16q-26 0 -39 -16.5t-13 -36.5q0 -18 13 -34t39 -16
q25 0 37.5 16t12.5 35z" />
    <glyph glyph-name="dieresis" unicode="&#xa8;" horiz-adv-x="455" 
d="M191 613q-7 -2 -17 -4q-17 -3 -49 -3q-33 0 -49 3q-10 2 -17 4v115q6 1 16 3q8 2 20.5 3t29.5 1q16 0 28.5 -1t20.5 -3q10 -2 17 -3v-115zM388 613q-7 -2 -17 -4q-17 -3 -49 -3q-34 0 -50 3q-10 2 -16 4v115q6 1 16 3q8 2 20.5 3t29.5 1q16 0 28.5 -1t20.5 -3
q10 -2 17 -3v-115z" />
    <glyph glyph-name="divide" unicode="&#xf7;" horiz-adv-x="507" 
d="M328 396q-8 -2 -19 -4q-10 -2 -24 -3t-31 -1q-19 0 -32.5 1t-22.5 3q-11 2 -18 4v136q7 2 18 4q9 2 22.5 3t32.5 1q17 0 31 -1t24 -3q11 -2 19 -4v-136zM40 235q-2 6 -4 15q-3 13 -3 40q0 25 3 40q2 8 4 15h427q2 -7 4 -15t3 -17.5t1 -22.5t-1 -23t-3 -17q-2 -9 -4 -15
h-427zM328 48q-8 -2 -19 -4q-10 -2 -24 -3t-31 -1q-19 0 -32.5 1t-22.5 3q-11 2 -18 4v136q7 2 18 4q9 2 22.5 3t32.5 1q17 0 31 -1t24 -3q11 -2 19 -4v-136z" />
    <glyph glyph-name="dollar" unicode="$" horiz-adv-x="562" 
d="M222 781q6 2 16 4q8 2 19.5 3t25.5 1q15 0 27 -1t20 -3q10 -2 16 -4l-9 -113q35 -2 63.5 -6.5t50.5 -9.5q25 -5 46 -12q1 -7 0 -17q-2 -19 -9 -42q-4 -12 -8.5 -21t-9.5 -16q-5 -8 -11 -14q-21 5 -44 9q-20 4 -45.5 7t-52.5 3q-57 0 -91 -14t-34 -49q0 -26 25.5 -40.5
t64 -26l83.5 -24t83.5 -35.5t64 -60.5t25.5 -97.5q0 -87 -50 -137t-152 -61l10 -125q-7 -2 -16 -4q-8 -2 -19.5 -3t-26.5 -1q-14 0 -25.5 1t-19.5 3q-10 2 -17 4l9 123q-44 2 -79 9t-61 15q-30 9 -53 19q-1 7 0 16q0 8 1.5 18.5t5.5 23.5q8 26 17 40q4 8 10 14q27 -8 59 -14
q27 -5 61 -9.5t71 -4.5q54 0 86 13.5t32 49.5q0 30 -25.5 46t-63.5 27.5t-82 23t-82 33t-63.5 56.5t-25.5 94q0 81 48.5 130.5t143.5 62.5l-9 116v0z" />
    <glyph glyph-name="dotaccent" unicode="&#x2d9;" horiz-adv-x="190" 
d="M164 601q-7 -2 -18 -4q-18 -3 -51 -3q-35 0 -53 3q-11 2 -17 4v128q6 1 17 3q9 2 22 3t31 1q17 0 29.5 -1t21.5 -3l18 -3v-128z" />
    <glyph glyph-name="dotlessi" unicode="&#x131;" horiz-adv-x="264" 
d="M209 8q-9 -2 -20 -4q-10 -2 -24 -3t-33 -1q-20 0 -34 1t-24 3q-11 2 -19 4v514q8 2 19 4q10 2 24 3t34 1q19 0 33 -1t24 -3q11 -2 20 -4v-514z" />
    <glyph glyph-name="dotlessj" unicode="&#x237;" horiz-adv-x="266" 
d="M56 522q8 2 19 4q10 2 24 3t34 1q18 0 32 -1t24 -3l21 -4v-610q0 -78 -39.5 -120t-123.5 -42q-22 0 -38.5 2.5t-28.5 5.5q-14 4 -25 8l-2 10t-1.5 11t-0.5 13q0 19 2.5 33.5t5.5 24.5q4 11 9 19q6 -1 11 -2t10.5 -1.5t12.5 -0.5q26 0 40 14t14 47v588z" />
    <glyph glyph-name="e" unicode="e" horiz-adv-x="506" 
d="M193 219q4 -31 13 -51t22.5 -31.5t31.5 -16t41 -4.5t42.5 3.5t33.5 8.5q17 5 30 12q18 -16 32 -45.5t15 -59.5q-19 -13 -45 -23q-23 -8 -55.5 -15t-77.5 -7q-124 0 -182.5 66t-58.5 206q0 143 62.5 210t171.5 67q99 0 152.5 -51t53.5 -159q0 -25 -2 -45.5t-4 -34.5
q-3 -17 -5 -30h-271zM337 346q0 35 -14.5 58t-50.5 23q-31 0 -52.5 -25t-27.5 -87h143q1 8 1.5 15.5t0.5 15.5z" />
    <glyph glyph-name="eacute" unicode="&#xe9;" horiz-adv-x="515" 
d="M254 595q-26 5 -49 15t-37 29l91 147q18 2 38 -1t38 -10t32.5 -17.5t22.5 -23.5zM196 219q3 -31 12 -51t23 -31.5t32 -16t41 -4.5t42.5 3.5t33.5 8.5q17 5 30 12q18 -16 31.5 -45.5t15.5 -59.5q-19 -13 -45 -23q-23 -8 -55.5 -15t-77.5 -7q-125 0 -184.5 68t-59.5 208
q0 142 63.5 208t173.5 66q98 0 156 -52t58 -159q0 -25 -2 -45.5t-4 -34.5q-3 -17 -5 -30h-279zM337 346q0 35 -13 58.5t-50 23.5q-31 0 -52 -25t-27 -88h141q1 8 1 15.5v15.5z" />
    <glyph glyph-name="ebreve" unicode="&#x115;" horiz-adv-x="515" 
d="M439 669q-16 -21 -41 -37q-21 -14 -52.5 -25.5t-75.5 -11.5t-76 11.5t-52 25.5q-25 16 -40 37q8 22 24.5 41t38.5 28q11 -8 27 -14q14 -5 33 -9.5t45 -4.5q25 0 44.5 4.5t33.5 9.5q16 6 27 14q23 -9 39.5 -28t24.5 -41zM196 219q3 -31 12 -51t23 -31.5t32 -16t41 -4.5
t42.5 3.5t33.5 8.5q17 5 30 12q18 -16 31.5 -45.5t15.5 -59.5q-19 -13 -45 -23q-23 -8 -55.5 -15t-77.5 -7q-125 0 -184.5 68t-59.5 208q0 142 63.5 208t173.5 66q98 0 156 -52t58 -159q0 -25 -2 -45.5t-4 -34.5q-3 -17 -5 -30h-279zM337 346q0 35 -13 58.5t-50 23.5
q-31 0 -52 -25t-27 -88h141q1 8 1 15.5v15.5z" />
    <glyph glyph-name="ecaron" unicode="&#x11b;" horiz-adv-x="515" 
d="M103 721q11 21 27 38.5t37 25.5l103 -64l100 63q22 -8 38 -25t27 -38l-148 -126h-35zM196 219q3 -31 12 -51t23 -31.5t32 -16t41 -4.5t42.5 3.5t33.5 8.5q16 5 29 12q19 -16 32.5 -45.5t14.5 -59.5q-18 -13 -44 -23q-23 -8 -55.5 -15t-77.5 -7q-125 0 -184.5 68
t-59.5 208q0 142 63.5 208t173.5 66q98 0 156 -52t58 -159q0 -25 -2 -45.5t-4 -34.5q-3 -17 -5 -30h-279zM337 346q0 35 -13 58.5t-50 23.5q-31 0 -52.5 -25.5t-26.5 -87.5h140q1 8 1.5 15.5t0.5 15.5z" />
    <glyph glyph-name="ecircumflex" unicode="&#xea;" horiz-adv-x="515" 
d="M439 661q-11 -22 -28 -40t-39 -26l-104 65l-103 -64q-23 8 -39.5 25.5t-27.5 39.5l152 129h35zM196 219q3 -31 12 -51t23 -31.5t32 -16t41 -4.5t42.5 3.5t33.5 8.5q17 5 30 12q18 -16 31.5 -45.5t15.5 -59.5q-19 -13 -45 -23q-23 -8 -55.5 -15t-77.5 -7q-125 0 -184.5 68
t-59.5 208q0 142 63.5 208t173.5 66q98 0 156 -52t58 -159q0 -25 -2 -45.5t-4 -34.5q-3 -17 -5 -30h-279zM337 346q0 35 -13 58.5t-50 23.5q-31 0 -52 -25t-27 -88h141q1 8 1 15.5v15.5z" />
    <glyph glyph-name="edieresis" unicode="&#xeb;" horiz-adv-x="515" 
d="M235 602q-7 -2 -17 -4q-17 -3 -49 -3q-33 0 -49 3q-10 2 -17 4v115q6 1 16 3q8 2 20.5 3t29.5 1q16 0 28.5 -1t20.5 -3q10 -2 17 -3v-115zM432 602q-7 -2 -17 -4q-17 -3 -49 -3q-34 0 -50 3q-10 2 -16 4v115q6 1 16 3q8 2 20.5 3t29.5 1q16 0 28.5 -1t20.5 -3
q10 -2 17 -3v-115zM196 219q3 -31 12 -51t23 -31.5t32 -16t41 -4.5t42.5 3.5t33.5 8.5q17 5 30 12q18 -16 31.5 -45.5t15.5 -59.5q-19 -13 -45 -23q-23 -8 -55.5 -15t-77.5 -7q-125 0 -184.5 68t-59.5 208q0 142 63.5 208t173.5 66q98 0 156 -52t58 -159q0 -25 -2 -45.5
t-4 -34.5q-3 -17 -5 -30h-279zM337 346q0 35 -13 58.5t-50 23.5q-31 0 -52 -25t-27 -88h141q1 8 1 15.5v15.5z" />
    <glyph glyph-name="edotaccent" unicode="&#x117;" horiz-adv-x="515" 
d="M339 603q-7 -2 -18 -4q-9 -2 -21.5 -3t-29.5 -1q-18 0 -31 1t-22 3q-11 2 -17 4v128q6 1 17 3q9 2 22 3t31 1q17 0 29.5 -1t21.5 -3l18 -3v-128zM196 219q3 -31 12 -51t23 -31.5t32 -16t41 -4.5t42.5 3.5t33.5 8.5q17 5 30 12q18 -16 31.5 -45.5t15.5 -59.5
q-19 -13 -45 -23q-23 -8 -55.5 -15t-77.5 -7q-125 0 -184.5 68t-59.5 208q0 142 63.5 208t173.5 66q98 0 156 -52t58 -159q0 -25 -2 -45.5t-4 -34.5q-3 -17 -5 -30h-279zM337 346q0 35 -13 58.5t-50 23.5q-31 0 -52 -25t-27 -88h141q1 8 1 15.5v15.5z" />
    <glyph glyph-name="egrave" unicode="&#xe8;" horiz-adv-x="515" 
d="M130 734q8 13 22.5 23.5t32.5 17.5t38 10t38 1l91 -147q-14 -19 -36.5 -29t-48.5 -15zM196 219q3 -31 12 -51t23 -31.5t32 -16t41 -4.5t42.5 3.5t33.5 8.5q17 5 30 12q18 -16 31.5 -45.5t15.5 -59.5q-19 -13 -45 -23q-23 -8 -55.5 -15t-77.5 -7q-125 0 -184.5 68
t-59.5 208q0 142 63.5 208t173.5 66q98 0 156 -52t58 -159q0 -25 -2 -45.5t-4 -34.5q-3 -17 -5 -30h-279zM337 346q0 35 -13 58.5t-50 23.5q-31 0 -52 -25t-27 -88h141q1 8 1 15.5v15.5z" />
    <glyph glyph-name="eight" unicode="8" horiz-adv-x="582" 
d="M286 -14q-113 0 -179 47t-66 138q0 33 10 59.5t26.5 47.5t37.5 37.5t42 28.5q-42 26 -69.5 66t-27.5 103q0 82 60 131.5t169 49.5q104 0 163.5 -44.5t59.5 -125.5q0 -58 -26.5 -96t-59.5 -62q24 -14 45 -31.5t36.5 -40t25 -50.5t9.5 -63q0 -93 -67 -144t-189 -51z
M290 584q-38 0 -58.5 -17.5t-20.5 -47.5q0 -19 9 -33.5t24.5 -26.5t36.5 -22.5t44 -20.5q18 16 32.5 39t14.5 57q0 72 -82 72zM290 102q45 0 70.5 20.5t25.5 55.5q0 21 -11 37t-29 29t-42 24l-49 23q-11 -8 -22.5 -18.5t-21.5 -24.5t-16 -31t-6 -38q0 -36 25.5 -56.5
t75.5 -20.5z" />
    <glyph glyph-name="eight.denom" horiz-adv-x="325" 
d="M34 253q0 45 33 70t96 25q60 0 92.5 -23.5t32.5 -65.5q0 -26 -12 -45.5t-30 -31.5q24 -13 39.5 -33.5t15.5 -52.5q0 -48 -35 -74.5t-104 -26.5q-65 0 -101 24t-36 72q0 29 15 49.5t39 32.5q-21 12 -33 31.5t-12 48.5zM197 252q0 28 -34 28q-16 0 -24 -7t-8 -18
q0 -14 14.5 -23.5t35.5 -16.5q16 13 16 37zM204 95q0 18 -19.5 27.5t-40.5 18.5q-7 -6 -12 -12q-5 -5 -8.5 -13t-3.5 -17q0 -33 44 -33q18 0 29 7.5t11 21.5z" />
    <glyph glyph-name="eight.num" horiz-adv-x="325" 
d="M34 599q0 45 33 70t96 25q60 0 92.5 -23.5t32.5 -65.5q0 -26 -12 -45.5t-30 -31.5q24 -13 39.5 -33.5t15.5 -52.5q0 -48 -35 -74.5t-104 -26.5q-65 0 -101 24t-36 72q0 29 15 49.5t39 32.5q-21 12 -33 31.5t-12 48.5zM197 598q0 28 -34 28q-16 0 -24 -7t-8 -18
q0 -14 14.5 -23.5t35.5 -16.5q16 13 16 37zM204 441q0 18 -19.5 27.5t-40.5 18.5q-7 -6 -12 -12q-5 -5 -8.5 -13t-3.5 -17q0 -33 44 -33q18 0 29 7.5t11 21.5z" />
    <glyph glyph-name="eightinferior" unicode="&#x2088;" horiz-adv-x="325" 
d="M34 157q0 45 33 70t96 25q60 0 92.5 -23.5t32.5 -65.5q0 -26 -12 -45.5t-30 -31.5q24 -13 39.5 -33.5t15.5 -52.5q0 -48 -35 -74.5t-104 -26.5q-65 0 -101 24t-36 72q0 29 15 49.5t39 32.5q-21 12 -33 31.5t-12 48.5zM197 156q0 28 -34 28q-16 0 -24 -7t-8 -18
q0 -14 14.5 -23.5t35.5 -16.5q16 13 16 37zM204 -1q0 18 -19.5 27.5t-40.5 18.5q-7 -6 -12 -12q-5 -5 -8.5 -13t-3.5 -17q0 -33 44 -33q18 0 29 7.5t11 21.5z" />
    <glyph glyph-name="ellipsis" unicode="&#x2026;" horiz-adv-x="713" 
d="M204 8q-9 -2 -20 -4q-10 -2 -24 -3t-33 -1q-20 0 -34 1t-24 3q-11 2 -19 4v143q8 2 19 4q10 2 24 3t34 1q19 0 33 -1t24 -3q11 -2 20 -4v-143zM434 8q-9 -2 -20 -4q-10 -2 -24 -3t-33 -1q-20 0 -34 1t-24 3q-11 2 -19 4v143q8 2 19 4q10 2 24 3t34 1q19 0 33 -1t24 -3
q11 -2 20 -4v-143zM663 8q-9 -2 -20 -4q-10 -2 -24 -3t-33 -1q-20 0 -34 1t-24 3q-11 2 -19 4v143q8 2 19 4q10 2 24 3t34 1q19 0 33 -1t24 -3q11 -2 20 -4v-143z" />
    <glyph glyph-name="emacron" unicode="&#x113;" horiz-adv-x="515" 
d="M133 609q-5 20 -5 45.5t5 42.5h278q6 -18 6 -43.5t-6 -44.5h-278zM196 219q3 -31 12 -51t23 -31.5t32 -16t41 -4.5t42.5 3.5t33.5 8.5q16 5 29 12q19 -16 32.5 -45.5t14.5 -59.5q-18 -13 -44 -23q-23 -8 -55.5 -15t-77.5 -7q-125 0 -184.5 68t-59.5 208q0 142 63.5 208
t173.5 66q98 0 156 -52t58 -159q0 -25 -2 -45.5t-4 -34.5q-3 -17 -5 -30h-279zM337 346q0 35 -13 58.5t-50 23.5q-31 0 -52.5 -25.5t-26.5 -87.5h140q1 8 1.5 15.5t0.5 15.5z" />
    <glyph glyph-name="emdash" unicode="&#x2014;" horiz-adv-x="799" 
d="M61 235q-2 6 -4 15q-3 13 -3 40q0 25 3 40q2 8 4 15h677q1 -7 3 -15t3 -17.5t1 -22.5t-1 -23t-3 -17l-3 -15h-677z" />
    <glyph glyph-name="endash" unicode="&#x2013;" horiz-adv-x="549" 
d="M61 235q-2 6 -4 15q-3 13 -3 40q0 25 3 40q2 8 4 15h427q1 -7 3 -15t3 -17.5t1 -22.5t-1 -23t-3 -17l-3 -15h-427z" />
    <glyph glyph-name="eng" unicode="&#x14b;" horiz-adv-x="548" 
d="M209 492q52 48 133 48q77 0 115.5 -41.5t38.5 -108.5v-428q0 -84 -38 -130.5t-111 -68.5q-26 17 -37 43t-11 57q24 11 33.5 32t9.5 67v397q0 28 -15 44t-49 16q-39 0 -69 -28v-383q-9 -2 -20 -4q-10 -2 -24.5 -3t-32.5 -1q-20 0 -34 1t-24 3q-11 2 -19 4v514q8 2 19 4
q10 2 24 3t34 1q18 0 32.5 -1t24.5 -3q11 -2 20 -4v-30v0z" />
    <glyph glyph-name="eogonek" unicode="&#x119;" horiz-adv-x="515" 
d="M193 219q4 -31 13 -51t22.5 -31.5t31.5 -16t41 -4.5t42.5 3.5t33.5 8.5q17 5 30 12q18 -16 32 -45.5t15 -59.5l-2 -2q-2 -2 -4 -2q-24 -21 -42.5 -44t-30 -44.5t-16.5 -40.5t-2 -31q8 -33 49 -13q6 -6 11.5 -16t9.5 -22t6 -23.5t2 -19.5q-18 -12 -46 -19.5t-59 -7.5
q-48 0 -71.5 19.5t-30.5 52.5q-10 45 12 86.5t68 82.5q-8 -1 -15.5 -1h-16.5q-124 0 -182.5 66t-58.5 206q0 143 62.5 210t171.5 67q99 0 152.5 -51t53.5 -159q0 -25 -2 -45.5t-4 -34.5q-3 -17 -5 -30h-271zM337 346q0 35 -14.5 58t-50.5 23q-31 0 -52.5 -25t-27.5 -87h143
q1 8 1.5 15.5t0.5 15.5z" />
    <glyph glyph-name="equal" unicode="=" horiz-adv-x="513" 
d="M64 331q-7 26 -7 56.5t7 53.5h384q8 -23 7.5 -54.5t-7.5 -55.5h-384zM64 138q-7 26 -7 56.5t7 53.5h384q8 -23 7.5 -54.5t-7.5 -55.5h-384z" />
    <glyph glyph-name="estimated" unicode="&#x212e;" horiz-adv-x="768" 
d="M646 95q-48 -51 -112.5 -78t-141.5 -27q-73 0 -137 27.5t-112 75.5t-75.5 112t-27.5 137t27.5 137t75.5 112t112 75.5t137 27.5t137 -27.5t112 -75.5t75.5 -112t27.5 -137v-24h-544v-218q42 -31 91 -49t101 -18q51 0 98.5 16.5t88.5 45.5h67zM584 583q-41 31 -90 49.5
t-102 18.5q-52 0 -101 -18.5t-91 -48.5v-222h384v221z" />
    <glyph glyph-name="eth" unicode="&#xf0;" horiz-adv-x="559" 
d="M388 643q63 -57 98.5 -141.5t35.5 -194.5q0 -92 -18 -153t-50.5 -97.5t-78 -51.5t-101.5 -15q-53 0 -97 14t-76 45t-49.5 81t-17.5 122t17.5 121t48 78.5t72.5 42.5t92 13q54 0 92 -23q-22 58 -70 99l-109 -65q-19 15 -31 35t-17 42l70 41q-38 15 -81 24q-3 27 3 50
t23 40q45 -6 86 -18.5t77 -32.5l92 54q17 -14 29 -34.5t17 -42.5zM274 104q19 0 35 6t26.5 22t16.5 45t6 75q0 47 -6 76.5t-16.5 45.5t-26.5 21.5t-35 5.5q-20 0 -35 -6t-25.5 -22.5t-16 -45.5t-5.5 -75t5.5 -75t16 -45t25.5 -22t35 -6z" />
    <glyph glyph-name="exclam" unicode="!" horiz-adv-x="293" 
d="M63 712q9 2 21 4q11 2 26.5 3t35.5 1t35 -1t26 -3l23 -4l-21 -494q-6 -3 -16 -5q-8 -2 -20 -3t-26 -1q-15 0 -26.5 1t-19.5 3q-10 2 -17 5zM224 8q-9 -2 -20 -4q-10 -2 -24.5 -3t-32.5 -1q-20 0 -34 1t-24 3q-11 2 -19 4v143q8 2 19 4q10 2 24 3t34 1q18 0 32.5 -1
t24.5 -3q11 -2 20 -4v-143z" />
    <glyph glyph-name="exclamdown" unicode="&#xa1;" horiz-adv-x="280" 
d="M63 510q9 2 20 4q10 2 24 3t33 1t33.5 -1t24.5 -3q11 -2 19 -4v-143q-8 -2 -19 -4q-10 -2 -24 -3t-34 -1q-19 0 -33 1t-24 3q-11 2 -20 4v143zM78 300q7 1 16 3q8 2 19 3t26 1q14 0 26 -1t20 -3q10 -2 17 -3l21 -494q-9 -2 -21 -4q-11 -2 -26.5 -3t-35.5 -1t-35 1t-26 3
q-12 2 -22 4z" />
    <glyph glyph-name="f" unicode="f" horiz-adv-x="364" 
d="M91 586q0 38 10 68.5t32 51.5t57.5 32.5t86.5 11.5q31 0 55.5 -4.5t41.5 -9.5q20 -6 35 -13q-2 -32 -13.5 -57.5t-28.5 -45.5q-8 3 -19 6q-9 2 -22.5 4t-30.5 2q-26 0 -38 -12t-12 -40v-54h100q7 -25 7 -55q0 -14 -1.5 -28.5t-5.5 -26.5h-100v-408q-9 -2 -20 -4
q-10 -2 -24 -3t-33 -1q-20 0 -34 1t-24 3q-11 2 -19 4v408h-64q-2 13 -4 27.5t-2 29.5q0 29 6 53h64v60v0z" />
    <glyph glyph-name="five" unicode="5" horiz-adv-x="528" 
d="M225 421q26 0 55 -3q102 -7 156 -57.5t54 -153.5q0 -106 -68.5 -161.5t-204.5 -55.5q-47 0 -81.5 5.5t-57.5 12.5q-27 8 -47 18q-1 31 7.5 59t27.5 50q19 -6 41 -10q19 -4 44.5 -6.5t54.5 -2.5q63 0 94.5 21.5t31.5 69.5q0 54 -30 74t-100 20q-32 0 -63.5 -1t-63.5 -3
v387h382q10 -30 10 -65t-10 -63h-232v-135z" />
    <glyph glyph-name="five.denom" horiz-adv-x="304" 
d="M139 226q140 0 140 -115q0 -58 -35.5 -87t-114.5 -29q-26 0 -46 3t-34 8q-17 4 -29 11q-1 19 5 37.5t19 31.5q11 -3 22 -5q22 -5 50 -5q29 0 43.5 8t14.5 28q0 22 -13 29.5t-45 7.5h-72v194h216q6 -18 5.5 -40.5t-5.5 -39.5h-121v-37z" />
    <glyph glyph-name="five.num" horiz-adv-x="303" 
d="M139 572q140 0 140 -115q0 -58 -35.5 -87t-114.5 -29q-26 0 -46 3t-34 8q-17 4 -29 11q-1 19 5 37.5t19 31.5q11 -3 22 -5q22 -5 50 -5q29 0 43.5 8t14.5 28q0 22 -13 29.5t-45 7.5h-72v194h216q6 -18 5.5 -40.5t-5.5 -39.5h-121v-37z" />
    <glyph glyph-name="fiveeighths" unicode="&#x215d;" horiz-adv-x="769" 
d="M516 695q6 1 14 3q7 2 17.5 3t25.5 1q14 0 25 -1t19 -3q9 -2 14 -3l-386 -698q-7 -2 -16 -4q-15 -3 -42 -3q-25 0 -40 3q-9 2 -16 4zM267 689q6 -18 5.5 -40.5t-5.5 -39.5h-121v-37q140 0 140 -115q0 -58 -35.5 -87t-114.5 -29q-26 0 -46 3t-34 8q-17 4 -29 11
q-1 19 5 37.5t19 31.5q11 -3 22 -5q22 -5 50 -5q29 0 43.5 8t14.5 28q0 22 -13 29.5t-45 7.5h-72v194h216zM477 253q0 45 33 70t96 25q60 0 92.5 -23.5t32.5 -65.5q0 -26 -12 -45.5t-30 -31.5q24 -13 39.5 -33.5t15.5 -52.5q0 -48 -35 -74.5t-104 -26.5q-65 0 -101 24
t-36 72q0 29 15 49.5t39 32.5q-21 12 -33 31.5t-12 48.5zM640 252q0 28 -34 28q-16 0 -24 -7t-8 -18q0 -14 14.5 -23.5t35.5 -16.5q16 13 16 37zM647 95q0 18 -19.5 27.5t-40.5 18.5q-7 -6 -12 -12q-5 -5 -8.5 -13t-3.5 -17q0 -33 44 -33q18 0 29 7.5t11 21.5z" />
    <glyph glyph-name="fiveinferior" unicode="&#x2085;" horiz-adv-x="304" 
d="M139 130q140 0 140 -115q0 -58 -35.5 -87t-114.5 -29q-26 0 -46 3t-34 8q-17 4 -29 11q-1 19 5 37.5t19 31.5l22 -6q22 -5 50 -5q58 0 58 37q0 22 -13 29.5t-45 7.5h-72v194h216q6 -18 5.5 -40.5t-5.5 -39.5h-121v-37z" />
    <glyph glyph-name="florin" unicode="&#x192;" horiz-adv-x="509" 
d="M284 16q-3 -35 -14 -63.5t-32.5 -49t-54.5 -32t-80 -11.5q-31 0 -55 4t-41 9q-20 5 -35 13q3 58 35 96q9 -3 20 -6q22 -5 51 -5t42.5 13.5t16.5 44.5l33 344h-72q-2 6 -4 14q-3 13 -3 39q0 24 3 38q2 8 4 14h82l6 57q3 34 14 63t32 49.5t54 32t80 11.5q31 0 55.5 -4
t41.5 -9q20 -6 35 -13q-3 -59 -36 -96q-9 2 -20 5q-10 2 -23 4t-29 2q-27 0 -40.5 -13.5t-16.5 -43.5l-4 -45h78q2 -6 4 -14q2 -7 3 -16.5t1 -21.5q0 -13 -1 -22.5t-3 -16.5q-2 -8 -4 -14h-89z" />
    <glyph glyph-name="four" unicode="4" horiz-adv-x="587" 
d="M321 675q9 2 21 4q10 2 24.5 3.5t33.5 1.5t33 -1.5t24 -3.5q11 -2 19 -4v-399h78q2 -7 4 -16q2 -8 3.5 -19.5t1.5 -25.5q0 -15 -1.5 -26t-3.5 -19q-2 -9 -4 -15h-78v-146q-8 -3 -19 -5q-9 -2 -22.5 -3t-30.5 -1q-18 0 -31.5 1t-23.5 3q-11 2 -20 5v146h-300q-3 6 -5 15
q-5 17 -5 45t5 45q2 9 5 16zM177 276h152v207z" />
    <glyph glyph-name="four.denom" horiz-adv-x="332" 
d="M305 142q3 -10 4 -18.5t1 -17.5t-1.5 -17t-3.5 -17h-37v-67q-13 -3 -25 -4t-20 -1t-20 1t-24 4v67h-161q-5 18 -5 34q0 17 4 30l156 201q22 6 48 6t47 -6v-195h37zM112 142h67v88z" />
    <glyph glyph-name="four.num" horiz-adv-x="331" 
d="M305 488q3 -10 4 -18.5t1 -17.5t-1.5 -17t-3.5 -17h-37v-67q-13 -3 -25 -4t-20 -1t-20 1t-24 4v67h-161q-5 18 -5 34q0 17 4 30l156 201q22 6 48 6t47 -6v-195h37zM112 488h67v88z" />
    <glyph glyph-name="fourinferior" unicode="&#x2084;" horiz-adv-x="332" 
d="M305 46q3 -10 4 -18.5t1 -17.5t-1.5 -17t-3.5 -17h-37v-67q-13 -3 -25 -4t-20 -1t-20 1t-24 4v67h-161q-5 18 -5 34q0 17 4 30l156 201q22 6 48 6t47 -6v-195h37zM112 46h67v88z" />
    <glyph glyph-name="fraction" unicode="&#x2044;" horiz-adv-x="147" 
d="M208 695q6 1 14 3q7 2 17.5 3t25.5 1q14 0 25 -1t19 -3q9 -2 14 -3l-387 -698q-6 -2 -15 -4q-15 -3 -42 -3q-26 0 -41 3q-9 2 -16 4z" />
    <glyph glyph-name="g" unicode="g" horiz-adv-x="544" 
d="M520 539q5 -11 7 -25.5t2 -30.5t-2.5 -31t-6.5 -26l-71 10q17 -33 17 -82q0 -87 -53.5 -136.5t-161.5 -49.5h-15t-14 1q-13 -20 -9 -39t28.5 -26t58.5 -11t73 -10t72 -21.5t54.5 -45.5t21.5 -83q0 -41 -19 -75t-54.5 -58t-87 -37t-116.5 -13q-120 0 -176.5 35.5
t-56.5 100.5q0 27 9.5 48t23 37t28.5 27t27 18q-21 24 -21 61q0 35 17 64t38 49q-49 22 -73 64t-24 100q0 85 54 135t161 50q38 0 68.5 -6.5t55.5 -18.5zM318 354q0 48 -18 68t-49 20t-49 -20t-18 -68t18 -68.5t49 -20.5t49 20.5t18 68.5zM374 -86q0 20 -19 29.5t-48 14.5
t-63.5 8t-66.5 11q-8 -10 -16 -25t-8 -35q0 -29 21.5 -46.5t72.5 -17.5q66 0 96.5 16.5t30.5 44.5z" />
    <glyph glyph-name="g.alt" horiz-adv-x="561" 
d="M352 41q-22 -25 -53 -38t-74 -13q-42 0 -76.5 14t-59.5 46t-38.5 84t-13.5 129q0 76 13 129t37.5 86t58.5 47.5t76 14.5q46 0 77.5 -13t52.5 -38v33l21 4q10 2 24 3t33 1q18 0 32 -1t24 -3q11 -2 20 -4v-496q0 -146 -64.5 -211t-184.5 -65q-42 0 -75 6t-56 14
q-27 9 -47 21q2 29 11.5 54.5t27.5 44.5q15 -7 33 -12q15 -5 35 -8t43 -3q25 0 47.5 5.5t39 22t26.5 48t10 83.5v15zM198 263q0 -48 5.5 -77.5t15.5 -46.5t25 -23t35 -6q33 0 52 25t21 62v132q-1 40 -19.5 65t-53.5 25q-20 0 -35 -6t-25 -23t-15.5 -47.5t-5.5 -79.5z" />
    <glyph glyph-name="gbreve" unicode="&#x11f;" horiz-adv-x="544" 
d="M422 669q-16 -21 -41 -37q-21 -14 -52.5 -25.5t-75.5 -11.5t-76 11.5t-52 25.5q-25 16 -40 37q8 22 24.5 41t38.5 28q11 -8 27 -14q14 -5 33 -9.5t45 -4.5q25 0 44.5 4.5t33.5 9.5q16 6 27 14q23 -9 39.5 -28t24.5 -41zM133 190q-49 22 -73 64t-24 100q0 86 54 136
t161 50q73 0 123 -25l146 25q5 -11 7 -25.5t2 -30.5t-2.5 -31t-6.5 -26l-71 10q9 -17 13 -38.5t4 -44.5q0 -87 -53.5 -136.5t-161.5 -49.5h-15t-14 1q-6 -9 -9 -18.5t0 -20.5q4 -19 28.5 -26t58.5 -11t73 -10t72 -21.5t54.5 -45.5t21.5 -83q0 -41 -19 -75t-54.5 -58.5
t-87 -38t-116.5 -13.5q-121 0 -177 36.5t-56 101.5q0 27 9.5 48t23 37t28.5 27t27 18q-21 24 -21 61q0 35 17 64t38 49zM251 443q-31 0 -49 -20.5t-18 -68.5t18 -68.5t49 -20.5t49 20.5t18 68.5t-18 68.5t-49 20.5zM247 -149q66 0 96.5 17.5t30.5 45.5q0 20 -19 29.5
t-48 14.5t-63.5 8t-66.5 11q-8 -10 -16.5 -25t-8.5 -35q0 -29 22 -47.5t73 -18.5z" />
    <glyph glyph-name="gbreve.alt" horiz-adv-x="561" 
d="M462 669q-16 -21 -41 -37q-21 -14 -52.5 -25.5t-75.5 -11.5t-76 11.5t-52 25.5q-25 16 -40 37q8 22 24.5 41t38.5 28q11 -8 27 -14q14 -5 33 -9.5t45 -4.5q25 0 44.5 4.5t33.5 9.5q16 6 27 14q23 -9 40 -28t24 -41zM352 41q-22 -25 -53 -38t-74 -13q-42 0 -76.5 14
t-59.5 46t-38.5 84t-13.5 129q0 76 13 129t37.5 86t58.5 47.5t76 14.5q46 0 77.5 -13t52.5 -38v33l21 4q10 2 24 3t33 1q18 0 32 -1t24 -3q11 -2 20 -4v-496q0 -146 -64.5 -211t-184.5 -65q-42 0 -75 6t-56 14q-27 9 -47 21q2 29 11.5 54.5t27.5 44.5q15 -7 33 -12
q15 -5 35 -8t43 -3q25 0 47.5 5.5t39 22t26.5 48t10 83.5v15zM198 263q0 -48 5.5 -77.5t15.5 -46.5t25 -23t35 -6q33 0 52 25t21 62v132q-1 40 -19.5 65t-53.5 25q-20 0 -35 -6t-25 -23t-15.5 -47.5t-5.5 -79.5z" />
    <glyph glyph-name="gcircumflex" unicode="&#x11d;" horiz-adv-x="544" 
d="M420 661q-11 -22 -28 -40t-39 -26l-104 65l-103 -64q-23 8 -39.5 25.5t-27.5 39.5l152 129h35zM133 190q-49 22 -73 64t-24 100q0 86 54 136t161 50q73 0 123 -25l146 25q5 -11 7 -25.5t2 -30.5t-2.5 -31t-6.5 -26l-71 10q9 -17 13 -38.5t4 -44.5q0 -87 -53.5 -136.5
t-161.5 -49.5h-15t-14 1q-6 -9 -9 -18.5t0 -20.5q4 -19 28.5 -26t58.5 -11t73 -10t72 -21.5t54.5 -45.5t21.5 -83q0 -41 -19 -75t-54.5 -58.5t-87 -38t-116.5 -13.5q-121 0 -177 36.5t-56 101.5q0 27 9.5 48t23 37t28.5 27t27 18q-21 24 -21 61q0 35 17 64t38 49zM251 443
q-31 0 -49 -20.5t-18 -68.5t18 -68.5t49 -20.5t49 20.5t18 68.5t-18 68.5t-49 20.5zM247 -149q66 0 96.5 17.5t30.5 45.5q0 20 -19 29.5t-48 14.5t-63.5 8t-66.5 11q-8 -10 -16.5 -25t-8.5 -35q0 -29 22 -47.5t73 -18.5z" />
    <glyph glyph-name="gcircumflex.alt" horiz-adv-x="561" 
d="M451 661q-11 -22 -28 -40t-39 -26l-104 65l-103 -64q-23 8 -39.5 25.5t-27.5 39.5l152 129h35zM352 41q-22 -25 -53 -38t-74 -13q-42 0 -76.5 14t-59.5 46t-38.5 84t-13.5 129q0 76 13 129t37.5 86t58.5 47.5t76 14.5q46 0 77.5 -13t52.5 -38v33l21 4q10 2 24 3t33 1
q18 0 32 -1t24 -3q11 -2 20 -4v-496q0 -146 -64.5 -211t-184.5 -65q-42 0 -75 6t-56 14q-27 9 -47 21q2 29 11.5 54.5t27.5 44.5q15 -7 33 -12q15 -5 35 -8t43 -3q25 0 47.5 5.5t39 22t26.5 48t10 83.5v15zM198 263q0 -48 5.5 -77.5t15.5 -46.5t25 -23t35 -6q33 0 52 25
t21 62v132q-1 40 -19.5 65t-53.5 25q-20 0 -35 -6t-25 -23t-15.5 -47.5t-5.5 -79.5z" />
    <glyph glyph-name="gcommaaccent" unicode="&#x123;" horiz-adv-x="544" 
d="M320 834q-11 -11 -19 -26q-8 -13 -13.5 -31t-7.5 -41q11 -1 20.5 -2t16.5 -2q8 -2 14 -3v-127l-21 -4q-21 -3 -58 -3t-58 3q-12 2 -21 4v92q0 42 14 74t31 54q19 26 45 44zM133 190q-49 22 -73 64t-24 100q0 86 54 136t161 50q73 0 123 -25l146 25q5 -11 7 -25.5t2 -30.5
t-2.5 -31t-6.5 -26l-71 10q9 -17 13 -38.5t4 -44.5q0 -87 -53.5 -136.5t-161.5 -49.5h-15t-14 1q-6 -9 -9 -18.5t0 -20.5q4 -19 28.5 -26t58.5 -11t73 -10t72 -21.5t54.5 -45.5t21.5 -83q0 -41 -19 -75t-54.5 -58.5t-87 -38t-116.5 -13.5q-121 0 -177 36.5t-56 101.5
q0 27 9.5 48t23 37t28.5 27t27 18q-21 24 -21 61q0 35 17 64t38 49zM251 443q-31 0 -49.5 -20.5t-18.5 -68.5t18.5 -68.5t49.5 -20.5t49 20.5t18 68.5t-18 68.5t-49 20.5zM247 -149q66 0 96.5 17.5t30.5 45.5q0 20 -19 29.5t-48 14.5t-63.5 8t-66.5 11q-8 -10 -16.5 -25
t-8.5 -35q0 -29 22 -47.5t73 -18.5z" />
    <glyph glyph-name="gcommaaccent.alt" horiz-adv-x="561" 
d="M357 826q-9 -11 -17 -25q-7 -12 -12.5 -29.5t-7.5 -40.5q11 -1 19.5 -2t14.5 -2q7 -2 13 -3v-124q-9 -2 -20 -4q-20 -3 -55 -3q-36 0 -55 3q-11 2 -20 4v89q0 42 13 73t30 53q19 26 44 44zM352 41q-22 -25 -53 -38t-74 -13q-42 0 -76.5 14t-59.5 46t-38.5 84t-13.5 129
q0 76 13 129t37.5 86t58.5 47.5t76 14.5q46 0 77.5 -13t52.5 -38v33l21 4q10 2 24 3t33 1q18 0 32 -1t24 -3q11 -2 20 -4v-496q0 -146 -64.5 -211t-184.5 -65q-42 0 -75 6t-56 14q-27 9 -47 21q2 29 11.5 54.5t27.5 44.5q15 -7 33 -12q15 -5 35 -8t43 -3q25 0 47.5 5.5
t39 22t26.5 48t10 83.5v15zM198 263q0 -48 5.5 -77.5t15.5 -46.5t25 -23t35 -6q33 0 52 25t21 62v132q-1 40 -19.5 65t-53.5 25q-20 0 -35 -6t-25 -23t-15.5 -47.5t-5.5 -79.5z" />
    <glyph glyph-name="gdotaccent" unicode="&#x121;" horiz-adv-x="544" 
d="M323 603q-7 -2 -18 -4q-9 -2 -22 -3t-30 -1t-30.5 1t-21.5 3q-11 2 -17 4v128q7 1 17 3q8 2 21 3t31 1q17 0 30 -1t22 -3l18 -3v-128zM133 190q-49 22 -73 64t-24 100q0 86 54 136t161 50q73 0 123 -25l146 25q5 -11 7 -25.5t2 -30.5t-2.5 -31t-6.5 -26l-71 10
q9 -17 13 -38.5t4 -44.5q0 -87 -53.5 -136.5t-161.5 -49.5h-15t-14 1q-6 -9 -9 -18.5t0 -20.5q4 -19 28.5 -26t58.5 -11t73 -10t72 -21.5t54.5 -45.5t21.5 -83q0 -41 -19 -75t-54.5 -58.5t-87 -38t-116.5 -13.5q-121 0 -177 36.5t-56 101.5q0 27 9.5 48t23 37t28.5 27t27 18
q-21 24 -21 61q0 35 17 64t38 49zM251 443q-31 0 -49 -20.5t-18 -68.5t18 -68.5t49 -20.5t49 20.5t18 68.5t-18 68.5t-49 20.5zM247 -149q66 0 96.5 17.5t30.5 45.5q0 20 -19 29.5t-48 14.5t-63.5 8t-66.5 11q-8 -10 -16.5 -25t-8.5 -35q0 -29 22 -47.5t73 -18.5z" />
    <glyph glyph-name="gdotaccent.alt" horiz-adv-x="561" 
d="M380 603q-7 -2 -18 -4q-9 -2 -22 -3t-30 -1t-30.5 1t-21.5 3q-11 2 -17 4v128q7 1 17 3q8 2 21 3t31 1q17 0 30 -1t22 -3l18 -3v-128zM352 41q-22 -25 -53 -38t-74 -13q-42 0 -76.5 14t-59.5 46t-38.5 84t-13.5 129q0 76 13 129t37.5 86t58.5 47.5t76 14.5q46 0 77.5 -13
t52.5 -38v33l21 4q10 2 24 3t33 1q18 0 32 -1t24 -3q11 -2 20 -4v-496q0 -146 -64.5 -211t-184.5 -65q-42 0 -75 6t-56 14q-27 9 -47 21q2 29 11.5 54.5t27.5 44.5q15 -7 33 -12q15 -5 35 -8t43 -3q25 0 47.5 5.5t39 22t26.5 48t10 83.5v15zM198 263q0 -48 5.5 -77.5
t15.5 -46.5t25 -23t35 -6q33 0 52 25t21 62v132q-1 40 -19.5 65t-53.5 25q-20 0 -35 -6t-25 -23t-15.5 -47.5t-5.5 -79.5z" />
    <glyph glyph-name="germandbls" unicode="&#xdf;" horiz-adv-x="584" 
d="M55 553q0 100 61 148.5t173 48.5q53 0 93 -14t67 -39t41 -59t14 -73q0 -46 -16 -91q-8 -1 -22 -4.5t-28 -12t-24.5 -22.5t-10.5 -35q0 -23 12 -39.5t30 -31l38.5 -30t38.5 -36t30 -47.5t12 -65q0 -41 -13.5 -71t-38.5 -50t-59 -30t-74 -10q-29 0 -52 3t-40 7
q-19 4 -34 10q-6 61 30 104q15 -5 32.5 -8t35.5 -3q26 0 45 10.5t19 36.5q0 18 -11.5 32t-29 28.5l-38 30t-38 35.5t-29 46t-11.5 61q0 38 13 63.5t30 42.5q19 19 44 32q8 26 8 45q-1 29 -18 48.5t-49 19.5q-41 0 -60.5 -20.5t-19.5 -67.5v-538l-21 -4q-10 -2 -24 -3t-32 -1
q-20 0 -33.5 1t-22.5 3q-11 2 -18 4v545z" />
    <glyph glyph-name="grave" unicode="`" horiz-adv-x="238" 
d="M8 767q8 13 22.5 23.5t32.5 17.5t38 10t38 1l91 -147q-14 -19 -36.5 -29t-48.5 -15z" />
    <glyph glyph-name="greater" unicode="&#x3e;" horiz-adv-x="426" 
d="M60 90q-2 6 -4 14q-3 13 -3 41q0 27 3 41q2 8 4 14l204 88l-204 91q-2 5 -4 14q-3 13 -3 42q0 27 3 41q2 8 4 14l327 -143l3 -15q2 -8 3 -18t1 -23t-1 -23.5t-3 -18.5q-2 -9 -3 -16z" />
    <glyph glyph-name="greaterequal" unicode="&#x2265;" horiz-adv-x="445" 
d="M62 202q-2 6 -4 14q-3 13 -3 41q0 27 3 41q2 8 4 14l186 60l-186 63q-2 6 -4 14q-3 13 -3 41q0 27 3 41q2 8 4 14l327 -115q1 -6 3 -14q2 -7 3 -17.5t1 -23.5t-1 -23.5t-3 -18.5q-2 -10 -3 -17zM61 68q-2 6 -4 14q-3 13 -3 39q0 25 3 39q2 8 4 14h327q1 -6 3 -14
q2 -7 3 -16.5t1 -22.5t-1 -22.5t-3 -16.5q-2 -8 -3 -14h-327z" />
    <glyph glyph-name="guillemotleft" unicode="&#xab;" horiz-adv-x="543" 
d="M250 514q17 -17 28.5 -41.5t15.5 -50.5l-134 -153l134 -152q-4 -27 -14.5 -50.5t-29.5 -41.5l-208 182q-3 6 -5 15q-5 17 -5 44q0 28 5 46q2 10 5 17zM463 502q17 -15 27.5 -38.5t14.5 -47.5l-127 -147l127 -146q-5 -26 -15 -47.5t-27 -38.5l-198 174q-3 6 -5 15
q-5 15 -5 40q0 27 5 44q2 9 5 16z" />
    <glyph glyph-name="guillemotright" unicode="&#xbb;" horiz-adv-x="543" 
d="M501 329l5 -17q2 -8 3.5 -20t1.5 -26t-1.5 -25t-3.5 -19l-5 -15l-208 -182q-18 18 -28.5 41.5t-15.5 50.5l134 152l-134 153q4 26 15.5 50.5t28.5 41.5zM278 326q2 -7 5 -16q2 -8 3.5 -19t1.5 -25q0 -13 -1.5 -23t-3.5 -17l-5 -15l-198 -174q-17 17 -27 38.5t-15 47.5
l127 146l-127 147q4 24 14.5 47.5t27.5 38.5z" />
    <glyph glyph-name="guilsinglleft" unicode="&#x2039;" horiz-adv-x="336" 
d="M255 514q17 -17 28.5 -41.5t15.5 -50.5l-134 -153l134 -152q-5 -27 -15.5 -50.5t-28.5 -41.5l-215 182q-3 6 -5 15q-2 8 -3 18.5t-1 24.5q0 15 1 27t3 20q2 10 5 17z" />
    <glyph glyph-name="guilsinglright" unicode="&#x203a;" horiz-adv-x="335" 
d="M296 329q2 -7 4 -17q2 -8 3.5 -20t1.5 -27q0 -14 -1.5 -24.5t-3.5 -18.5q-2 -9 -4 -15l-215 -182q-19 18 -29.5 41.5t-14.5 50.5l134 152l-134 153q3 26 14.5 50.5t29.5 41.5z" />
    <glyph glyph-name="h" unicode="h" horiz-adv-x="547" 
d="M495 8q-8 -2 -19 -4q-10 -2 -24.5 -3t-33.5 -1q-20 0 -34 1t-24 3q-11 2 -19 4v350q0 28 -14.5 44t-49.5 16q-38 0 -69 -28v-382q-9 -2 -20 -4q-10 -2 -24 -3t-33 -1q-20 0 -34 1t-24 3q-11 2 -19 4v734q8 2 19 4q10 2 24 3t34 1q19 0 33 -1t24 -3q11 -2 20 -4v-250
q26 24 60 35.5t74 11.5q77 0 115 -41t38 -108v-382z" />
    <glyph glyph-name="hbar" unicode="&#x127;" horiz-adv-x="548" 
d="M209 492q52 48 133 48q77 0 115.5 -41.5t38.5 -108.5v-382q-9 -2 -20 -4q-10 -2 -24 -3t-33 -1q-20 0 -34 1t-24 3q-11 2 -19 4v351q0 28 -15 44t-49 16q-39 0 -69 -28v-383q-9 -2 -20 -4q-10 -2 -24.5 -3t-32.5 -1q-20 0 -34 1t-24 3q-11 2 -19 4v584h-64q-6 20 -6 44
t6 44h64v62q8 2 19 4q10 2 24 3t34 1q18 0 32.5 -1t24.5 -3q11 -2 20 -4v-62h156q6 -20 6 -43.5t-6 -44.5h-156v-100v0z" />
    <glyph glyph-name="hcircumflex" unicode="&#x125;" horiz-adv-x="547" 
d="M299 831q-11 -21 -28 -38.5t-38 -26.5l-103 65l-101 -64q-21 8 -38 25.5t-28 38.5l150 128h35zM495 8q-9 -2 -20 -4q-10 -2 -24 -3t-33 -1q-20 0 -34 1t-24 3q-11 2 -19 4v351q0 28 -15 44.5t-49 16.5q-19 0 -37 -7.5t-32 -20.5v-384q-9 -2 -20 -4q-10 -2 -24.5 -3
t-32.5 -1q-20 0 -34 1t-24 3q-11 2 -19 4v734q8 2 19 4q10 2 24 3t34 1q18 0 32.5 -1t24.5 -3q11 -2 20 -4v-250q52 48 133 48q77 0 115.5 -41.5t38.5 -108.5v-382z" />
    <glyph glyph-name="hungarumlaut" unicode="&#x2dd;" horiz-adv-x="386" 
d="M72 623q-26 4 -49 14.5t-37 29.5l92 147q18 2 38 -1t38 -10t32.5 -17.5t22.5 -23.5zM261 623q-26 4 -48.5 14.5t-36.5 29.5l91 147q18 2 38 -1t38 -10t32.5 -17.5t22.5 -23.5z" />
    <glyph glyph-name="hyphen" unicode="-" horiz-adv-x="349" 
d="M61 235q-2 6 -4 15q-3 13 -3 40q0 25 3 40q2 8 4 15h227q1 -7 3 -15t3 -17.5t1 -22.5t-1 -23t-3 -17l-3 -15h-227z" />
    <glyph glyph-name="i" unicode="i" horiz-adv-x="264" 
d="M209 627q-9 -2 -20 -4q-10 -2 -24.5 -3t-32.5 -1q-20 0 -34 1t-24 3q-11 2 -19 4v125q8 2 19 4q10 2 24 3t34 1q18 0 32.5 -1t24.5 -3q11 -2 20 -4v-125zM209 8q-9 -2 -20 -4q-10 -2 -24.5 -3t-32.5 -1q-20 0 -34 1t-24 3q-11 2 -19 4v514q8 2 19 4q10 2 24 3t34 1
q18 0 32.5 -1t24.5 -3q11 -2 20 -4v-514z" />
    <glyph glyph-name="iacute" unicode="&#xed;" horiz-adv-x="265" 
d="M127 595q-26 5 -48.5 15t-36.5 29l91 147q18 2 38 -1t38 -10t32.5 -17.5t22.5 -23.5zM210 8q-9 -2 -20 -4q-10 -2 -24 -3t-33 -1q-20 0 -34 1t-24 3q-11 2 -19 4v514q8 2 19 4q10 2 24 3t34 1q19 0 33 -1t24 -3q11 -2 20 -4v-514z" />
    <glyph glyph-name="ibreve" unicode="&#x12d;" horiz-adv-x="265" 
d="M301 669q-16 -21 -41 -37q-21 -14 -52.5 -25.5t-75.5 -11.5q-45 0 -76 11.5t-52 25.5q-25 16 -41 37q8 22 25 41t39 28q11 -8 27 -14q14 -5 33 -9.5t45 -4.5q25 0 44.5 4.5t33.5 9.5q16 6 27 14q22 -9 39 -28t25 -41zM210 8q-9 -2 -20 -4q-10 -2 -24 -3t-33 -1
q-20 0 -34 1t-24 3q-11 2 -19 4v514q8 2 19 4q10 2 24 3t34 1q19 0 33 -1t24 -3q11 -2 20 -4v-514z" />
    <glyph glyph-name="icircumflex" unicode="&#xee;" horiz-adv-x="265" 
d="M305 661q-11 -22 -28 -40t-39 -26l-104 65l-104 -64q-22 8 -39 25.5t-28 39.5l153 129h35zM210 8q-9 -2 -20 -4q-10 -2 -24 -3t-33 -1q-20 0 -34 1t-24 3q-11 2 -19 4v514q8 2 19 4q10 2 24 3t34 1q19 0 33 -1t24 -3q11 -2 20 -4v-514z" />
    <glyph glyph-name="idieresis" unicode="&#xef;" horiz-adv-x="265" 
d="M100 602q-7 -2 -17 -4q-17 -3 -49 -3q-33 0 -49 3q-10 2 -17 4v115q6 1 16 3q8 2 20.5 3t29.5 1q16 0 28.5 -1t20.5 -3q10 -2 17 -3v-115zM297 602q-7 -2 -17 -4q-17 -3 -49 -3q-34 0 -50 3q-10 2 -16 4v115q6 1 16 3q8 2 20.5 3t29.5 1q16 0 28.5 -1t20.5 -3
q10 -2 17 -3v-115zM210 8q-9 -2 -20 -4q-10 -2 -24 -3t-33 -1q-20 0 -34 1t-24 3q-11 2 -19 4v514q8 2 19 4q10 2 24 3t34 1q19 0 33 -1t24 -3q11 -2 20 -4v-514z" />
    <glyph glyph-name="igrave" unicode="&#xec;" horiz-adv-x="265" 
d="M-8 736q8 13 22.5 23.5t32.5 17.5t38 10t38 1l91 -147q-14 -19 -36.5 -29.5t-48.5 -14.5zM210 8q-9 -2 -20 -4q-10 -2 -24 -3t-33 -1q-20 0 -34 1t-24 3q-11 2 -19 4v514q8 2 19 4q10 2 24 3t34 1q19 0 33 -1t24 -3q11 -2 20 -4v-514z" />
    <glyph glyph-name="ij" unicode="&#x133;" horiz-adv-x="523" 
d="M209 607q-9 -2 -20 -4q-10 -2 -24.5 -3t-32.5 -1q-20 0 -34 1t-24 3q-11 2 -19 4v135q8 2 19 4q10 2 24 3t34 1q18 0 32.5 -1t24.5 -3q11 -2 20 -4v-135zM209 8q-9 -2 -20 -4q-10 -2 -24.5 -3t-32.5 -1q-20 0 -34 1t-24 3q-11 2 -19 4v514q8 2 19 4q10 2 24 3t34 1
q18 0 32.5 -1t24.5 -3q11 -2 20 -4v-514zM467 605q-9 -2 -20 -4q-10 -2 -24 -3t-33 -1q-20 0 -34 1t-24 3q-11 2 -19 4v136q8 2 19 4q10 2 24 3t34 1q19 0 33 -1t24 -3q11 -2 20 -4v-136zM313 522q8 2 19 4q10 2 24 3t34 1q18 0 32 -1t24 -3l21 -4v-610q0 -78 -39.5 -120
t-123.5 -42q-22 0 -38.5 2.5t-28.5 5.5q-14 4 -25 8l-2 10t-1.5 11t-0.5 13q0 19 2.5 33.5t5.5 24.5q4 11 9 19q6 -1 11 -2t10.5 -1.5t12.5 -0.5q26 0 40 14t14 47v588z" />
    <glyph glyph-name="imacron" unicode="&#x12b;" horiz-adv-x="265" 
d="M32 613q-4 20 -4 44t4 41h204q4 -18 4 -42t-4 -43h-204zM210 8q-9 -2 -20 -4q-10 -2 -24 -3t-33 -1q-20 0 -34 1t-24 3q-11 2 -19 4v514q8 2 19 4q10 2 24 3t34 1q19 0 33 -1t24 -3q11 -2 20 -4v-514z" />
    <glyph glyph-name="infinity" unicode="&#x221e;" horiz-adv-x="804" 
d="M573 142q-42 0 -73.5 15t-53.5 34q-26 21 -44 49q-18 -28 -44 -49q-22 -19 -53.5 -34t-73.5 -15q-48 0 -84 15.5t-60.5 41t-36.5 58.5t-12 68t12 68t36.5 59t60.5 41.5t84 15.5q42 0 73.5 -15.5t53.5 -34.5q26 -22 44 -50q18 28 44 50q22 19 53.5 34.5t73.5 15.5
q48 0 84.5 -15.5t60.5 -41.5t36.5 -59t12.5 -68t-12.5 -68t-36.5 -58.5t-60.5 -41t-84.5 -15.5zM231 258q23 0 41 10t30 23q14 15 25 34q-11 19 -25 34q-12 13 -30 23.5t-41 10.5q-38 0 -55.5 -22t-17.5 -46t17.5 -45.5t55.5 -21.5zM573 393q-23 0 -41 -10.5t-30 -23.5
q-14 -15 -25 -34q11 -19 25 -34q12 -13 30 -23t41 -10q38 0 55.5 21.5t17.5 45.5t-17.5 46t-55.5 22z" />
    <glyph glyph-name="integral" unicode="&#x222b;" horiz-adv-x="515" 
d="M187 530q0 88 46.5 139t137.5 51q31 0 57.5 -8t46.5 -18q23 -11 42 -26q-5 -24 -19 -48t-31 -38q-19 14 -44 22.5t-48 6.5q-26 -2 -44.5 -23t-18.5 -68v-521q0 -87 -41.5 -139t-131.5 -52q-31 0 -56 8t-44 18q-22 11 -40 26q5 23 18 47t32 38q20 -14 42.5 -23t42.5 -6
q23 2 38 23.5t15 69.5v521z" />
    <glyph glyph-name="iogonek" unicode="&#x12f;" horiz-adv-x="265" 
d="M56 744q8 2 19 4q10 2 24 3t34 1q19 0 33 -1t24 -3q11 -2 20 -4v-136q-9 -2 -20 -4q-10 -2 -24 -3t-33 -1q-20 0 -34 1t-24 3q-11 2 -19 4v136zM210 8q-30 -42 -41.5 -77t-5.5 -60q8 -33 49 -13q6 -6 11.5 -16t9.5 -22t6 -23.5t2 -19.5q-18 -12 -46 -19.5t-59 -7.5
q-48 0 -74 19.5t-31 52.5q-8 44 10.5 91t66.5 89q-11 0 -26 2t-26 6v512q8 2 19 4q10 2 24 3t34 1q19 0 33 -1t24 -3q11 -2 20 -4v-514z" />
    <glyph glyph-name="itilde" unicode="&#x129;" horiz-adv-x="265" 
d="M184 690q11 0 19 3.5t13 8.5q6 5 11 13q17 -11 27.5 -31t12.5 -42q-9 -13 -21 -24q-11 -9 -26.5 -16.5t-35.5 -7.5t-33 4.5t-23.5 10.5t-21.5 10.5t-26 4.5q-11 0 -18.5 -4t-12.5 -9q-6 -5 -11 -12q-38 25 -41 73q9 13 22 24q11 9 26.5 17t35.5 8q19 0 32 -5t23.5 -10.5
t21.5 -10.5t26 -5zM210 8q-9 -2 -20 -4q-10 -2 -24 -3t-33 -1q-20 0 -34 1t-24 3q-11 2 -19 4v514q8 2 19 4q10 2 24 3t34 1q19 0 33 -1t24 -3q11 -2 20 -4v-514z" />
    <glyph glyph-name="j" unicode="j" horiz-adv-x="266" 
d="M210 625q-9 -2 -20 -4q-10 -2 -24 -3t-33 -1q-20 0 -34 1t-24 3q-11 2 -19 4v126q8 2 19 4q10 2 24 3t34 1q19 0 33 -1t24 -3q11 -2 20 -4v-126zM56 522q8 2 19 4q10 2 24 3t34 1q18 0 32 -1t24 -3l21 -4v-610q0 -78 -39.5 -120t-123.5 -42q-22 0 -38.5 2.5t-28.5 5.5
q-14 4 -25 8l-2 10t-1.5 11t-0.5 13q0 19 2.5 33.5t5.5 24.5q4 11 9 19q6 -1 11 -2t10.5 -1.5t12.5 -0.5q26 0 40 14t14 47v588z" />
    <glyph glyph-name="jcircumflex" unicode="&#x135;" horiz-adv-x="266" 
d="M304 641q-11 -23 -28 -40.5t-39 -25.5l-104 65l-104 -65q-23 9 -39.5 26t-27.5 40l152 128h36zM56 522q8 2 19 4q10 2 24 3t34 1q18 0 32 -1t24 -3l21 -4v-610q0 -78 -39.5 -120t-123.5 -42q-22 0 -38.5 2.5t-28.5 5.5q-14 4 -25 8l-2 10t-1.5 11t-0.5 13q0 19 2.5 33.5
t5.5 24.5q4 11 9 19q6 -1 11 -2t10.5 -1.5t12.5 -0.5q26 0 40 14t14 47v588z" />
    <glyph glyph-name="k" unicode="k" horiz-adv-x="520" 
d="M341 522q8 2 19 4q10 2 23.5 3t32.5 1q17 0 31.5 -1t25.5 -3q12 -2 22 -4l-130 -237l153 -277q-11 -3 -24 -5q-11 -2 -26.5 -3t-35.5 -1q-19 0 -34 1t-26 3q-12 2 -22 5l-117 213h-24v-213q-9 -2 -20 -4q-10 -2 -24 -3t-32 -1q-19 0 -33 1t-24 3l-21 4v736l21 3
q10 1 24.5 2t32.5 1q17 0 30 -1t24 -2q11 -2 22 -3v-412h26z" />
    <glyph glyph-name="kcommaaccent" unicode="&#x137;" horiz-adv-x="520" 
d="M341 522q8 2 19 4q10 2 23.5 3t32.5 1q17 0 31.5 -1t25.5 -3q12 -2 22 -4l-130 -237l153 -277q-11 -3 -24 -5q-11 -2 -26.5 -3t-35.5 -1q-19 0 -34 1t-26 3q-12 2 -22 5l-117 213h-24v-213q-9 -2 -20 -4q-10 -2 -24 -3t-32 -1q-19 0 -33 1t-24 3l-21 4v736l21 3
q10 1 24.5 2t32.5 1q17 0 30 -1t24 -2q11 -2 22 -3v-412h26zM219 -306q9 12 17 29q7 14 13 34.5t8 46.5q-22 1 -36 5q-8 2 -13 3v143q9 2 20 4q10 2 24 3t33 1q18 0 32 -1t24 -3l21 -4v-103q0 -48 -13.5 -84.5t-30.5 -61.5q-19 -29 -44 -50z" />
    <glyph glyph-name="kgreenlandic" unicode="&#x138;" horiz-adv-x="527" 
d="M531 14q-9 -4 -22 -7q-11 -3 -27.5 -5t-39.5 -2q-40 0 -63 5q-12 2 -22 5l-114 182l-35 -44v-139q-32 -9 -76 -9q-22 0 -43 2t-35 7v511q15 3 36 4.5t43 1.5q21 0 41 -1.5t34 -4.5v-180l138 180q33 6 76 6q21 0 42.5 -1.5t40.5 -6.5l-163 -202z" />
    <glyph glyph-name="l" unicode="l" horiz-adv-x="266" 
d="M210 8q-9 -2 -20 -4q-10 -2 -24 -3t-33 -1q-20 0 -34 1t-24 3q-11 2 -19 4v734q8 2 19 4q10 2 24 3t34 1q19 0 33 -1t24 -3q11 -2 20 -4v-734z" />
    <glyph glyph-name="lacute" unicode="&#x13a;" horiz-adv-x="267" 
d="M126 772q-26 5 -48.5 15t-36.5 29l91 147q18 2 38 -1t38 -10t32.5 -17.5t22.5 -23.5zM210 8q-9 -2 -20 -4q-10 -2 -24 -3t-33 -1q-20 0 -34 1t-24 3q-11 2 -19 4v734q8 2 19 4q10 2 24 3t34 1q19 0 33 -1t24 -3q11 -2 20 -4v-734z" />
    <glyph glyph-name="lcaron" unicode="&#x13e;" horiz-adv-x="282" 
d="M311 569q-20 1 -38.5 8.5t-29.5 21.5q28 36 39 67t7 79q35 7 66.5 3.5t53.5 -17.5q-5 -54 -31.5 -98.5t-66.5 -63.5zM210 8q-9 -2 -20 -4q-10 -2 -24 -3t-33 -1q-20 0 -34 1t-24 3q-11 2 -19 4v734q8 2 19 4q10 2 24 3t34 1q19 0 33 -1t24 -3q11 -2 20 -4v-734z" />
    <glyph glyph-name="lcommaaccent" unicode="&#x13c;" horiz-adv-x="267" 
d="M210 8q-9 -2 -20 -4q-10 -2 -24 -3t-33 -1q-20 0 -34 1t-24 3q-11 2 -19 4v734q8 2 19 4q10 2 24 3t34 1q19 0 33 -1t24 -3q11 -2 20 -4v-734zM68 -309q9 12 17 29q7 14 13 34.5t8 46.5q-22 1 -36 5q-8 2 -13 3v143q9 2 20 4q10 2 24 3t33 1q18 0 32 -1t24 -3l21 -4v-103
q0 -48 -13.5 -84.5t-30.5 -61.5q-19 -29 -44 -50z" />
    <glyph glyph-name="ldot" unicode="&#x140;" horiz-adv-x="427" 
d="M210 8q-9 -2 -20 -4q-10 -2 -24 -3t-33 -1q-20 0 -34 1t-24 3q-11 2 -19 4v734q8 2 19 4q10 2 24 3t34 1q19 0 33 -1t24 -3q11 -2 20 -4v-734zM415 273q-8 -2 -18 -4q-9 -2 -21 -3t-29 -1t-30 1t-21 3q-10 2 -17 4v124q7 2 17 4q8 2 21 3t30 1t29 -1t21 -3q10 -2 18 -4
v-124z" />
    <glyph glyph-name="less" unicode="&#x3c;" horiz-adv-x="427" 
d="M40 233q-2 7 -4 16q-3 15 -3 42q0 26 3 41q2 9 4 15l327 143q1 -6 3 -14q2 -7 3 -17t1 -24t-1 -24.5t-3 -17.5q-2 -9 -3 -14l-205 -91l205 -88q1 -6 3 -14q2 -7 3 -17t1 -24t-1 -24t-3 -17q-2 -8 -3 -14z" />
    <glyph glyph-name="lessequal" unicode="&#x2264;" horiz-adv-x="446" 
d="M57 316q-2 7 -4 17q-3 15 -3 42t3 41q2 8 4 14l327 115q1 -6 3 -14q2 -7 3 -17t1 -24t-1 -24t-3 -17q-2 -8 -3 -14l-187 -63l187 -60q1 -6 3 -14q2 -7 3 -17t1 -24t-1 -24t-3 -17q-2 -8 -3 -14zM57 68q-2 6 -4 14q-3 13 -3 39q0 25 3 39q2 8 4 14h327q2 -6 4 -14
q2 -7 3 -16.5t1 -22.5t-1 -22.5t-3 -16.5q-2 -8 -4 -14h-327z" />
    <glyph glyph-name="logicalnot" unicode="&#xac;" horiz-adv-x="602" 
d="M543 162q-7 -3 -16 -6q-18 -5 -46 -5q-29 0 -46 5q-10 3 -16 6v161h-370q-3 7 -6 17q-5 18 -5 44q0 27 5 45q3 10 6 17h494v-284z" />
    <glyph glyph-name="longs" unicode="&#x17f;" horiz-adv-x="320" 
d="M245 8q-9 -2 -20 -4q-10 -2 -24 -3t-33 -1q-20 0 -34 1t-24 3q-11 2 -19 4v408h-64q-6 27 -6 56t6 54h64v60q0 38 10 68.5t32 51.5t57.5 32.5t86.5 11.5q31 0 55.5 -4.5t41.5 -9.5q20 -6 35 -13q-2 -32 -13.5 -57.5t-28.5 -45.5q-8 3 -19 6q-9 2 -22.5 4t-30.5 2
q-26 0 -38 -12t-12 -40v-572z" />
    <glyph glyph-name="lozenge" unicode="&#x25ca;" horiz-adv-x="560" 
d="M21 352l216 344h83l219 -344l-219 -345h-83zM280 542l-114 -191l114 -191l116 191z" />
    <glyph glyph-name="lslash" unicode="&#x142;" horiz-adv-x="369" 
d="M107 742q8 2 19 4q10 2 24 3t34 1q19 0 33 -1t24 -3q11 -2 20 -4v-243l58 34q3 -3 7 -8l9 -11.5t11 -16.5q6 -11 10 -19t6 -13q3 -6 3 -11l-104 -60v-386q-9 -2 -20 -4q-10 -2 -24 -3t-33 -1q-20 0 -34 1t-24 3q-11 2 -19 4v298l-55 -32q-4 3 -8 8l-8.5 11t-10.5 17
q-7 11 -10.5 18.5t-5.5 12.5q-3 6 -3 11l101 57v333v0z" />
    <glyph glyph-name="m" unicode="m" horiz-adv-x="820" 
d="M464 478q61 61 154 61q74 0 112 -41.5t38 -110.5v-379l-21 -4q-10 -2 -24 -3t-32 -1q-20 0 -34 1t-24 3q-11 2 -19 4v350q0 27 -13.5 43.5t-47.5 16.5q-37 0 -65 -28v-382l-21 -4q-10 -2 -24 -3t-32 -1q-20 0 -34 1t-24 3q-11 2 -19 4v350q0 27 -13.5 43.5t-46.5 16.5
q-37 0 -66 -27v-383l-21 -4q-10 -2 -24 -3t-32 -1q-20 0 -34 1t-24 3q-11 2 -19 4v513q8 2 19 4q10 2 24 3t34 1q18 0 32.5 -1t24.5 -3q11 -2 20 -4v-31q23 21 56.5 35t73.5 14q42 0 73 -14.5t53 -46.5z" />
    <glyph glyph-name="macron" unicode="&#xaf;" horiz-adv-x="407" 
d="M32 625q-6 21 -6 46t6 43h330q6 -19 5.5 -44t-5.5 -45h-330z" />
    <glyph glyph-name="minus" unicode="&#x2212;" horiz-adv-x="455" 
d="M64 275q-2 6 -4 15q-3 13 -3 40q0 25 3 40q2 8 4 15h327q1 -7 3 -15t3 -17.5t1 -22.5t-1 -23t-3 -17l-3 -15h-327z" />
    <glyph glyph-name="mu" unicode="&#xb5;" horiz-adv-x="584" 
d="M358 522q9 2 20 4q10 2 24.5 3t32.5 1q19 0 33.5 -1t24.5 -3q11 -2 19 -4v-514q-8 -2 -19 -4q-10 -2 -24.5 -3t-33.5 -1q-18 0 -32.5 1t-24.5 3q-11 2 -20 4v23q-36 -41 -99 -41q-21 0 -37 6t-27 14q7 -54 16 -95.5t18 -70.5q10 -34 21 -60q-15 -13 -35.5 -21t-43 -11
t-45.5 -1.5t-42 6.5q-4 20 -7 52q-2 27 -4 70.5t-2 106.5v536q9 2 20 4q10 2 24.5 3t32.5 1q19 0 33.5 -1t24.5 -3q11 -2 19 -4v-351q0 -29 15 -45t48 -16q38 0 70 29v383v0z" />
    <glyph glyph-name="multiply" unicode="&#xd7;" horiz-adv-x="470" 
d="M122 97l-14 8q-6 4 -14 10t-17 16q-18 18 -26 31q-4 7 -7 13l114 114l-114 114q3 6 7 13q8 13 26 31q9 9 17 15t14 11l14 8l114 -115l114 115q6 -4 13 -8q13 -8 31 -26t26 -31q4 -7 7 -13l-114 -114l114 -114q-3 -7 -7 -14q-8 -13 -26 -31t-31 -26q-7 -4 -13 -7l-114 114
z" />
    <glyph glyph-name="n" unicode="n" horiz-adv-x="547" 
d="M495 8q-8 -2 -19 -4q-10 -2 -24.5 -3t-33.5 -1q-20 0 -34 1t-24 3q-11 2 -19 4v350q0 28 -14.5 44t-49.5 16q-38 0 -69 -28v-382q-9 -2 -20 -4q-10 -2 -24 -3t-33 -1q-20 0 -34 1t-24 3q-11 2 -19 4v513q8 2 19 4q10 2 24 3t34 1q19 0 33 -1t24 -3q11 -2 20 -4v-30
q52 48 134 48q77 0 115 -41.5t38 -108.5v-381z" />
    <glyph glyph-name="nacute" unicode="&#x144;" horiz-adv-x="547" 
d="M254 595q-26 5 -49 15t-37 29l91 147q18 2 38 -1t38 -10t32.5 -17.5t22.5 -23.5zM495 8q-9 -2 -20 -4q-10 -2 -24 -3t-33 -1q-20 0 -34 1t-24 3q-11 2 -19 4v351q0 28 -15 44t-49 16q-39 0 -69 -28v-383q-9 -2 -20 -4q-10 -2 -24.5 -3t-32.5 -1q-20 0 -34 1t-24 3
q-11 2 -19 4v514q8 2 19 4q10 2 24 3t34 1q18 0 32.5 -1t24.5 -3q11 -2 20 -4v-30q52 48 133 48q77 0 115.5 -41.5t38.5 -108.5v-382z" />
    <glyph glyph-name="napostrophe" unicode="&#x149;" horiz-adv-x="547" 
d="M119 571q-20 2 -37.5 12t-27.5 25q16 16 27.5 31.5t18.5 31.5t10.5 35t4.5 43q35 2 67 -4t52 -23q-11 -54 -42 -95.5t-73 -55.5zM495 8q-9 -2 -20 -4q-10 -2 -24 -3t-33 -1q-20 0 -34 1t-24 3q-11 2 -19 4v351q0 28 -15 44t-49 16q-39 0 -69 -28v-383q-9 -2 -20 -4
q-10 -2 -24.5 -3t-32.5 -1q-20 0 -34 1t-24 3q-11 2 -19 4v514q8 2 19 4q10 2 24 3t34 1q18 0 32.5 -1t24.5 -3q11 -2 20 -4v-30q52 48 133 48q77 0 115.5 -41.5t38.5 -108.5v-382z" />
    <glyph glyph-name="ncaron" unicode="&#x148;" horiz-adv-x="548" 
d="M378 772q21 -8 36.5 -24.5t25.5 -36.5l-142 -122h-33l-143 122q9 20 25.5 37t36.5 25l97 -62zM55 522q8 2 19 4q10 2 24 3t34 1q18 0 32.5 -1t24.5 -3q11 -2 20 -4v-30q52 48 133 48q77 0 115.5 -41.5t38.5 -108.5v-382q-9 -2 -20 -4q-10 -2 -24 -3t-33 -1q-20 0 -34 1
t-24 3q-11 2 -19 4v351q0 28 -15 44t-49 16q-39 0 -69 -28v-383q-9 -2 -20 -4q-10 -2 -24.5 -3t-32.5 -1q-20 0 -34 1t-24 3q-11 2 -19 4v514z" />
    <glyph glyph-name="ncommaaccent" unicode="&#x146;" horiz-adv-x="548" 
d="M496 8q-9 -2 -20 -4q-10 -2 -24 -3t-33 -1q-20 0 -34 1t-24 3q-11 2 -19 4v351q0 28 -15 44t-49 16q-39 0 -69 -28v-383q-9 -2 -20 -4q-10 -2 -24.5 -3t-32.5 -1q-20 0 -34 1t-24 3q-11 2 -19 4v514q8 2 19 4q10 2 24 3t34 1q18 0 32.5 -1t24.5 -3q11 -2 20 -4v-30
q52 48 133 48q77 0 115.5 -41.5t38.5 -108.5v-382zM214 -300q10 12 18 29q7 14 13 34.5t8 46.5q-12 1 -21 2t-16 3q-8 2 -13 3v143q9 2 20 4q10 2 24 3t33 1q18 0 32 -1t24 -3l21 -4v-103q0 -48 -13.5 -84.5t-30.5 -61.5q-19 -29 -44 -50z" />
    <glyph glyph-name="nine" unicode="9" horiz-adv-x="553" 
d="M108 0q-10 30 -10 62t10 59q90 8 143 42.5t77 103.5q-18 -5 -39 -7.5t-46 -2.5q-44 0 -83 12.5t-68 39t-45.5 68t-16.5 100.5q0 112 64 164.5t176 52.5q55 0 100 -15.5t76 -48.5t48 -84t17 -121q0 -102 -27 -179.5t-79 -130t-126.5 -81t-170.5 -34.5zM188 477
q0 -60 23.5 -82.5t61.5 -22.5q23 0 43.5 4t35.5 9q1 11 1.5 22t0.5 22q0 43 -6 72t-17 46.5t-26.5 25t-34.5 7.5q-38 0 -60 -24.5t-22 -78.5z" />
    <glyph glyph-name="nine.denom" horiz-adv-x="314" 
d="M20 234q0 57 35.5 85.5t98.5 28.5q64 0 99.5 -33.5t35.5 -105.5q0 -104 -59.5 -154.5t-162.5 -57.5q-8 14 -8 36t8 38q31 2 59.5 13t43.5 43q-14 -3 -34 -3q-23 0 -44 6t-37 19t-25.5 34t-9.5 51zM187 196q0 41 -7.5 61t-25.5 20q-15 0 -24 -10.5t-9 -32.5t9.5 -31.5
t24.5 -9.5q18 0 32 3z" />
    <glyph glyph-name="nine.num" horiz-adv-x="314" 
d="M20 580q0 57 35.5 85.5t98.5 28.5q64 0 99.5 -33.5t35.5 -105.5q0 -104 -59.5 -154.5t-162.5 -57.5q-8 14 -8 36t8 38q31 2 59.5 13t43.5 43q-14 -3 -34 -3q-23 0 -44 6t-37 19t-25.5 34t-9.5 51zM187 542q0 41 -7.5 61t-25.5 20q-15 0 -24 -10.5t-9 -32.5t9.5 -31.5
t24.5 -9.5q18 0 32 3z" />
    <glyph glyph-name="nineinferior" unicode="&#x2089;" horiz-adv-x="314" 
d="M20 138q0 57 35.5 85.5t98.5 28.5q64 0 99.5 -33.5t35.5 -105.5q0 -104 -59.5 -154.5t-162.5 -57.5q-8 14 -8 36t8 38q31 2 59.5 13.5t43.5 42.5q-14 -3 -34 -3q-23 0 -44 6t-37 19t-25.5 34t-9.5 51zM187 100q0 42 -7.5 61.5t-25.5 19.5q-15 0 -24 -10.5t-9 -32.5
t9.5 -31.5t24.5 -9.5q18 0 32 3z" />
    <glyph glyph-name="notequal" unicode="&#x2260;" horiz-adv-x="496" 
d="M172 59q-12 -4 -26.5 -5.5t-29.5 -1.5q-13 0 -25 2t-22 5l42 79h-55q-3 13 -5 26.5t-2 27.5q0 15 1.5 29.5t5.5 26.5h114l44 83h-158q-4 14 -5.5 28.5t-1.5 29.5q0 14 2 27.5t5 24.5h216l39 70q11 4 25 5.5t28 1.5t27 -2t24 -5l-39 -70h64q4 -11 5.5 -24.5t1.5 -27.5
q0 -15 -1.5 -30t-5.5 -28h-123l-44 -83h167q4 -11 5.5 -25t1.5 -28q0 -15 -1.5 -29.5t-5.5 -27.5h-226z" />
    <glyph glyph-name="ntilde" unicode="&#xf1;" horiz-adv-x="547" 
d="M98 676q12 14 28 25q14 10 33 18t43 8t40 -5t29.5 -11t27 -11t31.5 -5q13 0 22.5 4t16.5 9q8 5 13 13q22 -11 35.5 -32.5t15.5 -43.5q-12 -15 -27 -26q-14 -10 -32.5 -17.5t-43.5 -7.5q-24 0 -40.5 5t-29.5 11t-26.5 11t-31.5 5q-13 0 -22.5 -4t-16.5 -9q-8 -6 -14 -13
q-46 25 -51 76zM208 492q52 48 134 48q77 0 115 -41.5t38 -108.5v-382q-8 -2 -19 -4q-10 -2 -24.5 -3t-33.5 -1q-20 0 -34 1t-24 3q-11 2 -19 4v351q0 28 -14.5 44t-49.5 16q-38 0 -69 -28v-383q-9 -2 -20 -4q-10 -2 -24 -3t-33 -1q-20 0 -34 1t-24 3q-11 2 -19 4v514
q8 2 19 4q10 2 24 3t34 1q19 0 33 -1t24 -3q11 -2 20 -4v-30z" />
    <glyph glyph-name="_300" horiz-adv-x="0" 
 />
    <glyph glyph-name="numbersign" unicode="#" 
d="M476 614q27 9 64 9q34 0 61 -9l-30 -106h69q4 -13 6 -26t2 -28q0 -33 -8 -63h-102l-47 -168h66q2 -7 4 -16q2 -8 3 -18.5t1 -24.5t-1 -24.5t-3 -18.5q-2 -9 -4 -16h-99l-27 -96q-27 -9 -61 -9q-37 0 -64 9l26 96h-101l-26 -96q-29 -9 -65 -9q-34 0 -61 9l27 96h-73
q-2 6 -4 15q-2 8 -3 18.5t-1 24.5q0 15 1 26t3 19q2 9 4 15h106l47 168h-70q-5 14 -6.5 28t-1.5 31t1.5 30.5t6.5 27.5h103l30 106q27 9 61 9q36 0 65 -9l-30 -106h101zM264 223h101l47 168h-101z" />
    <glyph glyph-name="o" unicode="o" horiz-adv-x="553" 
d="M35 265q0 75 17 127t48.5 84.5t76.5 47.5t100 15t100 -15t76 -47.5t48 -84.5t17 -127t-17 -127t-48.5 -85t-76 -48t-99.5 -15t-100 15t-76.5 48t-48.5 85t-17 127zM358 265q0 47 -5.5 77.5t-16 48t-25.5 24.5t-34 7q-20 0 -35 -7t-25.5 -24.5t-16 -48t-5.5 -77.5t5.5 -78
t16 -49t25.5 -25t35 -7q19 0 34 7t25.5 25t16 49t5.5 78z" />
    <glyph glyph-name="oacute" unicode="&#xf3;" horiz-adv-x="554" 
d="M265 786q18 2 38 -1t38 -10t32.5 -17.5t22.5 -23.5l-136 -139q-26 5 -49 15t-37 29zM35 265q0 75 17 127t48.5 85t76.5 48t100 15t100 -15t76.5 -48t48.5 -85t17 -127t-17 -127t-48.5 -85t-76.5 -48t-100 -15t-100 15t-76.5 48t-48.5 85t-17 127zM358 265q0 47 -5.5 77.5
t-15.5 48.5t-25.5 25t-34.5 7t-34.5 -7t-26 -25t-16 -48.5t-5.5 -77.5t5.5 -78t16 -49t26 -25t34.5 -7t34.5 7t25.5 25t15.5 49t5.5 78z" />
    <glyph glyph-name="obreve" unicode="&#x14f;" horiz-adv-x="554" 
d="M277 710q25 0 44.5 4.5t33.5 9.5q16 6 27 14q22 -9 39 -28t24 -41q-17 -21 -41 -37q-21 -14 -52 -25.5t-75 -11.5q-45 0 -76 11.5t-52 25.5q-25 16 -41 37q8 22 24.5 41t39.5 28q11 -8 27 -14q14 -5 33 -9.5t45 -4.5zM35 265q0 75 17 127t48.5 85t76.5 48t100 15t100 -15
t76.5 -48t48.5 -85t17 -127t-17 -127t-48.5 -85t-76.5 -48t-100 -15t-100 15t-76.5 48t-48.5 85t-17 127zM358 265q0 47 -5.5 77.5t-15.5 48.5t-25.5 25t-34.5 7t-34.5 -7t-26 -25t-16 -48.5t-5.5 -77.5t5.5 -78t16 -49t26 -25t34.5 -7t34.5 7t25.5 25t15.5 49t5.5 78z" />
    <glyph glyph-name="ocircumflex" unicode="&#xf4;" horiz-adv-x="554" 
d="M445 653q-11 -22 -28 -39.5t-39 -25.5l-104 65l-103 -64q-23 8 -39.5 25t-27.5 39l152 129h35zM35 265q0 75 17 127t48.5 85t76.5 48t100 15t100 -15t76.5 -48t48.5 -85t17 -127t-17 -127t-48.5 -85t-76.5 -48t-100 -15t-100 15t-76.5 48t-48.5 85t-17 127zM358 265
q0 47 -5.5 77.5t-15.5 48.5t-25.5 25t-34.5 7t-34.5 -7t-26 -25t-16 -48.5t-5.5 -77.5t5.5 -78t16 -49t26 -25t34.5 -7t34.5 7t25.5 25t15.5 49t5.5 78z" />
    <glyph glyph-name="odieresis" unicode="&#xf6;" horiz-adv-x="554" 
d="M109 717q6 1 16 3q8 2 20.5 3t29.5 1q16 0 28.5 -1t20.5 -3q10 -2 17 -3v-115q-7 -2 -17 -4q-17 -3 -49 -3q-33 0 -49 3q-10 2 -17 4v115zM306 717q6 1 16 3q8 2 20.5 3t29.5 1q16 0 28.5 -1t20.5 -3q10 -2 17 -3v-115q-7 -2 -17 -4q-17 -3 -49 -3q-34 0 -50 3
q-10 2 -16 4v115zM35 265q0 75 17 127t48.5 85t76.5 48t100 15t100 -15t76.5 -48t48.5 -85t17 -127t-17 -127t-48.5 -85t-76.5 -48t-100 -15t-100 15t-76.5 48t-48.5 85t-17 127zM358 265q0 47 -5.5 77.5t-15.5 48.5t-25.5 25t-34.5 7t-34.5 -7t-26 -25t-16 -48.5
t-5.5 -77.5t5.5 -78t16 -49t26 -25t34.5 -7t34.5 7t25.5 25t15.5 49t5.5 78z" />
    <glyph glyph-name="oe" unicode="&#x153;" horiz-adv-x="807" 
d="M495 219q7 -61 31.5 -84.5t69.5 -23.5q23 0 43 3t34 8q17 5 31 12q17 -14 30 -42t15 -57q-18 -13 -44 -23q-22 -8 -55.5 -15t-78.5 -7q-48 0 -86 16t-64 45q-28 -27 -64.5 -44t-80.5 -17q-55 0 -100 15t-76.5 48t-48.5 85t-17 127t17 127t48.5 85t76.5 48t100 15
q45 0 82 -15.5t64 -47.5q26 32 62.5 47.5t79.5 15.5q98 0 156 -52t58 -159q0 -25 -2 -45.5t-4 -34.5q-3 -17 -5 -30h-272zM630 346q0 35 -13.5 58.5t-49.5 23.5q-31 0 -49.5 -25t-23.5 -88h134q1 8 1.5 15.5t0.5 15.5zM276 423q-20 0 -35 -7t-25.5 -25t-16 -48.5t-5.5 -77.5
t5.5 -78t16 -49t25.5 -25t35 -7q19 0 33 7t23 25t13.5 49t4.5 78t-4.5 77.5t-13.5 48.5t-23 25t-33 7z" />
    <glyph glyph-name="ogonek" unicode="&#x2db;" horiz-adv-x="283" 
d="M248 0q-17 -12 -30 -29t-22 -35t-12.5 -35.5t-0.5 -29.5q8 -33 49 -13q6 -6 11.5 -16t9.5 -22t6 -23.5t2 -19.5q-18 -12 -46 -19.5t-59 -7.5q-48 0 -71.5 19.5t-30.5 52.5q-10 47 15 91t76 87h103z" />
    <glyph glyph-name="ograve" unicode="&#xf2;" horiz-adv-x="553" 
d="M333 639q-14 -19 -37 -29t-49 -15l-137 139q8 13 22.5 23.5t32.5 17.5t38 10t38 1zM35 265q0 75 17 127t48.5 85t76 48t99.5 15t100 -15t76.5 -48t48.5 -85t17 -127t-17 -127t-48.5 -85t-76.5 -48t-100 -15t-99.5 15t-76 48t-48.5 85t-17 127zM358 265q0 47 -5.5 77.5
t-16 48.5t-26 25t-34.5 7t-34.5 -7t-26 -25t-16 -48.5t-5.5 -77.5t5.5 -78t16 -49t26 -25t34.5 -7t34.5 7t26 25t16 49t5.5 78z" />
    <glyph glyph-name="ohungarumlaut" unicode="&#x151;" horiz-adv-x="554" 
d="M216 754q16 2 34 -0.5t34.5 -8.5t30 -15t21.5 -19l-122 -116q-25 4 -45.5 12.5t-33.5 23.5zM393 754q17 2 35 -0.5t34.5 -8.5t30 -15t20.5 -19l-125 -116q-24 4 -45.5 12.5t-33.5 23.5zM35 265q0 75 17 127t48.5 85t76.5 48t100 15t100 -15t76.5 -48t48.5 -85t17 -127
t-17 -127t-48.5 -85t-76.5 -48t-100 -15t-100 15t-76.5 48t-48.5 85t-17 127zM358 265q0 47 -5.5 77.5t-15.5 48.5t-25.5 25t-34.5 7t-34.5 -7t-26 -25t-16 -48.5t-5.5 -77.5t5.5 -78t16 -49t26 -25t34.5 -7t34.5 7t25.5 25t15.5 49t5.5 78z" />
    <glyph glyph-name="omacron" unicode="&#x14d;" horiz-adv-x="553" 
d="M410 700q5 -19 5 -43.5t-5 -44.5h-266q-4 21 -4 45.5t4 42.5h266zM35 265q0 75 17 127t48.5 85t76 48t99.5 15t100 -15t76.5 -48t48.5 -85t17 -127t-17 -127t-48.5 -85t-76.5 -48t-100 -15t-99.5 15t-76 48t-48.5 85t-17 127zM358 265q0 47 -5.5 77.5t-16 48.5t-26 25
t-34.5 7t-34.5 -7t-26 -25t-16 -48.5t-5.5 -77.5t5.5 -78t16 -49t26 -25t34.5 -7t34.5 7t26 25t16 49t5.5 78z" />
    <glyph glyph-name="one" unicode="1" horiz-adv-x="430" 
d="M17 549q62 18 103.5 48t74.5 78q9 2 20 4q10 2 24.5 3.5t33.5 1.5q18 0 32.5 -1.5t25.5 -3.5q12 -2 21 -4v-666q-9 -3 -20 -5q-10 -2 -24.5 -3t-33.5 -1q-18 0 -32.5 1t-25.5 3q-12 2 -22 5v387q0 55 3 94q-32 -25 -67.5 -40.5t-71.5 -23.5q-23 20 -34.5 53t-6.5 70z" />
    <glyph glyph-name="one.denom" horiz-adv-x="256" 
d="M12 281q35 9 58 22.5t42 34.5q10 3 23.5 4t27.5 1q25 0 48 -5v-333q-25 -5 -48 -5q-14 0 -28 1t-27 4v181v22.5t1 21.5q-14 -10 -33 -17t-39 -9q-13 13 -20 34.5t-5 42.5z" />
    <glyph glyph-name="one.num" horiz-adv-x="272" 
d="M12 627q35 9 58 22.5t42 34.5q10 3 23.5 4t27.5 1q25 0 48 -5v-333q-25 -5 -48 -5q-14 0 -28 1t-27 4v181v22.5t1 21.5q-14 -10 -33 -17t-39 -9q-13 13 -20 34.5t-5 42.5z" />
    <glyph glyph-name="oneeighth" unicode="&#x215b;" horiz-adv-x="742" 
d="M486 695q6 1 14 3q7 2 17.5 3t25.5 1q14 0 25 -1t19 -3q9 -2 14 -3l-386 -698q-7 -2 -16 -4q-15 -3 -42 -3q-25 0 -40 3q-9 2 -16 4zM123 683q10 3 23.5 4t28.5 1q24 0 47 -5v-333q-23 -5 -48 -5q-14 0 -27.5 1t-27.5 4v181v22.5t2 21.5q-14 -10 -33.5 -17t-39.5 -9
q-13 13 -20 34.5t-5 42.5q35 9 58 22.5t42 34.5zM447 253q0 45 33 70t96 25q60 0 92.5 -23.5t32.5 -65.5q0 -26 -12 -45.5t-30 -31.5q24 -13 39.5 -33.5t15.5 -52.5q0 -48 -35 -74.5t-104 -26.5q-65 0 -101 24t-36 72q0 29 15 49.5t39 32.5q-21 12 -33 31.5t-12 48.5z
M610 252q0 28 -34 28q-16 0 -24 -7t-8 -18q0 -14 14.5 -23.5t35.5 -16.5q16 13 16 37zM617 95q0 18 -19.5 27.5t-40.5 18.5q-7 -6 -12 -12q-5 -5 -8.5 -13t-3.5 -17q0 -33 44 -33q18 0 29 7.5t11 21.5z" />
    <glyph glyph-name="onehalf" unicode="&#xbd;" horiz-adv-x="737" 
d="M486 695q6 1 14 3q7 2 17.5 3t25.5 1q14 0 25 -1t19 -3q9 -2 14 -3l-386 -698q-7 -2 -16 -4q-15 -3 -42 -3q-25 0 -40 3q-9 2 -16 4zM123 683q10 3 23.5 4t28.5 1q24 0 47 -5v-333q-23 -5 -48 -5q-14 0 -27.5 1t-27.5 4v181v22.5t2 21.5q-14 -10 -33.5 -17t-39.5 -9
q-13 13 -20 34.5t-5 42.5q35 9 58 22.5t42 34.5zM469 331q14 4 31 8q14 3 33.5 6t42.5 3q56 0 93 -24.5t37 -77.5q0 -41 -18 -63t-43 -37t-51.5 -28t-44.5 -34h140q7 -20 7 -43t-7 -41h-236q-2 5 -3 13q-1 6 -1.5 15t-0.5 20q0 33 11.5 56t29 39t38 27l38 21t29 20.5
t11.5 25.5q0 17 -14.5 24t-34.5 7q-17 1 -34.5 -2t-31.5 -7q-12 14 -17.5 33t-3.5 39z" />
    <glyph glyph-name="oneinferior" unicode="&#x2081;" horiz-adv-x="256" 
d="M12 185q35 9 58 22.5t42 34.5q10 3 23.5 4t27.5 1q25 0 48 -5v-333q-25 -5 -48 -5q-14 0 -28 1t-27 4v181v22.5t1 21.5q-14 -10 -33 -17t-39 -9q-13 13 -20 34.5t-5 42.5z" />
    <glyph glyph-name="onequarter" unicode="&#xbc;" horiz-adv-x="693" 
d="M486 695q6 1 14 3q7 2 17.5 3t25.5 1q14 0 25 -1t19 -3q9 -2 14 -3l-386 -698q-7 -2 -16 -4q-15 -3 -42 -3q-25 0 -40 3q-9 2 -16 4zM23 626q35 9 58 22.5t42 34.5q10 3 23.5 4t28.5 1q24 0 47 -5v-333q-23 -5 -48 -5q-14 0 -27.5 1t-27.5 4v181v22.5t2 21.5
q-14 -10 -33.5 -17t-39.5 -9q-13 13 -20 34.5t-5 42.5zM661 142q3 -10 4 -18.5t1 -17.5t-1.5 -17t-3.5 -17h-37v-67q-13 -3 -25 -4t-20 -1t-20 1t-24 4v67h-161q-5 18 -5 33q0 18 4 31l156 201q22 6 48 6t47 -6v-195h37zM468 142h67v88z" />
    <glyph glyph-name="onesuperior" unicode="&#xb9;" horiz-adv-x="256" 
d="M12 626q35 9 58 22.5t42 34.5q10 3 23.5 4t28.5 1q24 0 47 -5v-333q-23 -5 -48 -5q-14 0 -27.5 1t-27.5 4v181v22.5t2 21.5q-14 -10 -33.5 -17t-39.5 -9q-13 13 -20 34.5t-5 42.5z" />
    <glyph glyph-name="ordfeminine" unicode="&#xaa;" horiz-adv-x="359" 
d="M62 603q17 7 36 13q17 5 39 9.5t48 4.5q70 0 99 -29t29 -86v-207l-12 -4t-13.5 -3t-18.5 -1q-10 0 -17.5 1t-13.5 3q-7 2 -12 4l-8 22q-13 -16 -33.5 -25.5t-49.5 -9.5q-45 0 -71 26.5t-26 80.5t33.5 77.5t88.5 23.5q11 0 19.5 -0.5t15.5 -0.5q8 -1 15 -1v12
q0 16 -9.5 25.5t-31.5 9.5q-15 0 -29 -2.5t-25 -5.5q-13 -4 -24 -7q-12 14 -20 32t-9 38zM200 436q-5 0 -10.5 0.5t-13.5 0.5q-34 0 -34 -35q0 -20 8 -27.5t22 -7.5q20 0 29 16.5t9 37.5v15h-10zM310 244q6 -18 5.5 -41t-5.5 -41h-264q-5 20 -5 42.5t5 39.5h264z" />
    <glyph glyph-name="ordmasculine" unicode="&#xba;" horiz-adv-x="370" 
d="M38 463q0 90 37.5 128.5t109.5 38.5q71 0 109.5 -38t38.5 -129t-38 -129.5t-110 -38.5t-109.5 38.5t-37.5 129.5zM225 463q0 28 -2.5 45.5t-7.5 27t-12.5 12.5t-17.5 3t-17.5 -3t-12.5 -12.5t-7.5 -27t-2.5 -45.5t2.5 -45t7.5 -26t12.5 -12t17.5 -3t17.5 3t12.5 12
t7.5 26t2.5 45zM316 244q6 -18 6 -40q0 -23 -6 -42h-264q-3 10 -4 20.5t-1 21.5t1 21t4 19h264z" />
    <glyph glyph-name="oslash" unicode="&#xf8;" horiz-adv-x="554" 
d="M419 579q23 -1 44 -12.5t33 -25.5l-41 -66q31 -33 47.5 -84.5t16.5 -125.5q0 -75 -17 -127t-48.5 -85t-76.5 -48t-100 -15q-61 0 -107 18l-40 -64q-23 1 -43.5 11t-34.5 27l46 74q-30 33 -46.5 84.5t-16.5 124.5q0 75 17 127t48.5 85t76.5 48t100 15q60 0 107 -18z
M321 410q-17 13 -44 13q-20 0 -35 -7t-25.5 -25t-16 -48.5t-5.5 -77.5q0 -34 4 -54zM232 120q17 -14 45 -14q19 0 34.5 7t25.5 24.5t15.5 48t5.5 78.5q0 35 -4 55z" />
    <glyph glyph-name="oslashacute" unicode="&#x1ff;" horiz-adv-x="554" 
d="M257 595q-26 5 -49 15t-37 29l91 147q18 2 38 -1t38 -10t32.5 -17.5t22.5 -23.5zM419 579q23 -1 44 -12.5t33 -25.5l-41 -66q31 -33 47.5 -84.5t16.5 -125.5q0 -75 -17 -127t-48.5 -85t-76.5 -48t-100 -15q-61 0 -107 18l-40 -64q-23 1 -43.5 11t-34.5 27l46 74
q-30 33 -46.5 84.5t-16.5 124.5q0 75 17 127t48.5 85t76.5 48t100 15q60 0 107 -18zM321 410q-17 13 -44 13q-20 0 -35 -7t-25.5 -25t-16 -48.5t-5.5 -77.5q0 -34 4 -54zM232 120q17 -14 45 -14q19 0 34.5 7t25.5 24.5t15.5 48t5.5 78.5q0 35 -4 55z" />
    <glyph glyph-name="otilde" unicode="&#xf5;" horiz-adv-x="553" 
d="M103 677q12 14 28 25q14 10 33 18t43 8t40 -5t29.5 -11t27 -11t31.5 -5q13 0 22.5 4t16.5 9q8 5 13 13q22 -11 35.5 -32t15.5 -44q-12 -15 -27 -26q-14 -10 -32.5 -17.5t-43.5 -7.5q-24 0 -40.5 5t-29.5 11t-26.5 11t-31.5 5q-13 0 -22.5 -4t-16.5 -9q-8 -6 -14 -13
q-23 12 -36 32t-15 44zM35 265q0 75 17 127t48.5 85t76.5 48t100 15t100 -15t76 -48t48 -85t17 -127t-17 -127t-48.5 -85t-76 -48t-99.5 -15t-100 15t-76.5 48t-48.5 85t-17 127zM358 265q0 47 -5.5 77.5t-16 48.5t-25.5 25t-34 7q-20 0 -35 -7t-25.5 -25t-16 -48.5
t-5.5 -77.5t5.5 -78t16 -49t25.5 -25t35 -7q19 0 34 7t25.5 25t16 49t5.5 78z" />
    <glyph glyph-name="p" unicode="p" horiz-adv-x="561" 
d="M209 489q42 50 130 50q40 0 74 -13.5t59 -45.5t38.5 -84.5t13.5 -130.5q0 -77 -13.5 -129.5t-38 -85t-58.5 -46.5t-76 -14q-45 0 -76.5 13t-52.5 38v-257l-21 -4q-10 -2 -24.5 -3t-32.5 -1q-19 0 -32.5 1t-23.5 3q-11 2 -20 4v738q9 2 20 4q10 2 23.5 3t32.5 1
q18 0 32.5 -1t24.5 -3l21 -4v-33zM362 265q0 47 -5 77t-15.5 47t-25.5 23.5t-34 6.5q-33 0 -52.5 -24t-20.5 -64v-127q0 -38 18.5 -66t54.5 -28q19 0 33.5 6t25 22.5t16 47t5.5 79.5z" />
    <glyph glyph-name="paragraph" unicode="&#xb6;" horiz-adv-x="688" 
d="M252 224q-58 1 -101.5 22t-72 54t-42 75t-13.5 86q1 45 16.5 88t45 76t73 53.5t102.5 20.5h118v-920q-7 -2 -17 -3q-17 -3 -46 -3q-31 0 -47 3q-10 1 -16 3v445zM607 -221q-7 -2 -17 -3q-17 -3 -46 -3q-31 0 -47 3q-10 1 -16 3v914q6 1 16 3q8 1 19.5 2t27.5 1
q14 0 26 -1t20 -2q10 -2 17 -3v-914z" />
    <glyph glyph-name="parenleft" unicode="(" horiz-adv-x="299" 
d="M228 795q13 -7 22 -14t14 -13q6 -7 10 -14q-27 -51 -48 -117q-18 -57 -33 -136.5t-15 -180.5t15 -181t33 -137q21 -66 48 -116q-4 -8 -10 -15q-5 -6 -13.5 -13.5t-22.5 -13.5q-13 -6 -24.5 -9l-19.5 -5q-10 -2 -18 -1q-37 66 -65 144q-24 67 -44 155.5t-20 191.5
q0 102 20 191t44 156q28 78 65 144q8 1 18 -1l19.5 -5t24.5 -10z" />
    <glyph glyph-name="parenright" unicode=")" horiz-adv-x="299" 
d="M122 320q0 101 -15.5 180.5t-33.5 136.5q-21 66 -48 117q4 7 10 14q5 6 14 13t22 14t24.5 10l19.5 5q10 2 18 1q36 -66 64 -144q24 -67 44.5 -156t20.5 -191q0 -103 -20.5 -191.5t-44.5 -155.5q-28 -78 -64 -144q-8 -1 -18 1l-19.5 5t-24.5 9q-14 6 -23 13.5t-14 13.5
q-6 7 -9 15q27 50 48 116q18 57 33.5 137t15.5 181z" />
    <glyph glyph-name="partialdiff" unicode="&#x2202;" horiz-adv-x="559" 
d="M121 625q-7 32 -3.5 66.5t19.5 58.5q104 -8 176.5 -37t117.5 -82t65.5 -130t20.5 -180q0 -97 -17 -160.5t-48 -101.5t-76 -53.5t-100 -15.5q-56 0 -100 14t-75.5 45t-48 81t-16.5 122t16.5 122t45.5 81t70 45t91 14q20 0 37.5 -3t32.5 -8q-23 52 -71 81.5t-137 40.5z
M355 381q-13 8 -32 14t-46 6q-20 0 -35.5 -6t-26 -22.5t-16 -45.5t-5.5 -75q0 -45 5.5 -74t16 -45.5t26 -22.5t35.5 -6t35.5 6t26 22.5t16 45.5t5.5 74q0 38 -1 69t-4 60z" />
    <glyph glyph-name="percent" unicode="%" horiz-adv-x="763" 
d="M250 -3q-5 -2 -14 -4q-15 -3 -44 -3q-30 0 -43 3q-9 2 -14 4l385 698q6 1 14 3q7 2 17.5 3t25.5 1q14 0 24.5 -1t18.5 -3l15 -3zM172 344q-35 0 -62 9.5t-46 30.5t-29 54t-10 80q0 93 39 133.5t108 40.5t108.5 -40t39.5 -134q0 -47 -10 -80t-29.5 -54t-47 -30.5
t-61.5 -9.5zM172 612q-10 0 -17.5 -3.5t-12.5 -13.5t-7.5 -28.5t-2.5 -48.5t2.5 -48.5t7.5 -28t12.5 -12.5t17.5 -3t17.5 3t12.5 12.5t7.5 28t2.5 48.5t-2.5 48.5t-7.5 28.5t-12.5 13.5t-17.5 3.5zM590 -10q-35 0 -62 9.5t-46 30.5t-29 54t-10 80q0 93 39 133.5t108 40.5
t108.5 -40t39.5 -134q0 -47 -10 -80t-29.5 -54t-47 -30.5t-61.5 -9.5zM590 258q-10 0 -17.5 -3.5t-12.5 -13.5t-7.5 -28.5t-2.5 -48.5t2.5 -48.5t7.5 -28t12.5 -12.5t17.5 -3t17.5 3t12.5 12.5t7.5 28t2.5 48.5t-2.5 48.5t-7.5 28.5t-12.5 13.5t-17.5 3.5z" />
    <glyph glyph-name="period" unicode="." horiz-adv-x="254" 
d="M204 8q-9 -2 -20 -4q-10 -2 -24 -3t-33 -1q-20 0 -34 1t-24 3q-11 2 -19 4v143q8 2 19 4q10 2 24 3t34 1q19 0 33 -1t24 -3q11 -2 20 -4v-143z" />
    <glyph glyph-name="periodcentered" unicode="&#xb7;" horiz-adv-x="243" 
d="M189 223q-7 -2 -17 -4q-8 -2 -21 -3t-29 -1q-17 0 -30 1t-21 3q-10 2 -17 4v124q7 2 17 4q8 2 21 3t30 1q16 0 29 -1t21 -3q10 -2 17 -4v-124z" />
    <glyph glyph-name="perthousand" unicode="&#x2030;" horiz-adv-x="1099" 
d="M250 -3q-5 -2 -14 -4q-15 -3 -44 -3q-30 0 -43 3q-9 2 -14 4l385 698q6 1 14 3q7 2 17.5 3t25.5 1q14 0 24.5 -1t18.5 -3l15 -3zM172 344q-35 0 -62 9.5t-46 30.5t-29 54t-10 80q0 93 39 133.5t108 40.5t108.5 -40t39.5 -134q0 -47 -10 -80t-29.5 -54t-47 -30.5
t-61.5 -9.5zM172 612q-10 0 -17.5 -3.5t-12.5 -13.5t-7.5 -28.5t-2.5 -48.5t2.5 -48.5t7.5 -28t12.5 -12.5t17.5 -3t17.5 3t12.5 12.5t7.5 28t2.5 48.5t-2.5 48.5t-7.5 28.5t-12.5 13.5t-17.5 3.5zM590 -10q-35 0 -62 9.5t-46 30.5t-29 54t-10 80q0 93 39 133.5t108 40.5
t108.5 -40t39.5 -134q0 -47 -10 -80t-29.5 -54t-47 -30.5t-61.5 -9.5zM927 -10q-35 0 -62 9.5t-46 30.5t-29 54t-10 80q0 93 39 133.5t108 40.5t108.5 -40t39.5 -134q0 -47 -10 -80t-29.5 -54t-47 -30.5t-61.5 -9.5zM590 258q-10 0 -17.5 -3.5t-12.5 -13.5t-7.5 -28.5
t-2.5 -48.5t2.5 -48.5t7.5 -28t12.5 -12.5t17.5 -3t17.5 3t12.5 12.5t7.5 28t2.5 48.5t-2.5 48.5t-7.5 28.5t-12.5 13.5t-17.5 3.5zM927 258q-10 0 -17.5 -3.5t-12.5 -13.5t-7.5 -28.5t-2.5 -48.5t2.5 -48.5t7.5 -28t12.5 -12.5t17.5 -3t17.5 3t12.5 12.5t7.5 28t2.5 48.5
t-2.5 48.5t-7.5 28.5t-12.5 13.5t-17.5 3.5z" />
    <glyph glyph-name="pi" unicode="&#x3c0;" horiz-adv-x="632" 
d="M603 526q10 -28 10 -60q0 -16 -2.5 -32t-7.5 -28h-69v-168q0 -54 4 -93.5t9 -65.5q5 -31 13 -52q-18 -15 -47 -21t-54 -6q-5 0 -13.5 0.5l-17 1t-16 2t-11.5 3.5q-7 17 -11 48q-4 26 -7 70t-3 111v170h-131v-397q-9 -3 -20 -5q-10 -2 -24.5 -3t-33.5 -1q-20 0 -33.5 1
t-23.5 3q-11 2 -19 5v389q-17 -2 -29.5 -4t-20.5 -4q-10 -2 -17 -4q-5 12 -7.5 27t-2.5 31q0 17 2.5 33t7.5 29q21 6 51 10q26 4 63 7t88 3h373z" />
    <glyph glyph-name="plus" unicode="+" horiz-adv-x="455" 
d="M39 235q-2 6 -4 15q-3 13 -3 40q0 25 3 40q2 8 4 15h133v134l15 3q7 2 17 3t23 1t22.5 -1t17.5 -3t15 -3v-134h134q1 -7 3 -15t3 -17.5t1 -22.5t-1 -23t-3 -17l-3 -15h-134v-133q-7 -2 -15 -4t-17.5 -3t-22.5 -1t-23 1t-17 3q-9 2 -15 4v133h-133z" />
    <glyph glyph-name="plusminus" unicode="&#xb1;" horiz-adv-x="493" 
d="M58 347q-2 6 -4 15q-3 13 -3 40q0 25 3 40q2 8 4 15h133v100l15 3q7 2 17 3t23 1t22.5 -1t17.5 -3t15 -3v-100h134q1 -7 3 -15t3 -17.5t1 -22.5t-1 -23t-3 -17l-3 -15h-134v-100q-7 -2 -15 -4q-15 -3 -40 -3q-27 0 -40 3q-9 2 -15 4v100h-133zM58 102q-2 6 -4 15
q-3 13 -3 40q0 25 3 40q2 8 4 15h377q1 -7 3 -15t3 -17.5t1 -22.5t-1 -23t-3 -17l-3 -15h-377z" />
    <glyph glyph-name="product" unicode="&#x220f;" horiz-adv-x="714" 
d="M636 -197q-8 -3 -19 -5q-20 -5 -52 -5t-52 5q-11 2 -19 5v766h-274v-766q-8 -3 -19 -5q-20 -5 -53 -5q-31 0 -51 5q-11 2 -19 5v890h558v-890z" />
    <glyph glyph-name="q" unicode="q" horiz-adv-x="561" 
d="M352 41q-21 -25 -52 -38t-76 -13q-42 0 -76.5 14.5t-59 46.5t-38 84.5t-13.5 129.5q0 76 13 128.5t37.5 85t59 46.5t77.5 14q86 0 128 -50v33q9 2 20 4q10 2 23.5 3t32.5 1q18 0 32.5 -1t24.5 -3l21 -4v-738q-9 -2 -20 -4q-10 -2 -24 -3t-32 -1q-19 0 -33 1t-24 3l-21 4
v257zM198 265q0 -48 5.5 -78t15.5 -47t25 -23.5t35 -6.5q34 0 52.5 26t20.5 64v130q0 41 -19.5 65t-53.5 24q-20 0 -35 -6t-25 -23t-15.5 -47t-5.5 -78z" />
    <glyph glyph-name="question" unicode="?" horiz-adv-x="447" 
d="M421 512q0 -47 -13 -77t-32 -51t-42 -35.5t-42 -30.5t-32 -36.5t-13 -52.5q-6 -3 -15 -6q-8 -2 -19.5 -4t-27.5 -2q-15 0 -27 2t-20 4q-10 3 -16 6q0 51 10.5 83t26 53t34 34.5t34 27t26 30.5t10.5 45q0 41 -24.5 54.5t-63.5 13.5q-23 0 -42 -3.5t-33 -8.5
q-16 -5 -29 -11q-26 18 -37.5 46t-8.5 61q20 10 46 18q23 7 54.5 12.5t72.5 5.5q45 0 85.5 -8.5t71 -29.5t48.5 -55t18 -85zM262 8q-9 -2 -20 -4q-10 -2 -24.5 -3t-32.5 -1q-20 0 -34 1t-24 3q-11 2 -19 4v143q8 2 19 4q10 2 24 3t34 1q18 0 32.5 -1t24.5 -3q11 -2 20 -4
v-143z" />
    <glyph glyph-name="questiondown" unicode="&#xbf;" horiz-adv-x="442" 
d="M183 512q9 2 20 4q10 2 24 3t33 1t33.5 -1t24.5 -3q11 -2 19 -4v-143q-8 -2 -19 -4q-10 -2 -24 -3t-34 -1q-19 0 -33 1t-24 3q-11 2 -20 4v143zM24 9q0 47 13 77t32 51t42 35.5t42 30.5t32 36.5t13 52.5q6 2 15 4q8 2 19 3t27 1q15 0 27 -1t20 -3q10 -2 17 -4
q0 -51 -10.5 -83.5t-26 -53.5t-34 -34.5t-34 -27t-26 -30.5t-10.5 -45q0 -41 24.5 -54.5t62.5 -13.5q23 0 42.5 3t33.5 8q16 5 29 12q25 -18 36.5 -46t9.5 -61q-21 -10 -47 -18q-23 -7 -54.5 -12.5t-72.5 -5.5q-45 0 -85.5 8.5t-70.5 29.5t-48 55.5t-18 85.5z" />
    <glyph glyph-name="quotedbl" unicode="&#x22;" horiz-adv-x="394" 
d="M38 712q7 2 18 4q9 2 22 3t32 1q17 0 30.5 -1t23.5 -3q11 -2 19 -4l-23 -219q-6 -2 -13 -4q-12 -3 -37 -3t-37 3q-7 2 -12 4zM211 712q7 2 18 4q9 2 22.5 3t32.5 1q17 0 30.5 -1t22.5 -3q11 -2 19 -4l-23 -219q-6 -2 -13 -4q-12 -3 -36 -3q-25 0 -37 3q-7 2 -13 4z" />
    <glyph glyph-name="quotedblbase" unicode="&#x201e;" horiz-adv-x="441" 
d="M61 -110q10 12 18 29q7 14 13 34.5t8 46.5q-12 1 -21 2t-16 3q-8 2 -13 3v143q8 2 19 4q10 2 24 3t34 1q18 0 32 -1t24 -3l21 -4v-103q0 -48 -13.5 -84.5t-30.5 -61.5q-19 -29 -44 -50zM248 -110q9 12 17 29q7 14 13 34.5t8 46.5q-22 1 -36 5q-8 2 -13 3v143q8 2 19 4
q10 2 24 3t34 1q18 0 32 -1t24 -3l21 -4v-103q0 -48 -13.5 -84.5t-30.5 -61.5q-19 -29 -44 -50z" />
    <glyph glyph-name="quotedblleft" unicode="&#x201c;" horiz-adv-x="432" 
d="M188 683q-10 -12 -18 -29q-7 -14 -13 -35t-8 -47q11 -1 20.5 -2t16.5 -2q8 -2 13 -3v-143q-8 -2 -19 -4q-10 -2 -24.5 -3t-33.5 -1q-18 0 -32.5 1t-24.5 3q-11 2 -20 4v103q0 48 13.5 84t30.5 61q19 29 44 50zM374 683q-10 -12 -18 -29q-7 -14 -13 -35t-8 -47
q11 -1 20.5 -2t16.5 -2q8 -2 14 -3v-143q-8 -2 -19 -4q-10 -2 -24.5 -3t-33.5 -1q-18 0 -32.5 1t-24.5 3q-11 2 -20 4v103q0 48 13.5 84t30.5 61q19 29 44 50z" />
    <glyph glyph-name="quotedblright" unicode="&#x201d;" horiz-adv-x="422" 
d="M54 451q10 12 18 29q7 14 13 34.5t8 46.5q-12 1 -21 2t-16 3q-8 2 -13 3v143q8 2 19 4q10 2 24 3t34 1q18 0 32 -1t24 -3l21 -4v-103q0 -48 -13.5 -84t-30.5 -61q-19 -29 -44 -50zM241 451q9 12 17 29q7 14 13 34.5t8 46.5q-22 1 -36 5q-8 2 -13 3v143q8 2 19 4
q10 2 24 3t34 1q18 0 32 -1t24 -3l21 -4v-103q0 -48 -13.5 -84t-30.5 -61q-19 -29 -44 -50z" />
    <glyph glyph-name="quoteleft" unicode="&#x2018;" horiz-adv-x="244" 
d="M187 683q-10 -12 -18 -29q-7 -14 -13 -35t-8 -47q11 -1 20.5 -2t16.5 -2q8 -2 13 -3v-143q-8 -2 -19 -4q-10 -2 -24.5 -3t-33.5 -1q-18 0 -32.5 1t-24.5 3q-11 2 -20 4v103q0 48 13.5 84t30.5 61q19 29 44 50z" />
    <glyph glyph-name="quoteright" unicode="&#x2019;" horiz-adv-x="235" 
d="M54 451q10 12 18 29q7 14 13 34.5t8 46.5q-12 1 -21 2t-16 3q-8 2 -13 3v143q8 2 19 4q10 2 24 3t34 1q18 0 32 -1t24 -3l21 -4v-103q0 -48 -13.5 -84t-30.5 -61q-19 -29 -44 -50z" />
    <glyph glyph-name="quotesinglbase" unicode="&#x201a;" horiz-adv-x="254" 
d="M61 -110q10 12 18 29q7 14 13 34.5t8 46.5q-12 1 -21 2t-16 3q-8 2 -13 3v143q8 2 19 4q10 2 24 3t34 1q18 0 32 -1t24 -3l21 -4v-103q0 -48 -13.5 -84.5t-30.5 -61.5q-19 -29 -44 -50z" />
    <glyph glyph-name="quotesingle" unicode="'" horiz-adv-x="222" 
d="M39 712q7 2 18 4q9 2 22 3t32 1q17 0 30.5 -1t23.5 -3q11 -2 19 -4l-23 -219q-6 -2 -13 -4q-14 -3 -37 -3q-25 0 -37 3q-8 2 -13 4z" />
    <glyph glyph-name="r" unicode="r" horiz-adv-x="406" 
d="M202 469q26 39 56.5 54.5t59.5 15.5q23 0 44 -6.5t44 -21.5q-3 -40 -19.5 -69t-45.5 -55q-23 20 -52 20q-46 0 -81 -46v-353l-21 -4q-10 -2 -24 -3t-32 -1q-20 0 -34 1t-24 3q-11 2 -19 4v514q8 2 19 4q10 2 24 3t34 1q19 0 31.5 -1t20.5 -3q9 -2 15 -4l4 -53v0z" />
    <glyph glyph-name="racute" unicode="&#x155;" horiz-adv-x="406" 
d="M213 786q18 2 38 -1t38 -10t32.5 -17.5t22.5 -23.5l-136 -139q-26 5 -49 15t-37 29zM208 467q52 72 110 72q23 0 44 -6.5t44 -21.5q-3 -40 -19.5 -69t-45.5 -55q-23 20 -52 20q-45 0 -81 -45v-354l-21 -4q-10 -2 -24 -3t-32 -1q-20 0 -34 1t-24 3q-11 2 -19 4v514
q8 2 19 4q10 2 24 3t34 1q19 0 33 -1t24 -3q11 -2 20 -4v-55z" />
    <glyph glyph-name="radical" unicode="&#x221a;" horiz-adv-x="653" 
d="M140 317l-89 -39q-18 14 -30 39t-10 54l203 89l129 -298l195 568q29 4 59.5 -3t50.5 -24l-242 -718h-118z" />
    <glyph glyph-name="rcaron" unicode="&#x159;" horiz-adv-x="406" 
d="M307 775q20 -8 36 -24.5t26 -36.5l-142 -122h-33l-144 122q10 20 26 37t37 25l97 -62zM208 467q52 72 110 72q23 0 44 -6.5t44 -21.5q-3 -40 -19.5 -69t-45.5 -55q-23 20 -52 20q-45 0 -81 -45v-354l-21 -4q-10 -2 -24 -3t-32 -1q-20 0 -34 1t-24 3q-11 2 -19 4v514
q8 2 19 4q10 2 24 3t34 1q19 0 33 -1t24 -3q11 -2 20 -4v-55z" />
    <glyph glyph-name="rcommaaccent" unicode="&#x157;" horiz-adv-x="407" 
d="M209 467q52 72 110 72q23 0 44 -6.5t44 -21.5q-3 -40 -19.5 -69t-45.5 -55q-23 20 -52 20q-45 0 -81 -45v-354l-21 -4q-10 -2 -24 -3t-32 -1q-20 0 -34 1t-24 3q-11 2 -19 4v514q8 2 19 4q10 2 24 3t34 1q19 0 33 -1t24 -3q11 -2 20 -4v-55zM56 -48q9 2 20 4q10 2 24 3
t33 1q18 0 32 -1t24 -3l21 -4v-103q0 -48 -13.5 -84.5t-30.5 -61.5q-19 -29 -44 -50l-55 38q9 12 17 29q7 14 13 34.5t8 46.5q-22 1 -36 5q-8 2 -13 3v143z" />
    <glyph glyph-name="registered" unicode="&#xae;" horiz-adv-x="534" 
d="M267 248q-46 0 -86.5 17.5t-71 48t-48 71t-17.5 86.5t17.5 86.5t48 71t71 48t86.5 17.5t86.5 -17.5t71 -48t48 -71t17.5 -86.5t-17.5 -86.5t-48 -71t-71 -48t-86.5 -17.5zM267 634q-34 0 -63.5 -12.5t-52 -34.5t-35.5 -52t-13 -64t13 -64t35.5 -52t52 -35t63.5 -13t64 13
t52 35t34.5 52t12.5 64t-12.5 64t-34.5 52t-52 34.5t-64 12.5zM285 589q36 0 58 -19.5t22 -51.5q0 -23 -11.5 -40t-32.5 -25l54 -84l-10 -4t-11 -3t-14 -1q-11 0 -21 2q-4 1 -8 3l-54 81h-12v-81q-5 -2 -9 -3q-10 -2 -21 -2q-8 0 -13 0.5t-9 1.5t-8 3v223h100zM276 495
q27 0 27 23q0 24 -27 24h-31v-47h31z" />
    <glyph glyph-name="ring" unicode="&#x2da;" horiz-adv-x="344" 
d="M170 483q-60 0 -100 34.5t-40 97.5q0 32 12 56t31.5 40.5t45 24.5t52.5 8q26 0 51.5 -8t45.5 -24t32.5 -40.5t12.5 -56.5t-11.5 -56.5t-31 -41.5t-45.5 -25.5t-55 -8.5zM222 615q0 19 -13 34t-39 15t-38.5 -15.5t-12.5 -33.5q0 -19 12.5 -34t38.5 -15t39 15.5t13 33.5z
" />
    <glyph glyph-name="s" unicode="s" horiz-adv-x="452" 
d="M37 371q0 78 49 123t153 45q42 0 72 -5t50 -11q24 -7 40 -15q1 -28 -7 -56t-28 -47q-15 4 -33 8q-15 3 -35.5 5.5t-42.5 2.5q-40 0 -57.5 -11.5t-17.5 -32.5q0 -13 10.5 -21.5t28 -14.5t39.5 -12t45 -14q22 -8 44 -19.5t39 -29.5t27.5 -43.5t10.5 -61.5q0 -81 -50 -126
t-157 -45q-44 0 -78.5 6t-57.5 14q-28 9 -48 20q0 67 37 105q19 -7 41 -12q19 -5 42.5 -8t49.5 -3q39 0 56 11t17 33q0 13 -9 22t-23.5 15.5t-33.5 12t-40 12.5q-24 7 -48 18t-42.5 28t-30.5 43t-12 64z" />
    <glyph glyph-name="sacute" unicode="&#x15b;" horiz-adv-x="451" 
d="M218 595q-26 5 -49 15t-37 29l91 147q18 2 38 -1t38 -10t32.5 -17.5t22.5 -23.5zM37 372q0 78 49 123t152 45q42 0 72.5 -5t50.5 -11q24 -7 39 -15q2 -28 -6.5 -56t-27.5 -47q-16 4 -34 8q-16 3 -35.5 5.5t-42.5 2.5q-39 0 -56.5 -11.5t-17.5 -32.5q0 -12 9.5 -20.5
t25 -14.5t35.5 -11.5t42 -12.5q24 -8 47.5 -19.5t42 -29.5t30.5 -44.5t12 -64.5q0 -81 -50 -126t-157 -45q-44 0 -78.5 6t-57.5 14q-28 9 -48 20q0 67 37 105q18 -7 40 -12q18 -5 42 -8t50 -3q40 0 57 11t17 33q0 13 -8.5 22t-23 16t-33.5 12t-39 11q-24 7 -48 18
t-43.5 28.5t-31.5 43.5t-12 65z" />
    <glyph glyph-name="scaron" unicode="&#x161;" horiz-adv-x="452" 
d="M73 713q10 20 26 36t36 24l96 -60l96 60q20 -8 35.5 -24t25.5 -36l-140 -120h-33zM37 372q0 78 49 123t152 45q42 0 72.5 -5t50.5 -11q24 -7 40 -15q1 -28 -7 -56t-28 -47q-15 4 -33 8q-15 3 -35.5 5.5t-42.5 2.5q-40 0 -57.5 -11.5t-17.5 -32.5q0 -12 9.5 -20t25 -14
t35.5 -11.5t41 -12.5q24 -8 48 -19.5t42.5 -30t30.5 -45t12 -64.5q0 -81 -50 -126t-157 -45q-44 0 -78.5 6t-57.5 14q-28 9 -48 20q0 67 37 105q18 -7 40 -12q18 -5 42 -8t50 -3q40 0 57 11t17 33q0 13 -8.5 22t-22.5 15.5t-32 11.5l-38 11q-24 8 -49 18.5t-44.5 28t-32 44
t-12.5 65.5z" />
    <glyph glyph-name="scedilla" unicode="&#x15f;" horiz-adv-x="452" 
d="M37 372q0 78 49 123t152 45q42 0 72.5 -5t50.5 -11q24 -7 39 -15q2 -28 -6.5 -56t-27.5 -47q-16 4 -34 8q-16 3 -35.5 5.5t-42.5 2.5q-39 0 -56.5 -11.5t-17.5 -32.5q0 -12 10 -20.5t26 -15t36.5 -12t42.5 -12.5q24 -8 47 -19.5t41 -29.5t29.5 -44.5t11.5 -63.5
q0 -73 -40.5 -117t-126.5 -52l-11 -49q57 0 79.5 -27t22.5 -68q0 -50 -34.5 -74.5t-92.5 -24.5q-26 0 -45 3t-32 8q-15 5 -26 12q-1 15 6 31.5t18 24.5q11 -5 29 -9t35 -4q23 -1 41 7t18 30q0 15 -10 24.5t-32 9.5h-52l-13 15l18 91q-35 2 -61.5 8.5t-44.5 13.5
q-21 8 -37 16q0 67 37 105q18 -7 40 -12q18 -5 42 -8t50 -3q40 0 57 11t17 33q0 13 -8.5 22t-22.5 15.5t-32 11.5l-38 11q-24 7 -49 18t-44.5 28.5t-32 44t-12.5 65.5z" />
    <glyph glyph-name="scircumflex" unicode="&#x15d;" horiz-adv-x="451" 
d="M405 647q-11 -22 -28 -39.5t-39 -25.5l-104 65l-104 -64q-22 8 -38.5 25t-27.5 39l152 129h35zM37 372q0 78 49 123t152 45q42 0 72.5 -5t50.5 -11q24 -7 39 -15q2 -28 -6.5 -56t-27.5 -47q-16 4 -34 8q-16 3 -35.5 5.5t-42.5 2.5q-39 0 -56.5 -11.5t-17.5 -32.5
q0 -13 11 -21.5t29 -15t41 -12.5t46 -15q22 -8 43 -20t37.5 -29.5t26.5 -43t10 -60.5q0 -81 -50 -126t-157 -45q-44 0 -78.5 6t-57.5 14q-28 9 -48 20q0 67 37 105q18 -7 40 -12q18 -5 42 -8t50 -3q40 0 57 11t17 33q0 13 -8 22t-22 15.5t-32 11.5l-38 11q-24 7 -49 18
t-45 28.5t-32.5 44t-12.5 65.5z" />
    <glyph glyph-name="scommaaccent" unicode="&#x219;" horiz-adv-x="452" 
d="M37 372q0 78 49.5 123t152.5 45q42 0 72.5 -5t50.5 -11q24 -7 39 -15q1 -28 -7 -56t-28 -47q-15 4 -33 8q-15 3 -35 5.5t-43 2.5q-39 0 -56.5 -11.5t-17.5 -32.5q0 -13 10 -21t26 -14.5t37 -12t43 -12.5q24 -8 46.5 -19.5t40.5 -29.5t29 -44.5t11 -63.5q0 -81 -50 -126
t-156 -45q-44 0 -78 6t-58 14q-28 9 -49 20q0 67 37 105q19 -7 41 -12q19 -5 42.5 -8t49.5 -3q39 0 56 11t17 33q0 13 -8.5 22t-22.5 15.5t-32 12l-38 11.5q-24 7 -49 17.5t-44.5 28t-32 44t-12.5 65.5zM159 -309q10 12 18 29q7 14 13 34.5t8 46.5q-12 1 -21 2t-16 3
q-8 2 -13 3v143q9 2 20 4q10 2 24 3t33 1q18 0 32 -1t24 -3l21 -4v-103q0 -48 -13.5 -84.5t-30.5 -61.5q-19 -29 -44 -50z" />
    <glyph glyph-name="section" unicode="&#xa7;" horiz-adv-x="487" 
d="M301 141q0 18 -19 27t-47 15.5l-61.5 14t-61.5 22t-47 39t-19 66.5q0 37 16.5 64t37.5 46q-20 17 -32 41.5t-12 65.5q0 75 54.5 111.5t142.5 36.5q43 0 82.5 -7t73.5 -19q1 -24 -7 -50.5t-25 -43.5q-16 4 -41 8t-51 6q-18 1 -35 -0.5t-29.5 -7t-20.5 -14.5t-8 -23
q0 -18 18.5 -27t45.5 -15.5t59.5 -13t59.5 -21t45.5 -39.5t18.5 -68q0 -35 -16 -60.5t-36 -42.5q25 -17 41.5 -44.5t16.5 -72.5q0 -39 -17.5 -66.5t-47 -45t-69 -25.5t-83.5 -8q-37 0 -69 4.5t-56 10.5q-28 6 -52 15q-3 26 4.5 53t28.5 44q20 -6 54 -12t69 -7q37 -1 65.5 8
t28.5 35zM192 395q-17 -22 -17 -46q0 -16 10.5 -25.5t27.5 -15.5t38.5 -10.5t42.5 -10.5q15 19 15 45q0 16 -10.5 25.5t-27 15.5t-37.5 11t-42 11z" />
    <glyph glyph-name="semicolon" unicode=";" horiz-adv-x="262" 
d="M208 375q-9 -2 -20 -4q-10 -2 -24 -3t-33 -1q-20 0 -34 1t-24 3q-11 2 -19 4v143q8 2 19 4q10 2 24 3t34 1q19 0 33 -1t24 -3q11 -2 20 -4v-143zM65 -110q10 12 18 29q7 14 13 34.5t8 46.5q-12 1 -21 2t-16 3q-8 2 -13 3v143q8 2 19 4q10 2 24 3t34 1q18 0 32 -1t24 -3
l21 -4v-103q0 -48 -13.5 -84.5t-30.5 -61.5q-19 -29 -44 -50z" />
    <glyph glyph-name="seven" unicode="7" horiz-adv-x="502" 
d="M474 684q5 -20 6.5 -39.5t0.5 -39.5q-2 -58 -20.5 -103.5t-45 -86.5t-57 -81.5t-56.5 -88t-43 -105.5t-17 -134q-14 -3 -33.5 -4.5t-40.5 -1.5t-41 1.5t-34 4.5q0 79 14 139.5t36.5 108.5t49.5 86.5l52.5 73t47.5 68t33 72.5h-292q-3 7 -5 18q-2 8 -3 20.5t-1 27.5t1 27
t3 20q2 10 5 17h440z" />
    <glyph glyph-name="seven.denom" horiz-adv-x="286" 
d="M23 259q-5 22 -5 42q0 11 1 21t4 21h245q1 -7 2 -13l2 -12.5t1 -14.5q0 -31 -10 -55t-24 -45.5t-30.5 -41.5t-30.5 -43t-23 -50.5t-8 -63.5q-12 -2 -24.5 -3t-26.5 -1q-13 0 -25.5 1t-23.5 3q1 56 13 91.5t29.5 62t37.5 49t35 52.5h-139z" />
    <glyph glyph-name="seven.num" horiz-adv-x="286" 
d="M268 689q3 -10 4 -20t1 -20q0 -31 -10 -55t-24 -45.5t-30.5 -41.5t-30.5 -43t-23 -50.5t-8 -63.5q-23 -4 -50.5 -4.5t-49.5 4.5q1 56 13 91.5t29.5 62t37.5 49t35 52.5h-139q-11 41 0 84h245z" />
    <glyph glyph-name="seveneighths" unicode="&#x215e;" horiz-adv-x="697" 
d="M444 695q6 1 14 3q7 2 17.5 3t25.5 1q14 0 25 -1t19 -3q9 -2 14 -3l-386 -698q-7 -2 -16 -4q-15 -3 -42 -3q-25 0 -40 3q-9 2 -16 4zM282 689q1 -7 2 -13l2 -12.5t1 -14.5q0 -31 -10 -55t-24 -45.5t-30.5 -41.5t-30.5 -43t-23.5 -50.5t-8.5 -63.5q-22 -4 -49.5 -4.5
t-49.5 4.5q1 56 13 91.5t29.5 62t37.5 49t35 52.5h-139q-11 41 0 84h245zM405 253q0 45 33 70t96 25q60 0 92.5 -23.5t32.5 -65.5q0 -26 -12 -45.5t-30 -31.5q24 -13 39.5 -33.5t15.5 -52.5q0 -48 -35 -74.5t-104 -26.5q-65 0 -101 24t-36 72q0 29 15 49.5t39 32.5
q-21 12 -33 31.5t-12 48.5zM568 252q0 28 -34 28q-16 0 -24 -7t-8 -18q0 -14 14.5 -23.5t35.5 -16.5q16 13 16 37zM575 95q0 18 -19.5 27.5t-40.5 18.5q-7 -6 -12 -12q-5 -5 -8.5 -13t-3.5 -17q0 -33 44 -33q18 0 29 7.5t11 21.5z" />
    <glyph glyph-name="seveninferior" unicode="&#x2087;" horiz-adv-x="288" 
d="M25 163q-11 41 0 84h245q1 -7 2 -13l2 -12.5t1 -14.5q0 -31 -10.5 -55t-26.5 -45.5t-34 -41.5t-33 -42.5t-24.5 -50.5t-7.5 -64q-23 -4 -50.5 -4.5t-49.5 4.5q1 57 14.5 92.5t33 61.5t41 48.5t36.5 52.5h-139z" />
    <glyph glyph-name="six" unicode="6" horiz-adv-x="553" 
d="M445 684q10 -26 10 -60.5t-10 -60.5q-91 -10 -144.5 -44t-77.5 -103q19 5 39.5 8t46.5 3q45 0 84 -12.5t68 -39.5t45.5 -69t16.5 -101q0 -112 -64.5 -163.5t-176.5 -51.5q-111 0 -175.5 64.5t-64.5 204.5q0 102 27 179.5t79 130t126.5 81t170.5 34.5zM365 205
q0 60 -24 83t-62 23q-23 0 -43.5 -4.5t-35.5 -9.5q-1 -10 -1 -20.5v-21.5q0 -86 22.5 -118.5t60.5 -32.5t60.5 23.5t22.5 77.5z" />
    <glyph glyph-name="six.denom" horiz-adv-x="314" 
d="M25 134q0 52 15.5 90.5t44 64t70 39.5t92.5 18q8 -15 8 -37.5t-8 -36.5q-30 -2 -59 -13.5t-45 -42.5q15 3 35 3q23 0 44 -6t37 -19t25.5 -34t9.5 -51q0 -57 -35.5 -85.5t-98.5 -28.5q-64 0 -99.5 33.5t-35.5 105.5zM193 109q0 22 -9.5 31.5t-24.5 9.5q-8 0 -16.5 -1
t-15.5 -2q-3 -81 33 -81q15 0 24 10.5t9 32.5z" />
    <glyph glyph-name="six.num" horiz-adv-x="314" 
d="M25 480q0 52 15.5 90.5t44 64t70 39.5t92.5 18q8 -14 8 -36t-8 -38q-30 -2 -59 -13.5t-45 -42.5q15 3 35 3q23 0 44 -6t37 -19t25.5 -34t9.5 -51q0 -57 -35.5 -85.5t-98.5 -28.5q-64 0 -99.5 33.5t-35.5 105.5zM193 455q0 22 -9.5 31.5t-24.5 9.5q-8 0 -16.5 -1t-15.5 -2
q-1 -81 33 -81q15 0 24 10.5t9 32.5z" />
    <glyph glyph-name="sixinferior" unicode="&#x2086;" horiz-adv-x="314" 
d="M25 38q0 52 15.5 90.5t44 64t70 39.5t92.5 18q8 -14 8 -36t-8 -38q-30 -2 -59 -13.5t-45 -42.5q15 3 35 3q23 0 44 -6t37 -19t25.5 -34t9.5 -51q0 -57 -35.5 -85.5t-98.5 -28.5q-64 0 -99.5 33.5t-35.5 105.5zM193 13q0 22 -9.5 31.5t-24.5 9.5q-8 0 -16.5 -1t-15.5 -2
q-1 -81 33 -81q15 0 24 10.5t9 32.5z" />
    <glyph glyph-name="slash" unicode="/" horiz-adv-x="524" 
d="M351 741q9 2 21 4q10 2 24.5 3.5t31.5 1.5q18 0 32 -1.5t25 -3.5q12 -2 22 -4l-333 -779q-10 -3 -21 -5t-25 -3t-31 -1q-18 0 -32.5 1t-25.5 3q-12 2 -21 5z" />
    <glyph glyph-name="space" unicode=" " horiz-adv-x="197" 
 />
    <glyph glyph-name="sterling" unicode="&#xa3;" horiz-adv-x="541" 
d="M276 284q3 -38 -8.5 -76.5t-52.5 -76.5h279q2 -8 4 -18q2 -8 3.5 -20t1.5 -27t-1.5 -27t-3.5 -21q-2 -11 -4 -18h-436v131q46 46 60 82.5t10 70.5h-80q-2 6 -4 15q-2 7 -3 17t-1 22t1 21.5t3 16.5q2 8 4 14h53q-8 24 -13 51t-5 60q0 51 18 87t49 59t72.5 33.5t88.5 10.5
q60 0 104 -10.5t81 -26.5q2 -32 -10 -59.5t-33 -46.5q-25 9 -54.5 15t-57.5 7q-21 0 -39 -4.5t-31.5 -14.5t-21.5 -26.5t-8 -41.5q0 -24 4.5 -47t10.5 -46h173q1 -6 3 -14q2 -7 3 -16t1 -21t-1 -22t-3 -18l-3 -15h-153z" />
    <glyph glyph-name="summation" unicode="&#x2211;" horiz-adv-x="615" 
d="M251 261l-210 377v56h528q2 -7 4 -17q2 -8 3.5 -19t1.5 -25q0 -13 -1.5 -23.5t-3.5 -18.5q-2 -10 -4 -17h-338l177 -315l-190 -343h357q2 -8 4 -18q2 -8 3.5 -19t1.5 -25q0 -13 -1.5 -24t-3.5 -19q-2 -10 -4 -18h-551v61z" />
    <glyph glyph-name="t" unicode="t" horiz-adv-x="392" 
d="M246 193q0 -52 20.5 -68.5t60.5 -16.5q8 0 14.5 0.5t12.5 1.5t13 2q3 -7 6 -16q2 -8 4 -19.5t2 -25.5q0 -12 -1 -21t-3 -16q-2 -8 -3 -13q-22 -6 -44.5 -8.5t-45.5 -2.5q-102 0 -146 47t-44 152v227h-72q-2 7 -4 15q-3 13 -3 39q0 28 3 42q2 8 4 14h72v89q29 16 71 22.5
t83 2.5v-114h108q1 -6 3 -14q2 -7 3 -17.5t1 -23.5q0 -12 -1 -22t-3 -18l-3 -15h-108v-223z" />
    <glyph glyph-name="tbar" unicode="&#x167;" horiz-adv-x="394" 
d="M329 108q7 0 14 0.5t13 1.5q7 1 13 2q2 -7 5 -16q2 -8 4 -19.5t2 -25.5q0 -12 -1 -21t-3 -16q-2 -8 -3 -13q-21 -6 -44 -8.5t-46 -2.5q-101 0 -145 47.5t-44 151.5v48h-63q-6 23 -6 46t6 42h63v91h-73q-2 7 -4 15q-3 13 -3 39q0 28 3 42q2 8 4 14h73v89q29 16 71 22.5
t83 2.5v-114h107q1 -6 3 -14q2 -7 3 -17.5t1 -23.5q0 -12 -1 -22t-3 -18l-3 -15h-107v-91h97q7 -20 6.5 -44t-6.5 -44h-97v-44q0 -52 20 -68.5t61 -16.5z" />
    <glyph glyph-name="tcaron" unicode="&#x165;" horiz-adv-x="392" 
d="M345 571q-20 2 -38 12t-27 25q16 16 27.5 31.5t18.5 31.5t10.5 35t4.5 43q35 2 67 -4t52 -23q-11 -54 -42 -95.5t-73 -55.5zM247 193q0 -52 20 -68.5t61 -16.5q7 0 14 0.5t13 1.5q7 1 13 2q2 -7 5 -16q2 -8 4 -19.5t2 -25.5q0 -12 -1 -21t-3 -16q-2 -8 -3 -13
q-21 -6 -44 -8.5t-46 -2.5q-101 0 -145 47.5t-44 151.5v227h-73q-2 7 -4 15q-3 13 -3 39q0 28 3 42q2 8 4 14h73v89q29 16 71 22.5t83 2.5v-114h107q1 -6 3 -14q2 -7 3 -17.5t1 -23.5q0 -12 -1 -22t-3 -18l-3 -15h-107v-223z" />
    <glyph glyph-name="thorn" unicode="&#xfe;" horiz-adv-x="561" 
d="M55 746q9 2 20 4q10 2 24 3t33 1q18 0 32.5 -1t24.5 -3q11 -2 20 -4v-257q21 25 53 38t77 13q40 0 74 -13.5t59 -46t38.5 -85t13.5 -130.5q0 -77 -13.5 -129.5t-38 -85t-58.5 -46.5t-76 -14q-45 0 -76.5 13t-52.5 38v-257q-9 -2 -20 -4q-10 -2 -24.5 -3t-32.5 -1
q-19 0 -33 1t-24 3q-11 2 -20 4v962zM362 265q0 47 -5 77t-15 47t-25 23.5t-35 6.5q-33 0 -52.5 -24t-20.5 -64v-127q0 -38 18.5 -66t54.5 -28q19 0 33.5 6t25 22.5t16 47t5.5 79.5z" />
    <glyph glyph-name="three" unicode="3" horiz-adv-x="533" 
d="M491 188q0 -47 -15 -84t-47 -62.5t-83.5 -38.5t-123.5 -13q-45 0 -80.5 5.5t-59.5 12.5q-28 8 -49 19q-1 29 10 60t28 49q21 -6 44 -10q20 -4 45 -7t53 -3q63 0 91.5 20t28.5 71q0 46 -23.5 68t-81.5 22h-91q-10 27 -10 59.5t10 58.5h91q48 0 66.5 21t18.5 55
q0 43 -25.5 61.5t-75.5 18.5q-28 0 -50.5 -3t-39.5 -7q-19 -4 -34 -10q-23 17 -36 45.5t-11 59.5q22 10 51 19q25 7 59 13t76 6q112 0 177 -46t65 -139q0 -50 -19.5 -88.5t-66.5 -60.5q55 -22 81.5 -65.5t26.5 -106.5z" />
    <glyph glyph-name="three.denom" horiz-adv-x="302" 
d="M277 97q0 -47 -32 -74.5t-114 -27.5q-27 0 -47.5 3t-34.5 8q-17 4 -29 11q0 17 6.5 36t18.5 30l21 -6q22 -5 50 -5q58 0 58 36q0 18 -10.5 26t-36.5 8h-48q-6 17 -6 37t6 37h48q21 0 29 6.5t8 19.5q0 30 -46 30q-14 0 -25.5 -1.5t-20.5 -3.5q-11 -2 -20 -4q-11 10 -18 28
t-7 38q13 5 30 9q14 4 33 7t42 3q67 0 101 -24t34 -69q0 -53 -44 -74q24 -10 39 -30t15 -54z" />
    <glyph glyph-name="three.num" horiz-adv-x="302" 
d="M277 443q0 -47 -32 -74.5t-114 -27.5q-27 0 -47.5 3t-34.5 8q-17 4 -29 11q0 17 6.5 36t18.5 30l21 -6q22 -5 50 -5q58 0 58 36q0 18 -10.5 26t-36.5 8h-48q-6 17 -6 37t6 37h48q21 0 29 6.5t8 19.5q0 30 -46 30q-14 0 -25.5 -1.5t-20.5 -3.5q-11 -2 -20 -4
q-11 10 -18 28t-7 38q13 5 30 9q14 4 33 7t42 3q67 0 101 -24t34 -69q0 -53 -44 -74q24 -10 39 -30t15 -54z" />
    <glyph glyph-name="threeeighths" unicode="&#x215c;" horiz-adv-x="771" 
d="M518 695q6 1 14 3q7 2 17.5 3t25.5 1q14 0 25 -1t19 -3q9 -2 14 -3l-386 -698q-7 -2 -16 -4q-15 -3 -42 -3q-25 0 -40 3q-9 2 -16 4zM36 675q13 5 30 9q14 4 33 7t42 3q67 0 101 -24t34 -69q0 -53 -44 -74q24 -10 39 -30t15 -54q0 -47 -32 -74.5t-114 -27.5
q-27 0 -47.5 3t-34.5 8q-17 4 -29 11q0 17 6.5 36t18.5 30l21 -6q22 -5 50 -5q58 0 58 36q0 18 -10.5 26t-36.5 8h-48q-6 17 -6 37t6 37h48q21 0 29 6.5t8 19.5q0 30 -46 30q-14 0 -25.5 -1.5t-20.5 -3.5q-11 -2 -20 -4q-11 10 -18 28t-7 38zM479 253q0 45 33 70t96 25
q60 0 92.5 -23.5t32.5 -65.5q0 -26 -12 -45.5t-30 -31.5q24 -13 39.5 -33.5t15.5 -52.5q0 -48 -35 -74.5t-104 -26.5q-65 0 -101 24t-36 72q0 29 15 49.5t39 32.5q-21 12 -33 31.5t-12 48.5zM642 252q0 28 -34 28q-16 0 -24 -7t-8 -18q0 -14 14.5 -23.5t35.5 -16.5
q16 13 16 37zM649 95q0 18 -19.5 27.5t-40.5 18.5q-7 -6 -12 -12q-5 -5 -8.5 -13t-3.5 -17q0 -33 44 -33q18 0 29 7.5t11 21.5z" />
    <glyph glyph-name="threeinferior" unicode="&#x2083;" horiz-adv-x="302" 
d="M277 1q0 -47 -32 -74.5t-114 -27.5q-27 0 -47.5 3t-34.5 8q-17 4 -29 11q0 17 6.5 36t18.5 30l21 -6q22 -5 50 -5q58 0 58 36q0 18 -10.5 26t-36.5 8h-48q-6 17 -6 37t6 37h48q21 0 29 6.5t8 19.5q0 30 -46 30q-14 0 -25.5 -1.5t-20.5 -3.5q-11 -2 -20 -4q-11 10 -18 28
t-7 38q13 5 30 9q14 4 33 7t42 3q67 0 101 -24t34 -69q0 -53 -44 -74q24 -10 39 -30t15 -54z" />
    <glyph glyph-name="threequarters" unicode="&#xbe;" horiz-adv-x="723" 
d="M519 695q6 1 14 3q7 2 17.5 3t25.5 1q14 0 25 -1t19 -3q9 -2 14 -3l-386 -698q-7 -2 -16 -4q-15 -3 -42 -3q-25 0 -40 3q-9 2 -16 4zM37 675q13 5 30 9q14 4 33 7t42 3q67 0 101 -24t34 -69q0 -53 -44 -74q24 -10 39 -30t15 -54q0 -47 -32 -74.5t-114 -27.5
q-27 0 -47.5 3t-34.5 8q-17 4 -29 11q0 17 6.5 36t18.5 30l21 -6q22 -5 50 -5q58 0 58 36q0 18 -10.5 26t-36.5 8h-48q-6 17 -6 37t6 37h48q21 0 29 6.5t8 19.5q0 30 -46 30q-14 0 -25.5 -1.5t-20.5 -3.5q-11 -2 -20 -4q-11 10 -18 28t-7 38zM562 337q22 6 48 6t47 -6v-195
h37q3 -10 4 -18.5t1 -17.5t-1.5 -17t-3.5 -17h-37v-67q-13 -3 -25 -4t-20 -1t-20 1t-24 4v67h-161q-5 18 -5 34q0 17 4 30zM568 142v88l-67 -88h67z" />
    <glyph glyph-name="threesuperior" unicode="&#xb3;" horiz-adv-x="302" 
d="M277 443q0 -47 -32 -74.5t-114 -27.5q-27 0 -47.5 3t-34.5 8q-17 4 -29 11q0 17 6.5 36t18.5 30l21 -6q22 -5 50 -5q58 0 58 36q0 18 -10.5 26t-36.5 8h-48q-6 17 -6 37t6 37h48q21 0 29 6.5t8 19.5q0 30 -46 30q-14 0 -25.5 -1.5t-20.5 -3.5q-11 -2 -20 -4
q-11 10 -18 28t-7 38q13 5 30 9q14 4 33 7t42 3q67 0 101 -24t34 -69q0 -53 -44 -74q24 -10 39 -30t15 -54z" />
    <glyph glyph-name="tilde" unicode="&#x2dc;" horiz-adv-x="327" 
d="M228 714q13 0 22.5 4t16.5 9q8 5 13 13q22 -11 35.5 -32.5t15.5 -43.5q-12 -15 -27 -26q-14 -10 -32.5 -17.5t-43.5 -7.5q-24 0 -40.5 5t-29.5 11t-26.5 11t-31.5 5q-13 0 -22.5 -4t-16.5 -9q-8 -6 -14 -13q-46 24 -51 76q12 14 28 25q14 10 33 18t43 8t40 -5t29.5 -11
t27 -11t31.5 -5z" />
    <glyph glyph-name="trademark" unicode="&#x2122;" horiz-adv-x="610" 
d="M242 720q2 -5 3 -12t1 -14q0 -6 -1 -13t-3 -12h-74v-233q-5 -1 -9 -2q-5 -1 -10 -1.5t-13 -0.5t-13.5 0.5t-9.5 1.5l-8 2v233h-76q-2 5 -3 11.5t-1 12.5q0 16 4 27h213zM275 716q5 1 16 2.5t23 1.5q26 0 38 -4l32 -73q11 -26 18 -46t9 -30q4 12 11.5 30.5l16.5 39.5
l31 79l12 2q5 1 12.5 1.5t15.5 0.5t16 -0.5t14 -1.5q7 -1 12 -2v-280l-8 -2q-10 -2 -22 -2q-14 0 -24 2q-5 1 -8 2v108v57t2 39q-5 -16 -11 -31.5t-11 -26.5l-32 -74q-3 -1 -7 -2q-10 -2 -21 -2t-21 2q-4 1 -7 2l-32 83q-8 15 -12 26t-9 23q2 -15 2.5 -36.5t0.5 -59.5v-108
l-8 -2q-10 -2 -21 -2q-7 0 -11.5 0.5t-8.5 1.5l-8 2v280z" />
    <glyph glyph-name="two" unicode="2" horiz-adv-x="540" 
d="M99 543q-23 17 -34.5 47t-9.5 62q26 11 58 21q27 8 64.5 14.5t83.5 6.5q53 0 96.5 -12t75 -36t49 -61t17.5 -87q0 -45 -12 -79t-35 -61.5t-56.5 -51.5t-77.5 -50q-20 -12 -41 -23t-39 -23t-30.5 -27t-13.5 -35q0 -6 2 -16h283q7 -14 10 -31t3 -35q0 -17 -3 -34.5
t-10 -31.5h-436q-2 10 -4 22q-2 10 -3 23.5t-1 28.5q0 57 17 98.5t44.5 74t62 57.5l68.5 48q32 22 53.5 39.5t34.5 33.5t18.5 32.5t5.5 36.5q0 38 -28 56.5t-76 18.5q-26 0 -50.5 -4t-43.5 -9q-22 -6 -42 -13z" />
    <glyph glyph-name="two.denom" horiz-adv-x="303" 
d="M20 48q0 33 11.5 56t29 39t38 27l38 21t29 20.5t11.5 25.5q0 17 -14.5 23.5t-34.5 7.5q-17 1 -34.5 -2t-31.5 -7q-12 14 -17.5 33t-3.5 39q14 4 31 8q14 3 33.5 6t42.5 3q56 0 93 -24.5t37 -77.5q0 -41 -18 -63t-43 -37t-51.5 -28t-44.5 -34h140q7 -20 7 -43t-7 -41h-236
q-2 5 -3 13q-1 6 -1.5 15t-0.5 20z" />
    <glyph glyph-name="two.num" horiz-adv-x="303" 
d="M20 394q0 33 11.5 56t29 39t38 27l38 20.5t29 20.5t11.5 26q0 17 -14 24t-34 7q-17 0 -35 -2.5t-32 -6.5q-12 14 -17.5 33t-3.5 39q14 4 31 8q14 3 33.5 6t42.5 3q56 0 93 -24.5t37 -77.5q0 -41 -18 -63t-43 -37t-51.5 -28t-44.5 -34h140q7 -20 7 -43t-7 -41h-236
q-2 5 -3 13q-1 6 -1.5 15t-0.5 20z" />
    <glyph glyph-name="twoinferior" unicode="&#x2082;" horiz-adv-x="302" 
d="M20 -48q0 33 11.5 56t29 39t38 27l38 21t29 20.5t11.5 25.5q0 17 -15 24t-35 7q-16 1 -33.5 -2t-31.5 -7q-12 14 -17.5 33t-3.5 39q14 4 31 8q14 3 33.5 6t42.5 3q56 0 93 -24.5t37 -77.5q0 -41 -18 -63t-43 -37t-51.5 -28t-44.5 -35h140q7 -18 7 -42q0 -23 -7 -41h-236
q-2 5 -3 13q-1 6 -1.5 15t-0.5 20z" />
    <glyph glyph-name="twosuperior" unicode="&#xb2;" horiz-adv-x="302" 
d="M20 394q0 33 11.5 56t29 39t37.5 27l37.5 20.5t29 20.5t11.5 26q0 18 -15 24.5t-36 6.5q-16 0 -32.5 -2.5t-30.5 -6.5q-12 14 -17.5 33t-3.5 39q14 4 31 8q14 3 33.5 6t42.5 3q56 0 92.5 -24.5t36.5 -77.5q0 -41 -18 -63t-42.5 -37t-51 -28t-44.5 -34h139q7 -20 7 -43
t-7 -41h-235q-2 5 -3 13q-1 6 -1.5 15t-0.5 20z" />
    <glyph glyph-name="u" unicode="u" horiz-adv-x="547" 
d="M52 522q8 2 19 4q10 2 24 3t34 1t34 -1t24 -3q11 -2 19 -4v-352q0 -27 14.5 -43.5t48.5 -16.5q39 0 70 28v384q9 2 20 4q10 2 24 3t33 1t33.5 -1t24.5 -3q11 -2 19 -4v-514q-8 -2 -19 -4q-10 -2 -24 -3t-34 -1q-19 0 -33 1t-24 3q-11 2 -20 4v30q-26 -24 -60.5 -36
t-73.5 -12q-77 0 -115 41.5t-38 108.5v382z" />
    <glyph glyph-name="uacute" unicode="&#xfa;" horiz-adv-x="547" 
d="M262 595q-26 5 -49 15t-37 29l91 147q18 2 38 -1t38 -10t32.5 -17.5t22.5 -23.5zM52 522q8 2 19 4q10 2 24 3t34 1t34 -1t24 -3q11 -2 19 -4v-352q0 -27 14.5 -43.5t48.5 -16.5q39 0 70 28v384q9 2 20 4q10 2 24 3t33 1t33.5 -1t24.5 -3q11 -2 19 -4v-514q-8 -2 -19 -4
q-10 -2 -24 -3t-34 -1q-19 0 -33 1t-24 3q-11 2 -20 4v30q-26 -24 -60.5 -36t-73.5 -12q-77 0 -115 41.5t-38 108.5v382z" />
    <glyph glyph-name="ubreve" unicode="&#x16d;" horiz-adv-x="547" 
d="M271 710q25 0 44.5 4.5t33.5 9.5q16 6 27 14q22 -9 39 -28t25 -41q-16 -21 -41 -37q-21 -14 -52.5 -25.5t-75.5 -11.5t-76 11.5t-52 25.5q-25 16 -40 37q8 22 24.5 41t38.5 28q11 -8 27 -14q14 -5 33 -9.5t45 -4.5zM339 522q9 2 20 4q10 2 24 3t33 1t33.5 -1t24.5 -3
q11 -2 19 -4v-514q-8 -2 -19 -4q-10 -2 -24 -3t-34 -1q-19 0 -33 1t-24 3q-11 2 -20 4v30q-26 -24 -60.5 -36t-73.5 -12q-77 0 -115 41.5t-38 108.5v382q8 2 19 4q10 2 24 3t34 1t34 -1t24 -3q11 -2 19 -4v-352q0 -27 14.5 -43.5t48.5 -16.5q39 0 70 28v384z" />
    <glyph glyph-name="ucircumflex" unicode="&#xfb;" horiz-adv-x="547" 
d="M447 661q-11 -22 -28 -40t-39 -26l-104 65l-103 -64q-23 8 -39.5 25.5t-27.5 39.5l152 129h35zM52 522q8 2 19 4q10 2 24 3t34 1t34 -1t24 -3q11 -2 19 -4v-352q0 -27 14.5 -43.5t48.5 -16.5q39 0 70 28v384q9 2 20 4q10 2 24 3t33 1t33.5 -1t24.5 -3q11 -2 19 -4v-514
q-8 -2 -19 -4q-10 -2 -24 -3t-34 -1q-19 0 -33 1t-24 3q-11 2 -20 4v30q-26 -24 -60.5 -36t-73.5 -12q-77 0 -115 41.5t-38 108.5v382z" />
    <glyph glyph-name="udieresis" unicode="&#xfc;" horiz-adv-x="547" 
d="M111 717q6 1 16 3q8 2 20.5 3t29.5 1q16 0 28.5 -1t20.5 -3q10 -2 17 -3v-115q-7 -2 -17 -4q-17 -3 -49 -3q-33 0 -49 3q-10 2 -17 4v115zM308 717q6 1 16 3q8 2 20.5 3t29.5 1q16 0 28.5 -1t20.5 -3q10 -2 17 -3v-115q-7 -2 -17 -4q-17 -3 -49 -3q-34 0 -50 3
q-10 2 -16 4v115zM339 522q9 2 20 4q10 2 24 3t33 1t33.5 -1t24.5 -3q11 -2 19 -4v-514q-8 -2 -19 -4q-10 -2 -24 -3t-34 -1q-19 0 -33 1t-24 3q-11 2 -20 4v30q-26 -24 -60.5 -36t-73.5 -12q-77 0 -115 41.5t-38 108.5v382q8 2 19 4q10 2 24 3t34 1t34 -1t24 -3
q11 -2 19 -4v-352q0 -27 14.5 -43.5t48.5 -16.5q39 0 70 28v384z" />
    <glyph glyph-name="ugrave" unicode="&#xf9;" horiz-adv-x="547" 
d="M352 639q-14 -19 -36.5 -29t-48.5 -15l-137 139q8 13 22.5 23.5t32.5 17.5t38 10t38 1zM339 522q9 2 20 4q10 2 24 3t33 1t33.5 -1t24.5 -3q11 -2 19 -4v-514q-8 -2 -19 -4q-10 -2 -24 -3t-34 -1q-19 0 -33 1t-24 3q-11 2 -20 4v30q-26 -24 -60.5 -36t-73.5 -12
q-77 0 -115 41.5t-38 108.5v382q8 2 19 4q10 2 24 3t34 1t34 -1t24 -3q11 -2 19 -4v-352q0 -27 14.5 -43.5t48.5 -16.5q39 0 70 28v384z" />
    <glyph glyph-name="uhungarumlaut" unicode="&#x171;" horiz-adv-x="547" 
d="M197 595q-24 4 -45 13.5t-33 26.5l84 135q17 2 35 -0.5t34.5 -9t30 -16t20.5 -21.5zM372 595q-24 4 -45 13.5t-34 26.5l84 135q17 2 35 -0.5t34.5 -9t30 -16t21.5 -21.5zM52 522q8 2 19 4q10 2 24 3t34 1t34 -1t24 -3q11 -2 19 -4v-352q0 -27 14.5 -43.5t48.5 -16.5
q39 0 70 28v384q9 2 20 4q10 2 24 3t33 1t33.5 -1t24.5 -3q11 -2 19 -4v-514q-8 -2 -19 -4q-10 -2 -24 -3t-34 -1q-19 0 -33 1t-24 3q-11 2 -20 4v30q-26 -24 -60.5 -36t-73.5 -12q-77 0 -115 41.5t-38 108.5v382z" />
    <glyph glyph-name="umacron" unicode="&#x16b;" horiz-adv-x="547" 
d="M402 701q5 -17 5 -40.5t-5 -42.5h-255q-4 20 -4 43t4 40h255zM339 522q9 2 20 4q10 2 24 3t33 1q20 0 34 -1t24 -3q11 -2 19 -4v-514q-8 -2 -19 -4q-10 -2 -24 -3t-34 -1q-19 0 -33 1t-24 3q-11 2 -20 4v30q-53 -48 -133 -48q-78 0 -116 41.5t-38 108.5v382q8 2 19 4
q10 2 24 3t34 1t34 -1t24 -3q11 -2 19 -4v-352q0 -27 14.5 -43.5t49.5 -16.5q38 0 69 28v384z" />
    <glyph glyph-name="underscore" unicode="_" horiz-adv-x="543" 
d="M48 -116q-2 4 -4 11q-3 12 -3 37t3 37q2 7 4 11h447q1 -4 3 -11q2 -6 3 -15t1 -22t-1 -22t-3 -15q-2 -7 -3 -11h-447z" />
    <glyph glyph-name="uni00AD" unicode="&#xad;" horiz-adv-x="218" 
 />
    <glyph glyph-name="Tcommaaccent" unicode="&#x162;" horiz-adv-x="567" 
d="M539 720q2 -8 5 -19q2 -9 3.5 -21t1.5 -26q0 -15 -1.5 -27.5t-3.5 -21.5q-3 -11 -5 -19h-174v-577q-10 -3 -22 -5q-11 -2 -25.5 -3t-32.5 -1q-20 0 -34.5 1t-24.5 3q-11 2 -20 5v577h-179q-3 7 -5 18q-5 18 -5 48q0 29 5 49q2 11 5 19h512zM223 -309q9 12 17 29
q7 14 13 34.5t8 46.5q-22 1 -36 5q-8 2 -13 3v143q9 2 20 4q10 2 24 3t33 1q18 0 32 -1t24 -3l21 -4v-103q0 -48 -13.5 -84.5t-30.5 -61.5q-19 -29 -44 -50z" />
    <glyph glyph-name="Tcommaaccent" unicode="&#x21a;" horiz-adv-x="567" 
d="M539 720q2 -8 5 -19q2 -9 3.5 -21t1.5 -26q0 -15 -1.5 -27.5t-3.5 -21.5q-3 -11 -5 -19h-174v-577q-10 -3 -22 -5q-11 -2 -25.5 -3t-32.5 -1q-20 0 -34.5 1t-24.5 3q-11 2 -20 5v577h-179q-3 7 -5 18q-5 18 -5 48q0 29 5 49q2 11 5 19h512zM223 -309q9 12 17 29
q7 14 13 34.5t8 46.5q-22 1 -36 5q-8 2 -13 3v143q9 2 20 4q10 2 24 3t33 1q18 0 32 -1t24 -3l21 -4v-103q0 -48 -13.5 -84.5t-30.5 -61.5q-19 -29 -44 -50z" />
    <glyph glyph-name="tcommaaccent" unicode="&#x163;" horiz-adv-x="392" 
d="M246 193q0 -52 20.5 -68.5t60.5 -16.5q8 0 14.5 0.5t12.5 1.5t13 2q3 -7 6 -16q2 -8 4 -19.5t2 -25.5q0 -12 -1 -21t-3 -16q-2 -8 -3 -13q-22 -6 -44.5 -8.5t-45.5 -2.5q-102 0 -146 47t-44 152v227h-72q-2 7 -4 15q-3 13 -3 39q0 28 3 42q2 8 4 14h72v89q29 16 71 22.5
t83 2.5v-114h108q1 -6 3 -14q2 -7 3 -17.5t1 -23.5q0 -12 -1 -22t-3 -18l-3 -15h-108v-223zM179 -309q10 12 18 29q7 14 13 34.5t8 46.5q-12 1 -21 2t-16 3q-8 2 -13 3v143q9 2 20 4q10 2 24 3t33 1q18 0 32 -1t24 -3l21 -4v-103q0 -48 -13.5 -84.5t-30.5 -61.5
q-19 -29 -44 -50z" />
    <glyph glyph-name="tcommaaccent" unicode="&#x21b;" horiz-adv-x="392" 
d="M246 193q0 -52 20.5 -68.5t60.5 -16.5q8 0 14.5 0.5t12.5 1.5t13 2q3 -7 6 -16q2 -8 4 -19.5t2 -25.5q0 -12 -1 -21t-3 -16q-2 -8 -3 -13q-22 -6 -44.5 -8.5t-45.5 -2.5q-102 0 -146 47t-44 152v227h-72q-2 7 -4 15q-3 13 -3 39q0 28 3 42q2 8 4 14h72v89q29 16 71 22.5
t83 2.5v-114h108q1 -6 3 -14q2 -7 3 -17.5t1 -23.5q0 -12 -1 -22t-3 -18l-3 -15h-108v-223zM179 -309q10 12 18 29q7 14 13 34.5t8 46.5q-12 1 -21 2t-16 3q-8 2 -13 3v143q9 2 20 4q10 2 24 3t33 1q18 0 32 -1t24 -3l21 -4v-103q0 -48 -13.5 -84.5t-30.5 -61.5
q-19 -29 -44 -50z" />
    <glyph glyph-name="uni0401" unicode="&#x401;" horiz-adv-x="558" 
d="M132 896q6 1 16 3q8 2 20.5 3t29.5 1q16 0 28.5 -1t20.5 -3q10 -2 17 -3v-115q-7 -2 -17 -4q-17 -3 -49 -3q-33 0 -49 3q-10 2 -17 4v115zM329 896q6 1 16 3q8 2 20.5 3t29.5 1q16 0 28 -1t20 -3q10 -2 17 -3v-115q-7 -2 -17 -4q-17 -3 -48 -3q-34 0 -50 3q-10 2 -16 4
v115zM507 720q4 -11 7 -26t3 -32q0 -36 -10 -64h-278v-174h228q4 -13 7 -27t3 -32q0 -19 -2.5 -33.5t-7.5 -28.5h-228v-181h288q5 -12 7.5 -27.5t2.5 -32.5t-2.5 -32.5t-7.5 -29.5h-448v720h438z" />
    <glyph glyph-name="uni0410" unicode="&#x410;" 
d="M236 711q12 2 27 4q13 2 31.5 3.5t42.5 1.5q25 0 43.5 -1.5t31.5 -3.5q15 -2 26 -4l228 -702q-9 -3 -21 -5q-11 -2 -26.5 -3t-36.5 -1q-20 0 -34 1t-24 3q-11 2 -19 5l-47 146h-251l-47 -146q-10 -3 -21 -5q-10 -2 -24.5 -3t-32.5 -1t-31.5 1t-23.5 3q-11 2 -19 5z
M330 570q-2 -17 -6 -35q-3 -16 -8 -37.5t-13 -44.5l-59 -181h177l-58 181q-8 24 -13 45l-9 37q-4 18 -7 35h-4z" />
    <glyph glyph-name="uni0411" unicode="&#x411;" horiz-adv-x="625" 
d="M524 720q3 -6 6 -16q2 -8 4 -20t2 -29q0 -15 -2 -27t-4 -20q-3 -10 -6 -17h-295v-148h138q55 0 98 -16t72.5 -45t45 -69.5t15.5 -90.5t-15.5 -91t-45 -70t-72.5 -45t-98 -16h-298v720h455zM229 117h107q49 0 73.5 27t24.5 78t-24.5 77.5t-73.5 26.5h-107v-209z" />
    <glyph glyph-name="uni0412" unicode="&#x412;" horiz-adv-x="630" 
d="M363 720q98 0 153 -53.5t55 -147.5q0 -51 -20.5 -87.5t-57.5 -59.5q46 -23 72.5 -63.5t26.5 -100.5q0 -101 -60 -154.5t-165 -53.5h-298v720h294zM331 423q41 0 61 24.5t20 66.5q0 43 -20 67t-61 24h-103v-182h103zM336 116q94 0 94 96q0 51 -23.5 73.5t-70.5 22.5h-108
v-192h108z" />
    <glyph glyph-name="uni0413" unicode="&#x413;" horiz-adv-x="505" 
d="M481 720q2 -6 5 -16q2 -8 3.5 -20.5t1.5 -28.5q0 -14 -1.5 -26t-3.5 -20q-3 -10 -5 -18h-252v-582q-10 -3 -22 -5q-11 -2 -25.5 -3t-33.5 -1t-33 1t-25 3q-12 2 -21 5v711h412z" />
    <glyph glyph-name="uni0414" unicode="&#x414;" horiz-adv-x="719" 
d="M690 122v-260q-16 -5 -33 -7.5t-38 -2.5q-44 0 -75 10v138h-382v-138q-33 -9 -73 -9q-42 0 -73 9v260h54q31 20 51.5 77.5t28.5 167.5l27 353h435v-598h78zM303 361q-6 -83 -20 -141t-34 -98h204v484h-133z" />
    <glyph glyph-name="uni0415" unicode="&#x415;" horiz-adv-x="558" 
d="M507 720q4 -11 7 -26t3 -32q0 -36 -10 -64h-278v-172h228q4 -13 7 -27t3 -32q0 -19 -2.5 -33.5t-7.5 -28.5h-228v-183h288q5 -12 7.5 -27.5t2.5 -32.5t-2.5 -32.5t-7.5 -29.5h-448v720h438z" />
    <glyph glyph-name="uni0416" unicode="&#x416;" horiz-adv-x="933" 
d="M740 711q17 4 35.5 6.5t44.5 2.5t47 -2.5t38 -6.5l-192 -323l223 -379q-11 -3 -25 -5q-12 -2 -29.5 -3t-38.5 -1q-22 0 -38.5 1t-27.5 3q-13 2 -23 5l-178 305h-30v-305q-8 -3 -19 -5q-10 -2 -25 -3t-36 -1q-20 0 -34 1t-25 3q-12 2 -21 5v305h-29l-179 -305
q-10 -3 -23 -5q-11 -2 -27.5 -3t-37.5 -1q-22 0 -39 1t-29 3q-14 2 -25 5l222 379l-192 323q18 4 38.5 6.5t46.5 2.5t45 -2.5t35 -6.5l165 -277h29v277q9 2 21 4q11 2 25.5 3.5t34.5 1.5q19 0 34 -1.5t25 -3.5q11 -2 20 -4v-277h30l164 277v0z" />
    <glyph glyph-name="uni0417" unicode="&#x417;" horiz-adv-x="561" 
d="M33 693q25 10 57 19q27 8 65 14t86 6q130 0 194.5 -50t64.5 -148q0 -56 -18.5 -98t-66.5 -64v-4q106 -45 106 -175q0 -47 -16.5 -85t-51.5 -64.5t-90 -41t-131 -14.5q-52 0 -91 5.5t-65 13.5q-31 9 -54 20q-1 32 10 63t32 52q24 -8 64 -15t81 -7q72 0 110.5 21t38.5 72
t-32 71.5t-100 20.5h-81q-5 12 -7.5 28.5t-2.5 33.5t2.5 33t7.5 27h81q61 0 87 21t26 66q0 50 -33 70t-85 20q-30 0 -56 -3.5t-45 -7.5q-22 -4 -40 -10q-25 18 -37 48t-10 62z" />
    <glyph glyph-name="uni0418" unicode="&#x418;" horiz-adv-x="694" 
d="M441 711q10 2 23 4q11 2 28.5 3.5t40.5 1.5t41 -1.5t29 -3.5q13 -2 23 -4v-702q-9 -3 -21 -5q-11 -2 -25.5 -3t-32.5 -1q-20 0 -35 1t-25 3q-11 2 -20 5v234q0 66 2 117.5t5 87.5q4 42 8 75h-5l-20 -58l-28.5 -73t-44.5 -104l-125 -279q-1 0 -24.5 -4.5t-71.5 -4.5
q-26 0 -44 1t-29 3q-13 2 -22 5v702q9 2 21 4q11 2 25 3.5t33 1.5q38 0 59.5 -4.5t22.5 -4.5v-233q0 -65 -2.5 -118.5t-5.5 -91.5l-7 -80h5q12 44 37.5 107t59.5 138l125 278v0z" />
    <glyph glyph-name="uni0419" unicode="&#x419;" horiz-adv-x="694" 
d="M348 907q28 0 50.5 5.5t38.5 12.5q18 8 32 19q23 -11 41 -34t25 -50q-19 -21 -46 -38q-23 -14 -58 -26t-83 -12t-83 12t-58 26q-27 17 -46 38q7 27 25 50t41 34q14 -11 32 -19q16 -7 38 -12.5t51 -5.5zM441 711q10 2 23 4q11 2 28.5 3.5t40.5 1.5t41 -1.5t29 -3.5
q13 -2 23 -4v-702q-9 -3 -21 -5q-11 -2 -25.5 -3t-32.5 -1q-20 0 -35 1t-25 3q-11 2 -20 5v234q0 66 2 117.5t5 87.5q4 42 8 75h-5l-20 -58l-28.5 -73t-44.5 -104l-125 -279q-1 0 -24.5 -4.5t-71.5 -4.5q-26 0 -44 1t-29 3q-13 2 -22 5v702q9 2 21 4q11 2 25 3.5t33 1.5
q38 0 59.5 -4.5t22.5 -4.5v-233q0 -65 -2.5 -118.5t-5.5 -91.5l-7 -80h5q12 44 37.5 107t59.5 138z" />
    <glyph glyph-name="uni041A" unicode="&#x41a;" horiz-adv-x="631" 
d="M439 711q17 4 37.5 6.5t42.5 2.5q23 0 45 -2.5t40 -6.5l-200 -323l231 -379q-12 -3 -26 -5q-12 -2 -29.5 -3t-38.5 -1t-37.5 1t-27.5 3q-13 2 -23 5l-186 305h-38v-305q-8 -3 -19 -5q-10 -2 -25 -3t-36 -1q-20 0 -35 1t-25 3q-12 2 -20 5v702q8 2 20 4q10 2 25.5 3.5
t35.5 1.5t34.5 -1.5t24.5 -3.5q11 -2 20 -4v-277h38z" />
    <glyph glyph-name="uni041B" unicode="&#x41b;" horiz-adv-x="690" 
d="M97 -7q-25 0 -42 3t-30 8q-5 13 -7.5 26.5t-2.5 29.5q0 32 10 59q8 -1 17.5 -1t23.5 2q12 2 27.5 13.5t30.5 42t28 84t20 140.5l25 320h424v-711q-10 -3 -21 -5q-10 -2 -24.5 -3t-32.5 -1q-41 0 -61 4.5t-19 4.5v589h-132l-14 -200q-9 -129 -32.5 -208.5t-54.5 -123
t-66 -58.5t-67 -15z" />
    <glyph glyph-name="uni041C" unicode="&#x41c;" horiz-adv-x="829" 
d="M559 711q13 3 38.5 6t58.5 3q15 0 32 -1t31.5 -2.5t25.5 -3t16 -2.5v-702q-9 -3 -20 -5q-10 -2 -24 -3t-32 -1q-19 0 -33.5 1t-24.5 3q-11 2 -20 5v210q0 44 1 91.5t3 91t4 79t5 55.5h-6l-14 -43t-21 -59.5l-25.5 -66.5l-26.5 -65l-65 -153q-6 -2 -15 -4q-15 -3 -42 -3
t-40 3q-8 2 -13 4l-32 73.5l-31 73.5l-28.5 68.5t-26.5 68.5l-21.5 60t-13.5 43h-6q4 -18 7 -50.5t5 -74t3.5 -87.5t1.5 -89v-226q-8 -3 -19 -5q-9 -2 -22 -3t-30 -1t-30 1t-22 3q-11 2 -19 5v702q11 2 39 5.5t59 3.5q20 0 37.5 -1.5t30.5 -3.5q15 -2 27 -4l79 -184
q23 -54 41.5 -104.5t27.5 -88.5h5q5 24 13 52.5t21 61.5l54.5 131z" />
    <glyph glyph-name="uni041D" unicode="&#x41d;" horiz-adv-x="681" 
d="M453 711q10 2 22 4q11 2 25 3.5t33 1.5q18 0 32.5 -1.5t25.5 -3.5q12 -2 22 -4v-702q-9 -3 -21 -5q-11 -2 -25.5 -3t-32.5 -1q-20 0 -35.5 1t-25.5 3q-12 2 -20 5v295h-225v-295q-10 -3 -22 -5q-11 -2 -25.5 -3t-32.5 -1q-20 0 -35 1t-25 3q-11 2 -20 5v702q9 2 21 4
q11 2 25 3.5t33 1.5t33.5 -1.5t25.5 -3.5q12 -2 22 -4v-277h225v277z" />
    <glyph glyph-name="uni041E" unicode="&#x41e;" horiz-adv-x="689" 
d="M42 360q0 96 21.5 166.5t61 116t95.5 67.5t125 22t125 -21.5t95 -67t60.5 -116t21.5 -167.5q0 -98 -21 -168t-60 -115.5t-95 -67t-126 -21.5t-126 21.5t-95.5 67t-60.5 115.5t-21 168zM478 360q0 75 -9 122.5t-26.5 75.5t-42 38.5t-55.5 10.5t-55.5 -10.5t-42 -38.5
t-26.5 -75.5t-9 -122.5q0 -74 9 -122t26.5 -75.5t42 -38t55.5 -10.5t55.5 10.5t42 38t26.5 75.5t9 122z" />
    <glyph glyph-name="uni041F" unicode="&#x41f;" horiz-adv-x="671" 
d="M602 9q-9 -3 -20 -5q-10 -2 -24.5 -3t-34.5 -1q-22 0 -37 1t-25 3q-11 2 -19 5v582h-213v-582q-9 -3 -21 -5q-11 -2 -25.5 -3t-33.5 -1q-22 0 -36.5 1t-24.5 3q-11 2 -19 5v711h533v-711z" />
    <glyph glyph-name="uni0420" unicode="&#x420;" horiz-adv-x="608" 
d="M229 9q-9 -3 -21 -5q-11 -2 -25.5 -3t-33.5 -1q-20 0 -35 1t-25 3q-11 2 -20 5v711h277q54 0 97.5 -16t74 -45.5t47 -72t16.5 -96.5q0 -53 -16.5 -95.5t-47 -72t-74 -45.5t-97.5 -16h-117v-252zM323 385q45 0 69 27t24 78q0 52 -24 78.5t-69 26.5h-94v-210h94z" />
    <glyph glyph-name="uni0421" unicode="&#x421;" horiz-adv-x="570" 
d="M41 360q0 183 80.5 277.5t234.5 94.5q45 0 79.5 -6t57.5 -14q27 -9 47 -19q2 -34 -11 -61.5t-35 -48.5q-17 6 -35 10q-16 4 -37.5 7t-44.5 3q-38 0 -69 -11.5t-53 -39t-33.5 -74.5t-11.5 -119t11.5 -118.5t33.5 -73.5t53 -38t69 -11q26 0 48.5 3t39.5 8q20 4 38 11
q23 -20 35 -50.5t12 -62.5q-21 -11 -49 -20q-25 -8 -61 -13.5t-84 -5.5q-154 0 -234.5 94.5t-80.5 277.5z" />
    <glyph glyph-name="uni0422" unicode="&#x422;" horiz-adv-x="566" 
d="M539 720q2 -8 5 -19q2 -9 3.5 -21t1.5 -26q0 -15 -1.5 -27.5t-3.5 -21.5q-3 -11 -5 -19h-174v-577q-10 -3 -22 -5q-11 -2 -25.5 -3t-32.5 -1q-20 0 -34.5 1t-24.5 3q-11 2 -20 5v577h-179q-3 7 -5 18q-5 18 -5 48q0 29 5 49q2 11 5 19h512z" />
    <glyph glyph-name="uni0423" unicode="&#x423;" horiz-adv-x="622" 
d="M459 711q9 2 21 4q10 2 24.5 3.5t32.5 1.5q16 0 30 -1.5t25 -3.5l23 -4l-189 -518q-22 -59 -49.5 -96.5t-58.5 -59t-64 -29.5t-66 -8q-18 0 -33 2t-26 4q-13 3 -23 6q-3 7 -6 17q-5 18 -5 43q0 26 3 43q2 10 4 18q9 -1 19 -2q8 -1 18.5 -1.5t21.5 -0.5q15 0 29.5 3.5
t28 13t26.5 26.5t25 43h-36l-228 496q10 2 23 4q11 2 27 3.5t36 1.5q22 0 38 -1.5t27 -3.5q12 -2 21 -4l112 -247q10 -23 17.5 -43.5l12.5 -34.5q5 -18 9 -31h4q3 13 8 31l11.5 35.5t15.5 44.5l91 245v0z" />
    <glyph glyph-name="uni0424" unicode="&#x424;" horiz-adv-x="814" 
d="M327 726q9 2 20 4q10 2 24.5 3.5t34.5 1.5t34.5 -1.5t25.5 -3.5q12 -2 21 -4v-62q66 0 121 -15t94.5 -49t61.5 -89t22 -135t-22 -135t-61.5 -89t-94.5 -48.5t-121 -14.5v-80q-9 -3 -21 -5q-11 -2 -25.5 -3t-33.5 -1q-20 0 -35 1t-25 3q-11 2 -20 5v80q-66 0 -121 14.5
t-94.5 48.5t-61.5 89t-22 135t22 135t61.5 89t94.5 49t121 15v62zM331 547q-31 0 -57 -7.5t-45 -26.5t-30 -52t-11 -85t11 -85.5t30 -52.5t45 -26t57 -7v342zM483 205q30 0 56.5 7.5t46 26.5t30.5 52t11 85t-11 85.5t-30.5 52.5t-45.5 26t-57 7v-342z" />
    <glyph glyph-name="uni0425" unicode="&#x425;" horiz-adv-x="645" 
d="M457 711q39 9 82 9q45 0 84 -9l-195 -329l215 -371q-10 -3 -23 -6q-25 -5 -66 -5t-66 5q-13 2 -23 5l-148 251l-151 -253q-35 -8 -76 -8q-25 0 -48 1.5t-43 6.5l217 368l-191 335q9 2 23 4q11 2 29 3.5t41 1.5q20 0 36.5 -1.5t27.5 -3.5q13 -2 24 -4l124 -213l127 213v0z
" />
    <glyph glyph-name="uni0426" unicode="&#x426;" horiz-adv-x="709" 
d="M69 711q9 2 20 4q10 2 25 3.5t35 1.5q18 0 32.5 -1.5t25.5 -3.5q12 -2 22 -4v-582h213v582q8 2 20 4q10 2 25.5 3.5t35.5 1.5q18 0 32.5 -1.5t25.5 -3.5q12 -2 21 -4v-582h77v-267q-16 -5 -34 -7.5t-37 -2.5q-20 0 -39 2.5t-36 7.5v138h-464v711z" />
    <glyph glyph-name="uni0427" unicode="&#x427;" horiz-adv-x="645" 
d="M418 711q10 2 22 4q11 2 25 3.5t33 1.5q18 0 32.5 -1.5t25.5 -3.5q12 -2 21 -4v-702q-10 -3 -21 -5q-10 -2 -24.5 -3t-32.5 -1q-20 0 -35.5 1t-25.5 3q-12 2 -20 5v271q-23 -8 -58.5 -16t-86.5 -8q-54 0 -97 12.5t-72.5 40t-45 71.5t-15.5 108v223q9 2 21 4q11 2 25 3.5
t33 1.5t33.5 -1.5t25.5 -3.5q12 -2 21 -4v-221q0 -61 26.5 -83.5t77.5 -22.5q37 0 65 8t47 16v303z" />
    <glyph glyph-name="uni0428" unicode="&#x428;" horiz-adv-x="957" 
d="M68 711q9 2 20 4q10 2 25 3.5t35 1.5q18 0 32.5 -1.5t25.5 -3.5q12 -2 22 -4v-582h170v582q8 2 20 4q10 2 25.5 3.5t35.5 1.5q18 0 32.5 -1.5t25.5 -3.5q12 -2 21 -4v-582h170v582q8 2 20 4q10 2 25.5 3.5t35.5 1.5q18 0 32.5 -1.5t25.5 -3.5q12 -2 21 -4v-711h-820v711z
" />
    <glyph glyph-name="uni0429" unicode="&#x429;" horiz-adv-x="996" 
d="M69 711q9 2 20 4q10 2 25 3.5t35 1.5q18 0 32.5 -1.5t25.5 -3.5q12 -2 22 -4v-582h170v582q8 2 20 4q10 2 25.5 3.5t35.5 1.5q18 0 32.5 -1.5t25.5 -3.5q12 -2 21 -4v-582h170v582q8 2 20 4q10 2 25.5 3.5t35.5 1.5q18 0 32.5 -1.5t25.5 -3.5q12 -2 21 -4v-582h77v-267
q-16 -6 -34.5 -8t-38.5 -2t-38 2.5t-35 7.5v138h-751v711z" />
    <glyph glyph-name="uni042A" unicode="&#x42a;" horiz-adv-x="723" 
d="M461 447q54 0 97.5 -15.5t74 -44t47 -70t16.5 -93.5q0 -53 -16.5 -94.5t-47 -70t-74 -44t-97.5 -15.5h-292v586h-142q-3 7 -5 18q-5 18 -5 48q0 29 5 49q2 11 5 19h301v-273h133zM328 125h109q45 0 69 24.5t24 74.5q0 49 -24 74t-69 25h-109v-198z" />
    <glyph glyph-name="uni042B" unicode="&#x42b;" horiz-adv-x="893" 
d="M68 711q9 2 20 4q10 2 25 3.5t35 1.5q19 0 33.5 -1.5t25.5 -3.5q12 -2 21 -4v-264h132q54 0 97.5 -15.5t74 -44t47 -70t16.5 -93.5q0 -53 -16.5 -94.5t-47 -70t-74 -44t-97.5 -15.5h-292v711zM665 711q10 2 22 4q11 2 25 3.5t33 1.5t33.5 -1.5t25.5 -3.5q12 -2 21 -4
v-702q-10 -3 -22 -5q-11 -2 -25.5 -3t-32.5 -1q-20 0 -35 1t-25 3q-11 2 -20 5v702zM228 125h109q45 0 69 24.5t24 74.5q0 49 -24 74t-69 25h-109v-198z" />
    <glyph glyph-name="uni042C" unicode="&#x42c;" horiz-adv-x="623" 
d="M360 447q54 0 97.5 -15.5t74 -44t47 -70t16.5 -93.5q0 -53 -16.5 -94.5t-47 -70t-74 -44t-97.5 -15.5h-292v711q9 2 20 4q10 2 25 3.5t35 1.5q19 0 33.5 -1.5t25.5 -3.5q12 -2 21 -4v-264h132zM337 125q45 0 69 24.5t24 74.5q0 49 -24 74t-69 25h-109v-198h109z" />
    <glyph glyph-name="uni042D" unicode="&#x42d;" horiz-adv-x="592" 
d="M33 693q22 10 52 19q26 8 62 14t83 6q161 0 241 -94.5t80 -277.5t-80 -277.5t-241 -94.5q-48 0 -86.5 5.5t-65.5 13.5q-32 9 -56 20q0 32 11 63.5t32 50.5q20 -7 43 -11q20 -5 45.5 -8t54.5 -3q34 0 64 8t52.5 29t37.5 57t20 92h-239q-3 6 -5 16q-5 18 -5 46q0 27 5 44
q2 9 5 15h237q-6 52 -20.5 86t-37 54t-51.5 28.5t-63 8.5q-26 0 -49.5 -3t-41.5 -7q-21 -4 -39 -10q-23 20 -34 50t-11 60z" />
    <glyph glyph-name="uni042E" unicode="&#x42e;" horiz-adv-x="966" 
d="M69 711q10 2 22 4q11 2 25 3.5t33 1.5t33.5 -1.5t25.5 -3.5q12 -2 21 -4v-289h92q7 80 30.5 138.5t62 96.5t91 56.5t116.5 18.5q70 0 126 -21.5t95.5 -67t60.5 -116t21 -167.5q0 -98 -21 -168t-60.5 -115.5t-95.5 -67t-126 -21.5q-64 0 -116.5 18t-91 56t-62 96.5
t-30.5 139.5h-92v-289q-10 -3 -22 -5q-11 -2 -25.5 -3t-32.5 -1q-20 0 -35 1t-25 3q-11 2 -20 5v702zM621 607q-31 0 -55.5 -10.5t-42 -38.5t-26.5 -75.5t-9 -122.5q0 -74 9 -122t26.5 -75.5t42 -38t55.5 -10.5t55.5 10.5t42 38t26.5 75.5t9 122q0 75 -9 122.5t-26.5 75.5
t-42 38.5t-55.5 10.5z" />
    <glyph glyph-name="uni042F" unicode="&#x42f;" horiz-adv-x="634" 
d="M565 9q-9 -3 -20 -5q-10 -2 -25 -3t-35 -1q-19 0 -33.5 1t-25.5 3q-12 2 -21 5v258h-67l-138 -258q-11 -3 -24 -5q-12 -2 -28.5 -3t-37.5 -1q-22 0 -38.5 1t-27.5 3q-13 2 -22 5l152 278q-60 24 -92.5 77.5t-32.5 128.5q0 51 15 92.5t45 71.5t74 46.5t101 16.5h281v-711z
M307 596q-93 0 -93 -103q0 -50 23.5 -76t69.5 -26h98v205h-98z" />
    <glyph glyph-name="uni0430" unicode="&#x430;" horiz-adv-x="517" 
d="M65 498q23 11 53 21q26 8 60.5 14.5t76.5 6.5q113 0 162 -45.5t49 -140.5v-346q-6 -2 -16 -4q-8 -2 -20 -3t-28 -1q-15 0 -27 1t-20 3q-10 2 -17 4l-18 49q-34 -67 -140 -67q-75 0 -115 43t-40 131q0 86 50.5 123.5t149.5 37.5q23 0 45 -1t42 -3v20q0 33 -17 52.5
t-65 19.5q-23 0 -45 -3.5t-39 -8.5q-20 -5 -38 -11q-6 4 -12 11q-5 6 -10.5 15t-10.5 21t-7 23t-3 19q-1 10 0 19zM312 228q-30 3 -64 3q-33 0 -51 -15.5t-18 -52.5q0 -39 15 -54.5t43 -15.5q21 0 35 9.5t23 24.5t13 33.5t4 37.5v30z" />
    <glyph glyph-name="uni0431" unicode="&#x431;" horiz-adv-x="572" 
d="M43 351q0 108 17.5 174.5t56 106t98 59.5t143.5 34q30 5 41.5 10t20.5 22q31 -2 58 -15.5t42 -36.5q-10 -55 -38.5 -79.5t-82.5 -31.5q-67 -9 -112.5 -18.5t-74 -26t-43.5 -44t-21 -73.5h4q23 40 64 61t98 21q50 0 91 -14t70.5 -45t45.5 -81t16 -122t-17 -122t-48.5 -81
t-76 -45t-100.5 -14t-102.5 16t-79.5 56.5t-51.5 110.5t-18.5 178zM295 401q-20 0 -35 -6t-25.5 -22.5t-16 -45.5t-5.5 -75q0 -44 5.5 -73t16 -45.5t25.5 -23t35 -6.5t35 6.5t25.5 23t15.5 45.5t5 73q0 45 -5 73.5t-15.5 45.5t-25.5 23.5t-35 6.5z" />
    <glyph glyph-name="uni0432" unicode="&#x432;" horiz-adv-x="518" 
d="M312 530q75 0 114 -39t39 -103q0 -37 -14 -67.5t-44 -47.5q78 -35 78 -120q0 -69 -43 -111t-128 -42h-259v530h257zM272 316q24 0 36.5 16t12.5 42q0 25 -12.5 40.5t-36.5 15.5h-65v-114h65zM274 100q60 0 60 56q0 31 -14 45.5t-46 14.5h-67v-116h67z" />
    <glyph glyph-name="uni0433" unicode="&#x433;" horiz-adv-x="416" 
d="M394 530l5 -17q2 -8 3.5 -19t1.5 -25t-1.5 -25t-3.5 -19q-3 -10 -5 -16h-186v-401l-21 -4q-10 -2 -24 -3t-32 -1q-20 0 -34 1t-24 3q-11 2 -19 4v522h340z" />
    <glyph glyph-name="uni0434" unicode="&#x434;" horiz-adv-x="601" 
d="M57 110q24 14 39 55.5t22 126.5l18 238h375v-420h63v-230q-10 -4 -28 -6t-38 -2q-22 0 -43 2t-35 6v120h-266v-120q-11 -4 -30.5 -6t-41.5 -2t-41.5 1.5t-30.5 6.5v230h37zM256 282q-4 -55 -13.5 -97.5t-23.5 -74.5h139v307h-92z" />
    <glyph glyph-name="uni0435" unicode="&#x435;" horiz-adv-x="514" 
d="M195 219q4 -31 13 -51t22.5 -31.5t31.5 -16t41 -4.5t43 3.5t34 8.5q17 5 31 12q18 -16 30.5 -45.5t14.5 -59.5q-19 -13 -45 -23q-23 -8 -55.5 -15t-77.5 -7q-124 0 -183.5 68t-59.5 208q0 142 63.5 208t172.5 66q98 0 156 -52t58 -159q0 -25 -2 -45.5t-4 -34.5
q-3 -17 -5 -30h-279zM337 346q0 35 -13.5 58.5t-49.5 23.5q-31 0 -52.5 -25t-27.5 -88h141q1 8 1.5 15.5t0.5 15.5z" />
    <glyph glyph-name="uni0436" unicode="&#x436;" horiz-adv-x="779" 
d="M599 522q8 2 19 4q10 2 23.5 3t32.5 1q17 0 31.5 -1t25.5 -3q12 -2 22 -4l-116 -236l138 -277q-9 -3 -21 -5q-11 -2 -27 -3t-37 -1q-19 0 -33.5 1t-25.5 3q-12 2 -22 4l-105 213h-37v-213q-9 -2 -20 -4q-10 -2 -24 -3t-32 -1q-19 0 -33.5 1t-24.5 3q-11 2 -20 4v213h-38
l-104 -213q-10 -2 -22 -4q-11 -2 -26 -3t-34 -1q-22 0 -37 1t-26 3q-12 2 -21 5l138 277l-116 236q10 2 22 4q11 2 25.5 3t33.5 1t33 -1t23 -3q11 -2 18 -4l92 -190h39v190l21 4q10 2 24 3t33 1q17 0 31 -1t24 -3l21 -4v-190h39l93 190v0z" />
    <glyph glyph-name="uni0437" unicode="&#x437;" horiz-adv-x="466" 
d="M30 510q17 8 43 15q22 5 55 10t79 5q111 0 160.5 -39.5t49.5 -111.5q0 -42 -14.5 -71t-46.5 -45v-3q38 -15 56.5 -43.5t18.5 -75.5q0 -36 -12 -66t-39.5 -51t-71.5 -32.5t-108 -11.5q-42 0 -75 5.5t-56 12.5q-27 8 -49 18q0 25 9.5 53t28.5 47q16 -6 35 -10
q17 -4 40 -6.5t52 -2.5q45 0 67.5 12t22.5 42q0 29 -18.5 40.5t-60.5 11.5h-79q-3 7 -5 16q-2 8 -3 18t-1 23q0 12 1 21.5t3 16.5q2 8 5 13h79q68 0 68 53q0 32 -23 42.5t-59 10.5q-25 0 -45.5 -2.5t-36.5 -5.5q-18 -4 -33 -8q-17 17 -26.5 43t-10.5 56z" />
    <glyph glyph-name="uni0438" unicode="&#x438;" horiz-adv-x="574" 
d="M365 522q10 2 22 4q11 2 25 3t31 1q18 0 32 -1t24 -3l21 -4v-514q-8 -2 -19 -4q-10 -2 -24 -3t-31 -1q-20 0 -35 1t-25 3q-11 2 -20 4v131q0 45 2 83.5t4.5 67.5t5 45.5t3.5 17.5h-4q1 -1 -6 -18t-19 -43.5l-28 -59.5l-32 -66l-84 -158l-21 -4q-10 -2 -24.5 -3t-32.5 -1
t-32 1t-24 3q-11 2 -20 4v514q9 2 20 4q10 2 24 3t31 1q18 0 32.5 -1t25.5 -3q12 -2 21 -4v-133q0 -37 -2 -75t-4.5 -68.5t-5 -50t-3.5 -19.5h4q7 21 16 43l17 42t20 46l115 215v0z" />
    </font>
</defs>
</svg>
