<?xml version="1.0" standalone="no"?>
<!DOCTYPE svg PUBLIC "-//W3C//DTD SVG 1.1//EN" "http://www.w3.org/Graphics/SVG/1.1/DTD/svg11.dtd" >
<svg>
<metadata>
Created by FontForge 20090622 at Fri Jan 29 10:55:42 2016
 By deploy user
Copyright (c) 2014 by Fontfabric LLC. All rights reserved.
</metadata>
<defs>
<font id="GloberLightItalic" horiz-adv-x="554" >
  <font-face 
    font-family="Glober Light Italic"
    font-weight="300"
    font-style="italic"
    font-stretch="normal"
    units-per-em="1000"
    panose-1="0 0 0 0 0 0 0 0 0 0"
    ascent="750"
    descent="-250"
    x-height="526"
    cap-height="720"
    bbox="-218 -251 991 1052"
    underline-thickness="50"
    underline-position="-50"
    unicode-range="U+0020-U+FB02"
  />
<missing-glyph horiz-adv-x="618" 
d="M37 720h538l-153 -720h-538zM176 200q7 0 9 1l4 2q9 42 26.5 70t38.5 48.5t44.5 37.5t45 37t38 46.5t25.5 66.5q5 24 2 46.5t-16.5 40t-38 27.5t-63.5 10q-28 0 -51 -4t-40 -9q-20 -5 -36 -12q-2 -5 -1 -11t6 -9q13 6 31 10q15 4 36 7t47 3q33 0 53.5 -8t31.5 -22
t13 -32.5t-2 -38.5q-8 -36 -24 -60t-36 -42t-43 -34.5t-44 -38t-38.5 -52.5t-27.5 -77q0 -1 2 -2t8 -1zM179 117q-2 0 -5 1q-2 0 -5.5 0.5t-8.5 0.5t-8.5 -0.5t-5.5 -0.5q-3 -1 -5 -1l-7 -34q1 -1 4 -1q3 -1 14 -1h9t6 1q3 0 5 1z" />
    <glyph glyph-name="fi" unicode="fi" 
d="M395 3q-1 -1 -4 -2t-13 -1t-12 1t-3 2l104 493h-285l-104 -493q-1 -1 -4 -2t-13 -1t-12 1t-3 2l104 493h-64q-1 1 -1 3v4.5t2 7.5q1 7 4 12q1 2 2 3h64l13 60q8 39 22.5 69.5t38.5 51.5t60.5 32t87.5 11q33 0 62.5 -4.5t52.5 -9.5q26 -6 49 -13q0 -8 -4.5 -15.5
t-10.5 -12.5q-20 7 -44 12q-20 5 -47.5 9t-58.5 4q-44 0 -74 -8t-50.5 -24t-32 -40t-18.5 -57l-14 -65h317z" />
    <glyph glyph-name="fl" unicode="fl" horiz-adv-x="556" 
d="M182 496l-104 -493q-1 -1 -4 -2t-13 -1t-12 1t-3 2l104 493h-64q-1 1 -1 3v4.5t2 7.5q1 7 4 12q1 2 2 3h64l13 60q7 36 21.5 66.5t38 52t57.5 33.5t82 12q37 0 69.5 -5.5t56.5 -11.5q28 -8 51 -17l-151 -713q-1 -1 -4 -2t-13 -1t-12 1t-3 2l147 693q-20 8 -57 16t-85 8
q-41 0 -69.5 -8.5t-47.5 -25t-30.5 -40.5t-17.5 -55l-14 -65h134q1 -1 1 -3v-5t-1 -7q-2 -4 -3 -6.5t-2 -4.5q-1 -3 -2 -4h-134z" />
    <glyph glyph-name=".notdef" horiz-adv-x="618" 
d="M37 720h538l-153 -720h-538zM176 200q7 0 9 1l4 2q9 42 26.5 70t38.5 48.5t44.5 37.5t45 37t38 46.5t25.5 66.5q5 24 2 46.5t-16.5 40t-38 27.5t-63.5 10q-28 0 -51 -4t-40 -9q-20 -5 -36 -12q-2 -5 -1 -11t6 -9q13 6 31 10q15 4 36 7t47 3q33 0 53.5 -8t31.5 -22
t13 -32.5t-2 -38.5q-8 -36 -24 -60t-36 -42t-43 -34.5t-44 -38t-38.5 -52.5t-27.5 -77q0 -1 2 -2t8 -1zM179 117q-2 0 -5 1q-2 0 -5.5 0.5t-8.5 0.5t-8.5 -0.5t-5.5 -0.5q-3 -1 -5 -1l-7 -34q1 -1 4 -1q3 -1 14 -1h9t6 1q3 0 5 1z" />
    <glyph glyph-name="A" unicode="A" horiz-adv-x="634" 
d="M476 218h-353l-131 -215q-2 -1 -6 -2t-15 -1q-10 0 -12 1t-3 2l434 714q1 0 4 1q4 2 11 2q6 0 10 -2q2 -1 3 -1l132 -714q-2 -1 -5 -2t-14 -1q-8 0 -11 1t-4 2zM142 250h328l-69 381q-2 9 -3 16t-1 12v10h-2l-5 -10l-7 -12l-9 -16z" />
    <glyph glyph-name="AE" unicode="&#xc6;" horiz-adv-x="846" 
d="M-11 3q-9 -3 -20 -3q-5 0 -10.5 0.5t-7.5 2.5l585 717h335q2 -6 0 -15.5t-7 -16.5h-294l-65 -307h244q5 -17 -7 -32h-244l-67 -317h304q2 -7 0 -16t-7 -16h-338l46 205h-282zM442 237l93 435l-356 -435h263z" />
    <glyph glyph-name="AEacute" unicode="&#x1fc;" horiz-adv-x="846" 
d="M-11 3q-9 -3 -20 -3q-5 0 -10.5 0.5t-7.5 2.5l585 717h335q2 -6 0 -15.5t-7 -16.5h-294l-65 -307h244q5 -17 -7 -32h-244l-67 -317h304q2 -7 0 -16t-7 -16h-336l44 205h-282zM442 237l93 435l-356 -435h263zM672 759q-16 1 -21 14l149 150q21 0 29 -17z" />
    <glyph glyph-name="Aacute" unicode="&#xc1;" horiz-adv-x="634" 
d="M476 218h-353l-131 -215q-2 -1 -5 -2t-16 -1q-10 0 -12 1t-3 2l434 714q1 0 4 1q4 2 11 2q6 0 10 -2q2 -1 3 -1l132 -714q-2 -1 -5 -2t-14 -1q-8 0 -11 1t-4 2zM142 250h328l-69 381q-2 9 -3 16t-1 12v10h-2l-5 -10l-7 -12l-9 -16zM394 758q-18 1 -21 14l149 150
q22 0 28 -17z" />
    <glyph glyph-name="Abreve" unicode="&#x102;" horiz-adv-x="634" 
d="M476 218h-353l-131 -215q-2 -1 -6 -2t-15 -1q-10 0 -12 1t-3 2l434 714q1 0 4 1q4 2 11 2q6 0 10 -2q2 -1 3 -1l132 -714q-2 -1 -5 -2t-14 -1q-8 0 -11 1t-4 2zM142 250h328l-69 381q-2 9 -3 16t-1 12v10h-2l-5 -10l-7 -12l-9 -16zM561 840q-17 -15 -38 -26
q-19 -10 -45 -17.5t-59 -7.5q-34 0 -57.5 7.5t-38.5 17.5q-18 11 -30 26q4 8 8.5 12t13.5 7q12 -12 28 -21q14 -8 33.5 -14.5t45.5 -6.5t48.5 6.5t39.5 14.5q19 9 36 21q15 -4 15 -19z" />
    <glyph glyph-name="Acircumflex" unicode="&#xc2;" horiz-adv-x="634" 
d="M476 218h-353l-131 -215q-2 -1 -6 -2t-15 -1q-10 0 -12 1t-3 2l434 714q1 0 4 1q4 2 11 2q6 0 10 -2q2 -1 3 -1l132 -714q-2 -1 -5 -2t-14 -1q-10 0 -12 1t-3 2zM142 250h328l-69 381q-2 9 -3 16t-1 12v10h-2l-5 -10l-7 -12l-9 -16zM455 893l101 -101q-3 -8 -7 -13
t-11 -7l-102 90l-138 -91q-15 7 -15 21l146 101h26z" />
    <glyph glyph-name="Adieresis" unicode="&#xc4;" horiz-adv-x="634" 
d="M476 218h-353l-131 -215q-2 -1 -5 -2t-16 -1q-10 0 -12 1t-3 2l434 714q1 0 4 1q4 2 11 2q6 0 10 -2q2 -1 3 -1l132 -714q-2 -1 -5 -2t-14 -1q-8 0 -11 1t-4 2zM142 250h328l-69 381q-2 9 -3 16t-1 12v10h-2l-5 -10l-7 -12l-9 -16zM369 773q-2 -1 -6 -2t-18 -1t-18 1
t-6 2l9 42q2 0 6 1q8 2 19 2q6 0 10 -0.5t7 -1.5q4 -1 6 -1zM510 773q-2 -1 -6 -2t-18 -1t-18 1t-6 2l9 42q2 0 6 1q8 2 19 2q6 0 10 -0.5t7 -1.5q4 -1 6 -1z" />
    <glyph glyph-name="Agrave" unicode="&#xc0;" horiz-adv-x="634" 
d="M476 218h-353l-131 -215q-2 -1 -6 -2t-15 -1q-10 0 -12 1t-3 2l434 714q1 0 4 1q4 2 11 2q6 0 10 -2q2 -1 3 -1l132 -714q-2 -1 -5 -2t-14 -1q-10 0 -12 1t-3 2zM142 250h328l-69 381q-2 9 -3 16t-1 12v10h-2l-5 -10l-7 -12l-9 -16zM344 904q6 7 16 12t20 5l85 -150
q-9 -13 -27 -14z" />
    <glyph glyph-name="Amacron" unicode="&#x100;" horiz-adv-x="634" 
d="M476 218h-353l-131 -215q-2 -1 -6 -2t-15 -1q-10 0 -12 1t-3 2l434 714q1 0 4 1q4 2 11 2q6 0 10 -2q2 -1 3 -1l132 -714q-2 -1 -5 -2t-14 -1q-10 0 -12 1t-3 2zM142 250h328l-69 381q-2 9 -3 16t-1 12v10h-2l-5 -10l-7 -12l-9 -16zM283 796q-3 7 0 16q2 9 7 16h267
q3 -5 1 -15l-3.5 -9t-4.5 -8h-267z" />
    <glyph glyph-name="Aogonek" unicode="&#x104;" horiz-adv-x="634" 
d="M341 -195q-4 30 11 60t41 56.5t58 49t63 39.5l-38 208h-353l-131 -215q-2 -1 -6 -2t-15 -1q-10 0 -12 1t-3 2l434 714q1 0 4 1q4 2 11 2q6 0 10 -2q2 -1 3 -1l132 -714l-2 -1q-37 -19 -70 -42t-57.5 -47.5t-37.5 -49.5t-10 -48q2 -16 14.5 -27t37.5 -11q29 0 68 19
q11 -11 8 -25q-15 -9 -37 -15t-45 -6q-29 0 -51.5 13.5t-26.5 41.5zM142 250h328l-69 381q-2 9 -3 16t-1 12v10h-2l-5 -10l-7 -12l-9 -16z" />
    <glyph glyph-name="Aring" unicode="&#xc5;" horiz-adv-x="634" 
d="M550 3q-2 -1 -5 -2t-14 -1q-10 0 -12 1t-3 2l-40 215h-353l-131 -215q-2 -1 -6 -2t-15 -1q-10 0 -12 1t-3 2l422 694q-37 7 -56.5 33t-11.5 71q5 25 18 44.5t30.5 33t39 20t42.5 6.5t40.5 -6.5t33 -19.5t20 -32.5t1.5 -45.5q-8 -46 -40 -73t-73 -32zM437 876
q-41 0 -65 -23t-30 -52t8 -53t55 -24q21 0 37.5 6.5t29 17.5t20.5 25t11 28q7 29 -8.5 52t-57.5 23zM470 250l-69 381q-2 9 -3 16t-1 12v10h-2l-5 -10l-7 -12l-9 -16l-232 -381h328z" />
    <glyph glyph-name="Aringacute" unicode="&#x1fa;" horiz-adv-x="634" 
d="M445 927q-17 2 -21 13l133 112q20 0 27 -13zM439 905q21 0 40.5 -6.5t33 -19.5t20 -32.5t1.5 -45.5q-8 -46 -39.5 -72.5t-72.5 -32.5l128 -693q-2 -1 -5 -2t-14 -1q-8 0 -11 1t-4 2l-40 215h-353l-131 -215q-2 -1 -6 -2t-15 -1q-10 0 -12 1t-3 2l422 694q-17 4 -31 12.5
t-24 21.5t-14 30.5t0 39.5q5 25 18 44.5t30.5 33t39 20t42.5 6.5zM436 876q-41 0 -65 -23t-30 -52t8 -53t55 -24q21 0 37.5 6.5t29 17.5t20.5 25t11 28q7 29 -8.5 52t-57.5 23zM470 250l-69 381q-2 9 -3 16t-1 12v10h-2l-5 -10l-7 -12l-9 -16l-232 -381h328z" />
    <glyph glyph-name="Atilde" unicode="&#xc3;" horiz-adv-x="634" 
d="M476 218h-353l-131 -215q-2 -1 -5 -2t-16 -1q-10 0 -12 1t-3 2l434 714q1 0 4 1q4 2 11 2q6 0 10 -2q2 -1 3 -1l132 -714q-2 -1 -5 -2t-14 -1q-8 0 -11 1t-4 2zM142 250h328l-69 381q-2 9 -3 16t-1 12v10h-2l-5 -10l-7 -12l-9 -16zM478 799q11 0 19 4.5t14 9.5q7 6 12 15
q8 1 14.5 -1.5t9.5 -9.5q-2 -5 -6.5 -12.5t-13.5 -15.5t-22.5 -13.5t-32.5 -5.5q-17 0 -30 5.5t-25 12.5t-24 12.5t-26 5.5q-11 0 -19 -5t-14 -10q-7 -7 -12 -15q-8 -1 -15 4.5t-9 10.5q8 12 19 22q10 8 24.5 15t34.5 7q16 0 29 -5.5t24.5 -12.5t23 -12.5t25.5 -5.5z" />
    <glyph glyph-name="B" unicode="B" horiz-adv-x="628" 
d="M43 0l153 720h232q97 0 135.5 -51.5t18.5 -142.5q-11 -48 -30.5 -79t-40.5 -49t-38.5 -25.5t-23.5 -8.5q1 0 18.5 -7t36 -26.5t29.5 -54.5t-1 -93q-9 -42 -26 -76t-46.5 -58t-73.5 -36.5t-107 -12.5h-236zM151 347l-67 -315h201q50 0 86.5 10.5t61.5 31t40 49.5t23 66
q17 82 -17 120t-128 38h-200zM158 379h193q45 0 79 11.5t57.5 32t38 49t20.5 62.5q14 76 -16.5 115t-116.5 39h-190z" />
    <glyph glyph-name="C" unicode="C" horiz-adv-x="553" 
d="M269 -10q-262 0 -183 376q40 184 123.5 274t216.5 90q41 0 70.5 -5t49.5 -11q23 -7 39 -16v-5q-2 -6 -5 -10q-2 -4 -4 -5.5t-4 -3.5t-4 -3q-16 8 -37 14q-18 5 -45 9.5t-61 4.5q-52 0 -98 -16.5t-85 -55.5t-69.5 -104.5t-51.5 -163.5t-18 -163t25 -103.5t61 -54.5t92 -16
q37 0 67.5 4.5t52.5 9.5q26 6 46 14q1 0 3 -2l2 -4t2 -5q1 -4 0.5 -6.5t-0.5 -4.5q-1 -3 -1 -5q-21 -10 -48 -17q-23 -6 -57 -11t-79 -5z" />
    <glyph glyph-name="nonmarkingreturn" horiz-adv-x="322" 
 />
    <glyph glyph-name="Cacute" unicode="&#x106;" horiz-adv-x="553" 
d="M269 -10q-133 0 -178.5 90.5t-5.5 279.5q40 186 123.5 278t217.5 92q41 0 70.5 -5t49.5 -11q23 -7 39 -16v-5q-2 -6 -5 -10q-2 -4 -4 -5.5t-4 -3.5t-4 -3q-16 8 -37 14q-18 5 -45 9.5t-61 4.5q-52 0 -98 -16.5t-85 -55.5t-69.5 -104.5t-51.5 -163.5t-18 -163t25 -103.5
t61 -54.5t92 -16q37 0 67.5 4.5t52.5 9.5q26 6 46 14q1 0 3 -2l2 -4t2 -5q1 -4 0.5 -6.5t-0.5 -4.5q-1 -3 -1 -5q-21 -10 -48 -17q-23 -6 -57 -11t-79 -5zM403 759q-16 1 -21 14l149 150q21 0 29 -17z" />
    <glyph glyph-name="Ccaron" unicode="&#x10c;" horiz-adv-x="553" 
d="M269 -10q-133 0 -178.5 90.5t-5.5 279.5q40 186 123.5 278t217.5 92q41 0 70.5 -5t49.5 -11q23 -7 39 -16v-5q-2 -6 -5 -10q-2 -4 -4 -5.5t-4 -3.5t-4 -3q-16 8 -37 14q-18 5 -45 9.5t-61 4.5q-52 0 -98 -16.5t-85 -55.5t-69.5 -104.5t-51.5 -163.5t-18 -163t25 -103.5
t61 -54.5t92 -16q37 0 67.5 4.5t52.5 9.5q26 6 46 14q1 0 3 -2l2 -4t2 -5q1 -4 0.5 -6.5t-0.5 -4.5q-1 -3 -1 -5q-21 -10 -48 -17q-23 -6 -57 -11t-79 -5zM420 771l-103 101q4 8 7 13t11 8l101 -91l139 90q6 -2 10.5 -7t4.5 -13l-144 -101h-26z" />
    <glyph glyph-name="Ccedilla" unicode="&#xc7;" horiz-adv-x="552" 
d="M425 730q41 0 70.5 -5t49.5 -11q23 -7 39 -16v-5q-2 -6 -5 -10q-2 -4 -4 -5.5t-4 -3.5t-4 -3q-16 8 -37 14q-18 5 -45 9.5t-61 4.5q-48 0 -94 -16.5t-85.5 -55.5t-71.5 -104.5t-53 -163.5t-18 -163t25 -103.5t61 -54.5t92 -16q37 0 67.5 4.5t52.5 9.5q26 6 46 14
q1 0 3 -2l2 -4t2 -5q1 -4 0.5 -6.5t-0.5 -4.5q-1 -3 -1 -5q-21 -10 -48 -17q-23 -6 -57 -11t-78 -5l-23 -60q59 0 80.5 -25.5t12.5 -65.5q-11 -48 -42.5 -68.5t-87.5 -20.5q-19 0 -34 3t-26 8q-12 5 -22 12q4 14 15 22q9 -5 20 -9q10 -4 23.5 -6.5t30.5 -2.5q38 0 61 16
t31 51q8 32 -8.5 45.5t-51.5 13.5h-31l-5 8l30 80q-232 18 -157 374q40 186 123 275.5t217 89.5z" />
    <glyph glyph-name="Ccircumflex" unicode="&#x108;" horiz-adv-x="553" 
d="M270 -10q-133 0 -178.5 90.5t-5.5 279.5q20 92 49.5 161.5t71 116t96 69.5t124.5 23q41 0 70.5 -5t49.5 -11q23 -7 39 -16v-5q-2 -6 -5 -10q-2 -4 -4 -5.5t-4 -3.5t-4 -3q-16 8 -37 14q-18 5 -45 9.5t-61 4.5q-52 0 -98 -16.5t-85 -55.5t-69.5 -104.5t-51.5 -163.5
t-18 -163t25 -103.5t61 -54.5t92 -16q37 0 67.5 4.5t52.5 9.5q26 6 46 14q1 0 3 -2l2 -4t2 -5q1 -5 0.5 -8.5t-0.5 -5.5q-1 -3 -1 -5q-21 -9 -48 -15q-23 -6 -57 -10.5t-79 -4.5zM480 880l101 -101q-6 -16 -19 -19l-99 90l-142 -92q-13 5 -13 21l146 101h26z" />
    <glyph glyph-name="Cdotaccent" unicode="&#x10a;" horiz-adv-x="553" 
d="M269 -10q-133 0 -178.5 90.5t-5.5 279.5q40 186 123.5 278t217.5 92q41 0 70.5 -5t49.5 -11q23 -7 39 -16v-5q-2 -6 -5 -10q-2 -4 -4 -5.5t-4 -3.5t-4 -3q-16 8 -37 14q-18 5 -45 9.5t-61 4.5q-52 0 -98 -16.5t-85 -55.5t-69.5 -104.5t-51.5 -163.5t-18 -163t25 -103.5
t61 -54.5t92 -16q37 0 67.5 4.5t52.5 9.5q26 6 46 14q1 0 3 -2l2 -4t2 -5q1 -4 0.5 -6.5t-0.5 -4.5q-1 -3 -1 -5q-21 -10 -48 -17q-23 -6 -57 -11t-79 -5zM467 791q-3 -1 -7 -2t-18 -1t-18 1t-5 2l9 42q2 0 6 1q8 2 19 2q6 0 10 -0.5t7 -1.5q4 -1 6 -1z" />
    <glyph glyph-name="D" unicode="D" horiz-adv-x="659" 
d="M223 688l-139 -655h151q63 0 113.5 14.5t90.5 51t69.5 100t50.5 161.5t18 161.5t-27 100.5t-68.5 51.5t-107.5 14.5h-151zM43 0l153 720h183q72 0 123 -17t79.5 -58.5t32 -110.5t-18.5 -174t-53.5 -174t-75 -110.5t-100 -58.5t-128.5 -17h-195z" />
    <glyph glyph-name="Dcaron" unicode="&#x10e;" horiz-adv-x="659" 
d="M375 771l-103 101q4 8 7.5 13t11.5 8l101 -91l139 90q14 -4 14 -20l-144 -101h-26zM223 688l-139 -655h151q63 0 113.5 14.5t90.5 51t69.5 100t50.5 161.5t18 161.5t-27 100.5t-68.5 51.5t-107.5 14.5h-151zM43 0l153 720h183q72 0 123 -17t79.5 -58.5t32 -110.5
t-18.5 -174t-53.5 -174t-75 -110.5t-100 -58.5t-128.5 -17h-195z" />
    <glyph glyph-name="Dcroat" unicode="&#x110;" horiz-adv-x="664" 
d="M384 720q72 0 123 -17t79.5 -58.5t32 -110.5t-18.5 -174t-53.5 -174t-75 -110.5t-100 -58.5t-128.5 -17h-195l73 342h-87q-1 1 -1 4v4.5t1 6.5t2 6.5t2 4.5l2 4h87l74 348h183zM240 32q63 0 113.5 14.5t90.5 51.5t69.5 100.5t50.5 161.5t18 161.5t-27 100.5t-68.5 51.5
t-107.5 14.5h-151l-67 -316h174q1 -2 1 -4q0 -6 -1 -11q-1 -4 -2 -6.5t-2 -4.5q-1 -3 -2 -4h-174l-66 -310h151z" />
    <glyph glyph-name="Delta" unicode="&#x2206;" horiz-adv-x="638" 
d="M-17 0q-10 9 -10 24l421 693q2 0 5 1q6 2 14 2q7 0 13 -2q3 -1 4 -1l122 -693q-7 -14 -20 -24h-549zM517 32l-44 237.5l-42 238.5l-17 95q-4 18 -5.5 32.5t-2.5 25.5q-1 12 -1 22h-2q-4 -9 -10 -21q-5 -11 -13 -25.5t-20 -34.5l-348 -570h505z" />
    <glyph glyph-name="E" unicode="E" horiz-adv-x="555" 
d="M196 720h385q1 -6 0 -16q-3 -11 -7 -16h-351l-65 -307h301q1 -6 0 -15q-3 -10 -7 -16h-301l-67 -318h361q1 -7 0 -15q-3 -10 -7 -17h-395z" />
    <glyph glyph-name="Eacute" unicode="&#xc9;" horiz-adv-x="555" 
d="M196 720h385q1 -6 0 -16q-3 -11 -7 -16h-351l-65 -307h301q1 -6 0 -15q-3 -10 -7 -16h-301l-67 -318h361q1 -7 0 -15q-3 -10 -7 -17h-395zM343 759q-16 1 -21 14l149 150q21 0 29 -17z" />
    <glyph glyph-name="Ebreve" unicode="&#x114;" horiz-adv-x="555" 
d="M196 720h385q1 -6 0 -16q-3 -11 -7 -16h-351l-65 -307h301q1 -6 0 -15q-3 -10 -7 -16h-301l-67 -318h361q1 -7 0 -15q-3 -10 -7 -17h-395zM549 851q-18 -15 -40 -26q-19 -10 -45.5 -17.5t-59.5 -7.5q-34 0 -57 7.5t-38 17.5q-18 11 -28 26q4 8 8.5 12t13.5 7
q12 -12 28 -21q14 -8 33.5 -14.5t45.5 -6.5t48.5 6.5t39.5 14.5q19 9 36 21q15 -4 15 -19z" />
    <glyph glyph-name="Ecaron" unicode="&#x11a;" horiz-adv-x="555" 
d="M196 720h385q1 -6 0 -16q-3 -11 -7 -16h-351l-65 -307h301q1 -6 0 -15q-3 -10 -7 -16h-301l-67 -318h361q1 -7 0 -15q-3 -10 -7 -17h-395zM375 771l-103 101q4 8 7.5 13t11.5 8l100 -91l140 90q14 -4 14 -20l-144 -101h-26z" />
    <glyph glyph-name="Ecircumflex" unicode="&#xca;" horiz-adv-x="555" 
d="M196 720h385q1 -6 0 -16q-3 -11 -7 -16h-351l-65 -307h301q1 -6 0 -15q-3 -10 -7 -16h-301l-67 -318h361q1 -7 0 -15q-3 -10 -7 -17h-395zM434 893l101 -101q-3 -8 -6.5 -13t-10.5 -7l-102 90l-138 -91q-16 7 -16 21l146 101h26z" />
    <glyph glyph-name="Edieresis" unicode="&#xcb;" horiz-adv-x="555" 
d="M196 720h385q1 -6 0 -16q-3 -11 -7 -16h-351l-65 -307h301q1 -6 0 -15q-3 -10 -7 -16h-301l-67 -318h361q1 -7 0 -15q-3 -10 -7 -17h-395zM354 778q-2 -1 -6 -2t-18 -1t-18 1t-6 2l9 42q2 0 6 1q8 2 19 2q6 0 10 -0.5t7 -1.5q4 -1 6 -1zM495 778q-2 -1 -6 -2t-18 -1
t-18 1t-6 2l9 42q2 0 6 1q8 2 19 2q6 0 10 -0.5t7 -1.5q4 -1 6 -1z" />
    <glyph glyph-name="Edotaccent" unicode="&#x116;" horiz-adv-x="555" 
d="M196 720h385q1 -6 0 -16q-3 -11 -7 -16h-351l-65 -307h301q1 -6 0 -15q-3 -10 -7 -16h-301l-67 -318h361q1 -7 0 -15q-3 -10 -7 -17h-395zM431 791q-3 -1 -7 -2t-18 -1t-18 1t-5 2l9 42q2 0 6 1q8 2 19 2q6 0 10 -0.5t7 -1.5q4 -1 6 -1z" />
    <glyph glyph-name="Egrave" unicode="&#xc8;" horiz-adv-x="555" 
d="M196 720h385q1 -6 0 -16q-3 -11 -7 -16h-351l-65 -307h301q1 -6 0 -15q-3 -10 -7 -16h-301l-67 -318h361q1 -7 0 -15q-3 -10 -7 -17h-395zM315 904q6 7 16 12t20 5l85 -150q-9 -13 -27 -14z" />
    <glyph glyph-name="Emacron" unicode="&#x112;" horiz-adv-x="555" 
d="M196 720h385q1 -6 0 -16q-3 -11 -7 -16h-351l-65 -307h301q1 -6 0 -15q-3 -10 -7 -16h-301l-67 -318h361q1 -7 0 -15q-3 -10 -7 -17h-395zM271 796q-3 7 0 16q2 9 7 16h267q3 -5 1 -15l-3.5 -9t-4.5 -8h-267z" />
    <glyph glyph-name="Eng" unicode="&#x14a;" horiz-adv-x="694" 
d="M521 3l-12 -59q-7 -33 -16.5 -59.5t-25 -48t-39.5 -37.5t-60 -27q-11 8 -4 26q24 8 42 19.5t31 28.5t22.5 40.5t16.5 55.5l12 60l-2 1l-238 588l-14 35.5t-9 26.5q-4 12 -6 22h-2l-5 -30q-3 -16 -7 -40.5t-12 -59.5l-116 -542q-2 -1 -5 -2t-13 -1t-12 1t-3 2l151 714
q2 0 6 1q3 1 6.5 1.5t8.5 0.5q6 0 12 -2q3 -1 4 -1l236 -580q8 -18 13.5 -34.5l9.5 -28.5q4 -15 8 -27h2q2 15 5 33q2 16 6 38t10 49l118 550q1 0 4 1q6 2 14 2t12 -2q2 -1 3 -1z" />
    <glyph glyph-name="Eogonek" unicode="&#x118;" horiz-adv-x="555" 
d="M43 0l153 720h385q1 -6 0 -16q-3 -11 -7 -16h-351l-65 -307h301q1 -6 0 -15q-3 -10 -7 -16h-301l-67 -318h361q1 -7 0 -15q-3 -10 -7 -17q-37 -20 -70 -42.5t-57 -46.5t-36.5 -48.5t-9.5 -47.5q2 -16 14.5 -27t37.5 -11q29 0 68 19q11 -11 8 -25q-15 -9 -37 -15t-45 -6
q-29 0 -51.5 13.5t-26.5 41.5q-4 30 10 59t38 54t54 46t58 36h-350z" />
    <glyph glyph-name="Eth" unicode="&#xd0;" horiz-adv-x="664" 
d="M384 720q72 0 123 -17t79.5 -58.5t32 -110.5t-18.5 -174t-53.5 -174t-75 -110.5t-100 -58.5t-128.5 -17h-195l73 342h-87q-1 1 -1 4v4.5t1 6.5t2 6.5t2 4.5l2 4h87l74 348h183zM240 32q63 0 113.5 14.5t90.5 51.5t69.5 100.5t50.5 161.5t18 161.5t-27 100.5t-68.5 51.5
t-107.5 14.5h-151l-67 -316h174q1 -2 1 -4q0 -6 -1 -11q-1 -4 -2 -6.5t-2 -4.5q-1 -3 -2 -4h-174l-66 -310h151z" />
    <glyph glyph-name="Euro" unicode="&#x20ac;" horiz-adv-x="581" 
d="M161 243q-7 -64 0.5 -107t28 -68.5t52 -36.5t72.5 -11q32 0 59 3.5t46 8.5q22 5 40 13q2 -1 3 -2q2 -4 3 -8t0.5 -6t-0.5 -4q-1 -2 -1 -4q-17 -9 -41 -16q-20 -6 -50.5 -10.5t-69.5 -4.5q-103 0 -146.5 62t-29.5 191h-82q-1 1 -1 3t0.5 4.5t2.5 6.5q3 8 6 11l3 3h75
q2 15 4.5 31t6.5 33l7.5 33t8.5 34h-80q-1 1 -1 3q0 3 3 11t6 11l3 3h78q42 125 110.5 187.5t171.5 62.5q38 0 64 -5t43 -10q19 -7 32 -15v-4q-2 -6 -5 -10q-5 -6 -8 -8q-2 -2 -3 -2q-14 7 -32 12q-16 5 -39 9t-53 4q-40 0 -76 -11t-67 -37t-57 -68t-47 -105h279v-3v-4.5
t-2 -6.5q-3 -8 -6 -11l-3 -3h-277l-8 -33l-8 -35q-4 -17 -6.5 -33l-4.5 -30h241v-3v-4t-2 -7t-3 -7t-3 -4l-3 -3h-234z" />
    <glyph glyph-name="F" unicode="F" horiz-adv-x="537" 
d="M149 341l-71 -338q-2 -1 -5 -2t-13 -1q-11 0 -13 1q-3 1 -3 2l152 717h385q1 -1 1 -4q0 -7 -1 -12l-3 -7.5t-2 -4.5q-1 -3 -2 -4h-351l-67 -315h304q1 -1 1 -4q0 -7 -1 -12q-1 -4 -2 -7t-2 -5q-2 -3 -3 -4h-304z" />
    <glyph glyph-name="G" unicode="G" horiz-adv-x="619" 
d="M286 -10q-65 0 -112 22.5t-73.5 68.5t-31 115.5t15.5 163.5q40 186 127 278t219 92q45 0 78.5 -5t56.5 -11q26 -7 45 -16v-5q-2 -6 -5 -10q-2 -4 -4 -5.5t-4 -3.5t-4 -2q-20 7 -45 13q-21 5 -50 9.5t-63 4.5q-51 0 -99 -16.5t-89 -55.5t-73.5 -104.5t-53.5 -163.5
t-16 -163t29 -103.5t65 -54.5t93 -16q51 0 92 7t65 12l64 301h-193q-1 1 -1 4q0 7 1 12t2 7.5t2 4.5l2 4h227l-74 -352q-23 -9 -52 -16q-26 -6 -61 -11t-80 -5z" />
    <glyph glyph-name="Gbreve" unicode="&#x11e;" horiz-adv-x="619" 
d="M598 840q-18 -15 -40 -26q-19 -10 -45.5 -17.5t-59.5 -7.5q-34 0 -57 7.5t-38 17.5q-18 11 -28 26q4 8 7 12t12 7q12 -12 28 -21q14 -8 33.5 -14.5t45.5 -6.5t48.5 6.5t39.5 14.5q19 9 36 21q18 -5 18 -19zM286 -10q-65 0 -112 22.5t-73.5 68.5t-31 115.5t15.5 163.5
q40 186 127 278t219 92q45 0 78.5 -5t56.5 -11q26 -7 45 -16v-5q-2 -6 -5 -10q-2 -4 -4 -5.5t-4 -3.5t-4 -2q-20 7 -45 13q-21 5 -50 9.5t-63 4.5q-51 0 -99 -16.5t-89 -55.5t-73.5 -104.5t-53.5 -163.5t-16 -163t29 -103.5t65 -54.5t93 -16q51 0 92 7t65 12l64 301h-193
q-1 1 -1 4q0 7 1 12t2 7.5t2 4.5l2 4h227l-74 -352q-23 -9 -52 -16q-26 -6 -61 -11t-80 -5z" />
    <glyph glyph-name="Gcircumflex" unicode="&#x11c;" horiz-adv-x="619" 
d="M503 893l101 -101q-3 -8 -7 -13t-11 -7l-102 90l-138 -91q-15 7 -15 21l146 101h26zM286 -10q-65 0 -112 22.5t-73.5 68.5t-31 115.5t15.5 163.5q40 186 127 278t219 92q45 0 78.5 -5t56.5 -11q26 -7 45 -16v-5q-2 -6 -5 -10q-2 -4 -4 -5.5t-4 -3.5t-4 -2q-20 7 -45 13
q-21 5 -50 9.5t-63 4.5q-51 0 -99 -16.5t-89 -55.5t-73.5 -104.5t-53.5 -163.5t-16 -163t29 -103.5t65 -54.5t93 -16q51 0 92 7t65 12l64 301h-193q-1 1 -1 4q0 7 1 12t2 7.5t2 4.5l2 4h227l-74 -352q-23 -9 -52 -16q-26 -6 -61 -11t-80 -5z" />
    <glyph glyph-name="Gcommaaccent" unicode="&#x122;" horiz-adv-x="619" 
d="M286 -10q-65 0 -112 22.5t-73.5 68.5t-31 115.5t15.5 163.5q40 186 127 278t219 92q45 0 78.5 -5t56.5 -11q26 -7 45 -16v-5q-2 -6 -5 -10q-2 -4 -4 -5.5t-4 -3.5t-4 -2q-20 7 -45 13q-21 5 -50 9.5t-63 4.5q-51 0 -99 -16.5t-89 -55.5t-73.5 -104.5t-53.5 -163.5
t-16 -163t29 -103.5t65 -54.5t93 -16q51 0 92 7t65 12l64 301h-193q-1 1 -1 4q0 7 1 12t2 7.5t2 4.5l2 4h227l-74 -352q-23 -9 -52 -16q-26 -6 -61 -11t-80 -5zM211 -183q1 1 7 6t14 15t16.5 24t14.5 32q-11 0 -14 1t-5 2l9 39q3 0 7 1q8 2 19 2t19 -2q4 -1 6 -1l-7 -30
q-5 -25 -17 -43t-24 -31q-14 -15 -30 -26z" />
    <glyph glyph-name="Gdotaccent" unicode="&#x120;" horiz-adv-x="619" 
d="M477 791q-3 -1 -7 -2t-18 -1t-18 1t-5 2l9 42q2 0 6 1q8 2 19 2q6 0 10 -0.5t7 -1.5q4 -1 6 -1zM286 -10q-65 0 -112 22.5t-73.5 68.5t-31 115.5t15.5 163.5q40 186 127 278t219 92q45 0 78.5 -5t56.5 -11q26 -7 45 -16v-5q-2 -6 -5 -10q-2 -4 -4 -5.5t-4 -3.5t-4 -2
q-20 7 -45 13q-21 5 -50 9.5t-63 4.5q-51 0 -99 -16.5t-89 -55.5t-73.5 -104.5t-53.5 -163.5t-16 -163t29 -103.5t65 -54.5t93 -16q51 0 92 7t65 12l64 301h-193q-1 1 -1 4q0 7 1 12t2 7.5t2 4.5l2 4h227l-74 -352q-23 -9 -52 -16q-26 -6 -61 -11t-80 -5z" />
    <glyph glyph-name="H" unicode="H" horiz-adv-x="676" 
d="M621 717q2 0 5 1q6 2 13 2q6 0 12 -2q3 -1 4 -1l-151 -714q-2 -1 -5 -2t-13 -1q-11 0 -13 1t-3 2l74 350h-392l-74 -350q-2 -1 -5 -2t-13 -1q-11 0 -13 1t-3 2l151 714q2 0 5 1q6 2 13 2q6 0 12 -2q3 -1 4 -1l-70 -332h392z" />
    <glyph glyph-name="Hbar" unicode="&#x126;" horiz-adv-x="689" 
d="M704 588q2 -5 0 -14q-2 -8 -6 -14h-70l-118 -557q-2 -1 -5 -2t-13 -1q-11 0 -13 1t-3 2l74 350h-392l-74 -350q-2 -1 -5 -2t-13 -1q-11 0 -13 1t-3 2l118 557h-65q-1 7 0 14q2 8 6 14h65l27 129q2 0 5 1q6 2 13 2q6 0 12 -2q3 -1 4 -1l-27 -129h392l27 129q2 0 5 1
q6 2 13 2q6 0 12 -2q3 -1 4 -1l-27 -129h70zM594 560h-392l-37 -175h392z" />
    <glyph glyph-name="Hcircumflex" unicode="&#x124;" horiz-adv-x="676" 
d="M621 717q2 0 5 1q6 2 13 2q6 0 12 -2q3 -1 4 -1l-151 -714q-2 -1 -5 -2t-13 -1q-11 0 -13 1t-3 2l74 350h-392l-74 -350q-2 -1 -5 -2t-13 -1q-11 0 -13 1t-3 2l151 714q2 0 5 1q6 2 13 2q6 0 12 -2q3 -1 4 -1l-70 -332h392zM483 893l101 -101q-7 -17 -20 -20l-99 90
l-141 -91q-13 6 -13 21l146 101h26z" />
    <glyph glyph-name="I" unicode="I" horiz-adv-x="250" 
d="M195 717q1 0 4 1q6 2 14 2q5 0 7.5 -0.5t4.5 -1.5t4 -1l-151 -714q-2 -1 -5 -2t-13 -1q-11 0 -13 1q-3 1 -3 2z" />
    <glyph glyph-name="IJ" unicode="&#x132;" horiz-adv-x="609" 
d="M195 717q1 0 4 1q6 2 14 2q5 0 7.5 -0.5t4.5 -1.5t4 -1l-151 -714q-2 -1 -5 -2t-13 -1q-11 0 -13 1q-3 1 -3 2zM558 717q1 0 4 1q6 2 14 2q6 0 12 -2q3 -1 4 -1l-119 -563q-18 -85 -62 -124.5t-125 -39.5q-28 0 -51.5 4.5t-40.5 10.5q-20 6 -36 15q3 19 17 28
q17 -8 35 -13q16 -5 37 -9t46 -4q54 0 91.5 28.5t54.5 103.5z" />
    <glyph glyph-name="Iacute" unicode="&#xcd;" horiz-adv-x="250" 
d="M195 717q1 0 4 1q6 2 14 2q5 0 7.5 -0.5t4.5 -1.5t4 -1l-151 -714q-2 -1 -5 -2t-13 -1q-11 0 -13 1q-3 1 -3 2zM176 759q-16 1 -21 14l149 150q21 0 29 -17z" />
    <glyph glyph-name="Ibreve" unicode="&#x12c;" horiz-adv-x="250" 
d="M195 717q1 0 4 1q6 2 14 2q5 0 7.5 -0.5t4.5 -1.5t4 -1l-151 -714q-2 -1 -5 -2t-13 -1q-11 0 -13 1q-3 1 -3 2zM371 840q-18 -15 -40 -26q-19 -10 -45.5 -17.5t-59.5 -7.5q-34 0 -57 7.5t-38 17.5q-18 11 -28 26q4 8 7.5 12t12.5 7q12 -12 28 -21q14 -8 33.5 -14.5
t45.5 -6.5t48.5 6.5t39.5 14.5q19 9 36 21q17 -5 17 -19z" />
    <glyph glyph-name="Icircumflex" unicode="&#xce;" horiz-adv-x="250" 
d="M195 717q1 0 4 1q6 2 14 2q5 0 7.5 -0.5t4.5 -1.5t4 -1l-151 -714q-2 -1 -5 -2t-13 -1q-11 0 -13 1q-3 1 -3 2zM263 893l101 -101q-7 -17 -19 -20l-100 90l-141 -91q-13 6 -13 21l146 101h26z" />
    <glyph glyph-name="Idieresis" unicode="&#xcf;" horiz-adv-x="250" 
d="M195 717q1 0 4 1q6 2 14 2q5 0 7.5 -0.5t4.5 -1.5t4 -1l-151 -714q-2 -1 -5 -2t-13 -1q-11 0 -13 1q-3 1 -3 2zM178 773q-2 -1 -6 -2t-18 -1t-18 1t-6 2l9 42q2 0 6 1q8 2 19 2q6 0 10 -0.5t7 -1.5q4 -1 6 -1zM319 773q-2 -1 -6 -2t-18 -1t-18 1t-6 2l9 42q2 0 6 1
q8 2 19 2q6 0 10 -0.5t7 -1.5q4 -1 6 -1z" />
    <glyph glyph-name="Idotaccent" unicode="&#x130;" horiz-adv-x="250" 
d="M195 717q1 0 4 1q6 2 14 2q5 0 7.5 -0.5t4.5 -1.5t4 -1l-151 -714q-2 -1 -5 -2t-13 -1q-11 0 -13 1q-3 1 -3 2zM252 791q-3 -1 -7 -2t-18 -1t-18 1t-5 2l9 42q2 0 6 1q8 2 19 2q6 0 10 -0.5t7 -1.5q4 -1 6 -1z" />
    <glyph glyph-name="Igrave" unicode="&#xcc;" horiz-adv-x="250" 
d="M195 717q1 0 4 1q6 2 14 2q5 0 7.5 -0.5t4.5 -1.5t4 -1l-151 -714q-2 -1 -5 -2t-13 -1q-11 0 -13 1q-3 1 -3 2zM158 904q6 7 16 12t20 5l85 -150q-9 -13 -27 -14z" />
    <glyph glyph-name="Imacron" unicode="&#x12a;" horiz-adv-x="250" 
d="M195 717q1 0 4 1q6 2 14 2q5 0 7.5 -0.5t4.5 -1.5t4 -1l-151 -714q-2 -1 -5 -2t-13 -1q-11 0 -13 1q-3 1 -3 2zM95 776q-3 6 -1 16q3 10 8 16h251q3 -6 0 -15q-2 -10 -7 -17h-251z" />
    <glyph glyph-name="Iogonek" unicode="&#x12e;" horiz-adv-x="250" 
d="M77 4q-27 -20 -49 -44t-36 -48.5t-20.5 -49.5t-1.5 -46q3 -16 15 -27.5t37 -11.5q29 0 68 19q11 -11 8 -25q-15 -9 -36 -15t-44 -6q-29 0 -52 13.5t-28 41.5t3 56t23.5 54t36.5 50t43 44l151 708q1 0 4 1q6 2 14 2q5 0 7.5 -0.5t4.5 -1.5t4 -1l-152 -713v0z" />
    <glyph glyph-name="Itilde" unicode="&#x128;" horiz-adv-x="250" 
d="M195 717q1 0 4 1q6 2 14 2q5 0 7.5 -0.5t4.5 -1.5t4 -1l-151 -714q-2 -1 -5 -2t-13 -1q-11 0 -13 1q-3 1 -3 2zM285 798q10 0 18 4.5t14 9.5q7 6 12 15q16 2 22 -11q-6 -13 -15 -23q-8 -9 -20.5 -16t-31.5 -7q-18 0 -31.5 5.5t-25.5 12t-24 12t-26 5.5q-11 0 -18.5 -5
t-13.5 -10q-7 -6 -12 -14q-19 -2 -23 11q5 12 15 23q8 8 21 15.5t32 7.5q17 0 31 -5.5t26 -12t24 -12t26 -5.5z" />
    <glyph glyph-name="J" unicode="J" horiz-adv-x="421" 
d="M370 717q1 0 4 1q6 2 14 2q6 0 12 -2q3 -1 4 -1l-119 -563q-18 -85 -62 -124.5t-125 -39.5q-28 0 -51.5 4.5t-40.5 10.5q-20 6 -36 15q3 19 17 28q17 -8 35 -13q16 -5 37 -9t46 -4q54 0 91.5 28.5t54.5 103.5z" />
    <glyph glyph-name="Jcircumflex" unicode="&#x134;" horiz-adv-x="421" 
d="M370 717q1 0 4 1q6 2 14 2q6 0 12 -2q3 -1 4 -1l-119 -563q-18 -85 -62 -124.5t-125 -39.5q-28 0 -51.5 4.5t-40.5 10.5q-20 6 -36 15q3 19 17 28q17 -8 35 -13q16 -5 37 -9t46 -4q54 0 91.5 28.5t54.5 103.5zM438 893l101 -101q-7 -17 -20 -20l-99 90l-141 -91
q-13 6 -13 21l146 101h26z" />
    <glyph glyph-name="K" unicode="K" horiz-adv-x="605" 
d="M160 390h143l298 327q1 0 5 1q3 1 7 1.5t10 0.5q7 0 13 -2q3 -1 5 -1l-312 -346l189 -368q-2 -1 -5 -2q-2 -1 -6 -1h-9q-11 0 -14 1t-5 2l-181 355h-145l-75 -355q-2 -1 -5 -2t-13 -1q-9 0 -12 1t-4 2l151 714q2 0 5 1q6 2 13 2q6 0 12 -2q3 -1 4 -1z" />
    <glyph glyph-name="Kcommaaccent" unicode="&#x136;" horiz-adv-x="605" 
d="M177 -180q9 9 19 21q8 11 16.5 26t14.5 35q-10 0 -13 1t-4 2l9 42q2 0 6 1q8 2 18 2t18 -2q4 -1 6 -1l-7 -32q-6 -26 -17.5 -46t-23.5 -34q-14 -16 -29 -27zM160 390h143l298 327q1 0 5 1q3 1 7 1.5t10 0.5q7 0 13 -2q3 -1 5 -1l-312 -346l189 -368q-2 -1 -5 -2
q-2 -1 -6 -1h-9q-11 0 -14 1t-5 2l-181 355h-145l-75 -355q-2 -1 -5 -2t-13 -1q-9 0 -12 1t-4 2l151 714q2 0 5 1q6 2 13 2q6 0 12 -2q3 -1 4 -1z" />
    <glyph glyph-name="L" unicode="L" horiz-adv-x="498" 
d="M195 717q2 0 5 1q6 2 13 2q5 0 7.5 -0.5t4.5 -1.5t4 -1l-145 -685h331v-4q0 -7 -1 -12q-1 -4 -2 -7t-2 -5q-1 -3 -2 -4h-365z" />
    <glyph glyph-name="Lacute" unicode="&#x139;" horiz-adv-x="498" 
d="M195 717q2 0 5 1q6 2 13 2q5 0 7.5 -0.5t4.5 -1.5t4 -1l-145 -685h331v-4q0 -7 -1 -12q-1 -4 -2 -7t-2 -5q-1 -3 -2 -4h-365zM203 759q-16 1 -21 14l149 150q21 0 29 -17z" />
    <glyph glyph-name="Lcaron" unicode="&#x13d;" horiz-adv-x="499" 
d="M350 566q-14 0 -18 11q38 29 57.5 68t26.5 87q21 6 32 -3q-4 -21 -12.5 -44.5t-21 -45.5t-29 -41t-35.5 -32zM196 717q2 0 5 1q6 2 13 2q5 0 7.5 -0.5t4.5 -1.5t4 -1l-145 -685h331v-4q0 -7 -1 -12q-1 -4 -2 -7t-2 -5q-1 -3 -2 -4h-365z" />
    <glyph glyph-name="Lcommaaccent" unicode="&#x13b;" horiz-adv-x="498" 
d="M195 717q2 0 5 1q6 2 13 2q5 0 7.5 -0.5t4.5 -1.5t4 -1l-145 -685h331v-4q0 -7 -1 -12q-1 -4 -2 -7t-2 -5q-1 -3 -2 -4h-365zM157 -170q9 9 19 21q8 11 16.5 26t14.5 35q-10 0 -13 1t-4 2l9 42q2 0 6 1q8 2 18 2t18 -2q4 -1 6 -1l-7 -32q-6 -26 -17.5 -46t-23.5 -34
q-14 -16 -29 -27z" />
    <glyph glyph-name="Ldot" unicode="&#x13f;" horiz-adv-x="502" 
d="M195 717q2 0 5 1q6 2 13 2q5 0 7.5 -0.5t4.5 -1.5t4 -1l-145 -685h331v-4q0 -7 -1 -12q-1 -4 -2 -7t-2 -5q-1 -3 -2 -4h-365zM381 313q-2 -1 -6 -2t-18 -1t-18 1t-6 2l9 42q2 0 6 1q8 2 19 2q6 0 10 -0.5t7 -1.5q4 -1 6 -1z" />
    <glyph glyph-name="Lslash" unicode="&#x141;" horiz-adv-x="510" 
d="M427 32v-4q0 -7 -1 -12q-1 -4 -2 -7t-2 -5q-1 -3 -2 -4h-365l72 341l-76 -39q-5 3 -8.5 10.5t-1.5 15.5l94 48l72 341q2 0 5 1q6 2 13 2q5 0 7.5 -0.5t4.5 -1.5t4 -1l-68 -322l142 73q12 -7 9 -26l-158 -81l-70 -329h331z" />
    <glyph glyph-name="M" unicode="M" horiz-adv-x="846" 
d="M762 579q5 26 10 44.5l9 32.5q4 15 8 27h-2q-5 -8 -13 -19l-16.5 -21.5l-22.5 -28.5l-324 -407q-2 -1 -5 -2t-12 -1q-8 0 -11 1t-4 2l-142 407q-5 14 -9 27t-6 22l-5 20h-2q-1 -12 -3 -29q-2 -14 -5.5 -35.5t-9.5 -49.5l-120 -566q-1 -1 -4 -2t-13 -1q-11 0 -13 1
q-3 1 -3 2l151 714q2 0 6 1q8 2 17 2t15 -2q3 -1 4 -1l145 -418q5 -13 7.5 -22.5l4.5 -16.5q2 -8 4 -14h2l10 13q5 7 13 16.5l19 23.5l334 418q2 0 6 1q8 2 21 2q6 0 10 -0.5t7 -1.5t5 -1l-151 -714q-2 -1 -5 -2t-13 -1q-11 0 -13 1q-3 1 -3 2z" />
    <glyph glyph-name="N" unicode="N" horiz-adv-x="694" 
d="M248 591l-14 35.5t-9 26.5q-4 12 -6 22h-2l-5 -30q-3 -16 -7 -40.5t-12 -59.5l-116 -542q-2 -1 -5 -2t-13 -1t-12 1t-3 2l151 714q2 0 6 1q3 1 6.5 1.5t8.5 0.5q6 0 12 -2q3 -1 4 -1l236 -580q8 -18 13.5 -34.5l9.5 -28.5q4 -15 8 -27h2q2 15 5 33q2 16 6 38t10 49
l118 550q1 0 4 1q6 2 14 2t12 -2q2 -1 3 -1l-151 -714q-2 -1 -5 -2q-2 -1 -6 -1h-9q-9 0 -12 1t-4 2z" />
    <glyph glyph-name="Nacute" unicode="&#x143;" horiz-adv-x="694" 
d="M438 759q-16 1 -21 14l149 150q21 0 29 -17zM248 591l-14 35.5t-9 26.5q-4 12 -6 22h-2l-5 -30q-3 -16 -7 -40.5t-12 -59.5l-116 -542q-2 -1 -5 -2t-13 -1t-12 1t-3 2l151 714q2 0 6 1q3 1 6.5 1.5t8.5 0.5q6 0 12 -2q3 -1 4 -1l236 -580q8 -18 13.5 -34.5l9.5 -28.5
q4 -15 8 -27h2q2 15 5 33q2 16 6 38t10 49l118 550q1 0 4 1q6 2 14 2t12 -2q2 -1 3 -1l-151 -714q-2 -1 -5 -2q-2 -1 -6 -1h-9q-9 0 -12 1t-4 2z" />
    <glyph glyph-name="Ncaron" unicode="&#x147;" horiz-adv-x="694" 
d="M440 771l-103 101q4 8 8.5 12t12.5 7l99 -89l138 90q6 -2 10.5 -7t4.5 -13l-144 -101h-26zM248 591l-14 35.5t-9 26.5q-4 12 -6 22h-2l-5 -30q-3 -16 -7 -40.5t-12 -59.5l-116 -542q-2 -1 -5 -2t-13 -1t-12 1t-3 2l151 714q2 0 6 1q3 1 6.5 1.5t8.5 0.5q6 0 12 -2
q3 -1 4 -1l236 -580q8 -18 13.5 -34.5l9.5 -28.5q4 -15 8 -27h2q2 15 5 33q2 16 6 38t10 49l118 550q1 0 4 1q6 2 14 2t12 -2q2 -1 3 -1l-151 -714q-2 -1 -5 -2q-2 -1 -6 -1h-9q-9 0 -12 1t-4 2z" />
    <glyph glyph-name="Ncommaaccent" unicode="&#x145;" horiz-adv-x="694" 
d="M212 -180q9 9 19 21q8 11 16.5 26t14.5 35q-10 0 -13 1t-4 2l9 42q2 0 6 1q8 2 18 2t18 -2q4 -1 6 -1l-7 -32q-6 -26 -17.5 -46t-23.5 -34q-14 -16 -29 -27zM248 591l-14 35.5t-9 26.5q-4 12 -6 22h-2l-5 -30q-3 -16 -7 -40.5t-12 -59.5l-116 -542q-2 -1 -5 -2t-13 -1
t-12 1t-3 2l151 714q2 0 6 1q3 1 6.5 1.5t8.5 0.5q6 0 12 -2q3 -1 4 -1l236 -580q8 -18 13.5 -34.5l9.5 -28.5q4 -15 8 -27h2q2 15 5 33q2 16 6 38t10 49l118 550q1 0 4 1q6 2 14 2t12 -2q2 -1 3 -1l-151 -714q-2 -1 -5 -2q-2 -1 -6 -1h-9q-9 0 -12 1t-4 2z" />
    <glyph glyph-name="Ntilde" unicode="&#xd1;" horiz-adv-x="694" 
d="M515 799q11 0 19 4.5t14 9.5q7 6 12 15q8 1 14.5 -1.5t9.5 -9.5q-6 -13 -16 -23q-8 -9 -21.5 -16t-32.5 -7q-18 0 -32 5.5t-26.5 12t-25 12t-26.5 5.5q-11 0 -19 -5t-14 -10q-7 -7 -12 -15q-19 -2 -24 11q6 13 16 24q8 9 21 16.5t33 7.5q18 0 32 -5.5t26.5 -12.5
t25 -12.5t26.5 -5.5zM248 591l-14 35.5t-9 26.5q-4 12 -6 22h-2l-5 -30q-3 -16 -7 -40.5t-12 -59.5l-116 -542q-2 -1 -5 -2t-13 -1t-12 1t-3 2l151 714q2 0 6 1q3 1 6.5 1.5t8.5 0.5q6 0 12 -2q3 -1 4 -1l236 -580q8 -18 13.5 -34.5l9.5 -28.5q4 -15 8 -27h2q2 15 5 33
q2 16 6 38t10 49l118 550q1 0 4 1q6 2 14 2t12 -2q2 -1 3 -1l-151 -714q-2 -1 -5 -2q-2 -1 -6 -1h-9q-9 0 -12 1t-4 2z" />
    <glyph glyph-name="O" unicode="O" horiz-adv-x="677" 
d="M275 -10q-62 0 -107 21.5t-70 66.5t-29 115t16 167t52.5 167t76 115t97 66.5t115.5 21.5t107 -21.5t70 -66.5t28.5 -115t-16.5 -167q-40 -194 -128 -282t-212 -88zM426 700q-54 0 -100.5 -18.5t-85 -59.5t-68.5 -105.5t-51 -156.5q-20 -92 -18 -156.5t23.5 -105.5
t60 -59.5t91.5 -18.5q51 0 97 18.5t84.5 59.5t69 105.5t50.5 156.5q21 92 19 156.5t-22.5 105.5t-59 59.5t-90.5 18.5z" />
    <glyph glyph-name="OE" unicode="&#x152;" horiz-adv-x="826" 
d="M367 0q-15 -4 -36.5 -7t-49.5 -3q-64 0 -110.5 21.5t-72.5 66.5t-30.5 115t16.5 167t55 167t79 115t100.5 66.5t119.5 21.5q26 0 47.5 -3.5t35.5 -6.5h329q1 -6 0 -16q-3 -11 -7 -16h-301l-65 -307h251q1 -6 0 -15q-3 -10 -7 -16h-251l-67 -318h311q1 -7 0 -15
q-3 -10 -7 -17h-340zM120 360q-20 -92 -17.5 -156.5t24 -105.5t62.5 -59.5t98 -18.5q25 0 46.5 4t35.5 9l139 655q-13 5 -31.5 8.5t-44.5 3.5q-54 0 -102.5 -18.5t-88 -59.5t-70.5 -105.5t-51 -156.5z" />
    <glyph glyph-name="Oacute" unicode="&#xd3;" horiz-adv-x="677" 
d="M445 759q-16 1 -21 14l149 150q21 0 29 -17zM275 -10q-62 0 -107 21.5t-70 66.5t-29 115t16 167t52.5 167t76 115t97 66.5t115.5 21.5t107 -21.5t70 -66.5t28.5 -115t-16.5 -167q-40 -194 -128 -282t-212 -88zM426 700q-54 0 -100.5 -18.5t-85 -59.5t-68.5 -105.5
t-51 -156.5q-20 -92 -18 -156.5t23.5 -105.5t60 -59.5t91.5 -18.5q51 0 97 18.5t84.5 59.5t69 105.5t50.5 156.5q21 92 19 156.5t-22.5 105.5t-59 59.5t-90.5 18.5z" />
    <glyph glyph-name="Obreve" unicode="&#x14e;" horiz-adv-x="677" 
d="M589 840q-18 -15 -40 -26q-19 -10 -45.5 -17.5t-59.5 -7.5q-34 0 -57 7.5t-38 17.5q-18 11 -28 26q4 8 8.5 12t13.5 7q10 -12 25 -21q13 -8 32 -14.5t45 -6.5t49 6.5t41 14.5q21 9 39 21q15 -4 15 -19zM275 -10q-62 0 -107 21.5t-70 66.5t-29 115t16 167t52.5 167t76 115
t97 66.5t115.5 21.5t107 -21.5t70 -66.5t28.5 -115t-16.5 -167q-40 -194 -128 -282t-212 -88zM426 700q-54 0 -100.5 -18.5t-85 -59.5t-68.5 -105.5t-51 -156.5q-20 -92 -18 -156.5t23.5 -105.5t60 -59.5t91.5 -18.5q51 0 97 18.5t84.5 59.5t69 105.5t50.5 156.5
q21 92 19 156.5t-22.5 105.5t-59 59.5t-90.5 18.5z" />
    <glyph glyph-name="Ocircumflex" unicode="&#xd4;" horiz-adv-x="677" 
d="M479 893l101 -101q-7 -17 -20 -20l-100 90l-140 -91q-13 6 -13 21l146 101h26zM275 -10q-62 0 -107 21.5t-70 66.5t-29 115t16 167t52.5 167t76 115t97 66.5t115.5 21.5t107 -21.5t70 -66.5t28.5 -115t-16.5 -167q-40 -194 -128 -282t-212 -88zM426 700
q-54 0 -100.5 -18.5t-85 -59.5t-68.5 -105.5t-51 -156.5q-20 -92 -18 -156.5t23.5 -105.5t60 -59.5t91.5 -18.5q51 0 97 18.5t84.5 59.5t69 105.5t50.5 156.5q21 92 19 156.5t-22.5 105.5t-59 59.5t-90.5 18.5z" />
    <glyph glyph-name="Odieresis" unicode="&#xd6;" horiz-adv-x="677" 
d="M390 783q-2 -1 -6 -2t-18 -1t-18 1t-6 2l9 42q2 0 6 1q8 2 19 2q6 0 10 -0.5t7 -1.5q4 -1 6 -1zM531 783q-2 -1 -6 -2t-18 -1t-18 1t-6 2l9 42q2 0 6 1q8 2 19 2q6 0 10 -0.5t7 -1.5q4 -1 6 -1zM275 -10q-62 0 -107 21.5t-70 66.5t-29 115t16 167t52.5 167t76 115
t97 66.5t115.5 21.5t107 -21.5t70 -66.5t28.5 -115t-16.5 -167q-40 -194 -128 -282t-212 -88zM426 700q-54 0 -100.5 -18.5t-85 -59.5t-68.5 -105.5t-51 -156.5q-20 -92 -18 -156.5t23.5 -105.5t60 -59.5t91.5 -18.5q51 0 97 18.5t84.5 59.5t69 105.5t50.5 156.5
q21 92 19 156.5t-22.5 105.5t-59 59.5t-90.5 18.5z" />
    <glyph glyph-name="Ograve" unicode="&#xd2;" horiz-adv-x="677" 
d="M387 904q6 7 16 12t20 5l85 -150q-9 -13 -27 -14zM275 -10q-62 0 -107 21.5t-70 66.5t-29 115t16 167t52.5 167t76 115t97 66.5t115.5 21.5t107 -21.5t70 -66.5t28.5 -115t-16.5 -167q-40 -194 -128 -282t-212 -88zM426 700q-54 0 -100.5 -18.5t-85 -59.5t-68.5 -105.5
t-51 -156.5q-20 -92 -18 -156.5t23.5 -105.5t60 -59.5t91.5 -18.5q51 0 97 18.5t84.5 59.5t69 105.5t50.5 156.5q21 92 19 156.5t-22.5 105.5t-59 59.5t-90.5 18.5z" />
    <glyph glyph-name="Ohungarumlaut" unicode="&#x150;" horiz-adv-x="677" 
d="M358 772q-19 2 -20 13l124 131q23 0 32 -17zM501 772q-17 2 -20 13l125 131q12 0 19.5 -4.5t12.5 -12.5zM275 -10q-62 0 -107 21.5t-70 66.5t-29 115t16 167t52.5 167t76 115t97 66.5t115.5 21.5t107 -21.5t70 -66.5t28.5 -115t-16.5 -167q-40 -194 -128 -282t-212 -88z
M426 700q-54 0 -100.5 -18.5t-85 -59.5t-68.5 -105.5t-51 -156.5q-20 -92 -18 -156.5t23.5 -105.5t60 -59.5t91.5 -18.5q51 0 97 18.5t84.5 59.5t69 105.5t50.5 156.5q21 92 19 156.5t-22.5 105.5t-59 59.5t-90.5 18.5z" />
    <glyph glyph-name="Omacron" unicode="&#x14c;" horiz-adv-x="677" 
d="M304 795q-2 6 -1 13q2 9 7 16h267q3 -5 1 -15q-1 -7 -7 -14h-267zM275 -10q-62 0 -107 21.5t-70 66.5t-29 115t16 167t52.5 167t76 115t97 66.5t115.5 21.5t107 -21.5t70 -66.5t28.5 -115t-16.5 -167q-40 -194 -128 -282t-212 -88zM426 700q-54 0 -100.5 -18.5t-85 -59.5
t-68.5 -105.5t-51 -156.5q-20 -92 -18 -156.5t23.5 -105.5t60 -59.5t91.5 -18.5q51 0 97 18.5t84.5 59.5t69 105.5t50.5 156.5q21 92 19 156.5t-22.5 105.5t-59 59.5t-90.5 18.5z" />
    <glyph glyph-name="Omega" unicode="&#x2126;" horiz-adv-x="711" 
d="M352 0q-3 8 0 17q1 5 2.5 9.5t4.5 8.5q22 16 58.5 46t75 74t71 100.5t47.5 124.5q17 79 12.5 139t-27 100.5t-62.5 60.5t-94 20q-109 0 -191 -80t-116 -240q-15 -68 -6 -124.5t28 -100.5t43 -74t39 -46q3 -7 1 -17t-8 -18h-227q-1 3 -1.5 7t0.5 9q3 10 8 16h179
q-3 2 -24 26.5t-42 68.5t-32 108t6 145q19 92 53.5 158.5t80 109t100 62.5t115.5 20t107 -20t73.5 -62.5t33.5 -109t-13 -158.5q-12 -54 -33.5 -100.5t-47.5 -85t-53.5 -68t-50.5 -50t-38.5 -32t-17.5 -12.5h180q3 -7 0 -16q-1 -9 -7 -16h-227z" />
    <glyph glyph-name="Oslash" unicode="&#xd8;" horiz-adv-x="677" 
d="M594 656q31 -45 37 -117.5t-16 -178.5q-40 -194 -128 -282t-212 -88q-99 0 -151 53l-67 -87q-2 -1 -5 -2q-2 -1 -6 -1h-9q-10 0 -13 1t-4 2l85 111q-29 45 -35 117t15 176q20 97 52.5 167t76 115t97 66.5t115.5 21.5q97 0 148 -50l64 83q1 1 5 2q6 2 15 2t15 -2
q3 -1 3 -2zM426 700q-54 0 -100.5 -18.5t-85 -59.5t-68.5 -105.5t-51 -156.5q-20 -94 -18 -158t25 -105l426 556q-23 25 -54.5 36t-73.5 11zM278 20q51 0 97 18.5t84.5 59.5t69 105.5t50.5 156.5q22 96 19 161.5t-26 106.5l-427 -557q23 -26 56.5 -38.5t76.5 -12.5z" />
    <glyph glyph-name="Oslashacute" unicode="&#x1fe;" horiz-adv-x="677" 
d="M405 764q-16 1 -21 14l159 145q21 0 29 -17zM594 656q31 -45 37 -117.5t-16 -178.5q-40 -194 -128 -282t-212 -88q-99 0 -151 53l-67 -87q-2 -1 -5 -2q-2 -1 -6 -1h-9q-10 0 -13 1t-4 2l85 111q-29 45 -35 117t15 176q20 97 52.5 167t76 115t97 66.5t115.5 21.5
q97 0 148 -50l64 83q1 1 5 2q6 2 15 2t15 -2q3 -1 3 -2zM426 700q-54 0 -100.5 -18.5t-85 -59.5t-68.5 -105.5t-51 -156.5q-20 -94 -18 -158t25 -105l426 556q-23 25 -54.5 36t-73.5 11zM278 20q51 0 97 18.5t84.5 59.5t69 105.5t50.5 156.5q22 96 19 161.5t-26 106.5
l-427 -557q23 -26 56.5 -38.5t76.5 -12.5z" />
    <glyph glyph-name="Otilde" unicode="&#xd5;" horiz-adv-x="677" 
d="M509 809q11 0 19 4.5t14 9.5q7 6 12 15q8 1 14.5 -1.5t9.5 -9.5q-6 -13 -16 -24q-8 -9 -21.5 -16t-32.5 -7q-18 0 -32 5.5t-26.5 12.5t-25 12.5t-26.5 5.5q-11 0 -19 -5t-14 -10q-7 -7 -12 -15q-19 -2 -24 11q6 13 16 24q8 9 21 16.5t33 7.5q18 0 32 -5.5t26.5 -12.5
t25 -12.5t26.5 -5.5zM275 -10q-62 0 -107 21.5t-70 66.5t-29 115t16 167t52.5 167t76 115t97 66.5t115.5 21.5t107 -21.5t70 -66.5t28.5 -115t-16.5 -167q-40 -194 -128 -282t-212 -88zM426 700q-54 0 -100.5 -18.5t-85 -59.5t-68.5 -105.5t-51 -156.5q-20 -92 -18 -156.5
t23.5 -105.5t60 -59.5t91.5 -18.5q51 0 97 18.5t84.5 59.5t69 105.5t50.5 156.5q21 92 19 156.5t-22.5 105.5t-59 59.5t-90.5 18.5z" />
    <glyph glyph-name="P" unicode="P" horiz-adv-x="598" 
d="M143 309l-65 -306q-2 -1 -5 -2t-13 -1q-11 0 -13 1q-3 1 -3 2l152 717h238q46 0 79.5 -15t53.5 -42t25.5 -65t-4.5 -84t-30 -83.5t-50 -64.5t-68.5 -42t-84.5 -15h-212zM149 341h209q75 0 126 46t68 126q17 82 -14 128.5t-106 46.5h-209z" />
    <glyph glyph-name="Q" unicode="Q" horiz-adv-x="677" 
d="M426 730q62 0 107 -21.5t70 -66.5t28.5 -115t-16.5 -167q-25 -121 -67.5 -199t-102.5 -120q22 -29 52.5 -46.5t57.5 -24.5q-7 -20 -28 -30q-31 8 -62 30.5t-50 52.5q-63 -33 -140 -33q-62 0 -107 21.5t-70 66.5t-29 115t16 167t52.5 167t76 115t97 66.5t115.5 21.5z
M121 360q-20 -92 -18 -156.5t23.5 -105.5t60 -59.5t91.5 -18.5q51 0 97 18.5t84.5 59.5t69 105.5t50.5 156.5q21 92 19 156.5t-22.5 105.5t-59 59.5t-90.5 18.5q-54 0 -100.5 -18.5t-85 -59.5t-68.5 -105.5t-51 -156.5z" />
    <glyph glyph-name="R" unicode="R" horiz-adv-x="616" 
d="M429 720q46 0 79.5 -14.5t53 -41t25 -63.5t-3.5 -81q-17 -78 -64.5 -128t-122.5 -62l103 -327l-6 -2q-4 -1 -14 -1q-11 0 -14 1t-5 2l-100 323h-214l-68 -323q-2 -1 -5 -2t-13 -1q-11 0 -13 1q-3 1 -3 2l152 717h233zM357 358q72 0 123.5 43.5t68.5 121.5t-16.5 121.5
t-105.5 43.5h-204l-70 -330h204z" />
    <glyph glyph-name="Racute" unicode="&#x154;" horiz-adv-x="616" 
d="M429 720q46 0 79.5 -14.5t53 -41t25 -63.5t-3.5 -81q-17 -78 -64.5 -128t-122.5 -62l103 -327l-6 -2q-4 -1 -14 -1q-11 0 -14 1t-5 2l-100 323h-214l-68 -323q-2 -1 -5 -2t-13 -1q-11 0 -13 1q-3 1 -3 2l152 717h233zM357 358q72 0 123.5 43.5t68.5 121.5t-16.5 121.5
t-105.5 43.5h-204l-70 -330h204zM349 764q-16 1 -21 14l143 145q21 0 29 -17z" />
    <glyph glyph-name="Rcaron" unicode="&#x158;" horiz-adv-x="616" 
d="M429 720q46 0 79.5 -14.5t53 -41t25 -63.5t-3.5 -81q-17 -78 -64.5 -128t-122.5 -62l103 -327l-6 -2q-4 -1 -14 -1q-11 0 -14 1t-5 2l-100 323h-214l-68 -323q-2 -1 -5 -2t-13 -1q-11 0 -13 1q-3 1 -3 2l152 717h233zM357 358q72 0 123.5 43.5t68.5 121.5t-16.5 121.5
t-105.5 43.5h-204l-70 -330h204zM375 771l-103 101q4 8 7.5 13t11.5 8l101 -91l139 90q14 -4 14 -20l-144 -101h-26z" />
    <glyph glyph-name="Rcommaaccent" unicode="&#x156;" horiz-adv-x="616" 
d="M429 720q46 0 79.5 -14.5t53 -41t25 -63.5t-3.5 -81q-17 -78 -64.5 -128t-122.5 -62l103 -327l-6 -2q-4 -1 -14 -1q-11 0 -14 1t-5 2l-100 323h-214l-68 -323q-2 -1 -5 -2t-13 -1q-11 0 -13 1q-3 1 -3 2l152 717h233zM357 358q72 0 123.5 43.5t68.5 121.5t-16.5 121.5
t-105.5 43.5h-204l-70 -330h204zM187 -170q9 9 19 21q8 11 16.5 26t14.5 35q-10 0 -13 1t-4 2l9 42q2 0 6 1q8 2 18 2t18 -2q4 -1 6 -1l-7 -32q-6 -26 -17.5 -46t-23.5 -34q-14 -16 -29 -27z" />
    <glyph glyph-name="S" unicode="S" horiz-adv-x="560" 
d="M382 699q-100 0 -157 -42.5t-71 -114.5q-9 -44 -0.5 -71.5t30 -45.5t53.5 -29.5t70 -21.5q36 -10 70.5 -23t59 -35t35.5 -56t0 -86q-20 -91 -91 -137.5t-181 -46.5q-45 0 -80.5 5.5t-59.5 12.5q-29 8 -50 19q1 8 5 15.5t11 12.5q24 -9 52 -16q24 -6 56 -11t68 -5
q96 0 158 40.5t79 118.5q9 42 0 69t-29.5 44.5t-50.5 28.5t-63 20q-38 11 -74 24t-62 35t-38 56t-1 87q18 88 86 136t177 48q41 0 73 -3.5t55 -8.5q26 -5 47 -12q-3 -19 -16 -28q-21 6 -47 10q-22 4 -51.5 7.5t-62.5 3.5z" />
    <glyph glyph-name="Sacute" unicode="&#x15a;" horiz-adv-x="559" 
d="M354 765q-16 1 -21 14l143 144q21 0 29 -17zM382 699q-100 0 -157 -42.5t-71 -114.5q-9 -44 -0.5 -71.5t30 -45.5t53.5 -29.5t70 -21.5q36 -10 70.5 -23t58.5 -35t34.5 -56t-0.5 -86q-20 -91 -90 -137.5t-180 -46.5q-45 0 -80.5 5.5t-59.5 12.5q-29 8 -50 19q1 8 5 15.5
t11 12.5q24 -9 52 -16q24 -6 56 -11t68 -5q96 0 158 40.5t79 118.5q9 42 0 69t-29.5 44.5t-50.5 28.5t-63 20q-38 11 -74 24t-62 35t-38 56t-1 87q18 88 86 136t177 48q41 0 73 -3.5t55 -8.5q26 -5 47 -12q-3 -19 -16 -28q-21 6 -47 10q-22 4 -51.5 7.5t-62.5 3.5z" />
    <glyph glyph-name="Scaron" unicode="&#x160;" horiz-adv-x="559" 
d="M380 771l-103 101q4 8 7 12.5t11 7.5l101 -91l139 90q6 -2 10.5 -6.5t4.5 -12.5l-144 -101h-26zM382 699q-100 0 -157 -42.5t-71 -114.5q-9 -44 -0.5 -71.5t30 -45.5t53.5 -29.5t70 -21.5q36 -10 70.5 -23t58.5 -35t34.5 -56t-0.5 -86q-20 -91 -90 -137.5t-180 -46.5
q-45 0 -80.5 5.5t-59.5 12.5q-29 8 -50 19q1 8 5 15.5t11 12.5q24 -9 52 -16q24 -6 56 -11t68 -5q96 0 158 40.5t79 118.5q9 42 0 69t-29.5 44.5t-50.5 28.5t-63 20q-38 11 -74 24t-62 35t-38 56t-1 87q18 88 86 136t177 48q41 0 73 -3.5t55 -8.5q26 -5 47 -12
q-3 -19 -16 -28q-21 6 -47 10q-22 4 -51.5 7.5t-62.5 3.5z" />
    <glyph glyph-name="Scedilla" unicode="&#x15e;" horiz-adv-x="559" 
d="M120 546q18 88 86 136t177 48q41 0 73 -3.5t55 -8.5q26 -5 47 -12q-3 -19 -16 -28q-21 6 -47 10q-22 4 -51.5 7.5t-62.5 3.5q-100 0 -157 -42.5t-71 -114.5q-9 -44 -0.5 -71.5t30 -45.5t53.5 -29.5t70 -21.5q36 -10 70.5 -23t59 -35t35.5 -56t0 -86q-19 -87 -86 -133.5
t-170 -50.5l-20 -55q59 0 79.5 -26t11.5 -68q-11 -48 -42.5 -69.5t-87.5 -21.5q-19 0 -34 3t-26 8q-12 5 -22 12q4 13 16 22q9 -5 20 -9q10 -4 23 -6.5t30 -2.5q38 0 61.5 17.5t31.5 52.5q12 60 -60 60h-31l-6 8l28 75q-42 1 -75 6.5t-56 12.5q-27 8 -47 18q1 8 5 15.5
t11 12.5q24 -9 52 -16q24 -6 56 -11t68 -5q96 0 158 40.5t79 118.5q9 42 0 69t-29.5 44.5t-50.5 28.5t-63 20q-38 11 -74 24t-62 35t-38 56t-1 87z" />
    <glyph glyph-name="Scircumflex" unicode="&#x15c;" horiz-adv-x="560" 
d="M438 893l101 -101q-3 -8 -7 -13t-11 -7l-101 90l-139 -91q-15 7 -15 21l146 101h26zM382 699q-100 0 -157 -42.5t-71 -114.5q-9 -44 -0.5 -71.5t30 -45.5t53.5 -29.5t70 -21.5q36 -10 70.5 -23t59 -35t35.5 -56t0 -86q-20 -91 -91 -137.5t-181 -46.5q-45 0 -80.5 5.5
t-59.5 12.5q-29 8 -50 19q1 8 5 15.5t11 12.5q24 -9 52 -16q24 -6 56 -11t68 -5q96 0 158 40.5t79 118.5q9 42 0 69t-29.5 44.5t-50.5 28.5t-63 20q-38 11 -74 24t-62 35t-38 56t-1 87q18 88 86 136t177 48q41 0 73 -3.5t55 -8.5q26 -5 47 -12q-3 -19 -16 -28q-21 6 -47 10
q-22 4 -51.5 7.5t-62.5 3.5z" />
    <glyph glyph-name="Scommaaccent" unicode="&#x218;" horiz-adv-x="560" 
d="M127 -190q9 9 19 21q8 11 16.5 26t14.5 35q-10 0 -13 1t-4 2l9 42q2 0 6 1q8 2 18 2t18 -2q4 -1 6 -1l-7 -32q-6 -26 -17.5 -46t-23.5 -34q-14 -16 -29 -27zM382 699q-100 0 -157 -42.5t-71 -114.5q-9 -44 -0.5 -71.5t30 -45.5t53.5 -29.5t70 -21.5q36 -10 70.5 -23
t59 -35t35 -56t-0.5 -86q-20 -91 -90.5 -137.5t-180.5 -46.5q-45 0 -80.5 5.5t-59.5 12.5q-29 8 -50 19q1 8 5 15.5t11 12.5q24 -9 52 -16q24 -6 56 -11t68 -5q96 0 158 40.5t79 118.5q9 42 0 69t-29.5 44.5t-50.5 28.5t-63 20q-38 11 -74 24t-62 35t-38 56t-1 87
q18 88 86 136t177 48q41 0 73 -3.5t55 -8.5q26 -5 47 -12q-3 -19 -16 -28q-21 6 -47 10q-22 4 -51.5 7.5t-62.5 3.5z" />
    <glyph glyph-name="T" unicode="T" horiz-adv-x="524" 
d="M578 720q1 -1 1 -3v-5t-1 -7t-2 -7t-2 -5q-2 -3 -3 -4h-209l-145 -686q-2 -1 -5 -2t-13 -1q-11 0 -13 1q-3 1 -3 2l145 686h-214v4q0 7 1 12q1 4 2 6.5t2 4.5l2 4h457z" />
    <glyph glyph-name="Tbar" unicode="&#x166;" horiz-adv-x="537" 
d="M584 720q1 -1 1 -3v-5t-1 -7t-2 -7t-2 -5q-2 -3 -3 -4h-209l-70 -330h130q1 -2 1 -4q0 -6 -1 -11q-1 -3 -2 -5l-2 -4l-2 -4h-130l-69 -328q-2 -1 -5 -2t-13 -1q-11 0 -13 1q-3 1 -3 2l69 328h-130q-1 1 -1 3v4.5t1 5.5q1 4 2 6.5t2 4.5l2 4h130l70 330h-214v4q0 7 1 12
q1 4 2 6.5t2 4.5l2 4h457z" />
    <glyph glyph-name="Tcaron" unicode="&#x164;" horiz-adv-x="524" 
d="M578 720q1 -1 1 -3v-5t-1 -7t-2 -7t-2 -5q-2 -3 -3 -4h-209l-145 -686q-2 -1 -5 -2t-13 -1q-11 0 -13 1q-3 1 -3 2l145 686h-214v4q0 7 1 12q1 4 2 6.5t2 4.5l2 4h457zM348 767l-103 101q4 8 7.5 13t11.5 8l101 -91l139 90q14 -4 14 -20l-144 -101h-26z" />
    <glyph glyph-name="Tcommaaccent" unicode="&#x162;" horiz-adv-x="524" 
d="M578 720q1 -1 1 -3v-5t-1 -7t-2 -7t-2 -5q-2 -3 -3 -4h-209l-145 -686q-2 -1 -5 -2t-13 -1q-11 0 -13 1q-3 1 -3 2l145 686h-214v4q0 7 1 12q1 4 2 6.5t2 4.5l2 4h457zM124 -170q9 9 19 21q8 11 16.5 26t14.5 35q-10 0 -13 1t-4 2l9 42q2 0 6 1q8 2 18 2t18 -2q4 -1 6 -1
l-7 -32q-6 -26 -17.5 -46t-23.5 -34q-14 -16 -29 -27z" />
    <glyph glyph-name="Tcommaaccent" unicode="&#x21a;" horiz-adv-x="524" 
d="M578 720q1 -1 1 -3v-5t-1 -7t-2 -7t-2 -5q-2 -3 -3 -4h-209l-145 -686q-2 -1 -5 -2t-13 -1q-11 0 -13 1q-3 1 -3 2l145 686h-214v4q0 7 1 12q1 4 2 6.5t2 4.5l2 4h457zM124 -170q9 9 19 21q8 11 16.5 26t14.5 35q-10 0 -13 1t-4 2l9 42q2 0 6 1q8 2 18 2t18 -2q4 -1 6 -1
l-7 -32q-6 -26 -17.5 -46t-23.5 -34q-14 -16 -29 -27z" />
    <glyph glyph-name="Thorn" unicode="&#xde;" horiz-adv-x="600" 
d="M114 172l-36 -169q-1 -1 -4 -2t-14 -1t-13 1t-3 2l151 714q1 0 4 1q6 2 14 2q9 0 13 -2q2 -1 3 -1l-31 -146h203q46 0 79.5 -15t54 -42.5t26 -65t-3.5 -82.5q-19 -90 -78 -142t-152 -52h-213zM120 204h209q75 0 125.5 44t67.5 122q17 80 -14.5 124.5t-106.5 44.5h-209z
" />
    <glyph glyph-name="U" unicode="U" horiz-adv-x="665" 
d="M546 222q-24 -112 -96.5 -172t-176.5 -60q-52 0 -92 15.5t-65.5 45t-34 72.5t3.5 99l105 495q2 0 5 1q6 2 13 2q5 0 7.5 -0.5t4.5 -1.5t4 -1l-106 -499q-20 -95 21 -146.5t135 -51.5q93 0 155.5 51.5t82.5 146.5l106 499q2 0 5 1q6 2 12 2t12 -2q3 -1 4 -1z" />
    <glyph glyph-name="Uacute" unicode="&#xda;" horiz-adv-x="665" 
d="M546 222q-24 -112 -96.5 -172t-176.5 -60q-52 0 -92 15.5t-65.5 45t-34 72.5t3.5 99l105 495q2 0 5 1q6 2 13 2q5 0 7.5 -0.5t4.5 -1.5t4 -1l-106 -499q-20 -95 21 -146.5t135 -51.5q93 0 155.5 51.5t82.5 146.5l106 499q2 0 5 1q6 2 12 2t12 -2q3 -1 4 -1zM393 759
q-16 1 -21 14l149 150q21 0 29 -17z" />
    <glyph glyph-name="Ubreve" unicode="&#x16c;" horiz-adv-x="665" 
d="M546 222q-24 -112 -96.5 -172t-176.5 -60q-52 0 -92 15.5t-65.5 45t-34 72.5t3.5 99l105 495q2 0 5 1q6 2 13 2q5 0 7.5 -0.5t4.5 -1.5t4 -1l-106 -499q-20 -95 21 -146.5t135 -51.5q93 0 155.5 51.5t82.5 146.5l106 499q2 0 5 1q6 2 12 2t12 -2q3 -1 4 -1zM577 840
q-17 -15 -38 -26q-18 -10 -44 -18t-59 -8q-34 0 -57.5 8t-39.5 18q-18 11 -30 26q4 8 8.5 12t13.5 7q12 -12 28 -21q14 -8 33.5 -14.5t45.5 -6.5t48.5 6.5t39.5 14.5q19 9 36 21q15 -4 15 -19z" />
    <glyph glyph-name="Ucircumflex" unicode="&#xdb;" horiz-adv-x="665" 
d="M546 222q-24 -112 -97 -172t-177 -60q-52 0 -92 15.5t-65 45t-33.5 72.5t3.5 99l105 495q2 0 5 1q6 2 13 2q5 0 7.5 -0.5t4.5 -1.5t4 -1l-106 -499q-20 -95 21 -146.5t135 -51.5q93 0 155.5 51.5t82.5 146.5l106 499q2 0 5 1q6 2 12 2t12 -2q3 -1 4 -1zM473 893l101 -101
q-3 -8 -6.5 -13t-10.5 -7l-101 91l-139 -92q-16 7 -16 21l146 101h26z" />
    <glyph glyph-name="Udieresis" unicode="&#xdc;" horiz-adv-x="665" 
d="M546 222q-24 -112 -97 -172t-177 -60q-52 0 -92 15.5t-65 45t-33.5 72.5t3.5 99l105 495q2 0 5 1q6 2 13 2q5 0 7.5 -0.5t4.5 -1.5t4 -1l-106 -499q-20 -95 21 -146.5t135 -51.5q93 0 155.5 51.5t82.5 146.5l106 499q2 0 5 1q6 2 12 2t12 -2q3 -1 4 -1zM383 793
q-3 -1 -7 -2t-18 -1t-18 1t-5 2l9 42q2 0 6 1q8 2 19 2q6 0 10 -0.5t7 -1.5q4 -1 6 -1zM524 793q-3 -1 -7 -2t-18 -1t-18 1t-5 2l9 42q2 0 6 1q8 2 19 2q6 0 10 -0.5t7 -1.5q4 -1 6 -1z" />
    <glyph glyph-name="Ugrave" unicode="&#xd9;" horiz-adv-x="665" 
d="M546 222q-24 -112 -96.5 -172t-176.5 -60q-52 0 -92 15.5t-65.5 45t-34 72.5t3.5 99l105 495q2 0 5 1q6 2 13 2q5 0 7.5 -0.5t4.5 -1.5t4 -1l-106 -499q-20 -95 21 -146.5t135 -51.5q93 0 155.5 51.5t82.5 146.5l106 499q2 0 5 1q6 2 12 2t12 -2q3 -1 4 -1zM355 904
q6 7 14.5 11.5t18.5 4.5l85 -150q-5 -6 -10 -9t-14 -4z" />
    <glyph glyph-name="Uhungarumlaut" unicode="&#x170;" horiz-adv-x="665" 
d="M546 222q-24 -112 -96.5 -172t-176.5 -60q-52 0 -92 15.5t-65.5 45t-34 72.5t3.5 99l105 495q2 0 5 1q6 2 13 2q5 0 7.5 -0.5t4.5 -1.5t4 -1l-106 -499q-20 -95 21 -146.5t135 -51.5q93 0 155.5 51.5t82.5 146.5l106 499q2 0 5 1q6 2 12 2t12 -2q3 -1 4 -1zM343 758
q-17 1 -20 14l138 146q24 0 33 -17zM488 758q-17 1 -20 14l138 146q24 0 33 -17z" />
    <glyph glyph-name="Umacron" unicode="&#x16a;" horiz-adv-x="665" 
d="M546 222q-24 -112 -96 -172t-176 -60q-52 0 -92 15.5t-65.5 45t-34.5 72.5t3 99l105 495q2 0 5 1q6 2 13 2q5 0 7.5 -0.5t4.5 -1.5t4 -1l-106 -499q-20 -95 21 -146.5t135 -51.5q93 0 155.5 51.5t82.5 146.5l106 499q2 0 5 1q6 2 12 2t12 -2q3 -1 4 -1zM305 802
q-2 6 -1 15q2 5 3 8t4 7h254q3 -6 0 -14q-1 -8 -6 -16h-254z" />
    <glyph glyph-name="Uogonek" unicode="&#x172;" horiz-adv-x="665" 
d="M546 222q-16 -73 -52.5 -124t-89.5 -78q-35 -20 -68.5 -46.5t-59 -54.5t-40 -55.5t-11.5 -48.5q2 -16 14.5 -27t37.5 -11q29 0 68 19q11 -11 8 -25q-15 -9 -37 -15t-45 -6q-29 0 -51.5 13.5t-26.5 41.5q-3 24 7 49.5t28.5 50t43.5 47.5t51 42q-12 -2 -24.5 -3t-25.5 -1
q-52 0 -92 15.5t-65.5 45t-34 72.5t3.5 99l105 495q2 0 5 1q6 2 13 2q5 0 7.5 -0.5t4.5 -1.5t4 -1l-106 -499q-20 -95 21 -146.5t135 -51.5q93 0 155.5 51.5t82.5 146.5l106 499q2 0 5 1q6 2 12 2t12 -2q3 -1 4 -1z" />
    <glyph glyph-name="Uring" unicode="&#x16e;" horiz-adv-x="665" 
d="M546 222q-24 -112 -97 -172t-177 -60q-52 0 -92 15.5t-65 45t-33.5 72.5t3.5 99l105 495q2 0 5 1q6 2 13 2q5 0 7.5 -0.5t4.5 -1.5t4 -1l-106 -499q-20 -95 21 -146.5t135 -51.5q93 0 155.5 51.5t82.5 146.5l106 499q2 0 5 1q6 2 12 2t12 -2q3 -1 4 -1zM433 769
q-47 0 -74 27.5t-16 78.5q5 25 18 44.5t31.5 33t40 20t42.5 6.5t40 -6.5t32.5 -19.5t19.5 -32.5t1 -45.5q-11 -51 -49.5 -78.5t-85.5 -27.5zM536 875q6 29 -8.5 52t-56.5 23q-41 0 -65.5 -23t-30.5 -52t7.5 -53t54.5 -24q42 0 67.5 24t31.5 53z" />
    <glyph glyph-name="Utilde" unicode="&#x168;" horiz-adv-x="665" 
d="M546 222q-24 -112 -97 -172t-177 -60q-52 0 -92 15.5t-65 45t-33.5 72.5t3.5 99l105 495q2 0 5 1q6 2 13 2q5 0 7.5 -0.5t4.5 -1.5t4 -1l-106 -499q-20 -95 21 -146.5t135 -51.5q93 0 155.5 51.5t82.5 146.5l106 499q2 0 5 1q6 2 12 2t12 -2q3 -1 4 -1zM496 818
q11 0 18.5 4t13.5 9q6 6 12 14q19 2 24 -10q-5 -13 -15 -23q-8 -8 -21.5 -15t-32.5 -7q-18 0 -32 5.5t-26.5 11.5l-25 11.5t-26.5 5.5q-11 0 -19 -5t-14 -10q-7 -6 -12 -14q-19 -2 -24 11q6 12 16 23q8 8 21 15.5t33 7.5q18 0 32 -5.5t26.5 -11.5l25 -11.5t26.5 -5.5z" />
    <glyph glyph-name="V" unicode="V" horiz-adv-x="602" 
d="M239 107q2 -13 2.5 -22.5t1.5 -17.5q1 -9 1 -16h2q3 6 7 15q6 15 20 40l353 611q2 0 6 1q3 1 6.5 1.5t8.5 0.5q9 0 13 -2q2 -1 3 -1l-412 -714l-4 -2q-3 -1 -11 -1t-10 1t-3 2l-110 714q1 0 4 1q6 2 14 2q7 0 11 -2q2 -1 3 -1z" />
    <glyph glyph-name="W" unicode="W" horiz-adv-x="940" 
d="M553 580q-2 22 -2 37.5v26.5q0 12 1 20h-2q-3 -8 -7 -20q-7 -19 -30 -64l-301 -577q-1 -1 -4 -2t-11 -1t-10 1t-3 2l-67 714q1 0 4 1q6 2 14 2q7 0 13 -2q3 -1 4 -1l53 -574q3 -42 3 -67v-25h2l9 25l12 29t18 38l298 574q1 0 3 1q4 2 12 2q7 0 11 -2l2 -1l51 -574
q2 -21 2.5 -38t-0.5 -29q-1 -14 -2 -25h2q3 11 9 25l12.5 29t18.5 38l288 574q1 0 4 1q6 2 16 2q8 0 12 -2q2 -1 3 -1l-358 -714l-4 -2q-3 -1 -11 -1t-10 1t-3 2z" />
    <glyph glyph-name="Wacute" unicode="&#x1e82;" horiz-adv-x="940" 
d="M511 769q-16 1 -21 14l149 150q21 0 29 -17zM553 580q-2 22 -2 37.5v26.5q0 12 1 20h-2q-3 -8 -7 -20q-7 -19 -30 -64l-301 -577q-1 -1 -4 -2t-11 -1t-10 1t-3 2l-67 714q1 0 4 1q6 2 14 2q7 0 13 -2q3 -1 4 -1l53 -574q3 -42 3 -67v-25h2l9 25l12 29t18 38l298 574
q1 0 3 1q4 2 12 2q7 0 11 -2l2 -1l51 -574q2 -21 2.5 -38t-0.5 -29q-1 -14 -2 -25h2q3 11 9 25l12.5 29t18.5 38l288 574q1 0 4 1q6 2 16 2q8 0 12 -2q2 -1 3 -1l-358 -714l-4 -2q-3 -1 -11 -1t-10 1t-3 2z" />
    <glyph glyph-name="Wcircumflex" unicode="&#x174;" horiz-adv-x="940" 
d="M612 893l101 -101q-3 -8 -6.5 -13t-10.5 -7l-102 90l-138 -91q-16 7 -16 21l146 101h26zM553 580q-2 22 -2 37.5v26.5q0 12 1 20h-2q-3 -8 -7 -20q-7 -19 -30 -64l-301 -577q-1 -1 -4 -2t-11 -1t-10 1t-3 2l-67 714q1 0 4 1q6 2 14 2q7 0 13 -2q3 -1 4 -1l53 -574
q3 -42 3 -67v-25h2l9 25l12 29t18 38l298 574q1 0 3 1q4 2 12 2q7 0 11 -2l2 -1l51 -574q2 -21 2.5 -38t-0.5 -29q-1 -14 -2 -25h2q3 11 9 25l12.5 29t18.5 38l288 574q1 0 4 1q6 2 16 2q8 0 12 -2q2 -1 3 -1l-358 -714l-4 -2q-3 -1 -11 -1t-10 1t-3 2z" />
    <glyph glyph-name="Wdieresis" unicode="&#x1e84;" horiz-adv-x="940" 
d="M527 797q-2 -1 -6 -2t-18 -1t-18 1t-6 2l9 42q2 0 6 1q8 2 19 2q6 0 10 -0.5t7 -1.5q4 -1 6 -1zM668 797q-2 -1 -6 -2t-18 -1t-18 1t-6 2l9 42q2 0 6 1q8 2 19 2q6 0 10 -0.5t7 -1.5q4 -1 6 -1zM553 580q-2 22 -2 37.5v26.5q0 12 1 20h-2q-3 -8 -7 -20q-7 -19 -30 -64
l-301 -577q-1 -1 -4 -2t-11 -1t-10 1t-3 2l-67 714q1 0 4 1q6 2 14 2q7 0 13 -2q3 -1 4 -1l53 -574q3 -42 3 -67v-25h2l9 25l12 29t18 38l298 574q1 0 3 1q4 2 12 2q7 0 11 -2l2 -1l51 -574q2 -21 2.5 -38t-0.5 -29q-1 -14 -2 -25h2q3 11 9 25l12.5 29t18.5 38l288 574
q1 0 4 1q6 2 16 2q8 0 12 -2q2 -1 3 -1l-358 -714l-4 -2q-3 -1 -11 -1t-10 1t-3 2z" />
    <glyph glyph-name="Wgrave" unicode="&#x1e80;" horiz-adv-x="940" 
d="M487 904q5 8 14.5 14t19.5 7l100 -140q-8 -14 -26 -17zM553 580q-2 22 -2 37.5v26.5q0 12 1 20h-2q-3 -8 -7 -20q-7 -19 -30 -64l-301 -577q-1 -1 -4 -2t-11 -1t-10 1t-3 2l-67 714q1 0 4 1q6 2 14 2q7 0 13 -2q3 -1 4 -1l53 -574q3 -42 3 -67v-25h2l9 25l12 29t18 38
l298 574q1 0 3 1q4 2 12 2q7 0 11 -2l2 -1l51 -574q2 -21 2.5 -38t-0.5 -29q-1 -14 -2 -25h2q3 11 9 25l12.5 29t18.5 38l288 574q1 0 4 1q6 2 16 2q8 0 12 -2q2 -1 3 -1l-358 -714l-4 -2q-3 -1 -11 -1t-10 1t-3 2z" />
    <glyph glyph-name="X" unicode="X" horiz-adv-x="587" 
d="M330 369l160 -366q-2 -1 -6 -2t-16 -1q-11 0 -14 1t-4 2l-149 341l-285 -341l-8 -2q-5 -1 -18 -1q-11 0 -14 1t-4 2l307 365l-151 349q2 0 6 1q3 1 7 1.5t10 0.5t12 -2q3 -1 4 -1l140 -325l281 325q2 0 6 1q8 2 19 2q9 0 15 -2q3 -1 5 -1z" />
    <glyph glyph-name="Y" unicode="Y" horiz-adv-x="606" 
d="M111 717q2 0 6 1q8 2 16 2q6 0 12 -2q3 -1 4 -1l158 -375l324 375q2 0 6 1q8 2 17 2q10 0 16 -2q3 -1 4 -1l-355 -412l-64 -302q-2 -1 -5 -2t-13 -1q-9 0 -12 1t-4 2l64 301l-174 413v0z" />
    <glyph glyph-name="Yacute" unicode="&#xdd;" horiz-adv-x="606" 
d="M111 717q2 0 6 1q8 2 16 2q7 0 13 -2q3 -1 4 -1l158 -375l324 375q1 0 5 1q6 2 17 2q10 0 16 -2q3 -1 4 -1l-355 -412l-64 -302q-2 -1 -5 -2t-13 -1q-9 0 -12 1t-4 2l64 301zM353 745q-16 1 -21 14l149 150q21 0 29 -17z" />
    <glyph glyph-name="Ycircumflex" unicode="&#x176;" horiz-adv-x="606" 
d="M111 717q2 0 6 1q8 2 16 2q6 0 12 -2q3 -1 4 -1l158 -375l324 375q1 0 5 1q3 1 7 1.5t11 0.5q10 0 16 -2q3 -1 4 -1l-355 -412l-64 -302q-2 -1 -5 -2t-13 -1q-9 0 -12 1t-4 2l64 301zM448 893l101 -101q-3 -8 -6.5 -13t-10.5 -7l-102 90l-138 -91q-16 7 -16 21l146 101
h26z" />
    <glyph glyph-name="Ydieresis" unicode="&#x178;" horiz-adv-x="606" 
d="M111 717q2 0 6 1q8 2 16 2q6 0 12 -2q3 -1 4 -1l158 -375l324 375q1 0 5 1q3 1 7 1.5t11 0.5q10 0 16 -2q3 -1 4 -1l-355 -412l-64 -302q-2 -1 -5 -2t-13 -1q-9 0 -12 1t-4 2l64 301zM354 784q-2 -1 -6 -2t-18 -1t-18 1t-6 2l9 42q2 0 6 1q8 2 19 2q6 0 10 -0.5t7 -1.5
q4 -1 6 -1zM495 784q-2 -1 -6 -2t-18 -1t-18 1t-6 2l9 42q2 0 6 1q8 2 19 2q6 0 10 -0.5t7 -1.5q4 -1 6 -1z" />
    <glyph glyph-name="Ygrave" unicode="&#x1ef2;" horiz-adv-x="606" 
d="M111 717q2 0 6 1q8 2 16 2q6 0 12 -2q3 -1 4 -1l158 -375l324 375q1 0 5 1q3 1 7 1.5t11 0.5q10 0 16 -2q3 -1 4 -1l-355 -412l-64 -302q-2 -1 -5 -2t-13 -1q-9 0 -12 1t-4 2l64 301zM315 904q6 7 14 11.5t18 4.5l85 -150q-5 -6 -9.5 -9t-13.5 -4z" />
    <glyph glyph-name="Z" unicode="Z" horiz-adv-x="570" 
d="M598 720q1 -1 1 -4q0 -7 -1 -12q-2 -4 -3 -7t-2 -5q-1 -3 -2 -4l-568 -656h442q1 -1 1 -4q0 -2 -2 -12q-1 -5 -2 -7.5t-2 -4.5q-1 -3 -2 -4h-479q-1 1 -1 4v4.5t1 7.5q2 9 4 12q1 3 3 4l566 656h-400q-1 1 -1 4v4.5t2 7.5q1 4 2 7t2 5q1 3 2 4h439z" />
    <glyph glyph-name="Zacute" unicode="&#x179;" horiz-adv-x="570" 
d="M598 720q1 -1 1 -4q0 -7 -1 -12q-2 -4 -3 -7t-2 -5q-1 -3 -2 -4l-565 -656h439q1 -1 1 -4q0 -2 -2 -12q-1 -5 -2 -7.5t-2 -4.5q-1 -3 -2 -4h-479q-1 1 -1 4v4.5t1 7.5q2 9 4 12q1 3 3 4l566 656h-400q-1 1 -1 4v4.5t2 7.5q1 4 2 7t2 5q1 3 2 4h439zM354 759q-16 1 -21 14
l149 150q21 0 29 -17z" />
    <glyph glyph-name="Zcaron" unicode="&#x17d;" horiz-adv-x="570" 
d="M598 720q1 -1 1 -4q0 -7 -1 -12q-2 -4 -3 -7t-2 -5q-1 -3 -2 -4l-565 -656h439q1 -1 1 -4q0 -2 -2 -12q-1 -5 -2 -7.5t-2 -4.5q-1 -3 -2 -4h-479q-1 1 -1 4v4.5t1 7.5q2 9 4 12q1 3 3 4l566 656h-400q-1 1 -1 4v4.5t2 7.5q1 4 2 7t2 5q1 3 2 4h439zM376 771l-103 101
q4 8 7.5 13t11.5 8l101 -91l139 90q14 -4 14 -20l-144 -101h-26z" />
    <glyph glyph-name="Zdotaccent" unicode="&#x17b;" horiz-adv-x="570" 
d="M598 720q1 -1 1 -4q0 -7 -1 -12q-2 -4 -3 -7t-2 -5q-1 -3 -2 -4l-565 -656h439q1 -1 1 -4q0 -2 -2 -12q-1 -5 -2 -7.5t-2 -4.5q-1 -3 -2 -4h-479q-1 1 -1 4v4.5t1 7.5q2 9 4 12q1 3 3 4l566 656h-400q-1 1 -1 4v4.5t2 7.5q1 4 2 7t2 5q1 3 2 4h439zM421 825q-3 -1 -7 -2
t-18 -1t-18 1t-5 2l9 42q2 0 6 1q8 2 19 2q6 0 10 -0.5t7 -1.5q4 -1 6 -1z" />
    <glyph glyph-name="_0020" horiz-adv-x="0" 
 />
    <glyph glyph-name="_375" horiz-adv-x="646" 
d="M-104 0q-10 9 -10 24l421 693q2 0 5 1q6 2 14 2q7 0 13 -2q3 -1 4 -1l122 -693q-7 -14 -20 -24h-549zM430 32l-44 237.5l-42 238.5l-17 95q-4 18 -5.5 32.5t-2.5 25.5q-1 12 -1 22h-2q-4 -9 -10 -21q-5 -11 -13 -25.5t-20 -34.5l-348 -570h505z" />
    <glyph glyph-name="_376" horiz-adv-x="700" 
d="M257 0q-3 8 0 17q1 5 2.5 9.5t4.5 8.5q22 16 58.5 46t75 74t71 100.5t47.5 124.5q17 79 12.5 139t-27 100.5t-62.5 60.5t-94 20q-109 0 -191 -80t-116 -240q-15 -68 -6 -124.5t28 -100.5t43 -74t39 -46q3 -7 1 -17t-8 -18h-227q-1 3 -1.5 7t0.5 9q3 10 8 16h179
q-3 2 -24 26.5t-42 68.5t-32 108t6 145q19 92 53.5 158.5t80 109t100 62.5t115.5 20t107 -20t73.5 -62.5t33.5 -109t-13 -158.5q-12 -54 -33.5 -100.5t-47.5 -85t-53.5 -68t-50.5 -50t-38.5 -32t-17.5 -12.5h180q3 -7 0 -16q-1 -9 -7 -16h-227z" />
    <glyph glyph-name="a" unicode="a" 
d="M481 523l2 1q4 2 12 2q7 0 11 -2q2 -1 3 -1l-110 -520l-4 -2q-2 -1 -10 -1q-7 0 -9 1t-3 2l13 87q-32 -47 -78 -73.5t-111 -26.5q-44 0 -77 14t-52.5 46t-22.5 84t13 129q16 76 41 128.5t57 84.5t71.5 46t85.5 14q59 0 97 -27.5t49 -72.5zM436 326q7 31 4 63t-17.5 58
t-40.5 42.5t-63 16.5q-92 0 -145 -57.5t-82 -185.5t-1.5 -185.5t116.5 -57.5q40 0 73.5 16.5t59 42.5t43 58t24.5 63z" />
    <glyph glyph-name="aacute" unicode="&#xe1;" 
d="M293 606q-18 1 -21 14l149 150q20 0 28 -17zM482 526l2 1q4 2 12 2q7 0 11 -2q2 -1 3 -1l-111 -523l-4 -2q-2 -1 -10 -1q-7 0 -9 1t-3 2l13 87q-32 -47 -78 -73.5t-111 -26.5q-44 0 -77 14t-52.5 46t-22.5 84t13 129q16 76 41 128.5t57 84.5t71.5 46t85.5 14
q59 0 97 -27.5t49 -72.5zM436 326q7 31 4 63t-17.5 58t-40.5 42.5t-63 16.5q-92 0 -145 -57.5t-82 -185.5t-1.5 -185.5t116.5 -57.5q40 0 73.5 16.5t59 42.5t43 58t24.5 63z" />
    <glyph glyph-name="abreve" unicode="&#x103;" 
d="M492 688q-16 -16 -36 -27q-17 -11 -42.5 -19t-57.5 -8t-55.5 8t-38.5 19q-18 11 -30 27q4 8 8.5 12t13.5 7q11 -12 26 -22q13 -8 32 -14.5t45 -6.5q25 0 47 6.5t39 14.5q19 10 35 22q9 -2 12 -6.5t2 -12.5zM482 526l2 1q4 2 12 2q7 0 11 -2q2 -1 3 -1l-111 -523l-4 -2
q-2 -1 -10 -1q-7 0 -9 1t-3 2l13 87q-32 -47 -78 -73.5t-111 -26.5q-44 0 -77 14t-52.5 46t-22.5 84t13 129q16 76 41 128.5t57 84.5t71.5 46t85.5 14q59 0 97 -27.5t49 -72.5zM436 326q7 31 4 63t-17.5 58t-40.5 42.5t-63 16.5q-92 0 -145 -57.5t-82 -185.5t-1.5 -185.5
t116.5 -57.5q40 0 73.5 16.5t59 42.5t43 58t24.5 63z" />
    <glyph glyph-name="acircumflex" unicode="&#xe2;" 
d="M383 721l98 -99q-3 -7 -6 -12t-11 -7l-97 88l-138 -89q-15 7 -15 20l144 99h25zM482 526l2 1q4 2 12 2q7 0 11 -2q2 -1 3 -1l-111 -523l-4 -2q-2 -1 -10 -1q-7 0 -9 1t-3 2l13 87q-32 -47 -78 -73.5t-111 -26.5q-44 0 -77 14t-52.5 46t-22.5 84t13 129q16 76 41 128.5
t57 84.5t71.5 46t85.5 14q59 0 97 -27.5t49 -72.5zM436 326q7 31 4 63t-17.5 58t-40.5 42.5t-63 16.5q-92 0 -145 -57.5t-82 -185.5t-1.5 -185.5t116.5 -57.5q40 0 73.5 16.5t59 42.5t43 58t24.5 63z" />
    <glyph glyph-name="acute" unicode="&#xb4;" horiz-adv-x="224" 
d="M41 643q-18 1 -21 14l148 150q21 0 29 -17z" />
    <glyph glyph-name="adieresis" unicode="&#xe4;" 
d="M303 639q-3 -1 -7 -2t-18 -1t-18 1t-5 2l9 42q2 0 6 1q8 2 18 2t18 -2q4 -1 6 -1zM444 639q-3 -1 -7 -2t-18 -1t-18 1t-5 2l9 42q2 0 6 1q8 2 18 2t18 -2q4 -1 6 -1zM482 526l2 1q4 2 12 2q7 0 11 -2q2 -1 3 -1l-111 -523l-4 -2q-2 -1 -10 -1q-7 0 -9 1t-3 2l13 87
q-32 -47 -78 -73.5t-111 -26.5q-44 0 -77 14t-52.5 46t-22.5 84t13 129q16 76 41 128.5t57 84.5t71.5 46t85.5 14q59 0 97 -27.5t49 -72.5zM436 326q7 31 4 63t-17.5 58t-40.5 42.5t-63 16.5q-92 0 -145 -57.5t-82 -185.5t-1.5 -185.5t116.5 -57.5q40 0 73.5 16.5t59 42.5
t43 58t24.5 63z" />
    <glyph glyph-name="ae" unicode="&#xe6;" horiz-adv-x="804" 
d="M634 536q42 0 70 -14t43 -38.5t17.5 -58.5t-5.5 -73q-5 -20 -10 -36.5t-10 -28.5q-5 -14 -11 -26h-303q-21 -122 4 -180.5t100 -58.5q29 0 52 5.5t40 13.5q18 9 33 20q14 -8 12 -25q-17 -13 -39 -23q-19 -9 -46.5 -16t-62.5 -7q-109 0 -127 108l-20 -95l-4 -2
q-2 -1 -10 -1q-7 0 -9 1t-3 2l16 85q-30 -47 -70 -72.5t-105 -25.5q-39 0 -70 14t-49.5 46t-21.5 84t13 129q16 76 41.5 128.5t57.5 84.5t69 46t76 14q32 0 54.5 -7t37.5 -19.5t24.5 -31.5t15.5 -43l20 91l2 1q4 2 12 2q7 0 11 -2q2 -1 3 -1l-21 -96q35 53 79 79.5t94 26.5z
M410 326q6 29 5.5 60.5t-12 58t-35.5 44t-64 17.5q-80 0 -132.5 -57t-79.5 -186q-27 -128 0.5 -185.5t107.5 -57.5q40 0 71 16.5t54 42.5t37.5 58t20.5 63zM707 291l6 15q2 8 5.5 20.5t7.5 30.5q6 30 5 57t-12 47.5t-33 32.5t-58 12q-31 0 -60 -11.5t-54.5 -37.5t-46.5 -67
t-35 -99h275z" />
    <glyph glyph-name="aeacute" unicode="&#x1fd;" horiz-adv-x="804" 
d="M443 600q-17 2 -21 13l147 147q21 0 28 -16zM634 536q42 0 70 -14t43 -38.5t17.5 -58.5t-5.5 -73q-5 -20 -10 -36.5t-10 -28.5q-5 -14 -11 -26h-303q-21 -122 4 -180.5t100 -58.5q29 0 52 5.5t40 13.5q18 9 33 20q14 -8 12 -25q-17 -13 -39 -23q-19 -9 -46.5 -16
t-62.5 -7q-109 0 -127 108l-20 -95l-4 -2q-2 -1 -10 -1q-7 0 -9 1t-3 2l16 85q-30 -47 -70 -72.5t-105 -25.5q-39 0 -70 14t-49.5 46t-21.5 84t13 129q16 76 41.5 128.5t57.5 84.5t69 46t76 14q32 0 54.5 -7t37.5 -19.5t24.5 -31.5t15.5 -43l20 91l2 1q4 2 12 2q7 0 11 -2
q2 -1 3 -1l-21 -96q35 53 79 79.5t94 26.5zM410 326q6 29 5.5 60.5t-12 58t-35.5 44t-64 17.5q-80 0 -132.5 -57t-79.5 -186q-27 -128 0.5 -185.5t107.5 -57.5q40 0 71 16.5t54 42.5t37.5 58t20.5 63zM707 291l6 15q2 8 5.5 20.5t7.5 30.5q6 30 5 57t-12 47.5t-33 32.5
t-58 12q-31 0 -60 -11.5t-54.5 -37.5t-46.5 -67t-35 -99h275z" />
    <glyph glyph-name="afii10017" unicode="&#x410;" horiz-adv-x="634" 
d="M476 218h-353l-131 -215q-2 -1 -6 -2t-15 -1q-10 0 -12 1t-3 2l434 714q1 0 4 1q4 2 11 2q6 0 10 -2q2 -1 3 -1l132 -714q-2 -1 -5 -2t-14 -1q-8 0 -11 1t-4 2zM142 250h328l-69 381q-2 9 -3 16t-1 12v10h-2l-5 -10l-7 -12l-9 -16z" />
    <glyph glyph-name="afii10018" unicode="&#x411;" horiz-adv-x="609" 
d="M223 688l-61 -290h208q46 0 80.5 -14t55.5 -40.5t27.5 -63t-2.5 -81.5q-20 -91 -82 -145t-154 -54h-252l153 720h372q1 -1 1 -4q0 -7 -1 -12q-2 -4 -3 -7t-2 -5q-1 -3 -2 -4h-338zM294 31q81 0 133 46.5t68 122.5q17 77 -16 122t-114 45h-210l-71 -336h210z" />
    <glyph glyph-name="afii10019" unicode="&#x412;" horiz-adv-x="628" 
d="M43 0l153 720h232q97 0 135.5 -51.5t18.5 -142.5q-11 -48 -30.5 -79t-40.5 -49t-38.5 -25.5t-23.5 -8.5q1 0 18.5 -7t36 -26.5t29.5 -54.5t-1 -93q-9 -42 -26 -76t-46.5 -58t-73.5 -36.5t-107 -12.5h-236zM151 347l-67 -315h201q50 0 86.5 10.5t61.5 31t40 49.5t23 66
q17 82 -17 120t-128 38h-200zM158 379h193q45 0 79 11.5t57.5 32t38 49t20.5 62.5q14 76 -16.5 115t-116.5 39h-190z" />
    <glyph glyph-name="afii10020" unicode="&#x413;" horiz-adv-x="496" 
d="M196 720h355q1 -1 1 -4q0 -7 -1 -12q-1 -4 -2 -6.5t-2 -4.5q-2 -3 -3 -5h-321l-145 -685q-2 -1 -5 -2t-13 -1q-9 0 -12 1t-4 2z" />
    <glyph glyph-name="afii10021" unicode="&#x414;" horiz-adv-x="669" 
d="M524 -138q-2 -1 -5 -2t-12 -1t-12 1t-4 2l29 138h-533l-29 -138q-2 -1 -5 -2t-13 -1q-9 0 -11 1q-3 1 -4 2l36 170h63q47 51 83 135.5t69 199.5l102 353h350l-146 -688h78zM208 361q-32 -112 -68.5 -197.5t-77.5 -131.5h386l139 657h-286z" />
    <glyph glyph-name="afii10022" unicode="&#x415;" horiz-adv-x="555" 
d="M196 720h385q1 -6 0 -16q-3 -11 -7 -16h-351l-65 -307h301q1 -6 0 -15q-3 -10 -7 -16h-301l-67 -318h361q1 -7 0 -15q-3 -10 -7 -17h-395z" />
    <glyph glyph-name="afii10023" unicode="&#x401;" horiz-adv-x="555" 
d="M365 789q-3 -1 -7 -2t-18 -1t-18 1t-5 2l9 42q2 0 6 1q8 2 18 2t18 -2q4 -1 6 -1zM506 789q-3 -1 -7 -2t-18 -1t-18 1t-5 2l9 42q2 0 6 1q8 2 18 2t18 -2q4 -1 6 -1zM196 720h385q1 -6 0 -16q-3 -11 -7 -16h-351l-65 -307h301q1 -6 0 -15q-3 -10 -7 -16h-301l-67 -318
h361q1 -7 0 -15q-3 -10 -7 -17h-395z" />
    <glyph glyph-name="afii10024" unicode="&#x416;" horiz-adv-x="945" 
d="M545 717q2 0 5 1q6 2 13 2q6 0 12 -2q3 -1 4 -1l-69 -328h157l273 328q1 0 5 1q8 2 18 2q7 0 13 -2q3 -1 4 -1l-285 -348l163 -366l-6 -2q-4 -1 -14 -1q-12 0 -16 1t-6 2l-154 355h-159l-75 -355q-2 -1 -5 -2t-13 -1q-9 0 -12 1t-4 2l75 355h-165l-300 -355q-2 -1 -6 -2
t-18 -1q-10 0 -13 1t-4 2l320 379l-139 335q2 0 5 1q6 2 13 2q8 0 14 -2q3 -1 4 -1l136 -328h160z" />
    <glyph glyph-name="afii10025" unicode="&#x417;" horiz-adv-x="540" 
d="M442 175q-8 -38 -27.5 -72t-54 -59t-85 -39.5t-119.5 -14.5q-41 0 -72.5 4.5t-54.5 9.5q-26 6 -46 15q2 7 6.5 15t10.5 12q23 -8 61.5 -16t98.5 -8q61 0 104.5 12.5t73 34t46 50.5t23.5 62q12 55 -1 89t-40.5 52t-64.5 24t-73 6h-50q-5 17 7 32h50q32 0 67.5 5.5t67.5 23
t57.5 49t36.5 84.5q7 34 2 62t-23.5 48t-51 31t-79.5 11q-35 0 -65 -4.5t-53 -9.5q-26 -6 -49 -14q-7 5 -8 12.5t1 15.5q24 9 53 16q25 6 59 11t73 5q55 0 92.5 -14.5t58.5 -40t27 -60.5t-3 -75q-12 -56 -38 -89.5t-53 -52t-49 -24.5t-26 -7q5 -1 27.5 -8.5t45 -28.5
t36.5 -58t1 -97z" />
    <glyph glyph-name="afii10026" unicode="&#x418;" horiz-adv-x="686" 
d="M83 3q-2 -1 -6 -2q-3 -1 -7 -1h-9q-10 0 -13 1t-4 2l151 714q2 0 5 1q6 2 13 2q5 0 7.5 -0.5t4.5 -1.5t4 -1l-119 -550q-6 -27 -11.5 -49l-9.5 -38q-4 -18 -8 -33h2q8 12 19 27l21.5 28.5t27.5 34.5l475 580q1 0 5 1q6 2 16 2q8 0 14 -2q3 -1 4 -1l-151 -714q-2 -1 -5 -2
t-13 -1q-11 0 -13 1q-3 1 -3 2l116 542q8 39 14 64t10 40q4 17 7 26h-2q-6 -10 -15 -22q-15 -23 -48 -63z" />
    <glyph glyph-name="afii10027" unicode="&#x419;" horiz-adv-x="686" 
d="M607 881q-19 -14 -42 -25q-20 -10 -47.5 -17.5t-59.5 -7.5t-57 7.5t-42 17.5q-20 11 -35 25q8 15 22 20q14 -13 43 -27t73 -14q25 0 48.5 6t42.5 14q22 9 41 21q13 -4 13 -20zM83 3q-2 -1 -6 -2q-3 -1 -7 -1h-9q-10 0 -13 1t-4 2l151 714q2 0 5 1q6 2 13 2q5 0 7.5 -0.5
t4.5 -1.5t4 -1l-117 -550l-11 -49t-9 -38q-4 -18 -9 -33h2q8 12 19 27l21.5 28.5t27.5 34.5l473 580q1 0 5 1q6 2 16 2q8 0 14 -2q3 -1 4 -1l-151 -714q-2 -1 -5 -2t-13 -1q-11 0 -13 1q-3 1 -3 2l115 542q8 39 14 64t10 40q4 17 7 26h-2q-6 -10 -15 -22q-15 -23 -48 -63z
" />
    <glyph glyph-name="afii10028" unicode="&#x41a;" horiz-adv-x="605" 
d="M160 390h143l298 327q1 0 5 1q3 1 7 1.5t10 0.5q7 0 13 -2q3 -1 5 -1l-312 -346l189 -368q-2 -1 -5 -2q-2 -1 -6 -1h-9q-11 0 -14 1t-5 2l-181 355h-145l-75 -355q-2 -1 -5 -2t-13 -1q-9 0 -12 1t-4 2l151 714q2 0 5 1q6 2 13 2q6 0 12 -2q3 -1 4 -1z" />
    <glyph glyph-name="afii10029" unicode="&#x41b;" horiz-adv-x="654" 
d="M-16 -6q-6 0 -13.5 1.5t-12.5 3.5q-1 2 -1 4q0 5 1 10l2 6t2 5q1 3 2 4q5 -1 9.5 -1.5t9.5 -0.5q11 0 23.5 2t27 13t31.5 33.5t37 63.5t43 103.5t49 152.5l94 326h345l-152 -717q-2 -1 -5 -2t-13 -1q-8 0 -12.5 1.5t-3.5 1.5l145 685h-281l-85 -296q-27 -93 -51 -158.5
t-46 -110t-41.5 -70t-37.5 -39t-34.5 -17t-31.5 -3.5z" />
    <glyph glyph-name="afii10030" unicode="&#x41c;" horiz-adv-x="846" 
d="M762 579q5 26 10 44.5l9 32.5q4 15 8 27h-2q-5 -8 -13 -19l-16.5 -21.5l-22.5 -28.5l-324 -407q-2 -1 -5 -2t-12 -1q-8 0 -11 1t-4 2l-142 407q-5 14 -9 27t-6 22l-5 20h-2q-1 -12 -3 -29q-2 -14 -5.5 -35.5t-9.5 -49.5l-120 -566q-1 -1 -4 -2t-13 -1q-11 0 -13 1
q-3 1 -3 2l151 714q2 0 6 1q8 2 17 2t15 -2q3 -1 4 -1l145 -418q5 -13 7.5 -22.5l4.5 -16.5q2 -8 4 -14h2l10 13q5 7 13 16.5l19 23.5l334 418q2 0 6 1q8 2 21 2q6 0 10 -0.5t7 -1.5t5 -1l-151 -714q-2 -1 -5 -2t-13 -1q-11 0 -13 1q-3 1 -3 2z" />
    <glyph glyph-name="afii10031" unicode="&#x41d;" horiz-adv-x="676" 
d="M621 717q2 0 5 1q6 2 13 2q6 0 12 -2q3 -1 4 -1l-151 -714q-2 -1 -5 -2t-13 -1q-11 0 -13 1t-3 2l74 350h-392l-74 -350q-2 -1 -5 -2t-13 -1q-11 0 -13 1t-3 2l151 714q2 0 5 1q6 2 13 2q6 0 12 -2q3 -1 4 -1l-70 -332h392z" />
    <glyph glyph-name="afii10032" unicode="&#x41e;" horiz-adv-x="677" 
d="M275 -10q-62 0 -107 21.5t-70 66.5t-29 115t16 167t52.5 167t76 115t97 66.5t115.5 21.5t107 -21.5t70 -66.5t28.5 -115t-16.5 -167q-40 -194 -128 -282t-212 -88zM426 700q-54 0 -100.5 -18.5t-85 -59.5t-68.5 -105.5t-51 -156.5q-20 -92 -18 -156.5t23.5 -105.5
t60 -59.5t91.5 -18.5q51 0 97 18.5t84.5 59.5t69 105.5t50.5 156.5q21 92 19 156.5t-22.5 105.5t-59 59.5t-90.5 18.5z" />
    <glyph glyph-name="afii10033" unicode="&#x41f;" horiz-adv-x="665" 
d="M644 720l-152 -717q-2 -1 -5 -2t-12 -1q-10 0 -13 1t-4 2l145 685h-380l-145 -685q-2 -1 -5 -2t-13 -1q-9 0 -12 1t-4 2l152 717h448z" />
    <glyph glyph-name="afii10034" unicode="&#x420;" horiz-adv-x="598" 
d="M143 309l-65 -306q-2 -1 -5 -2t-13 -1q-11 0 -13 1q-3 1 -3 2l152 717h238q46 0 79.5 -15t53.5 -42t25.5 -65t-4.5 -84t-30 -83.5t-50 -64.5t-68.5 -42t-84.5 -15h-212zM149 341h209q75 0 126 46t68 126q17 82 -14 128.5t-106 46.5h-209z" />
    <glyph glyph-name="afii10035" unicode="&#x421;" horiz-adv-x="553" 
d="M269 -10q-262 0 -183 376q40 184 123.5 274t216.5 90q41 0 70.5 -5t49.5 -11q23 -7 39 -16v-5q-2 -6 -5 -10q-2 -4 -4 -5.5t-4 -3.5t-4 -3q-16 8 -37 14q-18 5 -45 9.5t-61 4.5q-52 0 -98 -16.5t-85 -55.5t-69.5 -104.5t-51.5 -163.5t-18 -163t25 -103.5t61 -54.5t92 -16
q37 0 67.5 4.5t52.5 9.5q26 6 46 14q1 0 3 -2l2 -4t2 -5q1 -4 0.5 -6.5t-0.5 -4.5q-1 -3 -1 -5q-21 -10 -48 -17q-23 -6 -57 -11t-79 -5z" />
    <glyph glyph-name="afii10036" unicode="&#x422;" horiz-adv-x="524" 
d="M578 720q1 -1 1 -3v-5t-1 -7t-2 -7t-2 -5q-2 -3 -3 -4h-209l-145 -686q-2 -1 -5 -2t-13 -1q-11 0 -13 1q-3 1 -3 2l145 686h-214v4q0 7 1 12q1 4 2 6.5t2 4.5l2 4h457z" />
    <glyph glyph-name="afii10037" unicode="&#x423;" horiz-adv-x="603" 
d="M108 717q2 0 5 1q6 2 15 2q6 0 12 -2q3 -1 4 -1l136 -504q4 -13 6 -24.5t4 -20.5h2l29 48l301 501l3 1q6 2 16 2q8 0 14 -2q3 -1 5 -1l-317 -524q-38 -63 -67 -101.5t-54.5 -58.5t-51.5 -26.5t-57 -6.5q-24 0 -37 3q-8 1 -14 3q-2 15 8 30q6 -2 13 -3q5 -1 12 -1.5
t14 -0.5q21 0 39.5 2.5t38 13t40.5 32t46 59.5h-6z" />
    <glyph glyph-name="afii10038" unicode="&#x424;" horiz-adv-x="790" 
d="M468 726q2 0 5 1q6 2 13 2q6 0 12 -2q3 -1 4 -1l-17 -80q66 0 121.5 -13t92.5 -44.5t51 -84.5t-3 -133t-53.5 -131.5t-86 -81.5t-110.5 -41.5t-127 -11.5l-21 -102q-2 -1 -5 -2t-13 -1q-11 0 -13 1q-3 1 -3 2l21 102q-66 0 -121.5 13t-92 44.5t-50 84.5t3.5 133
t52.5 131.5t85 81.5t110.5 41.5t127 11.5zM445 616q-62 0 -116.5 -10.5t-98 -37.5t-74 -73.5t-45.5 -118.5t-4 -118.5t42.5 -74t81.5 -38t112 -10.5zM377 135q62 0 116.5 11t98 38t75 73.5t46.5 118.5t4 118.5t-43.5 73.5t-82.5 37.5t-112 10.5z" />
    <glyph glyph-name="afii10039" unicode="&#x425;" horiz-adv-x="587" 
d="M330 369l160 -366q-2 -1 -6 -2t-16 -1q-11 0 -14 1t-4 2l-149 341l-285 -341l-8 -2q-5 -1 -18 -1q-11 0 -14 1t-4 2l307 365l-151 349q2 0 6 1q3 1 7 1.5t10 0.5t12 -2q3 -1 4 -1l140 -325l281 325q2 0 6 1q8 2 19 2q9 0 15 -2q3 -1 5 -1z" />
    <glyph glyph-name="afii10040" unicode="&#x426;" horiz-adv-x="695" 
d="M545 0h-502l152 717q2 0 5 1q6 2 13 2q6 0 12 -2q3 -1 4 -1l-145 -685h390l145 685q2 0 5 1q6 2 13 2q6 0 12 -2q3 -1 4 -1l-145 -685h77l-36 -170q-8 -3 -18 -3q-11 0 -15 3z" />
    <glyph glyph-name="afii10041" unicode="&#x427;" horiz-adv-x="629" 
d="M575 717q2 0 5 1q6 2 13 2q6 0 12 -2q3 -1 4 -1l-151 -714q-2 -1 -5 -2t-13 -1q-9 0 -12 1t-4 2l73 344q-28 -12 -61 -22q-29 -8 -66.5 -14.5t-82.5 -6.5q-48 0 -86.5 11t-62.5 38t-31 71.5t7 111.5l38 181q2 0 5 1q6 2 13 2q6 0 12 -2q3 -1 4 -1l-38 -180
q-12 -56 -9 -94.5t21.5 -62t52.5 -34t84 -10.5q44 0 81.5 7t65.5 15q33 10 60 23z" />
    <glyph glyph-name="afii10042" unicode="&#x428;" horiz-adv-x="958" 
d="M43 0l152 717q1 0 4 1q6 2 14 2q5 0 7.5 -0.5t4.5 -1.5t4 -1l-145 -685h320l145 685q1 0 4 1q6 2 14 2q9 0 13 -2q2 -1 3 -1l-145 -685h320l145 685q1 0 4 1q6 2 14 2q5 0 7.5 -0.5t4.5 -1.5t4 -1l-152 -717h-742z" />
    <glyph glyph-name="afii10043" unicode="&#x429;" horiz-adv-x="980" 
d="M830 0h-786l152 717q1 0 4 1q6 2 14 2q6 0 12 -2q3 -1 4 -1l-145 -685h320l145 685q2 0 5 1q6 2 13 2q6 0 12 -2q3 -1 4 -1l-145 -685h320l145 685q2 0 5 1q6 2 13 2q6 0 12 -2q3 -1 4 -1l-145 -685h77l-36 -170q-9 -3 -17 -3q-10 0 -16 3z" />
    <glyph glyph-name="afii10044" unicode="&#x42a;" horiz-adv-x="679" 
d="M107 688q-1 1 -1 4q0 7 2 12q1 4 2 7t2 5q1 3 2 4h188l-68 -322h213q46 0 79.5 -15t53.5 -42t26 -64.5t-3 -82.5q-20 -91 -84.5 -142.5t-156.5 -51.5h-247l146 688h-154zM156 31h210q81 0 133 46.5t68 122.5q17 77 -16 122t-114 45h-210z" />
    <glyph glyph-name="afii10045" unicode="&#x42b;" horiz-adv-x="856" 
d="M375 398q46 0 79.5 -15t53.5 -42t25.5 -64.5t-3.5 -82.5q-20 -91 -84 -142.5t-156 -51.5h-247l152 717q2 0 5 1q6 2 13 2q6 0 12 -2q3 -1 4 -1l-67 -319h213zM801 717q1 0 4 1q6 2 14 2q5 0 7.5 -0.5t4.5 -1.5t4 -1l-151 -714q-2 -1 -5 -2t-13 -1q-11 0 -13 1q-3 1 -3 2z
M84 31h210q81 0 133 46.5t68 122.5q17 77 -16 122t-114 45h-210z" />
    <glyph glyph-name="afii10046" unicode="&#x42c;" horiz-adv-x="606" 
d="M375 398q46 0 79.5 -14.5t53.5 -41.5t25.5 -64t-3.5 -82q-20 -91 -84 -143.5t-156 -52.5h-247l152 717q2 0 5 1q6 2 13 2q6 0 12 -2q3 -1 4 -1l-67 -319h213zM84 31h210q81 0 133 46.5t68 122.5q17 77 -16 122t-114 45h-210z" />
    <glyph glyph-name="afii10047" unicode="&#x42d;" horiz-adv-x="577" 
d="M321 730q137 0 184.5 -95.5t7.5 -281.5q-20 -94 -50 -162.5t-72.5 -113t-98.5 -66t-128 -21.5q-47 0 -80 5t-56 11q-26 7 -44 17q0 1 1 4q1 2 1.5 4.5t2.5 6.5t4 6l4 4t4 2q18 -8 43 -14q21 -5 52 -9t70 -4q54 0 101 15t86.5 52.5t70.5 100.5t52 159h-294v4q0 7 1 12
q1 4 2 7t2 5q1 3 2 4h294q17 91 12 152t-29 97.5t-64 52t-92 15.5q-36 0 -66.5 -4.5t-52.5 -9.5q-26 -6 -46 -13q-1 0 -3 2q-4 4 -5 9q-2 7 0 12q0 3 1 5q21 8 49 15q24 5 57.5 10t76.5 5z" />
    <glyph glyph-name="afii10048" unicode="&#x42e;" horiz-adv-x="945" 
d="M195 717q2 0 5 1q6 2 13 2q6 0 12 -2q3 -1 4 -1l-72 -341h200q42 185 126.5 269.5t207.5 84.5q63 0 108.5 -21.5t71 -66.5t29.5 -115t-17 -167q-41 -194 -126.5 -282t-210.5 -88q-62 0 -107 20.5t-71 63.5t-31 110t13 160h-200l-72 -341q-2 -1 -5 -2t-13 -1q-9 0 -12 1
t-4 2zM691 700q-53 0 -100 -18.5t-85.5 -59.5t-68.5 -105.5t-50 -156.5t-17.5 -156.5t24 -105.5t60.5 -59.5t92 -18.5t99.5 18.5t84.5 59.5t67.5 105.5t49.5 156.5t18 156.5t-23 105.5t-59.5 59.5t-91.5 18.5z" />
    <glyph glyph-name="afii10049" unicode="&#x42f;" horiz-adv-x="621" 
d="M231 326q-32 5 -56 21.5t-38 42.5t-18 60t4 73q20 91 81.5 144t154.5 53h241l-152 -717q-2 -1 -5 -2t-13 -1q-11 0 -13 1q-3 1 -3 2l67 317h-213l-235 -317q-2 -1 -6 -2q-3 -1 -7 -1h-9q-11 0 -14 1t-4 2zM559 688h-209q-73 0 -124.5 -44t-68.5 -124t13.5 -124t102.5 -44
h215z" />
    <glyph glyph-name="afii10065" unicode="&#x430;" 
d="M482 526l2 1q4 2 12 2q7 0 11 -2q2 -1 3 -1l-111 -523l-4 -2q-2 -1 -10 -1q-7 0 -9 1t-3 2l13 87q-32 -47 -78 -73.5t-111 -26.5q-44 0 -77 14t-52.5 46t-22.5 84t13 129q16 76 41 128.5t57 84.5t71.5 46t85.5 14q59 0 97 -27.5t49 -72.5zM436 326q7 31 4 63t-17.5 58
t-40.5 42.5t-63 16.5q-92 0 -145 -57.5t-82 -185.5t-1.5 -185.5t116.5 -57.5q40 0 73.5 16.5t59 42.5t43 58t24.5 63z" />
    <glyph glyph-name="afii10066" unicode="&#x431;" horiz-adv-x="567" 
d="M90 351q16 74 35 128t43.5 91.5t54.5 62t67.5 40.5t83.5 26.5t102 20.5q15 3 24 5.5t16 7t12.5 10.5l13.5 15q8 2 18 -2t13 -9q-6 -12 -13.5 -21t-18.5 -16t-27 -12t-38 -9q-75 -14 -129 -29.5t-94 -46.5t-69.5 -85.5t-54.5 -145.5h1q13 25 32 48.5t45 42t60 30t77 11.5
t76.5 -16t54 -48.5t25 -82.5t-9.5 -118q-29 -137 -93.5 -198t-163.5 -61q-39 0 -75.5 13t-60 51.5t-28 109.5t20.5 187zM333 483q-31 0 -64 -11t-63.5 -38t-55 -71.5t-39.5 -110.5q-15 -68 -9 -113t25 -71.5t47.5 -37.5t59.5 -11q37 0 71 11t63 37.5t51.5 71.5t37.5 113
q14 68 9.5 112.5t-23 71t-47.5 37t-63 10.5z" />
    <glyph glyph-name="afii10067" unicode="&#x432;" horiz-adv-x="513" 
d="M333 526q67 0 98.5 -36t17.5 -103q-10 -46 -37.5 -76.5t-63.5 -44.5q43 -14 59.5 -48t5.5 -83q-14 -69 -60.5 -102t-121.5 -33h-204l112 526h194zM113 252l-48 -222h171q59 0 96 27t49 82q11 52 -11.5 82.5t-85.5 30.5h-171zM119 282h158q56 0 92.5 28t47.5 80
q11 55 -14 80.5t-81 25.5h-158z" />
    <glyph glyph-name="afii10068" unicode="&#x433;" horiz-adv-x="395" 
d="M139 526h273q1 -2 1 -4q0 -6 -1 -11q-2 -4 -3 -6.5t-2 -4.5q-1 -3 -2 -4h-241l-104 -493q-1 -1 -4 -2t-13 -1t-12 1t-3 2z" />
    <glyph glyph-name="afii10069" unicode="&#x434;" horiz-adv-x="562" 
d="M14 30q12 13 24.5 31.5t26 48t29 72.5t33.5 106l70 238h302l-106 -496h63l-33 -155l-4 -2q-3 -1 -11 -1q-10 0 -12 1t-3 2l27 125h-428l-27 -125q-1 -1 -3 -2t-12 -1t-12 1t-3 2l33 155h46zM157 284q-16 -56 -30 -96t-26.5 -70t-24.5 -51t-24 -37h309l99 466h-242z" />
    <glyph glyph-name="afii10070" unicode="&#x435;" horiz-adv-x="506" 
d="M87 252q-22 -122 10 -175.5t119 -53.5q31 0 56.5 6t43.5 14q21 9 37 20q14 -9 12 -28q-18 -13 -42 -23q-20 -8 -50.5 -15t-68.5 -7q-98 0 -138 69.5t-11 206.5q31 142 99.5 206t158.5 64q45 0 76 -14t49 -38.5t23 -58.5t-3 -73q-5 -23 -10.5 -41.5t-10.5 -31.5
q-5 -15 -11 -27h-339zM427 357q6 30 4 57t-15.5 47.5t-38.5 32.5t-65 12q-76 0 -133.5 -53.5t-85.5 -170.5h312l7 20l7 23.5t8 31.5z" />
    <glyph glyph-name="afii10071" unicode="&#x451;" horiz-adv-x="506" 
d="M284 635q-3 -1 -7 -2t-18 -1t-18 1t-5 2l8 42q2 0 6 1q8 2 19 2q6 0 10 -0.5t7 -1.5q4 -1 6 -1zM425 635q-3 -1 -7 -2t-18 -1t-18 1t-5 2l8 42q2 0 6 1q8 2 19 2q6 0 10 -0.5t7 -1.5q4 -1 6 -1zM87 252q-22 -122 10 -175.5t119 -53.5q31 0 56.5 6t43.5 14q21 9 37 20
q14 -9 12 -28q-18 -13 -42 -23q-20 -8 -50.5 -15t-68.5 -7q-98 0 -138 69.5t-11 206.5q31 142 99.5 206t158.5 64q45 0 76 -14t49 -38.5t23 -58.5t-3 -73q-5 -23 -10.5 -41.5t-10.5 -31.5q-5 -15 -11 -27h-339zM427 357q6 30 4 57t-15.5 47.5t-38.5 32.5t-65 12
q-76 0 -133.5 -53.5t-85.5 -170.5h312l7 20l7 23.5t8 31.5z" />
    <glyph glyph-name="afii10072" unicode="&#x436;" horiz-adv-x="773" 
d="M419 523q1 0 4 1q6 2 13 2q8 0 12 -2q2 -1 3 -1l-49 -233h129l199 233q2 0 6 1q8 2 19 2q9 0 13 -2q2 -1 3 -1l-214 -253l129 -266q-2 -1 -5 -2q-8 -2 -16 -2q-7 0 -13 2q-3 1 -4 2l-124 256h-129l-54 -257q-1 -1 -4 -2t-13 -1t-12 1t-3 2l54 257h-129l-228 -256
q-2 -1 -6 -2q-8 -2 -18 -2q-8 0 -14 2q-3 1 -4 2l245 279l-110 240q1 0 4 1q6 2 14 2q9 0 15 -2q3 -1 4 -1l105 -233h129z" />
    <glyph glyph-name="afii10073" unicode="&#x437;" horiz-adv-x="450" 
d="M350 133q-7 -31 -21.5 -57.5t-41.5 -45.5t-68 -29.5t-101 -10.5q-35 0 -61 4t-43 9q-20 5 -34 13q5 18 17 27q14 -7 33 -11q16 -5 39.5 -8t53.5 -3q92 0 137 31.5t57 88.5t-24.5 84.5t-111.5 27.5h-53q-1 1 -1 4q0 6 1 11l2 6t2 5q1 3 2 4h53q31 0 59 5t50 17.5
t37.5 33.5t22.5 53q12 56 -14 85t-108 29q-29 0 -52 -3t-40 -7q-20 -4 -36 -10q-5 4 -5.5 11.5t2.5 15.5q17 6 39 11q19 5 46 8.5t62 3.5q46 0 76 -11.5t46.5 -31t20.5 -46.5t-3 -58q-10 -48 -36.5 -78t-75.5 -44q48 -14 64.5 -51.5t7.5 -82.5z" />
    <glyph glyph-name="afii10074" unicode="&#x438;" horiz-adv-x="579" 
d="M495 523q1 0 4 1q6 2 16 2q6 0 9.5 -0.5t5.5 -1.5t3 -1l-110 -520q-1 -1 -4 -2t-13 -1q-9 0 -12 1t-4 2l85 401l7 32.5t6 25.5q3 12 6 22h-2q-8 -11 -18 -22q-8 -11 -19.5 -24l-24.5 -27l-364 -408q-2 -1 -5 -2q-4 -1 -16 -1q-10 0 -13 1t-4 2l110 520q1 0 4 1q6 2 13 2
q8 0 12 -2q2 -1 3 -1l-86 -407q-4 -18 -7.5 -31.5t-5.5 -23.5q-4 -11 -6 -19h2q6 7 14 18q7 9 17.5 21l24.5 28z" />
    <glyph glyph-name="afii10075" unicode="&#x439;" horiz-adv-x="579" 
d="M501 688q-16 -16 -36 -27q-18 -11 -43.5 -19t-57.5 -8t-55.5 8t-38.5 19q-18 11 -29 27q4 8 8.5 12t13.5 7q11 -12 26 -22q13 -8 31.5 -15t44.5 -7q25 0 47 7t39 15q19 10 36 22q9 -2 12 -6.5t2 -12.5zM495 523q1 0 4 1q6 2 16 2q6 0 9.5 -0.5t5.5 -1.5t3 -1l-110 -520
q-1 -1 -4 -2t-13 -1q-9 0 -12 1t-4 2l85 401l7 32.5t6 25.5q3 12 6 22h-2q-8 -11 -18 -22q-8 -11 -19.5 -24l-24.5 -27l-364 -408q-2 -1 -5 -2q-4 -1 -16 -1q-10 0 -13 1t-4 2l110 520q1 0 4 1q6 2 13 2q8 0 12 -2q2 -1 3 -1l-86 -407q-4 -18 -7.5 -31.5t-5.5 -23.5
q-4 -11 -6 -19h2q6 7 14 18q7 9 17.5 21l24.5 28z" />
    <glyph glyph-name="afii10076" unicode="&#x43a;" horiz-adv-x="494" 
d="M120 290h123l211 233q2 0 6 1q3 1 7 1.5t11 0.5q5 0 8 -0.5t5 -0.5l2 -1l-227 -252l141 -268q-2 -1 -5 -2q-6 -2 -15 -2q-8 0 -14 2q-3 1 -4 2l-133 256h-123l-54 -257q-1 -1 -4 -2t-13 -1t-12 1t-3 2l111 520l3 1q4 2 13 2q5 0 7.5 -0.5t4.5 -1.5t4 -1z" />
    <glyph glyph-name="afii10077" unicode="&#x43b;" horiz-adv-x="550" 
d="M170 290q-31 -101 -54 -160t-43 -89t-39.5 -38.5t-41.5 -8.5q-5 0 -10.5 0.5t-10.5 1.5l-10 2q-1 1 -1 3q-1 3 0 10q1 3 2 5.5t2 4.5l2 4q4 -1 9 -2q4 -1 9.5 -1h10.5q21 0 38 15t34 47.5t34.5 84t38.5 125.5l68 232h297l-111 -523q-1 -1 -4 -2t-13 -1t-12 1t-3 2
l104 493h-237l-59 -206v0z" />
    <glyph glyph-name="afii10078" unicode="&#x43c;" horiz-adv-x="675" 
d="M138 523q1 0 4 1q6 2 14 2q7 0 13 -2q3 -1 4 -1l128 -352l292 352q2 0 5 1q6 2 14 2q7 0 13 -2q3 -1 4 -1l-110 -520q-1 -1 -4 -2t-13 -1t-12 1t-3 2l85 401q5 24 9.5 42.5t9.5 31.5h-2l-20.5 -29.5t-31.5 -40.5l-232 -276q-1 -1 -3 -1q-2 -1 -8 -1t-8 1q-2 0 -3 1
l-102 272q-8 23 -13.5 42t-7.5 32h-3q-1 -13 -3 -32t-7 -42l-87 -401q-1 -1 -4 -2t-13 -1t-12 1t-3 2l110 520v0z" />
    <glyph glyph-name="afii10079" unicode="&#x43d;" horiz-adv-x="562" 
d="M427 256h-314l-53 -253q-1 -1 -4 -2t-13 -1t-12 1t-3 2l110 520q1 0 4 1q6 2 13 2q8 0 12 -2q2 -1 3 -1l-50 -237h314l50 237q1 0 4 1q6 2 13 2q8 0 12 -2q2 -1 3 -1l-110 -520q-1 -1 -4 -2t-13 -1t-12 1t-3 2z" />
    <glyph glyph-name="afii10080" unicode="&#x43e;" horiz-adv-x="537" 
d="M207 -10q-48 0 -83 15t-54.5 47.5t-23.5 84.5t11 126t38.5 126t56 84.5t73 47.5t88.5 15t83 -15t54.5 -47.5t23.5 -84.5t-11 -126t-38.5 -126t-56 -84.5t-73 -47.5t-88.5 -15zM312 506q-39 0 -73 -12t-62 -40t-49.5 -74.5t-36.5 -116.5t-13 -116.5t17.5 -74.5t44.5 -40
t68 -12t73 12t61.5 40t49.5 74.5t37 116.5t13 116.5t-18 74.5t-44.5 40t-67.5 12z" />
    <glyph glyph-name="afii10081" unicode="&#x43f;" horiz-adv-x="551" 
d="M467 496h-303l-104 -493q-1 -1 -4 -2t-13 -1t-12 1t-3 2l111 523h367l-111 -523l-4 -2q-3 -1 -12 -1q-11 0 -13 1t-3 2z" />
    <glyph glyph-name="afii10082" unicode="&#x440;" 
d="M6 -247l-4 -2q-3 -1 -12 -1q-11 0 -13 1q-3 1 -3 2l164 770q1 0 4 1q6 2 13 2q8 0 12 -2q2 -1 3 -1l-18 -84q32 45 77 71t106 26q46 0 80 -14t53.5 -46t23 -84.5t-12.5 -128.5q-16 -77 -40 -129t-55.5 -84t-70 -46t-84.5 -14q-60 0 -98 27.5t-52 77.5zM101 200
q-6 -31 -2 -63t19 -58t40.5 -42.5t63.5 -16.5q92 0 144 57.5t79 185.5t0 185.5t-119 57.5q-37 0 -69.5 -16t-58.5 -41t-43.5 -56t-24.5 -61z" />
    <glyph glyph-name="afii10083" unicode="&#x441;" horiz-adv-x="442" 
d="M321 505q-93 0 -149 -61t-82 -181q-26 -121 6.5 -181t126.5 -60q24 0 44 3.5t34 8.5q17 5 30 12q5 -4 7 -11.5t1 -15.5q-16 -9 -35 -15q-17 -5 -41 -9.5t-54 -4.5q-99 0 -139.5 72t-11.5 210q28 134 96 199t167 65q29 0 49.5 -3.5t34.5 -8.5q16 -5 27 -11q-3 -19 -18 -28
q-10 6 -24 10q-12 4 -29 7t-40 3z" />
    <glyph glyph-name="afii10084" unicode="&#x442;" horiz-adv-x="419" 
d="M438 526q0 -1 1 -3q0 -2 0.5 -5t-0.5 -7q-2 -5 -2.5 -7.5t-2.5 -4.5l-3 -3h-165l-104 -493q-1 -1 -4 -2t-13 -1t-12 1t-3 2l104 493h-165q-1 1 -1 3t-0.5 4.5t1.5 7.5q2 10 4 12q1 2 3 3h362z" />
    <glyph glyph-name="afii10085" unicode="&#x443;" horiz-adv-x="549" 
d="M472 523q1 0 4 1q6 2 13 2q8 0 12 -2q2 -1 3 -1l-111 -520q-15 -62 -36.5 -109.5t-53 -79.5t-75 -48t-100.5 -16q-30 0 -52.5 3.5t-37.5 8.5q-18 5 -31 12q2 19 17 27q13 -6 31 -10q15 -4 35.5 -6.5t44.5 -2.5q41 0 76.5 10t64.5 35.5t50.5 68t35.5 108.5l18 87
q-42 -47 -91.5 -74t-110.5 -27q-71 0 -105.5 40t-20.5 108l82 385q1 0 4 1q6 2 13 2q8 0 12 -2q2 -1 3 -1l-80 -377q-14 -66 12.5 -96.5t89.5 -30.5q52 0 108.5 34t96.5 97l79 373v0z" />
    <glyph glyph-name="afii10086" unicode="&#x444;" horiz-adv-x="774" 
d="M285 -247l-4 -2q-3 -1 -12 -1q-11 0 -13 1q-3 1 -3 2l56 263q-15 -8 -34 -13q-17 -5 -40 -9t-53 -4q-50 0 -81 17.5t-45 52t-13 85.5t15 118t33 118t46 85.5t64 52t87 17.5q27 0 50 -3.5t40 -8.5q20 -5 37 -11l50 234l3 1q4 2 13 2q5 0 7.5 -0.5t4.5 -1.5t4 -1l-50 -234
q16 7 36 12q17 5 40 8t51 3q49 -1 80 -18.5t45.5 -52t13.5 -85t-15 -117.5t-33 -118t-46 -85.5t-64 -52t-87 -17.5q-30 0 -53.5 4t-40.5 9q-19 5 -33 13zM408 481l-7.5 3.5t-22.5 8.5t-36.5 9t-50.5 4q-82 0 -127.5 -60.5t-71.5 -182.5t-6.5 -182t101.5 -60q27 0 50.5 4.5
t41.5 9.5q20 6 38 15zM664 263q26 122 6.5 182.5t-101.5 60.5q-29 0 -52.5 -4t-40.5 -9t-26.5 -8.5l-9.5 -3.5l-91 -431q13 -9 31 -15q15 -5 36.5 -9.5t48.5 -4.5q82 0 127.5 60t71.5 182z" />
    <glyph glyph-name="afii10087" unicode="&#x445;" horiz-adv-x="483" 
d="M212 268l-129 255q2 0 5 1q6 2 15 2q5 0 11 -2q3 -1 4 -1l119 -233l213 233l4 1q6 2 20 2q8 0 14 -2q3 -1 4 -1l-239 -259l133 -261q-2 -1 -5 -2t-15 -1q-9 0 -11 1q-3 1 -4 2l-122 239l-218 -239q-1 -1 -5 -2t-21 -1q-11 0 -13 1q-3 1 -3 2z" />
    <glyph glyph-name="afii10088" unicode="&#x446;" horiz-adv-x="572" 
d="M403 30h63l-33 -155q-1 -1 -3 -2t-12 -1t-12 1t-3 2l27 125h-403l111 523q1 0 4 1q6 2 13 2q8 0 12 -2q2 -1 3 -1l-105 -493h306l105 493q1 0 4 1q6 2 13 2q8 0 12 -2q2 -1 3 -1z" />
    <glyph glyph-name="afii10089" unicode="&#x447;" horiz-adv-x="517" 
d="M361 3q-1 -1 -4 -2t-13 -1t-12 1t-3 2l52 245q-11 -6 -26.5 -13.5t-36 -15t-46.5 -12.5t-57 -5q-47 0 -78.5 12t-49 33.5t-21.5 51.5t4 66l33 158q1 0 4 1q6 2 13 2q8 0 12 -2q2 -1 3 -1l-34 -159q-14 -64 13 -98t106 -34q28 0 54 5.5t47.5 13.5t38.5 16.5t28 14.5
l51 241q1 0 4 1q6 2 13 2q8 0 12 -2q2 -1 3 -1z" />
    <glyph glyph-name="afii10090" unicode="&#x448;" horiz-adv-x="803" 
d="M647 0h-620l111 523q1 0 4 1q6 2 13 2q8 0 12 -2q2 -1 3 -1l-105 -493h261l105 493q1 0 4 1q6 2 13 2q8 0 12 -2q2 -1 3 -1l-105 -493h263l105 493q1 0 4 1q6 2 13 2q8 0 12 -2q2 -1 3 -1z" />
    <glyph glyph-name="afii10091" unicode="&#x449;" horiz-adv-x="822" 
d="M653 30h63l-33 -155q-1 -1 -3 -2t-12 -1t-12 1t-3 2l27 125h-653l111 523q1 0 4 1q6 2 13 2q8 0 12 -2q2 -1 3 -1l-105 -493h261l105 493q1 0 4 1q6 2 13 2q8 0 12 -2q2 -1 3 -1l-105 -493h263l105 493q1 0 4 1q6 2 13 2q8 0 12 -2q2 -1 3 -1z" />
    <glyph glyph-name="afii10092" unicode="&#x44a;" horiz-adv-x="556" 
d="M176 294h182q72 0 100 -43t14 -109t-59 -104t-117 -38h-214l105 496h-120q-1 1 -1 3v4.5t2 7.5q1 7 4 12q1 2 2 3h152zM170 264l-50 -234h178q60 0 94.5 30t46.5 86t-9.5 87t-81.5 31h-178z" />
    <glyph glyph-name="afii10093" unicode="&#x44b;" horiz-adv-x="709" 
d="M121 294h182q72 0 100 -43.5t14 -109.5t-59 -103.5t-117 -37.5h-214l111 523q2 0 5 1q6 2 12 2q8 0 12 -2q2 -1 3 -1zM115 264l-50 -234h178q60 0 94.5 30t46.5 86t-9.5 87t-81.5 31h-178zM553 3q-1 -1 -4 -2t-13 -1t-12 1t-3 2l110 520q1 0 4 1q6 2 13 2q8 0 12 -2
q2 -1 3 -1z" />
    <glyph glyph-name="afii10094" unicode="&#x44c;" horiz-adv-x="499" 
d="M121 294h182q71 0 99 -43.5t14 -109.5t-58.5 -103.5t-116.5 -37.5h-214l111 523q2 0 5 1q6 2 12 2q8 0 12 -2q2 -1 3 -1zM115 264l-50 -234h178q60 0 94.5 30t46.5 86t-9.5 87t-81.5 31h-178z" />
    <glyph glyph-name="afii10095" unicode="&#x44d;" horiz-adv-x="448" 
d="M115 251q-2 7 0 15.5t7 14.5h221q20 110 -10 167.5t-123 57.5q-23 0 -42 -3t-33 -6q-17 -4 -30 -9q-5 5 -6.5 12.5t0.5 15.5q14 6 33 10q16 4 39 7t52 3q100 0 140 -71.5t11 -205.5t-98.5 -201.5t-168.5 -67.5q-31 0 -54 4.5t-39 9.5q-18 6 -32 15q5 16 18 25
q13 -7 29 -11q14 -5 32.5 -8t41.5 -3q182 0 234 229h-222z" />
    <glyph glyph-name="afii10096" unicode="&#x44e;" horiz-adv-x="778" 
d="M117 274h175q16 71 40.5 120.5t56.5 81t72.5 46t88.5 14.5q49 0 85 -15t56.5 -47.5t24.5 -84.5t-12 -126t-40 -126t-57 -84.5t-73.5 -47.5t-89.5 -15q-47 0 -82.5 14t-56.5 44t-26.5 78.5t7.5 117.5h-175l-51 -241q-1 -1 -4 -2t-13 -1t-12 1t-3 2l110 520q1 0 4 1
q6 2 13 2q8 0 12 -2q2 -1 3 -1zM549 507q-40 0 -75 -12t-64 -40.5t-51 -75t-37 -116.5t-12.5 -116.5t19.5 -75t46.5 -40.5t69.5 -12t74.5 12t63 40.5t50.5 75t37 116.5t12.5 116.5t-19 75t-45.5 40.5t-69 12z" />
    <glyph glyph-name="afii10097" unicode="&#x44f;" horiz-adv-x="519" 
d="M378 224h-161h-17q-4 0 -5 1l-169 -222q-2 -1 -6 -2t-17 -1q-11 0 -13 1q-3 1 -3 2l175 227q-49 14 -68 51.5t-8 92.5q15 68 64 110t129 42h195l-111 -523q-1 -1 -4 -2t-13 -1t-12 1t-3 2zM276 496q-68 0 -105.5 -32.5t-50.5 -89.5q-6 -27 -4 -49t13 -37.5t32 -24.5
t55 -9h168l51 242h-159z" />
    <glyph glyph-name="afii61289" unicode="&#x2113;" horiz-adv-x="449" 
d="M24 192q-11 9 -6 25q26 11 52 24.5t49 27.5l54 253q13 63 29.5 106.5t39 70.5t52.5 39t70 12q66 0 88.5 -40.5t8.5 -108.5q-10 -48 -38.5 -95.5t-70 -92.5t-94.5 -86t-111 -75l-25 -116q-14 -66 3.5 -91t65.5 -25q26 0 52 8.5t46 19.5q24 12 46 29q6 0 11 -5t4 -12
q-22 -20 -49 -35q-23 -14 -55 -24.5t-69 -10.5q-36 0 -56 11.5t-28 35.5t-5.5 60.5t13.5 87.5l11 50q-7 -4 -19 -10l-24.5 -12l-25 -12t-19.5 -9zM154 286q49 32 94 68t81.5 75.5t62 82.5t34.5 88q12 54 -1.5 87.5t-64.5 33.5q-54 0 -90.5 -31.5t-54.5 -115.5z" />
    <glyph glyph-name="agrave" unicode="&#xe0;" 
d="M308 768l85 -150q-7 -12 -24 -13l-93 147q6 7 14 11.5t18 4.5zM459 436q-11 45 -49 72.5t-97 27.5q-46 0 -85.5 -14t-71.5 -46t-57 -84.5t-41 -128.5q-16 -77 -13 -129t22.5 -84t52.5 -46t77 -14q65 0 111 26.5t78 73.5l-13 -87q1 -1 3 -2t9 -1q8 0 10 1l4 2l111 523
q-1 0 -3 1q-4 2 -11 2q-8 0 -12 -2l-2 -1zM436 326l-29 -126q-7 -31 -24.5 -63t-43 -58t-59 -42.5t-73.5 -16.5q-89 0 -116.5 57.5t1.5 185.5t82 185.5t145 57.5q37 0 63 -16.5t40.5 -42.5t17.5 -58t-4 -63z" />
    <glyph glyph-name="amacron" unicode="&#x101;" 
d="M229 656q-1 6 0 13q1 9 6 15h225q4 -4 1 -14q-1 -7 -7 -14h-225zM482 526l2 1q4 2 12 2q7 0 11 -2q2 -1 3 -1l-111 -523l-4 -2q-2 -1 -10 -1q-7 0 -9 1t-3 2l13 87q-32 -47 -78 -73.5t-111 -26.5q-44 0 -77 14t-52.5 46t-22.5 84t13 129q16 76 41 128.5t57 84.5t71.5 46
t85.5 14q59 0 97 -27.5t49 -72.5zM436 326q7 31 4 63t-17.5 58t-40.5 42.5t-63 16.5q-92 0 -145 -57.5t-82 -185.5t-1.5 -185.5t116.5 -57.5q40 0 73.5 16.5t59 42.5t43 58t24.5 63z" />
    <glyph glyph-name="ampersand" unicode="&#x26;" horiz-adv-x="627" 
d="M404 690q33 0 55.5 -10t35.5 -26.5t17 -38t-1 -44.5q-8 -39 -30 -70t-55.5 -57.5t-77.5 -50t-97 -48.5q18 -63 56 -121t95 -107q42 39 70 81.5t45 77.5q9 0 17 -4t11 -11q-15 -33 -45 -75t-78 -87q26 -20 55.5 -37.5t61.5 -32.5q-1 -9 -6.5 -17t-13.5 -13q-35 15 -66 34
t-59 42q-5 -5 -23.5 -19t-47.5 -28.5t-68 -26t-85 -11.5q-36 0 -67 9.5t-52.5 30t-30.5 52.5t1 77q9 42 32.5 75.5t52 58t58 41t49.5 25.5q-17 81 -2 155q17 81 66.5 128.5t126.5 47.5zM180 20q35 0 66 8.5t56 20.5t43.5 24l28.5 19q-58 51 -97 113t-57 127
q-18 -8 -43 -22.5t-49 -36t-43.5 -49.5t-26.5 -63q-14 -67 19.5 -104t102.5 -37zM393 660q-54 0 -93 -36.5t-54 -106.5q-16 -74 -1 -144q47 22 86 43t69 43.5t49 48t26 57.5q9 44 -12 69.5t-70 25.5z" />
    <glyph glyph-name="aogonek" unicode="&#x105;" 
d="M481 523l2 1q4 2 12 2q7 0 11 -2q2 -1 3 -1l-111 -526q-37 -19 -70 -41.5t-57.5 -46t-37.5 -47.5t-10 -47q2 -16 14.5 -27t37.5 -11q29 0 68 19q11 -11 8 -25q-15 -9 -37 -15t-45 -6q-29 0 -51.5 13.5t-26.5 41.5q-4 30 11 59t41.5 55.5t60.5 49t69 40.5l13 81
q-32 -47 -78 -73.5t-111 -26.5q-44 0 -77 14t-52.5 46t-22.5 84t13 129q16 76 41 128.5t57 84.5t71.5 46t85.5 14q59 0 97 -27.5t49 -72.5zM436 326q7 31 4 63t-17.5 58t-40.5 42.5t-63 16.5q-92 0 -145 -57.5t-82 -185.5t-1.5 -185.5t116.5 -57.5q40 0 73.5 16.5t59 42.5
t43 58t24.5 63z" />
    <glyph glyph-name="approxequal" unicode="&#x2248;" horiz-adv-x="541" 
d="M203 374q-18 0 -34 -5.5t-27 -12.5q-13 -8 -24 -18q-18 3 -18 22q12 12 30 23q14 9 35.5 16.5t48.5 7.5q25 0 42 -8t32.5 -17.5t32 -17.5t40.5 -8q18 0 33.5 5.5t26.5 12.5q13 8 25 18q17 -3 20 -20q-13 -14 -30 -25q-15 -9 -36 -16.5t-50 -7.5q-25 0 -42 8t-32.5 17.5
t-32 17.5t-40.5 8zM170 215q-18 0 -34 -5.5t-27 -12.5q-14 -8 -25 -18q-19 3 -17 22q12 12 30 23q14 9 35.5 16.5t48.5 7.5q25 0 42 -8t32 -17.5t31.5 -17.5t40.5 -8q18 0 33.5 5.5t26.5 12.5q13 8 25 18q18 -3 20 -20q-13 -14 -30 -25q-15 -9 -36 -16.5t-50 -7.5
q-25 0 -42 8t-32 17.5t-31.5 17.5t-40.5 8z" />
    <glyph glyph-name="aring" unicode="&#xe5;" 
d="M337 590q-47 0 -74 27.5t-16 78.5q5 25 18 44.5t31.5 33t40 20t42.5 6.5t40 -6.5t32.5 -19.5t19.5 -32.5t1 -45.5q-11 -51 -49.5 -78.5t-85.5 -27.5zM440 696q7 29 -8 52t-57 23q-41 0 -65 -23t-31 -52t7 -53t55 -24q42 0 67 24t32 53zM482 526l2 1q4 2 12 2q7 0 11 -2
q2 -1 3 -1l-111 -523l-4 -2q-2 -1 -10 -1q-7 0 -9 1t-3 2l13 87q-32 -47 -78 -73.5t-111 -26.5q-44 0 -77 14t-52.5 46t-22.5 84t13 129q16 76 41 128.5t57 84.5t71.5 46t85.5 14q59 0 97 -27.5t49 -72.5zM436 326q7 31 4 63t-17.5 58t-40.5 42.5t-63 16.5q-92 0 -145 -57.5
t-82 -185.5t-1.5 -185.5t116.5 -57.5q40 0 73.5 16.5t59 42.5t43 58t24.5 63z" />
    <glyph glyph-name="aringacute" unicode="&#x1fb;" 
d="M349 804q-8 1 -13.5 5t-7.5 9l133 112q20 0 27 -13zM332 575q-46 0 -72 26.5t-16 76.5q5 25 18 43.5t31 31.5t38.5 19.5t41.5 6.5q20 0 38.5 -6.5t31.5 -19t19 -31.5t1 -44t-17.5 -44t-30.5 -32t-39.5 -20t-43.5 -7zM434 678q7 29 -8 52t-57 23q-41 0 -65 -23t-31 -52
t7 -53t55 -24q42 0 67 24t32 53zM482 526l2 1q4 2 12 2q7 0 11 -2q2 -1 3 -1l-111 -523l-4 -2q-2 -1 -10 -1q-7 0 -9 1t-3 2l13 87q-32 -47 -78 -73.5t-111 -26.5q-44 0 -77 14t-52.5 46t-22.5 84t13 129q16 76 41 128.5t57 84.5t71.5 46t85.5 14q59 0 97 -27.5t49 -72.5z
M436 326q7 31 4 63t-17.5 58t-40.5 42.5t-63 16.5q-92 0 -145 -57.5t-82 -185.5t-1.5 -185.5t116.5 -57.5q40 0 73.5 16.5t59 42.5t43 58t24.5 63z" />
    <glyph glyph-name="arrowdown" unicode="&#x2193;" horiz-adv-x="485" 
d="M37 296q4 6 10 12t14 8l131 -168l97 455q1 0 4 1q2 0 5 0.5t7 0.5t6.5 -0.5t4.5 -0.5q2 -1 3 -1l-97 -455l204 168q6 -2 10.5 -8t4.5 -12l-245 -202z" />
    <glyph glyph-name="arrowleft" unicode="&#x2190;" horiz-adv-x="618" 
d="M304 552q6 -2 10.5 -7t5.5 -13l-203 -167h455v-4q0 -2 -0.5 -4.5t-1.5 -6.5q-2 -8 -3 -11t-2 -4h-455l132 -168q-3 -7 -10 -12t-14 -7l-159 202z" />
    <glyph glyph-name="arrowright" unicode="&#x2192;" horiz-adv-x="617" 
d="M577 350l-245 -202q-13 4 -16 19l204 168h-455v4v4.5t1 6.5t2 6.5t2 4.5l2 4h455l-133 167q4 8 11 13t13 7z" />
    <glyph glyph-name="arrowup" unicode="&#x2191;" horiz-adv-x="485" 
d="M307 605l159 -202q-3 -6 -9.5 -12t-14.5 -8l-132 168l-97 -455q-2 -1 -4 -1q-3 -1 -11 -1q-9 0 -11 1q-3 0 -4 1l97 455l-203 -168q-7 2 -10.5 8t-4.5 12z" />
    <glyph glyph-name="asciicircum" unicode="^" horiz-adv-x="511" 
d="M485 455q-1 -1 -4 -2t-16 -1q-12 0 -15 1t-4 2l-107 235l-207 -235q-1 -1 -4 -2t-15 -1t-15 1t-3 2l231 262q1 0 4 1q6 2 16 2q9 0 15 -2l3 -1z" />
    <glyph glyph-name="asciitilde" unicode="~" horiz-adv-x="539" 
d="M190 315q-18 0 -34 -5.5t-27 -12.5q-14 -8 -25 -18q-17 3 -17 22q12 12 30 23q14 9 35.5 16.5t48.5 7.5q25 0 42 -8t32 -17.5t31.5 -17.5t40.5 -8q18 0 33.5 5.5t27.5 12.5q13 8 25 18q17 -3 19 -20q-13 -14 -30 -25q-15 -9 -36 -16.5t-50 -7.5q-25 0 -42 8t-32 17.5
t-31.5 17.5t-40.5 8z" />
    <glyph glyph-name="asterisk" unicode="*" horiz-adv-x="354" 
d="M232 572l-71 -76q-5 2 -10 6t-8 8l72 78l-81 28q3 14 13 24l81 -28l19 89q1 0 3 1q2 0 4 0.5t6 0.5q3 0 5 -0.5t4 -0.5q2 -1 3 -1l-19 -89l93 28q6 -8 3 -24l-94 -28l40 -77q-5 -4 -11 -8t-12 -6z" />
    <glyph glyph-name="at" unicode="@" horiz-adv-x="914" 
d="M840 303q-21 -100 -75 -159t-135 -59q-35 0 -57.5 17.5t-24.5 57.5q-23 -32 -58.5 -53.5t-86.5 -21.5q-32 0 -59 10t-44.5 32.5t-22.5 59.5t7 91q12 55 32.5 92t47.5 59.5t58 32.5t63 10q48 0 73.5 -18t36.5 -46l13 61q2 0 4 1q4 2 10 2q5 0 11 -2q3 -1 5 -1l-53 -249
q-13 -59 2 -84t51 -25q25 0 51 10.5t49 33.5t42 59.5t30 88.5q17 79 7 144t-46 111t-96 71t-144 25q-77 0 -148 -26t-129.5 -75t-100.5 -118t-60 -156q-20 -95 -6.5 -164.5t51.5 -114.5t97 -66.5t129 -21.5q87 0 164 26t137 61q14 -5 10 -21q-76 -49 -157.5 -71.5
t-166.5 -22.5q-76 0 -138 24.5t-102.5 73.5t-54.5 123.5t7 173.5q19 92 64 166t108 126.5t140 80.5t161 28q93 0 158.5 -28t104 -78t49 -119.5t-7.5 -151.5zM317 278q-11 -49 -6.5 -81.5t18.5 -51.5t36.5 -26.5t48.5 -7.5q28 0 51.5 10t42 26.5t31 37.5t17.5 43l21 97
q5 22 2 44t-14.5 39t-31.5 27.5t-48 10.5q-26 0 -51.5 -7t-47.5 -25.5t-40 -51t-29 -84.5z" />
    <glyph glyph-name="atilde" unicode="&#xe3;" 
d="M421 668q11 0 19 4.5t14 9.5q7 6 12 15q8 1 14.5 -1.5t9.5 -9.5q-6 -13 -17 -23q-9 -9 -22.5 -16t-32.5 -7q-18 0 -32 5.5t-26 12t-24 12t-26 5.5q-11 0 -19 -5t-14 -10q-7 -7 -12 -15q-19 -2 -24 11q6 13 16 24q8 9 21.5 16.5t33.5 7.5q18 0 32 -5.5t26.5 -12.5
t24.5 -12.5t26 -5.5zM482 526l2 1q4 2 12 2q7 0 11 -2q2 -1 3 -1l-111 -523l-4 -2q-2 -1 -10 -1q-7 0 -9 1t-3 2l13 87q-32 -47 -78 -73.5t-111 -26.5q-44 0 -77 14t-52.5 46t-22.5 84t13 129q16 76 41 128.5t57 84.5t71.5 46t85.5 14q59 0 97 -27.5t49 -72.5zM436 326
q7 31 4 63t-17.5 58t-40.5 42.5t-63 16.5q-92 0 -145 -57.5t-82 -185.5t-1.5 -185.5t116.5 -57.5q40 0 73.5 16.5t59 42.5t43 58t24.5 63z" />
    <glyph glyph-name="b" unicode="b" 
d="M152 439q32 45 75 71t108 26q43 0 77 -14t54.5 -46t24.5 -84.5t-12 -128.5q-16 -77 -40.5 -129t-56 -84t-70 -46t-83.5 -14q-63 0 -100 28t-51 76l-18 -91q-1 -1 -4 -2t-13 -1t-12 1t-3 2l158 744l3 1q4 2 13 2q5 0 7.5 -0.5t4.5 -1.5t4 -1zM445 263q27 129 -2 186
t-117 57q-39 0 -72 -16t-58 -41t-42 -56t-24 -61l-29 -132q-6 -31 -2.5 -63t18 -58t40.5 -42.5t65 -16.5q90 0 143 57.5t80 185.5z" />
    <glyph glyph-name="backslash" unicode="\" horiz-adv-x="421" 
d="M320 -43q-1 -1 -3 -2q-4 -2 -13 -2q-8 0 -12 2q-2 1 -2 2l-169 789q0 1 2 2q4 2 12 2q9 0 13 -2q2 -1 3 -2z" />
    <glyph glyph-name="bar" unicode="|" horiz-adv-x="244" 
d="M32 -194q-1 -1 -4 -2t-13 -1t-12 1t-3 2l208 981q1 0 4 1q6 2 13 2q8 0 12 -2q2 -1 3 -1z" />
    <glyph glyph-name="braceleft" unicode="{" horiz-adv-x="334" 
d="M47 318q-1 1 -1 4q0 7 1 12q2 10 4 13q1 3 3 4h35q23 0 35.5 16t17.5 36l58 274q13 60 53.5 96.5t107.5 36.5h40q1 -1 1 -4q0 -7 -1 -12q-1 -4 -2 -7t-2 -5q-2 -3 -3 -4h-35q-56 0 -85.5 -27t-40.5 -76l-54 -254q-7 -32 -16.5 -52.5t-31.5 -33.5q17 -13 18 -34t-6 -53
l-54 -254q-11 -50 7.5 -76.5t74.5 -26.5h35q1 -1 1 -3v-5t-1 -7q-2 -5 -3 -8t-2 -5q-1 -3 -2 -4h-40q-67 0 -92.5 36.5t-12.5 96.5l58 274q5 20 -1 36t-29 16h-35z" />
    <glyph glyph-name="braceright" unicode="}" horiz-adv-x="334" 
d="M300 351v-4q0 -7 -1 -12t-2 -8t-2 -5q-1 -3 -2 -4h-35q-23 0 -36 -16t-18 -36l-58 -274q-13 -60 -53.5 -96.5t-107.5 -36.5h-40q-1 1 -1 4q0 7 1 12q1 4 2.5 7l2.5 5q1 3 2 4h35q56 0 85.5 27t40.5 76l54 254q7 32 16.5 52.5t31.5 33.5q-16 13 -17.5 34t5.5 53l54 254
q11 50 -7.5 76.5t-74.5 26.5h-35q-1 1 -1 3v4.5t2 7.5q1 5 2 8t2 5q1 3 2 4h40q67 0 92.5 -36.5t12.5 -96.5l-58 -274q-5 -20 1.5 -36t29.5 -16h35z" />
    <glyph glyph-name="bracketleft" unicode="[" horiz-adv-x="311" 
d="M377 810q1 -1 1 -4v-5t-1 -8q-2 -5 -3 -8t-2 -5q-1 -3 -2 -4h-129l-194 -912h129q1 -1 1 -4q0 -7 -1 -12q-2 -5 -3 -8.5t-2 -5.5q-1 -3 -2 -4h-163l208 980h163z" />
    <glyph glyph-name="bracketright" unicode="]" horiz-adv-x="310" 
d="M310 810l-208 -980h-163q-1 1 -1 4v5.5t2 8.5q1 4 2 7t2 5q1 3 2 4h129l194 912h-129q-1 1 -1 4v5t2 8q1 5 2 8t2 5q1 3 2 4h163z" />
    <glyph glyph-name="breve" unicode="&#x2d8;" horiz-adv-x="324" 
d="M282 682q-17 -16 -39 -27q-19 -11 -45 -19t-58 -8t-54.5 8t-36.5 19q-17 11 -27 27q4 8 8.5 12t13.5 7q11 -12 26 -22q13 -8 32 -14.5t45 -6.5q25 0 47 6.5t39 14.5q19 10 35 22q14 -4 14 -19z" />
    <glyph glyph-name="brokenbar" unicode="&#xa6;" horiz-adv-x="243" 
d="M92 247q1 0 4 1q6 2 14 2q5 0 7.5 -0.5t4.5 -1.5t4 -1l-93 -441q-2 -1 -5 -2t-13 -1q-11 0 -13 1q-3 1 -3 2zM209 797q1 0 4 1q6 2 14 2q5 0 7.5 -0.5t4.5 -1.5t4 -1l-93 -441q-2 -1 -5 -2t-13 -1q-11 0 -13 1q-3 1 -3 2z" />
    <glyph glyph-name="bullet" unicode="&#x2022;" horiz-adv-x="279" 
d="M165 282q-3 -14 -13 -22t-24 -8q-13 0 -20.5 8t-4.5 22t13.5 22.5t23.5 8.5q14 0 21 -8.5t4 -22.5z" />
    <glyph glyph-name="c" unicode="c" horiz-adv-x="442" 
d="M321 505q-93 0 -149 -61t-82 -181q-26 -121 6.5 -181t126.5 -60q24 0 44 3.5t34 8.5q17 5 30 12q5 -4 7 -11.5t1 -15.5q-16 -9 -35 -15q-17 -5 -41 -9.5t-54 -4.5q-99 0 -139.5 72t-11.5 210q28 134 96 199t167 65q29 0 49.5 -3.5t34.5 -8.5q16 -5 27 -11q-3 -19 -18 -28
q-10 6 -24 10q-12 4 -29 7t-40 3z" />
    <glyph glyph-name="cacute" unicode="&#x107;" horiz-adv-x="442" 
d="M278 610q-18 1 -21 14l148 150q19 0 27 -17zM321 505q-93 0 -149 -61t-82 -181q-26 -121 6.5 -181t126.5 -60q24 0 44 3.5t34 8.5q17 5 30 12q5 -4 7 -11.5t1 -15.5q-16 -9 -35 -15q-17 -5 -41 -9.5t-54 -4.5q-99 0 -139.5 72t-11.5 210q28 134 96 199t167 65
q29 0 49.5 -3.5t34.5 -8.5q16 -5 27 -11q-3 -19 -18 -28q-10 6 -24 10q-12 4 -29 7t-40 3z" />
    <glyph glyph-name="caron" unicode="&#x2c7;" horiz-adv-x="404" 
d="M149 550l-103 101q7 16 22 21l101 -91l139 90q11 -3 11 -20l-144 -101h-26z" />
    <glyph glyph-name="ccaron" unicode="&#x10d;" horiz-adv-x="442" 
d="M320 602l-94 93q3 8 6 12t11 7l93 -84l127 83q13 -3 13 -18l-133 -93h-23zM321 505q-93 0 -149 -61t-82 -181q-26 -121 6.5 -181t126.5 -60q24 0 44 3.5t34 8.5q17 5 30 12q5 -4 7 -11.5t1 -15.5q-16 -9 -35 -15q-17 -5 -41 -9.5t-54 -4.5q-99 0 -139.5 72t-11.5 210
q28 134 96 199t167 65q29 0 49.5 -3.5t34.5 -8.5q16 -5 27 -11q-3 -19 -18 -28q-10 6 -24 10q-12 4 -29 7t-40 3z" />
    <glyph glyph-name="ccedilla" unicode="&#xe7;" horiz-adv-x="442" 
d="M58 272q28 134 96 199t167 65q29 0 49.5 -3.5t34.5 -8.5q16 -5 27 -11q-3 -19 -18 -28q-10 6 -24 10q-12 4 -29 7t-40 3q-93 0 -149 -61t-82 -181q-26 -121 6.5 -181t126.5 -60q24 0 44 3.5t34 8.5q17 5 30 12q5 -4 7 -11.5t1 -15.5q-16 -9 -35 -15q-17 -5 -41 -9.5
t-54 -4.5h-8l-23 -55q54 0 77 -25.5t14 -67.5q-10 -48 -41.5 -70t-87.5 -22q-19 0 -34 3t-26 8q-12 5 -22 12q4 14 15 22q9 -5 20 -9q10 -4 23.5 -6.5t30.5 -2.5q77 0 92 70q7 29 -9 44.5t-51 15.5h-31l-5 8l31 78q-80 12 -111 83t-5 196z" />
    <glyph glyph-name="ccircumflex" unicode="&#x109;" horiz-adv-x="442" 
d="M367 721l100 -99q-3 -7 -6 -11t-11 -6l-99 88l-136 -89q-7 3 -11 6.5t-4 11.5l142 99h25zM321 505q-93 0 -149 -61t-82 -181q-26 -121 6.5 -181t126.5 -60q24 0 44 3.5t34 8.5q17 5 30 12q5 -4 7 -11.5t1 -15.5q-16 -9 -35 -15q-17 -5 -41 -9.5t-54 -4.5q-99 0 -139.5 72
t-11.5 210q28 134 96 199t167 65q29 0 49.5 -3.5t34.5 -8.5q16 -5 27 -11q-3 -19 -18 -28q-10 6 -24 10q-12 4 -29 7t-40 3z" />
    <glyph glyph-name="cdotaccent" unicode="&#x10b;" horiz-adv-x="442" 
d="M357 624q-2 -1 -6 -2t-18 -1t-18 1t-6 2l9 42q2 0 6 1q8 2 19 2q6 0 10 -0.5t7 -1.5q4 -1 6 -1zM321 505q-93 0 -149 -61t-82 -181q-26 -121 6.5 -181t126.5 -60q24 0 44 3.5t34 8.5q17 5 30 12q5 -4 7 -11.5t1 -15.5q-16 -9 -35 -15q-17 -5 -41 -9.5t-54 -4.5
q-99 0 -139.5 72t-11.5 210q28 134 96 199t167 65q29 0 49.5 -3.5t34.5 -8.5q16 -5 27 -11q-3 -19 -18 -28q-10 6 -24 10q-12 4 -29 7t-40 3z" />
    <glyph glyph-name="cedilla" unicode="&#xb8;" horiz-adv-x="296" 
d="M-57 -46l33 85l27 -2l-25 -63q59 0 81 -23t14 -65q-21 -97 -133 -97q-19 0 -34 3t-26 8q-12 5 -22 12q4 13 16 22q9 -5 20 -9q10 -4 23 -6.5t30 -2.5q38 0 61.5 17.5t31.5 52.5q12 60 -61 60h-31z" />
    <glyph glyph-name="cent" unicode="&#xa2;" horiz-adv-x="458" 
d="M191 -9q-89 6 -123.5 75t-7.5 197t91 197t156 75l15 92q10 3 19 3q10 0 16 -3l-24 -91q26 -1 45.5 -4.5t32.5 -7.5q15 -5 25 -11q-3 -19 -18 -28q-10 6 -24 10q-12 4 -29 7t-40 3q-93 0 -149 -61t-82 -181q-26 -121 6.5 -180.5t126.5 -59.5q24 0 44 3t34 8q17 5 30 12
q5 -4 7 -11.5t1 -15.5q-15 -8 -34 -14q-17 -5 -40 -9.5t-51 -5.5l-16 -91q-8 -4 -18 -4t-17 4z" />
    <glyph glyph-name="circumflex" unicode="&#x2c6;" horiz-adv-x="396" 
d="M203 683l102 -101q-7 -17 -21 -20l-101 90l-139 -91q-13 6 -12 21l145 101h26z" />
    <glyph glyph-name="colon" unicode=":" horiz-adv-x="218" 
d="M69 3q-3 -1 -7 -2t-18 -1t-18 1t-5 2l9 42q2 0 6 1q8 2 18 2t18 -2q4 -1 6 -1zM153 398q-3 -1 -7 -2t-18 -1t-18 1t-5 2l8 42q2 0 6 1q8 2 19 2q6 0 10 -0.5t7 -1.5q4 -1 6 -1z" />
    <glyph glyph-name="comma" unicode="," horiz-adv-x="204" 
d="M-17 -82q10 9 19 21q8 11 16 26t15 35q-10 0 -13 1t-4 2l9 42q2 0 6 1q8 2 18 2t18 -2q4 -1 6 -1l-7 -32q-6 -26 -17.5 -46t-23.5 -34q-14 -16 -29 -27z" />
    <glyph glyph-name="commaaccent" unicode="&#xf6c3;" horiz-adv-x="186" 
d="M-121 -82q10 9 19 21q8 11 16 26t15 35q-10 0 -13 1t-4 2l9 42q2 0 6 1q8 2 18 2t18 -2q4 -1 6 -1l-7 -32q-6 -26 -17.5 -46t-23.5 -34q-14 -16 -29 -27z" />
    <glyph glyph-name="commaaccent.alt" horiz-adv-x="166" 
d="M113 708q0 -1 -6 -6.5t-14 -16t-16 -25.5t-14 -34q5 -1 8 -1t5 -1q3 -1 5 -1l-9 -42q-2 -1 -6 -2t-18 -1t-18 1t-6 2l7 32q5 26 17 46t24 34q14 16 29 27z" />
    <glyph glyph-name="copyright" unicode="&#xa9;" horiz-adv-x="807" 
d="M340 5q-69 0 -124.5 26.5t-91.5 72t-49.5 106.5t1.5 130t54.5 130t94.5 106.5t121.5 71.5t135.5 26t124.5 -26t91.5 -71.5t49 -106.5t-2 -130t-54 -130t-94 -106.5t-121.5 -72t-135.5 -26.5zM476 646q-63 0 -124 -24t-111.5 -65.5t-87 -97.5t-49.5 -119
q-14 -63 -1.5 -119t45.5 -98t84 -66t114 -24t124 24t111.5 66t86 98t49.5 119q13 63 1 119t-44.5 97.5t-83.5 65.5t-114 24zM371 147q-85 0 -114.5 51.5t-9.5 148.5q43 199 209 199q25 0 42.5 -3.5t29.5 -7.5q13 -5 23 -11q-2 -14 -15 -22q-11 5 -24 9q-11 3 -25.5 6
t-31.5 3q-74 0 -116.5 -40.5t-61.5 -132.5q-38 -173 105 -173q18 0 35 2.5t30 5.5q15 4 28 9q8 -5 6 -21q-12 -7 -29 -12q-14 -5 -34.5 -8t-46.5 -3z" />
    <glyph glyph-name="currency" unicode="&#xa4;" horiz-adv-x="586" 
d="M379 126q-29 -21 -63.5 -33t-69.5 -12q-36 0 -65 12t-49 33l-90 -75q-2 0 -4 1q-5 2 -8 8q-3 2 -4 4.5t-2 4.5t0 4l91 74q-16 25 -21 56.5t3 67.5q8 35 26.5 67t45.5 57l-60 74q0 1 2 4q2 2 3.5 4.5t5.5 5.5q9 5 11 6t4 1l61 -73q29 20 62.5 32t68.5 12t63.5 -12
t48.5 -33l89 74q1 0 3 -1t4.5 -2.5t5.5 -3.5q2 -4 4 -10q1 -3 1 -4l-89 -74q17 -26 22.5 -57.5t-2.5 -66.5q-8 -36 -27 -67.5t-46 -56.5l59 -74l-2 -4q-1 -2 -2.5 -4.5t-4.5 -4.5q-6 -6 -12 -8q-3 -1 -4 -1zM321 431q-33 0 -65 -12.5t-58.5 -34t-45 -50.5t-25.5 -63
q-8 -34 -1.5 -63t23.5 -50.5t44 -34t60 -12.5q34 0 65.5 12.5t57.5 34t44.5 50.5t26.5 63q7 34 1 63t-23 50.5t-43.5 34t-60.5 12.5z" />
    <glyph glyph-name="d" unicode="d" 
d="M524 747l3 1q4 2 13 2q5 0 7.5 -0.5t4.5 -1.5t4 -1l-158 -744l-4 -2q-2 -1 -10 -1q-7 0 -9 1t-3 2l13 88q-32 -48 -75.5 -74.5t-108.5 -26.5q-44 0 -78 14t-54 46t-24 84t12 129q16 76 40 128.5t55.5 84.5t70.5 46t84 14q63 0 100.5 -28.5t50.5 -73.5zM434 326
q7 31 3.5 63t-18 58t-40.5 42.5t-65 16.5q-46 0 -81.5 -14t-62.5 -43.5t-46.5 -75.5t-32.5 -110q-27 -128 1.5 -185.5t117.5 -57.5q40 0 73 16.5t58.5 42.5t42.5 58t23 63z" />
    <glyph glyph-name="dagger" unicode="&#x2020;" horiz-adv-x="581" 
d="M219 -111l-21 -16l-16 16l125 553l-243 -6q-1 1 -1 4q-1 4 0 13q1 6 5 12q2 3 3 4l241 -5l42 234q2 0 5 1q6 2 15 2q7 0 13 -2q3 -1 4 -1l-56 -234l245 5q1 -1 1 -4q0 -2 -2 -12q-1 -5 -2 -8t-2 -5q-1 -3 -2 -4l-243 6z" />
    <glyph glyph-name="daggerdbl" unicode="&#x2021;" horiz-adv-x="636" 
d="M536 143q1 -1 1 -4v-5t-1 -8q-3 -9 -5 -13q-1 -3 -2 -3l-240 7l-43 -236q-1 -1 -4 -2t-16 -1q-12 0 -14 1q-3 1 -3 2l57 236l-243 -7q-1 0 -1 3v5t2 8q1 5 2 8t2 5q1 3 2 4l240 -7l25 153l40 153l-243 -6q-1 1 -1 4q0 2 -0.5 5t1.5 8q1 5 2.5 7.5t2.5 4.5l2 4l241 -5
l42 234q1 0 4 1q6 2 16 2q8 0 14 -2q2 -1 3 -1l-56 -234l242 5q1 -2 1 -4t-0.5 -4.5l-1.5 -7.5q-2 -5 -2.5 -8t-1.5 -5q-1 -3 -2 -4l-240 6l-26 -153l-39 -153z" />
    <glyph glyph-name="dcaron" unicode="&#x10f;" horiz-adv-x="565" 
d="M599 588q-15 0 -17 11q38 28 59 66t29 86q23 5 33 -4q-5 -21 -14 -44t-22.5 -44.5t-30.5 -40t-37 -30.5zM524 747l3 1q4 2 13 2q5 0 7.5 -0.5t4.5 -1.5t4 -1l-158 -744l-4 -2q-2 -1 -10 -1q-7 0 -9 1t-3 2l13 88q-32 -48 -75.5 -74.5t-108.5 -26.5q-44 0 -78 14t-54 46
t-24 84t12 129q16 76 40 128.5t55.5 84.5t70.5 46t84 14q63 0 100.5 -28.5t50.5 -73.5zM434 326q7 31 3.5 63t-18 58t-40.5 42.5t-65 16.5q-46 0 -81.5 -14t-62.5 -43.5t-46.5 -75.5t-32.5 -110q-27 -128 1.5 -185.5t117.5 -57.5q40 0 73 16.5t58.5 42.5t42.5 58t23 63z" />
    <glyph glyph-name="dcroat" unicode="&#x111;" 
d="M609 658q1 -1 1 -3v-4.5t-1 -6.5q-1 -5 -2 -7l-2 -4t-2 -3h-72l-133 -627l-4 -2q-2 -1 -10 -1q-7 0 -9 1t-3 2l13 88q-32 -48 -75.5 -74.5t-108.5 -26.5q-44 0 -78 14t-54 46t-24 84t12 129q16 76 40 128.5t55.5 84.5t70.5 46t84 14q63 0 100.5 -28.5t50.5 -73.5l41 196
h-136q-1 1 -1 3v4t1 7q1 4 2 6.5t2 4.5t2 3h136l19 89l3 1q4 2 13 2q5 0 7.5 -0.5t4.5 -1.5t4 -1l-19 -89h72zM434 326q7 31 3.5 63t-18 58t-40.5 42.5t-65 16.5q-46 0 -81.5 -14t-62.5 -43.5t-46.5 -75.5t-32.5 -110q-27 -128 1.5 -185.5t117.5 -57.5q40 0 73 16.5
t58.5 42.5t42.5 58t23 63z" />
    <glyph glyph-name="degree" unicode="&#xb0;" horiz-adv-x="362" 
d="M343 619q4 19 1.5 36.5t-11.5 31t-25.5 22t-41.5 8.5t-45 -8.5t-35.5 -22.5t-25.5 -32t-14 -36t-1.5 -35.5t12 -31t26 -21.5t42.5 -8q25 0 45 8t35 21.5t24.5 31t13.5 36.5zM126 617q4 22 16.5 43t31 38t43 27.5t54.5 10.5q29 0 49 -10t31 -26.5t13.5 -37.5t-1.5 -42
q-5 -22 -16.5 -43t-29.5 -37.5t-42 -26.5t-53 -10q-31 0 -51.5 10t-32 26t-14.5 36.5t2 41.5z" />
    <glyph glyph-name="dieresis" unicode="&#xa8;" horiz-adv-x="455" 
d="M154 614q-2 -1 -6 -2t-18 -1t-18 1t-6 2l9 42q2 0 6 1q8 2 19 2q6 0 10 -0.5t7 -1.5q4 -1 6 -1zM295 614q-2 -1 -6 -2t-18 -1t-18 1t-6 2l9 42q2 0 6 1q8 2 19 2q6 0 10 -0.5t7 -1.5q4 -1 6 -1z" />
    <glyph glyph-name="divide" unicode="&#xf7;" horiz-adv-x="563" 
d="M83 275q-1 1 -1 3v4.5t2 7.5q1 7 4 12q1 2 2 3h381q1 -1 1 -3v-5t-1 -7l-3 -7.5t-2 -4.5t-2 -3h-381zM263 108q-3 -1 -7 -2t-18 -1t-18 1t-5 2l9 42q2 0 6 1q8 2 18 2t18 -2q4 -1 6 -1zM331 430q-2 -1 -6 -2t-18 -1t-18 1t-6 2l9 42q2 0 6 1q8 2 19 2q6 0 10 -0.5t7 -1.5
q4 -1 6 -1z" />
    <glyph glyph-name="dollar" unicode="$" horiz-adv-x="558" 
d="M365 637q-100 0 -154.5 -37t-68.5 -101q-8 -38 3.5 -62.5t36 -40t58 -25.5t69 -19t68.5 -20.5t56.5 -31t34.5 -49t1 -75.5q-16 -76 -80 -122t-162 -51l-22 -129q-1 -1 -4 -2t-15 -1q-13 0 -16 1t-4 2l32 128q-45 0 -80 5t-60 11q-29 7 -50 17q1 7 5.5 15t10.5 12
q24 -8 52 -14q24 -5 56.5 -9t68.5 -4q96 0 157 34.5t76 105.5q8 40 -3.5 65t-36 41t-58 26t-68.5 19t-68 20.5t-57 30t-35 47t-1 73.5q15 73 75.5 118.5t157.5 51.5l20 119q2 0 5 1q6 2 15 2t15 -2q3 -1 4 -1l-31 -118q41 0 71.5 -3.5t51.5 -7.5q25 -5 42 -11
q-1 -8 -4.5 -15t-10.5 -12q-19 5 -43 9q-20 3 -48.5 6t-61.5 3z" />
    <glyph glyph-name="dotaccent" unicode="&#x2d9;" horiz-adv-x="176" 
d="M87 606q-3 -1 -7 -2t-18 -1t-18 1t-5 2l9 42q2 0 6 1q8 2 18 2t18 -2q4 -1 6 -1z" />
    <glyph glyph-name="dotlessi" unicode="&#x131;" horiz-adv-x="222" 
d="M63 3q-1 -1 -4 -2t-13 -1t-12 1t-3 2l110 520q1 0 4 1q6 2 13 2q8 0 12 -2q2 -1 3 -1z" />
    <glyph glyph-name="dotlessj" unicode="&#x237;" horiz-adv-x="223" 
d="M142 523q1 0 4 1q6 2 13 2q8 0 12 -2q2 -1 3 -1l-130 -611q-18 -85 -61.5 -123.5t-103.5 -38.5q-16 0 -26.5 1t-16.5 3q-7 2 -11 5v2q0 1 -0.5 2.5t0.5 3.5q1 6 5 12q2 3 3 4q5 -1 11 -2q5 -1 13.5 -1.5t19.5 -0.5q54 0 87 30t47 99z" />
    <glyph glyph-name="e" unicode="e" horiz-adv-x="506" 
d="M87 252q-22 -122 10 -175.5t119 -53.5q31 0 56.5 6t43.5 14q21 9 37 20q14 -9 12 -28q-18 -13 -42 -23q-20 -8 -50.5 -15t-68.5 -7q-98 0 -138 69.5t-11 206.5q31 142 99.5 206t158.5 64q45 0 76 -14t49 -38.5t23 -58.5t-3 -73q-5 -23 -10.5 -41.5t-10.5 -31.5
q-5 -15 -11 -27h-339zM427 357q6 30 4 57t-15.5 47.5t-38.5 32.5t-65 12q-76 0 -133.5 -53.5t-85.5 -170.5h312l7 20l7 23.5t8 31.5z" />
    <glyph glyph-name="eacute" unicode="&#xe9;" horiz-adv-x="506" 
d="M284 602q-17 2 -20 13l145 147q21 0 28 -16zM87 252q-22 -122 10 -175.5t119 -53.5q31 0 56.5 6t43.5 14q21 9 37 20q14 -9 12 -28q-18 -13 -42 -23q-20 -8 -50.5 -15t-68.5 -7q-98 0 -138 69.5t-11 206.5q31 142 99.5 206t158.5 64q45 0 76 -14t49 -38.5t23 -58.5
t-3 -73q-5 -23 -10.5 -41.5t-10.5 -31.5q-5 -15 -11 -27h-339zM427 357q6 30 4 57t-15.5 47.5t-38.5 32.5t-65 12q-76 0 -133.5 -53.5t-85.5 -170.5h312l7 20l7 23.5t8 31.5z" />
    <glyph glyph-name="ebreve" unicode="&#x115;" horiz-adv-x="506" 
d="M218 688q4 8 8.5 12t13.5 7q11 -12 26 -22q13 -8 32 -14.5t45 -6.5q25 0 47 6.5t39 14.5q19 10 35 22q16 -4 14 -22q-16 -14 -37 -25q-18 -10 -43.5 -17.5t-57.5 -7.5t-55 8t-38 18q-18 11 -29 27zM426 252q6 12 11 27q5 13 10.5 31.5t10.5 41.5q8 39 3 73t-23 58.5
t-49 38.5t-76 14q-90 0 -158.5 -64t-99.5 -206q-29 -137 11 -206.5t138 -69.5q38 0 68.5 7t50.5 15q24 10 42 23q2 19 -12 28q-16 -11 -37 -20q-18 -8 -43.5 -14t-56.5 -6q-87 0 -119 53.5t-10 175.5h339zM427 357q-4 -18 -8 -31.5l-7 -23.5l-7 -20h-312q28 117 85.5 170.5
t133.5 53.5q40 0 65 -12t38.5 -32.5t15.5 -47.5t-4 -57z" />
    <glyph glyph-name="ecaron" unicode="&#x11b;" horiz-adv-x="506" 
d="M317 602l-98 96q3 8 6.5 12t11.5 7l96 -87l132 86q14 -4 14 -18l-137 -96h-25zM87 252q-22 -122 10 -175.5t119 -53.5q31 0 56.5 6t43.5 14q21 9 37 20q14 -9 12 -28q-18 -13 -42 -23q-20 -8 -50.5 -15t-68.5 -7q-98 0 -138 69.5t-11 206.5q31 142 99.5 206t158.5 64
q45 0 76 -14t49 -38.5t23 -58.5t-3 -73q-5 -23 -10.5 -41.5t-10.5 -31.5q-5 -15 -11 -27h-339zM427 357q6 30 4 57t-15.5 47.5t-38.5 32.5t-65 12q-76 0 -133.5 -53.5t-85.5 -170.5h312l7 20l7 23.5t8 31.5z" />
    <glyph glyph-name="ecircumflex" unicode="&#xea;" horiz-adv-x="506" 
d="M369 721l100 -99q-3 -7 -6 -11.5t-11 -6.5l-99 88l-136 -89q-7 3 -11 7t-4 12l142 99h25zM87 252q-22 -122 10 -175.5t119 -53.5q31 0 56.5 6t43.5 14q21 9 37 20q14 -9 12 -28q-18 -13 -42 -23q-20 -8 -50.5 -15t-68.5 -7q-98 0 -138 69.5t-11 206.5q31 142 99.5 206
t158.5 64q45 0 76 -14t49 -38.5t23 -58.5t-3 -73q-5 -23 -10.5 -41.5t-10.5 -31.5q-5 -15 -11 -27h-339zM427 357q6 30 4 57t-15.5 47.5t-38.5 32.5t-65 12q-76 0 -133.5 -53.5t-85.5 -170.5h312l7 20l7 23.5t8 31.5z" />
    <glyph glyph-name="edieresis" unicode="&#xeb;" horiz-adv-x="506" 
d="M287 635q-3 -1 -7 -2t-18 -1t-18 1t-5 2l8 42q2 0 6 1q8 2 19 2q6 0 10 -0.5t7 -1.5q4 -1 6 -1zM428 635q-3 -1 -7 -2t-18 -1t-18 1t-5 2l8 42q2 0 6 1q8 2 19 2q6 0 10 -0.5t7 -1.5q4 -1 6 -1zM87 252q-22 -122 10 -175.5t119 -53.5q31 0 56.5 6t43.5 14q21 9 37 20
q14 -9 12 -28q-18 -13 -42 -23q-20 -8 -50.5 -15t-68.5 -7q-98 0 -138 69.5t-11 206.5q31 142 99.5 206t158.5 64q45 0 76 -14t49 -38.5t23 -58.5t-3 -73q-5 -23 -10.5 -41.5t-10.5 -31.5q-5 -15 -11 -27h-339zM427 357q6 30 4 57t-15.5 47.5t-38.5 32.5t-65 12
q-76 0 -133.5 -53.5t-85.5 -170.5h312l7 20l7 23.5t8 31.5z" />
    <glyph glyph-name="edotaccent" unicode="&#x117;" horiz-adv-x="506" 
d="M357 634q-2 -1 -6 -2t-18 -1t-18 1t-6 2l9 42q2 0 6 1q8 2 19 2q6 0 10 -0.5t7 -1.5q4 -1 6 -1zM87 252q-22 -122 10 -175.5t119 -53.5q31 0 56.5 6t43.5 14q21 9 37 20q14 -9 12 -28q-18 -13 -42 -23q-20 -8 -50.5 -15t-68.5 -7q-98 0 -138 69.5t-11 206.5
q31 142 99.5 206t158.5 64q45 0 76 -14t49 -38.5t23 -58.5t-3 -73q-5 -23 -10.5 -41.5t-10.5 -31.5q-5 -15 -11 -27h-339zM427 357q6 30 4 57t-15.5 47.5t-38.5 32.5t-65 12q-76 0 -133.5 -53.5t-85.5 -170.5h312l7 20l7 23.5t8 31.5z" />
    <glyph glyph-name="egrave" unicode="&#xe8;" horiz-adv-x="506" 
d="M265 746q6 7 15.5 11.5t19.5 4.5l84 -147q-9 -11 -27 -13zM87 252q-22 -122 10 -175.5t119 -53.5q31 0 56.5 6t43.5 14q21 9 37 20q14 -9 12 -28q-18 -13 -42 -23q-20 -8 -50.5 -15t-68.5 -7q-98 0 -138 69.5t-11 206.5q31 142 99.5 206t158.5 64q45 0 76 -14t49 -38.5
t23 -58.5t-3 -73q-5 -23 -10.5 -41.5t-10.5 -31.5q-5 -15 -11 -27h-339zM427 357q6 30 4 57t-15.5 47.5t-38.5 32.5t-65 12q-76 0 -133.5 -53.5t-85.5 -170.5h312l7 20l7 23.5t8 31.5z" />
    <glyph glyph-name="eight" unicode="8" horiz-adv-x="579" 
d="M222 -10q-54 0 -92 13t-61 35.5t-31 53t-1 65.5q10 45 34.5 81t53.5 63t57.5 45t46.5 27q-23 12 -42 27.5t-31 35.5t-16 45t2 57q16 72 75 112t152 40q91 0 134 -43t28 -114q-8 -39 -27.5 -70t-43.5 -54.5t-48 -39t-42 -24.5q27 -13 50.5 -29.5t39.5 -39t21.5 -52
t-2.5 -67.5q-16 -76 -79 -121.5t-178 -45.5zM226 21q48 0 85.5 10.5t65 29.5t44.5 44.5t24 54.5q10 45 -3.5 75t-42 51.5t-65.5 38l-73 33.5l-36 -20t-57.5 -39.5t-58 -59.5t-37.5 -78q-7 -30 -2 -55.5t23.5 -44t51.5 -29.5t81 -11zM365 659q-77 0 -126.5 -33.5t-63.5 -89.5
q-9 -39 3 -66t36 -47t57 -35l67 -30q17 9 41 23.5t47.5 36t42.5 50t27 63.5q14 61 -22 94.5t-109 33.5z" />
    <glyph glyph-name="eight.denom" horiz-adv-x="322" 
d="M170 348q49 0 72 -21t14 -61q-7 -35 -29.5 -57t-49.5 -36q13 -7 24.5 -15t19 -18.5t10.5 -23.5t-1 -31q-9 -42 -44.5 -66t-89.5 -24q-51 0 -79.5 22.5t-18.5 67.5q4 20 13.5 36t22.5 28.5t27.5 22.5t28.5 17q-22 13 -35 31t-6 48q8 35 38 57.5t83 22.5zM101 16
q38 0 67.5 16.5t37.5 50.5q4 21 -3.5 35t-22 24.5t-34 19t-37.5 17.5l-22.5 -12.5t-26.5 -19t-23.5 -27t-14.5 -34.5q-8 -37 13 -53.5t66 -16.5zM164 327q-38 0 -61.5 -15.5t-29.5 -41.5q-4 -19 2.5 -32.5t19 -23t29 -17l34.5 -15.5q28 16 48.5 36t25.5 47q7 30 -11 46
t-57 16z" />
    <glyph glyph-name="eight.num" horiz-adv-x="322" 
d="M243 694q49 0 72 -21t15 -61q-8 -35 -30.5 -57t-49.5 -36q13 -7 24.5 -15t19.5 -18.5t11 -23.5t-1 -31q-9 -42 -45 -66t-90 -24q-51 0 -79 22.5t-18 67.5q4 20 13.5 36t22.5 28.5t27.5 22.5t28.5 17q-23 13 -35.5 31t-6.5 48q8 35 38 57.5t83 22.5zM175 362
q38 0 67.5 16.5t36.5 50.5q4 21 -3.5 35t-22 24.5t-33.5 19t-37 17.5l-22.5 -12.5t-26.5 -19t-23.5 -27t-14.5 -34.5q-8 -37 13 -53.5t66 -16.5zM238 673q-38 0 -62 -15.5t-29 -41.5q-4 -19 2 -32.5t18.5 -23t29.5 -17l34 -15.5q29 16 49 36t26 47q12 62 -68 62z" />
    <glyph glyph-name="eightinferior" unicode="&#x2088;" horiz-adv-x="322" 
d="M150 252q49 0 71.5 -21t14.5 -61q-8 -35 -30.5 -57t-49.5 -36q27 -14 44.5 -33.5t9.5 -54.5q-9 -42 -45 -66t-90 -24q-51 0 -79 22.5t-18 67.5q4 20 13.5 36t22.5 28.5t27.5 22.5t28.5 17q-23 13 -35.5 31t-5.5 48q8 35 38 57.5t83 22.5zM81 -80q38 0 67.5 16.5
t36.5 50.5q4 21 -3.5 35t-22 24.5t-33.5 19t-37 17.5l-22.5 -12.5t-26.5 -19t-23.5 -27t-14.5 -34.5q-8 -37 13 -53.5t66 -16.5zM144 231q-38 0 -62 -15.5t-29 -41.5q-4 -19 2 -32.5t18.5 -23t29.5 -17l34 -15.5q29 16 49 36t26 47q12 62 -68 62z" />
    <glyph glyph-name="ellipsis" unicode="&#x2026;" horiz-adv-x="500" 
d="M64 3q-3 -1 -7 -2t-18 -1t-18 1t-5 2l9 42q2 0 6 1q8 2 18 2t18 -2q4 -1 6 -1zM212 3q-3 -1 -7 -2t-18 -1t-18 1t-5 2l9 42q2 0 6 1q8 2 18 2t18 -2q4 -1 6 -1zM360 3q-3 -1 -7 -2t-18 -1t-18 1t-5 2l9 42q2 0 6 1q8 2 18 2t18 -2q4 -1 6 -1z" />
    <glyph glyph-name="emacron" unicode="&#x113;" horiz-adv-x="506" 
d="M223 643q-3 5 -1 14q1 8 7 14h234q3 -4 0 -13q-1 -5 -2 -8.5t-4 -6.5h-234zM87 252q-22 -122 10 -175.5t119 -53.5q31 0 56.5 6t43.5 14q21 9 37 20q14 -9 12 -28q-18 -13 -42 -23q-20 -8 -50.5 -15t-68.5 -7q-98 0 -138 69.5t-11 206.5q31 142 99.5 206t158.5 64
q45 0 76 -14t49 -38.5t23 -58.5t-3 -73q-5 -23 -10.5 -41.5t-10.5 -31.5q-5 -15 -11 -27h-339zM427 357q6 30 4 57t-15.5 47.5t-38.5 32.5t-65 12q-76 0 -133.5 -53.5t-85.5 -170.5h312l7 20l7 23.5t8 31.5z" />
    <glyph glyph-name="emdash" unicode="&#x2014;" horiz-adv-x="809" 
d="M81 275q-1 1 -1 3v4.5t2 7.5q1 7 4 12q1 2 2 3h630q1 -1 1 -3v-5t-1 -7l-3 -7.5t-2 -4.5t-2 -3h-630z" />
    <glyph glyph-name="endash" unicode="&#x2013;" horiz-adv-x="559" 
d="M81 275q-1 1 -1 3v4.5t2 7.5q1 7 4 12q1 2 2 3h380q1 -1 1 -3v-5t-1 -7l-3 -7.5t-2 -4.5t-2 -3h-380z" />
    <glyph glyph-name="eng" unicode="&#x14b;" horiz-adv-x="550" 
d="M151 435q42 48 93 74.5t113 26.5q71 0 104 -40t18 -108l-94 -444q-7 -33 -16.5 -59.5t-25 -48t-39.5 -37.5t-60 -27q-4 4 -5.5 10.5t1.5 14.5q25 8 43 20t31.5 29t22.5 40.5t16 55.5l93 438q14 66 -10.5 96.5t-87.5 30.5q-26 0 -55 -9t-56.5 -26t-53 -41t-44.5 -55
l-79 -373q-1 -1 -4 -2t-13 -1t-12 1t-3 2l110 520q1 0 4 1q6 2 13 2q8 0 12 -2q2 -1 3 -1l-19 -88v0z" />
    <glyph glyph-name="eogonek" unicode="&#x119;" horiz-adv-x="507" 
d="M427 357q6 30 4 57t-15.5 47.5t-38.5 32.5t-65 12q-76 0 -133.5 -53.5t-85.5 -170.5h312l7 20l7 23.5t8 31.5zM87 252q-22 -122 10 -175.5t119 -53.5q31 0 56.5 6t43.5 14q21 9 37 20q14 -9 12 -28q-5 -3 -10 -7l-11.5 -7t-14.5 -8q-37 -18 -71 -43t-59 -51.5t-39 -53.5
t-11 -50q2 -16 14.5 -27t37.5 -11q29 0 68 19q11 -11 8 -25q-15 -9 -37 -15t-45 -6q-29 0 -51.5 13.5t-26.5 41.5q-3 25 8 51.5t30.5 51t45 47t51.5 39.5q-11 -2 -22.5 -3t-25.5 -1q-98 0 -138 69.5t-11 206.5q31 142 99.5 206t158.5 64q45 0 76 -14t49 -38.5t23 -58.5
t-3 -73q-5 -23 -10.5 -41.5t-10.5 -31.5q-5 -15 -11 -27h-339z" />
    <glyph glyph-name="equal" unicode="=" horiz-adv-x="513" 
d="M103 358q-1 1 -1 3v4.5t1 7.5q1 7 4 12q1 2 2 3h328q1 -1 1 -3v-5t-1 -7q-1 -5 -2 -7.5t-2 -4.5t-2 -3h-328zM68 192q-1 1 -1 3t-0.5 4.5t1.5 7.5q1 7 4 12q1 2 2 3h328q1 -1 1 -3v-5t-1 -7q-1 -5 -2 -7.5t-2 -4.5t-2 -3h-328z" />
    <glyph glyph-name="estimated" unicode="&#x212e;" horiz-adv-x="821" 
d="M671 583q-34 33 -79.5 50.5t-98.5 17.5q-52 0 -105 -17.5t-101 -49.5l-47 -222h384zM629 95q-59 -51 -129 -78t-147 -27q-73 0 -131 27.5t-96 75.5t-52 112t2 137q15 73 56.5 137t99 112t127.5 75.5t143 27.5t131 -27.5t96 -75.5t52 -112t-1 -137l-5 -24h-544l-47 -218
q35 -31 80.5 -49t97.5 -18q51 0 102 16.5t98 45.5h67z" />
    <glyph glyph-name="eth" unicode="&#xf0;" 
d="M416 662q55 -57 73.5 -145.5t-7.5 -209.5q-19 -90 -45.5 -151t-60.5 -98t-76 -52.5t-92 -15.5q-47 0 -82.5 14.5t-56.5 46t-25.5 81.5t10.5 120q29 140 93.5 201t152.5 61q69 0 113 -30.5t52 -85.5q2 45 -2 80.5t-14.5 65t-26.5 54t-37 46.5l-133 -74q-7 4 -10 11t-2 15
l123 68q-53 43 -131 59q0 16 12 27q89 -18 150 -68l83 46q14 -8 11 -26zM209 19q38 0 72 11.5t63 39t51.5 72t36.5 110.5q14 67 10 111.5t-22.5 71.5t-49.5 38t-70 11q-38 0 -70.5 -11.5t-59.5 -38.5t-47.5 -71.5t-34.5 -110.5t-11 -110.5t19.5 -72t45.5 -39t67 -11.5z" />
    <glyph glyph-name="exclam" unicode="!" horiz-adv-x="238" 
d="M189 717q-1 0 1 1t5.5 1.5t11.5 0.5q14 0 16 -2q1 -1 0 -1l-125 -564q-1 -1 -3 -2q-4 -2 -9 -2q-6 0 -10 2q-2 1 -2 2zM77 3q-2 -1 -6 -2t-17 -1q-14 0 -17 1t-4 2l9 42q1 0 5 1q6 2 17 2q6 0 10 -0.5t7 -1.5t5 -1z" />
    <glyph glyph-name="exclamdown" unicode="&#xa1;" horiz-adv-x="228" 
d="M115 365q0 1 2 2q4 2 10 2q5 0 9 -2q2 -1 3 -2l-115 -564q1 -1 -1 -2t-17 -1t-16 1t0 2zM173 473q-2 -1 -6 -2t-18 -1t-18 1t-6 2l9 42q2 0 6 1q8 2 19 2q6 0 10 -0.5t7 -1.5q4 -1 6 -1z" />
    <glyph glyph-name="f" unicode="f" horiz-adv-x="334" 
d="M180 496l-104 -493q-1 -1 -4 -2t-13 -1t-12 1t-3 2l104 493h-70q-2 7 -1 12.5t3 9.5t5 8h70l14 66q8 36 20.5 65.5t32.5 50t50.5 31.5t74.5 11q18 0 34 -2t28 -4q14 -3 25 -6q0 -8 -4.5 -15.5t-10.5 -12.5q-9 2 -20 5q-10 2 -23.5 3.5t-29.5 1.5q-37 0 -62 -8.5
t-41.5 -25t-26 -40.5t-15.5 -55l-14 -65h164q1 -1 1 -3v-5t-1 -7q-2 -4 -3 -6.5t-2 -4.5q-1 -3 -2 -4h-164z" />
    <glyph glyph-name="five" unicode="5" horiz-adv-x="519" 
d="M146 374q12 1 27 3q13 2 30 3t37 1q60 0 100.5 -14.5t63 -41.5t27.5 -65.5t-5 -85.5q-20 -92 -87.5 -138t-194.5 -46q-39 0 -66.5 3.5t-44.5 8.5q-20 5 -34 13q0 7 4.5 15.5t10.5 12.5q17 -7 37 -11q17 -5 41 -8t53 -3q109 0 169 38.5t78 122.5q7 34 5 64.5t-20 53.5
t-54 36.5t-97 13.5q-23 0 -44.5 -2t-38.5 -4q-20 -3 -37 -5l72 341h325q1 -1 1 -4q0 -7 -1 -12t-2 -7.5t-2 -4.5q-1 -3 -2 -4h-292z" />
    <glyph glyph-name="five.denom" horiz-adv-x="299" 
d="M68 202q39 0 68.5 -4.5t49 -16.5t26.5 -32.5t1 -51.5q-12 -54 -52 -78t-100 -24q-19 0 -33.5 2t-25.5 4q-12 3 -23 7q0 5 2.5 10t7.5 9q10 -3 22 -5q23 -5 54 -5q59 0 86.5 20.5t35.5 58.5q11 49 -19.5 66t-102.5 17h-26l35 164h172q2 -5 0 -11.5t-5 -11.5h-148z" />
    <glyph glyph-name="five.num" horiz-adv-x="301" 
d="M142 548q39 0 69 -4.5t49 -16.5t26.5 -32.5t0.5 -51.5q-11 -54 -51.5 -78t-100.5 -24q-19 0 -33.5 2t-25.5 4q-12 3 -23 7q0 5 2.5 10t7.5 9q10 -3 22 -5q23 -5 54 -5q59 0 87 20.5t36 58.5q11 49 -19.5 66t-102.5 17h-26l34 164h172q2 -5 0.5 -11.5t-4.5 -11.5h-148z
" />
    <glyph glyph-name="fiveeighths" unicode="&#x215d;" horiz-adv-x="740" 
d="M581 348q49 0 72 -21t14 -61q-7 -35 -29.5 -57t-49.5 -36q13 -7 24.5 -15t19 -18.5t10.5 -23.5t-1 -31q-9 -42 -44.5 -66t-89.5 -24q-51 0 -79.5 22.5t-18.5 67.5q4 20 13.5 36t22.5 28.5t27.5 22.5t28.5 17q-22 13 -35 31t-6 48q8 35 38 57.5t83 22.5zM633 699q1 0 3 1
q4 2 10 2q5 0 9 -2q2 -1 3 -1l-539 -707q-1 -1 -3 -1q-2 -1 -10 -1t-10 1q-2 0 -3 1zM155 548q39 0 69 -4.5t49 -16.5t26.5 -32.5t0.5 -51.5q-11 -54 -51.5 -78t-100.5 -24q-19 0 -33.5 2t-25.5 4q-12 3 -23 7q0 5 2.5 10t7.5 9q10 -3 22 -5q23 -5 54 -5q59 0 87 20.5
t36 58.5q11 49 -19.5 66t-102.5 17h-26l34 164h172q2 -5 0.5 -11.5t-4.5 -11.5h-148zM512 16q38 0 67.5 16.5t37.5 50.5q4 21 -3.5 35t-22 24.5t-34 19t-37.5 17.5l-22.5 -12.5t-26.5 -19t-23.5 -27t-14.5 -34.5q-8 -37 13 -53.5t66 -16.5zM575 327q-38 0 -61.5 -15.5
t-29.5 -41.5q-4 -19 2.5 -32.5t19 -23t29 -17l34.5 -15.5q28 16 48.5 36t25.5 47q7 30 -11 46t-57 16z" />
    <glyph glyph-name="fiveinferior" unicode="&#x2085;" horiz-adv-x="300" 
d="M48 106q39 0 69 -4.5t49 -16.5t26.5 -32.5t0.5 -51.5q-11 -54 -51.5 -78t-100.5 -24q-19 0 -33.5 2t-25.5 4q-12 3 -23 7q1 5 3 10t7 9q10 -3 22 -5q23 -5 54 -5q59 0 87 20.5t36 58.5q11 49 -19.5 66t-102.5 17h-26l34 164h172q2 -5 0.5 -11.5t-4.5 -11.5h-148z" />
    <glyph glyph-name="florin" unicode="&#x192;" horiz-adv-x="433" 
d="M244 420l-128 -409q-26 -82 -66.5 -117t-100.5 -35q-16 0 -29.5 2.5t-24.5 6.5q-12 4 -22 9q2 16 14 24q9 -3 20 -6q9 -2 21 -4t25 -2q21 0 40 5.5t35.5 19.5t30.5 37.5t25 58.5l128 410h-100q-1 1 -1 4v4.5t1 6.5q1 3 2 5.5t2 4.5t2 3h103l28 90q26 83 65 118t100 35
q18 0 32 -2.5t25 -5.5q11 -4 21 -7q-1 -13 -14 -24q-10 2 -21 5q-10 2 -22 4t-26 2q-44 0 -74.5 -26.5t-52.5 -97.5l-29 -91h104q1 -1 1 -3v-4.5t-1 -6.5t-2 -6.5t-2 -4.5t-2 -3h-107z" />
    <glyph glyph-name="four" unicode="4" horiz-adv-x="568" 
d="M462 677q1 0 4 1q6 2 14 2q5 0 7.5 -0.5t4.5 -1.5t4 -1l-98 -464h107q1 -1 1 -3t-2 -10l-3 -7.5t-2 -4.5t-1 -3h-107l-38 -182q-2 -1 -5 -2t-13 -1t-12 1t-3 2l38 182h-341q-1 1 -1 3v4.5t1 7.5q1 4 2.5 7l2.5 5t2 3zM365 213l88 413l-392 -413h304z" />
    <glyph glyph-name="four.denom" horiz-adv-x="323" 
d="M246 120q1 -1 1 -3q0 -5 -1 -8l-3 -9q-1 -2 -1 -3h-43l-21 -95q-1 -1 -3 -1q-2 -1 -8 -1q-7 0 -9 1q-2 0 -3 1l21 95h-184q-1 1 -1 2t-0.5 2t0.5 3q0 4 2 6l2 2l231 229q1 0 3 1q2 0 4 0.5t6 0.5q3 0 4.5 -0.5t3.5 -0.5q2 -1 3 -1l-47 -221h43zM180 120l40 187l-190 -187
h150z" />
    <glyph glyph-name="four.num" horiz-adv-x="324" 
d="M320 466v-3v-8l-3 -9q-1 -2 -2 -3h-43l-20 -95q-1 -1 -3 -1q-2 -1 -8 -1q-7 0 -9 1q-2 0 -3 1l20 95h-184v2q0 1 -0.5 2t0.5 3q0 4 2 6q1 1 1 2l232 229q1 0 3 1q2 0 3.5 0.5t5.5 0.5q3 0 5 -0.5t4 -0.5q2 -1 3 -1l-47 -221h43zM254 466l40 187l-190 -187h150z" />
    <glyph glyph-name="fourinferior" unicode="&#x2084;" horiz-adv-x="324" 
d="M226 24v-3v-8l-3 -9q-1 -2 -2 -3h-43l-20 -95q-1 -1 -3 -1q-2 -1 -8 -1q-7 0 -9 1q-2 0 -3 1l20 95h-184v2q0 1 -0.5 2t0.5 3q0 4 2 6q1 1 1 2l232 229q1 0 3 1q2 0 3.5 0.5t5.5 0.5q3 0 5 -0.5t4 -0.5q2 -1 3 -1l-47 -221h43zM160 24l40 187l-190 -187h150z" />
    <glyph glyph-name="fraction" unicode="&#x2044;" horiz-adv-x="123" 
d="M320 699q1 0 4 1q6 2 14 2q7 0 13 -2q3 -1 4 -1l-539 -705q-2 -1 -5 -2q-6 -2 -14 -2t-12 2q-2 1 -3 2z" />
    <glyph glyph-name="g" unicode="g" horiz-adv-x="553" 
d="M384 88q-30 -42 -72.5 -70t-110.5 -28q-46 0 -80 14t-53.5 46t-23 84t12.5 129q16 76 40 128.5t55.5 84.5t70 46t84.5 14q34 0 59.5 -8.5t43.5 -22.5t29.5 -33t17.5 -40l19 91q1 0 4 1q6 2 13 2q8 0 12 -2q2 -1 3 -1l-106 -497q-14 -68 -33 -119.5t-49 -86.5t-73 -52.5
t-106 -17.5q-30 0 -52.5 3.5t-37.5 8.5q-18 5 -31 12q2 19 17 27q13 -6 31 -10q15 -4 35.5 -6.5t44.5 -2.5q44 0 78.5 11t61 38.5t47 74.5t35.5 120zM91 263q-27 -128 0 -185.5t119 -57.5q44 0 78 18.5t58.5 45t39 57t20.5 54.5l29 136q4 24 2.5 54.5t-14.5 57t-39 45
t-70 18.5q-92 0 -144 -57.5t-79 -185.5z" />
    <glyph glyph-name="g.alt" horiz-adv-x="515" 
d="M139 214q-38 20 -53.5 59t-3.5 93q17 80 71.5 125t139.5 45q31 0 56 -6.5t44 -17.5l136 23q3 -19 -8 -36l-103 -11q17 -22 22.5 -53t-2.5 -69q-17 -79 -70.5 -124.5t-139.5 -45.5q-37 0 -64 8q-16 -14 -36 -38t-27 -56q-6 -30 16 -42.5t58.5 -19t79 -11t77.5 -17.5
t54 -39t9 -75q-7 -32 -26.5 -60t-53.5 -49.5t-82 -34t-111 -12.5q-51 0 -85 12.5t-53.5 33.5t-24.5 48.5t1 57.5q6 31 22 55.5t34 42.5t35.5 30.5t27.5 18.5q-10 10 -14 24t1 34q7 32 28.5 60.5t44.5 46.5zM128 -219q46 0 86 9t70.5 25.5t50.5 39.5t26 52q7 32 -3 52
t-31.5 31t-50.5 16t-60 8t-60.5 7t-51.5 13q-45 -26 -73 -62t-36 -71q-12 -57 21.5 -88.5t111.5 -31.5zM290 508q-64 0 -111.5 -35.5t-62.5 -105.5q-15 -71 17.5 -106.5t96.5 -35.5q65 0 112 35.5t62 106.5q15 70 -17 105.5t-97 35.5z" />
    <glyph glyph-name="gbreve" unicode="&#x11f;" horiz-adv-x="553" 
d="M485 690q-16 -16 -36 -27q-18 -11 -43.5 -19t-57.5 -8t-55.5 8t-38.5 19q-18 11 -29 27q4 8 8.5 12t13.5 7q11 -12 26 -22q13 -8 32 -14.5t45 -6.5q25 0 47 6.5t39 14.5q19 10 35 22q14 -4 14 -19zM384 88q-30 -42 -72.5 -70t-110.5 -28q-46 0 -80 14t-53.5 46t-23 84
t12.5 129q16 76 40 128.5t55.5 84.5t70 46t84.5 14q34 0 59.5 -8.5t43.5 -22.5t29.5 -33t17.5 -40l19 91q1 0 4 1q6 2 13 2q8 0 12 -2q2 -1 3 -1l-106 -497q-14 -68 -33 -119.5t-49 -86.5t-73 -52.5t-106 -17.5q-30 0 -52.5 3.5t-37.5 8.5q-18 5 -31 12q2 19 17 27
q13 -6 31 -10q15 -4 35.5 -6.5t44.5 -2.5q44 0 78.5 11t61 38.5t47 74.5t35.5 120zM91 263q-27 -128 0 -185.5t119 -57.5q44 0 78 18.5t58.5 45t39 57t20.5 54.5l29 136q4 24 2.5 54.5t-14.5 57t-39 45t-70 18.5q-92 0 -144 -57.5t-79 -185.5z" />
    <glyph glyph-name="gbreve.alt" horiz-adv-x="515" 
d="M461 688q-16 -15 -37 -26q-18 -10 -43.5 -18t-57.5 -8t-55 8t-38 18q-18 11 -29 26q4 8 8.5 12t13.5 7q11 -12 26 -22q13 -8 32 -14.5t45 -6.5q25 0 47 6.5t39 14.5q19 10 35 22q9 -2 12 -6.5t2 -12.5zM139 214q-38 20 -53.5 59t-3.5 93q17 80 71.5 125t139.5 45
q31 0 56 -6.5t44 -17.5l136 23q3 -19 -8 -36l-103 -11q17 -22 22.5 -53t-2.5 -69q-17 -79 -70.5 -124.5t-139.5 -45.5q-37 0 -64 8q-16 -14 -36 -38t-27 -56q-6 -30 16 -42.5t58.5 -19t79 -11t77.5 -17.5t54 -39t9 -75q-7 -32 -26.5 -60t-53.5 -49.5t-82 -34t-111 -12.5
q-51 0 -85 12.5t-53.5 33.5t-24.5 48.5t1 57.5q6 31 22 55.5t34 42.5t35.5 30.5t27.5 18.5q-10 10 -14 24t1 34q7 32 28.5 60.5t44.5 46.5zM128 -219q46 0 86 9t70.5 25.5t50.5 39.5t26 52q7 32 -3 52t-31.5 31t-50.5 16t-60 8t-60.5 7t-51.5 13q-45 -26 -73 -62t-36 -71
q-12 -57 21.5 -88.5t111.5 -31.5zM290 508q-64 0 -111.5 -35.5t-62.5 -105.5q-15 -71 17.5 -106.5t96.5 -35.5q65 0 112 35.5t62 106.5q15 70 -17 105.5t-97 35.5z" />
    <glyph glyph-name="gcircumflex" unicode="&#x11d;" horiz-adv-x="553" 
d="M376 721l100 -99q-3 -7 -6 -10.5t-11 -5.5l-99 88l-136 -89q-7 3 -11 6t-4 11l142 99h25zM384 88q-30 -42 -72.5 -70t-110.5 -28q-46 0 -80 14t-53.5 46t-23 84t12.5 129q16 76 40 128.5t55.5 84.5t70 46t84.5 14q34 0 59.5 -8.5t43.5 -22.5t29.5 -33t17.5 -40l19 91
q1 0 4 1q6 2 13 2q8 0 12 -2q2 -1 3 -1l-106 -497q-14 -68 -33 -119.5t-49 -86.5t-73 -52.5t-106 -17.5q-30 0 -52.5 3.5t-37.5 8.5q-18 5 -31 12q2 19 17 27q13 -6 31 -10q15 -4 35.5 -6.5t44.5 -2.5q44 0 78.5 11t61 38.5t47 74.5t35.5 120zM91 263q-27 -128 0 -185.5
t119 -57.5q44 0 78 18.5t58.5 45t39 57t20.5 54.5l29 136q4 24 2.5 54.5t-14.5 57t-39 45t-70 18.5q-92 0 -144 -57.5t-79 -185.5z" />
    <glyph glyph-name="gcircumflex.alt" horiz-adv-x="515" 
d="M346 721l100 -99q-3 -7 -7 -11.5t-12 -6.5l-97 87l-139 -89q-12 5 -12 20l142 99h25zM139 214q-38 20 -53.5 59t-3.5 93q17 80 71.5 125t139.5 45q31 0 56 -6.5t44 -17.5l136 23q3 -19 -8 -36l-103 -11q17 -22 22.5 -53t-2.5 -69q-17 -79 -70.5 -124.5t-139.5 -45.5
q-37 0 -64 8q-16 -14 -36 -38t-27 -56q-6 -30 16 -42.5t58.5 -19t79 -11t77.5 -17.5t54 -39t9 -75q-7 -32 -26.5 -60t-53.5 -49.5t-82 -34t-111 -12.5q-51 0 -85 12.5t-53.5 33.5t-24.5 48.5t1 57.5q6 31 22 55.5t34 42.5t35.5 30.5t27.5 18.5q-10 10 -14 24t1 34
q7 32 28.5 60.5t44.5 46.5zM128 -219q46 0 86 9t70.5 25.5t50.5 39.5t26 52q7 32 -3 52t-31.5 31t-50.5 16t-60 8t-60.5 7t-51.5 13q-45 -26 -73 -62t-36 -71q-12 -57 21.5 -88.5t111.5 -31.5zM290 508q-64 0 -111.5 -35.5t-62.5 -105.5q-15 -71 17.5 -106.5t96.5 -35.5
q65 0 112 35.5t62 106.5q15 70 -17 105.5t-97 35.5z" />
    <glyph glyph-name="gcommaaccent" unicode="&#x123;" horiz-adv-x="553" 
d="M396 717q-10 -8 -19 -19q-8 -9 -16.5 -22.5t-13.5 -31.5q7 0 13 -2q3 -1 4 -1l-8 -37q-2 -1 -6 -1q-4 -1 -18 -1h-11t-8 1q-4 0 -6 1l7 29q5 23 16 40.5t22 29.5q13 14 29 24zM384 88q-30 -42 -72.5 -70t-110.5 -28q-46 0 -80 14t-53.5 46t-23 84t12.5 129
q16 76 40 128.5t55.5 84.5t70 46t84.5 14q34 0 59.5 -8.5t43.5 -22.5t29.5 -33t17.5 -40l19 91q1 0 4 1q6 2 13 2q8 0 12 -2q2 -1 3 -1l-106 -497q-14 -68 -33 -119.5t-49 -86.5t-73 -52.5t-106 -17.5q-30 0 -52.5 3.5t-37.5 8.5q-18 5 -31 12q2 19 17 27q13 -6 31 -10
q15 -4 35.5 -6.5t44.5 -2.5q44 0 78.5 11t61 38.5t47 74.5t35.5 120zM91 263q-27 -128 0 -185.5t119 -57.5q44 0 78 18.5t58.5 45t39 57t20.5 54.5l29 136q4 24 2.5 54.5t-14.5 57t-39 45t-70 18.5q-92 0 -144 -57.5t-79 -185.5z" />
    <glyph glyph-name="gcommaaccent.alt" horiz-adv-x="515" 
d="M376 717q-10 -8 -19 -19q-8 -9 -16.5 -22.5t-13.5 -31.5q7 0 13 -2q3 -1 4 -1l-8 -37q-2 -1 -6 -1q-4 -1 -18 -1h-11t-8 1q-4 0 -6 1l7 29q5 23 16 40.5t22 29.5q13 14 29 24zM139 214q-38 20 -53.5 59t-3.5 93q17 80 71.5 125t139.5 45q31 0 56 -6.5t44 -17.5l136 23
q3 -19 -8 -36l-103 -11q17 -22 22.5 -53t-2.5 -69q-17 -79 -70.5 -124.5t-139.5 -45.5q-37 0 -64 8q-16 -14 -36 -38t-27 -56q-6 -30 16 -42.5t58.5 -19t79 -11t77.5 -17.5t54 -39t9 -75q-7 -32 -26.5 -60t-53.5 -49.5t-82 -34t-111 -12.5q-51 0 -85 12.5t-53.5 33.5
t-24.5 48.5t1 57.5q6 31 22 55.5t34 42.5t35.5 30.5t27.5 18.5q-10 10 -14 24t1 34q7 32 28.5 60.5t44.5 46.5zM128 -219q46 0 86 9t70.5 25.5t50.5 39.5t26 52q7 32 -3 52t-31.5 31t-50.5 16t-60 8t-60.5 7t-51.5 13q-45 -26 -73 -62t-36 -71q-12 -57 21.5 -88.5
t111.5 -31.5zM290 508q-64 0 -111.5 -35.5t-62.5 -105.5q-15 -71 17.5 -106.5t96.5 -35.5q65 0 112 35.5t62 106.5q15 70 -17 105.5t-97 35.5z" />
    <glyph glyph-name="gdotaccent" unicode="&#x121;" horiz-adv-x="553" 
d="M367 637q-2 -1 -6 -2t-18 -1t-18 1t-6 2l9 42q2 0 6 1q8 2 19 2q6 0 10 -0.5t7 -1.5q4 -1 6 -1zM384 88q-30 -42 -72.5 -70t-110.5 -28q-46 0 -80 14t-53.5 46t-23 84t12.5 129q16 76 40 128.5t55.5 84.5t70 46t84.5 14q34 0 59.5 -8.5t43.5 -22.5t29.5 -33t17.5 -40
l19 91q1 0 4 1q6 2 13 2q8 0 12 -2q2 -1 3 -1l-106 -497q-14 -68 -33 -119.5t-49 -86.5t-73 -52.5t-106 -17.5q-30 0 -52.5 3.5t-37.5 8.5q-18 5 -31 12q2 19 17 27q13 -6 31 -10q15 -4 35.5 -6.5t44.5 -2.5q44 0 78.5 11t61 38.5t47 74.5t35.5 120zM91 263
q-27 -128 0 -185.5t119 -57.5q44 0 78 18.5t58.5 45t39 57t20.5 54.5l29 136q4 24 2.5 54.5t-14.5 57t-39 45t-70 18.5q-92 0 -144 -57.5t-79 -185.5z" />
    <glyph glyph-name="gdotaccent.alt" horiz-adv-x="515" 
d="M338 634q-2 -1 -6 -2t-18 -1t-18 1t-6 2l9 42q2 0 6 1q8 2 19 2q6 0 10 -0.5t7 -1.5q4 -1 6 -1zM139 214q-38 20 -53.5 59t-3.5 93q17 80 71.5 125t139.5 45q31 0 56 -6.5t44 -17.5l136 23q3 -19 -8 -36l-103 -11q17 -22 22.5 -53t-2.5 -69q-17 -79 -70.5 -124.5
t-139.5 -45.5q-37 0 -64 8q-16 -14 -36 -38t-27 -56q-6 -30 16 -42.5t58.5 -19t79 -11t77.5 -17.5t54 -39t9 -75q-7 -32 -26.5 -60t-53.5 -49.5t-82 -34t-111 -12.5q-51 0 -85 12.5t-53.5 33.5t-24.5 48.5t1 57.5q6 31 22 55.5t34 42.5t35.5 30.5t27.5 18.5q-10 10 -14 24
t1 34q7 32 28.5 60.5t44.5 46.5zM128 -219q46 0 86 9t70.5 25.5t50.5 39.5t26 52q7 32 -3 52t-31.5 31t-50.5 16t-60 8t-60.5 7t-51.5 13q-45 -26 -73 -62t-36 -71q-12 -57 21.5 -88.5t111.5 -31.5zM290 508q-64 0 -111.5 -35.5t-62.5 -105.5q-15 -71 17.5 -106.5
t96.5 -35.5q65 0 112 35.5t62 106.5q15 70 -17 105.5t-97 35.5z" />
    <glyph glyph-name="germandbls" unicode="&#xdf;" horiz-adv-x="569" 
d="M145 556q21 100 80 147t156 47q48 0 78.5 -15t47 -39t20 -54.5t-3.5 -61.5q-5 -22 -11.5 -39t-13.5 -30q-8 -15 -16 -27q-36 -4 -67 -15q-26 -11 -50 -31t-32 -58q-6 -28 5.5 -46t31 -32.5t43 -27.5t42 -32t28 -46t0.5 -69q-13 -61 -60.5 -99t-125.5 -38q-26 0 -44.5 2.5
t-29.5 5.5q-13 4 -22 9q2 8 5.5 14.5t9.5 10.5q12 -5 37 -8.5t45 -3.5q36 0 62 9.5t44.5 24.5t29 35t15.5 41q8 37 -2 61t-29 40.5t-42.5 29.5t-42.5 29t-29.5 38t-2.5 57q9 45 35.5 70t55.5 38q33 14 72 18q5 9 9 20q4 9 8 21.5t7 27.5q6 27 3.5 52.5t-15.5 45t-38 31
t-64 11.5q-89 0 -134.5 -43.5t-62.5 -120.5l-117 -553q-1 -1 -4 -2t-13 -1t-12 1t-3 2z" />
    <glyph glyph-name="grave" unicode="`" horiz-adv-x="238" 
d="M64 790q6 7 15.5 12t19.5 5l86 -150q-9 -13 -27 -14z" />
    <glyph glyph-name="greater" unicode="&#x3e;" horiz-adv-x="470" 
d="M47 120v4v5t1 8t2.5 8l2.5 5q1 3 2 5l323 134l-265 137q-1 1 -1 4v5t1 8t2.5 7.5t2.5 4.5l2 4l288 -148v-6v-6.5t-1 -8.5q-2 -5 -2.5 -9t-2.5 -7l-3 -6z" />
    <glyph glyph-name="greaterequal" unicode="&#x2265;" horiz-adv-x="471" 
d="M77 230q-1 1 -1 4v5t1 8t2.5 8l2.5 5q1 3 2 5l282 104l-237 107q-1 1 -1 4v5t2 8q1 5 2 7.5t2 4.5l2 4l263 -118v-6v-6.5t-1 -8.5q-2 -5 -2.5 -9t-2.5 -7l-3 -6zM55 128q-1 1 -1 3v4.5t1 7.5q1 4 2.5 7l2.5 5t2 3h288q1 -1 1 -3t-2 -12q-1 -5 -2 -7.5t-2 -4.5t-2 -3h-288
z" />
    <glyph glyph-name="guillemotleft" unicode="&#xab;" horiz-adv-x="486" 
d="M310 509q5 -3 7.5 -10t0.5 -15l-240 -214l149 -215q-5 -19 -19 -25l-159 226q-1 2 -1 4q0 5 1 10q1 3 2 5.5t2 4.5l2 4zM445 487q6 -3 7.5 -9.5t-0.5 -14.5l-213 -193l131 -194q-3 -18 -17 -24l-143 205q-1 1 -1 3q0 5 1 10q2 8 3 10t2 3z" />
    <glyph glyph-name="guillemotright" unicode="&#xbb;" horiz-adv-x="485" 
d="M421 284q1 -2 1 -4v-4.5t-1 -5.5q-1 -4 -2 -6l-2 -4l-2 -4l-255 -226q-12 7 -7 25l239 215l-148 214q2 8 6.5 15t11.5 10zM261 283v-3v-4.5t-1 -5.5q-1 -7 -3 -10q-1 -2 -1 -3l-231 -205q-10 6 -7 24l213 194l-131 193q3 17 17 24z" />
    <glyph glyph-name="guilsinglleft" unicode="&#x2039;" horiz-adv-x="341" 
d="M310 509q5 -3 7.5 -10t0.5 -15l-240 -214l149 -215q-5 -19 -19 -25l-159 226q-1 2 -1 4q0 5 1 10q1 3 2 5.5t2 4.5l2 4z" />
    <glyph glyph-name="guilsinglright" unicode="&#x203a;" horiz-adv-x="339" 
d="M275 284q1 -2 1 -4v-4.5t-1 -5.5q-1 -4 -2 -6l-2 -4l-2 -4l-255 -226q-12 7 -7 25l239 215l-148 214q2 8 6.5 15t11.5 10z" />
    <glyph glyph-name="h" unicode="h" horiz-adv-x="550" 
d="M398 3q-1 -1 -4 -2t-13 -1t-12 1t-3 2l80 377q14 66 -12.5 96.5t-89.5 30.5q-26 0 -54.5 -9t-55.5 -26t-51.5 -41t-43.5 -55l-79 -373q-1 -1 -4 -2t-13 -1t-12 1t-3 2l158 744q1 0 4 1q2 1 4.5 1.5t7.5 0.5q6 0 12 -2q3 -1 4 -1l-67 -312q42 48 91.5 74.5t111.5 26.5
q71 0 105.5 -40t19.5 -108z" />
    <glyph glyph-name="hbar" unicode="&#x127;" horiz-adv-x="550" 
d="M151 435q42 48 91 74.5t111 26.5q71 0 106 -40t20 -108l-81 -385q-1 -1 -4 -2t-13 -1t-12 1t-3 2l80 377q14 66 -12.5 96.5t-89.5 30.5q-26 0 -54.5 -9t-55.5 -26t-51.5 -41t-43.5 -55l-79 -373q-1 -1 -4 -2t-13 -1t-12 1t-3 2l133 628h-72q-2 15 6 27h72l19 89q1 0 4 1
q2 1 4.5 1.5t7.5 0.5q6 0 12 -2q3 -1 4 -1l-19 -89h166q3 -13 -6 -27h-166l-42 -196v0z" />
    <glyph glyph-name="hcircumflex" unicode="&#x125;" horiz-adv-x="550" 
d="M398 3q-1 -1 -4 -2t-13 -1t-12 1t-3 2l80 377q14 66 -12.5 96.5t-89.5 30.5q-26 0 -54.5 -9t-55.5 -26t-51.5 -41t-43.5 -55l-79 -373q-1 -1 -4 -2t-13 -1t-12 1t-3 2l158 744q1 0 4 1q2 1 4.5 1.5t7.5 0.5q6 0 12 -2q3 -1 4 -1l-67 -312q43 48 91.5 74.5t110.5 26.5
q71 0 106 -40t20 -108zM403 881l98 -97q-4 -8 -6.5 -12t-9.5 -6l-98 87l-133 -88q-7 3 -12 7t-3 12l139 97h25z" />
    <glyph glyph-name="hungarumlaut" unicode="&#x2dd;" horiz-adv-x="386" 
d="M41 643q-18 1 -21 14l142 150q24 0 35 -17zM191 643q-18 1 -21 14l142 150q24 0 35 -17z" />
    <glyph glyph-name="hyphen" unicode="-" horiz-adv-x="355" 
d="M79 275q-1 1 -1 3v4.5t2 7.5q1 7 4 12q1 2 2 3h180q1 -1 1 -3v-5t-1 -7l-3 -7.5t-2 -4.5t-2 -3h-180z" />
    <glyph glyph-name="i" unicode="i" horiz-adv-x="222" 
d="M63 3q-1 -1 -4 -2t-13 -1t-12 1t-3 2l110 520q1 0 4 1q6 2 13 2q8 0 12 -2q2 -1 3 -1zM206 641q-2 -1 -6 -2t-18 -1t-18 1t-6 2l9 42q2 0 6 1q8 2 19 2q6 0 10 -0.5t7 -1.5q4 -1 6 -1z" />
    <glyph glyph-name="iacute" unicode="&#xed;" horiz-adv-x="222" 
d="M63 3q-1 -1 -4 -2t-13 -1t-12 1t-3 2l110 520q1 0 4 1q6 2 13 2q8 0 12 -2q2 -1 3 -1zM141 610q-18 1 -21 14l148 150q21 0 29 -17z" />
    <glyph glyph-name="ibreve" unicode="&#x12d;" horiz-adv-x="222" 
d="M63 3q-1 -1 -4 -2t-13 -1t-12 1t-3 2l110 520q1 0 4 1q6 2 13 2q8 0 12 -2q2 -1 3 -1zM321 688q-17 -16 -38 -27q-19 -11 -45 -19t-58 -8t-55 8t-37 19q-17 11 -27 27q4 8 8.5 12t13.5 7q10 -12 24 -22q12 -8 30.5 -14.5t44.5 -6.5q25 0 48 6.5t40 14.5q20 10 37 22
q9 -2 12 -6.5t2 -12.5z" />
    <glyph glyph-name="icircumflex" unicode="&#xee;" horiz-adv-x="222" 
d="M63 3q-1 -1 -4 -2t-13 -1t-12 1t-3 2l110 520q1 0 4 1q6 2 13 2q8 0 12 -2q2 -1 3 -1zM213 721l102 -99q-7 -16 -20 -19l-99 88l-136 -89q-14 6 -14 20l142 99h25z" />
    <glyph glyph-name="idieresis" unicode="&#xef;" horiz-adv-x="222" 
d="M63 3q-1 -1 -4 -2t-13 -1t-12 1t-3 2l110 520q1 0 4 1q6 2 13 2q8 0 12 -2q2 -1 3 -1zM126 605q-3 -1 -7 -2t-18 -1t-18 1t-5 2l8 42q2 0 6 1q8 2 19 2q6 0 10 -0.5t7 -1.5q4 -1 6 -1zM267 605q-3 -1 -7 -2t-18 -1t-18 1t-5 2l8 42q2 0 6 1q8 2 19 2q6 0 10 -0.5t7 -1.5
q4 -1 6 -1z" />
    <glyph glyph-name="igrave" unicode="&#xec;" horiz-adv-x="222" 
d="M63 3q-1 -1 -4 -2t-13 -1t-12 1t-3 2l110 520q1 0 4 1q6 2 13 2q8 0 12 -2q2 -1 3 -1zM107 759q6 7 14 11.5t18 4.5l85 -150q-5 -6 -9.5 -9t-13.5 -4z" />
    <glyph glyph-name="ij" unicode="&#x133;" horiz-adv-x="404" 
d="M63 3q-1 -1 -4 -2t-13 -1t-12 1t-3 2l110 520q1 0 4 1q6 2 13 2q8 0 12 -2q2 -1 3 -1zM199 609q-2 -1 -6 -2t-18 -1t-18 1t-6 2l9 42q2 0 6 1q8 2 19 2q6 0 10 -0.5t7 -1.5q4 -1 6 -1zM323 523q1 0 4 1q6 2 13 2q8 0 12 -2q2 -1 3 -1l-130 -611q-18 -85 -61.5 -123.5
t-103.5 -38.5q-16 0 -26.5 1t-16.5 3q-7 2 -11 5v2q0 1 -0.5 2.5t0.5 3.5q1 6 5 12q2 3 3 4q5 -1 11 -2q5 -1 13.5 -1.5t19.5 -0.5q54 0 87 30t47 99zM381 609q-2 -1 -6 -2t-18 -1t-18 1t-6 2l9 42q2 0 6 1q8 2 19 2q6 0 10 -0.5t7 -1.5q4 -1 6 -1z" />
    <glyph glyph-name="imacron" unicode="&#x12b;" horiz-adv-x="222" 
d="M63 3q-1 -1 -4 -2t-13 -1t-12 1t-3 2l110 520q1 0 4 1q6 2 13 2q8 0 12 -2q2 -1 3 -1zM87 634q-1 4 -0.5 6t1.5 7q2 11 5 15h176q2 -4 -1 -14q-1 -8 -5 -14h-176z" />
    <glyph glyph-name="infinity" unicode="&#x221e;" horiz-adv-x="827" 
d="M211 191q45 0 79.5 20.5t58.5 46.5q28 29 48 67q-5 37 -20 67q-13 25 -38.5 46t-70.5 21q-38 0 -66.5 -12t-48.5 -31.5t-32 -43t-17 -47.5t-3 -47.5t14 -43t35 -31.5t61 -12zM559 162q-50 0 -80 20.5t-45 45.5q-18 29 -24 66q-22 -37 -52 -66q-26 -25 -64 -45.5
t-89 -20.5q-44 0 -72 14t-43.5 37t-19 52.5t2.5 59.5t22 59.5t41.5 52.5t60 37t78.5 14q50 0 79.5 -21t44.5 -46q18 -29 24 -66q24 37 56 66q27 25 65 46t85 21q43 0 71.5 -14t44 -37t19 -52.5t-2.5 -59.5t-22 -59.5t-41.5 -52.5t-60.5 -37t-78 -14zM624 459
q-45 0 -79.5 -21t-58.5 -46q-28 -30 -49 -67q4 -38 20 -67q14 -26 39.5 -46.5t70.5 -20.5q38 0 66.5 12t48 31.5t31.5 43t17 47.5t3 47.5t-13.5 43t-34.5 31.5t-61 12z" />
    <glyph glyph-name="integral" unicode="&#x222b;" horiz-adv-x="498" 
d="M292 580q14 68 53 104.5t100 36.5q39 0 66 -9.5t49 -23.5q-5 -15 -18 -22q-21 12 -45 19.5t-54 7.5q-45 0 -75.5 -25.5t-43.5 -85.5l-135 -633q-9 -42 -25.5 -69t-38 -42.5t-46 -22t-49.5 -6.5q-58 0 -108 35q4 15 18 22q14 -9 39 -19t60 -10q18 0 36 4.5t34 17t29 34.5
t20 56z" />
    <glyph glyph-name="iogonek" unicode="&#x12f;" horiz-adv-x="223" 
d="M64 1q-51 -48 -77.5 -95.5t-17.5 -90.5q3 -16 15 -27.5t37 -11.5q29 0 68 19q11 -11 8 -25q-15 -9 -36 -15t-44 -6q-29 0 -52 13.5t-28 41.5q-5 25 0 50.5t18 51t33 50.5t44 49l110 518q1 0 4 1q6 2 13 2q8 0 12 -2q2 -1 3 -1zM161 651q2 0 6 1q8 2 19 2q6 0 10 -0.5
t7 -1.5q4 -1 6 -1l-9 -42q-2 -1 -6 -2t-18 -1t-18 1t-6 2z" />
    <glyph glyph-name="itilde" unicode="&#x129;" horiz-adv-x="222" 
d="M63 3q-1 -1 -4 -2t-13 -1t-12 1t-3 2l110 520q1 0 4 1q6 2 13 2q8 0 12 -2q2 -1 3 -1zM235 629q8 0 15 4t12 9q5 6 10 14q15 2 19 -10q-4 -12 -12 -22q-7 -8 -17.5 -14.5t-26.5 -6.5q-14 0 -25.5 5t-21.5 11t-20 11t-22 5q-9 0 -16 -4.5t-12 -9.5q-6 -6 -10 -14
q-14 -2 -19 10q5 12 13 22q7 8 17.5 15.5t26.5 7.5q15 0 26.5 -5t21.5 -11.5t20 -11.5t21 -5z" />
    <glyph glyph-name="j" unicode="j" horiz-adv-x="223" 
d="M142 523q1 0 4 1q6 2 13 2q8 0 12 -2q2 -1 3 -1l-130 -611q-18 -85 -61.5 -123.5t-103.5 -38.5q-16 0 -26.5 1t-16.5 3q-7 2 -11 5v2q0 1 -0.5 2.5t0.5 3.5q1 6 5 12q2 3 3 4q5 -1 11 -2q5 -1 13.5 -1.5t19.5 -0.5q54 0 87 30t47 99zM207 641q-2 -1 -6 -2t-18 -1t-18 1
t-6 2l9 42q2 0 6 1q8 2 19 2q6 0 10 -0.5t7 -1.5q4 -1 6 -1z" />
    <glyph glyph-name="jcircumflex" unicode="&#x135;" horiz-adv-x="223" 
d="M142 523q1 0 4 1q6 2 13 2q8 0 12 -2q2 -1 3 -1l-130 -611q-18 -85 -61.5 -123.5t-103.5 -38.5q-16 0 -26.5 1t-16.5 3q-7 2 -11 5v2q0 1 -0.5 2.5t0.5 3.5q1 6 5 12q2 3 3 4q5 -1 11 -2q5 -1 13.5 -1.5t19.5 -0.5q54 0 87 30t47 99zM209 702l99 -98q-3 -8 -6.5 -12.5
t-11.5 -6.5l-99 88l-136 -89q-6 3 -10 7.5t-4 12.5l142 98h26z" />
    <glyph glyph-name="k" unicode="k" horiz-adv-x="493" 
d="M121 290h123l211 233q2 0 6 1q3 1 7 1.5t11 0.5q5 0 8 -0.5t5 -0.5l2 -1l-227 -252l141 -268q-2 -1 -5 -2q-6 -2 -15 -2q-8 0 -14 2q-3 1 -4 2l-133 256h-123l-54 -257q-1 -1 -4 -2t-13 -1t-12 1t-3 2l158 744l3 1q4 2 13 2q5 0 7.5 -0.5t4.5 -1.5t4 -1z" />
    <glyph glyph-name="kcommaaccent" unicode="&#x137;" horiz-adv-x="493" 
d="M134 -180q9 9 19 21q8 11 16.5 26t14.5 35q-10 0 -13 1t-4 2l9 42q2 0 6 1q8 2 18 2t18 -2q4 -1 6 -1l-7 -32q-6 -26 -17.5 -46t-23.5 -34q-14 -16 -29 -27zM121 290h123l211 233q2 0 6 1q3 1 7 1.5t11 0.5q5 0 8 -0.5t5 -0.5l2 -1l-227 -252l141 -268q-2 -1 -5 -2
q-6 -2 -15 -2q-8 0 -14 2q-3 1 -4 2l-133 256h-123l-54 -257q-1 -1 -4 -2t-13 -1t-12 1t-3 2l158 744l3 1q4 2 13 2q5 0 7.5 -0.5t4.5 -1.5t4 -1z" />
    <glyph glyph-name="kgreenlandic" unicode="&#x138;" horiz-adv-x="498" 
d="M254 299l159 -296q-2 -1 -5 -2q-2 -1 -6 -1h-9q-9 0 -11 1q-3 1 -4 2l-148 275l-139 -125l-31 -150q-8 -3 -17 -3q-11 0 -15 3l110 521q8 2 17 2q13 0 15 -2l-66 -319l353 318q5 2 10 2.5t16 0.5q13 0 19 -3z" />
    <glyph glyph-name="l" unicode="l" horiz-adv-x="226" 
d="M65 3q-1 -1 -4 -2t-13 -1t-12 1t-3 2l158 744l3 1q4 2 13 2q5 0 7.5 -0.5t4.5 -1.5t4 -1z" />
    <glyph glyph-name="lacute" unicode="&#x13a;" horiz-adv-x="226" 
d="M65 3q-1 -1 -4 -2t-13 -1t-12 1t-3 2l158 744l3 1q4 2 13 2q5 0 7.5 -0.5t4.5 -1.5t4 -1zM172 783q-17 3 -20 15l160 140q20 -1 26 -19z" />
    <glyph glyph-name="lcaron" unicode="&#x13e;" horiz-adv-x="232" 
d="M265 588q-15 0 -17 11q38 28 59 66t29 86q23 5 33 -4q-5 -21 -14 -44t-22.5 -44.5t-30.5 -40t-37 -30.5zM65 3q-1 -1 -4 -2t-13 -1t-12 1t-3 2l158 744l3 1q4 2 13 2q5 0 7.5 -0.5t4.5 -1.5t4 -1z" />
    <glyph glyph-name="lcommaaccent" unicode="&#x13c;" horiz-adv-x="226" 
d="M65 3q-1 -1 -4 -2t-13 -1t-12 1t-3 2l158 744l3 1q4 2 13 2q5 0 7.5 -0.5t4.5 -1.5t4 -1zM-27 -170q9 9 19 21q8 11 16.5 26t14.5 35q-10 0 -13 1t-4 2l9 42q2 0 6 1q8 2 18 2t18 -2q4 -1 6 -1l-7 -32q-6 -26 -17.5 -46t-23.5 -34q-14 -16 -29 -27z" />
    <glyph glyph-name="ldot" unicode="&#x140;" horiz-adv-x="245" 
d="M65 3q-1 -1 -4 -2t-13 -1t-12 1t-3 2l158 744l3 1q4 2 13 2q5 0 7.5 -0.5t4.5 -1.5t4 -1zM253 313q-2 -1 -6 -2t-18 -1t-18 1t-6 2l9 42q2 0 6 1q8 2 19 2q6 0 10 -0.5t7 -1.5q4 -1 6 -1z" />
    <glyph glyph-name="less" unicode="&#x3c;" horiz-adv-x="473" 
d="M55 268v6v7t2 9q2 10 4 15q1 4 3 6l352 148q1 -2 1 -4t-0.5 -4.5l-1.5 -7.5t-2 -8t-2 -5q-1 -3 -2 -4l-325 -137l267 -134q1 -2 1 -5q0 -2 -0.5 -5t-1.5 -8t-2 -8t-2 -5q-2 -3 -3 -4z" />
    <glyph glyph-name="lessequal" unicode="&#x2264;" horiz-adv-x="472" 
d="M100 348v6v7t2 9q2 10 4 15q1 4 3 6l313 118q1 -2 1 -4v-4.5t-1 -7.5q-2 -5 -3 -8t-2 -5q-1 -3 -2 -4l-283 -107l238 -104q1 -2 1 -5q0 -2 -0.5 -5t-1.5 -8t-2 -8t-2 -5q-1 -3 -2 -4zM53 128q-1 1 -1 3v4.5t1 7.5q1 4 2.5 7l2.5 5t2 3h288q1 -1 1 -3t-2 -12
q-1 -5 -2 -7.5t-2 -4.5t-2 -3h-288z" />
    <glyph glyph-name="logicalnot" unicode="&#xac;" horiz-adv-x="596" 
d="M480 189q-1 -1 -4 -2t-12 -1t-11 1t-3 2l47 220h-410q-1 1 -1 4v4.5t1 6.5t2 6.5t2 4.5l2 4h440z" />
    <glyph glyph-name="longs" unicode="&#x17f;" horiz-adv-x="254" 
d="M78 3q-1 -1 -4 -2t-13 -1t-12 1t-3 2l104 493h-64q-1 1 -1 3v4.5t2 7.5q1 7 4 12q1 2 2 3h64l13 60q7 36 19.5 66.5t33.5 52t51.5 33.5t74.5 12q18 0 34 -2t28 -4q14 -3 25 -6q0 -8 -4.5 -15.5t-10.5 -12.5q-9 2 -20 5q-10 2 -23.5 3.5t-29.5 1.5q-37 0 -62 -8.5
t-41.5 -25t-26 -40.5t-15.5 -55z" />
    <glyph glyph-name="lozenge" unicode="&#x25ca;" horiz-adv-x="546" 
d="M215 7h-15l-135 345l282 344h15l139 -344zM218 52l246 299l-119 299l-242 -299z" />
    <glyph glyph-name="lslash" unicode="&#x142;" horiz-adv-x="278" 
d="M263 478q12 -7 9 -26l-111 -57l-83 -392q-1 -1 -4 -2t-13 -1t-12 1t-3 2l79 373l-78 -40q-13 7 -10 26l96 49l71 336l3 1q4 2 13 2q5 0 7.5 -0.5t4.5 -1.5t4 -1l-67 -317z" />
    <glyph glyph-name="m" unicode="m" horiz-adv-x="845" 
d="M693 3q-1 -1 -4 -2t-13 -1t-12 1t-3 2l80 377q14 67 -8.5 97t-80.5 30q-25 0 -51.5 -9t-53 -26.5t-50.5 -42.5t-43 -56l-78 -370q-1 -1 -4 -2t-13 -1t-12 1t-3 2l80 377q14 67 -8 97t-80 30q-24 0 -51 -9t-53 -26t-50 -41t-43 -55l-79 -373q-1 -1 -4 -2t-13 -1t-12 1
t-3 2l110 520q1 0 4 1q6 2 13 2q8 0 12 -2q2 -1 3 -1l-18 -87q39 47 87 73.5t107 26.5q50 0 83 -25.5t33 -82.5q40 51 90.5 79.5t111.5 28.5q66 0 95.5 -40t14.5 -108z" />
    <glyph glyph-name="macron" unicode="&#xaf;" horiz-adv-x="407" 
d="M36 630q-3 6 -1 16q3 10 8 16h283q3 -6 0 -15q-2 -10 -7 -17h-283z" />
    <glyph glyph-name="minus" unicode="&#x2212;" horiz-adv-x="466" 
d="M92 313q-1 1 -1 4v5t2 8q1 5 2.5 8l2.5 5q1 3 2 4h280q1 -1 1 -4q0 -2 -0.5 -5t-1.5 -8q-2 -5 -3 -8t-2 -5q-1 -3 -2 -4h-280z" />
    <glyph glyph-name="mu" unicode="&#xb5;" horiz-adv-x="578" 
d="M147 523q1 0 4 1q6 2 13 2q8 0 12 -2q2 -1 3 -1l-80 -379q-6 -26 -4.5 -49t13 -40t34 -26.5t60.5 -9.5q31 0 61.5 11.5t57 29.5t48.5 41.5t37 47.5l79 374q1 0 4 1q6 2 13 2q8 0 12 -2q2 -1 3 -1l-110 -520q-1 -1 -4 -2t-13 -1t-12 1t-3 2l19 89q-42 -48 -94.5 -75
t-110.5 -27q-53 0 -78 16t-36 35q-17 -86 -24.5 -140.5t-9.5 -86.5q-3 -37 1 -55q-16 -13 -37 -8q-3 22 0 55q2 29 8 73t20 107z" />
    <glyph glyph-name="multiply" unicode="&#xd7;" horiz-adv-x="451" 
d="M216 264l-139 -115q-2 0 -4 2l-4 4t-4 5q-5 4 -7 10q-1 3 -1 4l139 115l-90 115q1 1 3 4t11 10q3 3 6 4.5t5 3.5q3 1 5 2l91 -114l139 114l4 -2q2 -2 4 -3.5t4 -4.5q5 -6 6 -10q1 -3 1 -4l-139 -115l90 -115q-1 -1 -3 -4q-3 -5 -10 -10l-6.5 -5t-4.5 -4q-3 -2 -5 -2z" />
    <glyph glyph-name="n" unicode="n" horiz-adv-x="550" 
d="M398 3q-1 -1 -4 -2t-13 -1t-12 1t-3 2l80 377q14 66 -11 96.5t-88 30.5q-26 0 -54.5 -9t-56.5 -26t-53 -41t-44 -55l-79 -373q-1 -1 -4 -2t-13 -1t-12 1t-3 2l110 520q1 0 4 1q6 2 13 2q8 0 12 -2q2 -1 3 -1l-19 -88q42 48 93 74.5t113 26.5q71 0 104 -40t18 -108z" />
    <glyph glyph-name="nacute" unicode="&#x144;" horiz-adv-x="550" 
d="M289 610q-18 1 -21 14l148 150q21 0 29 -17zM398 3q-1 -1 -4 -2t-13 -1t-12 1t-3 2l80 377q14 66 -11 96.5t-88 30.5q-26 0 -54.5 -9t-56.5 -26t-53 -41t-44 -55l-79 -373q-1 -1 -4 -2t-13 -1t-12 1t-3 2l110 520q1 0 4 1q6 2 13 2q8 0 12 -2q2 -1 3 -1l-19 -88
q42 48 93 74.5t113 26.5q71 0 104 -40t18 -108z" />
    <glyph glyph-name="napostrophe" unicode="&#x149;" horiz-adv-x="550" 
d="M159 591q-14 1 -16 12q40 26 64 62.5t35 83.5q23 3 32 -6q-6 -21 -17 -43.5t-25.5 -43t-33 -37.5t-39.5 -28zM398 3q-1 -1 -4 -2t-13 -1t-12 1t-3 2l80 377q14 66 -11 96.5t-88 30.5q-26 0 -54.5 -9t-56.5 -26t-53 -41t-44 -55l-79 -373q-1 -1 -4 -2t-13 -1t-12 1t-3 2
l110 520q1 0 4 1q6 2 13 2q8 0 12 -2q2 -1 3 -1l-19 -88q42 48 93 74.5t113 26.5q71 0 104 -40t18 -108z" />
    <glyph glyph-name="ncaron" unicode="&#x148;" horiz-adv-x="550" 
d="M335 602l-97 96q3 8 6.5 11t11.5 6l94 -86l126 85q6 -2 10.5 -6.5t4.5 -12.5l-133 -93h-23zM398 3q-1 -1 -4 -2t-13 -1t-12 1t-3 2l80 377q14 66 -11 96.5t-88 30.5q-26 0 -54.5 -9t-56.5 -26t-53 -41t-44 -55l-79 -373q-1 -1 -4 -2t-13 -1t-12 1t-3 2l110 520q1 0 4 1
q6 2 13 2q8 0 12 -2q2 -1 3 -1l-19 -88q42 48 93 74.5t113 26.5q71 0 104 -40t18 -108z" />
    <glyph glyph-name="ncommaaccent" unicode="&#x146;" horiz-adv-x="550" 
d="M143 -180q9 9 19 21q8 11 16.5 26t14.5 35q-10 0 -13 1t-4 2l9 42q2 0 6 1q8 2 18 2t18 -2q4 -1 6 -1l-7 -32q-6 -26 -17.5 -46t-23.5 -34q-14 -16 -29 -27zM398 3q-1 -1 -4 -2t-13 -1t-12 1t-3 2l80 377q14 66 -11 96.5t-88 30.5q-26 0 -54.5 -9t-56.5 -26t-53 -41
t-44 -55l-79 -373q-1 -1 -4 -2t-13 -1t-12 1t-3 2l110 520q1 0 4 1q6 2 13 2q8 0 12 -2q2 -1 3 -1l-19 -88q42 48 93 74.5t113 26.5q71 0 104 -40t18 -108z" />
    <glyph glyph-name="nine" unicode="9" horiz-adv-x="551" 
d="M64 14q1 4 2.5 9t3.5 8q61 6 117 24.5t103.5 53t85.5 86.5t64 124q-20 -12 -39 -22t-40.5 -17.5t-46 -11.5t-55.5 -4q-42 0 -77.5 13t-58.5 39.5t-31 68t4 98.5q23 104 91.5 155.5t160.5 51.5q45 0 81 -16.5t57.5 -50t27 -83.5t-9.5 -117q-24 -105 -65.5 -182.5
t-97.5 -129.5t-126 -79.5t-150 -31.5q-3 5 -1 14zM130 477q-10 -47 -4.5 -81t22.5 -56.5t45.5 -33.5t65.5 -11q65 0 112 20.5t81 41.5q5 17 9 34t9 36q13 61 9 105t-21.5 72.5t-46.5 42t-67 13.5q-76 0 -135 -45.5t-79 -137.5z" />
    <glyph glyph-name="nine.denom" horiz-adv-x="309" 
d="M209 171q-14 -8 -39.5 -17.5t-60.5 -9.5q-51 0 -72.5 27t-11.5 72q6 27 19 47t31 32.5t39 19t42 6.5q57 0 78.5 -38t5.5 -113q-8 -38 -26 -72t-46.5 -61t-67.5 -44.5t-88 -22.5q-2 4 -1.5 9.5t4.5 10.5q76 11 125.5 50.5t68.5 103.5zM216 198q26 129 -65 129
q-38 0 -65.5 -22.5t-35.5 -61.5q-8 -32 8.5 -54.5t56.5 -22.5q42 0 67.5 12.5t33.5 19.5z" />
    <glyph glyph-name="nine.num" horiz-adv-x="308" 
d="M282 517q-14 -8 -40 -17.5t-61 -9.5q-51 0 -72 27t-12 72q6 27 19 47t31 32.5t39 19t42 6.5q57 0 78.5 -38t5.5 -113q-8 -38 -26 -72t-46 -61t-67 -44.5t-88 -22.5q-5 9 2 20q76 11 126 50.5t69 103.5zM289 544q26 129 -65 129q-38 0 -66 -22.5t-36 -61.5
q-7 -32 9.5 -54.5t56.5 -22.5q42 0 67.5 12.5t33.5 19.5z" />
    <glyph glyph-name="nineinferior" unicode="&#x2089;" horiz-adv-x="308" 
d="M188 75q-14 -8 -40 -17.5t-61 -9.5q-51 0 -72 27t-12 72q6 27 19.5 47t31.5 32.5t39 19t42 6.5q115 0 83 -151q-8 -38 -26 -72t-46 -61t-67 -44.5t-88 -22.5q-5 9 2 20q76 11 126 50.5t69 103.5zM195 102q26 129 -65 129q-38 0 -66 -22.5t-36 -61.5q-7 -32 9.5 -54.5
t56.5 -22.5q42 0 67.5 12.5t33.5 19.5z" />
    <glyph glyph-name="notequal" unicode="&#x2260;" horiz-adv-x="458" 
d="M162 192l-75 -98q-2 -1 -5 -2t-14 -1q-8 0 -10 1q-3 1 -4 2l75 98h-89q-1 1 -1 3t-0.5 4.5t1.5 7.5q1 7 4 12q1 2 2 3h105l104 136h-180q-1 1 -1 3v4.5t1 7.5q1 7 4 12q1 2 2 3h197l70 90q2 0 5 1q6 2 12 2q5 0 11 -2q3 -1 5 -1l-70 -90h98q1 -1 1 -3v-5t-1 -7
q-1 -5 -2 -7.5t-2 -4.5t-2 -3h-114l-105 -136h190q1 -1 1 -3v-5t-1 -7q-1 -5 -2 -7.5t-2 -4.5t-2 -3h-206z" />
    <glyph glyph-name="ntilde" unicode="&#xf1;" horiz-adv-x="550" 
d="M406 630q11 0 19 4.5t14 9.5q7 6 12 15q8 1 14.5 -1.5t9.5 -9.5q-6 -13 -16 -23q-8 -9 -21.5 -16t-32.5 -7q-18 0 -32 5.5t-26.5 12t-25 12t-26.5 5.5q-11 0 -19 -5t-14 -10q-7 -7 -12 -15q-19 -2 -24 11q6 12 16 23q8 9 21.5 16.5t33.5 7.5q18 0 32 -5.5t26.5 -12
t24.5 -12t26 -5.5zM398 3q-1 -1 -4 -2t-13 -1t-12 1t-3 2l80 377q14 66 -11 96.5t-88 30.5q-26 0 -54.5 -9t-56.5 -26t-53 -41t-44 -55l-79 -373q-1 -1 -4 -2t-13 -1t-12 1t-3 2l110 520q1 0 4 1q6 2 13 2q8 0 12 -2q2 -1 3 -1l-19 -88q42 48 93 74.5t113 26.5q71 0 104 -40
t18 -108z" />
    <glyph glyph-name="_368" horiz-adv-x="0" 
 />
    <glyph glyph-name="numbersign" unicode="#" horiz-adv-x="645" 
d="M333 148h-178l-70 -144q-2 -1 -5 -2q-6 -2 -13 -2t-11 2q-2 1 -3 2l70 144h-109q-2 7 1 15q1 9 6 15h118l128 259h-107q-2 6 0 15q1 9 6 15h115l77 153q7 3 16 3q10 0 16 -3l-77 -153h178l77 153q7 3 16 3q10 0 16 -3l-77 -153h106q1 -6 0 -15q-1 -7 -6 -15h-114
l-128 -259h103q1 -6 0 -15q-3 -8 -7 -15h-112l-70 -144q-2 -1 -5 -2q-6 -2 -13 -2t-11 2q-2 1 -3 2zM171 178h178l128 259h-178z" />
    <glyph glyph-name="o" unicode="o" horiz-adv-x="537" 
d="M207 -10q-48 0 -83 15t-54.5 47.5t-23.5 84.5t11 126t38.5 126t56 84.5t73 47.5t88.5 15t83 -15t54.5 -47.5t23.5 -84.5t-11 -126t-38.5 -126t-56 -84.5t-73 -47.5t-88.5 -15zM312 506q-39 0 -73 -12t-62 -40t-49.5 -74.5t-36.5 -116.5t-13 -116.5t17.5 -74.5t44.5 -40
t68 -12t73 12t61.5 40t49.5 74.5t37 116.5t13 116.5t-18 74.5t-44.5 40t-67.5 12z" />
    <glyph glyph-name="oacute" unicode="&#xf3;" horiz-adv-x="537" 
d="M281 610q-18 1 -21 14l148 150q21 0 29 -17zM207 -10q-48 0 -83 15t-54.5 47.5t-23.5 84.5t11 126t38.5 126t56 84.5t73 47.5t88.5 15t83 -15t54.5 -47.5t23.5 -84.5t-11 -126t-38.5 -126t-56 -84.5t-73 -47.5t-88.5 -15zM312 506q-39 0 -73 -12t-62 -40t-49.5 -74.5
t-36.5 -116.5t-13 -116.5t17.5 -74.5t44.5 -40t68 -12t73 12t61.5 40t49.5 74.5t37 116.5t13 116.5t-18 74.5t-44.5 40t-67.5 12z" />
    <glyph glyph-name="obreve" unicode="&#x14f;" horiz-adv-x="537" 
d="M479 688q-16 -16 -36 -27q-17 -10 -42.5 -18t-57.5 -8t-55.5 8t-38.5 18q-18 11 -30 27q4 8 8.5 12t13.5 7q11 -12 26 -22q13 -8 32 -14.5t45 -6.5q25 0 47 6.5t39 14.5q19 10 35 22q9 -2 12 -6.5t2 -12.5zM207 -10q-48 0 -83 15t-54.5 47.5t-23.5 84.5t11 126t38.5 126
t56 84.5t73 47.5t88.5 15t83 -15t54.5 -47.5t23.5 -84.5t-11 -126t-38.5 -126t-56 -84.5t-73 -47.5t-88.5 -15zM312 506q-39 0 -73 -12t-62 -40t-49.5 -74.5t-36.5 -116.5t-13 -116.5t17.5 -74.5t44.5 -40t68 -12t73 12t61.5 40t49.5 74.5t37 116.5t13 116.5t-18 74.5
t-44.5 40t-67.5 12z" />
    <glyph glyph-name="ocircumflex" unicode="&#xf4;" horiz-adv-x="537" 
d="M369 721l100 -99q-3 -7 -6 -12t-11 -7l-99 88l-136 -89q-15 7 -15 20l142 99h25zM207 -10q-48 0 -83 15t-54.5 47.5t-23.5 84.5t11 126t38.5 126t56 84.5t73 47.5t88.5 15t83 -15t54.5 -47.5t23.5 -84.5t-11 -126t-38.5 -126t-56 -84.5t-73 -47.5t-88.5 -15zM312 506
q-39 0 -73 -12t-62 -40t-49.5 -74.5t-36.5 -116.5t-13 -116.5t17.5 -74.5t44.5 -40t68 -12t73 12t61.5 40t49.5 74.5t37 116.5t13 116.5t-18 74.5t-44.5 40t-67.5 12z" />
    <glyph glyph-name="odieresis" unicode="&#xf6;" horiz-adv-x="537" 
d="M288 635q-3 -1 -7 -2t-18 -1t-18 1t-5 2l8 42q2 0 6 1q8 2 19 2q6 0 10 -0.5t7 -1.5q4 -1 6 -1zM429 635q-3 -1 -7 -2t-18 -1t-18 1t-5 2l8 42q2 0 6 1q8 2 19 2q6 0 10 -0.5t7 -1.5q4 -1 6 -1zM207 -10q-48 0 -83 15t-54.5 47.5t-23.5 84.5t11 126t38.5 126t56 84.5
t73 47.5t88.5 15t83 -15t54.5 -47.5t23.5 -84.5t-11 -126t-38.5 -126t-56 -84.5t-73 -47.5t-88.5 -15zM312 506q-39 0 -73 -12t-62 -40t-49.5 -74.5t-36.5 -116.5t-13 -116.5t17.5 -74.5t44.5 -40t68 -12t73 12t61.5 40t49.5 74.5t37 116.5t13 116.5t-18 74.5t-44.5 40
t-67.5 12z" />
    <glyph glyph-name="oe" unicode="&#x153;" horiz-adv-x="826" 
d="M438 252q-22 -122 2.5 -176t104.5 -54q27 0 51 5.5t42 13.5q21 9 38 20q14 -8 12 -25q-17 -13 -41 -23q-20 -9 -49 -16t-66 -7q-125 0 -136 140q-37 -75 -84.5 -107.5t-116.5 -32.5q-47 0 -80.5 15t-51.5 47.5t-20.5 84.5t13.5 126t40 126t56.5 84.5t72 47.5t86.5 15
q69 0 103 -32.5t39 -107.5q38 73 88 106.5t110 33.5q39 0 67 -14t44 -38.5t20 -58.5t-4 -73q-5 -23 -10.5 -41.5t-10.5 -31.5q-5 -15 -11 -27h-308zM309 507q-38 0 -71.5 -12t-61.5 -40.5t-49.5 -75t-36.5 -116.5t-14 -116.5t15.5 -75t41.5 -40.5t65 -12t69.5 13t58 42
t47 76t36.5 115q15 67 15.5 113t-13 74.5t-39.5 41.5t-63 13zM748 357q6 30 4.5 57t-13 47.5t-34.5 32.5t-60 12q-68 0 -120.5 -53.5t-80.5 -170.5h282l7 20l7 23.5t8 31.5z" />
    <glyph glyph-name="ogonek" unicode="&#x2db;" horiz-adv-x="283" 
d="M225 0q-37 -20 -69 -42.5t-55.5 -46.5t-35.5 -48.5t-9 -47.5q2 -16 14.5 -27t37.5 -11q29 0 68 19q11 -11 8 -25q-15 -9 -37 -15t-45 -6q-29 0 -51.5 13.5t-26.5 41.5q-4 30 10 59t38 54t54 46t58 36h41z" />
    <glyph glyph-name="ograve" unicode="&#xf2;" horiz-adv-x="537" 
d="M234 751q5 8 14 13.5t19 5.5l94 -140q-7 -13 -25 -16zM207 -10q-48 0 -83 15t-54.5 47.5t-23.5 84.5t11 126t38.5 126t56 84.5t73 47.5t88.5 15t83 -15t54.5 -47.5t23.5 -84.5t-11 -126t-38.5 -126t-56 -84.5t-73 -47.5t-88.5 -15zM312 506q-39 0 -73 -12t-62 -40
t-49.5 -74.5t-36.5 -116.5t-13 -116.5t17.5 -74.5t44.5 -40t68 -12t73 12t61.5 40t49.5 74.5t37 116.5t13 116.5t-18 74.5t-44.5 40t-67.5 12z" />
    <glyph glyph-name="ohungarumlaut" unicode="&#x151;" horiz-adv-x="537" 
d="M255 598q-16 1 -19 12l118 125q23 0 32 -15zM393 598q-16 1 -19 12l118 125q23 0 32 -15zM207 -10q-48 0 -83 15t-54.5 47.5t-23.5 84.5t11 126t38.5 126t56 84.5t73 47.5t88.5 15t83 -15t54.5 -47.5t23.5 -84.5t-11 -126t-38.5 -126t-56 -84.5t-73 -47.5t-88.5 -15z
M312 506q-39 0 -73 -12t-62 -40t-49.5 -74.5t-36.5 -116.5t-13 -116.5t17.5 -74.5t44.5 -40t68 -12t73 12t61.5 40t49.5 74.5t37 116.5t13 116.5t-18 74.5t-44.5 40t-67.5 12z" />
    <glyph glyph-name="omacron" unicode="&#x14d;" horiz-adv-x="537" 
d="M207 -10q-48 0 -83 15t-54.5 47.5t-23.5 84.5t11 126t38.5 126t56 84.5t73 47.5t88.5 15t83 -15t54.5 -47.5t23.5 -84.5t-11 -126t-38.5 -126t-56 -84.5t-73 -47.5t-88.5 -15zM312 506q-39 0 -73 -12t-62 -40t-49.5 -74.5t-36.5 -116.5t-13 -116.5t17.5 -74.5t44.5 -40
t68 -12t73 12t61.5 40t49.5 74.5t37 116.5t13 116.5t-18 74.5t-44.5 40t-67.5 12zM226 643q-1 7 0 15l6 15h217q1 -6 0 -14l-6 -16h-217z" />
    <glyph glyph-name="one" unicode="1" horiz-adv-x="385" 
d="M81 518q66 17 129 57.5t112 101.5q1 0 3 1q4 2 12 2t12 -2q2 -1 3 -1l-143 -674q-1 -1 -4 -2t-14 -1q-10 0 -12 1t-3 2l101 479l19.5 82.5l14.5 58.5q-46 -53 -106.5 -86t-120.5 -48q-10 10 -3 29z" />
    <glyph glyph-name="one.denom" horiz-adv-x="241" 
d="M24 268q36 9 73 30.5t60 42.5q6 2 13 2q10 0 10 -2l-72 -339q-4 -2 -12 -2q-7 0 -11 2l57 266q5 25 10 41q-27 -20 -59 -36t-68 -25q-8 8 -1 20z" />
    <glyph glyph-name="one.num" horiz-adv-x="258" 
d="M98 614q37 9 74 30.5t60 42.5q4 2 12 2q9 0 11 -2l-72 -339q-4 -2 -11 -2q-8 0 -12 2l56 266l10 41q-27 -20 -58.5 -36t-68.5 -25q-3 3 -3 9t2 11z" />
    <glyph glyph-name="oneeighth" unicode="&#x215b;" horiz-adv-x="696" 
d="M537 348q49 0 72 -21t14 -61q-7 -35 -29.5 -57t-49.5 -36q13 -7 24.5 -15t19 -18.5t10.5 -23.5t-1 -31q-9 -42 -44.5 -66t-89.5 -24q-51 0 -79.5 22.5t-18.5 67.5q4 20 13.5 36t22.5 28.5t27.5 22.5t28.5 17q-22 13 -35 31t-6 48q8 35 38 57.5t83 22.5zM468 16
q38 0 67.5 16.5t37.5 50.5q4 21 -3.5 35t-22 24.5t-34 19t-37.5 17.5l-22.5 -12.5t-26.5 -19t-23.5 -27t-14.5 -34.5q-8 -37 13 -53.5t66 -16.5zM589 699q1 0 3 1q4 2 10 2q5 0 9 -2q2 -1 3 -1l-539 -707q-1 -1 -3 -1q-2 -1 -10 -1t-10 1q-2 0 -3 1zM531 327
q-38 0 -61.5 -15.5t-29.5 -41.5q-4 -19 2.5 -32.5t19 -23t29 -17l34.5 -15.5q28 16 48.5 36t25.5 47q7 30 -11 46t-57 16zM104 614q37 9 74 30.5t60 42.5q4 2 12 2q9 0 11 -2l-72 -339q-4 -2 -11 -2q-8 0 -12 2l56 266l10 41q-27 -20 -58.5 -36t-68.5 -25q-3 3 -3 9t2 11z
" />
    <glyph glyph-name="onehalf" unicode="&#xbd;" horiz-adv-x="693" 
d="M584 699q1 0 3 1q4 2 10 2q5 0 9 -2q2 -1 3 -1l-539 -707q-1 -1 -3 -1q-2 -1 -10 -1t-10 1q-2 0 -3 1zM367 41q7 34 26 55.5t43.5 36.5t52 26t51.5 23.5t41.5 29.5t23.5 44q3 13 1.5 25.5t-9.5 22.5t-24 16t-43 6q-14 0 -28 -1.5t-25 -3.5q-13 -3 -24 -5q-4 9 -1 20
q11 3 24 6q11 2 27 4t35 2q31 0 50.5 -7t30 -19t13 -28.5t-1.5 -35.5q-7 -34 -27 -54.5t-46 -35t-55 -26t-53.5 -26.5t-41.5 -36.5t-20 -56.5h191q2 -5 0 -12q-2 -8 -5 -11h-211q0 6 1 12q1 5 1.5 12.5t2.5 16.5zM106 614q37 9 74 30.5t60 42.5q4 2 12 2q9 0 11 -2l-72 -339
q-4 -2 -11 -2q-8 0 -12 2l56 266l10 41q-27 -20 -58.5 -36t-68.5 -25q-3 3 -3 9t2 11z" />
    <glyph glyph-name="oneinferior" unicode="&#x2081;" horiz-adv-x="242" 
d="M4 172q36 9 73 30.5t60 42.5q4 2 12 2q9 0 11 -2l-72 -339q-4 -2 -11 -2q-8 0 -12 2l57 266q2 12 4.5 22t4.5 19q-27 -20 -58.5 -36t-68.5 -25q-7 7 0 20z" />
    <glyph glyph-name="onequarter" unicode="&#xbc;" horiz-adv-x="635" 
d="M545 120q1 -1 1 -3q0 -5 -1 -8l-3 -9q-1 -2 -1 -3h-43l-21 -95q-1 -1 -3 -1q-2 -1 -8 -1q-7 0 -9 1q-2 0 -3 1l21 95h-184q-1 1 -1 2t-0.5 2t0.5 3q0 4 2 6l2 2l231 229q1 0 3 1q2 0 4 0.5t6 0.5q3 0 4.5 -0.5t3.5 -0.5q2 -1 3 -1l-47 -221h43zM584 699q1 0 3 1q4 2 10 2
q5 0 9 -2q2 -1 3 -1l-539 -707q-1 -1 -3 -1q-2 -1 -10 -1t-10 1q-2 0 -3 1zM479 120l40 187l-190 -187h150zM106 614q37 9 74 30.5t60 42.5q4 2 12 2q9 0 11 -2l-72 -339q-4 -2 -11 -2q-8 0 -12 2l56 266l10 41q-27 -20 -58.5 -36t-68.5 -25q-3 3 -3 9t2 11z" />
    <glyph glyph-name="onesuperior" unicode="&#xb9;" horiz-adv-x="242" 
d="M98 614q37 9 74 30.5t60 42.5q4 2 12 2q9 0 11 -2l-72 -339q-4 -2 -11 -2q-8 0 -12 2l56 266l10 41q-27 -20 -58.5 -36t-68.5 -25q-3 3 -3 9t2 11z" />
    <glyph glyph-name="onethird" unicode="&#x2153;" horiz-adv-x="697" 
d="M589 699q1 0 3 1q4 2 10 2q5 0 9 -2q2 -1 3 -1l-539 -707q-1 -1 -3 -1q-2 -1 -10 -1t-10 1q-2 0 -3 1zM599 92q-5 -20 -14.5 -37.5t-27 -30.5t-44.5 -21t-65 -8q-19 0 -33.5 2t-25.5 4q-12 3 -23 7q0 11 9 18q10 -3 22 -5q23 -5 54 -5q34 0 56.5 6.5t36.5 17t21 24.5
t10 28q8 42 -13.5 59.5t-59.5 17.5h-43q-4 11 5 22h43q38 0 61 18t30 50q7 33 -11 50t-59 17q-18 0 -33 -1.5t-26 -3.5q-13 -2 -24 -4q-4 7 -1 19q11 3 25 6q12 2 28 4t36 2q54 0 76 -23t13 -65q-6 -29 -21 -48t-44 -31q25 -11 37.5 -29.5t4.5 -59.5zM104 614q37 9 74 30.5
t60 42.5q4 2 12 2q9 0 11 -2l-72 -339q-4 -2 -11 -2q-8 0 -12 2l56 266l10 41q-27 -20 -58.5 -36t-68.5 -25q-3 3 -3 9t2 11z" />
    <glyph glyph-name="ordfeminine" unicode="&#xaa;" horiz-adv-x="360" 
d="M161 296q-42 0 -65.5 24.5t-13.5 68.5q9 43 41 68t90 25q31 0 55 -2t35 -4l10 46q10 48 -3.5 67t-60.5 19q-18 0 -34.5 -2.5t-29.5 -5.5q-15 -4 -28 -8q-3 3 -4 9t1 11q15 5 32 9q14 3 32.5 6t38.5 3q54 0 72.5 -26t7.5 -76l-47 -223q-1 -1 -2 -1q-1 -1 -6 -1q-6 0 -7 1
q-1 0 -2 1l6 49q-21 -27 -51 -42.5t-67 -15.5zM49 223v3q0 4 1 8q0 3 2 7q1 2 2 3h220q0 -2 0.5 -4.5t-0.5 -5.5q-1 -4 -3 -8q-1 -2 -2 -3h-220zM106 389q-8 -37 8 -54t50 -17q45 0 81 28t47 77l7 33q-11 1 -35.5 3t-50.5 2q-48 0 -73.5 -17.5t-33.5 -54.5z" />
    <glyph glyph-name="ordmasculine" unicode="&#xba;" horiz-adv-x="378" 
d="M190 295q-65 0 -87.5 40t-5.5 128q17 87 55 127t103 40q64 0 87 -39.5t6 -127.5t-55.5 -128t-102.5 -40zM253 608q-55 0 -85 -34.5t-47 -110.5q-17 -78 -1 -112t71 -34q54 0 85 34t48 112q17 76 0 110.5t-71 34.5zM58 223v3q0 4 1 8q0 3 2 7q1 2 2 3h226v-2v-8
q-1 -4 -3 -8q-1 -2 -2 -3h-226z" />
    <glyph glyph-name="oslash" unicode="&#xf8;" horiz-adv-x="535" 
d="M444 483q23 -32 28.5 -86t-10.5 -134q-15 -74 -38.5 -126t-56 -84.5t-73 -47.5t-88.5 -15q-74 0 -114 34l-52 -67q-1 -1 -4 -2t-16 -1q-11 0 -13 1t-3 2l68 89q-22 32 -26.5 85.5t10.5 131.5q15 74 38.5 126t56 84.5t73 47.5t88.5 15q71 0 112 -32l49 64q1 0 4 1
q6 2 16 2q9 0 13 -2q2 -1 3 -1zM311 507q-39 0 -73 -12t-62 -40.5t-49.5 -75t-36.5 -116.5q-15 -69 -13.5 -115t16.5 -75l311 406q-17 15 -40.5 21.5t-52.5 6.5zM207 19q39 0 73 12t61.5 40.5t49.5 75t37 116.5q15 71 13 117.5t-18 75.5l-312 -406q17 -17 41 -24t55 -7z" />
    <glyph glyph-name="oslashacute" unicode="&#x1ff;" horiz-adv-x="535" 
d="M285 610q-18 1 -21 14l148 150q21 0 29 -17zM444 483q23 -32 28.5 -86t-10.5 -134q-15 -74 -38.5 -126t-56 -84.5t-73 -47.5t-88.5 -15q-74 0 -114 34l-52 -67q-1 -1 -4 -2t-16 -1q-11 0 -13 1t-3 2l68 89q-22 32 -26.5 85.5t10.5 131.5q15 74 38.5 126t56 84.5t73 47.5
t88.5 15q71 0 112 -32l49 64q1 0 4 1q6 2 16 2q9 0 13 -2q2 -1 3 -1zM311 507q-39 0 -73 -12t-62 -40.5t-49.5 -75t-36.5 -116.5q-15 -69 -13.5 -115t16.5 -75l311 406q-17 15 -40.5 21.5t-52.5 6.5zM207 19q39 0 73 12t61.5 40.5t49.5 75t37 116.5q15 71 13 117.5t-18 75.5
l-312 -406q17 -17 41 -24t55 -7z" />
    <glyph glyph-name="otilde" unicode="&#xf5;" horiz-adv-x="537" 
d="M395 654q11 0 19 4.5t14 9.5q7 6 12 15q8 1 14.5 -1.5t9.5 -9.5q-6 -13 -17 -24q-9 -9 -22.5 -16t-32.5 -7q-18 0 -32 5.5t-26 12.5t-24 12.5t-26 5.5q-11 0 -19 -5t-14 -10q-7 -7 -12 -15q-19 -2 -24 11q6 13 17 24q9 9 22.5 16.5t33.5 7.5q18 0 31.5 -5.5t25.5 -12.5
t24 -12.5t26 -5.5zM207 -10q-48 0 -83 15t-54.5 47.5t-23.5 84.5t11 126t38.5 126t56 84.5t73 47.5t88.5 15t83 -15t54.5 -47.5t23.5 -84.5t-11 -126t-38.5 -126t-56 -84.5t-73 -47.5t-88.5 -15zM312 506q-39 0 -73 -12t-62 -40t-49.5 -74.5t-36.5 -116.5t-13 -116.5
t17.5 -74.5t44.5 -40t68 -12t73 12t61.5 40t49.5 74.5t37 116.5t13 116.5t-18 74.5t-44.5 40t-67.5 12z" />
    <glyph glyph-name="p" unicode="p" 
d="M6 -247l-4 -2q-3 -1 -12 -1q-11 0 -13 1q-3 1 -3 2l164 770q1 0 4 1q6 2 13 2q8 0 12 -2q2 -1 3 -1l-18 -84q32 45 77 71t106 26q46 0 80 -14t53.5 -46t23 -84.5t-12.5 -128.5q-16 -77 -40 -129t-55.5 -84t-70 -46t-84.5 -14q-60 0 -98 27.5t-52 77.5zM101 200
q-6 -31 -2 -63t19 -58t40.5 -42.5t63.5 -16.5q92 0 144 57.5t79 185.5t0 185.5t-119 57.5q-37 0 -69.5 -16t-58.5 -41t-43.5 -56t-24.5 -61z" />
    <glyph glyph-name="paragraph" unicode="&#xb6;" horiz-adv-x="438" 
d="M214 -224q-1 -1 -3 -2t-12 -1t-12 1t-3 2l196 920q1 0 4 1q2 1 4.5 1.5t7.5 0.5q7 0 11 -2q2 -1 3 -1zM184 518q-22 1 -36.5 9t-23 20.5t-10 28.5t1.5 33q4 17 13.5 33t23.5 29t32.5 20.5t40.5 7.5h27l-197 -923q-1 -1 -3 -2t-12 -1t-12 1t-3 2z" />
    <glyph glyph-name="parenleft" unicode="(" horiz-adv-x="280" 
d="M340 807q2 -2 4 -3.5t3 -3.5t1 -4q-52 -57 -100 -130q-41 -63 -81.5 -150t-63.5 -196t-19 -196t18 -150q16 -73 44 -130q-1 -2 -3 -4q-5 -5 -10 -7q-7 -4 -10 -4h-4q-30 60 -48 136q-15 65 -20 155t18 200q12 54 29 104.5t37 95.5t42.5 84t43.5 71q50 76 106 136h4
q3 0 9 -4z" />
    <glyph glyph-name="parenright" unicode=")" horiz-adv-x="279" 
d="M183 320q11 54 15 103t3.5 92.5t-5.5 81.5t-12 69q-16 73 -44 130q1 2 3 4l3.5 3.5t5.5 3.5t6.5 3t4.5 1h4q30 -60 48 -136q15 -65 20 -155.5t-18 -199.5q-12 -55 -29 -105t-37.5 -95t-42.5 -84t-43 -71q-50 -76 -106 -136h-4q-6 0 -10 4q-4 2 -6 7q-1 2 -1 4
q52 57 100 130q20 31 41 68.5t40 81t35.5 93t28.5 103.5z" />
    <glyph glyph-name="partialdiff" unicode="&#x2202;" horiz-adv-x="553" 
d="M465 412q2 57 -11 108t-42 92t-74 70t-106 41q0 16 12 27q72 -15 125.5 -50t85.5 -90.5t39.5 -131t-12.5 -171.5q-19 -90 -46 -151t-62 -98t-78 -52.5t-93 -15.5q-47 0 -82 14.5t-55 46t-23.5 81.5t11.5 120t39.5 120t57 81.5t71.5 46t83 14.5q69 0 107.5 -28t52.5 -74z
M209 19q38 0 72 11.5t63 39t51.5 72t36.5 110.5q14 67 10 111.5t-22.5 71.5t-49.5 38t-70 11q-38 0 -70.5 -11.5t-59.5 -38.5t-47.5 -71.5t-34.5 -110.5t-11 -110.5t19.5 -72t45.5 -39t67 -11.5z" />
    <glyph glyph-name="percent" unicode="%" horiz-adv-x="740" 
d="M190 345q-60 0 -85 39.5t-5 133.5q20 93 62 133t102 40q59 0 85 -39.5t6 -133.5t-63 -133.5t-102 -39.5zM257 661q-42 0 -73.5 -31.5t-48.5 -111.5q-9 -41 -8 -68t9.5 -43.5t24 -23.5t36.5 -7q42 0 73.5 30.5t48.5 111.5q9 40 8 67t-9.5 44t-24 24.5t-36.5 7.5zM130 -7
q-2 -1 -5 -2q-4 -1 -16 -1q-10 0 -13 1t-5 2l540 706q2 0 5 1q6 2 15 2q8 0 14 -2q3 -1 5 -1zM492 -10q-60 0 -85 39.5t-5 133.5q20 93 61.5 133t101.5 40q29 0 51 -9.5t34 -30t14.5 -53.5t-7.5 -80q-20 -94 -63 -133.5t-102 -39.5zM559 306q-42 0 -74 -31.5t-48 -111.5
q-9 -41 -8 -68t9 -43.5t23.5 -23.5t36.5 -7q42 0 74 30.5t49 111.5q8 40 7 67t-9.5 44t-23.5 24.5t-36 7.5z" />
    <glyph glyph-name="period" unicode="." horiz-adv-x="195" 
d="M62 3q-3 -1 -7 -2t-18 -1t-18 1t-5 2l9 42q2 0 6 1q8 2 18 2t18 -2q4 -1 6 -1z" />
    <glyph glyph-name="periodcentered" unicode="&#xb7;" horiz-adv-x="217" 
d="M123 263q-3 -1 -7 -2t-18 -1t-18 1t-5 2l9 42q2 0 6 1q8 2 18 2t18 -2q4 -1 6 -1z" />
    <glyph glyph-name="perthousand" unicode="&#x2030;" horiz-adv-x="1058" 
d="M190 345q-60 0 -85 39.5t-5 133.5q20 93 62 133t102 40q59 0 85 -39.5t6 -133.5t-63 -133.5t-102 -39.5zM257 661q-42 0 -73.5 -31.5t-48.5 -111.5q-9 -41 -8 -68t9.5 -43.5t24 -23.5t36.5 -7q42 0 73.5 30.5t48.5 111.5q9 40 8 67t-9.5 44t-24 24.5t-36.5 7.5zM130 -7
q-2 -1 -5 -2q-4 -1 -16 -1q-10 0 -13 1t-5 2l540 706q2 0 5 1q6 2 15 2q8 0 14 -2q3 -1 5 -1zM492 -10q-60 0 -85 39.5t-5 133.5q20 93 61.5 133t101.5 40q29 0 51 -9.5t34 -30t14.5 -53.5t-7.5 -80q-20 -94 -63 -133.5t-102 -39.5zM559 306q-42 0 -74 -31.5t-48 -111.5
q-9 -41 -8 -68t9 -43.5t23.5 -23.5t36.5 -7q42 0 74 30.5t49 111.5q8 40 7 67t-9.5 44t-23.5 24.5t-36 7.5zM812 -10q-60 0 -85 39.5t-5 133.5q20 93 61.5 133t101.5 40q29 0 51 -9.5t34 -30t14.5 -53.5t-7.5 -80q-20 -94 -63 -133.5t-102 -39.5zM879 306q-42 0 -74 -31.5
t-48 -111.5q-9 -41 -8 -68t9 -43.5t23.5 -23.5t36.5 -7q42 0 74 30.5t49 111.5q8 40 7 67t-9.5 44t-23.5 24.5t-36 7.5z" />
    <glyph glyph-name="pi" unicode="&#x3c0;" horiz-adv-x="594" 
d="M484 496h-303l-104 -493q-1 -1 -4 -2t-13 -1t-12 1t-3 2l104 493q-17 -1 -30 -2t-23 -3q-11 -2 -20 -4q-1 3 -0.5 7t1.5 9q2 9 6 13l30 5q16 2 41 3.5t62 1.5h382q2 -7 0 -15t-7 -15h-74l-55 -260q-14 -66 -17.5 -109.5t-1.5 -69.5q2 -31 8 -47q-8 -10 -27 -10q-6 0 -9 1
q-6 18 -7 51q-1 28 3 72.5t18 111.5z" />
    <glyph glyph-name="plus" unicode="+" horiz-adv-x="460" 
d="M207 275h-150q-1 1 -1 3v4.5t2 7.5q1 7 4 12q1 2 2 3h150l32 150q1 0 3 1q4 2 12 2t12 -2q2 -1 3 -1l-32 -150h150q1 -1 1 -3v-5t-1 -7l-3 -7.5t-2 -4.5t-2 -3h-150l-31 -150q-1 -1 -4 -2t-12 -1t-11 1t-3 2z" />
    <glyph glyph-name="plusminus" unicode="&#xb1;" horiz-adv-x="513" 
d="M258 387h-150q-1 1 -1 3v4.5t1 7.5q1 4 2.5 7l2.5 5t2 3h150l25 120q1 0 4 1q2 1 4.5 1.5t7.5 0.5q7 0 11 -2q2 -1 3 -1l-25 -120h150q1 -1 1 -3t-2 -12q-1 -5 -2 -7.5t-2 -4.5t-2 -3h-150l-25 -120q-1 -1 -4 -2t-12 -1t-11 1t-3 2zM58 149q-1 1 -1 3t-0.5 4.5t1.5 7.5
q1 7 4 12q1 2 2 3h330q1 -1 1 -3v-5t-1 -7q-2 -5 -2.5 -7.5t-1.5 -4.5t-2 -3h-330z" />
    <glyph glyph-name="product" unicode="&#x220f;" horiz-adv-x="709" 
d="M490 -204q-1 -1 -4 -2t-15 -1q-10 0 -12 1t-3 2l183 865h-419l-183 -865q-1 -1 -4 -2t-15 -1q-10 0 -12 1t-3 2l190 897h487z" />
    <glyph glyph-name="q" unicode="q" horiz-adv-x="553" 
d="M384 87q-32 -45 -75 -71t-107 -26q-46 0 -80 14t-53.5 46t-23 84t12.5 129q16 76 40 128.5t55.5 84.5t70 46t84.5 14q64 0 100.5 -28.5t49.5 -74.5l19 90q1 0 4 1q6 2 13 2q8 0 12 -2q2 -1 3 -1l-164 -770l-4 -2q-3 -1 -12 -1q-11 0 -13 1q-3 1 -3 2zM92 263
q-27 -128 0 -185.5t119 -57.5q39 0 71.5 15.5t57.5 40.5t42 56t25 62l30 138q5 30 1 61t-18.5 56t-40 41t-64.5 16q-92 0 -144 -57.5t-79 -185.5z" />
    <glyph glyph-name="question" unicode="?" horiz-adv-x="423" 
d="M418 535q-11 -50 -32 -83t-47.5 -58t-56 -46t-56.5 -47t-48.5 -61t-32.5 -87l-4 -2q-6 -2 -11 -2q-6 0 -10 2l-4 2q12 58 34 96t48.5 65t55 47.5t54 43.5t45 52.5t29.5 75.5q5 25 2.5 48t-16 40t-39 27.5t-66.5 10.5q-32 0 -58 -4t-45 -9q-22 -5 -40 -12q-5 4 -6.5 11
t0.5 14q20 8 45 15q21 6 50 11t64 5q48 0 79 -13t48 -34.5t20.5 -49.5t-2.5 -58zM124 3q-3 -1 -7 -2t-18 -1t-18 1t-5 2l9 42q2 0 6 1q8 2 18 2t18 -2q4 -1 6 -1z" />
    <glyph glyph-name="questiondown" unicode="&#xbf;" horiz-adv-x="413" 
d="M-16 -15q10 50 31.5 83t48 58t55.5 46t56 47t48.5 60.5t32.5 87.5q1 1 4 2q6 2 12 2t10 -2q2 -1 3 -2q-12 -58 -34 -96t-48 -65t-54.5 -47.5t-54 -43.5t-45.5 -53t-30 -75q-5 -25 -2.5 -48t16 -40t39 -27.5t66.5 -10.5q32 0 58.5 3.5t45.5 8.5q22 5 40 13q5 -4 6 -11
t-1 -14q-20 -9 -45 -16q-21 -6 -49.5 -10.5t-63.5 -4.5q-48 0 -79 13t-48 34.5t-20.5 49.5t2.5 58zM278 517q2 0 6 1q8 2 18 2t18 -2q4 -1 6 -1l-9 -42q-3 -1 -7 -2t-18 -1t-18 1t-5 2z" />
    <glyph glyph-name="quotedbl" unicode="&#x22;" horiz-adv-x="291" 
d="M161 717q2 0 5 1q6 2 13 2q5 0 7.5 -0.5t4.5 -1.5t4 -1l-47 -191q-1 -1 -3 -1q-2 -1 -8 -1t-7 1q-1 0 -2 1zM265 717q1 0 4 1q6 2 14 2q5 0 7.5 -0.5t4.5 -1.5t4 -1l-47 -191q-1 -1 -3 -1q-2 -1 -8 -1t-7 1q-1 0 -2 1z" />
    <glyph glyph-name="quotedblbase" unicode="&#x201e;" horiz-adv-x="298" 
d="M-19 -82q10 9 19 21q8 11 16 26t15 35q-10 0 -13 1t-4 2l9 42q2 0 6 1q8 2 18 2t18 -2q4 -1 6 -1l-7 -32q-6 -26 -17.5 -46t-23.5 -34q-14 -16 -29 -27zM84 -82q10 9 19 21q8 11 16 26t15 35q-10 0 -13 1t-4 2l9 42q2 0 6 1q8 2 18 2t18 -2q4 -1 6 -1l-7 -32
q-6 -26 -17.5 -46t-23.5 -34q-14 -16 -29 -27z" />
    <glyph glyph-name="quotedblleft" unicode="&#x201c;" horiz-adv-x="302" 
d="M218 708q0 -1 -6 -6.5t-14 -16t-16 -25.5t-14 -34q5 -1 8 -1t5 -1q3 -1 5 -1l-9 -42q-2 -1 -6 -2t-18 -1t-18 1t-6 2l7 32q5 26 17 46t24 34q14 16 29 27zM318 708q0 -1 -6 -6.5t-14 -16t-16 -25.5t-14 -34q5 -1 8 -1t5 -1q3 -1 5 -1l-9 -42q-2 -1 -6 -2t-18 -1t-18 1
t-6 2l7 32q5 26 17 46t24 34q14 16 29 27z" />
    <glyph glyph-name="quotedblright" unicode="&#x201d;" horiz-adv-x="299" 
d="M127 590q9 9 19 21q8 11 16.5 26t15.5 35q-11 0 -14 1t-4 2l9 42q2 0 6 1q8 2 19 2q6 0 10 -0.5t7 -1.5q4 -1 6 -1l-6 -32q-6 -26 -17.5 -46t-23.5 -34q-14 -16 -29 -27zM227 590q9 9 19 21q8 11 16.5 26t15.5 35q-11 0 -14 1t-4 2l9 42q2 0 6 1q8 2 19 2q6 0 10 -0.5
t7 -1.5q4 -1 6 -1l-6 -32q-6 -26 -17.5 -46t-23.5 -34q-14 -16 -29 -27z" />
    <glyph glyph-name="quoteleft" unicode="&#x2018;" horiz-adv-x="202" 
d="M218 708q0 -1 -6 -6.5t-14 -16t-16 -25.5t-14 -34q5 -1 8 -1t5 -1q3 -1 5 -1l-9 -42q-2 -1 -6 -2t-18 -1t-18 1t-6 2l7 32q5 26 17 46t24 34q14 16 29 27z" />
    <glyph glyph-name="quoteright" unicode="&#x2019;" horiz-adv-x="199" 
d="M127 590q9 9 19 21q8 11 16.5 26t15.5 35q-11 0 -14 1t-4 2l9 42q2 0 6 1q8 2 19 2q6 0 10 -0.5t7 -1.5q4 -1 6 -1l-6 -32q-6 -26 -17.5 -46t-23.5 -34q-14 -16 -29 -27z" />
    <glyph glyph-name="quotesinglbase" unicode="&#x201a;" horiz-adv-x="195" 
d="M-19 -82q10 9 19 21q8 11 16 26t15 35q-10 0 -13 1t-4 2l9 42q2 0 6 1q8 2 18 2t18 -2q4 -1 6 -1l-7 -32q-6 -26 -17.5 -46t-23.5 -34q-14 -16 -29 -27z" />
    <glyph glyph-name="quotesingle" unicode="'" horiz-adv-x="187" 
d="M161 717q1 0 4 1q6 2 14 2q5 0 7.5 -0.5t4.5 -1.5t4 -1l-47 -191q-1 -1 -3 -1q-2 -1 -8 -1t-7 1q-1 0 -2 1z" />
    <glyph glyph-name="r" unicode="r" horiz-adv-x="385" 
d="M149 426q27 37 52 59t47.5 33t42 14t35.5 3q20 0 34 -3.5t24 -7.5q11 -5 20 -11q-2 -8 -6.5 -15.5t-12.5 -11.5q-16 9 -31.5 13.5t-39.5 4.5q-43 0 -90.5 -36.5t-86.5 -99.5l-77 -365q-1 -1 -4 -2t-13 -1t-12 1t-3 2l110 520q1 0 4 1q6 2 13 2q8 0 12 -2q2 -1 3 -1
l-21 -97v0z" />
    <glyph glyph-name="racute" unicode="&#x155;" horiz-adv-x="385" 
d="M149 423q27 35 52 57t47.5 34t42 16.5t35.5 4.5q20 0 34 -3.5t24 -7.5q11 -5 20 -11q-5 -19 -23 -27q-16 9 -31.5 13.5t-39.5 4.5q-43 0 -87 -39.5t-86 -96.5l-77 -365q-1 -1 -4 -2t-13 -1t-12 1t-3 2l110 520q1 0 4 1q6 2 13 2q8 0 12 -2q2 -1 3 -1zM239 610
q-18 1 -21 14l148 150q21 0 29 -17z" />
    <glyph glyph-name="radical" unicode="&#x221a;" horiz-adv-x="621" 
d="M276 -15h-33l-75 387l-120 -47q-5 4 -6.5 12t0.5 17l153 60l74 -382l381 698q20 3 27 -8z" />
    <glyph glyph-name="rcaron" unicode="&#x159;" horiz-adv-x="385" 
d="M149 423q27 35 52 57t47.5 34t42 16.5t35.5 4.5q20 0 34 -3.5t24 -7.5q11 -5 20 -11q-5 -19 -23 -27q-16 9 -31.5 13.5t-39.5 4.5q-43 0 -87 -39.5t-86 -96.5l-77 -365q-1 -1 -4 -2t-13 -1t-12 1t-3 2l110 520q1 0 4 1q6 2 13 2q8 0 12 -2q2 -1 3 -1zM255 602l-94 93
q3 8 5.5 11.5t10.5 6.5l93 -84l127 83q14 -4 14 -17l-133 -93h-23z" />
    <glyph glyph-name="rcommaaccent" unicode="&#x157;" horiz-adv-x="385" 
d="M149 423q27 35 52 57t47.5 34t42 16.5t35.5 4.5q20 0 34 -3.5t24 -7.5q11 -5 20 -11q-5 -19 -23 -27q-16 9 -31.5 13.5t-39.5 4.5q-43 0 -87 -39.5t-86 -96.5l-77 -365q-1 -1 -4 -2t-13 -1t-12 1t-3 2l110 520q1 0 4 1q6 2 13 2q8 0 12 -2q2 -1 3 -1zM-32 -170q9 9 19 21
q8 11 16.5 26t14.5 35q-10 0 -13 1t-4 2l9 42q2 0 6 1q8 2 18 2t18 -2q4 -1 6 -1l-7 -32q-6 -26 -17.5 -46t-23.5 -34q-14 -16 -29 -27z" />
    <glyph glyph-name="registered" unicode="&#xae;" horiz-adv-x="540" 
d="M260 266q-42 0 -76 16t-56 44t-30 65.5t1 79.5t33 79.5t58 65.5t75 44t83 16t76 -16t56 -44t30 -65.5t-1 -79.5t-33 -79.5t-58 -65.5t-75 -44t-83 -16zM344 659q-39 0 -76 -15t-68 -40.5t-53 -59.5t-30 -73t-0.5 -73.5t27.5 -60t50.5 -40t69.5 -14.5t76 14.5t68 40t53 60
t30 73.5t1 73t-27 59.5t-51 40.5t-70 15zM346 589q70 0 56 -65q-5 -23 -17.5 -37.5t-38.5 -22.5l36 -100q0 -1 -2 -2t-8 -1t-8 1q-2 0 -3 1l-36 99h-74l-21 -99q-1 -1 -2 -1q-2 -1 -7 -1q-6 0 -7 1q-2 0 -2 1l48 226h86zM255 479h69q28 0 41 11.5t18 33.5q5 24 -3 36t-36 12
h-69z" />
    <glyph glyph-name="ring" unicode="&#x2da;" horiz-adv-x="344" 
d="M125 509q-48 0 -73.5 27.5t-14.5 78.5q5 25 18.5 44.5t32 33t40.5 20t43 6.5t40 -6.5t32 -19.5t18.5 -32.5t0.5 -45.5q-6 -26 -19 -45.5t-31.5 -33t-41 -20.5t-45.5 -7zM230 615q6 29 -9 52t-57 23q-41 0 -65 -23t-30 -52q-7 -29 7 -53t55 -24q42 0 67.5 24t31.5 53z" />
    <glyph glyph-name="s" unicode="s" horiz-adv-x="445" 
d="M84 399q14 64 64 100.5t138 36.5q28 0 50.5 -3.5t38.5 -7.5q18 -5 32 -11q-1 -7 -5.5 -15t-10.5 -12q-14 5 -31 9q-14 4 -34 7t-43 3q-70 0 -112.5 -29t-54.5 -84q-5 -25 1.5 -43t21 -30.5t35 -21.5t43.5 -15q27 -8 55 -19t48.5 -28.5t30.5 -43.5t1 -65
q-15 -67 -65.5 -102t-138.5 -35q-35 0 -62.5 4.5t-45.5 10.5q-22 7 -37 16q1 7 5.5 15t10.5 12q18 -8 39 -14q18 -5 41.5 -9.5t51.5 -4.5q60 0 106.5 26t60.5 86q7 30 -1 49.5t-24.5 33t-40 22t-48.5 16.5q-26 7 -50.5 18.5t-42.5 28.5t-26 41t-1 58z" />
    <glyph glyph-name="sacute" unicode="&#x15b;" horiz-adv-x="445" 
d="M248 610q-18 1 -21 14l148 150q21 0 29 -17zM84 399q14 64 64 100.5t138 36.5q28 0 50.5 -3.5t38.5 -7.5q18 -5 32 -11q-1 -7 -5.5 -15t-10.5 -12q-14 5 -31 9q-14 4 -34 7t-43 3q-70 0 -112.5 -29t-54.5 -84q-5 -25 1.5 -43t21 -30.5t35 -21.5t43.5 -15q27 -8 55 -19
t48.5 -28.5t30.5 -43.5t1 -65q-15 -67 -65.5 -102t-138.5 -35q-35 0 -62.5 4.5t-45.5 10.5q-22 7 -37 16q1 7 5.5 15t10.5 12q18 -8 39 -14q18 -5 41.5 -9.5t51.5 -4.5q60 0 106.5 26t60.5 86q7 30 -1 49.5t-24.5 33t-40 22t-48.5 16.5q-26 7 -50.5 18.5t-42.5 28.5t-26 41
t-1 58z" />
    <glyph glyph-name="scaron" unicode="&#x161;" horiz-adv-x="445" 
d="M288 602l-93 91q6 15 20 19l89 -82l124 82q14 -4 14 -19l-130 -91h-24zM84 399q14 64 64 100.5t138 36.5q28 0 50.5 -3.5t38.5 -7.5q18 -5 32 -11q-1 -7 -5.5 -15t-10.5 -12q-14 5 -31 9q-14 4 -34 7t-43 3q-70 0 -112.5 -29t-54.5 -84q-5 -25 1.5 -43t21 -30.5t35 -21.5
t43.5 -15q27 -8 55 -19t48.5 -28.5t30.5 -43.5t1 -65q-15 -67 -65.5 -102t-138.5 -35q-35 0 -62.5 4.5t-45.5 10.5q-22 7 -37 16q1 7 5.5 15t10.5 12q18 -8 39 -14q18 -5 41.5 -9.5t51.5 -4.5q60 0 106.5 26t60.5 86q7 30 -1 49.5t-24.5 33t-40 22t-48.5 16.5
q-26 7 -50.5 18.5t-42.5 28.5t-26 41t-1 58z" />
    <glyph glyph-name="scedilla" unicode="&#x15f;" horiz-adv-x="444" 
d="M83 399q14 64 64 100.5t138 36.5q28 0 50.5 -3.5t38.5 -7.5q18 -5 32 -11q-1 -7 -5.5 -15t-10.5 -12q-14 5 -31 9q-14 4 -34 7t-43 3q-70 0 -112.5 -29t-54.5 -84q-5 -25 1.5 -43t21 -30.5t35 -21.5t43.5 -15q27 -8 55 -19t48.5 -28.5t30.5 -43.5t1 -65
q-29 -131 -192 -137l-24 -65q57 0 77.5 -25t12.5 -64q-10 -47 -41.5 -66.5t-85.5 -19.5q-19 0 -33 3t-25 8q-12 4 -22 11q4 14 15 22q8 -5 19 -9q9 -4 22 -6.5t30 -2.5q37 0 60 15t31 50q12 57 -59 57h-31l-4 8l31 84q-32 1 -56 6.5t-41 10.5q-19 6 -33 14q1 7 5.5 15
t10.5 12q18 -8 39 -14q18 -5 41.5 -9.5t51.5 -4.5q60 0 106.5 26t60.5 86q7 30 -1 49.5t-24.5 33t-40 22t-48.5 16.5q-26 7 -50.5 18.5t-42.5 28.5t-26 41t-1 58z" />
    <glyph glyph-name="scircumflex" unicode="&#x15d;" horiz-adv-x="445" 
d="M331 721l100 -99q-7 -16 -20 -19l-97 88l-135 -89q-15 7 -15 20l142 99h25zM84 399q14 64 64 100.5t138 36.5q28 0 50.5 -3.5t38.5 -7.5q18 -5 32 -11q-1 -7 -5.5 -15t-10.5 -12q-14 5 -31 9q-14 4 -34 7t-43 3q-70 0 -112.5 -29t-54.5 -84q-5 -25 1.5 -43t21 -30.5
t35 -21.5t43.5 -15q27 -8 55 -19t48.5 -28.5t30.5 -43.5t1 -65q-15 -67 -65.5 -102t-138.5 -35q-35 0 -62.5 4.5t-45.5 10.5q-22 7 -37 16q1 7 5.5 15t10.5 12q18 -8 39 -14q18 -5 41.5 -9.5t51.5 -4.5q60 0 106.5 26t60.5 86q7 30 -1 49.5t-24.5 33t-40 22t-48.5 16.5
q-26 7 -50.5 18.5t-42.5 28.5t-26 41t-1 58z" />
    <glyph glyph-name="scommaaccent" unicode="&#x219;" horiz-adv-x="444" 
d="M80 -200q9 9 19 21q8 11 16.5 26t14.5 35q-10 0 -13 1t-4 2l9 42q2 0 6 1q8 2 18 2t18 -2q4 -1 6 -1l-7 -32q-6 -26 -17.5 -46t-23.5 -34q-14 -16 -29 -27zM83 399q14 64 64 100.5t138 36.5q28 0 50.5 -3.5t38.5 -7.5q18 -5 32 -11q-1 -7 -5.5 -15t-10.5 -12q-14 5 -31 9
q-14 4 -34 7t-43 3q-70 0 -112.5 -29t-54.5 -84q-5 -25 1.5 -43t21 -30.5t35 -21.5t43.5 -15q27 -8 55 -19t48.5 -28.5t30.5 -43.5t1 -65q-15 -67 -65.5 -102t-138.5 -35q-35 0 -62.5 4.5t-45.5 10.5q-22 7 -37 16q1 7 5.5 15t10.5 12q18 -8 39 -14q18 -5 41.5 -9.5
t51.5 -4.5q60 0 106.5 26t60.5 86q7 30 -1 49.5t-24.5 33t-40 22t-48.5 16.5q-26 7 -50.5 18.5t-42.5 28.5t-26 41t-1 58z" />
    <glyph glyph-name="section" unicode="&#xa7;" horiz-adv-x="484" 
d="M339 117q5 23 -4.5 38.5t-28.5 26.5t-44.5 19.5l-52 17t-51.5 19t-43.5 25t-27 35t-2.5 49.5q5 25 18.5 45t30 35t33.5 25t29 16q-29 15 -45.5 39t-7.5 65q12 60 60.5 89t125.5 29q30 0 54 -3.5t41 -7.5q19 -4 34 -10q0 -8 -4.5 -15.5t-10.5 -11.5q-17 5 -35 9
q-16 3 -36 6t-41 3q-40 0 -67 -6.5t-45 -18t-27.5 -27.5t-13.5 -35q-7 -31 10.5 -50t46.5 -32t64 -24t63.5 -26.5t44.5 -38.5t8 -61q-5 -26 -18 -45.5t-28.5 -34t-31 -24.5t-25.5 -15q32 -15 51.5 -39t10.5 -66q-8 -37 -27.5 -61.5t-47 -39t-63 -20.5t-74.5 -6
q-33 0 -60 3.5t-46 8.5q-23 5 -40 12q2 17 15 29q20 -6 42 -10q19 -4 42 -7t46 -3q83 0 125 22t53 72zM226 455q-13 -6 -29.5 -15t-32 -22t-27.5 -30t-16 -37q-6 -29 6.5 -47.5t36.5 -30.5t55 -20.5t61 -18.5q10 5 25 13.5t30 21.5t27.5 30t17.5 38q6 28 -7 45.5t-36.5 30
t-53 22t-57.5 20.5z" />
    <glyph glyph-name="semicolon" unicode=";" horiz-adv-x="236" 
d="M0 -82q10 9 19 21q8 11 16 26t15 35q-10 0 -13 1t-4 2l9 42q2 0 6 1q8 2 18 2t18 -2q4 -1 6 -1l-7 -32q-6 -26 -17.5 -46t-23.5 -34q-14 -16 -29 -27zM165 398q-3 -1 -7 -2t-18 -1t-18 1t-5 2l8 42q2 0 6 1q8 2 19 2q6 0 10 -0.5t7 -1.5q4 -1 6 -1z" />
    <glyph glyph-name="seven" unicode="7" horiz-adv-x="489" 
d="M519 680q3 0 -1 -20q-13 -64 -42.5 -113t-67.5 -92.5t-80.5 -86.5t-82 -94.5t-72.5 -117t-52 -153.5q-1 -1 -4 -2t-13 -1t-13 1t-4 2q19 89 51 155.5t70.5 119t80.5 95t79.5 84.5t67.5 87.5t46 103.5h-373q-1 1 -1 4v4.5t1 7.5q1 4 2 7t2 5q1 3 2 4h404v0z" />
    <glyph glyph-name="seven.denom" horiz-adv-x="273" 
d="M35 320q-1 0 -1 2t-0.5 4t0.5 5t2 5l2 4t2 3h204v-5q0 -2 -0.5 -6t-1.5 -9q-8 -36 -23 -61.5t-34 -46.5t-39.5 -40.5t-40 -43t-36 -54.5t-25.5 -75q-6 -2 -13 -2q-8 0 -12 2q10 46 26.5 79t36 57.5t40.5 44.5t39.5 40t33 43t21.5 54h-181z" />
    <glyph glyph-name="seven.num" horiz-adv-x="272" 
d="M108 666q-2 5 -1 11.5t5 11.5h204v-5q0 -2 -0.5 -6t-1.5 -9q-8 -36 -22.5 -61.5t-33.5 -46.5t-40 -40.5t-40.5 -43t-35.5 -54.5t-25 -75q-6 -2 -13 -2q-8 0 -12 2q10 46 26.5 79t36 57.5t40.5 44.5t39.5 40t33 43t21.5 54h-181z" />
    <glyph glyph-name="seveneighths" unicode="&#x215e;" horiz-adv-x="650" 
d="M491 348q49 0 72 -21t14 -61q-7 -35 -29.5 -57t-49.5 -36q13 -7 24.5 -15t19 -18.5t10.5 -23.5t-1 -31q-9 -42 -44.5 -66t-89.5 -24q-51 0 -79.5 22.5t-18.5 67.5q4 20 13.5 36t22.5 28.5t27.5 22.5t28.5 17q-22 13 -35 31t-6 48q8 35 38 57.5t83 22.5zM543 699q1 0 3 1
q4 2 10 2q5 0 9 -2q2 -1 3 -1l-539 -707q-1 -1 -3 -1q-2 -1 -10 -1t-10 1q-2 0 -3 1zM130 666q-2 5 -1 11.5t5 11.5h204v-5q0 -2 -0.5 -6t-1.5 -9q-7 -36 -22 -61.5t-34 -46.5t-40 -40.5t-40.5 -43t-35.5 -54.5t-25 -75q-6 -2 -13 -2q-8 0 -12 2q10 46 26.5 78.5t36 57.5
t40.5 45t39.5 40t33 43t21.5 54h-181zM422 16q38 0 67.5 16.5t37.5 50.5q4 21 -3.5 35t-22 24.5t-34 19t-37.5 17.5l-22.5 -12.5t-26.5 -19t-23.5 -27t-14.5 -34.5q-8 -37 13 -53.5t66 -16.5zM485 327q-38 0 -61.5 -15.5t-29.5 -41.5q-4 -19 2.5 -32.5t19 -23t29 -17
l34.5 -15.5q28 16 48.5 36t25.5 47q7 30 -11 46t-57 16z" />
    <glyph glyph-name="seveninferior" unicode="&#x2087;" horiz-adv-x="272" 
d="M14 224q-2 5 -1 11.5t5 11.5h204v-5q0 -2 -0.5 -6t-1.5 -9q-8 -36 -22.5 -61.5t-33.5 -46.5t-40 -40.5t-40.5 -43t-35.5 -54.5t-25 -75q-6 -2 -13 -2q-8 0 -12 2q10 46 26.5 79t36 57.5t40.5 44.5t39.5 40t33 43t21.5 54h-181z" />
    <glyph glyph-name="six" unicode="6" horiz-adv-x="553" 
d="M496 652q-62 -6 -117 -25t-102 -53.5t-85 -86.5t-65 -124q14 8 33.5 17t43.5 17t52 13.5t59 5.5q42 0 76 -14t55.5 -42.5t28.5 -71t-5 -99.5q-11 -52 -34.5 -89.5t-56.5 -62t-74 -36t-87 -11.5q-45 0 -81 15.5t-57.5 48t-27 83t9.5 120.5q22 105 64 182t99.5 129
t127 79.5t147.5 32.5q3 -5 2 -14zM435 196q20 94 -17 141t-111 47q-33 0 -63.5 -7t-56 -17t-44.5 -20.5t-29 -16.5q-5 -17 -9.5 -34.5t-8.5 -35.5q-13 -61 -9.5 -105t21 -72.5t46.5 -42t67 -13.5t72.5 10.5t62.5 32t48.5 54.5t30.5 79z" />
    <glyph glyph-name="six.denom" horiz-adv-x="308" 
d="M42 172q13 8 38.5 17.5t61.5 9.5q51 0 72.5 -27t11.5 -72q-6 -27 -19.5 -47t-31.5 -32.5t-38.5 -19t-41.5 -6.5q-57 0 -78.5 38t-5.5 113q8 38 26 72t46.5 61t67 44.5t88.5 22.5q2 -4 1.5 -9.5t-4.5 -10.5q-76 -11 -125.5 -50.5t-68.5 -103.5zM35 145q-26 -129 64 -129
q38 0 66 22.5t36 61.5q7 32 -9 54.5t-56 22.5q-42 0 -67.5 -12.5t-33.5 -19.5z" />
    <glyph glyph-name="six.num" horiz-adv-x="308" 
d="M115 520q14 8 39.5 17.5t61.5 9.5q51 0 72.5 -27t11.5 -72q-6 -27 -19.5 -47t-31.5 -32.5t-38.5 -19t-41.5 -6.5q-57 0 -78.5 38t-5.5 113q8 38 26 72t46.5 61t67 44.5t87.5 22.5q5 -9 -2 -20q-76 -11 -125.5 -50.5t-69.5 -103.5zM109 493q-27 -129 64 -129q38 0 66 22.5
t36 61.5q7 32 -9 54.5t-56 22.5q-42 0 -67.5 -12.5t-33.5 -19.5z" />
    <glyph glyph-name="sixinferior" unicode="&#x2086;" horiz-adv-x="308" 
d="M21 76q13 8 39 17.5t62 9.5q51 0 72 -27t12 -72q-6 -27 -19.5 -47t-31.5 -32.5t-39 -19t-42 -6.5q-115 0 -83 151q8 38 26 72t46 61t66.5 44.5t88.5 22.5q5 -9 -2 -20q-76 -11 -126 -50.5t-69 -103.5zM14 49q-26 -129 65 -129q38 0 66 22.5t36 61.5q7 32 -9.5 54.5
t-56.5 22.5q-42 0 -67.5 -12.5t-33.5 -19.5z" />
    <glyph glyph-name="slash" unicode="/" horiz-adv-x="426" 
d="M459 747q1 0 4 1q6 2 14 2t14 -2q3 -1 4 -1l-507 -791q-2 -1 -6 -2t-15 -1q-10 0 -12 1t-3 2z" />
    <glyph glyph-name="space" unicode=" " horiz-adv-x="263" 
 />
    <glyph glyph-name="sterling" unicode="&#xa3;" horiz-adv-x="510" 
d="M193 321q3 -34 1.5 -69.5t-14 -71.5t-39 -73.5t-72.5 -74.5h320q3 -6 0 -16q-2 -11 -7 -16h-370l7 32q52 38 80.5 75t42 72.5t14.5 71t-3 70.5h-83q-1 3 -1.5 7t1.5 9q2 11 7 16h73q-6 40 -9 80.5t6 82.5q20 92 83 133.5t153 41.5q31 0 57 -4t45 -9q22 -5 40 -12
q-2 -8 -6 -15.5t-12 -11.5q-17 6 -37 10q-17 4 -41 7.5t-52 3.5q-163 0 -195 -147q-8 -38 -3 -78l10 -82h201q2 -8 1 -15q-1 -9 -8 -17h-190z" />
    <glyph glyph-name="summation" unicode="&#x2211;" horiz-adv-x="564" 
d="M-69 -207l4 21l322 447l-121 417l3 16h457q1 -1 1 -4q0 -7 -1 -12t-2 -7.5t-2 -4.5q-1 -3 -2 -4h-411l116 -401l-312 -436h435q1 -1 1 -4q0 -2 -2 -12q-1 -5 -2 -7.5t-2 -4.5q-1 -3 -2 -4h-480z" />
    <glyph glyph-name="t" unicode="t" horiz-adv-x="342" 
d="M184 496l-68 -324q-8 -39 -10 -67.5t6 -47t27 -28t53 -9.5q26 0 44 3q11 1 21 3q0 -2 1 -4q0 -2 0.5 -4.5t-0.5 -6.5q-1 -7 -3 -10q-1 -2 -1 -3q-9 -2 -20 -4q-9 -2 -21.5 -3t-27.5 -1q-41 0 -65.5 12.5t-35.5 35.5t-10 57t10 77l68 324h-81q-1 1 -1 3v4.5t2 7.5
q1 7 4 12q1 2 2 3h81l21 102q15 11 34 9l-23 -111h161q0 -1 1 -3q0 -2 0.5 -5t-0.5 -7q-2 -5 -2.5 -7.5t-2.5 -4.5l-3 -3h-161z" />
    <glyph glyph-name="tbar" unicode="&#x167;" horiz-adv-x="344" 
d="M354 526q0 -1 1 -3q0 -2 0.5 -5t-0.5 -7q-2 -5 -2.5 -7.5t-2.5 -4.5l-3 -3h-161l-42 -198h135q1 -1 1 -3v-4.5t-1 -6.5t-2 -6.5t-2 -4.5t-2 -3h-134l-21 -98q-8 -39 -10 -67.5t6 -47t27 -28t53 -9.5q26 0 44 3q11 1 21 3q0 -2 1 -4q0 -2 0.5 -4.5t-0.5 -6.5q-1 -7 -3 -10
q-1 -2 -1 -3q-9 -2 -20 -4q-9 -2 -21.5 -3t-27.5 -1q-41 0 -65.5 12.5t-35.5 35.5t-10 57t10 77l21 98h-59q-1 1 -1 3v4.5t1 6.5t2 6.5t2 4.5t2 3h58l42 198h-81q-1 1 -1 3v4.5t2 7.5q1 7 4 12q1 2 2 3h81l21 102q15 11 34 9l-23 -111h161z" />
    <glyph glyph-name="tcaron" unicode="&#x165;" horiz-adv-x="331" 
d="M311 571q-14 1 -16 12q40 26 64 62.5t35 83.5q23 3 32 -6q-6 -21 -17 -43.5t-25.5 -43t-33 -37.5t-39.5 -28zM184 496l-68 -324q-8 -39 -9 -67.5t7.5 -47t28.5 -28t54 -9.5q25 0 42 3q10 1 18 3q0 -2 1 -4q0 -2 0.5 -4.5t-0.5 -6.5q-1 -7 -3 -10q-1 -2 -1 -3
q-9 -2 -20 -4q-9 -2 -21.5 -3t-27.5 -1q-41 0 -65.5 12.5t-35.5 35.5t-10 57t10 77l68 324h-81q-1 1 -1 3v4.5t2 7.5q1 7 4 12q1 2 2 3h81l21 102q15 11 34 9l-23 -111h105q0 -1 1 -3q0 -2 0.5 -5t-0.5 -7q-2 -5 -2.5 -7.5t-2.5 -4.5l-3 -3h-105z" />
    <glyph glyph-name="tcommaaccent" unicode="&#x163;" horiz-adv-x="341" 
d="M184 496l-68 -324q-8 -39 -10 -67.5t6.5 -47t27.5 -28t53 -9.5q26 0 44 3q11 1 20 3q0 -2 1 -4q0 -2 0.5 -4.5t-0.5 -6.5q-1 -7 -3 -10q-1 -2 -1 -3q-9 -2 -20 -4q-9 -2 -21.5 -3t-27.5 -1q-41 0 -65.5 12.5t-35.5 35.5t-10 57t10 77l68 324h-81q-1 1 -1 3v4.5t2 7.5
q1 7 4 12q1 2 2 3h81l21 102q15 11 34 9l-23 -111h161q0 -1 1 -3q0 -2 0.5 -5t-0.5 -7q-2 -5 -2.5 -7.5t-2.5 -4.5l-3 -3h-161zM90 -190q9 9 19 21q8 11 16.5 26t14.5 35q-10 0 -13 1t-4 2l9 42q2 0 6 1q8 2 18 2t18 -2q4 -1 6 -1l-7 -32q-6 -26 -17.5 -46t-23.5 -34
q-14 -16 -29 -27z" />
    <glyph glyph-name="tcommaaccent" unicode="&#x21b;" horiz-adv-x="341" 
d="M184 496l-68 -324q-8 -39 -10 -67.5t6.5 -47t27.5 -28t53 -9.5q26 0 44 3q11 1 20 3q0 -2 1 -4q0 -2 0.5 -4.5t-0.5 -6.5q-1 -7 -3 -10q-1 -2 -1 -3q-9 -2 -20 -4q-9 -2 -21.5 -3t-27.5 -1q-41 0 -65.5 12.5t-35.5 35.5t-10 57t10 77l68 324h-81q-1 1 -1 3v4.5t2 7.5
q1 7 4 12q1 2 2 3h81l21 102q15 11 34 9l-23 -111h161q0 -1 1 -3q0 -2 0.5 -5t-0.5 -7q-2 -5 -2.5 -7.5t-2.5 -4.5l-3 -3h-161zM90 -190q9 9 19 21q8 11 16.5 26t14.5 35q-10 0 -13 1t-4 2l9 42q2 0 6 1q8 2 18 2t18 -2q4 -1 6 -1l-7 -32q-6 -26 -17.5 -46t-23.5 -34
q-14 -16 -29 -27z" />
    <glyph glyph-name="thorn" unicode="&#xfe;" 
d="M6 -247l-4 -2q-3 -1 -12 -1q-11 0 -13 1q-3 1 -3 2l212 994l3 1q4 2 13 2q5 0 7.5 -0.5t4.5 -1.5t4 -1l-66 -308q32 45 75 71t108 26q46 0 80 -14t53.5 -46t23 -84.5t-12.5 -128.5q-16 -77 -40 -129t-55.5 -84t-70 -46t-84.5 -14q-65 0 -101.5 26t-50.5 71zM101 200
q-6 -31 -3 -63t17.5 -58t40.5 -42.5t66 -16.5q92 0 144 57.5t79 185.5t0 185.5t-119 57.5q-39 0 -72 -16t-58 -41t-42 -56t-24 -61z" />
    <glyph glyph-name="three" unicode="3" horiz-adv-x="509" 
d="M409 170q-6 -34 -24.5 -66t-50 -57.5t-77.5 -41t-109 -15.5q-37 0 -65 5t-48 11q-23 7 -41 16q1 6 5.5 14t9.5 11q20 -7 54.5 -16.5t88.5 -9.5t93.5 12t66.5 33t42.5 49.5t22.5 60.5q11 52 0 84.5t-35.5 50.5t-57.5 24.5t-65 6.5h-45q-1 1 -1 3v4.5t1 7.5q1 7 4 12
q1 2 2 3h45q28 0 60 5t61.5 21t52 45.5t33.5 78.5q14 63 -19.5 101t-116.5 38q-32 0 -59 -4t-47 -9q-24 -6 -44 -13q-5 3 -7 11.5t0 15.5q23 8 49 14q23 5 53 9.5t65 4.5q49 0 82.5 -14t53 -37t24.5 -54.5t-2 -65.5q-13 -62 -47 -103t-102 -61q67 -20 87 -69t7 -116z" />
    <glyph glyph-name="three.denom" horiz-adv-x="304" 
d="M213 92q-5 -20 -14.5 -37.5t-27 -30.5t-44.5 -21t-65 -8q-19 0 -33.5 2t-25.5 4q-12 3 -23 7q0 11 9 18q10 -3 22 -5q23 -5 54 -5q34 0 56.5 6.5t36.5 17t21 24.5t10 28q8 42 -13.5 59.5t-59.5 17.5h-43q-4 11 5 22h43q38 0 61 18t30 50q7 33 -11 50t-59 17
q-18 0 -33 -1.5t-26 -3.5q-13 -2 -24 -4q-4 7 -1 19q11 3 25 6q12 2 28 4t36 2q54 0 76 -23t13 -65q-6 -29 -21 -48t-44 -31q25 -11 37.5 -29.5t4.5 -59.5z" />
    <glyph glyph-name="three.num" horiz-adv-x="305" 
d="M287 438q-4 -20 -14 -37.5t-27.5 -30.5t-44.5 -21t-65 -8q-19 0 -33.5 2t-25.5 4q-12 3 -23 7q2 13 10 18q10 -3 22 -5q23 -5 54 -5q34 0 56.5 6.5t36.5 17t20.5 24.5t9.5 28q4 21 0.5 35.5t-13.5 23.5t-25.5 13.5t-34.5 4.5h-43q-1 5 0.5 11t4.5 11h43q38 0 61.5 18
t30.5 50q7 33 -11 50t-59 17q-18 0 -33 -1.5t-26 -3.5q-13 -2 -24 -4q-5 9 -1 19q11 3 25 6q12 2 27.5 4t35.5 2q54 0 76.5 -23t13.5 -65q-7 -29 -22 -48t-43 -31q25 -11 37.5 -29.5t3.5 -59.5z" />
    <glyph glyph-name="threeeighths" unicode="&#x215c;" horiz-adv-x="742" 
d="M583 348q49 0 72 -21t14 -61q-7 -35 -29.5 -57t-49.5 -36q13 -7 24.5 -15t19 -18.5t10.5 -23.5t-1 -31q-9 -42 -44.5 -66t-89.5 -24q-51 0 -79.5 22.5t-18.5 67.5q4 20 13.5 36t22.5 28.5t27.5 22.5t28.5 17q-22 13 -35 31t-6 48q8 35 38 57.5t83 22.5zM635 699q1 0 3 1
q4 2 10 2q5 0 9 -2q2 -1 3 -1l-539 -707q-1 -1 -3 -1q-2 -1 -10 -1t-10 1q-2 0 -3 1zM298 438q-4 -20 -14 -37.5t-27.5 -30.5t-44.5 -21t-65 -8q-19 0 -33.5 2t-25.5 4q-12 3 -23 7q2 13 10 18q10 -3 22 -5q23 -5 54 -5q34 0 56.5 6.5t36.5 17t20.5 24.5t9.5 28
q4 21 0.5 35.5t-13.5 23.5t-25.5 13.5t-34.5 4.5h-43q-1 5 0.5 11t4.5 11h43q38 0 61.5 18t30.5 50q7 33 -11 50t-59 17q-18 0 -33 -1.5t-26 -3.5q-13 -2 -24 -4q-5 9 -1 19q11 3 25 6q12 2 27.5 4t35.5 2q54 0 76.5 -23t13.5 -65q-7 -29 -22 -48t-43 -31q25 -11 37.5 -29.5
t3.5 -59.5zM514 16q38 0 67.5 16.5t37.5 50.5q4 21 -3.5 35t-22 24.5t-34 19t-37.5 17.5l-22.5 -12.5t-26.5 -19t-23.5 -27t-14.5 -34.5q-8 -37 13 -53.5t66 -16.5zM577 327q-38 0 -61.5 -15.5t-29.5 -41.5q-4 -19 2.5 -32.5t19 -23t29 -17l34.5 -15.5q28 16 48.5 36
t25.5 47q7 30 -11 46t-57 16z" />
    <glyph glyph-name="threeinferior" unicode="&#x2083;" horiz-adv-x="304" 
d="M192 -4q-4 -20 -14 -37.5t-27.5 -30.5t-44.5 -21t-65 -8q-19 0 -33.5 2t-25.5 4q-12 3 -23 7q2 13 10 18q10 -3 22 -5q23 -5 54 -5q34 0 56.5 6.5t36.5 17t20.5 24.5t9.5 28q4 21 0.5 35.5t-13.5 23.5t-25.5 13.5t-34.5 4.5h-43q-1 5 0.5 11t4.5 11h43q38 0 61.5 18
t30.5 50q7 33 -11 50t-59 17q-18 0 -33 -1.5t-26 -3.5q-13 -2 -24 -4q-5 9 -1 19q11 3 25 6q12 2 28 4t36 2q54 0 76 -23t13 -65q-11 -56 -65 -79q25 -11 37.5 -29.5t3.5 -59.5z" />
    <glyph glyph-name="threequarters" unicode="&#xbe;" horiz-adv-x="691" 
d="M640 699q1 0 3 1q4 2 10 2q5 0 9 -2q2 -1 3 -1l-539 -707q-1 -1 -3 -1q-2 -1 -10 -1t-10 1q-2 0 -3 1zM298 438q-4 -20 -14 -37.5t-27.5 -30.5t-44.5 -21t-65 -8q-19 0 -33.5 2t-25.5 4q-12 3 -23 7q2 13 10 18q10 -3 22 -5q23 -5 54 -5q34 0 56.5 6.5t36.5 17t20.5 24.5
t9.5 28q4 21 0.5 35.5t-13.5 23.5t-25.5 13.5t-34.5 4.5h-43q-1 5 0.5 11t4.5 11h43q38 0 61.5 18t30.5 50q7 33 -11 50t-59 17q-18 0 -33 -1.5t-26 -3.5q-13 -2 -24 -4q-5 9 -1 19q11 3 25 6q12 2 27.5 4t35.5 2q54 0 76.5 -23t13.5 -65q-7 -29 -22 -48t-43 -31
q25 -11 37.5 -29.5t3.5 -59.5zM601 120q1 -1 1 -3q0 -5 -1 -8l-3 -9q-1 -2 -1 -3h-43l-21 -95q-1 -1 -3 -1q-2 -1 -8 -1q-7 0 -9 1q-2 0 -3 1l21 95h-184q-1 1 -1 2t-0.5 2t0.5 3q0 4 2 6l2 2l231 229q1 0 3 1q2 0 4 0.5t6 0.5q3 0 4.5 -0.5t3.5 -0.5q2 -1 3 -1l-47 -221h43
zM535 120l40 187l-190 -187h150z" />
    <glyph glyph-name="threesuperior" unicode="&#xb3;" horiz-adv-x="305" 
d="M287 438q-4 -20 -14 -37.5t-27.5 -30.5t-44.5 -21t-65 -8q-19 0 -33.5 2t-25.5 4q-12 3 -23 7q2 13 10 18q10 -3 22 -5q23 -5 54 -5q34 0 56.5 6.5t36.5 17t20.5 24.5t9.5 28q4 21 0.5 35.5t-13.5 23.5t-25.5 13.5t-34.5 4.5h-43q-1 5 0.5 11t4.5 11h43q38 0 61.5 18
t30.5 50q7 33 -11 50t-59 17q-18 0 -33 -1.5t-26 -3.5q-13 -2 -24 -4q-5 9 -1 19q11 3 25 6q12 2 27.5 4t35.5 2q54 0 76.5 -23t13.5 -65q-7 -29 -22 -48t-43 -31q25 -11 37.5 -29.5t3.5 -59.5z" />
    <glyph glyph-name="tilde" unicode="&#x2dc;" horiz-adv-x="327" 
d="M216 646q11 0 19 4.5t14 9.5q7 6 12 15q18 2 24 -11q-9 -13 -21 -24q-11 -9 -25.5 -16t-33.5 -7q-18 0 -30.5 5.5t-23 12.5t-21 12.5t-24.5 5.5q-11 0 -19.5 -5t-14.5 -10q-7 -7 -12 -15q-19 -2 -23 11q9 13 21 24q11 9 25 16.5t34 7.5q18 0 30.5 -5.5t23 -12.5t21 -12.5
t24.5 -5.5z" />
    <glyph glyph-name="trademark" unicode="&#x2122;" horiz-adv-x="628" 
d="M331 720q5 -9 -4 -21h-90l-57 -264q-1 -1 -3 -2t-8 -1t-8 1t-2 2l57 264h-92q-3 12 4 21h203zM598 686l-128 -174q-1 -1 -3 -2t-9 -1t-8 1q-2 1 -2 2l-50 174l-54 -251l-2 -2q-2 -1 -7 -1q-6 0 -7 1q-2 1 -2 2l60 282q1 0 3 1q4 2 10 2q5 0 9 -2l2 -1l54 -185l135 185
q1 0 3 1q4 2 10 2q5 0 9 -2l2 -1l-60 -282l-2 -2q-2 -1 -7 -1q-6 0 -8 1t-2 2z" />
    <glyph glyph-name="two" unicode="2" horiz-adv-x="523" 
d="M165 628q-11 10 -4 30q23 9 53 16q26 6 60.5 11t76.5 5q40 0 72.5 -10t53.5 -31t29 -54.5t-2 -79.5q-9 -42 -28 -72.5t-48.5 -55.5t-69.5 -48l-90 -50q-30 -17 -65 -34t-67 -41t-57 -58t-35 -83q-2 -10 -3 -17.5t-2 -12.5q-1 -6 -1 -11h353q1 -2 1 -4t-0.5 -4.5
l-1.5 -7.5q-1 -8 -4 -13q-1 -3 -2 -3h-382q0 9 1 20q1 9 2.5 21t4.5 26q12 58 37.5 96.5t59 65.5t72.5 47l78 42l75.5 42t64 42.5t48 50.5t27.5 67q5 23 4.5 47.5t-14 45t-43 34t-81.5 13.5q-33 0 -64.5 -5t-55.5 -11q-28 -7 -53 -16z" />
    <glyph glyph-name="two.denom" horiz-adv-x="301" 
d="M-17 41q7 34 26 55.5t43.5 36.5t52 26t51.5 23.5t41.5 29.5t23.5 44q3 13 1.5 25.5t-9.5 22.5t-24 16t-43 6q-14 0 -28 -1.5t-25 -3.5q-13 -3 -24 -5q-4 9 -1 20q11 3 24 6q11 2 27 4t35 2q31 0 50.5 -7t30 -19t13 -28.5t-1.5 -35.5q-7 -34 -27 -54.5t-46 -35t-55 -26
t-53.5 -26.5t-41.5 -36.5t-20 -56.5h191q2 -5 0 -12q-2 -8 -5 -11h-211q0 6 1 12q1 5 1.5 12.5t2.5 16.5z" />
    <glyph glyph-name="two.num" horiz-adv-x="301" 
d="M57 387q7 34 26 55.5t43.5 36.5t52 26t51.5 23.5t42 29.5t24 44q3 13 1.5 25.5t-9.5 22.5t-24 16t-43 6q-14 0 -28 -1.5t-25 -3.5q-13 -3 -24 -5q-5 10 -1 20q11 3 24 6q11 2 26.5 4t34.5 2q31 0 51 -7t30.5 -19t12.5 -28.5t-2 -35.5q-7 -34 -27 -54.5t-45.5 -35
t-54.5 -26t-53.5 -26.5t-42 -36.5t-20.5 -56.5h191q3 -4 1 -12q-1 -6 -5 -11h-211v12q0 13 4 29z" />
    <glyph glyph-name="twoinferior" unicode="&#x2082;" horiz-adv-x="301" 
d="M-37 -55q7 34 26 55.5t43.5 36.5t52 26t51.5 23.5t42 29.5t24 44q3 13 1.5 25.5t-9.5 22.5t-24 16t-43 6q-14 0 -28 -1.5t-25 -3.5q-13 -3 -24 -5q-5 10 -1 20q11 3 24 6q11 2 27 4t35 2q31 0 50.5 -7t30 -19t12.5 -28.5t-2 -35.5q-7 -34 -27 -54.5t-45.5 -35t-54.5 -26
t-53.5 -26.5t-42 -36.5t-20.5 -56.5h191q3 -4 1 -12q-1 -6 -5 -11h-211v12q0 13 4 29z" />
    <glyph glyph-name="twosuperior" unicode="&#xb2;" horiz-adv-x="301" 
d="M57 387q7 34 26 55.5t43.5 36.5t52 26t51.5 23.5t42 29.5t24 44q3 13 1.5 25.5t-9.5 22.5t-24 16t-43 6q-14 0 -28 -1.5t-25 -3.5q-13 -3 -24 -5q-5 10 -1 20q11 3 24 6q11 2 26.5 4t34.5 2q31 0 51 -7t30.5 -19t12.5 -28.5t-2 -35.5q-7 -34 -27 -54.5t-45.5 -35
t-54.5 -26t-53.5 -26.5t-42 -36.5t-20.5 -56.5h191q3 -4 1 -12q-1 -6 -5 -11h-211v12q0 13 4 29z" />
    <glyph glyph-name="twothirds" unicode="&#x2154;" horiz-adv-x="761" 
d="M654 699q1 0 3 1q4 2 10 2q5 0 9 -2q2 -1 3 -1l-539 -707q-1 -1 -3 -1q-2 -1 -10 -1t-10 1q-2 0 -3 1zM664 92q-5 -20 -14.5 -37.5t-27 -30.5t-44.5 -21t-65 -8q-19 0 -33.5 2t-25.5 4q-12 3 -23 7q0 11 9 18q10 -3 22 -5q23 -5 54 -5q34 0 56.5 6.5t36.5 17t21 24.5
t10 28q8 42 -13.5 59.5t-59.5 17.5h-43q-4 11 5 22h43q38 0 61 18t30 50q7 33 -11 50t-59 17q-18 0 -33 -1.5t-26 -3.5q-13 -2 -24 -4q-4 7 -1 19q11 3 25 6q12 2 28 4t36 2q54 0 76 -23t13 -65q-6 -29 -21 -48t-44 -31q25 -11 37.5 -29.5t4.5 -59.5zM70 387q7 34 26 55.5
t43.5 36.5t52 26t51.5 23.5t42 29.5t24 44q3 13 1.5 25.5t-9.5 22.5t-24 16t-43 6q-14 0 -28 -1.5t-25 -3.5q-13 -3 -24 -5q-5 10 -1 20q11 3 24 6q11 2 26.5 4t34.5 2q31 0 51 -7t30.5 -19t12.5 -28.5t-2 -35.5q-7 -34 -27 -54.5t-45.5 -35t-54.5 -26t-53.5 -26.5
t-42 -36.5t-20.5 -56.5h191q3 -4 1 -12q-1 -6 -5 -11h-211v12q0 13 4 29z" />
    <glyph glyph-name="u" unicode="u" horiz-adv-x="551" 
d="M135 523q1 0 4 1q6 2 13 2q8 0 12 -2q2 -1 3 -1l-80 -377q-14 -66 12 -97t89 -31q26 0 54 9t55 26t52 41.5t45 55.5l79 373q1 0 4 1q6 2 13 2q8 0 12 -2q2 -1 3 -1l-110 -520q-1 -1 -4 -2t-13 -1t-12 1t-3 2l18 88q-42 -47 -90.5 -74t-109.5 -27q-35 0 -62.5 10.5
t-44.5 30t-23 48t2 64.5z" />
    <glyph glyph-name="uacute" unicode="&#xfa;" horiz-adv-x="551" 
d="M296 610q-18 1 -21 14l148 150q21 0 29 -17zM135 523q1 0 4 1q6 2 13 2q8 0 12 -2q2 -1 3 -1l-80 -377q-14 -66 12 -97t89 -31q26 0 54 9t55 26t52 41.5t45 55.5l79 373q1 0 4 1q6 2 13 2q8 0 12 -2q2 -1 3 -1l-110 -520q-1 -1 -4 -2t-13 -1t-12 1t-3 2l18 88
q-42 -47 -90.5 -74t-109.5 -27q-35 0 -62.5 10.5t-44.5 30t-23 48t2 64.5z" />
    <glyph glyph-name="ubreve" unicode="&#x16d;" horiz-adv-x="551" 
d="M486 688q-16 -15 -36 -26q-18 -10 -43.5 -18t-57.5 -8t-55.5 8t-38.5 18q-18 11 -29 26q4 8 8.5 12t13.5 7q11 -12 26 -22q13 -8 32 -14.5t45 -6.5q25 0 47 6.5t39 14.5q19 10 35 22q9 -2 12 -6.5t2 -12.5zM135 523q1 0 4 1q6 2 13 2q8 0 12 -2q2 -1 3 -1l-80 -377
q-14 -66 12 -97t89 -31q26 0 54 9t55 26t52 41.5t45 55.5l79 373q1 0 4 1q6 2 13 2q8 0 12 -2q2 -1 3 -1l-110 -520q-1 -1 -4 -2t-13 -1t-12 1t-3 2l18 88q-42 -47 -90.5 -74t-109.5 -27q-35 0 -62.5 10.5t-44.5 30t-23 48t2 64.5z" />
    <glyph glyph-name="ucircumflex" unicode="&#xfb;" horiz-adv-x="551" 
d="M374 721l100 -99q-7 -16 -20 -19l-96 88l-139 -89q-12 5 -12 20l142 99h25zM135 523q1 0 4 1q6 2 13 2q8 0 12 -2q2 -1 3 -1l-80 -377q-14 -66 12 -97t89 -31q26 0 54 9t55 26t52 41.5t45 55.5l79 373q1 0 4 1q6 2 13 2q8 0 12 -2q2 -1 3 -1l-110 -520q-1 -1 -4 -2
t-13 -1t-12 1t-3 2l18 88q-42 -47 -90.5 -74t-109.5 -27q-35 0 -62.5 10.5t-44.5 30t-23 48t2 64.5z" />
    <glyph glyph-name="udieresis" unicode="&#xfc;" horiz-adv-x="551" 
d="M290 635q-3 -1 -7 -2t-18 -1t-18 1t-5 2l8 42q2 0 6 1q8 2 19 2q6 0 10 -0.5t7 -1.5q4 -1 6 -1zM431 635q-3 -1 -7 -2t-18 -1t-18 1t-5 2l8 42q2 0 6 1q8 2 19 2q6 0 10 -0.5t7 -1.5q4 -1 6 -1zM135 523q1 0 4 1q6 2 13 2q8 0 12 -2q2 -1 3 -1l-80 -377q-14 -66 12 -97
t89 -31q26 0 54 9t55 26t52 41.5t45 55.5l79 373q1 0 4 1q6 2 13 2q8 0 12 -2q2 -1 3 -1l-110 -520q-1 -1 -4 -2t-13 -1t-12 1t-3 2l18 88q-42 -47 -90.5 -74t-109.5 -27q-35 0 -62.5 10.5t-44.5 30t-23 48t2 64.5z" />
    <glyph glyph-name="ugrave" unicode="&#xf9;" horiz-adv-x="551" 
d="M274 751q5 7 14 11.5t18 4.5l79 -137q-10 -12 -25 -13zM135 523q1 0 4 1q6 2 13 2q8 0 12 -2q2 -1 3 -1l-80 -377q-14 -66 12 -97t89 -31q26 0 54 9t55 26t52 41.5t45 55.5l79 373q1 0 4 1q6 2 13 2q8 0 12 -2q2 -1 3 -1l-110 -520q-1 -1 -4 -2t-13 -1t-12 1t-3 2l18 88
q-42 -47 -90.5 -74t-109.5 -27q-35 0 -62.5 10.5t-44.5 30t-23 48t2 64.5z" />
    <glyph glyph-name="uhungarumlaut" unicode="&#x171;" horiz-adv-x="551" 
d="M234 593q-14 1 -19 13l129 133q20 0 31 -15zM369 593q-15 2 -20 13l129 133q20 0 31 -15zM135 523q1 0 4 1q6 2 13 2q8 0 12 -2q2 -1 3 -1l-80 -377q-14 -66 12 -97t89 -31q26 0 54 9t55 26t52 41.5t45 55.5l79 373q1 0 4 1q6 2 13 2q8 0 12 -2q2 -1 3 -1l-110 -520
q-1 -1 -4 -2t-13 -1t-12 1t-3 2l18 88q-42 -47 -90.5 -74t-109.5 -27q-35 0 -62.5 10.5t-44.5 30t-23 48t2 64.5z" />
    <glyph glyph-name="umacron" unicode="&#x16b;" horiz-adv-x="551" 
d="M236 643q-2 6 0 14q1 8 6 14h211q1 -2 1.5 -5t-1.5 -8q-2 -9 -6 -15h-211zM135 523q1 0 4 1q6 2 13 2q8 0 12 -2q2 -1 3 -1l-80 -377q-14 -66 12 -97t89 -31q26 0 54 9t55 26t52 41.5t45 55.5l79 373q1 0 4 1q6 2 13 2q8 0 12 -2q2 -1 3 -1l-110 -520q-1 -1 -4 -2t-13 -1
t-12 1t-3 2l18 88q-42 -47 -90.5 -74t-109.5 -27q-35 0 -62.5 10.5t-44.5 30t-23 48t2 64.5z" />
    <glyph glyph-name="underscore" unicode="_" horiz-adv-x="512" 
d="M-15 -48q-1 1 -1 3t-0.5 4t1.5 7q1 4 2 6.5t2 4.5t2 3h400q1 -1 1 -3v-4.5t-1 -6.5q-3 -9 -4 -11t-2 -3h-400z" />
    <glyph glyph-name="uni00AD" unicode="&#xad;" horiz-adv-x="274" 
 />
    <glyph glyph-name="Remove1" horiz-adv-x="537" 
 />
    <glyph glyph-name="Remove2" horiz-adv-x="398" 
 />
    <glyph glyph-name="uni2117" unicode="&#x2117;" horiz-adv-x="807" 
d="M322 266l-26 -125q-6 -3 -16 -3q-7 0 -13 3l81 382h135q60 0 87.5 -35.5t15.5 -92.5q-13 -59 -55.5 -94t-102.5 -35h-106zM328 293h103q46 0 79.5 25.5t44.5 76.5q11 50 -12 75.5t-69 25.5h-103zM340 5q-69 0 -124.5 26.5t-91.5 72t-49.5 106.5t1.5 130t54.5 130
t94.5 106.5t121.5 71.5t135.5 26t124.5 -26t91.5 -71.5t49 -106.5t-2 -130t-54 -130t-94 -106.5t-121.5 -72t-135.5 -26.5zM476 646q-63 0 -124 -24t-111.5 -65.5t-87 -97.5t-49.5 -119q-14 -63 -1.5 -119t45.5 -98t84 -66t114 -24t124 24t111.5 66t86 98t49.5 119
q13 63 1 119t-44.5 97.5t-83.5 65.5t-114 24z" />
    <glyph glyph-name="uni2196" unicode="&#x2196;" horiz-adv-x="508" 
d="M130 530h286q2 -6 0 -14t-6 -14h-237l253 -321l-3 -3q-2 -2 -4 -4.5t-5 -4.5l-6 -4.5t-4 -3.5t-4 -2l-253 322l-50 -237q-8 -3 -15 -3q-9 0 -13 3z" />
    </font>
</defs>
</svg>
