<?xml version="1.0" standalone="no"?>
<!DOCTYPE svg PUBLIC "-//W3C//DTD SVG 1.1//EN" "http://www.w3.org/Graphics/SVG/1.1/DTD/svg11.dtd" >
<svg>
<metadata>
Created by FontForge 20090622 at Fri Jan 29 10:52:08 2016
 By deploy user
Copyright (c) 2014 by Fontfabric LLC. All rights reserved.
</metadata>
<defs>
<font id="GloberBlackItalic" horiz-adv-x="546" >
  <font-face 
    font-family="Glober Black Italic"
    font-weight="900"
    font-style="italic"
    font-stretch="normal"
    units-per-em="1000"
    panose-1="0 0 0 0 0 0 0 0 0 0"
    ascent="750"
    descent="-250"
    x-height="536"
    cap-height="720"
    bbox="-258 -425 1109.06 1126.8"
    underline-thickness="50"
    underline-position="-50"
    unicode-range="U+0020-U+FB02"
  />
<missing-glyph horiz-adv-x="618" 
d="M-116 0l153 720h538l-153 -720h-538zM416 487q9 40 1 68t-27.5 45.5t-48.5 25t-63 7.5q-32 0 -57 -5t-43 -10q-21 -6 -37 -14q-14 -45 16 -72q11 5 24 9q11 4 27.5 7t36.5 3q16 0 30.5 -3t24 -10.5t13 -20.5t-0.5 -34q-6 -27 -18 -43t-27 -28.5t-32 -23.5t-33 -28
t-30 -43t-23 -67q5 -3 10 -5q10 -5 28 -5t30 5q6 2 10 5q6 28 20 46t32.5 31.5t39 25.5t39.5 29t34.5 41.5t23.5 63.5zM224 179q-6 1 -13 3q-6 2 -15.5 3t-21.5 1q-14 0 -23.5 -1t-15.5 -3l-12 -3l-20 -92q4 -2 11 -3q12 -3 38 -3q24 0 38 3q8 1 14 3z" />
    <glyph glyph-name="fi" unicode="fi" horiz-adv-x="621" 
d="M137 586q8 40 27.5 70.5t51.5 51.5t79 31.5t111 10.5q63 0 112.5 -7t83.5 -15q40 -10 69 -22q-12 -42 -36.5 -75.5t-49.5 -56.5q-24 6 -52 11q-24 5 -56 8.5t-67 3.5q-38 0 -53 -8.5t-20 -29.5l-5 -23h200q25 0 43.5 -1t31.5 -3q15 -2 26 -4l-110 -520q-12 -2 -28 -4
q-14 -2 -33 -3t-44 -1t-43.5 1t-31.5 3q-15 2 -26 4l79 375h-97l-79 -375q-11 -2 -27 -4q-14 -2 -33.5 -3t-44.5 -1q-24 0 -43 1t-32 3q-15 2 -26 4l79 375h-64q0 10 1 21l2.5 24t5.5 32q4 17 8 31.5t8 24.5q4 11 8 20h64l11 50v0z" />
    <glyph glyph-name="fl" unicode="fl" horiz-adv-x="621" 
d="M137 586q8 40 27.5 70.5t51.5 51.5t79 31.5t111 10.5q51 0 98.5 -7t84.5 -15q43 -10 82 -22l-148 -698q-12 -2 -28 -4q-14 -2 -33 -3t-44 -1t-43.5 1t-31.5 3q-15 2 -26 4l125 588q-8 0 -16 0.5t-16 0.5q-38 0 -53 -8.5t-20 -29.5l-5 -23h55q1 -15 -1 -35t-7 -41t-11 -41
t-14 -36h-55l-79 -375q-11 -2 -27 -4q-14 -2 -33.5 -3t-44.5 -1q-24 0 -43 1t-32 3q-15 2 -26 4l79 375h-64q0 16 2.5 35.5t6.5 39.5q5 22 10.5 42t13.5 36h64l11 50v0z" />
    <glyph glyph-name=".notdef" horiz-adv-x="618" 
d="M-116 0l153 720h538l-153 -720h-538zM416 487q9 40 1 68t-27.5 45.5t-48.5 25t-63 7.5q-32 0 -57 -5t-43 -10q-21 -6 -37 -14q-14 -45 16 -72q11 5 24 9q11 4 27.5 7t36.5 3q16 0 30.5 -3t24 -10.5t13 -20.5t-0.5 -34q-6 -27 -18 -43t-27 -28.5t-32 -23.5t-33 -28
t-30 -43t-23 -67q5 -3 10 -5q10 -5 28 -5t30 5q6 2 10 5q6 28 20 46t32.5 31.5t39 25.5t39.5 29t34.5 41.5t23.5 63.5zM224 179q-6 1 -13 3q-6 2 -15.5 3t-21.5 1q-14 0 -23.5 -1t-15.5 -3l-12 -3l-20 -92q4 -2 11 -3q12 -3 38 -3q24 0 38 3q8 1 14 3z" />
    <glyph glyph-name="A" unicode="A" horiz-adv-x="692" 
d="M34 0q-25 0 -43.5 1t-31.5 3q-15 2 -27 5l358 702q16 2 37 4q18 2 45 3.5t63 1.5q37 0 64 -1.5t44 -3.5q20 -2 33 -4l58 -702q-12 -3 -29 -5q-14 -2 -34.5 -3t-47.5 -1q-26 0 -44.5 1t-31.5 3q-15 2 -26 5l-8 120h-211l-60 -120q-13 -3 -30 -5q-14 -2 -34 -3t-44 -1z
M394 560q-8 -27 -19 -60l-23.5 -64t-33.5 -74l-45 -90h129l-5 92q-3 43 -2.5 79t2.5 62q2 31 6 55h-9z" />
    <glyph glyph-name="AE" unicode="&#xc6;" horiz-adv-x="961" 
d="M1012 720q3 -16 1 -36t-6.5 -40.5t-11.5 -40.5t-16 -36h-232l-27 -127h182q3 -16 1.5 -36t-6 -40.5t-11.5 -40.5t-16 -36h-182l-29 -134h242q2 -16 1 -36t-5.5 -40.5t-11.5 -40.5t-16 -36h-460l30 139h-186l-104 -129q-9 -2 -23 -4t-30 -3.5t-33 -2t-31 -0.5t-30.5 0.5
t-31.5 2t-28 3t-20 4.5l584 710h506zM535 535l-74 -123l-85 -120h95l16 76l51 167h-3z" />
    <glyph glyph-name="AEacute" unicode="&#x1fc;" horiz-adv-x="960" 
d="M753 749q-32 5 -60.5 18.5t-41.5 36.5l136 167q25 3 50.5 -1t47.5 -12.5t38 -22t23 -29.5zM1012 720q3 -16 1 -36t-6.5 -40.5t-11.5 -40.5t-16 -36h-232l-27 -127h182q3 -16 1.5 -36t-6 -40.5t-11.5 -40.5t-16 -36h-182l-29 -134h242q2 -16 1 -36t-5.5 -40.5t-11.5 -40.5
t-16 -36h-460l30 139h-186l-104 -129q-9 -2 -23 -4t-30 -3.5t-33 -2t-31 -0.5t-30.5 0.5t-31.5 2t-28 3t-20 4.5l584 710h506zM535 535l-74 -123l-85 -120h95l16 76l51 167h-3z" />
    <glyph glyph-name="Aacute" unicode="&#xc1;" horiz-adv-x="692" 
d="M505 971q25 3 50.5 -1t47.5 -12.5t38 -22t23 -29.5l-193 -157q-32 5 -60.5 18.5t-41.5 36.5zM34 0q-25 0 -43.5 1t-31.5 3q-15 2 -27 5l358 702q16 2 37 4q18 2 45 3.5t63 1.5q37 0 64 -1.5t44 -3.5q20 -2 33 -4l58 -702q-12 -3 -29 -5q-14 -2 -34.5 -3t-47.5 -1
q-26 0 -44.5 1t-31.5 3q-15 2 -26 5l-8 120h-211l-60 -120q-13 -3 -30 -5q-14 -2 -34 -3t-44 -1zM394 560q-8 -27 -19 -60l-23.5 -64t-33.5 -74l-45 -90h129l-5 92q-3 43 -2.5 79t2.5 62q2 31 6 55h-9z" />
    <glyph glyph-name="Abreve" unicode="&#x102;" horiz-adv-x="692" 
d="M471 910q26 0 47 4t36 9q18 5 31 13q27 -13 45 -35.5t22 -48.5q-22 -24 -53 -42q-26 -16 -65.5 -28.5t-92.5 -12.5t-87 12.5t-54 28.5q-24 18 -35 42q17 26 43.5 48.5t60.5 35.5q10 -8 25 -13q13 -5 32 -9t45 -4zM34 0q-25 0 -43.5 1t-31.5 3q-15 2 -27 5l358 702
q16 2 37 4q18 2 45 3.5t63 1.5q37 0 64 -1.5t44 -3.5q20 -2 33 -4l58 -702q-12 -3 -29 -5q-14 -2 -34.5 -3t-47.5 -1q-26 0 -44.5 1t-31.5 3q-15 2 -26 5l-8 120h-211l-60 -120q-13 -3 -30 -5q-14 -2 -34 -3t-44 -1zM394 560q-8 -27 -19 -60l-23.5 -64t-33.5 -74l-45 -90
h129l-5 92q-3 43 -2.5 79t2.5 62q2 31 6 55h-9z" />
    <glyph glyph-name="Acircumflex" unicode="&#xc2;" horiz-adv-x="692" 
d="M663 841q-20 -29 -47.5 -53.5t-59.5 -38.5l-105 74l-136 -73q-26 14 -43.5 38t-23.5 53l212 158h55zM34 0q-25 0 -43.5 1t-31.5 3q-15 2 -27 5l358 702q16 2 37 4q18 2 45 3.5t63 1.5q37 0 64 -1.5t44 -3.5q20 -2 33 -4l58 -702q-12 -3 -29 -5q-14 -2 -34.5 -3t-47.5 -1
q-26 0 -44.5 1t-31.5 3q-15 2 -26 5l-8 120h-211l-60 -120q-13 -3 -30 -5q-14 -2 -34 -3t-44 -1zM394 560q-8 -27 -19 -60l-23.5 -64t-33.5 -74l-45 -90h129l-5 92q-3 43 -2.5 79t2.5 62q2 31 6 55h-9z" />
    <glyph glyph-name="Adieresis" unicode="&#xc4;" horiz-adv-x="692" 
d="M270 904q11 1 24 3q11 2 27.5 3t38.5 1q21 0 37 -1t27 -3q12 -2 22 -3l-31 -148q-11 -2 -24 -4q-24 -3 -66 -3q-43 0 -64 3q-13 2 -22 4zM495 904q11 1 24 3q11 2 27.5 3t38.5 1q21 0 37 -1t27 -3q12 -2 22 -3l-31 -148q-11 -2 -24 -4q-24 -3 -66 -3q-43 0 -64 3
q-13 2 -22 4zM34 0q-25 0 -43.5 1t-31.5 3q-15 2 -27 5l358 702q16 2 37 4q18 2 45 3.5t63 1.5q37 0 64 -1.5t44 -3.5q20 -2 33 -4l58 -702q-12 -3 -29 -5q-14 -2 -34.5 -3t-47.5 -1q-26 0 -44.5 1t-31.5 3q-15 2 -26 5l-8 120h-211l-60 -120q-13 -3 -30 -5q-14 -2 -34 -3
t-44 -1zM394 560q-8 -27 -19 -60l-23.5 -64t-33.5 -74l-45 -90h129l-5 92q-3 43 -2.5 79t2.5 62q2 31 6 55h-9z" />
    <glyph glyph-name="Agrave" unicode="&#xc0;" horiz-adv-x="692" 
d="M559 804q-23 -23 -57 -36.5t-69 -18.5l-125 157q13 16 35 29.5t47 22t52 12.5t51 1zM34 0q-25 0 -43.5 1t-31.5 3q-15 2 -27 5l358 702q16 2 37 4q18 2 45 3.5t63 1.5q37 0 64 -1.5t44 -3.5q20 -2 33 -4l58 -702q-12 -3 -29 -5q-14 -2 -34.5 -3t-47.5 -1q-26 0 -44.5 1
t-31.5 3q-15 2 -26 5l-8 120h-211l-60 -120q-13 -3 -30 -5q-14 -2 -34 -3t-44 -1zM394 560q-8 -27 -19 -60l-23.5 -64t-33.5 -74l-45 -90h129l-5 92q-3 43 -2.5 79t2.5 62q2 31 6 55h-9z" />
    <glyph glyph-name="Amacron" unicode="&#x100;" horiz-adv-x="692" 
d="M627 884q1 -12 -1 -28t-5.5 -33t-8.5 -33.5t-11 -28.5h-323q0 13 1.5 29.5t5.5 33.5t8.5 32.5t10.5 27.5h323zM34 0q-25 0 -43.5 1t-31.5 3q-15 2 -27 5l358 702q16 2 37 4q18 2 45 3.5t63 1.5q37 0 64 -1.5t44 -3.5q20 -2 33 -4l58 -702q-12 -3 -29 -5q-14 -2 -34.5 -3
t-47.5 -1q-26 0 -44.5 1t-31.5 3q-15 2 -26 5l-8 120h-211l-60 -120q-13 -3 -30 -5q-14 -2 -34 -3t-44 -1zM394 560q-8 -27 -19 -60l-23.5 -64t-33.5 -74l-45 -90h129l-5 92q-3 43 -2.5 79t2.5 62q2 31 6 55h-9z" />
    <glyph glyph-name="Aogonek" unicode="&#x104;" horiz-adv-x="692" 
d="M34 0q-25 0 -43.5 1t-31.5 3q-15 2 -27 5l358 702q16 2 37 4q18 2 45 3.5t63 1.5q37 0 64 -1.5t44 -3.5q20 -2 33 -4l58 -702q-24 -14 -43 -31.5t-32 -34t-20 -31t-7 -23.5q0 -13 13 -18t34 5q5 -6 8.5 -17.5t4.5 -26t0 -29.5t-5 -27q-23 -13 -56 -21t-65 -7
q-37 2 -61 19.5t-28 58.5q-2 24 7 48.5t25 47.5t37 43t42 35q-17 1 -29.5 2.5t-20.5 3.5q-10 2 -17 3l-8 120h-211l-60 -120q-13 -3 -30 -5q-14 -2 -34 -3t-44 -1zM394 560q-8 -27 -19 -60l-23.5 -64t-33.5 -74l-45 -90h129l-5 92q-3 43 -2.5 79t2.5 62q2 31 6 55h-9z" />
    <glyph glyph-name="Aring" unicode="&#xc5;" horiz-adv-x="696" 
d="M640 9q-13 -3 -31 -5q-15 -2 -36 -3t-48 -1q-26 0 -45 1t-32 3q-15 2 -26 5l-9 120h-211l-59 -120q-12 -3 -29 -5q-14 -2 -34 -3t-44 -1q-25 0 -44 1t-33 3q-16 2 -28 5l360 678q-14 18 -17.5 41t1.5 49q9 40 30 70t49.5 50t62 30.5t67.5 10.5q33 0 62.5 -10t50 -30.5
t29.5 -50.5t0 -70q-6 -27 -20.5 -51.5t-34.5 -40.5zM493 777q4 16 -4 28.5t-31 12.5q-22 0 -35.5 -13t-16.5 -28q-3 -16 4.5 -29t29.5 -13q23 0 36.5 13.5t16.5 28.5zM394 560q-8 -27 -19 -60l-23.5 -64t-33.5 -74l-45 -90h129l-5 92q-3 43 -2.5 79t2.5 62q2 31 6 55h-9z
" />
    <glyph glyph-name="Aringacute" unicode="&#x1fa;" horiz-adv-x="698" 
d="M520 961q-31 4 -57.5 14t-40.5 27l121 124q23 2 47 -1t44.5 -9.5t36.5 -16t23 -21.5zM642 9q-13 -3 -31 -5q-15 -2 -36.5 -3t-48.5 -1q-26 0 -45 1t-32 3q-15 2 -26 5l-9 120h-211l-59 -120q-12 -3 -29 -5q-14 -2 -34 -3t-44 -1q-25 0 -44 1t-33 3q-16 2 -29 5l358 674
q-29 38 -17 94q9 40 30 70t49.5 50t62 30.5t67.5 10.5q33 0 62.5 -10t50 -30.5t29.5 -50.5t0 -70q-11 -53 -52 -87zM490 777q4 16 -4 28.5t-31 12.5q-22 0 -35.5 -13t-16.5 -28q-3 -16 4.5 -29t29.5 -13q23 0 36.5 13.5t16.5 28.5zM394 560q-8 -27 -19 -60l-23.5 -64
t-33.5 -74l-45 -90h129l-5 92q-3 43 -2.5 79t2.5 62q2 31 6 55h-9z" />
    <glyph glyph-name="Atilde" unicode="&#xc3;" horiz-adv-x="692" 
d="M244 818q10 19 25.5 37.5t35 32t42 22t46.5 8.5q27 0 44 -6.5t32 -15t30.5 -15t38.5 -6.5q14 0 25 4.5t19 9.5q10 6 17 14q26 -11 43 -30t25 -41q-26 -33 -61 -58t-82 -25q-27 0 -44 6t-32 13t-31 13t-39 6q-14 0 -26 -5t-21 -11q-11 -7 -19 -16q-53 16 -68 63zM34 0
q-25 0 -43.5 1t-31.5 3q-15 2 -27 5l358 702q16 2 37 4q18 2 45 3.5t63 1.5q37 0 64 -1.5t44 -3.5q20 -2 33 -4l58 -702q-12 -3 -29 -5q-14 -2 -34.5 -3t-47.5 -1q-26 0 -44.5 1t-31.5 3q-15 2 -26 5l-8 120h-211l-60 -120q-13 -3 -30 -5q-14 -2 -34 -3t-44 -1zM394 560
q-8 -27 -19 -60l-23.5 -64t-33.5 -74l-45 -90h129l-5 92q-3 43 -2.5 79t2.5 62q2 31 6 55h-9z" />
    <glyph glyph-name="B" unicode="B" horiz-adv-x="636" 
d="M452 720q113 0 161.5 -48.5t27.5 -148.5q-12 -56 -43 -93t-74 -59q43 -21 63.5 -61.5t6.5 -104.5q-24 -112 -98 -158.5t-193 -46.5h-320l153 720h316zM356 441q26 0 44 16t26 50q8 35 -4 50t-38 15h-62l-28 -131h62zM295 148q32 0 54 15t30 55q9 41 -6.5 55t-47.5 14h-64
l-30 -139h64z" />
    <glyph glyph-name="C" unicode="C" horiz-adv-x="575" 
d="M38 379q39 183 144 269.5t267 86.5q51 0 87.5 -7.5t60.5 -15.5q28 -10 46 -22q-9 -41 -31 -77t-60 -62q-13 5 -30 9q-14 4 -33 7t-41 3q-36 0 -64.5 -10.5t-50.5 -35t-38.5 -65t-29.5 -100.5t-13.5 -100t11.5 -64.5t36 -34.5t60 -10q23 0 44.5 3t38.5 8q19 4 37 11
q26 -24 34.5 -62t-1.5 -80q-22 -13 -55 -23q-28 -8 -69.5 -15t-97.5 -7q-81 0 -137.5 27t-88.5 78t-38.5 124t12.5 165z" />
    <glyph glyph-name="nonmarkingreturn" horiz-adv-x="322" 
 />
    <glyph glyph-name="Cacute" unicode="&#x106;" horiz-adv-x="575" 
d="M422 749q-32 5 -60.5 18.5t-41.5 36.5l136 167q25 3 50.5 -1t47.5 -12.5t38 -22t23 -29.5zM38 379q39 183 144 269.5t267 86.5q51 0 87.5 -7.5t60.5 -15.5q28 -10 46 -22q-9 -41 -31 -77t-60 -62q-13 5 -30 9q-14 4 -33 7t-41 3q-36 0 -64.5 -10.5t-50.5 -35t-38.5 -65
t-29.5 -100.5t-13.5 -100t11.5 -64.5t36 -34.5t60 -10q23 0 44.5 3t38.5 8q19 4 37 11q26 -24 34.5 -62t-1.5 -80q-22 -13 -55 -23q-28 -8 -69.5 -15t-97.5 -7q-81 0 -137.5 27t-88.5 78t-38.5 124t12.5 165z" />
    <glyph glyph-name="Ccaron" unicode="&#x10c;" horiz-adv-x="575" 
d="M271 907q20 29 47 53.5t59 38.5l106 -74l135 73q26 -14 43.5 -38t24.5 -53l-201 -146h-55zM38 379q39 183 144 269.5t267 86.5q51 0 87.5 -7.5t60.5 -15.5q28 -10 46 -22q-9 -41 -31 -77t-60 -62q-13 5 -30 9q-14 4 -33 7t-41 3q-36 0 -64.5 -10.5t-50.5 -35t-38.5 -65
t-29.5 -100.5t-13.5 -100t11.5 -64.5t36 -34.5t60 -10q23 0 44.5 3t38.5 8q19 4 37 11q26 -24 34.5 -62t-1.5 -80q-22 -13 -55 -23q-28 -8 -69.5 -15t-97.5 -7q-81 0 -137.5 27t-88.5 78t-38.5 124t12.5 165z" />
    <glyph glyph-name="Ccedilla" unicode="&#xc7;" horiz-adv-x="575" 
d="M187 -121l-10 16l44 96q-124 22 -170.5 123.5t-12.5 264.5q39 183 144 269.5t267 86.5q51 0 87.5 -7.5t60.5 -15.5q28 -10 46 -22q-9 -41 -31 -77t-60 -62q-13 5 -30 9q-14 4 -33 7t-41 3q-36 0 -64.5 -10.5t-50.5 -35t-38.5 -65t-29.5 -100.5t-13.5 -100t11.5 -64.5
t36 -34.5t60 -10q23 0 44.5 3t38.5 8q19 4 37 11q26 -24 34.5 -62t-1.5 -80q-20 -11 -48 -20q-24 -8 -60 -15t-84 -9l-13 -35q50 -5 67.5 -32t9.5 -70q-6 -28 -21.5 -48t-38 -33t-51 -19t-59.5 -6q-30 0 -52.5 3.5t-38.5 8.5q-18 5 -32 12q1 8 5 18.5t9.5 21.5t12.5 20
t14 14q10 -4 28.5 -9.5t37.5 -6.5t34.5 4.5t18.5 23.5q2 11 -4 18.5t-18 7.5h-42z" />
    <glyph glyph-name="Ccircumflex" unicode="&#x108;" horiz-adv-x="575" 
d="M684 841q-20 -29 -47.5 -53.5t-59.5 -38.5l-105 74l-136 -73q-26 14 -43.5 38t-23.5 53l202 154h55zM38 379q39 183 144 269.5t267 86.5q51 0 87.5 -7.5t60.5 -15.5q28 -10 46 -22q-9 -41 -31 -77t-60 -62q-13 5 -30 9q-14 4 -33 7t-41 3q-36 0 -64.5 -10.5t-50.5 -35
t-38.5 -65t-29.5 -100.5t-13.5 -100t11.5 -64.5t36 -34.5t60 -10q23 0 44.5 3t38.5 8q19 4 37 11q26 -24 34.5 -62t-1.5 -80q-22 -13 -55 -23q-28 -8 -69.5 -15t-97.5 -7q-81 0 -137.5 27t-88.5 78t-38.5 124t12.5 165z" />
    <glyph glyph-name="Cdotaccent" unicode="&#x10a;" horiz-adv-x="575" 
d="M545 777q-11 -2 -25 -4q-12 -2 -30 -3t-40 -1q-23 0 -40 1t-28 3q-13 2 -23 4l37 174q11 1 25 3q12 2 29.5 3t40.5 1q22 0 39.5 -1t28.5 -3q13 -2 23 -3zM38 379q39 183 144 269.5t267 86.5q51 0 87.5 -7.5t60.5 -15.5q28 -10 46 -22q-9 -41 -31 -77t-60 -62q-13 5 -30 9
q-14 4 -33 7t-41 3q-36 0 -64.5 -10.5t-50.5 -35t-38.5 -65t-29.5 -100.5t-13.5 -100t11.5 -64.5t36 -34.5t60 -10q23 0 44.5 3t38.5 8q19 4 37 11q26 -24 34.5 -62t-1.5 -80q-22 -13 -55 -23q-28 -8 -69.5 -15t-97.5 -7q-81 0 -137.5 27t-88.5 78t-38.5 124t12.5 165z" />
    <glyph glyph-name="D" unicode="D" horiz-adv-x="668" 
d="M406 720q166 0 227 -90t19 -284q-21 -97 -54.5 -163.5t-82.5 -107t-114 -58t-148 -17.5h-270l153 720h270zM287 161q29 0 50.5 8.5t38.5 30.5t30.5 61t26.5 99q13 61 16 99.5t-4.5 60.5t-25.5 30.5t-47 8.5h-52l-85 -398h52z" />
    <glyph glyph-name="Dcaron" unicode="&#x10e;" horiz-adv-x="668" 
d="M234 907q20 29 47 53.5t59 38.5l106 -74l135 73q26 -14 43.5 -38t24.5 -53l-200 -148h-55zM406 720q166 0 227 -90t19 -284q-21 -97 -54.5 -163.5t-82.5 -107t-114 -58t-148 -17.5h-270l153 720h270zM287 161q29 0 50.5 8.5t38.5 30.5t30.5 61t26.5 99q13 61 16 99.5
t-4.5 60.5t-25.5 30.5t-47 8.5h-52l-85 -398h52z" />
    <glyph glyph-name="Dcroat" unicode="&#x110;" horiz-adv-x="686" 
d="M421 720q166 0 228.5 -88.5t20.5 -282.5q-21 -97 -55 -163.5t-83.5 -108t-115 -59.5t-148.5 -18h-270l61 288h-55q0 13 2 31.5t6 38t9.5 37t11.5 29.5h55l63 296h270zM306 424h70q1 -12 -1 -30.5t-6.5 -37.5t-10 -37.5t-11.5 -30.5h-70l-27 -127h52q29 0 50.5 8.5
t38.5 30.5t30.5 61t26.5 99q13 61 16 99.5t-4.5 60.5t-25.5 30.5t-47 8.5h-52z" />
    <glyph glyph-name="Delta" unicode="&#x2206;" horiz-adv-x="721" 
d="M355 712q40 8 95 8q27 0 52 -2t43 -6l117 -600q-35 -69 -94 -112h-544q-51 46 -46 111zM392 475l-35.5 -72.5t-41.5 -73.5l-110 -176h238l-33 177q-6 34 -9 73t-5 72h-4z" />
    <glyph glyph-name="E" unicode="E" horiz-adv-x="568" 
d="M619 720q2 -11 0.5 -31.5t-6.5 -44.5q-5 -26 -12.5 -47.5t-15.5 -34.5h-265l-25 -121h215q1 -14 0 -31t-6 -45q-7 -29 -13 -46.5t-14 -31.5h-215l-27 -129h275q2 -14 0 -34.5t-7 -43.5q-5 -24 -12 -45t-15 -35h-493l153 720h483z" />
    <glyph glyph-name="Eacute" unicode="&#xc9;" horiz-adv-x="568" 
d="M380 749q-32 5 -60.5 18.5t-41.5 36.5l136 167q25 3 50.5 -1t47.5 -12.5t38 -22t23 -29.5zM619 720q2 -11 0.5 -31.5t-6.5 -44.5q-5 -26 -12.5 -47.5t-15.5 -34.5h-265l-25 -121h215q1 -14 0 -31t-6 -45q-7 -29 -13 -46.5t-14 -31.5h-215l-27 -129h275q2 -14 0 -34.5
t-7 -43.5q-5 -24 -12 -45t-15 -35h-493l153 720h483z" />
    <glyph glyph-name="Ebreve" unicode="&#x114;" horiz-adv-x="568" 
d="M594 852q-22 -24 -53 -42q-26 -16 -65.5 -28.5t-92.5 -12.5t-87 12.5t-54 28.5q-24 18 -35 42q17 26 43.5 48.5t60.5 35.5q10 -8 25 -13q13 -5 32 -9t45 -4t47 4t36 9q18 5 31 13q27 -13 45 -35.5t22 -48.5zM619 720q2 -11 0.5 -31.5t-6.5 -44.5q-5 -26 -12.5 -47.5
t-15.5 -34.5h-265l-25 -121h215q1 -14 0 -31t-6 -45q-7 -29 -13 -46.5t-14 -31.5h-215l-27 -129h275q2 -14 0 -34.5t-7 -43.5q-5 -24 -12 -45t-15 -35h-493l153 720h483z" />
    <glyph glyph-name="Ecaron" unicode="&#x11a;" horiz-adv-x="568" 
d="M209 907q20 29 47 53.5t59 38.5l106 -74l135 73q26 -14 43.5 -38t24.5 -53l-213 -158h-55zM619 720q2 -11 0.5 -31.5t-6.5 -44.5q-5 -26 -12.5 -47.5t-15.5 -34.5h-265l-25 -121h215q1 -14 0 -31t-6 -45q-7 -29 -13 -46.5t-14 -31.5h-215l-27 -129h275q2 -14 0 -34.5
t-7 -43.5q-5 -24 -12 -45t-15 -35h-493l153 720h483z" />
    <glyph glyph-name="Ecircumflex" unicode="&#xca;" horiz-adv-x="568" 
d="M614 841q-20 -29 -47.5 -53.5t-59.5 -38.5l-105 74l-136 -73q-26 14 -43.5 38t-23.5 53l212 158h55zM619 720q2 -11 0.5 -31.5t-6.5 -44.5q-5 -26 -12.5 -47.5t-15.5 -34.5h-265l-25 -121h215q1 -14 0 -31t-6 -45q-7 -29 -13 -46.5t-14 -31.5h-215l-27 -129h275
q2 -14 0 -34.5t-7 -43.5q-5 -24 -12 -45t-15 -35h-493l153 720h483z" />
    <glyph glyph-name="Edieresis" unicode="&#xcb;" horiz-adv-x="568" 
d="M357 756q-11 -2 -24 -4q-24 -3 -66 -3q-43 0 -64 3q-13 2 -22 4l31 148q11 1 24 3q11 2 27.5 3t38.5 1q21 0 37 -1t27 -3q12 -2 22 -3zM582 756q-11 -2 -24 -4q-24 -3 -66 -3q-43 0 -64 3q-13 2 -22 4l31 148q11 1 24 3q11 2 27.5 3t38.5 1q21 0 37 -1t27 -3q12 -2 22 -3
zM619 720q2 -11 0.5 -31.5t-6.5 -44.5q-5 -26 -12.5 -47.5t-15.5 -34.5h-265l-25 -121h215q1 -14 0 -31t-6 -45q-7 -29 -13 -46.5t-14 -31.5h-215l-27 -129h275q2 -14 0 -34.5t-7 -43.5q-5 -24 -12 -45t-15 -35h-493l153 720h483z" />
    <glyph glyph-name="Edotaccent" unicode="&#x116;" horiz-adv-x="568" 
d="M473 777q-11 -2 -25 -4q-12 -2 -30 -3t-40 -1q-23 0 -40 1t-28 3q-13 2 -23 4l37 174q11 1 25 3q12 2 29.5 3t40.5 1q22 0 39.5 -1t28.5 -3q13 -2 23 -3zM619 720q2 -11 0.5 -31.5t-6.5 -44.5q-5 -26 -12.5 -47.5t-15.5 -34.5h-265l-25 -121h215q1 -14 0 -31t-6 -45
q-7 -29 -13 -46.5t-14 -31.5h-215l-27 -129h275q2 -14 0 -34.5t-7 -43.5q-5 -24 -12 -45t-15 -35h-493l153 720h483z" />
    <glyph glyph-name="Egrave" unicode="&#xc8;" horiz-adv-x="568" 
d="M229 906q13 16 35 29.5t47 22t52 12.5t51 1l66 -167q-23 -23 -57 -36.5t-69 -18.5zM619 720q2 -11 0.5 -31.5t-6.5 -44.5q-5 -26 -12.5 -47.5t-15.5 -34.5h-265l-25 -121h215q1 -14 0 -31t-6 -45q-7 -29 -13 -46.5t-14 -31.5h-215l-27 -129h275q2 -14 0 -34.5t-7 -43.5
q-5 -24 -12 -45t-15 -35h-493l153 720h483z" />
    <glyph glyph-name="Emacron" unicode="&#x112;" horiz-adv-x="568" 
d="M217 761q0 13 1.5 29.5t5.5 33.5t8.5 32.5t10.5 27.5h323q1 -12 -1 -28t-5.5 -33t-8.5 -33.5t-11 -28.5h-323zM619 720q2 -11 0.5 -31.5t-6.5 -44.5q-5 -26 -12.5 -47.5t-15.5 -34.5h-265l-25 -121h215q1 -14 0 -31t-6 -45q-7 -29 -13 -46.5t-14 -31.5h-215l-27 -129h275
q2 -14 0 -34.5t-7 -43.5q-5 -24 -12 -45t-15 -35h-493l153 720h483z" />
    <glyph glyph-name="Eng" unicode="&#x14a;" horiz-adv-x="706" 
d="M464 174l12 79.5l11.5 78.5t11 71t10.5 58l54 250q13 2 28 4q13 2 30 3.5t37 1.5q21 0 37.5 -1.5t27.5 -3.5q13 -2 22 -4l-160 -749q-10 -46 -25 -80.5t-38 -60.5t-56 -44t-78 -30q-28 17 -38 46.5t-4 65.5q12 5 20 12.5t14.5 19.5t12 29.5t10.5 41.5l8 38q-26 1 -45 2
t-33 3q-16 2 -27 4l-30 253q-4 36 -6 78t-2.5 79.5t0 66.5t1.5 39h-11q0 -1 -1.5 -15l-4 -36.5t-6.5 -50.5l-8 -57l-8 -55.5t-8 -45.5l-55 -256q-11 -3 -25 -5q-12 -2 -29.5 -3t-40.5 -1t-39 1t-27 3q-12 2 -21 5l150 702q15 2 37 4q19 2 46.5 3.5t65.5 1.5t64 -1.5t43 -3.5
q19 -2 33 -4l25 -247q9 -85 8 -157.5t-3 -132.5h10z" />
    <glyph glyph-name="Eogonek" unicode="&#x118;" horiz-adv-x="568" 
d="M619 720q2 -11 0.5 -31.5t-6.5 -44.5q-5 -26 -12.5 -47.5t-15.5 -34.5h-265l-25 -121h215q1 -14 0 -31t-6 -45q-7 -29 -13 -46.5t-14 -31.5h-215l-27 -129h275q2 -14 0 -34.5t-7 -43.5q-5 -24 -12 -45t-15 -35q-45 -29 -71 -61t-25 -50q0 -13 13 -18t34 5q5 -6 8.5 -17.5
t4.5 -26t0 -29.5t-5 -27q-23 -13 -56 -21t-65 -7q-37 2 -61 19.5t-28 58.5q-2 25 7.5 49t26.5 46.5t38.5 42.5t42.5 36h-357l153 720h483z" />
    <glyph glyph-name="Eth" unicode="&#xd0;" horiz-adv-x="688" 
d="M420 720q166 0 230 -89.5t22 -283.5q-21 -97 -55.5 -163.5t-84.5 -107t-116 -58.5t-149 -18h-270l61 288h-54q0 13 2 31.5t6 38t9.5 37t11.5 29.5h54l63 296h270zM305 424h70q1 -12 -1 -30.5t-6.5 -37.5t-10 -37.5t-11.5 -30.5h-70l-27 -127h52q29 0 50.5 8.5t38.5 30.5
t30.5 61t26.5 99q13 61 16 99.5t-4.5 60.5t-25.5 30.5t-47 8.5h-52z" />
    <glyph glyph-name="Euro" unicode="&#x20ac;" horiz-adv-x="613" 
d="M144 474q49 102 131.5 154t197.5 52q45 0 78 -7t56 -15q26 -10 44 -21q-4 -18 -12.5 -37t-20.5 -36t-26 -31t-29 -23q-13 5 -29 9q-14 4 -32 7t-38 3q-36 0 -63.5 -12t-47.5 -43h193q-1 -25 -12.5 -59.5t-26.5 -57.5h-199q-2 -6 -3 -11.5t-3 -11.5q-3 -11 -3 -20h172
q-1 -25 -12.5 -59.5t-26.5 -57.5h-138q8 -31 29.5 -42.5t58.5 -11.5q20 0 40.5 2.5t37.5 6.5q20 4 39 10q23 -22 31.5 -59t1.5 -70q-24 -12 -56 -22q-27 -8 -64.5 -14.5t-84.5 -6.5q-116 0 -176.5 52t-65.5 155h-81q1 25 12 59.5t27 57.5h51l4 21l5 22h-65q1 25 12 59.5
t27 57.5h67v0z" />
    <glyph glyph-name="F" unicode="F" horiz-adv-x="551" 
d="M203 9q-14 -3 -32 -5q-15 -2 -36 -3t-44 -1t-42.5 1t-33.5 3q-17 2 -30 5l151 711h473q2 -12 0.5 -32t-7.5 -46q-11 -52 -27 -80h-255l-28 -133h225q2 -11 0.5 -31.5t-6.5 -46.5q-12 -54 -27 -80h-225z" />
    <glyph glyph-name="G" unicode="G" horiz-adv-x="646" 
d="M39 383q39 181 147.5 264t279.5 83q52 0 92.5 -8t67.5 -17q32 -11 55 -24q-11 -43 -33.5 -79t-55.5 -65q-19 8 -41 15q-19 5 -43.5 10t-52.5 5q-36 0 -67 -10.5t-56 -34.5t-44 -64t-32 -99q-12 -59 -13 -98t11 -62.5t37.5 -33.5t66.5 -10h22l26 125h-82q-1 9 -1 20
q0 10 1 24t6 34q4 20 8.5 35t9.5 25q5 11 10 20h281l-85 -399q-27 -14 -64 -25q-32 -9 -77 -16.5t-104 -7.5q-86 0 -146 27.5t-94 78.5t-41.5 124t11.5 163z" />
    <glyph glyph-name="Gbreve" unicode="&#x11e;" horiz-adv-x="646" 
d="M681 845q-22 -21 -53 -38q-26 -14 -65 -26t-92 -12t-87 12.5t-54 28.5q-24 18 -35 42q17 26 38.5 48.5t55.5 35.5q10 -9 25 -15q13 -5 32 -9.5t45 -4.5t47 4.5t36 9.5q18 6 31 15q27 -13 49.5 -39t26.5 -52zM39 383q39 181 147.5 264t279.5 83q52 0 92.5 -8t67.5 -17
q32 -11 55 -24q-11 -43 -33.5 -79t-55.5 -65q-19 8 -41 15q-19 5 -43.5 10t-52.5 5q-36 0 -67 -10.5t-56 -34.5t-44 -64t-32 -99q-12 -59 -13 -98t11 -62.5t37.5 -33.5t66.5 -10h22l26 125h-82q-1 9 -1 20q0 10 1 24t6 34q4 20 8.5 35t9.5 25q5 11 10 20h281l-85 -399
q-27 -14 -64 -25q-32 -9 -77 -16.5t-104 -7.5q-86 0 -146 27.5t-94 78.5t-41.5 124t11.5 163z" />
    <glyph glyph-name="Gcircumflex" unicode="&#x11c;" horiz-adv-x="646" 
d="M695 841q-20 -29 -47.5 -53.5t-59.5 -38.5l-105 74l-136 -73q-26 14 -43.5 38t-23.5 53l204 142h55zM39 383q39 181 147.5 264t279.5 83q52 0 92.5 -8t67.5 -17q32 -11 55 -24q-11 -43 -33.5 -79t-55.5 -65q-19 8 -41 15q-19 5 -43.5 10t-52.5 5q-36 0 -67 -10.5
t-56 -34.5t-44 -64t-32 -99q-12 -59 -13 -98t11 -62.5t37.5 -33.5t66.5 -10h22l26 125h-82q-1 9 -1 20q0 10 1 24t6 34q4 20 8.5 35t9.5 25q5 11 10 20h281l-85 -399q-27 -14 -64 -25q-32 -9 -77 -16.5t-104 -7.5q-86 0 -146 27.5t-94 78.5t-41.5 124t11.5 163z" />
    <glyph glyph-name="Gcommaaccent" unicode="&#x122;" horiz-adv-x="646" 
d="M164 -348q13 13 25 30q11 14 21.5 34t17.5 45q-14 1 -26.5 1.5t-22.5 2.5q-11 1 -22 3l39 183q12 2 29 4q14 2 34.5 3t46.5 1q24 0 44.5 -1t34.5 -3q17 -2 30 -4l-31 -145q-11 -48 -35 -84.5t-50 -62.5q-30 -31 -65 -54zM39 383q39 181 147.5 264t279.5 83q52 0 92.5 -8
t67.5 -17q32 -11 55 -24q-11 -43 -33.5 -79t-55.5 -65q-19 8 -41 15q-19 5 -43.5 10t-52.5 5q-36 0 -67 -10.5t-56 -34.5t-44 -64t-32 -99q-12 -59 -13 -98t11 -62.5t37.5 -33.5t66.5 -10h22l26 125h-82q-1 9 -1 20q0 10 1 24t6 34q4 20 8.5 35t9.5 25q5 11 10 20h281
l-85 -399q-27 -14 -64 -25q-32 -9 -77 -16.5t-104 -7.5q-86 0 -146 27.5t-94 78.5t-41.5 124t11.5 163z" />
    <glyph glyph-name="Gdotaccent" unicode="&#x120;" horiz-adv-x="646" 
d="M566 777q-11 -2 -25 -4q-12 -2 -30 -3t-40 -1q-23 0 -40 1t-28 3q-13 2 -23 4l37 174q11 1 25 3q12 2 29.5 3t40.5 1q22 0 39.5 -1t28.5 -3q13 -2 23 -3zM39 383q39 181 147.5 264t279.5 83q52 0 92.5 -8t67.5 -17q32 -11 55 -24q-11 -43 -33.5 -79t-55.5 -65
q-19 8 -41 15q-19 5 -43.5 10t-52.5 5q-36 0 -67 -10.5t-56 -34.5t-44 -64t-32 -99q-12 -59 -13 -98t11 -62.5t37.5 -33.5t66.5 -10h22l26 125h-82q-1 9 -1 20q0 10 1 24t6 34q4 20 8.5 35t9.5 25q5 11 10 20h281l-85 -399q-27 -14 -64 -25q-32 -9 -77 -16.5t-104 -7.5
q-86 0 -146 27.5t-94 78.5t-41.5 124t11.5 163z" />
    <glyph glyph-name="H" unicode="H" horiz-adv-x="686" 
d="M506 711q14 2 32 4q15 2 35.5 3.5t43.5 1.5t43 -1.5t34 -3.5q17 -2 30 -4l-149 -702q-14 -3 -32 -5q-15 -2 -35 -3t-43 -1q-26 0 -45.5 1t-33.5 3q-17 2 -29 5l59 276h-154l-59 -276q-15 -3 -33 -5q-15 -2 -35 -3t-43 -1q-25 0 -44.5 1t-33.5 3q-17 2 -29 5l149 702
q14 2 32 4q15 2 35 3.5t43 1.5t43.5 -1.5t34.5 -3.5q17 -2 30 -4l-55 -258h154z" />
    <glyph glyph-name="Hbar" unicode="&#x126;" horiz-adv-x="716" 
d="M778 641q1 -12 -0.5 -28.5t-5.5 -34t-9 -34t-11 -28.5h-45l-108 -507q-14 -3 -32 -5q-15 -2 -35 -3t-43 -1q-26 0 -45.5 1t-33.5 3q-17 2 -29 5l59 276h-154l-59 -276q-15 -3 -33 -5q-15 -2 -35 -3t-43 -1q-25 0 -44.5 1t-33.5 3q-17 2 -29 5l108 507h-65q-1 13 1 30
t5.5 34t8.5 33t11 28h65l15 70q14 2 32 4q15 2 35 3.5t43 1.5t43.5 -1.5t34.5 -3.5q17 -2 30 -4l-15 -70h154l15 70q14 2 32 4q15 2 35.5 3.5t43.5 1.5t43 -1.5t34 -3.5q17 -2 30 -4l-15 -70h45zM321 453h154l14 63h-154z" />
    <glyph glyph-name="Hcircumflex" unicode="&#x124;" horiz-adv-x="686" 
d="M671 841q-20 -29 -47.5 -53.5t-59.5 -38.5l-105 74l-136 -73q-26 14 -43.5 38t-23.5 53l212 158h55zM506 711q14 2 32 4q15 2 35.5 3.5t43.5 1.5t43 -1.5t34 -3.5q17 -2 30 -4l-149 -702q-14 -3 -32 -5q-15 -2 -35 -3t-43 -1q-26 0 -45.5 1t-33.5 3q-17 2 -29 5l59 276
h-154l-59 -276q-15 -3 -33 -5q-15 -2 -35 -3t-43 -1q-25 0 -44.5 1t-33.5 3q-17 2 -29 5l149 702q14 2 32 4q15 2 35 3.5t43 1.5t43.5 -1.5t34.5 -3.5q17 -2 30 -4l-55 -258h154z" />
    <glyph glyph-name="I" unicode="I" horiz-adv-x="314" 
d="M134 711q14 2 32 4q15 2 35 3.5t43 1.5t43.5 -1.5t34.5 -3.5q17 -2 30 -4l-149 -702q-15 -3 -33 -5q-15 -2 -35 -3t-43 -1q-25 0 -44.5 1t-33.5 3q-17 2 -29 5z" />
    <glyph glyph-name="IJ" unicode="&#x132;" horiz-adv-x="805" 
d="M134 711q14 2 32 4q15 2 35 3.5t43 1.5t43.5 -1.5t34.5 -3.5q17 -2 30 -4l-149 -702q-15 -3 -33 -5q-15 -2 -35 -3t-43 -1q-25 0 -44.5 1t-33.5 3q-17 2 -29 5zM629 711q13 2 31 4q14 2 34.5 3.5t45.5 1.5q23 0 43 -1.5t34 -3.5q17 -2 30 -4l-108 -510
q-22 -102 -95.5 -156.5t-193.5 -54.5q-50 0 -85.5 6t-58.5 14q-27 9 -44 20q4 18 12 39t19.5 41.5t25.5 39t29 31.5q12 -5 27 -9q12 -4 28.5 -6.5t33.5 -2.5q41 0 62.5 18.5t32.5 70.5z" />
    <glyph glyph-name="Iacute" unicode="&#xcd;" horiz-adv-x="314" 
d="M255 749q-32 5 -60.5 18.5t-41.5 36.5l136 167q25 3 50.5 -1t47.5 -12.5t38 -22t23 -29.5zM134 711q14 2 32 4q15 2 35 3.5t43 1.5t43.5 -1.5t34.5 -3.5q17 -2 30 -4l-149 -702q-15 -3 -33 -5q-15 -2 -35 -3t-43 -1q-25 0 -44.5 1t-33.5 3q-17 2 -29 5z" />
    <glyph glyph-name="Ibreve" unicode="&#x12c;" horiz-adv-x="314" 
d="M463 852q-22 -24 -53 -42q-26 -16 -65.5 -28.5t-92.5 -12.5t-87 12.5t-54 28.5q-24 18 -35 42q17 26 43.5 48.5t60.5 35.5q10 -8 25 -13q13 -5 32 -9t45 -4t47 4t36 9q18 5 31 13q27 -13 45 -35.5t22 -48.5zM134 711q14 2 32 4q15 2 35 3.5t43 1.5t43.5 -1.5t34.5 -3.5
q17 -2 30 -4l-149 -702q-15 -3 -33 -5q-15 -2 -35 -3t-43 -1q-25 0 -44.5 1t-33.5 3q-17 2 -29 5z" />
    <glyph glyph-name="Icircumflex" unicode="&#xce;" horiz-adv-x="314" 
d="M482 841q-20 -29 -47.5 -53.5t-59.5 -38.5l-105 74l-136 -73q-26 14 -43.5 38t-23.5 53l212 158h55zM134 711q14 2 32 4q15 2 35 3.5t43 1.5t43.5 -1.5t34.5 -3.5q17 -2 30 -4l-149 -702q-15 -3 -33 -5q-15 -2 -35 -3t-43 -1q-25 0 -44.5 1t-33.5 3q-17 2 -29 5z" />
    <glyph glyph-name="Idieresis" unicode="&#xcf;" horiz-adv-x="314" 
d="M222 756q-11 -2 -24 -4q-24 -3 -66 -3q-43 0 -64 3q-13 2 -22 4l31 148q11 1 24 3q11 2 27.5 3t38.5 1q21 0 37 -1t27 -3q12 -2 22 -3zM447 756q-11 -2 -24 -4q-24 -3 -66 -3q-43 0 -64 3q-13 2 -22 4l31 148q11 1 24 3q11 2 27.5 3t38.5 1q21 0 37 -1t27 -3q12 -2 22 -3
zM134 711q14 2 32 4q15 2 35 3.5t43 1.5t43.5 -1.5t34.5 -3.5q17 -2 30 -4l-149 -702q-15 -3 -33 -5q-15 -2 -35 -3t-43 -1q-25 0 -44.5 1t-33.5 3q-17 2 -29 5z" />
    <glyph glyph-name="Idotaccent" unicode="&#x130;" horiz-adv-x="314" 
d="M184 918q11 2 27 4q14 2 33 3t45 1q25 0 43.5 -1t31.5 -3q15 -2 26 -4l-37 -174q-12 -2 -28 -4q-14 -2 -33 -3t-44 -1t-43.5 1t-31.5 3q-15 2 -26 4zM134 711q14 2 32 4q15 2 35 3.5t43 1.5t43.5 -1.5t34.5 -3.5q17 -2 30 -4l-149 -702q-15 -3 -33 -5q-15 -2 -35 -3
t-43 -1q-25 0 -44.5 1t-33.5 3q-17 2 -29 5z" />
    <glyph glyph-name="Igrave" unicode="&#xcc;" horiz-adv-x="314" 
d="M124 906q13 16 35 29.5t47 22t52 12.5t51 1l66 -167q-23 -23 -57 -36.5t-69 -18.5zM134 711q14 2 32 4q15 2 35 3.5t43 1.5t43.5 -1.5t34.5 -3.5q17 -2 30 -4l-149 -702q-15 -3 -33 -5q-15 -2 -35 -3t-43 -1q-25 0 -44.5 1t-33.5 3q-17 2 -29 5z" />
    <glyph glyph-name="Imacron" unicode="&#x12a;" horiz-adv-x="314" 
d="M91 749q0 13 2 29.5t5.5 33.5t8.5 32.5t10 27.5h323q1 -12 -1 -28t-5.5 -33t-8.5 -33.5t-11 -28.5h-323zM134 711q14 2 32 4q15 2 35 3.5t43 1.5t43.5 -1.5t34.5 -3.5q17 -2 30 -4l-149 -702q-15 -3 -33 -5q-15 -2 -35 -3t-43 -1q-25 0 -44.5 1t-33.5 3q-17 2 -29 5z" />
    <glyph glyph-name="Iogonek" unicode="&#x12e;" horiz-adv-x="314" 
d="M203 9q-21 -15 -39.5 -32.5t-32 -34t-21 -30.5t-7.5 -23q0 -13 13 -18t34 5q5 -6 8.5 -17.5t4.5 -26t0 -29.5t-5 -27q-23 -13 -56 -21t-65 -7q-37 2 -61 19.5t-28 58.5q-2 24 6.5 48.5t24.5 47t36 42.5t41 36q-17 0 -30 1t-22 3q-11 2 -19 5l149 702q14 2 32 4
q15 2 35 3.5t43 1.5t43.5 -1.5t34.5 -3.5q17 -2 30 -4z" />
    <glyph glyph-name="Itilde" unicode="&#x128;" horiz-adv-x="314" 
d="M346 882q15 0 27 3.5t20 8.5q10 5 16 13q26 -16 35.5 -47t4.5 -62q-15 -14 -33 -25q-16 -9 -37.5 -16.5t-47.5 -7.5t-43.5 5t-32 10.5t-30 10.5t-37.5 5q-14 0 -26 -4t-20 -9q-11 -6 -18 -13q-25 16 -35 45.5t-4 63.5q17 14 36 25q17 9 38 17t44 8q26 0 43 -5t32 -10.5
l30 -10.5t38 -5zM134 711q14 2 32 4q15 2 35 3.5t43 1.5t43.5 -1.5t34.5 -3.5q17 -2 30 -4l-149 -702q-15 -3 -33 -5q-15 -2 -35 -3t-43 -1q-25 0 -44.5 1t-33.5 3q-17 2 -29 5z" />
    <glyph glyph-name="J" unicode="J" horiz-adv-x="492" 
d="M316 711q13 2 31 4q14 2 34.5 3.5t45.5 1.5q23 0 43 -1.5t34 -3.5q17 -2 30 -4l-108 -510q-22 -102 -95.5 -156.5t-193.5 -54.5q-50 0 -85.5 6t-58.5 14q-27 9 -44 20q4 18 12 39t19.5 41.5t25.5 39t29 31.5q12 -5 27 -9q12 -4 28.5 -6.5t33.5 -2.5q41 0 62.5 18.5
t32.5 70.5z" />
    <glyph glyph-name="Jcircumflex" unicode="&#x134;" horiz-adv-x="492" 
d="M664 841q-20 -29 -47.5 -53.5t-59.5 -38.5l-105 74l-136 -73q-26 14 -43.5 38t-23.5 53l212 158h55zM316 711q13 2 31 4q14 2 34.5 3.5t45.5 1.5q23 0 43 -1.5t34 -3.5q17 -2 30 -4l-108 -510q-22 -102 -95.5 -156.5t-193.5 -54.5q-50 0 -85.5 6t-58.5 14q-27 9 -44 20
q4 18 12 39t19.5 41.5t25.5 39t29 31.5q12 -5 27 -9q12 -4 28.5 -6.5t33.5 -2.5q41 0 62.5 18.5t32.5 70.5z" />
    <glyph glyph-name="K" unicode="K" horiz-adv-x="656" 
d="M499 711q22 4 49 6.5t68 2.5q42 0 67 -2.5t48 -6.5l-235 -338l115 -364q-17 -3 -37 -5q-17 -2 -40.5 -3t-49.5 -1q-29 0 -48.5 1t-32.5 3q-15 2 -24 5l-81 289h-34l-61 -289q-11 -3 -28 -5q-14 -2 -35 -3t-48 -1q-26 0 -45.5 1t-33.5 3q-16 2 -28 5l149 702q12 2 30 4
q14 2 35 3.5t47 1.5t45 -1.5t33 -3.5q16 -2 28 -4l-55 -261h26z" />
    <glyph glyph-name="Kcommaaccent" unicode="&#x136;" horiz-adv-x="656" 
d="M138 -367q13 14 25 32q11 15 21 36.5t18 47.5q-14 1 -26.5 2t-21.5 3q-11 2 -20 3l42 195q12 2 28 4q14 2 33 3t43 1q23 0 41.5 -1t32.5 -3q16 -2 28 -4l-33 -155q-11 -51 -35 -90t-49 -67q-29 -33 -63 -58zM499 711q22 4 49 6.5t68 2.5q42 0 67 -2.5t48 -6.5l-235 -338
l115 -364q-17 -3 -37 -5q-17 -2 -40.5 -3t-49.5 -1q-29 0 -48.5 1t-32.5 3q-15 2 -24 5l-81 289h-34l-61 -289q-11 -3 -28 -5q-14 -2 -35 -3t-48 -1q-26 0 -45.5 1t-33.5 3q-16 2 -28 5l149 702q12 2 30 4q14 2 35 3.5t47 1.5t45 -1.5t33 -3.5q16 -2 28 -4l-55 -261h26z" />
    <glyph glyph-name="L" unicode="L" 
d="M134 711q14 2 32 4q15 2 35 3.5t43 1.5t43.5 -1.5t34.5 -3.5q17 -2 30 -4l-116 -545h267q2 -19 0 -40t-7 -43q-5 -21 -12.5 -42t-15.5 -41h-485z" />
    <glyph glyph-name="Lacute" unicode="&#x139;" horiz-adv-x="545" 
d="M235 749q-32 5 -60.5 18.5t-41.5 36.5l136 167q25 3 50.5 -1t47.5 -12.5t38 -22t23 -29.5zM134 711q14 2 32 4q15 2 35 3.5t43 1.5t43.5 -1.5t34.5 -3.5q17 -2 30 -4l-116 -545h267q2 -19 0 -40t-7 -43q-5 -21 -12.5 -42t-15.5 -41h-485z" />
    <glyph glyph-name="Lcaron" unicode="&#x13d;" horiz-adv-x="547" 
d="M432 559q-24 -1 -48.5 10.5t-34.5 28.5q21 18 36.5 34t27 33.5t19.5 37.5t15 46q43 3 82.5 -4.5t59.5 -24.5q-12 -29 -29 -54.5t-37.5 -47t-43.5 -37t-47 -22.5zM134 711q14 2 32 4q15 2 35 3.5t43 1.5t43.5 -1.5t34.5 -3.5q17 -2 30 -4l-116 -545h267q2 -19 0 -40
t-7 -43q-5 -21 -12.5 -42t-15.5 -41h-485z" />
    <glyph glyph-name="Lcommaaccent" unicode="&#x13b;" 
d="M134 711q14 2 32 4q15 2 35 3.5t43 1.5t43.5 -1.5t34.5 -3.5q17 -2 30 -4l-116 -545h267q2 -19 0 -40t-7 -43q-5 -21 -12.5 -42t-15.5 -41h-485zM70 -367q13 14 25 32q11 15 21 36.5t18 47.5q-14 1 -26.5 2t-21.5 3q-11 2 -20 3l42 195q12 2 28 4q14 2 33 3t43 1
q23 0 41.5 -1t32.5 -3q16 -2 28 -4l-33 -155q-11 -51 -35 -90t-49 -67q-29 -33 -63 -58z" />
    <glyph glyph-name="Ldot" unicode="&#x13f;" horiz-adv-x="559" 
d="M134 711q14 2 32 4q15 2 35 3.5t43 1.5t43.5 -1.5t34.5 -3.5q17 -2 30 -4l-116 -545h267q2 -19 0 -40t-7 -43q-5 -21 -12.5 -42t-15.5 -41h-485zM501 248q-11 -2 -25 -4q-12 -2 -29.5 -3t-40.5 -1t-40 1t-28 3q-13 2 -23 4l37 174q10 2 24 4q12 2 29.5 3t40.5 1t39.5 -1
t28.5 -3q13 -2 24 -4z" />
    <glyph glyph-name="Lslash" unicode="&#x141;" horiz-adv-x="583" 
d="M171 711q14 2 32 4q15 2 35 3.5t43 1.5t43.5 -1.5t34.5 -3.5q17 -2 30 -4l-42 -196l90 46q15 -23 25 -47.5t13 -53.5l-156 -80l-46 -214h267q2 -19 0 -40t-7 -43q-5 -21 -12.5 -42t-15.5 -41h-485l54 255l-55 -28q-16 22 -24.5 47t-13.5 53l122 62l68 322v0z" />
    <glyph glyph-name="M" unicode="M" horiz-adv-x="832" 
d="M249 507q0 -15 -2.5 -50.5t-7 -79.5t-11 -91t-14.5 -85l-41 -192q-11 -3 -25 -5q-12 -2 -29.5 -3t-38.5 -1q-23 0 -40.5 1t-29.5 3q-14 2 -25 5l150 702q57 9 133 9q33 0 56.5 -1.5t39.5 -3.5q18 -2 31 -4l20 -205q2 -18 2 -45.5t-0.5 -56.5t-2.5 -55t-4 -39h5
q3 13 11.5 37l19 51.5t22.5 55.5t24 49l112 208q14 2 32 4q16 2 40 3.5t56 1.5q36 0 70 -2t69 -7l-150 -702q-12 -3 -27 -5q-14 -2 -32.5 -3t-42.5 -1q-25 0 -43.5 1t-31.5 3q-15 2 -26 5l41 192q7 33 20.5 78.5l27.5 91t27 83t19 53.5h-10q-3 -8 -12.5 -31.5t-23.5 -54.5
l-30 -64.5t-31 -61.5l-88 -166q-9 -3 -22 -5q-11 -2 -28 -3.5t-41 -1.5q-25 0 -41 1.5t-27 3.5q-12 2 -19 5l-16 159q-2 19 -3 52t-1.5 66.5t-0.5 61.5v39h-10z" />
    <glyph glyph-name="N" unicode="N" horiz-adv-x="706" 
d="M464 174l12 79.5l11.5 78.5t11 71t10.5 58l54 250q13 2 28 4q13 2 30 3.5t37 1.5q21 0 37.5 -1.5t27.5 -3.5q13 -2 22 -4l-150 -702q-14 -3 -35 -5q-18 -2 -45 -3t-65 -1q-35 0 -62 1t-45 3q-22 2 -37 5l-30 253q-4 36 -6 78t-2.5 79.5t0 66.5t1.5 39h-11q0 -1 -1.5 -15
l-4 -36.5t-6.5 -50.5l-8 -57l-8 -55.5t-8 -45.5l-55 -256q-11 -3 -25 -5q-12 -2 -29.5 -3t-40.5 -1t-39 1t-27 3q-12 2 -21 5l150 702q15 2 37 4q19 2 46.5 3.5t65.5 1.5t64 -1.5t43 -3.5q19 -2 33 -4l25 -247q9 -85 8 -157.5t-3 -132.5h10z" />
    <glyph glyph-name="Nacute" unicode="&#x143;" horiz-adv-x="706" 
d="M441 749q-32 5 -60.5 18.5t-41.5 36.5l136 167q25 3 50.5 -1t47.5 -12.5t38 -22t23 -29.5zM464 174l12 79.5l11.5 78.5t11 71t10.5 58l54 250q13 2 28 4q13 2 30 3.5t37 1.5q21 0 37.5 -1.5t27.5 -3.5q13 -2 22 -4l-150 -702q-14 -3 -35 -5q-18 -2 -45 -3t-65 -1
q-35 0 -62 1t-45 3q-22 2 -37 5l-30 253q-4 36 -6 78t-2.5 79.5t0 66.5t1.5 39h-11q0 -1 -1.5 -15l-4 -36.5t-6.5 -50.5l-8 -57l-8 -55.5t-8 -45.5l-55 -256q-11 -3 -25 -5q-12 -2 -29.5 -3t-40.5 -1t-39 1t-27 3q-12 2 -21 5l150 702q15 2 37 4q19 2 46.5 3.5t65.5 1.5
t64 -1.5t43 -3.5q19 -2 33 -4l25 -247q9 -85 8 -157.5t-3 -132.5h10z" />
    <glyph glyph-name="Ncaron" unicode="&#x147;" horiz-adv-x="706" 
d="M290 907q20 29 47 53.5t59 38.5l106 -74l135 73q26 -14 43.5 -38t24.5 -53l-213 -158h-55zM464 174l12 79.5l11.5 78.5t11 71t10.5 58l54 250q13 2 28 4q13 2 30 3.5t37 1.5q21 0 37.5 -1.5t27.5 -3.5q13 -2 22 -4l-150 -702q-14 -3 -35 -5q-18 -2 -45 -3t-65 -1
q-35 0 -62 1t-45 3q-22 2 -37 5l-30 253q-4 36 -6 78t-2.5 79.5t0 66.5t1.5 39h-11q0 -1 -1.5 -15l-4 -36.5t-6.5 -50.5l-8 -57l-8 -55.5t-8 -45.5l-55 -256q-11 -3 -25 -5q-12 -2 -29.5 -3t-40.5 -1t-39 1t-27 3q-12 2 -21 5l150 702q15 2 37 4q19 2 46.5 3.5t65.5 1.5
t64 -1.5t43 -3.5q19 -2 33 -4l25 -247q9 -85 8 -157.5t-3 -132.5h10z" />
    <glyph glyph-name="Ncommaaccent" unicode="&#x145;" horiz-adv-x="706" 
d="M136 -367q13 14 25 32q11 15 21 36.5t18 47.5q-14 1 -26.5 2t-21.5 3q-11 2 -20 3l42 195q12 2 28 4q14 2 33 3t43 1q23 0 41.5 -1t32.5 -3q16 -2 28 -4l-33 -155q-11 -51 -35 -90t-49 -67q-29 -33 -63 -58zM464 174l12 79.5l11.5 78.5t11 71t10.5 58l54 250q13 2 28 4
q13 2 30 3.5t37 1.5q21 0 37.5 -1.5t27.5 -3.5q13 -2 22 -4l-150 -702q-14 -3 -35 -5q-18 -2 -45 -3t-65 -1q-35 0 -62 1t-45 3q-22 2 -37 5l-30 253q-4 36 -6 78t-2.5 79.5t0 66.5t1.5 39h-11q0 -1 -1.5 -15l-4 -36.5t-6.5 -50.5l-8 -57l-8 -55.5t-8 -45.5l-55 -256
q-11 -3 -25 -5q-12 -2 -29.5 -3t-40.5 -1t-39 1t-27 3q-12 2 -21 5l150 702q15 2 37 4q19 2 46.5 3.5t65.5 1.5t64 -1.5t43 -3.5q19 -2 33 -4l25 -247q9 -85 8 -157.5t-3 -132.5h10z" />
    <glyph glyph-name="Ntilde" unicode="&#xd1;" horiz-adv-x="706" 
d="M561 886q16 0 28 4t20 9q10 5 17 13q26 -17 35.5 -48.5t4.5 -63.5q-16 -15 -34 -26q-16 -10 -38.5 -17.5t-48.5 -7.5q-27 0 -44.5 5t-32.5 11t-31 11t-39 5q-14 0 -25.5 -4t-20.5 -9q-11 -6 -19 -13q-26 16 -36.5 46.5t-3.5 65.5q17 14 36 25q17 10 39 18t46 8
q27 0 44.5 -5t32.5 -11t31 -11t39 -5zM464 174l12 79.5l11.5 78.5t11 71t10.5 58l54 250q13 2 28 4q13 2 30 3.5t37 1.5q21 0 37.5 -1.5t27.5 -3.5q13 -2 22 -4l-150 -702q-14 -3 -35 -5q-18 -2 -45 -3t-65 -1q-35 0 -62 1t-45 3q-22 2 -37 5l-30 253q-4 36 -6 78t-2.5 79.5
t0 66.5t1.5 39h-11q0 -1 -1.5 -15l-4 -36.5t-6.5 -50.5l-8 -57l-8 -55.5t-8 -45.5l-55 -256q-11 -3 -25 -5q-12 -2 -29.5 -3t-40.5 -1t-39 1t-27 3q-12 2 -21 5l150 702q15 2 37 4q19 2 46.5 3.5t65.5 1.5t64 -1.5t43 -3.5q19 -2 33 -4l25 -247q9 -85 8 -157.5t-3 -132.5h10
z" />
    <glyph glyph-name="O" unicode="O" horiz-adv-x="697" 
d="M40 383q21 97 57 164t86 109t113.5 60.5t138.5 18.5t131 -25.5t88 -76t39.5 -125t-13.5 -172.5t-57 -165.5t-86 -108.5t-113.5 -59t-138.5 -18t-130.5 25.5t-88 75.5t-40 124.5t13.5 172.5zM454 360q14 66 17.5 107.5t-3 65t-22.5 32.5t-40 9q-23 0 -42.5 -9t-36 -32.5
t-31.5 -65t-29 -107.5q-14 -65 -17 -106.5t4 -65.5t22.5 -33t38.5 -9q24 0 43.5 9t36 33t31 65.5t28.5 106.5z" />
    <glyph glyph-name="OE" unicode="&#x152;" horiz-adv-x="884" 
d="M39 382q21 97 56.5 163.5t85 107.5t112.5 59t139 18q23 0 47 -2.5t47 -7.5h409q2 -12 0.5 -32.5t-6.5 -43.5t-12 -44t-15 -33h-245l-27 -127h195q2 -12 0.5 -32.5t-6.5 -43.5t-12 -44t-14 -33h-195l-29 -134h255q2 -13 0.5 -33.5t-6.5 -43.5t-12 -43.5t-14 -32.5h-420
q-24 -5 -49 -7.5t-48 -2.5q-152 0 -214.5 99.5t-21.5 292.5zM466 549q-14 11 -30 18t-37 7q-28 0 -50.5 -8t-41 -31t-34 -65t-30.5 -110q-14 -68 -16.5 -110t6.5 -65t28 -31t47 -8q21 0 40 6.5t37 17.5z" />
    <glyph glyph-name="Oacute" unicode="&#xd3;" horiz-adv-x="697" 
d="M506 980q25 3 50.5 -1t47.5 -12.5t38 -22t22 -29.5l-192 -157q-33 5 -61 18.5t-41 36.5zM40 383q21 97 57 164t86 109t113.5 60.5t138.5 18.5t131 -25.5t88 -76t39.5 -125t-13.5 -172.5t-57 -165.5t-86 -108.5t-113.5 -59t-138.5 -18t-130.5 25.5t-88 75.5t-40 124.5
t13.5 172.5zM454 360q14 66 17.5 107.5t-3 65t-22.5 32.5t-40 9q-23 0 -42.5 -9t-36 -32.5t-31.5 -65t-29 -107.5q-14 -65 -17 -106.5t4 -65.5t22.5 -33t38.5 -9q24 0 43.5 9t36 33t31 65.5t28.5 106.5z" />
    <glyph glyph-name="Obreve" unicode="&#x14e;" horiz-adv-x="697" 
d="M469 910q26 0 47 4t36 9q18 5 31 13q27 -13 45 -35.5t22 -48.5q-19 -23 -48 -41q-25 -15 -62.5 -27.5t-90.5 -12.5t-88.5 12.5t-57.5 27.5q-26 18 -40 41q17 26 43.5 48.5t60.5 35.5q10 -8 25 -13q13 -5 32 -9t45 -4zM40 383q21 97 57 164t86 109t113.5 60.5t138.5 18.5
t131 -25.5t88 -76t39.5 -125t-13.5 -172.5t-57 -165.5t-86 -108.5t-113.5 -59t-138.5 -18t-130.5 25.5t-88 75.5t-40 124.5t13.5 172.5zM454 360q14 66 17.5 107.5t-3 65t-22.5 32.5t-40 9q-23 0 -42.5 -9t-36 -32.5t-31.5 -65t-29 -107.5q-14 -65 -17 -106.5t4 -65.5
t22.5 -33t38.5 -9q24 0 43.5 9t36 33t31 65.5t28.5 106.5z" />
    <glyph glyph-name="Ocircumflex" unicode="&#xd4;" horiz-adv-x="697" 
d="M669 841q-20 -29 -47.5 -53.5t-59.5 -38.5l-105 74l-136 -73q-26 14 -43.5 38t-23.5 53l208 145h55zM40 383q21 97 57 164t86 109t113.5 60.5t138.5 18.5t131 -25.5t88 -76t39.5 -125t-13.5 -172.5t-57 -165.5t-86 -108.5t-113.5 -59t-138.5 -18t-130.5 25.5t-88 75.5
t-40 124.5t13.5 172.5zM454 360q14 66 17.5 107.5t-3 65t-22.5 32.5t-40 9q-23 0 -42.5 -9t-36 -32.5t-31.5 -65t-29 -107.5q-14 -65 -17 -106.5t4 -65.5t22.5 -33t38.5 -9q24 0 43.5 9t36 33t31 65.5t28.5 106.5z" />
    <glyph glyph-name="Odieresis" unicode="&#xd6;" horiz-adv-x="697" 
d="M278 928q11 1 24 3q11 2 27.5 3t38.5 1q21 0 37 -1t27 -3q12 -2 22 -3l-31 -148q-11 -2 -24 -4q-24 -3 -66 -3q-43 0 -64 3q-13 2 -22 4zM503 928q11 1 24 3q11 2 27.5 3t38.5 1q21 0 37 -1t27 -3q12 -2 22 -3l-31 -148q-11 -2 -24 -4q-24 -3 -66 -3q-43 0 -64 3
q-13 2 -22 4zM40 383q21 97 57 164t86 109t113.5 60.5t138.5 18.5t131 -25.5t88 -76t39.5 -125t-13.5 -172.5t-57 -165.5t-86 -108.5t-113.5 -59t-138.5 -18t-130.5 25.5t-88 75.5t-40 124.5t13.5 172.5zM454 360q14 66 17.5 107.5t-3 65t-22.5 32.5t-40 9q-23 0 -42.5 -9
t-36 -32.5t-31.5 -65t-29 -107.5q-14 -65 -17 -106.5t4 -65.5t22.5 -33t38.5 -9q24 0 43.5 9t36 33t31 65.5t28.5 106.5z" />
    <glyph glyph-name="Ograve" unicode="&#xd2;" horiz-adv-x="697" 
d="M563 814q-23 -23 -57 -36.5t-69 -18.5l-125 157q13 16 35 29.5t47 22t52 12.5t51 1zM40 383q21 97 57 164t86 109t113.5 60.5t138.5 18.5t131 -25.5t88 -76t39.5 -125t-13.5 -172.5t-57 -165.5t-86 -108.5t-113.5 -59t-138.5 -18t-130.5 25.5t-88 75.5t-40 124.5
t13.5 172.5zM454 360q14 66 17.5 107.5t-3 65t-22.5 32.5t-40 9q-23 0 -42.5 -9t-36 -32.5t-31.5 -65t-29 -107.5q-14 -65 -17 -106.5t4 -65.5t22.5 -33t38.5 -9q24 0 43.5 9t36 33t31 65.5t28.5 106.5z" />
    <glyph glyph-name="Ohungarumlaut" unicode="&#x150;" horiz-adv-x="697" 
d="M357 970q24 4 48.5 2.5t46 -8t37.5 -18.5t23 -27l-173 -163q-32 2 -60 13.5t-42 31.5zM586 971q24 3 49 0.5t46 -10t36.5 -20t22.5 -27.5l-178 -156q-31 3 -59 15t-42 33zM40 383q21 97 57 164t86 109t113.5 60.5t138.5 18.5t131 -25.5t88 -76t39.5 -125t-13.5 -172.5
t-57 -165.5t-86 -108.5t-113.5 -59t-138.5 -18t-130.5 25.5t-88 75.5t-40 124.5t13.5 172.5zM454 360q14 66 17.5 107.5t-3 65t-22.5 32.5t-40 9q-23 0 -42.5 -9t-36 -32.5t-31.5 -65t-29 -107.5q-14 -65 -17 -106.5t4 -65.5t22.5 -33t38.5 -9q24 0 43.5 9t36 33t31 65.5
t28.5 106.5z" />
    <glyph glyph-name="Omacron" unicode="&#x14c;" horiz-adv-x="697" 
d="M635 902q1 -12 -1 -28t-5.5 -33t-8.5 -33.5t-11 -28.5h-323q0 13 1.5 29.5t5.5 33.5t8.5 32.5t10.5 27.5h323zM40 383q21 97 57 164t86 109t113.5 60.5t138.5 18.5t131 -25.5t88 -76t39.5 -125t-13.5 -172.5t-57 -165.5t-86 -108.5t-113.5 -59t-138.5 -18t-130.5 25.5
t-88 75.5t-40 124.5t13.5 172.5zM454 360q14 66 17.5 107.5t-3 65t-22.5 32.5t-40 9q-23 0 -42.5 -9t-36 -32.5t-31.5 -65t-29 -107.5q-14 -65 -17 -106.5t4 -65.5t22.5 -33t38.5 -9q24 0 43.5 9t36 33t31 65.5t28.5 106.5z" />
    <glyph glyph-name="Omega" unicode="&#x2126;" horiz-adv-x="748" 
d="M67 380q19 92 55.5 158.5t87.5 109t115 62.5t140 20t131.5 -20t88.5 -62.5t41 -109t-11 -158.5q-15 -69 -46 -123.5t-72 -96.5h84q2 -18 0 -38.5t-7 -41.5t-11.5 -42t-15.5 -38h-306q-2 15 -0.5 36.5t6.5 44t12 44t16 35.5q48 47 79.5 99t46.5 121q22 106 4.5 150
t-73.5 44t-92.5 -44t-58.5 -150q-15 -69 -5.5 -121t37.5 -99q2 -14 0 -35t-7 -44t-12 -44.5t-15 -36.5h-306q-2 17 -1 37.5t6 41.5q5 22 11.5 43t17.5 38h83q-22 42 -30 96.5t7 123.5z" />
    <glyph glyph-name="Oslash" unicode="&#xd8;" horiz-adv-x="697" 
d="M657 628q31 -51 37 -123.5t-14 -168.5q-21 -98 -57 -165.5t-86 -108.5t-113.5 -59t-138.5 -18q-78 0 -135 27l-60 -74q-18 1 -36 6.5t-34 14.5t-29 21t-20 26l83 101q-24 50 -28.5 118.5t14.5 157.5q21 97 57 164t86 109t113.5 60.5t138.5 18.5q67 0 120 -21l56 68
q41 -2 72 -21.5t46 -45.5zM452 561q-16 13 -46 13q-23 0 -42.5 -9t-36 -32.5t-31.5 -65t-29 -107.5l-6 -28zM264 166q8 -11 21 -15.5t30 -4.5q24 0 43.5 9t36 33t31 65.5t28.5 106.5q6 25 9 47z" />
    <glyph glyph-name="Oslashacute" unicode="&#x1fe;" horiz-adv-x="697" 
d="M492 757q-33 5 -61 18.5t-41 36.5l136 167q25 3 50.5 -1t47.5 -12.5t38 -22t22 -29.5zM657 628q31 -51 37 -123.5t-14 -168.5q-21 -98 -57 -165.5t-86 -108.5t-113.5 -59t-138.5 -18q-78 0 -135 27l-60 -74q-18 1 -36 6.5t-34 14.5t-29 21t-20 26l83 101
q-24 50 -28.5 118.5t14.5 157.5q21 97 57 164t86 109t113.5 60.5t138.5 18.5q67 0 120 -21l56 68q41 -2 72 -21.5t46 -45.5zM452 561q-16 13 -46 13q-23 0 -42.5 -9t-36 -32.5t-31.5 -65t-29 -107.5l-6 -28zM264 166q8 -11 21 -15.5t30 -4.5q24 0 43.5 9t36 33t31 65.5
t28.5 106.5q6 25 9 47z" />
    <glyph glyph-name="Otilde" unicode="&#xd5;" horiz-adv-x="697" 
d="M538 908q16 1 28 5.5t20 9.5q10 6 16 13q28 -15 39 -46t6 -63q-11 -16 -28 -27q-14 -11 -35 -19t-47 -9q-27 -1 -46.5 3.5t-37 10t-35 10t-40.5 3.5q-14 -1 -26 -5.5t-20 -9.5q-10 -6 -18 -13q-27 14 -38.5 44t-6.5 65q14 15 31 27q14 10 34 18.5t45 9.5q27 1 46.5 -3.5
t36.5 -10t35 -10t41 -3.5zM40 383q21 97 57 164t86 109t113.5 60.5t138.5 18.5t131 -25.5t88 -76t39.5 -125t-13.5 -172.5t-57 -165.5t-86 -108.5t-113.5 -59t-138.5 -18t-130.5 25.5t-88 75.5t-40 124.5t13.5 172.5zM454 360q14 66 17.5 107.5t-3 65t-22.5 32.5t-40 9
q-23 0 -42.5 -9t-36 -32.5t-31.5 -65t-29 -107.5q-14 -65 -17 -106.5t4 -65.5t22.5 -33t38.5 -9q24 0 43.5 9t36 33t31 65.5t28.5 106.5z" />
    <glyph glyph-name="P" unicode="P" horiz-adv-x="610" 
d="M203 9q-13 -3 -30 -5q-14 -2 -35 -3t-46 -1q-26 0 -45.5 1t-33.5 3q-16 2 -28 5l151 711h293q62 0 105.5 -18.5t68.5 -52t31.5 -81.5t-6.5 -108q-25 -119 -100.5 -168t-199.5 -49h-75zM329 403q31 0 53 18.5t30 60.5q9 42 -5 60t-45 18h-42l-33 -157h42z" />
    <glyph glyph-name="Q" unicode="Q" horiz-adv-x="697" 
d="M435 735q75 0 131 -25.5t88 -76t39.5 -125t-13.5 -172.5q-20 -98 -55.5 -164t-85.5 -108q52 -24 110 -36q-8 -32 -23 -58t-32 -46t-35.5 -33.5t-33.5 -20.5q-51 19 -86.5 53t-55.5 70q-23 -4 -47.5 -6t-50.5 -2q-75 0 -130.5 25.5t-88 75.5t-40 124.5t13.5 172.5
q21 97 57 164t86 109t113.5 60.5t138.5 18.5zM406 574q-23 0 -42.5 -9t-36 -32.5t-31.5 -65t-29 -107.5q-14 -65 -17 -106.5t4 -65.5t22.5 -33t38.5 -9q24 0 43.5 9t36 33t31 65.5t28.5 106.5q14 66 17.5 107.5t-3 65t-22.5 32.5t-40 9z" />
    <glyph glyph-name="R" unicode="R" horiz-adv-x="642" 
d="M434 720q69 0 114 -19t68.5 -52t28 -77.5t-6.5 -95.5q-14 -66 -46 -109.5t-90 -70.5l82 -287q-15 -3 -33 -5q-16 -2 -38 -3t-49 -1q-29 0 -49 1t-33 3q-15 2 -25 5l-62 253h-38l-54 -253q-14 -3 -32 -5q-15 -2 -35 -3t-43 -1q-26 0 -45.5 1t-33.5 3q-17 2 -29 5l151 711
h298zM290 420h47q66 0 80 71q15 71 -50 71h-47z" />
    <glyph glyph-name="Racute" unicode="&#x154;" horiz-adv-x="642" 
d="M427 971q25 3 50.5 -1t47.5 -12.5t38 -22t23 -29.5l-193 -157q-32 5 -60.5 18.5t-41.5 36.5zM434 720q69 0 114 -19t68.5 -52t28 -77.5t-6.5 -95.5q-14 -66 -46 -109.5t-90 -70.5l82 -287q-15 -3 -33 -5q-16 -2 -38 -3t-49 -1q-29 0 -49 1t-33 3q-15 2 -25 5l-62 253h-38
l-54 -253q-14 -3 -32 -5q-15 -2 -35 -3t-43 -1q-26 0 -45.5 1t-33.5 3q-17 2 -29 5l151 711h298zM290 420h47q66 0 80 71q15 71 -50 71h-47z" />
    <glyph glyph-name="Rcaron" unicode="&#x158;" horiz-adv-x="642" 
d="M558 998q26 -14 43.5 -38t24.5 -53l-213 -158h-55l-147 158q20 29 47 53.5t59 38.5l106 -74zM434 720q69 0 114 -19t68.5 -52t28 -77.5t-6.5 -95.5q-14 -66 -46 -109.5t-90 -70.5l82 -287q-15 -3 -33 -5q-16 -2 -38 -3t-49 -1q-29 0 -49 1t-33 3q-15 2 -25 5l-62 253h-38
l-54 -253q-14 -3 -32 -5q-15 -2 -35 -3t-43 -1q-26 0 -45.5 1t-33.5 3q-17 2 -29 5l151 711h298zM290 420h47q66 0 80 71q15 71 -50 71h-47z" />
    <glyph glyph-name="Rcommaaccent" unicode="&#x156;" horiz-adv-x="642" 
d="M176 -34q12 2 28 4q14 2 33 3t43 1q23 0 41.5 -1t32.5 -3q16 -2 28 -4l-33 -155q-11 -51 -35 -90t-49 -67q-29 -33 -63 -58l-64 51q13 14 25 32q11 15 21 36.5t18 47.5q-14 1 -26.5 2t-21.5 3q-11 2 -20 3zM434 720q69 0 114 -19t68.5 -52t28 -77.5t-6.5 -95.5
q-14 -66 -46 -109.5t-90 -70.5l82 -287q-15 -3 -33 -5q-16 -2 -38 -3t-49 -1q-29 0 -49 1t-33 3q-15 2 -25 5l-62 253h-38l-54 -253q-14 -3 -32 -5q-15 -2 -35 -3t-43 -1q-26 0 -45.5 1t-33.5 3q-17 2 -29 5l151 711h298zM290 420h47q66 0 80 71q15 71 -50 71h-47z" />
    <glyph glyph-name="S" unicode="S" horiz-adv-x="585" 
d="M72 526q11 52 35.5 91.5t64.5 65.5t96.5 39.5t131.5 13.5q53 0 92.5 -6.5t65.5 -14.5q31 -9 53 -20q-8 -43 -26.5 -83.5t-49.5 -69.5q-19 4 -41 8q-19 3 -43 6t-50 3q-98 0 -107 -41q-3 -14 8 -25t31.5 -20.5t47 -18.5l54.5 -19q78 -29 107.5 -87t7.5 -152
q-14 -59 -41.5 -99.5t-69.5 -65t-99 -35.5t-128 -11q-62 0 -107.5 9t-76.5 20q-36 12 -61 29q8 43 28.5 85.5t49.5 72.5q21 -9 48 -15q23 -6 57 -10.5t78 -4.5q85 0 94 39q2 12 -4 21t-19 16.5t-30.5 14t-37.5 12.5q-33 10 -67 28t-58.5 47.5t-35.5 73t2 103.5z" />
    <glyph glyph-name="Sacute" unicode="&#x15a;" horiz-adv-x="585" 
d="M395 764q-32 5 -60.5 18.5t-41.5 36.5l133 163q25 3 50.5 -1t47 -12.5t37.5 -22t23 -29.5zM72 526q11 52 35.5 91.5t64.5 65.5t96.5 39.5t131.5 13.5q53 0 92.5 -6.5t65.5 -14.5q31 -9 53 -20q-8 -43 -26.5 -83.5t-49.5 -69.5q-19 4 -41 8q-19 3 -43 6t-50 3
q-98 0 -107 -41q-3 -14 8 -25t31.5 -20.5t47 -18.5l54.5 -19q78 -29 107.5 -87t7.5 -152q-14 -59 -41.5 -99.5t-69.5 -65t-99 -35.5t-128 -11q-62 0 -107.5 9t-76.5 20q-36 12 -61 29q8 43 28.5 85.5t49.5 72.5q21 -9 48 -15q23 -6 57 -10.5t78 -4.5q85 0 94 39q2 12 -4 21
t-19 16.5t-30.5 14t-37.5 12.5q-33 10 -67 28t-58.5 47.5t-35.5 73t2 103.5z" />
    <glyph glyph-name="Scaron" unicode="&#x160;" horiz-adv-x="585" 
d="M224 899q20 29 47 53.5t59 38.5l107 -69l134 68q26 -14 43.5 -38t24.5 -53l-209 -138h-55zM72 526q11 52 35.5 91.5t64.5 65.5t96.5 39.5t131.5 13.5q53 0 92.5 -6.5t65.5 -14.5q31 -9 53 -20q-8 -43 -26.5 -83.5t-49.5 -69.5q-19 4 -41 8q-19 3 -43 6t-50 3
q-98 0 -107 -41q-3 -14 8 -25t31.5 -20.5t47 -18.5l54.5 -19q78 -29 107.5 -87t7.5 -152q-14 -59 -41.5 -99.5t-69.5 -65t-99 -35.5t-128 -11q-62 0 -107.5 9t-76.5 20q-36 12 -61 29q8 43 28.5 85.5t49.5 72.5q21 -9 48 -15q23 -6 57 -10.5t78 -4.5q85 0 94 39q2 12 -4 21
t-19 16.5t-30.5 14t-37.5 12.5q-33 10 -67 28t-58.5 47.5t-35.5 73t2 103.5z" />
    <glyph glyph-name="Scedilla" unicode="&#x15e;" horiz-adv-x="585" 
d="M164 -121l-10 16l42 90q-58 2 -100.5 10.5t-71.5 19.5q-33 12 -57 28q8 43 28.5 85.5t49.5 72.5q21 -9 48 -15q23 -6 57 -10.5t78 -4.5q85 0 94 39q2 12 -4 21t-19 16.5t-30.5 14t-37.5 12.5q-33 10 -67 28t-58.5 47.5t-35.5 73t2 103.5q11 52 35.5 91.5t64.5 65.5
t96.5 39.5t131.5 13.5q53 0 92.5 -6.5t65.5 -14.5q31 -9 53 -20q-8 -43 -26.5 -83.5t-49.5 -69.5q-19 4 -41 8q-19 3 -43 6t-50 3q-98 0 -107 -41q-3 -14 8 -25t31.5 -20.5t47 -18.5l54.5 -19q78 -29 107.5 -87t7.5 -152q-23 -99 -85.5 -147t-165.5 -59l-15 -39
q50 -5 67.5 -32t9.5 -70q-6 -28 -21.5 -48t-38 -33t-51 -19t-59.5 -6q-30 0 -52.5 3.5t-38.5 8.5q-18 5 -32 12q1 8 5 18.5t9.5 21.5t12.5 20t14 14q10 -4 28.5 -9.5t37.5 -6.5t34.5 4.5t18.5 23.5q2 11 -4 18.5t-18 7.5h-42z" />
    <glyph glyph-name="Scircumflex" unicode="&#x15c;" horiz-adv-x="585" 
d="M618 849q-20 -29 -47 -52.5t-59 -37.5l-104 80l-136 -79q-27 14 -44.5 37t-24.5 52l203 152h55zM72 526q11 52 35.5 91.5t64.5 65.5t96.5 39.5t131.5 13.5q53 0 92.5 -6.5t65.5 -14.5q31 -9 53 -20q-8 -43 -26.5 -83.5t-49.5 -69.5q-19 4 -41 8q-19 3 -43 6t-50 3
q-98 0 -107 -41q-3 -14 8 -25t31.5 -20.5t47 -18.5l54.5 -19q78 -29 107.5 -87t7.5 -152q-14 -59 -41.5 -99.5t-69.5 -65t-99 -35.5t-128 -11q-62 0 -107.5 9t-76.5 20q-36 12 -61 29q8 43 28.5 85.5t49.5 72.5q21 -9 48 -15q23 -6 57 -10.5t78 -4.5q85 0 94 39q2 12 -4 21
t-19 16.5t-30.5 14t-37.5 12.5q-33 10 -67 28t-58.5 47.5t-35.5 73t2 103.5z" />
    <glyph glyph-name="Scommaaccent" unicode="&#x218;" horiz-adv-x="585" 
d="M116 -374q13 14 25 32q11 15 21 36.5t18 47.5q-14 1 -26.5 2t-21.5 3q-11 2 -20 3l42 195q12 2 28 4q14 2 33 3t43 1q23 0 41.5 -1t32.5 -3q16 -2 28 -4l-33 -155q-11 -51 -35 -90t-49 -67q-29 -33 -63 -58zM72 526q11 52 35.5 91.5t64.5 65.5t96.5 39.5t131.5 13.5
q53 0 92.5 -6.5t65.5 -14.5q31 -9 53 -20q-8 -43 -26.5 -83.5t-49.5 -69.5q-19 4 -41 8q-19 3 -43 6t-50 3q-98 0 -107 -41q-3 -14 8 -25t31.5 -20.5t47 -18.5l54.5 -19q78 -29 107.5 -87t7.5 -152q-14 -59 -41.5 -99.5t-69.5 -65t-99 -35.5t-128 -11q-62 0 -107.5 9
t-76.5 20q-36 12 -61 29q8 43 28.5 85.5t49.5 72.5q21 -9 48 -15q23 -6 57 -10.5t78 -4.5q85 0 94 39q2 12 -4 21t-19 16.5t-30.5 14t-37.5 12.5q-33 10 -67 28t-58.5 47.5t-35.5 73t2 103.5z" />
    <glyph glyph-name="T" unicode="T" horiz-adv-x="592" 
d="M663 720q1 -11 0 -25q-2 -25 -9 -64q-5 -20 -9.5 -36t-9.5 -28q-5 -14 -10 -25h-167l-113 -533q-15 -3 -33 -5q-15 -2 -35 -3t-43 -1q-25 0 -44.5 1t-33.5 3q-17 2 -29 5l113 533h-172q-1 11 0 24l2.5 27t6.5 36q5 21 9.5 37.5t9.5 28.5q5 14 10 25h557z" />
    <glyph glyph-name="Tbar" unicode="&#x166;" horiz-adv-x="601" 
d="M541 406q1 -12 -0.5 -28.5t-5.5 -34t-9 -34t-11 -28.5h-108l-58 -272q-15 -3 -33 -5q-15 -2 -35 -3t-43 -1q-25 0 -44.5 1t-33.5 3q-17 2 -29 5l58 272h-114q-1 13 1 30t5.5 34t8.5 33t11 28h114l29 136h-172q-1 11 0 24l2.5 27t6.5 36q5 21 9.5 37.5t9.5 28.5
q5 14 10 25h557q1 -11 0 -25q-2 -25 -9 -64q-5 -20 -9.5 -36t-9.5 -28q-5 -14 -10 -25h-167l-29 -136h108z" />
    <glyph glyph-name="Tcaron" unicode="&#x164;" horiz-adv-x="591" 
d="M219 907q20 29 47 53.5t59 38.5l106 -74l135 73q26 -14 43.5 -38t24.5 -53l-211 -148h-55zM663 720q1 -11 0 -25q-2 -25 -9 -64q-5 -20 -9.5 -36t-9.5 -28q-5 -14 -10 -25h-167l-113 -533q-15 -3 -33 -5q-15 -2 -35 -3t-43 -1q-25 0 -44.5 1t-33.5 3q-17 2 -29 5l113 533
h-172q-1 11 0 24l2.5 27t6.5 36q5 21 9.5 37.5t9.5 28.5q5 14 10 25h557z" />
    <glyph glyph-name="Thorn" unicode="&#xde;" horiz-adv-x="608" 
d="M134 711q12 2 29 4q14 2 33.5 3.5t42.5 1.5t42 -1.5t33 -3.5q16 -2 28 -4l-20 -96h100q58 0 98.5 -19.5t63.5 -54.5t28.5 -82.5t-6.5 -104.5q-24 -114 -97.5 -170.5t-190.5 -56.5h-100l-25 -118q-13 -3 -30 -5q-14 -2 -33.5 -3t-42.5 -1q-25 0 -44 1t-32 3q-15 2 -26 5z
M251 283h42q45 0 70 17t36 71t-6 71t-62 17h-42z" />
    <glyph glyph-name="U" unicode="U" horiz-adv-x="675" 
d="M620 248q-27 -127 -115.5 -195t-222.5 -68q-73 0 -126 21t-85 59t-42 90.5t4 115.5l93 440q13 2 30 4q14 2 34 3.5t46 1.5t45.5 -1.5t33.5 -3.5q16 -2 29 -4l-97 -458q-10 -45 5.5 -65t56.5 -20t64 20t33 65l97 458q12 2 29 4q14 2 33.5 3.5t45.5 1.5q25 0 45 -1.5
t34 -3.5q16 -2 28 -4z" />
    <glyph glyph-name="Uacute" unicode="&#xda;" horiz-adv-x="676" 
d="M448 749q-32 5 -60.5 18.5t-41.5 36.5l136 167q25 3 50.5 -1t47.5 -12.5t38 -22t23 -29.5zM621 248q-14 -63 -44 -112t-74 -82.5t-100.5 -51t-123.5 -17.5t-119.5 17.5t-86 51t-46 82.5t1.5 112l98 463q13 2 30 4q14 2 34 3.5t46 1.5t45.5 -1.5t33.5 -3.5q16 -2 29 -4
l-97 -458q-10 -45 5.5 -65t56.5 -20t64 20t33 65l97 458q12 2 29 4q14 2 33.5 3.5t45.5 1.5q25 0 45 -1.5t34 -3.5q16 -2 28 -4z" />
    <glyph glyph-name="Ubreve" unicode="&#x16c;" horiz-adv-x="676" 
d="M652 852q-22 -24 -53 -42q-26 -16 -65.5 -28.5t-92.5 -12.5t-87 12.5t-54 28.5q-24 18 -35 42q17 26 43.5 48.5t60.5 35.5q10 -8 25 -13q13 -5 32 -9t45 -4t47 4t36 9q18 5 31 13q27 -13 45 -35.5t22 -48.5zM621 248q-14 -63 -44 -112t-74 -82.5t-100.5 -51t-123.5 -17.5
t-119.5 17.5t-86 51t-46 82.5t1.5 112l98 463q13 2 30 4q14 2 34 3.5t46 1.5t45.5 -1.5t33.5 -3.5q16 -2 29 -4l-97 -458q-10 -45 5.5 -65t56.5 -20t64 20t33 65l97 458q12 2 29 4q14 2 33.5 3.5t45.5 1.5q25 0 45 -1.5t34 -3.5q16 -2 28 -4z" />
    <glyph glyph-name="Ucircumflex" unicode="&#xdb;" horiz-adv-x="676" 
d="M666 841q-20 -29 -47.5 -53.5t-59.5 -38.5l-105 74l-136 -73q-26 14 -43.5 38t-23.5 53l201 146h55zM621 248q-14 -63 -44 -112t-74 -82.5t-100.5 -51t-123.5 -17.5t-119.5 17.5t-86 51t-46 82.5t1.5 112l98 463q13 2 30 4q14 2 34 3.5t46 1.5t45.5 -1.5t33.5 -3.5
q16 -2 29 -4l-97 -458q-10 -45 5.5 -65t56.5 -20t64 20t33 65l97 458q12 2 29 4q14 2 33.5 3.5t45.5 1.5q25 0 45 -1.5t34 -3.5q16 -2 28 -4z" />
    <glyph glyph-name="Udieresis" unicode="&#xdc;" horiz-adv-x="676" 
d="M409 766q-11 -2 -24 -4q-24 -3 -66 -3q-43 0 -64 3q-13 2 -22 4l31 148q11 1 24 3q11 2 27.5 3t38.5 1q21 0 37 -1t27 -3q12 -2 22 -3zM634 766q-11 -2 -24 -4q-24 -3 -66 -3q-43 0 -64 3q-13 2 -22 4l31 148q11 1 24 3q11 2 27.5 3t38.5 1q21 0 37 -1t27 -3q12 -2 22 -3
zM621 248q-14 -63 -44 -112t-74 -82.5t-100.5 -51t-123.5 -17.5t-119.5 17.5t-86 51t-46 82.5t1.5 112l98 463q13 2 30 4q14 2 34 3.5t46 1.5t45.5 -1.5t33.5 -3.5q16 -2 29 -4l-97 -458q-10 -45 5.5 -65t56.5 -20t64 20t33 65l97 458q12 2 29 4q14 2 33.5 3.5t45.5 1.5
q25 0 45 -1.5t34 -3.5q16 -2 28 -4z" />
    <glyph glyph-name="Ugrave" unicode="&#xd9;" horiz-adv-x="676" 
d="M297 906q13 16 35 29.5t47 22t52 12.5t51 1l66 -167q-23 -23 -57 -36.5t-69 -18.5zM621 248q-14 -63 -44 -112t-74 -82.5t-100.5 -51t-123.5 -17.5t-119.5 17.5t-86 51t-46 82.5t1.5 112l98 463q13 2 30 4q14 2 34 3.5t46 1.5t45.5 -1.5t33.5 -3.5q16 -2 29 -4l-97 -458
q-10 -45 5.5 -65t56.5 -20t64 20t33 65l97 458q12 2 29 4q14 2 33.5 3.5t45.5 1.5q25 0 45 -1.5t34 -3.5q16 -2 28 -4z" />
    <glyph glyph-name="Uhungarumlaut" unicode="&#x170;" horiz-adv-x="676" 
d="M345 749q-32 5 -59 17.5t-40 35.5l132 162q24 3 48.5 -0.5t45.5 -12t36.5 -21.5t21.5 -29zM563 749q-32 5 -59 17.5t-40 35.5l132 162q24 3 48.5 -0.5t45.5 -12t36.5 -21.5t21.5 -29zM621 248q-14 -63 -44 -112t-74 -82.5t-100.5 -51t-123.5 -17.5t-119.5 17.5t-86 51
t-46 82.5t1.5 112l98 463q13 2 30 4q14 2 34 3.5t46 1.5t45.5 -1.5t33.5 -3.5q16 -2 29 -4l-97 -458q-10 -45 5.5 -65t56.5 -20t64 20t33 65l97 458q12 2 29 4q14 2 33.5 3.5t45.5 1.5q25 0 45 -1.5t34 -3.5q16 -2 28 -4z" />
    <glyph glyph-name="Umacron" unicode="&#x16a;" horiz-adv-x="676" 
d="M279 768q0 13 2 29.5t5.5 33.5t8.5 32.5t10 27.5h323q1 -12 -1 -28t-5.5 -33t-8.5 -33.5t-11 -28.5h-323zM621 248q-14 -63 -44 -112t-74 -82.5t-100.5 -51t-123.5 -17.5t-119.5 17.5t-86 51t-46 82.5t1.5 112l98 463q13 2 30 4q14 2 34 3.5t46 1.5t45.5 -1.5t33.5 -3.5
q16 -2 29 -4l-97 -458q-10 -45 5.5 -65t56.5 -20t64 20t33 65l97 458q12 2 29 4q14 2 33.5 3.5t45.5 1.5q25 0 45 -1.5t34 -3.5q16 -2 28 -4z" />
    <glyph glyph-name="Uogonek" unicode="&#x172;" horiz-adv-x="675" 
d="M620 248q-14 -66 -45 -116t-76 -85q-69 -54 -101 -97t-31 -61q0 -13 13 -18t34 5q5 -6 8.5 -17.5t4.5 -26t0 -29.5t-5 -27q-23 -13 -56 -21t-65 -7q-37 2 -61 19.5t-28 58.5q-2 22 5.5 44t21 42.5t32 39t37.5 34.5q-6 -1 -12.5 -1h-13.5q-73 0 -126 21t-85 59t-42 90.5
t4 115.5l93 440q13 2 30 4q14 2 34 3.5t46 1.5t45.5 -1.5t33.5 -3.5q16 -2 29 -4l-97 -458q-10 -45 5.5 -65t56.5 -20t64 20t33 65l97 458q12 2 29 4q14 2 33.5 3.5t45.5 1.5q25 0 45 -1.5t34 -3.5q16 -2 28 -4z" />
    <glyph glyph-name="Uring" unicode="&#x16e;" horiz-adv-x="676" 
d="M432 732q-38 0 -67.5 11t-48.5 31.5t-25.5 51t1.5 69.5q9 40 30 70t49.5 50t62 30.5t67.5 10.5q33 0 62.5 -10t50 -30.5t29.5 -50.5t0 -70q-8 -39 -28.5 -69.5t-49 -51.5t-63 -31.5t-70.5 -10.5zM510 895q4 16 -4 28.5t-31 12.5q-22 0 -35.5 -13t-16.5 -28
q-3 -16 4.5 -29t29.5 -13q23 0 36.5 13.5t16.5 28.5zM621 248q-27 -127 -117 -195t-224 -68q-67 0 -119.5 17.5t-86.5 51t-46.5 82.5t1.5 112l98 463q13 2 30 4q14 2 34 3.5t46 1.5t45.5 -1.5t33.5 -3.5q16 -2 29 -4l-97 -458q-10 -45 5.5 -65t56.5 -20t64 20t33 65l97 458
q12 2 29 4q14 2 33.5 3.5t45.5 1.5q25 0 45 -1.5t34 -3.5q16 -2 28 -4z" />
    <glyph glyph-name="Utilde" unicode="&#x168;" horiz-adv-x="676" 
d="M531 891q16 0 28 3.5t20 8.5q10 5 17 13q26 -16 36 -46.5t5 -61.5q-12 -14 -29 -25q-14 -9 -35 -16.5t-47 -7.5q-27 0 -46 5t-36 10.5t-34.5 10.5t-40.5 5q-14 0 -25.5 -4t-20.5 -9q-11 -5 -19 -12q-26 15 -36.5 44t-4.5 64q13 13 31 24q15 9 35.5 17t44.5 8q27 0 46 -5
t36 -10.5t34.5 -10.5t40.5 -5zM621 248q-27 -127 -117 -195t-224 -68q-67 0 -119.5 17.5t-86.5 51t-46.5 82.5t1.5 112l98 463q13 2 30 4q14 2 34 3.5t46 1.5t45.5 -1.5t33.5 -3.5q16 -2 29 -4l-97 -458q-10 -45 5.5 -65t56.5 -20t64 20t33 65l97 458q12 2 29 4
q14 2 33.5 3.5t45.5 1.5q25 0 45 -1.5t34 -3.5q16 -2 28 -4z" />
    <glyph glyph-name="V" unicode="V" horiz-adv-x="691" 
d="M318 369q2 -45 1.5 -81.5t-2.5 -62.5q-3 -31 -6 -55h11q7 24 18 55l25 63t37 82l165 340q12 2 28 5q14 2 34 3.5t47 1.5q26 0 45.5 -1.5t32.5 -3.5q15 -3 26 -5l-349 -701q-17 -3 -40 -5q-20 -2 -47.5 -3t-62.5 -1q-36 0 -63.5 1t-46.5 3q-22 2 -39 5l-50 699q16 3 34 6
q16 2 37.5 4t47.5 2q23 0 41.5 -1.5t30.5 -3.5l24 -5z" />
    <glyph glyph-name="W" unicode="W" horiz-adv-x="972" 
d="M517 340q3 38 8.5 91t18.5 114h-10q-5 -26 -13 -55t-16.5 -56.5l-16.5 -52l-14 -41.5l-124 -331q-23 -4 -61 -6.5t-84 -2.5t-84.5 2.5t-59.5 6.5l29 702q14 2 32 4q15 2 35.5 3.5t46.5 1.5q23 0 41 -1.5t30 -3.5q14 -2 23 -4l-23 -319l-30 -225h9l21 75l22 72.5t26 75.5
l121 321q14 2 34 4q17 2 42.5 3.5t59.5 1.5q32 0 57.5 -1.5t42.5 -3.5q20 -2 34 -4l-20 -314q-3 -38 -7 -78.5t-9 -74.5l-10 -77h9l32.5 115t36.5 115l112 314q10 2 24 4q12 2 30.5 3.5t42.5 1.5q22 0 40 -1.5t31 -3.5q15 -2 27 -4l-270 -702q-15 -3 -36 -5q-18 -2 -44.5 -3
t-61.5 -1q-38 0 -65.5 1t-45.5 3q-21 2 -35 5z" />
    <glyph glyph-name="Wacute" unicode="&#x1e82;" horiz-adv-x="973" 
d="M601 749q-32 5 -60.5 18.5t-41.5 36.5l136 167q25 3 50.5 -1t47.5 -12.5t38 -22t23 -29.5zM517 340q3 38 8.5 91t18.5 114h-10q-5 -26 -13 -55t-16.5 -56.5l-16.5 -52l-14 -41.5l-124 -331q-23 -4 -61 -6.5t-84 -2.5t-84.5 2.5t-59.5 6.5l29 702q14 2 32 4q15 2 35.5 3.5
t46.5 1.5q23 0 41 -1.5t30 -3.5q14 -2 23 -4l-23 -319l-30 -225h9l21 75l22 72.5t26 75.5l121 321q14 2 34 4q17 2 42.5 3.5t59.5 1.5q32 0 57.5 -1.5t42.5 -3.5q20 -2 34 -4l-20 -314q-3 -38 -7 -78.5t-9 -74.5l-10 -77h9l32.5 115t36.5 115l112 314q10 2 24 4
q12 2 30.5 3.5t42.5 1.5q22 0 40 -1.5t31 -3.5q15 -2 27 -4l-270 -702q-15 -3 -36 -5q-18 -2 -44.5 -3t-61.5 -1q-38 0 -65.5 1t-45.5 3q-21 2 -35 5z" />
    <glyph glyph-name="Wcircumflex" unicode="&#x174;" horiz-adv-x="973" 
d="M816 841q-20 -29 -47.5 -53.5t-59.5 -38.5l-105 74l-136 -73q-26 14 -43.5 38t-23.5 53l212 158h55zM517 340q3 38 8.5 91t18.5 114h-10q-5 -26 -13 -55t-16.5 -56.5l-16.5 -52l-14 -41.5l-124 -331q-23 -4 -61 -6.5t-84 -2.5t-84.5 2.5t-59.5 6.5l29 702q14 2 32 4
q15 2 35.5 3.5t46.5 1.5q23 0 41 -1.5t30 -3.5q14 -2 23 -4l-23 -319l-30 -225h9l21 75l22 72.5t26 75.5l121 321q14 2 34 4q17 2 42.5 3.5t59.5 1.5q32 0 57.5 -1.5t42.5 -3.5q20 -2 34 -4l-20 -314q-3 -38 -7 -78.5t-9 -74.5l-10 -77h9l32.5 115t36.5 115l112 314
q10 2 24 4q12 2 30.5 3.5t42.5 1.5q22 0 40 -1.5t31 -3.5q15 -2 27 -4l-270 -702q-15 -3 -36 -5q-18 -2 -44.5 -3t-61.5 -1q-38 0 -65.5 1t-45.5 3q-21 2 -35 5z" />
    <glyph glyph-name="Wdieresis" unicode="&#x1e84;" horiz-adv-x="973" 
d="M559 766q-11 -2 -24 -4q-24 -3 -66 -3q-43 0 -64 3q-13 2 -22 4l31 148q11 1 24 3q11 2 27.5 3t38.5 1q21 0 37 -1t27 -3q12 -2 22 -3zM796 766q-11 -2 -24 -4q-24 -3 -66 -3q-43 0 -64 3q-13 2 -22 4l31 148q11 1 24 3q11 2 27.5 3t38.5 1q21 0 37 -1t27 -3q12 -2 22 -3
zM517 340q3 38 8.5 91t18.5 114h-10q-5 -26 -13 -55t-16.5 -56.5l-16.5 -52l-14 -41.5l-124 -331q-23 -4 -61 -6.5t-84 -2.5t-84.5 2.5t-59.5 6.5l29 702q14 2 32 4q15 2 35.5 3.5t46.5 1.5q23 0 41 -1.5t30 -3.5q14 -2 23 -4l-23 -319l-30 -225h9l21 75l22 72.5t26 75.5
l121 321q14 2 34 4q17 2 42.5 3.5t59.5 1.5q32 0 57.5 -1.5t42.5 -3.5q20 -2 34 -4l-20 -314q-3 -38 -7 -78.5t-9 -74.5l-10 -77h9l32.5 115t36.5 115l112 314q10 2 24 4q12 2 30.5 3.5t42.5 1.5q22 0 40 -1.5t31 -3.5q15 -2 27 -4l-270 -702q-15 -3 -36 -5q-18 -2 -44.5 -3
t-61.5 -1q-38 0 -65.5 1t-45.5 3q-21 2 -35 5z" />
    <glyph glyph-name="Wgrave" unicode="&#x1e80;" horiz-adv-x="973" 
d="M463 906q13 16 35 29.5t47 22t52 12.5t51 1l66 -167q-23 -23 -57 -36.5t-69 -18.5zM517 340q3 38 8.5 91t18.5 114h-10q-5 -26 -13 -55t-16.5 -56.5l-16.5 -52l-14 -41.5l-124 -331q-23 -4 -61 -6.5t-84 -2.5t-84.5 2.5t-59.5 6.5l29 702q14 2 32 4q15 2 35.5 3.5
t46.5 1.5q23 0 41 -1.5t30 -3.5q14 -2 23 -4l-23 -319l-30 -225h9l21 75l22 72.5t26 75.5l121 321q14 2 34 4q17 2 42.5 3.5t59.5 1.5q32 0 57.5 -1.5t42.5 -3.5q20 -2 34 -4l-20 -314q-3 -38 -7 -78.5t-9 -74.5l-10 -77h9l32.5 115t36.5 115l112 314q10 2 24 4
q12 2 30.5 3.5t42.5 1.5q22 0 40 -1.5t31 -3.5q15 -2 27 -4l-270 -702q-15 -3 -36 -5q-18 -2 -44.5 -3t-61.5 -1q-38 0 -65.5 1t-45.5 3q-21 2 -35 5z" />
    <glyph glyph-name="X" unicode="X" horiz-adv-x="652" 
d="M306 256l-27 -52l-26 -46t-27 -42l-77 -107q-24 -4 -52 -6.5t-56 -2.5q-34 0 -62 2t-54 7l267 371l-98 331q13 2 31 4q16 2 40.5 3.5t57.5 1.5q27 0 48 -1.5t35 -3.5q17 -2 28 -4l19 -67q7 -23 11 -47t7 -44q3 -24 5 -46h6q11 23 24 47l25 44t30 46l49 67q54 9 115 9
q29 0 56 -2.5t54 -6.5l-241 -334l110 -368q-12 -3 -30 -5q-15 -2 -37 -3t-51 -1q-32 0 -54 1t-37 3q-18 2 -29 5l-33 108q-8 24 -11.5 48.5t-5.5 44.5q-3 24 -3 46h-7z" />
    <glyph glyph-name="Y" unicode="Y" horiz-adv-x="666" 
d="M370 429q13 31 29 64q14 29 33 63t42 67l61 88q15 2 33 4q15 2 36 3.5t46 1.5q26 0 47.5 -1.5t35.5 -3.5q17 -2 29 -4l-332 -455l-53 -247q-11 -3 -28 -5q-14 -2 -35 -3t-47 -1q-29 0 -49.5 1t-33.5 3q-16 2 -25 5l54 250l-133 452q14 2 33 4q17 2 40 3.5t54 1.5
q26 0 47 -1.5t35 -3.5q17 -2 30 -4l24 -90q9 -35 13 -68.5t6 -61.5q2 -33 0 -62h8z" />
    <glyph glyph-name="Yacute" unicode="&#xdd;" horiz-adv-x="666" 
d="M469 971q25 3 50.5 -1t47.5 -12.5t38 -22t23 -29.5l-193 -157q-32 5 -60.5 18.5t-41.5 36.5zM370 429q13 31 29 64q14 29 33 63t42 67l61 88q15 2 33 4q15 2 36 3.5t46 1.5q26 0 47.5 -1.5t35.5 -3.5q17 -2 29 -4l-332 -455l-53 -247q-11 -3 -28 -5q-14 -2 -35 -3t-47 -1
q-29 0 -49.5 1t-33.5 3q-16 2 -25 5l54 250l-133 452q14 2 33 4q17 2 40 3.5t54 1.5q26 0 47 -1.5t35 -3.5q17 -2 30 -4l24 -90q9 -35 13 -68.5t6 -61.5q2 -33 0 -62h8z" />
    <glyph glyph-name="Ycircumflex" unicode="&#x176;" horiz-adv-x="666" 
d="M662 841q-20 -29 -47.5 -53.5t-59.5 -38.5l-105 74l-136 -73q-26 14 -43.5 38t-23.5 53l208 148h55zM370 429q13 31 29 64q14 29 33 63t42 67l61 88q15 2 33 4q15 2 36 3.5t46 1.5q26 0 47.5 -1.5t35.5 -3.5q17 -2 29 -4l-332 -455l-53 -247q-11 -3 -28 -5q-14 -2 -35 -3
t-47 -1q-29 0 -49.5 1t-33.5 3q-16 2 -25 5l54 250l-133 452q14 2 33 4q17 2 40 3.5t54 1.5q26 0 47 -1.5t35 -3.5q17 -2 30 -4l24 -90q9 -35 13 -68.5t6 -61.5q2 -33 0 -62h8z" />
    <glyph glyph-name="Ydieresis" unicode="&#x178;" horiz-adv-x="666" 
d="M274 906q10 1 23 3q11 2 27.5 3t38.5 1q21 0 37 -1t27 -3q13 -2 23 -3l-32 -148q-11 -2 -24 -4q-23 -3 -65 -3q-43 0 -65 3q-13 2 -22 4zM499 906q10 1 23 3q11 2 27.5 3t38.5 1q21 0 37 -1t27 -3q13 -2 23 -3l-32 -148q-11 -2 -24 -4q-23 -3 -65 -3q-43 0 -65 3
q-13 2 -22 4zM370 429q13 31 29 64q14 29 33 63t42 67l61 88q15 2 33 4q15 2 36 3.5t46 1.5q26 0 47.5 -1.5t35.5 -3.5q17 -2 29 -4l-332 -455l-53 -247q-11 -3 -28 -5q-14 -2 -35 -3t-47 -1q-29 0 -49.5 1t-33.5 3q-16 2 -25 5l54 250l-133 452q14 2 33 4q17 2 40 3.5
t54 1.5q26 0 47 -1.5t35 -3.5q17 -2 30 -4l24 -90q9 -35 13 -68.5t6 -61.5q2 -33 0 -62h8z" />
    <glyph glyph-name="Ygrave" unicode="&#x1ef2;" horiz-adv-x="666" 
d="M545 804q-23 -23 -57 -36.5t-69 -18.5l-125 157q13 16 35 29.5t47 22t52 12.5t51 1zM370 429q13 31 29 64q14 29 33 63t42 67l61 88q15 2 33 4q15 2 36 3.5t46 1.5q26 0 47.5 -1.5t35.5 -3.5q17 -2 29 -4l-332 -455l-53 -247q-11 -3 -28 -5q-14 -2 -35 -3t-47 -1
q-29 0 -49.5 1t-33.5 3q-16 2 -25 5l54 250l-133 452q14 2 33 4q17 2 40 3.5t54 1.5q26 0 47 -1.5t35 -3.5q17 -2 30 -4l24 -90q9 -35 13 -68.5t6 -61.5q2 -33 0 -62h8z" />
    <glyph glyph-name="Z" unicode="Z" horiz-adv-x="595" 
d="M222 168h305q2 -40 -9 -84q-5 -23 -11.5 -44.5t-14.5 -39.5h-533q-2 18 0 40.5t7 45.5t12.5 44t15.5 38l367 385h-274q-1 20 0.5 41t6.5 44q9 42 29 82h519q2 -18 1 -38t-6 -42q-5 -23 -12.5 -45t-18.5 -42z" />
    <glyph glyph-name="Zacute" unicode="&#x179;" horiz-adv-x="596" 
d="M426 971q25 3 50.5 -1t47.5 -12.5t38 -22t23 -29.5l-193 -157q-32 5 -60.5 18.5t-41.5 36.5zM222 168h305q2 -40 -9 -84q-5 -23 -11.5 -44.5t-14.5 -39.5h-533q-2 18 0 40.5t7 45.5t12.5 44t15.5 38l367 385h-274q-1 20 0.5 41t6.5 44q9 42 29 82h519q2 -18 1 -38t-6 -42
q-5 -23 -12.5 -45t-18.5 -42z" />
    <glyph glyph-name="Zcaron" unicode="&#x17d;" horiz-adv-x="597" 
d="M585 998q26 -14 43.5 -38t24.5 -53l-211 -148h-55l-149 148q20 29 47 53.5t59 38.5l106 -74zM222 168h305q2 -40 -9 -84q-5 -23 -11.5 -44.5t-14.5 -39.5h-533q-2 18 0 40.5t7 45.5t12.5 44t15.5 38l367 385h-274q-1 20 0.5 41t6.5 44q9 42 29 82h519q2 -18 1 -38t-6 -42
q-5 -23 -12.5 -45t-18.5 -42z" />
    <glyph glyph-name="Zdotaccent" unicode="&#x17b;" horiz-adv-x="596" 
d="M330 951q11 1 25 3q12 2 29.5 3t40.5 1q22 0 39.5 -1t28.5 -3q13 -2 23 -3l-37 -174q-11 -2 -25 -4q-12 -2 -30 -3t-40 -1q-23 0 -40 1t-28 3q-13 2 -23 4zM222 168h305q2 -40 -9 -84q-5 -23 -11.5 -44.5t-14.5 -39.5h-533q-2 18 0 40.5t7 45.5t12.5 44t15.5 38l367 385
h-274q-1 20 0.5 41t6.5 44q9 42 29 82h519q2 -18 1 -38t-6 -42q-5 -23 -12.5 -45t-18.5 -42z" />
    <glyph glyph-name="_0020" horiz-adv-x="0" 
 />
    <glyph glyph-name="_375" horiz-adv-x="646" 
d="M229 712q40 8 95 8q27 0 52 -2t43 -6l117 -600q-35 -69 -94 -112h-544q-51 46 -46 111zM266 475l-35.5 -72.5t-41.5 -73.5l-110 -176h238l-33 177q-6 34 -9 73t-5 72h-4z" />
    <glyph glyph-name="_376" horiz-adv-x="700" 
d="M227 0q-2 15 -0.5 36.5t6.5 44t12 44t16 35.5q48 47 79.5 99t46.5 121q22 106 4.5 150t-73.5 44t-92.5 -44t-58.5 -150q-15 -69 -5.5 -121t37.5 -99q2 -14 0 -35t-7 -44t-12 -44.5t-15 -36.5h-306q-2 17 -1 37.5t6 41.5q5 22 11.5 43t17.5 38h83q-22 42 -30 96.5t7 123.5
q19 92 55.5 158.5t87.5 109t115 62.5t140 20t131.5 -20t88.5 -62.5t41 -109t-11 -158.5q-15 -69 -46 -123.5t-72 -96.5h84q2 -18 0 -38.5t-7 -41.5t-11.5 -42t-15.5 -38h-306z" />
    <glyph glyph-name="a" unicode="a" horiz-adv-x="563" 
d="M378 529q11 2 26 4q13 2 31 3.5t41 1.5t41.5 -1t31.5 -3q15 -2 27 -4l-111 -522q-13 -2 -28 -4q-14 -2 -31.5 -3t-40.5 -1t-39.5 1t-27.5 3q-13 2 -22 4l1 38q-26 -25 -58 -40.5t-74 -15.5t-73.5 17t-49 53t-20 91t13.5 132q16 76 39 127t53.5 81t68.5 42.5t84 12.5
q30 0 61 -12t46 -41zM333 346q1 19 -5 32.5t-25 13.5q-14 0 -24.5 -6t-18.5 -20.5t-15 -39.5t-15 -63q-14 -68 -11 -93.5t32 -25.5q19 0 30 12t17 28z" />
    <glyph glyph-name="aacute" unicode="&#xe1;" horiz-adv-x="563" 
d="M394 783q25 3 50.5 -1t47.5 -12.5t38 -22t23 -29.5l-193 -157q-32 5 -60.5 18.5t-41.5 36.5zM378 529q11 2 26 4q13 2 31 3.5t41 1.5t41.5 -1t31.5 -3q15 -2 27 -4l-111 -522q-13 -2 -28 -4q-14 -2 -31.5 -3t-40.5 -1t-39.5 1t-27.5 3q-13 2 -22 4l1 38
q-26 -25 -58 -40.5t-74 -15.5t-73.5 17t-49 53t-20 91t13.5 132q16 76 39 127t53.5 81t68.5 42.5t84 12.5q30 0 61 -12t46 -41zM333 346q1 19 -5 32.5t-25 13.5q-14 0 -24.5 -6t-18.5 -20.5t-15 -39.5t-15 -63q-14 -68 -11 -93.5t32 -25.5q19 0 30 12t17 28z" />
    <glyph glyph-name="abreve" unicode="&#x103;" horiz-adv-x="563" 
d="M378 725q25 0 46 4.5t35 9.5q17 6 30 14q26 -14 43 -38t21 -50q-20 -25 -48 -44q-24 -17 -61 -30t-88 -13t-85.5 13t-55.5 30q-25 19 -38 44q16 26 43 50t59 38q10 -8 24 -14q12 -5 30.5 -9.5t44.5 -4.5zM378 529q11 2 26 4q13 2 31 3.5t41 1.5t41.5 -1t31.5 -3
q15 -2 27 -4l-111 -522q-13 -2 -28 -4q-14 -2 -31.5 -3t-40.5 -1t-39.5 1t-27.5 3q-13 2 -22 4l1 38q-26 -25 -58 -40.5t-74 -15.5t-73.5 17t-49 53t-20 91t13.5 132q16 76 39 127t53.5 81t68.5 42.5t84 12.5q30 0 61 -12t46 -41zM333 346q1 19 -5 32.5t-25 13.5
q-14 0 -24.5 -6t-18.5 -20.5t-15 -39.5t-15 -63q-14 -68 -11 -93.5t32 -25.5q19 0 30 12t17 28z" />
    <glyph glyph-name="acircumflex" unicode="&#xe2;" horiz-adv-x="563" 
d="M578 662q-20 -29 -47 -52.5t-57 -36.5l-103 72l-133 -71q-26 13 -42.5 36t-23.5 52l201 143h54zM378 529q11 2 26 4q13 2 31 3.5t41 1.5t41.5 -1t31.5 -3q15 -2 27 -4l-111 -522q-13 -2 -28 -4q-14 -2 -31.5 -3t-40.5 -1t-39.5 1t-27.5 3q-13 2 -22 4l1 38
q-26 -25 -58 -40.5t-74 -15.5t-73.5 17t-49 53t-20 91t13.5 132q16 76 39 127t53.5 81t68.5 42.5t84 12.5q30 0 61 -12t46 -41zM333 346q1 19 -5 32.5t-25 13.5q-14 0 -24.5 -6t-18.5 -20.5t-15 -39.5t-15 -63q-14 -68 -11 -93.5t32 -25.5q19 0 30 12t17 28z" />
    <glyph glyph-name="acute" unicode="&#xb4;" horiz-adv-x="224" 
d="M74 615q-33 5 -61 18.5t-42 36.5l137 167q25 3 50.5 -1t47 -12.5t37.5 -22t23 -29.5z" />
    <glyph glyph-name="adieresis" unicode="&#xe4;" horiz-adv-x="563" 
d="M192 737q10 1 23 3q11 2 27.5 3t38.5 1q21 0 37 -1t27 -3q13 -2 23 -3l-32 -148q-11 -2 -24 -4q-23 -3 -65 -3q-43 0 -65 3q-13 2 -22 4zM417 737q10 1 23 3q11 2 27.5 3t38.5 1q21 0 37 -1t27 -3q13 -2 23 -3l-32 -148q-11 -2 -24 -4q-23 -3 -65 -3q-43 0 -65 3
q-13 2 -22 4zM378 529q11 2 26 4q13 2 31 3.5t41 1.5t41.5 -1t31.5 -3q15 -2 27 -4l-111 -522q-13 -2 -28 -4q-14 -2 -31.5 -3t-40.5 -1t-39.5 1t-27.5 3q-13 2 -22 4l1 38q-26 -25 -58 -40.5t-74 -15.5t-73.5 17t-49 53t-20 91t13.5 132q16 76 39 127t53.5 81t68.5 42.5
t84 12.5q30 0 61 -12t46 -41zM333 346q1 19 -5 32.5t-25 13.5q-14 0 -24.5 -6t-18.5 -20.5t-15 -39.5t-15 -63q-14 -68 -11 -93.5t32 -25.5q19 0 30 12t17 28z" />
    <glyph glyph-name="ae" unicode="&#xe6;" horiz-adv-x="775" 
d="M647 540q83 0 111 -53.5t7 -152.5q-6 -26 -12.5 -48l-11.5 -39q-6 -19 -13 -36h-253q1 -30 16 -46.5t51 -16.5q19 0 36 4t30 9q15 5 28 13q20 -19 31 -55t5 -76q-19 -16 -42 -27q-20 -10 -47.5 -18t-62.5 -8q-38 0 -62 12.5t-41 36.5l-10 -33q-6 -2 -17 -3q-18 -3 -56 -3
q-23 0 -37.5 1t-22.5 3q-10 2 -14 4l1 38q-24 -25 -52 -40.5t-70 -15.5t-73 15.5t-48 50t-18.5 88t14.5 130.5q16 76 39 128.5t53 84t67.5 45.5t83.5 14q30 0 55.5 -12t39.5 -41l10 36q8 2 19 4q10 2 26 3.5t39 1.5t37.5 -1t22.5 -3q9 -2 13 -4l-4 -33q38 26 70.5 34.5
t61.5 8.5zM569 321q1 5 2 9t2 9t3 10q6 28 1.5 43.5t-19.5 15.5q-19 0 -34 -20t-29 -67h74zM327 346q4 19 -3.5 32.5t-26.5 13.5q-12 0 -22.5 -6t-19 -20.5t-16.5 -39.5t-16 -63q-14 -68 -8.5 -93.5t30.5 -25.5q19 0 31.5 13t15.5 29z" />
    <glyph glyph-name="aeacute" unicode="&#x1fd;" horiz-adv-x="771" 
d="M440 572q-33 5 -61 18.5t-42 36.5l137 167q25 3 50.5 -1t47 -12.5t37.5 -22t23 -29.5zM644 540q83 0 111 -53.5t7 -152.5q-6 -26 -12.5 -48l-11.5 -39q-6 -19 -13 -36h-253q1 -30 16 -46.5t51 -16.5q19 0 36 4t30 9q15 5 28 13q20 -19 31 -55t5 -76q-19 -16 -42 -27
q-20 -10 -47.5 -18t-62.5 -8q-38 0 -62 12.5t-41 36.5l-10 -33q-6 -2 -17 -3q-18 -3 -56 -3q-23 0 -37.5 1t-22.5 3q-10 2 -14 4l1 38q-24 -25 -52 -40.5t-70 -15.5t-72 16.5t-46 51t-17 89t15 131.5q16 76 38 127.5t51.5 83t66 44.5t82.5 13q30 0 55.5 -12t39.5 -41l10 36
q8 2 19 4q10 2 26 3.5t39 1.5t37.5 -1t22.5 -3q9 -2 13 -4l-4 -33q38 26 70.5 34.5t61.5 8.5zM566 321q1 5 2 9t2 9t3 10q6 28 1.5 43.5t-19.5 15.5q-19 0 -34 -20t-29 -67h74zM324 346q4 19 -3.5 32.5t-26.5 13.5q-12 0 -22.5 -6t-19 -20.5t-16.5 -39.5t-16 -63
q-14 -68 -8.5 -93.5t30.5 -25.5q19 0 31.5 13t15.5 29z" />
    <glyph glyph-name="agrave" unicode="&#xe0;" horiz-adv-x="563" 
d="M473 618q-23 -23 -56.5 -36.5t-68.5 -18.5l-120 157q13 16 34 30t46 23t51 13.5t50 1.5zM378 529q11 2 26 4q13 2 31 3.5t41 1.5t41.5 -1t31.5 -3q15 -2 27 -4l-111 -522q-13 -2 -28 -4q-14 -2 -31.5 -3t-40.5 -1t-39.5 1t-27.5 3q-13 2 -22 4l1 38q-26 -25 -58 -40.5
t-74 -15.5t-73.5 17t-49 53t-20 91t13.5 132q16 76 39 127t53.5 81t68.5 42.5t84 12.5q30 0 61 -12t46 -41zM333 346q1 19 -5 32.5t-25 13.5q-14 0 -24.5 -6t-18.5 -20.5t-15 -39.5t-15 -63q-14 -68 -11 -93.5t32 -25.5q19 0 30 12t17 28z" />
    <glyph glyph-name="amacron" unicode="&#x101;" horiz-adv-x="563" 
d="M551 712q1 -11 -1 -26.5t-5.5 -31.5t-8.5 -31.5t-10 -27.5h-315q1 26 8 60.5t17 56.5h315zM378 529q11 2 26 4q13 2 31 3.5t41 1.5t41.5 -1t31.5 -3q15 -2 27 -4l-111 -522q-13 -2 -28 -4q-14 -2 -31.5 -3t-40.5 -1t-39.5 1t-27.5 3q-13 2 -22 4l1 38q-26 -25 -58 -40.5
t-74 -15.5t-73.5 17t-49 53t-20 91t13.5 132q16 76 39 127t53.5 81t68.5 42.5t84 12.5q30 0 61 -12t46 -41zM333 346q1 19 -5 32.5t-25 13.5q-14 0 -24.5 -6t-18.5 -20.5t-15 -39.5t-15 -63q-14 -68 -11 -93.5t32 -25.5q19 0 30 12t17 28z" />
    <glyph glyph-name="ampersand" unicode="&#x26;" horiz-adv-x="663" 
d="M405 690q88 0 130 -35.5t28 -104.5q-7 -34 -25.5 -63t-44.5 -53.5t-57.5 -45.5t-64.5 -39q28 -48 70 -90l28 37t24 36q39 -5 71.5 -26t45.5 -50q-11 -16 -27 -36.5t-36 -41.5q23 -14 47.5 -26t50.5 -23q-22 -50 -62.5 -85t-79.5 -45q-58 22 -108 53q-39 -23 -94 -42.5
t-127 -19.5q-48 0 -87.5 10t-65.5 31t-36.5 54t-0.5 78q9 40 29 73.5t46 60.5t54.5 46.5t53.5 33.5q-8 36 -7.5 70.5t7.5 66.5q17 79 75.5 127.5t162.5 48.5zM375 579q-14 0 -23.5 -10t-14.5 -33q-7 -32 -4 -70q26 20 41 39.5t20 43.5q2 12 -2.5 21t-16.5 9zM225 126
q32 0 66 13q-26 26 -46 55t-35 59q-13 -14 -23 -30t-14 -35q-7 -32 9.5 -47t42.5 -15z" />
    <glyph glyph-name="aogonek" unicode="&#x105;" horiz-adv-x="565" 
d="M378 529q11 2 26 4q13 2 31 3.5t41 1.5t41.5 -1t31.5 -3q15 -2 27 -4l-111 -522q-23 -15 -42 -32t-32 -33.5t-20 -30.5t-7 -23q0 -13 13 -18t34 5q5 -6 8.5 -17.5t4.5 -26t0 -29.5t-5 -27q-23 -13 -56 -21t-65 -7q-37 2 -61 19.5t-28 58.5q-2 22 5.5 45t21.5 44.5
t32.5 41t38.5 35.5l-30 54q-26 -25 -58 -40.5t-74 -15.5t-73.5 17t-49 53t-20 91t13.5 132q16 76 39 127t53.5 81t68.5 42.5t84 12.5q30 0 61 -12t46 -41zM333 346q1 19 -5 32.5t-25 13.5q-14 0 -24.5 -6t-18.5 -20.5t-15 -39.5t-15 -63q-14 -68 -11 -93.5t32 -25.5
q19 0 30 12t17 28z" />
    <glyph glyph-name="approxequal" unicode="&#x2248;" horiz-adv-x="527" 
d="M188 333q-17 0 -30.5 -5t-22.5 -11q-11 -7 -19 -16q-29 13 -49 37.5t-22 62.5q16 21 39 38q20 14 48 26t66 12q35 0 57.5 -8t40 -17.5t35 -17.5t41.5 -8q16 0 29 5t22 11q11 7 19 16q31 -12 50.5 -38.5t20.5 -61.5q-16 -21 -39 -38q-20 -14 -48 -26t-65 -12q-35 0 -58 8
t-41 17.5t-35 17.5t-39 8zM147 143q-17 0 -30 -5t-22 -11q-11 -7 -19 -16q-30 13 -49.5 37.5t-21.5 62.5q16 21 39 38q20 14 48 26t66 12q35 0 57 -8t40 -17.5t35 -17.5t41 -8q16 0 29.5 5t22.5 11q11 7 19 16q31 -12 50.5 -38.5t20.5 -61.5q-16 -21 -39 -38
q-20 -14 -48 -26t-65 -12q-35 0 -58 8t-41.5 17.5l-35.5 17.5t-39 8z" />
    <glyph glyph-name="aring" unicode="&#xe5;" horiz-adv-x="563" 
d="M224 711q6 34 24.5 60.5t44.5 43.5t58 26t64 9q31 0 60 -8.5t49.5 -26t30.5 -43.5t4 -61q-6 -34 -24 -60.5t-44 -44.5t-58.5 -27t-66.5 -9q-72 0 -112.5 36.5t-29.5 104.5zM432 711q3 14 -4.5 24.5t-29.5 10.5q-21 0 -33.5 -11t-15.5 -24q-3 -14 4.5 -25t28.5 -11
q22 0 34.5 11.5t15.5 24.5zM378 529q11 2 26 4q13 2 31 3.5t41 1.5t41.5 -1t31.5 -3q15 -2 27 -4l-111 -522q-13 -2 -28 -4q-14 -2 -31.5 -3t-40.5 -1t-39.5 1t-27.5 3q-13 2 -22 4l1 38q-26 -25 -58 -40.5t-74 -15.5t-73.5 17t-49 53t-20 91t13.5 132q16 76 39 127t53.5 81
t68.5 42.5t84 12.5q30 0 61 -12t46 -41zM333 346q1 19 -5 32.5t-25 13.5q-14 0 -24.5 -6t-18.5 -20.5t-15 -39.5t-15 -63q-14 -68 -11 -93.5t32 -25.5q19 0 30 12t17 28z" />
    <glyph glyph-name="aringacute" unicode="&#x1fb;" horiz-adv-x="563" 
d="M420 1046q23 2 47 -1t44.5 -9.5t36.5 -16t23 -21.5l-174 -117q-31 4 -57.5 14t-40.5 27zM219 716q6 36 23.5 63.5t42.5 45.5t55 27.5t61 9.5q30 0 57.5 -9t47 -27.5t29 -46t3.5 -63.5t-23 -63.5t-42 -46t-55.5 -28.5t-63.5 -10q-69 0 -107.5 38.5t-27.5 109.5zM421 716
q4 16 -4 28.5t-31 12.5q-22 0 -35.5 -13t-16.5 -28q-3 -16 4.5 -29t29.5 -13q23 0 36.5 13.5t16.5 28.5zM378 529q11 2 26 4q13 2 31 3.5t41 1.5t41.5 -1t31.5 -3q15 -2 27 -4l-111 -522q-13 -2 -28 -4q-14 -2 -31.5 -3t-40.5 -1t-39.5 1t-27.5 3q-13 2 -22 4l1 38
q-26 -25 -58 -40.5t-74 -15.5t-73.5 17t-49 53t-20 91t13.5 132q16 76 39 127t53.5 81t68.5 42.5t84 12.5q30 0 61 -12t46 -41zM333 346q1 19 -5 32.5t-25 13.5q-14 0 -24.5 -6t-18.5 -20.5t-15 -39.5t-15 -63q-14 -68 -11 -93.5t32 -25.5q19 0 30 12t17 28z" />
    <glyph glyph-name="arrowdown" unicode="&#x2193;" horiz-adv-x="537" 
d="M273 641q15 4 33 5.5t36 1.5t34.5 -1.5t30.5 -5.5l-79 -372l126 105q23 -6 42 -27t24 -45l-305 -251l-199 251q15 22 43.5 43.5t52.5 28.5l82 -105l79 372v0z" />
    <glyph glyph-name="arrowleft" unicode="&#x2190;" horiz-adv-x="643" 
d="M330 602q22 -11 37.5 -34.5t17.5 -46.5l-127 -104h372q1 -14 -1.5 -31.5t-6.5 -35.5t-9 -35.5t-12 -31.5h-372l83 -104q-6 -12 -16 -24t-22.5 -23t-25.5 -20t-25 -14l-198 252z" />
    <glyph glyph-name="arrowright" unicode="&#x2192;" horiz-adv-x="644" 
d="M333 98q-20 11 -36.5 34.5t-18.5 46.5l126 104h-371q-1 14 1 31.5t6 35.5q8 37 22 67h371l-82 104q11 23 37 46.5t52 34.5l197 -252z" />
    <glyph glyph-name="arrowup" unicode="&#x2191;" horiz-adv-x="539" 
d="M541 397q-15 -24 -43 -45t-53 -27l-82 104l-79 -371q-15 -4 -32.5 -5.5t-35.5 -1.5t-35 1.5t-31 5.5l79 371l-126 -104q-22 7 -41 28.5t-25 43.5l306 251z" />
    <glyph glyph-name="asciicircum" unicode="^" horiz-adv-x="585" 
d="M592 429q-11 -2 -25 -4q-24 -3 -65 -3q-43 0 -65 3q-14 2 -24 4l-64 137l-122 -137q-11 -2 -25 -4q-24 -3 -66 -3t-64 3q-13 2 -24 4l254 284q11 1 23 3q11 2 25.5 3t31.5 1t31 -1t25 -3q12 -2 22 -3z" />
    <glyph glyph-name="asciitilde" unicode="~" horiz-adv-x="523" 
d="M164 229q-17 0 -30.5 -5t-22.5 -11q-11 -7 -19 -16q-30 13 -49.5 37.5t-21.5 62.5q16 21 39 38q20 14 48 26t66 12q35 0 57 -8t40 -17.5t35 -17.5t41 -8q16 0 29.5 5t22.5 11q11 7 19 16q31 -12 50.5 -38.5t20.5 -61.5q-16 -21 -39 -38q-20 -14 -48 -26t-65 -12
q-35 0 -58 8t-41 17.5t-35 17.5t-39 8z" />
    <glyph glyph-name="asterisk" unicode="*" horiz-adv-x="328" 
d="M205 721q24 8 49 7.5t45 -8.5l-14 -64l70 18q11 -16 12 -38.5t-4 -48.5l-67 -19l28 -60q-17 -16 -40.5 -30.5t-48.5 -21.5l-27 57l-51 -57q-23 7 -40.5 21.5t-26.5 30.5l51 58l-57 21q5 26 17 48.5t29 38.5l61 -18z" />
    <glyph glyph-name="at" unicode="@" horiz-adv-x="913" 
d="M891 303q-11 -54 -36.5 -94.5t-60 -68t-75.5 -41.5t-83 -14q-54 0 -90.5 14t-52.5 40q-23 -26 -56 -40t-83 -14q-35 0 -61.5 10t-42 32.5t-19 59.5t8.5 91q12 55 31 92t44 59.5t55.5 32.5t65.5 10t58.5 -7t39.5 -20l4 22q8 2 19 5q10 2 25 3.5t37 1.5q21 0 35.5 -1.5
t23.5 -3.5q11 -3 16 -5l-46 -217q-11 -52 23 -52q24 0 40.5 21t29.5 83q27 128 -25.5 196.5t-182.5 68.5q-137 0 -226 -72t-120 -216q-17 -80 -5 -133.5t44.5 -85.5t81 -45.5t104.5 -13.5q60 0 124 12.5t127 44.5q19 -9 29 -36t8 -52q-84 -49 -165.5 -71.5t-162.5 -22.5
q-85 0 -158 24.5t-122.5 74.5t-69.5 125.5t2 178.5q21 97 70.5 173t120 128.5t159 80t186.5 27.5t169 -27.5t113.5 -77.5t55 -121t-6.5 -159zM405 278q-11 -48 -6.5 -67t35.5 -19q20 0 35.5 12.5t23.5 51.5l12 53q5 35 -5.5 45.5t-28.5 10.5q-15 0 -25.5 -4t-17.5 -14
t-12.5 -27t-10.5 -42z" />
    <glyph glyph-name="atilde" unicode="&#xe3;" horiz-adv-x="563" 
d="M189 700q13 14 31 25q15 10 35.5 18t44.5 8q27 0 46 -5t36 -11t34.5 -11t40.5 -5q16 0 28 4t20 9q10 5 16 13q27 -17 36.5 -48.5t4.5 -63.5q-12 -15 -29 -26q-14 -10 -35 -17.5t-47 -7.5q-27 0 -46 5t-36.5 11t-35 11t-40.5 5q-14 0 -26 -4t-20 -9q-10 -6 -18 -13
q-26 16 -36.5 46.5t-3.5 65.5zM378 529q11 2 26 4q13 2 31 3.5t41 1.5t41.5 -1t31.5 -3q15 -2 27 -4l-111 -522q-13 -2 -28 -4q-14 -2 -31.5 -3t-40.5 -1t-39.5 1t-27.5 3q-13 2 -22 4l1 38q-26 -25 -58 -40.5t-74 -15.5t-73.5 17t-49 53t-20 91t13.5 132q16 76 39 127
t53.5 81t68.5 42.5t84 12.5q30 0 61 -12t46 -41zM333 346q1 19 -5 32.5t-25 13.5q-14 0 -24.5 -6t-18.5 -20.5t-15 -39.5t-15 -63q-14 -68 -11 -93.5t32 -25.5q19 0 30 12t17 28z" />
    <glyph glyph-name="b" unicode="b" horiz-adv-x="568" 
d="M278 476q17 19 38 35q18 13 43 24t54 11q42 0 73 -14t48.5 -47t19 -86.5t-15.5 -131.5t-42 -131.5t-56.5 -85.5t-68.5 -46t-77 -14q-32 0 -52 10t-32 23q-14 15 -21 34l-11 -49q-13 -2 -29 -4q-14 -2 -33 -3t-42 -1t-41.5 1t-32.5 3q-16 2 -28 4l156 734q12 2 29 4
q14 2 33.5 3t42.5 1t41.5 -1t32.5 -3q15 -2 27 -4zM300 392q-15 0 -30.5 -14.5t-22.5 -45.5l-28 -132q-6 -29 3 -42.5t25 -13.5q13 0 23 5.5t18 19.5t15 38t15 60q8 37 11 61t1 38t-9.5 20t-20.5 6z" />
    <glyph glyph-name="backslash" unicode="\" horiz-adv-x="575" 
d="M488 -38q-14 -3 -32 -5q-15 -2 -35 -3t-43 -1t-41.5 1t-32.5 3q-17 2 -30 5l-168 779q14 2 32 4q15 2 35 3.5t43 1.5q22 0 41 -1.5t33 -3.5q17 -2 30 -4z" />
    <glyph glyph-name="bar" unicode="|" horiz-adv-x="334" 
d="M160 782q13 2 31 4q14 2 34.5 3t44.5 1q23 0 42.5 -1t33.5 -3q17 -2 30 -4l-206 -971q-14 -2 -32 -4q-15 -2 -35 -3t-43 -1q-24 0 -43.5 1t-33.5 3q-17 2 -29 4l206 971v0z" />
    <glyph glyph-name="braceleft" unicode="{" horiz-adv-x="424" 
d="M508 810q2 -14 -0.5 -34t-7.5 -40q-4 -20 -10 -40t-13 -34h-35q-30 0 -50 -17t-26 -45l-29 -139q-9 -42 -30 -74t-59 -52q29 -20 36.5 -52.5t-1.5 -74.5l-29 -139q-6 -28 6 -45t42 -17h35q1 -15 -1 -35.5t-7 -41.5q-5 -20 -10.5 -38.5t-12.5 -32.5h-150q-75 0 -105 42.5
t-15 110.5l39 187q6 28 -6.5 45t-42.5 17h-30q-2 14 0.5 34t7.5 41q5 20 11 39t13 33h30q30 0 49.5 17t25.5 45l40 187q14 68 62 110.5t123 42.5h150z" />
    <glyph glyph-name="braceright" unicode="}" horiz-adv-x="424" 
d="M280 810q75 0 105 -42.5t16 -110.5l-40 -187q-6 -28 6.5 -45t42.5 -17h30q1 -14 -1 -33t-7 -39q-5 -21 -10.5 -41t-13.5 -34h-30q-30 0 -49.5 -17t-25.5 -45l-39 -187q-15 -68 -63 -110.5t-123 -42.5h-150q-1 14 0.5 32.5t6.5 38.5q5 21 11 41.5t13 35.5h35q30 0 50 17
t26 45l29 139q9 42 30 74.5t59 52.5q-29 20 -36.5 52t1.5 74l29 139q6 28 -6 45t-42 17h-35q-1 14 1 34t6 40l10.5 40t13.5 34h150z" />
    <glyph glyph-name="bracketleft" unicode="[" horiz-adv-x="356" 
d="M440 810q1 -8 0 -19l-2.5 -22.5t-5.5 -30.5t-8 -30.5t-7 -22.5q-4 -11 -7 -18h-77l-148 -694h77q1 -8 0 -19l-2.5 -22.5t-5.5 -30.5t-8 -30.5t-7 -22.5q-4 -11 -7 -18h-273l208 980h273z" />
    <glyph glyph-name="bracketright" unicode="]" horiz-adv-x="356" 
d="M-78 -170q-1 7 0 18l2.5 22.5t5.5 30.5t8 30.5t7 22.5l7 19h77l148 694h-77q-1 7 0 18l2.5 22.5t5.5 30.5t8 30.5t7 22.5l7 19h273l-208 -980h-273z" />
    <glyph glyph-name="breve" unicode="&#x2d8;" horiz-adv-x="324" 
d="M336 663q-22 -25 -53 -44q-26 -17 -64.5 -30t-89.5 -13t-84 13t-52 30q-22 19 -33 44q16 26 43 50t59 38q10 -8 24 -14q12 -5 30.5 -9.5t44.5 -4.5q25 0 46 4.5t35 9.5q17 6 30 14q26 -14 43 -38t21 -50z" />
    <glyph glyph-name="brokenbar" unicode="&#xa6;" horiz-adv-x="328" 
d="M159 792q13 2 31 4q14 2 34.5 3t44.5 1q23 0 42.5 -1t33.5 -3q17 -2 30 -4l-93 -441q-14 -2 -32 -4q-15 -2 -35 -3t-43 -1q-24 0 -43.5 1t-33.5 3q-17 2 -29 4zM45 252q13 2 30 4q14 2 34.5 3t44.5 1q23 0 42.5 -1t33.5 -3q17 -2 31 -4l-96 -451q-14 -2 -32 -4
q-15 -2 -35 -3t-43 -1q-24 0 -43.5 1t-33.5 3q-17 2 -29 4z" />
    <glyph glyph-name="bullet" unicode="&#x2022;" horiz-adv-x="376" 
d="M327 282q-7 -32 -23.5 -58t-39.5 -44.5t-51.5 -28.5t-58.5 -10q-31 0 -55 10t-40 28.5t-21.5 44.5t1.5 58t23.5 58.5t40 45t52 29t59.5 10.5q30 0 54 -10.5t39.5 -29t21 -45t-1.5 -58.5z" />
    <glyph glyph-name="c" unicode="c" horiz-adv-x="449" 
d="M329 387q-42 0 -65.5 -26t-37.5 -94q-14 -65 -0.5 -90t57.5 -25q16 0 29 2.5t23 5.5q11 4 20 9q20 -24 28 -60t5 -76q-22 -12 -51 -22q-25 -8 -59.5 -14.5t-77.5 -6.5q-122 0 -169.5 74.5t-15.5 223.5q16 73 42 122.5t63.5 79.5t86 43t110.5 13q39 0 69.5 -6t50.5 -13
q24 -9 42 -19q-12 -38 -36 -74.5t-55 -61.5q-6 3 -15 7q-8 3 -19 5.5t-25 2.5z" />
    <glyph glyph-name="cacute" unicode="&#x107;" horiz-adv-x="449" 
d="M307 572q-33 5 -61 18.5t-42 36.5l137 167q25 3 50.5 -1t47 -12.5t37.5 -22t23 -29.5zM329 387q-42 0 -65.5 -26t-37.5 -94q-14 -65 -0.5 -90t57.5 -25q16 0 29 2.5t23 5.5q11 4 20 9q20 -24 28 -60t5 -76q-22 -12 -51 -22q-25 -8 -59.5 -14.5t-77.5 -6.5
q-122 0 -169.5 74.5t-15.5 223.5q16 73 42 122.5t63.5 79.5t86 43t110.5 13q39 0 69.5 -6t50.5 -13q24 -9 42 -19q-12 -38 -36 -74.5t-55 -61.5q-6 3 -15 7q-8 3 -19 5.5t-25 2.5z" />
    <glyph glyph-name="caron" unicode="&#x2c7;" horiz-adv-x="404" 
d="M-20 674q20 29 47.5 53.5t59.5 38.5l105 -74l136 73q26 -14 43.5 -38t23.5 -53l-212 -158h-55z" />
    <glyph glyph-name="ccaron" unicode="&#x10d;" horiz-adv-x="449" 
d="M146 710q18 27 43.5 49.5t54.5 35.5l95 -69l125 68q24 -13 40.5 -35t21.5 -49l-183 -137h-50zM329 387q-42 0 -65.5 -26t-37.5 -94q-14 -65 -0.5 -90t57.5 -25q16 0 29 2.5t23 5.5q11 4 20 9q20 -24 28 -60t5 -76q-22 -12 -51 -22q-25 -8 -59.5 -14.5t-77.5 -6.5
q-122 0 -169.5 74.5t-15.5 223.5q16 73 42 122.5t63.5 79.5t86 43t110.5 13q39 0 69.5 -6t50.5 -13q24 -9 42 -19q-12 -38 -36 -74.5t-55 -61.5q-6 3 -15 7q-8 3 -19 5.5t-25 2.5z" />
    <glyph glyph-name="ccedilla" unicode="&#xe7;" horiz-adv-x="447" 
d="M112 -121l-10 16l46 99q-94 15 -127.5 88.5t-5.5 205.5q16 73 42 122.5t63.5 79.5t86 43t110.5 13q39 0 69.5 -6t50.5 -13q24 -9 42 -19q-12 -38 -36 -74.5t-55 -61.5q-6 3 -15 7q-8 3 -19 5.5t-25 2.5q-42 0 -65.5 -26t-37.5 -94q-14 -65 -0.5 -90t57.5 -25q16 0 29 2.5
t23 5.5q11 4 20 9q20 -24 28 -60t5 -76q-17 -9 -38 -17q-18 -7 -44 -13.5t-58 -9.5l-16 -42q50 -5 67.5 -32t9.5 -70q-6 -28 -21.5 -48t-38 -33t-51 -19t-59.5 -6q-30 0 -52.5 3.5t-38.5 8.5q-18 5 -32 12q1 8 5 18.5t9.5 21.5t12.5 20t14 14q10 -4 28.5 -9.5t37.5 -6.5
t34.5 4.5t18.5 23.5q2 11 -4 18.5t-18 7.5h-42z" />
    <glyph glyph-name="ccircumflex" unicode="&#x109;" horiz-adv-x="449" 
d="M522 653q-19 -28 -44.5 -50.5t-54.5 -34.5l-98 68l-126 -67q-25 12 -41 34t-22 50l190 139h52zM329 387q-42 0 -65.5 -26t-37.5 -94q-14 -65 -0.5 -90t57.5 -25q16 0 29 2.5t23 5.5q11 4 20 9q20 -24 28 -60t5 -76q-22 -12 -51 -22q-25 -8 -59.5 -14.5t-77.5 -6.5
q-122 0 -169.5 74.5t-15.5 223.5q16 73 42 122.5t63.5 79.5t86 43t110.5 13q39 0 69.5 -6t50.5 -13q24 -9 42 -19q-12 -38 -36 -74.5t-55 -61.5q-6 3 -15 7q-8 3 -19 5.5t-25 2.5z" />
    <glyph glyph-name="cdotaccent" unicode="&#x10b;" horiz-adv-x="449" 
d="M413 599q-11 -2 -25 -4q-12 -2 -29.5 -3t-39.5 -1q-23 0 -39.5 1t-28.5 3q-14 2 -24 4l36 167l24 3q12 2 29.5 3t40.5 1q22 0 39 -1t29 -3l24 -3zM329 387q-42 0 -65.5 -26t-37.5 -94q-14 -65 -0.5 -90t57.5 -25q16 0 29 2.5t23 5.5q11 4 20 9q20 -24 28 -60t5 -76
q-22 -12 -51 -22q-25 -8 -59.5 -14.5t-77.5 -6.5q-122 0 -169.5 74.5t-15.5 223.5q16 73 42 122.5t63.5 79.5t86 43t110.5 13q39 0 69.5 -6t50.5 -13q24 -9 42 -19q-12 -38 -36 -74.5t-55 -61.5q-6 3 -15 7q-8 3 -19 5.5t-25 2.5z" />
    <glyph glyph-name="cedilla" unicode="&#xb8;" horiz-adv-x="296" 
d="M-53 -121l-10 16l49 105h100l-19 -49q50 -5 67.5 -32t9.5 -70q-6 -28 -21.5 -48t-38 -33t-51 -19t-59.5 -6q-30 0 -52.5 3.5t-38.5 8.5q-18 5 -32 12q1 8 5 18.5t9.5 21.5t12.5 20t14 14q10 -4 28.5 -9.5t37.5 -6.5t34.5 4.5t18.5 23.5q2 11 -4 18.5t-18 7.5h-42z" />
    <glyph glyph-name="cent" unicode="&#xa2;" horiz-adv-x="481" 
d="M265 627q13 2 28 5q13 2 29.5 3.5t35.5 1.5q20 0 36.5 -1.5t28.5 -3.5q14 -3 25 -5l-28 -92q17 -5 30.5 -9.5t22.5 -8.5q11 -4 18 -9q-12 -38 -35.5 -72t-54.5 -59q-6 3 -15 7q-8 3 -19 5.5t-25 2.5q-42 0 -66 -28.5t-38 -96.5q-14 -66 -1.5 -93t57.5 -27q16 0 29 2.5
t23 5.5q11 4 20 9q40 -49 34 -131q-11 -6 -25 -12q-12 -5 -29.5 -10.5t-39.5 -10.5l-13 -101q-12 -3 -27 -5q-28 -5 -67 -5q-19 0 -35 1.5t-28 3.5q-14 2 -26 5l30 97q-83 16 -114.5 79t-5.5 188q26 124 84.5 191t150.5 85l10 88v0z" />
    <glyph glyph-name="circumflex" unicode="&#x2c6;" horiz-adv-x="396" 
d="M384 628q-20 -29 -47 -53.5t-59 -38.5l-105 74l-136 -73q-26 14 -43.5 38t-24.5 53l213 158h55z" />
    <glyph glyph-name="colon" unicode=":" horiz-adv-x="282" 
d="M248 324q-12 -2 -28 -4q-14 -2 -33 -3t-44 -1t-43.5 1t-31.5 3q-15 2 -26 4l41 194q11 2 27 4q14 2 33 3t45 1q25 0 43.5 -1t31.5 -3q15 -2 26 -4zM181 8q-12 -2 -28 -4q-14 -2 -33 -3t-44 -1t-43.5 1t-31.5 3q-15 2 -26 4l41 194q11 2 27 4q14 2 33 3t45 1q25 0 43.5 -1
t31.5 -3q15 -2 26 -4z" />
    <glyph glyph-name="comma" unicode="," horiz-adv-x="277" 
d="M-24 -116q13 14 25 32q11 15 21 36.5t18 47.5q-14 1 -26 2t-21 3q-11 2 -20 3l41 195q12 2 28 4q14 2 33.5 3t43.5 1q23 0 41 -1t32 -3q16 -2 28 -4l-33 -155q-11 -51 -35 -90t-49 -67q-29 -33 -63 -58z" />
    <glyph glyph-name="commaaccentcomb" unicode="&#xf6c3;" horiz-adv-x="0" 
d="M-118 -116q13 14 25 32q11 15 21 36.5t18 47.5q-14 1 -26 2t-21 3q-11 2 -20 3l41 195q12 2 28 4q14 2 33.5 3t43.5 1q23 0 41 -1t32 -3q16 -2 28 -4l-33 -155q-11 -51 -35 -90t-49 -67q-29 -33 -63 -58z" />
    <glyph glyph-name="commaaccentcomb.alt" horiz-adv-x="0" 
d="M185 669q-13 -14 -25 -32q-11 -15 -21.5 -37t-18.5 -48q14 -1 26 -2t22 -2q11 -2 21 -3l-42 -195q-12 -2 -28 -4q-14 -2 -33 -3t-43 -1q-23 0 -41.5 1t-32.5 3q-16 2 -28 4l33 155q11 50 35 89.5t49 67.5q29 33 63 58z" />
    <glyph glyph-name="copyright" unicode="&#xa9;" horiz-adv-x="790" 
d="M324 -30q-77 0 -138 29t-101 79t-54.5 117.5t1.5 144.5t59.5 144.5t104.5 117.5t134.5 79t150.5 29t138 -29t100.5 -79t54 -117.5t-1.5 -144.5t-59.5 -144.5t-104 -117.5t-134 -79t-150.5 -29zM453 581q-50 0 -97.5 -19t-86.5 -51.5t-66.5 -76.5t-38.5 -94t-1.5 -94
t34.5 -76.5t64.5 -51.5t89.5 -19t97.5 19t86.5 51.5t66.5 76.5t38.5 94t2 94t-34.5 76.5t-65 51.5t-89.5 19zM364 143q-88 0 -122 51.5t-14 148.5q43 199 221 199q29 0 50.5 -6t36.5 -13q18 -8 31 -18q-8 -29 -27.5 -53t-45.5 -38q-5 3 -11 7q-6 2 -14.5 4.5t-19.5 2.5
q-29 0 -48 -19t-29 -67q-11 -47 0.5 -64t40.5 -17q23 0 40 5q8 3 15 6q21 -11 30.5 -36.5t4.5 -54.5q-18 -11 -40 -19q-19 -8 -44.5 -13.5t-54.5 -5.5z" />
    <glyph glyph-name="currency" unicode="&#xa4;" horiz-adv-x="607" 
d="M356 60q-56 -25 -111 -25q-57 0 -99 25l-84 -69q-9 2 -20 6q-9 4 -19.5 11.5t-21.5 21.5q-11 13 -15 25.5t-6 21.5q-2 11 -1 20l83 69q-7 23 -8 49.5t6 55.5q5 28 17.5 54.5t29.5 50.5l-54 69q3 10 10 21q6 10 16 21.5t26 25.5q17 14 30 21.5t24 11.5t22 5l54 -69
q55 25 111 25q55 0 99 -25l84 69q8 -1 19 -5q8 -4 19 -11.5t22 -21.5t15.5 -25.5t6.5 -21.5q2 -11 2 -21l-84 -69q14 -49 3 -105q-14 -59 -48 -105l55 -69q-3 -10 -10 -21q-6 -10 -16 -22.5t-26 -25.5q-17 -15 -30.5 -22.5t-24.5 -10.5q-12 -4 -22 -4zM314 356
q-18 0 -34.5 -6.5t-30.5 -18t-24 -27t-14 -33.5q-8 -36 11.5 -60.5t54.5 -24.5q36 0 66 24.5t38 60.5t-11.5 60.5t-55.5 24.5z" />
    <glyph glyph-name="d" unicode="d" horiz-adv-x="571" 
d="M16 263q16 76 40.5 130t56 88t70.5 49.5t85 15.5q36 0 61 -13.5t42 -36.5l52 245q12 2 29 4q14 2 33.5 3.5t42.5 1.5t41.5 -1t32.5 -3q15 -2 27 -4l-156 -734q-12 -2 -28 -4q-14 -2 -32 -3t-41 -1t-40 1t-28 3q-13 2 -22 4l6 58q-14 -21 -34 -38q-17 -14 -43.5 -26
t-61.5 -12q-42 0 -74 14t-50.5 46t-21.5 84t13 129zM257 144q19 0 30 12t18 28l34 162q1 19 -4.5 32.5t-24.5 13.5q-14 0 -24.5 -6t-18.5 -20.5t-15.5 -39.5t-15.5 -63q-14 -68 -11 -93.5t32 -25.5z" />
    <glyph glyph-name="dagger" unicode="&#x2020;" horiz-adv-x="585" 
d="M123 -101l111 489l-193 -7q0 11 2 22q1 19 8 50q3 15 6.5 28t6.5 23l7 20l191 -7l33 189q12 1 27 2q13 1 29 2t34 1t33.5 -1t27.5 -2q14 -1 26 -2l-47 -189l181 7l-2 -22q-1 -10 -2.5 -22.5t-4.5 -26.5t-7 -27l-7 -23q-4 -11 -7 -22l-179 7l-97 -489l-97 -50z" />
    <glyph glyph-name="daggerdbl" unicode="&#x2021;" horiz-adv-x="616" 
d="M560 198l-2 -22q-2 -10 -3.5 -23t-4.5 -27q-4 -15 -7 -27.5t-6 -22.5q-4 -11 -7 -21l-191 7l-33 -189q-12 -2 -27 -3q-13 -1 -29.5 -1.5t-33.5 -0.5q-18 0 -34 0.5t-28 1.5q-14 1 -25 3l47 189l-192 -7q0 11 1 22q1 10 3 22.5t5 26.5t6.5 27t6.5 23l8 22l190 -7l13 98
l28 99l-193 -7q0 11 2 23q2 11 3.5 23.5t4.5 26.5t6.5 26.5l6.5 22.5q4 11 7 21l191 -7l33 189q12 1 27 2q13 1 29 2t34 1t33.5 -1t27.5 -2q14 -1 26 -2l-47 -189l192 7l-2 -22q-1 -10 -2.5 -22.5t-4.5 -26.5t-7 -27l-7 -23q-4 -11 -7 -22l-190 7l-14 -99l-27 -98z" />
    <glyph glyph-name="dcaron" unicode="&#x10f;" horiz-adv-x="591" 
d="M615 579q18 21 31 39t21.5 37t13 40t6.5 47q43 11 83.5 10t63.5 -13q-6 -30 -18.5 -58t-29.5 -52t-37.5 -42.5t-42.5 -30.5q-25 -5 -51.5 1.5t-39.5 21.5zM16 263q16 76 40.5 130t56 88t70.5 49.5t85 15.5q36 0 61 -13.5t42 -36.5l52 245q12 2 29 4q14 2 33.5 3.5
t42.5 1.5t41.5 -1t32.5 -3q15 -2 27 -4l-156 -734q-12 -2 -28 -4q-14 -2 -32 -3t-41 -1t-40 1t-28 3q-13 2 -22 4l6 58q-14 -21 -34 -38q-17 -14 -43.5 -26t-61.5 -12q-42 0 -74 14t-50.5 46t-21.5 84t13 129zM257 144q19 0 30 12t18 28l34 162q1 19 -4.5 32.5t-24.5 13.5
q-14 0 -24.5 -6t-18.5 -20.5t-15.5 -39.5t-15.5 -63q-14 -68 -11 -93.5t32 -25.5z" />
    <glyph glyph-name="dcroat" unicode="&#x111;" horiz-adv-x="571" 
d="M303 580q-1 7 0 17q1 8 2 19t4 25q6 27 12 41q4 9 7 15h85l10 44q12 2 29 4q14 2 33.5 3.5t42.5 1.5t41.5 -1t32.5 -3q15 -2 27 -4l-10 -45h47q1 -6 1 -15q0 -8 -1 -18t-4 -23q-3 -14 -6.5 -25t-6.5 -19q-4 -10 -8 -17h-47l-121 -572q-12 -2 -28 -4q-14 -2 -32 -3t-41 -1
t-40 1t-28 3q-13 2 -22 4l6 58q-14 -21 -34 -38q-17 -14 -43.5 -26t-61.5 -12q-42 0 -74 14t-50.5 46t-21.5 84t13 129q16 76 40.5 130t56 88t70.5 49.5t85 15.5q36 0 61 -13.5t42 -36.5l18 84h-86zM257 144q19 0 30 12t18 28l34 162q1 19 -4.5 32.5t-24.5 13.5
q-14 0 -24.5 -6t-18.5 -20.5t-15.5 -39.5t-15.5 -63q-14 -68 -11 -93.5t32 -25.5z" />
    <glyph glyph-name="degree" unicode="&#xb0;" horiz-adv-x="368" 
d="M72 580q7 31 24.5 61t44 53.5t61 38t76.5 14.5t70.5 -14t44.5 -37t20 -52.5t-2 -59.5q-6 -31 -23 -60.5t-43 -52.5t-60.5 -37t-76.5 -14q-44 0 -73 13.5t-45 36t-20 51.5t2 59zM277 583q3 14 -3.5 25t-23.5 11q-19 0 -30.5 -11.5t-14.5 -25.5q-3 -13 3.5 -24t25.5 -11
q17 0 28.5 11t14.5 25z" />
    <glyph glyph-name="dieresis" unicode="&#xa8;" horiz-adv-x="455" 
d="M174 603q-11 -2 -24 -4q-23 -3 -65 -3q-43 0 -65 3q-13 2 -22 4l32 148q10 1 23 3q11 2 27.5 3t38.5 1q21 0 37 -1t27 -3q13 -2 23 -3zM399 603q-11 -2 -24 -4q-23 -3 -65 -3q-43 0 -65 3q-13 2 -22 4l32 148q10 1 23 3q11 2 27.5 3t38.5 1q21 0 37 -1t27 -3q13 -2 23 -3
z" />
    <glyph glyph-name="divide" unicode="&#xf7;" horiz-adv-x="497" 
d="M362 399q-11 -2 -25 -4q-12 -2 -30 -3t-40 -1q-23 0 -40 1t-28 3q-13 2 -23 4l37 174l24 3q12 2 29.5 3t40.5 1q22 0 39 -1t29 -3l24 -3zM10 219q-1 8 0 19l2.5 22t5.5 30q3 17 7 30l7 22q4 11 8 19h440q1 -8 0 -19l-2.5 -22t-4.5 -30q-4 -17 -8 -30l-7 -22
q-4 -11 -8 -19h-440zM279 8q-11 -2 -25 -4q-12 -2 -30 -3t-40 -1q-23 0 -40 1t-28 3q-13 2 -23 4l37 174l24 3q12 2 29.5 3t40.5 1q22 0 39 -1t29 -3l24 -3z" />
    <glyph glyph-name="dollar" unicode="$" horiz-adv-x="590" 
d="M313 781q10 2 22 4q11 2 26 3t35 1t35.5 -1t25.5 -3q11 -2 19 -4l-33 -111q35 -3 63.5 -9t48.5 -11q24 -6 42 -13q-1 -10 -5 -21q-3 -10 -8 -23.5t-13 -29.5q-8 -15 -17 -27l-16 -21l-16 -19q-22 3 -46 7q-20 3 -44 5.5t-47 2.5q-43 0 -74.5 -7.5t-35.5 -25.5
q-4 -16 19 -25t58 -18.5t75 -22.5t71.5 -36.5t48 -62.5t3.5 -99q-19 -90 -83 -143t-166 -68l-17 -124q-10 -2 -22 -4q-11 -2 -25.5 -3t-34.5 -1t-34.5 1t-25.5 3q-12 2 -21 4l35 122q-42 4 -76 12.5t-58 16.5q-28 10 -51 21q3 11 7 23l9 25t13 29t16.5 27.5t15.5 21.5
q8 11 16 20q25 -8 55 -14q26 -5 60.5 -9t73.5 -4q37 0 68 7t35 24q3 12 -9.5 20t-34.5 15t-50 13.5t-56.5 17t-55 25t-44.5 37.5t-25.5 55t2.5 77q17 78 75.5 132t154.5 72l16 116v0z" />
    <glyph glyph-name="dotaccent" unicode="&#x2d9;" horiz-adv-x="217" 
d="M173 582q-11 -2 -25 -4q-12 -2 -30 -3t-40 -1q-23 0 -40 1t-28 3q-13 2 -23 4l37 174l24 3q12 2 29.5 3t40.5 1q22 0 39 -1t29 -3l24 -3z" />
    <glyph glyph-name="dotlessi" unicode="&#x131;" horiz-adv-x="276" 
d="M178 8q-12 -2 -28 -4q-14 -2 -33 -3t-44 -1t-43.5 1t-31.5 3q-15 2 -26 4l110 520q11 2 27 4q14 2 33 3t45 1q25 0 43.5 -1t31.5 -3q15 -2 26 -4z" />
    <glyph glyph-name="dotlessj" unicode="&#x237;" horiz-adv-x="276" 
d="M82 528q12 2 28 4q14 2 33.5 3t43.5 1q23 0 41 -1t32 -3q16 -2 28 -4l-131 -616q-17 -78 -68.5 -120t-149.5 -42q-32 0 -55 4.5t-39 9.5q-18 6 -31 15q0 6 1 13q1 6 1.5 14t2.5 17q5 23 12.5 42t14.5 32q8 15 17 26q5 -2 11 -3q5 -1 11.5 -1.5t13.5 -0.5q26 0 42.5 13.5
t24.5 51.5z" />
    <glyph glyph-name="e" unicode="e" horiz-adv-x="511" 
d="M215 211q-3 -38 14 -48.5t52 -10.5q20 0 37 3.5t30 8.5q15 5 28 12q9 -11 17.5 -26.5t15 -33.5t9.5 -37t2 -36q-19 -16 -47 -27q-25 -10 -63 -18t-92 -8q-127 0 -180.5 76.5t-23.5 219.5q30 140 107 200t193 60q51 0 90.5 -15t65 -42.5t34.5 -68t-2 -91.5
q-6 -26 -12.5 -47.5l-11.5 -37.5q-6 -18 -12 -33h-251zM320 350q6 26 0 42t-22 16q-17 0 -34 -18.5t-31 -68.5h80q2 7 3.5 14t3.5 15z" />
    <glyph glyph-name="eacute" unicode="&#xe9;" horiz-adv-x="510" 
d="M313 572q-33 5 -61 18.5t-42 36.5l137 167q25 3 50.5 -1t47 -12.5t37.5 -22t23 -29.5zM215 211q-3 -38 14 -48.5t52 -10.5q20 0 37 3.5t30 8.5q15 5 28 12q9 -11 17.5 -26.5t15 -33.5t9.5 -37t2 -36q-19 -16 -47 -27q-25 -10 -63 -18t-92 -8q-127 0 -180.5 76.5
t-23.5 219.5q30 140 107 200t193 60q51 0 90.5 -15t65 -42.5t34.5 -68t-2 -91.5q-6 -26 -12.5 -47.5l-11.5 -37.5q-6 -18 -12 -33h-251zM320 350q6 26 0 42t-22 16q-17 0 -34 -18.5t-31 -68.5h80q2 7 3.5 14t3.5 15z" />
    <glyph glyph-name="ebreve" unicode="&#x115;" horiz-adv-x="511" 
d="M522 668q-22 -25 -52 -44q-26 -17 -64.5 -30t-89.5 -13t-84 13t-52 30q-23 19 -34 44q17 26 43.5 50t58.5 38q10 -8 24 -14q12 -5 30.5 -9.5t44.5 -4.5q25 0 46 4.5t35 9.5q17 6 30 14q26 -14 43.5 -38t20.5 -50zM215 211q-3 -38 14 -48.5t52 -10.5q20 0 37 3.5t30 8.5
q15 5 28 12q9 -11 17.5 -26.5t15 -33.5t9.5 -37t2 -36q-19 -16 -47 -27q-25 -10 -63 -18t-92 -8q-127 0 -180.5 76.5t-23.5 219.5q30 140 107 200t193 60q51 0 90.5 -15t65 -42.5t34.5 -68t-2 -91.5q-6 -26 -12.5 -47.5l-11.5 -37.5q-6 -18 -12 -33h-251zM320 350q6 26 0 42
t-22 16q-17 0 -34 -18.5t-31 -68.5h80q2 7 3.5 14t3.5 15z" />
    <glyph glyph-name="ecaron" unicode="&#x11b;" horiz-adv-x="510" 
d="M154 719q20 28 46 51t55 36l102 -70l128 69q26 -13 42 -35.5t23 -50.5l-197 -148h-52zM215 211q-3 -38 14 -48.5t52 -10.5q20 0 37 3.5t30 8.5q15 5 28 12q9 -11 17.5 -26.5t15 -33.5t9.5 -37t2 -36q-19 -16 -47 -27q-25 -10 -63 -18t-92 -8q-127 0 -180.5 76.5
t-23.5 219.5q30 140 107 200t193 60q51 0 90.5 -15t65 -42.5t34.5 -68t-2 -91.5q-6 -26 -12.5 -47.5l-11.5 -37.5q-6 -18 -12 -33h-251zM320 350q6 26 0 42t-22 16q-17 0 -34 -18.5t-31 -68.5h80q2 7 3.5 14t3.5 15z" />
    <glyph glyph-name="ecircumflex" unicode="&#xea;" horiz-adv-x="511" 
d="M540 651q-20 -29 -47 -52.5t-57 -36.5l-103 72l-133 -71q-26 13 -42.5 36t-23.5 52l203 147h54zM215 211q-3 -38 14 -48.5t52 -10.5q20 0 37 3.5t30 8.5q15 5 28 12q9 -11 17.5 -26.5t15 -33.5t9.5 -37t2 -36q-19 -16 -47 -27q-25 -10 -63 -18t-92 -8q-127 0 -180.5 76.5
t-23.5 219.5q30 140 107 200t193 60q51 0 90.5 -15t65 -42.5t34.5 -68t-2 -91.5q-6 -26 -12.5 -47.5l-11.5 -37.5q-6 -18 -12 -33h-251zM320 350q6 26 0 42t-22 16q-17 0 -34 -18.5t-31 -68.5h80q2 7 3.5 14t3.5 15z" />
    <glyph glyph-name="edieresis" unicode="&#xeb;" horiz-adv-x="510" 
d="M300 589q-11 -2 -24 -4q-23 -3 -65 -3q-43 0 -65 3q-13 2 -22 4l32 148q10 1 23 3q11 2 27.5 3t38.5 1q21 0 37 -1t27 -3q13 -2 23 -3zM525 589q-11 -2 -24 -4q-23 -3 -65 -3q-43 0 -65 3q-13 2 -22 4l32 148q10 1 23 3q11 2 27.5 3t38.5 1q21 0 37 -1t27 -3q13 -2 23 -3
zM215 211q-3 -38 14 -48.5t52 -10.5q20 0 37 3.5t30 8.5q15 5 28 12q9 -11 17.5 -26.5t15 -33.5t9.5 -37t2 -36q-19 -16 -47 -27q-25 -10 -63 -18t-92 -8q-127 0 -180.5 76.5t-23.5 219.5q30 140 107 200t193 60q51 0 90.5 -15t65 -42.5t34.5 -68t-2 -91.5
q-6 -26 -12.5 -47.5l-11.5 -37.5q-6 -18 -12 -33h-251zM320 350q6 26 0 42t-22 16q-17 0 -34 -18.5t-31 -68.5h80q2 7 3.5 14t3.5 15z" />
    <glyph glyph-name="edotaccent" unicode="&#x117;" horiz-adv-x="510" 
d="M424 591q-11 -2 -25 -4q-12 -2 -30 -3t-40 -1q-23 0 -40 1t-28 3q-13 2 -23 4l37 174l24 3q12 2 29.5 3t40.5 1q22 0 39 -1t29 -3l24 -3zM215 211q-3 -38 14 -48.5t52 -10.5q20 0 37 3.5t30 8.5q15 5 28 12q9 -11 17.5 -26.5t15 -33.5t9.5 -37t2 -36q-19 -16 -47 -27
q-25 -10 -63 -18t-92 -8q-127 0 -180.5 76.5t-23.5 219.5q30 140 107 200t193 60q51 0 90.5 -15t65 -42.5t34.5 -68t-2 -91.5q-6 -26 -12.5 -47.5l-11.5 -37.5q-6 -18 -12 -33h-251zM320 350q6 26 0 42t-22 16q-17 0 -34 -18.5t-31 -68.5h80q2 7 3.5 14t3.5 15z" />
    <glyph glyph-name="egrave" unicode="&#xe8;" horiz-adv-x="511" 
d="M192 729q13 16 35 29.5t47.5 22t52.5 12.5t51 1l65 -167q-23 -23 -56.5 -36.5t-68.5 -18.5zM215 211q-3 -38 14 -48.5t52 -10.5q20 0 37 3.5t30 8.5q15 5 28 12q9 -11 17.5 -26.5t15 -33.5t9.5 -37t2 -36q-19 -16 -47 -27q-25 -10 -63 -18t-92 -8q-127 0 -180.5 76.5
t-23.5 219.5q30 140 107 200t193 60q51 0 90.5 -15t65 -42.5t34.5 -68t-2 -91.5q-6 -26 -12.5 -47.5l-11.5 -37.5q-6 -18 -12 -33h-251zM320 350q6 26 0 42t-22 16q-17 0 -34 -18.5t-31 -68.5h80q2 7 3.5 14t3.5 15z" />
    <glyph glyph-name="eight" unicode="8" horiz-adv-x="586" 
d="M220 -20q-61 0 -107.5 12.5t-76 36.5t-40.5 59t-1 80q7 32 21.5 58t34.5 47.5t43.5 38t47.5 29.5q-32 29 -50 70t-5 101q9 42 33 76.5t61 59t86.5 38.5t108.5 14q114 0 168 -47t36 -130q-11 -53 -43 -90t-69 -62q19 -15 35 -33.5t26 -42t12.5 -52.5t-4.5 -65
q-10 -45 -36 -81.5t-66.5 -62.5t-94.5 -40t-120 -14zM347 560q-23 0 -37.5 -12.5t-18.5 -31.5q-5 -23 9 -39t40 -31q16 11 29.5 27t18.5 38q9 49 -41 49zM255 127q33 0 51 15.5t23 37.5q5 25 -13.5 44t-48.5 37q-22 -14 -43 -34t-27 -46q-5 -23 8 -38.5t50 -15.5z" />
    <glyph glyph-name="eight.denom" horiz-adv-x="333" 
d="M14 253q10 47 49.5 71t112.5 24q137 0 119 -89q-5 -26 -22.5 -46.5t-42.5 -30.5q26 -12 38 -33t6 -52q-11 -48 -53.5 -75t-120.5 -27q-150 0 -129 97q5 28 25.5 49t51.5 32q-23 11 -31.5 31.5t-2.5 48.5zM177 249q2 8 -1.5 13.5t-16.5 5.5q-11 0 -16 -5t-6 -11
q-5 -18 23 -29q7 5 11 12.5t6 13.5zM151 98q2 11 -5 19t-30 16q-6 -4 -10 -9t-7.5 -10.5t-4.5 -11.5q-2 -9 3 -16.5t23 -7.5q14 0 21.5 6t9.5 14z" />
    <glyph glyph-name="eight.num" horiz-adv-x="333" 
d="M87 599q10 47 49.5 71t112.5 24q138 0 120 -89q-6 -26 -23 -46.5t-43 -30.5q27 -12 39 -33t5 -52q-10 -48 -53 -75t-121 -27q-150 0 -129 97q6 28 26 49t51 32q-23 11 -31.5 31.5t-2.5 48.5zM250 595q2 8 -1.5 13.5t-16.5 5.5q-11 0 -15.5 -5t-6.5 -11q-3 -19 24 -29
q6 5 10.5 12.5t5.5 13.5zM224 444q3 11 -4.5 19t-29.5 16q-6 -4 -10 -9t-7.5 -10.5t-5.5 -11.5q-2 -9 3 -16.5t23 -7.5q14 0 21.5 6t9.5 14z" />
    <glyph glyph-name="eightinferior" unicode="&#x2088;" horiz-adv-x="333" 
d="M-7 157q11 47 50.5 71t112.5 24q137 0 119 -89q-6 -26 -23 -46.5t-43 -30.5q27 -12 39 -33t5 -52q-10 -48 -53 -75t-121 -27q-150 0 -129 97q6 28 26 49t51 32q-23 11 -31.5 31.5t-2.5 48.5zM156 153q2 8 -1 13.5t-16 5.5q-11 0 -16 -5t-7 -11q-3 -19 24 -29
q6 5 10.5 12.5t5.5 13.5zM130 2q3 11 -4.5 19t-29.5 16q-6 -4 -10 -9t-7.5 -10.5t-5.5 -11.5q-2 -9 3 -16.5t23 -7.5q14 0 21.5 6t9.5 14z" />
    <glyph glyph-name="ellipsis" unicode="&#x2026;" horiz-adv-x="748" 
d="M179 8q-12 -2 -28 -4q-14 -2 -33 -3t-44 -1t-43.5 1t-31.5 3q-15 2 -26 4l41 194q11 2 27 4q14 2 33 3t45 1q25 0 43.5 -1t31.5 -3q15 -2 26 -4zM415 8q-12 -2 -28 -4q-14 -2 -33 -3t-44 -1t-43.5 1t-31.5 3q-15 2 -26 4l41 194q11 2 27 4q14 2 33 3t45 1q25 0 43.5 -1
t31.5 -3q15 -2 26 -4zM651 8q-12 -2 -28 -4q-14 -2 -33 -3t-44 -1t-43.5 1t-31.5 3q-15 2 -26 4l41 194q11 2 27 4q14 2 33 3t45 1q25 0 43.5 -1t31.5 -3q15 -2 26 -4z" />
    <glyph glyph-name="emacron" unicode="&#x113;" horiz-adv-x="511" 
d="M169 591q0 25 7 59t17 56h296q1 -11 -1 -26t-5.5 -31t-8 -31t-9.5 -27h-296zM215 211q-3 -38 14 -48.5t52 -10.5q20 0 37 3.5t30 8.5q15 5 28 12q9 -11 17.5 -26.5t15 -33.5t9.5 -37t2 -36q-19 -16 -47 -27q-25 -10 -63 -18t-92 -8q-127 0 -180.5 76.5t-23.5 219.5
q30 140 107 200t193 60q51 0 90.5 -15t65 -42.5t34.5 -68t-2 -91.5q-6 -26 -12.5 -47.5l-11.5 -37.5q-6 -18 -12 -33h-251zM320 350q6 26 0 42t-22 16q-17 0 -34 -18.5t-31 -68.5h80q2 7 3.5 14t3.5 15z" />
    <glyph glyph-name="emdash" unicode="&#x2014;" horiz-adv-x="780" 
d="M27 219q-1 8 0 19l2.5 22t5.5 30q3 17 7 30l7 22q4 11 8 19h690q1 -8 0 -19l-2.5 -22t-4.5 -30q-4 -17 -8 -30l-7 -22q-4 -11 -8 -19h-690z" />
    <glyph glyph-name="endash" unicode="&#x2013;" horiz-adv-x="530" 
d="M27 219q-1 8 0 19l2.5 22t5.5 30q3 17 7 30l7 22q4 11 8 19h440q1 -8 0 -19l-2.5 -22t-4.5 -30q-4 -17 -8 -30l-7 -22q-4 -11 -8 -19h-440z" />
    <glyph glyph-name="eng" unicode="&#x14b;" 
d="M441 -38q-20 -92 -75 -141.5t-146 -73.5q-29 19 -35.5 49.5t-0.5 66.5q12 5 19.5 12t12.5 18.5t9.5 28t9.5 40.5l84 392q8 38 -26 38q-17 0 -37 -14l-79 -370q-11 -2 -27 -4q-14 -2 -33 -3t-44 -1t-44 1t-32 3q-15 2 -26 4l111 520q11 2 27 4q14 2 32.5 3t44.5 1
q25 0 42.5 -1t28.5 -3q13 -2 21 -4l-1 -50q67 68 142 68q38 0 63.5 -10.5t39.5 -30t17 -46t-4 -59.5z" />
    <glyph glyph-name="eogonek" unicode="&#x119;" horiz-adv-x="511" 
d="M215 211q-3 -38 14 -48.5t52 -10.5q20 0 37 3.5t30 8.5q15 5 28 12q9 -11 17.5 -26.5t15 -33.5t9.5 -37t2 -36q-12 -9 -35 -28t-46.5 -41t-40.5 -44.5t-16 -40.5q0 -13 13 -18t34 5q5 -6 8.5 -17.5t4.5 -26t0 -29.5t-5 -27q-23 -13 -56 -21t-65 -7q-37 2 -61 19.5
t-28 58.5q-2 23 6 45.5t22.5 43.5t34 40t39.5 35h-11q-127 0 -180.5 76.5t-23.5 219.5q30 140 107 200t193 60q51 0 90.5 -15t65 -42.5t34.5 -68t-2 -91.5q-6 -26 -12.5 -47.5l-11.5 -37.5q-6 -18 -12 -33h-251zM320 350q6 26 0 42t-22 16q-17 0 -34 -18.5t-31 -68.5h80
q2 7 3.5 14t3.5 15z" />
    <glyph glyph-name="equal" unicode="=" horiz-adv-x="509" 
d="M53 321q0 16 2 35t6.5 38.5t10 37.5t12.5 32h410q1 -14 -1 -33t-6.5 -38.5t-10.5 -38t-13 -33.5h-410zM9 115q0 16 2 35t6.5 38.5t10 37.5t12.5 32h410q1 -14 -1 -33t-6.5 -38.5t-10.5 -38t-13 -33.5h-410z" />
    <glyph glyph-name="estimated" unicode="&#x212e;" horiz-adv-x="756" 
d="M592 95q-59 -51 -129 -78t-147 -27q-73 0 -131 27.5t-96 75.5t-52 112t2 137q15 73 56.5 137t99 112t127.5 75.5t143 27.5t131 -27.5t96 -75.5t52 -112t-1 -137l-5 -24h-544l-47 -218q35 -31 80.5 -49t97.5 -18q51 0 102 16.5t98 45.5h67zM634 583q-34 31 -79.5 49.5
t-98.5 18.5q-52 0 -105 -18.5t-101 -48.5l-47 -222h384z" />
    <glyph glyph-name="eth" unicode="&#xf0;" horiz-adv-x="563" 
d="M487 623q47 -56 62 -134.5t-7 -181.5q-20 -92 -50.5 -153t-70.5 -97.5t-88.5 -51.5t-104.5 -15q-53 0 -100.5 14t-80 45t-45.5 81t2 122q14 68 42 114t65 74.5t80.5 40.5t90.5 12q9 0 22 -1.5t27 -4.5t27.5 -8.5t23.5 -12.5q-5 19 -18 41.5t-30 43.5l-97 -45
q-20 17 -34.5 39.5t-20.5 52.5l54 25q-15 6 -32 10t-34 6q2 33 14.5 62.5t34.5 48.5q101 -12 176 -53l113 53q21 -17 33 -42.5t10 -54.5zM239 136q13 0 23 4t19 16.5t17.5 35.5t16.5 60q8 38 9.5 61t-2.5 35t-12.5 16t-21.5 4t-23 -4t-19 -16.5t-16.5 -35.5t-15.5 -60
t-10 -60t1.5 -35.5t12 -16.5t21.5 -4z" />
    <glyph glyph-name="exclam" unicode="!" horiz-adv-x="321" 
d="M134 712q12 2 29 4q14 2 35.5 3t49.5 1q26 0 47 -1t35 -3q17 -2 28 -4l-121 -474q-10 -3 -24 -5q-12 -2 -29 -3t-39 -1t-38.5 1t-27.5 3q-13 2 -24 5zM201 8q-12 -2 -28 -4q-14 -2 -33 -3t-44 -1t-43.5 1t-31.5 3q-15 2 -26 4l41 194q11 2 27 4q14 2 33 3t45 1
q25 0 43.5 -1t31.5 -3q15 -2 26 -4z" />
    <glyph glyph-name="exclamdown" unicode="&#xa1;" horiz-adv-x="309" 
d="M95 510q12 2 28 4q14 2 33 3t44 1t43.5 -1t31.5 -3q15 -2 26 -4l-41 -194q-11 -2 -27 -4q-14 -2 -33.5 -3t-44.5 -1t-43.5 1t-31.5 3q-15 2 -26 4zM83 283q12 2 29 3t39 1q21 0 38 -1t28 -3q13 -2 24 -3l-79 -474q-12 -2 -29 -4q-14 -2 -35.5 -3t-49.5 -1q-27 0 -47.5 1
t-34.5 3q-17 2 -28 4l121 474z" />
    <glyph glyph-name="f" unicode="f" horiz-adv-x="375" 
d="M136 586q8 40 25.5 70.5t46 51.5t70 31.5t97.5 10.5q37 0 65 -5.5t47 -11.5q22 -8 37 -17q-12 -42 -36.5 -75.5t-49.5 -56.5q-5 3 -13 6q-7 2 -18 4.5t-28 2.5q-16 0 -27 -8.5t-16 -29.5l-7 -33h82q1 -16 0 -32.5t-6 -36.5q-4 -19 -10.5 -39t-14.5 -35h-82l-79 -375
q-11 -2 -27 -4q-14 -2 -33.5 -3t-44.5 -1q-24 0 -43 1t-32 3q-15 2 -26 4l79 375h-64q0 34 8 74q7 36 23 69h64l13 60v0z" />
    <glyph glyph-name="five" unicode="5" horiz-adv-x="535" 
d="M290 440q24 0 45.5 -2.5t40.5 -7.5q76 -19 108 -72t13 -141q-23 -111 -111 -169t-229 -58q-47 0 -84 5.5t-63 12.5q-31 8 -55 18q8 41 24 74t47 65q23 -5 49 -9q22 -3 49.5 -5.5t56.5 -2.5q28 0 46.5 5t30.5 14t19 22t10 28t2 28t-9 22.5t-24.5 15.5t-44.5 6
q-38 0 -76.5 -1.5t-77.5 -3.5l87 406h415q1 -17 -1 -37.5t-6.5 -42t-11 -42t-15.5 -38.5h-215z" />
    <glyph glyph-name="five.denom" horiz-adv-x="315" 
d="M143 232q73 0 100 -30.5t16 -84.5q-13 -60 -57 -91t-129 -31q-29 0 -51.5 3t-38.5 8q-18 4 -33 11q4 23 16.5 47.5t30.5 40.5q12 -3 25 -5q25 -5 57 -5q23 0 31.5 6t10.5 17q2 12 -4 18t-28 6h-86l43 201h242q1 -9 0 -21.5t-4 -25.5t-7.5 -25.5t-8.5 -20.5h-121z" />
    <glyph glyph-name="five.num" horiz-adv-x="315" 
d="M217 578q73 0 100 -30.5t15 -84.5q-13 -60 -57 -91t-129 -31q-29 0 -51.5 3t-38.5 8q-18 4 -33 11q5 23 17 47.5t31 40.5q12 -3 25 -5q25 -5 57 -5q23 0 31 6t11 17q2 12 -4 18t-28 6h-86l42 201h242q1 -9 0 -21.5t-4 -25.5t-7 -25.5t-8 -20.5h-121z" />
    <glyph glyph-name="fiveeighths" unicode="&#x215d;" horiz-adv-x="789" 
d="M590 695q8 1 19 3q10 2 24.5 3t34.5 1t33.5 -1t23.5 -3q11 -2 19 -3l-535 -698l-21 -4q-21 -3 -57 -3t-55 3q-11 2 -20 4zM372 689q1 -9 0 -21.5t-4 -25.5t-7 -25.5t-8 -20.5h-121l-4 -18q73 0 100 -30.5t15 -84.5q-13 -60 -57 -91t-129 -31q-29 0 -51.5 3t-38.5 8
q-18 4 -33 11q5 23 17 47.5t31 40.5q12 -3 25 -5q25 -5 57 -5q23 0 31 6t11 17q2 12 -4 18t-28 6h-86l42 201h242zM464 253q10 47 49.5 71t112.5 24q137 0 119 -89q-5 -26 -22.5 -46.5t-42.5 -30.5q26 -12 38 -33t6 -52q-11 -48 -53.5 -75t-120.5 -27q-150 0 -129 97
q5 28 25.5 49t51.5 32q-23 11 -31.5 31.5t-2.5 48.5zM627 249q2 8 -1.5 13.5t-16.5 5.5q-11 0 -16 -5t-6 -11q-5 -18 23 -29q7 5 11 12.5t6 13.5zM601 98q2 11 -5 19t-30 16q-6 -4 -10 -9t-7.5 -10.5t-4.5 -11.5q-2 -9 3 -16.5t23 -7.5q14 0 21.5 6t9.5 14z" />
    <glyph glyph-name="fiveinferior" unicode="&#x2085;" horiz-adv-x="315" 
d="M123 136q73 0 100 -30.5t15 -84.5q-13 -60 -57 -91t-129 -31q-29 0 -51.5 3t-38.5 8q-18 4 -33 11q5 23 17 47.5t31 40.5q12 -3 25 -5q25 -5 57 -5q23 0 31 6t11 17q2 12 -4 18t-28 6h-86l42 201h242q1 -9 0 -21.5t-4 -25.5t-7 -25.5t-8 -20.5h-121z" />
    <glyph glyph-name="florin" unicode="&#x192;" horiz-adv-x="603" 
d="M311 16q-21 -69 -77.5 -112.5t-156.5 -43.5q-38 0 -67 5t-49 11q-24 7 -40 17q8 32 27 65.5t41 56.5q8 -3 19 -6q20 -5 45 -5q29 0 45 13.5t26 43.5l88 281h-68q-1 7 0 18q1 9 2 21t5 29q3 16 7 28.5l7 21.5q4 11 8 18h81l18 57q21 69 76 112.5t155 43.5q38 0 68 -5.5
t50 -11.5q24 -7 41 -16q-9 -34 -27 -65.5t-43 -54.5q-8 2 -19 4q-9 2 -22 3.5t-27 1.5q-25 0 -40 -13.5t-25 -43.5l-3 -12h78q1 -7 0 -18l-2.5 -21.5t-4.5 -28.5q-4 -17 -7.5 -29t-6.5 -21q-4 -11 -8 -18h-92z" />
    <glyph glyph-name="four" unicode="4" horiz-adv-x="603" 
d="M375 681q13 2 30 4q14 2 33.5 3.5t44.5 1.5q24 0 43 -1.5t32 -3.5q15 -2 27 -4l-82 -386h72q1 -10 0 -21t-2.5 -25t-5.5 -34q-9 -40 -17 -60q-4 -12 -9 -20h-72l-27 -126q-12 -3 -27 -5q-13 -2 -31 -3t-41 -1q-24 0 -42 1t-30 3q-14 2 -24 5l27 126h-294q-1 8 -1 20
q0 10 1.5 25t6.5 35q4 20 9 34l9 25t9 21zM208 295h100l29 139z" />
    <glyph glyph-name="four.denom" horiz-adv-x="341" 
d="M289 148q1 -21 -4 -43q-2 -12 -5.5 -22t-8.5 -21h-37l-12 -57q-19 -3 -36.5 -4t-25.5 -1t-25.5 1t-34.5 4l12 57h-154q0 23 4 43q2 11 5 19.5t7 17.5l198 195q27 6 62 6q33 0 59 -6l-41 -189h37zM88 148h42l12 56z" />
    <glyph glyph-name="four.num" horiz-adv-x="340" 
d="M362 494q1 -11 -0.5 -21t-3.5 -22q-3 -12 -6 -22t-8 -21h-37l-12 -57q-19 -3 -36.5 -4t-25.5 -1t-25.5 1t-34.5 4l12 57h-154q0 23 4 43q2 11 4.5 19.5t7.5 17.5l197 195q28 6 62 6q16 0 31.5 -1.5t27.5 -4.5l-40 -189h37zM161 494h42l12 56z" />
    <glyph glyph-name="fourinferior" unicode="&#x2084;" horiz-adv-x="341" 
d="M269 52q1 -11 -0.5 -21t-3.5 -22q-3 -12 -6 -22t-8 -21h-37l-12 -57q-19 -3 -36.5 -4t-25.5 -1t-25.5 1t-34.5 4l12 57h-154q0 23 4 43q2 11 4.5 19.5t7.5 17.5l197 195q28 6 62 6q16 0 31.5 -1.5t27.5 -4.5l-40 -189h37zM68 52h42l12 56z" />
    <glyph glyph-name="fraction" unicode="&#x2044;" horiz-adv-x="160" 
d="M276 695q8 1 19 3q10 2 24.5 3t34.5 1t33.5 -1t23.5 -3q11 -2 19 -3l-535 -698l-21 -4q-21 -3 -57 -3t-55 3q-11 2 -20 4z" />
    <glyph glyph-name="g" unicode="g" horiz-adv-x="570" 
d="M272 39q-52 -49 -122 -49q-42 0 -74 18t-50.5 54.5t-21.5 92.5t13 133q16 76 40.5 126t55.5 79.5t68 41t79 11.5q38 0 66.5 -15.5t42.5 -41.5l15 39q11 2 26 4q13 2 31 3t41 1t41.5 -1t31.5 -3q15 -2 27 -4l-107 -502q-17 -81 -47.5 -134.5t-72.5 -85t-94 -44t-112 -12.5
q-42 0 -77.5 6t-61.5 14q-31 9 -55 21q9 38 24.5 71t45.5 63q16 -8 34 -13q15 -5 34.5 -8.5t39.5 -3.5q19 0 39.5 3t38.5 15t33.5 37.5t24.5 70.5zM231 263q-8 -38 -10 -61.5t1.5 -36t12 -17t20.5 -4.5q20 0 33.5 18t17.5 38l29 135q5 26 -1.5 41.5t-26.5 15.5
q-12 0 -22.5 -4.5t-19.5 -18.5t-17 -39t-17 -67z" />
    <glyph glyph-name="g.alt" horiz-adv-x="559" 
d="M100 191q-48 23 -65.5 65.5t-4.5 100.5q18 88 89 138.5t189 50.5q85 0 135 -28l153 28q4 -13 3.5 -32t-5 -39t-12 -39t-16.5 -33l-56 11q2 -29 -4 -57q-19 -88 -89 -138.5t-189 -50.5h-17q-5 -6 -9 -13.5t-3 -16.5q1 -15 25 -19.5t58.5 -8t72.5 -9.5t68.5 -22.5
t45.5 -47.5t4 -85q-19 -92 -107.5 -147t-234.5 -55q-127 0 -184 35t-41 107q5 25 17 44.5t27.5 34.5t33 26t32.5 18q-16 26 -7 68q9 40 35 68t56 46zM284 431q-19 0 -31 -16t-21 -58t-4 -58t24 -16t31 16t21 58t3.5 58t-23.5 16zM158 -126q55 0 81.5 12.5t31.5 32.5
q3 13 -11.5 19t-38.5 9t-54 5t-59 7q-5 -8 -9 -16t-6 -17q-5 -26 9 -39t56 -13z" />
    <glyph glyph-name="gbreve" unicode="&#x11f;" horiz-adv-x="570" 
d="M559 666q-19 -25 -47 -44q-24 -17 -61 -30t-88 -13t-85.5 13t-55.5 30q-25 19 -39 44q17 26 43.5 50t58.5 38q10 -8 24 -14q12 -5 30.5 -9.5t44.5 -4.5q25 0 46 4.5t35 9.5q17 6 30 14q26 -14 43.5 -38t20.5 -50zM272 39q-52 -49 -122 -49q-42 0 -74 18t-50.5 54.5
t-21.5 92.5t13 133q16 76 40.5 126t55.5 79.5t68 41t79 11.5q38 0 66.5 -15.5t42.5 -41.5l15 39q11 2 26 4q13 2 31 3t41 1t41.5 -1t31.5 -3q15 -2 27 -4l-107 -502q-17 -81 -47.5 -134.5t-72.5 -85t-94 -44t-112 -12.5q-42 0 -77.5 6t-61.5 14q-31 9 -55 21q9 38 24.5 71
t45.5 63q16 -8 34 -13q15 -5 34.5 -8.5t39.5 -3.5q19 0 39.5 3t38.5 15t33.5 37.5t24.5 70.5zM231 263q-8 -38 -10 -61.5t1.5 -36t12 -17t20.5 -4.5q20 0 33.5 18t17.5 38l29 135q5 26 -1.5 41.5t-26.5 15.5q-12 0 -22.5 -4.5t-19.5 -18.5t-17 -39t-17 -67z" />
    <glyph glyph-name="gbreve.alt" horiz-adv-x="559" 
d="M523 669q-22 -25 -52 -44q-26 -17 -64.5 -30t-89.5 -13t-84 13t-52 30q-23 19 -34 44q17 26 43.5 50t58.5 38q10 -8 24 -14q12 -5 30.5 -9.5t44.5 -4.5q25 0 46 4.5t35 9.5q17 6 30 14q26 -14 43.5 -38t20.5 -50zM100 191q-48 23 -65.5 65.5t-4.5 100.5q18 88 89 138.5
t189 50.5q85 0 135 -28l153 28q4 -13 3.5 -32t-5 -39t-12 -39t-16.5 -33l-56 11q2 -29 -4 -57q-19 -88 -89 -138.5t-189 -50.5h-17q-5 -6 -9 -13.5t-3 -16.5q1 -15 25 -19.5t58.5 -8t72.5 -9.5t68.5 -22.5t45.5 -47.5t4 -85q-19 -92 -107.5 -147t-234.5 -55q-127 0 -184 35
t-41 107q5 25 17 44.5t27.5 34.5t33 26t32.5 18q-16 26 -7 68q9 40 35 68t56 46zM284 431q-19 0 -31 -16t-21 -58t-4 -58t24 -16t31 16t21 58t3.5 58t-23.5 16zM158 -126q55 0 81.5 12.5t31.5 32.5q3 13 -11.5 19t-38.5 9t-54 5t-59 7q-5 -8 -9 -16t-6 -17q-5 -26 9 -39
t56 -13z" />
    <glyph glyph-name="gcircumflex" unicode="&#x11d;" horiz-adv-x="570" 
d="M577 660q-20 -29 -46.5 -52.5t-57.5 -36.5l-102 72l-133 -71q-26 13 -43 36t-24 52l198 139h54zM272 39q-52 -49 -122 -49q-42 0 -74 18t-50.5 54.5t-21.5 92.5t13 133q16 76 40.5 126t55.5 79.5t68 41t79 11.5q38 0 66.5 -15.5t42.5 -41.5l15 39q11 2 26 4q13 2 31 3
t41 1t41.5 -1t31.5 -3q15 -2 27 -4l-107 -502q-17 -81 -47.5 -134.5t-72.5 -85t-94 -44t-112 -12.5q-42 0 -77.5 6t-61.5 14q-31 9 -55 21q9 38 24.5 71t45.5 63q16 -8 34 -13q15 -5 34.5 -8.5t39.5 -3.5q19 0 39.5 3t38.5 15t33.5 37.5t24.5 70.5zM231 263
q-8 -38 -10 -61.5t1.5 -36t12 -17t20.5 -4.5q20 0 33.5 18t17.5 38l29 135q5 26 -1.5 41.5t-26.5 15.5q-12 0 -22.5 -4.5t-19.5 -18.5t-17 -39t-17 -67z" />
    <glyph glyph-name="gcircumflex.alt" horiz-adv-x="559" 
d="M554 658q-20 -29 -46.5 -52.5t-57.5 -36.5l-103 72l-133 -71q-26 13 -42.5 36t-23.5 52l208 155h54zM100 191q-48 23 -65.5 65.5t-4.5 100.5q18 88 89 138.5t189 50.5q85 0 135 -28l153 28q4 -13 3.5 -32t-5 -39t-12 -39t-16.5 -33l-56 11q2 -29 -4 -57
q-19 -88 -89 -138.5t-189 -50.5h-17q-5 -6 -9 -13.5t-3 -16.5q1 -15 25 -19.5t58.5 -8t72.5 -9.5t68.5 -22.5t45.5 -47.5t4 -85q-19 -92 -107.5 -147t-234.5 -55q-127 0 -184 35t-41 107q5 25 17 44.5t27.5 34.5t33 26t32.5 18q-16 26 -7 68q9 40 35 68t56 46zM284 431
q-19 0 -31 -16t-21 -58t-4 -58t24 -16t31 16t21 58t3.5 58t-23.5 16zM158 -126q55 0 81.5 12.5t31.5 32.5q3 13 -11.5 19t-38.5 9t-54 5t-59 7q-5 -8 -9 -16t-6 -17q-5 -26 9 -39t56 -13z" />
    <glyph glyph-name="gcommaaccent" unicode="&#x123;" horiz-adv-x="569" 
d="M490 872q-13 -12 -24 -28q-10 -14 -20.5 -33t-17.5 -42q14 -1 26 -2t22 -2q11 -2 21 -3l-37 -173q-13 -2 -29 -4q-27 -3 -77 -3q-49 0 -76 3q-16 2 -29 4l29 138q9 44 33 79t49 60q29 29 63 51zM271 39q-52 -49 -122 -49q-42 0 -74 18t-50.5 54.5t-21.5 92.5t13 133
q16 76 40.5 126t55.5 79.5t68 41t79 11.5q38 0 66.5 -15.5t42.5 -41.5l15 39q11 2 26 4q13 2 31 3t41 1t41.5 -1t31.5 -3q15 -2 27 -4l-107 -502q-17 -81 -47.5 -134.5t-72.5 -85t-94 -44t-112 -12.5q-42 0 -77.5 6t-61.5 14q-31 9 -55 21q9 38 24.5 71t45.5 63
q16 -8 34 -13q15 -5 34.5 -8.5t39.5 -3.5q19 0 39.5 3t38.5 15t33.5 37.5t24.5 70.5zM230 263q-8 -38 -10 -61.5t1.5 -36t12 -17t20.5 -4.5q20 0 33.5 18t17.5 38l29 135q5 26 -1.5 41.5t-26.5 15.5q-12 0 -22.5 -4.5t-19.5 -18.5t-17 -39t-17 -67z" />
    <glyph glyph-name="gcommaaccent.alt" horiz-adv-x="559" 
d="M454 872q-13 -12 -24 -28q-10 -14 -20.5 -33t-17.5 -42q14 -1 26 -2t22 -2q11 -2 21 -3l-37 -173q-13 -2 -29 -4q-27 -3 -77 -3q-49 0 -76 3q-16 2 -29 4l29 138q9 44 33 79t49 60q29 29 63 51zM100 191q-48 23 -65.5 65.5t-4.5 100.5q18 88 89 138.5t189 50.5
q85 0 135 -28l153 28q4 -13 3.5 -32t-5 -39t-12 -39t-16.5 -33l-56 11q2 -29 -4 -57q-19 -88 -89 -138.5t-189 -50.5h-17q-5 -6 -9 -13.5t-3 -16.5q1 -15 25 -19.5t58.5 -8t72.5 -9.5t68.5 -22.5t45.5 -47.5t4 -85q-19 -92 -107.5 -147t-234.5 -55q-127 0 -184 35t-41 107
q5 25 17 44.5t27.5 34.5t33 26t32.5 18q-16 26 -7 68q9 40 35 68t56 46zM284 431q-19 0 -31.5 -16t-21.5 -58t-3.5 -58t24.5 -16t31 16t21 58t3.5 58t-23.5 16zM158 -126q55 0 81.5 12.5t31.5 32.5q3 13 -11.5 19t-38.5 9t-54 5t-59 7q-5 -8 -9 -16t-6 -17q-5 -26 9 -39
t56 -13z" />
    <glyph glyph-name="gdotaccent" unicode="&#x121;" horiz-adv-x="570" 
d="M445 591q-11 -2 -25 -4q-12 -2 -30 -3t-40 -1q-23 0 -40 1t-28 3q-13 2 -23 4l37 174l24 3q12 2 29.5 3t40.5 1q22 0 39 -1t29 -3l24 -3zM272 39q-52 -49 -122 -49q-42 0 -74 18t-50.5 54.5t-21.5 92.5t13 133q16 76 40.5 126t55.5 79.5t68 41t79 11.5q38 0 66.5 -15.5
t42.5 -41.5l15 39q11 2 26 4q13 2 31 3t41 1t41.5 -1t31.5 -3q15 -2 27 -4l-107 -502q-17 -81 -47.5 -134.5t-72.5 -85t-94 -44t-112 -12.5q-42 0 -77.5 6t-61.5 14q-31 9 -55 21q9 38 24.5 71t45.5 63q16 -8 34 -13q15 -5 34.5 -8.5t39.5 -3.5q19 0 39.5 3t38.5 15
t33.5 37.5t24.5 70.5zM231 263q-8 -38 -10 -61.5t1.5 -36t12 -17t20.5 -4.5q20 0 33.5 18t17.5 38l29 135q5 26 -1.5 41.5t-26.5 15.5q-12 0 -22.5 -4.5t-19.5 -18.5t-17 -39t-17 -67z" />
    <glyph glyph-name="gdotaccent.alt" horiz-adv-x="559" 
d="M410 591q-11 -2 -25 -4q-12 -2 -30 -3t-40 -1q-23 0 -40 1t-28 3q-13 2 -23 4l37 174l24 3q12 2 29.5 3t40.5 1q22 0 39 -1t29 -3l24 -3zM100 191q-48 23 -65.5 65.5t-4.5 100.5q18 88 89 138.5t189 50.5q85 0 135 -28l153 28q4 -13 3.5 -32t-5 -39t-12 -39t-16.5 -33
l-56 11q2 -29 -4 -57q-19 -88 -89 -138.5t-189 -50.5h-17q-5 -6 -9 -13.5t-3 -16.5q1 -15 25 -19.5t58.5 -8t72.5 -9.5t68.5 -22.5t45.5 -47.5t4 -85q-19 -92 -107.5 -147t-234.5 -55q-127 0 -184 35t-41 107q5 25 17 44.5t27.5 34.5t33 26t32.5 18q-16 26 -7 68q9 40 35 68
t56 46zM284 431q-19 0 -31 -16t-21 -58t-4 -58t24 -16t31 16t21 58t3.5 58t-23.5 16zM158 -126q55 0 81.5 12.5t31.5 32.5q3 13 -11.5 19t-38.5 9t-54 5t-59 7q-5 -8 -9 -16t-6 -17q-5 -26 9 -39t56 -13z" />
    <glyph glyph-name="germandbls" unicode="&#xdf;" horiz-adv-x="602" 
d="M86 546q21 100 98.5 152t204.5 52q113 0 163 -53t34 -148q-4 -20 -10 -42t-17 -46q-86 -7 -97 -56q-4 -19 4 -36t22 -34t31 -35.5t29.5 -41.5t18 -51.5t-2.5 -65.5q-17 -80 -79.5 -115.5t-153.5 -35.5q-34 0 -60 3t-44 7q-21 4 -38 10q7 42 22.5 74.5t45.5 61.5
q17 -5 32 -7.5t29 -2.5q20 0 33.5 6.5t16.5 20.5q2 12 -5.5 24.5t-20.5 27l-27.5 32t-26 39.5t-16 49.5t2.5 62.5q8 35 24.5 58.5t33.5 37.5q20 17 44 27q5 10 8.5 19t4.5 17q8 44 -38 44q-30 0 -47.5 -16.5t-26.5 -58.5l-110 -518q-13 -2 -30 -4q-14 -2 -33 -3t-42 -1
q-24 0 -41.5 1t-28.5 3q-13 2 -21 4z" />
    <glyph glyph-name="grave" unicode="`" horiz-adv-x="238" 
d="M-7 772q13 16 35 29.5t47.5 22t52.5 12.5t51 1l65 -167q-23 -23 -56.5 -36.5t-68.5 -18.5z" />
    <glyph glyph-name="greater" unicode="&#x3e;" horiz-adv-x="415" 
d="M-4 70q-1 7 0 18l2.5 22.5t5.5 31.5t8 31l7 22q4 11 7 18l199 76l-166 77q-1 7 0 18l2.5 22.5t5.5 31.5t8 31l7 22q4 11 7 18l310 -143q0 -9 -1 -20q-1 -10 -2.5 -23.5t-5.5 -31.5t-8 -32t-8 -25q-4 -12 -8 -21z" />
    <glyph glyph-name="greaterequal" unicode="&#x2265;" horiz-adv-x="420" 
d="M19 186q0 7 1 18l2.5 22.5t5.5 31.5t8 31l7 22q4 11 7 18l168 51l-146 52q-1 7 0 18l2.5 22.5t5.5 31.5t8 31l7 22q4 11 7 18l315 -118q0 -9 -1 -20q-1 -10 -2.5 -23.5t-5.5 -31.5t-8 -32l-7 -25q-4 -12 -8 -21zM-13 42q-1 6 -1 16q0 18 7 50q3 17 7 29.5t7 20.5
q4 10 8 16h340q1 -6 0 -16l-2.5 -20.5t-4.5 -29.5q-4 -17 -7.5 -29.5t-6.5 -20.5q-4 -10 -7 -16h-340z" />
    <glyph glyph-name="guillemotleft" unicode="&#xab;" horiz-adv-x="577" 
d="M303 524q17 -23 23 -57.5t1 -70.5l-148 -127l94 -126q-12 -40 -30 -70t-48 -58l-182 179q-2 8 -2 19q0 9 1 22.5t5 31.5t8.5 31.5t9.5 23.5q5 11 10 20zM547 512q14 -21 19.5 -52.5t0.5 -66.5l-138 -124l86 -123q-12 -38 -28.5 -65.5t-42.5 -53.5l-175 172q-1 7 -1 18
q0 9 0.5 21.5t4.5 28.5q3 17 7.5 30t8.5 22q4 11 10 19z" />
    <glyph glyph-name="guillemotright" unicode="&#xbb;" horiz-adv-x="577" 
d="M548 342q2 -9 2 -20q0 -10 -1 -23.5t-5 -31.5t-8.5 -31.5t-9.5 -22.5q-5 -11 -10 -19l-258 -179q-18 28 -23.5 58t-0.5 70l148 126l-94 127q10 36 31 70.5t47 57.5zM292 338q1 -8 1 -19q0 -9 -1 -22t-4 -30q-4 -16 -8 -28.5t-8 -21.5q-4 -11 -10 -18l-247 -172
q-16 26 -21 53.5t0 65.5l138 123l-86 124q10 35 29.5 66.5t42.5 52.5z" />
    <glyph glyph-name="guilsinglleft" unicode="&#x2039;" horiz-adv-x="350" 
d="M319 524q17 -23 23 -57.5t1 -70.5l-148 -127l94 -126q-12 -40 -30 -70t-48 -58l-203 179v18q0 9 1 22.5t5 31.5t8.5 32t8.5 24q4 11 9 20z" />
    <glyph glyph-name="guilsinglright" unicode="&#x203a;" horiz-adv-x="349" 
d="M328 342q1 -9 0 -20l-2.5 -24t-5.5 -32q-8 -36 -15 -54q-4 -11 -9 -18l-279 -179q-18 28 -23.5 58t-0.5 70l148 126l-94 127q10 36 31 70.5t47 57.5z" />
    <glyph glyph-name="h" unicode="h" 
d="M452 8q-11 -2 -27 -4q-14 -2 -33 -3t-45 -1t-44.5 1t-31.5 3q-15 2 -25 4l73 346q9 38 -26 38q-15 0 -36 -11l-79 -373q-12 -2 -28 -4q-14 -2 -33 -3t-44 -1t-43.5 1t-31.5 3q-15 2 -26 4l156 734q11 2 27 4q14 2 32.5 3t44.5 1q25 0 44 -1t32 -3q15 -2 26 -4l-52 -243
q32 23 62 35t67 12q46 0 72.5 -16t38.5 -42t12 -58t-7 -65z" />
    <glyph glyph-name="hbar" unicode="&#x127;" 
d="M282 499q32 23 64 35t69 12q38 0 63.5 -14t39 -38.5t15.5 -58.5t-6 -74l-75 -353q-11 -2 -27 -4q-14 -2 -33 -3t-45 -1t-44.5 1t-31.5 3q-15 2 -25 4l73 346q9 38 -26 38q-16 0 -36 -11l-79 -373q-12 -2 -28 -4q-14 -2 -33 -3t-44 -1t-43.5 1t-31.5 3q-15 2 -26 4
l123 578h-57q-2 25 4.5 56t18.5 56h57l10 44q11 2 27 4q14 2 32.5 3t44.5 1q25 0 44 -1t32 -3q15 -2 26 -4l-10 -44h107q2 -27 -5 -57.5t-18 -54.5h-107l-19 -87v0z" />
    <glyph glyph-name="hcircumflex" unicode="&#x125;" 
d="M454 855q-19 -28 -45.5 -51.5t-57.5 -36.5l-101 71l-130 -70q-25 13 -41.5 36t-23.5 51l204 153h53zM452 8q-11 -2 -27 -4q-14 -2 -33 -3t-45 -1t-44.5 1t-31.5 3q-15 2 -25 4l73 346q9 38 -26 38q-15 0 -36 -11l-79 -373q-12 -2 -28 -4q-14 -2 -33 -3t-44 -1t-43.5 1
t-31.5 3q-15 2 -26 4l156 734q11 2 27 4q14 2 32.5 3t44.5 1q25 0 44 -1t32 -3q15 -2 26 -4l-52 -243q32 23 62 35t67 12q46 0 72.5 -16t38.5 -42t12 -58t-7 -65z" />
    <glyph glyph-name="hungarumlaut" unicode="&#x2dd;" horiz-adv-x="386" 
d="M40 600q-32 5 -60 18.5t-42 36.5l137 167q25 3 50.5 -1t47 -12.5t37.5 -22t23 -29.5zM266 600q-32 5 -60 18.5t-42 36.5l137 167q25 3 50.5 -1t47 -12.5t37.5 -22t23 -29.5z" />
    <glyph glyph-name="hyphen" unicode="-" horiz-adv-x="330" 
d="M27 219q-1 8 0 19l2.5 22t5.5 30q3 17 7 30l7 22q4 11 8 19h240q1 -8 0 -19l-2.5 -22t-4.5 -30q-4 -17 -8 -30l-7 -22q-4 -11 -8 -19h-240z" />
    <glyph glyph-name="i" unicode="i" horiz-adv-x="276" 
d="M302 593q-12 -2 -28 -4q-14 -2 -33 -3t-44 -1t-43.5 1t-31.5 3q-15 2 -26 4l37 174q11 2 27 4q14 2 33 3t45 1q25 0 43.5 -1t31.5 -3q15 -2 26 -4zM178 8q-12 -2 -28 -4q-14 -2 -33 -3t-44 -1t-43.5 1t-31.5 3q-15 2 -26 4l110 520q11 2 27 4q14 2 33 3t45 1
q25 0 43.5 -1t31.5 -3q15 -2 26 -4z" />
    <glyph glyph-name="iacute" unicode="&#xed;" horiz-adv-x="276" 
d="M190 582q-33 5 -61 18.5t-42 36.5l137 167q25 3 50.5 -1t47 -12.5t37.5 -22t23 -29.5zM178 8q-12 -2 -28 -4q-14 -2 -33 -3t-44 -1t-43.5 1t-31.5 3q-15 2 -26 4l110 520q11 2 27 4q14 2 33 3t45 1q25 0 43.5 -1t31.5 -3q15 -2 26 -4z" />
    <glyph glyph-name="ibreve" unicode="&#x12d;" horiz-adv-x="276" 
d="M402 669q-22 -25 -52 -44q-26 -17 -64.5 -30t-89.5 -13t-84 13t-52 30q-23 19 -34 44q17 26 43.5 50t58.5 38q10 -8 24 -14q12 -5 30.5 -9.5t44.5 -4.5q25 0 46 4.5t35 9.5q17 6 30 14q26 -14 43.5 -38t20.5 -50zM178 8q-12 -2 -28 -4q-14 -2 -33 -3t-44 -1t-43.5 1
t-31.5 3q-15 2 -26 4l110 520q11 2 27 4q14 2 33 3t45 1q25 0 43.5 -1t31.5 -3q15 -2 26 -4z" />
    <glyph glyph-name="icircumflex" unicode="&#xee;" horiz-adv-x="276" 
d="M419 671q-20 -29 -47 -52.5t-57 -36.5l-103 72l-133 -71q-26 13 -42.5 36t-23.5 52l208 155h54zM178 8q-12 -2 -28 -4q-14 -2 -33 -3t-44 -1t-43.5 1t-31.5 3q-15 2 -26 4l110 520q11 2 27 4q14 2 33 3t45 1q25 0 43.5 -1t31.5 -3q15 -2 26 -4z" />
    <glyph glyph-name="idieresis" unicode="&#xef;" horiz-adv-x="276" 
d="M176 589q-11 -2 -24 -4q-23 -3 -65 -3q-43 0 -65 3q-13 2 -22 4l32 148q10 1 23 3q11 2 27.5 3t38.5 1q21 0 37 -1t27 -3q13 -2 23 -3zM401 589q-11 -2 -24 -4q-23 -3 -65 -3q-43 0 -65 3q-13 2 -22 4l32 148q10 1 23 3q11 2 27.5 3t38.5 1q21 0 37 -1t27 -3q13 -2 23 -3
zM178 8q-12 -2 -28 -4q-14 -2 -33 -3t-44 -1t-43.5 1t-31.5 3q-15 2 -26 4l110 520q11 2 27 4q14 2 33 3t45 1q25 0 43.5 -1t31.5 -3q15 -2 26 -4z" />
    <glyph glyph-name="igrave" unicode="&#xec;" horiz-adv-x="276" 
d="M63 740q14 16 35.5 29.5t47 22t52.5 12.5t51 1l66 -167q-23 -23 -57 -36.5t-69 -18.5zM178 8q-12 -2 -28 -4q-14 -2 -33 -3t-44 -1t-43.5 1t-31.5 3q-15 2 -26 4l110 520q11 2 27 4q14 2 33 3t45 1q25 0 43.5 -1t31.5 -3q15 -2 26 -4z" />
    <glyph glyph-name="ij" unicode="&#x133;" horiz-adv-x="576" 
d="M134 772q11 2 27 4q14 2 33 3t45 1q25 0 43.5 -1t31.5 -3q15 -2 26 -4l-37 -174q-12 -2 -28 -4q-14 -2 -33 -3t-44 -1t-43.5 1t-31.5 3q-15 2 -26 4zM432 764q11 2 27 4q14 2 33 3t45 1q25 0 43.5 -1t31.5 -3q15 -2 26 -4l-37 -174q-11 -2 -27 -4q-14 -2 -33 -3t-44 -1
t-44 1t-32 3q-15 2 -26 4zM82 528q11 2 27 4q14 2 33 3t45 1q25 0 43.5 -1t31.5 -3q15 -2 26 -4l-110 -520q-12 -2 -28 -4q-14 -2 -33 -3t-44 -1t-43.5 1t-31.5 3q-15 2 -26 4zM382 528q12 2 28 4q14 2 33.5 3t43.5 1q23 0 41 -1t32 -3q16 -2 28 -4l-131 -616
q-17 -78 -68.5 -120t-149.5 -42q-32 0 -55 4.5t-39 9.5q-18 6 -31 15q0 6 1 13q1 6 1.5 14t2.5 17q5 23 12.5 42t14.5 32q8 15 17 26q5 -2 11 -3q5 -1 11.5 -1.5t13.5 -0.5q26 0 42.5 13.5t24.5 51.5z" />
    <glyph glyph-name="imacron" unicode="&#x12b;" horiz-adv-x="276" 
d="M92 582q2 26 9 60.5t16 56.5h213q-1 -11 -3.5 -26.5t-6 -31.5t-7.5 -31.5t-8 -27.5h-213zM178 8q-12 -2 -28 -4q-14 -2 -33 -3t-44 -1t-43.5 1t-31.5 3q-15 2 -26 4l110 520q11 2 27 4q14 2 33 3t45 1q25 0 43.5 -1t31.5 -3q15 -2 26 -4z" />
    <glyph glyph-name="infinity" unicode="&#x221e;" horiz-adv-x="816" 
d="M540 122q-45 0 -74 14.5t-46 31.5q-20 20 -32 46q-22 -26 -51 -46q-25 -17 -60 -31.5t-79 -14.5q-53 0 -89 17t-57 45t-26.5 64.5t2.5 76.5q9 40 30 76.5t53.5 64.5t76 45t96.5 17q44 0 73 -15t46 -32q20 -20 32 -46q23 26 52 46q25 17 59.5 32t79.5 15q53 0 89.5 -17
t57 -45t26.5 -64.5t-3 -76.5q-8 -40 -29.5 -76.5t-54 -64.5t-76 -45t-96.5 -17zM234 277q17 0 30.5 7.5t24.5 16.5q12 11 23 24q-5 13 -13 24q-7 9 -17.5 16.5t-27.5 7.5q-27 0 -42 -15.5t-19 -32.5t5 -32.5t36 -15.5zM590 373q-17 0 -31 -7.5t-25 -16.5q-12 -11 -22 -24
q4 -13 12 -24q7 -9 18 -16.5t28 -7.5q27 0 42 15.5t19 32.5t-5 32.5t-36 15.5z" />
    <glyph glyph-name="integral" unicode="&#x222b;" horiz-adv-x="549" 
d="M226 530q9 43 30.5 78.5t53 60t72 38t87.5 13.5q42 0 73.5 -10.5t53.5 -22.5q26 -14 44 -32q-5 -12 -15.5 -27.5t-22.5 -30.5t-25 -28t-22 -20q-12 11 -33.5 20t-44.5 9q-26 0 -48.5 -16.5t-32.5 -61.5l-106 -501q-19 -88 -79 -139.5t-155 -51.5q-41 0 -71 10t-51 22
q-25 14 -42 33q4 11 14 26.5t22 30.5t24.5 28t23.5 20q14 -11 33 -19.5t39 -8.5q23 0 42 17t29 62z" />
    <glyph glyph-name="iogonek" unicode="&#x12f;" horiz-adv-x="276" 
d="M135 772q11 2 27 4q14 2 33 3t45 1q25 0 43.5 -1t31.5 -3q15 -2 26 -4l-37 -174q-12 -2 -28 -4q-14 -2 -33 -3t-44 -1t-43.5 1t-31.5 3q-15 2 -26 4zM179 10q-19 -14 -35.5 -31t-29 -33.5t-19 -30.5t-6.5 -23q0 -14 13 -19t35 6q5 -6 8.5 -18t4.5 -27t0 -30t-5 -27
q-23 -14 -56.5 -22t-66.5 -7q-38 2 -63 20t-29 60q-2 25 7.5 49t26 46.5t38 42.5t42.5 36q-36 2 -70 10l109 516q11 2 27 4q14 2 33 3t45 1q25 0 43.5 -1t31.5 -3q15 -2 26 -4z" />
    <glyph glyph-name="itilde" unicode="&#x129;" horiz-adv-x="276" 
d="M276 708q13 0 23 3.5t17 8.5q8 5 14 13q20 -16 27 -46.5t1 -60.5q-13 -13 -28 -24q-13 -9 -31 -16.5t-39 -7.5q-22 0 -36 4.5t-26.5 10.5t-25 10.5t-31.5 4.5q-11 0 -21 -4t-17 -9q-9 -5 -15 -12q-20 15 -27.5 44t-0.5 63q14 13 30 24q14 9 31.5 17t37.5 8q21 0 35 -5
t26 -10.5t24.5 -10.5t31.5 -5zM178 8q-12 -2 -28 -4q-14 -2 -33 -3t-44 -1t-43.5 1t-31.5 3q-15 2 -26 4l110 520q11 2 27 4q14 2 33 3t45 1q25 0 43.5 -1t31.5 -3q15 -2 26 -4z" />
    <glyph glyph-name="j" unicode="j" horiz-adv-x="276" 
d="M301 589q-12 -2 -28 -4q-14 -2 -33 -3t-44 -1t-43.5 1t-31.5 3q-15 2 -26 4l37 174q11 2 27 4q14 2 33 3t45 1q25 0 43.5 -1t31.5 -3q15 -2 26 -4zM82 528q12 2 28 4q14 2 33.5 3t43.5 1q23 0 41 -1t32 -3q16 -2 28 -4l-131 -616q-17 -78 -68.5 -120t-149.5 -42
q-32 0 -55 4.5t-39 9.5q-18 6 -31 15q0 6 1 13q1 6 1.5 14t2.5 17q5 23 12.5 42t14.5 32q8 15 17 26q5 -2 11 -3q5 -1 11.5 -1.5t13.5 -0.5q26 0 42.5 13.5t24.5 51.5z" />
    <glyph glyph-name="jcircumflex" unicode="&#x135;" horiz-adv-x="276" 
d="M414 649q-20 -29 -47 -53t-58 -37l-103 72l-133 -72q-26 14 -42.5 37.5t-23.5 52.5l208 154h54zM82 528q12 2 28 4q14 2 33.5 3t43.5 1q23 0 41 -1t32 -3q16 -2 28 -4l-131 -616q-17 -78 -68.5 -120t-149.5 -42q-32 0 -55 4.5t-39 9.5q-18 6 -31 15q0 6 1 13q1 6 1.5 14
t2.5 17q5 23 12.5 42t14.5 32q8 15 17 26q5 -2 11 -3q5 -1 11.5 -1.5t13.5 -0.5q26 0 42.5 13.5t24.5 51.5z" />
    <glyph glyph-name="k" unicode="k" horiz-adv-x="550" 
d="M251 351h24l110 177q9 2 23 4q12 2 31 3t45 1t47 -1t35 -3q17 -2 29 -4l-153 -238l63 -281q-13 -3 -31 -5q-15 -2 -36.5 -3.5t-49.5 -1.5q-25 0 -44 1.5t-33 3.5q-16 2 -28 5l-40 199h-22l-43 -199q-10 -3 -25 -5q-13 -2 -32.5 -3t-45.5 -1t-45 1t-32 3q-15 2 -26 5
l157 735l27 3q14 1 33 2t45 1q23 0 42 -1t32 -2q15 -2 27 -3z" />
    <glyph glyph-name="kcommaaccent" unicode="&#x137;" horiz-adv-x="550" 
d="M80 -359q13 14 24 32q10 15 20.5 36.5t18.5 47.5q-14 1 -26 2t-21 3q-11 2 -20 3l41 195q12 2 28 4q14 2 33.5 3t43.5 1q23 0 41 -1t32 -3q16 -2 28 -4l-32 -155q-11 -51 -35 -90t-49 -67q-29 -33 -63 -58zM251 351h24l110 177q9 2 23 4q12 2 31 3t45 1t47 -1t35 -3
q17 -2 29 -4l-153 -238l63 -281q-13 -3 -31 -5q-15 -2 -36.5 -3.5t-49.5 -1.5q-25 0 -44 1.5t-33 3.5q-16 2 -28 5l-40 199h-22l-43 -199q-10 -3 -25 -5q-13 -2 -32.5 -3t-45.5 -1t-45 1t-32 3q-15 2 -26 5l157 735l27 3q14 1 33 2t45 1q23 0 42 -1t32 -2q15 -2 27 -3z" />
    <glyph glyph-name="kgreenlandic" unicode="&#x138;" horiz-adv-x="548" 
d="M387 319l122 -305q-11 -4 -28 -7q-14 -3 -36 -5t-54 -2q-29 0 -47 1.5t-29 3.5q-12 2 -19 5l-61 154l-31 -31l-26 -124q-19 -5 -46.5 -7t-56.5 -2q-31 0 -58.5 2t-44.5 7l108 511q19 3 48.5 4.5t60.5 1.5q29 0 55 -1.5t42 -4.5l-27 -127l113 127q20 3 47.5 4.5t56.5 1.5
q30 0 58.5 -1.5t48.5 -6.5z" />
    <glyph glyph-name="l" unicode="l" horiz-adv-x="276" 
d="M178 8q-12 -2 -28 -4q-14 -2 -33 -3t-44 -1t-43.5 1t-31.5 3q-15 2 -26 4l156 734q11 2 27 4q14 2 32.5 3t44.5 1q25 0 44 -1t32 -3q15 -2 26 -4z" />
    <glyph glyph-name="lacute" unicode="&#x13a;" horiz-adv-x="276" 
d="M230 772q-32 5 -60.5 18.5t-41.5 36.5l136 167q25 3 50.5 -1t47.5 -12.5t38 -22t22 -29.5zM178 8q-12 -2 -28 -4q-14 -2 -33 -3t-44 -1t-43.5 1t-31.5 3q-15 2 -26 4l156 734q11 2 27 4q14 2 32.5 3t44.5 1q25 0 44 -1t32 -3q15 -2 26 -4z" />
    <glyph glyph-name="lcaron" unicode="&#x13e;" horiz-adv-x="296" 
d="M411 558q-25 -3 -51 5t-38 24q20 19 34 36.5t23.5 35.5t15.5 38.5t10 46.5q44 8 84.5 4.5t62.5 -17.5q-9 -29 -23 -56t-32.5 -49.5t-40.5 -40t-45 -27.5zM178 8q-12 -2 -28 -4q-14 -2 -33 -3t-44 -1t-43.5 1t-31.5 3q-15 2 -26 4l156 734q11 2 27 4q14 2 32.5 3t44.5 1
q25 0 44 -1t32 -3q15 -2 26 -4z" />
    <glyph glyph-name="lcommaaccent" unicode="&#x13c;" horiz-adv-x="276" 
d="M178 8q-12 -2 -28 -4q-14 -2 -33 -3t-44 -1t-43.5 1t-31.5 3q-15 2 -26 4l156 734q11 2 27 4q14 2 32.5 3t44.5 1q25 0 44 -1t32 -3q15 -2 26 -4zM-78 -367q13 14 25 32q11 15 21 36.5t18 47.5q-14 1 -26.5 2t-21.5 3q-11 2 -20 3l42 195q12 2 28 4q14 2 33 3t43 1
q23 0 41.5 -1t32.5 -3q16 -2 28 -4l-33 -155q-11 -51 -35 -90t-49 -67q-29 -33 -63 -58z" />
    <glyph glyph-name="ldot" unicode="&#x140;" horiz-adv-x="498" 
d="M178 8q-12 -2 -28 -4q-14 -2 -33 -3t-44 -1t-43.5 1t-31.5 3q-15 2 -26 4l156 734q11 2 27 4q14 2 32.5 3t44.5 1q25 0 44 -1t32 -3q15 -2 26 -4zM468 248q-11 -2 -25 -4q-12 -2 -29.5 -3t-40.5 -1t-40 1t-28 3q-13 2 -23 4l37 174q10 2 24 4q12 2 29.5 3t40.5 1t39.5 -1
t28.5 -3q13 -2 24 -4z" />
    <glyph glyph-name="less" unicode="&#x3c;" horiz-adv-x="415" 
d="M9 213q0 9 1 21q1 21 9 57q7 35 15 55q4 11 8 20l370 143q1 -7 0 -18l-2.5 -22t-5.5 -31t-8 -31.5t-7 -22.5q-4 -11 -7 -18l-200 -77l167 -76q1 -7 0 -18l-2.5 -22t-5.5 -31t-8 -31.5t-7 -22.5q-4 -11 -7 -18z" />
    <glyph glyph-name="lessequal" unicode="&#x2264;" horiz-adv-x="421" 
d="M37 304q0 9 1 21q1 11 2.5 25t5.5 32q7 35 15 55q4 11 8 20l365 118q1 -7 0 -18l-2.5 -22t-5.5 -31t-8 -31.5t-7 -22.5q-4 -11 -7 -18l-169 -52l147 -51q1 -7 0 -18l-2.5 -22t-5.5 -31t-8 -31.5t-7 -22.5q-4 -11 -8 -18zM-17 42q-1 6 0 16q0 18 7 50q3 17 7 29.5t7 20.5
q4 10 7 16h340v-16q0 -17 -6 -50q-4 -17 -8 -29.5t-7 -20.5q-4 -10 -7 -16h-340z" />
    <glyph glyph-name="logicalnot" unicode="&#xac;" horiz-adv-x="598" 
d="M521 149q-9 -3 -21 -6q-23 -5 -60 -5q-38 0 -58 5q-11 3 -18 6l32 154h-363q-1 9 -1 21q0 23 7 57q4 18 8.5 32.5t9.5 24.5l10 21h520z" />
    <glyph glyph-name="longs" unicode="&#x17f;" horiz-adv-x="337" 
d="M219 8q-11 -2 -27 -4q-14 -2 -33.5 -3t-44.5 -1q-24 0 -43 1t-32 3q-15 2 -26 4l79 375h-64q0 32 8.5 72t22.5 71h64l13 60q8 40 25.5 70.5t46 51.5t70 31.5t97.5 10.5q37 0 65 -5.5t47 -11.5q22 -8 37 -17q-12 -42 -36.5 -75.5t-49.5 -56.5q-5 3 -13 6q-7 2 -18 4.5
t-28 2.5q-16 0 -27 -8.5t-16 -29.5z" />
    <glyph glyph-name="lozenge" unicode="&#x25ca;" horiz-adv-x="604" 
d="M27 352l289 344h135l146 -344l-293 -345h-135zM344 504l-123 -153l58 -153l126 153z" />
    <glyph glyph-name="lslash" unicode="&#x142;" horiz-adv-x="399" 
d="M187 742q11 2 27 4q14 2 32.5 3t44.5 1q25 0 44 -1t32 -3q15 -2 26 -4l-46 -214l62 32q3 -4 7 -10l8 -14t10 -23t7 -24t4 -17q2 -8 2 -13l-129 -66l-81 -385q-12 -2 -28 -4q-14 -2 -33 -3t-44 -1t-43.5 1t-31.5 3q-15 2 -26 4l56 267l-56 -28q-3 4 -7 10l-8 14t-10 23
q-10 29 -11 40q-2 8 -1 13l122 62l71 333v0z" />
    <glyph glyph-name="m" unicode="m" horiz-adv-x="817" 
d="M421 546q48 0 74.5 -18t38.5 -54q7 7 20.5 19.5t34 24t47 20t59.5 8.5q73 0 98.5 -41.5t10.5 -110.5l-82 -386q-13 -2 -29 -4q-14 -2 -33 -3t-42 -1q-24 0 -43 1t-32 3q-16 2 -27 4l73 344q4 17 -0.5 28.5t-23.5 11.5q-17 0 -36 -11l-79 -373q-13 -2 -29 -4
q-14 -2 -33 -3t-42 -1q-24 0 -43 1t-32 3q-16 2 -27 4l73 344q4 17 -0.5 28.5t-23.5 11.5q-17 0 -36 -11l-79 -373q-13 -2 -29 -4q-14 -2 -33 -3t-42 -1q-24 0 -43 1t-32 3q-16 2 -27 4l111 520q10 2 25 4q13 2 31.5 3t44.5 1q24 0 42 -1t30 -3q14 -2 23 -4l-1 -52
q18 19 40 35q19 13 45 24t58 11z" />
    <glyph glyph-name="macron" unicode="&#xaf;" horiz-adv-x="407" 
d="M4 615q0 13 1.5 29.5t5.5 33t8.5 32t10.5 27.5h343q1 -12 -1 -28t-5.5 -32.5t-8.5 -33t-11 -28.5h-343z" />
    <glyph glyph-name="minus" unicode="&#x2212;" horiz-adv-x="437" 
d="M38 259q0 8 1 19q1 9 2 22t5 30t8 30l7 22l7 19h340v-19q-1 -9 -2 -22t-5 -30q-7 -33 -15 -52q-4 -11 -8 -19h-340z" />
    <glyph glyph-name="mu" unicode="&#xb5;" horiz-adv-x="592" 
d="M377 528q13 2 30 4q14 2 33 3t42 1q24 0 42.5 -1t31.5 -3q15 -2 27 -4l-110 -520q-13 -2 -29 -4q-14 -2 -33 -3t-43 -1q-23 0 -41 1t-32 3q-16 2 -28 4l6 31q-17 -23 -42 -36t-57 -13q-6 0 -12 0.5t-12 1.5q-2 -48 2.5 -84t10.5 -61q7 -29 16 -50q-48 -36 -109 -43
t-118 3q0 20 4 52q3 27 10.5 70.5t21.5 106.5l115 542q13 2 30 4q14 2 33 3t42 1q24 0 42.5 -1t31.5 -3q15 -2 27 -4l-73 -343q-5 -23 2 -32t23 -9q7 0 16.5 2.5t20.5 10.5l79 371v0z" />
    <glyph glyph-name="multiply" unicode="&#xd7;" horiz-adv-x="464" 
d="M77 81q-7 4 -14 10q-6 5 -14.5 14t-17.5 21q-20 26 -26 39q-5 9 -8 16l130 107l-84 108q5 7 14 16q14 16 43 40q29 23 48 34q11 6 18 11l84 -108l131 108q7 -5 14 -11q6 -5 14 -13.5t18 -20.5q9 -12 15 -22t10 -18l7 -16l-131 -108l85 -107q-5 -7 -13 -16
q-7 -8 -17.5 -18t-24.5 -22q-28 -22 -48 -34l-18 -10l-85 107z" />
    <glyph glyph-name="n" unicode="n" 
d="M451 8q-11 -2 -26 -4q-13 -2 -32.5 -3t-45.5 -1t-45 1t-32 3q-15 2 -25 4l74 346q8 38 -26 38q-17 0 -37 -14l-79 -370q-11 -2 -27 -4q-14 -2 -33 -3t-44 -1t-44 1t-32 3q-15 2 -26 4l111 520q11 2 27 4q14 2 32.5 3t44.5 1q25 0 42.5 -1t28.5 -3q13 -2 21 -4l-1 -50
q67 68 142 68q38 0 63.5 -10.5t39.5 -30t17 -46t-4 -59.5z" />
    <glyph glyph-name="nacute" unicode="&#x144;" 
d="M316 572q-33 5 -61 18.5t-42 36.5l137 167q25 3 50.5 -1t47 -12.5t37.5 -22t23 -29.5zM451 8q-11 -2 -26 -4q-13 -2 -32.5 -3t-45.5 -1t-45 1t-32 3q-15 2 -25 4l74 346q8 38 -26 38q-17 0 -37 -14l-79 -370q-11 -2 -27 -4q-14 -2 -33 -3t-44 -1t-44 1t-32 3q-15 2 -26 4
l111 520q11 2 27 4q14 2 32.5 3t44.5 1q25 0 42.5 -1t28.5 -3q13 -2 21 -4l-1 -50q67 68 142 68q38 0 63.5 -10.5t39.5 -30t17 -46t-4 -59.5z" />
    <glyph glyph-name="napostrophe" unicode="&#x149;" 
d="M174 559q-24 -1 -48.5 10.5t-34.5 28.5q21 18 36.5 34t27 33.5t19.5 37.5t15 46q43 3 82.5 -4.5t59.5 -24.5q-12 -29 -29 -54.5t-37.5 -47t-43.5 -37t-47 -22.5zM451 8q-11 -2 -26 -4q-13 -2 -32.5 -3t-45.5 -1t-45 1t-32 3q-15 2 -25 4l74 346q8 38 -26 38
q-17 0 -37 -14l-79 -370q-11 -2 -27 -4q-14 -2 -33 -3t-44 -1t-44 1t-32 3q-15 2 -26 4l111 520q11 2 27 4q14 2 32.5 3t44.5 1q25 0 42.5 -1t28.5 -3q13 -2 21 -4l-1 -50q67 68 142 68q38 0 63.5 -10.5t39.5 -30t17 -46t-4 -59.5z" />
    <glyph glyph-name="ncaron" unicode="&#x148;" 
d="M485 788q24 -13 40.5 -35t21.5 -49l-185 -136h-50l-145 136q18 27 43.5 49.5t54.5 35.5l95 -69zM451 8q-11 -2 -26 -4q-13 -2 -32.5 -3t-45.5 -1t-45 1t-32 3q-15 2 -25 4l74 346q8 38 -26 38q-17 0 -37 -14l-79 -370q-11 -2 -27 -4q-14 -2 -33 -3t-44 -1t-44 1t-32 3
q-15 2 -26 4l111 520q11 2 27 4q14 2 32.5 3t44.5 1q25 0 42.5 -1t28.5 -3q13 -2 21 -4l-1 -50q67 68 142 68q38 0 63.5 -10.5t39.5 -30t17 -46t-4 -59.5z" />
    <glyph glyph-name="ncommaaccent" unicode="&#x146;" 
d="M68 -357q13 14 25 32q11 15 21 36.5t18 47.5q-14 1 -26.5 2t-21.5 3q-11 2 -20 3l42 195q12 2 28 4q14 2 33.5 3t43.5 1q23 0 41 -1t32 -3q16 -2 28 -4l-33 -155q-11 -51 -35 -90t-49 -67q-29 -33 -63 -58zM451 8q-11 -2 -26 -4q-13 -2 -32.5 -3t-45.5 -1t-45 1t-32 3
q-15 2 -25 4l74 346q8 38 -26 38q-17 0 -37 -14l-79 -370q-11 -2 -27 -4q-14 -2 -33 -3t-44 -1t-44 1t-32 3q-15 2 -26 4l111 520q11 2 27 4q14 2 32.5 3t44.5 1q25 0 42.5 -1t28.5 -3q13 -2 21 -4l-1 -50q67 68 142 68q38 0 63.5 -10.5t39.5 -30t17 -46t-4 -59.5z" />
    <glyph glyph-name="nine" unicode="9" horiz-adv-x="558" 
d="M41 0q-2 35 7 80t26 77q70 5 118 28t82 63q-13 -2 -25.5 -3.5t-26.5 -1.5q-47 0 -84.5 14t-60.5 43t-30.5 73t5.5 105q12 56 38.5 98t66 69.5t90.5 41t112 13.5q60 0 105 -16t71.5 -49t33.5 -84t-8 -121q-21 -98 -66.5 -175t-112.5 -132t-153 -86t-188 -37zM262 478
q-11 -51 -1 -69t37 -18q13 0 24.5 2.5t22.5 6.5l4 16.5l4 17.5q8 37 9 60.5t-3 37t-12 18t-19 4.5q-22 0 -40 -19t-26 -57z" />
    <glyph glyph-name="nine.denom" horiz-adv-x="322" 
d="M-4 231q12 57 55.5 87t116.5 30q148 0 118 -142q-11 -52 -36.5 -90t-62.5 -63t-83 -38.5t-98 -17.5q-5 17 1 43t18 44q26 2 49.5 12t41.5 31q-12 -3 -27 -3q-23 0 -43 5.5t-33 18t-18 33t1 50.5zM155 201q8 35 6 49.5t-11 14.5q-17 0 -24 -34q-7 -33 11 -33q10 0 18 3z
" />
    <glyph glyph-name="nine.num" horiz-adv-x="322" 
d="M70 577q12 57 55 87t116 30q148 0 118 -142q-11 -52 -36.5 -90t-62 -63t-82.5 -38.5t-98 -17.5q-5 17 0.5 43t17.5 44q26 2 50 12t41 31q-12 -3 -26 -3q-23 0 -43 5.5t-33 18t-18 33t1 50.5zM228 547q8 36 6.5 50t-10.5 14q-17 0 -24 -34q-7 -33 11 -33q4 0 9 0.5t8 2.5z
" />
    <glyph glyph-name="nineinferior" unicode="&#x2089;" horiz-adv-x="322" 
d="M-24 135q12 57 55.5 87t116.5 30q148 0 117 -142q-11 -52 -36.5 -90t-62 -63t-82.5 -38.5t-98 -17.5q-5 17 0.5 43t17.5 44q26 3 50 12.5t42 30.5q-7 -2 -13 -2.5t-14 -0.5q-23 0 -43 5.5t-33 18t-18 33t1 50.5zM134 105q9 37 7 50.5t-11 13.5q-17 0 -24 -34
q-7 -33 11 -33q4 0 9 0.5t8 2.5z" />
    <glyph glyph-name="notequal" unicode="&#x2260;" horiz-adv-x="497" 
d="M135 46q-15 -4 -36 -5.5t-42 -1.5q-19 0 -36 2t-28 5l49 69h-41q0 31 8 69q5 20 10.5 39.5t12.5 34.5h113l45 63h-145q0 16 2 35t7 39q8 41 22 69h217l43 60q15 4 35 5.5t40 1.5t38 -2t30 -5l-43 -60h50q1 -14 -0.5 -31t-6.5 -36q-8 -42 -24 -76h-123l-45 -63h155
q1 -14 -1 -32t-6 -38q-5 -20 -10.5 -39t-13.5 -34h-227z" />
    <glyph glyph-name="ntilde" unicode="&#xf1;" 
d="M145 696q13 14 31 25q15 10 35.5 18t44.5 8q27 0 46 -5t36 -11t34.5 -11t40.5 -5q16 0 28 4t20 9q10 5 16 13q27 -17 36.5 -48.5t4.5 -63.5q-12 -15 -29 -26q-14 -10 -35 -17.5t-47 -7.5q-27 0 -46 5t-36 11t-34.5 11t-40.5 5q-14 0 -25.5 -4t-20.5 -9q-11 -6 -19 -13
q-26 16 -36.5 46.5t-3.5 65.5zM451 8q-11 -2 -26 -4q-13 -2 -32.5 -3t-45.5 -1t-45 1t-32 3q-15 2 -25 4l74 346q8 38 -26 38q-17 0 -37 -14l-79 -370q-11 -2 -27 -4q-14 -2 -33 -3t-44 -1t-44 1t-32 3q-15 2 -26 4l111 520q11 2 27 4q14 2 32.5 3t44.5 1q25 0 42.5 -1
t28.5 -3q13 -2 21 -4l-1 -50q67 68 142 68q38 0 63.5 -10.5t39.5 -30t17 -46t-4 -59.5z" />
    <glyph glyph-name="_300" horiz-adv-x="0" 
 />
    <glyph glyph-name="numbersign" unicode="#" horiz-adv-x="710" 
d="M540 614q18 5 37.5 7t45.5 2q25 0 43 -2t32 -7l-45 -93h71q2 -17 1 -32.5t-6 -37.5q-5 -24 -12 -42.5t-15 -37.5h-114l-64 -129h67q1 -7 1 -18q0 -9 -1 -23t-5 -33l-9 -32t-8 -24q-4 -11 -9 -20h-109l-41 -83q-17 -5 -35 -7t-43 -2q-49 0 -80 9l41 83h-62l-41 -83
q-17 -5 -36 -7t-45 -2q-47 0 -77 9l41 83h-76q-1 8 -1 19q0 22 7 56q4 19 8.5 32.5t8.5 23.5q4 11 8 19h118l64 129h-71q-1 19 0.5 35.5t6.5 39.5t10.5 40t14.5 35h114l45 93q17 5 35 7t43 2q50 0 80 -9l-45 -93h62zM294 242h62l64 129h-62z" />
    <glyph glyph-name="o" unicode="o" horiz-adv-x="558" 
d="M13 284q16 75 44 125t67 80.5t88.5 43.5t108.5 13q60 0 105.5 -17.5t73.5 -53.5t36 -91.5t-8 -130.5t-44 -125t-67 -81t-89 -44t-109 -13t-105 17.5t-73.5 54t-35.5 92t8 130.5zM317 268q8 36 10.5 60t0 38t-10 19.5t-20.5 5.5t-23 -5.5t-18.5 -19.5t-16 -38t-15.5 -60
t-10.5 -60t0.5 -38.5t10.5 -20t20.5 -5.5t23 5.5t18 20t15.5 38.5t15.5 60z" />
    <glyph glyph-name="oacute" unicode="&#xf3;" horiz-adv-x="558" 
d="M356 794q25 3 50.5 -1t47 -12.5t37.5 -22t23 -29.5l-192 -157q-33 5 -61 18.5t-42 36.5zM13 284q16 75 44 125t67 80.5t88.5 43.5t108.5 13q60 0 105.5 -17.5t73.5 -53.5t36 -91.5t-8 -130.5t-44 -125t-67 -81t-89 -44t-109 -13t-105 17.5t-73.5 54t-35.5 92t8 130.5z
M317 268q8 36 10.5 60t0 38t-10 19.5t-20.5 5.5t-23 -5.5t-18.5 -19.5t-16 -38t-15.5 -60t-10.5 -60t0.5 -38.5t10.5 -20t20.5 -5.5t23 5.5t18 20t15.5 38.5t15.5 60z" />
    <glyph glyph-name="obreve" unicode="&#x14f;" horiz-adv-x="559" 
d="M369 729q25 0 46 4.5t35 9.5q17 6 30 14q26 -14 43.5 -38t20.5 -50q-20 -25 -48 -43q-25 -17 -62 -30t-88 -13t-85.5 13t-54.5 30q-25 18 -38 43q17 26 43.5 50t58.5 38q10 -8 24 -14q12 -5 30.5 -9.5t44.5 -4.5zM14 284q16 75 44 125t67 80.5t88.5 43.5t108.5 13
q60 0 105.5 -17.5t73.5 -53.5t36 -91.5t-8 -130.5t-44 -125t-67 -81t-89 -44t-109 -13t-105 17.5t-73.5 54t-35.5 92t8 130.5zM318 268q8 36 10.5 60t0 38t-10 19.5t-20.5 5.5t-23 -5.5t-18.5 -19.5t-16 -38t-15.5 -60t-10.5 -60t0.5 -38.5t10.5 -20t20.5 -5.5t23 5.5t18 20
t15.5 38.5t15.5 60z" />
    <glyph glyph-name="ocircumflex" unicode="&#xf4;" horiz-adv-x="559" 
d="M548 648q-20 -29 -46.5 -52.5t-57.5 -36.5l-102 72l-134 -71q-26 13 -42.5 36t-23.5 52l200 144h54zM14 284q16 75 44 125t67 80.5t88.5 43.5t108.5 13q60 0 105.5 -17.5t73.5 -53.5t36 -91.5t-8 -130.5t-44 -125t-67 -81t-89 -44t-109 -13t-105 17.5t-73.5 54t-35.5 92
t8 130.5zM318 268q8 36 10.5 60t0 38t-10 19.5t-20.5 5.5t-23 -5.5t-18.5 -19.5t-16 -38t-15.5 -60t-10.5 -60t0.5 -38.5t10.5 -20t20.5 -5.5t23 5.5t18 20t15.5 38.5t15.5 60z" />
    <glyph glyph-name="odieresis" unicode="&#xf6;" horiz-adv-x="558" 
d="M162 735q10 1 23 3q11 2 27.5 3t38.5 1q21 0 37 -1t27 -3q13 -2 23 -3l-32 -148q-11 -2 -24 -4q-23 -3 -65 -3q-43 0 -65 3q-13 2 -22 4zM387 735q10 1 23 3q11 2 27.5 3t38.5 1q21 0 37 -1t27 -3q13 -2 23 -3l-32 -148q-11 -2 -24 -4q-23 -3 -65 -3q-43 0 -65 3
q-13 2 -22 4zM13 284q16 75 44 125t67 80.5t88.5 43.5t108.5 13q60 0 105.5 -17.5t73.5 -53.5t36 -91.5t-8 -130.5t-44 -125t-67 -81t-89 -44t-109 -13t-105 17.5t-73.5 54t-35.5 92t8 130.5zM317 268q8 36 10.5 60t0 38t-10 19.5t-20.5 5.5t-23 -5.5t-18.5 -19.5t-16 -38
t-15.5 -60t-10.5 -60t0.5 -38.5t10.5 -20t20.5 -5.5t23 5.5t18 20t15.5 38.5t15.5 60z" />
    <glyph glyph-name="oe" unicode="&#x153;" horiz-adv-x="804" 
d="M509 211q2 -32 18 -46.5t48 -14.5q20 0 37 3.5t30 8.5q15 5 28 12q9 -9 17 -23.5t13.5 -32t7 -37t-1.5 -38.5q-26 -20 -68.5 -36.5t-114.5 -16.5q-45 0 -83.5 18t-64.5 58q-35 -39 -78.5 -57.5t-84.5 -18.5q-59 0 -103.5 17.5t-71 53.5t-33.5 91.5t9 130.5t45 125.5
t67.5 81t85 43.5t99.5 13q18 0 39 -4t41 -11.5t38 -20t29 -28.5q34 29 80 46.5t88 17.5q49 0 85.5 -13.5t59 -41t29.5 -68t-4 -94.5q-6 -26 -12.5 -47.5l-11.5 -37.5q-6 -18 -12 -33h-250zM610 350q6 26 2 42t-20 16q-17 0 -33.5 -18.5t-30.5 -68.5h75q2 7 3.5 14t3.5 15z
M297 391q-13 0 -23.5 -5.5t-20 -19.5t-17.5 -38t-16 -60t-10 -60t1.5 -38.5t12 -20t21.5 -5.5t23 5.5t18 20t15.5 38.5t15.5 60t10.5 60t0 38t-10 19.5t-20.5 5.5z" />
    <glyph glyph-name="ogonek" unicode="&#x2db;" horiz-adv-x="283" 
d="M232 0q-19 -14 -34.5 -29.5t-26.5 -30.5t-17 -28.5t-6 -22.5q0 -13 13 -18t34 5q5 -6 8.5 -17.5t4.5 -26t0 -29.5t-5 -27q-23 -13 -56 -21t-65 -7q-37 2 -61 19.5t-28 58.5q-2 25 7.5 49t26.5 46.5t38.5 42.5t42.5 36h124z" />
    <glyph glyph-name="ograve" unicode="&#xf2;" horiz-adv-x="558" 
d="M436 627q-23 -23 -56.5 -36.5t-68.5 -18.5l-126 157q13 16 35 29.5t47.5 22t52.5 12.5t51 1zM13 284q16 75 44 125t67 80.5t88.5 43.5t108.5 13q60 0 105.5 -17.5t73.5 -53.5t36 -91.5t-8 -130.5t-44 -125t-67 -81t-89 -44t-109 -13t-105 17.5t-73.5 54t-35.5 92t8 130.5
zM317 268q8 36 10.5 60t0 38t-10 19.5t-20.5 5.5t-23 -5.5t-18.5 -19.5t-16 -38t-15.5 -60t-10.5 -60t0.5 -38.5t10.5 -20t20.5 -5.5t23 5.5t18 20t15.5 38.5t15.5 60z" />
    <glyph glyph-name="ohungarumlaut" unicode="&#x151;" horiz-adv-x="559" 
d="M259 757q23 3 46.5 1t44 -8.5t36 -17t22.5 -23.5l-160 -137q-31 3 -57 13t-40 28zM479 757q23 2 46.5 -1t43.5 -10t35 -18t22 -25l-174 -130q-30 5 -56.5 15.5t-39.5 29.5zM14 284q16 75 44 125t67 80.5t88.5 43.5t108.5 13q60 0 105.5 -17.5t73.5 -53.5t36 -91.5
t-8 -130.5t-44 -125t-67 -81t-89 -44t-109 -13t-105 17.5t-73.5 54t-35.5 92t8 130.5zM318 268q8 36 10.5 60t0 38t-10 19.5t-20.5 5.5t-23 -5.5t-18.5 -19.5t-16 -38t-15.5 -60t-10.5 -60t0.5 -38.5t10.5 -20t20.5 -5.5t23 5.5t18 20t15.5 38.5t15.5 60z" />
    <glyph glyph-name="omacron" unicode="&#x14d;" horiz-adv-x="558" 
d="M508 713q0 -12 -2 -28t-5.5 -32.5t-8.5 -32.5t-10 -28h-276q0 13 2.5 29t6 32.5t8 32t9.5 27.5h276zM13 284q16 75 44 125t67 80.5t88.5 43.5t108.5 13q60 0 105.5 -17.5t73.5 -53.5t36 -91.5t-8 -130.5t-44 -125t-67 -81t-89 -44t-109 -13t-105 17.5t-73.5 54t-35.5 92
t8 130.5zM317 268q8 36 10.5 60t0 38t-10 19.5t-20.5 5.5t-23 -5.5t-18.5 -19.5t-16 -38t-15.5 -60t-10.5 -60t0.5 -38.5t10.5 -20t20.5 -5.5t23 5.5t18 20t15.5 38.5t15.5 60z" />
    <glyph glyph-name="one" unicode="1" horiz-adv-x="442" 
d="M52 554q64 19 109 50t83 77q13 2 31 4q15 2 35 3.5t44 1.5q23 0 42.5 -1.5t33.5 -3.5q16 -2 29 -4l-143 -672q-13 -3 -30 -5q-14 -2 -34 -3t-44 -1t-43 1t-33 3q-16 2 -29 5l83 393l9 39q-28 -18 -58 -29.5t-59 -17.5q-26 23 -33.5 66t7.5 94z" />
    <glyph glyph-name="one.denom" horiz-adv-x="274" 
d="M-6 279q72 18 118 59q10 2 30 3.5t41 1.5q38 0 61 -5l-71 -333q-14 -2 -31 -3.5t-34 -1.5q-19 0 -37.5 1t-33.5 4l33 155q2 12 5.5 25.5t8.5 25.5q-17 -10 -38.5 -17.5t-41.5 -9.5q-10 16 -13.5 43t3.5 52z" />
    <glyph glyph-name="one.num" horiz-adv-x="289" 
d="M68 625q71 18 117 59q11 2 30.5 3.5t40.5 1.5q18 0 34.5 -1.5t26.5 -3.5l-70 -333q-14 -2 -31 -3.5t-34 -1.5q-19 0 -37.5 1t-33.5 4l33 155q2 12 5 25.5t8 25.5q-16 -10 -37.5 -17.5t-41.5 -9.5q-11 16 -14 43t4 52z" />
    <glyph glyph-name="oneeighth" unicode="&#x215b;" horiz-adv-x="770" 
d="M567 695q8 1 19 3q10 2 24.5 3t34.5 1t33.5 -1t23.5 -3q11 -2 19 -3l-535 -698l-21 -4q-21 -3 -57 -3t-55 3q-11 2 -20 4zM204 683q11 2 30.5 3.5t40.5 1.5q18 0 34.5 -1.5t26.5 -3.5l-71 -333q-14 -2 -31 -3.5t-34 -1.5q-19 0 -37 1t-34 4l33 155q3 12 6 25.5t8 25.5
q-17 -10 -38.5 -17.5t-41.5 -9.5q-10 16 -13 43t4 52q71 18 117 59zM441 253q10 47 49.5 71t112.5 24q137 0 119 -89q-5 -26 -22.5 -46.5t-42.5 -30.5q26 -12 38 -33t6 -52q-11 -48 -53.5 -75t-120.5 -27q-150 0 -129 97q5 28 25.5 49t51.5 32q-23 11 -31.5 31.5t-2.5 48.5z
M604 249q2 8 -1.5 13.5t-16.5 5.5q-11 0 -16 -5t-6 -11q-5 -18 23 -29q7 5 11 12.5t6 13.5zM578 98q2 11 -5 19t-30 16q-6 -4 -10 -9t-7.5 -10.5t-4.5 -11.5q-2 -9 3 -16.5t23 -7.5q14 0 21.5 6t9.5 14z" />
    <glyph glyph-name="onehalf" unicode="&#xbd;" horiz-adv-x="757" 
d="M567 695q8 1 19 3q10 2 24.5 3t34.5 1t33.5 -1t23.5 -3q11 -2 19 -3l-535 -698l-21 -4q-21 -3 -57 -3t-55 3q-11 2 -20 4zM204 683q11 2 30.5 3.5t40.5 1.5q18 0 34.5 -1.5t26.5 -3.5l-71 -333q-14 -2 -31 -3.5t-34 -1.5q-19 0 -37 1t-34 4l33 155q3 12 6 25.5t8 25.5
q-17 -10 -38.5 -17.5t-41.5 -9.5q-10 16 -13 43t4 52q71 18 117 59zM479 331q17 4 37 8q17 3 39 6t48 3q66 0 96 -24t18 -78q-9 -43 -30.5 -65t-47 -34.5t-52.5 -20.5t-46 -23h129q2 -26 -4 -53q-3 -13 -7.5 -26t-10.5 -24h-253q-1 7 0 17q0 17 6 44q7 32 22.5 53.5t35.5 36
t41 24l39.5 17.5t31.5 16t16 21q4 20 -33 20q-14 0 -32.5 -2.5t-40.5 -7.5q-9 16 -10 41.5t8 50.5z" />
    <glyph glyph-name="oneinferior" unicode="&#x2081;" horiz-adv-x="274" 
d="M-26 183q71 18 117 59q11 2 30.5 3.5t40.5 1.5q18 0 34.5 -1.5t26.5 -3.5l-70 -333q-14 -2 -31 -3.5t-34 -1.5q-19 0 -37.5 1t-33.5 4l33 155q2 12 5 25.5t8 25.5q-16 -10 -37.5 -17.5t-41.5 -9.5q-11 16 -14 43t4 52z" />
    <glyph glyph-name="onequarter" unicode="&#xbc;" horiz-adv-x="722" 
d="M567 695q8 1 19 3q10 2 24.5 3t34.5 1t33.5 -1t23.5 -3q11 -2 19 -3l-535 -698l-21 -4q-21 -3 -57 -3t-55 3q-11 2 -20 4zM87 624q71 18 117 59q11 2 30.5 3.5t40.5 1.5q18 0 34.5 -1.5t26.5 -3.5l-71 -333q-14 -2 -31 -3.5t-34 -1.5q-19 0 -37 1t-34 4l33 155
q3 12 6 25.5t8 25.5q-17 -10 -38.5 -17.5t-41.5 -9.5q-10 16 -13 43t4 52zM658 148q1 -21 -4 -43q-2 -12 -5.5 -22t-8.5 -21h-37l-12 -57q-19 -3 -36.5 -4t-25.5 -1t-25.5 1t-34.5 4l12 57h-154q0 23 4 43q2 11 5 19.5t7 17.5l198 195q27 6 62 6q33 0 59 -6l-41 -189h37z
M457 148h42l12 56z" />
    <glyph glyph-name="onesuperior" unicode="&#xb9;" horiz-adv-x="274" 
d="M68 624q71 18 117 59q11 2 30.5 3.5t40.5 1.5q18 0 34.5 -1.5t26.5 -3.5l-71 -333q-14 -2 -31 -3.5t-34 -1.5q-19 0 -37 1t-34 4l33 155q3 12 6 25.5t8 25.5q-17 -10 -38.5 -17.5t-41.5 -9.5q-10 16 -13 43t4 52z" />
    <glyph glyph-name="ordfeminine" unicode="&#xaa;" horiz-adv-x="353" 
d="M108 603q21 7 45 13q20 5 46.5 9.5t55.5 4.5q75 0 99 -29t12 -86l-44 -207q-7 -2 -17 -4q-8 -2 -20 -3t-26 -1t-24 1t-18 3q-9 2 -15 4l-3 22q-17 -17 -35.5 -26t-47.5 -9q-45 0 -65.5 26.5t-9.5 80.5q6 27 20 46t33 31.5t42.5 18t48.5 5.5q9 0 16.5 -0.5t13.5 -0.5
q6 -1 12 -1l3 10q2 10 -2.5 15t-19.5 5q-17 0 -32 -2.5t-26 -5.5q-13 -4 -25 -7q-11 17 -16 40.5t-1 46.5zM209 426q-2 0 -4.5 0.5t-5.5 0.5q-16 0 -22 -25q-4 -25 9 -25q6 0 11.5 6t10.5 25l4 18h-3zM306 244q1 -10 -0.5 -23t-4.5 -26.5t-7 -26t-9 -22.5h-290q-1 20 5 48.5
t16 49.5h290z" />
    <glyph glyph-name="ordmasculine" unicode="&#xba;" horiz-adv-x="363" 
d="M55 464q18 85 65.5 125.5t129.5 40.5q81 0 112.5 -39.5t13.5 -126.5q-19 -87 -67.5 -128t-129.5 -41q-82 0 -112.5 41t-11.5 128zM235 464q4 22 6 35.5t1 20.5t-4 9t-9 2t-10.5 -2t-8.5 -9t-8 -20.5t-8 -35.5q-5 -23 -7 -36.5t-1 -20.5t4.5 -9t9.5 -2t10 2t8 9t8 20.5
t9 36.5zM312 244q1 -10 -0.5 -22.5t-3.5 -25.5q-3 -14 -7.5 -27t-9.5 -23h-290q-1 10 1 22.5t4 26.5q3 14 7 26t9 23h290z" />
    <glyph glyph-name="oslash" unicode="&#xf8;" horiz-adv-x="559" 
d="M502 474q28 -36 35.5 -91t-8.5 -130t-44 -125t-67 -81t-89 -44t-109 -13q-57 0 -103 17l-61 -75q-28 2 -49 15t-32 33l67 81q-28 37 -36.5 92t8.5 131q16 75 44 125t67 80.5t88.5 43.5t108.5 13q61 0 106 -18l49 59q29 -2 49 -14.5t31 -32.5zM324 380q-8 11 -26 11
q-13 0 -23 -5.5t-18.5 -19.5t-16 -38t-15.5 -60l-2 -7zM219 157q9 -13 27 -13q13 0 23 5.5t18 20t15.5 38.5t15.5 60l2 9z" />
    <glyph glyph-name="oslashacute" unicode="&#x1ff;" horiz-adv-x="559" 
d="M325 572q-33 5 -61 18.5t-42 36.5l137 167q25 3 50.5 -1t47 -12.5t37.5 -22t23 -29.5zM502 474q28 -36 35.5 -91t-8.5 -130t-44 -125t-67 -81t-89 -44t-109 -13q-57 0 -103 17l-61 -75q-28 2 -49 15t-32 33l67 81q-28 37 -36.5 92t8.5 131q16 75 44 125t67 80.5
t88.5 43.5t108.5 13q61 0 106 -18l49 59q29 -2 49 -14.5t31 -32.5zM324 380q-8 11 -26 11q-13 0 -23 -5.5t-18.5 -19.5t-16 -38t-15.5 -60l-2 -7zM219 157q9 -13 27 -13q13 0 23 5.5t18 20t15.5 38.5t15.5 60l2 9z" />
    <glyph glyph-name="otilde" unicode="&#xf5;" horiz-adv-x="558" 
d="M168 700q13 14 31 25q15 10 35.5 18t44.5 8q27 0 46 -5t36 -11t34.5 -11t40.5 -5q16 0 28 4t20 9q10 5 16 13q27 -17 36.5 -48.5t4.5 -63.5q-12 -15 -29 -26q-14 -10 -35 -17.5t-47 -7.5q-27 0 -46 5t-36.5 11t-35 11t-40.5 5q-14 0 -26 -4t-20 -9q-10 -6 -18 -13
q-26 16 -36.5 46.5t-3.5 65.5zM13 284q16 75 44 125t67 80.5t88.5 43.5t108.5 13q60 0 105.5 -17.5t73.5 -53.5t36 -91.5t-8 -130.5t-44 -125t-67 -81t-89 -44t-109 -13t-105 17.5t-73.5 54t-35.5 92t8 130.5zM317 268q8 36 10.5 60t0 38t-10 19.5t-20.5 5.5t-23 -5.5
t-18.5 -19.5t-16 -38t-15.5 -60t-10.5 -60t0.5 -38.5t10.5 -20t20.5 -5.5t23 5.5t18 20t15.5 38.5t15.5 60z" />
    <glyph glyph-name="p" unicode="p" horiz-adv-x="567" 
d="M130 -216q-13 -2 -29 -4q-14 -2 -33.5 -3t-42.5 -1t-41.5 1t-31.5 3q-15 2 -27 4l157 744q13 2 29 4q14 2 33 3t42 1t41.5 -1t32.5 -3q16 -2 28 -4l-11 -49q16 18 36 33q17 13 42 23.5t57 10.5q40 0 71 -14t48.5 -46t20 -85.5t-13.5 -131.5q-17 -78 -41.5 -131.5
t-56 -86.5t-68.5 -47t-79 -14q-29 0 -48.5 10.5t-32 23t-18.5 23.5t-6 12zM246 144q13 0 23 5.5t18 20t15.5 38.5t15.5 61q7 36 10 60t1 38t-9.5 19.5t-20.5 5.5q-16 0 -31 -13.5t-21 -42.5l-28 -132q-7 -31 2.5 -45.5t24.5 -14.5z" />
    <glyph glyph-name="paragraph" unicode="&#xb6;" horiz-adv-x="760" 
d="M245 169q-64 1 -107.5 24t-67.5 60t-29.5 84t5.5 96q12 50 39 98t68.5 85.5t95.5 60t119 22.5h168l-196 -920q-12 -2 -26 -3q-24 -3 -64 -3q-42 0 -64 3q-13 1 -24 3zM576 -221q-12 -2 -26 -3q-24 -3 -64 -3q-42 0 -64 3q-13 1 -24 3l194 914q11 1 25 3q12 1 29 2t37 1
t36 -1t27 -2q13 -2 24 -3z" />
    <glyph glyph-name="parenleft" unicode="(" horiz-adv-x="298" 
d="M331 792q14 -8 23 -17t14 -17q5 -9 8 -17q-35 -47 -68 -110q-29 -54 -59.5 -132t-51.5 -179q-22 -101 -24 -179t3 -132q6 -63 21 -110q-5 -9 -14 -18q-8 -8 -20.5 -17.5t-32.5 -17.5q-18 -8 -33 -11t-26 -5q-12 -2 -22 -1q-23 66 -34 144q-11 67 -12 155.5t21 191.5
q11 51 26.5 99t34 92t38.5 83.5t39 72.5q45 78 95 144q11 1 23 -1q11 -2 24 -6t27 -12z" />
    <glyph glyph-name="parenright" unicode=")" horiz-adv-x="298" 
d="M106 320q21 101 23.5 179t-2.5 132q-6 63 -22 110q6 8 16 17q8 8 21 17t30 17t32.5 12t26.5 6q13 2 23 1q22 -66 34 -144q10 -67 11.5 -156t-20.5 -191q-11 -51 -26.5 -99t-34 -92t-38.5 -83.5t-39 -72.5q-45 -78 -95 -144q-11 -1 -23 1q-11 2 -24 5t-28 11
q-17 8 -25.5 17.5t-13.5 17.5q-5 9 -6 18q36 47 69 110q29 54 59 132t52 179z" />
    <glyph glyph-name="partialdiff" unicode="&#x2202;" horiz-adv-x="560" 
d="M164 596q1 18 5 39t10.5 42t15 40t19.5 33q205 -15 288 -119.5t40 -309.5q-21 -97 -52.5 -160.5t-73 -101.5t-93 -53.5t-111.5 -15.5t-105.5 14t-72.5 45t-34 81t8 122t43 122t65 81t82 45t95 14q8 0 17.5 -2t15.5 -4q-19 35 -57.5 57.5t-104.5 30.5zM336 354
q-8 6 -18 10t-25 4t-26.5 -5.5t-20 -19t-15 -36t-13.5 -55.5q-8 -34 -10.5 -56.5t0.5 -35.5t12 -18.5t24 -5.5t26 5.5t19.5 18.5t15 35.5t14.5 56.5q6 29 10.5 54t6.5 48z" />
    <glyph glyph-name="percent" unicode="%" horiz-adv-x="782" 
d="M213 -3q-9 -2 -20 -4q-20 -3 -58 -3t-57 3q-11 2 -19 4l534 698q8 1 19 3q10 2 24.5 3t34.5 1q19 0 33 -1t24 -3q11 -2 19 -3zM190 342q-37 0 -64.5 9.5t-44 30.5t-20.5 54.5t6 81.5q20 94 71.5 135.5t126.5 41.5q37 0 64.5 -10t44 -31t20.5 -54.5t-6 -81.5
q-20 -95 -72.5 -135.5t-125.5 -40.5zM243 592q-6 0 -10.5 -2t-8.5 -9.5t-8 -22t-10 -40.5q-5 -26 -7 -40.5t-1 -21.5t4.5 -9t9.5 -2t10 2t8 9t8 21.5t9 40.5q6 25 8 40t1 22.5t-4 9.5t-9 2zM533 -10q-37 0 -64.5 9.5t-44 30.5t-20.5 54.5t6 81.5q20 94 71.5 135.5
t126.5 41.5q37 0 64.5 -10t44 -31t20.5 -54.5t-6 -81.5q-20 -95 -72.5 -135.5t-125.5 -40.5zM586 240q-6 0 -10.5 -2t-8.5 -9.5t-8 -22t-10 -40.5q-5 -26 -7 -40.5t-1 -21.5t4.5 -9t9.5 -2t10 2t8 9t8 21.5t9 40.5q6 25 8 40t1 22.5t-4 9.5t-9 2z" />
    <glyph glyph-name="period" unicode="." horiz-adv-x="275" 
d="M179 8q-12 -2 -28 -4q-14 -2 -33 -3t-44 -1t-43.5 1t-31.5 3q-15 2 -26 4l41 194q11 2 27 4q14 2 33 3t45 1q25 0 43.5 -1t31.5 -3q15 -2 26 -4z" />
    <glyph glyph-name="periodcentered" unicode="&#xb7;" horiz-adv-x="263" 
d="M201 198q-11 -2 -25 -4q-12 -2 -29.5 -3t-40.5 -1t-40 1t-28 3q-13 2 -23 4l37 174q11 2 25 4q12 2 29.5 3t40.5 1t40 -1t28 -3q13 -2 23 -4z" />
    <glyph glyph-name="perthousand" unicode="&#x2030;" horiz-adv-x="1131" 
d="M213 -3q-9 -2 -20 -4q-20 -3 -58 -3t-57 3q-11 2 -19 4l534 698q8 1 19 3q10 2 24.5 3t34.5 1q19 0 33 -1t24 -3q11 -2 19 -3zM190 342q-37 0 -64.5 9.5t-44 30.5t-20.5 54.5t6 81.5q20 94 71.5 135.5t126.5 41.5q37 0 64.5 -10t44 -31t20.5 -54.5t-6 -81.5
q-20 -95 -72.5 -135.5t-125.5 -40.5zM243 592q-6 0 -10.5 -2t-8.5 -9.5t-8 -22t-10 -40.5q-5 -26 -7 -40.5t-1 -21.5t4.5 -9t9.5 -2t10 2t8 9t8 21.5t9 40.5q6 25 8 40t1 22.5t-4 9.5t-9 2zM533 -10q-37 0 -64.5 9.5t-44 30.5t-20.5 54.5t6 81.5q20 94 71.5 135.5
t126.5 41.5q37 0 64.5 -10t44 -31t20.5 -54.5t-6 -81.5q-20 -95 -72.5 -135.5t-125.5 -40.5zM883 -10q-37 0 -64.5 9.5t-44 30.5t-20.5 54.5t6 81.5q20 94 71.5 135.5t126.5 41.5q37 0 64.5 -10t44 -31t20.5 -54.5t-6 -81.5q-20 -95 -72.5 -135.5t-125.5 -40.5zM586 240
q-6 0 -10.5 -2t-8.5 -9.5t-8 -22t-10 -40.5q-5 -26 -7 -40.5t-1 -21.5t4.5 -9t9.5 -2t10 2t8 9t8 21.5t9 40.5q6 25 8 40t1 22.5t-4 9.5t-9 2zM936 240q-6 0 -10.5 -2t-8.5 -9.5t-8 -22t-10 -40.5q-5 -26 -7 -40.5t-1 -21.5t4.5 -9t9.5 -2t10 2t8 9t8 21.5t9 40.5q6 25 8 40
t1 22.5t-4 9.5t-9 2z" />
    <glyph glyph-name="pi" unicode="&#x3c0;" horiz-adv-x="643" 
d="M674 526q2 -15 0.5 -35t-6.5 -41t-12 -41.5t-15 -35.5h-69l-28 -135q-12 -54 -16 -93.5t-5 -65.5q-1 -31 2 -52q-14 -9 -32.5 -14t-38 -8t-37.5 -4t-31 -1q-6 0 -17 0.5l-23 1t-22 2t-15 3.5q-2 17 0 48q2 26 8 70t20 111l29 137h-66l-77 -364q-12 -3 -28 -5
q-14 -2 -33 -3t-44 -1q-26 0 -44.5 1t-31.5 3q-15 2 -25 5l76 356q-17 -2 -30.5 -4t-21.5 -4q-11 -2 -17 -4q-2 14 -0.5 34t6.5 41q5 22 11.5 42.5t15.5 35.5q21 6 52 10q26 4 64 7t89 3h412z" />
    <glyph glyph-name="plus" unicode="+" horiz-adv-x="450" 
d="M12 219q-1 8 0 19l2.5 22t5.5 30q3 17 7 30l7 22q4 11 8 19h124l26 124q9 1 20 3q10 2 23 3t30 1t29.5 -1t21.5 -3l18 -3l-26 -124h124q1 -8 0 -19l-2.5 -22t-4.5 -30q-4 -17 -8 -30l-7 -22q-4 -11 -8 -19h-124l-27 -124q-9 -2 -20 -4q-10 -2 -23 -3t-30 -1t-29.5 1
t-21.5 3q-11 2 -18 4l27 124h-124z" />
    <glyph glyph-name="plusminus" unicode="&#xb1;" horiz-adv-x="476" 
d="M51 331q0 8 1 19q1 9 2 22t5 30t8 30l7 22l7 19h124l18 84q9 1 20 3q10 2 23 3t30 1t29.5 -1t21.5 -3l18 -3l-18 -84h124v-19q-1 -9 -2 -22t-5 -30q-7 -33 -15 -52q-4 -11 -8 -19h-124l-18 -84q-8 -2 -19 -4q-9 -2 -22.5 -3t-30.5 -1t-30 1t-22 3q-11 2 -18 4l18 84h-124
zM-4 73q0 8 1 19l2.5 22t5.5 30q3 17 7 30l7 22q4 11 8 19h390q1 -8 0 -19l-2.5 -22t-4.5 -30q-4 -17 -8 -30t-8 -22q-4 -11 -8 -19h-390z" />
    <glyph glyph-name="product" unicode="&#x220f;" horiz-adv-x="722" 
d="M553 -197q-12 -3 -28 -5q-14 -2 -32 -3.5t-39 -1.5q-41 0 -69 5q-15 2 -26 5l156 733h-209l-156 -733q-12 -3 -28 -5q-14 -2 -32 -3.5t-40 -1.5q-40 0 -68 5q-15 2 -26 5l189 890h597z" />
    <glyph glyph-name="q" unicode="q" horiz-adv-x="565" 
d="M271 60q-17 -20 -38 -35q-18 -14 -43 -24.5t-54 -10.5q-42 0 -73 14t-48.5 47t-19 86.5t15.5 131.5q16 78 41.5 131.5t57 85.5t68.5 46t77 14q32 0 52 -10.5t32 -23.5q14 -15 21 -33l11 49q13 2 29 4q14 2 33 3t42 1t41.5 -1t32.5 -3q16 -2 28 -4l-158 -744
q-13 -2 -29 -4q-14 -2 -33.5 -3t-42.5 -1t-42 1t-32 3q-16 2 -27 4zM249 144q15 0 30.5 14.5t22.5 45.5l28 132q6 29 -3 42.5t-25 13.5q-13 0 -23 -5.5t-18 -19.5t-15.5 -38t-14.5 -60q-8 -37 -11 -61t-1 -38.5t9.5 -20t20.5 -5.5z" />
    <glyph glyph-name="question" unicode="?" horiz-adv-x="477" 
d="M501 518q-9 -43 -28 -72t-43 -49t-49.5 -34.5t-47.5 -28.5t-39 -31t-22 -42q-10 -3 -23 -6q-11 -2 -28 -4t-39 -2t-38 2t-27 4q-13 3 -22 6q10 49 27.5 80.5t37.5 52t41 33l39 22.5t30.5 21t16.5 29q5 20 -7.5 29t-46.5 9q-20 0 -40 -3.5t-35 -8.5q-18 -5 -34 -11
q-26 23 -33 60.5t4 79.5q26 10 58 18q27 7 63.5 12.5t79.5 5.5q50 0 92.5 -7.5t71 -27t40.5 -52.5t1 -85zM234 8q-12 -2 -28 -4q-14 -2 -33 -3t-44 -1t-43.5 1t-31.5 3q-15 2 -26 4l41 194q11 2 27 4q14 2 33 3t45 1q25 0 43.5 -1t31.5 -3q15 -2 26 -4z" />
    <glyph glyph-name="questiondown" unicode="&#xbf;" horiz-adv-x="474" 
d="M224 512q11 2 27 4q14 2 33 3t44 1t44 -1t32 -3q15 -2 26 -4l-41 -194q-11 -2 -27 -4q-14 -2 -33.5 -3t-44.5 -1t-43.5 1t-31.5 3q-15 2 -26 4zM-44 2q9 43 28 72t43 49t49.5 34.5t47.5 28.5t38.5 30.5t22.5 42.5l24 5q11 2 28 3.5t39 1.5t38 -1.5t27 -3.5q12 -3 21 -5
q-11 -49 -28 -80.5t-37 -52t-41 -33l-38.5 -22.5t-30.5 -21t-17 -29q-4 -20 8 -29t46 -9q20 0 39.5 3t35.5 8q18 5 34 12q27 -23 33.5 -60.5t-4.5 -79.5q-25 -10 -57 -18q-27 -7 -63.5 -12.5t-79.5 -5.5q-50 0 -92.5 7.5t-71.5 27t-41 52.5t-1 85z" />
    <glyph glyph-name="quotedbl" unicode="&#x22;" horiz-adv-x="420" 
d="M107 712q11 2 25 4q12 2 29.5 3t39.5 1q20 0 37 -1t29 -3q14 -2 24 -4l-78 -245q-8 -2 -18 -4q-9 -2 -21 -3t-28 -1t-28 1t-20 3q-10 2 -17 4zM298 712q11 2 25 4q12 2 29.5 3t39.5 1q20 0 37 -1t29 -3q14 -2 24 -4l-78 -245q-8 -2 -18 -4q-9 -2 -21 -3t-28 -1t-28 1
t-20 3q-10 2 -17 4z" />
    <glyph glyph-name="quotedblbase" unicode="&#x201e;" horiz-adv-x="512" 
d="M-24 -116q13 14 25 32q11 15 21 36.5t18 47.5q-14 1 -26 2t-21 3q-11 2 -20 3l41 195q12 2 28 4q14 2 33.5 3t43.5 1q23 0 41 -1t32 -3q16 -2 28 -4l-33 -155q-11 -51 -35 -90t-49 -67q-29 -33 -63 -58zM212 -116q13 14 25 32q11 15 21 36.5t18 47.5q-14 1 -26 2t-21 3
q-11 2 -20 3l41 195q12 2 28 4q14 2 33.5 3t43.5 1q23 0 41 -1t32 -3q16 -2 28 -4l-33 -155q-11 -51 -35 -90t-49 -67q-29 -33 -63 -58z" />
    <glyph glyph-name="quotedblleft" unicode="&#x201c;" horiz-adv-x="502" 
d="M284 669q-13 -14 -25 -32q-11 -15 -21.5 -37t-18.5 -48q14 -1 26 -2t22 -2q11 -2 21 -3l-42 -195q-12 -2 -28 -4q-14 -2 -33 -3t-43 -1q-23 0 -41.5 1t-32.5 3q-16 2 -28 4l33 155q11 50 35 89.5t49 67.5q29 33 63 58zM520 669q-13 -14 -25 -32q-11 -15 -21.5 -37
t-18.5 -48q14 -1 26 -2t22 -2q11 -2 21 -3l-42 -195q-12 -2 -28 -4q-14 -2 -33 -3t-43 -1q-23 0 -41.5 1t-32.5 3q-16 2 -28 4l33 155q11 50 35 89.5t49 67.5q29 33 63 58z" />
    <glyph glyph-name="quotedblright" unicode="&#x201d;" horiz-adv-x="494" 
d="M73 393q13 13 25 31q11 15 21 36.5t18 48.5q-14 1 -26 2t-21 3q-11 2 -20 3l41 195q12 2 28 4q14 2 33.5 3t43.5 1q23 0 41 -1t32 -3q16 -2 28 -4l-33 -155q-11 -51 -35 -90t-49 -67q-29 -33 -62 -58zM309 393q13 13 25 31q11 15 21 36.5t18 48.5q-14 1 -26 2t-21 3
q-11 2 -20 3l41 195q12 2 28 4q14 2 33.5 3t43.5 1q23 0 41 -1t32 -3q16 -2 28 -4l-33 -155q-11 -51 -35 -90t-49 -67q-29 -33 -62 -58z" />
    <glyph glyph-name="quoteleft" unicode="&#x2018;" horiz-adv-x="266" 
d="M284 669q-13 -14 -25 -32q-11 -15 -21.5 -37t-18.5 -48q14 -1 26 -2t22 -2q11 -2 21 -3l-42 -195q-12 -2 -28 -4q-14 -2 -33 -3t-43 -1q-23 0 -41.5 1t-32.5 3q-16 2 -28 4l33 155q11 50 35 89.5t49 67.5q29 33 63 58z" />
    <glyph glyph-name="quoteright" unicode="&#x2019;" horiz-adv-x="258" 
d="M73 393q13 13 25 31q11 15 21 36.5t18 48.5q-14 1 -26 2t-21 3q-11 2 -20 3l41 195q12 2 28 4q14 2 33.5 3t43.5 1q23 0 41 -1t32 -3q16 -2 28 -4l-33 -155q-11 -51 -35 -90t-49 -67q-29 -33 -62 -58z" />
    <glyph glyph-name="quotesinglbase" unicode="&#x201a;" horiz-adv-x="276" 
d="M-24 -116q13 14 25 32q11 15 21 36.5t18 47.5q-14 1 -26 2t-21 3q-11 2 -20 3l41 195q12 2 28 4q14 2 33.5 3t43.5 1q23 0 41 -1t32 -3q16 -2 28 -4l-33 -155q-11 -51 -35 -90t-49 -67q-29 -33 -63 -58z" />
    <glyph glyph-name="quotesingle" unicode="'" horiz-adv-x="229" 
d="M107 712q11 2 25 4q12 2 29.5 3t39.5 1q20 0 37 -1t29 -3q14 -2 24 -4l-78 -245q-8 -2 -18 -4q-9 -2 -21 -3t-28 -1t-28 1t-20 3q-10 2 -17 4z" />
    <glyph glyph-name="r" unicode="r" horiz-adv-x="431" 
d="M272 479q29 39 64.5 52.5t62.5 13.5q45 0 84 -29q-3 -17 -10.5 -38t-19.5 -43t-28 -43.5t-36 -38.5q-9 8 -25.5 11t-30.5 3q-17 0 -42 -8.5t-45 -25.5l-68 -325q-13 -2 -30 -4q-14 -2 -33 -3t-42 -1q-24 0 -43 1t-32 3q-15 2 -26 4l110 520q12 2 28 4q14 2 33.5 3t43.5 1
q25 0 41.5 -1t27.5 -3q12 -2 19 -4l-3 -49v0z" />
    <glyph glyph-name="racute" unicode="&#x155;" horiz-adv-x="431" 
d="M314 794q25 3 50.5 -1t47 -12.5t37.5 -22t23 -29.5l-192 -157q-33 5 -61 18.5t-42 36.5zM272 479q29 39 64.5 52.5t62.5 13.5q45 0 84 -29q-3 -17 -10.5 -38t-19.5 -43t-28 -43.5t-36 -38.5q-9 8 -25.5 11t-30.5 3q-17 0 -42 -8.5t-45 -25.5l-68 -325q-13 -2 -30 -4
q-14 -2 -33 -3t-42 -1q-24 0 -43 1t-32 3q-15 2 -26 4l110 520q12 2 28 4q14 2 33.5 3t43.5 1q25 0 41.5 -1t27.5 -3q12 -2 19 -4z" />
    <glyph glyph-name="radical" unicode="&#x221a;" horiz-adv-x="655" 
d="M111 281l-80 -32q-16 18 -24.5 52t-2.5 70l251 100l57 -251l282 510q21 1 43 -1t42 -7t37 -13t28 -18l-388 -706h-176z" />
    <glyph glyph-name="rcaron" unicode="&#x159;" horiz-adv-x="431" 
d="M433 793q24 -13 40 -35t22 -49l-180 -136h-50l-150 136q17 27 43 49.5t55 35.5l95 -69zM272 479q29 39 64.5 52.5t62.5 13.5q45 0 84 -29q-3 -17 -10.5 -38t-19.5 -43t-28 -43.5t-36 -38.5q-9 8 -25.5 11t-30.5 3q-17 0 -42 -8.5t-45 -25.5l-68 -325q-13 -2 -30 -4
q-14 -2 -33 -3t-42 -1q-24 0 -43 1t-32 3q-15 2 -26 4l110 520q12 2 28 4q14 2 33.5 3t43.5 1q25 0 41.5 -1t27.5 -3q12 -2 19 -4z" />
    <glyph glyph-name="rcommaaccent" unicode="&#x157;" horiz-adv-x="431" 
d="M-42 -48q12 2 28 4q14 2 33 3t43 1q23 0 41.5 -1t32.5 -3q16 -2 28 -4l-33 -155q-11 -51 -35 -90t-49 -67q-29 -33 -63 -58l-64 51q13 14 25 32q11 15 21 36.5t18 47.5q-14 1 -26.5 2t-21.5 3q-11 2 -20 3zM272 479q29 39 64.5 52.5t62.5 13.5q45 0 84 -29
q-3 -17 -10.5 -38t-19.5 -43t-28 -43.5t-36 -38.5q-9 8 -25.5 11t-30.5 3q-17 0 -42 -8.5t-45 -25.5l-68 -325q-13 -2 -30 -4q-14 -2 -33 -3t-42 -1q-24 0 -43 1t-32 3q-15 2 -26 4l110 520q12 2 28 4q14 2 33.5 3t43.5 1q25 0 41.5 -1t27.5 -3q12 -2 19 -4z" />
    <glyph glyph-name="registered" unicode="&#xae;" horiz-adv-x="510" 
d="M241 240q-48 0 -86 18t-63 49.5t-34 73.5t1 90t37 90t65 73.5t84 49.5t94 18t86 -18t63 -49.5t34 -73.5t-1 -90t-37 -90t-65 -73.5t-84 -49.5t-94 -18zM324 631q-33 0 -65 -12.5t-58.5 -34t-45.5 -51t-26 -62.5t-0.5 -62.5t24 -51.5t44 -34.5t59.5 -12.5t65 12.5t58 34.5
t45 51.5t26 62.5t1 62.5t-23.5 51t-44 34t-59.5 12.5zM339 589q36 0 54 -19.5t11 -51.5q-5 -23 -20 -40t-38 -25l30 -84l-10 -4t-12 -3t-17 -1q-14 0 -24 2q-5 1 -8 3l-30 81h-6l-17 -81q-5 -2 -10 -3t-12 -1.5t-15 -0.5q-9 0 -15.5 0.5t-11.5 1.5t-9 3l47 223h113zM305 501
q20 0 24 17t-16 17h-25l-8 -34h25z" />
    <glyph glyph-name="ring" unicode="&#x2da;" horiz-adv-x="344" 
d="M113 452q-38 0 -67.5 11t-48 31.5t-25 51t1.5 69.5q8 40 29 70t50 50t62.5 30.5t67.5 10.5q33 0 62.5 -10t50 -30.5t29 -50.5t0.5 -70q-9 -39 -29.5 -69.5t-49 -51.5t-63 -31.5t-70.5 -10.5zM192 615q3 16 -5 28.5t-31 12.5q-22 0 -35 -13t-16 -28q-4 -16 4 -29t30 -13
q23 0 36 13.5t17 28.5z" />
    <glyph glyph-name="s" unicode="s" horiz-adv-x="463" 
d="M40 383q18 85 79 124t173 39q45 0 79 -5.5t57 -11.5q27 -7 47 -16q-5 -35 -21 -69.5t-46 -59.5q-17 4 -37 8q-17 3 -39.5 5.5t-48.5 2.5q-32 0 -44 -6t-14 -16q-2 -8 7 -14t24 -11t35 -11t40 -14q21 -8 40 -22t31.5 -34t17 -48t-3.5 -65q-17 -84 -78 -126.5t-182 -42.5
q-49 0 -85 7t-61 15q-29 10 -50 22q9 42 26 71.5t43 54.5q18 -7 38 -11q17 -4 40.5 -7t49.5 -3q38 0 52.5 5.5t16.5 16.5q2 8 -6 14t-22.5 11.5t-33.5 11t-39 13.5q-21 8 -39.5 22t-31.5 35t-17.5 49.5t3.5 65.5z" />
    <glyph glyph-name="sacute" unicode="&#x15b;" horiz-adv-x="463" 
d="M284 572q-33 5 -61 18.5t-42 36.5l137 167q25 3 50.5 -1t47 -12.5t37.5 -22t23 -29.5zM40 383q18 85 79 124t173 39q45 0 79 -5.5t57 -11.5q27 -7 47 -16q-5 -35 -21 -69.5t-46 -59.5q-17 4 -37 8q-17 3 -39.5 5.5t-48.5 2.5q-32 0 -44 -6t-14 -16q-2 -8 7 -14t24 -11
t35 -11t40 -14q21 -8 40 -22t31.5 -34t17 -48t-3.5 -65q-17 -84 -78 -126.5t-182 -42.5q-49 0 -85 7t-61 15q-29 10 -50 22q9 42 26 71.5t43 54.5q18 -7 38 -11q17 -4 40.5 -7t49.5 -3q38 0 52.5 5.5t16.5 16.5q2 8 -6 14t-22.5 11.5t-33.5 11t-39 13.5q-21 8 -39.5 22
t-31.5 35t-17.5 49.5t3.5 65.5z" />
    <glyph glyph-name="scaron" unicode="&#x161;" horiz-adv-x="463" 
d="M128 712q17 26 42.5 48.5t54.5 34.5l94 -67l123 66q24 -12 39.5 -34t21.5 -48l-179 -137h-49zM40 383q18 85 79 124t173 39q45 0 79 -5.5t57 -11.5q27 -7 47 -16q-5 -35 -21 -69.5t-46 -59.5q-17 4 -37 8q-17 3 -39.5 5.5t-48.5 2.5q-32 0 -44 -6t-14 -16q-2 -8 7 -14
t24 -11t35 -11t40 -14q21 -8 40 -22t31.5 -34t17 -48t-3.5 -65q-17 -84 -78 -126.5t-182 -42.5q-49 0 -85 7t-61 15q-29 10 -50 22q9 42 26 71.5t43 54.5q18 -7 38 -11q17 -4 40.5 -7t49.5 -3q38 0 52.5 5.5t16.5 16.5q2 8 -6 14t-22.5 11.5t-33.5 11t-39 13.5
q-21 8 -39.5 22t-31.5 35t-17.5 49.5t3.5 65.5z" />
    <glyph glyph-name="scedilla" unicode="&#x15f;" horiz-adv-x="463" 
d="M87 -121l-10 16l44 96q-40 2 -70 9t-50 15q-24 9 -41 19q9 42 26 71.5t43 54.5q18 -7 38 -11q17 -4 40.5 -7t49.5 -3q38 0 52.5 5.5t16.5 16.5q2 8 -6 14t-22.5 11.5t-33.5 11t-39 13.5q-21 8 -39.5 22t-31.5 35t-17.5 49.5t3.5 65.5q18 85 79 124t173 39q45 0 79 -5.5
t57 -11.5q27 -7 47 -16q-5 -35 -21 -69.5t-46 -59.5q-17 4 -37 8q-17 3 -39.5 5.5t-48.5 2.5q-32 0 -44 -6t-14 -16q-2 -8 7 -14t24 -11t35 -11t40 -14q21 -8 40 -22t31.5 -34t17 -48t-3.5 -65q-15 -71 -60.5 -112.5t-132.5 -52.5l-16 -43q50 -5 67.5 -32t9.5 -70
q-6 -28 -21.5 -48t-38 -33t-51 -19t-59.5 -6q-30 0 -52.5 3.5t-38.5 8.5q-18 5 -32 12q1 8 5 18.5t9.5 21.5t12.5 20t14 14q10 -4 28.5 -9.5t37.5 -6.5t34.5 4.5t18.5 23.5q2 11 -4 18.5t-18 7.5h-42z" />
    <glyph glyph-name="scircumflex" unicode="&#x15d;" horiz-adv-x="463" 
d="M521 651q-20 -29 -46.5 -52.5t-56.5 -36.5l-103 72l-133 -71q-26 13 -43 36t-24 52l202 141h54zM40 383q18 85 79 124t173 39q45 0 79 -5.5t57 -11.5q27 -7 47 -16q-5 -35 -21 -69.5t-46 -59.5q-17 4 -37 8q-17 3 -39.5 5.5t-48.5 2.5q-32 0 -44 -6t-14 -16q-2 -8 7 -14
t24 -11t35 -11t40 -14q21 -8 40 -22t31.5 -34t17 -48t-3.5 -65q-17 -84 -78 -126.5t-182 -42.5q-49 0 -85 7t-61 15q-29 10 -50 22q9 42 26 71.5t43 54.5q18 -7 38 -11q17 -4 40.5 -7t49.5 -3q38 0 52.5 5.5t16.5 16.5q2 8 -6 14t-22.5 11.5t-33.5 11t-39 13.5
q-21 8 -39.5 22t-31.5 35t-17.5 49.5t3.5 65.5z" />
    <glyph glyph-name="scommaaccent" unicode="&#x219;" horiz-adv-x="463" 
d="M34 -358q13 13 24 31q10 15 20.5 35.5t18.5 46.5q-14 1 -26 2t-21 3q-11 2 -20 3l42 191q11 2 27 4q14 2 32.5 3t42.5 1q22 0 40 -1t32 -3q16 -2 28 -4l-33 -152q-11 -49 -34 -88t-48 -66q-29 -32 -62 -56zM40 383q18 85 79 124t173 39q45 0 79 -5.5t57 -11.5
q27 -7 47 -16q-5 -35 -21 -69.5t-46 -59.5q-17 4 -37 8q-17 3 -39.5 5.5t-48.5 2.5q-32 0 -44 -6t-14 -16q-2 -8 7 -14t24 -11t35 -11t40 -14q21 -8 40 -22t31.5 -34t17 -48t-3.5 -65q-17 -84 -78 -126.5t-182 -42.5q-49 0 -85 7t-61 15q-29 10 -50 22q9 42 26 71.5t43 54.5
q18 -7 38 -11q17 -4 40.5 -7t49.5 -3q38 0 52.5 5.5t16.5 16.5q2 8 -6 14t-22.5 11.5t-33.5 11t-39 13.5q-21 8 -39.5 22t-31.5 35t-17.5 49.5t3.5 65.5z" />
    <glyph glyph-name="section" unicode="&#xa7;" horiz-adv-x="495" 
d="M238 148q2 9 -15 13t-43 8t-56 11t-53.5 21.5t-36 40t-3.5 67.5q9 44 35 71t58 44q-22 16 -33 44t0 76q7 37 28 64.5t52 45.5t71.5 27t88.5 9q58 0 101 -9.5t75 -23.5q-8 -34 -27 -67t-45 -56q-12 4 -32.5 8.5t-42.5 7.5q-30 4 -55 1t-29 -20q-2 -10 14.5 -14.5t41.5 -8
t54 -10t52 -21.5t34.5 -40.5t2.5 -68.5q-9 -42 -34.5 -68t-56.5 -40q14 -8 25.5 -19t18 -26t8 -34.5t-3.5 -45.5q-8 -39 -32.5 -66.5t-60.5 -45t-80.5 -25.5t-93.5 -8q-39 0 -73.5 5.5t-60.5 12.5q-31 8 -56 18q8 35 27.5 71.5t46.5 58.5q23 -8 53 -15t58 -9q30 -2 53 0.5
t25 15.5zM236 385q-18 -18 -22 -37q-2 -11 2 -19.5t12 -14.5t20 -10.5t25 -7.5q16 16 21 36q2 12 -2 20t-12 14t-19.5 10.5t-24.5 8.5z" />
    <glyph glyph-name="semicolon" unicode=";" horiz-adv-x="283" 
d="M248 324q-12 -2 -28 -4q-14 -2 -33 -3t-44 -1t-43.5 1t-31.5 3q-15 2 -26 4l41 194q11 2 27 4q14 2 33 3t45 1q25 0 43.5 -1t31.5 -3q15 -2 26 -4zM-22 -116q13 14 25 32q11 15 21 36.5t18 47.5q-14 1 -26 2t-21 3q-11 2 -20 3l41 195q12 2 28 4q14 2 33.5 3t43.5 1
q23 0 41 -1t32 -3q16 -2 28 -4l-33 -155q-11 -51 -35 -90t-49 -67q-29 -33 -63 -58z" />
    <glyph glyph-name="seven" unicode="7" horiz-adv-x="512" 
d="M579 690q-1 -23 -4.5 -46.5t-8.5 -46.5q-13 -60 -40 -106t-61.5 -86.5t-73 -79.5t-74 -85t-64.5 -102.5t-45 -131.5q-14 -3 -42 -4.5t-59 -1.5t-59 1.5t-41 4.5q16 74 41 131t55.5 103t64.5 82.5l66 70l60.5 66t49.5 69.5h-279q-1 10 0 23q1 11 2.5 26t6.5 33
q4 17 8.5 32t8.5 26q4 12 9 22h479z" />
    <glyph glyph-name="seven.denom" horiz-adv-x="294" 
d="M0 239q0 25 6 52q3 14 7 27.5t9 24.5h271v-13q0 -6 -1 -12.5t-3 -14.5q-11 -49 -38 -84.5t-56.5 -67.5t-55.5 -66t-33 -81q-14 -2 -31.5 -3t-36.5 -1t-36 1t-28 3q11 51 31.5 86t43 60.5t44 46t33.5 42.5h-126z" />
    <glyph glyph-name="seven.num" horiz-adv-x="294" 
d="M366 689q1 -19 -3 -40q-11 -49 -38 -84.5t-57 -67.5t-55.5 -66t-33.5 -81q-13 -2 -31 -3t-36.5 -1t-35.5 1t-29 3q11 51 31.5 86t43.5 60.5t44 46t33 42.5h-126q0 23 6 52t16 52h271z" />
    <glyph glyph-name="seveneighths" unicode="&#x215e;" horiz-adv-x="723" 
d="M524 695q8 1 19 3q10 2 24.5 3t34.5 1t33.5 -1t23.5 -3q11 -2 19 -3l-535 -698l-21 -4q-21 -3 -57 -3t-55 3q-11 2 -20 4zM383 689v-13q0 -12 -3 -27q-11 -49 -38 -84.5t-57 -67.5t-55.5 -66t-33.5 -81q-13 -2 -31 -3t-36.5 -1t-35.5 1t-29 3q11 51 31.5 86t43.5 60.5
t44 46t33 42.5h-126q0 23 6 52t16 52h271zM398 253q10 47 49.5 71t112.5 24q137 0 119 -89q-5 -26 -22.5 -46.5t-42.5 -30.5q26 -12 38 -33t6 -52q-11 -48 -53.5 -75t-120.5 -27q-150 0 -129 97q5 28 25.5 49t51.5 32q-23 11 -31.5 31.5t-2.5 48.5zM561 249q2 8 -1.5 13.5
t-16.5 5.5q-11 0 -16 -5t-6 -11q-5 -18 23 -29q7 5 11 12.5t6 13.5zM535 98q2 11 -5 19t-30 16q-6 -4 -10 -9t-7.5 -10.5t-4.5 -11.5q-2 -9 3 -16.5t23 -7.5q14 0 21.5 6t9.5 14z" />
    <glyph glyph-name="seveninferior" unicode="&#x2087;" horiz-adv-x="296" 
d="M-19 143q0 23 6 52t16 52h271v-13q0 -12 -3 -27q-11 -49 -39.5 -84.5t-60.5 -67.5t-59 -66t-35 -81q-13 -2 -31 -3t-36.5 -1t-35.5 1t-29 3q11 51 33 86t47 60.5t47.5 46t34.5 42.5h-126z" />
    <glyph glyph-name="six" unicode="6" horiz-adv-x="558" 
d="M535 690q2 -35 -7.5 -80t-26.5 -77q-70 -6 -119 -29t-82 -63q13 2 26 3.5t28 1.5q47 0 84 -14.5t60.5 -43.5t30.5 -73.5t-6 -105.5q-23 -113 -104 -166t-202 -53t-176.5 66t-25.5 206q21 97 66.5 174t112 131.5t153 85.5t188.5 37zM313 209q11 51 1 70t-37 19
q-13 0 -25 -3t-22 -7q-2 -8 -3.5 -15t-3.5 -15q-8 -38 -9 -61.5t3 -37t12 -18.5t19 -5q22 0 39.5 17.5t25.5 55.5z" />
    <glyph glyph-name="six.denom" horiz-adv-x="323" 
d="M-21 137q11 52 36.5 90t62 63t82.5 38.5t99 17.5q3 -9 2.5 -21t-3.5 -24t-7.5 -23.5t-10.5 -18.5q-26 -3 -49.5 -13t-42.5 -30q12 3 28 3q23 0 43 -5.5t33 -18t18 -33t-1 -50.5q-12 -57 -55.5 -87t-116.5 -30q-148 0 -118 142zM139 112q7 33 -11 33q-4 0 -9.5 -1t-8.5 -2
q-10 -35 -7 -49.5t12 -14.5q17 0 24 34z" />
    <glyph glyph-name="six.num" horiz-adv-x="322" 
d="M53 483q11 52 36.5 90t62 63t82.5 38.5t98 17.5q5 -17 -0.5 -43t-17.5 -44q-26 -3 -50 -13t-43 -30q13 3 28 3q23 0 43 -5.5t33 -18t18 -33t-1 -50.5q-12 -57 -55.5 -87t-116.5 -30q-148 0 -117 142zM212 458q7 33 -11 33q-4 0 -9 -1t-8 -2q-8 -35 -6.5 -49.5t10.5 -14.5
q17 0 24 34z" />
    <glyph glyph-name="sixinferior" unicode="&#x2086;" horiz-adv-x="322" 
d="M-41 41q11 52 36.5 90t62 63t82.5 38.5t98 17.5q5 -17 -0.5 -43t-17.5 -44q-26 -3 -50 -13t-43 -30q13 3 28 3q23 0 43 -5.5t33 -18t18 -33t-1 -50.5q-12 -57 -55.5 -87t-116.5 -30q-148 0 -117 142zM118 16q7 33 -11 33q-4 0 -9 -1t-8 -2q-10 -37 -7.5 -50.5t11.5 -13.5
q17 0 24 34z" />
    <glyph glyph-name="slash" unicode="/" horiz-adv-x="577" 
d="M441 741q14 2 32 4q15 2 34 3.5t42 1.5t42.5 -1.5t33.5 -3.5q17 -2 30 -4l-498 -779q-14 -3 -32 -5q-15 -2 -34.5 -3t-41.5 -1q-23 0 -42.5 1t-33.5 3q-17 2 -30 5z" />
    <glyph glyph-name="space" unicode=" " horiz-adv-x="169" 
 />
    <glyph glyph-name="sterling" unicode="&#xa3;" horiz-adv-x="554" 
d="M298 268q-8 -27 -25 -53.5t-48 -51.5h265q1 -10 0 -21t-2.5 -25t-5.5 -33q-5 -19 -9.5 -34t-8.5 -26q-4 -13 -9 -24h-475l35 163q39 32 60 57t31 48h-79q0 9 1 20q1 10 2.5 22.5t4.5 27.5q3 17 7 29l7 21l7 18h50q-2 20 -1.5 43t6.5 52q11 51 39.5 87t68.5 59t87 33.5
t94 10.5q37 0 65.5 -3t51 -8t40.5 -11.5t35 -14.5q-11 -42 -33.5 -76.5t-52.5 -58.5q-23 8 -47 13.5t-47 5.5q-35 -1 -62.5 -19t-38.5 -65q-4 -20 -4 -48h169q1 -7 0 -17l-2.5 -20.5t-4.5 -28.5t-7 -28.5l-7 -22.5l-8 -21h-149z" />
    <glyph glyph-name="summation" unicode="&#x2211;" horiz-adv-x="647" 
d="M238 261l-129 377l11 56h567q1 -11 0 -23q-1 -11 -2.5 -24.5t-4.5 -29.5q-3 -15 -7.5 -28.5l-8.5 -24.5q-4 -12 -9 -23h-306l98 -282l-238 -310h326q0 -11 -1 -23q-1 -11 -2.5 -25.5t-4.5 -30.5q-3 -15 -7.5 -29t-8.5 -25q-4 -12 -9 -23h-590l13 61z" />
    <glyph glyph-name="t" unicode="t" horiz-adv-x="392" 
d="M247 190q-6 -30 6.5 -40.5t38.5 -10.5q22 0 36 3q8 1 15 3q3 -8 4 -19q1 -10 0.5 -25.5t-5.5 -36.5l-7 -25t-6 -19l-7 -16q-29 -7 -59.5 -10.5t-62.5 -3.5q-56 0 -92 10t-55 33t-21.5 61t9.5 95l41 194h-58q0 9 1 20l2.5 22t4.5 29q8 36 15 53q4 11 8 19h58l20 94
q21 9 47.5 15t54.5 9.5t56 3.5t53 -3l-25 -119h88q0 -8 -1 -19l-2.5 -22t-4.5 -30q-7 -32 -15 -52q-4 -11 -8 -20h-88z" />
    <glyph glyph-name="tbar" unicode="&#x167;" horiz-adv-x="396" 
d="M295 139q22 0 36 3q8 1 15 3q3 -8 4 -19q1 -10 0.5 -25.5t-5.5 -36.5l-7 -25t-6 -19l-7 -16q-29 -7 -59.5 -10.5t-62.5 -3.5q-56 0 -92 10t-55 33t-21.5 61t9.5 95l7 32h-56q-1 27 5.5 57.5t18.5 54.5h56l10 50h-57q0 9 1 20l2.5 22t4.5 29q8 36 15 53q4 11 8 19h57
l20 94q21 9 47.5 15t54.5 9.5t56 3.5t53 -3l-25 -119h88q0 -8 -1 -19l-2.5 -22t-4.5 -30q-7 -32 -15 -52q-4 -11 -8 -20h-88l-10 -50h68q2 -25 -5 -56t-19 -56h-68l-7 -31q-6 -30 6.5 -40.5t38.5 -10.5z" />
    <glyph glyph-name="tcaron" unicode="&#x165;" horiz-adv-x="392" 
d="M437 559q-24 -1 -48.5 10.5t-34.5 28.5q21 18 36.5 34t27 33.5t19.5 37.5t15 46q43 3 82.5 -4.5t59.5 -24.5q-12 -29 -29 -54.5t-37.5 -47t-43.5 -37t-47 -22.5zM247 190q-6 -30 6.5 -40.5t38.5 -10.5q22 0 36 3q8 1 15 3q3 -8 4 -19q1 -10 0.5 -25.5t-5.5 -36.5l-7 -25
t-6 -19l-7 -16q-29 -7 -59.5 -10.5t-62.5 -3.5q-56 0 -92 10t-55 33t-21.5 61t9.5 95l41 194h-57q0 9 1 20l2.5 22t4.5 29q8 36 15 53q4 11 8 19h57l20 94q21 9 47.5 15t54.5 9.5t56 3.5t53 -3l-25 -119h88q0 -8 -1 -19l-2.5 -22t-4.5 -30q-7 -32 -15 -52q-4 -11 -8 -20h-88
z" />
    <glyph glyph-name="thorn" unicode="&#xfe;" horiz-adv-x="569" 
d="M130 752q12 2 29 4q14 2 33.5 3t42.5 1t41.5 -1t32.5 -3q15 -2 27 -4l-54 -253q25 22 57.5 34.5t72.5 12.5q38 0 69 -15.5t49.5 -50t21.5 -90t-14 -135.5q-17 -78 -42 -129t-56.5 -81t-69 -42.5t-78.5 -12.5q-39 0 -65.5 13.5t-42.5 36.5l-54 -256q-13 -2 -29 -4
q-14 -2 -33.5 -3t-42.5 -1t-42 1t-32 3q-16 2 -27 4zM318 269q8 37 10.5 61t0.5 37.5t-9.5 19t-20.5 5.5q-15 0 -29 -12.5t-22 -38.5l-27 -131q-2 -11 -2.5 -22.5t2 -21t8.5 -16t18 -6.5q10 0 19.5 4t17.5 16.5t16.5 37.5t17.5 67z" />
    <glyph glyph-name="three" unicode="3" horiz-adv-x="539" 
d="M490 189q-20 -95 -99.5 -147t-234.5 -52q-49 0 -86 5.5t-63 13.5q-30 8 -52 19q4 17 12.5 37t19.5 38.5t24 35.5t26 28q21 -6 45 -10q20 -4 46 -6.5t52 -2.5q29 0 48 5t31 14t18 22t9 28q7 31 -5 49t-60 18h-103q-2 16 0 35.5t6.5 40t11 40t14.5 34.5h103q36 0 51.5 14.5
t20.5 40.5q6 29 -8.5 42.5t-54.5 13.5q-29 0 -52.5 -3t-40.5 -6q-20 -4 -36 -9q-11 9 -19.5 24t-13.5 33.5t-5.5 38.5t3.5 38q31 10 67 19q30 8 69.5 14t82.5 6q61 0 106.5 -12t74.5 -35t39.5 -58t0.5 -81q-11 -50 -42.5 -89.5t-86.5 -61.5q108 -44 81 -174z" />
    <glyph glyph-name="three.denom" horiz-adv-x="310" 
d="M251 100q-5 -23 -15.5 -42.5t-30.5 -33.5t-51.5 -21.5t-77.5 -7.5q-32 0 -55.5 3t-39.5 8q-18 5 -32 12q4 20 17 42t28 35q9 -3 20 -5q20 -5 47 -5q30 0 42 6t15 20t-4 19t-31 5h-48q-3 17 2.5 43.5t15.5 43.5h48q17 0 24.5 3.5t9.5 14.5q2 10 -4.5 14.5t-30.5 4.5
q-14 0 -25.5 -1t-20.5 -3q-11 -2 -19 -4q-11 13 -15 33t1 44q17 6 37 10q17 4 39.5 7t48.5 3q81 0 109.5 -24t18.5 -69q-7 -31 -24 -48.5t-43 -25.5q22 -8 36.5 -27.5t7.5 -53.5z" />
    <glyph glyph-name="three.num" horiz-adv-x="311" 
d="M325 446q-5 -23 -16 -42.5t-31 -33.5t-51.5 -21.5t-77.5 -7.5q-32 0 -55.5 3t-39.5 8q-18 5 -32 12q5 20 17.5 42t28.5 35q9 -3 20 -5q20 -5 47 -5q30 0 41.5 6t14.5 20t-4 19t-31 5h-48q-2 17 3.5 43.5t15.5 43.5h48q17 0 24 3.5t10 14.5q2 10 -4.5 14.5t-30.5 4.5
q-14 0 -25.5 -1t-20.5 -3q-11 -2 -19 -4q-11 13 -15.5 33t0.5 44q17 6 37 10q17 4 39.5 7t48.5 3q81 0 109.5 -24t19.5 -69q-7 -31 -24 -48.5t-43 -25.5q22 -8 36.5 -27.5t7.5 -53.5z" />
    <glyph glyph-name="threeeighths" unicode="&#x215c;" horiz-adv-x="790" 
d="M591 695q8 1 19 3q10 2 24.5 3t34.5 1t33.5 -1t23.5 -3q11 -2 19 -3l-535 -698l-21 -4q-21 -3 -57 -3t-55 3q-11 2 -20 4zM108 674q17 6 37 10q17 4 39.5 7t48.5 3q81 0 109.5 -24t19.5 -69q-7 -31 -24 -48.5t-43 -25.5q22 -8 36.5 -27.5t7.5 -53.5q-5 -23 -16 -42.5
t-31 -33.5t-51.5 -21.5t-77.5 -7.5q-32 0 -55.5 3t-39.5 8q-18 5 -32 12q5 20 17.5 42t28.5 35q9 -3 20 -5q20 -5 47 -5q30 0 41.5 6t14.5 20t-4 19t-31 5h-48q-2 17 3.5 43.5t15.5 43.5h48q17 0 24 3.5t10 14.5q2 10 -4.5 14.5t-30.5 4.5q-14 0 -25.5 -1t-20.5 -3
q-11 -2 -19 -4q-11 13 -15.5 33t0.5 44zM465 253q10 47 49.5 71t112.5 24q137 0 119 -89q-5 -26 -22.5 -46.5t-42.5 -30.5q26 -12 38 -33t6 -52q-11 -48 -53.5 -75t-120.5 -27q-150 0 -129 97q5 28 25.5 49t51.5 32q-23 11 -31.5 31.5t-2.5 48.5zM628 249q2 8 -1.5 13.5
t-16.5 5.5q-11 0 -16 -5t-6 -11q-5 -18 23 -29q7 5 11 12.5t6 13.5zM602 98q2 11 -5 19t-30 16q-6 -4 -10 -9t-7.5 -10.5t-4.5 -11.5q-2 -9 3 -16.5t23 -7.5q14 0 21.5 6t9.5 14z" />
    <glyph glyph-name="threeinferior" unicode="&#x2083;" horiz-adv-x="311" 
d="M231 4q-5 -23 -16 -42.5t-31 -33.5t-51.5 -21.5t-77.5 -7.5q-32 0 -55.5 3t-39.5 8q-18 5 -32 12q5 20 17.5 42t28.5 35q9 -3 20 -5q20 -5 47 -5q30 0 41.5 6t14.5 20t-4 19t-31 5h-48q-2 17 3.5 43.5t15.5 43.5h48q17 0 24 3.5t10 14.5q2 10 -4.5 14.5t-30.5 4.5
q-14 0 -25.5 -1t-20.5 -3q-11 -2 -19 -4q-11 13 -15.5 33t0.5 44q17 6 37 10q17 4 40 7t49 3q81 0 109 -24t19 -69q-7 -31 -24 -48.5t-43 -25.5q22 -8 36.5 -27.5t7.5 -53.5z" />
    <glyph glyph-name="threequarters" unicode="&#xbe;" horiz-adv-x="742" 
d="M591 695q8 1 19 3q10 2 24.5 3t34.5 1t33.5 -1t23.5 -3q11 -2 19 -3l-535 -698l-21 -4q-21 -3 -57 -3t-55 3q-11 2 -20 4zM108 674q17 6 37 10q17 4 39.5 7t48.5 3q81 0 109.5 -24t19.5 -69q-7 -31 -24 -48.5t-43 -25.5q22 -8 36.5 -27.5t7.5 -53.5q-5 -23 -16 -42.5
t-31 -33.5t-51.5 -21.5t-77.5 -7.5q-32 0 -55.5 3t-39.5 8q-18 5 -32 12q5 20 17.5 42t28.5 35q9 -3 20 -5q20 -5 47 -5q30 0 41.5 6t14.5 20t-4 19t-31 5h-48q-2 17 3.5 43.5t15.5 43.5h48q17 0 24 3.5t10 14.5q2 10 -4.5 14.5t-30.5 4.5q-14 0 -25.5 -1t-20.5 -3
q-11 -2 -19 -4q-11 13 -15.5 33t0.5 44zM565 337q27 6 62 6q33 0 59 -6l-41 -189h37q1 -21 -4 -43q-2 -12 -5.5 -22t-8.5 -21h-37l-12 -57q-19 -3 -36.5 -4t-25.5 -1t-25.5 1t-34.5 4l12 57h-154q0 23 4 43q2 11 5 19.5t7 17.5zM523 148l12 56l-54 -56h42z" />
    <glyph glyph-name="threesuperior" unicode="&#xb3;" horiz-adv-x="311" 
d="M325 446q-5 -23 -16 -42.5t-31 -33.5t-51.5 -21.5t-77.5 -7.5q-32 0 -55.5 3t-39.5 8q-18 5 -32 12q5 20 17.5 42t28.5 35q9 -3 20 -5q20 -5 47 -5q30 0 41.5 6t14.5 20t-4 19t-31 5h-48q-2 17 3.5 43.5t15.5 43.5h48q17 0 24 3.5t10 14.5q2 10 -4.5 14.5t-30.5 4.5
q-14 0 -25.5 -1t-20.5 -3q-11 -2 -19 -4q-11 13 -15.5 33t0.5 44q17 6 37 10q17 4 39.5 7t48.5 3q81 0 109.5 -24t19.5 -69q-7 -31 -24 -48.5t-43 -25.5q22 -8 36.5 -27.5t7.5 -53.5z" />
    <glyph glyph-name="tilde" unicode="&#x2dc;" horiz-adv-x="327" 
d="M238 740q16 0 28 4t20 9q10 5 17 13q26 -17 35.5 -48.5t4.5 -63.5q-16 -15 -34 -26q-16 -10 -38.5 -17.5t-48.5 -7.5q-27 0 -44.5 5t-32.5 11t-31 11t-39 5q-14 0 -25.5 -4t-20.5 -9q-11 -6 -19 -13q-26 16 -36.5 46.5t-3.5 65.5q17 14 36 25q17 10 39 18t46 8
q27 0 44.5 -5t32.5 -11t31 -11t39 -5z" />
    <glyph glyph-name="trademark" unicode="&#x2122;" horiz-adv-x="616" 
d="M362 716q14 2 30.5 3t24.5 1q13 0 23 -0.5t17 -1.5q8 -1 13 -2l5 -74q2 -29 2.5 -45t-0.5 -24l15.5 33.5l15.5 33.5l37 76q6 1 14 2q7 1 17 1.5t23 0.5q11 0 21 -0.5t18 -1.5q10 -1 18 -2l-59 -280q-5 -1 -11 -2q-5 -1 -13 -1.5t-17 -0.5q-10 0 -17.5 0.5t-12.5 1.5
q-6 1 -10 2l22 103q6 31 9.5 44.5l6.5 25.5l-22 -44l-32 -65q-5 -1 -11 -2q-5 -1 -12.5 -1.5t-18.5 -0.5t-18.5 0.5t-12.5 1.5q-6 1 -9 2l-2 91l-3 18l-13 -70l-22 -103q-4 -1 -10 -2q-5 -1 -12.5 -1.5t-15.5 -0.5q-9 0 -16 0.5t-12 1.5t-9 2zM345 720q1 -6 -0.5 -16.5
t-3.5 -19.5q-2 -8 -5 -18t-6 -17h-71l-45 -213q-6 -1 -13 -2q-6 -1 -14.5 -1.5t-17.5 -0.5q-10 0 -18 0.5t-13 1.5q-6 1 -11 2l45 213h-73q-1 6 0 16t3 18q2 9 5 19.5t7 17.5h231z" />
    <glyph glyph-name="two" unicode="2" horiz-adv-x="555" 
d="M133 505q-12 10 -19.5 26t-11 35t-3 40t5.5 41q31 15 70 26q33 10 79 18.5t102 8.5q128 0 181.5 -54.5t31.5 -154.5q-8 -39 -24.5 -71.5t-42.5 -60.5t-62.5 -53.5t-84.5 -49.5q-20 -10 -40.5 -17t-38 -14.5t-31 -16.5t-19.5 -23q-4 -8 -2 -17h257q4 -18 3 -40t-6 -45
t-13.5 -44.5t-19.5 -38.5h-475q-1 11 -1 25q0 12 1 28t5 34q12 54 37.5 95t59.5 73.5t73.5 58l78.5 48.5q35 21 58.5 37.5t38 31t21.5 28t10 27.5q10 50 -66 50q-29 0 -56 -5t-49 -11q-26 -7 -48 -15z" />
    <glyph glyph-name="two.denom" horiz-adv-x="305" 
d="M-41 61q7 32 22.5 53.5t35.5 36t41 24l39.5 17.5t31.5 16t16 21q4 20 -33 20q-14 0 -32.5 -2.5t-40.5 -7.5q-9 16 -10 41.5t8 50.5q17 4 37 8q17 3 39 6t48 3q66 0 96 -24t18 -78q-9 -43 -30.5 -65t-47 -34.5t-52.5 -20.5t-46 -23h129q2 -26 -4 -53q-3 -13 -7.5 -26
t-10.5 -24h-253q-1 7 0 17q0 17 6 44z" />
    <glyph glyph-name="two.num" horiz-adv-x="305" 
d="M33 407q7 32 23 53.5t35.5 36t41 24l40 17.5t31 16t15.5 21q2 11 -6.5 15.5t-25.5 4.5q-31 0 -74 -10q-8 16 -9 41.5t8 50.5q17 4 36 8q17 3 39 6t48 3q66 0 96 -24t19 -78q-9 -43 -30.5 -65t-47.5 -34.5t-52.5 -20.5t-46.5 -23h129q2 -12 0.5 -25.5t-4.5 -27.5
q-5 -27 -17 -50h-253v17q0 8 1 19t4 25z" />
    <glyph glyph-name="twoinferior" unicode="&#x2082;" horiz-adv-x="305" 
d="M-61 -35q7 32 22.5 53.5t35 36t41 24l40 17.5t31 16t15.5 21q4 20 -33 20q-30 0 -73 -10q-8 16 -9 41.5t8 50.5q17 4 37 8q17 3 39 6t48 3q66 0 95.5 -24t18.5 -78q-9 -43 -30.5 -65t-47.5 -34.5t-52.5 -20.5t-46.5 -23h129q2 -12 0.5 -25.5t-4.5 -27.5q-5 -27 -17 -50
h-253q-1 7 0 17q0 17 6 44z" />
    <glyph glyph-name="twosuperior" unicode="&#xb2;" horiz-adv-x="305" 
d="M33 407q7 32 23 53.5t35.5 36t41 24l40 17.5t31 16t15.5 21q4 20 -34 20q-14 0 -32 -2.5t-40 -7.5q-8 16 -9 41.5t8 50.5q17 4 36 8q17 3 39 6t48 3q66 0 96 -24t19 -78q-9 -43 -30.5 -65t-47.5 -34.5t-52.5 -20.5t-46.5 -23h129q2 -12 0.5 -25.5t-4.5 -27.5
q-5 -27 -17 -50h-253v17q0 8 1 19t4 25z" />
    <glyph glyph-name="u" unicode="u" 
d="M79 528q11 2 26 4q13 2 32.5 3t45.5 1t44.5 -1t31.5 -3q15 -2 26 -4l-74 -346q-8 -38 26 -38q17 0 37 14l79 370q11 2 27 4q14 2 33 3t44 1t44 -1t32 -3q15 -2 26 -4l-111 -520q-11 -2 -27 -4q-14 -2 -33 -3t-44 -1q-49 0 -70 3q-13 1 -21 3v52q-67 -68 -142 -68
q-76 0 -103 40.5t-13 105.5z" />
    <glyph glyph-name="uacute" unicode="&#xfa;" 
d="M326 572q-33 5 -61 18.5t-42 36.5l137 167q25 3 50.5 -1t47 -12.5t37.5 -22t23 -29.5zM79 528q11 2 26 4q13 2 32.5 3t45.5 1t44.5 -1t31.5 -3q15 -2 26 -4l-74 -346q-8 -38 26 -38q17 0 37 14l79 370q11 2 27 4q14 2 33 3t44 1t44 -1t32 -3q15 -2 26 -4l-111 -520
q-11 -2 -27 -4q-14 -2 -33 -3t-44 -1q-49 0 -70 3q-13 1 -21 3v52q-67 -68 -142 -68q-76 0 -103 40.5t-13 105.5z" />
    <glyph glyph-name="ubreve" unicode="&#x16d;" 
d="M360 729q25 0 46 4.5t35 9.5q17 6 30 14q26 -14 43.5 -38t20.5 -50q-19 -25 -47 -44q-24 -17 -61 -30t-88 -13t-85.5 13t-55.5 30q-25 19 -39 44q17 26 43.5 50t58.5 38q10 -8 24 -14q12 -5 30.5 -9.5t44.5 -4.5zM79 528q11 2 26 4q13 2 32.5 3t45.5 1t44.5 -1t31.5 -3
q15 -2 26 -4l-74 -346q-8 -38 26 -38q17 0 37 14l79 370q11 2 27 4q14 2 33 3t44 1t44 -1t32 -3q15 -2 26 -4l-111 -520q-11 -2 -27 -4q-14 -2 -33 -3t-44 -1q-49 0 -70 3q-13 1 -21 3v52q-67 -68 -142 -68q-76 0 -103 40.5t-13 105.5z" />
    <glyph glyph-name="ucircumflex" unicode="&#xfb;" 
d="M547 661q-20 -29 -47 -52.5t-57 -36.5l-103 72l-133 -71q-26 13 -42.5 36t-23.5 52l201 144h54zM79 528q11 2 26 4q13 2 32.5 3t45.5 1t44.5 -1t31.5 -3q15 -2 26 -4l-74 -346q-8 -38 26 -38q17 0 37 14l79 370q11 2 27 4q14 2 33 3t44 1t44 -1t32 -3q15 -2 26 -4
l-111 -520q-11 -2 -27 -4q-14 -2 -33 -3t-44 -1q-49 0 -70 3q-13 1 -21 3v52q-67 -68 -142 -68q-76 0 -103 40.5t-13 105.5z" />
    <glyph glyph-name="udieresis" unicode="&#xfc;" horiz-adv-x="547" 
d="M167 737q10 1 23 3q11 2 27.5 3t38.5 1q21 0 37 -1t27 -3q13 -2 23 -3l-32 -148q-11 -2 -24 -4q-23 -3 -65 -3q-43 0 -65 3q-13 2 -22 4zM392 737q10 1 23 3q11 2 27.5 3t38.5 1q21 0 37 -1t27 -3q13 -2 23 -3l-32 -148q-11 -2 -24 -4q-23 -3 -65 -3q-43 0 -65 3
q-13 2 -22 4zM79 528q11 2 26 4q13 2 32.5 3t45.5 1t44.5 -1t31.5 -3q15 -2 26 -4l-74 -346q-8 -38 26 -38q17 0 37 14l79 370q11 2 27 4q14 2 33 3t44 1t44 -1t32 -3q15 -2 26 -4l-111 -520q-11 -2 -27 -4q-14 -2 -33 -3t-44 -1q-49 0 -70 3q-13 1 -21 3v52
q-67 -68 -142 -68q-76 0 -103 40.5t-13 105.5z" />
    <glyph glyph-name="ugrave" unicode="&#xf9;" 
d="M426 627q-23 -23 -56.5 -36.5t-68.5 -18.5l-126 157q13 16 35 29.5t47.5 22t52.5 12.5t51 1zM79 528q11 2 26 4q13 2 32.5 3t45.5 1t44.5 -1t31.5 -3q15 -2 26 -4l-74 -346q-8 -38 26 -38q17 0 37 14l79 370q11 2 27 4q14 2 33 3t44 1t44 -1t32 -3q15 -2 26 -4l-111 -520
q-11 -2 -27 -4q-14 -2 -33 -3t-44 -1q-49 0 -70 3q-13 1 -21 3v52q-67 -68 -142 -68q-76 0 -103 40.5t-13 105.5z" />
    <glyph glyph-name="uhungarumlaut" unicode="&#x171;" 
d="M241 571q-32 3 -58 14.5t-39 31.5l120 158q23 3 46.5 0.5t44 -9.5t35.5 -18.5t21 -26.5zM445 572q-31 5 -57 17t-38 33l126 153q23 3 46.5 -0.5t43.5 -11.5t34.5 -20t20.5 -27zM79 528q11 2 26 4q13 2 32.5 3t45.5 1t44.5 -1t31.5 -3q15 -2 26 -4l-74 -346q-8 -38 26 -38
q17 0 37 14l79 370q11 2 27 4q14 2 33 3t44 1t44 -1t32 -3q15 -2 26 -4l-111 -520q-11 -2 -27 -4q-14 -2 -33 -3t-44 -1q-49 0 -70 3q-13 1 -21 3v52q-67 -68 -142 -68q-76 0 -103 40.5t-13 105.5z" />
    <glyph glyph-name="umacron" unicode="&#x16b;" 
d="M490 706q0 -11 -2 -26t-5.5 -30.5t-8 -30.5t-8.5 -27h-265q1 25 8 58.5t16 55.5h265zM79 528q11 2 26 4q13 2 32.5 3t45.5 1t44.5 -1t31.5 -3q15 -2 26 -4l-74 -346q-8 -38 26 -38q17 0 37 14l79 370q11 2 27 4q14 2 33 3t44 1t44 -1t32 -3q15 -2 26 -4l-111 -520
q-11 -2 -27 -4q-14 -2 -33 -3t-44 -1q-49 0 -70 3q-13 1 -21 3v52q-67 -68 -142 -68q-76 0 -103 40.5t-13 105.5z" />
    <glyph glyph-name="underscore" unicode="_" horiz-adv-x="525" 
d="M-62 -142q-1 5 -1 14q0 15 7 47q3 17 6.5 28t6.5 19q4 9 7 14h460q1 -5 1 -14q0 -14 -6 -47q-4 -17 -7.5 -28t-6.5 -19q-4 -9 -7 -14h-460z" />
    <glyph glyph-name="uni00AD" unicode="&#xad;" horiz-adv-x="254" 
 />
    <glyph glyph-name="Tcommaaccent" unicode="&#x162;" horiz-adv-x="592" 
d="M663 720q1 -11 0 -25q-2 -25 -9 -64q-5 -20 -9.5 -36t-9.5 -28q-5 -14 -10 -25h-167l-113 -533q-15 -3 -33 -5q-15 -2 -35 -3t-43 -1q-25 0 -44.5 1t-33.5 3q-17 2 -29 5l113 533h-172q-1 11 0 24l2.5 27t6.5 36q5 21 9.5 37.5t9.5 28.5q5 14 10 25h557zM85 -374
q13 14 25 32q11 15 21 36.5t18 47.5q-14 1 -26.5 2t-21.5 3q-11 2 -20 3l42 195q12 2 28 4q14 2 33 3t43 1q23 0 41.5 -1t32.5 -3q16 -2 28 -4l-33 -155q-11 -51 -35 -90t-49 -67q-29 -33 -63 -58z" />
    <glyph glyph-name="Tcommaaccent" unicode="&#x21a;" horiz-adv-x="592" 
d="M663 720q1 -11 0 -25q-2 -25 -9 -64q-5 -20 -9.5 -36t-9.5 -28q-5 -14 -10 -25h-167l-113 -533q-15 -3 -33 -5q-15 -2 -35 -3t-43 -1q-25 0 -44.5 1t-33.5 3q-17 2 -29 5l113 533h-172q-1 11 0 24l2.5 27t6.5 36q5 21 9.5 37.5t9.5 28.5q5 14 10 25h557zM85 -374
q13 14 25 32q11 15 21 36.5t18 47.5q-14 1 -26.5 2t-21.5 3q-11 2 -20 3l42 195q12 2 28 4q14 2 33 3t43 1q23 0 41.5 -1t32.5 -3q16 -2 28 -4l-33 -155q-11 -51 -35 -90t-49 -67q-29 -33 -63 -58z" />
    <glyph glyph-name="tcommaaccent" unicode="&#x163;" horiz-adv-x="392" 
d="M247 190q-6 -30 6.5 -40.5t38.5 -10.5q22 0 36 3q8 1 15 3q3 -8 4 -19q1 -10 0.5 -25.5t-5.5 -36.5l-7 -25t-6 -19l-7 -16q-29 -7 -59.5 -10.5t-62.5 -3.5q-56 0 -92 10t-55 33t-21.5 61t9.5 95l41 194h-58q0 9 1 20l2.5 22t4.5 29q8 36 15 53q4 11 8 19h58l20 94
q21 9 47.5 15t54.5 9.5t56 3.5t53 -3l-25 -119h88q0 -8 -1 -19l-2.5 -22t-4.5 -30q-7 -32 -15 -52q-4 -11 -8 -20h-88zM23 -358q13 13 24 31q10 15 20.5 35.5t18.5 46.5q-14 1 -26 2t-21 3q-11 2 -20 3l42 191q11 2 27 4q14 2 32.5 3t42.5 1q22 0 40 -1t32 -3q16 -2 28 -4
l-33 -152q-11 -49 -34 -88t-48 -66q-29 -32 -62 -56z" />
    <glyph glyph-name="tcommaaccent" unicode="&#x21b;" horiz-adv-x="392" 
d="M247 190q-6 -30 6.5 -40.5t38.5 -10.5q22 0 36 3q8 1 15 3q3 -8 4 -19q1 -10 0.5 -25.5t-5.5 -36.5l-7 -25t-6 -19l-7 -16q-29 -7 -59.5 -10.5t-62.5 -3.5q-56 0 -92 10t-55 33t-21.5 61t9.5 95l41 194h-58q0 9 1 20l2.5 22t4.5 29q8 36 15 53q4 11 8 19h58l20 94
q21 9 47.5 15t54.5 9.5t56 3.5t53 -3l-25 -119h88q0 -8 -1 -19l-2.5 -22t-4.5 -30q-7 -32 -15 -52q-4 -11 -8 -20h-88zM23 -358q13 13 24 31q10 15 20.5 35.5t18.5 46.5q-14 1 -26 2t-21 3q-11 2 -20 3l42 191q11 2 27 4q14 2 32.5 3t42.5 1q22 0 40 -1t32 -3q16 -2 28 -4
l-33 -152q-11 -49 -34 -88t-48 -66q-29 -32 -62 -56z" />
    <glyph glyph-name="uni0401" unicode="&#x401;" horiz-adv-x="568" 
d="M224 915q11 1 24 3q11 2 27.5 3t38.5 1q21 0 37 -1t27 -3q12 -2 22 -3l-31 -148q-11 -2 -24 -4q-23 -3 -65 -3q-43 0 -65 3q-13 2 -22 4zM449 915q11 1 24 3q11 2 27.5 3t38.5 1q21 0 37 -1t27 -3q12 -2 22 -3l-31 -148q-11 -2 -24 -4q-23 -3 -65 -3q-43 0 -65 3
q-13 2 -22 4zM619 720q2 -11 0.5 -31.5t-6.5 -44.5q-5 -26 -12.5 -47.5t-15.5 -34.5h-265l-25 -121h215q1 -14 0 -31t-6 -45q-7 -29 -13 -46.5t-14 -31.5h-215l-27 -129h275q2 -14 0 -34.5t-7 -43.5q-5 -24 -12 -45t-15 -35h-493l153 720h483z" />
    <glyph glyph-name="uni0410" unicode="&#x410;" horiz-adv-x="692" 
d="M0 0zM34 0q-25 0 -43.5 1t-31.5 3q-15 2 -27 5l358 702q16 2 37 4q18 2 45 3.5t63 1.5q37 0 64 -1.5t44 -3.5q20 -2 33 -4l58 -702q-12 -3 -29 -5q-14 -2 -34.5 -3t-47.5 -1q-26 0 -44.5 1t-31.5 3q-15 2 -26 5l-8 120h-211l-60 -120q-13 -3 -30 -5q-14 -2 -34 -3t-44 -1
zM394 560q-8 -27 -19 -60l-23.5 -64t-33.5 -74l-45 -90h129l-5 92q-3 43 -2.5 79t2.5 62q2 31 6 55h-9z" />
    <glyph glyph-name="uni0411" unicode="&#x411;" horiz-adv-x="634" 
d="M637 720q3 -8 4 -19q1 -10 0 -25.5t-6 -38.5q-5 -20 -10.5 -35t-10.5 -26q-6 -12 -12 -21h-283l-20 -94h103q64 0 108 -18.5t69 -51t31 -77.5t-5 -97q-23 -106 -97 -161.5t-204 -55.5h-321l153 720h501zM233 153h63q33 0 56 18t32 60t-6.5 59t-48.5 17h-63z" />
    <glyph glyph-name="uni0412" unicode="&#x412;" horiz-adv-x="636" 
d="M452 720q113 0 161.5 -48.5t27.5 -148.5q-12 -56 -43 -93t-74 -59q43 -21 63.5 -61.5t6.5 -104.5q-24 -112 -98 -158.5t-193 -46.5h-320l153 720h316zM356 441q26 0 44 16t26 50q8 35 -4 50t-38 15h-62l-28 -131h62zM295 148q32 0 54 15t30 55q9 41 -6.5 55t-47.5 14h-64
l-30 -139h64z" />
    <glyph glyph-name="uni0413" unicode="&#x413;" horiz-adv-x="499" 
d="M571 720v-21q-1 -11 -2 -27t-6 -38q-4 -18 -8.5 -32.5t-8.5 -25.5q-5 -12 -10 -21h-217l-116 -546q-13 -3 -31 -5q-15 -2 -35.5 -3t-43.5 -1t-43 1t-34 3q-17 2 -31 5l151 711h435z" />
    <glyph glyph-name="uni0414" unicode="&#x414;" horiz-adv-x="745" 
d="M26 158q34 19 65.5 68.5t57.5 140.5l102 353h490l-120 -562h78l-63 -296q-21 -5 -44.5 -7.5t-55.5 -2.5q-65 0 -104 10l30 138h-337l-30 -138q-22 -5 -43 -7t-53 -2t-52 2t-39 7l62 296h56zM342 361q-21 -75 -43.5 -123t-47.5 -80h153l88 412h-91z" />
    <glyph glyph-name="uni0415" unicode="&#x415;" horiz-adv-x="568" 
d="M619 720q2 -11 0.5 -31.5t-6.5 -44.5q-5 -26 -12.5 -47.5t-15.5 -34.5h-265l-25 -120h215q1 -14 0.5 -31t-6.5 -45q-6 -29 -12.5 -46.5t-14.5 -31.5h-215l-27 -130h275q2 -14 0 -34.5t-7 -43.5q-5 -24 -12 -45t-15 -35h-493l153 720h483z" />
    <glyph glyph-name="uni0416" unicode="&#x416;" horiz-adv-x="971" 
d="M468 711q12 2 29 4q14 2 34.5 3.5t48.5 1.5q27 0 46.5 -1.5t33.5 -3.5q15 -2 26 -4l-58 -271h39l171 272q25 4 52 6t59 2q34 0 60 -2t51 -6l-203 -323l65 -380q-12 -3 -30 -5q-15 -2 -37.5 -3t-52.5 -1q-29 0 -51.5 1t-36.5 3q-18 2 -29 5l-45 299h-40l-64 -299
q-11 -3 -27 -5q-14 -2 -34 -3t-49 -1q-27 0 -47 1t-34 3q-16 2 -27 5l64 299h-40l-173 -299q-13 -3 -31 -5q-15 -2 -36.5 -3t-50.5 -1q-30 0 -52.5 1t-37.5 3q-18 2 -29 5l227 380l-65 323q21 4 53 6t65 2q30 0 55.5 -2t48.5 -6l56 -272h38z" />
    <glyph glyph-name="uni0417" unicode="&#x417;" horiz-adv-x="573" 
d="M102 692q31 11 70 21q32 8 76.5 15t96.5 7q144 0 199.5 -51t34.5 -149q-12 -57 -43.5 -100.5t-91.5 -64.5l-1 -3q54 -23 76 -67t8 -109q-10 -48 -35 -86t-67.5 -64.5t-103.5 -41t-142 -14.5q-54 0 -96.5 7t-72.5 15q-35 10 -61 23q9 40 29.5 80t53.5 68q11 -4 28.5 -8
t38 -7.5t43 -6t43.5 -2.5q65 0 91.5 16.5t34.5 50.5q7 33 -13.5 49.5t-80.5 16.5h-92q-2 12 0 33.5t7 44.5t12 44.5t14 32.5h92q27 0 45.5 4.5t30 13t17.5 20t9 25.5q7 30 -9.5 47.5t-65.5 17.5q-29 0 -55 -3.5t-46 -7.5q-24 -5 -43 -11q-27 22 -34 62.5t3 81.5z" />
    <glyph glyph-name="uni0418" unicode="&#x418;" horiz-adv-x="706" 
d="M229 213l18 41l27.5 62t33 68.5l32.5 61.5l152 265q14 2 33 4q17 2 40.5 3.5t54.5 1.5t54 -1.5t39 -3.5q18 -2 32 -4l-150 -702q-14 -3 -32 -5q-15 -2 -35 -3t-43 -1q-26 0 -45.5 1t-33.5 3q-17 2 -29 5l46 216q7 33 20.5 77t28 86.5l27 77t18.5 48.5h-12
q-1 -2 -14.5 -32l-32 -70l-37 -79t-29.5 -59l-148 -265q-1 0 -33.5 -4.5t-97.5 -4.5q-35 0 -58.5 1t-39.5 3q-18 2 -30 5l150 702q14 2 32 4q15 2 35 3.5t43 1.5q48 0 78 -4.5t31 -4.5l-46 -214q-8 -36 -22 -81.5l-28 -88t-26 -74.5t-15 -39z" />
    <glyph glyph-name="uni0419" unicode="&#x419;" horiz-adv-x="706" 
d="M486 926q30 0 55.5 7t44.5 15q22 10 40 22q26 -17 42 -49.5t15 -70.5q-27 -24 -61 -42q-30 -16 -72.5 -28.5t-97.5 -12.5t-92 12.5t-60 28.5q-27 18 -43 42q14 38 43.5 70.5t63.5 49.5q13 -12 31 -22q15 -8 38 -15t53 -7zM229 213l18 41l27.5 62t33 68.5l32.5 61.5
l152 265q14 2 33 4q17 2 40.5 3.5t54.5 1.5t54 -1.5t39 -3.5q18 -2 32 -4l-150 -702q-14 -3 -32 -5q-15 -2 -35 -3t-43 -1q-26 0 -45.5 1t-33.5 3q-17 2 -29 5l46 216q7 33 20.5 77t28 86.5l27 77t18.5 48.5h-12q-1 -2 -14.5 -32l-32 -70l-37 -79t-29.5 -59l-148 -265
q-1 0 -33.5 -4.5t-97.5 -4.5q-35 0 -58.5 1t-39.5 3q-18 2 -30 5l150 702q14 2 32 4q15 2 35 3.5t43 1.5q48 0 78 -4.5t31 -4.5l-46 -214q-8 -36 -22 -81.5l-28 -88t-26 -74.5t-15 -39z" />
    <glyph glyph-name="uni041A" unicode="&#x41a;" horiz-adv-x="656" 
d="M499 711q22 4 49 6.5t68 2.5q42 0 67 -2.5t48 -6.5l-235 -338l115 -364q-17 -3 -37 -5q-17 -2 -40.5 -3t-49.5 -1q-29 0 -48.5 1t-32.5 3q-15 2 -24 5l-81 289h-34l-61 -289q-11 -3 -28 -5q-14 -2 -35 -3t-48 -1q-26 0 -45.5 1t-33.5 3q-16 2 -28 5l149 702q12 2 30 4
q14 2 35 3.5t47 1.5t45 -1.5t33 -3.5q16 -2 28 -4l-55 -261h26z" />
    <glyph glyph-name="uni041B" unicode="&#x41b;" horiz-adv-x="704" 
d="M46 -10q-35 0 -58.5 4.5t-37.5 10.5q-2 15 -1.5 33t5.5 41t12.5 43t16.5 37q9 -2 20 -2t25 3t31.5 13t37.5 35.5t41 71t43 120.5l93 320h470l-151 -711q-14 -3 -31 -5q-14 -2 -34 -3t-43 -1q-51 0 -80.5 4.5t-28.5 4.5l115 543h-78l-42 -154q-33 -119 -71.5 -198
t-79.5 -125.5t-85 -65.5t-89 -19z" />
    <glyph glyph-name="uni041C" unicode="&#x41c;" horiz-adv-x="832" 
d="M598 711q14 2 33 4q17 2 40.5 3.5t55.5 1.5q9 0 27.5 -0.5t40 -1.5t42 -3t33.5 -4l-149 -702q-12 -3 -28 -5q-14 -2 -32.5 -3t-42.5 -1q-25 0 -43 1t-31 3q-15 2 -26 5l41 192q10 49 25 100.5l28.5 94t23.5 69.5l10 27h-7q-2 -2 -10 -22.5l-20 -50t-27 -63t-30 -61.5
l-90 -166q-10 -3 -24 -5q-12 -2 -30 -3.5t-42 -1.5q-25 0 -42 1.5t-28 3.5q-13 2 -22 5q-4 40 -7.5 79.5t-8.5 79.5q-4 32 -4.5 68t0 66t2 50l1.5 20h-7q0 -1 -2 -27.5t-6 -68.5t-11 -93.5t-17 -101.5l-41 -192q-12 -3 -26 -5q-12 -2 -29.5 -3t-38.5 -1q-23 0 -40.5 1
t-29.5 3q-14 2 -24 5l149 702q16 2 35.5 3.5l38.5 3t36 2t28 0.5q33 0 57 -1.5t40 -3.5q18 -2 31 -4l19 -185q5 -58 3.5 -105t-5.5 -82h4q6 26 19 59t31 72q26 57 60.5 119z" />
    <glyph glyph-name="uni041D" unicode="&#x41d;" horiz-adv-x="686" 
d="M506 711q14 2 32 4q15 2 35.5 3.5t43.5 1.5t43 -1.5t34 -3.5q17 -2 30 -4l-149 -702q-14 -3 -32 -5q-15 -2 -35 -3t-43 -1q-26 0 -45.5 1t-33.5 3q-17 2 -29 5l59 276h-154l-59 -276q-15 -3 -33 -5q-15 -2 -35 -3t-43 -1q-25 0 -44.5 1t-33.5 3q-17 2 -29 5l149 702
q14 2 32 4q15 2 35 3.5t43 1.5t43.5 -1.5t34.5 -3.5q17 -2 30 -4l-55 -258h154z" />
    <glyph glyph-name="uni041E" unicode="&#x41e;" horiz-adv-x="697" 
d="M40 383q21 97 57 164t86 109t113.5 60.5t138.5 18.5t131 -25.5t88 -76t39.5 -125t-13.5 -172.5t-57 -165.5t-86 -108.5t-113.5 -59t-138.5 -18t-130.5 25.5t-88 75.5t-40 124.5t13.5 172.5zM454 360q14 66 17.5 107.5t-3 65t-22.5 32.5t-40 9q-23 0 -42.5 -9t-36 -32.5
t-31.5 -65t-29 -107.5q-14 -65 -17 -106.5t4 -65.5t22.5 -33t38.5 -9q24 0 43.5 9t36 33t31 65.5t28.5 106.5z" />
    <glyph glyph-name="uni041F" unicode="&#x41f;" horiz-adv-x="674" 
d="M563 9q-12 -3 -28 -5q-14 -2 -34.5 -3t-47.5 -1q-29 0 -49.5 1t-33.5 3q-15 2 -25 5l116 546h-142l-116 -546q-12 -3 -29 -5q-14 -2 -35 -3t-47 -1q-29 0 -49 1t-33 3q-15 2 -25 5l151 711h578z" />
    <glyph glyph-name="uni0420" unicode="&#x420;" horiz-adv-x="610" 
d="M203 9q-13 -3 -30 -5q-14 -2 -35 -3t-46 -1q-26 0 -45.5 1t-33.5 3q-16 2 -28 5l151 711h293q62 0 105.5 -18.5t68.5 -52t31.5 -81.5t-6.5 -108q-25 -119 -100.5 -168t-199.5 -49h-75zM329 403q31 0 53 18.5t30 60.5q9 42 -5 60t-45 18h-42l-33 -157h42z" />
    <glyph glyph-name="uni0421" unicode="&#x421;" horiz-adv-x="575" 
d="M38 379q39 183 144 269.5t267 86.5q51 0 87.5 -7.5t60.5 -15.5q28 -10 46 -22q-9 -41 -31 -77t-60 -62q-13 5 -30 9q-14 4 -33 7t-41 3q-36 0 -64.5 -10.5t-50.5 -35t-38.5 -65t-29.5 -100.5t-13.5 -100t11.5 -64.5t36 -34.5t60 -10q23 0 44.5 3t38.5 8q19 4 37 11
q26 -24 34.5 -62t-1.5 -80q-22 -13 -55 -23q-28 -8 -69.5 -15t-97.5 -7q-81 0 -137.5 27t-88.5 78t-38.5 124t12.5 165z" />
    <glyph glyph-name="uni0422" unicode="&#x422;" horiz-adv-x="592" 
d="M663 720q1 -11 0 -25q-2 -25 -9 -64q-5 -20 -9.5 -36t-9.5 -28q-5 -14 -10 -25h-167l-113 -533q-15 -3 -33 -5q-15 -2 -35 -3t-43 -1q-25 0 -44.5 1t-33.5 3q-17 2 -29 5l113 533h-172q-1 11 0 24l2.5 27t6.5 36q5 21 9.5 37.5t9.5 28.5q5 14 10 25h557z" />
    <glyph glyph-name="uni0423" unicode="&#x423;" horiz-adv-x="647" 
d="M523 711q14 2 31 4q14 2 34 3.5t43 1.5q21 0 39.5 -1.5t32.5 -3.5q17 -2 31 -4l-286 -518q-56 -101 -130.5 -147t-171.5 -46q-23 0 -43 2t-35 5q-18 4 -33 8q-1 11 -1 23q0 11 0.5 24.5t4.5 30.5q3 17 7.5 31t8.5 25q4 12 10 23q10 -2 22 -4q21 -3 53 -3q28 0 51.5 12
t46.5 38h-39l-127 496q15 2 33 4q16 2 37 3.5t47 1.5q27 0 47.5 -1.5t34.5 -3.5q16 -2 28 -4l41 -192q5 -25 7.5 -46.5l4.5 -37.5q2 -19 2 -35h4q6 14 15 32l18.5 38t25.5 49l106 192v0z" />
    <glyph glyph-name="uni0424" unicode="&#x424;" horiz-adv-x="817" 
d="M387 726q12 2 29 4q14 2 34.5 3.5t46.5 1.5t46 -1.5t34 -3.5q16 -2 28 -4l-12 -56q66 0 116 -18.5t80 -57t38 -97t-9 -138.5t-49 -133.5t-77 -85.5t-101.5 -45t-122.5 -13l-15 -73q-14 -3 -31 -5q-15 -2 -35 -3t-45 -1q-26 0 -46 1t-34 3q-16 2 -27 5l15 73
q-66 0 -115.5 18t-79 56t-37 96.5t9.5 138.5t48.5 133.5t75.5 86t100.5 46t122.5 13.5zM353 518q-20 0 -37.5 -6t-32.5 -22t-27 -43.5t-21 -70.5q-9 -44 -9 -71.5t8.5 -43t23.5 -21.5t35 -6zM491 234q20 0 37.5 6t32.5 22t27 43.5t21 70.5t9 71t-8.5 43.5t-23.5 21.5t-35 6z
" />
    <glyph glyph-name="uni0425" unicode="&#x425;" horiz-adv-x="652" 
d="M502 711q27 5 58.5 7t60.5 2t58 -2.5t56 -6.5l-251 -347l121 -355q-12 -3 -30 -5q-15 -2 -37.5 -3t-51.5 -1q-28 0 -49 1t-35 3q-17 2 -28 5l-74 199l-143 -199q-24 -4 -54.5 -6.5t-58.5 -2.5q-65 0 -119 9l272 377l-106 325q12 2 30 4q15 2 39 3.5t57 1.5q27 0 48 -1.5
t35 -3.5q17 -2 29 -4l59 -160l114 160v0z" />
    <glyph glyph-name="uni0426" unicode="&#x426;" horiz-adv-x="718" 
d="M134 711q13 2 31 4q14 2 34.5 3.5t45.5 1.5q23 0 42.5 -1.5t33.5 -3.5q17 -2 31 -4l-116 -546h142l116 546q13 2 31 4q15 2 35 3.5t46 1.5q23 0 42.5 -1.5t33.5 -3.5q17 -2 30 -4l-116 -546h77l-64 -303q-46 -11 -101 -11q-29 0 -56 3t-47 8l29 138h-451z" />
    <glyph glyph-name="uni0427" unicode="&#x427;" horiz-adv-x="659" 
d="M479 711q14 2 32 4q15 2 35.5 3.5t43.5 1.5t43 -1.5t34 -3.5q17 -2 30 -4l-149 -702q-14 -3 -32 -5q-15 -2 -35 -3t-43 -1q-26 0 -45.5 1t-33.5 3q-17 2 -29 5l53 250q-23 -8 -59 -14.5t-84 -6.5q-110 0 -155 56t-19 175l51 242q14 2 32 4q15 2 35 3.5t43 1.5t43.5 -1.5
t34.5 -3.5q17 -2 30 -4l-50 -236q-9 -42 4 -57.5t48 -15.5q22 0 42.5 5.5t37.5 12.5z" />
    </font>
</defs>
</svg>
