<?xml version="1.0" standalone="no"?>
<!DOCTYPE svg PUBLIC "-//W3C//DTD SVG 1.1//EN" "http://www.w3.org/Graphics/SVG/1.1/DTD/svg11.dtd" >
<svg>
<metadata>
Created by FontForge 20090622 at Fri Jan 29 10:56:23 2016
 By deploy user
Copyright (c) 2014 by Fontfabric LLC. All rights reserved.
</metadata>
<defs>
<font id="GloberRegularItalic" horiz-adv-x="549" >
  <font-face 
    font-family="Glober Regular Italic"
    font-weight="400"
    font-style="italic"
    font-stretch="normal"
    units-per-em="1000"
    panose-1="0 0 0 0 0 0 0 0 0 0"
    ascent="750"
    descent="-250"
    x-height="526"
    cap-height="720"
    bbox="-225 -258 1013.88 1053.44"
    underline-thickness="50"
    underline-position="-50"
    unicode-range="U+0020-U+FB02"
  />
<missing-glyph horiz-adv-x="618" 
d="M-116 0l153 720h538l-153 -720h-538zM411 500q14 63 -19 98t-107 35q-29 0 -53 -4.5t-41 -9.5q-20 -6 -36 -13q-10 -26 9 -42q12 6 28 10q14 4 33 7t42 3q52 0 72 -22.5t12 -64.5q-7 -32 -21.5 -52.5t-32.5 -36.5t-38.5 -30t-39.5 -34t-35 -48.5t-25 -72.5q1 -2 5 -3
q6 -3 17 -3q12 0 18 3q4 1 6 3q8 36 24 60t36 41.5t42.5 32t42.5 33.5t36.5 44.5t24.5 65.5zM198 143l-8 2q-10 2 -24 2q-15 0 -25 -2q-5 -1 -8 -2l-12 -58q3 -1 7 -2q10 -2 24 -2q8 0 14 0.5t11 1.5t9 2z" />
    <glyph glyph-name="fi" unicode="fi" horiz-adv-x="569" 
d="M166 586q16 77 66.5 120.5t151.5 43.5q41 0 74 -5t58 -10q28 -7 52 -15q-6 -32 -30 -53q-20 7 -45 12q-21 5 -50.5 8.5t-64.5 3.5q-67 0 -97.5 -24.5t-41.5 -75.5l-14 -65h269q14 0 24 -1.5t14 -2.5l-110 -517q-5 -2 -10 -3t-11.5 -1.5t-15.5 -0.5q-17 0 -27 2q-5 1 -8 3
l99 464h-236l-99 -464q-5 -2 -10 -3t-11.5 -1.5t-15.5 -0.5q-10 0 -16 0.5t-11 1.5t-8 3l99 464h-64q-1 4 -1 8q0 7 3 21q3 13 6 21q2 4 4 7h64l13 60v0z" />
    <glyph glyph-name="fl" unicode="fl" horiz-adv-x="572" 
d="M167 586q8 37 24 67.5t42 52t62 33t84 11.5q41 0 76.5 -5.5t61.5 -11.5q31 -8 57 -17l-151 -711q-5 -2 -10 -3t-11.5 -1.5t-15.5 -0.5q-17 0 -27 2q-5 1 -8 3l142 670q-20 5 -50.5 10.5t-69.5 5.5q-63 0 -93 -25.5t-40 -74.5l-14 -65h112v-11.5t-2 -16.5t-5 -17l-5 -12
h-112l-99 -464q-5 -2 -10 -3t-11.5 -1.5t-15.5 -0.5q-10 0 -16 0.5t-11 1.5t-8 3l99 464h-64v12t2 17q5 20 10 28h64l13 60v0z" />
    <glyph glyph-name=".notdef" horiz-adv-x="618" 
d="M-116 0l153 720h538l-153 -720h-538zM411 500q14 63 -19 98t-107 35q-29 0 -53 -4.5t-41 -9.5q-20 -6 -36 -13q-10 -26 9 -42q12 6 28 10q14 4 33 7t42 3q52 0 72 -22.5t12 -64.5q-7 -32 -21.5 -52.5t-32.5 -36.5t-38.5 -30t-39.5 -34t-35 -48.5t-25 -72.5q1 -2 5 -3
q6 -3 17 -3q12 0 18 3q4 1 6 3q8 36 24 60t36 41.5t42.5 32t42.5 33.5t36.5 44.5t24.5 65.5zM198 143l-8 2q-10 2 -24 2q-15 0 -25 -2q-5 -1 -8 -2l-12 -58q3 -1 7 -2q10 -2 24 -2q8 0 14 0.5t11 1.5t9 2z" />
    <glyph glyph-name="A" unicode="A" horiz-adv-x="646" 
d="M369 714q6 1 12 3q5 1 12.5 2t17.5 1t17.5 -1t12.5 -2q6 -2 10 -3l114 -708q-5 -2 -11 -3q-11 -3 -31 -3q-15 0 -22 3q-4 1 -8 3l-31 191h-319l-112 -191q-4 -2 -10 -3q-11 -3 -34 -3q-19 0 -26 3q-5 1 -8 3zM395 641l-9 -20q-5 -9 -11.5 -22t-14.5 -27l-182 -313h275
l-50 313q-2 15 -3.5 27.5t-1.5 21.5q-1 11 0 20h-3z" />
    <glyph glyph-name="AE" unicode="&#xc6;" horiz-adv-x="855" 
d="M882 720q4 -14 -0.5 -31.5t-12.5 -30.5h-278l-56 -263h228q2 -15 -1.5 -31.5t-11.5 -30.5h-228l-58 -271h288q3 -15 -0.5 -32t-12.5 -30h-350l40 190h-250l-149 -184q-9 -3 -22 -4.5t-24 -1.5t-21.5 1.5t-16.5 4.5l585 714h351zM443 252l80 370l-293 -370h213z" />
    <glyph glyph-name="AEacute" unicode="&#x1fc;" horiz-adv-x="855" 
d="M654 762q-31 3 -38 24l133 144q20 2 36.5 -6.5t22.5 -22.5zM882 720q4 -14 -0.5 -31.5t-12.5 -30.5h-278l-56 -263h228q2 -15 -1.5 -31.5t-11.5 -30.5h-228l-58 -271h288q3 -15 -0.5 -32t-12.5 -30h-350l40 190h-250l-149 -184q-9 -3 -22 -4.5t-24 -1.5t-21.5 1.5
t-16.5 4.5l585 714h351zM443 252l80 370l-293 -370h213z" />
    <glyph glyph-name="Aacute" unicode="&#xc1;" horiz-adv-x="646" 
d="M497 923q20 2 36.5 -6.5t21.5 -22.5l-155 -139q-14 2 -23.5 7.5t-13.5 16.5zM369 714q6 1 12 3q5 1 12.5 2t17.5 1t17.5 -1t12.5 -2q6 -2 10 -3l114 -708q-5 -2 -11 -3q-11 -3 -31 -3q-15 0 -22 3q-4 1 -8 3l-31 191h-319l-112 -191q-4 -2 -10 -3q-11 -3 -34 -3
q-19 0 -26 3q-5 1 -8 3zM395 641l-9 -20q-5 -9 -11.5 -22t-14.5 -27l-182 -313h275l-50 313q-2 15 -3.5 27.5t-1.5 21.5q-1 11 0 20h-3z" />
    <glyph glyph-name="Abreve" unicode="&#x102;" horiz-adv-x="646" 
d="M432 836q26 0 47.5 5.5t37.5 12.5q18 8 34 18q24 -7 27 -35q-16 -16 -39 -28q-20 -11 -48 -19.5t-64 -8.5q-37 0 -63.5 8.5t-43.5 19.5q-20 12 -34 28q13 26 40 35q11 -10 27 -18q14 -7 33.5 -12.5t45.5 -5.5zM369 714q6 1 12 3q5 1 12.5 2t17.5 1t17.5 -1t12.5 -2
q6 -2 10 -3l114 -708q-5 -2 -11 -3q-11 -3 -31 -3q-15 0 -22 3q-4 1 -8 3l-31 191h-319l-112 -191q-4 -2 -10 -3q-11 -3 -34 -3q-19 0 -26 3q-5 1 -8 3zM395 641l-9 -20q-5 -9 -11.5 -22t-14.5 -27l-182 -313h275l-50 313q-2 15 -3.5 27.5t-1.5 21.5q-1 11 0 20h-3z" />
    <glyph glyph-name="Acircumflex" unicode="&#xc2;" horiz-adv-x="646" 
d="M570 798q-8 -12 -16 -21.5t-21 -13.5l-95 79l-127 -79q-11 5 -20 13.5t-11 21.5l155 108h26zM369 714q6 1 12 3q5 1 12.5 2t17.5 1t17.5 -1t12.5 -2q6 -2 10 -3l114 -708q-5 -2 -11 -3q-11 -3 -31 -3q-15 0 -22 3q-4 1 -8 3l-31 191h-319l-112 -191q-4 -2 -10 -3
q-11 -3 -34 -3q-19 0 -26 3q-5 1 -8 3zM395 641l-9 -20q-5 -9 -11.5 -22t-14.5 -27l-182 -313h275l-50 313q-2 15 -3.5 27.5t-1.5 21.5q-1 11 0 20h-3z" />
    <glyph glyph-name="Adieresis" unicode="&#xc4;" horiz-adv-x="646" 
d="M317 852l10 2t11.5 1.5t16.5 0.5q9 0 15.5 -0.5t11.5 -1.5t9 -2l-14 -66l-10 -2t-12 -1.5t-16 -0.5q-10 0 -16 0.5t-11 1.5t-9 2zM475 852l10 2t11.5 1.5t16.5 0.5q9 0 15.5 -0.5t11.5 -1.5t9 -2l-14 -66l-10 -2t-12 -1.5t-16 -0.5q-10 0 -16 0.5t-11 1.5t-9 2zM369 714
q6 1 12 3q5 1 12.5 2t17.5 1t17.5 -1t12.5 -2q6 -2 10 -3l114 -708q-5 -2 -11 -3q-11 -3 -31 -3q-15 0 -22 3q-4 1 -8 3l-31 191h-319l-112 -191q-4 -2 -10 -3q-11 -3 -34 -3q-19 0 -26 3q-5 1 -8 3zM395 641l-9 -20q-5 -9 -11.5 -22t-14.5 -27l-182 -313h275l-50 313
q-2 15 -3.5 27.5t-1.5 21.5q-1 11 0 20h-3z" />
    <glyph glyph-name="Agrave" unicode="&#xc0;" horiz-adv-x="646" 
d="M480 778q-18 -21 -48 -24l-95 139q11 13 31.5 22t38.5 7zM369 714q6 1 12 3q5 1 12.5 2t17.5 1t17.5 -1t12.5 -2q6 -2 10 -3l114 -708q-5 -2 -11 -3q-11 -3 -31 -3q-15 0 -22 3q-4 1 -8 3l-31 191h-319l-112 -191q-4 -2 -10 -3q-11 -3 -34 -3q-19 0 -26 3q-5 1 -8 3z
M395 641l-9 -20q-5 -9 -11.5 -22t-14.5 -27l-182 -313h275l-50 313q-2 15 -3.5 27.5t-1.5 21.5q-1 11 0 20h-3z" />
    <glyph glyph-name="Amacron" unicode="&#x100;" horiz-adv-x="646" 
d="M564 846q3 -11 -0.5 -24.5t-10.5 -24.5h-273q-3 25 11 49h273zM369 714q6 1 12 3q5 1 12.5 2t17.5 1t17.5 -1t12.5 -2q6 -2 10 -3l114 -708q-5 -2 -11 -3q-11 -3 -31 -3q-15 0 -22 3q-4 1 -8 3l-31 191h-319l-112 -191q-4 -2 -10 -3q-11 -3 -34 -3q-19 0 -26 3q-5 1 -8 3
zM395 641l-9 -20q-5 -9 -11.5 -22t-14.5 -27l-182 -313h275l-50 313q-2 15 -3.5 27.5t-1.5 21.5q-1 11 0 20h-3z" />
    <glyph glyph-name="Aogonek" unicode="&#x104;" horiz-adv-x="645" 
d="M395 641l-9 -20q-5 -9 -11.5 -22t-14.5 -27l-182 -313h275l-50 313q-2 15 -3.5 27.5t-1.5 21.5q-1 11 0 20h-3zM369 714q6 1 12 3q5 1 12.5 2t17.5 1t17.5 -1t12.5 -2q6 -2 10 -3l114 -708l-2 -1q-24 -15 -50 -37.5t-47 -47t-33.5 -47.5t-10.5 -39q2 -13 11.5 -19
t20.5 -6q13 0 26.5 4t24.5 9q8 -8 11 -22t1 -28q-38 -22 -88 -22q-32 0 -52.5 14.5t-23.5 44.5q-3 24 7.5 50t30 52.5t46 50.5t56.5 44l-31 191h-319l-112 -191q-4 -2 -10 -3q-11 -3 -34 -3q-19 0 -26 3q-5 1 -8 3z" />
    <glyph glyph-name="Aring" unicode="&#xc5;" horiz-adv-x="645" 
d="M564 6q-4 -2 -10 -3q-11 -3 -31 -3q-18 0 -24 3q-4 1 -6 3l-31 191h-319l-112 -191q-6 -2 -13 -3q-12 -3 -31 -3t-26 3q-5 1 -8 3l403 687q-24 9 -39.5 36.5t-7.5 65.5q6 26 20 45.5t33 32t41 19t45 6.5q22 0 41 -7t32.5 -21t19.5 -34.5t0 -47.5q-8 -38 -32 -60.5
t-54 -32.5zM495 791q5 26 -8.5 45.5t-48.5 19.5t-56.5 -20t-26.5 -45q-5 -26 7.5 -46.5t47.5 -20.5t57.5 21t27.5 46zM404 570q-2 15 -3.5 27.5t-1.5 21.5q-1 11 0 20h-3l-9 -20q-5 -9 -11.5 -22t-14.5 -27l-183 -311h275z" />
    <glyph glyph-name="Aringacute" unicode="&#x1fa;" horiz-adv-x="646" 
d="M460 927q-12 2 -21.5 6t-14.5 12l120 108q18 2 34 -5t21 -17zM565 6q-5 -2 -11 -3q-11 -3 -31 -3q-18 0 -24 3q-4 1 -6 3l-31 191h-319l-112 -191q-4 -2 -10 -3q-11 -3 -34 -3q-19 0 -26 3q-5 1 -8 3l403 687q-29 9 -43 34t-6 64q6 26 20 46t33.5 33.5t42 20.5t44.5 7
t41.5 -6.5t33.5 -20t20 -33.5t0 -47q-8 -38 -32.5 -62t-55.5 -34zM495 791q5 26 -8.5 45.5t-49.5 19.5q-35 0 -56.5 -20t-26.5 -45q-5 -26 7.5 -46.5t47.5 -20.5q36 0 58.5 21t27.5 46zM404 575q-2 15 -3.5 27.5t-1.5 21.5q-1 11 0 20h-3l-9 -20q-5 -9 -11.5 -22t-14.5 -27
l-183 -316h275z" />
    <glyph glyph-name="Atilde" unicode="&#xc3;" horiz-adv-x="646" 
d="M289 805q8 13 19 24q10 9 25 17t36 9q20 1 35 -4.5t28 -12.5t25.5 -12.5t27.5 -4.5q11 0 19 4t14 9q7 6 13 14q11 -2 20.5 -10.5t13.5 -19.5q-8 -13 -20 -23q-11 -8 -26.5 -15.5t-36.5 -7.5q-20 -1 -35 4.5t-27.5 12l-24 12t-26.5 5.5q-12 -1 -20.5 -5t-14.5 -9
q-7 -6 -12 -14q-13 2 -22 9t-11 18zM369 714q6 1 12 3q5 1 12.5 2t17.5 1t17.5 -1t12.5 -2q6 -2 10 -3l114 -708q-5 -2 -11 -3q-11 -3 -31 -3q-15 0 -22 3q-4 1 -8 3l-31 191h-319l-112 -191q-4 -2 -10 -3q-11 -3 -34 -3q-19 0 -26 3q-5 1 -8 3zM395 641l-9 -20
q-5 -9 -11.5 -22t-14.5 -27l-182 -313h275l-50 313q-2 15 -3.5 27.5t-1.5 21.5q-1 11 0 20h-3z" />
    <glyph glyph-name="B" unicode="B" horiz-adv-x="628" 
d="M435 720q51 0 84.5 -17.5t51.5 -46t21.5 -66t-4.5 -77.5q-8 -36 -23 -62t-33 -44t-36.5 -29t-31.5 -15q13 -3 30 -14.5t31 -33t20 -54t-4 -77.5q-19 -90 -80.5 -137t-169.5 -47h-258l153 720h249zM354 393q37 0 64.5 10t47.5 27.5t32.5 42t18.5 54.5q13 60 -9.5 96.5
t-97.5 36.5h-163l-57 -267h164zM291 60q82 0 123 36t55 101q15 72 -14 105t-106 33h-171l-58 -275h171z" />
    <glyph glyph-name="C" unicode="C" horiz-adv-x="557" 
d="M75 360q39 184 129 277t230 93q41 0 71 -5.5t50 -11.5q24 -7 40 -16q-3 -18 -12.5 -31.5t-22.5 -24.5q-16 7 -36 12q-17 5 -41 9t-54 4q-47 0 -89 -14.5t-77 -49.5t-63 -94t-47 -149t-16 -148.5t23 -93t56 -48t83 -13.5q33 0 61 3.5t48 8.5q24 5 44 13q8 -11 11 -26
t0 -31q-21 -10 -49 -17q-24 -7 -58.5 -12t-78.5 -5q-280 0 -202 370z" />
    <glyph glyph-name="nonmarkingreturn" horiz-adv-x="322" 
 />
    <glyph glyph-name="Cacute" unicode="&#x106;" horiz-adv-x="557" 
d="M416 756q-31 3 -38 24l134 144q20 2 36.5 -6.5t21.5 -22.5zM276 -10q-279 0 -201 370q39 184 128.5 277t229.5 93q42 0 72 -5.5t50 -11.5q24 -7 40 -16q-3 -18 -12.5 -31.5t-22.5 -24.5q-16 7 -36 12q-17 5 -41 9t-54 4q-47 0 -89 -14.5t-77 -49.5t-63 -94t-47 -149
t-16 -148.5t23 -93t56 -48t83 -13.5q33 0 61 3.5t48 8.5q24 5 44 13q9 -11 11.5 -26t-0.5 -31q-21 -10 -49 -17q-24 -7 -58.5 -12t-79.5 -5z" />
    <glyph glyph-name="Ccaron" unicode="&#x10c;" horiz-adv-x="557" 
d="M318 871q8 12 18 21t24 14l95 -79l126 78q11 -4 17.5 -13t9.5 -21l-154 -108h-26zM276 -10q-279 0 -201 370q39 184 128.5 277t229.5 93q42 0 72 -5.5t50 -11.5q24 -7 40 -16q-3 -19 -12.5 -32t-22.5 -24q-16 7 -36 12q-17 5 -41 9t-54 4q-47 0 -89 -14.5t-77 -49.5
t-63 -94t-47 -149t-16 -148.5t23 -93t56 -48t83 -13.5q33 0 61 3.5t48 8.5q24 5 44 13q9 -11 11.5 -26t-0.5 -31q-21 -10 -49 -17q-24 -7 -58.5 -12t-79.5 -5z" />
    <glyph glyph-name="Ccedilla" unicode="&#xc7;" horiz-adv-x="557" 
d="M464 56q1 -13 0 -22l-2 -10q-21 -10 -49 -17q-24 -6 -58 -11.5t-77 -5.5l-18 -49q58 0 77.5 -25t11.5 -67q-11 -50 -46 -74.5t-92 -24.5q-21 0 -37 3t-27 8q-13 5 -22 12q6 24 25 35q4 -2 22.5 -9t44.5 -7q32 0 53 13.5t28 44.5q11 52 -51 52h-35l-8 12l30 79
q-232 26 -160 367q39 184 128.5 277t229.5 93q42 0 72 -5.5t50 -11.5q24 -7 40 -16q0 -5 -1 -9q-2 -10 -9 -21q-9 -14 -17 -20q-4 -4 -8 -6q-16 7 -36 12q-17 5 -41 9t-54 4q-47 0 -89 -14.5t-77 -49.5t-63 -94t-47 -149t-16 -148.5t23 -93t56 -48.5t83 -14q33 0 61 3.5
t48 8.5q24 5 44 13q2 -2 5 -6q2 -3 4 -7.5t4 -10.5z" />
    <glyph glyph-name="Ccircumflex" unicode="&#x108;" horiz-adv-x="557" 
d="M597 786q-8 -12 -18 -21.5t-23 -12.5l-96 78l-126 -79q-22 9 -27 35l155 108h26zM276 -10q-279 0 -201 370q39 184 128.5 277t229.5 93q42 0 72 -5.5t50 -11.5q24 -7 40 -16q-3 -17 -12.5 -31t-22.5 -25q-16 7 -36 12q-17 5 -41 9t-54 4q-47 0 -89 -14.5t-77 -49.5
t-63 -94t-47 -149t-16 -148.5t23 -93t56 -48t83 -13.5q33 0 61 3.5t48 8.5q24 5 44 13q9 -11 11.5 -25.5t-0.5 -31.5q-21 -10 -49 -17q-24 -7 -58.5 -12t-79.5 -5z" />
    <glyph glyph-name="Cdotaccent" unicode="&#x10a;" horiz-adv-x="557" 
d="M486 785q-4 -2 -10 -3q-5 -1 -12.5 -1.5t-16.5 -0.5q-11 0 -17.5 0.5t-11.5 1.5t-8 3l14 68q4 1 9 2t12 1.5t18 0.5q9 0 16 -0.5t12 -1.5t9 -2zM276 -10q-279 0 -201 370q39 184 128.5 277t229.5 93q42 0 72 -5.5t50 -11.5q24 -7 40 -16q-6 -33 -35 -56q-16 7 -36 12
q-17 5 -41 9t-54 4q-47 0 -89 -14.5t-77 -49.5t-63 -94t-47 -149t-16 -148.5t23 -93t56 -48t83 -13.5q33 0 61 3.5t48 8.5q24 5 44 13q9 -11 11.5 -26t-0.5 -31q-21 -10 -49 -17q-24 -7 -58.5 -12t-79.5 -5z" />
    <glyph glyph-name="D" unicode="D" horiz-adv-x="662" 
d="M395 720q70 0 120 -20.5t77 -65.5t31 -116t-18 -173q-21 -101 -54 -167.5t-78 -106t-103 -55.5t-128 -16h-209l153 720h209zM249 63q51 0 94.5 12.5t78.5 46t62 91t46 147.5t17 148t-23 91t-59 45.5t-89 12.5h-129l-127 -594h129z" />
    <glyph glyph-name="Dcaron" unicode="&#x10e;" horiz-adv-x="662" 
d="M267 871q15 26 42 35l95 -79l126 78q11 -4 17.5 -13t9.5 -21l-148 -108h-26zM395 720q70 0 120 -20.5t77 -65.5t31 -116t-18 -173q-21 -101 -54 -167.5t-78 -106t-103 -55.5t-128 -16h-209l153 720h209zM249 63q51 0 94.5 12.5t78.5 46t62 91t46 147.5t17 148t-23 91
t-59 45.5t-89 12.5h-129l-127 -594h129z" />
    <glyph glyph-name="Dcroat" unicode="&#x110;" horiz-adv-x="673" 
d="M404 720q70 0 120 -21t77.5 -66t31.5 -116.5t-18 -173.5q-21 -101 -54.5 -167.5t-78.5 -105.5t-103 -54.5t-128 -15.5h-209l70 330h-82q-1 12 2 27t9 26h82l72 337h209zM197 383h156q1 -11 -2 -26t-9 -27h-156l-57 -267h129q51 0 94.5 12.5t78.5 46t62 91t46 147.5
t17 148t-23 91t-59 45.5t-89 12.5h-129z" />
    <glyph glyph-name="Delta" unicode="&#x2206;" horiz-adv-x="641" 
d="M375 715q6 2 16 3.5t23 1.5t22 -1.5t15 -3.5l109 -675q-10 -23 -33 -40h-538q-17 15 -17 39zM389 626q-5 -11 -18.5 -38t-33.5 -62l-278 -464h421l-78 465q-6 32 -7.5 60t-2.5 39h-3z" />
    <glyph glyph-name="E" unicode="E" horiz-adv-x="556" 
d="M583 720q3 -13 0 -30q-5 -20 -13 -32h-323l-56 -263h273q3 -14 0 -29q-4 -18 -13 -32h-273l-58 -272h333q3 -14 0 -30q-5 -19 -13 -32h-407l153 720h397z" />
    <glyph glyph-name="Eacute" unicode="&#xc9;" horiz-adv-x="556" 
d="M358 756q-31 3 -38 24l134 144q20 2 36.5 -6.5t21.5 -22.5zM583 720q3 -13 0 -30q-5 -20 -13 -32h-323l-56 -263h273q3 -14 0 -29q-4 -18 -13 -32h-273l-58 -272h333q3 -14 0 -30q-5 -19 -13 -32h-407l153 720h397z" />
    <glyph glyph-name="Ebreve" unicode="&#x114;" horiz-adv-x="556" 
d="M553 843q-19 -16 -43 -28q-20 -11 -49 -19.5t-65 -8.5q-37 0 -62.5 8.5t-41.5 19.5q-19 12 -31 28q15 26 42 35q10 -10 26 -18q13 -7 33 -12.5t46 -5.5t48 5.5t38 12.5q18 8 34 18q25 -8 25 -35zM583 720q3 -13 0 -30q-5 -20 -13 -32h-323l-56 -263h273q3 -14 0 -29
q-4 -18 -13 -32h-273l-58 -272h333q3 -14 0 -30q-5 -19 -13 -32h-407l153 720h397z" />
    <glyph glyph-name="Ecaron" unicode="&#x11a;" horiz-adv-x="556" 
d="M258 871q8 12 18 21t24 14l95 -79l126 78q11 -4 17.5 -13t9.5 -21l-154 -108h-26zM583 720q3 -13 0 -30q-5 -20 -13 -32h-323l-56 -263h273q3 -14 0 -29q-4 -18 -13 -32h-273l-58 -272h333q3 -14 0 -30q-5 -19 -13 -32h-407l153 720h397z" />
    <glyph glyph-name="Ecircumflex" unicode="&#xca;" horiz-adv-x="556" 
d="M544 798q-8 -12 -18.5 -21.5t-23.5 -13.5l-94 79l-127 -79q-22 8 -27 35l155 108h26zM583 720q3 -13 0 -30q-5 -20 -13 -32h-323l-56 -263h273q3 -14 0 -29q-4 -18 -13 -32h-273l-58 -272h333q3 -14 0 -30q-5 -19 -13 -32h-407l153 720h397z" />
    <glyph glyph-name="Edieresis" unicode="&#xcb;" horiz-adv-x="556" 
d="M355 776l-10 -2t-11.5 -1.5t-15.5 -0.5q-10 0 -16 0.5t-11 1.5t-9 2l14 66l10 2t11.5 1.5t16.5 0.5q9 0 15 -0.5t11 -1.5t9 -2zM513 776l-10 -2t-11.5 -1.5t-15.5 -0.5q-10 0 -16 0.5t-11 1.5t-9 2l14 66l10 2t11.5 1.5t16.5 0.5q9 0 15 -0.5t11 -1.5t9 -2zM583 720
q3 -13 0 -30q-5 -20 -13 -32h-323l-56 -263h273q3 -14 0 -29q-4 -18 -13 -32h-273l-58 -272h333q3 -14 0 -30q-5 -19 -13 -32h-407l153 720h397z" />
    <glyph glyph-name="Edotaccent" unicode="&#x116;" horiz-adv-x="556" 
d="M439 785q-5 -2 -11 -3q-5 -1 -12 -1.5t-16 -0.5q-11 0 -17.5 0.5t-11.5 1.5t-9 3l14 68q4 1 10 2q5 1 12 1.5t18 0.5q9 0 15.5 -0.5t11.5 -1.5l10 -2zM583 720q3 -13 0 -30q-5 -20 -13 -32h-323l-56 -263h273q3 -14 0 -29q-4 -18 -13 -32h-273l-58 -272h333q3 -14 0 -30
q-5 -19 -13 -32h-407l153 720h397z" />
    <glyph glyph-name="Egrave" unicode="&#xc8;" horiz-adv-x="556" 
d="M305 893q11 13 31.5 22t38.5 7l73 -144q-18 -21 -48 -24zM583 720q3 -13 0 -30q-5 -20 -13 -32h-323l-56 -263h273q3 -14 0 -29q-4 -18 -13 -32h-273l-58 -272h333q3 -14 0 -30q-5 -19 -13 -32h-407l153 720h397z" />
    <glyph glyph-name="Emacron" unicode="&#x112;" horiz-adv-x="556" 
d="M255 788q-2 25 11 49h284q2 -11 -2 -24.5t-9 -24.5h-284zM583 720q3 -13 0 -30q-5 -20 -13 -32h-323l-56 -263h273q3 -14 0 -29q-4 -18 -13 -32h-273l-58 -272h333q3 -14 0 -30q-5 -19 -13 -32h-407l153 720h397z" />
    <glyph glyph-name="Eng" unicode="&#x14a;" horiz-adv-x="700" 
d="M629 717q5 1 11.5 2t15.5 1t15.5 -1t10.5 -2q4 -2 7 -3l-162 -762q-8 -36 -20 -64.5t-30 -50.5t-44 -38t-62 -27q-11 8 -13.5 22.5t2.5 31.5q40 13 61.5 41t33.5 84l10 51q-7 1 -10 3q-2 1 -4 1l-184 509q-8 23 -14 42.5l-11 34.5l-9 33h-3l-6 -39q-3 -20 -8.5 -48
t-13.5 -65l-99 -467q-4 -2 -9 -3q-9 -3 -27 -3q-19 0 -26 3q-4 1 -7 3l151 708l12 3q6 1 14 2t19 1t19 -1t13 -2q6 -2 10 -3l181 -503l15 -42.5t12 -37.5l11 -36h3q2 19 6 43q3 20 8 47t12 59l100 470z" />
    <glyph glyph-name="Eogonek" unicode="&#x118;" horiz-adv-x="556" 
d="M583 720q3 -13 0 -30q-5 -20 -13 -32h-323l-56 -263h273q3 -14 0 -29q-4 -18 -13 -32h-273l-58 -272h333q3 -14 0 -30q-5 -19 -13 -32q-25 -15 -50 -37t-45 -45t-31.5 -45.5t-9.5 -38.5q2 -13 11.5 -19t20.5 -6q13 0 26.5 4t24.5 9q8 -8 11 -22t1 -28q-38 -22 -88 -22
q-32 0 -52.5 14.5t-23.5 44.5q-3 24 7.5 49.5t29.5 50.5t45 48t56 43h-340l153 720h397z" />
    <glyph glyph-name="Eth" unicode="&#xd0;" horiz-adv-x="670" 
d="M404 720q70 0 119.5 -21t76.5 -66t30.5 -116.5t-18.5 -173.5q-21 -101 -54 -167.5t-77.5 -105.5t-102 -54.5t-127.5 -15.5h-209l70 330h-82q-1 13 2 27.5t9 25.5h82l72 337h209zM197 383h156q1 -11 -2 -26t-9 -27h-156l-57 -267h129q51 0 94.5 12.5t78.5 46t62 91
t46 147.5t17 148t-23 91t-59 45.5t-89 12.5h-129z" />
    <glyph glyph-name="Euro" unicode="&#x20ac;" horiz-adv-x="585" 
d="M163 440q86 240 294 240q38 0 64.5 -5t43.5 -11q20 -7 34 -15q-5 -16 -12 -28.5t-21 -22.5q-13 6 -30 11q-14 4 -35 7.5t-47 3.5q-35 0 -66 -9t-58.5 -30t-50.5 -55.5t-42 -85.5h258q0 -11 -5 -24.5t-14 -24.5h-256q-4 -14 -7 -28l-6 -29q-3 -14 -5.5 -27.5t-4.5 -25.5
h224q-1 -11 -6 -24.5t-14 -24.5h-209q-3 -53 5.5 -87.5t27 -55.5t46 -29.5t62.5 -8.5q29 0 53 3t41 8q20 4 37 11q10 -9 12 -23t0 -28q-18 -9 -43 -16q-21 -6 -52 -11t-70 -5q-210 0 -192 242h-84q1 11 6.5 24.5t13.5 24.5h70q3 25 9 54l6 28t8 28h-79q1 11 6 25t13 24h75v0
z" />
    <glyph glyph-name="F" unicode="F" horiz-adv-x="536" 
d="M108 6q-5 -2 -10 -3q-9 -3 -28 -3q-18 0 -27 3q-5 1 -9 3l152 714h393q1 -5 1 -12.5t-2 -18.5t-5.5 -18.5t-6.5 -12.5h-319l-58 -273h279q3 -11 -1 -30q-2 -11 -5.5 -19t-6.5 -13h-279z" />
    <glyph glyph-name="G" unicode="G" horiz-adv-x="627" 
d="M76 360q39 184 134 277t238 93q44 0 77 -5.5t56 -11.5q26 -7 45 -16q-4 -16 -13 -30.5t-22 -24.5q-19 7 -42 12q-20 5 -46.5 8.5t-58.5 3.5q-48 0 -92 -14.5t-81.5 -49.5t-67.5 -94t-49 -149t-14.5 -148.5t27.5 -93t61 -48.5t86 -14q41 0 73 5t45 8l55 259h-164
q-1 4 -1 8v9.5t2 13.5q3 14 8 23q3 4 5 8h235l-78 -366q-25 -10 -56 -17q-27 -6 -64 -11t-83 -5q-142 0 -198 92t-17 278z" />
    <glyph glyph-name="Gbreve" unicode="&#x11e;" horiz-adv-x="627" 
d="M617 840q-17 -16 -39 -28q-20 -11 -47.5 -19.5t-63.5 -8.5q-37 0 -64 8.5t-44 19.5q-20 12 -34 28q13 26 41 35q11 -10 27 -18q14 -7 33.5 -12.5t45.5 -5.5t47.5 5.5t37.5 12.5q18 8 34 18q24 -8 26 -35zM291 -10q-142 0 -198 92t-17 278q39 184 134 277t238 93
q44 0 77 -5.5t56 -11.5q26 -7 45 -16q-4 -16 -13 -30.5t-22 -24.5q-19 7 -42 12q-20 5 -46.5 8.5t-58.5 3.5q-48 0 -92 -14.5t-81.5 -49.5t-67.5 -94t-49 -149t-14.5 -148.5t27 -93t61 -48.5t86.5 -14q41 0 73 5t45 8l55 259h-164q-1 4 -1 8v9.5t2 13.5q3 14 8 23q3 4 5 8
h235l-78 -366q-25 -10 -56 -17q-27 -6 -64 -11t-83 -5z" />
    <glyph glyph-name="Gcircumflex" unicode="&#x11c;" horiz-adv-x="627" 
d="M624 798q-8 -12 -19 -21.5t-23 -13.5l-95 79l-127 -79q-23 9 -26 35l155 108h26zM291 -10q-142 0 -198 92t-17 278q39 184 134 277t238 93q44 0 77 -5.5t56 -11.5q26 -7 45 -16q-4 -16 -13 -30.5t-22 -24.5q-19 7 -42 12q-20 5 -46.5 8.5t-58.5 3.5q-48 0 -92 -14.5
t-81.5 -49.5t-67.5 -94t-49 -149t-14.5 -148.5t27 -93t61 -48.5t86.5 -14q41 0 73 5t45 8l55 259h-164q-1 4 -1 8v9.5t2 13.5q3 14 8 23q3 4 5 8h235l-78 -366q-25 -10 -56 -17q-27 -6 -64 -11t-83 -5z" />
    <glyph glyph-name="Gcommaaccent" unicode="&#x122;" horiz-adv-x="627" 
d="M291 -10q-142 0 -198 92t-17 278q39 184 134 277t238 93q44 0 77 -5.5t56 -11.5q26 -7 45 -16q-8 -33 -35 -55q-19 7 -42 12q-20 5 -46.5 8.5t-58.5 3.5q-48 0 -92 -14.5t-81.5 -49.5t-67.5 -94t-49 -149t-14.5 -148.5t27 -93t61 -48.5t86.5 -14q41 0 73 5t45 8l55 259
h-164q-1 4 -1 8v9.5t2 13.5q3 14 8 23q3 4 5 8h235l-78 -366q-25 -10 -56 -17q-27 -6 -64 -11t-83 -5zM202 -216q11 9 22 22q9 11 18.5 27t16.5 38q-8 0 -13.5 1t-8.5 2q-4 1 -6 2l14 68q5 1 12 2q6 1 14 2t19 1t18.5 -1t12.5 -2q6 -1 11 -2l-10 -47q-7 -32 -22.5 -56.5
t-31.5 -41.5q-18 -19 -40 -33z" />
    <glyph glyph-name="Gdotaccent" unicode="&#x120;" horiz-adv-x="627" 
d="M500 785q-4 -2 -10 -3q-5 -1 -12.5 -1.5t-16.5 -0.5q-10 0 -16.5 0.5t-11.5 1.5t-9 3l14 68q4 1 10 2q5 1 12 1.5t17 0.5q9 0 16 -0.5t12 -1.5t9 -2zM291 -10q-142 0 -198 92t-17 278q39 184 134 277t238 93q44 0 77 -5.5t56 -11.5q26 -7 45 -16q-4 -16 -13 -30.5
t-22 -24.5q-19 7 -42 12q-20 5 -46.5 8.5t-58.5 3.5q-48 0 -92 -14.5t-81.5 -49.5t-67.5 -94t-49 -149t-14.5 -148.5t27 -93t61 -48.5t86.5 -14q41 0 73 5t45 8l55 259h-164q-1 4 -1 8v9.5t2 13.5q3 14 8 23q3 4 5 8h235l-78 -366q-25 -10 -56 -17q-27 -6 -64 -11t-83 -5z
" />
    <glyph glyph-name="H" unicode="H" horiz-adv-x="682" 
d="M597 714q4 1 10 3q5 1 12 2t16 1t15.5 -1t11.5 -2l9 -3l-151 -708q-5 -2 -10 -3q-9 -3 -28 -3t-28 3q-5 1 -8 3l70 330h-338l-70 -330q-5 -2 -10 -3q-11 -3 -28 -3q-19 0 -28 3q-5 1 -8 3l151 708q4 1 10 3q5 1 12 2t16 1t15.5 -1t11.5 -2l9 -3l-67 -312h338z" />
    <glyph glyph-name="Hbar" unicode="&#x126;" horiz-adv-x="699" 
d="M728 598q2 -11 -1.5 -25t-8.5 -24h-75l-116 -543q-5 -2 -10 -3q-9 -3 -28 -3t-28 3q-5 1 -8 3l70 330h-338l-70 -330q-5 -2 -10 -3q-11 -3 -28 -3q-19 0 -28 3q-5 1 -8 3l116 543h-65q-3 26 10 49h65l25 116q4 1 10 3q5 1 12 2t16 1t15.5 -1t11.5 -2l9 -3l-25 -116h338
l25 116q4 1 10 3q5 1 12 2t16 1t15.5 -1t11.5 -2l9 -3l-25 -116h75zM199 402h338l32 147h-338z" />
    <glyph glyph-name="Hcircumflex" unicode="&#x124;" horiz-adv-x="682" 
d="M598 798q-8 -12 -19 -21.5t-23 -13.5l-95 79l-127 -79q-23 9 -26 35l155 108h26zM597 714q4 1 10 3q5 1 12 2t16 1t15.5 -1t11.5 -2l9 -3l-151 -708q-5 -2 -10 -3q-9 -3 -28 -3t-28 3q-5 1 -8 3l70 330h-338l-70 -330q-5 -2 -10 -3q-11 -3 -28 -3q-19 0 -28 3q-5 1 -8 3
l151 708q4 1 10 3q5 1 12 2t16 1t15.5 -1t11.5 -2l9 -3l-67 -312h338z" />
    <glyph glyph-name="I" unicode="I" horiz-adv-x="270" 
d="M185 714q5 1 10 3q5 1 11.5 2t16.5 1q9 0 15.5 -1t11.5 -2l9 -3l-151 -708q-5 -2 -10 -3q-11 -3 -28 -3q-19 0 -28 3q-5 1 -8 3z" />
    <glyph glyph-name="IJ" unicode="&#x132;" horiz-adv-x="659" 
d="M185 714q5 1 10 3q5 1 11.5 2t16.5 1q9 0 15.5 -1t11.5 -2l9 -3l-151 -708q-5 -2 -10 -3q-11 -3 -28 -3q-19 0 -28 3q-5 1 -8 3zM579 714l9 3q5 1 11.5 2t17.5 1q9 0 15.5 -1t11.5 -2l9 -3l-115 -540q-20 -96 -75.5 -140t-140.5 -44q-29 0 -53.5 4.5t-42.5 10.5
q-21 6 -39 15q6 36 33 57q14 -7 31 -11q14 -4 32.5 -7t40.5 -3q50 0 88 25.5t52 92.5z" />
    <glyph glyph-name="Iacute" unicode="&#xcd;" horiz-adv-x="270" 
d="M198 756q-31 3 -38 24l134 144q20 2 36.5 -6.5t21.5 -22.5zM185 714q5 1 10 3q5 1 11.5 2t16.5 1q9 0 15.5 -1t11.5 -2l9 -3l-151 -708q-5 -2 -10 -3q-11 -3 -28 -3q-19 0 -28 3q-5 1 -8 3z" />
    <glyph glyph-name="Ibreve" unicode="&#x12c;" horiz-adv-x="270" 
d="M392 837q-19 -16 -43 -28q-20 -11 -49.5 -19.5t-65.5 -8.5q-37 0 -62 8.5t-41 19.5q-18 12 -31 28q13 26 40 35q11 -10 27 -18q14 -7 33.5 -12.5t45.5 -5.5t47.5 5.5t37.5 12.5q18 8 34 18q24 -7 27 -35zM185 714q5 1 10 3q5 1 11.5 2t16.5 1q9 0 15.5 -1t11.5 -2l9 -3
l-151 -708q-5 -2 -10 -3q-11 -3 -28 -3q-19 0 -28 3q-5 1 -8 3z" />
    <glyph glyph-name="Icircumflex" unicode="&#xce;" horiz-adv-x="270" 
d="M385 798q-8 -12 -18.5 -21.5t-23.5 -13.5l-95 79l-127 -79q-21 9 -26 35l151 108h26zM185 714q5 1 10 3q5 1 11.5 2t16.5 1q9 0 15.5 -1t11.5 -2l9 -3l-151 -708q-5 -2 -10 -3q-11 -3 -28 -3q-19 0 -28 3q-5 1 -8 3z" />
    <glyph glyph-name="Idieresis" unicode="&#xcf;" horiz-adv-x="270" 
d="M185 771l-10 -2t-11.5 -1.5t-15.5 -0.5q-10 0 -16 0.5t-11 1.5t-9 2l14 66l10 2t11.5 1.5t16.5 0.5q9 0 15 -0.5t11 -1.5t9 -2zM343 771l-10 -2t-11.5 -1.5t-15.5 -0.5q-10 0 -16 0.5t-11 1.5t-9 2l14 66l10 2t11.5 1.5t16.5 0.5q9 0 15 -0.5t11 -1.5t9 -2zM185 714
q5 1 10 3q5 1 11.5 2t16.5 1q9 0 15.5 -1t11.5 -2l9 -3l-151 -708q-5 -2 -10 -3q-11 -3 -28 -3q-19 0 -28 3q-5 1 -8 3z" />
    <glyph glyph-name="Idotaccent" unicode="&#x130;" horiz-adv-x="270" 
d="M210 848q4 1 10 2q5 1 12.5 2t18.5 1q10 0 17.5 -1t12.5 -2q6 -1 10 -2l-15 -73q-5 -2 -11 -3q-5 -1 -13 -1.5t-18 -0.5q-11 0 -18 0.5t-12 1.5t-9 3zM185 714q5 1 10 3q5 1 11.5 2t16.5 1q9 0 15.5 -1t11.5 -2l9 -3l-151 -708q-5 -2 -10 -3q-11 -3 -28 -3q-19 0 -28 3
q-5 1 -8 3z" />
    <glyph glyph-name="Igrave" unicode="&#xcc;" horiz-adv-x="270" 
d="M155 893q11 13 31.5 22t38.5 7l73 -144q-18 -21 -48 -24zM185 714q5 1 10 3q5 1 11.5 2t16.5 1q9 0 15.5 -1t11.5 -2l9 -3l-151 -708q-5 -2 -10 -3q-11 -3 -28 -3q-19 0 -28 3q-5 1 -8 3z" />
    <glyph glyph-name="Imacron" unicode="&#x12a;" horiz-adv-x="270" 
d="M92 763q-7 25 11 49h283q3 -11 -0.5 -24.5t-10.5 -24.5h-283zM185 714q5 1 10 3q5 1 11.5 2t16.5 1q9 0 15.5 -1t11.5 -2l9 -3l-151 -708q-5 -2 -10 -3q-11 -3 -28 -3q-19 0 -28 3q-5 1 -8 3z" />
    <glyph glyph-name="Iogonek" unicode="&#x12e;" horiz-adv-x="270" 
d="M33 0l152 714q5 1 10 3q5 1 11.5 2t16.5 1q9 0 15.5 -1t11.5 -2l9 -3l-152 -714q-48 -42 -75.5 -86.5t-20.5 -77.5q2 -12 12 -19.5t25 -7.5q13 0 26.5 4t24.5 9q8 -8 11 -22t1 -28q-38 -22 -88 -22q-37 0 -56 16.5t-24 41.5q-4 23 1.5 48t18.5 50.5t33 49.5t45 44h-8z
" />
    <glyph glyph-name="Itilde" unicode="&#x128;" horiz-adv-x="270" 
d="M305 812q11 0 19.5 4t15.5 9q8 5 14 13q20 -8 20 -31q0 -2 -7 -9t-18 -15t-27 -14.5t-34 -6.5q-20 0 -32.5 5t-23 11.5t-20.5 11.5t-24 5q-11 0 -19.5 -4t-15.5 -9q-8 -5 -14 -12q-21 10 -21 31q10 12 23 22q11 8 27 15t37 7q19 0 32 -5t23 -11.5t20 -11.5t25 -5z
M185 714q5 1 10 3q5 1 11.5 2t16.5 1q9 0 15.5 -1t11.5 -2l9 -3l-151 -708q-5 -2 -10 -3q-11 -3 -28 -3q-19 0 -28 3q-5 1 -8 3z" />
    <glyph glyph-name="J" unicode="J" horiz-adv-x="435" 
d="M355 714l9 3q5 1 11.5 2t17.5 1q9 0 15.5 -1t11.5 -2l9 -3l-115 -538q-20 -96 -75 -141t-140 -45q-29 0 -54 4.5t-43 10.5q-21 6 -38 15q6 36 32 57q14 -7 31 -11q14 -4 32.5 -7t40.5 -3q50 0 88 25.5t52 92.5z" />
    <glyph glyph-name="Jcircumflex" unicode="&#x134;" horiz-adv-x="435" 
d="M555 798q-8 -12 -19 -21.5t-23 -13.5l-95 79l-127 -79q-23 9 -26 35l155 108h26zM355 714l9 3q5 1 11.5 2t17.5 1q9 0 15.5 -1t11.5 -2l9 -3l-115 -538q-20 -96 -75 -141t-140 -45q-29 0 -54 4.5t-43 10.5q-21 6 -38 15q6 36 32 57q14 -7 31 -11q14 -4 32.5 -7t40.5 -3
q50 0 88 25.5t52 92.5z" />
    <glyph glyph-name="K" unicode="K" horiz-adv-x="611" 
d="M570 714q6 2 19.5 4t26.5 2t23 -2t16 -4l-305 -342l183 -366q-5 -2 -11 -3q-11 -3 -33 -3q-14 0 -23 3q-5 1 -10 3l-167 337h-109l-72 -337q-4 -2 -9 -3q-9 -3 -29 -3q-18 0 -27 3q-5 1 -9 3l151 708q4 1 10 3q5 1 12 2t17 1q9 0 15 -1t11 -2l9 -3l-66 -309h102z" />
    <glyph glyph-name="Kcommaaccent" unicode="&#x136;" horiz-adv-x="611" 
d="M182 -217q10 10 21 24q9 12 18 29t16 40q-7 0 -11.5 1t-7.5 2q-4 1 -6 2l15 73q5 1 11 2q5 1 12.5 2t17.5 1t17.5 -1t12.5 -2q6 -1 10 -2l-10 -50q-8 -35 -23.5 -61t-30.5 -44q-18 -21 -38 -36zM570 714q6 2 19.5 4t26.5 2t23 -2t16 -4l-305 -342l183 -366q-5 -2 -11 -3
q-11 -3 -33 -3q-14 0 -23 3q-5 1 -10 3l-167 337h-109l-72 -337q-4 -2 -9 -3q-9 -3 -29 -3q-18 0 -27 3q-5 1 -9 3l151 708q4 1 10 3q5 1 12 2t17 1q9 0 15 -1t11 -2l9 -3l-66 -309h102z" />
    <glyph glyph-name="L" unicode="L" horiz-adv-x="510" 
d="M185 714q4 1 10 3q5 1 12 2t16 1t15.5 -1t11.5 -2l9 -3l-138 -649h313v-13.5t-2 -18.5q-2 -11 -5.5 -19t-6.5 -14h-387z" />
    <glyph glyph-name="Lacute" unicode="&#x139;" horiz-adv-x="510" 
d="M218 756q-31 3 -38 24l134 144q20 2 36.5 -6.5t21.5 -22.5zM185 714q4 1 10 3q5 1 12 2t16 1t15.5 -1t11.5 -2l9 -3l-138 -649h313v-13.5t-2 -18.5q-2 -11 -5.5 -19t-6.5 -14h-387z" />
    <glyph glyph-name="Lcaron" unicode="&#x13d;" horiz-adv-x="510" 
d="M351 585q-21 4 -27 22q39 29 61 62t33 80q43 3 60 -14q-16 -47 -50 -89t-77 -61zM185 714q4 1 10 3q5 1 12 2t16 1t15.5 -1t11.5 -2l9 -3l-138 -649h313v-13.5t-2 -18.5q-2 -11 -5.5 -19t-6.5 -14h-387z" />
    <glyph glyph-name="Lcommaaccent" unicode="&#x13b;" horiz-adv-x="510" 
d="M185 714q4 1 10 3q5 1 12 2t16 1t15.5 -1t11.5 -2l9 -3l-138 -649h313v-13.5t-2 -18.5q-2 -11 -5.5 -19t-6.5 -14h-387zM138 -216q10 10 21 24q9 12 18 29t16 40q-7 0 -12 1t-8 2q-4 1 -6 2l15 73q5 1 11 2q5 1 12.5 2t18.5 1q10 0 17.5 -1t12.5 -2t9 -2l-10 -50
q-8 -35 -23 -61t-30 -44q-18 -21 -38 -36z" />
    <glyph glyph-name="Ldot" unicode="&#x13f;" horiz-adv-x="512" 
d="M185 714q4 1 10 3q5 1 12 2t16 1t15.5 -1t11.5 -2l9 -3l-138 -649h313v-13.5t-2 -18.5q-2 -11 -5.5 -19t-6.5 -14h-387zM375 302q-5 -2 -10 -3q-11 -3 -28 -3q-18 0 -27 3q-5 1 -9 3l14 65l10 2t11.5 2t16.5 1q9 0 15.5 -1t11.5 -2t9 -2z" />
    <glyph glyph-name="Lslash" unicode="&#x141;" horiz-adv-x="523" 
d="M199 714q4 1 10 3q5 1 12 2t16 1t15.5 -1t11.5 -2l9 -3l-62 -291l119 62q18 -16 16 -43l-147 -76l-64 -301h313v-13.5t-2 -18.5q-2 -11 -5.5 -19t-6.5 -14h-387l69 323l-69 -35q-18 16 -16 42l97 50l71 334v0z" />
    <glyph glyph-name="M" unicode="M" horiz-adv-x="843" 
d="M735 714q8 2 21 4t28 2q11 0 20 -1t15 -2q7 -2 13 -3l-151 -708q-5 -2 -10 -3q-11 -3 -28 -3q-18 0 -27 3q-5 1 -9 3l90 424l14 62.5l13 56.5l11 47t10 34h-3q-11 -20 -38 -60.5t-61 -86.5l-230 -296q-3 -1 -7 -2q-10 -2 -19 -2q-8 0 -16 2q-4 1 -6 2l-98 294
q-14 45 -25 87t-12 62h-3q0 -22 -10 -75.5t-24 -119.5l-91 -429q-4 -2 -9 -3q-9 -3 -26 -3q-18 0 -25 3q-5 1 -8 3l151 708q5 1 11 3q5 1 13 2t19 1q9 0 16 -1t12 -2q6 -2 11 -3l136 -436h3l329 436v0z" />
    <glyph glyph-name="N" unicode="N" horiz-adv-x="700" 
d="M268 515q-8 23 -14.5 43.5l-11.5 36.5q-5 18 -9 35h-3q-2 -18 -6 -42q-3 -20 -8.5 -49t-13.5 -66l-99 -467q-4 -2 -9 -3q-9 -3 -27 -3t-25 3q-4 1 -8 3l151 708l12 3q6 1 14 2t19 1t19.5 -1t13.5 -2q6 -2 10 -3l181 -503q8 -22 14.5 -43.5l11.5 -38.5l11 -38h3q2 20 6 45
q3 21 8 48.5t12 59.5l100 470l9 3q5 1 11.5 2t16.5 1q9 0 15 -1t10 -2q4 -2 7 -3l-151 -708q-5 -2 -11 -3q-11 -3 -32 -3q-23 0 -33 3q-6 1 -11 3z" />
    <glyph glyph-name="Nacute" unicode="&#x143;" horiz-adv-x="700" 
d="M435 756q-31 3 -38 24l134 144q20 2 36.5 -6.5t21.5 -22.5zM268 515q-8 23 -14.5 43.5l-11.5 36.5q-5 18 -9 35h-3q-2 -18 -6 -42q-3 -20 -8.5 -49t-13.5 -66l-99 -467q-4 -2 -9 -3q-9 -3 -27 -3t-25 3q-4 1 -8 3l151 708l12 3q6 1 14 2t19 1t19.5 -1t13.5 -2q6 -2 10 -3
l181 -503q8 -22 14.5 -43.5l11.5 -38.5l11 -38h3q2 20 6 45q3 21 8 48.5t12 59.5l100 470l9 3q5 1 11.5 2t16.5 1q9 0 15 -1t10 -2q4 -2 7 -3l-151 -708q-5 -2 -11 -3q-11 -3 -32 -3q-23 0 -33 3q-6 1 -11 3z" />
    <glyph glyph-name="Ncaron" unicode="&#x147;" horiz-adv-x="700" 
d="M314 871q15 26 42 35l95 -79l126 78q11 -4 17.5 -13t9.5 -21l-145 -106h-26zM268 515q-8 23 -14.5 43.5l-11.5 36.5q-5 18 -9 35h-3q-2 -18 -6 -42q-3 -20 -8.5 -49t-13.5 -66l-99 -467q-4 -2 -9 -3q-9 -3 -27 -3t-25 3q-4 1 -8 3l151 708l12 3q6 1 14 2t19 1t19.5 -1
t13.5 -2q6 -2 10 -3l181 -503q8 -22 14.5 -43.5l11.5 -38.5l11 -38h3q2 20 6 45q3 21 8 48.5t12 59.5l100 470l9 3q5 1 11.5 2t16.5 1q9 0 15 -1t10 -2q4 -2 7 -3l-151 -708q-5 -2 -11 -3q-11 -3 -32 -3q-23 0 -33 3q-6 1 -11 3z" />
    <glyph glyph-name="Ncommaaccent" unicode="&#x145;" horiz-adv-x="700" 
d="M194 -222q10 10 21 24q9 12 18 29t16 40q-7 0 -11.5 1t-7.5 2q-4 1 -6 2l15 73q5 1 11 2q5 1 12.5 2t17.5 1t17.5 -1t12.5 -2q6 -1 10 -2l-10 -50q-8 -35 -23.5 -61t-30.5 -44q-18 -21 -38 -36zM268 515q-8 23 -14.5 43.5l-11.5 36.5q-5 18 -9 35h-3q-2 -18 -6 -42
q-3 -20 -8.5 -49t-13.5 -66l-99 -467q-4 -2 -9 -3q-9 -3 -27 -3t-25 3q-4 1 -8 3l151 708l12 3q6 1 14 2t19 1t19.5 -1t13.5 -2q6 -2 10 -3l181 -503q8 -22 14.5 -43.5l11.5 -38.5l11 -38h3q2 20 6 45q3 21 8 48.5t12 59.5l100 470l9 3q5 1 11.5 2t16.5 1q9 0 15 -1t10 -2
q4 -2 7 -3l-151 -708q-5 -2 -11 -3q-11 -3 -32 -3q-23 0 -33 3q-6 1 -11 3z" />
    <glyph glyph-name="Ntilde" unicode="&#xd1;" horiz-adv-x="700" 
d="M524 823q11 0 20 4t16 9q8 5 14 13q11 -3 17 -13t6 -21q-2 -2 -7.5 -9t-15.5 -14.5t-24.5 -13.5t-32.5 -6q-20 0 -34.5 5.5t-26.5 11.5l-24 11.5t-27 5.5q-11 0 -20 -4.5t-16 -9.5q-8 -6 -15 -13q-23 12 -22 34q7 12 18 22q10 8 25 15.5t36 7.5q20 0 34.5 -5.5t27 -12
t24.5 -12t27 -5.5zM268 515q-8 23 -14.5 43.5l-11.5 36.5q-5 18 -9 35h-3q-2 -18 -6 -42q-3 -20 -8.5 -49t-13.5 -66l-99 -467q-4 -2 -9 -3q-9 -3 -27 -3t-25 3q-4 1 -8 3l151 708l12 3q6 1 14 2t19 1t19.5 -1t13.5 -2q6 -2 10 -3l181 -503q8 -22 14.5 -43.5l11.5 -38.5
l11 -38h3q2 20 6 45q3 21 8 48.5t12 59.5l100 470l9 3q5 1 11.5 2t16.5 1q9 0 15 -1t10 -2q4 -2 7 -3l-151 -708q-5 -2 -11 -3q-11 -3 -32 -3q-23 0 -33 3q-6 1 -11 3z" />
    <glyph glyph-name="O" unicode="O" horiz-adv-x="677" 
d="M79 373q20 97 52.5 164.5t76.5 110.5t98.5 62.5t118.5 19.5t110 -23.5t72 -71.5t30 -120.5t-16 -169.5t-52.5 -164.5t-76.5 -110t-99 -61.5t-119 -19q-128 0 -181.5 94.5t-13.5 288.5zM546 360q19 87 17.5 146t-19.5 95t-51 51.5t-78 15.5t-84.5 -15.5t-73 -51.5t-60 -95
t-45.5 -146q-18 -87 -16.5 -146t19.5 -95t51 -51.5t78 -15.5t84.5 15.5t73 51.5t60 95t44.5 146z" />
    <glyph glyph-name="OE" unicode="&#x152;" horiz-adv-x="847" 
d="M79 375q21 97 55 164.5t79 110t101 61.5t122 19q25 0 46.5 -3t37.5 -7h354q3 -14 -1 -31q-3 -17 -12 -31h-281l-56 -263h231q3 -14 0 -30q-5 -17 -13 -31h-231l-58 -272h291q3 -14 0 -31q-5 -17 -13 -31h-365q-17 -4 -39 -7t-48 -3q-66 0 -113 24t-73 72t-30 120t16 169z
M509 652q-35 16 -86 16q-47 0 -88 -15.5t-75.5 -51.5t-61.5 -95t-46 -146q-18 -87 -16 -146t21 -95t53.5 -51.5t81.5 -15.5q24 0 48 4t44 12z" />
    <glyph glyph-name="Oacute" unicode="&#xd3;" horiz-adv-x="677" 
d="M515 935q19 2 36 -6.5t22 -22.5l-150 -134q-14 2 -24 8t-14 16zM79 373q20 97 52.5 164.5t76.5 110.5t98.5 62.5t118.5 19.5t110 -23.5t72 -71.5t30 -120.5t-16 -169.5t-52.5 -164.5t-76.5 -110t-99 -61.5t-119 -19q-128 0 -181.5 94.5t-13.5 288.5zM546 360
q19 87 17.5 146t-19.5 95t-51 51.5t-78 15.5t-84.5 -15.5t-73 -51.5t-60 -95t-45.5 -146q-18 -87 -16.5 -146t19.5 -95t51 -51.5t78 -15.5t84.5 15.5t73 51.5t60 95t44.5 146z" />
    <glyph glyph-name="Obreve" unicode="&#x14e;" horiz-adv-x="677" 
d="M453 846q26 0 47.5 5.5t37.5 12.5q18 8 34 18q24 -7 27 -35q-16 -16 -39 -28q-20 -11 -48 -19.5t-64 -8.5q-37 0 -63.5 8.5t-43.5 19.5q-20 12 -34 28q13 26 40 35q11 -10 27 -18q14 -7 33.5 -12.5t45.5 -5.5zM79 373q20 97 52.5 164.5t76.5 110.5t98.5 62.5t118.5 19.5
t110 -23.5t72 -71.5t30 -120.5t-16 -169.5t-52.5 -164.5t-76.5 -110t-99 -61.5t-119 -19q-128 0 -181.5 94.5t-13.5 288.5zM546 360q19 87 17.5 146t-19.5 95t-51 51.5t-78 15.5t-84.5 -15.5t-73 -51.5t-60 -95t-45.5 -146q-18 -87 -16.5 -146t19.5 -95t51 -51.5t78 -15.5
t84.5 15.5t73 51.5t60 95t44.5 146z" />
    <glyph glyph-name="Ocircumflex" unicode="&#xd4;" horiz-adv-x="677" 
d="M590 798q-8 -12 -19 -21.5t-23 -13.5l-95 79l-127 -79q-23 9 -26 35l149 108h26zM79 373q20 97 52.5 164.5t76.5 110.5t98.5 62.5t118.5 19.5t110 -23.5t72 -71.5t30 -120.5t-16 -169.5t-52.5 -164.5t-76.5 -110t-99 -61.5t-119 -19q-128 0 -181.5 94.5t-13.5 288.5z
M546 360q19 87 17.5 146t-19.5 95t-51 51.5t-78 15.5t-84.5 -15.5t-73 -51.5t-60 -95t-45.5 -146q-18 -87 -16.5 -146t19.5 -95t51 -51.5t78 -15.5t84.5 15.5t73 51.5t60 95t44.5 146z" />
    <glyph glyph-name="Odieresis" unicode="&#xd6;" horiz-adv-x="677" 
d="M336 862l10 2t11.5 1.5t16.5 0.5q9 0 15.5 -0.5t11.5 -1.5t9 -2l-14 -66l-10 -2t-12 -1.5t-16 -0.5q-10 0 -16 0.5t-11 1.5t-9 2zM494 862l10 2t11.5 1.5t16.5 0.5q9 0 15.5 -0.5t11.5 -1.5t9 -2l-14 -66l-10 -2t-12 -1.5t-16 -0.5q-10 0 -16 0.5t-11 1.5t-9 2zM79 373
q20 97 52.5 164.5t76.5 110.5t98.5 62.5t118.5 19.5t110 -23.5t72 -71.5t30 -120.5t-16 -169.5t-52.5 -164.5t-76.5 -110t-99 -61.5t-119 -19q-128 0 -181.5 94.5t-13.5 288.5zM546 360q19 87 17.5 146t-19.5 95t-51 51.5t-78 15.5t-84.5 -15.5t-73 -51.5t-60 -95
t-45.5 -146q-18 -87 -16.5 -146t19.5 -95t51 -51.5t78 -15.5t84.5 15.5t73 51.5t60 95t44.5 146z" />
    <glyph glyph-name="Ograve" unicode="&#xd2;" horiz-adv-x="677" 
d="M511 784q-8 -11 -20.5 -16t-26.5 -7l-90 131q11 13 31 21.5t38 6.5zM79 373q20 97 52.5 164.5t76.5 110.5t98.5 62.5t118.5 19.5t110 -23.5t72 -71.5t30 -120.5t-16 -169.5t-52.5 -164.5t-76.5 -110t-99 -61.5t-119 -19q-128 0 -181.5 94.5t-13.5 288.5zM546 360
q19 87 17.5 146t-19.5 95t-51 51.5t-78 15.5t-84.5 -15.5t-73 -51.5t-60 -95t-45.5 -146q-18 -87 -16.5 -146t19.5 -95t51 -51.5t78 -15.5t84.5 15.5t73 51.5t60 95t44.5 146z" />
    <glyph glyph-name="Ohungarumlaut" unicode="&#x150;" horiz-adv-x="677" 
d="M439 917q20 2 36.5 -6t23.5 -22l-140 -128q-30 5 -37 23zM591 917q20 2 36.5 -6t22.5 -22l-140 -128q-29 5 -37 23zM79 373q20 97 52.5 164.5t76.5 110.5t98.5 62.5t118.5 19.5t110 -23.5t72 -71.5t30 -120.5t-16 -169.5t-52.5 -164.5t-76.5 -110t-99 -61.5t-119 -19
q-128 0 -181.5 94.5t-13.5 288.5zM546 360q19 87 17.5 146t-19.5 95t-51 51.5t-78 15.5t-84.5 -15.5t-73 -51.5t-60 -95t-45.5 -146q-18 -87 -16.5 -146t19.5 -95t51 -51.5t78 -15.5t84.5 15.5t73 51.5t60 95t44.5 146z" />
    <glyph glyph-name="Omacron" unicode="&#x14c;" horiz-adv-x="677" 
d="M591 850q2 -11 -2 -24.5t-9 -24.5h-275q-3 24 11 49h275zM79 373q20 97 52.5 164.5t76.5 110.5t98.5 62.5t118.5 19.5t110 -23.5t72 -71.5t30 -120.5t-16 -169.5t-52.5 -164.5t-76.5 -110t-99 -61.5t-119 -19q-128 0 -181.5 94.5t-13.5 288.5zM546 360q19 87 17.5 146
t-19.5 95t-51 51.5t-78 15.5t-84.5 -15.5t-73 -51.5t-60 -95t-45.5 -146q-18 -87 -16.5 -146t19.5 -95t51 -51.5t78 -15.5t84.5 15.5t73 51.5t60 95t44.5 146z" />
    <glyph glyph-name="Omega" unicode="&#x2126;" horiz-adv-x="720" 
d="M92 380q19 92 53.5 158.5t80.5 109t102.5 62.5t120.5 20t112 -20t76 -62.5t34 -109t-13 -158.5q-14 -65 -42.5 -118t-60 -93t-59.5 -66t-40 -38h148q1 -8 1.5 -16t-1.5 -16q-4 -17 -14 -33h-235q-4 15 -0.5 33t14.5 34q22 16 52.5 43t61.5 66t57 90t40 114
q16 78 13 132.5t-22.5 89t-54 50.5t-80.5 16q-47 0 -88 -16t-75 -50.5t-60.5 -89t-42.5 -132.5q-14 -63 -9 -114t19 -90t33 -66t34 -43q8 -32 -14 -67h-235q-2 8 -2 16t2 16q3 17 14 33h147l-24.5 38t-30.5 66t-20 93t8 118z" />
    <glyph glyph-name="Oslash" unicode="&#xd8;" horiz-adv-x="676" 
d="M599 646q31 -48 37 -122.5t-16 -178.5q-20 -97 -52.5 -164.5t-76.5 -110t-99 -61.5t-119 -19q-98 0 -151 53l-69 -89q-31 3 -48 26l85 108q-25 48 -28.5 118.5t16.5 166.5q20 97 52.5 164.5t76.5 110.5t98.5 62.5t118.5 19.5q89 0 140 -44l62 79q15 -2 27.5 -9t20.5 -17z
M414 668q-45 0 -84.5 -15.5t-73 -51.5t-60 -95t-45.5 -146q-15 -70 -17 -121.5t8 -88.5l378 483q-19 18 -46 26.5t-60 8.5zM283 52q45 0 84.5 15.5t73 51.5t60 95t44.5 146q17 78 18 133t-13 92l-383 -487q20 -25 49 -35.5t67 -10.5z" />
    <glyph glyph-name="Oslashacute" unicode="&#x1fe;" horiz-adv-x="676" 
d="M420 769q-31 3 -38 24l134 144q19 2 36 -6.5t23 -22.5zM599 646q31 -48 37 -122.5t-16 -178.5q-20 -97 -52.5 -164.5t-76.5 -110t-99 -61.5t-119 -19q-98 0 -151 53l-69 -89q-31 3 -48 26l85 108q-25 48 -28.5 118.5t16.5 166.5q20 97 52.5 164.5t76.5 110.5t98.5 62.5
t118.5 19.5q89 0 140 -44l62 79q15 -2 27.5 -9t20.5 -17zM414 668q-45 0 -84.5 -15.5t-73 -51.5t-60 -95t-45.5 -146q-15 -70 -17 -121.5t8 -88.5l378 483q-19 18 -46 26.5t-60 8.5zM283 52q45 0 84.5 15.5t73 51.5t60 95t44.5 146q17 78 18 133t-13 92l-383 -487
q20 -25 49 -35.5t67 -10.5z" />
    <glyph glyph-name="Otilde" unicode="&#xd5;" horiz-adv-x="677" 
d="M501 840q11 0 20 5t16 10q8 6 14 14q21 -8 23 -33q-7 -12 -18 -23q-9 -9 -24 -16.5t-36 -8.5q-19 -1 -33.5 4t-27.5 11t-26 11t-28 5q-11 -1 -20.5 -5.5t-16.5 -9.5q-8 -6 -14 -14q-19 11 -22 33q7 12 18 23q9 8 23.5 15.5t36.5 8.5q21 1 35.5 -4t27.5 -11t25 -10.5
t27 -4.5zM79 373q20 97 52.5 164.5t76.5 110.5t98.5 62.5t118.5 19.5t110 -23.5t72 -71.5t30 -120.5t-16 -169.5t-52.5 -164.5t-76.5 -110t-99 -61.5t-119 -19q-128 0 -181.5 94.5t-13.5 288.5zM546 360q19 87 17.5 146t-19.5 95t-51 51.5t-78 15.5t-84.5 -15.5t-73 -51.5
t-60 -95t-45.5 -146q-18 -87 -16.5 -146t19.5 -95t51 -51.5t78 -15.5t84.5 15.5t73 51.5t60 95t44.5 146z" />
    <glyph glyph-name="P" unicode="P" horiz-adv-x="602" 
d="M108 6q-5 -2 -10 -3q-9 -3 -27 -3q-20 0 -29 3q-5 1 -8 3l152 714h253q48 0 82 -18t54 -49.5t25 -73.5t-5 -90q-20 -96 -85 -146.5t-162 -50.5h-179zM355 356q66 0 109.5 40t57.5 109q15 72 -11 112t-92 40h-172l-64 -301h172z" />
    <glyph glyph-name="Q" unicode="Q" horiz-adv-x="677" 
d="M425 730q64 0 110 -23.5t72 -71.5t30 -120.5t-16 -169.5q-23 -114 -63.5 -187t-96.5 -113q23 -25 53 -40.5t60 -22.5q-7 -20 -21.5 -37.5t-33.5 -25.5q-36 12 -67 37t-48 57q-58 -23 -130 -23q-128 0 -181.5 94.5t-13.5 288.5q20 97 52.5 164.5t76.5 110.5t98.5 62.5
t118.5 19.5zM415 668q-45 0 -84.5 -15.5t-73 -51.5t-60 -95t-45.5 -146q-18 -87 -16.5 -146t19.5 -95t51 -51.5t78 -15.5t84.5 15.5t73 51.5t60 95t44.5 146q19 87 17.5 146t-19.5 95t-51 51.5t-78 15.5z" />
    <glyph glyph-name="R" unicode="R" horiz-adv-x="626" 
d="M434 720q48 0 83 -17t55.5 -46t26.5 -69t-4 -86q-16 -76 -63.5 -121.5t-119.5 -62.5l106 -312q-6 -2 -12 -3q-12 -3 -32 -3q-22 0 -29 3q-5 1 -7 3l-99 304h-166l-65 -304q-5 -2 -10 -3q-9 -3 -27 -3q-20 0 -29 3q-5 1 -8 3l152 714h248zM353 373q64 0 108 37t58 105
q14 67 -13.5 104.5t-91.5 37.5h-167l-61 -284h167z" />
    <glyph glyph-name="Racute" unicode="&#x154;" horiz-adv-x="626" 
d="M454 924q20 2 36.5 -6.5t21.5 -22.5l-154 -139q-31 3 -38 24zM434 720q48 0 83 -17t55.5 -46t26.5 -69t-4 -86q-16 -76 -63.5 -121.5t-119.5 -62.5l106 -312q-6 -2 -12 -3q-12 -3 -32 -3q-22 0 -29 3q-5 1 -7 3l-99 304h-166l-65 -304q-5 -2 -10 -3q-9 -3 -27 -3
q-20 0 -29 3q-5 1 -8 3l152 714h248zM353 373q64 0 108 37t58 105q14 67 -13.5 104.5t-91.5 37.5h-167l-61 -284h167z" />
    <glyph glyph-name="Rcaron" unicode="&#x158;" horiz-adv-x="626" 
d="M530 905q11 -4 17.5 -13t9.5 -21l-148 -108h-26l-116 108q15 26 42 35l95 -79zM434 720q48 0 83 -17t55.5 -46t26.5 -69t-4 -86q-16 -76 -63.5 -121.5t-119.5 -62.5l106 -312q-6 -2 -12 -3q-12 -3 -32 -3q-22 0 -29 3q-5 1 -7 3l-99 304h-166l-65 -304q-5 -2 -10 -3
q-9 -3 -27 -3q-20 0 -29 3q-5 1 -8 3l152 714h248zM353 373q64 0 108 37t58 105q14 67 -13.5 104.5t-91.5 37.5h-167l-61 -284h167z" />
    <glyph glyph-name="Rcommaaccent" unicode="&#x156;" horiz-adv-x="626" 
d="M207 -45q5 1 11 2q5 1 12.5 2t17.5 1t17.5 -1t12.5 -2q6 -1 10 -2l-10 -50q-8 -35 -23.5 -61t-30.5 -44q-18 -21 -38 -36l-24 20q10 10 21 24q9 12 18 29t16 40q-7 0 -11.5 1t-7.5 2q-4 1 -6 2zM434 720q48 0 83 -17t55.5 -46t26.5 -69t-4 -86q-16 -76 -63.5 -121.5
t-119.5 -62.5l106 -312q-6 -2 -12 -3q-12 -3 -32 -3q-22 0 -29 3q-5 1 -7 3l-99 304h-166l-65 -304q-5 -2 -10 -3q-9 -3 -27 -3q-20 0 -29 3q-5 1 -8 3l152 714h248zM353 373q64 0 108 37t58 105q14 67 -13.5 104.5t-91.5 37.5h-167l-61 -284h167z" />
    <glyph glyph-name="S" unicode="S" horiz-adv-x="567" 
d="M113 547q19 91 88 137t187 46q43 0 77.5 -4.5t57.5 -9.5q27 -6 48 -13q-6 -34 -32 -58q-19 6 -44 10q-21 4 -49.5 7.5t-60.5 3.5q-88 0 -138 -34.5t-63 -96.5q-8 -34 1.5 -56.5t31 -38t52 -26.5t65.5 -22q34 -11 66.5 -27t55.5 -41t32.5 -60.5t-0.5 -86.5
q-20 -97 -93.5 -142t-191.5 -45q-48 0 -85 6t-63 14q-30 9 -53 20q4 15 12 31t20 28q25 -9 54 -16q25 -6 57 -10.5t67 -4.5q85 0 136.5 33.5t65.5 99.5q7 33 0 55.5t-24 38.5t-41.5 26.5t-52.5 19.5q-37 12 -74.5 27t-65.5 39t-41.5 60t-1.5 90z" />
    <glyph glyph-name="Sacute" unicode="&#x15a;" horiz-adv-x="567" 
d="M379 768q-14 2 -23.5 8.5t-12.5 17.5l130 135q20 1 36 -8.5t21 -23.5zM113 547q19 91 88 137t187 46q43 0 77.5 -4.5t57.5 -9.5q27 -6 48 -13q-6 -34 -32 -58q-19 6 -44 10q-21 4 -49.5 7.5t-60.5 3.5q-88 0 -138 -34.5t-63 -96.5q-8 -34 1.5 -56.5t31 -38t52 -26.5
t65.5 -22q34 -11 66.5 -27t55.5 -41t32.5 -60.5t-0.5 -86.5q-20 -97 -93.5 -142t-191.5 -45q-48 0 -85 6t-63 14q-30 9 -53 20q4 15 12 31t20 28q25 -9 54 -16q25 -6 57 -10.5t67 -4.5q85 0 136.5 33.5t65.5 99.5q7 33 0 55.5t-24 38.5t-41.5 26.5t-52.5 19.5
q-37 12 -74.5 27t-65.5 39t-41.5 60t-1.5 90z" />
    <glyph glyph-name="Scaron" unicode="&#x160;" horiz-adv-x="567" 
d="M277 879q16 28 42 35l94 -79l127 78q11 -3 18 -12.5t9 -21.5l-149 -105h-26zM113 547q19 91 88 137t187 46q43 0 77.5 -4.5t57.5 -9.5q27 -6 48 -13q-6 -34 -32 -58q-19 6 -44 10q-21 4 -49.5 7.5t-60.5 3.5q-88 0 -138 -34.5t-63 -96.5q-8 -34 1.5 -56.5t31 -38
t52 -26.5t65.5 -22q34 -11 66.5 -27t55.5 -41t32.5 -60.5t-0.5 -86.5q-20 -97 -93.5 -142t-191.5 -45q-48 0 -85 6t-63 14q-30 9 -53 20q4 15 12 31t20 28q25 -9 54 -16q25 -6 57 -10.5t67 -4.5q85 0 136.5 33.5t65.5 99.5q7 33 0 55.5t-24 38.5t-41.5 26.5t-52.5 19.5
q-37 12 -74.5 27t-65.5 39t-41.5 60t-1.5 90z" />
    <glyph glyph-name="Scedilla" unicode="&#x15e;" horiz-adv-x="567" 
d="M113 547q19 91 88 137t187 46q43 0 77.5 -4.5t57.5 -9.5q27 -6 48 -13q-6 -34 -32 -58q-19 6 -44 10q-21 4 -49.5 7.5t-60.5 3.5q-88 0 -138 -34.5t-63 -96.5q-8 -34 1.5 -56.5t31 -38t52 -26.5t65.5 -22q34 -11 66.5 -27t55.5 -41t32.5 -60.5t-0.5 -86.5
q-19 -91 -85.5 -136t-173.5 -50l-21 -50q58 0 80 -27t13 -69q-11 -50 -48.5 -72.5t-94.5 -22.5q-21 0 -36.5 3t-26.5 8q-12 5 -22 12q2 11 9 20.5t15 14.5l23 -9t44 -7q32 0 53.5 13.5t27.5 44.5q11 52 -51 52h-35l-7 12l32 76q-44 2 -77.5 7.5t-56.5 13.5q-27 8 -48 19
q4 15 12 31t20 28q25 -9 54 -16q25 -6 57 -10.5t67 -4.5q85 0 136.5 33.5t65.5 99.5q7 33 0 55.5t-24 38.5t-41.5 26.5t-52.5 19.5q-37 12 -74.5 27t-65.5 39t-41.5 60t-1.5 90z" />
    <glyph glyph-name="Scircumflex" unicode="&#x15c;" horiz-adv-x="567" 
d="M545 804q-8 -12 -18.5 -21.5t-22.5 -13.5l-95 79l-127 -79q-23 10 -27 35l151 105h26zM113 547q19 91 88 137t187 46q43 0 77.5 -4.5t57.5 -9.5q27 -6 48 -13q-6 -34 -32 -58q-19 6 -44 10q-21 4 -49.5 7.5t-60.5 3.5q-88 0 -138 -34.5t-63 -96.5q-8 -34 1.5 -56.5
t31 -38t52 -26.5t65.5 -22q34 -11 66.5 -27t55.5 -41t32.5 -60.5t-0.5 -86.5q-20 -97 -93.5 -142t-191.5 -45q-48 0 -85 6t-63 14q-30 9 -53 20q4 15 12 31t20 28q25 -9 54 -16q25 -6 57 -10.5t67 -4.5q85 0 136.5 33.5t65.5 99.5q7 33 0 55.5t-24 38.5t-41.5 26.5
t-52.5 19.5q-37 12 -74.5 27t-65.5 39t-41.5 60t-1.5 90z" />
    <glyph glyph-name="Scommaaccent" unicode="&#x218;" horiz-adv-x="567" 
d="M123 -227q10 9 21 23q8 11 17.5 28.5t15.5 40.5q-7 0 -12 1t-8 2q-4 1 -6 2l16 73q5 1 11 2q5 1 12.5 2t18.5 1q10 0 17.5 -1t12.5 -2t9 -2l-11 -50q-8 -35 -23 -61.5t-30 -43.5q-18 -21 -38 -35zM113 547q19 91 88 137t187 46q43 0 77.5 -4.5t57.5 -9.5q27 -6 48 -13
q-6 -34 -32 -58q-19 6 -44 10q-21 4 -49.5 7.5t-60.5 3.5q-88 0 -138 -34.5t-63 -96.5q-8 -34 1.5 -56.5t31 -38t52 -26.5t65.5 -22q34 -11 66.5 -27t55.5 -41t32.5 -60.5t-0.5 -86.5q-20 -97 -93.5 -142t-191.5 -45q-48 0 -85 6t-63 14q-30 9 -53 20q4 15 12 31t20 28
q25 -9 54 -16q25 -6 57 -10.5t67 -4.5q85 0 136.5 33.5t65.5 99.5q7 33 0 55.5t-24 38.5t-41.5 26.5t-52.5 19.5q-37 12 -74.5 27t-65.5 39t-41.5 60t-1.5 90z" />
    <glyph glyph-name="T" unicode="T" horiz-adv-x="532" 
d="M588 720q1 -5 1 -9v-10t-2 -13q-3 -13 -8 -24q-3 -5 -5 -9h-195l-138 -649q-5 -2 -10 -3q-11 -3 -28 -3q-19 0 -28 3q-5 1 -8 3l138 649h-200q-1 4 -1 9v10.5t2 13.5q3 13 8 23q3 5 5 9h469z" />
    <glyph glyph-name="Tbar" unicode="&#x166;" horiz-adv-x="548" 
d="M455 368q2 -11 -1.5 -24t-8.5 -25h-131l-67 -313q-5 -2 -10 -3q-11 -3 -28 -3q-19 0 -28 3q-5 1 -8 3l67 313h-124q-1 24 10 49h124l61 287h-200q-1 4 -1 9v10.5t2 13.5q3 13 8 23q3 5 5 9h469q1 -5 1 -9v-10t-2 -13q-3 -13 -8 -24q-3 -5 -5 -9h-195l-61 -287h131z" />
    <glyph glyph-name="Tcaron" unicode="&#x164;" horiz-adv-x="532" 
d="M226 871q15 26 42 35l95 -79l126 78q11 -4 17.5 -13t9.5 -21l-148 -108h-26zM588 720q1 -5 1 -9v-10t-2 -13q-3 -13 -8 -24q-3 -5 -5 -9h-195l-138 -649q-5 -2 -10 -3q-11 -3 -28 -3q-19 0 -28 3q-5 1 -8 3l138 649h-200q-1 4 -1 9v10.5t2 13.5q3 13 8 23q3 5 5 9h469z
" />
    <glyph glyph-name="Thorn" unicode="&#xde;" horiz-adv-x="604" 
d="M194 717q5 1 12 2t17 1t16.5 -1t11.5 -2q5 -2 8 -3l-29 -135h179q48 0 82.5 -17t54.5 -47t25.5 -70.5t-4.5 -87.5q-20 -94 -84.5 -143.5t-161.5 -49.5h-179l-34 -158q-5 -2 -10 -3q-9 -3 -28 -3t-28 3q-5 1 -8 3l151 708zM155 227h172q66 0 109.5 38t57.5 105
q14 69 -12.5 107.5t-92.5 38.5h-172z" />
    <glyph glyph-name="U" unicode="U" horiz-adv-x="672" 
d="M565 235q-25 -118 -100.5 -181.5t-185.5 -63.5q-55 0 -98 16.5t-70 48t-36 77t3 103.5l102 479q4 1 10 3q5 1 12 2t16 1t15.5 -1t11.5 -2l9 -3l-104 -490q-17 -81 18 -126t116 -45t135 45t71 126l104 490l9 3q5 1 12 2t16 1t15.5 -1t11.5 -2l9 -3z" />
    <glyph glyph-name="Uacute" unicode="&#xda;" horiz-adv-x="672" 
d="M410 756q-31 3 -38 24l134 144q20 2 36.5 -6.5t21.5 -22.5zM565 235q-25 -118 -100.5 -181.5t-185.5 -63.5q-55 0 -98 16.5t-70 48t-36 77t3 103.5l102 479q4 1 10 3q5 1 12 2t16 1t15.5 -1t11.5 -2l9 -3l-104 -490q-17 -81 18 -126t116 -45t135 45t71 126l104 490l9 3
q5 1 12 2t16 1t15.5 -1t11.5 -2l9 -3z" />
    <glyph glyph-name="Ubreve" unicode="&#x16c;" horiz-adv-x="672" 
d="M595 837q-17 -16 -40 -28q-20 -11 -47.5 -19.5t-63.5 -8.5q-37 0 -63.5 8.5t-43.5 19.5q-20 12 -34 28q13 26 41 35q11 -10 27 -18q14 -7 33.5 -12.5t45.5 -5.5t47.5 5.5t37.5 12.5q18 8 34 18q24 -8 26 -35zM565 235q-25 -118 -100.5 -181.5t-185.5 -63.5
q-55 0 -98 16.5t-70 48t-36 77t3 103.5l102 479q4 1 10 3q5 1 12 2t16 1t15.5 -1t11.5 -2l9 -3l-104 -490q-17 -81 18 -126t116 -45t135 45t71 126l104 490l9 3q5 1 12 2t16 1t15.5 -1t11.5 -2l9 -3z" />
    <glyph glyph-name="Ucircumflex" unicode="&#xdb;" horiz-adv-x="672" 
d="M592 798q-8 -12 -18.5 -21.5t-23.5 -13.5l-95 79l-127 -79q-23 9 -26 35l149 108h26zM565 235q-25 -118 -100.5 -181.5t-185.5 -63.5q-55 0 -98 16.5t-70 48t-36 77t3 103.5l102 479q4 1 10 3q5 1 12 2t16 1t15.5 -1t11.5 -2l9 -3l-104 -490q-17 -81 18 -126t116 -45
t135 45t71 126l104 490l9 3q5 1 12 2t16 1t15.5 -1t11.5 -2l9 -3z" />
    <glyph glyph-name="Udieresis" unicode="&#xdc;" horiz-adv-x="672" 
d="M394 788q-5 -2 -10 -3t-11.5 -1.5t-15.5 -0.5q-10 0 -16 0.5t-11 1.5t-9 3l14 65l10 2t11.5 2t16.5 1q9 0 15 -1t11 -2t9 -2zM552 788q-5 -2 -10 -3t-11.5 -1.5t-15.5 -0.5q-10 0 -16 0.5t-11 1.5t-9 3l14 65l10 2t11.5 2t16.5 1q9 0 15 -1t11 -2t9 -2zM565 235
q-25 -118 -100.5 -181.5t-185.5 -63.5q-55 0 -98 16.5t-70 48t-36 77t3 103.5l102 479q4 1 10 3q5 1 12 2t16 1t15.5 -1t11.5 -2l9 -3l-104 -490q-17 -81 18 -126t116 -45t135 45t71 126l104 490l9 3q5 1 12 2t16 1t15.5 -1t11.5 -2l9 -3z" />
    <glyph glyph-name="Ugrave" unicode="&#xd9;" horiz-adv-x="672" 
d="M334 893q11 13 31.5 22t38.5 7l69 -138q-8 -10 -21 -16t-27 -8zM565 235q-25 -118 -100.5 -181.5t-185.5 -63.5q-55 0 -98 16.5t-70 48t-36 77t3 103.5l102 479q4 1 10 3q5 1 12 2t16 1t15.5 -1t11.5 -2l9 -3l-104 -490q-17 -81 18 -126t116 -45t135 45t71 126l104 490
l9 3q5 1 12 2t16 1t15.5 -1t11.5 -2l9 -3z" />
    <glyph glyph-name="Uhungarumlaut" unicode="&#x170;" horiz-adv-x="672" 
d="M360 760q-29 3 -38 23l122 136q20 2 37 -6t23 -22zM513 760q-29 3 -38 23l122 136q20 2 37 -6t23 -22zM565 235q-25 -118 -100.5 -181.5t-185.5 -63.5q-55 0 -98 16.5t-70 48t-36 77t3 103.5l102 479q4 1 10 3q5 1 12 2t16 1t15.5 -1t11.5 -2l9 -3l-104 -490
q-17 -81 18 -126t116 -45t135 45t71 126l104 490l9 3q5 1 12 2t16 1t15.5 -1t11.5 -2l9 -3z" />
    <glyph glyph-name="Umacron" unicode="&#x16a;" horiz-adv-x="672" 
d="M300 810q-5 25 10 49h283q2 -11 -1 -24.5t-9 -24.5h-283zM565 235q-25 -118 -100.5 -181.5t-185.5 -63.5q-55 0 -98 16.5t-70 48t-36 77t3 103.5l102 479q4 1 10 3q5 1 12 2t16 1t15.5 -1t11.5 -2l9 -3l-104 -490q-17 -81 18 -126t116 -45t135 45t71 126l104 490l9 3
q5 1 12 2t16 1t15.5 -1t11.5 -2l9 -3z" />
    <glyph glyph-name="Uogonek" unicode="&#x172;" horiz-adv-x="672" 
d="M565 235q-15 -72 -49 -123t-83 -81q-34 -26 -62.5 -54t-48.5 -54.5t-30 -49.5t-8 -39q2 -13 11.5 -19t20.5 -6q13 0 26.5 4t24.5 9q8 -8 11 -22t1 -28q-38 -22 -88 -22q-32 0 -52.5 14.5t-23.5 44.5q-5 39 23.5 88t78.5 95q-9 -1 -18.5 -1.5t-19.5 -0.5q-55 0 -98 16.5
t-70 48t-36 77t3 103.5l102 479q4 1 10 3q5 1 12 2t16 1t15.5 -1t11.5 -2l9 -3l-104 -490q-17 -81 18 -126t116 -45t135 45t71 126l104 490l9 3q5 1 12 2t16 1t15.5 -1t11.5 -2l9 -3z" />
    <glyph glyph-name="Uring" unicode="&#x16e;" horiz-adv-x="672" 
d="M441 765q-50 0 -79.5 28.5t-18.5 81.5q6 27 19 47t31.5 33.5t40 20t44.5 6.5q22 0 42.5 -6.5t35 -20t21.5 -33.5t1 -47q-11 -54 -49.5 -82t-87.5 -28zM530 875q5 26 -8 46t-49 20q-35 0 -56.5 -20.5t-26.5 -45.5q-5 -26 7.5 -46.5t47.5 -20.5q36 0 58 21t27 46zM565 235
q-25 -118 -100.5 -181.5t-185.5 -63.5q-55 0 -98 16.5t-70 48t-36 77t3 103.5l102 479q4 1 10 3q5 1 12 2t16 1t15.5 -1t11.5 -2l9 -3l-104 -490q-17 -81 18 -126t116 -45t135 45t71 126l104 490l9 3q5 1 12 2t16 1t15.5 -1t11.5 -2l9 -3z" />
    <glyph glyph-name="Utilde" unicode="&#x168;" horiz-adv-x="672" 
d="M501 846q11 0 20 4t16 9q8 6 14 14q11 -5 16.5 -13.5t6.5 -19.5q-7 -12 -18 -22q-10 -8 -25 -14.5t-36 -6.5q-19 0 -33.5 5.5t-27 11.5l-24.5 11.5t-27 5.5q-11 0 -20.5 -4.5t-16.5 -9.5q-8 -6 -14 -14q-21 11 -23 32q8 12 19 22q10 8 25 15.5t37 7.5q20 0 34.5 -5.5
t26.5 -11.5l23.5 -11.5t26.5 -5.5zM565 235q-25 -118 -100.5 -181.5t-185.5 -63.5q-55 0 -98 16.5t-70 48t-36 77t3 103.5l102 479q4 1 10 3q5 1 12 2t16 1t15.5 -1t11.5 -2l9 -3l-104 -490q-17 -81 18 -126t116 -45t135 45t71 126l104 490l9 3q5 1 12 2t16 1t15.5 -1
t11.5 -2l9 -3z" />
    <glyph glyph-name="V" unicode="V" horiz-adv-x="623" 
d="M255 181q4 -41 6 -66q1 -15 0 -27h3q4 12 11 27q5 13 14 29.5l20 36.5l303 533l9 3q5 1 12.5 2t18.5 1q9 0 16 -1t12 -2l9 -3l-401 -709q-6 -2 -12 -3q-5 -1 -12.5 -1.5t-16.5 -0.5q-10 0 -17 0.5t-12 1.5q-6 1 -11 3l-98 708q4 1 10 3q5 2 12.5 3t18.5 1q8 0 13 -1t9 -2
q4 -2 8 -3z" />
    <glyph glyph-name="W" unicode="W" horiz-adv-x="955" 
d="M552 512q-3 59 0 90q1 18 4 31h-3q-3 -13 -9 -31q-11 -32 -39 -90l-252 -506q-7 -2 -19.5 -4t-25.5 -2q-14 0 -24 2t-16 4l-54 708q5 1 10 3q5 1 11.5 2t16.5 1t16.5 -1t10.5 -2q4 -2 7 -3l39 -511q2 -23 2 -44v-37q0 -18 -1 -35h3q5 17 12 35q6 16 15 36.5l20 43.5
l256 512l9 3q5 1 12 2t17 1t17 -1t12 -2q5 -2 8 -3l30 -511q2 -24 1 -45t-2 -37q-2 -18 -3 -34h3q5 15 13 33q6 16 15.5 36.5l21.5 45.5l253 512q5 1 11 3q5 1 12.5 2t15.5 1t14 -1t11 -2l9 -3l-351 -708q-5 -2 -11 -3q-11 -3 -30 -3q-20 0 -30 3q-6 1 -11 3z" />
    <glyph glyph-name="Wacute" unicode="&#x1e82;" horiz-adv-x="955" 
d="M546 760q-31 5 -38 24l129 140q20 2 36.5 -6.5t21.5 -22.5zM552 512q-3 59 0 90q1 18 4 31h-3q-3 -13 -9 -31q-11 -32 -39 -90l-252 -506q-7 -2 -19.5 -4t-25.5 -2q-14 0 -24 2t-16 4l-54 708q5 1 10 3q5 1 11.5 2t16.5 1t16.5 -1t10.5 -2q4 -2 7 -3l39 -511q2 -23 2 -44
v-37q0 -18 -1 -35h3q5 17 12 35q6 16 15 36.5l20 43.5l256 512l9 3q5 1 12 2t17 1t17 -1t12 -2q5 -2 8 -3l30 -511q2 -24 1 -45t-2 -37q-2 -18 -3 -34h3q5 15 13 33q6 16 15.5 36.5l21.5 45.5l253 512q5 1 11 3q5 1 12.5 2t15.5 1t14 -1t11 -2l9 -3l-351 -708q-5 -2 -11 -3
q-11 -3 -30 -3q-20 0 -30 3q-6 1 -11 3z" />
    <glyph glyph-name="Wcircumflex" unicode="&#x174;" horiz-adv-x="955" 
d="M732 798q-8 -12 -19 -21.5t-23 -13.5l-95 79l-127 -79q-23 9 -26 35l149 106h26zM552 512q-3 59 0 90q1 18 4 31h-3q-3 -13 -9 -31q-11 -32 -39 -90l-252 -506q-7 -2 -19.5 -4t-25.5 -2q-14 0 -24 2t-16 4l-54 708q5 1 10 3q5 1 11.5 2t16.5 1t16.5 -1t10.5 -2q4 -2 7 -3
l39 -511q2 -23 2 -44v-37q0 -18 -1 -35h3q5 17 12 35q6 16 15 36.5l20 43.5l256 512l9 3q5 1 12 2t17 1t17 -1t12 -2q5 -2 8 -3l30 -511q2 -24 1 -45t-2 -37q-2 -18 -3 -34h3q5 15 13 33q6 16 15.5 36.5l21.5 45.5l253 512q5 1 11 3q5 1 12.5 2t15.5 1t14 -1t11 -2l9 -3
l-351 -708q-5 -2 -11 -3q-11 -3 -30 -3q-20 0 -30 3q-6 1 -11 3z" />
    <glyph glyph-name="Wdieresis" unicode="&#x1e84;" horiz-adv-x="955" 
d="M540 799l-10 -2t-11.5 -1.5t-15.5 -0.5q-10 0 -16 0.5t-11 1.5t-9 2l14 66l10 2t11.5 1.5t16.5 0.5q9 0 15 -0.5t11 -1.5t9 -2zM698 799l-10 -2t-11.5 -1.5t-15.5 -0.5q-10 0 -16 0.5t-11 1.5t-9 2l14 66l10 2t11.5 1.5t16.5 0.5q9 0 15 -0.5t11 -1.5t9 -2zM552 512
q-3 59 0 90q1 18 4 31h-3q-3 -13 -9 -31q-11 -32 -39 -90l-252 -506q-7 -2 -19.5 -4t-25.5 -2q-14 0 -24 2t-16 4l-54 708q5 1 10 3q5 1 11.5 2t16.5 1t16.5 -1t10.5 -2q4 -2 7 -3l39 -511q2 -23 2 -44v-37q0 -18 -1 -35h3q5 17 12 35q6 16 15 36.5l20 43.5l256 512l9 3
q5 1 12 2t17 1t17 -1t12 -2q5 -2 8 -3l30 -511q2 -24 1 -45t-2 -37q-2 -18 -3 -34h3q5 15 13 33q6 16 15.5 36.5l21.5 45.5l253 512q5 1 11 3q5 1 12.5 2t15.5 1t14 -1t11 -2l9 -3l-351 -708q-5 -2 -11 -3q-11 -3 -30 -3q-20 0 -30 3q-6 1 -11 3z" />
    <glyph glyph-name="Wgrave" unicode="&#x1e80;" horiz-adv-x="955" 
d="M487 893q11 13 31.5 22t38.5 7l69 -139q-16 -21 -48 -24zM552 512q-3 59 0 90q1 18 4 31h-3q-3 -13 -9 -31q-11 -32 -39 -90l-252 -506q-7 -2 -19.5 -4t-25.5 -2q-14 0 -24 2t-16 4l-54 708q5 1 10 3q5 1 11.5 2t16.5 1t16.5 -1t10.5 -2q4 -2 7 -3l39 -511q2 -23 2 -44
v-37q0 -18 -1 -35h3q5 17 12 35q6 16 15 36.5l20 43.5l256 512l9 3q5 1 12 2t17 1t17 -1t12 -2q5 -2 8 -3l30 -511q2 -24 1 -45t-2 -37q-2 -18 -3 -34h3q5 15 13 33q6 16 15.5 36.5l21.5 45.5l253 512q5 1 11 3q5 1 12.5 2t15.5 1t14 -1t11 -2l9 -3l-351 -708q-5 -2 -11 -3
q-11 -3 -30 -3q-20 0 -30 3q-6 1 -11 3z" />
    <glyph glyph-name="X" unicode="X" horiz-adv-x="609" 
d="M572 714q6 2 20 4t28 2t24 -2t16 -4l-297 -344l159 -363l-12 -4q-12 -3 -32 -3q-21 0 -28 3q-4 1 -7 3l-136 307l-259 -308q-5 -2 -19 -3.5t-28 -1.5t-24.5 1.5t-17.5 3.5l314 372l-147 337l12 3q6 1 14 2t19 1q10 0 16.5 -1t10.5 -2q4 -2 7 -3l125 -281l242 281v0z" />
    <glyph glyph-name="Y" unicode="Y" horiz-adv-x="622" 
d="M602 714q7 1 15 3q7 1 15.5 2t19.5 1q10 0 17.5 -1t12.5 -2q6 -2 11 -3l-347 -411l-63 -297q-5 -2 -10 -3q-9 -3 -27 -3q-19 0 -28 3q-5 1 -9 3l63 295l-164 413l12 3q6 1 14.5 2t19.5 1t17 -1t10 -2l6 -3l135 -335l280 335v0z" />
    <glyph glyph-name="Yacute" unicode="&#xdd;" horiz-adv-x="622" 
d="M480 924q20 2 36.5 -6.5t21.5 -22.5l-154 -139q-31 3 -38 24zM602 714q7 1 15 3q7 1 15.5 2t19.5 1q10 0 17.5 -1t12.5 -2q6 -2 11 -3l-347 -411l-63 -297q-5 -2 -10 -3q-9 -3 -27 -3q-19 0 -28 3q-5 1 -9 3l63 295l-164 413l12 3q6 1 14.5 2t19.5 1t17 -1t10 -2l6 -3
l135 -335z" />
    <glyph glyph-name="Ycircumflex" unicode="&#x176;" horiz-adv-x="622" 
d="M570 798q-8 -12 -18.5 -21.5t-23.5 -13.5l-94 79l-127 -79q-22 8 -27 35l150 107h26zM602 714q7 1 15 3q7 1 15.5 2t19.5 1q10 0 17.5 -1t12.5 -2q6 -2 11 -3l-347 -411l-63 -297q-5 -2 -10 -3q-9 -3 -27 -3q-19 0 -28 3q-5 1 -9 3l63 295l-164 413l12 3q6 1 14.5 2
t19.5 1t17 -1t10 -2l6 -3l135 -335z" />
    <glyph glyph-name="Ydieresis" unicode="&#x178;" horiz-adv-x="622" 
d="M311 866l10 2t11.5 2t16.5 1q9 0 15.5 -1t11.5 -2t9 -2l-13 -65q-5 -2 -11 -3q-5 -1 -12 -1.5t-16 -0.5q-10 0 -16 0.5t-11 1.5t-8 3zM469 866l10 2t11.5 2t16.5 1q9 0 15.5 -1t11.5 -2t9 -2l-13 -65q-5 -2 -11 -3q-5 -1 -12 -1.5t-16 -0.5q-10 0 -16 0.5t-11 1.5t-8 3z
M602 714q7 1 15 3q7 1 15.5 2t19.5 1q10 0 17.5 -1t12.5 -2q6 -2 11 -3l-347 -411l-63 -297q-5 -2 -10 -3q-9 -3 -27 -3q-19 0 -28 3q-5 1 -9 3l63 295l-164 413l12 3q6 1 14.5 2t19.5 1t17 -1t10 -2l6 -3l135 -335z" />
    <glyph glyph-name="Ygrave" unicode="&#x1ef2;" horiz-adv-x="622" 
d="M463 778q-18 -21 -48 -24l-95 139q11 13 31.5 22t38.5 7zM602 714q7 1 15 3q7 1 15.5 2t19.5 1q10 0 17.5 -1t12.5 -2q6 -2 11 -3l-347 -411l-63 -297q-5 -2 -10 -3q-9 -3 -27 -3q-19 0 -28 3q-5 1 -9 3l63 295l-164 413l12 3q6 1 14.5 2t19.5 1t17 -1t10 -2l6 -3
l135 -335z" />
    <glyph glyph-name="Z" unicode="Z" horiz-adv-x="584" 
d="M611 720q3 -10 -1 -32q-2 -11 -6 -20t-7 -14l-521 -588h409q1 -5 0.5 -13t-2.5 -19q-4 -22 -12 -34h-492v14.5t2 19.5t6 19t6 13l519 588h-366v15t2 20t6 18.5t6 12.5h451z" />
    <glyph glyph-name="Zacute" unicode="&#x179;" horiz-adv-x="584" 
d="M469 924q20 2 36.5 -6.5t21.5 -22.5l-147 -133q-30 5 -39 24zM611 720q3 -10 -1 -32q-2 -11 -6 -20t-7 -14l-521 -588h409q1 -5 0.5 -13t-2.5 -19q-4 -22 -12 -34h-492v14.5t2 19.5t6 19t6 13l519 588h-366v15t2 20t6 18.5t6 12.5h451z" />
    <glyph glyph-name="Zcaron" unicode="&#x17d;" horiz-adv-x="584" 
d="M525 911q11 -4 17.5 -13t9.5 -21l-149 -107h-26l-115 107q15 26 42 35l95 -79zM611 720q3 -10 -1 -32q-2 -11 -6 -20t-7 -14l-521 -588h409q1 -5 0.5 -13t-2.5 -19q-4 -22 -12 -34h-492v14.5t2 19.5t6 19t6 13l519 588h-366v15t2 20t6 18.5t6 12.5h451z" />
    <glyph glyph-name="Zdotaccent" unicode="&#x17b;" horiz-adv-x="584" 
d="M373 890q4 1 10 2q5 1 12 1.5t17 0.5q9 0 16 -0.5t12 -1.5t9 -2l-14 -68q-4 -2 -10 -3q-5 -1 -12.5 -1.5t-16.5 -0.5q-10 0 -16.5 0.5t-11.5 1.5t-9 3zM611 720q3 -10 -1 -32q-2 -11 -6 -20t-7 -14l-521 -588h409q1 -5 0.5 -13t-2.5 -19q-4 -22 -12 -34h-492v14.5t2 19.5
t6 19t6 13l519 588h-366v15t2 20t6 18.5t6 12.5h451z" />
    <glyph glyph-name="_0020" horiz-adv-x="0" 
 />
    <glyph glyph-name="_375" horiz-adv-x="646" 
d="M287 715q6 2 16 3.5t23 1.5t22 -1.5t15 -3.5l109 -675q-10 -23 -33 -40h-538q-17 15 -17 39zM301 626q-5 -11 -18.5 -38t-33.5 -62l-278 -464h421l-78 465q-6 32 -7.5 60t-2.5 39h-3z" />
    <glyph glyph-name="_376" horiz-adv-x="700" 
d="M257 0q-4 15 -0.5 33t14.5 34q22 16 52.5 43t61.5 66t57 90t40 114q16 78 13 132.5t-22.5 89t-54 50.5t-80.5 16q-47 0 -88 -16t-75 -50.5t-60.5 -89t-42.5 -132.5q-14 -63 -9 -114t19 -90t33 -66t34 -43q8 -32 -14 -67h-235q-2 8 -2 16t2 16q3 17 14 33h147l-24.5 38
t-30.5 66t-20 93t8 118q19 92 53.5 158.5t80.5 109t102.5 62.5t120.5 20t112 -20t76 -62.5t34 -109t-13 -158.5q-14 -65 -42.5 -118t-60 -93t-59.5 -66t-40 -38h148q1 -8 1.5 -16t-1.5 -16q-4 -17 -14 -33h-235z" />
    <glyph glyph-name="a" unicode="a" horiz-adv-x="554" 
d="M456 521q3 1 7 2t9.5 2t15.5 1q9 0 15 -1t10 -2t7 -2l-110 -516q-5 -2 -9 -3q-5 -1 -10 -1.5t-12 -0.5q-8 0 -13 0.5t-9 1.5t-7 3l7 64q-29 -38 -69 -58.5t-100 -20.5q-46 0 -79 16.5t-51 51.5t-20 89.5t14 131.5q16 76 40 126t55 79t68.5 40.5t81.5 11.5q57 0 91.5 -22
t48.5 -59zM407 328q5 27 1.5 53.5t-16.5 47.5t-35 33.5t-53 12.5q-36 0 -64.5 -11t-50.5 -36t-38.5 -65.5t-28.5 -99.5q-13 -59 -14 -99.5t10.5 -65.5t35 -36t59.5 -11q32 0 59.5 13t49.5 34t36.5 47.5t20.5 54.5z" />
    <glyph glyph-name="aacute" unicode="&#xe1;" horiz-adv-x="554" 
d="M393 756q19 2 33.5 -7.5t20.5 -23.5l-150 -137q-31 3 -38 24zM456 521q3 1 7 2t9.5 2t15.5 1q9 0 15 -1t10 -2t7 -2l-110 -516q-5 -2 -9 -3q-5 -1 -10 -1.5t-12 -0.5q-8 0 -13 0.5t-9 1.5t-7 3l7 64q-29 -38 -69 -58.5t-100 -20.5q-46 0 -79 16.5t-51 51.5t-20 89.5
t14 131.5q16 76 40 126t55 79t68.5 40.5t81.5 11.5q57 0 91.5 -22t48.5 -59zM407 328q5 27 1.5 53.5t-16.5 47.5t-35 33.5t-53 12.5q-36 0 -64.5 -11t-50.5 -36t-38.5 -65.5t-28.5 -99.5q-13 -59 -14 -99.5t10.5 -65.5t35 -36t59.5 -11q32 0 59.5 13t49.5 34t36.5 47.5
t20.5 54.5z" />
    <glyph glyph-name="abreve" unicode="&#x103;" horiz-adv-x="554" 
d="M360 684q25 0 45.5 5.5t36.5 12.5q18 8 33 18q12 -5 17.5 -14t7.5 -21q-16 -17 -38 -29q-19 -11 -45.5 -20t-61.5 -9t-59.5 9t-41.5 20q-19 12 -32 29q6 11 15.5 20.5t23.5 14.5q10 -10 25 -18q12 -7 30.5 -12.5t43.5 -5.5zM456 521q3 1 7 2t9.5 2t15.5 1q9 0 15 -1
t10 -2t7 -2l-110 -516q-5 -2 -9 -3q-5 -1 -10 -1.5t-12 -0.5q-8 0 -13 0.5t-9 1.5t-7 3l7 64q-29 -38 -69 -58.5t-100 -20.5q-46 0 -79 16.5t-51 51.5t-20 89.5t14 131.5q16 76 40 126t55 79t68.5 40.5t81.5 11.5q57 0 91.5 -22t48.5 -59zM407 328q5 27 1.5 53.5t-16.5 47.5
t-35 33.5t-53 12.5q-36 0 -64.5 -11t-50.5 -36t-38.5 -65.5t-28.5 -99.5q-13 -59 -14 -99.5t10.5 -65.5t35 -36t59.5 -11q32 0 59.5 13t49.5 34t36.5 47.5t20.5 54.5z" />
    <glyph glyph-name="acircumflex" unicode="&#xe2;" horiz-adv-x="554" 
d="M490 636q-8 -11 -18 -20.5t-23 -12.5l-89 76l-125 -77q-11 5 -17 13.5t-9 20.5l149 104h25zM456 521q3 1 7 2t9.5 2t15.5 1q9 0 15 -1t10 -2t7 -2l-110 -516q-5 -2 -9 -3q-5 -1 -10 -1.5t-12 -0.5q-8 0 -13 0.5t-9 1.5t-7 3l7 64q-29 -38 -69 -58.5t-100 -20.5
q-46 0 -79 16.5t-51 51.5t-20 89.5t14 131.5q16 76 40 126t55 79t68.5 40.5t81.5 11.5q57 0 91.5 -22t48.5 -59zM407 328q5 27 1.5 53.5t-16.5 47.5t-35 33.5t-53 12.5q-36 0 -64.5 -11t-50.5 -36t-38.5 -65.5t-28.5 -99.5q-13 -59 -14 -99.5t10.5 -65.5t35 -36t59.5 -11
q32 0 59.5 13t49.5 34t36.5 47.5t20.5 54.5z" />
    <glyph glyph-name="acute" unicode="&#xb4;" horiz-adv-x="224" 
d="M52 640q-31 3 -38 24l135 144q19 2 36 -6.5t22 -22.5z" />
    <glyph glyph-name="adieresis" unicode="&#xe4;" horiz-adv-x="554" 
d="M233 704l10 2t11.5 2t16.5 1q9 0 15 -1t11 -2t9 -2l-14 -65q-5 -2 -10 -3t-11.5 -1.5t-15.5 -0.5q-10 0 -16 0.5t-11 1.5t-9 3zM391 704l10 2t11.5 2t16.5 1q9 0 15 -1t11 -2t9 -2l-14 -65q-5 -2 -10 -3t-11.5 -1.5t-15.5 -0.5q-10 0 -16 0.5t-11 1.5t-9 3zM456 521
q3 1 7 2t9.5 2t15.5 1q9 0 15 -1t10 -2t7 -2l-110 -516q-5 -2 -9 -3q-5 -1 -10 -1.5t-12 -0.5q-8 0 -13 0.5t-9 1.5t-7 3l7 64q-29 -38 -69 -58.5t-100 -20.5q-46 0 -79 16.5t-51 51.5t-20 89.5t14 131.5q16 76 40 126t55 79t68.5 40.5t81.5 11.5q57 0 91.5 -22t48.5 -59z
M407 328q5 27 1.5 53.5t-16.5 47.5t-35 33.5t-53 12.5q-36 0 -64.5 -11t-50.5 -36t-38.5 -65.5t-28.5 -99.5q-13 -59 -14 -99.5t10.5 -65.5t35 -36t59.5 -11q32 0 59.5 13t49.5 34t36.5 47.5t20.5 54.5z" />
    <glyph glyph-name="ae" unicode="&#xe6;" horiz-adv-x="790" 
d="M619 536q88 0 119.5 -50.5t11.5 -141.5q-5 -21 -10.5 -38.5t-10.5 -30.5l-11 -27h-291q-17 -103 8 -150t90 -47q27 0 49 5t38 11q18 7 34 16q8 -8 12 -21t2 -28q-17 -12 -41 -22q-20 -8 -49.5 -15t-67.5 -7q-49 0 -75 21t-37 59l-18 -65q-7 -5 -27 -5q-13 0 -21 2
q-4 1 -6 3l7 59q-29 -38 -64.5 -56t-91.5 -18q-36 0 -65.5 16.5t-46.5 51t-20 89t13 131.5q16 76 40.5 126t54.5 79.5t63.5 41t68.5 11.5q57 0 86.5 -19t43.5 -62l19 66q3 1 7 2t9.5 2t15.5 1q6 0 11 -1t8 -2q4 -1 7 -2l-11 -61q30 34 67 55t79 21zM672 302q2 5 4 12
q2 6 4 15.5t5 21.5q5 25 4 48t-10.5 40.5t-28 27.5t-48.5 10q-51 0 -94.5 -39t-69.5 -136h234zM378 320q6 28 3.5 56t-14 50t-31.5 35.5t-48 13.5q-29 0 -54 -11t-46.5 -36t-38.5 -65.5t-29 -99.5q-13 -59 -13 -99.5t10.5 -65.5t31 -36t49.5 -11q32 0 58 13t45.5 34t32 47.5
t18.5 54.5z" />
    <glyph glyph-name="aeacute" unicode="&#x1fd;" horiz-adv-x="791" 
d="M443 573q-30 3 -39 24l135 144q19 2 36 -6.5t23 -22.5zM620 536q88 0 119.5 -50.5t11.5 -141.5q-5 -21 -10.5 -38.5t-10.5 -30.5l-11 -27h-291q-17 -103 8 -150t90 -47q27 0 49 5t38 11q18 7 34 16q8 -8 12 -21t2 -28q-17 -12 -41 -22q-20 -8 -49.5 -15t-67.5 -7
q-49 0 -75 21t-37 59l-18 -65q-7 -5 -27 -5q-13 0 -21 2q-4 1 -6 3l7 59q-29 -38 -64.5 -56t-91.5 -18q-36 0 -65.5 16.5t-46.5 51t-20 89t13 131.5q16 76 40.5 126t54.5 79.5t63.5 41t68.5 11.5q57 0 86.5 -19t43.5 -62l19 66q3 1 7 2t9.5 2t15.5 1q6 0 11 -1t8 -2
q4 -1 7 -2l-11 -61q30 34 67 55t79 21zM673 302q2 5 4 12q2 6 4 15.5t5 21.5q5 25 4 48t-10.5 40.5t-28 27.5t-48.5 10q-51 0 -94.5 -39t-69.5 -136h234zM379 320q6 28 3.5 56t-14 50t-31.5 35.5t-48 13.5q-29 0 -54 -11t-46.5 -36t-38.5 -65.5t-29 -99.5q-13 -59 -13 -99.5
t10.5 -65.5t31 -36t49.5 -11q32 0 58 13t45.5 34t32 47.5t18.5 54.5z" />
    <glyph glyph-name="agrave" unicode="&#xe0;" horiz-adv-x="554" 
d="M409 630q-18 -21 -48 -24l-94 134q11 13 29.5 23t35.5 8zM456 521q3 1 7 2t9.5 2t15.5 1q9 0 15 -1t10 -2t7 -2l-110 -516q-5 -2 -9 -3q-5 -1 -10 -1.5t-12 -0.5q-8 0 -13 0.5t-9 1.5t-7 3l7 64q-29 -38 -69 -58.5t-100 -20.5q-46 0 -79 16.5t-51 51.5t-20 89.5t14 131.5
q16 76 40 126t55 79t68.5 40.5t81.5 11.5q57 0 91.5 -22t48.5 -59zM407 328q5 27 1.5 53.5t-16.5 47.5t-35 33.5t-53 12.5q-36 0 -64.5 -11t-50.5 -36t-38.5 -65.5t-28.5 -99.5q-13 -59 -14 -99.5t10.5 -65.5t35 -36t59.5 -11q32 0 59.5 13t49.5 34t36.5 47.5t20.5 54.5z
" />
    <glyph glyph-name="amacron" unicode="&#x101;" horiz-adv-x="554" 
d="M475 694q2 -11 -1 -23.5t-9 -23.5h-239q-1 12 2 24.5t8 22.5h239zM456 521q3 1 7 2t9.5 2t15.5 1q9 0 15 -1t10 -2t7 -2l-110 -516q-5 -2 -9 -3q-5 -1 -10 -1.5t-12 -0.5q-8 0 -13 0.5t-9 1.5t-7 3l7 64q-29 -38 -69 -58.5t-100 -20.5q-46 0 -79 16.5t-51 51.5t-20 89.5
t14 131.5q16 76 40 126t55 79t68.5 40.5t81.5 11.5q57 0 91.5 -22t48.5 -59zM407 328q5 27 1.5 53.5t-16.5 47.5t-35 33.5t-53 12.5q-36 0 -64.5 -11t-50.5 -36t-38.5 -65.5t-28.5 -99.5q-13 -59 -14 -99.5t10.5 -65.5t35 -36t59.5 -11q32 0 59.5 13t49.5 34t36.5 47.5
t20.5 54.5z" />
    <glyph glyph-name="ampersand" unicode="&#x26;" horiz-adv-x="634" 
d="M402 690q69 0 99 -35t19 -87q-8 -39 -29 -69.5t-52 -56.5t-70 -48.5t-84 -44.5q17 -51 49 -100t79 -92q31 31 53 64.5t38 63.5q17 2 32 -5t20 -19q-15 -29 -41 -64t-65 -73q50 -39 108 -65q-3 -18 -15.5 -35t-28.5 -25q-69 31 -123 74q-9 -8 -28.5 -22t-48 -27.5
t-65.5 -23.5t-80 -10q-36 0 -68.5 10t-54.5 30.5t-31 53t0 77.5q9 42 32.5 75.5t52 59t58 42.5t50.5 27q-20 82 -3 156q16 76 65.5 122.5t131.5 46.5zM386 638q-42 0 -73 -28t-42 -85q-14 -64 1 -129q35 17 64.5 34.5t52.5 37.5t38.5 42.5t21.5 50.5q8 35 -8 56t-55 21z
M193 50q28 0 53.5 6.5t46.5 15.5t37 18.5t25 15.5q-48 47 -81.5 101t-52.5 111q-16 -8 -36.5 -21.5t-40 -32t-35 -42t-21.5 -52.5q-12 -56 16.5 -88t88.5 -32z" />
    <glyph glyph-name="aogonek" unicode="&#x105;" horiz-adv-x="553" 
d="M456 521q3 1 7 2t9.5 2t15.5 1q9 0 15 -1t10 -2t7 -2l-110 -516q-25 -15 -51 -37.5t-47 -47t-33.5 -47.5t-10.5 -39q2 -13 11.5 -19t20.5 -6q13 0 26.5 4t24.5 9q8 -8 11 -22t1 -28q-38 -22 -88 -22q-32 0 -52.5 14.5t-23.5 44.5q-3 24 8.5 50t32.5 52t49.5 50.5
t60.5 45.5l7 62q-29 -38 -69 -58.5t-100 -20.5q-46 0 -79 16.5t-51 51.5t-20 89.5t14 131.5q16 76 40 126t55 79t68.5 40.5t81.5 11.5q57 0 91.5 -22t48.5 -59zM407 328q5 27 1.5 53.5t-16.5 47.5t-35 33.5t-53 12.5q-36 0 -64.5 -11t-50.5 -36t-38.5 -65.5t-28.5 -99.5
q-13 -59 -14 -99.5t10.5 -65.5t35 -36t59.5 -11q32 0 59.5 13t49.5 34t36.5 47.5t20.5 54.5z" />
    <glyph glyph-name="approxequal" unicode="&#x2248;" horiz-adv-x="539" 
d="M202 366q-18 0 -33 -6t-26 -13q-13 -8 -23 -18q-14 4 -21 14t-6 24q14 16 32 28q16 11 39 20t53 9q25 0 42 -8t32 -17.5t31.5 -17.5t40.5 -8q18 0 33 5.5t26 12.5q12 8 23 19q28 -9 28 -37q-14 -17 -32 -29q-16 -11 -39 -20t-54 -9q-25 0 -42 8t-32 17.5t-31.5 17.5
t-40.5 8zM166 198q-18 0 -33 -6t-26 -13q-13 -8 -23 -18q-14 5 -20.5 15t-6.5 23q14 16 32 29q16 11 39.5 20t53.5 9q25 0 42 -8t32 -17.5t31.5 -17.5t40.5 -8q18 0 32.5 5.5t25.5 12.5q12 8 23 18q27 -8 29 -37q-14 -17 -32 -29q-16 -11 -39.5 -20t-54.5 -9q-25 0 -42 8
t-32 17.5t-31.5 17.5t-40.5 8z" />
    <glyph glyph-name="aring" unicode="&#xe5;" horiz-adv-x="554" 
d="M242 696q4 25 17.5 44t32 32t40 19.5t43.5 6.5q21 0 40.5 -6.5t33 -19t20 -32t2.5 -44.5q-10 -51 -48.5 -78t-86.5 -27t-76 27t-18 78zM422 696q5 23 -7.5 41.5t-46.5 18.5q-32 0 -52 -18.5t-25 -41.5q-5 -24 7 -43t44 -19q34 0 54.5 19.5t25.5 42.5zM456 521q3 1 7 2
t9.5 2t15.5 1q9 0 15 -1t10 -2t7 -2l-110 -516q-5 -2 -9 -3q-5 -1 -10 -1.5t-12 -0.5q-8 0 -13 0.5t-9 1.5t-7 3l7 64q-29 -38 -69 -58.5t-100 -20.5q-46 0 -79 16.5t-51 51.5t-20 89.5t14 131.5q16 76 40 126t55 79t68.5 40.5t81.5 11.5q57 0 91.5 -22t48.5 -59zM407 328
q5 27 1.5 53.5t-16.5 47.5t-35 33.5t-53 12.5q-36 0 -64.5 -11t-50.5 -36t-38.5 -65.5t-28.5 -99.5q-13 -59 -14 -99.5t10.5 -65.5t35 -36t59.5 -11q32 0 59.5 13t49.5 34t36.5 47.5t20.5 54.5z" />
    <glyph glyph-name="aringacute" unicode="&#x1fb;" horiz-adv-x="554" 
d="M442 931q18 2 34 -5t21 -17l-141 -107q-24 5 -34 21zM239 679q4 25 17.5 44t31.5 31.5t39.5 19t43.5 6.5q21 0 40.5 -6.5t33.5 -19t20.5 -31.5t2.5 -44t-16.5 -44.5t-31 -32.5t-40.5 -20t-46 -7q-48 0 -75.5 26.5t-19.5 77.5zM419 679q5 23 -7.5 41t-46.5 18
q-32 0 -52 -18.5t-25 -40.5q-5 -23 7 -42t44 -19q34 0 54.5 19t25.5 42zM456 521q3 1 7 2t9.5 2t15.5 1q9 0 15 -1t10 -2t7 -2l-110 -516q-5 -2 -9 -3q-5 -1 -10 -1.5t-12 -0.5q-8 0 -13 0.5t-9 1.5t-7 3l7 64q-29 -38 -69 -58.5t-100 -20.5q-46 0 -79 16.5t-51 51.5
t-20 89.5t14 131.5q16 76 40 126t55 79t68.5 40.5t81.5 11.5q57 0 91.5 -22t48.5 -59zM407 328q5 27 1.5 53.5t-16.5 47.5t-35 33.5t-53 12.5q-36 0 -64.5 -11t-50.5 -36t-38.5 -65.5t-28.5 -99.5q-13 -59 -14 -99.5t10.5 -65.5t35 -36t59.5 -11q32 0 59.5 13t49.5 34
t36.5 47.5t20.5 54.5z" />
    <glyph glyph-name="arrowdown" unicode="&#x2193;" horiz-adv-x="492" 
d="M285 612q5 2 12 3t15 1q9 0 15 -1t11 -3l-93 -437l189 156q23 -10 25 -33l-260 -215l-169 215q5 11 15.5 19.5t24.5 13.5l122 -156l93 437v0z" />
    <glyph glyph-name="arrowleft" unicode="&#x2190;" horiz-adv-x="623" 
d="M312 565q21 -8 26 -33l-189 -156h437q2 -10 -2 -26q-2 -9 -4.5 -15.5t-4.5 -10.5h-437l123 -156q-8 -12 -18.5 -21t-21.5 -12l-170 215z" />
    <glyph glyph-name="arrowright" unicode="&#x2192;" horiz-adv-x="621" 
d="M329 135q-11 3 -18 12t-9 21l189 156h-436q-1 4 -1.5 10.5t1.5 15.5q4 18 11 26h436l-123 156q7 12 18 20.5t23 12.5l168 -215z" />
    <glyph glyph-name="arrowup" unicode="&#x2191;" horiz-adv-x="491" 
d="M481 402q-5 -11 -16 -20t-23 -14l-123 156l-92 -436q-12 -5 -28 -5q-8 0 -14.5 1.5t-10.5 3.5l92 436l-188 -156q-24 9 -26 34l260 214z" />
    <glyph glyph-name="asciicircum" unicode="^" horiz-adv-x="515" 
d="M498 457q-4 -2 -8 -3q-10 -2 -23 -2q-8 0 -13.5 0.5t-10.5 1.5t-9 3l-98 212l-187 -212q-4 -2 -9 -3t-11 -1.5t-14 -0.5t-13 0.5t-9 1.5t-7 3l229 258q3 1 8 2q4 1 10.5 2t14.5 1t14 -1t10 -2t7 -2z" />
    <glyph glyph-name="asciitilde" unicode="~" horiz-adv-x="532" 
d="M181 289q-18 0 -33 -5.5t-26 -12.5q-12 -8 -22 -18q-14 4 -21 14t-6 24q14 16 32 28q16 11 39 20t53 9q25 0 42 -8t32 -17.5t31.5 -17.5t40.5 -8q18 0 33 5.5t26 12.5q12 8 23 18q28 -8 28 -37q-14 -17 -32 -29q-16 -11 -39 -20t-54 -9q-25 0 -42 8t-32.5 17.5t-32 17.5
t-40.5 8z" />
    <glyph glyph-name="asterisk" unicode="*" horiz-adv-x="344" 
d="M233 705q22 8 42 0l-18 -84l87 27q10 -14 3 -40l-86 -26l37 -71q-8 -7 -18.5 -13.5t-22.5 -10.5l-36 69l-64 -69q-10 3 -17.5 9.5t-12.5 13.5l65 71l-74 27q6 26 22 40l75 -27z" />
    <glyph glyph-name="at" unicode="@" horiz-adv-x="914" 
d="M849 303q-22 -103 -79 -160.5t-140 -57.5q-43 0 -68.5 16t-30.5 51q-23 -30 -57.5 -48.5t-85.5 -18.5q-33 0 -60 10t-43.5 32.5t-21 59.5t7.5 91q12 55 32 92t46 59.5t57 32.5t64 10q45 0 70.5 -14.5t37.5 -37.5l10 48l9 3l10.5 2t13.5 1t13 -1t9 -2q4 -2 7 -3l-52 -248
q-10 -45 2 -65t43 -20q45 0 86 39.5t60 128.5q16 74 7 134.5t-42 103.5t-88.5 66.5t-132.5 23.5q-75 0 -142.5 -24.5t-121.5 -70t-92.5 -110.5t-56.5 -147q-19 -90 -5.5 -155t50.5 -107t92.5 -61.5t121.5 -19.5q77 0 151.5 22.5t136.5 57.5q22 -10 17 -38
q-80 -49 -162 -71.5t-164 -22.5q-77 0 -141.5 24t-107.5 73t-59 123.5t5 174.5q20 93 66 167.5t111 126t144.5 79.5t166.5 28q92 0 158 -27.5t105 -77t50 -119t-7 -153.5zM339 278q-9 -43 -6.5 -71t14 -44.5t30 -23t41.5 -6.5t42.5 8t35 21.5t26.5 30.5t16 36l20 97
q4 19 1 37t-13 31.5t-26.5 21.5t-39.5 8t-44 -6t-39.5 -22t-33 -44.5t-24.5 -73.5z" />
    <glyph glyph-name="atilde" unicode="&#xe3;" horiz-adv-x="554" 
d="M219 666q1 1 6.5 8.5t15.5 15.5t24.5 14.5t33.5 6.5q20 0 34.5 -5.5t26.5 -11.5l24 -11.5t27 -5.5q22 0 34.5 10.5t15.5 15.5q22 -9 22 -34q-1 -2 -6 -9t-15 -14.5t-24 -14t-33 -6.5q-20 0 -34.5 5.5t-27 12t-24.5 12t-27 5.5q-11 0 -20.5 -4.5t-16.5 -9.5q-8 -6 -15 -14
q-21 13 -21 34zM456 521q3 1 7 2t9.5 2t15.5 1q9 0 15 -1t10 -2t7 -2l-110 -516q-5 -2 -9 -3q-5 -1 -10 -1.5t-12 -0.5q-8 0 -13 0.5t-9 1.5t-7 3l7 64q-29 -38 -69 -58.5t-100 -20.5q-46 0 -79 16.5t-51 51.5t-20 89.5t14 131.5q16 76 40 126t55 79t68.5 40.5t81.5 11.5
q57 0 91.5 -22t48.5 -59zM407 328q5 27 1.5 53.5t-16.5 47.5t-35 33.5t-53 12.5q-36 0 -64.5 -11t-50.5 -36t-38.5 -65.5t-28.5 -99.5q-13 -59 -14 -99.5t10.5 -65.5t35 -36t59.5 -11q32 0 59.5 13t49.5 34t36.5 47.5t20.5 54.5z" />
    <glyph glyph-name="b" unicode="b" horiz-adv-x="555" 
d="M186 463q34 37 73 55t97 18q42 0 74 -15.5t50 -49.5t20.5 -88t-13.5 -130q-16 -77 -40 -127.5t-55.5 -80.5t-69.5 -42.5t-82 -12.5q-54 0 -89 20.5t-49 57.5l-17 -63l-12 -3.5t-22 -1.5q-10 0 -16 0.5t-10 1.5t-8 3l157 740q4 1 9 2t11.5 2t16.5 1q9 0 15.5 -1t11.5 -2
t8 -2zM415 263q12 59 12 99.5t-12.5 65.5t-36.5 36t-59 11q-32 0 -58.5 -12.5t-47 -33t-35 -46.5t-20.5 -54l-28 -129q-6 -28 -2.5 -54.5t16 -47.5t34 -34t51.5 -13q37 0 65.5 11t51 36t39.5 65.5t30 99.5z" />
    <glyph glyph-name="backslash" unicode="\" horiz-adv-x="454" 
d="M359 -41q-5 -2 -10 -3q-11 -3 -29 -3t-27 3q-5 1 -9 3l-169 785q4 1 10 3q5 1 12 2t17 1q9 0 16 -1t12 -2l9 -3z" />
    <glyph glyph-name="bar" unicode="|" horiz-adv-x="266" 
d="M199 785q4 1 9 2t11.5 2t16.5 1q9 0 15 -1t11 -2t9 -2l-208 -977q-5 -2 -10 -3t-11.5 -1.5t-15.5 -0.5q-17 0 -27 2q-5 1 -8 3l208 977v0z" />
    <glyph glyph-name="braceleft" unicode="{" horiz-adv-x="344" 
d="M412 810q1 -5 0.5 -12t-2.5 -17q-2 -9 -5 -16.5l-5 -12.5h-44q-42 0 -64.5 -20t-30.5 -57l-52 -245q-7 -34 -19.5 -57t-36.5 -38q18 -15 20.5 -38.5t-4.5 -56.5l-52 -246q-8 -37 5.5 -57t55.5 -20h44q1 -5 0.5 -12t-2.5 -17q-2 -11 -5 -17.5t-5 -11.5h-58
q-66 0 -91.5 36.5t-12.5 96.5l57 266q5 20 -2 33.5t-30 13.5h-31q-1 5 -1 12t2 17q2 11 5.5 18t5.5 12h31q23 0 35.5 14t17.5 34l56 265q13 60 53.5 96.5t106.5 36.5h58z" />
    <glyph glyph-name="braceright" unicode="}" horiz-adv-x="344" 
d="M204 810q67 0 92.5 -36.5t12.5 -96.5l-56 -265q-5 -20 1.5 -34t29.5 -14h30q1 -5 1 -12t-2 -17q-4 -20 -11 -30h-30q-23 0 -35 -13.5t-17 -33.5l-57 -266q-13 -60 -53.5 -96.5t-107.5 -36.5h-57q-1 5 -1 12t2 16q2 10 5.5 17.5t5.5 12.5h43q42 0 64.5 20t30.5 57l52 246
q7 33 19.5 56.5t35.5 37.5q-17 15 -19.5 38.5t4.5 57.5l52 245q8 37 -5.5 57t-55.5 20h-43q-1 5 -1 12t2 17q2 11 5.5 17.5t5.5 11.5h57z" />
    <glyph glyph-name="bracketleft" unicode="[" horiz-adv-x="322" 
d="M390 810v-8v-9t-2 -13t-3.5 -13t-3.5 -9t-3 -7h-116l-184 -862h116v-7v-9.5t-2 -12.5l-3.5 -13.5t-3.5 -9.5t-3 -7h-185l208 980h185z" />
    <glyph glyph-name="bracketright" unicode="]" horiz-adv-x="322" 
d="M-60 -170q-1 3 -1 7v9.5t2 13.5l3.5 12.5t3.5 9.5t4 7h115l184 862h-115q-1 3 -1 7v9t2 13t3.5 13t3.5 9l4 8h184l-208 -980h-184z" />
    <glyph glyph-name="breve" unicode="&#x2d8;" horiz-adv-x="324" 
d="M292 674q-18 -17 -42 -30q-20 -11 -49 -20.5t-64 -9.5t-60 9.5t-40 20.5q-18 13 -29 30q7 12 17 21.5t24 14.5q10 -11 25 -19q13 -7 31.5 -12.5t44.5 -5.5q25 0 46.5 5.5t37.5 12.5q18 8 33 19q23 -9 25 -36z" />
    <glyph glyph-name="brokenbar" unicode="&#xa6;" horiz-adv-x="256" 
d="M192 785q3 1 8 2t11.5 2t16.5 1q9 0 15 -1t11 -2l8 -2l-94 -445q-4 -2 -9 -3t-11.5 -1.5t-15.5 -0.5q-17 0 -27 2q-4 1 -7 3zM82 266q3 1 8 2t11.5 2t16.5 1q9 0 15 -1t11 -2l8 -2l-97 -457q-4 -2 -9 -3t-11.5 -1.5t-15.5 -0.5q-17 0 -27 2q-4 1 -7 3z" />
    <glyph glyph-name="bullet" unicode="&#x2022;" horiz-adv-x="317" 
d="M215 282q-6 -28 -27 -44.5t-48 -16.5q-26 0 -40.5 16.5t-8.5 44.5q6 29 27.5 45.5t47.5 16.5q27 0 41 -16.5t8 -45.5z" />
    <glyph glyph-name="c" unicode="c" horiz-adv-x="443" 
d="M318 475q-81 0 -128 -52.5t-70 -159.5q-23 -108 4 -158.5t108 -50.5q35 0 60 5.5t41 13.5q9 -8 14.5 -22.5t2.5 -30.5q-20 -11 -51.5 -20.5t-91.5 -9.5q-54 0 -90.5 20t-56.5 57.5t-22.5 90.5t11.5 120q29 134 96 196t173 62q32 0 55.5 -3.5t37.5 -8.5q17 -5 28 -12
q-3 -16 -11.5 -30t-19.5 -24q-11 4 -24 8q-12 3 -28.5 6t-37.5 3z" />
    <glyph glyph-name="cacute" unicode="&#x107;" horiz-adv-x="443" 
d="M288 604q-14 2 -24 9t-14 18l135 144q19 2 36 -6.5t22 -22.5zM318 475q-81 0 -128 -52.5t-70 -159.5q-23 -108 4 -158.5t108 -50.5q35 0 60 5.5t41 13.5q9 -8 14.5 -22.5t2.5 -30.5q-20 -11 -51.5 -20.5t-91.5 -9.5q-54 0 -90.5 20t-56.5 57.5t-22.5 90.5t11.5 120
q29 134 96 196t173 62q32 0 55.5 -3.5t37.5 -8.5q17 -5 28 -12q-3 -16 -11.5 -30t-19.5 -24q-11 4 -24 8q-12 3 -28.5 6t-37.5 3z" />
    <glyph glyph-name="caron" unicode="&#x2c7;" horiz-adv-x="404" 
d="M40 658q14 27 41 35l95 -79l127 78q11 -3 17.5 -12.5t9.5 -21.5l-155 -108h-26z" />
    <glyph glyph-name="ccaron" unicode="&#x10d;" horiz-adv-x="443" 
d="M218 702q14 24 39 33l87 -73l116 72q17 -7 24 -32l-132 -99h-23zM318 475q-81 0 -128 -52.5t-70 -159.5q-23 -108 4 -158.5t108 -50.5q35 0 60 5.5t41 13.5q9 -8 14.5 -22.5t2.5 -30.5q-20 -11 -51.5 -20.5t-91.5 -9.5q-54 0 -90.5 20t-56.5 57.5t-22.5 90.5t11.5 120
q29 134 96 196t173 62q32 0 55.5 -3.5t37.5 -8.5q17 -5 28 -12q-3 -16 -11.5 -30t-19.5 -24q-11 4 -24 8q-12 3 -28.5 6t-37.5 3z" />
    <glyph glyph-name="ccedilla" unicode="&#xe7;" horiz-adv-x="440" 
d="M176 -66q58 0 77.5 -24t11.5 -65q-11 -50 -45.5 -72.5t-91.5 -22.5q-21 0 -37 3t-27 8q-13 5 -22 12q6 24 25 35q4 -2 22 -9t44 -7q32 0 53 11.5t28 42.5q11 51 -51 51h-35l-8 11l33 86q-78 15 -103 91.5t0 193.5q29 134 95 195.5t172 61.5q32 0 55.5 -3.5t37.5 -8.5
q17 -5 28 -12q-3 -15 -12 -28.5t-21 -23.5q-10 4 -23 8q-11 3 -27.5 6t-37.5 3q-81 0 -128 -53.5t-70 -160.5q-23 -108 4 -160t108 -52q22 0 40 3t32 7q16 4 29 10q18 -18 12 -51q-15 -9 -37 -15q-19 -5 -46.5 -10t-63.5 -5z" />
    <glyph glyph-name="ccircumflex" unicode="&#x109;" horiz-adv-x="443" 
d="M471 638q-8 -12 -18.5 -21t-23.5 -13l-91 77l-125 -77q-21 8 -26 34l143 104h25zM318 475q-81 0 -128 -52.5t-70 -159.5q-23 -108 4 -158.5t108 -50.5q35 0 60 5.5t41 13.5q9 -8 14.5 -22.5t2.5 -30.5q-20 -11 -51.5 -20.5t-91.5 -9.5q-54 0 -90.5 20t-56.5 57.5
t-22.5 90.5t11.5 120q29 134 96 196t173 62q32 0 55.5 -3.5t37.5 -8.5q17 -5 28 -12q-3 -16 -11.5 -30t-19.5 -24q-11 4 -24 8q-12 3 -28.5 6t-37.5 3z" />
    <glyph glyph-name="cdotaccent" unicode="&#x10b;" horiz-adv-x="443" 
d="M368 641q-4 -2 -10 -3q-5 -1 -12.5 -1.5t-16.5 -0.5q-10 0 -16.5 0.5t-11.5 1.5t-9 3l15 68q4 1 10 2q5 1 12 1.5t17 0.5q9 0 16 -0.5t12 -1.5t9 -2zM318 475q-81 0 -128 -52.5t-70 -159.5q-23 -108 4 -158.5t108 -50.5q35 0 60 5.5t41 13.5q9 -8 14.5 -22.5t2.5 -30.5
q-20 -11 -51.5 -20.5t-91.5 -9.5q-54 0 -90.5 20t-56.5 57.5t-22.5 90.5t11.5 120q29 134 96 196t173 62q32 0 55.5 -3.5t37.5 -8.5q17 -5 28 -12q-3 -16 -11.5 -30t-19.5 -24q-11 4 -24 8q-12 3 -28.5 6t-37.5 3z" />
    <glyph glyph-name="cedilla" unicode="&#xb8;" horiz-adv-x="296" 
d="M12 36l-25 -62q58 0 78 -25t11 -67q-11 -50 -46 -74.5t-92 -24.5q-21 0 -36.5 3t-26.5 8q-12 5 -22 12q2 11 9 20.5t15 14.5l23 -9t44 -7q32 0 53 13.5t28 44.5q11 52 -51 52h-35l-7 12l39 98z" />
    <glyph glyph-name="cent" unicode="&#xa2;" horiz-adv-x="461" 
d="M310 627q2 1 12 3.5t22 2.5q13 0 20 -2.5t9 -3.5l-25 -92q26 -2 44.5 -5.5t30.5 -7.5q14 -4 23 -10q-3 -15 -12 -28.5t-21 -23.5q-10 4 -23 8q-11 3 -27.5 6t-37.5 3q-81 0 -128 -53.5t-70 -160.5q-23 -108 4 -160t108 -52q22 0 40 3t32 7q16 4 29 10q18 -18 12 -51
q-14 -7 -32 -13q-16 -5 -37.5 -9.5t-50.5 -6.5l-14 -92q-2 -2 -11 -4.5t-22 -2.5q-12 0 -20 2.5t-10 4.5l25 93q-89 8 -121.5 77t-6.5 194t88 193.5t155 77.5l15 93v0z" />
    <glyph glyph-name="circumflex" unicode="&#x2c6;" horiz-adv-x="396" 
d="M317 596q-8 -12 -19 -21.5t-23 -12.5l-95 78l-127 -79q-23 9 -26 35l155 108h26z" />
    <glyph glyph-name="colon" unicode=":" horiz-adv-x="234" 
d="M178 400q-5 -2 -11 -3q-5 -1 -13 -1.5t-18 -0.5q-11 0 -18.5 0.5t-12.5 1.5q-6 1 -9 3l15 73q5 1 11 2q5 1 13 2t19 1q10 0 17.5 -1t12.5 -2t9 -2zM94 5q-5 -2 -11 -3q-5 -1 -13 -1.5t-18 -0.5q-11 0 -18.5 0.5t-12.5 1.5q-6 1 -9 3l16 73q4 1 10 2q5 1 13 2t19 1
q10 0 17.5 -1t12.5 -2q6 -1 10 -2z" />
    <glyph glyph-name="comma" unicode="," horiz-adv-x="226" 
d="M-19 -93q10 10 21 24q9 12 18 29t16 40q-7 0 -11.5 1t-7.5 2q-4 1 -6 2l16 73q5 1 11 2q5 1 12.5 2t17.5 1t17.5 -1t12.5 -2q6 -1 10 -2l-11 -50q-8 -35 -23.5 -61.5t-30.5 -43.5q-18 -20 -38 -35z" />
    <glyph glyph-name="commaaccentcomb" unicode="&#xf6c3;" horiz-adv-x="0" 
d="M-131 -93q10 10 21 24q9 12 18 29t16 40q-7 0 -11.5 1t-7.5 2q-4 1 -6 2l16 73q4 1 10 2q5 1 12.5 2t18.5 1q10 0 17.5 -1t12.5 -2q6 -1 10 -2l-11 -50q-8 -35 -23.5 -61.5t-30.5 -43.5q-18 -20 -38 -35z" />
    <glyph glyph-name="commaaccentcomb.alt" horiz-adv-x="0" 
d="M125 700q-10 -10 -21 -24q-9 -12 -18.5 -29t-16.5 -40q7 -1 12.5 -1t8.5 -1q4 -1 6 -2l-15 -73q-5 -2 -11 -3q-11 -3 -32 -3q-20 0 -29 3q-5 1 -9 3l10 50q8 35 23 60.5t30 43.5q18 20 38 36z" />
    <glyph glyph-name="copyright" unicode="&#xa9;" horiz-adv-x="803" 
d="M337 -1q-71 0 -127.5 26.5t-93 73t-50 108.5t1.5 133t55 133t96 108.5t124 73t139 26.5t127.5 -26.5t92.5 -73t49.5 -108.5t-1.5 -133t-55 -133t-96 -108.5t-123.5 -73t-138.5 -26.5zM471 630q-60 0 -118 -23t-106 -62t-82 -92t-47 -113t-1 -113t43 -92.5t79 -62.5
t108 -23t118 23t105.5 62.5t81.5 92.5t47 113t1.5 113t-42.5 92t-79 62t-108 23zM370 147q-86 0 -117.5 51.5t-11.5 148.5q43 199 214 199q25 0 43.5 -3.5t30.5 -7.5q14 -5 24 -11q-4 -25 -26 -41l-23 8q-11 3 -24 6t-28 3q-60 0 -98 -34.5t-56 -118.5q-17 -81 7 -116
t83 -35q17 0 32 2t27 5q14 3 26 7q9 -7 10.5 -18t-0.5 -22q-13 -7 -31 -12q-15 -5 -35.5 -8t-46.5 -3z" />
    <glyph glyph-name="currency" unicode="&#xa4;" horiz-adv-x="590" 
d="M373 113q-29 -19 -61.5 -29.5t-66.5 -10.5t-62 10.5t-49 29.5l-89 -74q-3 0 -7 2q-3 2 -7 5t-8 8t-5.5 9.5l-2.5 7.5q-1 4 0 7l90 74q-14 24 -18.5 54.5t3.5 64.5q7 33 24.5 63.5t41.5 55.5l-59 74q1 4 4 8q5 8 15 17q6 5 11 7t9 4t8 2l58 -73q29 19 61.5 29.5t66.5 10.5
q33 0 61 -11t48 -30l90 74q2 0 6 -2q8 -4 15 -11q6 -9 8 -17q1 -4 1 -8l-89 -74q14 -25 18.5 -55t-2.5 -64q-8 -34 -25.5 -64.5t-41.5 -55.5l59 -73q-1 -4 -4 -8q-2 -4 -5.5 -8t-9.5 -9t-11 -7.5l-9 -4.5t-8 -2zM318 415q-30 0 -58.5 -11t-52 -30.5t-40.5 -46t-23 -56.5
q-7 -30 -1.5 -56.5t21 -46t39.5 -30.5t54 -11t59 11t52.5 30.5t40 46t23.5 56.5q6 30 0.5 56.5t-21 46t-39.5 30.5t-54 11z" />
    <glyph glyph-name="d" unicode="d" horiz-adv-x="554" 
d="M496 745q4 1 9 2t11.5 2t16.5 1q9 0 15.5 -1t11.5 -2t8 -2l-157 -740q-5 -2 -9 -3q-5 -1 -10 -1.5t-12 -0.5q-13 0 -23 2q-4 1 -8 3l7 61q-29 -38 -71.5 -57t-102.5 -19q-40 0 -71 16.5t-49.5 51t-22 89t12.5 131.5q16 76 40.5 126t56 79.5t69 41t80.5 11.5
q51 0 87 -20.5t50 -57.5zM408 328q5 27 1 53.5t-17 47.5t-34 33.5t-49 12.5q-35 0 -64 -11t-52 -36t-40.5 -65.5t-29.5 -99.5q-13 -59 -13 -99.5t12 -65.5t36.5 -36t60.5 -11q32 0 59 13t48 34t34.5 47.5t19.5 54.5z" />
    <glyph glyph-name="dagger" unicode="&#x2020;" horiz-adv-x="565" 
d="M165 -107l121 537l-230 -7q-1 4 -1 8q0 8 3 22q3 16 6 22q2 4 4 7l228 -6l40 221q4 1 9 2t10.5 1.5t13.5 0.5q12 0 22 -2l8 -2l-54 -221l226 6v-8v-9t-2 -12l-3.5 -12.5t-3.5 -9.5t-3 -8l-224 7l-107 -537l-35 -20z" />
    <glyph glyph-name="daggerdbl" unicode="&#x2021;" horiz-adv-x="626" 
d="M535 156v-8v-9.5t-2 -12.5q-2 -8 -3.5 -13t-3.5 -9t-3 -7l-228 7l-40 -222q-4 -1 -9 -2t-10.5 -1.5t-13.5 -0.5q-13 0 -23 2q-4 1 -7 2l54 222l-229 -7q-1 4 -1 8q0 7 3 21q3 16 6 22l4 8l227 -7l22 140l37 141l-230 -7q-1 4 -1 8q0 7 3 22q3 14 6 22q2 4 4 7l228 -6
l40 221q4 1 9 2t10.5 1.5t13.5 0.5t13 -0.5t9 -1.5l8 -2l-54 -221l229 6v-8v-9t-2 -12q-2 -8 -3.5 -13t-3.5 -9t-3 -8l-227 7l-23 -141l-36 -140z" />
    <glyph glyph-name="dcaron" unicode="&#x10f;" horiz-adv-x="567" 
d="M587 601q37 32 55 66.5t25 80.5q20 5 36 3t26 -10q-11 -47 -41 -91.5t-71 -67.5q-24 3 -30 19zM496 745q4 1 9 2t11.5 2t16.5 1q9 0 15.5 -1t11.5 -2t8 -2l-157 -740q-5 -2 -9 -3q-5 -1 -10 -1.5t-12 -0.5q-13 0 -23 2q-4 1 -8 3l7 61q-29 -38 -71.5 -57t-102.5 -19
q-40 0 -71 16.5t-49.5 51t-22 89t12.5 131.5q16 76 40.5 126t56 79.5t69 41t80.5 11.5q51 0 87 -20.5t50 -57.5zM408 328q5 27 1 53.5t-17 47.5t-34 33.5t-49 12.5q-35 0 -64 -11t-52 -36t-40.5 -65.5t-29.5 -99.5q-13 -59 -13 -99.5t12 -65.5t36.5 -36t60.5 -11q32 0 59 13
t48 34t34.5 47.5t19.5 54.5z" />
    <glyph glyph-name="dcroat" unicode="&#x111;" horiz-adv-x="554" 
d="M621 668v-6q0 -3 -0.5 -7.5t-1.5 -10.5l-3.5 -10.5l-2.5 -7.5q-2 -4 -2 -6h-71l-130 -615q-5 -2 -9 -3q-5 -1 -10 -1.5t-12 -0.5q-13 0 -23 2q-4 1 -8 3l7 61q-29 -38 -71.5 -57t-102.5 -19q-40 0 -71 16.5t-49.5 51t-22 89t12.5 131.5q16 76 40.5 126t56 79.5t69 41
t80.5 11.5q51 0 87 -20.5t50 -57.5l34 162h-114q-1 2 -1 6v7.5t2 10.5q1 6 2.5 10.5t3.5 7.5l3 6h115l16 77q4 1 9 2t11.5 2t16.5 1q9 0 15.5 -1t11.5 -2t8 -2l-16 -77h70zM407 328q5 27 1 53.5t-17 47.5t-34 33.5t-49 12.5q-35 0 -64 -11t-52 -36t-40.5 -65.5t-29.5 -99.5
q-13 -59 -13 -99.5t12 -65.5t36.5 -36t60.5 -11q32 0 59 13t48 34t34.5 47.5t19.5 54.5z" />
    <glyph glyph-name="degree" unicode="&#xb0;" horiz-adv-x="354" 
d="M118 617q5 23 18 45t32.5 39.5t45 28.5t56.5 11q30 0 51 -10.5t32.5 -27.5t14.5 -39t-1 -44q-5 -23 -17.5 -44.5t-31 -38.5t-44 -27.5t-55.5 -10.5q-32 0 -53.5 10t-33.5 26.5t-15.5 37.5t1.5 44zM324 619q3 16 1.5 30.5t-9 26t-21 18.5t-34.5 7t-38 -7t-29.5 -19
t-21 -27t-11.5 -30t-1 -29.5t9.5 -25.5t21.5 -18t35 -7q42 0 66.5 25t31.5 56z" />
    <glyph glyph-name="dieresis" unicode="&#xa8;" horiz-adv-x="455" 
d="M159 616q-5 -2 -10 -3t-11.5 -1.5t-15.5 -0.5q-10 0 -16 0.5t-11 1.5t-9 3l14 65l10 2t11.5 2t16.5 1q9 0 15 -1t11 -2t9 -2zM317 616q-5 -2 -10 -3t-11.5 -1.5t-15.5 -0.5q-10 0 -16 0.5t-11 1.5t-9 3l14 65l10 2t11.5 2t16.5 1q9 0 15 -1t11 -2t9 -2z" />
    <glyph glyph-name="divide" unicode="&#xf7;" horiz-adv-x="542" 
d="M334 415q-5 -2 -11 -3q-5 -1 -13 -1.5t-18 -0.5q-11 0 -18.5 0.5t-12.5 1.5q-6 1 -9 3l16 73q4 1 10 2q5 1 13 2t19 1q10 0 17.5 -1t12.5 -2q6 -1 10 -2zM62 262q-1 3 -1 7v9t2 12q1 7 3 12t4 9t4 7h398v-7q0 -4 -0.5 -9t-1.5 -12l-3.5 -12t-3.5 -9t-3 -7h-398zM266 92
q-5 -2 -11 -3q-5 -1 -13.5 -1.5t-18.5 -0.5q-11 0 -18 0.5t-12 1.5t-9 3l15 73q4 1 10 2q5 1 13 2t19 1q10 0 17.5 -1t12.5 -2q6 -1 10 -2z" />
    <glyph glyph-name="dollar" unicode="$" horiz-adv-x="557" 
d="M349 784q4 1 9 2t11 2t14 1t14 -1t11 -2l8 -2l-33 -116q38 -2 67.5 -5t50.5 -8q25 -5 43 -11q-1 -2 -2.5 -10.5t-8.5 -19.5q-6 -11 -12.5 -17t-9.5 -8q-18 6 -41 10q-20 4 -46.5 7t-58.5 3q-169 0 -193 -113q-9 -43 14 -66t62 -37t86 -26t84.5 -32t58 -55t7.5 -96
q-17 -80 -78.5 -126.5t-163.5 -54.5l-19 -127q-3 -2 -8 -3t-11.5 -1.5t-14.5 -0.5q-15 0 -25 2q-5 1 -8 3l33 126q-44 1 -78.5 6.5t-58.5 12.5q-28 8 -49 17q0 2 1.5 9.5t6.5 19.5q7 12 13 18.5t8 7.5q25 -8 54 -14q25 -5 57.5 -9t67.5 -4q82 0 132.5 27t63.5 87q7 35 -4 57
t-34.5 36.5t-55 23.5l-65 18.5t-65 21t-53.5 30.5t-32 48.5t-1 73.5q17 77 76.5 123t157.5 54l18 118v0z" />
    <glyph glyph-name="dotaccent" unicode="&#x2d9;" horiz-adv-x="176" 
d="M101 608q-4 -2 -10 -3q-5 -1 -12.5 -1.5t-16.5 -0.5q-10 0 -16.5 0.5t-11.5 1.5t-9 3l15 68q4 1 10 2q5 1 12 2t17 1q9 0 16 -1t12 -2t9 -2z" />
    <glyph glyph-name="dotlessi" unicode="&#x131;" horiz-adv-x="239" 
d="M92 5q-5 -2 -10 -3t-11.5 -1.5t-15.5 -0.5q-17 0 -27 2q-5 1 -8 3l110 516q4 1 9 2t11.5 2t16.5 1q9 0 15 -1t11 -2t9 -2z" />
    <glyph glyph-name="dotlessj" unicode="&#x237;" horiz-adv-x="239" 
d="M130 521q4 1 9 2t11.5 2t16.5 1q9 0 15 -1t11 -2t9 -2l-130 -609q-17 -82 -62 -122t-112 -40q-16 0 -27 1t-19 3q-9 2 -14 5q-1 2 -1 5q0 7 1 12q2 9 5 16l5 12q3 5 6 9q4 -1 10 -2q5 -1 12.5 -1.5t16.5 -0.5q42 0 68.5 23t37.5 76z" />
    <glyph glyph-name="e" unicode="e" horiz-adv-x="505" 
d="M114 240q-8 -51 -5 -86.5t17.5 -57.5t40.5 -32t62 -10q29 0 52.5 5t40.5 11q20 7 36 17q9 -8 14.5 -23t2.5 -31q-20 -12 -46 -22q-23 -8 -55 -14.5t-72 -6.5q-108 0 -145 77.5t-8 213.5q15 71 42 119.5t62 78.5t76.5 43.5t87.5 13.5q41 0 72.5 -13.5t51 -38.5t26 -61
t-2.5 -81q-5 -23 -11 -41.5t-11 -32.5q-6 -16 -11 -28h-317zM397 351q5 25 3.5 48t-12.5 40.5t-31.5 27.5t-52.5 10q-60 0 -106.5 -42.5t-72.5 -140.5h255q2 4 7 19t10 38z" />
    <glyph glyph-name="eacute" unicode="&#xe9;" horiz-adv-x="505" 
d="M293 607q-31 3 -38 24l135 144q19 2 36 -6.5t22 -22.5zM114 240q-8 -51 -5 -86.5t17.5 -57.5t40.5 -32t62 -10q29 0 52.5 5t40.5 11q20 7 36 17q9 -8 14.5 -23t2.5 -31q-20 -12 -46 -22q-23 -8 -55 -14.5t-72 -6.5q-108 0 -145 77.5t-8 213.5q15 71 42 119.5t62 78.5
t76.5 43.5t87.5 13.5q41 0 72.5 -13.5t51 -38.5t26 -61t-2.5 -81q-5 -23 -11 -41.5t-11 -32.5q-6 -16 -11 -28h-317zM397 351q5 25 3.5 48t-12.5 40.5t-31.5 27.5t-52.5 10q-60 0 -106.5 -42.5t-72.5 -140.5h255q2 4 7 19t10 38z" />
    <glyph glyph-name="ebreve" unicode="&#x115;" horiz-adv-x="505" 
d="M487 680q-16 -17 -38 -30q-19 -11 -46.5 -20t-62.5 -9t-61 9t-43 20q-20 13 -33 30q7 12 17 21.5t24 14.5q10 -11 25 -19q13 -7 31.5 -12.5t44.5 -5.5q25 0 46.5 5.5t37.5 12.5q18 8 33 19q23 -9 25 -36zM114 240q-8 -51 -5 -86.5t17.5 -57.5t40.5 -32t62 -10
q29 0 52.5 5t40.5 11q20 7 36 17q9 -8 14.5 -23t2.5 -31q-20 -12 -46 -22q-23 -8 -55 -14.5t-72 -6.5q-108 0 -145 77.5t-8 213.5q15 71 42 119.5t62 78.5t76.5 43.5t87.5 13.5q41 0 72.5 -13.5t51 -38.5t26 -61t-2.5 -81q-5 -23 -11 -41.5t-11 -32.5q-6 -16 -11 -28h-317z
M397 351q5 25 3.5 48t-12.5 40.5t-31.5 27.5t-52.5 10q-60 0 -106.5 -42.5t-72.5 -140.5h255q2 4 7 19t10 38z" />
    <glyph glyph-name="ecaron" unicode="&#x11b;" horiz-adv-x="505" 
d="M212 705q7 11 17 20t23 13l90 -76l121 75q11 -3 17 -12t8 -20l-139 -101h-25zM114 240q-8 -51 -5 -86.5t17.5 -57.5t40.5 -32t62 -10q29 0 52.5 5t40.5 11q20 7 36 17q9 -8 14.5 -23t2.5 -31q-20 -12 -46 -22q-23 -8 -55 -14.5t-72 -6.5q-108 0 -145 77.5t-8 213.5
q15 71 42 119.5t62 78.5t76.5 43.5t87.5 13.5q41 0 72.5 -13.5t51 -38.5t26 -61t-2.5 -81q-5 -23 -11 -41.5t-11 -32.5q-6 -16 -11 -28h-317zM397 351q5 25 3.5 48t-12.5 40.5t-31.5 27.5t-52.5 10q-60 0 -106.5 -42.5t-72.5 -140.5h255q2 4 7 19t10 38z" />
    <glyph glyph-name="ecircumflex" unicode="&#xea;" horiz-adv-x="505" 
d="M478 636q-8 -11 -18 -20.5t-23 -12.5l-92 76l-124 -77q-12 5 -18 13.5t-9 20.5l147 105h25zM114 240q-8 -51 -5 -86.5t17.5 -57.5t40.5 -32t62 -10q29 0 52.5 5t40.5 11q20 7 36 17q9 -8 14.5 -23t2.5 -31q-20 -12 -46 -22q-23 -8 -55 -14.5t-72 -6.5q-108 0 -145 77.5
t-8 213.5q15 71 42 119.5t62 78.5t76.5 43.5t87.5 13.5q41 0 72.5 -13.5t51 -38.5t26 -61t-2.5 -81q-5 -23 -11 -41.5t-11 -32.5q-6 -16 -11 -28h-317zM397 351q5 25 3.5 48t-12.5 40.5t-31.5 27.5t-52.5 10q-60 0 -106.5 -42.5t-72.5 -140.5h255q2 4 7 19t10 38z" />
    <glyph glyph-name="edieresis" unicode="&#xeb;" horiz-adv-x="505" 
d="M293 630q-5 -2 -10 -3t-12 -1.5t-16 -0.5q-10 0 -16 0.5t-11 1.5t-8 3l14 65q4 1 9 2t11.5 2t16.5 1q9 0 15.5 -1t11.5 -2t9 -2zM451 630q-5 -2 -10 -3t-12 -1.5t-16 -0.5q-10 0 -16 0.5t-11 1.5t-8 3l14 65q4 1 9 2t11.5 2t16.5 1q9 0 15.5 -1t11.5 -2t9 -2zM114 240
q-8 -51 -5 -86.5t17.5 -57.5t40.5 -32t62 -10q29 0 52.5 5t40.5 11q20 7 36 17q9 -8 14.5 -23t2.5 -31q-20 -12 -46 -22q-23 -8 -55 -14.5t-72 -6.5q-108 0 -145 77.5t-8 213.5q15 71 42 119.5t62 78.5t76.5 43.5t87.5 13.5q41 0 72.5 -13.5t51 -38.5t26 -61t-2.5 -81
q-5 -23 -11 -41.5t-11 -32.5q-6 -16 -11 -28h-317zM397 351q5 25 3.5 48t-12.5 40.5t-31.5 27.5t-52.5 10q-60 0 -106.5 -42.5t-72.5 -140.5h255q2 4 7 19t10 38z" />
    <glyph glyph-name="edotaccent" unicode="&#x117;" horiz-adv-x="505" 
d="M375 636q-4 -2 -10 -3q-5 -1 -12.5 -1.5t-16.5 -0.5q-10 0 -16.5 0.5t-11.5 1.5t-9 3l15 68q4 1 10 2q5 1 12 2t17 1q9 0 16 -1t12 -2t9 -2zM114 240q-8 -51 -5 -86.5t17.5 -57.5t40.5 -32t62 -10q29 0 52.5 5t40.5 11q20 7 36 17q9 -8 14.5 -23t2.5 -31q-20 -12 -46 -22
q-23 -8 -55 -14.5t-72 -6.5q-108 0 -145 77.5t-8 213.5q15 71 42 119.5t62 78.5t76.5 43.5t87.5 13.5q41 0 72.5 -13.5t51 -38.5t26 -61t-2.5 -81q-5 -23 -11 -41.5t-11 -32.5q-6 -16 -11 -28h-317zM397 351q5 25 3.5 48t-12.5 40.5t-31.5 27.5t-52.5 10q-60 0 -106.5 -42.5
t-72.5 -140.5h255q2 4 7 19t10 38z" />
    <glyph glyph-name="egrave" unicode="&#xe8;" horiz-adv-x="505" 
d="M250 746q11 13 31.5 22t38.5 7l73 -144q-18 -21 -48 -24zM114 240q-8 -51 -5 -86.5t17.5 -57.5t40.5 -32t62 -10q29 0 52.5 5t40.5 11q20 7 36 17q9 -8 14.5 -23t2.5 -31q-20 -12 -46 -22q-23 -8 -55 -14.5t-72 -6.5q-108 0 -145 77.5t-8 213.5q15 71 42 119.5t62 78.5
t76.5 43.5t87.5 13.5q41 0 72.5 -13.5t51 -38.5t26 -61t-2.5 -81q-5 -23 -11 -41.5t-11 -32.5q-6 -16 -11 -28h-317zM397 351q5 25 3.5 48t-12.5 40.5t-31.5 27.5t-52.5 10q-60 0 -106.5 -42.5t-72.5 -140.5h255q2 4 7 19t10 38z" />
    <glyph glyph-name="eight" unicode="8" horiz-adv-x="583" 
d="M221 -10q-54 0 -92.5 15t-62 40.5t-31.5 60t0 73.5q9 40 29.5 69.5t46 51.5t52.5 36.5l47 24.5q-21 13 -38 30.5t-27.5 40t-13.5 49t4 58.5q16 76 78.5 113.5t158.5 37.5q47 0 82 -13t57 -36.5t29.5 -55.5t-0.5 -69q-8 -35 -24.5 -61t-37 -45.5t-42.5 -33t-41 -23.5
q25 -14 46 -32.5t34.5 -43t18.5 -55t-3 -67.5q-17 -84 -86.5 -124.5t-183.5 -40.5zM360 631q-63 0 -104.5 -27t-51.5 -74q-7 -33 3.5 -56t31.5 -40t50.5 -30.5l59.5 -27.5q15 9 33.5 22t36 31t32 41.5t20.5 52.5q11 53 -18.5 80.5t-92.5 27.5zM237 49q75 0 122.5 33t58.5 85
q8 37 -4.5 62t-37 44t-57 33.5l-65.5 29.5q-11 -6 -33 -19.5t-45.5 -34.5t-43.5 -49.5t-27 -64.5q-11 -52 20.5 -85.5t111.5 -33.5z" />
    <glyph glyph-name="eight.denom" horiz-adv-x="323" 
d="M41 262q8 38 41.5 62t88.5 24q51 0 75.5 -22t16.5 -63q-7 -31 -26.5 -52t-42.5 -34q23 -14 37.5 -33.5t6.5 -53.5q-10 -45 -47 -70t-95 -25q-55 0 -84 23t-18 70q7 35 31 57.5t50 36.5q-20 13 -30.5 31.5t-3.5 48.5zM215 260q11 50 -53 50q-29 0 -48 -12.5t-24 -33.5
q-3 -15 2 -25t15.5 -18t24 -14.5t28.5 -12.5q21 12 35.5 28t19.5 38zM188 87q4 17 -3 28.5t-19 20t-28 15.5t-30 14l-14.5 -9t-20 -15t-19.5 -21.5t-12 -28.5q-6 -29 11 -42.5t53 -13.5q30 0 53.5 13t28.5 39z" />
    <glyph glyph-name="eight.num" horiz-adv-x="323" 
d="M114 608q8 38 41.5 62t88.5 24q51 0 76 -22t16 -63q-6 -31 -26 -52t-43 -34q23 -14 37.5 -33.5t7.5 -53.5q-10 -45 -47.5 -70t-95.5 -25q-55 0 -83.5 23t-18.5 70q8 35 31.5 57.5t49.5 36.5q-19 13 -29.5 31.5t-4.5 48.5zM289 606q11 50 -54 50q-29 0 -47.5 -12.5
t-23.5 -33.5q-3 -15 1.5 -25t15 -18t24.5 -14.5t29 -12.5q20 12 35 28t20 38zM262 433q4 17 -3 28.5t-19 20t-28 15.5t-30 14l-15 -9t-20 -15t-19 -21.5t-12 -28.5q-6 -29 11 -42.5t53 -13.5q30 0 53.5 13t28.5 39z" />
    <glyph glyph-name="eightinferior" unicode="&#x2088;" horiz-adv-x="323" 
d="M20 166q8 38 42 62t89 24q51 0 75.5 -22t15.5 -63q-6 -31 -26 -52t-43 -34q23 -14 37.5 -33.5t7.5 -53.5q-10 -45 -47.5 -70t-95.5 -25q-55 0 -83.5 23t-18.5 70q8 35 31.5 57.5t49.5 36.5q-19 13 -29.5 31.5t-4.5 48.5zM195 164q11 50 -54 50q-29 0 -47.5 -12.5
t-23.5 -33.5q-3 -15 1.5 -25t15 -18t24.5 -14.5t29 -12.5q20 12 35 28t20 38zM168 -9q4 17 -3 28.5t-19 20t-28 15.5t-30 14l-15 -9t-20 -15t-19 -21.5t-12 -28.5q-6 -29 11 -42.5t53 -13.5q30 0 53.5 13t28.5 39z" />
    <glyph glyph-name="ellipsis" unicode="&#x2026;" horiz-adv-x="587" 
d="M92 5q-5 -2 -11 -3q-5 -1 -13 -1.5t-18 -0.5q-11 0 -18.5 0.5t-12.5 1.5q-6 1 -9 3l16 73q4 1 10 2q5 1 13 2t19 1q10 0 17.5 -1t12.5 -2q6 -1 10 -2zM273 5q-5 -2 -11 -3q-5 -1 -12.5 -1.5t-17.5 -0.5q-11 0 -18.5 0.5t-12.5 1.5q-6 1 -9 3l16 73q4 1 10 2q5 1 13 2
t19 1q10 0 17 -1t12 -2l10 -2zM454 5q-5 -2 -11 -3q-5 -1 -13 -1.5t-18 -0.5q-11 0 -18 0.5t-12 1.5t-9 3l16 73q4 1 10 2q5 1 12.5 2t18.5 1q10 0 17.5 -1t12.5 -2q6 -1 10 -2z" />
    <glyph glyph-name="emacron" unicode="&#x113;" horiz-adv-x="505" 
d="M208 647q-3 24 10 49h249q2 -11 -0.5 -25t-9.5 -24h-249zM114 240q-8 -51 -5 -86.5t17.5 -57.5t40.5 -32t62 -10q29 0 52.5 5t40.5 11q20 7 36 17q9 -8 14.5 -23t2.5 -31q-20 -12 -46 -22q-23 -8 -55 -14.5t-72 -6.5q-108 0 -145 77.5t-8 213.5q15 71 42 119.5t62 78.5
t76.5 43.5t87.5 13.5q41 0 72.5 -13.5t51 -38.5t26 -61t-2.5 -81q-5 -23 -11 -41.5t-11 -32.5q-6 -16 -11 -28h-317zM397 351q5 25 3.5 48t-12.5 40.5t-31.5 27.5t-52.5 10q-60 0 -106.5 -42.5t-72.5 -140.5h255q2 4 7 19t10 38z" />
    <glyph glyph-name="emdash" unicode="&#x2014;" horiz-adv-x="830" 
d="M82 262q-1 3 -1 7v9t2 12q1 7 3 12t4 9t4 7h647v-7q0 -4 -0.5 -9t-1.5 -12l-3.5 -12t-3.5 -9t-3 -7h-647z" />
    <glyph glyph-name="endash" unicode="&#x2013;" horiz-adv-x="580" 
d="M82 262q-1 3 -1 7v9t2 12q1 7 3 12t4 9t4 7h397v-7q0 -4 -0.5 -9t-1.5 -12l-3.5 -12t-3.5 -9t-3 -7h-397z" />
    <glyph glyph-name="eng" unicode="&#x14b;" horiz-adv-x="551" 
d="M185 458q38 37 79 57.5t94 20.5q37 0 64.5 -12t44.5 -33t22.5 -51t-1.5 -66l-90 -422q-15 -72 -49.5 -115t-106.5 -65q-21 18 -12 53q21 7 36 17t26.5 25t19.5 35.5t14 48.5l89 421q23 104 -86 104q-42 0 -84.5 -24t-74.5 -67l-81 -380q-5 -2 -10 -3t-11.5 -1.5
t-15.5 -0.5q-10 0 -16 0.5t-11 1.5t-8 3l110 516q4 1 9 2t11.5 2t16.5 1q9 0 15 -1t11 -2t9 -2l-14 -63v0z" />
    <glyph glyph-name="eogonek" unicode="&#x119;" horiz-adv-x="507" 
d="M114 240q-8 -51 -5 -86.5t17.5 -57.5t40.5 -32t62 -10q29 0 52.5 5t40.5 11q20 7 36 17q9 -8 14.5 -23t2.5 -31l-2 -1q-92 -69 -130.5 -117.5t-33.5 -80.5q2 -13 11.5 -19t20.5 -6q13 0 26.5 4t24.5 9q8 -8 11 -22t1 -28q-38 -22 -88 -22q-32 0 -52.5 14.5t-23.5 44.5
q-3 23 5.5 47.5t25.5 49t41 47t52 42.5q-14 -2 -29.5 -3.5t-32.5 -1.5q-108 0 -145 77.5t-8 213.5q15 71 42 119.5t62 78.5t76.5 43.5t87.5 13.5q41 0 72.5 -13.5t51 -38.5t26 -61t-2.5 -81q-5 -23 -11 -41.5t-11 -32.5q-6 -16 -11 -28h-317zM397 351q5 25 3.5 48
t-12.5 40.5t-31.5 27.5t-52.5 10q-60 0 -106.5 -42.5t-72.5 -140.5h255q2 4 7 19t10 38z" />
    <glyph glyph-name="equal" unicode="=" horiz-adv-x="515" 
d="M93 349q-2 30 12 56h346q1 -13 -2 -27.5t-10 -28.5h-346zM56 174q-2 31 12 57h346q1 -14 -2 -28.5t-10 -28.5h-346z" />
    <glyph glyph-name="estimated" unicode="&#x212e;" horiz-adv-x="805" 
d="M621 95q-59 -51 -129 -78t-147 -27q-73 0 -131 27.5t-96 75.5t-52 112t2 137q15 73 56.5 137t99 112t127.5 75.5t143 27.5t131 -27.5t96 -75.5t52 -112t-1 -137l-5 -24h-544l-47 -218q35 -31 80.5 -49t97.5 -18q51 0 102 16.5t98 45.5h67zM663 583q-34 32 -79.5 50
t-98.5 18q-52 0 -105 -17.5t-101 -49.5l-47 -222h384z" />
    <glyph glyph-name="eth" unicode="&#xf0;" horiz-adv-x="554" 
d="M427 658q54 -57 73 -145t-7 -206q-19 -91 -46 -152t-62.5 -97.5t-79.5 -52t-96 -15.5q-50 0 -87 17t-58.5 51.5t-26 87t10.5 123.5t39.5 118t57.5 75.5t73 40t87 11.5t84.5 -19.5t52.5 -51.5q-1 54 -19.5 100.5t-53.5 81.5l-109 -60q-10 6 -17 17t-7 22l93 51
q-47 33 -110 46q2 14 8 28.5t17 24.5q43 -8 79.5 -25t66.5 -39l88 49q18 -15 18 -43zM215 47q31 0 59.5 9.5t52.5 33t42.5 63t31.5 99.5q13 61 10.5 100.5t-17 62.5t-39.5 32t-58 9q-32 0 -59 -9.5t-49.5 -33t-40.5 -62.5t-30 -99q-13 -60 -11 -99.5t15.5 -63t37 -33
t55.5 -9.5z" />
    <glyph glyph-name="exclam" unicode="!" horiz-adv-x="260" 
d="M178 715q3 1 8 2t12.5 2t19.5 1q11 0 18 -1t12 -2t8 -2l-127 -539q-3 -2 -7 -3q-8 -3 -21 -3q-14 0 -20 3q-4 1 -6 3zM105 5q-4 -2 -10 -3q-5 -1 -12.5 -1.5t-17.5 -0.5q-11 0 -18 0.5t-12 1.5t-8 3l16 73q3 1 9 2q5 1 12.5 2t18.5 1q10 0 17 -1t12 -2t9 -2z" />
    <glyph glyph-name="exclamdown" unicode="&#xa1;" horiz-adv-x="249" 
d="M128 513q5 1 11 2q5 1 12.5 2t18.5 1t18 -1t12 -2l10 -2l-16 -73q-5 -2 -11 -3q-5 -1 -12.5 -1.5t-18.5 -0.5t-18 0.5t-12 1.5q-6 1 -10 3zM106 342q3 1 7 2t9 2t12 1q6 0 11 -1t8 -2q4 -1 7 -2l-103 -539q-3 -2 -8 -3t-13 -1.5t-19 -0.5t-18 0.5t-12 1.5t-8 3z" />
    <glyph glyph-name="f" unicode="f" horiz-adv-x="346" 
d="M166 586q7 36 21 66.5t36.5 52t55.5 33.5t79 12q23 0 41 -3t31 -6q15 -4 27 -8q-8 -33 -31 -53q-9 2 -20 5q-10 2 -23.5 4t-30.5 2q-28 0 -47 -6.5t-32 -19t-21 -31.5t-13 -43l-14 -65h141q0 -5 0.5 -12t-1.5 -17q-2 -9 -5.5 -16t-5.5 -12h-141l-99 -464q-4 -2 -9 -3
t-12 -1.5t-16 -0.5q-10 0 -16 0.5t-11 1.5t-8 3l99 464h-68q-1 5 -0.5 12t2.5 17q5 20 10 28h68l13 60v0z" />
    <glyph glyph-name="five" unicode="5" horiz-adv-x="523" 
d="M182 389q4 1 23 3t47 2q117 0 162 -57t24 -158q-21 -97 -91.5 -143t-200.5 -46q-42 0 -71 4.5t-48 10.5q-22 6 -35 15q2 14 10.5 29.5t20.5 24.5q16 -7 35 -11q17 -4 40.5 -7t52.5 -3q91 0 144 32.5t69 105.5q7 33 3.5 59.5t-20 44.5t-49 27.5t-84.5 9.5
q-38 0 -71.5 -3.5t-45.5 -4.5l75 356h342q5 -33 -13 -65h-271z" />
    <glyph glyph-name="five.denom" horiz-adv-x="299" 
d="M87 211q75 0 110 -24t22 -85q-23 -107 -159 -107q-21 0 -37.5 2.5t-27.5 5.5q-13 4 -22 9q2 22 20 36q9 -3 20 -6q22 -5 51 -5q48 0 72.5 16t30.5 48q9 40 -14.5 53.5t-80.5 13.5h-42l37 175h184q2 -11 -1 -22.5t-8 -21.5h-136z" />
    <glyph glyph-name="five.num" horiz-adv-x="299" 
d="M160 557q75 0 110 -24t22 -85q-11 -55 -51.5 -81t-107.5 -26q-21 0 -37.5 2.5t-27.5 5.5q-13 4 -22 9q2 10 7 19.5t14 16.5q9 -3 20 -6q20 -5 50 -5q48 0 72.5 16t31.5 48q8 40 -15.5 53.5t-80.5 13.5h-42l37 175h184q2 -11 -0.5 -22.5t-8.5 -21.5h-136z" />
    <glyph glyph-name="fiveeighths" unicode="&#x215d;" horiz-adv-x="753" 
d="M623 697q3 1 7 2t8.5 2t12.5 1q7 0 12 -1t8 -2q4 -1 6 -2l-536 -703l-8 -2q-10 -2 -21 -2t-19 2q-4 1 -7 2zM337 689q2 -11 -0.5 -22.5t-8.5 -21.5h-137l-19 -88q75 0 110.5 -24t22.5 -85q-11 -55 -51.5 -81t-107.5 -26q-21 0 -37.5 2.5t-27.5 5.5q-13 4 -22 9
q3 22 20 36q9 -3 20 -6q22 -5 50 -5q48 0 72.5 16t31.5 48q8 40 -15 53.5t-80 13.5h-43l37 175h185zM466 262q8 38 41.5 62t88.5 24q51 0 75.5 -22t16.5 -63q-7 -31 -26.5 -52t-42.5 -34q23 -14 37.5 -33.5t6.5 -53.5q-10 -45 -47 -70t-95 -25q-55 0 -84 23t-18 70
q7 35 31 57.5t50 36.5q-20 13 -30.5 31.5t-3.5 48.5zM640 260q11 50 -53 50q-29 0 -48 -12.5t-24 -33.5q-3 -15 2 -25t15.5 -18t24 -14.5t28.5 -12.5q21 12 35.5 28t19.5 38zM613 87q4 17 -3 28.5t-19 20t-28 15.5t-30 14l-14.5 -9t-20 -15t-19.5 -21.5t-12 -28.5
q-6 -29 11 -42.5t53 -13.5q30 0 53.5 13t28.5 39z" />
    <glyph glyph-name="fiveinferior" unicode="&#x2085;" horiz-adv-x="298" 
d="M66 115q75 0 110 -24t22 -85q-11 -55 -51.5 -81t-107.5 -26q-21 0 -37.5 2.5t-27.5 5.5q-13 4 -22 9q2 10 7 19.5t14 16.5q9 -3 20 -6q20 -5 50 -5q48 0 72.5 16t31.5 48q8 40 -15.5 53.5t-80.5 13.5h-42l37 175h184q2 -11 -0.5 -22.5t-8.5 -21.5h-136z" />
    <glyph glyph-name="florin" unicode="&#x192;" horiz-adv-x="452" 
d="M146 13q-25 -77 -67.5 -115.5t-116.5 -38.5q-20 0 -36.5 3t-28.5 7q-14 4 -25 11q6 30 30 48q8 -3 19 -6q20 -5 49 -5q37 0 62.5 20t42.5 73l123 397h-89q-1 3 -1 7v9t2 12l3.5 10.5t3.5 8.5t4 7h94l24 76q24 78 65.5 116t115.5 38q22 0 38.5 -3t28.5 -6q13 -4 24 -9
q-6 -28 -28 -49q-10 2 -21 5q-10 2 -22.5 4t-27.5 2q-38 0 -62 -21t-41 -75l-24 -78h93q1 -3 1 -7v-9t-2 -11q-2 -7 -3.5 -11.5t-3.5 -8.5t-4 -7h-99z" />
    <glyph glyph-name="four" unicode="4" horiz-adv-x="575" 
d="M441 674q4 1 10 3q5 1 12 2t17 1q9 0 15 -1t11 -2q4 -2 8 -3l-93 -438h96q0 -4 1 -8q0 -4 0.5 -9t-1.5 -13t-4 -13t-4 -9t-4 -7h-96l-37 -171q-5 -2 -10 -3q-9 -3 -26 -3t-26 3q-5 1 -8 3l37 171h-326q-1 3 -2 7q-2 9 2 22q3 15 7 22q2 4 5 8zM101 236h250l72 340z" />
    <glyph glyph-name="four.denom" horiz-adv-x="326" 
d="M252 128q1 -4 1.5 -9t-1.5 -11q-3 -12 -8 -19h-40l-18 -86l-10.5 -2t-12.5 -1t-12.5 1t-8.5 2l18 86h-176q0 3 -0.5 7t0.5 9l3.5 9t3.5 7l218 218q10 4 25 4q13 0 23 -4l-45 -211h40zM48 128h120l32 152z" />
    <glyph glyph-name="four.num" horiz-adv-x="326" 
d="M326 474q2 -9 -1 -20q-1 -7 -3.5 -11.5t-4.5 -7.5h-40l-18 -86l-10 -2t-12 -1t-12.5 1t-9.5 2l18 86h-176v7t1 9t2.5 9t3.5 7l219 218q10 4 24 4t24 -4l-45 -211h40zM122 474h120l32 152z" />
    <glyph glyph-name="fourinferior" unicode="&#x2084;" horiz-adv-x="326" 
d="M232 32q2 -8 0 -20q-2 -7 -4.5 -11.5t-4.5 -7.5h-40l-18 -86l-10 -2t-12 -1t-12.5 1t-9.5 2l18 86h-176v7t1 9t2.5 9t3.5 7l219 218q10 4 24 4t24 -4l-45 -211h40zM28 32h120l32 152z" />
    <glyph glyph-name="fraction" unicode="&#x2044;" horiz-adv-x="131" 
d="M311 697l8 2t9.5 2t13.5 1t13 -1t9 -2t7 -2l-537 -702q-4 -2 -8 -3q-10 -2 -23 -2q-11 0 -21 2q-4 1 -7 3z" />
    <glyph glyph-name="g" unicode="g" horiz-adv-x="555" 
d="M354 62q-29 -35 -71 -53.5t-102 -18.5q-40 0 -71.5 16.5t-50 51t-21.5 89t13 131.5q16 76 40 126t55 79.5t69 41t82 11.5q60 0 91.5 -22t45.5 -57l17 64l8 2t10 2t16 1q9 0 15.5 -1t11.5 -2t8 -2l-106 -495q-15 -70 -36.5 -122t-55 -86t-80.5 -51t-112 -17q-35 0 -61 4.5
t-44 10.5q-21 7 -36 16q4 15 12 28.5t20 22.5q15 -7 33 -11q16 -4 37 -7t45 -3q42 0 74 8.5t57 32t44 65.5t34 109zM122 263q-13 -59 -11.5 -99.5t14.5 -65.5t36.5 -36t56.5 -11q34 0 61 14t47 35t33 46.5t19 48.5l29 134q4 24 2.5 49.5t-13 47t-33 35.5t-55.5 14
q-36 0 -65 -11t-52 -36t-40 -65.5t-29 -99.5z" />
    <glyph glyph-name="g.alt" horiz-adv-x="520" 
d="M130 204q-39 20 -54 64.5t-4 100.5q18 82 75.5 124.5t148.5 42.5q32 0 57.5 -6.5t45.5 -17.5l141 23q2 -13 -1.5 -30t-11.5 -30l-91 -3q12 -21 15 -53t-5 -67q-17 -82 -72 -124.5t-148 -42.5q-14 0 -27.5 1t-24.5 4q-12 -13 -28 -32t-21 -42q-6 -29 15 -41.5t55.5 -19
t75 -11.5t73.5 -19.5t51 -43t7 -81.5q-14 -70 -81.5 -110t-189.5 -40q-97 0 -145.5 43t-33.5 115q6 30 20.5 51.5t32 36.5t34 24.5l27.5 15.5q-8 11 -13.5 27.5t-0.5 36.5q7 32 27 55.5t51 48.5zM285 483q-53 0 -92 -30t-52 -92q-14 -62 12.5 -92.5t79.5 -30.5q54 0 92 30
t52 93q13 62 -12.5 92t-79.5 30zM144 -193q84 0 132.5 27.5t59.5 74.5q5 25 -4 41t-27.5 25t-44 13t-53 7.5l-54.5 7t-48 11.5q-32 -20 -54 -48.5t-29 -59.5q-10 -45 23 -72t99 -27z" />
    <glyph glyph-name="gbreve" unicode="&#x11f;" horiz-adv-x="555" 
d="M498 680q-17 -17 -39 -30q-19 -11 -47 -20.5t-63 -9.5t-60.5 9.5t-42.5 20.5q-19 13 -32 30q7 12 17 21.5t24 14.5q10 -11 25 -19q13 -7 31.5 -12.5t44.5 -5.5q25 0 46.5 5.5t37.5 12.5q18 8 33 19q23 -9 25 -36zM354 62q-29 -35 -71 -53.5t-102 -18.5q-40 0 -71.5 16.5
t-50 51t-21.5 89t13 131.5q16 76 40 126t55 79.5t69 41t82 11.5q60 0 91.5 -22t45.5 -57l17 64l8 2t10 2t16 1q9 0 15.5 -1t11.5 -2t8 -2l-106 -495q-15 -70 -36.5 -122t-55 -86t-80.5 -51t-112 -17q-35 0 -61 4.5t-44 10.5q-21 7 -36 16q4 15 12 28.5t20 22.5q15 -7 33 -11
q16 -4 37 -7t45 -3q42 0 74 8.5t57 32t44 65.5t34 109zM122 263q-13 -59 -11.5 -99.5t14.5 -65.5t36.5 -36t56.5 -11q34 0 61 14t47 35t33 46.5t19 48.5l29 134q4 24 2.5 49.5t-13 47t-33 35.5t-55.5 14q-36 0 -65 -11t-52 -36t-40 -65.5t-29 -99.5z" />
    <glyph glyph-name="gbreve.alt" horiz-adv-x="520" 
d="M457 680q-17 -17 -39 -30q-19 -11 -47 -20.5t-63 -9.5t-60.5 9.5t-42.5 20.5q-19 13 -32 30q7 12 17 21.5t24 14.5q10 -11 25 -19q13 -7 31.5 -12.5t44.5 -5.5q25 0 46.5 5.5t37.5 12.5q18 8 33 19q23 -9 25 -36zM130 204q-39 20 -54 64.5t-4 100.5q18 82 75.5 124.5
t148.5 42.5q32 0 57.5 -6.5t45.5 -17.5l141 23q2 -13 -1.5 -30t-11.5 -30l-91 -3q12 -21 15 -53t-5 -67q-17 -82 -72 -124.5t-148 -42.5q-14 0 -27.5 1t-24.5 4q-12 -13 -28 -32t-21 -42q-6 -29 15 -41.5t55.5 -19t75 -11.5t73.5 -19.5t51 -43t7 -81.5q-14 -70 -81.5 -110
t-189.5 -40q-97 0 -145.5 43t-33.5 115q6 30 20.5 51.5t32 36.5t34 24.5l27.5 15.5q-8 11 -13.5 27.5t-0.5 36.5q7 32 27 55.5t51 48.5zM285 483q-53 0 -92 -30t-52 -92q-14 -62 12.5 -92.5t79.5 -30.5q54 0 92 30t52 93q13 62 -12.5 92t-79.5 30zM144 -193q84 0 132.5 27.5
t59.5 74.5q5 25 -4 41t-27.5 25t-44 13t-53 7.5l-54.5 7t-48 11.5q-32 -20 -54 -48.5t-29 -59.5q-10 -45 23 -72t99 -27z" />
    <glyph glyph-name="gcircumflex" unicode="&#x11d;" horiz-adv-x="555" 
d="M487 636q-8 -11 -18 -20.5t-22 -12.5l-93 76l-124 -77q-21 8 -26 34l148 106h25zM354 62q-29 -35 -71 -53.5t-102 -18.5q-40 0 -71.5 16.5t-50 51t-21.5 89t13 131.5q16 76 40 126t55 79.5t69 41t82 11.5q60 0 91.5 -22t45.5 -57l17 64l8 2t10 2t16 1q9 0 15.5 -1
t11.5 -2t8 -2l-106 -495q-15 -70 -36.5 -122t-55 -86t-80.5 -51t-112 -17q-35 0 -61 4.5t-44 10.5q-21 7 -36 16q4 15 12 28.5t20 22.5q15 -7 33 -11q16 -4 37 -7t45 -3q42 0 74 8.5t57 32t44 65.5t34 109zM122 263q-13 -59 -11.5 -99.5t14.5 -65.5t36.5 -36t56.5 -11
q34 0 61 14t47 35t33 46.5t19 48.5l29 134q4 24 2.5 49.5t-13 47t-33 35.5t-55.5 14q-36 0 -65 -11t-52 -36t-40 -65.5t-29 -99.5z" />
    <glyph glyph-name="gcircumflex.alt" horiz-adv-x="520" 
d="M446 636q-8 -11 -18 -20.5t-22 -12.5l-93 76l-124 -77q-21 8 -26 34l148 106h25zM130 204q-39 20 -54 64.5t-4 100.5q18 82 75.5 124.5t148.5 42.5q32 0 57.5 -6.5t45.5 -17.5l141 23q2 -13 -1.5 -30t-11.5 -30l-91 -3q12 -21 15 -53t-5 -67q-17 -82 -72 -124.5
t-148 -42.5q-14 0 -27.5 1t-24.5 4q-12 -13 -28 -32t-21 -42q-6 -29 15 -41.5t55.5 -19t75 -11.5t73.5 -19.5t51 -43t7 -81.5q-14 -70 -81.5 -110t-189.5 -40q-97 0 -145.5 43t-33.5 115q6 30 20.5 51.5t32 36.5t34 24.5l27.5 15.5q-8 11 -13.5 27.5t-0.5 36.5q7 32 27 55.5
t51 48.5zM285 483q-53 0 -92 -30t-52 -92q-14 -62 12.5 -92.5t79.5 -30.5q54 0 92 30t52 93q13 62 -12.5 92t-79.5 30zM144 -193q84 0 132.5 27.5t59.5 74.5q5 25 -4 41t-27.5 25t-44 13t-53 7.5l-54.5 7t-48 11.5q-32 -20 -54 -48.5t-29 -59.5q-10 -45 23 -72t99 -27z" />
    <glyph glyph-name="gcommaaccent" unicode="&#x123;" horiz-adv-x="555" 
d="M404 757l-20 -21q-8 -11 -17 -25t-15 -34q7 -1 12 -1t8 -1q4 -1 6 -2l-14 -64q-4 -1 -10 -2q-5 -1 -12.5 -1h-17.5h-17.5t-12.5 1q-6 1 -11 2l10 44q6 29 20.5 52t28.5 38q17 18 37 30zM354 62q-29 -35 -71 -53.5t-102 -18.5q-40 0 -71.5 16.5t-50 51t-21.5 89t13 131.5
q16 76 40 126t55 79.5t69 41t82 11.5q60 0 91.5 -22t45.5 -57l17 64l8 2t10 2t16 1q9 0 15.5 -1t11.5 -2t8 -2l-106 -495q-15 -70 -36.5 -122t-55 -86t-80.5 -51t-112 -17q-35 0 -61 4.5t-44 10.5q-21 7 -36 16q4 15 12 28.5t20 22.5q15 -7 33 -11q16 -4 37 -7t45 -3
q42 0 74 8.5t57 32t44 65.5t34 109zM122 263q-13 -59 -11.5 -99.5t14.5 -65.5t36.5 -36t56.5 -11q34 0 61 14t47 35t33 46.5t19 48.5l29 134q4 24 2.5 49.5t-13 47t-33 35.5t-55.5 14q-36 0 -65 -11t-52 -36t-40 -65.5t-29 -99.5z" />
    <glyph glyph-name="gcommaaccent.alt" horiz-adv-x="520" 
d="M383 754l-20 -21q-8 -11 -17 -25t-15 -34q7 -1 12 -1t8 -1q4 -1 6 -2l-14 -64q-4 -1 -10 -2q-5 -1 -12.5 -1h-17.5h-17.5t-12.5 1q-6 1 -11 2l10 44q6 29 20.5 52t28.5 38q17 18 37 30zM130 204q-39 20 -54 64.5t-4 100.5q18 82 75.5 124.5t148.5 42.5q32 0 57.5 -6.5
t45.5 -17.5l141 23q2 -13 -1.5 -30t-11.5 -30l-91 -3q12 -21 15 -53t-5 -67q-17 -82 -72 -124.5t-148 -42.5q-14 0 -27.5 1t-24.5 4q-12 -13 -28 -32t-21 -42q-6 -29 15 -41.5t55.5 -19t75 -11.5t73.5 -19.5t51 -43t7 -81.5q-14 -70 -81.5 -110t-189.5 -40q-97 0 -145.5 43
t-33.5 115q6 30 20.5 51.5t32 36.5t34 24.5l27.5 15.5q-8 11 -13.5 27.5t-0.5 36.5q7 32 27 55.5t51 48.5zM285 483q-53 0 -92 -30t-52 -92q-14 -62 12.5 -92.5t79.5 -30.5q54 0 92 30t52 93q13 62 -12.5 92t-79.5 30zM144 -193q84 0 132.5 27.5t59.5 74.5q5 25 -4 41
t-27.5 25t-44 13t-53 7.5l-54.5 7t-48 11.5q-32 -20 -54 -48.5t-29 -59.5q-10 -45 23 -72t99 -27z" />
    <glyph glyph-name="gdotaccent" unicode="&#x121;" horiz-adv-x="555" 
d="M370 635q-4 -2 -10 -3q-5 -1 -12.5 -1.5t-16.5 -0.5q-10 0 -16.5 0.5t-11.5 1.5t-9 3l14 68q4 1 10 2q5 1 12 2t17 1q9 0 16 -1t12 -2t9 -2zM354 62q-29 -35 -71 -53.5t-102 -18.5q-40 0 -71.5 16.5t-50 51t-21.5 89t13 131.5q16 76 40 126t55 79.5t69 41t82 11.5
q60 0 91.5 -22t45.5 -57l17 64l8 2t10 2t16 1q9 0 15.5 -1t11.5 -2t8 -2l-106 -495q-15 -70 -36.5 -122t-55 -86t-80.5 -51t-112 -17q-35 0 -61 4.5t-44 10.5q-21 7 -36 16q4 15 12 28.5t20 22.5q15 -7 33 -11q16 -4 37 -7t45 -3q42 0 74 8.5t57 32t44 65.5t34 109zM122 263
q-13 -59 -11.5 -99.5t14.5 -65.5t36.5 -36t56.5 -11q34 0 61 14t47 35t33 46.5t19 48.5l29 134q4 24 2.5 49.5t-13 47t-33 35.5t-55.5 14q-36 0 -65 -11t-52 -36t-40 -65.5t-29 -99.5z" />
    <glyph glyph-name="gdotaccent.alt" horiz-adv-x="520" 
d="M349 637q-4 -2 -10 -3q-5 -1 -12.5 -1.5t-16.5 -0.5q-10 0 -16.5 0.5t-11.5 1.5t-9 3l14 68q4 1 10 2q5 1 12 2t17 1q9 0 16 -1t12 -2t9 -2zM130 204q-39 20 -54 64.5t-4 100.5q18 82 75.5 124.5t148.5 42.5q32 0 57.5 -6.5t45.5 -17.5l141 23q2 -13 -1.5 -30t-11.5 -30
l-91 -3q12 -21 15 -53t-5 -67q-17 -82 -72 -124.5t-148 -42.5q-14 0 -27.5 1t-24.5 4q-12 -13 -28 -32t-21 -42q-6 -29 15 -41.5t55.5 -19t75 -11.5t73.5 -19.5t51 -43t7 -81.5q-14 -70 -81.5 -110t-189.5 -40q-97 0 -145.5 43t-33.5 115q6 30 20.5 51.5t32 36.5t34 24.5
l27.5 15.5q-8 11 -13.5 27.5t-0.5 36.5q7 32 27 55.5t51 48.5zM285 483q-53 0 -92 -30t-52 -92q-14 -62 12.5 -92.5t79.5 -30.5q54 0 92 30t52 93q13 62 -12.5 92t-79.5 30zM144 -193q84 0 132.5 27.5t59.5 74.5q5 25 -4 41t-27.5 25t-44 13t-53 7.5l-54.5 7t-48 11.5
q-32 -20 -54 -48.5t-29 -59.5q-10 -45 23 -72t99 -27z" />
    <glyph glyph-name="germandbls" unicode="&#xdf;" horiz-adv-x="571" 
d="M134 556q21 100 81.5 147t160.5 47q49 0 82 -15t52 -39.5t23.5 -55.5t-2.5 -63q-8 -34 -22.5 -62t-20.5 -38q-29 0 -55 -10q-22 -8 -42 -26t-27 -50q-6 -27 4 -45.5t27.5 -34.5t38.5 -32t37.5 -36.5t24 -49t-0.5 -68.5q-15 -70 -66.5 -102.5t-128.5 -32.5q-26 0 -45 2.5
t-32 6.5q-15 4 -26 9q2 15 8.5 29.5t19.5 24.5q12 -5 33.5 -9t41.5 -4q54 0 85 23t39 61q7 30 -2.5 51.5t-26.5 39t-37.5 33t-37 34.5t-25.5 43.5t-1 59.5q9 42 30 66t44 36.5t42.5 15.5t25.5 3q3 5 10.5 22t12.5 39q4 23 2 44t-12.5 36.5t-30 25t-50.5 9.5
q-71 0 -109.5 -34.5t-52.5 -100.5l-117 -551q-4 -2 -9 -3t-12 -1.5t-16 -0.5q-10 0 -16 0.5t-11 1.5t-8 3z" />
    <glyph glyph-name="grave" unicode="`" horiz-adv-x="238" 
d="M51 779q11 13 31.5 22t38.5 7l73 -144q-18 -21 -48 -24z" />
    <glyph glyph-name="greater" unicode="&#x3e;" horiz-adv-x="457" 
d="M39 112q-1 3 -1 7v9t2 13t3.5 13t3.5 9l4 8l286 118l-235 120q-1 3 -1 7v9.5t2 13.5t3.5 12.5t3.5 8.5t4 7l289 -145q1 -5 1 -9v-10t-2 -13t-4 -13.5l-4 -10.5q-3 -5 -4 -9z" />
    <glyph glyph-name="greaterequal" unicode="&#x2265;" horiz-adv-x="467" 
d="M67 222q-1 3 -1 7v9t2 13t4 13t4 9l4 8l254 88l-216 90q-1 3 -1 7v9.5t2 13.5t3.5 13t3.5 9t4 7l277 -116q1 -5 1 -9v-10t-2 -13t-4 -13.5l-4 -10.5q-3 -5 -4 -9zM43 108q-1 3 -1 7v9t2 13l3.5 12t3.5 9t4 7h302q1 -3 1 -7v-9t-2 -12q-2 -8 -3.5 -13t-3.5 -9t-4 -7h-302z
" />
    <glyph glyph-name="guillemotleft" unicode="&#xab;" horiz-adv-x="505" 
d="M302 509q9 -8 12.5 -20t3.5 -25l-214 -194l131 -195q-5 -13 -14 -25t-21 -20l-159 208q-2 4 -2 8q-1 6 2 22q2 8 4 13l4 10q3 4 5 9zM462 491q8 -7 12 -18.5t2 -24.5l-194 -178l118 -179q-4 -13 -12.5 -24.5t-19.5 -18.5l-148 192q-1 3 -1 7v9t2 12l3.5 12.5t3.5 9.5l4 8
z" />
    <glyph glyph-name="guillemotright" unicode="&#xbb;" horiz-adv-x="506" 
d="M450 300v-9v-10t-2 -13t-3.5 -13t-3.5 -9l-4 -8l-250 -208q-8 8 -12 20t-3 25l213 195l-130 194q5 13 14 25t20 20zM269 298q1 -4 1 -8v-9.5t-2 -12.5l-3.5 -12t-3.5 -9t-4 -7l-230 -192q-8 7 -11 18.5t-3 24.5l194 179l-118 178q5 13 13 24.5t19 18.5z" />
    <glyph glyph-name="guilsinglleft" unicode="&#x2039;" horiz-adv-x="339" 
d="M302 509q9 -8 12.5 -20t3.5 -25l-214 -194l131 -195q-5 -13 -14 -25t-21 -20l-159 208q-2 4 -2 8q-1 6 2 22q2 8 4 13l4 10q3 4 5 9z" />
    <glyph glyph-name="guilsinglright" unicode="&#x203a;" horiz-adv-x="339" 
d="M282 300q1 -5 1 -9v-10t-2 -13t-4 -13t-4 -9q-3 -4 -4 -8l-249 -208q-9 8 -12.5 20t-2.5 25l213 195l-130 194q5 13 13.5 25t20.5 20z" />
    <glyph glyph-name="h" unicode="h" horiz-adv-x="550" 
d="M409 5q-5 -2 -10 -3t-12 -1.5t-15 -0.5q-10 0 -16 0.5t-11 1.5t-8 3l78 367q23 104 -86 104q-42 0 -84.5 -24t-74.5 -67l-81 -380q-5 -2 -10 -3t-11.5 -1.5t-15.5 -0.5q-10 0 -16 0.5t-11 1.5t-8 3l157 740q4 1 9 2t11.5 2t16.5 1q9 0 15 -1t11 -2t9 -2l-61 -282
q38 37 79 55t94 18q37 0 64.5 -12t44.5 -33.5t22.5 -52t-2.5 -66.5z" />
    <glyph glyph-name="hbar" unicode="&#x127;" horiz-adv-x="550" 
d="M185 463q38 37 79 55t94 18q37 0 64.5 -12t44.5 -33.5t22.5 -52t-2.5 -66.5l-78 -367q-5 -2 -10 -3t-12 -1.5t-15 -0.5q-10 0 -16 0.5t-11 1.5t-8 3l78 367q23 104 -86 104q-42 0 -84.5 -24t-74.5 -67l-81 -380q-5 -2 -10 -3t-11.5 -1.5t-15.5 -0.5q-10 0 -16 0.5
t-11 1.5t-8 3l130 614h-68q-2 11 0.5 24.5t9.5 24.5h69l16 77q4 1 9 2t11.5 2t16.5 1q9 0 15 -1t11 -2t9 -2l-17 -77h139q5 -23 -10 -49h-139l-34 -156v0z" />
    <glyph glyph-name="hcircumflex" unicode="&#x125;" horiz-adv-x="550" 
d="M366 798q-8 -11 -17.5 -20t-22.5 -13l-91 76l-121 -76q-23 9 -26 33l145 104h25zM409 5q-5 -2 -10 -3t-12 -1.5t-15 -0.5q-10 0 -16 0.5t-11 1.5t-8 3l78 367q23 104 -86 104q-42 0 -84.5 -24t-74.5 -67l-81 -380q-5 -2 -10 -3t-11.5 -1.5t-15.5 -0.5q-10 0 -16 0.5
t-11 1.5t-8 3l157 740q4 1 9 2t11.5 2t16.5 1q9 0 15 -1t11 -2t9 -2l-61 -282q38 37 79 55t94 18q37 0 64.5 -12t44.5 -33.5t22.5 -52t-2.5 -66.5z" />
    <glyph glyph-name="hungarumlaut" unicode="&#x2dd;" horiz-adv-x="386" 
d="M48 640q-30 3 -39 24l131 144q20 2 38 -6.5t25 -22.5zM206 640q-31 3 -38 24l131 144q20 2 37.5 -6.5t24.5 -22.5z" />
    <glyph glyph-name="hyphen" unicode="-" horiz-adv-x="357" 
d="M71 262q-1 3 -1 7v9t2 12q1 7 3 12t4 9t4 7h196q1 -3 1 -7t-0.5 -9t-1.5 -12l-3.5 -12t-3.5 -9t-4 -7h-196z" />
    <glyph glyph-name="i" unicode="i" horiz-adv-x="239" 
d="M232 640q-5 -2 -11 -3q-5 -1 -13 -1.5t-18 -0.5q-11 0 -18.5 0.5t-12.5 1.5q-6 1 -9 3l16 73q4 1 10 2q5 1 13 2t19 1q10 0 17.5 -1t12.5 -2q6 -1 10 -2zM92 5q-5 -2 -10 -3t-11.5 -1.5t-15.5 -0.5q-17 0 -27 2q-5 1 -8 3l110 516q4 1 9 2t11.5 2t16.5 1q9 0 15 -1t11 -2
t9 -2z" />
    <glyph glyph-name="iacute" unicode="&#xed;" horiz-adv-x="239" 
d="M161 607q-31 3 -38 24l135 144q19 2 36 -6.5t22 -22.5zM92 5q-5 -2 -10 -3t-11.5 -1.5t-15.5 -0.5q-17 0 -27 2q-5 1 -8 3l110 516q4 1 9 2t11.5 2t16.5 1q9 0 15 -1t11 -2t9 -2z" />
    <glyph glyph-name="ibreve" unicode="&#x12d;" horiz-adv-x="239" 
d="M341 682q-16 -17 -38 -30q-19 -11 -47 -20.5t-63 -9.5t-60.5 9.5t-42.5 20.5q-19 13 -33 30q6 12 16 21.5t24 13.5q11 -10 26 -18q13 -7 31.5 -12.5t44.5 -5.5q25 0 46 5.5t37 12.5q18 8 33 18q24 -8 26 -35zM92 5q-5 -2 -10 -3t-11.5 -1.5t-15.5 -0.5q-17 0 -27 2
q-5 1 -8 3l110 516q4 1 9 2t11.5 2t16.5 1q9 0 15 -1t11 -2t9 -2z" />
    <glyph glyph-name="icircumflex" unicode="&#xee;" horiz-adv-x="239" 
d="M333 636q-8 -11 -18 -20.5t-22 -12.5l-93 76l-124 -77q-21 8 -27 34l147 106h25zM92 5q-5 -2 -10 -3t-11.5 -1.5t-15.5 -0.5q-17 0 -27 2q-5 1 -8 3l110 516q4 1 9 2t11.5 2t16.5 1q9 0 15 -1t11 -2t9 -2z" />
    <glyph glyph-name="idieresis" unicode="&#xef;" horiz-adv-x="239" 
d="M145 634l-10 -2t-12 -1.5t-16 -0.5t-15.5 0.5t-11.5 1.5t-8 2l14 66q4 1 9 2t12 1.5t16 0.5t15.5 -0.5t11.5 -1.5t9 -2zM303 634l-10 -2t-11.5 -1.5t-15.5 -0.5q-10 0 -16 0.5t-11 1.5t-9 2l14 66l10 2t11.5 1.5t16.5 0.5q9 0 15 -0.5t11 -1.5t9 -2zM92 5q-5 -2 -10 -3
t-11.5 -1.5t-15.5 -0.5q-17 0 -27 2q-5 1 -8 3l110 516q4 1 9 2t11.5 2t16.5 1q9 0 15 -1t11 -2t9 -2z" />
    <glyph glyph-name="igrave" unicode="&#xec;" horiz-adv-x="239" 
d="M103 748q11 13 32 22t38 7l74 -144q-18 -21 -49 -24zM92 5q-5 -2 -10 -3t-11.5 -1.5t-15.5 -0.5q-17 0 -27 2q-5 1 -8 3l110 516q4 1 9 2t11.5 2t16.5 1q9 0 15 -1t11 -2t9 -2z" />
    <glyph glyph-name="ij" unicode="&#x133;" horiz-adv-x="462" 
d="M232 640q-5 -2 -11 -3q-5 -1 -13 -1.5t-18 -0.5q-11 0 -18.5 0.5t-12.5 1.5q-6 1 -9 3l16 73q4 1 10 2q5 1 13 2t19 1q10 0 17.5 -1t12.5 -2q6 -1 10 -2zM92 5q-5 -2 -10 -3t-11.5 -1.5t-15.5 -0.5q-17 0 -27 2q-5 1 -8 3l110 516q4 1 9 2t11.5 2t16.5 1q9 0 15 -1t11 -2
t9 -2zM454 642q-5 -2 -11 -3q-11 -3 -30 -3q-22 0 -31 3q-6 1 -9 3l16 73q4 1 10 2q5 1 13 2t19 1q10 0 17 -1t12 -2l10 -2zM353 521q4 1 9 2t11.5 2t16.5 1q9 0 15 -1t11 -2t9 -2l-130 -609q-17 -82 -62 -122t-112 -40q-16 0 -27 1t-19 3q-9 2 -14 5q-1 2 -1 5q0 7 1 12
q2 9 5 16l5 12q3 5 6 9q4 -1 10 -2q5 -1 12.5 -1.5t16.5 -0.5q42 0 68.5 23t37.5 76z" />
    <glyph glyph-name="imacron" unicode="&#x12b;" horiz-adv-x="239" 
d="M101 648q-1 11 1 23.5t9 23.5h186q1 -11 -1.5 -23.5t-8.5 -23.5h-186zM92 5q-5 -2 -10 -3t-11.5 -1.5t-15.5 -0.5q-17 0 -27 2q-5 1 -8 3l110 516q4 1 9 2t11.5 2t16.5 1q9 0 15 -1t11 -2t9 -2z" />
    <glyph glyph-name="infinity" unicode="&#x221e;" horiz-adv-x="816" 
d="M550 158q-46 0 -74.5 18t-45.5 41q-19 26 -29 60q-24 -34 -54 -60q-26 -23 -62.5 -41t-82.5 -18q-45 0 -74.5 14.5t-46 38t-21 53.5t2.5 61t24 61t43.5 53.5t62 38t80.5 14.5q46 0 74.5 -18.5t45.5 -41.5q19 -26 28 -60q24 34 56 60q26 23 63 41.5t81 18.5
q45 0 74.5 -14.5t46 -38t20.5 -53.5t-3 -61t-23.5 -61t-43 -53.5t-62 -38t-80.5 -14.5zM212 215q37 0 66.5 17t50.5 38q25 24 44 55q-7 30 -21 55q-13 20 -35 37.5t-59 17.5q-31 0 -54.5 -10t-40.5 -25.5t-27 -35.5t-14 -39q-4 -20 -2 -39.5t12 -35t29.5 -25.5t50.5 -10z
M610 435q-37 0 -66.5 -17.5t-50.5 -37.5q-25 -25 -44 -55q6 -31 21 -55q12 -21 34.5 -38t59.5 -17q31 0 54.5 10t40.5 25.5t27 35t14 39.5q4 19 2 39t-12 35.5t-29.5 25.5t-50.5 10z" />
    <glyph glyph-name="integral" unicode="&#x222b;" horiz-adv-x="496" 
d="M269 559q16 76 61 119t117 43q22 0 40.5 -4.5t33 -11t25 -13l16.5 -10.5q-11 -30 -35 -44q-20 14 -43.5 22t-50.5 6q-38 -2 -65.5 -26t-39.5 -80l-125 -590q-18 -85 -65 -123t-113 -38q-38 0 -66 14.5t-42 24.5q9 29 35 44q16 -12 39.5 -22t52.5 -8q15 1 30 6.5t28.5 18
t24 33t17.5 50.5z" />
    <glyph glyph-name="iogonek" unicode="&#x12f;" horiz-adv-x="239" 
d="M159 684q4 1 10 2q5 1 13 2t19 1q10 0 17.5 -1t12.5 -2q6 -1 10 -2l-15 -73q-5 -2 -11 -3q-5 -1 -13 -1.5t-18 -0.5q-11 0 -18.5 0.5t-12.5 1.5q-6 1 -9 3zM91 0q-48 -42 -75.5 -86.5t-20.5 -77.5q2 -12 12 -19.5t25 -7.5q13 0 26.5 4t24.5 9q8 -8 11 -22t1 -28
q-38 -22 -88 -22q-37 0 -56 16.5t-24 41.5q-4 23 1.5 48t19 50.5t33.5 49.5t45 44h-8l112 521q4 1 9 2t11.5 2t16.5 1q9 0 15 -1t11 -2t9 -2z" />
    <glyph glyph-name="itilde" unicode="&#x129;" horiz-adv-x="239" 
d="M245 674q9 0 16.5 4.5t13.5 9.5q7 6 13 14q8 -4 13.5 -13t4.5 -20q-2 -3 -6 -10t-12 -15t-20 -14t-28 -6t-28 5t-22 11.5t-20 11.5t-22 5q-9 0 -17 -4.5t-13 -9.5q-7 -6 -12 -13q-9 5 -14.5 13.5t-3.5 19.5q1 3 5.5 10t12.5 14.5t19.5 13t27.5 5.5t28 -5t22 -11t20 -11
t22 -5zM92 5q-5 -2 -10 -3t-11.5 -1.5t-15.5 -0.5q-17 0 -27 2q-5 1 -8 3l110 516q4 1 9 2t11.5 2t16.5 1q9 0 15 -1t11 -2t9 -2z" />
    <glyph glyph-name="j" unicode="j" horiz-adv-x="239" 
d="M231 642q-5 -2 -11 -3q-11 -3 -30 -3q-22 0 -31 3q-6 1 -9 3l16 73q4 1 10 2q5 1 13 2t19 1q10 0 17 -1t12 -2l10 -2zM130 521q4 1 9 2t11.5 2t16.5 1q9 0 15 -1t11 -2t9 -2l-130 -609q-17 -82 -62 -122t-112 -40q-16 0 -27 1t-19 3q-9 2 -14 5q-1 2 -1 5q0 7 1 12
q2 9 5 16l5 12q3 5 6 9q4 -1 10 -2q5 -1 12.5 -1.5t16.5 -0.5q42 0 68.5 23t37.5 76z" />
    <glyph glyph-name="jcircumflex" unicode="&#x135;" horiz-adv-x="239" 
d="M328 618q-8 -12 -18 -21.5t-23 -12.5l-93 77l-124 -78q-21 9 -26 35l152 105h26zM130 521q4 1 9 2t11.5 2t16.5 1q9 0 15 -1t11 -2t9 -2l-130 -609q-17 -82 -62 -122t-112 -40q-16 0 -27 1t-19 3q-9 2 -14 5q-1 2 -1 5q0 7 1 12q2 9 5 16l5 12q3 5 6 9q4 -1 10 -2
q5 -1 12.5 -1.5t16.5 -0.5q42 0 68.5 23t37.5 76z" />
    <glyph glyph-name="k" unicode="k" horiz-adv-x="498" 
d="M425 521l14 2q6 1 14 2t18 1q8 0 14 -1t11 -2t9 -2l-214 -249l128 -266q-6 -2 -12 -3q-11 -3 -30 -3q-16 0 -25 3q-5 1 -10 3l-112 240h-90l-51 -241q-5 -2 -10 -3t-11.5 -1.5t-14.5 -0.5q-9 0 -15.5 0.5t-11.5 1.5t-9 3l158 741l10 2t11.5 1.5t15.5 0.5q8 0 14 -0.5
t11 -1.5l10 -2l-95 -443h85z" />
    <glyph glyph-name="kcommaaccent" unicode="&#x137;" horiz-adv-x="498" 
d="M113 -216q10 9 21 23q8 11 17.5 28.5t16.5 40.5q-8 0 -12.5 1t-7.5 2q-4 1 -6 2l15 73q5 1 11 2q5 1 12.5 2t17.5 1t17.5 -1t12.5 -2q6 -1 10 -2l-10 -50q-8 -35 -23 -61.5t-30 -43.5q-18 -20 -38 -35zM425 521l14 2q6 1 14 2t18 1q8 0 14 -1t11 -2t9 -2l-214 -249
l128 -266q-6 -2 -12 -3q-11 -3 -30 -3q-16 0 -25 3q-5 1 -10 3l-112 240h-90l-51 -241q-5 -2 -10 -3t-11.5 -1.5t-14.5 -0.5q-9 0 -15.5 0.5t-11.5 1.5t-9 3l158 741l10 2t11.5 1.5t15.5 0.5q8 0 14 -0.5t11 -1.5l10 -2l-95 -443h85z" />
    <glyph glyph-name="kgreenlandic" unicode="&#x138;" horiz-adv-x="506" 
d="M284 306l145 -298l-12 -4t-13.5 -3t-18.5 -1q-20 0 -27 3q-4 1 -6 3l-124 248l-107 -100l-32 -148q-17 -6 -36 -6q-10 0 -19.5 1.5t-16.5 4.5l110 516q15 4 38 4q11 0 20 -1t14 -3l-56 -263l282 263q10 2 25.5 3t26.5 1t21 -1t18 -4z" />
    <glyph glyph-name="l" unicode="l" horiz-adv-x="243" 
d="M94 5q-5 -2 -10 -3t-11.5 -1.5t-15.5 -0.5q-17 0 -27 2q-5 1 -8 3l157 740q4 1 9 2t11.5 2t16.5 1q9 0 15 -1t11 -2t9 -2z" />
    <glyph glyph-name="lacute" unicode="&#x13a;" horiz-adv-x="243" 
d="M198 777q-14 2 -24 7.5t-14 16.5l135 144q19 2 36 -6.5t22 -22.5zM94 5q-5 -2 -10 -3t-11.5 -1.5t-15.5 -0.5q-17 0 -27 2q-5 1 -8 3l157 740q4 1 9 2t11.5 2t16.5 1q9 0 15 -1t11 -2t9 -2z" />
    <glyph glyph-name="lcaron" unicode="&#x13e;" horiz-adv-x="251" 
d="M300 582q-24 3 -30 19q37 32 55.5 66.5t24.5 80.5q43 9 62 -7q-11 -47 -40.5 -91.5t-71.5 -67.5zM94 5q-5 -2 -10 -3t-11.5 -1.5t-15.5 -0.5q-17 0 -27 2q-5 1 -8 3l157 740q4 1 9 2t11.5 2t16.5 1q9 0 15 -1t11 -2t9 -2z" />
    <glyph glyph-name="lcommaaccent" unicode="&#x13c;" horiz-adv-x="243" 
d="M95 5q-5 -2 -10 -3t-11.5 -1.5t-15.5 -0.5q-17 0 -27 2q-5 1 -8 3l157 740q4 1 9 2t11.5 2t16.5 1q9 0 15 -1t11 -2t9 -2zM-36 -216q10 10 21 24q8 12 17.5 29t16.5 40q-8 0 -12.5 1t-7.5 2q-4 1 -6 2l15 73q5 1 11 2q5 1 12.5 2t17.5 1t17.5 -1t12.5 -2q6 -1 10 -2
l-10 -50q-8 -35 -23 -61t-30 -44q-18 -21 -38 -36z" />
    <glyph glyph-name="ldot" unicode="&#x140;" horiz-adv-x="318" 
d="M94 5q-5 -2 -10 -3t-11.5 -1.5t-15.5 -0.5q-17 0 -27 2q-5 1 -8 3l157 740q4 1 9 2t11.5 2t16.5 1q9 0 15 -1t11 -2t9 -2zM319 302q-5 -2 -10 -3q-11 -3 -28 -3q-19 0 -28 3q-5 1 -8 3l14 65q4 1 9 2t12 2t17 1q9 0 15.5 -1t11.5 -2t9 -2z" />
    <glyph glyph-name="less" unicode="&#x3c;" horiz-adv-x="457" 
d="M46 257q-1 4 -1 9q0 9 3 24q2 8 3.5 13t3.5 10q2 4 4 9l351 145q1 -3 1 -7v-8.5t-2 -12.5l-3.5 -13.5t-3.5 -9.5t-4 -7l-287 -120l236 -118q1 -4 1 -8v-9t-2 -13t-3.5 -13t-3.5 -9t-4 -7z" />
    <glyph glyph-name="lessequal" unicode="&#x2264;" horiz-adv-x="470" 
d="M89 337q-1 4 -1 9q0 9 3 24q2 8 3.5 13t3.5 10q2 4 4 9l327 116q1 -3 1 -7v-9t-2 -13l-3.5 -13.5t-3.5 -9.5t-4 -7l-256 -90l218 -88q1 -4 1 -8q0 -7 -3 -22q-2 -8 -3.5 -13t-3.5 -9t-4 -7zM40 108q-1 3 -1 7v9t2 13l3.5 12t3.5 9t4 7h302q1 -3 1 -7v-9t-2 -12
q-2 -8 -3.5 -13t-3.5 -9t-4 -7h-302z" />
    <glyph glyph-name="logicalnot" unicode="&#xac;" horiz-adv-x="600" 
d="M491 181q-4 -2 -9 -4q-9 -3 -24 -3q-16 0 -23 3q-4 2 -7 4l42 196h-394l-2 8q-2 9 1 22q2 8 4.5 13t4.5 10q3 4 5 9h457z" />
    <glyph glyph-name="longs" unicode="&#x17f;" horiz-adv-x="279" 
d="M114 5q-4 -2 -9 -3t-12 -1.5t-16 -0.5q-10 0 -16 0.5t-11 1.5t-8 3l99 464h-71q0 30 12 57h71l13 60q7 36 21 66.5t36.5 52t55.5 33.5t79 12q23 0 41 -3t31 -6q15 -4 27 -8q-8 -33 -31 -53q-9 2 -20 5q-10 2 -23.5 4t-30.5 2q-28 0 -47 -7t-32 -20.5t-21 -32t-13 -40.5z
" />
    <glyph glyph-name="lozenge" unicode="&#x25ca;" horiz-adv-x="552" 
d="M57 352l285 344h32l141 -344l-288 -345h-32zM340 613l-211 -262l100 -262l216 262z" />
    <glyph glyph-name="lslash" unicode="&#x142;" horiz-adv-x="329" 
d="M218 745q4 1 9 2t11.5 2t16.5 1q9 0 15 -1t11 -2t9 -2l-62 -293l91 46q2 -1 5.5 -5t6.5 -13q3 -10 3 -16.5v-8.5l-118 -61l-83 -389q-5 -2 -10 -3t-11.5 -1.5t-15.5 -0.5q-17 0 -27 2q-5 1 -8 3l74 347l-85 -43q-6 2 -13 18q-4 10 -4 16t1 8l113 59l71 335v0z" />
    <glyph glyph-name="m" unicode="m" horiz-adv-x="835" 
d="M472 449q39 42 81.5 64.5t98.5 22.5q35 0 61 -12.5t41.5 -34.5t20.5 -51t-2 -63l-79 -370q-5 -2 -10 -3t-11.5 -1.5t-15.5 -0.5q-10 0 -16 0.5t-11 1.5t-8 3l78 367q22 104 -77 104q-39 0 -79 -23t-72 -69l-81 -379q-5 -2 -10 -3t-11.5 -1.5t-15.5 -0.5q-10 0 -16 0.5
t-11 1.5t-8 3l78 367q22 104 -77 104q-38 0 -79 -24t-71 -67l-81 -380q-5 -2 -10 -3t-11.5 -1.5t-15.5 -0.5q-10 0 -16 0.5t-11 1.5t-8 3l110 516q4 1 9 2t11.5 2t16.5 1q9 0 15 -1t11 -2t9 -2l-13 -62q35 36 74 56.5t89 20.5q46 0 81 -20.5t42 -66.5z" />
    <glyph glyph-name="macron" unicode="&#xaf;" horiz-adv-x="407" 
d="M28 630q-6 25 10 49h300q2 -11 -1 -24.5t-9 -24.5h-300z" />
    <glyph glyph-name="minus" unicode="&#x2212;" horiz-adv-x="469" 
d="M84 301q-1 3 -1 7v9t2 13l3.5 12.5t3.5 9.5t4 7h297v-7v-9.5t-2 -12.5q-2 -8 -3.5 -13t-3.5 -9t-3 -7h-297z" />
    <glyph glyph-name="mu" unicode="&#xb5;" horiz-adv-x="583" 
d="M460 521q4 1 9 2t11.5 2t16.5 1q9 0 15.5 -1t11.5 -2t8 -2l-110 -516q-4 -2 -9 -3t-12 -1.5t-16 -0.5q-10 0 -16 0.5t-11 1.5t-8 3l13 59q-35 -35 -77 -54.5t-89 -19.5q-43 0 -65.5 12.5t-33.5 29.5q-13 -74 -18 -124t-6 -82q-1 -37 2 -59q-17 -13 -40 -16t-40 3
q-2 20 1 53q2 28 8.5 72t20.5 107l114 535q4 1 9 2t12 2t16 1q10 0 16 -1t11 -2l8 -2l-79 -368q-5 -22 -3 -41t12 -32.5t29 -21.5t50 -8q23 0 46 7.5t43.5 20.5t38 29t30.5 34l81 380v0z" />
    <glyph glyph-name="multiply" unicode="&#xd7;" horiz-adv-x="461" 
d="M77 131q-3 1 -7 4q-3 2 -6.5 5.5t-6.5 8.5q-8 8 -11 16q-2 4 -2 8l140 116l-91 116q1 3 5 7l7.5 7.5t10.5 9.5q5 5 10.5 8.5t9.5 5.5q4 3 8 4l91 -116l141 116q3 -1 7 -4q6 -5 13 -14q5 -5 7 -9.5t4 -7.5q2 -4 2 -7l-141 -116l92 -116q-2 -4 -6 -8q-7 -8 -17 -16
q-6 -5 -11 -8.5t-9 -5.5q-4 -3 -8 -4l-92 116z" />
    <glyph glyph-name="n" unicode="n" horiz-adv-x="550" 
d="M409 5q-5 -2 -10 -3t-12 -1.5t-15 -0.5q-10 0 -16 0.5t-11 1.5t-8 3l78 367q23 104 -86 104q-42 0 -84.5 -24t-74.5 -67l-81 -380q-5 -2 -10 -3t-11.5 -1.5t-15.5 -0.5q-10 0 -16 0.5t-11 1.5t-8 3l110 516q4 1 9 2t11.5 2t16.5 1q9 0 15 -1t11 -2t9 -2l-14 -63
q38 37 80 57.5t93 20.5q37 0 64.5 -11.5t45 -32.5t22.5 -51.5t-3 -68.5z" />
    <glyph glyph-name="nacute" unicode="&#x144;" horiz-adv-x="550" 
d="M300 607q-31 3 -38 24l135 144q19 2 36 -6.5t22 -22.5zM409 5q-5 -2 -10 -3t-12 -1.5t-15 -0.5q-10 0 -16 0.5t-11 1.5t-8 3l78 367q23 104 -86 104q-42 0 -84.5 -24t-74.5 -67l-81 -380q-5 -2 -10 -3t-11.5 -1.5t-15.5 -0.5q-10 0 -16 0.5t-11 1.5t-8 3l110 516q4 1 9 2
t11.5 2t16.5 1q9 0 15 -1t11 -2t9 -2l-14 -63q38 37 80 57.5t93 20.5q37 0 64.5 -11.5t45 -32.5t22.5 -51.5t-3 -68.5z" />
    <glyph glyph-name="napostrophe" unicode="&#x149;" horiz-adv-x="550" 
d="M167 585q-21 4 -27 22q39 29 61 62t33 80q43 3 60 -14q-16 -47 -50 -89t-77 -61zM409 5q-5 -2 -10 -3t-12 -1.5t-15 -0.5q-10 0 -16 0.5t-11 1.5t-8 3l78 367q23 104 -86 104q-42 0 -84.5 -24t-74.5 -67l-81 -380q-5 -2 -10 -3t-11.5 -1.5t-15.5 -0.5q-10 0 -16 0.5
t-11 1.5t-8 3l110 516q4 1 9 2t11.5 2t16.5 1q9 0 15 -1t11 -2t9 -2l-14 -63q38 37 80 57.5t93 20.5q37 0 64.5 -11.5t45 -32.5t22.5 -51.5t-3 -68.5z" />
    <glyph glyph-name="ncaron" unicode="&#x148;" horiz-adv-x="550" 
d="M468 728q11 -3 16.5 -11.5t8.5 -20.5l-137 -97h-23l-106 97q14 26 38 33l85 -73zM409 5q-5 -2 -10 -3t-12 -1.5t-15 -0.5q-10 0 -16 0.5t-11 1.5t-8 3l78 367q23 104 -86 104q-42 0 -84.5 -24t-74.5 -67l-81 -380q-5 -2 -10 -3t-11.5 -1.5t-15.5 -0.5q-10 0 -16 0.5
t-11 1.5t-8 3l110 516q4 1 9 2t11.5 2t16.5 1q9 0 15 -1t11 -2t9 -2l-14 -63q38 37 80 57.5t93 20.5q37 0 64.5 -11.5t45 -32.5t22.5 -51.5t-3 -68.5z" />
    <glyph glyph-name="ncommaaccent" unicode="&#x146;" horiz-adv-x="550" 
d="M122 -218q10 9 20 23q8 11 17.5 28.5t16.5 40.5q-7 0 -12 1t-8 2q-4 1 -6 2l16 74q5 1 11 2q5 1 12.5 2t18.5 1q10 0 17 -1t12 -2l10 -2l-11 -51q-8 -35 -23 -61.5t-30 -43.5q-18 -21 -38 -35zM409 5q-5 -2 -10 -3t-12 -1.5t-15 -0.5q-10 0 -16 0.5t-11 1.5t-8 3l78 367
q23 104 -86 104q-42 0 -84.5 -24t-74.5 -67l-81 -380q-5 -2 -10 -3t-11.5 -1.5t-15.5 -0.5q-10 0 -16 0.5t-11 1.5t-8 3l110 516q4 1 9 2t11.5 2t16.5 1q9 0 15 -1t11 -2t9 -2l-14 -63q38 37 80 57.5t93 20.5q37 0 64.5 -11.5t45 -32.5t22.5 -51.5t-3 -68.5z" />
    <glyph glyph-name="nine" unicode="9" 
d="M53 0q-6 30 13 59q57 6 107 22t91 45t74.5 72t57.5 102q-26 -14 -59.5 -25t-81.5 -11q-43 0 -78.5 13.5t-59 41.5t-32 70.5t3.5 99.5q12 53 35.5 91t57 62.5t75.5 36t91 11.5t86 -15.5t59 -48t27 -83t-10 -120.5q-23 -105 -65 -182.5t-101 -129t-132.5 -79t-158.5 -32.5z
M159 477q-17 -82 14.5 -118t92.5 -36q24 0 47.5 4.5t43.5 11t36.5 14t26.5 13.5q5 14 8.5 29l7.5 32q23 109 -4.5 157t-96.5 48q-63 0 -111 -38t-65 -117z" />
    <glyph glyph-name="nine.denom" horiz-adv-x="309" 
d="M19 240q6 27 19 47.5t32 34t41.5 20t46.5 6.5q58 0 82 -36t8 -109q-19 -88 -79 -142.5t-162 -63.5q-4 8 -2 19.5t9 20.5q59 6 102.5 34.5t64.5 80.5q-11 -5 -30 -10.5t-45 -5.5q-49 0 -73.5 26.5t-13.5 77.5zM197 196q11 55 -0.5 83.5t-47.5 28.5q-30 0 -51 -18t-28 -50
q-6 -29 6.5 -46.5t44.5 -17.5q29 0 47.5 7.5t28.5 12.5z" />
    <glyph glyph-name="nine.num" horiz-adv-x="308" 
d="M92 586q6 27 19 47.5t31.5 34t41 20t46.5 6.5q58 0 82 -36t9 -109q-19 -88 -79.5 -142.5t-161.5 -63.5q-4 8 -2 19.5t8 20.5q59 6 102.5 34.5t65.5 80.5q-12 -5 -31 -10.5t-45 -5.5q-49 0 -73 26.5t-13 77.5zM269 542q23 112 -47 112q-30 0 -51 -18t-28 -50
q-7 -29 6 -46.5t45 -17.5q29 0 47.5 7.5t27.5 12.5z" />
    <glyph glyph-name="nineinferior" unicode="&#x2089;" horiz-adv-x="308" 
d="M-2 144q6 27 19 47.5t32 34t41.5 20t46.5 6.5q58 0 81.5 -36t8.5 -109q-19 -88 -79.5 -142.5t-161.5 -63.5q-4 8 -2 19.5t8 20.5q59 7 102.5 35t65.5 80q-12 -5 -31 -10.5t-45 -5.5q-49 0 -73 26.5t-13 77.5zM175 100q23 112 -47 112q-30 0 -51 -18t-28 -50
q-7 -29 6 -46.5t45 -17.5q29 0 47.5 7.5t27.5 12.5z" />
    <glyph glyph-name="notequal" unicode="&#x2260;" horiz-adv-x="483" 
d="M101 82q-5 -2 -12.5 -3.5t-17.5 -1.5q-8 0 -14 1.5t-10 3.5l71 92h-78q-1 5 -1 11.5t2 16.5q2 11 5.5 17.5t5.5 11.5h109l90 118h-174q-2 11 1 29q2 10 5.5 16.5l5.5 10.5h205l65 84q5 2 12.5 3.5t16.5 1.5q8 0 14.5 -1.5t10.5 -3.5l-65 -84h87q1 -4 1 -10.5t-2 -16.5
t-5.5 -17t-5.5 -12h-118l-90 -118h183q1 -5 1 -11.5t-2 -16.5t-5.5 -17t-5.5 -12h-215z" />
    <glyph glyph-name="ntilde" unicode="&#xf1;" horiz-adv-x="550" 
d="M218 669q8 12 19 23q10 9 25.5 16.5t36.5 7.5q20 0 35 -5.5t27.5 -11.5l24 -11.5t26.5 -5.5q11 0 20.5 4.5t16.5 10.5q8 6 14 15q11 -5 18 -14.5t7 -20.5q-9 -13 -20 -24q-11 -9 -26 -16t-36 -7q-20 0 -35 5.5t-27.5 11.5l-24 11.5t-26.5 5.5q-11 0 -20.5 -5t-16.5 -10
q-8 -7 -14 -15q-24 12 -24 35zM409 5q-5 -2 -10 -3t-12 -1.5t-15 -0.5q-10 0 -16 0.5t-11 1.5t-8 3l78 367q23 104 -86 104q-42 0 -84.5 -24t-74.5 -67l-81 -380q-5 -2 -10 -3t-11.5 -1.5t-15.5 -0.5q-10 0 -16 0.5t-11 1.5t-8 3l110 516q4 1 9 2t11.5 2t16.5 1q9 0 15 -1
t11 -2t9 -2l-14 -63q38 37 80 57.5t93 20.5q37 0 64.5 -11.5t45 -32.5t22.5 -51.5t-3 -68.5z" />
    <glyph glyph-name="_300" horiz-adv-x="0" 
 />
    <glyph glyph-name="numbersign" unicode="#" horiz-adv-x="655" 
d="M560 617q16 6 33 6q19 0 31 -6l-68 -136h90q1 -6 1 -13t-2 -15q-3 -17 -11 -31h-106l-114 -230h87q0 -2 0.5 -9.5t-1.5 -19.5q-3 -12 -6.5 -20t-5.5 -10h-104l-62 -127q-5 -2 -14 -4t-20 -2t-18 2t-13 4l63 127h-154l-63 -127q-5 -2 -14 -4t-20 -2t-18 2t-12 4l62 127
h-93q0 2 -0.5 9.5t1.5 19.5q3 14 6.5 21t5.5 9h110l114 230h-91q-2 11 1 30t11 29h107l68 136q16 6 33 6q19 0 31 -6l-67 -136h154zM196 192h154l113 230h-154z" />
    <glyph glyph-name="o" unicode="o" horiz-adv-x="539" 
d="M51 280q16 74 40.5 123.5t58.5 79t76 41.5t92 12t86 -17t56.5 -52.5t23.5 -89.5t-13 -128t-41 -124t-59 -80t-76.5 -42.5t-92.5 -12.5t-86 17.5t-55.5 53.5t-22.5 90.5t13 128.5zM400 263q13 63 11.5 104.5t-14.5 66t-37 35t-56 10.5t-60 -10.5t-51.5 -35t-41.5 -66
t-31 -104.5t-12 -104.5t14.5 -66t37.5 -35t56 -10.5t60 10.5t51 35t41.5 66t31.5 104.5z" />
    <glyph glyph-name="oacute" unicode="&#xf3;" horiz-adv-x="539" 
d="M389 775q19 2 36 -6.5t22 -22.5l-155 -139q-31 3 -38 24zM51 280q16 74 40.5 123.5t58.5 79t76 41.5t92 12t86 -17t56.5 -52.5t23.5 -89.5t-13 -128t-41 -124t-59 -80t-76.5 -42.5t-92.5 -12.5t-86 17.5t-55.5 53.5t-22.5 90.5t13 128.5zM400 263q13 63 11.5 104.5
t-14.5 66t-37 35t-56 10.5t-60 -10.5t-51.5 -35t-41.5 -66t-31 -104.5t-12 -104.5t14.5 -66t37.5 -35t56 -10.5t60 10.5t51 35t41.5 66t31.5 104.5z" />
    <glyph glyph-name="obreve" unicode="&#x14f;" horiz-adv-x="539" 
d="M348 684q25 0 46.5 5.5t37.5 12.5q18 8 33 19q12 -4 18 -13.5t8 -22.5q-17 -17 -39 -29q-19 -11 -47 -20t-63 -9t-60.5 9t-42.5 20q-19 12 -32 29q6 12 16 21.5t24 14.5q10 -11 25 -19q13 -7 31.5 -12.5t44.5 -5.5zM51 280q16 74 40.5 123.5t58.5 79t76 41.5t92 12
t86 -17t56.5 -52.5t23.5 -89.5t-13 -128t-41 -124t-59 -80t-76.5 -42.5t-92.5 -12.5t-86 17.5t-55.5 53.5t-22.5 90.5t13 128.5zM400 263q13 63 11.5 104.5t-14.5 66t-37 35t-56 10.5t-60 -10.5t-51.5 -35t-41.5 -66t-31 -104.5t-12 -104.5t14.5 -66t37.5 -35t56 -10.5
t60 10.5t51 35t41.5 66t31.5 104.5z" />
    <glyph glyph-name="ocircumflex" unicode="&#xf4;" horiz-adv-x="539" 
d="M478 636q-8 -11 -18 -20.5t-22 -12.5l-93 76l-124 -77q-12 5 -18 13.5t-9 20.5l147 104h25zM51 280q16 74 40.5 123.5t58.5 79t76 41.5t92 12t86 -17t56.5 -52.5t23.5 -89.5t-13 -128t-41 -124t-59 -80t-76.5 -42.5t-92.5 -12.5t-86 17.5t-55.5 53.5t-22.5 90.5t13 128.5
zM400 263q13 63 11.5 104.5t-14.5 66t-37 35t-56 10.5t-60 -10.5t-51.5 -35t-41.5 -66t-31 -104.5t-12 -104.5t14.5 -66t37.5 -35t56 -10.5t60 10.5t51 35t41.5 66t31.5 104.5z" />
    <glyph glyph-name="odieresis" unicode="&#xf6;" horiz-adv-x="539" 
d="M236 704q4 1 9 2t11.5 1.5t16.5 0.5q9 0 15.5 -0.5t11.5 -1.5t9 -2l-14 -66l-10 -2t-11.5 -1.5t-15.5 -0.5q-10 0 -16 0.5t-11 1.5t-9 2zM394 704q4 1 9 2t11.5 1.5t16.5 0.5q9 0 15.5 -0.5t11.5 -1.5t9 -2l-14 -66l-10 -2t-11.5 -1.5t-15.5 -0.5q-10 0 -16 0.5t-11 1.5
t-9 2zM51 280q16 74 40.5 123.5t58.5 79t76 41.5t92 12t86 -17t56.5 -52.5t23.5 -89.5t-13 -128t-41 -124t-59 -80t-76.5 -42.5t-92.5 -12.5t-86 17.5t-55.5 53.5t-22.5 90.5t13 128.5zM400 263q13 63 11.5 104.5t-14.5 66t-37 35t-56 10.5t-60 -10.5t-51.5 -35t-41.5 -66
t-31 -104.5t-12 -104.5t14.5 -66t37.5 -35t56 -10.5t60 10.5t51 35t41.5 66t31.5 104.5z" />
    <glyph glyph-name="oe" unicode="&#x153;" horiz-adv-x="813" 
d="M446 240q-17 -103 7 -146t92 -43q26 0 49 5t40 11q19 7 36 16q9 -8 12.5 -21t1.5 -28q-18 -12 -43 -22q-21 -8 -52 -15t-70 -7q-116 0 -135 108q-35 -56 -80.5 -82t-105.5 -26q-49 0 -84.5 16.5t-55 51.5t-22.5 89t13 128t41 124t58.5 80.5t75 43.5t90.5 13
q60 0 93 -25.5t44 -83.5q35 57 82 83t101 26q87 0 122.5 -51.5t16.5 -142.5q-5 -23 -11 -41.5t-11 -32.5q-6 -16 -11 -28h-294zM302 479q-31 0 -58.5 -10.5t-50.5 -35t-41.5 -66t-31.5 -104.5q-14 -63 -13 -104.5t13.5 -66t35.5 -35t54 -10.5q32 0 58 10.5t47 35.5t38 66.5
t30 104.5t14 104t-9.5 66t-32 35t-53.5 10zM706 351q5 25 4 48t-10.5 40.5t-28.5 27.5t-50 10q-56 0 -97 -42.5t-67 -140.5h232q2 4 7 19t10 38z" />
    <glyph glyph-name="ogonek" unicode="&#x2db;" horiz-adv-x="283" 
d="M227 0q-25 -15 -50 -37t-44.5 -45t-30.5 -45.5t-9 -38.5q2 -13 11.5 -19t20.5 -6q13 0 26.5 4t24.5 9q8 -8 11 -22t1 -28q-38 -22 -88 -22q-32 0 -52.5 14.5t-23.5 44.5q-3 24 7 49.5t28.5 50.5t44.5 48t56 43h67z" />
    <glyph glyph-name="ograve" unicode="&#xf2;" horiz-adv-x="539" 
d="M379 631q-17 -20 -47 -23l-97 138q11 13 30 22t38 7zM51 280q16 74 40.5 123.5t58.5 79t76 41.5t92 12t86 -17t56.5 -52.5t23.5 -89.5t-13 -128t-41 -124t-59 -80t-76.5 -42.5t-92.5 -12.5t-86 17.5t-55.5 53.5t-22.5 90.5t13 128.5zM400 263q13 63 11.5 104.5t-14.5 66
t-37 35t-56 10.5t-60 -10.5t-51.5 -35t-41.5 -66t-31 -104.5t-12 -104.5t14.5 -66t37.5 -35t56 -10.5t60 10.5t51 35t41.5 66t31.5 104.5z" />
    <glyph glyph-name="ohungarumlaut" unicode="&#x151;" horiz-adv-x="539" 
d="M337 736q18 2 34 -5.5t22 -18.5l-123 -107q-29 5 -36 21zM482 736q18 2 34.5 -5.5t22.5 -18.5l-123 -107q-29 5 -36 21zM51 280q16 74 40.5 123.5t58.5 79t76 41.5t92 12t86 -17t56.5 -52.5t23.5 -89.5t-13 -128t-41 -124t-59 -80t-76.5 -42.5t-92.5 -12.5t-86 17.5
t-55.5 53.5t-22.5 90.5t13 128.5zM400 263q13 63 11.5 104.5t-14.5 66t-37 35t-56 10.5t-60 -10.5t-51.5 -35t-41.5 -66t-31 -104.5t-12 -104.5t14.5 -66t37.5 -35t56 -10.5t60 10.5t51 35t41.5 66t31.5 104.5z" />
    <glyph glyph-name="omacron" unicode="&#x14d;" horiz-adv-x="539" 
d="M470 694q2 -11 -1 -24.5t-9 -24.5h-242q-2 26 10 49h242zM51 280q16 74 40.5 123.5t58.5 79t76 41.5t92 12t86 -17t56.5 -52.5t23.5 -89.5t-13 -128t-41 -124t-59 -80t-76.5 -42.5t-92.5 -12.5t-86 17.5t-55.5 53.5t-22.5 90.5t13 128.5zM400 263q13 63 11.5 104.5
t-14.5 66t-37 35t-56 10.5t-60 -10.5t-51.5 -35t-41.5 -66t-31 -104.5t-12 -104.5t14.5 -66t37.5 -35t56 -10.5t60 10.5t51 35t41.5 66t31.5 104.5z" />
    <glyph glyph-name="one" unicode="1" horiz-adv-x="401" 
d="M79 530q131 33 227 144l9 3q5 1 11.5 2t15.5 1t15 -1t11 -2l9 -3l-142 -668q-4 -2 -9 -3q-9 -3 -29 -3q-18 0 -27 3q-5 1 -9 3l93 438q9 42 17.5 76t16.5 58q-45 -42 -98.5 -69t-106.5 -40q-8 11 -10 27.5t6 33.5z" />
    <glyph glyph-name="one.denom" horiz-adv-x="243" 
d="M18 274q37 9 68.5 27t54.5 39q12 3 26 3t22 -3l-71 -337q-11 -3 -24 -3q-15 0 -25 3l50 236q2 12 4.5 22t4.5 19q-23 -16 -50 -28t-56 -18q-5 7 -6.5 18t2.5 22z" />
    <glyph glyph-name="one.num" horiz-adv-x="258" 
d="M91 620q36 9 68 27t55 39q10 3 25 3q14 0 23 -3l-72 -337q-9 -3 -23 -3q-7 0 -13 0.5t-13 2.5l50 236q3 12 5 22t5 19q-23 -16 -50 -28t-57 -18q-11 15 -3 40z" />
    <glyph glyph-name="oneeighth" unicode="&#x215b;" horiz-adv-x="709" 
d="M579 697q3 1 7 2t8.5 2t12.5 1q7 0 12 -1t8 -2q4 -1 6 -2l-536 -703l-8 -2q-10 -2 -21 -2t-19 2q-4 1 -7 2zM222 685q9 4 25 4q6 0 12 -1t11 -3l-72 -336q-11 -3 -23 -3q-7 0 -13.5 0.5t-13.5 2.5l50 236q3 12 5 21.5t5 18.5q-23 -16 -49.5 -28t-56.5 -18q-6 7 -6.5 18.5
t3.5 22.5q36 9 68 26.5t55 38.5zM422 262q8 38 41.5 62t88.5 24q51 0 75.5 -22t16.5 -63q-7 -31 -26.5 -52t-42.5 -34q23 -14 37.5 -33.5t6.5 -53.5q-10 -45 -47 -70t-95 -25q-55 0 -84 23t-18 70q7 35 31 57.5t50 36.5q-20 13 -30.5 31.5t-3.5 48.5zM596 260q11 50 -53 50
q-29 0 -48 -12.5t-24 -33.5q-3 -15 2 -25t15.5 -18t24 -14.5t28.5 -12.5q21 12 35.5 28t19.5 38zM569 87q4 17 -3 28.5t-19 20t-28 15.5t-30 14l-14.5 -9t-20 -15t-19.5 -21.5t-12 -28.5q-6 -29 11 -42.5t53 -13.5q30 0 53.5 13t28.5 39z" />
    <glyph glyph-name="onehalf" unicode="&#xbd;" horiz-adv-x="706" 
d="M576 697q3 1 7 2t8.5 2t12.5 1q7 0 12 -1t8 -2q4 -1 6 -2l-536 -703l-8 -2q-10 -2 -21 -2t-19 2q-4 1 -7 2zM223 685q9 4 25 4q6 0 12 -1t11 -3l-72 -336q-11 -3 -23 -3q-7 0 -13.5 0.5t-13.5 2.5l50 236q3 12 5 21.5t5 18.5q-23 -16 -49.5 -28t-56.5 -18q-6 7 -6.5 18.5
t3.5 22.5q36 9 68 26.5t55 38.5zM459 334l27 7l29.5 4.5t36.5 2.5q58 0 82.5 -25.5t15.5 -69.5q-7 -30 -23.5 -50t-39 -34t-47 -25t-47.5 -24t-41.5 -31t-26.5 -45h171q2 -5 2 -11t-1 -11q-3 -12 -10 -22h-217q0 6 1 12q1 5 1.5 12.5t2.5 16.5q7 34 25 56.5t41.5 38t49 27
t48 23.5t38.5 26.5t21 37.5q5 24 -9 40t-54 16q-24 0 -46 -4t-26 -6q-10 16 -4 38z" />
    <glyph glyph-name="oneinferior" unicode="&#x2081;" horiz-adv-x="243" 
d="M-2 178q36 9 68 27t55 39q10 3 25 3q14 0 23 -3l-72 -337q-9 -3 -23 -3q-7 0 -13 0.5t-14 2.5l50 236l5.5 22t4.5 19q-22 -16 -49 -28t-57 -18q-11 15 -3 40z" />
    <glyph glyph-name="onequarter" unicode="&#xbc;" horiz-adv-x="653" 
d="M576 697q3 1 7 2t8.5 2t12.5 1q7 0 12 -1t8 -2q4 -1 6 -2l-536 -703l-8 -2q-10 -2 -21 -2t-19 2q-4 1 -7 2zM100 620q36 9 68 26.5t55 38.5q9 4 25 4q6 0 12 -1t11 -3l-72 -336q-11 -3 -23 -3q-7 0 -13.5 0.5t-13.5 2.5l50 236q3 12 5 21.5t5 18.5q-23 -16 -49.5 -28
t-56.5 -18q-6 7 -6.5 18.5t3.5 22.5zM571 128q0 -4 0.5 -9t-1.5 -11q-2 -7 -3.5 -11.5t-3.5 -7.5h-41l-18 -86l-10 -2t-12 -1q-8 0 -13 1t-9 2l18 86h-175q0 2 -0.5 6t0.5 9q4 12 7 17l217 218q5 2 11 3t14 1t13.5 -1t9.5 -3l-45 -211h41zM366 128h120l32 152z" />
    <glyph glyph-name="onesuperior" unicode="&#xb9;" horiz-adv-x="242" 
d="M91 620q36 9 68 26.5t55 38.5q9 4 25 4q6 0 12 -1t11 -3l-72 -336q-9 -3 -23 -3q-7 0 -13 0.5t-13 2.5l50 236q3 12 5 21.5t5 18.5q-23 -16 -50 -28t-57 -18q-5 7 -6 18.5t3 22.5z" />
    <glyph glyph-name="ordfeminine" unicode="&#xaa;" horiz-adv-x="360" 
d="M143 608q16 6 34 11q15 4 34.5 7.5t41.5 3.5q60 0 80 -27t9 -81l-46 -216q-2 -1 -6 -2q-8 -2 -16 -2t-14 2q-3 1 -5 2l2 37q-20 -23 -47.5 -35t-61.5 -12q-43 0 -64 25.5t-10 73.5q20 96 136 96q27 0 47.5 -1.5t26.5 -2.5l7 32q15 67 -53 67q-17 0 -33 -2.5t-28 -5.5
l-27 -7q-12 15 -7 37zM277 450q-7 0 -26.5 1.5t-42.5 1.5q-72 0 -84 -58q-7 -31 6 -44.5t41 -13.5q38 0 64.5 24.5t35.5 63.5zM280 244q2 -22 -9 -43h-233q-2 23 9 43h233z" />
    <glyph glyph-name="ordmasculine" unicode="&#xba;" horiz-adv-x="376" 
d="M89 463q19 89 60 128t107 39q65 0 90.5 -38.5t6.5 -128.5t-61 -129t-107 -39t-90 39t-6 129zM300 463q15 70 2 97.5t-55 27.5t-66.5 -27.5t-39.5 -97.5q-15 -71 -2 -98t55 -27t66.5 27t39.5 98zM292 244q2 -8 -1 -21q-3 -14 -8 -22h-236q-2 9 1 22q3 12 8 21h236z" />
    <glyph glyph-name="oslash" unicode="&#xf8;" horiz-adv-x="537" 
d="M456 472q23 -35 27 -90t-13 -133q-16 -74 -41 -124t-59 -80t-76.5 -42.5t-92.5 -12.5q-66 0 -104 28l-51 -63q-13 1 -23 7t-17 16l59 74q-47 73 -15 228q16 74 40.5 123.5t58.5 79t76 41.5t92 12q67 0 108 -30l51 65q14 -2 24.5 -8.5t16.5 -14.5zM303 479
q-32 0 -60 -10.5t-51.5 -35t-41.5 -66t-31 -104.5q-11 -52 -12 -89t7 -62l268 341q-14 14 -34 20t-45 6zM215 47q32 0 60 10.5t51 35t41.5 66t31.5 104.5q19 96 6 145l-266 -338q14 -13 33.5 -18t42.5 -5z" />
    <glyph glyph-name="oslashacute" unicode="&#x1ff;" horiz-adv-x="538" 
d="M293 607q-31 3 -38 24l135 144q19 2 36 -6.5t22 -22.5zM456 472q23 -35 27 -90t-13 -133q-16 -74 -41 -124t-59 -80t-76.5 -42.5t-92.5 -12.5q-66 0 -104 28l-51 -63q-13 1 -23 7t-17 16l59 74q-47 73 -15 228q16 74 40.5 123.5t58.5 79t76 41.5t92 12q67 0 108 -30
l51 65q14 -2 24.5 -8.5t16.5 -14.5zM303 479q-32 0 -60 -10.5t-51.5 -35t-41.5 -66t-31 -104.5q-11 -52 -12 -89t7 -62l268 341q-14 14 -34 20t-45 6zM215 47q32 0 60 10.5t51 35t41.5 66t31.5 104.5q19 96 6 145l-266 -338q14 -13 33.5 -18t42.5 -5z" />
    <glyph glyph-name="otilde" unicode="&#xf5;" horiz-adv-x="539" 
d="M209 663q8 12 19 23q10 9 25.5 16.5t36.5 7.5q20 0 35 -5.5t27.5 -11.5l24 -11.5t26.5 -5.5q11 0 20.5 4.5t16.5 9.5q8 6 14 15q24 -8 24 -34q-9 -13 -20 -24q-10 -9 -25 -16t-36 -7q-20 0 -35 5.5t-27.5 12l-24 12t-26.5 5.5q-11 0 -20.5 -5t-16.5 -10q-8 -7 -15 -15
q-23 11 -23 34zM51 280q16 74 40.5 123.5t58.5 79t76 41.5t92 12t86 -17t56.5 -52.5t23.5 -89.5t-13 -128t-41 -124t-59 -80t-76.5 -42.5t-92.5 -12.5t-86 17.5t-55.5 53.5t-22.5 90.5t13 128.5zM400 263q13 63 11.5 104.5t-14.5 66t-37 35t-56 10.5t-60 -10.5t-51.5 -35
t-41.5 -66t-31 -104.5t-12 -104.5t14.5 -66t37.5 -35t56 -10.5t60 10.5t51 35t41.5 66t31.5 104.5z" />
    <glyph glyph-name="p" unicode="p" horiz-adv-x="556" 
d="M185 458q30 37 71.5 57.5t95.5 20.5q44 0 76.5 -16t51.5 -50.5t21.5 -89t-13.5 -130.5q-16 -77 -41 -127t-57.5 -79.5t-71 -41.5t-82.5 -12q-51 0 -85.5 22t-48.5 56l-64 -302q-4 -2 -9 -3t-12 -1.5t-16 -0.5q-10 0 -16 0.5t-11 1.5t-8 3l161 755q4 1 9 2t11.5 2t16.5 1
q9 0 15 -1t10 -2t6 -2zM415 263q12 59 12.5 99.5t-11.5 65.5t-36 36t-61 11q-32 0 -58.5 -12.5t-47 -33t-35 -46.5t-20.5 -54l-28 -129q-5 -24 -1 -50.5t16.5 -48t33.5 -36t50 -14.5q37 0 65.5 11t51 36t39.5 65.5t30 99.5z" />
    <glyph glyph-name="paragraph" unicode="&#xb6;" horiz-adv-x="521" 
d="M192 406q-35 1 -59 13.5t-37 33t-16.5 46.5t2.5 53q7 28 22 54.5t37.5 47t52.5 33t66 12.5h54l-196 -922l-8 -2q-10 -2 -22 -2q-15 0 -23 2q-4 1 -6 2zM305 -223l-8 -2q-10 -2 -23 -2q-14 0 -22 2q-4 1 -6 2l195 918q3 1 7 2q10 2 23 2q8 0 13 -0.5t9 -1.5t7 -2z" />
    <glyph glyph-name="parenleft" unicode="(" horiz-adv-x="287" 
d="M337 803q6 -4 9.5 -8t5.5 -7q3 -4 4 -7q-47 -56 -90 -126q-37 -60 -74.5 -144.5t-59.5 -190.5q-23 -106 -21.5 -191t12.5 -145q12 -70 37 -125q-3 -4 -7 -8l-9 -7t-12 -7q-8 -4 -13 -5l-10 -2t-9 -1q-28 63 -43 140q-7 33 -11.5 72t-5 83.5t4 93.5t15.5 102
q23 106 63.5 196t82.5 156q48 77 102 139q5 0 9 -1q10 -2 20 -7z" />
    <glyph glyph-name="parenright" unicode=")" horiz-adv-x="287" 
d="M162 320q22 106 20.5 190.5t-12.5 144.5q-12 70 -36 126l7 7q4 3 8.5 7t12.5 8q7 3 12.5 4.5t10.5 2.5t9 1q27 -62 42 -139q13 -65 16 -155.5t-19 -196.5q-23 -106 -64 -195.5t-82 -155.5q-48 -77 -101 -140q-4 0 -9 1l-10.5 2t-10.5 5q-6 3 -9.5 7t-5.5 7q-3 4 -3 8
q46 55 89 125q36 60 74 145t61 191z" />
    <glyph glyph-name="partialdiff" unicode="&#x2202;" horiz-adv-x="555" 
d="M218 688q0 37 23 62q171 -23 232 -131t19 -306q-20 -92 -48 -154t-64 -99.5t-80.5 -53.5t-95.5 -16q-50 0 -86.5 14.5t-58 46t-26 81t10.5 120.5t40.5 120.5t59 81t74.5 46t88 14.5q48 0 79.5 -16.5t49.5 -42.5q-2 45 -15.5 83.5t-39.5 68.5t-66.5 51t-95.5 30zM429 379
q-14 38 -49.5 57.5t-80.5 19.5q-32 0 -59 -9.5t-49.5 -32.5t-40.5 -62.5t-31 -99.5t-11 -99.5t15.5 -63t37 -33t55.5 -9.5q79 0 124 54.5t65 150.5l13 65t11 62z" />
    <glyph glyph-name="percent" unicode="%" horiz-adv-x="751" 
d="M150 -5q-4 -2 -9 -3t-10.5 -1.5t-13.5 -0.5q-13 0 -23 2q-4 1 -7 3l537 702l8 2t10 2t14 1t13.5 -1t9.5 -2t7 -2zM187 345q-63 0 -89.5 39.5t-6.5 133.5q20 93 63.5 133t106.5 40q62 0 89 -39.5t7 -133.5t-64 -133.5t-106 -39.5zM251 644q-18 0 -33 -6t-28 -20.5
t-23 -38.5t-18 -61t-8 -61t6.5 -38.5t19 -20t30.5 -5.5q17 0 32 5.5t27.5 20t23 38.5t18.5 61t8 61t-6.5 38.5t-19 20.5t-29.5 6zM506 -10q-63 0 -89.5 39.5t-6.5 133.5q20 93 63 133t106 40q31 0 53.5 -9.5t35.5 -30t15.5 -53.5t-7.5 -80q-20 -94 -64 -133.5t-106 -39.5z
M569 289q-17 0 -32.5 -6t-28 -20.5t-23 -38.5t-17.5 -61q-8 -37 -8 -61t7 -38.5t19.5 -20t29.5 -5.5t32 5.5t28 20t23 38.5t18 61q7 37 7 61t-6.5 38.5t-19 20.5t-29.5 6z" />
    <glyph glyph-name="period" unicode="." horiz-adv-x="222" 
d="M92 5q-5 -2 -11 -3q-5 -1 -13 -1.5t-18 -0.5q-11 0 -18.5 0.5t-12.5 1.5q-6 1 -9 3l16 73q4 1 10 2q5 1 13 2t19 1q10 0 17.5 -1t12.5 -2q6 -1 10 -2z" />
    <glyph glyph-name="periodcentered" unicode="&#xb7;" horiz-adv-x="225" 
d="M138 252q-5 -2 -11 -3q-11 -3 -28 -3q-18 0 -27 3q-5 1 -8 3l13 65l10 2t11.5 2t16.5 1q9 0 15.5 -1t11.5 -2t9 -2z" />
    <glyph glyph-name="perthousand" unicode="&#x2030;" horiz-adv-x="1073" 
d="M150 -5q-4 -2 -9 -3t-10.5 -1.5t-13.5 -0.5q-13 0 -23 2q-4 1 -7 3l537 702l8 2t10 2t14 1t13.5 -1t9.5 -2t7 -2zM187 345q-63 0 -89.5 39.5t-6.5 133.5q20 93 63.5 133t106.5 40q62 0 89 -39.5t7 -133.5t-64 -133.5t-106 -39.5zM251 644q-18 0 -33 -6t-28 -20.5
t-23 -38.5t-18 -61t-8 -61t6.5 -38.5t19 -20t30.5 -5.5q17 0 32 5.5t27.5 20t23 38.5t18.5 61t8 61t-6.5 38.5t-19 20.5t-29.5 6zM506 -10q-63 0 -89.5 39.5t-6.5 133.5q20 93 63 133t106 40q31 0 53.5 -9.5t35.5 -30t15.5 -53.5t-7.5 -80q-20 -94 -64 -133.5t-106 -39.5z
M830 -10q-63 0 -89 39.5t-6 133.5q20 93 62.5 133t105.5 40q31 0 53.5 -9.5t36 -30t16 -53.5t-7.5 -80q-20 -94 -64.5 -133.5t-106.5 -39.5zM569 289q-17 0 -32.5 -6t-28 -20.5t-23 -38.5t-17.5 -61q-8 -37 -8 -61t7 -38.5t19.5 -20t29.5 -5.5t32 5.5t28 20t23 38.5t18 61
q7 37 7 61t-6.5 38.5t-19 20.5t-29.5 6zM893 289q-17 0 -32 -6t-27.5 -20.5t-23 -38.5t-17.5 -61q-8 -37 -8 -61t6.5 -38.5t19 -20t29.5 -5.5t32 5.5t28 20t23 38.5t18 61q7 37 7 61t-6.5 38.5t-19 20.5t-29.5 6z" />
    <glyph glyph-name="pi" unicode="&#x3c0;" horiz-adv-x="610" 
d="M617 526q1 -7 0.5 -14.5t-2.5 -15.5q-3 -17 -11 -31h-72l-49 -228q-13 -61 -17 -103t-3 -68q1 -31 6 -49q-10 -8 -24.5 -12.5t-29.5 -4.5q-5 0 -12.5 1t-11.5 3q-4 18 -4 50q0 27 4.5 71t18.5 111l49 229h-245l-98 -459q-4 -2 -9 -3q-9 -3 -28 -3q-18 0 -27 3q-5 1 -8 3
l97 456l-30 -3.5t-22 -3.5q-11 -2 -19 -4q-2 16 1 31q2 8 4.5 16t7.5 14q16 3 40 7q20 2 51 4.5t73 2.5h370z" />
    <glyph glyph-name="plus" unicode="+" horiz-adv-x="461" 
d="M48 262q-1 3 -1 7v9t2 12q1 7 3 12t4 9t4 7h145l31 146q3 1 7 2q10 2 21 2t21 -2q4 -1 7 -2l-31 -146h146v-7q0 -4 -0.5 -9t-1.5 -12l-3.5 -12t-3.5 -9t-3 -7h-146l-31 -145q-4 -2 -8 -3q-10 -2 -21 -2q-12 0 -20 2q-4 1 -7 3l31 145h-145z" />
    <glyph glyph-name="plusminus" unicode="&#xb1;" horiz-adv-x="510" 
d="M96 374q-1 3 -1 7v9t2 12l3.5 12t3.5 9t4 7h145l25 116l8 2q10 2 21 2q7 0 11.5 -0.5t8.5 -1.5t7 -2l-25 -116h146v-7v-9t-2 -12q-3 -14 -6 -21q-2 -4 -4 -7h-146l-24 -115q-4 -2 -8 -3q-10 -2 -21 -2q-12 0 -20 2q-4 1 -7 3l24 115h-145zM46 136q-1 3 -1 7v9t2 12
l3.5 12t3.5 9t4 7h347v-7v-9t-2 -12l-3.5 -12t-3.5 -9t-3 -7h-347z" />
    <glyph glyph-name="product" unicode="&#x220f;" horiz-adv-x="715" 
d="M504 -201q-4 -2 -9 -3q-9 -3 -27 -3q-17 0 -24 3q-4 1 -8 3l177 830h-373l-177 -830q-4 -2 -9 -3q-9 -3 -27 -3q-17 0 -24 3q-4 1 -8 3l190 894h509z" />
    <glyph glyph-name="q" unicode="q" horiz-adv-x="554" 
d="M349 61q-32 -37 -69 -54t-94 -17q-41 0 -73 15.5t-51.5 50t-23.5 88t12 130.5q16 76 40 126.5t55 80.5t69 42.5t82 12.5q57 0 90 -20.5t47 -57.5l20 63l8 2t9 2t13 1q9 0 15.5 -1t11.5 -2t9 -2l-161 -755q-4 -2 -9 -3t-12 -1.5t-16 -0.5q-10 0 -16 0.5t-11 1.5t-8 3z
M121 263q-13 -59 -12 -99.5t14 -65.5t37 -36t57 -11q31 0 57 12t47 32.5t35 46t21 52.5l29 135q5 28 0.5 54t-17.5 46.5t-35 33t-51 12.5q-36 0 -64.5 -11t-50.5 -36t-38.5 -65.5t-28.5 -99.5z" />
    <glyph glyph-name="question" unicode="?" horiz-adv-x="429" 
d="M429 524q-11 -49 -31 -81.5t-45.5 -56t-53.5 -42t-53 -40.5t-45 -51.5t-29 -74.5l-8 -4t-9 -3t-13 -1q-12 0 -20 4q-4 2 -7 4q12 55 31.5 90.5t43.5 60t49 42.5t47.5 37.5t40 45t26.5 66.5q11 51 -14 79.5t-90 28.5q-29 0 -52.5 -3.5t-40.5 -8.5q-20 -5 -36 -12
q-22 19 -11 53q20 9 46 16q22 6 51.5 11.5t66.5 5.5q91 0 132 -44t24 -122zM148 5q-5 -2 -11 -3q-5 -1 -13 -1.5t-18 -0.5q-11 0 -18.5 0.5t-12.5 1.5q-6 1 -9 3l16 73q4 1 10 2q5 1 13 2t19 1q10 0 17.5 -1t12.5 -2q6 -1 10 -2z" />
    <glyph glyph-name="questiondown" unicode="&#xbf;" horiz-adv-x="420" 
d="M259 515q5 1 11 2q5 1 12.5 2t17.5 1q11 0 18 -1t12 -2l10 -2l-15 -73q-5 -2 -11 -3q-5 -1 -12.5 -1.5t-18.5 -0.5q-10 0 -17 0.5t-12 1.5q-6 1 -10 3zM-23 -4q11 49 31 81.5t45.5 56t53.5 42t53 40.5t45 51.5t30 74.5q3 1 7 3q4 1 9 2t13 1q7 0 12.5 -1t9.5 -2
q4 -2 7 -3q-12 -55 -32 -90.5t-43.5 -60t-49 -42.5t-48.5 -37.5t-41 -45.5t-26 -66q-11 -51 14 -79.5t90 -28.5q29 0 53 3.5t41 8.5q19 5 35 12q11 -9 14 -23t-2 -30q-20 -10 -46 -17q-22 -6 -52 -11t-66 -5q-91 0 -132.5 44t-24.5 122z" />
    <glyph glyph-name="quotedbl" unicode="&#x22;" horiz-adv-x="330" 
d="M149 715q4 1 9 2t11.5 2t16.5 1q9 0 15.5 -1t11.5 -2t8 -2l-55 -197q-2 -1 -6 -2q-8 -2 -18 -2q-6 0 -10 0.5t-7 1.5q-4 1 -5 2zM279 715q4 1 9 2t11.5 2t16.5 1q9 0 15 -1t11 -2t9 -2l-55 -197q-2 -1 -6 -2q-8 -2 -18 -2q-11 0 -17 2q-4 1 -5 2z" />
    <glyph glyph-name="quotedblbase" unicode="&#x201e;" horiz-adv-x="350" 
d="M-18 -93q10 10 21 24q8 12 17.5 29t16.5 40q-7 0 -12 1t-8 2q-4 1 -6 2l16 73q4 1 10 2q5 1 13 2t19 1q10 0 17 -1t12 -2l10 -2l-11 -50q-8 -35 -23 -61.5t-30 -43.5q-18 -20 -38 -35zM109 -93q10 10 21 24q9 12 18 29t16 40q-7 0 -12 1t-8 2q-4 1 -6 2l16 73q4 1 10 2
q5 1 13 2t19 1q10 0 17 -1t12 -2l10 -2l-11 -50q-8 -35 -23 -61.5t-30 -43.5q-18 -20 -38 -35z" />
    <glyph glyph-name="quotedblright" unicode="&#x201d;" horiz-adv-x="334" 
d="M111 544q10 10 21 24q8 12 17.5 29t16.5 40q-7 0 -12 1t-8 2q-4 1 -6 2l16 73q4 1 10 2q5 1 12.5 2t18.5 1q10 0 17.5 -1t12.5 -2q6 -1 10 -2l-11 -50q-8 -35 -22.5 -61t-30.5 -44q-18 -21 -39 -36zM237 544q10 10 20 24q8 12 17.5 29t16.5 40q-7 0 -11.5 1t-7.5 2
q-4 1 -7 2l16 73q4 1 10 2q5 1 13 2t19 1q10 0 17 -1t12 -2l10 -2l-11 -50q-8 -35 -23 -61t-30 -44q-18 -21 -38 -36z" />
    <glyph glyph-name="quoteleft" unicode="&#x2018;" horiz-adv-x="216" 
d="M237 700q-10 -10 -21 -24q-9 -12 -18.5 -29t-16.5 -40q7 -1 12.5 -1t8.5 -1q4 -1 6 -2l-15 -73q-5 -2 -11 -3q-11 -3 -32 -3q-20 0 -29 3q-5 1 -9 3l10 50q8 35 23 60.5t30 43.5q18 20 38 36z" />
    <glyph glyph-name="quoteright" unicode="&#x2019;" horiz-adv-x="208" 
d="M111 544q10 10 20 24q8 12 17.5 29t16.5 40q-7 0 -12 1t-8 2q-4 1 -6 2l16 73q4 1 10 2q5 1 12.5 2t18.5 1q10 0 17.5 -1t12.5 -2q6 -1 10 -2l-11 -50q-8 -35 -23 -61t-30 -44q-18 -21 -38 -36z" />
    <glyph glyph-name="quotesinglbase" unicode="&#x201a;" horiz-adv-x="223" 
d="M-19 -93q10 10 21 24q9 12 18 29t16 40q-7 0 -11.5 1t-7.5 2q-4 1 -6 2l16 73q4 1 10 2q5 1 12.5 2t18.5 1q10 0 17.5 -1t12.5 -2q6 -1 10 -2l-11 -50q-8 -35 -23.5 -61.5t-30.5 -43.5q-18 -20 -38 -35z" />
    <glyph glyph-name="quotesingle" unicode="'" horiz-adv-x="200" 
d="M149 715q4 1 9 2t11.5 2t16.5 1q9 0 15 -1t11 -2t9 -2l-55 -197q-2 -1 -6 -2q-8 -2 -18 -2q-6 0 -10 0.5t-7 1.5q-4 1 -5 2z" />
    <glyph glyph-name="r" unicode="r" horiz-adv-x="390" 
d="M183 448q22 29 43 46t40.5 26t37.5 12t33 3q32 0 51.5 -8.5t29.5 -15.5q-13 -35 -43 -58q-14 11 -30.5 14t-36.5 3q-35 0 -72 -27.5t-69 -72.5l-78 -365q-4 -2 -9 -3t-12 -1.5t-16 -0.5q-10 0 -16 0.5t-11 1.5t-8 3l110 516q4 1 9 2t11.5 2t16.5 1q9 0 15.5 -1t11.5 -2
t8 -2l-16 -73v0z" />
    <glyph glyph-name="racute" unicode="&#x155;" horiz-adv-x="390" 
d="M347 775q19 2 36 -6.5t22 -22.5l-155 -139q-31 3 -38 24zM183 448q22 29 43 46t40.5 26t37.5 12t33 3q32 0 51.5 -8.5t29.5 -15.5q-13 -35 -43 -58q-14 11 -30.5 14t-36.5 3q-35 0 -72 -27.5t-69 -72.5l-78 -365q-4 -2 -9 -3t-12 -1.5t-16 -0.5q-10 0 -16 0.5t-11 1.5
t-8 3l110 516q4 1 9 2t11.5 2t16.5 1q9 0 15.5 -1t11.5 -2t8 -2z" />
    <glyph glyph-name="radical" unicode="&#x221a;" horiz-adv-x="635" 
d="M163 357l-116 -46q-8 8 -11.5 21.5t2.5 28.5l175 70l73 -357l360 656q16 2 29.5 -1t20.5 -13l-400 -731h-56z" />
    <glyph glyph-name="rcaron" unicode="&#x159;" horiz-adv-x="390" 
d="M396 734q17 -7 24 -32l-135 -100h-23l-108 100q14 24 39 33l87 -73zM183 448q22 29 43 46t40.5 26t37.5 12t33 3q32 0 51.5 -8.5t29.5 -15.5q-13 -35 -43 -58q-14 11 -30.5 14t-36.5 3q-35 0 -72 -27.5t-69 -72.5l-78 -365q-4 -2 -9 -3t-12 -1.5t-16 -0.5q-10 0 -16 0.5
t-11 1.5t-8 3l110 516q4 1 9 2t11.5 2t16.5 1q9 0 15.5 -1t11.5 -2t8 -2z" />
    <glyph glyph-name="rcommaaccent" unicode="&#x157;" horiz-adv-x="390" 
d="M6 -48q5 1 11 2q5 1 12.5 2t18.5 1q10 0 17 -1t12 -2l10 -2l-10 -50q-8 -35 -23 -61t-30 -44q-18 -21 -38 -36l-24 20q10 10 21 24q9 12 18 29t16 40q-7 0 -12 1t-8 2q-4 1 -6 2zM184 448q22 29 43 46t40.5 26t37.5 12t33 3q32 0 51.5 -8.5t29.5 -15.5q-13 -35 -43 -58
q-14 11 -30.5 14t-36.5 3q-35 0 -72 -27.5t-69 -72.5l-78 -365q-4 -2 -9 -3t-12 -1.5t-16 -0.5q-10 0 -16 0.5t-11 1.5t-8 3l110 516q4 1 9 2t11.5 2t16.5 1q9 0 15.5 -1t11.5 -2t8 -2z" />
    <glyph glyph-name="registered" unicode="&#xae;" horiz-adv-x="534" 
d="M256 260q-44 0 -78.5 16.5t-57 45.5t-31 67t0.5 82q9 43 34 81.5t60 67.5t76.5 45.5t85.5 16.5q43 0 78 -16.5t57.5 -45.5t31 -67.5t-0.5 -81.5q-9 -44 -34 -82t-60 -67t-77 -45.5t-85 -16.5zM339 649q-37 0 -72.5 -14t-64.5 -38t-50 -56.5t-29 -69.5t-1 -69.5t26 -56.5
t48.5 -38t66.5 -14t72.5 14t64.5 38t50 56.5t29 69.5t1 69.5t-26 56.5t-48.5 38t-66.5 14zM342 589q36 0 51.5 -18t8.5 -50q-5 -23 -18.5 -38.5t-38.5 -23.5l38 -93q-2 -2 -6 -3q-8 -2 -15 -2q-10 0 -13 1t-5 2l-37 92h-49l-20 -92q-2 -1 -5 -2q-2 -1 -5.5 -1h-6.5
q-9 0 -12 1t-4 2l48 225h89zM318 484q23 0 34.5 10t15.5 27q4 20 -3.5 30t-30.5 10h-54l-16 -77h54z" />
    <glyph glyph-name="ring" unicode="&#x2da;" horiz-adv-x="344" 
d="M124 505q-50 0 -76.5 28.5t-15.5 81.5q6 27 20 47t33 33.5t41 20t45 6.5q22 0 41.5 -6.5t33.5 -20t20.5 -33.5t0.5 -47t-19.5 -47.5t-33 -34.5t-43 -21t-47.5 -7zM219 615q5 26 -8 46t-49 20q-35 0 -56.5 -20.5t-26.5 -45.5q-6 -26 6.5 -46.5t47.5 -20.5q36 0 58.5 21
t27.5 46z" />
    <glyph glyph-name="s" unicode="s" horiz-adv-x="443" 
d="M75 397q14 66 66 102.5t144 36.5q33 0 57.5 -4t40.5 -9q18 -5 32 -12q-2 -14 -10.5 -29t-21.5 -24q-13 4 -29 8q-14 3 -33 6t-41 3q-119 0 -138 -88q-5 -21 2.5 -36t22.5 -26t35.5 -19t42.5 -15q28 -9 52.5 -21t40.5 -30t22.5 -44.5t-1.5 -65.5q-16 -72 -68 -106
t-144 -34q-38 0 -66 5t-48 12q-23 7 -39 17q3 16 11 31.5t21 24.5q17 -8 38 -14q18 -5 41.5 -9t50.5 -4q51 0 87.5 21t46.5 68q5 25 -1.5 41t-21.5 27.5t-35.5 18.5l-42.5 14q-25 7 -48.5 19t-40.5 30t-25 43.5t0 61.5z" />
    <glyph glyph-name="sacute" unicode="&#x15b;" horiz-adv-x="443" 
d="M258 607q-31 3 -38 24l135 144q19 2 36 -6.5t22 -22.5zM75 397q14 66 66 102.5t144 36.5q33 0 57.5 -4t40.5 -9q18 -5 32 -12q-2 -14 -10.5 -29t-21.5 -24q-13 4 -29 8q-14 3 -33 6t-41 3q-119 0 -138 -88q-5 -21 2.5 -36t22.5 -26t35.5 -19t42.5 -15q28 -9 52.5 -21
t40.5 -30t22.5 -44.5t-1.5 -65.5q-16 -72 -68 -106t-144 -34q-38 0 -66 5t-48 12q-23 7 -39 17q3 16 11 31.5t21 24.5q17 -8 38 -14q18 -5 41.5 -9t50.5 -4q51 0 87.5 21t46.5 68q5 25 -1.5 41t-21.5 27.5t-35.5 18.5l-42.5 14q-25 7 -48.5 19t-40.5 30t-25 43.5t0 61.5z
" />
    <glyph glyph-name="scaron" unicode="&#x161;" horiz-adv-x="443" 
d="M185 704q14 24 38 31l85 -71l115 71q10 -4 16 -12t8 -19l-135 -98h-24zM75 397q14 66 66 102.5t144 36.5q33 0 57.5 -4t40.5 -9q18 -5 32 -12q-2 -14 -10.5 -29t-21.5 -24q-13 4 -29 8q-14 3 -33 6t-41 3q-119 0 -138 -88q-5 -21 2.5 -36t22.5 -26t35.5 -19t42.5 -15
q28 -9 52.5 -21t40.5 -30t22.5 -44.5t-1.5 -65.5q-16 -72 -68 -106t-144 -34q-38 0 -66 5t-48 12q-23 7 -39 17q3 16 11 31.5t21 24.5q17 -8 38 -14q18 -5 41.5 -9t50.5 -4q51 0 87.5 21t46.5 68q5 25 -1.5 41t-21.5 27.5t-35.5 18.5l-42.5 14q-25 7 -48.5 19t-40.5 30
t-25 43.5t0 61.5z" />
    <glyph glyph-name="scedilla" unicode="&#x15f;" horiz-adv-x="443" 
d="M75 397q14 66 66 102.5t144 36.5q33 0 57.5 -4t40.5 -9q18 -5 32 -12q-2 -14 -10.5 -29t-21.5 -24q-13 4 -29 8q-14 3 -33 6t-41 3q-119 0 -138 -88q-5 -21 2.5 -36t22.5 -26t35.5 -19t42.5 -15q28 -9 52.5 -21t40.5 -30t22.5 -44.5t-1.5 -65.5q-15 -68 -61.5 -101.5
t-127.5 -37.5l-22 -57q56 0 75 -26.5t11 -65.5q-10 -48 -44.5 -70t-89.5 -22q-20 0 -35.5 3t-26.5 8q-12 5 -21 12q5 22 24 33q4 -2 21 -9t43 -7q31 0 52.5 13.5t27.5 43.5q5 23 -7 36.5t-43 13.5h-34l-8 11l33 83q-32 2 -56.5 7t-41.5 11q-19 7 -34 15q3 16 11 31.5
t21 24.5q17 -8 38 -14q18 -5 41.5 -9t50.5 -4q51 0 87.5 21t46.5 68q5 25 -1.5 41t-21.5 27.5t-35.5 18.5l-42.5 14q-25 7 -48.5 19t-40.5 30t-25 43.5t0 61.5z" />
    <glyph glyph-name="scircumflex" unicode="&#x15d;" horiz-adv-x="443" 
d="M440 630q-8 -12 -18 -21t-22 -13l-93 77l-124 -77q-23 9 -26 34l147 103h25zM75 397q14 66 66 102.5t144 36.5q33 0 57.5 -4t40.5 -9q18 -5 32 -12q-2 -14 -10.5 -29t-21.5 -24q-13 4 -29 8q-14 3 -33 6t-41 3q-119 0 -138 -88q-5 -21 2.5 -36t22.5 -26t35.5 -19
t42.5 -15q28 -9 52.5 -21t40.5 -30t22.5 -44.5t-1.5 -65.5q-16 -72 -68 -106t-144 -34q-38 0 -66 5t-48 12q-23 7 -39 17q3 16 11 31.5t21 24.5q17 -8 38 -14q18 -5 41.5 -9t50.5 -4q51 0 87.5 21t46.5 68q5 25 -1.5 41t-21.5 27.5t-35.5 18.5l-42.5 14q-25 7 -48.5 19
t-40.5 30t-25 43.5t0 61.5z" />
    <glyph glyph-name="scommaaccent" unicode="&#x219;" horiz-adv-x="443" 
d="M60 -239q11 10 21 24q8 12 17 29t16 40q-7 0 -11.5 1t-7.5 2q-4 1 -7 2l16 73q5 1 11 2q5 1 12.5 2t18.5 1q10 0 17.5 -1t12.5 -2t9 -2l-11 -50q-8 -35 -23 -61.5t-30 -43.5q-18 -20 -38 -35zM75 397q14 66 66 102.5t144 36.5q33 0 57.5 -4t40.5 -9q18 -5 32 -12
q-2 -14 -10.5 -29t-21.5 -24q-13 4 -29 8q-14 3 -33 6t-41 3q-119 0 -138 -88q-5 -21 2.5 -36t22.5 -26t35.5 -19t42.5 -15q28 -9 52.5 -21t40.5 -30t22.5 -44.5t-1.5 -65.5q-16 -72 -68 -106t-144 -34q-38 0 -66 5t-48 12q-23 7 -39 17q3 16 11 31.5t21 24.5q17 -8 38 -14
q18 -5 41.5 -9t50.5 -4q51 0 87.5 21t46.5 68q5 25 -1.5 41t-21.5 27.5t-35.5 18.5l-42.5 14q-25 7 -48.5 19t-40.5 30t-25 43.5t0 61.5z" />
    <glyph glyph-name="section" unicode="&#xa7;" horiz-adv-x="486" 
d="M316 126q6 27 -12 42.5t-47.5 26t-64.5 19.5t-63.5 24t-45 39t-7.5 64q5 22 16 40t24.5 32.5t27.5 25t26 18.5q-23 15 -34 39t-3 63q14 66 67.5 98.5t133.5 32.5q51 0 84.5 -8.5t47.5 -13.5q0 -12 -7 -26.5t-19 -22.5q-3 1 -13.5 3.5t-24.5 5.5t-31.5 5t-35.5 2
q-63 0 -95.5 -19t-40.5 -56q-6 -28 11 -43.5t45 -26t61.5 -20t60.5 -24.5t42 -38.5t7 -63.5q-5 -21 -15 -38.5t-23 -31.5t-26.5 -24l-23.5 -17q27 -17 41.5 -41.5t6.5 -66.5q-8 -38 -29 -64t-50.5 -41.5t-66.5 -22.5t-77 -7q-35 0 -63 3.5t-48 8.5q-24 5 -42 13q1 14 7 28
t20 23q3 -1 15.5 -4t30 -6.5t39 -6t42.5 -2.5q65 0 103.5 17.5t48.5 61.5zM216 432q-19 -11 -43 -31.5t-31 -50.5q-5 -24 7.5 -39t34.5 -24.5t50.5 -16.5t55.5 -16q17 11 39.5 30.5t29.5 50.5q5 24 -7 38.5t-33.5 24t-49 17t-53.5 17.5z" />
    <glyph glyph-name="semicolon" unicode=";" horiz-adv-x="242" 
d="M184 400q-5 -2 -11 -3q-5 -1 -13 -1.5t-18 -0.5q-11 0 -18.5 0.5t-12.5 1.5q-6 1 -9 3l15 73q5 1 11 2q5 1 13 2t19 1q10 0 17.5 -1t12.5 -2t9 -2zM-11 -93q10 10 21 24q9 12 18 29t16 40q-7 0 -12 1t-8 2q-4 1 -6 2l16 73q4 1 10 2q5 1 13 2t19 1q10 0 17.5 -1t12.5 -2
q6 -1 10 -2l-11 -50q-8 -35 -23.5 -61.5t-30.5 -43.5q-18 -20 -38 -35z" />
    <glyph glyph-name="seven" unicode="7" horiz-adv-x="493" 
d="M527 680q2 -11 0.5 -20.5t-3.5 -20.5q-14 -61 -43.5 -108.5t-66.5 -90.5t-78.5 -85t-79.5 -92t-69.5 -113t-49.5 -146q-5 -1 -14.5 -2.5t-20.5 -1.5q-12 0 -21 1.5l-15 2.5q18 86 48.5 150.5t67 115.5t76 92.5l75 80.5t65 80t46.5 91h-341q-1 4 -1 9v10.5t2 13.5
q3 14 8 25q3 4 5 8h410z" />
    <glyph glyph-name="seven.denom" horiz-adv-x="277" 
d="M28 298q-2 9 1 22q2 8 4.5 13t4.5 10h215v-8q0 -4 -1 -9.5l-2 -10.5q-7 -34 -22 -58.5t-33.5 -45.5t-39.5 -40t-40.5 -42.5t-35 -53.5t-24.5 -72q-14 -3 -26 -3q-16 0 -23 3q9 43 23.5 74t31.5 54.5t36 42l36.5 37t33.5 39t27 48.5h-166z" />
    <glyph glyph-name="seven.num" horiz-adv-x="277" 
d="M327 689q1 -6 0 -13.5t-3 -14.5q-7 -34 -21.5 -58.5t-33.5 -45.5t-39.5 -40t-40 -42.5t-35.5 -53.5t-25 -72q-26 -6 -49 0q10 43 24 74t31.5 54.5t36 42l36.5 37t33.5 39t27.5 48.5h-166q-5 23 9 45h215z" />
    <glyph glyph-name="seveneighths" unicode="&#x215e;" horiz-adv-x="669" 
d="M539 697q3 1 7 2t8.5 2t12.5 1q7 0 12 -1t8 -2q4 -1 6 -2l-536 -703l-8 -2q-10 -2 -21 -2t-19 2q-4 1 -7 2zM347 689v-8q0 -10 -3 -20q-7 -34 -22 -58.5t-33.5 -45.5t-39.5 -40t-40.5 -42.5t-35.5 -53.5t-25 -72q-26 -6 -49 0q10 43 24.5 74t31.5 54.5t35.5 42l36.5 37
t33.5 39t27.5 48.5h-166q-3 23 9 45h216zM382 262q8 38 41.5 62t88.5 24q51 0 75.5 -22t16.5 -63q-7 -31 -26.5 -52t-42.5 -34q23 -14 37.5 -33.5t6.5 -53.5q-10 -45 -47 -70t-95 -25q-55 0 -84 23t-18 70q7 35 31 57.5t50 36.5q-20 13 -30.5 31.5t-3.5 48.5zM556 260
q11 50 -53 50q-29 0 -48 -12.5t-24 -33.5q-3 -15 2 -25t15.5 -18t24 -14.5t28.5 -12.5q21 12 35.5 28t19.5 38zM529 87q4 17 -3 28.5t-19 20t-28 15.5t-30 14l-14.5 -9t-20 -15t-19.5 -21.5t-12 -28.5q-6 -29 11 -42.5t53 -13.5q30 0 53.5 13t28.5 39z" />
    <glyph glyph-name="seveninferior" unicode="&#x2087;" horiz-adv-x="277" 
d="M9 202q-5 23 9 45h215v-9q0 -8 -3 -20q-7 -34 -22 -58t-34.5 -45t-41 -40.5t-41.5 -42.5t-36 -53t-24 -72q-26 -6 -50 0q10 43 25 74.5t32.5 55t37 42l37.5 36.5t34 38.5t28 48.5h-166z" />
    <glyph glyph-name="six" unicode="6" horiz-adv-x="552" 
d="M509 680q4 -13 0.5 -29t-12.5 -30q-115 -12 -199 -67.5t-132 -173.5q26 11 65.5 23.5t87.5 12.5q43 0 77.5 -13t56.5 -40.5t29 -69.5t-5 -99q-11 -53 -35 -91.5t-58 -63.5t-77 -37t-92 -12q-48 0 -85 15.5t-59 48t-27 83t10 120.5q22 105 64.5 182t101 129t132 79.5
t157.5 32.5zM403 203q17 82 -14 118t-92 36q-25 0 -48.5 -5t-43.5 -11.5t-36 -14l-26 -12.5q-5 -14 -9 -29.5t-7 -31.5q-23 -109 4 -157t90 -48q31 0 60.5 9.5t53.5 28.5t42 48.5t26 68.5z" />
    <glyph glyph-name="six.denom" horiz-adv-x="310" 
d="M4 140q19 88 80 142.5t163 63.5q2 -8 0 -19.5t-9 -20.5q-58 -7 -102 -35t-64 -80q11 5 29.5 11t44.5 6q49 0 74 -27t14 -78q-12 -55 -51.5 -81.5t-88.5 -26.5q-57 0 -81.5 36t-8.5 109zM183 103q6 29 -7.5 46.5t-44.5 17.5q-29 0 -48 -7.5t-27 -12.5q-24 -112 46 -112
q30 0 52 18t29 50z" />
    <glyph glyph-name="six.num" horiz-adv-x="311" 
d="M78 487q19 88 80.5 142.5t162.5 63.5q3 -8 0.5 -19.5t-8.5 -20.5q-58 -7 -102 -35t-65 -80q11 5 30 11t45 6q49 0 74 -27t14 -78q-12 -55 -51.5 -81.5t-88.5 -26.5q-57 0 -81.5 36t-9.5 109zM258 450q6 29 -7.5 46.5t-44.5 17.5q-29 0 -48 -7.5t-27 -12.5
q-24 -112 46 -112q30 0 51.5 18t29.5 50z" />
    <glyph glyph-name="sixinferior" unicode="&#x2086;" horiz-adv-x="310" 
d="M-16 44q19 88 80.5 142.5t162.5 63.5q3 -8 0.5 -19t-8.5 -21q-58 -7 -102 -35t-65 -80q11 5 30 11t45 6q49 0 73.5 -27t13.5 -78q-6 -27 -19.5 -47.5t-32 -34t-41.5 -20t-47 -6.5q-57 0 -81 36t-9 109zM163 7q7 29 -6.5 46.5t-44.5 17.5q-29 0 -48 -7.5t-27 -12.5
q-25 -112 46 -112q30 0 51.5 18t28.5 50z" />
    <glyph glyph-name="slash" unicode="/" horiz-adv-x="457" 
d="M453 744q5 1 10 3q5 1 11.5 2t15.5 1t15.5 -1t11.5 -2l9 -3l-503 -785q-5 -2 -10 -3q-11 -3 -28 -3q-18 0 -27 3q-5 1 -8 3z" />
    <glyph glyph-name="space" unicode=" " horiz-adv-x="243" 
 />
    <glyph glyph-name="sterling" unicode="&#xa3;" horiz-adv-x="523" 
d="M222 309q1 -29 -2.5 -58.5t-15.5 -60t-36 -62t-63 -62.5h306q5 -5 -1 -33q-3 -14 -7 -22.5t-6 -10.5h-389l14 66q44 34 69.5 65t38 61t15.5 59t1 58h-82q-1 2 -1.5 9.5t2.5 18.5q5 24 11 28h66q-5 34 -7 69.5t6 75.5q10 48 33 82.5t55 56t72 32t86 10.5q58 0 98.5 -11.5
t54.5 -18.5q-2 -17 -10.5 -31t-23.5 -23q-10 4 -43.5 13t-78.5 9q-66 0 -109.5 -29t-57.5 -93q-8 -35 -5 -70.5t7 -71.5h190q0 -2 0.5 -9t-1.5 -18t-5.5 -19t-5.5 -10h-175z" />
    <glyph glyph-name="summation" unicode="&#x2211;" horiz-adv-x="582" 
d="M253 261l-125 400l7 33h479q1 -4 1 -8v-9.5t-2 -13.5t-4 -13.5t-4 -9.5q-3 -4 -4 -8h-387l116 -372l-297 -404h409q1 -4 1 -8v-10t-2 -14t-4 -13.5t-4 -9.5q-3 -4 -4 -8h-502l8 38z" />
    <glyph glyph-name="t" unicode="t" horiz-adv-x="359" 
d="M152 182q-16 -72 -3.5 -102t71.5 -30q9 0 19.5 0.5t19.5 1.5q11 1 21 3q1 -4 1 -8v-9.5t-2 -12.5q-3 -11 -6 -20q-2 -4 -3 -7q-8 -2 -27.5 -5t-44.5 -3q-44 0 -72 12.5t-41.5 36.5t-14.5 59t9 81l62 290h-78q-1 3 -1 7v9t2 12q2 8 3.5 13t3.5 9t4 7h78l20 95
q17 10 36.5 14t38.5 2l-23 -111h143q1 -3 1 -7v-9t-2 -12l-3.5 -12t-3.5 -9l-4 -8h-143z" />
    <glyph glyph-name="tbar" unicode="&#x167;" horiz-adv-x="361" 
d="M222 50q9 0 19.5 0.5t19.5 1.5q11 1 21 3q1 -4 1 -8v-9.5t-2 -12.5q-3 -11 -6 -20q-2 -4 -3 -7q-8 -2 -27.5 -5t-44.5 -3q-44 0 -72 12.5t-41.5 36.5t-14.5 59t9 81l17 81h-67q0 12 2.5 24.5t7.5 23.5h67l35 161h-78q-1 3 -1 7v9t2 12q2 8 3.5 13t3.5 9t4 7h78l20 95
q17 10 36.5 14t38.5 2l-23 -111h143q1 -3 1 -7v-9t-2 -12l-3.5 -12t-3.5 -9l-4 -8h-143l-35 -161h107q2 -11 -1.5 -24t-8.5 -24h-107l-16 -78q-16 -72 -3.5 -102t71.5 -30z" />
    <glyph glyph-name="tcaron" unicode="&#x165;" horiz-adv-x="359" 
d="M354 585q-21 4 -27 22q39 29 61 62t33 80q43 3 60 -14q-16 -47 -50 -89t-77 -61zM152 182q-16 -72 -3.5 -102t71.5 -30q9 0 19.5 0.5t19.5 1.5q11 1 21 3q1 -4 1 -8v-9.5t-2 -12.5q-3 -11 -6 -20q-2 -4 -3 -7q-8 -2 -27.5 -5t-44.5 -3q-44 0 -72 12.5t-41.5 36.5
t-14.5 59t9 81l62 290h-78q-1 3 -1 7v9t2 12q2 8 3.5 13t3.5 9t4 7h78l20 95q17 10 36.5 14t38.5 2l-23 -111h143q1 -3 1 -7v-9t-2 -12l-3.5 -12t-3.5 -9l-4 -8h-143z" />
    <glyph glyph-name="thorn" unicode="&#xfe;" horiz-adv-x="556" 
d="M174 745q4 1 9 2t11.5 2t16.5 1q9 0 15.5 -1t11.5 -2t8 -2l-61 -287q30 37 71.5 57.5t99.5 20.5q44 0 76 -16t50 -51t20 -89.5t-14 -130.5q-16 -77 -40.5 -127t-56 -79t-69.5 -41t-82 -12q-58 0 -91 20.5t-47 57.5l-64 -302q-4 -2 -9 -3t-12 -1.5t-16 -0.5q-10 0 -16 0.5
t-11 1.5t-8 3zM415 263q12 59 12.5 99.5t-11.5 65.5t-36 36t-61 11q-32 0 -58.5 -12.5t-47 -33t-35 -46.5t-20.5 -54l-28 -129q-6 -28 -3 -54.5t15 -47.5t33.5 -34t53.5 -13q37 0 65.5 11t51 36t39.5 65.5t30 99.5z" />
    <glyph glyph-name="three" unicode="3" horiz-adv-x="519" 
d="M429 177q-9 -39 -28.5 -73t-53 -59.5t-81.5 -40t-114 -14.5q-40 0 -70 5t-50 12q-24 7 -42 17q2 14 11 29.5t20 24.5q11 -5 47.5 -14.5t91.5 -9.5q91 0 137 35t60 98q9 42 1 68.5t-27 42.5t-47 22t-60 6h-62q-6 30 13 60h62q28 0 55 5.5t49.5 19.5t39 38t24.5 60
q13 58 -16 89t-102 31q-29 0 -54.5 -3.5t-44.5 -8.5q-22 -5 -41 -12q-24 18 -13 52q22 9 49 16q23 6 54.5 11.5t69.5 5.5q51 0 87 -13.5t57 -37.5t27 -57t-2 -72q-11 -51 -40 -91.5t-89 -61.5q60 -20 78 -66.5t4 -113.5z" />
    <glyph glyph-name="three.denom" horiz-adv-x="299" 
d="M215 94q-9 -43 -44.5 -71t-112.5 -28q-21 0 -37 2.5t-27 5.5q-13 4 -23 9q2 9 7 19t14 16q10 -3 21 -5q22 -5 52 -5q52 0 73.5 17.5t26.5 43.5q7 32 -9 46.5t-50 14.5h-45q-3 20 8 41h45q32 0 50 14t23 38q10 54 -58 54q-16 0 -29.5 -1.5t-24.5 -3.5l-23 -4q-10 14 -4 36
l26 7q12 3 29.5 5.5t37.5 2.5q57 0 82 -23.5t16 -66.5q-6 -28 -20.5 -46.5t-41.5 -30.5q23 -11 34.5 -30.5t3.5 -56.5z" />
    <glyph glyph-name="three.num" horiz-adv-x="300" 
d="M289 440q-9 -43 -44.5 -71t-112.5 -28q-21 0 -37 2.5t-27 5.5q-13 4 -23 9q2 9 7.5 19t13.5 16q10 -3 21 -5q22 -5 52 -5q52 0 73.5 17.5t26.5 43.5q7 32 -9 46.5t-50 14.5h-45q-3 21 9 41h45q32 0 49.5 14t22.5 38q12 54 -57 54q-16 0 -29.5 -1.5t-24.5 -3.5l-23 -4
q-12 13 -5 36l26 7q12 3 29.5 5.5t37.5 2.5q57 0 82 -23.5t16 -66.5q-6 -28 -20.5 -46.5t-40.5 -30.5q23 -11 34 -30.5t3 -56.5z" />
    <glyph glyph-name="threeeighths" unicode="&#x215c;" horiz-adv-x="755" 
d="M625 697q3 1 7 2t8.5 2t12.5 1q7 0 12 -1t8 -2q4 -1 6 -2l-536 -703l-8 -2q-10 -2 -21 -2t-19 2q-4 1 -7 2zM135 679l27 7q13 3 30 5.5t37 2.5q56 0 81 -23.5t16 -66.5q-6 -28 -20.5 -46.5t-40.5 -30.5q23 -11 34 -30.5t3 -56.5q-9 -43 -44.5 -71t-111.5 -28
q-21 0 -37.5 2.5t-27.5 5.5q-13 4 -22 9q2 9 7 19t13 16q10 -3 21 -5q22 -5 53 -5q52 0 73.5 17.5t26.5 43.5q7 32 -9.5 46.5t-49.5 14.5h-46q-3 21 9 41h46q31 0 49 14t23 38q6 28 -9 41t-48 13q-16 0 -30 -1.5t-25 -3.5l-23 -4q-12 13 -5 36zM468 262q8 38 41.5 62
t88.5 24q51 0 75.5 -22t16.5 -63q-7 -31 -26.5 -52t-42.5 -34q23 -14 37.5 -33.5t6.5 -53.5q-10 -45 -47 -70t-95 -25q-55 0 -84 23t-18 70q7 35 31 57.5t50 36.5q-20 13 -30.5 31.5t-3.5 48.5zM642 260q11 50 -53 50q-29 0 -48 -12.5t-24 -33.5q-3 -15 2 -25t15.5 -18
t24 -14.5t28.5 -12.5q21 12 35.5 28t19.5 38zM615 87q4 17 -3 28.5t-19 20t-28 15.5t-30 14l-14.5 -9t-20 -15t-19.5 -21.5t-12 -28.5q-6 -29 11 -42.5t53 -13.5q30 0 53.5 13t28.5 39z" />
    <glyph glyph-name="threeinferior" unicode="&#x2083;" horiz-adv-x="300" 
d="M196 -2q-10 -43 -45.5 -71t-112.5 -28q-21 0 -37 2.5t-27 5.5q-13 4 -23 9q2 9 7.5 19t14.5 16q9 -3 20 -5q22 -5 52 -5q52 0 73.5 17.5t26.5 43.5q8 32 -8.5 46.5t-50.5 14.5h-45q-3 21 9 41h45q32 0 49.5 14t22.5 38q12 54 -57 54q-16 0 -29.5 -1.5t-24.5 -3.5l-23 -4
q-12 13 -5 36l27 7q13 3 30 5.5t37 2.5q57 0 82 -23.5t15 -66.5q-10 -54 -61 -77q23 -11 34.5 -30.5t3.5 -56.5z" />
    <glyph glyph-name="threequarters" unicode="&#xbe;" horiz-adv-x="703" 
d="M626 697q3 1 7 2t8.5 2t12.5 1q7 0 12 -1t8 -2q4 -1 6 -2l-536 -703l-8 -2q-10 -2 -21 -2t-19 2q-4 1 -7 2zM134 679l26 7q12 3 29.5 5.5t37.5 2.5q56 0 81 -23.5t16 -66.5q-6 -28 -20 -46.5t-41 -30.5q24 -11 34.5 -30.5t2.5 -56.5q-9 -43 -44.5 -71t-111.5 -28
q-21 0 -37 2.5t-27 5.5q-13 4 -23 9q2 9 7 19t13 16q10 -3 21 -5q22 -5 53 -5q52 0 73.5 17.5t26.5 43.5q7 32 -9.5 46.5t-49.5 14.5h-45q-5 21 9 41h45q31 0 49 14t23 38q6 28 -9 41t-48 13q-16 0 -30 -1.5t-25 -3.5l-23 -4q-5 6 -6 15.5t2 20.5zM577 339q5 2 11 3t14 1
t13.5 -1t9.5 -3l-45 -211h41q0 -4 0.5 -9t-1.5 -11q-2 -7 -3.5 -11.5t-3.5 -7.5h-41l-18 -86l-10 -2t-12 -1q-8 0 -13 1t-9 2l18 86h-175q0 3 -0.5 7t0.5 9q3 11 7 16zM536 128l32 152l-152 -152h120z" />
    <glyph glyph-name="threesuperior" unicode="&#xb3;" horiz-adv-x="300" 
d="M289 440q-9 -43 -44.5 -71t-112.5 -28q-21 0 -37 2.5t-27 5.5q-13 4 -23 9q2 9 7.5 19t13.5 16q10 -3 21 -5q22 -5 52 -5q52 0 73.5 17.5t26.5 43.5q7 32 -9 46.5t-50 14.5h-45q-3 21 9 41h45q32 0 49.5 14t22.5 38q12 54 -57 54q-16 0 -29.5 -1.5t-24.5 -3.5l-23 -4
q-12 13 -5 36l26 7q12 3 29.5 5.5t37.5 2.5q57 0 82 -23.5t16 -66.5q-6 -28 -20.5 -46.5t-40.5 -30.5q23 -11 34 -30.5t3 -56.5z" />
    <glyph glyph-name="tilde" unicode="&#x2dc;" horiz-adv-x="327" 
d="M218 669q11 0 20 4.5t16 9.5q8 6 15 15q23 -10 23 -34q-11 -13 -25 -24q-12 -9 -28.5 -16t-37.5 -7q-20 0 -33 5.5t-23.5 12t-20.5 12t-25 5.5q-11 0 -21 -5t-17 -10q-9 -7 -15 -15q-23 12 -23 34q11 12 25 23q12 9 28.5 16.5t38.5 7.5q20 0 33 -5.5t23.5 -11.5l21 -11.5
t25.5 -5.5z" />
    <glyph glyph-name="trademark" unicode="&#x2122;" horiz-adv-x="622" 
d="M327 720q2 -6 0 -14q-1 -7 -6 -15h-84l-55 -256q-1 -1 -4 -2t-13 -1q-11 0 -13 1q-3 1 -3 2l55 256h-86q0 3 -0.5 6.5t0.5 7.5q1 7 6 15h203zM376 717q1 0 5 1q6 2 16 2q8 0 11 -1t7 -2l30 -98q6 -21 10.5 -40.5t7.5 -34.5q8 14 21 32.5l28 38.5l72 102q3 0 7 1q8 2 15 2
q9 0 15 -2q3 -1 5 -1l-60 -282q-1 -1 -4 -2t-12 -1q-10 0 -13 1t-4 2l27 124l13 61l12 53l-21.5 -32t-21.5 -30l-72 -99q-1 -1 -4 -2t-12 -1t-11 1t-3 2l-28 98l-9 32.5l-8 30.5q-3 -23 -9 -51.5l-13 -62.5l-27 -124q-1 -1 -4 -2t-11 -1q-9 0 -11 1q-3 1 -4 2z" />
    <glyph glyph-name="two" unicode="2" horiz-adv-x="529" 
d="M164 601q-22 19 -10 53q25 10 55 18q26 7 60.5 12.5t76.5 5.5q43 0 78.5 -11.5t58.5 -35t32 -59.5t-1 -84q-10 -45 -29.5 -75.5t-49.5 -54t-70 -45l-90 -48.5l-59 -31t-58.5 -36.5t-49 -48t-29.5 -65.5q-2 -12 -2.5 -20t-1.5 -10h330q3 -10 -1 -33q-2 -11 -6 -19.5
t-7 -13.5h-396q0 9 1 20q1 9 2.5 21t4.5 26q12 62 38 103t60 69.5t73 49l78 42.5l71 41t55.5 39t39 43.5t22.5 56.5q5 23 2.5 44t-16 37.5t-39 26.5t-66.5 10q-30 0 -58.5 -4.5t-50.5 -9.5q-26 -6 -48 -14z" />
    <glyph glyph-name="two.denom" horiz-adv-x="300" 
d="M-23 41q7 34 25 56.5t41.5 38t49 27t48 23.5t38.5 26.5t21 37.5q5 24 -9 39.5t-54 16.5q-24 0 -46 -4t-26 -6q-11 18 -4 38l27 7l29.5 4.5t36.5 2.5q58 0 82 -25.5t15 -69.5q-6 -30 -23 -50t-39 -34t-47 -25t-47.5 -24t-41 -31t-26.5 -45h171q3 -10 1 -22
q-2 -6 -4.5 -11.5t-5.5 -10.5h-217q0 6 1 12q1 5 1.5 12.5t2.5 16.5z" />
    <glyph glyph-name="two.num" horiz-adv-x="301" 
d="M52 387q7 34 25 56.5t41.5 38t49 27t48 23.5t39 26.5t21.5 37.5t-9 39.5t-54 16.5q-24 0 -46 -4t-27 -6q-10 18 -4 38l27 7l29.5 4.5t36.5 2.5q58 0 82.5 -25.5t14.5 -69.5q-6 -30 -22.5 -50t-38.5 -34t-47 -25t-47.5 -24t-41 -31t-26.5 -45h171q1 -5 1.5 -11t-1.5 -11
q-3 -11 -9 -22h-217v12q0 13 4 29z" />
    <glyph glyph-name="twoinferior" unicode="&#x2082;" horiz-adv-x="301" 
d="M-42 -55q7 34 25 56.5t41.5 38t49 27t48 23.5t39 26.5t21.5 37.5q5 24 -9.5 40t-54.5 16q-12 0 -23.5 -1.5t-21.5 -3t-17.5 -3t-9.5 -2.5q-10 18 -3 38l27 7l29.5 4.5t36.5 2.5q58 0 82 -25.5t14 -69.5q-6 -30 -22.5 -50t-38.5 -34t-47 -25t-47.5 -24t-41 -31t-26.5 -45
h171q1 -5 1.5 -11t-1.5 -11q-1 -6 -3.5 -11.5t-5.5 -10.5h-217v12q0 13 4 29z" />
    <glyph glyph-name="twosuperior" unicode="&#xb2;" horiz-adv-x="301" 
d="M52 387q7 34 25 56.5t41.5 38t49 27t48 23.5t39 26.5t21.5 37.5q5 24 -9.5 40t-55.5 16q-23 0 -44.5 -4t-26.5 -6q-10 18 -4 38l27 7l29.5 4.5t36.5 2.5q58 0 82.5 -25.5t14.5 -69.5q-6 -30 -22.5 -50t-38.5 -34t-47 -25t-47.5 -24t-41 -31t-26.5 -45h171q1 -5 1.5 -11
t-1.5 -11q-3 -11 -9 -22h-217v12q0 13 4 29z" />
    <glyph glyph-name="u" unicode="u" 
d="M122 521l10 2t11.5 2t15.5 1t15.5 -1t11.5 -2t8 -2l-78 -367q-23 -104 87 -104q40 0 83 23.5t75 67.5l81 380q4 1 9 2t12 2t16 1t15.5 -1t11.5 -2t8 -2l-110 -516q-3 -2 -7 -3t-10 -1.5t-15 -0.5q-16 0 -26 2q-5 1 -8 3l6 58q-37 -37 -78 -55t-93 -18q-37 0 -64.5 12.5
t-44 35t-22 53t2.5 66.5z" />
    <glyph glyph-name="uacute" unicode="&#xfa;" 
d="M305 607q-31 3 -38 24l135 144q19 2 36 -6.5t22 -22.5zM122 521l10 2t11.5 2t15.5 1t15.5 -1t11.5 -2t8 -2l-78 -367q-23 -104 87 -104q40 0 83 23.5t75 67.5l81 380q4 1 9 2t12 2t16 1t15.5 -1t11.5 -2t8 -2l-110 -516q-3 -2 -7 -3t-10 -1.5t-15 -0.5q-16 0 -26 2
q-5 1 -8 3l6 58q-37 -37 -78 -55t-93 -18q-37 0 -64.5 12.5t-44 35t-22 53t2.5 66.5z" />
    <glyph glyph-name="ubreve" unicode="&#x16d;" 
d="M343 682q25 0 46.5 5.5t37.5 12.5q18 8 33 18q12 -4 19 -15.5t7 -24.5q-15 -16 -37 -27q-19 -10 -46.5 -18t-62.5 -8t-61.5 9t-43.5 20q-20 12 -34 29q7 12 17.5 21.5t23.5 13.5q10 -10 25 -18q13 -7 31.5 -12.5t44.5 -5.5zM122 521l10 2t11.5 2t15.5 1t15.5 -1t11.5 -2
t8 -2l-78 -367q-23 -104 87 -104q40 0 83 23.5t75 67.5l81 380q4 1 9 2t12 2t16 1t15.5 -1t11.5 -2t8 -2l-110 -516q-3 -2 -7 -3t-10 -1.5t-15 -0.5q-16 0 -26 2q-5 1 -8 3l6 58q-37 -37 -78 -55t-93 -18q-37 0 -64.5 12.5t-44 35t-22 53t2.5 66.5z" />
    <glyph glyph-name="ucircumflex" unicode="&#xfb;" 
d="M485 636q-7 -11 -17 -20.5t-23 -12.5l-93 76l-124 -77q-21 8 -26 34l148 105h25zM122 521l10 2t11.5 2t15.5 1t15.5 -1t11.5 -2t8 -2l-78 -367q-23 -104 87 -104q40 0 83 23.5t75 67.5l81 380q4 1 9 2t12 2t16 1t15.5 -1t11.5 -2t8 -2l-110 -516q-3 -2 -7 -3t-10 -1.5
t-15 -0.5q-16 0 -26 2q-5 1 -8 3l6 58q-37 -37 -78 -55t-93 -18q-37 0 -64.5 12.5t-44 35t-22 53t2.5 66.5z" />
    <glyph glyph-name="udieresis" unicode="&#xfc;" 
d="M240 705l10 2t11.5 2t16.5 1q9 0 15.5 -1t11.5 -2t9 -2l-14 -65q-5 -2 -10 -3t-12 -1.5t-16 -0.5q-10 0 -16 0.5t-11 1.5t-9 3zM398 705l10 2t11.5 2t16.5 1q9 0 15.5 -1t11.5 -2t9 -2l-14 -65q-5 -2 -10 -3t-12 -1.5t-16 -0.5q-10 0 -16 0.5t-11 1.5t-9 3zM122 521l10 2
t11.5 2t15.5 1t15.5 -1t11.5 -2t8 -2l-78 -367q-23 -104 87 -104q40 0 83 23.5t75 67.5l81 380q4 1 9 2t12 2t16 1t15.5 -1t11.5 -2t8 -2l-110 -516q-3 -2 -7 -3t-10 -1.5t-15 -0.5q-16 0 -26 2q-5 1 -8 3l6 58q-37 -37 -78 -55t-93 -18q-37 0 -64.5 12.5t-44 35t-22 53
t2.5 66.5z" />
    <glyph glyph-name="ugrave" unicode="&#xf9;" 
d="M394 631q-18 -21 -45 -24l-95 139q11 13 29.5 21.5t36.5 6.5zM122 521l10 2t11.5 2t15.5 1t15.5 -1t11.5 -2t8 -2l-78 -367q-23 -104 87 -104q40 0 83 23.5t75 67.5l81 380q4 1 9 2t12 2t16 1t15.5 -1t11.5 -2t8 -2l-110 -516q-3 -2 -7 -3t-10 -1.5t-15 -0.5q-16 0 -26 2
q-5 1 -8 3l6 58q-37 -37 -78 -55t-93 -18q-37 0 -64.5 12.5t-44 35t-22 53t2.5 66.5z" />
    <glyph glyph-name="uhungarumlaut" unicode="&#x171;" 
d="M261 606q-26 3 -36 22l122 132q19 2 35 -5.5t22 -20.5zM408 606q-28 3 -37 22l122 132q18 2 34 -5.5t23 -20.5zM122 521l10 2t11.5 2t15.5 1t15.5 -1t11.5 -2t8 -2l-78 -367q-23 -104 87 -104q40 0 83 23.5t75 67.5l81 380q4 1 9 2t12 2t16 1t15.5 -1t11.5 -2t8 -2
l-110 -516q-3 -2 -7 -3t-10 -1.5t-15 -0.5q-16 0 -26 2q-5 1 -8 3l6 58q-37 -37 -78 -55t-93 -18q-37 0 -64.5 12.5t-44 35t-22 53t2.5 66.5z" />
    <glyph glyph-name="umacron" unicode="&#x16b;" 
d="M474 699q2 -10 -1 -22.5t-9 -23.5h-231q-3 25 10 46h231zM122 521l10 2t11.5 2t15.5 1t15.5 -1t11.5 -2t8 -2l-78 -367q-23 -104 87 -104q40 0 83 23.5t75 67.5l81 380q4 1 9 2t12 2t16 1t15.5 -1t11.5 -2t8 -2l-110 -516q-3 -2 -7 -3t-10 -1.5t-15 -0.5q-16 0 -26 2
q-5 1 -8 3l6 58q-37 -37 -78 -55t-93 -18q-37 0 -64.5 12.5t-44 35t-22 53t2.5 66.5z" />
    <glyph glyph-name="underscore" unicode="_" horiz-adv-x="544" 
d="M-13 -71q-2 2 -2 6q-1 4 2 20q2 7 3.5 11.5t3.5 7.5q2 4 4 6h417v-6v-7.5t-2 -11.5q-3 -13 -6 -20l-3 -6h-417z" />
    <glyph glyph-name="uni00AD" unicode="&#xad;" horiz-adv-x="258" 
 />
    <glyph glyph-name="Tcommaaccent" unicode="&#x162;" horiz-adv-x="532" 
d="M588 720q1 -5 1 -9v-10t-2 -13q-3 -13 -8 -24q-3 -5 -5 -9h-195l-138 -649q-5 -2 -10 -3q-11 -3 -28 -3q-19 0 -28 3q-5 1 -8 3l138 649h-200q-1 4 -1 9v10.5t2 13.5q3 13 8 23q3 5 5 9h469zM109 -227q10 9 21 23q8 11 17.5 28.5t15.5 40.5q-7 0 -12 1t-8 2q-4 1 -6 2
l16 73q5 1 11 2q5 1 12.5 2t18.5 1q10 0 17.5 -1t12.5 -2t9 -2l-11 -50q-8 -35 -23 -61.5t-30 -43.5q-18 -21 -38 -35z" />
    <glyph glyph-name="Tcommaaccent" unicode="&#x21a;" horiz-adv-x="532" 
d="M588 720q1 -5 1 -9v-10t-2 -13q-3 -13 -8 -24q-3 -5 -5 -9h-195l-138 -649q-5 -2 -10 -3q-11 -3 -28 -3q-19 0 -28 3q-5 1 -8 3l138 649h-200q-1 4 -1 9v10.5t2 13.5q3 13 8 23q3 5 5 9h469zM109 -227q10 9 21 23q8 11 17.5 28.5t15.5 40.5q-7 0 -12 1t-8 2q-4 1 -6 2
l16 73q5 1 11 2q5 1 12.5 2t18.5 1q10 0 17.5 -1t12.5 -2t9 -2l-11 -50q-8 -35 -23 -61.5t-30 -43.5q-18 -21 -38 -35z" />
    <glyph glyph-name="tcommaaccent" unicode="&#x163;" horiz-adv-x="359" 
d="M152 182q-16 -72 -3.5 -102t71.5 -30q9 0 19.5 0.5t19.5 1.5q11 1 21 3q1 -4 1 -8v-9.5t-2 -12.5q-3 -11 -6 -20q-2 -4 -3 -7q-8 -2 -27.5 -5t-44.5 -3q-44 0 -72 12.5t-41.5 36.5t-14.5 59t9 81l62 290h-78q-1 3 -1 7v9t2 12q2 8 3.5 13t3.5 9t4 7h78l20 95
q17 10 36.5 14t38.5 2l-23 -111h143q1 -3 1 -7v-9t-2 -12l-3.5 -12t-3.5 -9l-4 -8h-143zM61 -239q11 10 21 24q8 12 17 29t16 40q-7 0 -11.5 1t-7.5 2q-4 1 -7 2l16 73q5 1 11 2q5 1 12.5 2t18.5 1q10 0 17.5 -1t12.5 -2t9 -2l-11 -50q-8 -35 -23 -61.5t-30 -43.5
q-18 -20 -38 -35z" />
    <glyph glyph-name="tcommaaccent" unicode="&#x21b;" horiz-adv-x="359" 
d="M152 182q-16 -72 -3.5 -102t71.5 -30q9 0 19.5 0.5t19.5 1.5q11 1 21 3q1 -4 1 -8v-9.5t-2 -12.5q-3 -11 -6 -20q-2 -4 -3 -7q-8 -2 -27.5 -5t-44.5 -3q-44 0 -72 12.5t-41.5 36.5t-14.5 59t9 81l62 290h-78q-1 3 -1 7v9t2 12q2 8 3.5 13t3.5 9t4 7h78l20 95
q17 10 36.5 14t38.5 2l-23 -111h143q1 -3 1 -7v-9t-2 -12l-3.5 -12t-3.5 -9l-4 -8h-143zM61 -239q11 10 21 24q8 12 17 29t16 40q-7 0 -11.5 1t-7.5 2q-4 1 -7 2l16 73q5 1 11 2q5 1 12.5 2t18.5 1q10 0 17.5 -1t12.5 -2t9 -2l-11 -50q-8 -35 -23 -61.5t-30 -43.5
q-18 -20 -38 -35z" />
    <glyph glyph-name="uni0401" unicode="&#x401;" horiz-adv-x="556" 
d="M308 865l10 2t11.5 2t16.5 1q9 0 15.5 -1t11.5 -2t9 -2l-14 -65q-5 -2 -10 -3t-12 -1.5t-16 -0.5q-10 0 -16 0.5t-11 1.5t-9 3zM466 865l10 2t11.5 2t16.5 1q9 0 15.5 -1t11.5 -2t9 -2l-14 -65q-5 -2 -10 -3t-12 -1.5t-16 -0.5q-10 0 -16 0.5t-11 1.5t-9 3zM583 720
q1 -7 1.5 -14t-1.5 -16q-5 -20 -13 -32h-323l-56 -263h273q1 -7 1.5 -14t-1.5 -15q-4 -18 -13 -32h-273l-58 -272h333q1 -7 1.5 -14.5t-1.5 -15.5q-5 -19 -13 -32h-407l153 720h397z" />
    <glyph glyph-name="uni0410" unicode="&#x410;" horiz-adv-x="646" 
d="M369 714q6 1 12 3q5 1 12.5 2t17.5 1t17.5 -1t12.5 -2q6 -2 10 -3l114 -708q-5 -2 -11 -3q-11 -3 -31 -3q-15 0 -22 3q-4 1 -8 3l-31 191h-319l-112 -191q-4 -2 -10 -3q-11 -3 -34 -3q-19 0 -26 3q-5 1 -8 3zM395 641l-9 -20q-5 -9 -11.5 -22t-14.5 -27l-182 -313h275
l-50 313q-2 15 -3.5 27.5t-1.5 21.5q-1 11 0 20h-3z" />
    <glyph glyph-name="uni0411" unicode="&#x411;" horiz-adv-x="616" 
d="M583 720q1 -4 1 -9v-10.5t-2 -13.5t-4 -13l-4 -10q-3 -5 -5 -9h-323l-51 -242h190q47 0 81.5 -17t55 -46t26.5 -69.5t-4 -86.5q-20 -94 -86 -144t-161 -50h-264l153 720h397zM120 59h177q71 0 115.5 40.5t58.5 107.5q14 68 -13.5 107.5t-98.5 39.5h-177z" />
    <glyph glyph-name="uni0412" unicode="&#x412;" horiz-adv-x="628" 
d="M435 720q51 0 84.5 -17.5t51.5 -46t21.5 -66t-4.5 -77.5q-8 -36 -23 -62t-33 -44t-36.5 -29t-31.5 -15q13 -3 30 -14.5t31 -33t20 -54t-4 -77.5q-19 -90 -80.5 -137t-169.5 -47h-258l153 720h249zM354 393q37 0 64.5 10t47.5 27.5t32.5 42t18.5 54.5q13 60 -9.5 96.5
t-97.5 36.5h-163l-57 -267h164zM291 60q82 0 123 36t55 101q15 72 -14 105t-106 33h-171l-58 -275h171z" />
    <glyph glyph-name="uni0413" unicode="&#x413;" horiz-adv-x="502" 
d="M560 720q1 -5 1 -9v-10t-2 -13q-3 -13 -8 -23l-5 -10h-300l-138 -649q-5 -2 -10 -3q-11 -3 -28 -3q-18 0 -27 3q-5 1 -9 3l152 714h374z" />
    <glyph glyph-name="uni0414" unicode="&#x414;" horiz-adv-x="689" 
d="M589 62l-42 -200q-6 -2 -15 -4t-20 -2t-19.5 2t-13.5 4l29 138h-485l-29 -138q-7 -2 -16 -4t-20 -2t-19 2t-13 4l42 200h59q42 38 77 112.5t69 192.5l102 353h376l-140 -658h78zM243 361q-29 -101 -62 -177.5t-70 -121.5h326l128 600h-236z" />
    <glyph glyph-name="uni0415" unicode="&#x415;" horiz-adv-x="556" 
d="M583 720q3 -13 0 -30q-5 -20 -13 -32h-323l-56 -262h273q3 -14 0 -30q-5 -17 -13 -31h-273l-58 -273h333q3 -14 0 -30q-5 -19 -13 -32h-407l153 720h397z" />
    <glyph glyph-name="uni0416" unicode="&#x416;" horiz-adv-x="933" 
d="M895 714q5 2 17 4t25 2t22.5 -2t15.5 -4l-288 -343l168 -365q-5 -2 -12 -3q-12 -3 -33 -3t-30 3q-5 1 -9 3l-147 337h-110l-72 -337q-4 -2 -9 -3q-9 -3 -29 -3q-18 0 -27 3q-5 1 -9 3l72 337h-110l-290 -337q-5 -2 -11 -3q-11 -3 -32 -3q-22 0 -32 3q-6 1 -10 3l325 384
l-144 324q6 2 16.5 4t23.5 2q14 0 23 -2t14 -4l134 -310h106l66 310q4 1 10 3q5 1 12 2t16 1t15.5 -1t11.5 -2l9 -3l-66 -310h105l263 310v0z" />
    <glyph glyph-name="uni0417" unicode="&#x417;" horiz-adv-x="546" 
d="M131 696q24 9 54 17q26 6 61 11.5t77 5.5q57 0 97 -15t63 -42t29.5 -64t-2.5 -81q-9 -41 -26.5 -70t-38 -48t-41.5 -29.5t-36 -16.5l-1 -2q15 -5 34.5 -17t35.5 -33t23.5 -53t-2.5 -78q-9 -42 -30.5 -77t-58 -60.5t-89.5 -39.5t-124 -14q-45 0 -78 5t-56 11q-26 7 -44 16
q2 16 11 31.5t22 24.5q22 -8 60 -15t89 -7q103 0 156.5 37t67.5 100q9 45 -0.5 72.5t-32 43.5t-55 21.5t-68.5 5.5h-61q-2 15 1.5 32t12.5 31h61q32 0 63 5.5t57.5 20.5t46 41.5t28.5 68.5q14 64 -21.5 97.5t-113.5 33.5q-33 0 -62 -4t-51 -9q-26 -5 -46 -12
q-10 11 -12.5 26t0.5 29z" />
    <glyph glyph-name="uni0418" unicode="&#x418;" horiz-adv-x="692" 
d="M595 714q5 1 11 3q5 1 13.5 2t19.5 1t19 -1t13 -2q6 -2 10 -3l-151 -708q-5 -2 -10 -3q-9 -3 -28 -3t-28 3q-5 1 -8 3l88 415q11 54 20.5 91l15.5 61l12 45h-3q-8 -14 -22 -36q-23 -36 -83 -117l-362 -459q-1 0 -12.5 -3t-33.5 -3q-23 0 -33 3q-6 1 -9 3l151 708
q5 1 10 3q5 1 11.5 2t16.5 1q9 0 15.5 -1t11.5 -2l9 -3l-89 -419l-18.5 -81.5t-15.5 -62.5q-8 -31 -15 -55h3q5 10 16 27l26 39l33 47l38 51l358 454v0z" />
    <glyph glyph-name="uni0419" unicode="&#x419;" horiz-adv-x="692" 
d="M465 876q26 0 49.5 5.5t40.5 12.5q20 8 38 19q12 -4 19 -14.5t8 -23.5q-18 -17 -43 -30q-21 -11 -50.5 -20t-67.5 -9t-65.5 9t-46.5 20q-22 13 -37 30q8 13 19 23.5t24 14.5q13 -11 30 -19q14 -7 35 -12.5t47 -5.5zM595 714q5 1 11 3q5 1 13.5 2t19.5 1t19 -1t13 -2
q6 -2 10 -3l-151 -708q-5 -2 -10 -3q-9 -3 -28 -3t-28 3q-5 1 -8 3l88 415q11 54 20.5 91l15.5 61l12 45h-3q-8 -14 -22 -36q-23 -36 -83 -117l-362 -459q-1 0 -12.5 -3t-33.5 -3q-23 0 -33 3q-6 1 -9 3l151 708q5 1 10 3q5 1 11.5 2t16.5 1q9 0 15.5 -1t11.5 -2l9 -3
l-89 -419l-18.5 -81.5t-15.5 -62.5q-8 -31 -15 -55h3q5 10 16 27l26 39l33 47l38 51z" />
    <glyph glyph-name="uni041A" unicode="&#x41a;" horiz-adv-x="611" 
d="M570 714q6 2 19.5 4t26.5 2t23 -2t16 -4l-305 -342l183 -366q-5 -2 -11 -3q-11 -3 -33 -3q-14 0 -23 3q-5 1 -10 3l-167 337h-109l-72 -337q-4 -2 -9 -3q-9 -3 -29 -3q-18 0 -27 3q-5 1 -9 3l151 708q4 1 10 3q5 1 12 2t17 1q9 0 15 -1t11 -2l9 -3l-66 -309h102z" />
    <glyph glyph-name="uni041B" unicode="&#x41b;" horiz-adv-x="665" 
d="M-2 -6q-23 0 -39 7q-3 10 0 27q2 9 5.5 16.5t6.5 12.5q5 0 12 -0.5t16 0.5q14 1 33.5 10t43.5 43t53 101.5t63 185.5l94 323h369l-152 -714q-5 -2 -10 -3q-11 -3 -28 -3q-20 0 -28.5 3t-7.5 3l139 654h-229l-76 -265q-26 -91 -52 -156.5t-50 -110t-46.5 -71t-43 -40.5
t-39 -18.5t-34.5 -4.5z" />
    <glyph glyph-name="uni041C" unicode="&#x41c;" horiz-adv-x="843" 
d="M735 714q8 2 21 4t28 2q11 0 20 -1t15 -2q7 -2 13 -3l-151 -708q-5 -2 -10 -3q-11 -3 -28 -3q-18 0 -27 3q-5 1 -9 3l90 424l14 62.5l13 56.5l11 47t10 34h-3q-11 -20 -38 -60.5t-61 -86.5l-230 -296q-3 -1 -7 -2q-10 -2 -19 -2q-8 0 -16 2q-4 1 -6 2l-98 294
q-14 45 -25 87t-12 62h-3q0 -22 -10 -75.5t-24 -119.5l-91 -429q-4 -2 -9 -3q-9 -3 -26 -3q-18 0 -25 3q-5 1 -8 3l151 708q5 1 11 3q5 1 13 2t19 1q9 0 16 -1t12 -2q6 -2 11 -3l136 -436h3l329 436v0z" />
    <glyph glyph-name="uni041D" unicode="&#x41d;" horiz-adv-x="682" 
d="M597 714q4 1 10 3q5 1 12 2t16 1t15.5 -1t11.5 -2l9 -3l-151 -708q-5 -2 -10 -3q-9 -3 -28 -3t-28 3q-5 1 -8 3l70 330h-338l-70 -330q-5 -2 -10 -3q-11 -3 -28 -3q-19 0 -28 3q-5 1 -8 3l151 708q4 1 10 3q5 1 12 2t16 1t15.5 -1t11.5 -2l9 -3l-67 -312h338z" />
    <glyph glyph-name="uni041E" unicode="&#x41e;" horiz-adv-x="677" 
d="M79 373q20 97 52.5 164.5t76.5 110.5t98.5 62.5t118.5 19.5t110 -23.5t72 -71.5t30 -120.5t-16 -169.5t-52.5 -164.5t-76.5 -110t-99 -61.5t-119 -19q-128 0 -181.5 94.5t-13.5 288.5zM546 360q19 87 17.5 146t-19.5 95t-51 51.5t-78 15.5t-84.5 -15.5t-73 -51.5t-60 -95
t-45.5 -146q-18 -87 -16.5 -146t19.5 -95t51 -51.5t78 -15.5t84.5 15.5t73 51.5t60 95t44.5 146z" />
    <glyph glyph-name="uni041F" unicode="&#x41f;" horiz-adv-x="670" 
d="M508 6q-5 -2 -10 -3q-9 -3 -27 -3q-20 0 -29 3q-5 1 -8 3l138 649h-326l-138 -649q-5 -2 -10 -3q-11 -3 -28 -3q-19 0 -28 3q-5 1 -8 3l152 714h474z" />
    <glyph glyph-name="uni0420" unicode="&#x420;" horiz-adv-x="602" 
d="M108 6q-5 -2 -10 -3q-9 -3 -27 -3q-20 0 -29 3q-5 1 -8 3l152 714h253q48 0 82 -18t54 -49.5t25 -73.5t-5 -90q-20 -96 -85 -146.5t-162 -50.5h-179zM355 356q66 0 109.5 40t57.5 109q15 72 -11 112t-92 40h-172l-64 -301h172z" />
    <glyph glyph-name="uni0421" unicode="&#x421;" horiz-adv-x="557" 
d="M75 360q39 184 129 277t230 93q41 0 71 -5.5t50 -11.5q24 -7 40 -16q-3 -18 -12.5 -31.5t-22.5 -24.5q-16 7 -36 12q-17 5 -41 9t-54 4q-47 0 -89 -14.5t-77 -49.5t-63 -94t-47 -149t-16 -148.5t23 -93t56 -48t83 -13.5q33 0 61 3.5t48 8.5q24 5 44 13q8 -11 11 -26
t0 -31q-21 -10 -49 -17q-24 -7 -58.5 -12t-78.5 -5q-280 0 -202 370z" />
    <glyph glyph-name="uni0422" unicode="&#x422;" horiz-adv-x="532" 
d="M588 720q1 -5 1 -9v-10t-2 -13q-3 -13 -8 -24q-3 -5 -5 -9h-195l-138 -649q-5 -2 -10 -3q-11 -3 -28 -3q-19 0 -28 3q-5 1 -8 3l138 649h-200q-1 4 -1 9v10.5t2 13.5q3 13 8 23q3 5 5 9h469z" />
    <glyph glyph-name="uni0423" unicode="&#x423;" horiz-adv-x="609" 
d="M592 714q4 1 10 3q5 1 12 2t17 1q8 0 15 -1t12 -2q6 -2 11 -3l-315 -521q-38 -63 -69.5 -101.5t-59.5 -58.5t-54 -26.5t-53 -6.5q-13 0 -24.5 1t-20.5 3q-11 2 -20 4q-1 2 -1 10.5t2 20.5q2 11 5.5 19t4.5 10q9 -1 19 -2q8 -1 17.5 -1h17.5q18 0 34.5 3t33 14t35 32
t42.5 57h-7l-154 543q4 1 10 3q5 1 13 2t19 1t17.5 -1t11.5 -2q5 -2 8 -3l106 -389q4 -13 7 -27.5t5 -27l3.5 -21.5t1.5 -12h3q4 5 14.5 25t27.5 48l243 404v0z" />
    <glyph glyph-name="uni0424" unicode="&#x424;" horiz-adv-x="801" 
d="M456 726q4 1 10 3q5 1 12 2t16 1t15.5 -1t11.5 -2l9 -3l-15 -74q66 0 120 -14.5t88.5 -48t46.5 -88.5t-5 -135t-52 -132t-83 -82t-107.5 -41.5t-125.5 -11.5l-20 -93q-4 -2 -10 -3q-11 -3 -28 -3q-19 0 -28 3q-5 1 -8 3l20 93q-66 0 -120 15t-89 49t-47 89t5 135
t52 131.5t83 81t108 41t126 11.5zM428 593q-51 0 -96.5 -9.5t-82.5 -34t-63.5 -66.5t-40.5 -107q-14 -66 -5 -108t35.5 -66.5t68 -34t92.5 -9.5zM410 158q51 0 96.5 9.5t82 34t63.5 67t41 107.5q14 66 5 108t-35.5 66t-68 33.5t-92.5 9.5z" />
    <glyph glyph-name="uni0425" unicode="&#x425;" horiz-adv-x="609" 
d="M572 714q6 2 20 4t28 2t24 -2t16 -4l-297 -344l159 -363l-12 -4q-12 -3 -32 -3q-21 0 -28 3q-4 1 -7 3l-136 307l-259 -308q-5 -2 -19 -3.5t-28 -1.5t-24.5 1.5t-17.5 3.5l314 372l-147 337l12 3q6 1 14 2t19 1q10 0 16.5 -1t10.5 -2q4 -2 7 -3l125 -281l242 281v0z" />
    <glyph glyph-name="uni0426" unicode="&#x426;" horiz-adv-x="704" 
d="M185 714l9 3q5 1 12 2t17 1q9 0 15.5 -1t11.5 -2l9 -3l-138 -649h332l138 649l9 3q5 1 12 2t17 1q9 0 15.5 -1t11.5 -2l9 -3l-138 -649h77l-43 -203q-17 -6 -36 -6q-17 0 -32 6l29 138h-489z" />
    <glyph glyph-name="uni0427" unicode="&#x427;" horiz-adv-x="636" 
d="M551 714q4 1 10 3q5 1 12 2t16 1t15.5 -1t11.5 -2l9 -3l-151 -708q-5 -2 -10 -3q-11 -3 -28 -3q-19 0 -28 3q-5 1 -8 3l68 318q-5 -2 -21.5 -7.5t-41.5 -11.5t-57.5 -10.5t-68.5 -4.5q-51 0 -90 11t-62.5 37.5t-30.5 71t7 110.5l42 194q4 1 10 3q5 1 12 2t16 1t15.5 -1
t11.5 -2l9 -3l-42 -194q-10 -47 -6.5 -79t19 -51t44.5 -27t70 -8q34 0 64.5 4.5t54 10.5t39 12l20.5 8z" />
    <glyph glyph-name="uni0428" unicode="&#x428;" horiz-adv-x="958" 
d="M185 714l9 3q5 1 12 2t17 1q9 0 15.5 -1t11.5 -2l9 -3l-138 -649h270l138 649q3 1 8 3q5 1 12 2t18 1q10 0 16.5 -1t11.5 -2q5 -2 8 -3l-138 -649h270l138 649l9 3q5 1 11.5 2t17.5 1q9 0 15.5 -1t11.5 -2l9 -3l-152 -714h-762z" />
    <glyph glyph-name="uni0429" unicode="&#x429;" horiz-adv-x="986" 
d="M185 714l9 3q5 1 12 2t17 1q9 0 15.5 -1t11.5 -2l9 -3l-138 -649h270l138 649l9 3q5 1 12 2t17 1q9 0 15.5 -1t11.5 -2l9 -3l-138 -649h270l138 649l9 3q5 1 12 2t17 1q9 0 15.5 -1t11.5 -2l9 -3l-138 -649h77l-43 -203q-8 -4 -17 -5t-19 -1q-17 0 -32 6l29 138h-771z
" />
    <glyph glyph-name="uni042A" unicode="&#x42a;" horiz-adv-x="699" 
d="M468 415q48 0 83 -16.5t56 -45t27.5 -68.5t-3.5 -86q-20 -95 -87.5 -147t-163.5 -52h-263l139 655h-154q-1 3 -1 8v10t2 14q3 13 8 24q3 5 5 9h228l-65 -305h189zM204 63h179q69 0 113.5 39t58.5 106t-13.5 105.5t-96.5 38.5h-179z" />
    <glyph glyph-name="uni042B" unicode="&#x42b;" horiz-adv-x="869" 
d="M194 717q5 1 12 2t18 1q9 0 15 -1t11 -2l9 -3l-64 -299h189q48 0 82.5 -17t55 -46.5t26.5 -70t-4 -86.5q-20 -95 -86 -145t-162 -50h-263l152 714zM784 714q5 1 10 3q5 1 11.5 2t16.5 1q9 0 15.5 -1t11.5 -2l9 -3l-151 -708q-5 -2 -10 -3q-9 -3 -28 -3t-28 3q-5 1 -8 3z
M120 63h179q69 0 113.5 39t58.5 106t-13.5 105.5t-96.5 38.5h-179z" />
    <glyph glyph-name="uni042C" unicode="&#x42c;" horiz-adv-x="612" 
d="M384 415q48 0 82.5 -16.5t55 -46t26.5 -69.5t-4 -86q-20 -95 -86 -146t-162 -51h-263l152 714l9 3q5 1 12 2t18 1q9 0 15 -1t11 -2l9 -3l-64 -299h189zM299 63q69 0 113.5 39t58.5 106t-13.5 105.5t-96.5 38.5h-179l-62 -289h179z" />
    <glyph glyph-name="uni042D" unicode="&#x42d;" horiz-adv-x="580" 
d="M131 697q22 9 50 16q24 6 58 11.5t78 5.5q143 0 194.5 -100t12.5 -283q-39 -185 -130.5 -271t-233.5 -86q-46 0 -80 5t-57 12q-27 7 -46 17q5 17 13.5 31.5t21.5 24.5q18 -8 42 -13q20 -5 48 -8.5t63 -3.5q47 0 89.5 13t78 45t63.5 86t48 136h-273q-1 4 -1 8v9.5t2 13.5
q3 17 7 23q2 4 5 8h272q13 78 6.5 129.5t-28.5 82.5t-57.5 44t-81.5 13q-32 0 -59.5 -3.5t-48.5 -8.5q-25 -5 -45 -12q-10 11 -12 25.5t1 29.5z" />
    <glyph glyph-name="uni042E" unicode="&#x42e;" horiz-adv-x="950" 
d="M182 714l9 3q5 1 12 2t16 1t16 -1t12 -2l9 -3l-66 -323h165q42 176 130.5 257.5t212.5 81.5q64 0 111 -21.5t73 -66.5t30.5 -115t-15.5 -167t-53 -167t-77.5 -115t-100 -66.5t-119.5 -21.5q-62 0 -107.5 19.5t-72 61t-33.5 105.5t8 153h-165l-66 -323q-4 -2 -10 -3
q-11 -3 -28 -3q-19 0 -28 3q-5 1 -8 3zM688 668q-45 0 -85 -15.5t-73 -51.5t-59.5 -95t-45.5 -146q-18 -87 -17 -146t19 -95t51.5 -51.5t78.5 -15.5q46 0 85.5 15.5t72.5 51.5t59.5 95t44.5 146q19 87 18 146t-19 95t-51 51.5t-79 15.5z" />
    <glyph glyph-name="uni042F" unicode="&#x42f;" horiz-adv-x="627" 
d="M465 6q-4 -2 -9 -3q-9 -3 -29 -3q-18 0 -27 3q-5 1 -9 3l63 295h-161l-224 -295q-5 -2 -12 -3q-12 -3 -32 -3q-21 0 -31 3q-6 1 -10 3l232 303q-66 17 -91.5 74t-8.5 135q20 94 86 148t163 54h252zM358 657q-64 0 -109.5 -38.5t-59.5 -107.5q-15 -70 7 -108t86 -38h186
l62 292h-172z" />
    <glyph glyph-name="uni0430" unicode="&#x430;" horiz-adv-x="554" 
d="M456 521q3 1 7 2t9.5 2t15.5 1q9 0 15 -1t10 -2t7 -2l-110 -516q-5 -2 -9 -3q-5 -1 -10 -1.5t-12 -0.5q-8 0 -13 0.5t-9 1.5t-7 3l7 64q-29 -38 -69 -58.5t-100 -20.5q-46 0 -79 16.5t-51 51.5t-20 89.5t14 131.5q16 76 40 126t55 79t68.5 40.5t81.5 11.5q57 0 91.5 -22
t48.5 -59zM407 328q5 27 1.5 53.5t-16.5 47.5t-35 33.5t-53 12.5q-36 0 -64.5 -11t-50.5 -36t-38.5 -65.5t-28.5 -99.5q-13 -59 -14 -99.5t10.5 -65.5t35 -36t59.5 -11q32 0 59.5 13t49.5 34t36.5 47.5t20.5 54.5z" />
    <glyph glyph-name="uni0431" unicode="&#x431;" horiz-adv-x="566" 
d="M79 351q24 112 56 178t78 104t109 56t147 33q29 5 43 10t26 25q15 -2 27 -8.5t16 -17.5q-17 -35 -40 -51t-68 -24q-74 -14 -126 -26.5t-89 -37t-62 -66.5t-45 -114h3q28 45 75 73.5t118 28.5q48 0 82.5 -16t54.5 -49t24 -83.5t-11 -120.5t-38.5 -118.5t-56 -79t-74 -44
t-92.5 -13.5q-49 0 -88.5 14t-63 54t-26.5 110t21 183zM331 457q-30 0 -58.5 -9t-53 -32t-44.5 -62.5t-33 -101.5q-13 -61 -11 -100.5t16 -63t38 -32.5t55 -9t59 9t52 32.5t43 63t32 100.5t11 100.5t-15 62.5t-36.5 32.5t-54.5 9.5z" />
    <glyph glyph-name="uni0432" unicode="&#x432;" horiz-adv-x="513" 
d="M344 526q67 0 96.5 -40.5t15.5 -106.5q-9 -43 -32.5 -70t-57.5 -43q38 -15 53 -50.5t5 -81.5q-15 -69 -62.5 -101.5t-123.5 -32.5h-222l112 526h216zM277 293q45 0 73 24t37 66q19 88 -72 88h-128l-37 -178h127zM236 55q97 0 117 90q9 44 -9 69t-69 25h-136l-39 -184h136
z" />
    <glyph glyph-name="uni0433" unicode="&#x433;" horiz-adv-x="400" 
d="M421 526q1 -4 1 -8v-10t-2 -13t-4 -12.5t-4 -9.5q-3 -4 -4 -8h-221l-98 -460q-4 -2 -9 -3t-12 -1.5t-16 -0.5q-10 0 -16 0.5t-11 1.5t-8 3l111 521h293z" />
    <glyph glyph-name="uni0434" unicode="&#x434;" horiz-adv-x="575" 
d="M13 56q13 10 25.5 27t26 44t27.5 66t30 95l70 238h324l-100 -470h63l-38 -179q-5 -2 -13 -3.5t-19 -1.5q-12 0 -21 1.5t-14 3.5l26 123h-374l-26 -123q-5 -2 -14 -3.5t-20 -1.5q-12 0 -20.5 1.5t-11.5 3.5l38 179h41zM187 284q-13 -45 -25 -80t-23.5 -62t-23 -48
t-23.5 -38h252l87 412h-191z" />
    <glyph glyph-name="uni0435" unicode="&#x435;" horiz-adv-x="505" 
d="M114 240q-8 -51 -5 -86.5t17.5 -57.5t40.5 -32t62 -10q29 0 52.5 5t40.5 11q20 7 36 17q9 -8 14.5 -23t2.5 -31q-20 -12 -46 -22q-23 -8 -55 -14.5t-72 -6.5q-108 0 -145 77.5t-8 213.5q15 71 42 119.5t62 78.5t76.5 43.5t87.5 13.5q41 0 72.5 -13.5t51 -38.5t26 -61
t-2.5 -81q-5 -23 -11 -41.5t-11 -32.5q-6 -16 -11 -28h-317zM397 351q5 25 3.5 48t-12.5 40.5t-31.5 27.5t-52.5 10q-60 0 -106.5 -42.5t-72.5 -140.5h255q2 4 7 19t10 38z" />
    <glyph glyph-name="uni0436" unicode="&#x436;" horiz-adv-x="765" 
d="M695 521q5 1 11 2q5 1 12 2t17 1q8 0 14.5 -1t11.5 -2t9 -2l-207 -249l121 -266q-5 -2 -11 -3q-11 -3 -31 -3t-30 3q-6 1 -10 3l-101 240h-93l-51 -241q-5 -2 -10 -3t-12 -1.5t-15 -0.5q-9 0 -15.5 0.5t-11.5 1.5t-8 3l51 241h-94l-203 -240q-5 -2 -11 -3q-11 -3 -31 -3
q-22 0 -31 3q-5 1 -9 3l231 283l-97 232q4 1 10 2q5 1 12.5 2t16.5 1t16 -1t12 -2t9 -2l87 -218h94l47 218q4 1 9 2t12 2t16 1q8 0 14.5 -1t11.5 -2t9 -2l-47 -218h94l181 218v0z" />
    <glyph glyph-name="uni0437" unicode="&#x437;" horiz-adv-x="452" 
d="M93 512q16 7 40 12q20 5 49.5 8.5t68.5 3.5q49 0 81 -12t49 -33t21 -49.5t-3 -61.5q-9 -42 -31 -69t-64 -42v-2q41 -14 55.5 -46.5t4.5 -77.5q-7 -33 -23 -61t-44.5 -48.5t-71.5 -32t-104 -11.5q-37 0 -64.5 4.5t-45.5 9.5q-22 6 -37 15q3 14 11 27.5t21 23.5
q14 -6 32 -10q16 -4 39.5 -7t53.5 -3q74 0 111.5 24t48.5 73q11 48 -18 70t-92 22h-63q-1 4 -1 8v9t2 12q1 6 3 10.5t4 8.5l4 8h63q53 0 88.5 20t46.5 71q11 48 -14.5 70t-88.5 22q-27 0 -49.5 -3t-39.5 -6q-19 -4 -35 -8q-8 8 -10 21.5t2 29.5z" />
    <glyph glyph-name="uni0438" unicode="&#x438;" horiz-adv-x="578" 
d="M468 521q4 1 10 2q5 1 12 2t17 1q9 0 16 -1t12 -2t9 -2l-110 -516q-5 -2 -10 -3t-12 -1.5t-15 -0.5t-14.5 0.5t-11.5 1.5t-10 3l61 285q13 63 22.5 100.5t10.5 38.5h-3q1 0 -6.5 -11t-21 -28l-30.5 -38l-34 -42l-267 -305q-5 -2 -11 -3q-5 -1 -12.5 -1.5t-16.5 -0.5
t-15.5 0.5t-11.5 1.5t-9 3l110 516l10 2t11.5 2t15.5 1t15 -1t11 -2t9 -2l-62 -289q-5 -26 -10.5 -50l-10 -42.5t-8 -30.5l-3.5 -12h2q7 11 17 24q8 11 19.5 25l25.5 31l299 344v0z" />
    <glyph glyph-name="uni0439" unicode="&#x439;" horiz-adv-x="578" 
d="M366 679q25 0 46.5 5.5t37.5 12.5q18 8 33 19q23 -9 25 -36q-17 -17 -39 -30q-19 -11 -47 -20t-63 -9t-60.5 9t-42.5 20q-19 13 -32 30q7 12 17 21.5t24 14.5q10 -11 25 -19q13 -7 31.5 -12.5t44.5 -5.5zM468 521q4 1 10 2q5 1 12 2t17 1q9 0 16 -1t12 -2t9 -2l-110 -516
q-5 -2 -10 -3t-12 -1.5t-15 -0.5t-14.5 0.5t-11.5 1.5t-10 3l61 285q13 63 22.5 100t10.5 39h-3q-8 -13 -18 -26q-16 -23 -46 -58l-295 -340q-5 -2 -11 -3q-5 -1 -12.5 -1.5t-16.5 -0.5t-15.5 0.5t-11.5 1.5t-9 3l110 516l10 2t11.5 2t15.5 1t15 -1t11 -2t9 -2l-62 -289
q-5 -26 -10.5 -50.5l-10 -43t-8 -30l-3.5 -11.5h2q7 11 17 24q8 11 19.5 25l25.5 31z" />
    <glyph glyph-name="uni043A" unicode="&#x43a;" horiz-adv-x="498" 
d="M424 521l14 2q6 1 14 2t18 1q8 0 14 -1t11 -2t9 -2l-214 -249l128 -266q-6 -2 -12 -3q-11 -3 -30 -3q-16 0 -25 3q-5 1 -10 3l-112 240h-90l-51 -241q-5 -2 -10 -3t-11.5 -1.5t-14.5 -0.5q-9 0 -15.5 0.5t-11.5 1.5t-9 3l111 517l10 2t11.5 1.5t15.5 0.5q8 0 14 -0.5
t11 -1.5l10 -2l-48 -219h85z" />
    <glyph glyph-name="uni043B" unicode="&#x43b;" horiz-adv-x="552" 
d="M200 290q-30 -98 -54.5 -156t-47.5 -89.5t-45.5 -41t-47.5 -9.5q-8 0 -16 0.5t-15 2.5q-8 1 -15 3q-1 2 -1 6q0 3 -0.5 8t1.5 11q1 5 3 10t4 9l4 8q7 -1 14 -1q12 -2 26 0q15 1 28.5 14t28.5 41.5t31 74.5t36 113l68 232h316l-111 -521q-6 -2 -11 -3t-11 -1.5t-14 -0.5
q-9 0 -15.5 0.5t-11.5 1.5t-9 3l98 463h-182l-51 -178v0z" />
    <glyph glyph-name="uni043C" unicode="&#x43c;" horiz-adv-x="670" 
d="M551 521q6 1 14 2q7 1 15 2t18 1q8 0 15 -1t12 -2q6 -1 11 -2l-110 -516q-4 -2 -9 -3t-11.5 -1.5t-14.5 -0.5q-9 0 -15.5 0.5t-11.5 1.5t-8 3l65 305q11 51 20 81t11 38h-3q-5 -7 -17 -26.5t-37 -51.5l-184 -230l-6 -2q-3 -1 -6 -1.5t-8 -0.5q-8 0 -14 2q-3 1 -4 2
l-80 225q-12 34 -16.5 54.5t-6.5 28.5h-3q0 -8 -3.5 -38.5t-14.5 -81.5l-65 -304q-5 -2 -10 -3t-11 -1.5t-14 -0.5q-14 0 -24 2q-5 1 -8 3l110 516q5 1 11 2q5 1 13 2t17 1t15.5 -1t10.5 -2t7 -2l104 -314h3l243 314v0z" />
    <glyph glyph-name="uni043D" unicode="&#x43d;" horiz-adv-x="561" 
d="M89 5q-5 -2 -10 -3t-11.5 -1.5t-15.5 -0.5t-15.5 0.5t-11.5 1.5t-8 3l110 516q4 1 9 2t12 2t16 1t15 -1t11 -2t9 -2l-47 -220h256l47 220l10 2t11.5 2t15.5 1t15 -1t11 -2t9 -2l-110 -516q-5 -2 -10 -3t-12 -1.5t-16 -0.5t-15 0.5t-11 1.5t-8 3l50 236h-256z" />
    <glyph glyph-name="uni043E" unicode="&#x43e;" horiz-adv-x="539" 
d="M51 280q16 74 40.5 123.5t58.5 79t76 41.5t92 12t86 -17t56.5 -52.5t23.5 -89.5t-13 -128t-41 -124t-59 -80t-76.5 -42.5t-92.5 -12.5t-86 17.5t-55.5 53.5t-22.5 90.5t13 128.5zM400 263q13 63 11.5 104.5t-14.5 66t-37 35t-56 10.5t-60 -10.5t-51.5 -35t-41.5 -66
t-31 -104.5t-12 -104.5t14.5 -66t37.5 -35t56 -10.5t60 10.5t51 35t41.5 66t31.5 104.5z" />
    <glyph glyph-name="uni043F" unicode="&#x43f;" horiz-adv-x="551" 
d="M89 5q-5 -2 -10 -3t-12 -1.5t-15 -0.5q-9 0 -15 0.5t-11 1.5t-9 3l111 521h389l-111 -521q-5 -2 -10 -3t-11.5 -1.5t-15.5 -0.5q-8 0 -14.5 0.5t-11.5 1.5t-9 3l98 460h-245z" />
    <glyph glyph-name="uni0440" unicode="&#x440;" horiz-adv-x="556" 
d="M185 458q30 37 71.5 57.5t95.5 20.5q44 0 76.5 -16t51.5 -50.5t21.5 -89t-13.5 -130.5q-16 -77 -41 -127t-57.5 -79.5t-71 -41.5t-82.5 -12q-51 0 -85.5 22t-48.5 56l-64 -302q-4 -2 -9 -3t-12 -1.5t-16 -0.5q-10 0 -16 0.5t-11 1.5t-8 3l161 755q4 1 9 2t11.5 2t16.5 1
q9 0 15 -1t10 -2t6 -2zM415 263q12 59 12.5 99.5t-11.5 65.5t-36 36t-61 11q-32 0 -58.5 -12.5t-47 -33t-35 -46.5t-20.5 -54l-28 -129q-5 -24 -1 -50.5t16.5 -48t33.5 -36t50 -14.5q37 0 65.5 11t51 36t39.5 65.5t30 99.5z" />
    <glyph glyph-name="uni0441" unicode="&#x441;" horiz-adv-x="443" 
d="M318 475q-81 0 -128 -52.5t-70 -159.5q-23 -108 4 -158.5t108 -50.5q35 0 60 5.5t41 13.5q9 -8 14.5 -22.5t2.5 -30.5q-20 -11 -51.5 -20.5t-91.5 -9.5q-54 0 -90.5 20t-56.5 57.5t-22.5 90.5t11.5 120q29 134 96 196t173 62q32 0 55.5 -3.5t37.5 -8.5q17 -5 28 -12
q-3 -16 -11.5 -30t-19.5 -24q-11 4 -24 8q-12 3 -28.5 6t-37.5 3z" />
    <glyph glyph-name="uni0442" unicode="&#x442;" horiz-adv-x="436" 
d="M458 526q1 -4 1 -8v-9.5t-2 -13.5t-4 -13.5t-4 -9.5q-3 -4 -4 -8h-156l-98 -459q-5 -2 -10 -3t-11.5 -1.5t-15.5 -0.5q-17 0 -27 2q-5 1 -8 3l98 459h-156l-2 8q-2 9 1 23t8 23l6 8h384z" />
    <glyph glyph-name="uni0443" unicode="&#x443;" 
d="M443 521q4 1 9 2t12 2t16 1t15.5 -1t11.5 -2t8 -2l-106 -495q-17 -77 -39 -129.5t-55 -85t-79 -47t-111 -14.5q-35 0 -61 4.5t-44 10.5q-21 7 -36 16q4 15 12 28.5t20 22.5q15 -7 33 -11q16 -4 37 -7t45 -3q42 0 73.5 9t56 32.5t43 65.5t33.5 108l7 31q-38 -37 -78 -52
t-92 -15q-42 0 -70 13.5t-43.5 36t-19 52.5t3.5 64l78 365l10 2t11.5 2t15.5 1t15.5 -1t11.5 -2t8 -2l-78 -367q-23 -104 87 -104q40 0 83 23.5t75 67.5l81 380v0z" />
    <glyph glyph-name="uni0444" unicode="&#x444;" horiz-adv-x="775" 
d="M444 745q4 1 9 2t11.5 2t16.5 1q9 0 15 -1t11 -2t9 -2l-49 -230q15 7 33 11q16 4 36.5 7t45.5 3q50 0 81 -20t45.5 -56.5t13 -89.5t-15.5 -120t-34.5 -116t-49.5 -81t-67.5 -47.5t-88.5 -15.5q-26 0 -45 3.5t-33 8.5q-16 5 -27 12l-55 -259q-5 -2 -10 -3t-11.5 -1.5
t-15.5 -0.5q-17 0 -27 2q-5 1 -8 3l55 259q-15 -7 -33 -12q-16 -5 -36.5 -8.5t-46.5 -3.5q-50 0 -80.5 19.5t-44.5 56.5t-12.5 90t15.5 120t34.5 116t49 81t66.5 47.5t88 15.5q24 0 43.5 -3.5t33.5 -7.5q16 -4 29 -10zM385 456l-6 3t-18 7.5t-30 8t-42 3.5q-67 0 -106 -51.5
t-63 -163.5t-7 -163t84 -51q23 0 42.5 4t33.5 9q17 5 31 13zM636 263q24 112 7 163.5t-84 51.5q-24 0 -44 -3.5t-33.5 -8t-21.5 -7.5l-8 -3l-81 -381q10 -8 25 -13q12 -5 30 -9t41 -4q67 0 106 51t63 163z" />
    </font>
</defs>
</svg>
