<?xml version="1.0" standalone="no"?>
<!DOCTYPE svg PUBLIC "-//W3C//DTD SVG 1.1//EN" "http://www.w3.org/Graphics/SVG/1.1/DTD/svg11.dtd" >
<svg>
<metadata>
Created by FontForge 20090622 at Fri Jan 29 10:57:55 2016
 By deploy user
Copyright (c) 2014 by Fontfabric LLC. All rights reserved.
</metadata>
<defs>
<font id="GloberThinItalic" horiz-adv-x="555" >
  <font-face 
    font-family="Glober Thin Italic"
    font-weight="250"
    font-style="italic"
    font-stretch="normal"
    units-per-em="1000"
    panose-1="0 0 0 0 0 0 0 0 0 0"
    ascent="750"
    descent="-250"
    x-height="524"
    cap-height="720"
    bbox="-212 -267 989.389 1006"
    underline-thickness="50"
    underline-position="-50"
    unicode-range="U+0020-U+FB02"
  />
<missing-glyph horiz-adv-x="618" 
d="M-116 0l153 720h538l-153 -720h-538zM405 513q4 21 2 42.5t-14 39t-36 28t-63 10.5q-27 0 -50 -3.5t-40 -8.5q-20 -5 -36 -12q0 -2 0.5 -5t2.5 -5q15 6 33 10q16 4 38 7t49 3q36 0 58 -9.5t33 -24.5t12.5 -34t-2.5 -39q-8 -38 -25 -63.5t-38.5 -45t-45 -37t-45.5 -40
t-40.5 -54t-28.5 -78.5q0 -1 1 -1q1 -1 5 -1q3 0 4 1q1 0 2 1q9 45 27 74.5t40 52t46.5 40t46 38t38.5 47.5t26 67zM167 105q-2 0 -4.5 0.5t-5.5 0.5q-4 0 -6 -0.5t-4 -0.5h-3l-5 -23q1 -1 3 -1h10h10q2 0 3 1l5 23h-3z" />
    <glyph glyph-name="fi" unicode="fi" horiz-adv-x="549" 
d="M173 590q8 39 22.5 69t39 50t60 30.5t86.5 10.5q30 0 57 -4t48 -9q25 -6 46 -13q0 -9 -8 -13q-20 7 -43 12q-20 5 -46 9t-55 4q-49 0 -82.5 -9t-55 -27.5t-34.5 -45.5t-20 -63l-14 -65h321l-112 -524q0 -1 -1 -1q-1 -1 -7 -1q-4 0 -5 1q-1 0 -1 1l109 510h-307l-109 -510
q0 -1 -1 -1q-1 -1 -6 -1t-6 1q-1 0 -1 1l109 510h-64q-3 6 3 14h64l13 64v0z" />
    <glyph glyph-name="fl" unicode="fl" horiz-adv-x="550" 
d="M173 586q7 36 20.5 66t36 52t56 34t80.5 12q35 0 66 -5.5t54 -11.5q26 -8 49 -17l-152 -714q-7 -4 -14 0l150 704q-21 8 -59.5 19t-91.5 11q-45 0 -76.5 -10t-52 -29t-32.5 -45.5t-19 -60.5l-14 -65h144q1 -7 -3 -14h-144l-109 -510q0 -1 -1 -1q-1 -1 -6 -1t-6 1
q-1 0 -1 1l109 510h-64q-1 7 3 14h64l13 60v0z" />
    <glyph glyph-name=".notdef" horiz-adv-x="618" 
d="M-116 0l153 720h538l-153 -720h-538zM405 513q4 21 2 42.5t-14 39t-36 28t-63 10.5q-27 0 -50 -3.5t-40 -8.5q-20 -5 -36 -12q0 -2 0.5 -5t2.5 -5q15 6 33 10q16 4 38 7t49 3q36 0 58 -9.5t33 -24.5t12.5 -34t-2.5 -39q-8 -38 -25 -63.5t-38.5 -45t-45 -37t-45.5 -40
t-40.5 -54t-28.5 -78.5q0 -1 1 -1q1 -1 5 -1q3 0 4 1q1 0 2 1q9 45 27 74.5t40 52t46.5 40t46 38t38.5 47.5t26 67zM167 105q-2 0 -4.5 0.5t-5.5 0.5q-4 0 -6 -0.5t-4 -0.5h-3l-5 -23q1 -1 3 -1h10h10q2 0 3 1l5 23h-3z" />
    <glyph glyph-name="A" unicode="A" horiz-adv-x="631" 
d="M544 1q-1 -1 -2 -1q-1 -1 -6 -1q-4 0 -5 1q-1 0 -2 1l-44 227h-371l-139 -227q-4 -2 -9 -2t-9 2l445 722q2 2 4 0zM482 243l-84 446l-274 -446h358z" />
    <glyph glyph-name="AE" unicode="&#xc6;" horiz-adv-x="838" 
d="M724 15q2 -7 -3 -15h-327l45 212h-294l-171 -211q-2 -2 -5.5 -2h-5.5q-7 0 -9 2l586 719h324q2 -7 -3 -15h-302l-71 -334h252q1 -8 -3 -15h-252l-73 -341h312zM442 227l102 476l-387 -476h285z" />
    <glyph glyph-name="AEacute" unicode="&#x1fc;" horiz-adv-x="838" 
d="M724 15q2 -7 -3 -15h-327l45 212h-294l-172 -211q-2 -2 -5 -2h-5q-7 0 -9 2l586 719h324q2 -7 -3 -15h-302l-71 -334h252q1 -8 -3 -15h-252l-73 -341h312zM442 227l102 476l-387 -476h285zM762 916q5 -1 9 -10l-158 -144q-6 1 -8 8z" />
    <glyph glyph-name="Aacute" unicode="&#xc1;" horiz-adv-x="631" 
d="M544 1q-1 -1 -2 -1q-1 -1 -6 -1q-4 0 -5 1q-1 0 -2 1l-44 227h-371l-139 -227q-4 -2 -9 -2t-9 2l445 722q2 2 4 0zM482 243l-84 446l-274 -446h358zM535 921q8 -1 11 -9l-157 -152q-8 2 -10 9z" />
    <glyph glyph-name="Abreve" unicode="&#x102;" horiz-adv-x="631" 
d="M544 1q-1 -1 -2 -1q-1 -1 -6 -1q-4 0 -5 1q-1 0 -2 1l-44 227h-371l-139 -227q-4 -2 -9 -2t-9 2l445 722q2 2 4 0zM482 243l-84 446l-274 -446h358zM421 803q25 0 46 5.5t37.5 13.5t27.5 16t16 13q6 -3 7 -10q-17 -15 -37 -26q-18 -10 -42.5 -18t-55.5 -8t-52 8t-35 18
q-16 11 -26 26q4 7 10 8q3 -4 10 -11.5t19 -15t30.5 -13.5t44.5 -6z" />
    <glyph glyph-name="Acircumflex" unicode="&#xc2;" horiz-adv-x="631" 
d="M544 1q-1 -1 -2 -1q-1 -1 -6 -1q-4 0 -5 1q-1 0 -2 1l-44 227h-371l-139 -227q-4 -2 -9 -2t-9 2l445 722q2 2 4 0zM482 243l-84 446l-274 -446h358zM295 769q-8 2 -8 10l148 101h13l104 -101q-3 -7 -10 -9l-101 97z" />
    <glyph glyph-name="Adieresis" unicode="&#xc4;" horiz-adv-x="631" 
d="M363 791q-1 -1 -4 -2q-6 -2 -11 -2q-6 0 -10 2q-2 1 -3 2l4 20q1 1 4 2q6 2 11 2q6 0 10 -2q2 -1 3 -2zM497 791q-1 -1 -4 -2q-6 -2 -11 -2q-6 0 -10 2q-2 1 -3 2l4 20q1 1 4 2q6 2 11 2q6 0 10 -2q2 -1 3 -2zM544 1q-1 -1 -2 -1q-1 -1 -6 -1q-4 0 -5 1q-1 0 -2 1
l-44 227h-371l-139 -227q-4 -2 -9 -2t-9 2l445 722q2 2 4 0zM482 243l-84 446l-274 -446h358z" />
    <glyph glyph-name="Agrave" unicode="&#xc0;" horiz-adv-x="631" 
d="M544 1q-1 -1 -2 -1q-1 -1 -6 -1q-4 0 -5 1q-1 0 -2 1l-44 227h-371l-139 -227q-4 -2 -9 -2t-9 2l445 722q2 2 4 0zM482 243l-84 446l-274 -446h358zM348 913q5 6 13 9l92 -152q-4 -5 -12 -7z" />
    <glyph glyph-name="Amacron" unicode="&#x100;" horiz-adv-x="631" 
d="M289 803q-2 7 3 15h255q1 -6 -3 -15h-255zM544 1q-1 -1 -2 -1q-1 -1 -6 -1q-4 0 -5 1q-1 0 -2 1l-44 227h-371l-139 -227q-4 -2 -9 -2t-9 2l445 722q2 2 4 0zM482 243l-84 446l-274 -446h358z" />
    <glyph glyph-name="Aogonek" unicode="&#x104;" horiz-adv-x="632" 
d="M543 1q-35 -19 -69.5 -43t-62 -50t-43.5 -52t-13 -50q5 -26 20 -34.5t40 -8.5q14 0 34.5 3.5t40.5 14.5q6 -3 4 -10q-15 -9 -37 -15t-45 -6q-31 0 -49.5 12t-22.5 40q-3 30 16 60t48 57.5t63 50t60 36.5l-43 222h-371l-139 -227q-4 -2 -9 -2t-9 2l445 722q2 2 4 0z
M481 243l-84 446l-274 -446h358z" />
    <glyph glyph-name="Aring" unicode="&#xc5;" horiz-adv-x="632" 
d="M545 1q-1 -1 -2 -1q-1 -1 -6 -1q-4 0 -6 1q-2 0 -3 1l-43 227h-370l-139 -227q-1 -1 -3 -1q-2 -1 -7 -1t-6 1q-1 0 -2 1l427 694q-36 4 -54.5 29.5t-10.5 63.5q5 23 17 40t28.5 28.5t35.5 17.5t38 6t35.5 -6t28.5 -18t16.5 -29t-0.5 -39q-10 -42 -39.5 -65.5t-67.5 -27.5
zM435 867q-43 0 -69 -24.5t-32 -54.5q-7 -35 8.5 -58.5t58.5 -23.5q22 0 39.5 7t31 19t22 26.5t11.5 29.5q7 31 -8.5 55t-61.5 24zM482 243l-84 446l-273 -446h357z" />
    <glyph glyph-name="Aringacute" unicode="&#x1fa;" horiz-adv-x="632" 
d="M545 1q-1 -1 -2 -1q-1 -1 -6 -1q-4 0 -6 1q-2 0 -3 1l-43 227h-371l-139 -227q-1 -1 -2 -1q-2 -1 -7 -1t-6 1q-1 0 -2 1l426 693q-37 4 -54.5 29t-9.5 63q10 46 44 69t75 23q42 0 65.5 -25t14.5 -67t-39.5 -65t-68.5 -27zM435 865q-43 0 -68.5 -24.5t-32.5 -54.5
q-8 -37 10.5 -59t56.5 -22q19 0 36.5 7t31.5 18.5t23.5 26t12.5 29.5q8 35 -11.5 57t-58.5 22zM483 243l-86 445l-273 -445h359zM560 1006q4 -2 4 -5.5t1 -7.5l-154 -86q-6 4 -5 11z" />
    <glyph glyph-name="Atilde" unicode="&#xc3;" horiz-adv-x="631" 
d="M544 1q-1 -1 -2 -1q-1 -1 -6 -1q-4 0 -5 1q-1 0 -2 1l-44 227h-371l-139 -227q-4 -2 -9 -2t-9 2l445 722q2 2 4 0zM482 243l-84 446l-274 -446h358zM478 803q23 0 35.5 12.5t17.5 20.5q9 -2 12 -7q-7 -12 -17 -21q-8 -8 -21 -14t-31 -6q-17 0 -29 6t-23 13.5t-22.5 14
t-25.5 6.5q-13 0 -22 -5.5t-15 -11.5q-7 -8 -13 -17q-9 2 -12 7q5 11 15 20q8 8 21 14.5t31 6.5q14 0 25 -6t22 -13.5t23 -13.5t29 -6z" />
    <glyph glyph-name="B" unicode="B" horiz-adv-x="627" 
d="M579 535q-10 -48 -29.5 -79.5t-42.5 -50.5t-48.5 -28.5t-47.5 -13.5q19 -1 44 -9t45 -27.5t29.5 -53.5t-2.5 -88q-20 -96 -80.5 -140.5t-171.5 -44.5h-226l153 720h222q96 0 135 -47t20 -138zM350 370q178 0 214 167q17 83 -17.5 125.5t-129.5 42.5h-203l-71 -335h207z
M282 15q55 0 94.5 12t67 34t44 53.5t24.5 70.5q18 85 -19.5 128t-138.5 43h-214l-73 -341h215z" />
    <glyph glyph-name="C" unicode="C" horiz-adv-x="552" 
d="M90 359q41 193 121.5 282t211.5 89q41 0 70.5 -5t49.5 -11q23 -7 39 -16q-2 -8 -9 -12q-17 8 -39 14q-19 5 -47 10t-64 5q-125 0 -202 -86.5t-116 -269.5t-2 -268.5t162 -85.5q39 0 66.5 2.5t47.5 6.5t34.5 10t29.5 13q8 -3 6 -14l-29 -13t-34.5 -10.5t-49.5 -7t-72 -2.5
q-131 0 -173 89.5t-1 279.5z" />
    <glyph glyph-name="nonmarkingreturn" horiz-adv-x="322" 
 />
    <glyph glyph-name="Cacute" unicode="&#x106;" horiz-adv-x="552" 
d="M90 359q41 193 121.5 282t211.5 89q41 0 70.5 -5t49.5 -11q23 -7 39 -16q-2 -8 -9 -12q-17 8 -39 14q-19 5 -47 10t-64 5q-125 0 -202 -86.5t-116 -269.5t-2 -268.5t162 -85.5q39 0 66.5 2.5t47.5 6.5t34.5 10t29.5 13q8 -3 6 -14l-29 -13t-34.5 -10.5t-49.5 -7t-72 -2.5
q-131 0 -173 89.5t-1 279.5zM527 930q8 -1 11 -9l-157 -152q-8 2 -10 9z" />
    <glyph glyph-name="Ccaron" unicode="&#x10c;" horiz-adv-x="552" 
d="M325 876q3 6 11 9l102 -97l144 98q8 0 8 -10l-146 -101h-13zM90 359q41 193 121.5 282t211.5 89q41 0 70.5 -5t49.5 -11q23 -7 39 -16q-2 -8 -9 -12q-17 8 -39 14q-19 5 -47 10t-64 5q-125 0 -202 -86.5t-116 -269.5t-2 -268.5t162 -85.5q39 0 66.5 2.5t47.5 6.5t34.5 10
t29.5 13q8 -3 6 -14l-29 -13t-34.5 -10.5t-49.5 -7t-72 -2.5q-131 0 -173 89.5t-1 279.5z" />
    <glyph glyph-name="Ccedilla" unicode="&#xc7;" horiz-adv-x="552" 
d="M90 359q41 193 121.5 282t211.5 89q41 0 70.5 -5t49.5 -11q23 -7 39 -16q-2 -8 -9 -12q-17 8 -39 14q-19 5 -47 10t-64 5q-125 0 -202 -86.5t-116 -269.5t-2 -268.5t162 -85.5q39 0 66.5 2.5t47.5 6.5t34.5 10t29.5 13q8 -3 6 -14l-29 -13t-34 -10.5t-48 -7t-71 -2.5
l-25 -67q56 2 85 -20t21 -59q-10 -45 -40.5 -69.5t-85.5 -24.5q-27 0 -46.5 7t-36.5 20q3 7 10 11q14 -12 32.5 -18t44.5 -6q41 0 70 19t38 63q6 29 -16.5 46.5t-67.5 17.5h-20l-4 6l27 74q-125 4 -164 93t1 276z" />
    <glyph glyph-name="Ccircumflex" unicode="&#x108;" horiz-adv-x="552" 
d="M90 359q41 193 121.5 282t211.5 89q41 0 70.5 -5t49.5 -11q23 -7 39 -16q-2 -8 -9 -12q-17 8 -39 14q-19 5 -47 10t-64 5q-125 0 -202 -86.5t-116 -269.5t-2 -268.5t162 -85.5q39 0 66.5 2.5t47.5 6.5t34.5 10t29.5 13q8 -3 6 -14l-29 -13t-34.5 -10.5t-49.5 -7t-72 -2.5
q-131 0 -173 89.5t-1 279.5zM311 769q-8 2 -8 10l148 101h13l104 -101q-3 -7 -10 -9l-101 97z" />
    <glyph glyph-name="Cdotaccent" unicode="&#x10a;" horiz-adv-x="552" 
d="M457 821q-1 -1 -4 -2q-6 -2 -11 -2q-6 0 -10 2q-2 1 -3 2l5 20q1 1 4 2q4 2 10 2t10 -2l4 -2zM90 359q41 193 121.5 282t211.5 89q41 0 70.5 -5t49.5 -11q23 -7 39 -16q-2 -8 -9 -12q-17 8 -39 14q-19 5 -47 10t-64 5q-125 0 -202 -86.5t-116 -269.5t-2 -268.5t162 -85.5
q39 0 66.5 2.5t47.5 6.5t34.5 10t29.5 13q8 -3 6 -14l-29 -13t-34.5 -10.5t-49.5 -7t-72 -2.5q-131 0 -173 89.5t-1 279.5z" />
    <glyph glyph-name="D" unicode="D" horiz-adv-x="657" 
d="M382 720q153 0 201 -86.5t7 -273.5q-21 -96 -51.5 -164.5t-74 -112t-101.5 -63.5t-134 -20h-180l153 720h180zM229 15q73 0 129 19.5t97.5 61t70.5 107t49 157.5t19.5 157.5t-23.5 107.5t-71 61.5t-124 19.5h-162l-147 -691h162z" />
    <glyph glyph-name="Dcaron" unicode="&#x10e;" horiz-adv-x="657" 
d="M382 720q153 0 201 -86.5t7 -273.5q-21 -96 -51.5 -164.5t-74 -112t-101.5 -63.5t-134 -20h-180l153 720h180zM229 15q73 0 129 19.5t97.5 61t70.5 107t49 157.5t19.5 157.5t-23.5 107.5t-71 61.5t-124 19.5h-162l-147 -691h162zM284 878q3 6 11 9l102 -97l144 98
q8 0 8 -10l-146 -101h-13z" />
    <glyph glyph-name="Dcroat" unicode="&#x110;" horiz-adv-x="661" 
d="M385 720q71 0 121 -16.5t77 -57.5t30 -110.5t-20 -175.5t-56 -175.5t-78 -110.5t-101.5 -57.5t-125.5 -16.5h-180l75 352h-89q-2 7 3 15h89l75 353h180zM232 15q68 0 122.5 16t97 55t74 105.5t52.5 168.5q22 102 19.5 168.5t-27.5 106t-73 55t-118 15.5h-162l-72 -338
h183q1 -8 -3 -15h-183l-72 -337h162z" />
    <glyph glyph-name="Delta" unicode="&#x2206;" horiz-adv-x="637" 
d="M549 17q-6 -11 -15 -17h-551q-9 7 -9 17l430 701q7 4 12 2l6 -2zM410 706l-423 -691h547z" />
    <glyph glyph-name="E" unicode="E" 
d="M581 720q1 -8 -3 -15h-364l-71 -332h314q1 -8 -3 -15h-314l-73 -343h374q1 -8 -3 -15h-389l153 720h379z" />
    <glyph glyph-name="Eacute" unicode="&#xc9;" 
d="M581 720q1 -8 -3 -15h-364l-71 -332h314q1 -8 -3 -15h-314l-73 -343h374q1 -8 -3 -15h-389l153 720h379zM503 928q8 -1 11 -9l-157 -152q-8 2 -10 9z" />
    <glyph glyph-name="Ebreve" unicode="&#x114;" 
d="M581 720q1 -8 -3 -15h-364l-71 -332h314q1 -8 -3 -15h-314l-73 -343h374q1 -8 -3 -15h-389l153 720h379zM410 821q25 0 46 5.5t37.5 13.5t27.5 16t16 13q6 -3 7 -10q-17 -15 -37 -26q-18 -10 -42.5 -18t-55.5 -8t-52 8t-35 18q-16 11 -26 26q4 7 10 8q3 -4 10 -11.5
t19 -15t30.5 -13.5t44.5 -6z" />
    <glyph glyph-name="Ecaron" unicode="&#x11a;" 
d="M581 720q1 -8 -3 -15h-364l-71 -332h314q1 -8 -3 -15h-314l-73 -343h374q1 -8 -3 -15h-389l153 720h379zM281 875q3 6 11 9l102 -97l144 98q8 0 8 -10l-146 -101h-13z" />
    <glyph glyph-name="Ecircumflex" unicode="&#xca;" 
d="M581 720q1 -8 -3 -15h-364l-71 -332h314q1 -8 -3 -15h-314l-73 -343h374q1 -8 -3 -15h-389l153 720h379zM279 777q-8 2 -8 10l148 101h13l104 -101q-3 -7 -10 -9l-101 97z" />
    <glyph glyph-name="Edieresis" unicode="&#xcb;" 
d="M367 807l-4 -2q-4 -2 -10 -2t-10 2q-3 1 -4 2l5 20q1 1 4 2q6 2 11 2q6 0 10 -2q2 -1 3 -2zM501 807l-4 -2q-4 -2 -10 -2t-10 2q-3 1 -4 2l5 20q1 1 4 2q6 2 11 2q6 0 10 -2q2 -1 3 -2zM581 720q1 -8 -3 -15h-364l-71 -332h314q1 -8 -3 -15h-314l-73 -343h374
q1 -8 -3 -15h-389l153 720h379z" />
    <glyph glyph-name="Edotaccent" unicode="&#x116;" 
d="M428 803q-1 -1 -4 -2q-6 -2 -11 -2q-6 0 -10 2q-2 1 -3 2l4 20q1 1 4 2q6 2 11 2q6 0 10 -2q2 -1 3 -2zM581 720q1 -8 -3 -15h-364l-71 -332h314q1 -8 -3 -15h-314l-73 -343h374q1 -8 -3 -15h-389l153 720h379z" />
    <glyph glyph-name="Egrave" unicode="&#xc8;" 
d="M581 720q1 -8 -3 -15h-364l-71 -332h314q1 -8 -3 -15h-314l-73 -343h374q1 -8 -3 -15h-389l153 720h379zM344 914q5 6 13 9l92 -152q-4 -5 -12 -7z" />
    <glyph glyph-name="Emacron" unicode="&#x112;" 
d="M279 812q-2 7 3 15h255q1 -6 -3 -15h-255zM581 720q1 -8 -3 -15h-364l-71 -332h314q1 -8 -3 -15h-314l-73 -343h374q1 -8 -3 -15h-389l153 720h379z" />
    <glyph glyph-name="Eng" unicode="&#x14a;" horiz-adv-x="692" 
d="M500 -60q-6 -31 -14 -57t-23 -47t-38 -37t-59 -27q-6 3 -1 13q26 8 45.5 20t34 30t24 43t16.5 60l13 65l-287 692l-24 -116l-122 -577q-1 -1 -3 -1q-2 -1 -6 -1t-5 1q-1 0 -2 1l153 716q1 0 2 1q1 0 2.5 0.5t3.5 0.5t3 -0.5t2 -0.5q1 -1 2 -1l256 -616l31 -81q1 13 5 30
q2 14 6.5 34.5l9.5 45.5l125 587q1 0 2 1q1 0 2.5 0.5t4.5 0.5q2 0 3 -0.5t2 -0.5q1 -1 2 -1z" />
    <glyph glyph-name="Eogonek" unicode="&#x118;" 
d="M49 0l153 720h379q1 -8 -3 -15h-364l-71 -332h314q1 -8 -3 -15h-314l-73 -343h374q1 -8 -3 -15q-38 -19 -72 -43t-59.5 -50t-39.5 -52t-11 -50q5 -26 20 -34t40 -8q14 0 34.5 3.5t40.5 14.5q6 -3 4 -10q-15 -9 -37 -15t-45 -6q-31 0 -49.5 12t-22.5 40q-3 30 13.5 59
t43 55.5t58.5 48t59 35.5h-366z" />
    <glyph glyph-name="Eth" unicode="&#xd0;" horiz-adv-x="661" 
d="M385 720q71 0 121 -16.5t77 -57.5t30 -110.5t-20 -175.5t-56 -175.5t-78 -110.5t-101.5 -57.5t-125.5 -16.5h-180l75 352h-89q-2 7 3 15h89l75 353h180zM232 15q68 0 122.5 16t97 55t74 105.5t52.5 168.5q22 102 19.5 168.5t-27.5 106t-73 55t-118 15.5h-162l-72 -338
h183q1 -8 -3 -15h-183l-72 -337h162z" />
    <glyph glyph-name="Euro" unicode="&#x20ac;" horiz-adv-x="576" 
d="M304 5q35 0 62 4t47 9q23 6 41 14q3 -5 3 -11q-16 -9 -40 -16q-20 -6 -50 -10.5t-69 -4.5q-64 0 -101 22t-54.5 58t-19 82.5t4.5 95.5h-80l6 15h76q2 18 5.5 36t7.5 35q4 19 8.5 38t10.5 38h-80l6 15h78q15 50 37.5 96t55.5 81.5t78.5 56.5t106.5 21q38 0 63.5 -5
t42.5 -10q19 -6 31 -14q-2 -9 -8 -12q-14 7 -33 13q-17 5 -40.5 9t-55.5 4q-58 0 -101 -19.5t-74 -52.5t-52 -76.5t-35 -91.5h289q0 -5 -1.5 -7.5l-4.5 -7.5h-288q-5 -19 -9.5 -38t-8.5 -38q-4 -18 -7.5 -36t-5.5 -35h250q0 -6 -6 -15h-246q-6 -48 -4 -92t18.5 -77.5
t51.5 -53.5t94 -20z" />
    <glyph glyph-name="F" unicode="F" horiz-adv-x="539" 
d="M64 2q0 -1 -1 -1q-1 -1 -6 -1t-6 1q-1 0 -2 1l153 718h381q1 -8 -3 -15h-366l-72 -340h316q0 -8 -4 -15h-316z" />
    <glyph glyph-name="G" unicode="G" horiz-adv-x="617" 
d="M91 360q22 103 51 174t69.5 114.5t95 62.5t127.5 19q42 0 74 -5t54 -11q26 -7 45 -15q-3 -8 -9 -13q-21 8 -47 14q-22 5 -52 10t-65 5q-70 0 -122 -18.5t-90.5 -60t-66.5 -109.5t-49 -167q-38 -176 5 -265.5t171 -89.5q55 0 102.5 8.5t76.5 17.5l69 322h-209l3 14h223
l-74 -346q-25 -9 -55 -16q-26 -6 -61.5 -10.5t-79.5 -4.5q-131 0 -178 95t-8 275z" />
    <glyph glyph-name="Gbreve" unicode="&#x11e;" horiz-adv-x="615" 
d="M89 360q39 183 126.5 276.5t216.5 93.5q42 0 74 -5t54 -11q26 -7 45 -15q-3 -8 -9 -13q-21 8 -47 14q-22 5 -52 10t-65 5q-125 0 -207.5 -89.5t-120.5 -265.5q-22 -102 -17 -170.5t30 -109.5t67.5 -58t96.5 -17q55 0 102.5 9t76.5 18l68 320h-209l3 15h223l-74 -346
q-25 -9 -55 -16q-26 -6 -61.5 -10.5t-79.5 -4.5q-128 0 -177 90t-9 280zM454 811q25 0 46 5.5t36.5 13.5t26.5 16t17 13q5 -4 6 -10q-17 -15 -37 -26q-18 -10 -42.5 -18t-55.5 -8t-52 8t-35 18q-16 11 -26 26q5 8 11 9q3 -4 10.5 -11.5t20 -15.5t31 -14t43.5 -6z" />
    <glyph glyph-name="Gcircumflex" unicode="&#x11c;" horiz-adv-x="617" 
d="M91 360q22 103 51 174t69.5 114.5t95 62.5t127.5 19q42 0 74 -5t54 -11q26 -7 45 -15q-3 -8 -9 -13q-21 8 -47 14q-22 5 -52 10t-65 5q-70 0 -122 -18.5t-90.5 -60t-66.5 -109.5t-49 -167q-38 -176 5 -265.5t171 -89.5q55 0 102.5 8.5t76.5 17.5l69 321h-209l3 15h223
l-74 -346q-25 -9 -55 -16q-26 -6 -61.5 -10.5t-79.5 -4.5q-131 0 -178 95t-8 275zM318 779q-8 2 -8 10l148 101h13l104 -101q-3 -7 -10 -9l-101 97z" />
    <glyph glyph-name="Gcommaaccent" unicode="&#x122;" horiz-adv-x="617" 
d="M225 -162l16 22q7 10 13 22t9 24q-4 0 -6 1q-2 0 -3 1l4 20q1 0 3 1q2 0 3.5 0.5t5.5 0.5q3 0 5 -0.5t4 -0.5q2 -1 3 -1l-4 -17q-4 -17 -11.5 -31t-15.5 -25l-20 -23zM91 360q22 103 51 174t69.5 114.5t95 62.5t127.5 19q42 0 74 -5t54 -11q26 -7 45 -15q-3 -8 -9 -13
q-21 8 -47 14q-22 5 -52 10t-65 5q-70 0 -122 -18.5t-90.5 -60t-66.5 -109.5t-49 -167q-38 -176 5 -265.5t171 -89.5q55 0 102.5 8.5t76.5 17.5l69 321h-209l3 15h223l-74 -346q-25 -9 -55 -16q-26 -6 -61.5 -10.5t-79.5 -4.5q-131 0 -178 95t-8 275z" />
    <glyph glyph-name="Gdotaccent" unicode="&#x120;" horiz-adv-x="617" 
d="M467 803q-1 -1 -4 -2q-6 -2 -11 -2q-6 0 -10 2q-2 1 -3 2l4 20q1 1 4 2q6 2 11 2q6 0 10 -2q2 -1 3 -2zM91 360q22 103 51 174t69.5 114.5t95 62.5t127.5 19q42 0 74 -5t54 -11q26 -7 45 -15q-3 -8 -9 -13q-21 8 -47 14q-22 5 -52 10t-65 5q-70 0 -122 -18.5t-90.5 -60
t-66.5 -109.5t-49 -167q-38 -176 5 -265.5t171 -89.5q55 0 102.5 8.5t76.5 17.5l69 321h-209l3 15h223l-74 -346q-25 -9 -55 -16q-26 -6 -61.5 -10.5t-79.5 -4.5q-131 0 -178 95t-8 275z" />
    <glyph glyph-name="H" unicode="H" horiz-adv-x="676" 
d="M635 718q1 0 2 1q1 0 2 0.5t3 0.5t3.5 -0.5t2.5 -0.5q1 -1 2 -1l-153 -716q-1 -1 -2 -1q-1 -1 -6 -1t-6 1q-1 0 -1 1l77 360h-418l-77 -360q-1 -1 -2 -1q-1 -1 -5 -1q-6 0 -7 1q-1 0 -1 1l153 716q1 0 2 1q1 0 2.5 0.5t3.5 0.5t3 -0.5t2 -0.5q1 -1 2 -1l-73 -341h418z
" />
    <glyph glyph-name="Hbar" unicode="&#x126;" horiz-adv-x="677" 
d="M694 583q2 -10 -3 -15h-72l-121 -566q-1 -1 -2 -1q-1 -1 -6 -1t-6 1q-1 0 -1 1l77 360h-418l-77 -360q-1 -1 -2 -1q-1 -1 -5 -1q-6 0 -7 1q-1 0 -1 1l121 566h-75q-3 7 3 15h75l29 135q1 0 2 1q1 0 2.5 0.5t3.5 0.5t3 -0.5t2 -0.5q1 -1 2 -1l-29 -135h418l29 135q1 0 2 1
q1 0 2 0.5t3 0.5t3.5 -0.5t2.5 -0.5q1 -1 2 -1l-29 -135h72zM563 377l41 191h-418l-41 -191h418z" />
    <glyph glyph-name="Hcircumflex" unicode="&#x124;" horiz-adv-x="676" 
d="M635 718q1 0 2 1q1 0 2 0.5t3 0.5t3.5 -0.5t2.5 -0.5q1 -1 2 -1l-153 -716q-1 -1 -2 -1q-1 -1 -6 -1t-6 1q-1 0 -1 1l77 359h-418l-77 -359q-1 -1 -2 -1q-1 -1 -5 -1q-6 0 -7 1q-1 0 -1 1l153 716q1 0 2 1q1 0 2.5 0.5t3.5 0.5t3 -0.5t2 -0.5q1 -1 2 -1l-73 -341h418z
M314 776q-6 2 -6 10l148 101h13l104 -101q-2 -8 -10 -10l-101 98z" />
    <glyph glyph-name="I" unicode="I" horiz-adv-x="243" 
d="M202 718q1 0 2 1q1 0 2.5 0.5t3.5 0.5t3.5 -0.5t2.5 -0.5l1 -1l-152 -716q-1 -1 -2 -1.5t-6 -0.5t-6 1q-1 0 -2 1z" />
    <glyph glyph-name="IJ" unicode="&#x132;" horiz-adv-x="588" 
d="M202 718q1 0 2 1q1 0 2.5 0.5t3.5 0.5t3.5 -0.5t2.5 -0.5l1 -1l-152 -716q-1 0 -2 -1t-6 -1t-6 1q-1 0 -2 1zM551 718l1 1q1 0 2.5 0.5t4.5 0.5q2 0 3 -0.5t2 -0.5q1 -1 2 -1l-122 -573q-17 -80 -54.5 -117.5t-115.5 -37.5q-28 0 -51 4.5t-40 10.5q-20 6 -37 15
q1 10 9 14q15 -9 34 -15q17 -5 39.5 -9.5t51.5 -4.5q61 0 96.5 31.5t52.5 108.5z" />
    <glyph glyph-name="Iacute" unicode="&#xcd;" horiz-adv-x="243" 
d="M202 718q1 0 2 1q1 0 2.5 0.5t3.5 0.5t3.5 -0.5t2.5 -0.5l1 -1l-153 -716q-1 0 -1.5 -1t-5.5 -1t-6 1q-1 0 -2 1zM320 921q5 -1 6 -3.5t3 -6.5l-157 -150q-6 1 -9 8z" />
    <glyph glyph-name="Ibreve" unicode="&#x12c;" horiz-adv-x="243" 
d="M228 808q25 0 45.5 5.5t36.5 13.5t26.5 16t16.5 13q6 -4 7 -10q-17 -15 -37 -26q-18 -10 -42.5 -18t-55.5 -8t-52 8t-35 18q-16 11 -26 26q2 4 4 6t7 3q3 -4 10.5 -11.5t20 -15.5t31 -14t43.5 -6zM202 718q1 0 2 1q1 0 2.5 0.5t3.5 0.5t3.5 -0.5t2.5 -0.5l1 -1l-152 -716
q-1 -1 -2 -1.5t-6 -0.5t-6 1q-1 0 -2 1z" />
    <glyph glyph-name="Icircumflex" unicode="&#xce;" horiz-adv-x="243" 
d="M202 718q1 0 2 1q1 0 2.5 0.5t3.5 0.5t3.5 -0.5t2.5 -0.5l1 -1l-153 -716l-2 -2h-5t-6 1q-1 0 -2 1zM95 775q-6 2 -6 10l148 101h13l104 -101q-2 -8 -9 -9l-102 97z" />
    <glyph glyph-name="Idieresis" unicode="&#xcf;" horiz-adv-x="243" 
d="M202 718q1 0 2 1q1 0 2.5 0.5t3.5 0.5t3.5 -0.5t2.5 -0.5l1 -1l-153 -716q-2 -2 -7 -2t-6 1q-1 0 -2 1zM173 796q-1 -1 -4 -2q-6 -2 -11 -2q-6 0 -10 2q-2 1 -3 2l4 20q1 1 4 2q6 2 11 2q6 0 10 -2q2 -1 3 -2zM307 796q-1 -1 -4 -2q-6 -2 -11 -2q-6 0 -10 2q-2 1 -3 2
l4 20q1 1 4 2q6 2 11 2q6 0 10 -2q2 -1 3 -2z" />
    <glyph glyph-name="Idotaccent" unicode="&#x130;" horiz-adv-x="243" 
d="M202 718q1 0 2 1q1 0 2.5 0.5t3.5 0.5t3.5 -0.5t2.5 -0.5l1 -1l-153 -716l-3 -1.5t-4 -0.5q-5 0 -6 1q-1 0 -2 1zM241 802l-4 -2q-4 -2 -10 -2t-10 2q-3 1 -4 2l5 20q1 1 4 2q6 2 11 2q6 0 10 -2q2 -1 3 -2z" />
    <glyph glyph-name="Igrave" unicode="&#xcc;" horiz-adv-x="243" 
d="M202 718q1 0 2 1q1 0 2.5 0.5t3.5 0.5t3.5 -0.5t2.5 -0.5l1 -1l-153 -716q-1 0 -1.5 -1t-5.5 -1t-6 1q-1 0 -2 1zM162 910q6 8 14 10l91 -152q-5 -7 -11 -8z" />
    <glyph glyph-name="Imacron" unicode="&#x12a;" horiz-adv-x="243" 
d="M202 718q1 0 2 1q1 0 2.5 0.5t3.5 0.5t3.5 -0.5t2.5 -0.5l1 -1l-153 -716q-2 -2 -8 -2q-4 0 -5 1q-1 0 -2 1zM97 784q-2 7 3 15h252q1 -6 -3 -15h-252z" />
    <glyph glyph-name="Iogonek" unicode="&#x12e;" horiz-adv-x="243" 
d="M65 0q-57 -48 -89 -96t-26 -96q5 -26 20 -35t40 -9q14 0 34 3.5t40 14.5q7 -3 5 -11q-15 -9 -37 -15t-45 -6q-31 0 -49.5 13.5t-22.5 41.5q-3 30 7 58t27 53.5t38.5 47.5t42.5 40l152 714q1 0 2 1q1 0 2.5 0.5t3.5 0.5t3.5 -0.5t2.5 -0.5l1 -1l-152 -718v0z" />
    <glyph glyph-name="Itilde" unicode="&#x128;" horiz-adv-x="243" 
d="M202 718q1 0 2 1q1 0 2.5 0.5t3.5 0.5t3 -0.5t2 -0.5q1 -1 2 -1l-153 -716q-2 -2 -8 -2q-4 0 -5 1q-1 0 -2 1zM278 791q23 0 35.5 12.5t17.5 20.5q7 -1 11 -7q-7 -12 -17 -21q-8 -8 -21 -14t-31 -6q-17 0 -29 6t-22.5 13.5t-21 14t-24.5 6.5t-23.5 -5.5t-16.5 -11.5
q-8 -8 -13 -17q-7 1 -11 6q6 11 16 21q8 8 21.5 15t33.5 7q14 0 24.5 -6.5t20.5 -14t21.5 -13.5t28.5 -6z" />
    <glyph glyph-name="J" unicode="J" horiz-adv-x="416" 
d="M379 718q1 0 2 1q1 0 2 0.5t3 0.5t3.5 -0.5t2.5 -0.5q1 -1 2 -1l-122 -574q-9 -40 -22 -69t-33.5 -48t-49 -28t-67.5 -9q-27 0 -50.5 4.5t-40.5 10.5q-20 6 -36 15q2 11 10 14q15 -9 33 -15q16 -5 38.5 -9.5t51.5 -4.5q63 0 98.5 32t52.5 108z" />
    <glyph glyph-name="Jcircumflex" unicode="&#x134;" horiz-adv-x="416" 
d="M379 718q1 0 2 1q1 0 2 0.5t3 0.5t3.5 -0.5t2.5 -0.5q1 -1 2 -1l-122 -574q-9 -40 -22 -69t-33.5 -48t-49 -28t-67.5 -9q-27 0 -50.5 4.5t-40.5 10.5q-20 6 -36 15q2 11 10 14q15 -9 33 -15q16 -5 38.5 -9.5t51.5 -4.5q31 0 55.5 7t42.5 23.5t31 43t22 66.5zM263 776
q-6 2 -6 10l148 101h13l104 -101q-2 -8 -10 -10l-101 98z" />
    <glyph glyph-name="K" unicode="K" horiz-adv-x="604" 
d="M617 718q7 4 14 2q3 -1 5 -2l-316 -346l191 -370q-1 0 -3 -1t-6 -1q-6 0 -7 1q-1 0 -2 1l-186 364h-165l-78 -364q-1 -1 -2 -1q-1 -1 -5 -1q-5 0 -6 1q-1 0 -2 1l153 716q1 0 2 1q1 0 2 0.5t3 0.5t3.5 -0.5t2.5 -0.5q1 -1 2 -1l-72 -337h164z" />
    <glyph glyph-name="Kcommaaccent" unicode="&#x136;" horiz-adv-x="604" 
d="M200 -137q9 8 16 19q6 8 12 19.5t9 23.5q-5 0 -7 1q-2 0 -3 1l5 20q1 0 3 1q2 0 3.5 0.5t5.5 0.5q3 0 5 -0.5t4 -0.5q2 -1 3 -1l-4 -17q-4 -17 -11 -30t-15 -23q-9 -11 -19 -20zM617 718q7 4 14 2q3 -1 5 -2l-316 -346l191 -370q-1 0 -3 -1t-6 -1q-6 0 -7 1q-1 0 -2 1
l-186 364h-165l-78 -364q-1 -1 -2 -1q-1 -1 -5 -1q-5 0 -6 1q-1 0 -2 1l153 716q1 0 2 1q1 0 2 0.5t3 0.5t3.5 -0.5t2.5 -0.5q1 -1 2 -1l-72 -337h164z" />
    <glyph glyph-name="L" unicode="L" horiz-adv-x="494" 
d="M202 718q1 0 2 1q1 0 2.5 0.5t3.5 0.5t3.5 -0.5t2.5 -0.5l1 -1l-150 -703h340q1 -7 0 -11q-1 -3 -3 -4h-355z" />
    <glyph glyph-name="Lacute" unicode="&#x139;" horiz-adv-x="494" 
d="M202 718q1 0 2 1q1 0 2.5 0.5t3.5 0.5t3.5 -0.5t2.5 -0.5l1 -1l-150 -703h340q1 -7 0 -11q-1 -3 -3 -4h-355zM348 923q5 -1 6 -3.5t3 -6.5l-157 -150q-6 1 -8 8z" />
    <glyph glyph-name="Lcaron" unicode="&#x13d;" horiz-adv-x="494" 
d="M361 576q-9 -2 -9 5q35 25 54 61t25 79q13 3 18 0q-3 -18 -10 -38.5t-18 -40t-26 -37t-34 -29.5zM202 718q1 0 2 1q1 0 2.5 0.5t3.5 0.5t3.5 -0.5t2.5 -0.5l1 -1l-150 -703h340q1 -7 0 -11q-1 -3 -3 -4h-355z" />
    <glyph glyph-name="Lcommaaccent" unicode="&#x13b;" horiz-adv-x="494" 
d="M202 718q1 0 2 1q1 0 2.5 0.5t3.5 0.5t3.5 -0.5t2.5 -0.5l1 -1l-150 -703h340q1 -7 0 -11q-1 -3 -3 -4h-355zM179 -132q9 8 16 19q6 8 12 19.5t9 23.5q-4 0 -6 1q-2 0 -3 1l4 20q1 0 3 1q2 0 3.5 0.5t5.5 0.5q3 0 5 -0.5t4 -0.5q2 -1 3 -1l-4 -17q-4 -17 -11 -30t-15 -23
q-9 -11 -19 -20z" />
    <glyph glyph-name="Ldot" unicode="&#x13f;" horiz-adv-x="495" 
d="M202 718q1 0 2 1q1 0 2.5 0.5t3.5 0.5t3.5 -0.5t2.5 -0.5l1 -1l-150 -703h340q1 -7 0 -11q-1 -3 -3 -4h-355zM324 324q-1 -1 -4 -2q-6 -2 -11 -2q-6 0 -10 2q-2 1 -3 2l4 20q1 1 4 2q6 2 11 2q6 0 10 -2q2 -1 3 -2z" />
    <glyph glyph-name="Lslash" unicode="&#x141;" horiz-adv-x="500" 
d="M414 15q1 -7 0 -11q-1 -3 -3 -4h-355l75 353l-80 -42q-6 5 -4 13l88 46l74 348q1 0 2 1q1 0 2.5 0.5t3.5 0.5t3.5 -0.5t2.5 -0.5l1 -1l-73 -340l123 64q5 -4 4 -12l-130 -68l-74 -347h340z" />
    <glyph glyph-name="M" unicode="M" horiz-adv-x="864" 
d="M816 718q11 5 22 0l-153 -716q-1 -1 -2 -1q-1 -1 -6 -1t-6 1q-1 0 -1 1l139 647l13 56l-398 -488q-13 -5 -22 0l-188 488l-12 -56l-138 -647q0 -1 -1 -1q-1 -1 -6 -1t-6 1q-1 0 -2 1l153 716q11 5 22 0l190 -491z" />
    <glyph glyph-name="N" unicode="N" horiz-adv-x="692" 
d="M211 695l-24 -116l-122 -577q-1 -1 -3 -1q-2 -1 -6 -1t-5 1q-1 0 -2 1l153 716q1 0 2 1q1 0 2.5 0.5t3.5 0.5t3 -0.5t2 -0.5q1 -1 2 -1l256 -616l31 -81q1 13 5 30q2 14 6.5 34.5l9.5 45.5l125 587q1 0 2 1q1 0 2.5 0.5t4.5 0.5q2 0 3 -0.5t2 -0.5q1 -1 2 -1l-153 -716
q-1 -1 -2 -1q-1 -1 -5 -1q-5 0 -6 1q-1 0 -2 1z" />
    <glyph glyph-name="Nacute" unicode="&#x143;" horiz-adv-x="692" 
d="M570 921q7 -1 11 -10l-157 -150q-7 1 -10 8zM211 695l-24 -116l-122 -577q-1 -1 -3 -1q-2 -1 -6 -1t-5 1q-1 0 -2 1l153 716q1 0 2 1q1 0 2.5 0.5t3.5 0.5t3 -0.5t2 -0.5q1 -1 2 -1l256 -616l31 -81q1 13 5 30q2 14 6.5 34.5l9.5 45.5l125 587q1 0 2 1q1 0 2.5 0.5
t4.5 0.5q2 0 3 -0.5t2 -0.5q1 -1 2 -1l-153 -716q-1 -1 -2 -1q-1 -1 -5 -1q-5 0 -6 1q-1 0 -2 1z" />
    <glyph glyph-name="Ncaron" unicode="&#x147;" horiz-adv-x="692" 
d="M211 695l-24 -116l-122 -577q-1 -1 -3 -1q-2 -1 -6 -1t-5 1q-1 0 -2 1l153 716q1 0 2 1q1 0 2.5 0.5t3.5 0.5t3 -0.5t2 -0.5q1 -1 2 -1l256 -616l31 -81q1 13 5 30q2 14 6.5 34.5l9.5 45.5l125 587q1 0 2 1q1 0 2.5 0.5t4.5 0.5q2 0 3 -0.5t2 -0.5q1 -1 2 -1l-153 -716
q-1 -1 -2 -1q-1 -1 -5 -1q-5 0 -6 1q-1 0 -2 1zM330 873q3 6 11 9l102 -97l144 98q8 0 8 -10l-146 -101h-13z" />
    <glyph glyph-name="Ncommaaccent" unicode="&#x145;" horiz-adv-x="692" 
d="M226 -153q9 8 16 19q6 8 12 19.5t9 23.5q-5 0 -7 1q-2 0 -3 1l4 20q1 0 3 1q2 0 4 0.5t6 0.5q3 0 4.5 -0.5t3.5 -0.5q2 -1 3 -1l-3 -17q-4 -17 -11.5 -30t-15.5 -23q-9 -11 -19 -20zM211 695l-24 -116l-122 -577q-1 -1 -3 -1q-2 -1 -6 -1t-5 1q-1 0 -2 1l153 716q1 0 2 1
q1 0 2.5 0.5t3.5 0.5t3 -0.5t2 -0.5q1 -1 2 -1l256 -616l31 -81q1 13 5 30q2 14 6.5 34.5l9.5 45.5l125 587q1 0 2 1q1 0 2.5 0.5t4.5 0.5q2 0 3 -0.5t2 -0.5q1 -1 2 -1l-153 -716q-1 -1 -2 -1q-1 -1 -5 -1q-5 0 -6 1q-1 0 -2 1z" />
    <glyph glyph-name="Ntilde" unicode="&#xd1;" horiz-adv-x="692" 
d="M211 695l-24 -116l-122 -577q-1 -1 -3 -1q-2 -1 -6 -1t-5 1q-1 0 -2 1l153 716q1 0 2 1q1 0 2.5 0.5t3.5 0.5t3 -0.5t2 -0.5q1 -1 2 -1l256 -616l31 -81q1 13 5 30q2 14 6.5 34.5l9.5 45.5l125 587q1 0 2 1q1 0 2.5 0.5t4.5 0.5q2 0 3 -0.5t2 -0.5q1 -1 2 -1l-153 -716
q-1 -1 -2 -1q-1 -1 -5 -1q-5 0 -6 1q-1 0 -2 1zM499 803q23 0 35.5 12.5t17.5 20.5q9 -2 12 -7q-7 -12 -17 -21q-8 -8 -21 -14t-31 -6q-17 0 -29 6t-23 13.5t-22.5 14t-25.5 6.5q-13 0 -22 -5.5t-15 -11.5q-7 -8 -13 -17q-9 2 -12 7q5 11 15 20q8 8 21 14.5t31 6.5
q14 0 25 -6t22 -13.5t23 -13.5t29 -6z" />
    <glyph glyph-name="O" unicode="O" horiz-adv-x="675" 
d="M89 360q21 97 53.5 167t75.5 115t96 66.5t114 21.5q126 0 173.5 -93.5t7.5 -276.5q-21 -97 -53.5 -167t-75.5 -115t-95.5 -66.5t-113.5 -21.5q-128 0 -174.5 93.5t-7.5 276.5zM594 360q39 183 -5 269t-164 86q-56 0 -105.5 -20t-91 -63t-73 -110.5t-51.5 -161.5
q-38 -183 6 -269t164 -86q56 0 105.5 20t90.5 63t72.5 110t51.5 162z" />
    <glyph glyph-name="OE" unicode="&#x152;" horiz-adv-x="809" 
d="M89 360q21 97 55.5 167t80.5 115t101.5 66.5t118.5 21.5q27 0 48.5 -4t33.5 -6h306q2 -8 -3 -15h-301l-71 -332h261q2 -8 -3 -15h-261l-73 -343h311q1 -8 -3 -15h-317q-14 -4 -35 -7t-50 -3q-63 0 -109.5 21t-73.5 66t-32 115t16 168zM514 707q-11 3 -28.5 5.5t-43.5 2.5
q-58 0 -110.5 -20t-96.5 -63t-77.5 -110.5t-53.5 -161.5q-20 -95 -15 -162t30.5 -110t69.5 -63t102 -20q25 0 45 3t31 6z" />
    <glyph glyph-name="Oacute" unicode="&#xd3;" horiz-adv-x="675" 
d="M553 921q5 -1 6 -3.5t2 -6.5l-161 -146q-8 2 -8 8zM89 360q21 97 53.5 167t75.5 115t96 66.5t114 21.5q126 0 173.5 -93.5t7.5 -276.5q-21 -97 -53.5 -167t-75.5 -115t-95.5 -66.5t-113.5 -21.5q-128 0 -174.5 93.5t-7.5 276.5zM594 360q39 183 -5 269t-164 86
q-56 0 -105.5 -20t-91 -63t-73 -110.5t-51.5 -161.5q-38 -183 6 -269t164 -86q56 0 105.5 20t90.5 63t72.5 110t51.5 162z" />
    <glyph glyph-name="Obreve" unicode="&#x14e;" horiz-adv-x="675" 
d="M443 806q25 0 46 5.5t37.5 13.5t27.5 16t16 13q6 -3 7 -10q-17 -15 -37 -26q-18 -10 -42.5 -18t-55.5 -8t-52 8t-35 18q-16 11 -26 26q4 7 10 8q3 -4 10 -11.5t19 -15t30.5 -13.5t44.5 -6zM89 360q21 97 53.5 167t75.5 115t96 66.5t114 21.5q126 0 173.5 -93.5
t7.5 -276.5q-21 -97 -53.5 -167t-75.5 -115t-95.5 -66.5t-113.5 -21.5q-128 0 -174.5 93.5t-7.5 276.5zM594 360q39 183 -5 269t-164 86q-56 0 -105.5 -20t-91 -63t-73 -110.5t-51.5 -161.5q-38 -183 6 -269t164 -86q56 0 105.5 20t90.5 63t72.5 110t51.5 162z" />
    <glyph glyph-name="Ocircumflex" unicode="&#xd4;" horiz-adv-x="675" 
d="M315 777q-6 3 -6 10l149 101h13l103 -101q-2 -8 -10 -10l-102 98zM89 360q21 97 53.5 167t75.5 115t96 66.5t114 21.5q126 0 173.5 -93.5t7.5 -276.5q-21 -97 -53.5 -167t-75.5 -115t-95.5 -66.5t-113.5 -21.5q-128 0 -174.5 93.5t-7.5 276.5zM594 360q39 183 -5 269
t-164 86q-56 0 -105.5 -20t-91 -63t-73 -110.5t-51.5 -161.5q-38 -183 6 -269t164 -86q56 0 105.5 20t90.5 63t72.5 110t51.5 162z" />
    <glyph glyph-name="Odieresis" unicode="&#xd6;" horiz-adv-x="675" 
d="M391 813q-1 -1 -4 -2q-6 -2 -11 -2q-6 0 -10 2q-2 1 -3 2l4 20q1 1 4 2q6 2 11 2q6 0 10 -2q2 -1 3 -2zM525 813q-1 -1 -4 -2q-6 -2 -11 -2q-6 0 -10 2q-2 1 -3 2l4 20q1 1 4 2q6 2 11 2q6 0 10 -2q2 -1 3 -2zM89 360q21 97 53.5 167t75.5 115t96 66.5t114 21.5
q126 0 173.5 -93.5t7.5 -276.5q-21 -97 -53.5 -167t-75.5 -115t-95.5 -66.5t-113.5 -21.5q-128 0 -174.5 93.5t-7.5 276.5zM594 360q39 183 -5 269t-164 86q-56 0 -105.5 -20t-91 -63t-73 -110.5t-51.5 -161.5q-38 -183 6 -269t164 -86q56 0 105.5 20t90.5 63t72.5 110
t51.5 162z" />
    <glyph glyph-name="Ograve" unicode="&#xd2;" horiz-adv-x="675" 
d="M387 912q4 7 12 10l97 -148q-2 -6 -10 -8zM89 360q21 97 53.5 167t75.5 115t96 66.5t114 21.5q126 0 173.5 -93.5t7.5 -276.5q-21 -97 -53.5 -167t-75.5 -115t-95.5 -66.5t-113.5 -21.5q-128 0 -174.5 93.5t-7.5 276.5zM594 360q39 183 -5 269t-164 86q-56 0 -105.5 -20
t-91 -63t-73 -110.5t-51.5 -161.5q-38 -183 6 -269t164 -86q56 0 105.5 20t90.5 63t72.5 110t51.5 162z" />
    <glyph glyph-name="Ohungarumlaut" unicode="&#x150;" horiz-adv-x="675" 
d="M472 909q14 -1 18 -11l-120 -118q-13 0 -12 7zM599 909q8 -1 11.5 -3t7.5 -8l-122 -118q-11 0 -12 7zM89 360q21 97 53.5 167t75.5 115t96 66.5t114 21.5q126 0 173.5 -93.5t7.5 -276.5q-21 -97 -53.5 -167t-75.5 -115t-95.5 -66.5t-113.5 -21.5q-128 0 -174.5 93.5
t-7.5 276.5zM594 360q39 183 -5 269t-164 86q-56 0 -105.5 -20t-91 -63t-73 -110.5t-51.5 -161.5q-38 -183 6 -269t164 -86q56 0 105.5 20t90.5 63t72.5 110t51.5 162z" />
    <glyph glyph-name="Omacron" unicode="&#x14c;" horiz-adv-x="675" 
d="M323 827h249q1 -6 -3 -15h-249q-2 7 3 15zM89 360q-39 -183 7.5 -276.5t174.5 -93.5q61 0 113.5 21.5t95.5 66.5t75.5 115t53.5 167q40 183 -7.5 276.5t-173.5 93.5q-61 0 -114 -21.5t-96 -66.5t-75.5 -115t-53.5 -167zM594 360q-20 -95 -51.5 -162t-72.5 -110t-90.5 -63
t-105.5 -20q-120 0 -164 86t-6 269q20 94 51.5 161.5t73 110.5t91 63t105.5 20q120 0 164 -86t5 -269z" />
    <glyph glyph-name="Omega" unicode="&#x2126;" horiz-adv-x="708" 
d="M577 16q3 -2 2 -8q-2 -5 -5 -8h-223q-2 3 -1 9.5t5 10.5q25 13 64.5 43.5t80 76.5t75.5 106t51 134q35 166 -11 250.5t-173 84.5t-209 -84.5t-117 -250.5q-15 -71 -6 -130t30 -105t47.5 -77.5t45.5 -47.5q4 -2 2.5 -9.5t-6.5 -10.5h-223q-3 3 -1 8q1 5 4 8h206
q-4 2 -29 27t-50.5 71.5t-39.5 113t4 152.5q37 174 124 262t221 88t184 -88t13 -262q-12 -56 -34 -103t-48.5 -86t-55.5 -69t-55 -52t-46 -35.5t-29 -18.5h203z" />
    <glyph glyph-name="Oslash" unicode="&#xd8;" horiz-adv-x="675" 
d="M588 658q66 -93 21 -298q-21 -97 -53.5 -167t-75.5 -115t-95.5 -66.5t-113.5 -21.5q-100 0 -151 59l-69 -90q-7 0 -10 6l72 93q-34 46 -40.5 121.5t16.5 180.5q21 97 53.5 167t75.5 115t96 66.5t114 21.5q102 0 153 -62l67 88q7 -2 10 -6zM425 715q-56 0 -105.5 -20
t-91 -63t-73 -110.5t-51.5 -161.5q-22 -103 -17 -174.5t35 -114.5l449 585q-46 59 -146 59zM274 5q56 0 105.5 20t90.5 63t72.5 110t51.5 162q43 200 -16 286l-448 -585q46 -56 144 -56z" />
    <glyph glyph-name="Oslashacute" unicode="&#x1fe;" horiz-adv-x="675" 
d="M552 923q5 -1 6 -3.5t3 -6.5l-157 -150q-6 1 -8 8zM588 658q66 -93 21 -298q-21 -97 -53.5 -167t-75.5 -115t-95.5 -66.5t-113.5 -21.5q-100 0 -151 59l-69 -90q-7 0 -10 6l72 93q-34 46 -40.5 121.5t16.5 180.5q21 97 53.5 167t75.5 115t96 66.5t114 21.5q102 0 153 -62
l67 88q7 -2 10 -6zM425 715q-56 0 -105.5 -20t-91 -63t-73 -110.5t-51.5 -161.5q-22 -103 -17 -174.5t35 -114.5l449 585q-46 59 -146 59zM274 5q56 0 105.5 20t90.5 63t72.5 110t51.5 162q43 200 -16 286l-448 -585q46 -56 144 -56z" />
    <glyph glyph-name="Otilde" unicode="&#xd5;" horiz-adv-x="675" 
d="M498 802q23 0 35.5 12.5t17.5 20.5q9 -2 12 -7q-7 -12 -17 -21q-8 -8 -21 -14t-31 -6q-17 0 -29 6t-23 13.5t-22.5 14t-25.5 6.5q-13 0 -22 -5.5t-15 -11.5q-7 -8 -13 -17q-9 2 -12 7q5 11 15 20q8 8 21 14.5t31 6.5q14 0 25 -6t22 -13.5t23 -13.5t29 -6zM89 360
q21 97 53.5 167t75.5 115t96 66.5t114 21.5q126 0 173.5 -93.5t7.5 -276.5q-21 -97 -53.5 -167t-75.5 -115t-95.5 -66.5t-113.5 -21.5q-128 0 -174.5 93.5t-7.5 276.5zM594 360q39 183 -5 269t-164 86q-56 0 -105.5 -20t-91 -63t-73 -110.5t-51.5 -161.5q-38 -183 6 -269
t164 -86q56 0 105.5 20t90.5 63t72.5 110t51.5 162z" />
    <glyph glyph-name="P" unicode="P" horiz-adv-x="598" 
d="M64 2q-1 -1 -2 -1q-1 -1 -6 -1q-4 0 -5 1q-1 0 -2 1l153 718h241q88 0 124.5 -53t16.5 -149q-20 -95 -79.5 -148t-147.5 -53h-226zM362 332q79 0 133.5 48.5t73.5 136.5q19 89 -12.5 139t-114.5 50h-227l-80 -374h227z" />
    <glyph glyph-name="Q" unicode="Q" horiz-adv-x="675" 
d="M428 730q126 0 173.5 -93.5t7.5 -276.5q-26 -121 -70 -200t-104 -121q21 -32 52 -50t56 -25q-1 -9 -8 -14q-14 3 -30 10t-31.5 18t-29 24t-22.5 28q-67 -40 -151 -40q-128 0 -174.5 93.5t-7.5 276.5q21 97 53.5 167t75.5 115t96 66.5t114 21.5zM104 360q-38 -183 6 -269
t164 -86q56 0 105.5 20t90.5 63t72.5 110t51.5 162q39 183 -5 269t-164 86q-56 0 -105.5 -20t-91 -63t-73 -110.5t-51.5 -161.5z" />
    <glyph glyph-name="R" unicode="R" horiz-adv-x="614" 
d="M437 720q88 0 125.5 -53t18.5 -140q-17 -78 -65.5 -128.5t-127.5 -62.5l101 -334q-1 -1 -3 -1q-2 -1 -6 -1q-5 0 -6 1q-1 0 -2 1l-99 332h-238l-71 -332q-1 -1 -2 -1q-1 -1 -6 -1q-4 0 -5 1q-1 0 -2 1l153 718h235zM138 349h222q76 0 132 47t74 131t-16 131t-114 47h-222
z" />
    <glyph glyph-name="Racute" unicode="&#x154;" horiz-adv-x="614" 
d="M437 720q88 0 125.5 -53t18.5 -140q-17 -78 -67 -128.5t-126 -62.5l101 -334q-1 -1 -3 -1q-2 -1 -6 -1q-5 0 -6 1q-1 0 -2 1l-99 332h-238l-71 -332q-1 -1 -2 -1q-1 -1 -6 -1q-4 0 -5 1q-1 0 -2 1l153 718h235zM138 349h222q76 0 132 47t74 131t-18 131t-112 47h-222z
M492 920q4 -1 5 -3.5t3 -6.5l-156 -150q-7 1 -9 8z" />
    <glyph glyph-name="Rcaron" unicode="&#x158;" horiz-adv-x="614" 
d="M437 720q88 0 125.5 -53t18.5 -140q-17 -78 -67 -128.5t-126 -62.5l101 -334q-1 -1 -3 -1q-2 -1 -6 -1q-5 0 -6 1q-1 0 -2 1l-99 332h-238l-71 -332q-1 -1 -2 -1q-1 -1 -6 -1q-4 0 -5 1q-1 0 -2 1l153 718h235zM138 349h222q76 0 132 47t74 131t-18 131t-112 47h-222z
M275 875q4 7 10 10l102 -98l147 98q8 -2 6 -10l-147 -101h-13z" />
    <glyph glyph-name="Rcommaaccent" unicode="&#x156;" horiz-adv-x="614" 
d="M437 720q88 0 125.5 -53t18.5 -140q-17 -78 -67 -128.5t-126 -62.5l101 -334q-1 -1 -3 -1q-2 -1 -6 -1q-5 0 -6 1q-1 0 -2 1l-99 332h-238l-71 -332q-1 -1 -2 -1q-1 -1 -6 -1q-4 0 -5 1q-1 0 -2 1l153 718h235zM138 349h222q76 0 132 47t74 131t-18 131t-112 47h-222z
M207 -132q9 8 16 19q6 8 12 19.5t9 23.5q-4 0 -6 1q-2 0 -3 1l4 20q1 0 3 1q2 0 3.5 0.5t5.5 0.5q3 0 5 -0.5t4 -0.5q2 -1 3 -1l-4 -17q-4 -17 -11 -30t-15 -23q-9 -11 -19 -20z" />
    <glyph glyph-name="S" unicode="S" horiz-adv-x="557" 
d="M123 547q18 86 85.5 135t173.5 49q40 0 71.5 -3.5t53.5 -8.5q26 -5 45 -12q-1 -9 -8 -14q-22 6 -48 11q-23 5 -52.5 8.5t-63.5 3.5q-102 0 -163.5 -47.5t-78.5 -123.5q-10 -45 -1.5 -74t30.5 -48t55.5 -31t73.5 -22q36 -9 71 -22t60.5 -34.5t37 -54.5t1.5 -84
q-19 -88 -88.5 -136.5t-179.5 -48.5q-45 0 -79 5.5t-58 12.5q-28 8 -49 18q1 3 4 7.5t5 6.5q22 -10 49 -18q23 -7 55.5 -12t70.5 -5q104 0 170.5 44t84.5 129q10 46 -0.5 76t-33.5 49.5t-56.5 31t-69.5 21.5q-38 10 -73 22.5t-59.5 33.5t-35.5 53t0 82z" />
    <glyph glyph-name="Sacute" unicode="&#x15a;" horiz-adv-x="557" 
d="M500 931q5 -1 6 -3.5t3 -6.5l-157 -148q-6 1 -8 8zM123 547q18 86 85.5 135t173.5 49q40 0 71.5 -3.5t53.5 -8.5q26 -5 45 -12q-1 -9 -8 -14q-22 6 -48 11q-23 5 -52.5 8.5t-63.5 3.5q-102 0 -163.5 -47.5t-78.5 -123.5q-10 -45 -1.5 -74t30.5 -48t55.5 -31t73.5 -22
q36 -9 71 -22t60.5 -34.5t37 -54.5t1.5 -84q-19 -88 -88.5 -136.5t-179.5 -48.5q-45 0 -79 5.5t-58 12.5q-28 8 -49 18q1 3 4 7.5t5 6.5q22 -10 49 -18q23 -7 55.5 -12t70.5 -5q104 0 170.5 44t84.5 129q10 46 -0.5 76t-33.5 49.5t-56.5 31t-69.5 21.5q-38 10 -73 22.5
t-59.5 33.5t-35.5 53t0 82z" />
    <glyph glyph-name="Scaron" unicode="&#x160;" horiz-adv-x="557" 
d="M123 547q18 86 85.5 135t173.5 49q40 0 71.5 -3.5t53.5 -8.5q26 -5 45 -12q-1 -9 -8 -14q-22 6 -48 11q-23 5 -52.5 8.5t-63.5 3.5q-102 0 -163.5 -47.5t-78.5 -123.5q-10 -45 -1.5 -74t30.5 -48t55.5 -31t73.5 -22q36 -9 71 -22t60.5 -34.5t37 -54.5t1.5 -84
q-19 -88 -88.5 -136.5t-179.5 -48.5q-45 0 -79 5.5t-58 12.5q-28 8 -49 18q1 3 4 7.5t5 6.5q22 -10 49 -18q23 -7 55.5 -12t70.5 -5q104 0 170.5 44t84.5 129q10 46 -0.5 76t-33.5 49.5t-56.5 31t-69.5 21.5q-38 10 -73 22.5t-59.5 33.5t-35.5 53t0 82zM285 888q3 6 11 9
l102 -97l144 98q8 0 8 -10l-146 -101h-13z" />
    <glyph glyph-name="Scedilla" unicode="&#x15e;" horiz-adv-x="557" 
d="M123 547q18 86 85.5 135t173.5 49q40 0 71.5 -3.5t53.5 -8.5q26 -5 45 -12q-1 -9 -8 -14q-22 6 -48 11q-23 5 -52.5 8.5t-63.5 3.5q-102 0 -163.5 -47.5t-78.5 -123.5q-10 -45 -1.5 -74t30.5 -48t55.5 -31t73.5 -22q36 -9 71 -22t60.5 -34.5t37 -54.5t1.5 -84
q-18 -86 -85 -134.5t-173 -50.5l-29 -67q56 2 84.5 -20t20.5 -59q-10 -45 -40.5 -69.5t-85.5 -24.5q-27 0 -46.5 7t-36.5 20q3 7 10 11q14 -12 32.5 -18t44.5 -6q41 0 70 19t38 63q6 29 -16.5 46.5t-67.5 17.5h-20l-4 6l32 74q-44 0 -77.5 5.5t-56.5 12.5q-27 8 -48 18
q1 3 4 7.5t5 6.5q22 -10 49 -18q23 -7 55.5 -12t70.5 -5q104 0 170.5 44t84.5 129q10 46 -0.5 76t-33.5 49.5t-56.5 31t-69.5 21.5q-38 10 -73 22.5t-59.5 33.5t-35.5 53t0 82z" />
    <glyph glyph-name="Scircumflex" unicode="&#x15c;" horiz-adv-x="557" 
d="M123 547q18 86 85.5 135t173.5 49q40 0 71.5 -3.5t53.5 -8.5q26 -5 45 -12q-1 -9 -8 -14q-22 6 -48 11q-23 5 -52.5 8.5t-63.5 3.5q-102 0 -163.5 -47.5t-78.5 -123.5q-10 -45 -1.5 -74t30.5 -48t55.5 -31t73.5 -22q36 -9 71 -22t60.5 -34.5t37 -54.5t1.5 -84
q-19 -88 -88.5 -136.5t-179.5 -48.5q-45 0 -79 5.5t-58 12.5q-28 8 -49 18q1 3 4 7.5t5 6.5q22 -10 49 -18q23 -7 55.5 -12t70.5 -5q104 0 170.5 44t84.5 129q10 46 -0.5 76t-33.5 49.5t-56.5 31t-69.5 21.5q-38 10 -73 22.5t-59.5 33.5t-35.5 53t0 82zM270 779q-8 2 -8 10
l148 101h13l104 -101q-3 -7 -10 -9l-101 97z" />
    <glyph glyph-name="Scommaaccent" unicode="&#x218;" horiz-adv-x="557" 
d="M156 -165q9 8 16 19q6 8 12 19.5t9 23.5q-5 0 -7 1q-2 0 -3 1l5 20q1 0 3 1q2 0 3.5 0.5t5.5 0.5q3 0 5 -0.5t4 -0.5q2 -1 3 -1l-4 -17q-4 -17 -11 -30t-15 -23q-9 -11 -19 -20zM123 547q18 86 85.5 135t173.5 49q40 0 71.5 -3.5t53.5 -8.5q26 -5 45 -12q-1 -9 -8 -14
q-22 6 -48 11q-23 5 -52.5 8.5t-63.5 3.5q-102 0 -163.5 -47.5t-78.5 -123.5q-10 -45 -1.5 -74t30.5 -48t55.5 -31t73.5 -22q36 -9 71 -22t60.5 -34.5t37 -54.5t1.5 -84q-19 -88 -88.5 -136.5t-179.5 -48.5q-45 0 -79 5.5t-58 12.5q-28 8 -49 18q1 3 4 7.5t5 6.5
q22 -10 49 -18q23 -7 55.5 -12t70.5 -5q104 0 170.5 44t84.5 129q10 46 -0.5 76t-33.5 49.5t-56.5 31t-69.5 21.5q-38 10 -73 22.5t-59.5 33.5t-35.5 53t0 82z" />
    <glyph glyph-name="T" unicode="T" horiz-adv-x="522" 
d="M574 720q1 0 1 -1v-6q-2 -5 -3 -6t-1 -2h-215l-150 -703q-1 -1 -2 -1q-1 -1 -6 -1q-4 0 -5 1q-1 0 -2 1l150 703h-221q-1 1 -1 2q0 3 1 6q0 4 2 6l1 1h451z" />
    <glyph glyph-name="Tbar" unicode="&#x166;" horiz-adv-x="533" 
d="M415 352q1 -8 -3 -15h-129l-72 -335q-1 -1 -2 -1q-1 -1 -6 -1t-6 1q-1 0 -2 1l72 335h-128q-2 7 3 15h128l75 353h-220q-1 1 -1 2q0 3 1 6q0 4 2 6l1 1h451q1 0 1 -1v-6q-2 -5 -3 -6t-1 -2h-215l-75 -353h129z" />
    <glyph glyph-name="Tcaron" unicode="&#x164;" horiz-adv-x="522" 
d="M574 720q1 0 1 -1v-6q-2 -5 -3 -6t-1 -2h-215l-150 -703q-1 -1 -2 -1q-1 -1 -6 -1q-4 0 -5 1q-1 0 -2 1l150 703h-221q-1 1 -1 2q0 3 1 6q0 4 2 6l1 1h451zM252 875q4 7 10 10l103 -98l146 98q8 -2 6 -10l-147 -101h-13z" />
    <glyph glyph-name="Thorn" unicode="&#xde;" horiz-adv-x="599" 
d="M203 719q1 0 2.5 0.5t4.5 0.5q2 0 3.5 -0.5t2.5 -0.5l1 -1l-33 -151h225q88 0 126 -51.5t18 -144.5q-20 -91 -79 -142t-147 -51h-225l-38 -176q0 -1 -1 -1q-1 -1 -6 -1q-6 0 -7 1q-1 0 -1 1l153 716zM105 193h227q80 0 134 46.5t72 130.5q18 86 -16 134t-114 48h-227z
" />
    <glyph glyph-name="U" unicode="U" horiz-adv-x="665" 
d="M539 216q-23 -107 -93.5 -166.5t-180.5 -59.5q-106 0 -152.5 59.5t-23.5 166.5l107 502q1 0 2 1q1 0 2.5 0.5t3.5 0.5t3.5 -0.5t2.5 -0.5l1 -1l-107 -503q-21 -100 20.5 -154.5t142.5 -55.5q100 -1 168 54.5t89 155.5l107 503q1 0 2 1q1 0 1.5 0.5t2.5 0.5t3 -0.5t3 -0.5
q2 -1 3 -1z" />
    <glyph glyph-name="Uacute" unicode="&#xda;" horiz-adv-x="665" 
d="M539 216q-23 -107 -95 -166.5t-179 -59.5q-106 0 -152.5 59.5t-23.5 166.5l107 502q1 0 2 1q1 0 2.5 0.5t3.5 0.5t3.5 -0.5t2.5 -0.5l1 -1l-107 -503q-21 -100 22 -155t143 -55t167 55t88 155l107 503q1 0 2 1q1 0 1.5 0.5t2.5 0.5t3 -0.5t3 -0.5q2 -1 3 -1zM538 920
q4 -1 5 -3.5t3 -6.5l-156 -150q-7 1 -9 8z" />
    <glyph glyph-name="Ubreve" unicode="&#x16c;" horiz-adv-x="665" 
d="M539 216q-23 -107 -95 -166.5t-179 -59.5q-106 0 -152.5 59.5t-23.5 166.5l107 502q1 0 2 1q1 0 2.5 0.5t3.5 0.5t3.5 -0.5t2.5 -0.5l1 -1l-107 -503q-21 -100 22 -155t143 -55t167 55t88 155l107 503q1 0 2 1q1 0 1.5 0.5t2.5 0.5t3 -0.5t3 -0.5q2 -1 3 -1zM432 806
q25 0 46 5.5t36.5 13.5t26.5 16t16 13q6 -3 7 -10q-17 -15 -37 -26q-18 -10 -42.5 -18t-55.5 -8t-52 8t-35 18q-16 11 -26 26q5 8 11 9q3 -4 10.5 -11.5t20 -15.5t31 -14t43.5 -6z" />
    <glyph glyph-name="Ucircumflex" unicode="&#xdb;" horiz-adv-x="665" 
d="M539 216q-23 -107 -95 -166.5t-179 -59.5q-106 0 -152.5 59.5t-23.5 166.5l107 502q1 0 2 1q1 0 2.5 0.5t3.5 0.5t3.5 -0.5t2.5 -0.5l1 -1l-107 -503q-21 -100 22 -155t143 -55t167 55t88 155l107 503q1 0 2 1q1 0 1.5 0.5t2.5 0.5t3 -0.5t3 -0.5q2 -1 3 -1zM306 776
q-6 2 -6 10l148 101h13l104 -101q-2 -8 -10 -10l-102 98z" />
    <glyph glyph-name="Udieresis" unicode="&#xdc;" horiz-adv-x="665" 
d="M539 216q-23 -107 -95 -166.5t-179 -59.5q-106 0 -152.5 59.5t-23.5 166.5l107 502q1 0 2 1q1 0 2.5 0.5t3.5 0.5t3.5 -0.5t2.5 -0.5l1 -1l-107 -503q-21 -100 22 -155t143 -55t167 55t88 155l107 503q1 0 2 1q1 0 1.5 0.5t2.5 0.5t3 -0.5t3 -0.5q2 -1 3 -1zM388 819
q-1 -1 -4 -2q-6 -2 -11 -2q-6 0 -10 2q-2 1 -3 2l4 20q1 1 4 2q6 2 11 2q6 0 10 -2q2 -1 3 -2zM522 819q-1 -1 -4 -2q-6 -2 -11 -2q-6 0 -10 2q-2 1 -3 2l4 20q1 1 4 2q6 2 11 2q6 0 10 -2q2 -1 3 -2z" />
    <glyph glyph-name="Ugrave" unicode="&#xd9;" horiz-adv-x="665" 
d="M539 216q-23 -107 -95 -166.5t-179 -59.5q-106 0 -152.5 59.5t-23.5 166.5l107 502q1 0 2 1q1 0 2.5 0.5t3.5 0.5t3.5 -0.5t2.5 -0.5l1 -1l-107 -503q-21 -100 22 -155t143 -55t167 55t88 155l107 503q1 0 2 1q1 0 1.5 0.5t2.5 0.5t3 -0.5t3 -0.5q2 -1 3 -1zM375 920
q3 4 5.5 6t7.5 4l91 -152q-5 -7 -11 -8z" />
    <glyph glyph-name="Uhungarumlaut" unicode="&#x170;" horiz-adv-x="665" 
d="M361 782q-9 0 -9 8l109 114q8 -1 11 -2.5t7 -6.5zM477 782q-9 0 -9 8l109 114q8 -1 11 -2.5t7 -6.5zM539 216q-23 -107 -95 -166.5t-179 -59.5q-106 0 -152.5 59.5t-23.5 166.5l107 502q1 0 2 1q1 0 2.5 0.5t3.5 0.5t3.5 -0.5t2.5 -0.5l1 -1l-107 -503q-21 -100 22 -155
t143 -55t167 55t88 155l107 503q1 0 2 1q1 0 1.5 0.5t2.5 0.5t3 -0.5t3 -0.5q2 -1 3 -1z" />
    <glyph glyph-name="Umacron" unicode="&#x16a;" horiz-adv-x="665" 
d="M539 216q-23 -107 -95 -166.5t-179 -59.5q-106 0 -152.5 59.5t-23.5 166.5l107 502q1 0 2 1q1 0 2.5 0.5t3.5 0.5t3.5 -0.5t2.5 -0.5l1 -1l-107 -503q-21 -100 22 -155t143 -55t167 55t88 155l107 503q1 0 2 1q1 0 1.5 0.5t2.5 0.5t3 -0.5t3 -0.5q2 -1 3 -1zM319 821
q0 8 4 15h245q1 -7 -4 -15h-245z" />
    <glyph glyph-name="Uogonek" unicode="&#x172;" horiz-adv-x="665" 
d="M539 216q-14 -69 -49 -118t-87 -77q-34 -20 -69.5 -47.5t-63.5 -57.5t-45 -59t-14 -52q5 -26 20 -34t40 -8q14 0 34.5 3.5t40.5 14.5q6 -3 4 -10q-15 -9 -37 -15t-45 -6q-31 0 -49.5 12t-22.5 40q-3 25 11 52.5t36.5 54t51 50.5t54.5 42q-20 -5 -40.5 -8t-43.5 -3
q-106 0 -152.5 59.5t-23.5 166.5l107 502q1 0 2 1q1 0 2.5 0.5t3.5 0.5t3.5 -0.5t2.5 -0.5l1 -1l-107 -503q-21 -100 20.5 -154.5t142.5 -55.5q100 -1 168 54.5t89 155.5l107 503q1 0 2 1q1 0 1.5 0.5t2.5 0.5t3 -0.5t3 -0.5q2 -1 3 -1z" />
    <glyph glyph-name="Uring" unicode="&#x16e;" horiz-adv-x="665" 
d="M539 216q-23 -107 -95 -166.5t-179 -59.5q-106 0 -152.5 59.5t-23.5 166.5l107 502q1 0 2 1q1 0 2.5 0.5t3.5 0.5t3.5 -0.5t2.5 -0.5l1 -1l-107 -503q-21 -100 22 -155t143 -55t167 55t88 155l107 503q1 0 2 1q1 0 1.5 0.5t2.5 0.5t3 -0.5t3 -0.5q2 -1 3 -1zM430 775
q-44 0 -68.5 25.5t-13.5 73.5q5 24 17.5 42t29.5 30.5t37 18.5t40 6q19 0 37 -6t30.5 -18t17.5 -30.5t0 -42.5q-11 -48 -47 -73.5t-80 -25.5zM542 874q7 32 -10.5 57.5t-63.5 25.5q-45 0 -71.5 -25.5t-33.5 -57.5q-3 -16 -1.5 -31.5t10 -27.5t23 -19.5t37.5 -7.5t41.5 7.5
t33 19.5t23.5 27.5t12 31.5z" />
    <glyph glyph-name="Utilde" unicode="&#x168;" horiz-adv-x="665" 
d="M539 216q-23 -107 -95 -166.5t-179 -59.5q-106 0 -152.5 59.5t-23.5 166.5l107 502q1 0 2 1q1 0 2.5 0.5t3.5 0.5t3.5 -0.5t2.5 -0.5l1 -1l-107 -503q-21 -100 22 -155t143 -55t167 55t88 155l107 503q1 0 2 1q1 0 1.5 0.5t2.5 0.5t3 -0.5t3 -0.5q2 -1 3 -1zM498 814
q23 0 35.5 12.5t17.5 20.5q7 -1 11 -7q-7 -12 -17 -21q-8 -8 -21 -14t-31 -6q-17 0 -29 6t-22.5 13.5t-21 14t-24.5 6.5t-23.5 -5.5t-16.5 -11.5q-8 -8 -13 -17q-9 1 -11 6q6 11 16 21q8 8 21 15t33 7q14 0 24.5 -6.5t21 -14t22 -13.5t28.5 -6z" />
    <glyph glyph-name="V" unicode="V" horiz-adv-x="593" 
d="M237 35h1l396 683q1 0 3 1q2 0 3.5 0.5t4.5 0.5q2 0 3.5 -0.5t2.5 -0.5l1 -1l-420 -722q-2 -2 -3 0l-113 723h2q1 0 2.5 0.5t3.5 0.5t2.5 -0.5t2.5 -0.5q1 -1 3 -1z" />
    <glyph glyph-name="W" unicode="W" horiz-adv-x="934" 
d="M553 685h-1l-12 -24l-11 -23.5t-12 -23.5l-324 -618q-2 -2 -3 0l-70 722q1 0 2 1q1 0 2.5 0.5t3.5 0.5t3.5 -0.5t2.5 -0.5q1 -1 2 -1l58 -609q2 -20 3 -34t1 -24v-19h1q4 8 9 19l12 24t18 34l318 609l1 1l2 1q1 0 1 -0.5t1 -0.5q0 -1 1 -1l58 -609q2 -20 3 -34.5t1 -24.5
v-20h1l9 21q5 10 11 24.5t16 33.5l305 609l1 1q1 0 3 0.5t6 0.5q2 0 3.5 -0.5t2.5 -0.5l1 -1l-364 -722q-2 -2 -3 0l-57 617z" />
    <glyph glyph-name="Wacute" unicode="&#x1e82;" horiz-adv-x="934" 
d="M555 614q-2 19 -2.5 32t-0.5 22q0 10 1 17h-1l-7 -17q-4 -9 -11 -22l-17 -32l-324 -618q-2 -2 -3 0l-70 722q1 0 2 1q1 0 2.5 0.5t3.5 0.5t3.5 -0.5t2.5 -0.5q1 -1 2 -1l58 -609q2 -20 3 -34t2 -24q1 -11 1 -19h1q3 8 8 19l11.5 24t17.5 34l318 609l1 1l2 1q1 0 1 -0.5
t1 -0.5q0 -1 1 -1l58 -609q2 -20 3 -34.5t1 -24.5v-20h1l9 21q5 10 11.5 24.5l15.5 33.5l306 609l1 1q1 0 2.5 0.5t5.5 0.5q2 0 3.5 -0.5t2.5 -0.5l1 -1l-364 -722q-2 -2 -3 0zM674 926q5 -1 6 -3.5t3 -6.5l-157 -150q-6 1 -9 8z" />
    <glyph glyph-name="Wcircumflex" unicode="&#x174;" horiz-adv-x="934" 
d="M445 778q-4 2 -6 10l149 101h13l103 -101q-2 -9 -10 -10l-102 98zM555 614q-2 19 -2.5 32t-0.5 22q0 10 1 17h-1l-7 -17q-4 -9 -11 -22l-17 -32l-324 -618q-2 -2 -3 0l-70 722q1 0 2 1q1 0 2.5 0.5t3.5 0.5t3.5 -0.5t2.5 -0.5q1 -1 2 -1l58 -609q2 -20 3 -34t2 -24
q1 -11 1 -19h1q3 8 8 19l11.5 24t17.5 34l318 609l1 1l2 1q1 0 1 -0.5t1 -0.5q0 -1 1 -1l58 -609q2 -20 3 -34.5t1 -24.5v-20h1l9 21q5 10 11.5 24.5l15.5 33.5l306 609l1 1q1 0 2.5 0.5t5.5 0.5q2 0 3.5 -0.5t2.5 -0.5l1 -1l-364 -722q-2 -2 -3 0z" />
    <glyph glyph-name="Wdieresis" unicode="&#x1e84;" horiz-adv-x="934" 
d="M555 614q-2 19 -2.5 32t-0.5 22q0 10 1 17h-1l-7 -17q-4 -9 -11 -22l-17 -32l-324 -618q-2 -2 -3 0l-70 722q1 0 2 1q1 0 2.5 0.5t3.5 0.5t3.5 -0.5t2.5 -0.5q1 -1 2 -1l58 -609q2 -20 3 -34t2 -24q1 -11 1 -19h1q3 8 8 19l11.5 24t17.5 34l318 609l1 1l2 1q1 0 1 -0.5
t1 -0.5q0 -1 1 -1l58 -609q2 -20 3 -34.5t1 -24.5v-20h1l9 21q5 10 11.5 24.5l15.5 33.5l306 609l1 1q1 0 2.5 0.5t5.5 0.5q2 0 3.5 -0.5t2.5 -0.5l1 -1l-364 -722q-2 -2 -3 0zM525 809q-1 -1 -4 -2q-6 -2 -11 -2q-6 0 -10 2q-2 1 -3 2l4 20q1 1 4 2q6 2 11 2q6 0 10 -2
q2 -1 3 -2zM659 809q-1 -1 -4 -2q-6 -2 -11 -2q-6 0 -10 2q-2 1 -3 2l4 20q1 1 4 2q6 2 11 2q6 0 10 -2q2 -1 3 -2z" />
    <glyph glyph-name="Wgrave" unicode="&#x1e80;" horiz-adv-x="934" 
d="M555 614q-2 19 -2.5 32t-0.5 22q0 10 1 17h-1l-7 -17q-4 -9 -11 -22l-17 -32l-324 -618q-2 -2 -3 0l-70 722q1 0 2 1q1 0 2.5 0.5t3.5 0.5t3.5 -0.5t2.5 -0.5q1 -1 2 -1l58 -609q2 -20 3 -34t2 -24q1 -11 1 -19h1q3 8 8 19l11.5 24t17.5 34l318 609l1 1l2 1q1 0 1 -0.5
t1 -0.5q0 -1 1 -1l58 -609q2 -20 3 -34.5t1 -24.5v-20h1l9 21q5 10 11.5 24.5l15.5 33.5l306 609l1 1q1 0 2.5 0.5t5.5 0.5q2 0 3.5 -0.5t2.5 -0.5l1 -1l-364 -722q-2 -2 -3 0zM502 919q6 8 13 10l92 -152q-5 -7 -12 -8z" />
    <glyph glyph-name="X" unicode="X" horiz-adv-x="566" 
d="M303 361l158 -360q-1 -1 -2 -1h-7q-4 0 -5 1q-1 0 -2 1l-152 346l-297 -346q-2 -2 -5.5 -2h-6.5t-7 2l309 361l-156 355q1 0 2 1q1 0 2.5 0.5t4.5 0.5q1 0 2.5 -0.5t2.5 -0.5q1 -1 2 -1l151 -343l293 343q11 5 19 0z" />
    <glyph glyph-name="Y" unicode="Y" horiz-adv-x="601" 
d="M650 719q1 0 3 0.5t5 0.5t5 -0.5t3 -0.5l1 -1l-360 -412l-65 -304q-1 -1 -2 -1q-1 -1 -6 -1q-4 0 -5 1q-1 0 -2 1l65 303l-176 413l2 1q2 0 3.5 0.5t4.5 0.5q2 0 3.5 -0.5t2.5 -0.5l1 -1l168 -396l347 396z" />
    <glyph glyph-name="Yacute" unicode="&#xdd;" horiz-adv-x="601" 
d="M650 719q2 0 3.5 0.5t4.5 0.5t5 -0.5t3 -0.5l1 -1l-360 -412l-65 -304q-1 -1 -2 -1q-1 -1 -6 -1q-4 0 -5 1q-1 0 -2 1l65 303l-176 413l2 1q2 0 3.5 0.5t4.5 0.5q2 0 3.5 -0.5t2.5 -0.5l1 -1l168 -396l347 396zM514 923q5 -1 6 -3.5t3 -6.5l-157 -150q-6 1 -8 8z" />
    <glyph glyph-name="Ycircumflex" unicode="&#x176;" horiz-adv-x="601" 
d="M280 780q-6 2 -6 10l148 101h13l104 -101q-2 -8 -10 -10l-102 98zM650 719q1 0 3 0.5t5 0.5t5 -0.5t3 -0.5l1 -1l-360 -412l-65 -304q-1 -1 -2 -1q-1 -1 -6 -1q-4 0 -5 1q-1 0 -2 1l65 303l-176 413l2 1q2 0 3.5 0.5t4.5 0.5q2 0 3 -0.5t2 -0.5q1 -1 2 -1l168 -396
l347 396z" />
    <glyph glyph-name="Ydieresis" unicode="&#x178;" horiz-adv-x="601" 
d="M650 719q1 0 3 0.5t5 0.5t5 -0.5t3 -0.5l1 -1l-360 -412l-65 -304q-1 -1 -2 -1q-1 -1 -6 -1q-4 0 -5 1q-1 0 -2 1l65 303l-176 413l2 1q2 0 3.5 0.5t4.5 0.5q2 0 3 -0.5t2 -0.5q1 -1 2 -1l168 -396l347 396zM355 817q-1 -1 -4 -2q-6 -2 -11 -2q-6 0 -10 2q-2 1 -3 2l4 20
q1 1 4 2q6 2 11 2q6 0 10 -2q2 -1 3 -2zM489 817q-1 -1 -4 -2q-6 -2 -11 -2q-6 0 -10 2q-2 1 -3 2l4 20q1 1 4 2q6 2 11 2q6 0 10 -2q2 -1 3 -2z" />
    <glyph glyph-name="Ygrave" unicode="&#x1ef2;" horiz-adv-x="601" 
d="M650 719q1 0 3 0.5t5 0.5t5 -0.5t3 -0.5l1 -1l-360 -412l-65 -304q-1 -1 -2 -1q-1 -1 -6 -1q-4 0 -5 1q-1 0 -2 1l65 303l-176 413l2 1q2 0 3.5 0.5t4.5 0.5q2 0 3.5 -0.5t2.5 -0.5l1 -1l168 -396l347 396zM334 911q3 4 5.5 6t7.5 4l91 -152q-3 -6 -11 -8z" />
    <glyph glyph-name="Z" unicode="Z" horiz-adv-x="562" 
d="M591 720q2 -8 -3 -16l-590 -689h456q2 -4 0 -10q-1 -3 -3 -5h-473q-2 8 3 16l590 689h-416q-3 7 3 15h433z" />
    <glyph glyph-name="Zacute" unicode="&#x179;" horiz-adv-x="562" 
d="M591 720q2 -8 -3 -16l-590 -689h456q0 2 1 0.5t-1 -8.5q-1 -7 -3 -8.5t0 1.5h-473q-2 8 3 16l590 689h-416q0 -3 -1.5 -1.5t0.5 7.5q2 8 4 9.5t0 -0.5h433zM506 937q5 -1 6 -3.5t3 -6.5l-157 -150q-6 1 -8 8z" />
    <glyph glyph-name="Zcaron" unicode="&#x17d;" horiz-adv-x="562" 
d="M591 720q2 -8 -3 -16l-590 -689h456q0 2 1 0.5t-1 -8.5q-1 -7 -3 -8.5t0 1.5h-473q-2 8 3 16l590 689h-416q0 -3 -1.5 -1.5t0.5 7.5q2 8 4 9.5t0 -0.5h433zM280 875q4 7 10 10l105 -98l144 98q8 -2 6 -10l-147 -101h-13z" />
    <glyph glyph-name="Zdotaccent" unicode="&#x17b;" horiz-adv-x="562" 
d="M405 885q2 0 4.5 0.5t6.5 0.5t7 -0.5t5 -0.5h3l-6 -28q-1 -1 -4 -1h-12h-11q-2 0 -3 1l6 28h4zM591 720q2 -8 -3 -16l-590 -689h456q0 2 1 0.5t-1 -8.5q-1 -7 -3 -8.5t0 1.5h-473q-2 8 3 16l590 689h-416q0 -3 -1.5 -1.5t0.5 7.5q2 8 4 9.5t0 -0.5h433z" />
    <glyph glyph-name="_0020" horiz-adv-x="0" 
 />
    <glyph glyph-name="_375" horiz-adv-x="646" 
d="M462 17q-6 -11 -15 -17h-551q-9 7 -9 17l430 701q7 4 12 2l6 -2zM323 706l-423 -691h547z" />
    <glyph glyph-name="_376" horiz-adv-x="700" 
d="M483 16q3 -2 2 -8q-2 -5 -5 -8h-223q-2 3 -1 9.5t5 10.5q25 13 64.5 43.5t80 76.5t75.5 106t51 134q35 166 -11 250.5t-173 84.5t-209 -84.5t-117 -250.5q-15 -71 -6 -130t30 -105t47.5 -77.5t45.5 -47.5q4 -2 2.5 -9.5t-6.5 -10.5h-223q-3 3 -1 8q1 5 4 8h206
q-4 2 -29 27t-50.5 71.5t-39.5 113t4 152.5q37 174 124 262t221 88t184 -88t13 -262q-12 -56 -34 -103t-48.5 -86t-55.5 -69t-55 -52t-46 -35.5t-29 -18.5h203z" />
    <glyph glyph-name="a" unicode="a" 
d="M310 536q61 0 101.5 -32t51.5 -97l26 119q1 0 2 1q1 0 2 0.5t3 0.5t3.5 -0.5t2.5 -0.5q1 -1 2 -1l-112 -524q-1 -1 -2 -1q-1 -1 -6 -1t-6 1q-1 0 -1 1l26 121q-32 -57 -82.5 -95t-119.5 -38q-98 0 -134 69t-7 204t92 204t158 69zM449 341q6 32 1 64t-22.5 58t-47 42
t-71.5 16q-88 0 -147.5 -65t-86.5 -193t4.5 -193t123.5 -65q43 0 80 18t65 46.5t46 63t25 67.5z" />
    <glyph glyph-name="aacute" unicode="&#xe1;" 
d="M452 773q5 -1 6 -3.5t3 -6.5l-157 -150q-6 1 -8 8zM310 536q61 0 101.5 -32t51.5 -97l26 119q1 0 2 1q1 0 2 0.5t3 0.5t3.5 -0.5t2.5 -0.5q1 -1 2 -1l-112 -524q-1 -1 -2 -1q-1 -1 -6 -1t-6 1q-1 0 -1 1l26 121q-32 -57 -82.5 -95t-119.5 -38q-99 0 -134.5 69t-6.5 204
t92 204t158 69zM449 341q6 32 0 64t-24 58t-47.5 42t-69.5 16q-88 0 -147 -65t-86 -193t5.5 -193t124.5 -65q43 0 79.5 18t64 46.5t45.5 63t25 67.5z" />
    <glyph glyph-name="abreve" unicode="&#x103;" 
d="M347 654q25 0 45.5 5.5t36.5 13.5t26.5 16t16.5 13q6 -3 7 -10q-17 -15 -37 -26q-18 -10 -42.5 -18t-55.5 -8t-52 8t-35 18q-16 11 -26 26q5 8 11 9q3 -4 10.5 -11.5t20 -15.5t31 -14t43.5 -6zM310 536q61 0 101.5 -32t51.5 -97l26 119q1 0 2 1q1 0 2 0.5t3 0.5t3.5 -0.5
t2.5 -0.5q1 -1 2 -1l-112 -524q-1 -1 -2 -1q-1 -1 -6 -1t-6 1q-1 0 -1 1l26 121q-32 -57 -82.5 -95t-119.5 -38q-99 0 -134.5 69t-6.5 204t92 204t158 69zM449 341q6 32 0 64t-24 58t-47.5 42t-69.5 16q-88 0 -147 -65t-86 -193t5.5 -193t124.5 -65q43 0 79.5 18t64 46.5
t45.5 63t25 67.5z" />
    <glyph glyph-name="acircumflex" unicode="&#xe2;" 
d="M215 609q-5 2 -5 10l148 101h13l104 -101q-4 -9 -11 -10l-102 98zM310 536q61 0 101.5 -32t51.5 -97l26 119q1 0 2 1q1 0 2 0.5t3 0.5t3.5 -0.5t2.5 -0.5q1 -1 2 -1l-112 -524q-1 -1 -2 -1q-1 -1 -6 -1t-6 1q-1 0 -1 1l26 121q-32 -57 -82.5 -95t-119.5 -38
q-99 0 -134.5 69t-6.5 204t92 204t158 69zM449 341q6 32 0 64t-24 58t-47.5 42t-69.5 16q-88 0 -147 -65t-86 -193t5.5 -193t124.5 -65q43 0 79.5 18t64 46.5t45.5 63t25 67.5z" />
    <glyph glyph-name="acute" unicode="&#xb4;" horiz-adv-x="224" 
d="M180 805q8 -1 11 -9l-157 -152q-8 2 -10 9z" />
    <glyph glyph-name="adieresis" unicode="&#xe4;" 
d="M302 683l-4 -2q-2 -1 -9 -1q-6 0 -8 1t-3 2l4 18q2 0 4 1q4 2 9 2q4 0 8 -2q2 -1 3 -1zM436 683l-4 -2q-2 -1 -9 -1q-6 0 -8 1t-3 2l4 18q2 0 4 1q4 2 9 2q4 0 8 -2q2 -1 3 -1zM310 536q61 0 101.5 -32t51.5 -97l26 119q1 0 2 1q1 0 2 0.5t3 0.5t3.5 -0.5t2.5 -0.5
q1 -1 2 -1l-112 -524q-1 -1 -2 -1q-1 -1 -6 -1t-6 1q-1 0 -1 1l26 121q-32 -57 -82.5 -95t-119.5 -38q-99 0 -134.5 69t-6.5 204t92 204t158 69zM449 341q6 32 0 64t-24 58t-47.5 42t-69.5 16q-88 0 -147 -65t-86 -193t5.5 -193t124.5 -65q43 0 79.5 18t64 46.5t45.5 63
t25 67.5z" />
    <glyph glyph-name="ae" unicode="&#xe6;" horiz-adv-x="801" 
d="M293 536q61 0 92.5 -29.5t39.5 -92.5l24 112q1 0 2 1q1 0 2 0.5t3 0.5t3.5 -0.5t2.5 -0.5q1 -1 2 -1l-28 -131l6 13q35 65 84 96.5t105 31.5q41 0 67.5 -14.5t40.5 -39t16 -57t-5 -68.5q-9 -39 -19 -64q-5 -14 -11 -24h-311q-24 -131 2 -197.5t106 -66.5q30 0 54 6.5
t41 14.5q19 10 35 22q8 -3 9 -11q-16 -13 -38 -24q-19 -9 -45.5 -16t-59.5 -7q-56 0 -92 34t-40 112v1l-29 -135q-1 -1 -2 -1q-1 -1 -6 -1t-6 1q-1 0 -1 1l24 111q-26 -53 -67.5 -88t-109.5 -35q-91 0 -122 69t-2 204t87.5 204t145.5 69zM409 341q6 32 3.5 64t-16 58
t-39.5 42t-66 16q-80 0 -134.5 -65t-81.5 -193t1.5 -193t111.5 -65q43 0 76 18t56 46.5t37.5 63t21.5 67.5zM735 360q7 31 5.5 60.5t-13.5 51.5t-36 35.5t-63 13.5q-33 0 -65.5 -13.5t-61 -42t-51.5 -73.5t-38 -108h300l8 21q7 18 15 55z" />
    <glyph glyph-name="aeacute" unicode="&#x1fd;" horiz-adv-x="801" 
d="M293 536q61 0 92.5 -29.5t39.5 -92.5l24 112q1 0 2 1q1 0 2 0.5t3 0.5t3.5 -0.5t2.5 -0.5q1 -1 2 -1l-28 -131l6 13q35 65 84 96.5t105 31.5q41 0 67.5 -14.5t40.5 -39t16 -57t-5 -68.5q-9 -39 -19 -64q-5 -14 -11 -24h-311q-24 -131 2 -197.5t106 -66.5q30 0 54 6.5
t41 14.5q19 10 35 22q8 -3 9 -11q-16 -13 -38 -24q-19 -9 -45.5 -16t-59.5 -7q-56 0 -92 34t-40 112v1l-29 -135q-1 -1 -2 -1q-1 -1 -6 -1t-6 1q-1 0 -1 1l24 111q-26 -53 -67.5 -88t-109.5 -35q-91 0 -122 69t-2 204t87.5 204t145.5 69zM409 341q6 32 3.5 64t-16 58
t-39.5 42t-66 16q-80 0 -134.5 -65t-81.5 -193t1.5 -193t111.5 -65q43 0 76 18t56 46.5t37.5 63t21.5 67.5zM735 360q7 31 5.5 60.5t-13.5 51.5t-36 35.5t-63 13.5q-33 0 -65.5 -13.5t-61 -42t-51.5 -73.5t-38 -108h300l8 21q7 18 15 55zM588 771q5 -1 6 -3.5t3 -6.5
l-157 -150q-6 1 -8 8z" />
    <glyph glyph-name="agrave" unicode="&#xe0;" 
d="M290 761q3 4 5.5 6t7.5 4l92 -152q-5 -7 -12 -8zM310 536q61 0 101.5 -32t51.5 -97l26 119q1 0 2 1q1 0 2 0.5t3 0.5t3.5 -0.5t2.5 -0.5q1 -1 2 -1l-112 -524q-1 -1 -2 -1q-1 -1 -6 -1t-6 1q-1 0 -1 1l26 121q-32 -57 -82.5 -95t-119.5 -38q-99 0 -134.5 69t-6.5 204
t92 204t158 69zM449 341q6 32 0 64t-24 58t-47.5 42t-69.5 16q-88 0 -147 -65t-86 -193t5.5 -193t124.5 -65q43 0 79.5 18t64 46.5t45.5 63t25 67.5z" />
    <glyph glyph-name="amacron" unicode="&#x101;" 
d="M245 675q-1 6 4 15h235q1 -7 -4 -15h-235zM310 536q61 0 101.5 -32t51.5 -97l26 119q1 0 2 1q1 0 2 0.5t3 0.5t3.5 -0.5t2.5 -0.5q1 -1 2 -1l-112 -524q-1 -1 -2 -1q-1 -1 -6 -1t-6 1q-1 0 -1 1l26 121q-32 -57 -82.5 -95t-119.5 -38q-99 0 -134.5 69t-6.5 204t92 204
t158 69zM449 341q6 32 0 64t-24 58t-47.5 42t-69.5 16q-88 0 -147 -65t-86 -193t5.5 -193t124.5 -65q43 0 79.5 18t64 46.5t45.5 63t25 67.5z" />
    <glyph glyph-name="ampersand" unicode="&#x26;" horiz-adv-x="622" 
d="M411 88q26 -20 55 -39.5t65 -34.5q-1 -10 -9 -15q-34 14 -66 34.5t-59 42.5q-47 -38 -103.5 -62t-122.5 -24q-35 0 -66 9.5t-52 30t-29.5 52.5t1.5 76q8 39 26.5 68.5t44 53t57 42t64.5 34.5q-17 81 -1 155q18 85 68 132t122 47q32 0 53.5 -10.5t34 -27t16 -37.5
t-0.5 -43q-11 -48 -38.5 -81t-65 -58t-82 -44.5l-88.5 -39.5q19 -77 60.5 -138.5t104.5 -113.5q42 37 74 82t51 93q9 -1 13 -10q-20 -44 -51.5 -89.5t-75.5 -84.5zM398 674q-63 0 -106.5 -42.5t-59.5 -118.5q-8 -38 -8 -75.5t8 -74.5l85.5 39t78.5 42t61.5 53.5t34.5 72.5
q11 48 -14.5 76t-79.5 28zM220 342q-32 -15 -61 -32.5t-53 -39t-41 -49.5t-25 -64q-15 -72 23.5 -112t111.5 -40q59 0 112.5 22t98.5 58q-61 54 -103.5 117t-62.5 140z" />
    <glyph glyph-name="aogonek" unicode="&#x105;" 
d="M310 536q61 0 101.5 -32t51.5 -97l26 119q1 0 2 1q1 0 2 0.5t3 0.5t3.5 -0.5t2.5 -0.5q1 -1 2 -1l-112 -524l-1 -1q-1 0 -1 -0.5t-1 -0.5q-34 -19 -68 -43t-61 -50t-42.5 -52t-12.5 -50q5 -26 20 -34t40 -8q14 0 34.5 3.5t40.5 14.5q6 -3 4 -10q-15 -9 -37 -15t-45 -6
q-31 0 -49.5 12t-22.5 40q-3 30 16.5 60t49 57.5t63 50.5t59.5 37l25 116q-32 -57 -82.5 -95t-119.5 -38q-98 0 -134 69t-7 204t92 204t158 69zM449 341q6 32 1 64t-22.5 58t-47 42t-71.5 16q-88 0 -147.5 -65t-86.5 -193t4.5 -193t123.5 -65q43 0 80 18t65 46.5t46 63
t25 67.5z" />
    <glyph glyph-name="approxequal" unicode="&#x2248;" horiz-adv-x="535" 
d="M171 231q-20 0 -36.5 -6.5t-29.5 -14.5q-15 -10 -27 -21q-9 0 -9 9q13 13 30 24q14 9 33.5 16.5t42.5 7.5q25 0 41.5 -9.5t31.5 -21t31 -21t40 -9.5q21 0 38.5 6t30.5 14q15 9 26 20q9 0 10 -7q-13 -13 -30 -24q-14 -9 -34.5 -16.5t-44.5 -7.5q-25 0 -41.5 9.5t-31.5 21
t-31 21t-40 9.5zM202 376q-20 0 -36.5 -6.5t-29.5 -14.5q-15 -10 -27 -21q-9 0 -9 9q13 13 30 24q14 9 33.5 16.5t42.5 7.5q25 0 41.5 -9.5t31.5 -21t31 -21t40 -9.5q21 0 38.5 6t30.5 14q15 9 26 20q9 0 10 -7q-13 -13 -30 -24q-14 -9 -34.5 -16.5t-44.5 -7.5
q-25 0 -41.5 9.5t-31.5 21t-31 21t-40 9.5z" />
    <glyph glyph-name="aring" unicode="&#xe5;" 
d="M333 604q-45 0 -68.5 25.5t-13.5 73.5q5 24 18 42t30 30.5t37 18.5t40 6q19 0 37 -6t30 -18t17 -30.5t0 -42.5q-10 -48 -46.5 -73.5t-80.5 -25.5zM445 703q8 32 -9.5 57.5t-63.5 25.5q-45 0 -72 -25.5t-34 -57.5q-3 -16 -1 -31.5t10 -27.5t23 -19.5t38 -7.5t41.5 7.5
t32.5 19.5t23 27.5t12 31.5zM310 536q61 0 101.5 -32t51.5 -97l26 119q1 0 2 1q1 0 2 0.5t3 0.5t3.5 -0.5t2.5 -0.5q1 -1 2 -1l-112 -524q-1 -1 -2 -1q-1 -1 -6 -1t-6 1q-1 0 -1 1l26 121q-32 -57 -82.5 -95t-119.5 -38q-99 0 -134.5 69t-6.5 204t92 204t158 69zM449 341
q6 32 0 64t-24 58t-47.5 42t-69.5 16q-88 0 -147 -65t-86 -193t5.5 -193t124.5 -65q43 0 79.5 18t64 46.5t45.5 63t25 67.5z" />
    <glyph glyph-name="aringacute" unicode="&#x1fb;" 
d="M339 581q-42 0 -65 23.5t-13 69.5q5 23 17 40t28 28t35 16.5t38 5.5t35.5 -5.5t28.5 -16.5t17 -28t0 -40q-10 -46 -44.5 -69.5t-76.5 -23.5zM446 674q7 31 -9.5 54t-60.5 23q-43 0 -68.5 -23.5t-32.5 -53.5q-6 -31 9 -55.5t58 -24.5q44 0 71 25t33 55zM473 894
q5 -1 7 -11l-140 -96q-6 1 -6 9zM310 536q61 0 101.5 -32t51.5 -97l26 119q1 0 2 1q1 0 2 0.5t3 0.5t3.5 -0.5t2.5 -0.5q1 -1 2 -1l-112 -524q-1 -1 -2 -1q-1 -1 -6 -1t-6 1q-1 0 -1 1l26 121q-32 -57 -82.5 -95t-119.5 -38q-99 0 -134.5 69t-6.5 204t92 204t158 69z
M449 341q6 32 0 64t-24 58t-47.5 42t-69.5 16q-88 0 -147 -65t-86 -193t5.5 -193t124.5 -65q43 0 79.5 18t64 46.5t45.5 63t25 67.5z" />
    <glyph glyph-name="arrowdown" unicode="&#x2193;" horiz-adv-x="482" 
d="M425 305q8 -3 8 -10l-238 -196l-154 196q2 4 4.5 6t8.5 4l139 -177l100 471q-2 -1 0.5 0t7.5 1q3 0 4.5 -0.5t2.5 -0.5l-100 -472z" />
    <glyph glyph-name="arrowleft" unicode="&#x2190;" horiz-adv-x="616" 
d="M301 546q7 -1 8 -10l-216 -179h472q-1 2 0 0t-1 -7q-2 -7 -3 -8h-470l139 -177q-2 -5 -5 -7t-7 -4l-155 196zM562 342l-1 -1v1h1z" />
    <glyph glyph-name="arrowright" unicode="&#x2192;" horiz-adv-x="616" 
d="M404 536q4 8 12 10l154 -196l-237 -196q-7 3 -8 11l215 177h-471q0 -2 -0.5 0.5t0.5 7.5q2 5 3 7t0 0h472z" />
    <glyph glyph-name="arrowup" unicode="&#x2191;" horiz-adv-x="484" 
d="M460 404q-3 -7 -12 -10l-141 178l-101 -472q2 1 0 0t-7 -1q-7 0 -8 1l100 471l-214 -177q-5 2 -6.5 4t-2.5 6l237 196l155 -196v0z" />
    <glyph glyph-name="asciicircum" unicode="^" horiz-adv-x="511" 
d="M477 454q-10 -4 -19 0l-115 252l-223 -252q-10 -5 -19 0l235 264q1 0 2 1q1 0 2.5 0.5t5.5 0.5t5.5 -0.5t3.5 -0.5q1 -1 2 -1z" />
    <glyph glyph-name="asciitilde" unicode="~" horiz-adv-x="536" 
d="M193 335q-20 0 -36.5 -6.5t-29.5 -14.5q-15 -10 -27 -21q-9 0 -9 9q13 13 30 24q14 9 33.5 16.5t42.5 7.5q25 0 41.5 -9.5t31.5 -21t31 -21t40 -9.5q21 0 38.5 6t30.5 14q15 9 26 20q9 0 10 -7q-13 -13 -30 -24q-14 -9 -34.5 -16.5t-44.5 -7.5q-25 0 -41.5 9.5t-31.5 21
t-31 21t-40 9.5z" />
    <glyph glyph-name="asterisk" unicode="*" horiz-adv-x="369" 
d="M253 698q8 3 15 0l-19 -91l98 28q2 -3 3 -5.5t-1 -7.5l-100 -29l43 -82q-3 -2 -5.5 -4t-7.5 -4l-43 81l-76 -82q-7 3 -11 8l78 83l-86 29q2 8 7 13l86 -28z" />
    <glyph glyph-name="at" unicode="@" horiz-adv-x="916" 
d="M837 303q-23 -108 -73 -163t-126 -55q-15 0 -30 5t-26.5 17t-17.5 31t-3 47q-21 -42 -60 -71t-90 -29q-161 0 -120 193q20 96 71 145t131 49q49 0 75 -26.5t32 -59.5l18 83q3 2 5.5 1.5t4.5 -0.5q3 -1 5 -1l-53 -249q-14 -66 5.5 -93t57.5 -27q67 0 112.5 51.5
t66.5 151.5q18 82 7 148.5t-48.5 114t-100 73.5t-149.5 26q-78 0 -150.5 -27t-132.5 -77t-103.5 -121.5t-62.5 -160.5t-9.5 -159.5t45 -119.5t96 -74.5t144.5 -25.5q91 0 167 24.5t139 66.5q7 -3 7 -11q-75 -49 -152 -72t-164 -23t-150.5 26.5t-100.5 77.5t-47 124t10 166
q19 91 63.5 165t106.5 126.5t138 81t159 28.5q93 0 159 -28.5t103.5 -78.5t48 -119t-7.5 -151zM306 278q-38 -178 106 -178q30 0 55.5 11.5t45.5 29.5t33.5 41t19.5 46l21 96q6 24 2.5 48t-15.5 43t-33.5 30.5t-52.5 11.5q-144 0 -182 -179z" />
    <glyph glyph-name="atilde" unicode="&#xe3;" 
d="M403 663q23 0 35.5 12.5t17.5 20.5q7 -1 10 -7q-6 -12 -16 -21q-8 -8 -21 -14t-31 -6q-17 0 -29 6t-22.5 13.5t-21 14t-24.5 6.5t-23.5 -5.5t-16.5 -11.5q-8 -8 -13 -17q-9 1 -11 6q6 11 16 21q8 8 21 15t33 7q14 0 24.5 -6.5t21 -14t22 -13.5t28.5 -6zM310 536
q61 0 101.5 -32t51.5 -97l26 119q1 0 2 1q1 0 2 0.5t3 0.5t3.5 -0.5t2.5 -0.5q1 -1 2 -1l-112 -524q-1 -1 -2 -1q-1 -1 -6 -1t-6 1q-1 0 -1 1l26 121q-32 -57 -82.5 -95t-119.5 -38q-99 0 -134.5 69t-6.5 204t92 204t158 69zM449 341q6 32 0 64t-24 58t-47.5 42t-69.5 16
q-88 0 -147 -65t-86 -193t5.5 -193t124.5 -65q43 0 79.5 18t64 46.5t45.5 63t25 67.5z" />
    <glyph glyph-name="b" unicode="b" 
d="M134 408q38 62 94.5 95t113.5 33q95 0 129 -69t5 -204t-93.5 -204t-163.5 -69q-63 0 -100.5 38t-45.5 95l-26 -121q0 -1 -1 -1q-1 -1 -6 -1t-6 1q-1 0 -2 1l159 746q1 0 2 1q1 0 2.5 0.5t3.5 0.5t3 -0.5t2 -0.5q1 -1 2 -1zM461 263q27 128 -3 193t-118 65q-39 0 -75 -16
t-65.5 -41.5t-50.5 -57.5t-29 -64l-31 -142q-7 -33 -2.5 -67.5t20.5 -63t43.5 -46.5t68.5 -18q92 0 153.5 65t88.5 193z" />
    <glyph glyph-name="backslash" unicode="\" horiz-adv-x="410" 
d="M306 -44q-8 -3 -13 0l-169 791q6 3 13 0z" />
    <glyph glyph-name="bar" unicode="|" horiz-adv-x="236" 
d="M213 788q9 3 15 0l-208 -983q-1 -1 -2 -1q-1 -1 -6 -1t-6 1q-1 0 -1 1l208 983v0z" />
    <glyph glyph-name="braceleft" unicode="{" horiz-adv-x="327" 
d="M397 810q1 -8 -3 -15h-31q-63 0 -98 -32.5t-47 -87.5l-54 -258q-7 -32 -17 -53t-32 -30q17 -10 18.5 -30t-4.5 -52l-55 -258q-12 -56 9 -88t84 -32h31q1 -8 -3 -15h-32q-67 0 -92.5 36.5t-12.5 96.5l56 264q8 35 2 53t-29 18h-37q0 8 4 15h37q23 0 36 17.5t20 51.5
l57 266q13 60 53.5 96.5t107.5 36.5h32z" />
    <glyph glyph-name="braceright" unicode="}" horiz-adv-x="328" 
d="M143 795q-2 7 3 15h32q67 0 92.5 -36.5t12.5 -96.5l-57 -266q-7 -34 -1 -51.5t29 -17.5h37q2 -8 -4 -15h-37q-23 0 -36 -18t-21 -53l-56 -264q-13 -60 -53.5 -96.5t-107.5 -36.5h-32q-2 7 3 15h31q63 0 98 32t47 88l55 258q6 32 16 52t32 30q-17 9 -18.5 30t5.5 53
l54 258q12 55 -9 87.5t-84 32.5h-31v0z" />
    <glyph glyph-name="bracketleft" unicode="[" horiz-adv-x="299" 
d="M368 810q1 -8 -3 -15h-135l-202 -950h135q1 -8 -3 -15h-150l208 980h150z" />
    <glyph glyph-name="bracketright" unicode="]" horiz-adv-x="298" 
d="M142 795q-2 7 3 15h150l-208 -980h-150q-2 7 3 15h135l202 950h-135v0z" />
    <glyph glyph-name="breve" unicode="&#x2d8;" horiz-adv-x="324" 
d="M144 650q25 0 46 5.5t37.5 13.5t27.5 16t16 13q6 -3 7 -10q-17 -15 -37 -26q-18 -10 -42.5 -18t-55.5 -8t-52 8t-35 18q-16 11 -26 26q4 7 10 8q3 -4 10 -11.5t19 -15t30.5 -13.5t44.5 -6z" />
    <glyph glyph-name="brokenbar" unicode="&#xa6;" horiz-adv-x="200" 
d="M203 828q1 0 2 1q1 0 2.5 0.5t3.5 0.5t3.5 -0.5t2.5 -0.5q1 -1 2 -1l-94 -443q-1 -1 -2 -1q-2 -1 -7 -1t-6 1q-1 0 -1 1zM65 180l2 1q1 0 3 0.5t4 0.5t3.5 -0.5t2.5 -0.5l1 -1l-94 -445q-1 -1 -2 -1q-2 -1 -7 -1t-6 1q-1 0 -1 1z" />
    <glyph glyph-name="bullet" unicode="&#x2022;" horiz-adv-x="272" 
d="M153 282q-5 -21 -28 -21q-10 0 -15 5.5t-3 15.5q2 11 10 16.5t18 5.5q23 0 18 -22z" />
    <glyph glyph-name="c" unicode="c" horiz-adv-x="442" 
d="M323 521q-95 0 -157.5 -65t-89.5 -193t6 -193t131 -65q25 0 46.5 4t37.5 9q18 6 33 14q6 -3 6 -13q-16 -9 -35 -15q-17 -5 -40.5 -9.5t-51.5 -4.5q-102 0 -139.5 70t-8.5 205t95 203t166 68q26 0 46 -3.5t34 -7.5q16 -5 26 -11q-2 -10 -10 -13q-10 6 -24 10q-12 4 -30 7
t-41 3z" />
    <glyph glyph-name="cacute" unicode="&#x107;" horiz-adv-x="442" 
d="M423 749q5 -1 6 -3.5t3 -6.5l-149 -143q-7 1 -9 8zM323 521q-95 0 -157.5 -65t-89.5 -193t6 -193t131 -65q25 0 46.5 4t37.5 9q18 6 33 14q6 -3 6 -13q-16 -9 -35 -15q-17 -5 -40.5 -9.5t-51.5 -4.5q-102 0 -139.5 70t-8.5 205t95 203t166 68q26 0 46 -3.5t34 -7.5
q16 -5 26 -11q-2 -10 -10 -13q-10 6 -24 10q-12 4 -30 7t-41 3z" />
    <glyph glyph-name="caron" unicode="&#x2c7;" horiz-adv-x="404" 
d="M50 651q3 6 11 9l102 -97l144 98q8 0 8 -10l-146 -101h-13z" />
    <glyph glyph-name="ccaron" unicode="&#x10d;" horiz-adv-x="442" 
d="M219 704q2 7 10 10l102 -98l146 98q9 -2 7 -10l-147 -101h-13zM323 521q-95 0 -157.5 -65t-89.5 -193t6 -193t131 -65q25 0 46.5 4t37.5 9q18 6 33 14q6 -3 6 -13q-16 -9 -35 -15q-17 -5 -40.5 -9.5t-51.5 -4.5q-102 0 -139.5 70t-8.5 205t95 203t166 68q26 0 46 -3.5
t34 -7.5q16 -5 26 -11q-2 -10 -10 -13q-10 6 -24 10q-12 4 -30 7t-41 3z" />
    <glyph glyph-name="ccedilla" unicode="&#xe7;" horiz-adv-x="442" 
d="M61 265q29 135 95 203t166 68q26 0 46 -3.5t34 -7.5q16 -5 26 -11q-2 -10 -10 -13q-10 6 -24 10q-12 4 -30 7t-41 3q-95 0 -157.5 -65t-89.5 -193t6 -193t131 -65q25 0 46.5 4t37.5 9q18 6 33 14q6 -3 6 -13q-16 -9 -35 -15q-17 -5 -40.5 -9.5t-51.5 -4.5h-15l-31 -74
q53 1 77 -19.5t17 -55.5q-10 -43 -39 -66.5t-82 -23.5q-26 0 -44.5 7t-33.5 19q2 6 9 10q14 -11 31 -17t42 -6q38 0 66 18t37 60q6 28 -12.5 44.5t-60.5 16.5h-19l-4 6l35 82q-87 10 -117 79.5t-4 194.5z" />
    <glyph glyph-name="ccircumflex" unicode="&#x109;" horiz-adv-x="441" 
d="M208 604q-7 3 -7 11l148 101h13l104 -101q-2 -8 -10 -10l-102 98zM323 521q-95 0 -157.5 -65t-89.5 -193t6 -193t131 -65q25 0 46.5 4t37.5 9q18 6 33 14q6 -3 6 -13q-16 -9 -35 -15q-17 -5 -40.5 -9.5t-51.5 -4.5q-102 0 -139.5 70t-8.5 205t95 203t166 68q26 0 46 -3.5
t34 -7.5q16 -5 26 -11q-2 -10 -10 -13q-10 6 -24 10q-12 4 -30 7t-41 3z" />
    <glyph glyph-name="cdotaccent" unicode="&#x10b;" horiz-adv-x="442" 
d="M355 683q-1 -1 -4 -2q-6 -2 -11 -2q-6 0 -10 2q-2 1 -3 2l4 20q1 1 4 2q6 2 11 2q6 0 10 -2q2 -1 3 -2zM323 521q-95 0 -157.5 -65t-89.5 -193t6 -193t131 -65q25 0 46.5 4t37.5 9q18 6 33 14q6 -3 6 -13q-16 -9 -35 -15q-17 -5 -40.5 -9.5t-51.5 -4.5q-102 0 -139.5 70
t-8.5 205t95 203t166 68q26 0 46 -3.5t34 -7.5q16 -5 26 -11q-2 -10 -10 -13q-10 6 -24 10q-12 4 -30 7t-41 3z" />
    <glyph glyph-name="cedilla" unicode="&#xb8;" horiz-adv-x="296" 
d="M-35 -36q56 2 85 -20t21 -59q-10 -45 -40.5 -69.5t-85.5 -24.5q-27 0 -46.5 7t-36.5 20q3 7 10 11q14 -12 32.5 -18t44.5 -6q41 0 70 19t38 63q6 29 -16.5 46.5t-67.5 17.5h-20l-4 6l30 79h14z" />
    <glyph glyph-name="cent" unicode="&#xa2;" horiz-adv-x="457" 
d="M334 33q4 -2 5 -6t1 -8q-16 -8 -36 -14q-17 -5 -40.5 -10t-51.5 -5l-18 -91q-5 -3 -7 -3h-3h-2.5t-6.5 3l22 91q-90 2 -124.5 73.5t-7.5 199.5q27 130 90 199t158 74l17 91q6 2 8 2h3q3 0 8 -2l-21 -91q26 -1 45.5 -4.5t32.5 -7.5q15 -4 26 -10q-2 -10 -10 -14
q-11 6 -25 10q-12 4 -30 7t-41 3q-95 0 -157 -64.5t-89 -192.5q-26 -121 6 -188.5t126 -67.5q25 0 47 4t39 9q19 5 36 13z" />
    <glyph glyph-name="circumflex" unicode="&#x2c6;" horiz-adv-x="396" 
d="M41 562q-8 2 -8 10l148 101h13l104 -101q-3 -7 -10 -9l-101 97l-146 -98v0z" />
    <glyph glyph-name="colon" unicode=":" horiz-adv-x="206" 
d="M53 1q-1 -1 -4 -2q-6 -2 -11 -2q-6 0 -10 2q-2 1 -3 2l4 20q1 1 4 2q6 2 11 2q6 0 10 -2q2 -1 3 -2zM138 398q-1 -1 -4 -2q-6 -2 -11 -2q-6 0 -10 2q-2 1 -3 2l4 20q1 1 4 2q6 2 11 2q6 0 10 -2q2 -1 3 -2z" />
    <glyph glyph-name="comma" unicode="," horiz-adv-x="176" 
d="M-14 -64q8 8 16 19q7 8 13 19.5t9 23.5q-5 0 -7 1q-2 0 -3 1l4 20q1 0 3 1q2 0 4 0.5t6 0.5q3 0 4.5 -0.5t3.5 -0.5q2 -1 3 -1l-3 -17q-4 -17 -11.5 -30t-15.5 -23q-9 -11 -19 -20z" />
    <glyph glyph-name="commaaccentcomb" unicode="&#xf6c3;" horiz-adv-x="0" 
d="M-105 -64q8 8 16 19q7 8 13 19.5t9 23.5q-5 0 -7 1q-2 0 -3 1l4 20q1 0 3 1q2 0 4 0.5t6 0.5q3 0 4.5 -0.5t3.5 -0.5q2 -1 3 -1l-3 -17q-4 -17 -11.5 -30t-15.5 -23q-9 -11 -19 -20z" />
    <glyph glyph-name="commaaccentcomb.alt" horiz-adv-x="0" 
d="M96 693q-9 -9 -16 -19q-6 -9 -12.5 -20t-8.5 -23q2 0 3 -0.5t3 -0.5q2 -1 4 -1l-5 -20q-1 -1 -3 -1q-2 -1 -9 -1t-9 1q-2 0 -3 1l4 17q3 17 10.5 30t15.5 23q9 11 20 20z" />
    <glyph glyph-name="copyright" unicode="&#xa9;" horiz-adv-x="809" 
d="M342 8q-69 0 -124 26t-90.5 71t-49 105.5t1.5 129.5t54 129t93.5 105t120.5 71t135 26t123.5 -26t89.5 -71t48.5 -105t-1.5 -129t-53.5 -129.5t-93 -105.5t-120 -71t-134.5 -26zM479 656q-66 0 -129 -25t-115.5 -67.5t-89.5 -100t-51 -123.5t-1 -123.5t47 -101
t86.5 -68.5t118.5 -25t128.5 25t114.5 68.5t89 101t51 123.5t1.5 123.5t-46.5 100t-86 67.5t-118 25zM371 147q-84 0 -112.5 51.5t-8.5 148.5q21 99 71.5 149t134.5 50q25 0 43 -3.5t29 -7.5q13 -5 22 -11q-1 -3 -3.5 -6.5t-5.5 -5.5q-11 6 -24 10q-11 4 -26.5 7t-32.5 3
q-81 0 -127 -44t-66 -141q-20 -91 7 -138t105 -47q19 0 37 3t32 7q16 4 30 10q4 -4 4 -12q-12 -7 -29 -12q-14 -5 -34 -8t-46 -3z" />
    <glyph glyph-name="currency" unicode="&#xa4;" horiz-adv-x="585" 
d="M382 132q-29 -22 -64 -34.5t-71 -12.5q-37 0 -66.5 12.5t-49.5 34.5l-90 -75q-2 -1 -3 0q-3 1 -5 6q-3 2 -3 5v3l91 74q-17 25 -22.5 57t2.5 69q8 36 26.5 68.5t47.5 57.5l-60 74q0 1 1 3q1 3 6 6q2 2 4 2t4 1q2 0 2 1l60 -73q29 21 63.5 33.5t70.5 12.5q72 0 114 -47
l89 74q1 -1 2 -1q1 -1 2.5 -1t3.5 -2q1 -2 2 -3t1 -3v-3l-89 -74q37 -53 22 -126q-17 -76 -75 -126l59 -74q0 -1 -1 -2t-2 -2.5t-3 -3.5q-3 -3 -7 -5q-2 -1 -3 -1zM323 441q-36 0 -69.5 -13t-61.5 -36t-48 -54t-27 -67q-8 -36 -1.5 -67t24.5 -54t46 -36t64 -13t70 13
t61.5 36t47.5 54t28 67q7 36 0.5 67t-24.5 54t-46 36t-64 13z" />
    <glyph glyph-name="d" unicode="d" horiz-adv-x="554" 
d="M310 536q57 0 99.5 -33.5t53.5 -98.5l73 344q1 0 2 1q1 0 2 0.5t3 0.5t3.5 -0.5t2.5 -0.5q1 -1 2 -1l-159 -746q-1 -1 -2 -1q-1 -1 -6 -1t-6 1q-1 0 -1 1l26 121q-32 -57 -82.5 -95t-119.5 -38q-99 0 -134.5 69t-6.5 204t92 204t158 69zM449 341q6 32 0 64t-24 58
t-47.5 42t-69.5 16q-88 0 -147 -65t-86 -193t4 -193t123 -65q43 0 80 18t65 46.5t46.5 63t25.5 67.5z" />
    <glyph glyph-name="dagger" unicode="&#x2020;" horiz-adv-x="590" 
d="M194 -113l123 560l-248 -3l-1 2q-3 2 -1 7q0 3 3 6q1 1 3 2l247 -2l46 239q1 0 3 1q4 2 9 2t7 -2q1 -1 2 -1l-54 -239l252 2q1 -1 1 -2q0 -3 -1 -6q-1 -2 -1 -4t-1 -3q-1 -2 -2 -2l-251 3l-115 -560l-12 -10z" />
    <glyph glyph-name="daggerdbl" unicode="&#x2021;" horiz-adv-x="640" 
d="M538 135q1 -1 1 -2v-7q-2 -5 -3 -6l-2 -2l-246 3l-47 -240q0 -1 -2 -2t-10 -1q-7 0 -8 1t-1 2l55 240l-247 -3q-1 0 -1 1q0 3 1 7q0 5 2 7l2 2l245 -3l29 157l38 158l-248 -3q-1 0 -1 1t-0.5 3t0.5 5q2 6 3 7l2 2l247 -3l46 239l2 1q2 1 3.5 1.5t6.5 0.5q6 0 8 -2l1 -1
l-54 -239l246 3q1 -1 1 -2q0 -3 -1 -7l-2 -8q-1 -1 -2 -1l-245 3l-30 -158l-37 -157z" />
    <glyph glyph-name="dcaron" unicode="&#x10f;" horiz-adv-x="564" 
d="M583 611q35 26 54.5 62t25.5 78q12 3 17 0q-3 -18 -10 -38.5t-18 -40t-26 -37t-33 -29.5q-10 -2 -10 5zM310 536q66 0 105.5 -32t47.5 -98l73 342q1 0 2 1q1 0 2 0.5t3 0.5t3.5 -0.5t2.5 -0.5q1 -1 2 -1l-159 -746q-1 -1 -2 -1q-1 -1 -6 -1t-6 1q-1 0 -1 1l26 121
q-32 -57 -82.5 -95t-119.5 -38q-99 0 -134.5 69t-6.5 204t92 204t158 69zM449 340q6 32 1 64t-21.5 58t-46.5 42.5t-74 16.5q-88 0 -147 -65t-86 -193t5.5 -193t124.5 -65q43 0 79.5 18t64 46.5t45.5 63t25 67.5z" />
    <glyph glyph-name="dcroat" unicode="&#x111;" 
d="M606 653q1 -8 -3 -15h-75l-136 -636q-1 -1 -2 -1q-1 -1 -6 -1t-6 1q-1 0 -1 1l26 121q-32 -57 -82.5 -95t-119.5 -38q-99 0 -134.5 69t-6.5 204t92 204t158 69q61 0 101.5 -32t51.5 -97l50 231h-152q-2 7 3 15h152l20 95q1 0 2 1q1 0 2 0.5t3 0.5t3.5 -0.5t2.5 -0.5
q1 -1 2 -1l-20 -95h75zM449 341q6 32 0 64t-24 58t-47.5 42t-69.5 16q-88 0 -147 -65t-86 -193t5.5 -193t124.5 -65q43 0 79.5 18t64 46.5t45.5 63t25 67.5z" />
    <glyph glyph-name="degree" unicode="&#xb0;" horiz-adv-x="365" 
d="M131 617q4 21 16 42t30.5 37.5t42.5 27t53 10.5q28 0 47.5 -10t30 -26t13 -36.5t-1.5 -41.5q-5 -21 -16 -42t-29 -37t-41.5 -26t-51.5 -10q-30 0 -50 9.5t-31 25.5t-14 36t2 41zM347 619q4 19 1.5 37t-11.5 32t-26 22.5t-42 8.5t-46 -9t-36.5 -23t-26 -32t-14.5 -37
t-1.5 -36.5t12 -31t26.5 -22t43 -8.5q25 0 45.5 8.5t36 22t25.5 31.5t14 37z" />
    <glyph glyph-name="dieresis" unicode="&#xa8;" horiz-adv-x="455" 
d="M150 619q-1 -1 -4 -2q-6 -2 -11 -2q-6 0 -10 2q-2 1 -3 2l4 20q1 1 4 2q6 2 11 2q6 0 10 -2q2 -1 3 -2zM284 619q-1 -1 -4 -2q-6 -2 -11 -2q-6 0 -10 2q-2 1 -3 2l4 20q1 1 4 2q6 2 11 2q6 0 10 -2q2 -1 3 -2z" />
    <glyph glyph-name="divide" unicode="&#xf7;" horiz-adv-x="562" 
d="M90 283q-2 7 3 15h373q1 -8 -3 -15h-373zM324 439q-1 -1 -4 -2q-6 -2 -11 -2q-6 0 -10 2q-2 1 -3 2l5 20q1 1 4 2q4 2 10 2t10 -2l4 -2zM257 121q-1 -1 -4 -2q-6 -2 -11 -2q-6 0 -10 2q-2 1 -3 2l4 20q1 1 4 2q6 2 11 2q6 0 10 -2q2 -1 3 -2z" />
    <glyph glyph-name="dollar" unicode="$" horiz-adv-x="556" 
d="M126 501q-9 -42 3 -68.5t37 -43.5t59.5 -27t70.5 -19t70.5 -20t59 -29.5t36 -47.5t1.5 -74q-16 -75 -81 -120t-163 -50l-24 -123q-1 -1 -2 -1q-2 -1 -7 -1q-7 0 -8 1q-2 0 -2 1l28 123q-46 -1 -81.5 4.5t-60.5 11.5q-29 7 -51 16q3 9 9 14q24 -9 52 -15q24 -6 56 -10.5
t69 -4.5q102 0 168 39.5t83 115.5q9 42 -3 68.5t-37 43.5t-59 27t-70.5 19t-70.5 20t-59 29.5t-36 47t-2 73.5q16 74 76.5 117.5t157.5 48.5l23 118q1 0 3 1q2 0 3.5 0.5t3.5 0.5t4 -0.5t4 -0.5q2 -1 3 -1l-29 -117q43 0 74.5 -2.5t52.5 -6.5q25 -4 42 -10q-2 -10 -8 -15
q-19 5 -43 9q-20 4 -49 7t-63 3q-106 0 -165.5 -42t-74.5 -110z" />
    <glyph glyph-name="dotaccent" unicode="&#x2d9;" horiz-adv-x="176" 
d="M78 610q-1 -1 -4 -2q-6 -2 -11 -2q-6 0 -10 2q-2 1 -3 2l4 20q1 1 4 2q6 2 11 2q6 0 10 -2q2 -1 3 -2z" />
    <glyph glyph-name="dotlessi" unicode="&#x131;" horiz-adv-x="216" 
d="M51 2q0 -1 -1 -1q-1 -1 -6 -1t-6 1q-1 0 -1 1l111 522q1 0 2 1q1 0 2.5 0.5t3.5 0.5t3 -0.5t2 -0.5l1 -1z" />
    <glyph glyph-name="dotlessj" unicode="&#x237;" horiz-adv-x="217" 
d="M148 524q9 5 14 0l-130 -615q-19 -87 -57.5 -123.5t-98.5 -36.5q-38 0 -64 16q1 7 8 12q11 -8 27.5 -11t31.5 -3q55 0 89 37t49 108z" />
    <glyph glyph-name="e" unicode="e" horiz-adv-x="505" 
d="M75 259q-24 -132 5.5 -193t123.5 -61q32 0 59.5 7t47.5 15q23 10 42 22q9 -2 7 -11q-18 -13 -43 -24q-21 -9 -51 -16.5t-68 -7.5q-100 0 -133 69.5t-4 206.5q15 71 41 122t60 84t73.5 48.5t83.5 15.5q82 0 117.5 -47t18.5 -132q-5 -23 -10.5 -41t-10.5 -31
q-5 -15 -11 -26h-348zM440 360q17 76 -15.5 118.5t-107.5 42.5q-83 0 -146.5 -60.5t-92.5 -187.5h336q0 -2 9 21.5t17 65.5z" />
    <glyph glyph-name="eacute" unicode="&#xe9;" horiz-adv-x="505" 
d="M75 259q-24 -132 5.5 -193t123.5 -61q32 0 59.5 7t47.5 15q23 10 42 22q9 -2 7 -11q-18 -13 -43 -24q-21 -9 -51 -16.5t-68 -7.5q-100 0 -133 69.5t-4 206.5q15 71 41 122t60 84t73.5 48.5t83.5 15.5t73.5 -14.5t46 -39t20 -57t-3.5 -68.5q-5 -23 -10.5 -41t-10.5 -31
q-5 -15 -11 -26h-348zM440 360q7 31 4 60.5t-17.5 51.5t-41.5 35.5t-69 13.5q-83 0 -146 -60t-92 -187h337q0 -2 8.5 21t16.5 65zM428 769q5 -1 6 -3.5t3 -6.5l-157 -150q-6 2 -8 8z" />
    <glyph glyph-name="ebreve" unicode="&#x115;" horiz-adv-x="505" 
d="M75 259q-24 -132 5.5 -193t123.5 -61q32 0 59.5 7t47.5 15q23 10 42 22q9 -2 7 -11q-18 -13 -43 -24q-21 -9 -51 -16.5t-68 -7.5q-100 0 -133 69.5t-4 206.5q15 71 41 122t60 84t73.5 48.5t83.5 15.5t73.5 -14.5t46 -39t20 -57t-3.5 -68.5q-5 -23 -10.5 -41t-10.5 -31
q-5 -15 -11 -26h-348zM440 360q7 31 4 60.5t-17.5 51.5t-41.5 35.5t-69 13.5q-83 0 -146 -60t-92 -187h337q0 -2 8.5 21t16.5 65zM343 656q25 0 46 5.5t36.5 13.5t26.5 16t17 13q6 -5 6 -10q-17 -15 -37 -26q-18 -10 -42.5 -18t-55.5 -8t-52 8t-35 18q-16 11 -26 26
q6 8 11 9q3 -4 10.5 -11.5t20 -15.5t31 -14t43.5 -6z" />
    <glyph glyph-name="ecaron" unicode="&#x11b;" horiz-adv-x="505" 
d="M75 259q-24 -132 5.5 -193t123.5 -61q32 0 59.5 7t47.5 15q23 10 42 22q9 -2 7 -11q-18 -13 -43 -24q-21 -9 -51 -16.5t-68 -7.5q-100 0 -133 69.5t-4 206.5q15 71 41 122t60 84t73.5 48.5t83.5 15.5t73.5 -14.5t46 -39t20 -57t-3.5 -68.5q-5 -23 -10.5 -41t-10.5 -31
q-5 -15 -11 -26h-348zM440 360q7 31 4 60.5t-17.5 51.5t-41.5 35.5t-69 13.5q-83 0 -146 -60t-92 -187h337q0 -2 8.5 21t16.5 65zM219 703q3 6 10 8l104 -96l146 98q7 -2 5 -10l-146 -101h-13z" />
    <glyph glyph-name="ecircumflex" unicode="&#xea;" horiz-adv-x="505" 
d="M75 259q-24 -132 5.5 -193t123.5 -61q32 0 59.5 7t47.5 15q23 10 42 22q9 -2 7 -11q-18 -13 -43 -24q-21 -9 -51 -16.5t-68 -7.5q-100 0 -133 69.5t-4 206.5q15 71 41 122t60 84t73.5 48.5t83.5 15.5t73.5 -14.5t46 -39t20 -57t-3.5 -68.5q-5 -23 -10.5 -41t-10.5 -31
q-5 -15 -11 -26h-348zM440 360q7 31 4 60.5t-17.5 51.5t-41.5 35.5t-69 13.5q-83 0 -146 -60t-92 -187h337q0 -2 8.5 21t16.5 65zM211 601q-8 3 -8 10l148 101h13l104 -101q-2 -8 -10 -10l-102 98z" />
    <glyph glyph-name="edieresis" unicode="&#xeb;" horiz-adv-x="505" 
d="M75 259q-24 -132 5.5 -193t123.5 -61q32 0 59.5 7t47.5 15q23 10 42 22q9 -2 7 -11q-18 -13 -43 -24q-21 -9 -51 -16.5t-68 -7.5q-100 0 -133 69.5t-4 206.5q15 71 41 122t60 84t73.5 48.5t83.5 15.5t73.5 -14.5t46 -39t20 -57t-3.5 -68.5q-5 -23 -10.5 -41t-10.5 -31
q-5 -15 -11 -26h-348zM440 360q7 31 4 60.5t-17.5 51.5t-41.5 35.5t-69 13.5q-83 0 -146 -60t-92 -187h337q0 -2 8.5 21t16.5 65zM295 662q-1 -1 -4 -2q-6 -2 -11 -2q-6 0 -10 2q-2 1 -3 2l4 20q1 1 4 2q6 2 11 2q6 0 10 -2q2 -1 3 -2zM429 662q-1 -1 -4 -2q-6 -2 -11 -2
q-6 0 -10 2q-2 1 -3 2l4 20q1 1 4 2q6 2 11 2q6 0 10 -2q2 -1 3 -2z" />
    <glyph glyph-name="edotaccent" unicode="&#x117;" horiz-adv-x="505" 
d="M365 665q-1 -1 -4 -1q-3 -1 -13 -1t-13 1q-3 0 -4 1l7 30q1 0 4 1q2 0 5 0.5t8 0.5t8 -0.5t5 -0.5q3 -1 4 -1zM75 259q-24 -132 5.5 -193t123.5 -61q32 0 59.5 7t47.5 15q23 10 42 22q9 -2 7 -11q-18 -13 -43 -24q-21 -9 -51 -16.5t-68 -7.5q-100 0 -133 69.5t-4 206.5
q15 71 41 122t60 84t73.5 48.5t83.5 15.5t73.5 -14.5t46 -39t20 -57t-3.5 -68.5q-5 -23 -10.5 -41t-10.5 -31q-5 -15 -11 -26h-348zM440 360q7 31 4 60.5t-17.5 51.5t-41.5 35.5t-69 13.5q-83 0 -146 -60t-92 -187h337q0 -2 8.5 21t16.5 65z" />
    <glyph glyph-name="egrave" unicode="&#xe8;" horiz-adv-x="505" 
d="M75 259q-24 -132 5.5 -193t123.5 -61q32 0 59.5 7t47.5 15q23 10 42 22q9 -2 7 -11q-18 -13 -43 -24q-21 -9 -51 -16.5t-68 -7.5q-100 0 -133 69.5t-4 206.5q15 71 41 122t60 84t73.5 48.5t83.5 15.5t73.5 -14.5t46 -39t20 -57t-3.5 -68.5q-5 -23 -10.5 -41t-10.5 -31
q-5 -15 -11 -26h-348zM440 360q7 31 4 60.5t-17.5 51.5t-41.5 35.5t-69 13.5q-83 0 -146 -60t-92 -187h337q0 -2 8.5 21t16.5 65zM283 759q6 8 13 10l92 -152q-5 -7 -12 -8z" />
    <glyph glyph-name="eight" unicode="8" horiz-adv-x="580" 
d="M529 533q-9 -41 -30 -73t-46 -55.5t-50.5 -39t-42.5 -24.5q28 -13 53 -28.5t41.5 -37.5t23 -50.5t-1.5 -67.5q-17 -79 -83 -123t-169 -44t-151 43t-31 121q10 47 36 84.5t56 65.5t59.5 46.5t46.5 27.5q-24 12 -44 27t-33 34t-18 43.5t1 55.5q16 72 74.5 112t149.5 40
q87 0 130 -43.5t29 -113.5zM366 676q-84 0 -137 -36.5t-67 -100.5q-9 -44 4.5 -73.5t41.5 -50.5t64.5 -36l72.5 -31q20 9 45.5 25t50.5 39t45 54t28 69q13 63 -25.5 102t-122.5 39zM57 155q-15 -71 28.5 -110.5t139.5 -39.5t158.5 40t77.5 112q10 49 -5 81.5t-46 55.5
t-72.5 40t-83.5 37q-13 -6 -42 -23t-60 -45t-58 -65t-37 -83z" />
    <glyph glyph-name="eight.denom" horiz-adv-x="322" 
d="M254 267q-8 -35 -32 -58.5t-52 -37.5q28 -14 46 -34t11 -54q-9 -42 -43.5 -65t-87.5 -23q-54 0 -79 23.5t-16 65.5q4 21 14.5 37.5t23.5 30t28 23t30 16.5q-23 14 -36.5 32.5t-6.5 47.5q8 36 38 56.5t78 20.5t70 -21.5t14 -59.5zM167 336q-42 0 -68.5 -17t-32.5 -48
q-5 -21 2 -36t20.5 -25.5t32.5 -18l38 -15.5q70 35 83 91q7 32 -13 50.5t-62 18.5zM13 84q-8 -36 14.5 -56.5t71.5 -20.5q47 0 77 19.5t38 54.5q5 24 -3 39t-23.5 26.5t-36.5 20t-43 19.5q-14 -7 -29 -16t-28.5 -21t-23.5 -28t-14 -37z" />
    <glyph glyph-name="eight.num" horiz-adv-x="322" 
d="M327 613q-8 -35 -31.5 -58.5t-51.5 -37.5q28 -14 45.5 -34t10.5 -54q-9 -42 -43.5 -65t-87.5 -23q-54 0 -79 23.5t-16 65.5t38 67.5t59 39.5q-23 14 -36.5 32.5t-7.5 47.5q8 36 38 56.5t78 20.5t70 -21.5t14 -59.5zM241 682q-42 0 -68.5 -17t-33.5 -48q-5 -21 2 -36
t21 -25.5t33 -18l38 -15.5q35 18 55.5 40t26.5 51q7 32 -12.5 50.5t-61.5 18.5zM86 430q-8 -36 15 -56.5t72 -20.5q47 0 77 19.5t38 54.5q5 24 -3 39t-24 26.5t-37 20t-43 19.5q-14 -7 -29 -16t-28 -21t-23.5 -28t-14.5 -37z" />
    <glyph glyph-name="eightinferior" unicode="&#x2088;" horiz-adv-x="322" 
d="M233 170q-8 -35 -31.5 -58.5t-51.5 -37.5q28 -14 45.5 -34t10.5 -54q-9 -42 -43.5 -65t-87.5 -23q-54 0 -79 23.5t-16 65.5t38 67.5t59 39.5q-23 14 -36.5 32.5t-7.5 47.5q8 36 38 56.5t78 20.5t70 -21.5t14 -59.5zM147 239q-42 0 -68.5 -17t-33.5 -48q-5 -21 2 -36
t21 -25.5t33 -18l38 -15.5q35 18 55.5 40t26.5 51q7 32 -12.5 50.5t-61.5 18.5zM-8 -13q-8 -36 15 -56.5t72 -20.5q47 0 77 19.5t38 54.5q5 24 -3 39t-24 26.5t-37 20t-43 19.5q-14 -7 -29 -16t-28 -21t-23.5 -28t-14.5 -37z" />
    <glyph glyph-name="ellipsis" unicode="&#x2026;" horiz-adv-x="437" 
d="M42 1q-1 -1 -4 -2q-6 -2 -11 -2q-6 0 -10 2q-2 1 -3 2l4 20q1 1 4 2q6 2 11 2q6 0 10 -2q2 -1 3 -2zM172 1q-1 -1 -4 -2q-6 -2 -11 -2q-6 0 -10 2q-2 1 -3 2l4 20q1 1 4 2q6 2 11 2q6 0 10 -2q2 -1 3 -2zM300 1q-1 -1 -4 -2q-6 -2 -11 -2q-6 0 -10 2q-2 1 -3 2l4 20
q1 1 4 2q6 2 11 2q6 0 10 -2q2 -1 3 -2z" />
    <glyph glyph-name="emacron" unicode="&#x113;" horiz-adv-x="505" 
d="M75 259q-24 -132 5.5 -193t123.5 -61q32 0 59.5 7t47.5 15q23 10 42 22q9 -2 7 -11q-18 -13 -43 -24q-21 -9 -51 -16.5t-68 -7.5q-100 0 -133 69.5t-4 206.5q15 71 41 122t60 84t73.5 48.5t83.5 15.5t73.5 -14.5t46 -39t20 -57t-3.5 -68.5q-5 -23 -10.5 -41t-10.5 -31
q-5 -15 -11 -26h-348zM440 360q7 31 4 60.5t-17.5 51.5t-41.5 35.5t-69 13.5q-83 0 -146 -60t-92 -187h337q0 -2 8.5 21t16.5 65zM233 663q-2 7 3 15h235q1 -6 -3 -15h-235z" />
    <glyph glyph-name="emdash" unicode="&#x2014;" horiz-adv-x="799" 
d="M83 281q-2 7 3 15h622q1 -8 -3 -15h-622z" />
    <glyph glyph-name="endash" unicode="&#x2013;" horiz-adv-x="549" 
d="M83 281q-2 7 3 15h372q1 -8 -3 -15h-372z" />
    <glyph glyph-name="eng" unicode="&#x14b;" horiz-adv-x="553" 
d="M133 403q47 68 104 100.5t121 32.5q70 0 102 -39t18 -108l-96 -449q-6 -31 -14.5 -57t-23.5 -47t-38 -37t-59 -27q-5 5 -1 14q28 8 48 20.5t34 30.5t23.5 43t16.5 58l95 450q14 65 -15.5 99.5t-94.5 34.5q-28 0 -57 -7.5t-58 -25t-57.5 -46.5t-54.5 -71l-79 -370
q-7 -5 -14 0l111 522q9 5 14 0l-25 -121v0z" />
    <glyph glyph-name="eogonek" unicode="&#x119;" horiz-adv-x="505" 
d="M440 360q17 76 -15.5 118.5t-107.5 42.5q-83 0 -146.5 -60.5t-92.5 -187.5h336q0 -2 9 21.5t17 65.5zM75 259q-24 -132 5.5 -193t123.5 -61q32 0 59.5 7t47.5 15q23 10 42 22q9 -2 7 -11l-8 -6q-4 -2 -9.5 -5.5t-12.5 -6.5q-35 -19 -70.5 -46t-64.5 -57t-46 -59t-14 -53
q5 -26 20 -34t40 -8q14 0 34.5 3.5t40.5 14.5q6 -3 4 -10q-15 -9 -37 -15t-45 -6q-31 0 -49.5 12t-22.5 40q-3 25 11.5 53t38 54.5t52.5 50.5t56 41q-17 -5 -37 -8t-43 -3q-100 0 -133 69.5t-4 206.5q15 71 41 122t60 84t73.5 48.5t83.5 15.5q82 0 117.5 -47t18.5 -132
q-5 -23 -10.5 -41t-10.5 -31q-5 -15 -11 -26h-348z" />
    <glyph glyph-name="equal" unicode="=" horiz-adv-x="510" 
d="M106 362q-2 7 3 15h320q1 -8 -3 -15h-320zM71 200q0 8 4 15h320q2 -8 -4 -15h-320z" />
    <glyph glyph-name="estimated" unicode="&#x212e;" horiz-adv-x="830" 
d="M633 95q-59 -51 -129 -78t-147 -27q-73 0 -131 27.5t-96 75.5t-52 112t2 137q15 73 56.5 137t99 112t127.5 75.5t143 27.5t131 -27.5t96 -75.5t52 -112t-1 -137l-5 -24h-544l-47 -218q35 -31 80.5 -49t97.5 -18q51 0 102 16.5t98 45.5h67zM675 583q-34 34 -79.5 51
t-98.5 17q-52 0 -105 -17t-101 -50l-47 -222h384z" />
    <glyph glyph-name="eth" unicode="&#xf0;" horiz-adv-x="551" 
d="M415 657q30 -35 46.5 -80t21 -97.5t-1 -110.5t-18.5 -120q-29 -138 -95 -198.5t-163 -60.5q-99 0 -136.5 66t-9.5 196q27 130 91 196t159 66q70 0 113.5 -35.5t46.5 -110.5q10 188 -70 280l-111 -67q-6 4 -6 13l108 64q-57 57 -152 75q-1 5 1 9.5t5 7.5q54 -11 93.5 -32
t68.5 -50l93 55q6 -3 6 -12zM74 252q-26 -122 7 -184.5t125 -62.5q97 0 155.5 59t85.5 187q15 70 10 117.5t-25 76.5t-53 41.5t-74 12.5q-88 0 -146.5 -63t-84.5 -184z" />
    <glyph glyph-name="exclam" unicode="!" horiz-adv-x="228" 
d="M195 718q7 3 15 0l-125 -576q-7 -3 -13 0zM63 1q-1 -1 -4 -2q-6 -2 -11 -2q-6 0 -10 2q-2 1 -3 2l4 20q1 1 4 2q6 2 11 2q6 0 10 -2q2 -1 3 -2z" />
    <glyph glyph-name="exclamdown" unicode="&#xa1;" horiz-adv-x="216" 
d="M9 -198q-9 -3 -15 0l123 577q6 3 13 0zM154 524q6 0 10 -2q2 -1 3 -2l-4 -20q-1 -1 -4 -2q-6 -2 -11 -2q-6 0 -10 2q-2 1 -3 2l4 20q1 1 4 2q6 2 11 2z" />
    <glyph glyph-name="f" unicode="f" horiz-adv-x="335" 
d="M174 590q19 85 59 122.5t115 37.5q17 0 31.5 -1.5t25.5 -3.5q13 -3 24 -5q0 -9 -6 -13l-21 4q-10 2 -23.5 3t-29.5 1q-36 0 -62.5 -8t-45.5 -25.5t-31 -44.5t-20 -66l-14 -65h174q0 -7 -1 -10t-2 -5h-174l-109 -509q-6 -4 -11 -2q-3 1 -4 2l109 509h-79q-2 4 0 10
q1 3 3 5h79l13 64v0z" />
    <glyph glyph-name="five" unicode="5" horiz-adv-x="516" 
d="M129 364q16 3 41 6.5t65 3.5q117 0 161 -52t25 -144q-20 -90 -86 -139t-192 -49q-38 0 -64 3t-43 8q-20 5 -33 12q0 7 6 13q17 -7 38 -11q18 -5 42 -8t53 -3q117 0 181 42.5t83 131.5q7 36 5.5 68.5t-19.5 57.5t-56.5 40t-103.5 15q-21 0 -41.5 -2t-37.5 -4t-28 -4
t-14 -3l70 334h317q1 -5 0.5 -7.5t-3.5 -7.5h-302l-64 -301v0z" />
    <glyph glyph-name="five.denom" horiz-adv-x="304" 
d="M56 198q96 0 132.5 -23.5t24.5 -79.5q-21 -100 -148 -100q-34 0 -57 5l-23 6q0 2 0.5 5.5t5.5 5.5q10 -3 22 -5q23 -5 55 -5q115 0 133 87q11 50 -22 71t-120 21h-18l34 157h172q1 -2 0 -6t-3 -6h-160z" />
    <glyph glyph-name="five.num" horiz-adv-x="303" 
d="M129 544q96 0 132 -23.5t25 -79.5q-11 -50 -48.5 -75t-100.5 -25q-34 0 -57 5q-12 3 -22 6q-2 7 5 11q11 -3 23 -5q23 -5 55 -5q114 0 132 87q11 50 -21.5 71t-119.5 21h-18l33 157h172q2 -2 1 -6t-3 -6h-160z" />
    <glyph glyph-name="fiveeighths" unicode="&#x215d;" horiz-adv-x="733" 
d="M637 701q1 0 2 0.5t3 0.5t2.5 -0.5t1.5 -0.5l1 -1l-539 -709q0 -1 -1 -1h-5h-6q-1 0 -1 1l541 709zM330 689q2 -2 1 -6.5t-3 -6.5h-153l-28 -132q39 0 70 -4t51 -15.5t28 -31.5t1 -52q-11 -53 -51.5 -76.5t-97.5 -23.5q-34 0 -57 5q-12 3 -22 6q-2 7 5 11q11 -3 23 -5
q23 -5 55 -5q64 0 94 23t38 64q11 53 -22 71.5t-113 18.5h-18l33 159h166zM456 271q7 34 36 55.5t81 21.5q48 0 70 -20.5t14 -60.5q-8 -36 -32 -59t-53 -37q14 -7 26 -14.5t20.5 -18t12 -24t-0.5 -31.5q-9 -41 -43.5 -64.5t-87.5 -23.5q-50 0 -77.5 22t-17.5 67
q4 21 14.5 38t24 30t28.5 23t30 17q-24 13 -38 31t-7 48zM644 267q7 33 -12.5 50.5t-62.5 17.5q-42 0 -68 -16.5t-32 -45.5q-5 -21 1.5 -36t20 -25.5t31.5 -18.5l37 -17q32 18 55 40t30 51zM617 81q5 23 -3 38.5t-24 27t-36.5 20.5l-41.5 19l-25.5 -14.5t-29 -21.5t-26 -29
t-15.5 -37q-9 -41 14.5 -59t71.5 -18q42 0 74.5 18t40.5 56z" />
    <glyph glyph-name="fiveinferior" unicode="&#x2085;" horiz-adv-x="304" 
d="M37 102q96 0 132 -23.5t25 -79.5q-11 -50 -48.5 -75t-100.5 -25q-34 0 -57 5q-12 3 -22 6q-2 7 5 11q11 -3 23 -5q23 -5 55 -5q113 0 133 87q11 50 -22 71t-120 21h-18l33 157h172q2 -2 1 -6t-3 -6h-160z" />
    <glyph glyph-name="florin" unicode="&#x192;" horiz-adv-x="422" 
d="M410 691q17 0 29.5 -2.5l22.5 -4.5q11 -3 20 -6q0 -8 -8 -13q-10 2 -21 5q-10 2 -21.5 4t-24.5 2q-24 0 -44 -6.5t-37 -22.5t-31.5 -42t-26.5 -66l-31 -97h110q1 -8 -3 -15h-112l-130 -417q-27 -84 -67.5 -117.5t-92.5 -33.5q-14 0 -26 2.5t-22 5.5q-11 4 -21 9
q-2 3 0.5 7t6.5 6q9 -4 20 -8q9 -3 20.5 -5t23.5 -2q23 0 43.5 6.5t38.5 22t33.5 42t27.5 65.5l130 417h-104q-2 7 3 15h106l31 97q26 85 64.5 118.5t92.5 33.5z" />
    <glyph glyph-name="four" unicode="4" horiz-adv-x="564" 
d="M470 678q1 0 2 1q1 0 2.5 0.5t4.5 0.5q2 0 3 -0.5t2 -0.5l1 -1l-100 -473h113v-1v-7l-2 -6q-1 -1 -2 -1h-113l-40 -188q-1 -1 -2 -1q-1 -1 -6 -1t-6 1q-1 0 -1 1l40 188h-348v1q0 1 -0.5 2.5t0.5 3.5q0 5 2 7q1 1 2 1zM41 205h329l95 447z" />
    <glyph glyph-name="four.denom" horiz-adv-x="313" 
d="M230 116q1 -5 -3 -12h-37l-22 -103q-6 -3 -12 0l22 103h-183q-2 2 1 5q1 1 1 2l233 231q3 1 8 1q2 0 3 -1l-48 -226h37zM16 116h165l43 205z" />
    <glyph glyph-name="four.num" horiz-adv-x="312" 
d="M303 461q1 -5 -3 -12h-37l-21 -103q-8 -3 -12 0l21 103h-183q-2 2 1 5q1 1 1 2l233 231q3 1 8 1q2 0 3 -1l-48 -226h37zM89 461h165l44 205z" />
    <glyph glyph-name="fourinferior" unicode="&#x2084;" horiz-adv-x="313" 
d="M209 21q1 -4 0.5 -6t-2.5 -6h-37l-22 -103q-6 -3 -12 0l22 103h-183q-1 1 -0.5 2.5t0.5 2.5t1 2l233 231q3 1 8 1q2 0 3 -1l-48 -226h37zM-5 21h165l44 205z" />
    <glyph glyph-name="fraction" unicode="&#x2044;" horiz-adv-x="120" 
d="M327 700q6 2 8.5 2t8.5 -2l-539 -707q-9 -4 -17 0z" />
    <glyph glyph-name="g" unicode="g" horiz-adv-x="554" 
d="M489 524q1 0 2 1q1 0 2.5 0.5t3.5 0.5t3.5 -0.5t2.5 -0.5l1 -1l-106 -498q-17 -82 -38.5 -135.5t-52 -84.5t-73.5 -43.5t-104 -12.5q-27 0 -51 3t-41 7q-20 4 -37 11q0 8 8 13q18 -6 38 -10q17 -4 39.5 -7t46.5 -3q58 0 98.5 12.5t69 42.5t48 80.5t35.5 126.5l22 100
q-18 -33 -43 -58t-52.5 -42.5t-57.5 -26.5t-58 -9q-95 0 -129 69t-5 204q29 140 93.5 206.5t163.5 66.5q58 0 97.5 -38t46.5 -101zM447 326q7 33 2.5 67.5t-20.5 63t-44.5 46.5t-68.5 18q-92 0 -152 -62.5t-88 -195.5q-28 -131 2.5 -194.5t118.5 -63.5q39 0 75 16t65.5 41.5
t50.5 57.5t29 64z" />
    <glyph glyph-name="g.alt" horiz-adv-x="511" 
d="M523 534q2 -4 2 -6.5t-3 -8.5l-114 -22q43 -44 25 -128q-17 -78 -71.5 -122t-136.5 -44q-39 0 -69 11q-23 -18 -44 -42t-29 -57q-5 -25 7 -39.5t35 -22t53.5 -11.5l62.5 -8t62 -11t52 -21t32 -37.5t2 -60.5q-6 -30 -26 -58t-53 -49.5t-80 -34t-108 -12.5q-50 0 -83 12
t-52 32t-24 47t1 57q7 33 22 58t33 44.5t36 33.5t32 23q-26 21 -19 56q6 29 25.5 55.5t49.5 50.5q-38 20 -52.5 57.5t-3.5 92.5q17 79 72 123t137 44q31 0 55.5 -7.5t42.5 -19.5zM226 218q75 0 126 39.5t66 111.5q16 72 -17 112t-108 40t-125 -40t-66 -112
q-15 -72 17 -111.5t107 -39.5zM124 -235q50 0 93 10.5t75.5 29t53.5 44.5t28 57q8 36 -3.5 57.5t-34.5 34t-55 17.5t-64.5 9t-63.5 9t-52 16q-50 -29 -81 -68t-41 -82q-13 -62 25 -98t120 -36z" />
    <glyph glyph-name="gbreve" unicode="&#x11f;" horiz-adv-x="554" 
d="M350 655q25 0 46 5.5t36.5 13.5t26.5 16t16 13q6 -3 7 -10q-17 -15 -37 -26q-18 -10 -42.5 -18t-55.5 -8t-52 8t-35 18q-16 11 -26 26q5 8 11 9q3 -4 10.5 -11.5t20 -15.5t31 -14t43.5 -6zM489 524q1 0 2 1q1 0 2.5 0.5t3.5 0.5t3.5 -0.5t2.5 -0.5l1 -1l-106 -498
q-17 -80 -38 -133t-52 -85t-74 -45t-104 -13q-27 0 -51 3t-41 7q-20 4 -37 11q0 8 8 13q18 -6 38 -10q17 -4 39.5 -7t46.5 -3q58 0 98.5 12.5t69 42.5t48 80.5t35.5 126.5l22 100q-18 -33 -43 -58t-52.5 -42.5t-57.5 -26.5t-58 -9q-95 0 -129 67.5t-5 205.5
q29 140 93.5 206.5t163.5 66.5q63 0 100 -38t44 -101zM447 326q7 33 2.5 67.5t-20.5 63t-44.5 46.5t-68.5 18q-92 0 -152 -62t-88 -196q-28 -131 3.5 -194.5t119.5 -63.5q39 0 74.5 16t65 41.5t50 57.5t28.5 64z" />
    <glyph glyph-name="gbreve.alt" horiz-adv-x="511" 
d="M323 655q25 0 46 5.5t36.5 13.5t26.5 16t16 13q6 -3 7 -10q-17 -15 -37 -26q-18 -10 -42.5 -18t-55.5 -8t-52 8t-35 18q-16 11 -26 26q5 8 11 9q3 -4 10.5 -11.5t20 -15.5t31 -14t43.5 -6zM523 534q2 -4 2 -6.5t-3 -8.5l-114 -22q43 -44 25 -128q-17 -78 -71.5 -122
t-136.5 -44q-39 0 -69 11q-23 -18 -44 -42t-29 -57q-5 -25 7 -39.5t35 -22t53.5 -11.5l62.5 -8t62 -11t52 -21t32 -37.5t2 -60.5q-6 -30 -26 -58t-53 -49.5t-80 -34t-108 -12.5q-50 0 -83 12t-52 32t-24 47t1 57q7 33 22 58t33 44.5t36 33.5t32 23q-26 21 -19 56
q6 29 25.5 55.5t49.5 50.5q-38 20 -52.5 57.5t-3.5 92.5q17 79 72 123t137 44q31 0 55.5 -7.5t42.5 -19.5zM226 218q75 0 126 39.5t66 111.5q16 72 -17 112t-108 40t-125 -40t-66 -112q-15 -72 17 -111.5t107 -39.5zM124 -235q50 0 93 10.5t75.5 29t53.5 44.5t28 57
q8 36 -3.5 57.5t-34.5 34t-55 17.5t-64.5 9t-63.5 9t-52 16q-50 -29 -81 -68t-41 -82q-13 -62 25 -98t120 -36z" />
    <glyph glyph-name="gcircumflex" unicode="&#x11d;" horiz-adv-x="554" 
d="M213 602q-6 2 -6 10l149 101h13l103 -101q-2 -8 -10 -10l-102 98zM489 524q1 0 2 1q1 0 2.5 0.5t3.5 0.5t3.5 -0.5t2.5 -0.5l1 -1l-106 -498q-17 -80 -38 -133t-52 -85t-74 -45t-104 -13q-27 0 -51 3t-41 7q-20 4 -37 11q0 8 8 13q18 -6 38 -10q17 -4 39.5 -7t46.5 -3
q58 0 98.5 12.5t69 42.5t48 80.5t35.5 126.5l22 100q-18 -33 -43 -58t-52.5 -42.5t-57.5 -26.5t-58 -9q-95 0 -129 67.5t-5 205.5q29 140 93.5 206.5t163.5 66.5q63 0 100 -38t44 -101zM447 326q7 33 2.5 67.5t-20.5 63t-44.5 46.5t-68.5 18q-92 0 -152 -62t-88 -196
q-28 -131 3.5 -194.5t119.5 -63.5q39 0 74.5 16t65 41.5t50 57.5t28.5 64z" />
    <glyph glyph-name="gcircumflex.alt" horiz-adv-x="511" 
d="M187 601q-7 3 -7 11l149 101h13l103 -101q-1 -7 -10 -9l-101 97zM523 534q2 -4 2 -6.5t-3 -8.5l-114 -22q43 -44 25 -128q-17 -78 -71.5 -122t-136.5 -44q-39 0 -69 11q-23 -18 -44 -42t-29 -57q-5 -25 7 -39.5t35 -22t53.5 -11.5l62.5 -8t62 -11t52 -21t32 -37.5
t2 -60.5q-6 -30 -26 -58t-53 -49.5t-80 -34t-108 -12.5q-50 0 -83 12t-52 32t-24 47t1 57q7 33 22 58t33 44.5t36 33.5t32 23q-26 21 -19 56q6 29 25.5 55.5t49.5 50.5q-38 20 -52.5 57.5t-3.5 92.5q17 79 72 123t137 44q31 0 55.5 -7.5t42.5 -19.5zM226 218q75 0 126 39.5
t66 111.5q16 72 -17 112t-108 40t-125 -40t-66 -112q-15 -72 17 -111.5t107 -39.5zM124 -235q50 0 93 10.5t75.5 29t53.5 44.5t28 57q8 36 -3.5 57.5t-34.5 34t-55 17.5t-64.5 9t-63.5 9t-52 16q-50 -29 -81 -68t-41 -82q-13 -62 25 -98t120 -36z" />
    <glyph glyph-name="gcommaaccent" unicode="&#x123;" horiz-adv-x="554" 
d="M386 710q-9 -5 -17 -14q-7 -8 -13.5 -19t-10.5 -26q2 0 4 -0.5t4 -0.5q2 -1 3 -1l-5 -21q-1 -1 -3 -1h-11h-9q-2 0 -3 1l4 19q4 17 12 29.5t16 21.5q10 11 20 18zM489 524q1 0 2 1q1 0 2.5 0.5t3.5 0.5t3.5 -0.5t2.5 -0.5l1 -1l-106 -498q-17 -80 -38 -133t-52 -85
t-74 -45t-104 -13q-27 0 -51 3t-41 7q-20 4 -37 11q0 8 8 13q18 -6 38 -10q17 -4 39.5 -7t46.5 -3q58 0 98.5 12.5t69 42.5t48 80.5t35.5 126.5l22 100q-18 -33 -43 -58t-52.5 -42.5t-57.5 -26.5t-58 -9q-95 0 -129 67.5t-5 205.5q29 140 93.5 206.5t163.5 66.5
q63 0 100 -38t44 -101zM447 326q7 33 2.5 67.5t-20.5 63t-44.5 46.5t-68.5 18q-92 0 -152 -62t-88 -196q-28 -131 3.5 -194.5t119.5 -63.5q39 0 74.5 16t65 41.5t50 57.5t28.5 64z" />
    <glyph glyph-name="gcommaaccent.alt" horiz-adv-x="511" 
d="M366 704q-9 -5 -17 -14q-7 -8 -13.5 -19t-10.5 -26q2 0 4 -0.5t4 -0.5q2 -1 3 -1l-5 -21q-1 -1 -3 -1h-11h-9q-2 0 -3 1l4 19q4 17 12 29.5t16 21.5q10 11 20 18zM523 534q2 -4 2 -6.5t-3 -8.5l-114 -22q43 -44 25 -128q-17 -78 -71.5 -122t-136.5 -44q-39 0 -69 11
q-23 -18 -44 -42t-29 -57q-5 -25 7 -39.5t35 -22t53.5 -11.5l62.5 -8t62 -11t52 -21t32 -37.5t2 -60.5q-6 -30 -26 -58t-53 -49.5t-80 -34t-108 -12.5q-50 0 -83 12t-52 32t-24 47t1 57q7 33 22 58t33 44.5t36 33.5t32 23q-26 21 -19 56q6 29 25.5 55.5t49.5 50.5
q-38 20 -52.5 57.5t-3.5 92.5q17 79 72 123t137 44q31 0 55.5 -7.5t42.5 -19.5zM226 218q75 0 126 39.5t66 111.5q16 72 -17 112t-108 40t-125 -40t-66 -112q-15 -72 17 -111.5t107 -39.5zM124 -235q50 0 93 10.5t75.5 29t53.5 44.5t28 57q8 36 -3.5 57.5t-34.5 34t-55 17.5
t-64.5 9t-63.5 9t-52 16q-50 -29 -81 -68t-41 -82q-13 -62 25 -98t120 -36z" />
    <glyph glyph-name="gdotaccent" unicode="&#x121;" horiz-adv-x="554" 
d="M362 674q-1 -1 -3 -1h-12h-11q-3 0 -4 1l6 28h4q2 0 4.5 0.5t6.5 0.5t7 -0.5t5 -0.5h3zM489 524q1 0 2 1q1 0 2.5 0.5t3.5 0.5t3.5 -0.5t2.5 -0.5l1 -1l-106 -498q-17 -80 -38 -133t-52 -85t-74 -45t-104 -13q-27 0 -51 3t-41 7q-20 4 -37 11q0 8 8 13q18 -6 38 -10
q17 -4 39.5 -7t46.5 -3q58 0 98.5 12.5t69 42.5t48 80.5t35.5 126.5l22 100q-18 -33 -43 -58t-52.5 -42.5t-57.5 -26.5t-58 -9q-95 0 -129 67.5t-5 205.5q29 140 93.5 206.5t163.5 66.5q63 0 100 -38t44 -101zM447 326q7 33 2.5 67.5t-20.5 63t-44.5 46.5t-68.5 18
q-92 0 -152 -62t-88 -196q-28 -131 3.5 -194.5t119.5 -63.5q39 0 74.5 16t65 41.5t50 57.5t28.5 64z" />
    <glyph glyph-name="gdotaccent.alt" horiz-adv-x="511" 
d="M343 674q-1 -1 -3 -1h-12h-11q-3 0 -4 1l6 28h4q2 0 4.5 0.5t6.5 0.5t7 -0.5t5 -0.5h3zM523 534q2 -4 2 -6.5t-3 -8.5l-114 -22q43 -44 25 -128q-17 -78 -71.5 -122t-136.5 -44q-39 0 -69 11q-23 -18 -44 -42t-29 -57q-5 -25 7 -39.5t35 -22t53.5 -11.5l62.5 -8t62 -11
t52 -21t32 -37.5t2 -60.5q-6 -30 -26 -58t-53 -49.5t-80 -34t-108 -12.5q-50 0 -83 12t-52 32t-24 47t1 57q7 33 22 58t33 44.5t36 33.5t32 23q-26 21 -19 56q6 29 25.5 55.5t49.5 50.5q-38 20 -52.5 57.5t-3.5 92.5q17 79 72 123t137 44q31 0 55.5 -7.5t42.5 -19.5z
M226 218q75 0 126 39.5t66 111.5q16 72 -17 112t-108 40t-125 -40t-66 -112q-15 -72 17 -111.5t107 -39.5zM124 -235q50 0 93 10.5t75.5 29t53.5 44.5t28 57q8 36 -3.5 57.5t-34.5 34t-55 17.5t-64.5 9t-63.5 9t-52 16q-50 -29 -81 -68t-41 -82q-13 -62 25 -98t120 -36z" />
    <glyph glyph-name="germandbls" unicode="&#xdf;" horiz-adv-x="570" 
d="M480 485q-38 3 -71 -7q-28 -8 -54 -29.5t-35 -64.5q-7 -32 4.5 -52.5t32.5 -36t45.5 -29.5t44.5 -32.5t30 -45.5t1 -69q-12 -57 -57.5 -93t-123.5 -36q-26 0 -43.5 2.5t-28.5 5.5q-13 4 -21 8q2 9 9 12q21 -9 41.5 -11.5t43.5 -2.5q40 0 69 10t49 26.5t31.5 37.5t16.5 43
q8 40 -2.5 65t-30.5 43t-45 31.5t-45 30t-31.5 38.5t-3.5 57q6 31 21 51.5t33.5 33t38.5 18.5t36.5 8t27.5 2h11q11 20 19 41.5t13 41.5q6 29 3.5 57t-17.5 49.5t-43 34.5t-71 13q-48 0 -84.5 -13t-62.5 -36.5t-42 -56.5t-25 -74l-118 -554q0 -1 -1 -1q-1 -1 -6 -1t-6 1
q-1 0 -1 1l118 554q42 194 229 194q47 0 77 -15t46.5 -39t20 -54t-3.5 -61q-9 -46 -39 -96z" />
    <glyph glyph-name="grave" unicode="`" horiz-adv-x="238" 
d="M72 796q5 6 13 9l92 -152q-4 -5 -12 -7l-93 150v0z" />
    <glyph glyph-name="greater" unicode="&#x3e;" horiz-adv-x="474" 
d="M52 125q-1 1 -1 2t-0.5 2.5t0.5 3.5q0 2 2 6q1 2 2 3l340 148l-277 148v2q0 1 -0.5 3t0.5 4q0 4 2 6l2 2l287 -154v-4v-7q-2 -6 -3 -8t-2 -3z" />
    <glyph glyph-name="greaterequal" unicode="&#x2265;" horiz-adv-x="472" 
d="M59 137q-3 7 3 15h282q1 -8 -3 -15h-282zM79 231q-1 1 -1 2q0 3 1 6q0 2 2 6q1 2 2 3l295 121l-238 116v2q0 1 -0.5 3t0.5 4q0 4 2 6l2 2l249 -122v-4q0 -2 -0.5 -3.5t-0.5 -3.5q-1 -2 -1 -4t-1 -4t-2 -3z" />
    <glyph glyph-name="guillemotleft" unicode="&#xab;" horiz-adv-x="475" 
d="M312 509q5 -1 7 -9l-252 -230l155 -230q-3 -8 -12 -10l-158 234q-1 0 -1 1t-0.5 2t0.5 3q0 2 2 4l2 2zM431 479q5 -1 7 -9l-220 -200l138 -204q-3 -8 -12 -10l-141 208q-1 0 -1 1t-0.5 2t0.5 3q0 2 2 4l2 2z" />
    <glyph glyph-name="guillemotright" unicode="&#xbb;" horiz-adv-x="474" 
d="M238 500q5 8 11 9l159 -233v-2v-4q-1 -2 -1 -3t-1 -2l-1 -1l-258 -234q-8 2 -8 10l253 230zM107 470q5 8 11 9l139 -203v-2v-4q-1 -2 -1 -3t-1 -2l-1 -1l-229 -208q-8 2 -8 10l224 204z" />
    <glyph glyph-name="guilsinglleft" unicode="&#x2039;" horiz-adv-x="340" 
d="M312 509q5 -1 7 -9l-252 -230l155 -230q-3 -8 -12 -10l-158 234q-1 0 -1 1t-0.5 2t0.5 3q0 2 2 4l2 2z" />
    <glyph glyph-name="guilsinglright" unicode="&#x203a;" horiz-adv-x="340" 
d="M104 500q5 8 11 9l159 -233v-2v-4q-1 -2 -1 -3t-1 -2l-1 -1l-258 -234q-8 2 -8 10l253 230l-154 230v0z" />
    <glyph glyph-name="h" unicode="h" horiz-adv-x="552" 
d="M394 2q-7 -5 -14 0l81 381q14 65 -14 102t-93 37q-29 0 -59 -7.5t-59 -25t-57.5 -46t-53.5 -71.5l-79 -370q-7 -5 -14 0l159 746q9 5 14 0l-73 -345q45 69 102 101t123 32q70 0 102 -41.5t17 -110.5z" />
    <glyph glyph-name="hbar" unicode="&#x127;" horiz-adv-x="552" 
d="M131 401q45 70 102.5 102.5t123.5 32.5q70 0 102 -39t18 -108l-83 -387q-7 -5 -14 0l82 386q14 65 -15.5 99.5t-94.5 34.5q-29 0 -58.5 -7.5t-58.5 -25t-57 -46t-53 -71.5l-79 -370q-7 -5 -14 0l136 637h-72q-1 7 3 14h72l20 95q2 1 2.5 1.5t4.5 0.5q2 0 3 -0.5t2 -0.5
q1 -1 2 -1l-20 -95h160q4 -7 -3 -14h-160l-51 -238v0z" />
    <glyph glyph-name="hcircumflex" unicode="&#x125;" horiz-adv-x="552" 
d="M394 2q-7 -5 -14 0l82 386q14 65 -15.5 99.5t-94.5 34.5q-29 0 -58.5 -7.5t-58.5 -25t-57 -46t-53 -71.5l-79 -370q-7 -5 -14 0l159 746q9 5 14 0l-74 -347q45 70 102.5 102.5t123.5 32.5q70 0 102 -39t18 -108zM84 767q-6 2 -6 10l149 101h13l103 -101q-2 -8 -10 -10
l-102 98z" />
    <glyph glyph-name="hungarumlaut" unicode="&#x2dd;" horiz-adv-x="386" 
d="M180 805q5 -1 6 -3.5t3 -6.5l-157 -150q-6 1 -8 8zM327 805q5 -1 6 -3.5t3 -6.5l-157 -150q-6 1 -8 8z" />
    <glyph glyph-name="hyphen" unicode="-" horiz-adv-x="347" 
d="M82 281q-2 7 3 15h172q1 -8 -3 -15h-172z" />
    <glyph glyph-name="i" unicode="i" horiz-adv-x="216" 
d="M51 2q0 -1 -1 -1q-1 -1 -6 -1t-6 1q-1 0 -1 1l111 522q1 0 2 1q1 0 2.5 0.5t3.5 0.5t3 -0.5t2 -0.5l1 -1zM201 674q-1 -1 -4 -2q-6 -2 -11 -2q-6 0 -10 2q-2 1 -3 2l4 20q1 1 4 2q6 2 11 2q6 0 10 -2q2 -1 3 -2z" />
    <glyph glyph-name="iacute" unicode="&#xed;" horiz-adv-x="216" 
d="M51 2q0 -1 -1 -1q-1 -1 -6 -1t-6 1q-1 0 -1 1l111 522q1 0 2 1q1 0 2.5 0.5t3.5 0.5t3 -0.5t2 -0.5l1 -1zM279 773q5 -1 6 -3.5t3 -6.5l-157 -150q-6 1 -8 8z" />
    <glyph glyph-name="ibreve" unicode="&#x12d;" horiz-adv-x="216" 
d="M51 2q0 -1 -1 -1q-1 -1 -6 -1t-6 1q-1 0 -1 1l111 522q1 0 2 1q1 0 2.5 0.5t3.5 0.5t3 -0.5t2 -0.5l1 -1zM182 660q25 0 46 5.5t36.5 13.5t26.5 16t16 13q6 -3 7 -10q-17 -15 -37 -26q-18 -10 -42.5 -18t-55.5 -8t-52 8t-35 18q-16 11 -26 26q5 8 11 9q3 -4 10.5 -11.5
t20 -15.5t31 -14t43.5 -6z" />
    <glyph glyph-name="icircumflex" unicode="&#xee;" horiz-adv-x="216" 
d="M51 2q0 -1 -1 -1q-1 -1 -6 -1t-6 1q-1 0 -1 1l111 522q1 0 2 1q1 0 2.5 0.5t3.5 0.5t3 -0.5t2 -0.5l1 -1zM48 601q-6 2 -6 10l148 101h13l104 -101q-2 -8 -10 -10l-101 98z" />
    <glyph glyph-name="idieresis" unicode="&#xef;" horiz-adv-x="216" 
d="M51 2q0 -1 -1 -1q-1 -1 -6 -1t-6 1q-1 0 -1 1l111 522q1 0 2 1q1 0 2.5 0.5t3.5 0.5t3 -0.5t2 -0.5l1 -1zM132 672q-1 -1 -4 -2q-6 -2 -11 -2q-6 0 -10 2q-2 1 -3 2l4 20q1 1 4 2q6 2 11 2q6 0 10 -2q2 -1 3 -2zM266 672q-1 -1 -4 -2q-6 -2 -11 -2q-6 0 -10 2q-2 1 -3 2
l4 20q1 1 4 2q6 2 11 2q6 0 10 -2q2 -1 3 -2z" />
    <glyph glyph-name="igrave" unicode="&#xec;" horiz-adv-x="216" 
d="M51 2q0 -1 -1 -1q-1 -1 -6 -1t-6 1q-1 0 -1 1l111 522q1 0 2 1q1 0 2.5 0.5t3.5 0.5t3 -0.5t2 -0.5l1 -1zM116 762q6 8 13 10l92 -152q-5 -7 -12 -8z" />
    <glyph glyph-name="ij" unicode="&#x133;" horiz-adv-x="439" 
d="M372 524q1 0 2 1q1 0 2 0.5t3 0.5t3.5 -0.5t2.5 -0.5q1 -1 0 -1l-130 -612q-18 -87 -61 -124.5t-100 -37.5q-16 0 -26 1t-15 3q-7 2 -10 5l1 4q0 3 1 4l2 2q4 -1 11 -2q6 -1 14.5 -1.5t20.5 -0.5q60 0 96 33t52 110zM51 2q0 -1 -1 -1q-1 -1 -6 -1t-6 1q-1 0 -1 1l111 522
q1 0 2 1q1 0 2.5 0.5t3.5 0.5t3 -0.5t2 -0.5l1 -1zM425 674q-1 -1 -4 -2q-6 -2 -11 -2q-6 0 -10 2q-2 1 -3 2l4 20q1 1 4 2q6 2 11 2q6 0 10 -2q2 -1 3 -2zM201 674q-1 -1 -4 -2q-6 -2 -11 -2q-6 0 -10 2q-2 1 -3 2l4 20q1 1 4 2q6 2 11 2q6 0 10 -2q2 -1 3 -2z" />
    <glyph glyph-name="imacron" unicode="&#x12b;" horiz-adv-x="216" 
d="M51 2q0 -1 -1 -1q-1 -1 -6 -1t-6 1q-1 0 -1 1l111 522q1 0 2 1q1 0 2.5 0.5t3.5 0.5t3 -0.5t2 -0.5l1 -1zM94 676q-2 7 3 15h185q1 -6 -3 -15h-185z" />
    <glyph glyph-name="infinity" unicode="&#x221e;" horiz-adv-x="833" 
d="M564 164q-51 0 -81 20.5t-45 46t-19 47t-4 23.5q-2 -2 -15.5 -24t-39 -47t-63.5 -45.5t-89 -20.5q-43 0 -71 14t-43.5 36.5t-18.5 51.5t3 59t21.5 59t40.5 51.5t59 36.5t77 14q51 0 80.5 -21t44.5 -46.5t19.5 -47.5t4.5 -24q1 3 16.5 25t42 47.5t64 46t84.5 20.5
q43 0 71 -14t43.5 -36.5t18.5 -51.5t-3 -59t-22 -59t-40.5 -51.5t-58.5 -36.5t-77 -14zM210 179q51 0 89 22.5t63 50.5q29 32 50 73q-3 40 -19 73q-7 13 -17 26.5t-24.5 23.5t-34.5 16.5t-45 6.5q-41 0 -72 -13t-52.5 -34t-34.5 -47t-19 -52t-4 -52t15 -47t38.5 -34
t66.5 -13zM630 471q-49 0 -86.5 -23t-63.5 -50q-30 -33 -52 -73q4 -41 21 -73q14 -28 42 -50.5t77 -22.5q41 0 72 13t52.5 34t34.5 47t19 52t4 52t-15 47t-38.5 34t-66.5 13z" />
    <glyph glyph-name="integral" unicode="&#x222b;" horiz-adv-x="500" 
d="M303 590q14 64 49.5 97.5t91.5 33.5q37 0 63 -6.5t52 -23.5q-1 -8 -11 -12q-22 11 -45 18.5t-55 8.5q-48 1 -82 -25t-47 -89l-139 -653q-9 -41 -25 -66.5t-36.5 -39.5t-43 -19t-43.5 -5q-25 0 -51.5 6.5t-56.5 26.5q3 10 11 12q13 -8 38.5 -18t63.5 -11q19 0 39 4
t37 16.5t30.5 35t21.5 58.5z" />
    <glyph glyph-name="iogonek" unicode="&#x12f;" horiz-adv-x="215" 
d="M202 674q-1 -1 -4 -2q-6 -2 -11 -2q-6 0 -10 2q-2 1 -3 2l4 20q1 1 4 2q6 2 11 2q6 0 10 -2q2 -1 3 -2zM147 524q1 0 2 1q1 0 2.5 0.5t3.5 0.5t3 -0.5t2 -0.5l1 -1l-111 -524q-57 -48 -88.5 -96t-25.5 -96q5 -26 20 -35t40 -9q14 0 34 3.5t40 14.5q7 -3 5 -11
q-15 -9 -37 -15t-45 -6q-31 0 -49.5 13.5t-22.5 41.5q-3 30 7 58t27.5 54t39.5 48.5t43 40.5z" />
    <glyph glyph-name="itilde" unicode="&#x129;" horiz-adv-x="216" 
d="M51 2q0 -1 -1 -1q-1 -1 -6 -1t-6 1q-1 0 -1 1l111 522q1 0 2 1q1 0 2.5 0.5t3.5 0.5t3 -0.5t2 -0.5l1 -1zM224 661q23 0 34 12.5t16 20.5q8 -2 11 -7q-6 -12 -15 -21q-8 -8 -20.5 -14t-30.5 -6q-16 0 -26 6t-17.5 13.5t-15.5 14t-20 6.5q-14 0 -23.5 -5.5t-15.5 -11.5
q-7 -8 -11 -17q-9 1 -11 6q4 11 13 21q8 8 20 15t32 7q14 0 22.5 -6.5t16.5 -14t17 -13.5t24 -6z" />
    <glyph glyph-name="j" unicode="j" horiz-adv-x="217" 
d="M148 524q9 5 14 0l-130 -615q-19 -87 -59 -123.5t-97 -36.5q-38 0 -64 16q1 7 8 12q11 -8 27.5 -11t31.5 -3q55 0 88.5 34t49.5 111zM201 677q-1 -1 -4 -2q-6 -2 -11 -2q-6 0 -10 2q-2 1 -3 2l4 20q1 1 4 2q6 2 11 2q6 0 10 -2q2 -1 3 -2z" />
    <glyph glyph-name="jcircumflex" unicode="&#x135;" horiz-adv-x="217" 
d="M148 524q9 5 14 0l-130 -615q-19 -87 -57.5 -123.5t-98.5 -36.5q-38 0 -64 16q1 7 8 12q11 -8 27.5 -11t31.5 -3q108 0 138 145zM41 583q-6 2 -6 10l148 101h13l104 -101q-2 -8 -10 -10l-101 98z" />
    <glyph glyph-name="k" unicode="k" horiz-adv-x="491" 
d="M471 525q9 3 18 0l-232 -251l145 -271l-2 -2q-1 -1 -7 -1q-5 0 -6 1t-1 2l-142 265h-141l-57 -267q-7 -4 -14 0l159 748q9 3 14 0l-99 -467h140z" />
    <glyph glyph-name="kcommaaccent" unicode="&#x137;" horiz-adv-x="491" 
d="M140 -139q8 8 16 19q7 8 13 19.5t9 23.5q-5 0 -7 1q-2 0 -3 1l4 20q1 0 3 1q2 0 4 0.5t6 0.5q3 0 4.5 -0.5t3.5 -0.5q2 -1 3 -1l-3 -17q-4 -17 -11.5 -30t-15.5 -23q-9 -11 -19 -20zM471 525q9 3 18 0l-232 -251l145 -271l-2 -2q-1 -1 -7 -1q-5 0 -6 1t-1 2l-142 265
h-141l-57 -267q-7 -4 -14 0l159 748q9 3 14 0l-99 -467h140z" />
    <glyph glyph-name="kgreenlandic" unicode="&#x138;" horiz-adv-x="497" 
d="M240 296l166 -295q-9 -3 -17 0l-160 285l-151 -134l-32 -150q-2 -2 -7 -2t-7 2l112 523q7 3 14 0l-75 -350l393 349q6 2 11 2q9 0 9 -2z" />
    <glyph glyph-name="l" unicode="l" horiz-adv-x="219" 
d="M52 2q0 -1 -1 -1q-1 -1 -6 -1t-6 1q-1 0 -1 1l159 746l1 1q1 0 2.5 0.5t3.5 0.5t3.5 -0.5t2.5 -0.5l1 -1z" />
    <glyph glyph-name="lacute" unicode="&#x13a;" horiz-adv-x="219" 
d="M52 2q0 -1 -1 -1q-1 -1 -6 -1t-6 1q-1 0 -1 1l159 746l1 1q1 0 2.5 0.5t3.5 0.5t3.5 -0.5t2.5 -0.5l1 -1zM315 936q5 -2 9 -11l-165 -141q-6 3 -8 9z" />
    <glyph glyph-name="lcaron" unicode="&#x13e;" horiz-adv-x="223" 
d="M248 597q-6 1 -6 8q37 25 56.5 63t25.5 82q9 4 15 0q-2 -19 -9 -40.5t-18 -42t-27 -39t-37 -31.5zM52 2q0 -1 -1 -1q-1 -1 -6 -1t-6 1q-1 0 -1 1l159 746l1 1q1 0 2.5 0.5t3.5 0.5t3.5 -0.5t2.5 -0.5l1 -1z" />
    <glyph glyph-name="lcommaaccent" unicode="&#x13c;" horiz-adv-x="219" 
d="M52 2q0 -1 -1 -1q-1 -1 -6 -1t-6 1q-1 0 -1 1l159 746l1 1q1 0 2.5 0.5t3.5 0.5t3.5 -0.5t2.5 -0.5l1 -1zM-9 -131q9 8 16 19q6 8 12 19.5t9 23.5q-4 0 -6 1q-2 0 -3 1l4 20q1 0 3 1q2 0 3.5 0.5t5.5 0.5q3 0 5 -0.5t4 -0.5q2 -1 3 -1l-4 -17q-4 -17 -11 -30t-15 -23
q-9 -11 -19 -20z" />
    <glyph glyph-name="ldot" unicode="&#x140;" horiz-adv-x="235" 
d="M52 2q0 -1 -1 -1q-1 -1 -6 -1t-6 1q-1 0 -1 1l159 746l1 1q1 0 2.5 0.5t3.5 0.5t3.5 -0.5t2.5 -0.5l1 -1zM249 324q-1 -1 -4 -2q-6 -2 -11 -2q-6 0 -10 2q-2 1 -3 2l4 20q1 1 4 2q6 2 11 2q6 0 10 -2q2 -1 3 -2z" />
    <glyph glyph-name="less" unicode="&#x3c;" horiz-adv-x="477" 
d="M349 133l-2 -6q-1 -1 -1 -2l-288 154v3q0 5 1 8q0 3 2 7l2 4l353 154v-2v-6q-1 -2 -1 -4t-1 -3q-1 -2 -2 -2l-339 -148l276 -148v-3v-6v0z" />
    <glyph glyph-name="lessequal" unicode="&#x2264;" horiz-adv-x="472" 
d="M343 152q3 -8 -3 -15h-282q-2 7 3 15h282zM364 239q-2 -5 -3 -6t-1 -2l-255 127v3q0 2 -0.5 4t0.5 4q0 2 1 3.5t2 3.5l2 4l301 122v-2v-6q-1 -2 -1 -4t-1 -3q-1 -2 -2 -2l-288 -116l245 -121v-3v-6z" />
    <glyph glyph-name="logicalnot" unicode="&#xac;" horiz-adv-x="599" 
d="M483 213q-1 -1 -2 -1q-1 -1 -5 -1q-6 0 -7 1q-1 0 -1 1l45 211h-417v2q0 1 -0.5 2.5t0.5 3.5q0 3 2 5q1 1 1 2h432z" />
    <glyph glyph-name="longs" unicode="&#x17f;" horiz-adv-x="246" 
d="M174 590q19 85 59 122.5t115 37.5q17 0 31.5 -1.5t25.5 -3.5q13 -3 24 -5q0 -9 -6 -13l-21 4q-10 2 -23.5 3t-29.5 1q-36 0 -62.5 -8t-45.5 -25.5t-31 -44.5t-20 -66l-126 -589q-6 -4 -11 -2q-3 1 -4 2l109 509h-79q-2 4 0 10q1 3 3 5h79l13 64v0z" />
    <glyph glyph-name="lozenge" unicode="&#x25ca;" horiz-adv-x="546" 
d="M70 352l281 344h7l138 -344l-285 -345h-7zM350 674l-262 -322l125 -323l266 323z" />
    <glyph glyph-name="lslash" unicode="&#x142;" horiz-adv-x="277" 
d="M155 402l-85 -400q0 -1 -1 -1q-1 -1 -6 -1t-6 1q-1 0 -1 1l84 392l-95 -49q-5 4 -4 12l102 53l72 338l1 1q1 0 2.5 0.5t3.5 0.5t3.5 -0.5t2.5 -0.5l1 -1l-70 -330l103 53q7 -3 5 -12z" />
    <glyph glyph-name="m" unicode="m" horiz-adv-x="850" 
d="M454 401q84 135 214 135q64 0 92.5 -39t14.5 -108l-83 -387q-7 -5 -14 0l82 386q14 63 -10 98.5t-84 35.5q-28 0 -56 -7.5t-55.5 -25t-54.5 -47t-53 -73.5l-78 -367q-7 -5 -14 0l82 386q14 63 -10 98.5t-84 35.5q-28 0 -56 -7.5t-55 -25t-54 -46t-52 -71.5l-79 -370
q-7 -5 -14 0l111 522q9 5 14 0l-25 -120q46 69 97 100.5t115 31.5q61 0 90 -35.5t19 -99.5z" />
    <glyph glyph-name="macron" unicode="&#xaf;" horiz-adv-x="407" 
d="M52 639q-2 7 3 15h255q1 -6 -3 -15h-255z" />
    <glyph glyph-name="minus" unicode="&#x2212;" horiz-adv-x="459" 
d="M95 319q-2 7 3 15h272q1 -8 -3 -15h-272z" />
    <glyph glyph-name="mu" unicode="&#xb5;" horiz-adv-x="578" 
d="M501 525q1 0 2.5 0.5t3.5 0.5t3.5 -0.5t2.5 -0.5l1 -1l-111 -522q0 -1 -1 -1q-1 -1 -7 -1q-4 0 -5 1q-1 0 -1 1l22 103q-45 -54 -100 -84.5t-118 -30.5q-44 0 -77 14t-46 55l-16 -73q-16 -73 -21.5 -118t-7.5 -70q-2 -30 2 -43q-3 -3 -5 -4.5t-9 -0.5q-4 14 -3 45
q1 26 6.5 72t21.5 119l114 538l1 1q1 0 3 0.5t5 0.5q2 0 2.5 -0.5t1.5 -0.5l1 -1l-81 -384q-6 -28 -4.5 -53t13.5 -43.5t36.5 -29t65.5 -10.5q71 0 127.5 37t93.5 91l83 392z" />
    <glyph glyph-name="multiply" unicode="&#xd7;" horiz-adv-x="438" 
d="M225 288l92 -117q-4 -6 -13 -10l-92 117l-141 -117q-2 2 -5 4t-4 6l142 117l-92 117q5 7 13 10l92 -116l141 116q7 -3 9 -10z" />
    <glyph glyph-name="n" unicode="n" horiz-adv-x="553" 
d="M395 2q-7 -5 -14 0l82 386q14 65 -14.5 99.5t-93.5 34.5q-28 0 -57.5 -7.5t-59 -25t-58 -46.5t-54.5 -71l-79 -370q-7 -5 -14 0l111 522q9 5 14 0l-25 -121q47 68 104 100.5t121 32.5q70 0 102 -39t18 -108z" />
    <glyph glyph-name="nacute" unicode="&#x144;" horiz-adv-x="553" 
d="M395 2q-7 -5 -14 0l82 386q14 65 -15.5 99.5t-94.5 34.5q-28 0 -57 -7.5t-58 -25t-57.5 -46.5t-54.5 -71l-79 -370q-7 -5 -14 0l111 522q9 5 14 0l-25 -121q47 68 104 100.5t121 32.5q70 0 102 -39t18 -108zM436 769q5 -1 6 -3.5t3 -6.5l-157 -150q-6 2 -8 8z" />
    <glyph glyph-name="napostrophe" unicode="&#x149;" horiz-adv-x="553" 
d="M154 595q-7 2 -5 9q39 23 63.5 55t35.5 77q8 1 14 -2q-10 -39 -36.5 -76.5t-71.5 -62.5zM395 2q-7 -5 -14 0l82 386q14 65 -15.5 99.5t-94.5 34.5q-28 0 -57 -7.5t-58 -25t-57.5 -46.5t-54.5 -71l-79 -370q-7 -5 -14 0l111 522q9 5 14 0l-25 -121q47 68 104 100.5
t121 32.5q70 0 102 -39t18 -108z" />
    <glyph glyph-name="ncaron" unicode="&#x148;" horiz-adv-x="553" 
d="M395 2q-7 -5 -14 0l82 386q14 65 -15.5 99.5t-94.5 34.5q-28 0 -57 -7.5t-58 -25t-57.5 -46.5t-54.5 -71l-79 -370q-7 -5 -14 0l111 522q9 5 14 0l-25 -121q47 68 104 100.5t121 32.5q70 0 102 -39t18 -108zM243 706q4 7 10 10l98 -92l135 91q8 -2 6 -10l-136 -94h-13z
" />
    <glyph glyph-name="ncommaaccent" unicode="&#x146;" horiz-adv-x="553" 
d="M395 2q-7 -5 -14 0l82 386q14 65 -15.5 99.5t-94.5 34.5q-28 0 -57 -7.5t-58 -25t-57.5 -46.5t-54.5 -71l-79 -370q-7 -5 -14 0l111 522q9 5 14 0l-25 -121q47 68 104 100.5t121 32.5q70 0 102 -39t18 -108zM160 -142q9 8 16 19q6 8 12 19.5t9 23.5q-5 0 -7 1q-2 0 -3 1
l5 20q1 0 3 1q2 0 3.5 0.5t5.5 0.5q3 0 5 -0.5t4 -0.5q2 -1 3 -1l-4 -17q-4 -17 -11 -30t-15 -23q-9 -11 -19 -20z" />
    <glyph glyph-name="nine" unicode="9" horiz-adv-x="551" 
d="M58 0q-2 8 3 14q68 6 129 28.5t112 62t91.5 96.5t67.5 134q-53 -37 -103.5 -54t-105.5 -17q-94 0 -134 56t-19 157q11 51 35 90.5t57 67t73.5 41.5t84.5 14q43 0 77.5 -15.5t56 -48t27 -83t-9.5 -120.5q-23 -105 -66.5 -182.5t-102 -129t-128.5 -79t-145 -32.5zM114 477
q-20 -94 15 -146.5t123 -52.5q57 0 109 18.5t106 56.5q6 17 9.5 36t8.5 38q13 64 8.5 110.5t-23.5 77t-50.5 45.5t-72.5 15t-78.5 -12.5t-68.5 -37.5t-53.5 -62t-32.5 -86z" />
    <glyph glyph-name="nine.denom" horiz-adv-x="308" 
d="M236 192q-8 -35 -25.5 -68t-45 -60t-65.5 -45.5t-87 -23.5q-4 4 1 11q85 12 136.5 58t73.5 119q-17 -13 -45 -25t-69 -12q-49 0 -70.5 25.5t-12.5 70.5q11 49 44.5 76.5t84.5 27.5q56 0 76 -39.5t4 -114.5zM39 242q-8 -40 10 -62.5t63 -22.5q24 0 43 4.5t33.5 11
t23.5 13.5l14 11q26 137 -73 137q-45 0 -74.5 -23.5t-39.5 -68.5z" />
    <glyph glyph-name="nine.num" horiz-adv-x="309" 
d="M310 539q-8 -35 -25.5 -68t-45 -60t-65.5 -45.5t-87 -23.5q-4 4 1 11q85 12 136.5 58t73.5 119q-17 -13 -45 -25t-69 -12q-49 0 -71 25.5t-12 70.5q11 49 44 76.5t84 27.5q56 0 76.5 -39.5t4.5 -114.5zM113 589q-8 -40 10 -62.5t63 -22.5q24 0 43 4.5t33.5 11t23.5 13.5
l14 11q26 137 -73 137q-45 0 -74.5 -23.5t-39.5 -68.5z" />
    <glyph glyph-name="nineinferior" unicode="&#x2089;" horiz-adv-x="308" 
d="M216 98q-8 -35 -25.5 -68t-45 -60t-65.5 -45.5t-87 -23.5q-4 4 1 11q85 12 136.5 58t73.5 119q-17 -13 -45 -25t-69 -12q-49 0 -70.5 25.5t-12.5 70.5q11 49 44.5 76.5t84.5 27.5q56 0 76 -39.5t4 -114.5zM19 148q-8 -40 10 -62.5t63 -22.5q24 0 43.5 4.5t33.5 11
t23.5 13.5t13.5 11q26 137 -73 137q-45 0 -74.5 -23.5t-39.5 -68.5z" />
    <glyph glyph-name="notequal" unicode="&#x2260;" horiz-adv-x="462" 
d="M372 215q2 -8 -4 -15h-209l-77 -100q-8 -3 -16 0l77 100h-95q0 8 4 15h102l113 147h-184q-2 7 3 15h192l73 96q9 3 16 0l-73 -96h112q1 -8 -3 -15h-120l-113 -147h202z" />
    <glyph glyph-name="ntilde" unicode="&#xf1;" horiz-adv-x="553" 
d="M395 2q-7 -5 -14 0l82 386q14 65 -15.5 99.5t-94.5 34.5q-28 0 -57 -7.5t-58 -25t-57.5 -46.5t-54.5 -71l-79 -370q-7 -5 -14 0l111 522q9 5 14 0l-25 -121q47 68 104 100.5t121 32.5q70 0 102 -39t18 -108zM421 675q23 0 35.5 12.5t17.5 20.5q9 -2 12 -7q-7 -12 -17 -21
q-8 -8 -21 -14t-31 -6q-17 0 -29 6t-23 13.5t-22.5 14t-25.5 6.5q-13 0 -22 -5.5t-15 -11.5q-7 -8 -13 -17q-9 2 -12 7q5 11 15 20q8 8 21 14.5t31 6.5q14 0 25 -6t22 -13.5t23 -13.5t29 -6z" />
    <glyph glyph-name="_300" horiz-adv-x="0" 
 />
    <glyph glyph-name="numbersign" unicode="#" horiz-adv-x="640" 
d="M502 445l-137 -275h111q1 -8 -3 -15h-115l-75 -152q-9 -3 -15 0l75 152h-193l-75 -152q-9 -3 -15 0l75 152h-117q-2 7 3 15h121l137 275h-115l-1.5 3t0.5 4q1 5 4 8h119l80 161q7 2 15 0l-80 -161h193l80 161q7 2 15 0l-80 -161h113q0 -2 0.5 -3.5t-0.5 -4.5l-3 -7h-117z
M487 445h-193l-137 -275h193z" />
    <glyph glyph-name="o" unicode="o" horiz-adv-x="536" 
d="M61 263q16 74 40.5 126t56.5 84.5t72 47.5t87 15t80.5 -15t52 -47.5t21 -84.5t-13.5 -126t-40.5 -126t-56.5 -84.5t-72 -47.5t-87 -15t-80.5 15t-52 47.5t-21 84.5t13.5 126zM443 263q15 73 13.5 122.5t-18.5 80t-48 43.5t-74 13q-42 0 -79 -13t-68 -43.5t-55 -80
t-39 -122.5q-16 -73 -14 -122.5t19.5 -80t48.5 -43.5t73 -13t79 13t67.5 43.5t54.5 80t40 122.5z" />
    <glyph glyph-name="oacute" unicode="&#xf3;" horiz-adv-x="536" 
d="M420 770q5 -1 9 -10l-157 -150q-7 1 -9 8zM61 263q16 74 40.5 126t56.5 84.5t72 47.5t87 15t80.5 -15t52 -47.5t21 -84.5t-13.5 -126t-40.5 -126t-56.5 -84.5t-72 -47.5t-87 -15t-80.5 15t-52 47.5t-21 84.5t13.5 126zM443 263q15 73 13.5 122.5t-18.5 80t-48 43.5
t-74 13q-42 0 -79 -13t-68 -43.5t-55 -80t-39 -122.5q-16 -73 -14 -122.5t19.5 -80t48.5 -43.5t73 -13t79 13t67.5 43.5t54.5 80t40 122.5z" />
    <glyph glyph-name="obreve" unicode="&#x14f;" horiz-adv-x="536" 
d="M343 666q25 0 45.5 5.5t36.5 13.5t26.5 16t16.5 13q6 -4 7 -10q-16 -15 -35 -26q-17 -10 -41 -18t-56 -8q-31 0 -53 8t-36 18q-17 11 -27 26q2 4 4 6t7 3q3 -4 10 -11.5t20 -15.5t31.5 -14t43.5 -6zM61 263q16 74 40.5 126t56.5 84.5t72 47.5t87 15t80.5 -15t52 -47.5
t21 -84.5t-13.5 -126t-40.5 -126t-56.5 -84.5t-72 -47.5t-87 -15t-80.5 15t-52 47.5t-21 84.5t13.5 126zM443 263q15 73 13.5 122.5t-18.5 80t-48 43.5t-74 13q-42 0 -79 -13t-68 -43.5t-55 -80t-39 -122.5q-16 -73 -14 -122.5t19.5 -80t48.5 -43.5t73 -13t79 13t67.5 43.5
t54.5 80t40 122.5z" />
    <glyph glyph-name="ocircumflex" unicode="&#xf4;" horiz-adv-x="536" 
d="M206 601q-6 2 -6 10l148 101h13l104 -101q-2 -8 -10 -10l-101 98zM61 263q16 74 40.5 126t56.5 84.5t72 47.5t87 15t80.5 -15t52 -47.5t21 -84.5t-13.5 -126t-40.5 -126t-56.5 -84.5t-72 -47.5t-87 -15t-80.5 15t-52 47.5t-21 84.5t13.5 126zM443 263q15 73 13.5 122.5
t-18.5 80t-48 43.5t-74 13q-42 0 -79 -13t-68 -43.5t-55 -80t-39 -122.5q-16 -73 -14 -122.5t19.5 -80t48.5 -43.5t73 -13t79 13t67.5 43.5t54.5 80t40 122.5z" />
    <glyph glyph-name="odieresis" unicode="&#xf6;" horiz-adv-x="536" 
d="M295 678q-1 -1 -4 -2q-6 -2 -11 -2q-6 0 -10 2q-2 1 -3 2l4 20q1 1 4 2q6 2 11 2q6 0 10 -2q2 -1 3 -2zM429 678q-1 -1 -4 -2q-6 -2 -11 -2q-6 0 -10 2q-2 1 -3 2l4 20q1 1 4 2q6 2 11 2q6 0 10 -2q2 -1 3 -2zM61 263q16 74 40.5 126t56.5 84.5t72 47.5t87 15t80.5 -15
t52 -47.5t21 -84.5t-13.5 -126t-40.5 -126t-56.5 -84.5t-72 -47.5t-87 -15t-80.5 15t-52 47.5t-21 84.5t13.5 126zM443 263q15 73 13.5 122.5t-18.5 80t-48 43.5t-74 13q-42 0 -79 -13t-68 -43.5t-55 -80t-39 -122.5q-16 -73 -14 -122.5t19.5 -80t48.5 -43.5t73 -13t79 13
t67.5 43.5t54.5 80t40 122.5z" />
    <glyph glyph-name="oe" unicode="&#x153;" horiz-adv-x="835" 
d="M657 536q42 0 69.5 -14.5t42.5 -39t18 -57t-4 -68.5q-5 -23 -10.5 -41t-10.5 -31q-5 -15 -11 -26h-316q-25 -125 0 -189.5t110 -64.5q27 0 50 5.5t41 13t29.5 15t14.5 10.5q10 -3 9 -12q-16 -13 -38 -24q-19 -9 -46.5 -16t-62.5 -7q-67 0 -103.5 43.5t-31.5 132.5
q-35 -95 -90 -135.5t-126 -40.5q-46 0 -78 15t-48.5 47.5t-18 84.5t14.5 126t39.5 126t54.5 84.5t69.5 47.5t84.5 15q74 0 109 -40.5t30 -133.5q36 92 91.5 133t117.5 41zM76 263q-16 -73 -15 -122.5t16.5 -79.5t45 -43t71.5 -13q41 0 75.5 14t62.5 45t49.5 80.5t36.5 120.5
q16 73 16 122.5t-14.5 79.5t-43 42.5t-69.5 12.5t-76.5 -13t-64.5 -43.5t-52 -80t-38 -122.5zM742 274q0 -2 8.5 20t17.5 64q7 31 5 61t-15 52.5t-38 36.5t-64 14q-74 0 -131.5 -60.5t-86.5 -187.5h304z" />
    <glyph glyph-name="ogonek" unicode="&#x2db;" horiz-adv-x="283" 
d="M218 0q-35 -19 -67.5 -43t-57 -50t-38.5 -52t-11 -50q5 -26 20 -34t40 -8q14 0 34.5 3.5t40.5 14.5q6 -3 4 -10q-15 -9 -37 -15t-45 -6q-31 0 -49.5 12t-22.5 40q-3 30 13.5 59t42.5 55.5t56.5 48t56.5 35.5h20z" />
    <glyph glyph-name="ograve" unicode="&#xf2;" horiz-adv-x="536" 
d="M273 761q3 4 5.5 6t7.5 4l92 -152q-5 -7 -12 -8zM61 263q16 74 40.5 126t56.5 84.5t72 47.5t87 15t80.5 -15t52 -47.5t21 -84.5t-13.5 -126t-40.5 -126t-56.5 -84.5t-72 -47.5t-87 -15t-80.5 15t-52 47.5t-21 84.5t13.5 126zM443 263q15 73 13.5 122.5t-18.5 80t-48 43.5
t-74 13q-42 0 -79 -13t-68 -43.5t-55 -80t-39 -122.5q-16 -73 -14 -122.5t19.5 -80t48.5 -43.5t73 -13t79 13t67.5 43.5t54.5 80t40 122.5z" />
    <glyph glyph-name="ohungarumlaut" unicode="&#x151;" horiz-adv-x="536" 
d="M372 736q8 -1 11 -3t6 -7l-122 -108q-9 1 -10 7zM488 736q13 -1 17 -10l-122 -108q-9 1 -10 7zM61 263q16 74 40.5 126t56.5 84.5t72 47.5t87 15t80.5 -15t52 -47.5t21 -84.5t-13.5 -126t-40.5 -126t-56.5 -84.5t-72 -47.5t-87 -15t-80.5 15t-52 47.5t-21 84.5t13.5 126z
M443 263q15 73 13.5 122.5t-18.5 80t-48 43.5t-74 13q-42 0 -79 -13t-68 -43.5t-55 -80t-39 -122.5q-16 -73 -14 -122.5t19.5 -80t48.5 -43.5t73 -13t79 13t67.5 43.5t54.5 80t40 122.5z" />
    <glyph glyph-name="omacron" unicode="&#x14d;" horiz-adv-x="536" 
d="M234 659q-2 7 3 15h225q1 -6 -3 -15h-225zM61 263q16 74 40.5 126t56.5 84.5t72 47.5t87 15t80.5 -15t52 -47.5t21 -84.5t-13.5 -126t-40.5 -126t-56.5 -84.5t-72 -47.5t-87 -15t-80.5 15t-52 47.5t-21 84.5t13.5 126zM443 263q15 73 13.5 122.5t-18.5 80t-48 43.5
t-74 13q-42 0 -79 -13t-68 -43.5t-55 -80t-39 -122.5q-16 -73 -14 -122.5t19.5 -80t48.5 -43.5t73 -13t79 13t67.5 43.5t54.5 80t40 122.5z" />
    <glyph glyph-name="one" unicode="1" horiz-adv-x="379" 
d="M84 512q66 17 130.5 60t114.5 106l1 1q1 0 2.5 0.5t3.5 0.5t3 -0.5t2 -0.5l1 -1l-144 -676q-8 -5 -15 0l138 647q-48 -57 -110 -95.5t-125 -55.5q-6 4 -2 14z" />
    <glyph glyph-name="one.denom" horiz-adv-x="242" 
d="M27 265q37 8 73.5 27.5t65.5 49.5q6 2 13 0l-73 -341q-3 -1 -6 -1t-6 1l69 324q-53 -51 -135 -71q-2 1 -2.5 5t1.5 6z" />
    <glyph glyph-name="one.num" horiz-adv-x="258" 
d="M101 613q37 8 73.5 27.5t65.5 49.5q6 2 13 0l-73 -341q-3 -1 -6 -1t-6 1l69 324q-53 -51 -135 -71q-2 1 -2.5 5t1.5 6z" />
    <glyph glyph-name="oneeighth" unicode="&#x215b;" horiz-adv-x="693" 
d="M592 700q1 0 2 1q1 0 2.5 0.5t3.5 0.5t2.5 -0.5t1.5 -0.5l1 -1l-539 -709q0 -1 -1 -1h-5h-6q-1 0 -1 1zM108 613q37 8 73.5 27.5t65.5 49.5q6 2 13 0l-73 -341q-3 -1 -6 -1t-6 1l69 324q-53 -51 -135 -71q-2 1 -2.5 5t1.5 6zM617 267q-8 -35 -32 -58.5t-52 -37.5
q28 -14 46 -34t11 -54q-9 -42 -43.5 -65t-87.5 -23q-54 0 -79 23.5t-16 65.5t38 67.5t59 39.5q-24 14 -37.5 32.5t-6.5 47.5q8 36 38 56.5t78 20.5t70 -21.5t14 -59.5zM530 336q-42 0 -68.5 -17t-32.5 -48q-5 -21 2 -36t21 -25.5t32.5 -18l37.5 -15.5q35 18 55.5 40t27.5 51
q7 32 -13 50.5t-62 18.5zM376 84q-8 -36 14.5 -56.5t71.5 -20.5q47 0 77 19.5t38 54.5q5 24 -2.5 39t-23.5 26.5t-37.5 20t-43.5 19.5q-14 -7 -28.5 -16t-27.5 -21t-23.5 -28t-14.5 -37z" />
    <glyph glyph-name="onehalf" unicode="&#xbd;" horiz-adv-x="685" 
d="M584 700q1 0 2 1q1 0 2.5 0.5t3.5 0.5t2.5 -0.5t1.5 -0.5l1 -1l-539 -709q0 -1 -1 -1h-5h-6q-1 0 -1 1zM108 613q37 8 73.5 27.5t65.5 49.5q6 2 13 0l-73 -341q-3 -1 -6 -1t-6 1l69 324q-53 -51 -135 -71q-2 1 -2.5 5t1.5 6zM360 41q7 34 26.5 55.5t45 36t54 25.5
t53.5 23.5t43.5 30.5t24.5 47q3 13 2 27t-10 25t-26.5 18t-47.5 7q-30 -1 -50.5 -5t-28.5 -6q-2 6 1 12q-2 0 21.5 5.5t60.5 5.5q32 0 51.5 -7.5t29.5 -20t11.5 -29t-2.5 -33.5q-7 -31 -26 -50.5t-44.5 -33t-53.5 -24.5t-53.5 -24.5t-44.5 -33.5t-25 -51q-2 -7 -3 -14
t-1 -15h199q0 -1 0.5 -2.5t-0.5 -3.5q0 -3 -3 -6h-208v12q0 13 4 29z" />
    <glyph glyph-name="oneinferior" unicode="&#x2081;" horiz-adv-x="242" 
d="M7 169q37 8 73 27.5t65 49.5q6 2 13 0l-72 -341q-3 -1 -6 -1t-6 1l69 324q-54 -51 -135 -71q-2 1 -2.5 5t1.5 6z" />
    <glyph glyph-name="onequarter" unicode="&#xbc;" horiz-adv-x="620" 
d="M583 700q1 0 2 1q1 0 2.5 0.5t3.5 0.5t2.5 -0.5t1.5 -0.5l1 -1l-539 -709q0 -1 -1 -1h-5h-6q-1 0 -1 1zM108 613q37 8 73.5 27.5t65.5 49.5q6 2 13 0l-73 -341q-3 -1 -6 -1t-6 1l69 324q-53 -51 -135 -71q-2 1 -2.5 5t1.5 6zM523 116q1 -5 -3 -12h-37l-22 -103
q-6 -3 -12 0l22 103h-183q-2 2 1 5q1 1 1 2l233 231q3 1 8 1q2 0 3 -1l-48 -226h37zM309 116h165l43 205z" />
    <glyph glyph-name="onesuperior" unicode="&#xb9;" horiz-adv-x="242" 
d="M101 613q37 8 73.5 27.5t65.5 49.5q6 2 13 0l-73 -341q-3 -1 -6 -1t-6 1l69 324q-53 -51 -135 -71q-2 1 -2.5 5t1.5 6z" />
    <glyph glyph-name="ordfeminine" unicode="&#xaa;" horiz-adv-x="361" 
d="M156 614q15 4 32 8q14 3 31.5 5.5t36.5 2.5q51 0 69 -25.5t8 -73.5l-48 -227h-9l15 72q-22 -43 -58 -61.5t-74 -18.5q-47 0 -66 23t-10 67t42.5 68t87.5 24q32 0 57.5 -2.5t39.5 -4.5l11 53q11 53 -7 73.5t-62 20.5q-19 0 -36 -2.5t-30 -5.5q-15 -4 -28 -8q-3 2 -3 6t1 6
zM308 461q-14 2 -40.5 4.5t-54.5 2.5q-51 0 -80.5 -21.5t-37.5 -60.5q-17 -79 64 -79q48 0 87.5 29t53.5 86zM271 244q0 -5 -3 -11h-216q0 5 3 11h216z" />
    <glyph glyph-name="ordmasculine" unicode="&#xba;" horiz-adv-x="381" 
d="M100 463q18 85 54.5 125.5t101.5 40.5q60 0 84 -39.5t5 -126.5q-18 -87 -55.5 -127.5t-100.5 -40.5q-65 0 -86 40.5t-3 127.5zM334 463q17 79 -1 117t-78 38q-61 0 -94 -38t-50 -117q-17 -81 0 -119t78 -38q60 0 94 38t51 119zM287 244q1 -5 -3 -11h-222q-1 5 3 11h222z
" />
    <glyph glyph-name="oslash" unicode="&#xf8;" horiz-adv-x="536" 
d="M441 486q24 -32 28.5 -86.5t-12.5 -136.5q-16 -74 -40.5 -126t-56.5 -84.5t-72 -47.5t-87 -15q-35 0 -62.5 8t-47.5 26l-47 -63q-8 0 -11 6l49 65q-27 32 -33.5 87.5t12.5 143.5q16 74 40.5 126t56.5 84.5t72 47.5t87 15q38 0 67 -9.5t49 -30.5l50 66q8 0 11 -6zM314 522
q-42 0 -79 -13t-67.5 -43.5t-54 -80t-38.5 -122.5q-18 -84 -12.5 -136.5t29.5 -81.5l332 438q-19 21 -47 30t-63 9zM101 36q18 -17 44 -24.5t59 -7.5q42 0 79 13t67 43.5t53.5 80t39.5 122.5q17 78 13 129.5t-25 80.5z" />
    <glyph glyph-name="oslashacute" unicode="&#x1ff;" horiz-adv-x="535" 
d="M441 486q24 -32 28.5 -86.5t-12.5 -136.5q-16 -74 -40.5 -126t-56.5 -84.5t-72 -47.5t-87 -15q-35 0 -62.5 8t-47.5 26l-47 -63q-8 0 -11 6l49 65q-27 32 -33.5 87.5t12.5 143.5q16 74 40.5 126t56.5 84.5t72 47.5t87 15q38 0 67 -9.5t49 -30.5l50 66q8 0 11 -6zM314 522
q-42 0 -79 -13t-67.5 -43.5t-54 -80t-38.5 -122.5q-18 -84 -12.5 -136.5t29.5 -81.5l332 438q-19 21 -47 30t-63 9zM101 36q18 -17 44 -24.5t59 -7.5q42 0 79 13t67 43.5t53.5 80t39.5 122.5q17 78 13 129.5t-25 80.5zM430 770q5 -1 9 -10l-157 -150q-7 1 -9 8z" />
    <glyph glyph-name="otilde" unicode="&#xf5;" horiz-adv-x="536" 
d="M61 263q16 74 40.5 126t56.5 84.5t72 47.5t87 15t80.5 -15t52 -47.5t21 -84.5t-13.5 -126t-40.5 -126t-56.5 -84.5t-72 -47.5t-87 -15t-80.5 15t-52 47.5t-21 84.5t13.5 126zM443 263q15 73 13.5 122.5t-18.5 80t-48 43.5t-74 13q-42 0 -79 -13t-68 -43.5t-55 -80
t-39 -122.5q-16 -73 -14 -122.5t19.5 -80t48.5 -43.5t73 -13t79 13t67.5 43.5t54.5 80t40 122.5zM401 666q23 0 35.5 12.5t17.5 20.5q9 -2 12 -7q-7 -12 -17 -21q-8 -8 -21 -14t-31 -6q-17 0 -29 6t-23 13.5t-22.5 14t-25.5 6.5q-13 0 -22 -5.5t-15 -11.5q-7 -8 -13 -17
q-9 2 -12 7q5 11 15 20q8 8 21 14.5t31 6.5q14 0 25 -6t22 -13.5t23 -13.5t29 -6z" />
    <glyph glyph-name="p" unicode="p" 
d="M226 -10q-57 0 -99 33t-55 95l-78 -367q-1 -1 -2 -1q-1 -1 -5 -1q-5 0 -6 1q-1 0 -2 1l164 773l2 1q1 0 3 0.5t4 0.5t3 -0.5t2 -0.5l1 -1l-25 -121q16 28 38 52.5t48 42.5t55.5 28t60.5 10q99 0 134.5 -66.5t6.5 -206.5q-29 -138 -92 -205.5t-158 -67.5zM86 184
q-6 -32 1 -64t25 -57.5t46.5 -41.5t67.5 -16q88 0 147.5 63.5t87.5 194.5q28 133 -3.5 195.5t-124.5 62.5q-41 0 -77 -18t-65 -46.5t-48.5 -63t-26.5 -67.5z" />
    <glyph glyph-name="paragraph" unicode="&#xb6;" horiz-adv-x="403" 
d="M184 571q-31 2 -42 21t-6 44q6 23 26 43t52 20h13l-197 -924q-1 -1 -2 -1q-1 -1 -6 -1t-6 1q-1 0 -1 1zM174 -225q-1 -1 -2 -1q-1 -1 -6 -1t-6 1q-1 0 -1 1l196 922q1 0 3 1q2 0 3 0.5t3 0.5t2.5 -0.5t1.5 -0.5q1 -1 2 -1z" />
    <glyph glyph-name="parenleft" unicode="(" horiz-adv-x="275" 
d="M335 811q8 -2 11 -8q-54 -52 -103 -124q-42 -62 -85 -151.5t-68 -207.5q-13 -59 -17.5 -111t-3 -97t7 -82.5t13.5 -68.5q18 -72 50 -124q-4 -6 -11 -8q-1 0 -19 32t-34.5 95t-21.5 154.5t20 209.5t69 209.5t87 154.5q50 73 105 127z" />
    <glyph glyph-name="parenright" unicode=")" horiz-adv-x="276" 
d="M193 320q25 117 20.5 207t-20.5 152q-18 72 -50 124q5 6 13 8q33 -54 52 -127q8 -31 14 -70t7 -84.5t-3.5 -98t-16.5 -111.5q-17 -79 -43 -146t-55 -121.5t-58.5 -96.5t-53 -70t-38.5 -42.5l-15 -14.5q-8 2 -9 8q54 52 103 124q42 62 84.5 151.5t68.5 207.5z" />
    <glyph glyph-name="partialdiff" unicode="&#x2202;" horiz-adv-x="552" 
d="M240 738q2 9 7 14q69 -12 120.5 -50t82.5 -96.5t39 -135.5t-11 -166q-35 -162 -101 -238t-174 -76q-99 0 -135.5 66t-8.5 196q27 130 89 196t157 66q34 0 62 -9.5t49.5 -25.5t36 -37t22.5 -45v4q3 135 -54.5 224t-180.5 113zM74 252q-26 -122 7 -184.5t125 -62.5
q103 0 163.5 72.5t93.5 226.5l10 54q-7 36 -23.5 62.5t-39.5 44t-51 26t-58 8.5q-87 0 -144 -62.5t-83 -184.5z" />
    <glyph glyph-name="percent" unicode="%" horiz-adv-x="733" 
d="M120 -8q-9 -3 -17 0l540 708q8 3 17 0zM190 345q-58 0 -82.5 39.5t-4.5 133.5q20 93 61.5 133t99.5 40q57 0 82.5 -39.5t5.5 -133.5t-62.5 -133.5t-99.5 -39.5zM261 677q-25 0 -47 -8t-40 -26.5t-32.5 -49t-24.5 -75.5t-8.5 -75.5t12 -49t29 -26.5t43.5 -8t47 8t40 26.5
t32.5 49t24.5 75.5q9 45 7.5 75t-12 49t-29 27t-42.5 8zM484 -10q-58 0 -82.5 39.5t-4.5 133.5q20 93 61 133t99 40q57 0 82.5 -39.5t6.5 -133.5q-20 -94 -62.5 -133.5t-99.5 -39.5zM554 322q-50 0 -87 -34.5t-56 -124.5q-10 -45 -8.5 -75.5t12 -49t29 -26.5t43.5 -8t47 8
t40 26.5t32.5 49t24.5 75.5q9 45 7.5 75t-12 49t-29.5 27t-43 8z" />
    <glyph glyph-name="period" unicode="." horiz-adv-x="157" 
d="M34 1q-1 -1 -4 -2q-6 -2 -11 -2q-6 0 -10 2q-2 1 -3 2l4 20q1 1 4 2q6 2 11 2q6 0 10 -2q2 -1 3 -2z" />
    <glyph glyph-name="periodcentered" unicode="&#xb7;" horiz-adv-x="204" 
d="M109 274q-1 -1 -4 -2q-6 -2 -11 -2q-6 0 -10 2q-2 1 -3 2l4 20q1 1 4 2q6 2 11 2q6 0 10 -2q2 -1 3 -2z" />
    <glyph glyph-name="perthousand" unicode="&#x2030;" horiz-adv-x="1053" 
d="M120 -8q-9 -3 -17 0l540 708q8 3 17 0zM190 345q-58 0 -82.5 39.5t-4.5 133.5q20 93 61.5 133t99.5 40q57 0 82.5 -39.5t5.5 -133.5t-62.5 -133.5t-99.5 -39.5zM261 677q-25 0 -47 -8t-40 -26.5t-32.5 -49t-24.5 -75.5t-8.5 -75.5t12 -49t29 -26.5t43.5 -8t47 8t40 26.5
t32.5 49t24.5 75.5q9 45 7.5 75t-12 49t-29 27t-42.5 8zM484 -10q-58 0 -82.5 39.5t-4.5 133.5q20 93 61 133t99 40q57 0 82.5 -39.5t6.5 -133.5q-20 -94 -62.5 -133.5t-99.5 -39.5zM554 322q-50 0 -87 -34.5t-56 -124.5q-10 -45 -8.5 -75.5t12 -49t29 -26.5t43.5 -8t47 8
t40 26.5t32.5 49t24.5 75.5q9 45 7.5 75t-12 49t-29.5 27t-43 8zM806 -10q-58 0 -82.5 39.5t-4.5 133.5q20 93 61 133t99 40q57 0 82.5 -39.5t6.5 -133.5q-20 -94 -62.5 -133.5t-99.5 -39.5zM876 322q-50 0 -87 -34.5t-56 -124.5q-10 -45 -8.5 -75.5t12 -49t29 -26.5
t43.5 -8t47 8t40 26.5t32.5 49t24.5 75.5q9 45 7.5 75t-12 49t-29.5 27t-43 8z" />
    <glyph glyph-name="pi" unicode="&#x3c0;" horiz-adv-x="589" 
d="M590 526q0 -2 0.5 -4t-0.5 -4q0 -4 -3 -7l-75 1l-59 -276q-15 -69 -18.5 -113t-1.5 -70q2 -30 10 -46q-2 -7 -14 -7h-1q-6 19 -8 52q-2 28 1.5 72.5t17.5 111.5l59 276h-331l-109 -510q0 -1 -1 -1q-1 -1 -5 -1q-5 0 -6 1q-1 0 -1 1l109 511q-17 -1 -30 -2t-23 -3l-21 -4
q-4 7 3 14q9 2 26 4q14 2 36.5 3t56.5 1h388z" />
    <glyph glyph-name="plus" unicode="+" horiz-adv-x="461" 
d="M65 283q-1 0 -1 1q0 3 1 6q0 5 2 7l1 1h154l33 153l1 1q1 0 2.5 0.5t3.5 0.5t4 -0.5t3 -0.5l1 -1l-33 -153h153q1 0 1 -1v-7q-2 -5 -3 -6l-1 -1h-153l-33 -154q0 -1 -1 -1q-1 -1 -7 -1q-5 0 -6 1q-1 0 -1 1l33 154h-154z" />
    <glyph glyph-name="plusminus" unicode="&#xb1;" horiz-adv-x="512" 
d="M118 395q-1 0 -1 1t-0.5 2.5t0.5 3.5q2 6 3 7l1 1h148l26 123q1 0 2 1q1 0 2.5 0.5t4.5 0.5q2 0 3 -0.5t2 -0.5l1 -1l-26 -123h151q1 0 1 -1q0 -4 -1 -7l-2 -6l-1 -1h-151l-26 -124q-1 -1 -2 -1q-1 -1 -6 -1t-6 1q-1 0 -1 1l26 124h-148zM62 157v1q0 1 -0.5 2.5t0.5 3.5
q0 5 2 7q1 1 2 1h322v-1v-7l-2 -6q-1 -1 -2 -1h-322z" />
    <glyph glyph-name="product" unicode="&#x220f;" horiz-adv-x="709" 
d="M484 -205q-8 -3 -15 0l188 883h-447l-188 -883q-8 -3 -15 0l191 898h477z" />
    <glyph glyph-name="q" unicode="q" horiz-adv-x="554" 
d="M403 118q-38 -62 -94.5 -95t-113.5 -33q-95 0 -129 67.5t-5 205.5q29 140 93.5 206.5t163.5 66.5q63 0 100.5 -41t43.5 -102l27 131q1 0 2 1q1 0 2.5 0.5t3.5 0.5t3.5 -0.5t2.5 -0.5l1 -1l-164 -773q-1 -1 -2 -1q-1 -1 -6 -1q-4 0 -5 1q-1 0 -2 1zM76 263
q-28 -131 2 -194.5t118 -63.5q39 0 75 16t66 41.5t51 57.5t29 64l30 142q7 33 2.5 67.5t-20.5 63t-44.5 46.5t-68.5 18q-92 0 -152 -62t-88 -196z" />
    <glyph glyph-name="question" unicode="?" horiz-adv-x="421" 
d="M412 538q-11 -50 -32.5 -83t-48.5 -58.5t-56.5 -47t-57 -49t-50 -65t-34.5 -94.5q-1 -1 -2 -1q-1 -1 -6 -1q-4 0 -5 1q-1 0 -2 1q13 59 35.5 98.5t50 67.5t57.5 50t57 46.5t48.5 56t31.5 79.5q5 25 2.5 49.5t-16.5 43.5t-41.5 31t-72.5 12q-34 0 -61 -4.5t-47 -9.5
q-23 -6 -42 -13q-3 2 -3.5 7t1.5 7q19 8 44 14q21 5 49 9.5t62 4.5q49 0 79 -14t45 -35.5t18 -48.5t-3 -54zM110 1q-1 -1 -4 -2q-6 -2 -11 -2q-6 0 -10 2q-2 1 -3 2l4 20q1 1 4 2q6 2 11 2q6 0 10 -2q2 -1 3 -2z" />
    <glyph glyph-name="questiondown" unicode="&#xbf;" horiz-adv-x="411" 
d="M-16 -22q11 50 32.5 83.5t48.5 58.5t57 47t57.5 49.5t50 65.5t34.5 95q1 0 3 1q2 0 3 0.5t3 0.5t3 -0.5t2 -0.5l1 -1q-13 -59 -35.5 -98.5t-50 -67.5t-57.5 -50t-57 -46.5t-48.5 -56t-31.5 -79.5q-5 -25 -2.5 -49.5t16.5 -43.5t41.5 -31t72.5 -12q33 0 60.5 4t47.5 9
q23 6 42 14q3 -2 3.5 -7t-1.5 -7q-19 -8 -44 -14q-21 -5 -49.5 -9.5t-61.5 -4.5q-49 0 -79 13.5t-45.5 35t-18.5 48t3 53.5zM287 517q1 1 4 2q6 2 11 2t9 -2l4 -2l-4 -20q-2 -1 -5 -2q-6 -2 -10 -2q-6 0 -10 2q-2 1 -3 2z" />
    <glyph glyph-name="quotedbl" unicode="&#x22;" horiz-adv-x="277" 
d="M170 718l2 1q1 0 2.5 0.5t3.5 0.5t3.5 -0.5t2.5 -0.5q1 -1 2 -1l-42 -188q-2 0 -3.5 -0.5t-3.5 -0.5h-4q-1 0 -1 1zM262 718q1 0 2 1q1 0 2.5 0.5t3.5 0.5t3.5 -0.5t2.5 -0.5q1 -1 2 -1l-42 -188q-1 -1 -2 -1h-5h-4q-1 0 -1 1z" />
    <glyph glyph-name="quotedblbase" unicode="&#x201e;" horiz-adv-x="226" 
d="M50 -64q8 8 16 19q7 8 13 19.5t9 23.5q-5 0 -7 1q-2 0 -3 1l4 20q1 0 3 1q2 0 4 0.5t6 0.5q3 0 4.5 -0.5t3.5 -0.5q2 -1 3 -1l-3 -17q-4 -17 -11.5 -30t-15.5 -23q-9 -11 -19 -20zM-21 -64q8 8 16 19q7 8 13 19.5t9 23.5q-5 0 -7 1q-2 0 -3 1l4 20q1 0 3 1q2 0 4 0.5
t6 0.5q3 0 4.5 -0.5t3.5 -0.5q2 -1 3 -1l-3 -17q-4 -17 -11.5 -30t-15.5 -23q-9 -11 -19 -20z" />
    <glyph glyph-name="quotedblleft" unicode="&#x201c;" horiz-adv-x="258" 
d="M199 714q-9 -9 -16 -19q-7 -9 -13 -20t-8 -23q2 0 3 -0.5t3 -0.5q2 -1 3 -1l-4 -20q-1 -1 -3 -1q-2 -1 -10 -1q-7 0 -9 1q-2 0 -2 1l3 17q4 17 11.5 30t15.5 23q9 11 19 20zM270 714q-9 -9 -16 -19q-7 -9 -13 -20t-8 -23q2 0 3 -0.5t3 -0.5q2 -1 3 -1l-4 -20q-1 -1 -3 -1
q-2 -1 -10 -1q-7 0 -9 1q-2 0 -2 1l3 17q4 17 11.5 30t15.5 23q9 11 19 20z" />
    <glyph glyph-name="quotedblright" unicode="&#x201d;" horiz-adv-x="252" 
d="M210 633q9 8 16 19q6 8 12 19.5t9 23.5q-5 0 -7 1q-2 0 -3 1l4 20q1 0 3 1q2 0 4 0.5t6 0.5q3 0 4.5 -0.5t3.5 -0.5q2 -1 3 -1l-3 -17q-4 -17 -11.5 -30t-15.5 -23q-9 -11 -19 -20zM139 633q9 8 16 19q6 8 12 19.5t9 23.5q-5 0 -7 1q-2 0 -3 1l4 20q1 0 3 1q2 0 4 0.5
t6 0.5q3 0 4.5 -0.5t3.5 -0.5q2 -1 3 -1l-3 -17q-4 -17 -11.5 -30t-15.5 -23q-9 -11 -19 -20z" />
    <glyph glyph-name="quoteleft" unicode="&#x2018;" horiz-adv-x="186" 
d="M199 713q-8 -9 -16 -19q-7 -9 -13.5 -20t-8.5 -23q2 0 3 -0.5t3 -0.5q2 -1 4 -1l-4 -20q-1 -1 -3 -1q-2 -1 -10 -1q-7 0 -9 1q-2 0 -2 1l3 17q4 17 11.5 30t15.5 23q9 11 19 20z" />
    <glyph glyph-name="quoteright" unicode="&#x2019;" horiz-adv-x="182" 
d="M140 635q9 8 16 19q6 8 12 19.5t9 23.5q-4 0 -6 1q-2 0 -3 1l4 20q1 0 3 1q2 0 3.5 0.5t5.5 0.5q3 0 5 -0.5t4 -0.5q2 -1 3 -1l-4 -17q-4 -17 -11 -30t-15 -23q-9 -11 -19 -20z" />
    <glyph glyph-name="quotesinglbase" unicode="&#x201a;" horiz-adv-x="155" 
d="M-21 -64q8 8 16 19q7 8 13 19.5t9 23.5q-5 0 -7 1q-2 0 -3 1l4 20q1 0 3 1q2 0 4 0.5t6 0.5q3 0 4.5 -0.5t3.5 -0.5q2 -1 3 -1l-3 -17q-4 -17 -11.5 -30t-15.5 -23q-9 -11 -19 -20z" />
    <glyph glyph-name="quotesingle" unicode="'" horiz-adv-x="185" 
d="M170 718q1 0 2 1q1 0 2.5 0.5t3.5 0.5t3.5 -0.5t2.5 -0.5q1 -1 2 -1l-42 -188q-8 -3 -12 0z" />
    <glyph glyph-name="r" unicode="r" horiz-adv-x="385" 
d="M132 405q25 41 50 66.5t49 39.5t47 19t44 5q32 0 51 -8t26 -13q-3 -9 -11 -12q-14 9 -31 14t-43 5q-55 0 -101.5 -40t-88.5 -112l-78 -368q-7 -4 -14 0l112 524q7 3 14 0l-26 -120v0z" />
    <glyph glyph-name="racute" unicode="&#x155;" horiz-adv-x="384" 
d="M131 401q25 42 50.5 68t49.5 40.5t47 20t44 5.5q32 0 51 -8t26 -13q-3 -9 -12 -12q-14 9 -30.5 14t-42.5 5q-55 0 -101.5 -40t-88.5 -112l-78 -368q-7 -4 -14 0l112 524q7 3 14 0zM384 771q5 -1 6 -3.5t3 -6.5l-157 -150q-6 1 -8 8z" />
    <glyph glyph-name="radical" unicode="&#x221a;" horiz-adv-x="612" 
d="M174 387l-125 -49q-4 2 -5 4.5t1 8.5l142 55l73 -399l392 723q10 2 13 -4l-402 -741h-13z" />
    <glyph glyph-name="rcaron" unicode="&#x159;" horiz-adv-x="384" 
d="M131 401q25 42 50.5 68t49.5 40.5t47 20t44 5.5q32 0 51 -8t26 -13q-3 -9 -12 -12q-14 9 -30.5 14t-42.5 5q-55 0 -101.5 -40t-88.5 -112l-78 -368q-7 -4 -14 0l112 524q7 3 14 0zM185 695q2 3 3.5 5.5t6.5 4.5l95 -91l138 92q8 -2 6 -10l-138 -95h-13z" />
    <glyph glyph-name="rcommaaccent" unicode="&#x157;" horiz-adv-x="384" 
d="M-13 -132q9 8 16 19q6 8 12 19.5t9 23.5q-4 0 -6 1q-2 0 -3 1l4 20q1 0 3 1q2 0 3.5 0.5t5.5 0.5q3 0 5 -0.5t4 -0.5q2 -1 3 -1l-4 -17q-4 -17 -11 -30t-15 -23q-9 -11 -19 -20zM131 401q25 42 50.5 68t49.5 40.5t47 20t44 5.5q32 0 51 -8t26 -13q-3 -9 -12 -12
q-14 9 -30.5 14t-42.5 5q-55 0 -101.5 -40t-88.5 -112l-78 -368q-7 -4 -14 0l112 524q7 3 14 0z" />
    <glyph glyph-name="registered" unicode="&#xae;" horiz-adv-x="547" 
d="M106 471q10 45 32.5 82.5t54.5 64t72.5 41t85.5 14.5t79.5 -14.5t55.5 -41t27.5 -64t-3.5 -82.5t-32.5 -82.5t-54.5 -64t-72.5 -41t-85.5 -14.5t-79.5 14.5t-55.5 41t-27.5 64t3.5 82.5zM118 471q-9 -43 -2.5 -78t26 -60t51.5 -38.5t75 -13.5t81 13.5t68 38.5t51 60
t30 78t2.5 78t-26 60t-51.5 38.5t-75 13.5t-81 -13.5t-68 -38.5t-51 -60t-30 -78zM351 589q36 0 48.5 -16t6.5 -48q-11 -49 -57 -58l36 -104q0 -1 -1 -1q-1 -1 -5 -1h-5q-1 0 -2 1l-35 103h-85l-22 -103q0 -1 -1 -1h-6h-4q-1 0 -1 1l48 227h85zM329 476q30 0 45 13t20 36
q5 26 -4 39t-39 13h-75l-22 -101h75z" />
    <glyph glyph-name="ring" unicode="&#x2da;" horiz-adv-x="344" 
d="M129 515q-47 0 -70.5 29t-13.5 71q6 24 18 42t28.5 30.5t36 18.5t39.5 6q48 0 72 -28t15 -69q-11 -48 -46 -74t-79 -26zM239 615q8 35 -10.5 59t-62.5 24q-46 0 -72 -25.5t-34 -57.5q-9 -39 10.5 -62.5t58.5 -23.5q23 0 41.5 7.5t32.5 19.5t23 27.5t13 31.5z" />
    <glyph glyph-name="s" unicode="s" horiz-adv-x="443" 
d="M87 401q30 135 198 135q26 0 47 -3.5t37 -7.5q18 -4 33 -10q1 -3 -1.5 -7t-6.5 -6q-14 6 -32 10q-15 4 -35.5 7t-43.5 3q-75 0 -121.5 -28.5t-60.5 -94.5q-5 -23 -2 -41t16 -33t37 -27.5t62 -23.5q29 -9 56.5 -19t47 -26t28 -40.5t0.5 -61.5q-14 -65 -64 -101t-135 -36
q-35 0 -61 4.5t-44 10.5q-21 6 -36 15q0 2 3 6.5t6 6.5q14 -8 46.5 -18.5t86.5 -10.5q34 0 64.5 7t54.5 22t41 39t24 57q7 35 -1.5 57t-27 36t-44 22.5l-51.5 16.5q-79 23 -105.5 55.5t-15.5 84.5z" />
    <glyph glyph-name="sacute" unicode="&#x15b;" horiz-adv-x="443" 
d="M390 768q5 -1 6 -3.5t3 -6.5l-157 -150q-6 1 -8 8zM87 401q30 135 198 135q26 0 47 -3.5t37 -7.5q18 -4 33 -10q1 -3 -1.5 -7t-6.5 -6q-14 6 -32 10q-15 4 -35.5 7t-43.5 3q-75 0 -121.5 -28.5t-60.5 -94.5q-5 -23 -2 -41t16 -33t37 -27.5t62 -23.5q29 -9 56.5 -19
t47 -26t28 -40.5t0.5 -61.5q-14 -65 -64 -101t-135 -36q-35 0 -61 4.5t-44 10.5q-21 6 -36 15q0 2 3 6.5t6 6.5q14 -8 46.5 -18.5t86.5 -10.5q34 0 64.5 7t54.5 22t41 39t24 57q7 35 -1.5 57t-27 36t-44 22.5l-51.5 16.5q-79 23 -105.5 55.5t-15.5 84.5z" />
    <glyph glyph-name="scaron" unicode="&#x161;" horiz-adv-x="443" 
d="M193 701q4 7 10 10l95 -90l134 90q8 -2 6 -10l-135 -93h-13zM87 401q30 135 198 135q26 0 47 -3.5t37 -7.5q18 -4 33 -10q1 -3 -1.5 -7t-6.5 -6q-14 6 -32 10q-15 4 -35.5 7t-43.5 3q-75 0 -121.5 -28.5t-60.5 -94.5q-5 -23 -2 -41t16 -33t37 -27.5t62 -23.5
q29 -9 56.5 -19t47 -26t28 -40.5t0.5 -61.5q-14 -65 -64 -101t-135 -36q-35 0 -61 4.5t-44 10.5q-21 6 -36 15q0 2 3 6.5t6 6.5q14 -8 46.5 -18.5t86.5 -10.5q34 0 64.5 7t54.5 22t41 39t24 57q7 35 -1.5 57t-27 36t-44 22.5l-51.5 16.5q-79 23 -105.5 55.5t-15.5 84.5z" />
    <glyph glyph-name="scedilla" unicode="&#x15f;" horiz-adv-x="443" 
d="M285 536q26 0 47 -3.5t37 -7.5q18 -4 33 -10q1 -3 -1.5 -7t-6.5 -6q-14 6 -32 10q-15 4 -35.5 7t-43.5 3q-75 0 -121.5 -28.5t-60.5 -94.5q-5 -23 -2 -41t16 -33t37 -27.5t62 -23.5q29 -9 56.5 -19t47 -26t28 -40.5t0.5 -61.5q-13 -62 -59.5 -98t-125.5 -39l-25 -67
q56 2 85 -20t21 -59q-10 -45 -40.5 -69.5t-85.5 -24.5q-27 0 -46.5 7t-36.5 20q3 7 10 11q14 -12 32.5 -18t44.5 -6q41 0 70 19t38 63q6 29 -16.5 46.5t-67.5 17.5h-20l-4 6l27 74q-35 0 -61 4.5t-44 10.5q-21 6 -36 15q0 2 3 6.5t6 6.5q14 -8 46.5 -18.5t86.5 -10.5
q34 0 64.5 7t54.5 22t41 39t24 57q7 35 -1.5 57t-27 36t-44 22.5l-51.5 16.5q-79 23 -105.5 55.5t-15.5 84.5q30 135 198 135z" />
    <glyph glyph-name="scircumflex" unicode="&#x15d;" horiz-adv-x="443" 
d="M178 611q-6 2 -6 10l138 94h13l96 -94q-2 -8 -10 -10l-93 91zM87 401q30 135 198 135q26 0 47 -3.5t37 -7.5q18 -4 33 -10q1 -3 -1.5 -7t-6.5 -6q-14 6 -32 10q-15 4 -35.5 7t-43.5 3q-75 0 -121.5 -28.5t-60.5 -94.5q-5 -23 -2 -41t16 -33t37 -27.5t62 -23.5
q29 -9 56.5 -19t47 -26t28 -40.5t0.5 -61.5q-14 -65 -64 -101t-135 -36q-35 0 -61 4.5t-44 10.5q-21 6 -36 15q0 2 3 6.5t6 6.5q14 -8 46.5 -18.5t86.5 -10.5q34 0 64.5 7t54.5 22t41 39t24 57q7 35 -1.5 57t-27 36t-44 22.5l-51.5 16.5q-79 23 -105.5 55.5t-15.5 84.5z" />
    <glyph glyph-name="scommaaccent" unicode="&#x219;" horiz-adv-x="443" 
d="M89 -181q8 8 16 19q7 8 13 19.5t9 23.5q-5 0 -7 1q-2 0 -3 1l4 20q1 0 3 1q2 0 4 0.5t6 0.5q3 0 4.5 -0.5t3.5 -0.5q2 -1 3 -1l-3 -17q-4 -17 -11.5 -30t-15.5 -23q-9 -11 -19 -20zM87 401q30 135 198 135q26 0 47 -3.5t37 -7.5q18 -4 33 -10q1 -3 -1.5 -7t-6.5 -6
q-14 6 -32 10q-15 4 -35.5 7t-43.5 3q-75 0 -121.5 -28.5t-60.5 -94.5q-5 -23 -2 -41t16 -33t37 -27.5t62 -23.5q29 -9 56.5 -19t47 -26t28 -40.5t0.5 -61.5q-14 -65 -64 -101t-135 -36q-35 0 -61 4.5t-44 10.5q-21 6 -36 15q0 2 3 6.5t6 6.5q14 -8 46.5 -18.5t86.5 -10.5
q34 0 64.5 7t54.5 22t41 39t24 57q7 35 -1.5 57t-27 36t-44 22.5l-51.5 16.5q-79 23 -105.5 55.5t-15.5 84.5z" />
    <glyph glyph-name="section" unicode="&#xa7;" horiz-adv-x="483" 
d="M411 340q-6 -28 -20.5 -50t-32 -38.5t-35.5 -27t-30 -15.5q34 -17 58 -42.5t16 -61.5q-14 -63 -62.5 -89t-142.5 -26q-33 0 -59 3.5t-45 8.5q-22 5 -39 12q1 5 3.5 9t5.5 7q15 -7 49.5 -15.5t82.5 -8.5q88 0 134 22t57 77q4 21 -4.5 38t-26.5 31t-43.5 26t-54.5 21
q-25 8 -51 18t-46.5 25t-31 35.5t-4.5 50.5q6 26 20.5 46.5t33 35.5t37 25t31.5 16q-33 15 -52 40t-11 65q12 58 55.5 85t123.5 27q53 0 87 -10.5t41 -12.5q-1 -10 -9 -14q1 -1 -8.5 2.5t-26 7.5t-38 7.5t-43.5 3.5q-79 0 -117 -23t-49 -72q-8 -35 10 -56.5t48 -35.5t66 -25
t66 -26t47.5 -37t9.5 -59zM229 466q-17 -6 -36.5 -16.5t-37.5 -24.5t-32 -33t-18 -41q-6 -26 3 -43.5t27 -31t43 -23t52 -18.5l23 -8.5l25 -9.5q15 6 33.5 16t35.5 25t30.5 35t18.5 45q6 30 -7 49.5t-38 33t-57.5 23.5t-64.5 22z" />
    <glyph glyph-name="semicolon" unicode=";" horiz-adv-x="217" 
d="M146 398q-1 -1 -4 -2q-6 -2 -11 -2q-6 0 -10 2q-2 1 -3 2l4 20q1 1 4 2q6 2 11 2q6 0 10 -2q2 -1 3 -2zM7 -64q8 8 16 19q7 8 13 19.5t9 23.5q-5 0 -7 1q-2 0 -3 1l4 20q1 0 3 1q2 0 4 0.5t6 0.5q3 0 4.5 -0.5t3.5 -0.5q2 -1 3 -1l-3 -17q-4 -17 -11.5 -30t-15.5 -23
q-9 -11 -19 -20z" />
    <glyph glyph-name="seven" unicode="7" horiz-adv-x="488" 
d="M516 680q1 -5 0 -10q-13 -66 -43 -115.5t-68 -93.5t-81.5 -87.5t-83.5 -96t-74 -119t-53 -156.5q-5 -4 -11 -2q-3 1 -4 2q19 90 53 157.5t74 120.5t83.5 97t81.5 87.5t67.5 91t42.5 109.5h-388v2q0 1 -0.5 2t0.5 3q0 4 2 6q1 1 1 2h401z" />
    <glyph glyph-name="seven.denom" horiz-adv-x="269" 
d="M37 331q-2 6 3 12h199v-4q0 -2 -1 -4.5t-2 -7.5q-7 -35 -22 -59.5t-33.5 -45t-39.5 -40t-40.5 -44t-36 -57t-26.5 -79.5q-6 -3 -12 0q10 47 27 81t37.5 59.5t42.5 46.5t40.5 41.5t32.5 44.5t19 56h-188z" />
    <glyph glyph-name="seven.num" horiz-adv-x="270" 
d="M112 676q-3 6 2 12h199v-4q0 -2 -0.5 -4.5l-1.5 -7.5q-8 -35 -22.5 -59.5t-33.5 -45t-40 -40t-40 -44t-35.5 -57t-26.5 -79.5q-8 -3 -12 0q10 47 27 81t37.5 59.5t42 46.5t40.5 41.5t33 44.5t19 56h-188z" />
    <glyph glyph-name="seveneighths" unicode="&#x215e;" horiz-adv-x="642" 
d="M546 701q1 0 2 0.5t3 0.5t2.5 -0.5t1.5 -0.5l1 -1l-539 -709q0 -1 -1 -1h-5h-6q-1 0 -1 1l541 709zM335 689v-4q0 -2 -0.5 -4.5l-1.5 -7.5q-8 -37 -23 -63t-34 -47.5t-40 -40.5t-40 -43t-35.5 -55t-25.5 -76q-8 -5 -13 0q10 47 27 80.5t38 59t43 46t41 41t32.5 44.5
t18.5 57h-188q-2 2 -1 6.5t3 6.5h199zM365 271q7 34 36 55.5t81 21.5q48 0 70 -20.5t14 -60.5q-8 -36 -32 -59t-53 -37q14 -7 26 -14.5t20.5 -18t12 -24t-0.5 -31.5q-9 -41 -43.5 -64.5t-87.5 -23.5q-50 0 -77.5 22t-17.5 67q4 21 14.5 38t24 30t28.5 23t30 17
q-24 13 -38 31t-7 48zM553 267q7 33 -12.5 50.5t-62.5 17.5q-42 0 -68 -16.5t-32 -45.5q-5 -21 1.5 -36t20 -25.5t31.5 -18.5l37 -17q32 18 55 40t30 51zM526 81q5 23 -3 38.5t-24 27t-36.5 20.5l-41.5 19l-25.5 -14.5t-29 -21.5t-26 -29t-15.5 -37q-9 -41 14.5 -59
t71.5 -18q42 0 74.5 18t40.5 56z" />
    <glyph glyph-name="seveninferior" unicode="&#x2087;" horiz-adv-x="268" 
d="M16 235q-1 5 2 12h199v-4q0 -2 -0.5 -4.5l-1.5 -7.5q-7 -35 -22 -59.5t-33.5 -45t-39.5 -40t-40.5 -44t-36 -57t-26.5 -79.5q-6 -3 -12 0q10 47 27 81t37.5 59.5t42 46.5t40.5 41.5t33 44.5t19 56h-188z" />
    <glyph glyph-name="six" unicode="6" horiz-adv-x="550" 
d="M497 680q1 -7 -2 -14q-137 -13 -236.5 -90.5t-154.5 -230.5q54 37 103 54t104 17q98 0 138 -53.5t17 -159.5q-11 -51 -34.5 -90.5t-56.5 -67t-73.5 -41.5t-84.5 -14t-78.5 15.5t-55.5 48t-26.5 83t9.5 120.5q22 105 64.5 182t99 129t125 79.5t142.5 32.5zM451 203
q21 98 -14 148t-126 50q-57 0 -108 -18t-105 -56q-5 -17 -9 -36l-8 -38q-14 -64 -9.5 -110.5t23 -77t50 -45.5t72.5 -15t78.5 12.5t68.5 37.5t53.5 62t33.5 86z" />
    <glyph glyph-name="six.denom" horiz-adv-x="308" 
d="M15 149q7 35 24.5 68t45.5 60t66 45.5t87 23.5q2 -5 -2 -11q-85 -12 -136.5 -58t-72.5 -119q17 13 44.5 25t68.5 12q48 0 70.5 -25.5t12.5 -70.5q-11 -49 -44 -76.5t-84 -27.5q-56 0 -76.5 39.5t-3.5 114.5zM211 99q8 39 -11.5 61.5t-61.5 22.5q-24 0 -43 -4.5t-33.5 -11
t-23.5 -13t-13 -10.5q-27 -137 72 -137q45 0 74.5 23.5t39.5 68.5z" />
    <glyph glyph-name="six.num" horiz-adv-x="308" 
d="M89 497q7 35 24.5 68t45 60t65.5 45.5t87 23.5q4 -4 -1 -11q-85 -12 -136.5 -58t-72.5 -119q17 13 44.5 25t68.5 12q48 0 70.5 -25.5t12.5 -70.5q-11 -49 -44 -76.5t-84 -27.5q-56 0 -76.5 39.5t-3.5 114.5zM285 447q8 39 -11.5 61.5t-61.5 22.5q-24 0 -43 -4.5
t-33.5 -11t-23.5 -13t-13 -10.5q-27 -137 72 -137q45 0 74.5 23.5t39.5 68.5z" />
    <glyph glyph-name="sixinferior" unicode="&#x2086;" horiz-adv-x="309" 
d="M-6 53q7 35 24.5 68t45.5 60t66 45.5t87 23.5q4 -4 -1 -11q-85 -12 -136.5 -58t-73.5 -119q17 13 45 25t69 12q48 0 70 -25.5t13 -70.5q-11 -49 -44.5 -76.5t-84.5 -27.5q-56 0 -76 39.5t-4 114.5zM191 3q8 39 -12 61.5t-62 22.5q-24 0 -43 -4.5t-33 -11t-23.5 -13
t-13.5 -10.5q-26 -137 73 -137q45 0 74.5 23.5t39.5 68.5z" />
    <glyph glyph-name="slash" unicode="/" horiz-adv-x="411" 
d="M-29 -44q-10 -3 -16 0l505 791q8 3 16 0l-505 -791v0z" />
    <glyph glyph-name="space" unicode=" " horiz-adv-x="269" 
 />
    <glyph glyph-name="sterling" unicode="&#xa3;" horiz-adv-x="502" 
d="M378 15q1 -8 -3 -15h-361l3 16q56 40 86.5 80.5t44 80t13.5 78.5t-4 77h-82q-2 7 3 15h77q-8 49 -11.5 89t5.5 83q20 90 81.5 131t150.5 41q28 0 51.5 -3t41.5 -7t29 -8t14 -5q-1 -4 -3.5 -8t-6.5 -6q-4 2 -38 12t-94 10q-178 0 -211 -160q-9 -42 -5 -82.5t12 -86.5h210
q1 -8 -3 -15h-205q4 -37 3.5 -77t-14 -80.5t-43 -81t-82.5 -78.5h341z" />
    <glyph glyph-name="summation" unicode="&#x2211;" horiz-adv-x="554" 
d="M258 261l-119 425l1 8h447q1 -8 -3 -15h-426l117 -418l-321 -453h451q1 0 1 -1v-5q-1 -5 -3 -7q-1 -1 -1 -2h-470l3 13z" />
    <glyph glyph-name="t" unicode="t" horiz-adv-x="330" 
d="M245 10q2 -5 0 -12q-14 -4 -29.5 -6t-38.5 -2q-40 0 -63 12t-33 34.5t-9 55.5t10 75l74 345h-81q-1 1 -1 2t-0.5 2t0.5 3q1 4 3 6l1 1h81l22 105q5 6 15 6l-23 -111h170v-2v-5l-2 -5q-1 -1 -1 -2h-170l-74 -345q-8 -40 -9.5 -70.5t7.5 -51t29.5 -31t56.5 -10.5q29 0 47 3
q10 1 18 3z" />
    <glyph glyph-name="tbar" unicode="&#x167;" horiz-adv-x="332" 
d="M184 4q29 0 47 3q10 1 18 3q2 -5 0 -12q-14 -4 -29.5 -6t-38.5 -2q-40 0 -63 12t-33 34.5t-9 55.5t10 75l24 112h-67q0 6 3 14h67l47 219h-81q-1 1 -1 2t-0.5 2t0.5 3q1 4 3 6l1 1h81l22 105q5 6 15 6l-23 -111h170v-2v-5l-2 -5q-1 -1 -1 -2h-170l-47 -219h135
q0 -7 -3 -14h-135l-24 -112q-8 -40 -9.5 -70.5t7.5 -51t29.5 -31t56.5 -10.5z" />
    <glyph glyph-name="tcaron" unicode="&#x165;" horiz-adv-x="330" 
d="M417 729q-3 -17 -10 -36.5t-18.5 -38t-26 -34.5t-32.5 -27q-9 -2 -9 5q35 23 54 57t26 75q13 3 16 -1zM245 10q2 -5 0 -12q-14 -4 -29.5 -6t-38.5 -2q-40 0 -63 12t-33 34.5t-9 55.5t10 75l74 345h-81q-1 1 -1 2t-0.5 2t0.5 3q1 4 3 6l1 1h81l22 105q5 6 15 6l-23 -111
h170v-2v-5l-2 -5q-1 -1 -1 -2h-170l-74 -345q-8 -40 -9.5 -70.5t7.5 -51t29.5 -31t56.5 -10.5q29 0 47 3q10 1 18 3z" />
    <glyph glyph-name="thorn" unicode="&#xfe;" 
d="M226 -10q-57 0 -99 33t-55 95l-78 -367q-1 -1 -2 -1q-1 -1 -5 -1q-5 0 -6 1q-1 0 -2 1l212 995q1 0 2 1q1 0 2.5 0.5t3.5 0.5t3.5 -0.5t2.5 -0.5l1 -1l-73 -343q16 28 38 52.5t48 42.5t55.5 28t60.5 10q99 0 134.5 -66.5t6.5 -206.5q-29 -138 -92 -205.5t-158 -67.5z
M86 184q-6 -32 1 -64t25.5 -57.5t47.5 -41.5t68 -16q88 0 146.5 63.5t86.5 194.5q28 133 -5.5 195.5t-124.5 62.5q-41 0 -76.5 -18t-64 -46.5t-48 -63t-26.5 -67.5z" />
    <glyph glyph-name="three" unicode="3" horiz-adv-x="507" 
d="M402 170q-19 -88 -83 -134t-171 -46q-35 0 -63 4.5t-48 10.5q-23 7 -41 16q1 3 3 7t5 6q24 -11 58 -20t88 -9q202 0 237 163q12 58 -1 93.5t-39.5 55t-61.5 26.5t-68 7h-37q0 8 4 15h37q29 0 63 5t66 21.5t57.5 49t37.5 87.5q7 33 2.5 60t-21.5 46.5t-48 30t-76 10.5
q-32 0 -60 -4t-49 -9q-25 -6 -46 -13q-6 2 -4 12q22 8 48 14q23 5 52.5 10t63.5 5q49 0 82 -13t51 -35t23 -51.5t-2 -61.5t-20 -60t-34.5 -50.5t-53 -39t-75.5 -23.5q40 -6 67.5 -22.5t42.5 -41t18 -56t-4 -66.5z" />
    <glyph glyph-name="three.denom" horiz-adv-x="306" 
d="M212 89q-10 -45 -48 -69.5t-100 -24.5q-34 0 -57 5l-23 6q0 8 6 11q9 -3 21 -5q22 -5 55 -5q57 0 91.5 22t42.5 60q5 23 0.5 39t-15.5 26.5t-27.5 15t-36.5 4.5h-42q-2 6 2 12h42q41 0 67 20t34 55q8 37 -11.5 56t-64.5 19q-19 0 -34.5 -1.5t-26.5 -3.5q-13 -2 -24 -4
q-2 6 1 11l25 5q11 2 26.5 3.5t34.5 1.5q106 0 86 -87q-6 -29 -26 -51.5t-52 -29.5q29 -5 45.5 -27.5t8.5 -63.5z" />
    <glyph glyph-name="three.num" horiz-adv-x="305" 
d="M284 435q-9 -45 -47.5 -69.5t-100.5 -24.5q-34 0 -57 5q-12 3 -22 6q0 8 5 11q10 -3 22 -5q23 -5 55 -5q57 0 91 22t42 60q5 23 0.5 39t-15.5 26.5t-27.5 15t-36.5 4.5h-42q-2 7 3 12h42q41 0 67 20t34 55q15 75 -76 75q-19 0 -34.5 -1.5t-26.5 -3.5q-13 -2 -24 -4
q-2 5 0 11l25 5q11 2 26.5 3.5t34.5 1.5q105 0 87 -87q-6 -29 -26 -51.5t-52 -29.5q29 -5 45.5 -27.5t7.5 -63.5z" />
    <glyph glyph-name="threeeighths" unicode="&#x215c;" horiz-adv-x="735" 
d="M637 700q1 0 2 1q1 0 2.5 0.5t3.5 0.5t2.5 -0.5t1.5 -0.5l1 -1l-539 -709q0 -1 -1 -1h-5h-6q-1 0 -1 1zM659 267q-8 -35 -32 -58.5t-52 -37.5q28 -14 46 -34t11 -54q-9 -42 -43.5 -65t-87.5 -23q-54 0 -79 23.5t-16 65.5t38 67.5t59 39.5q-24 14 -37.5 32.5t-6.5 47.5
q8 36 38 56.5t78 20.5t70 -21.5t14 -59.5zM572 336q-42 0 -68.5 -17t-32.5 -48q-5 -21 2 -36t21 -25.5t32.5 -18l37.5 -15.5q35 18 55.5 40t27.5 51q7 32 -13 50.5t-62 18.5zM418 84q-8 -36 14.5 -56.5t71.5 -20.5q47 0 77 19.5t38 54.5q5 24 -2.5 39t-23.5 26.5t-37.5 20
t-43.5 19.5q-14 -7 -28.5 -16t-27.5 -21t-23.5 -28t-14.5 -37zM295 435q-9 -45 -47.5 -69.5t-100.5 -24.5q-34 0 -57 5q-12 3 -22 6q0 8 5 11q10 -3 22 -5q23 -5 55 -5q57 0 91 22t42 60q5 23 0.5 39t-15.5 26.5t-27.5 15t-36.5 4.5h-42q-2 7 3 12h42q41 0 67 20t34 55
q15 75 -76 75q-19 0 -34.5 -1.5t-26.5 -3.5q-13 -2 -24 -4q-2 5 0 11l25 5q11 2 26.5 3.5t34.5 1.5q105 0 87 -87q-6 -29 -26 -51.5t-52 -29.5q29 -5 45.5 -27.5t7.5 -63.5z" />
    <glyph glyph-name="threeinferior" unicode="&#x2083;" horiz-adv-x="306" 
d="M191 -8q-9 -45 -47.5 -69.5t-100.5 -24.5q-34 0 -57 5q-12 3 -22 6q-2 7 5 11q10 -3 22 -5q23 -5 55 -5q57 0 91 22t42 60q5 23 0.5 39t-15.5 26.5t-27.5 15t-36.5 4.5h-42q-2 7 3 12h42q41 0 67 20t34 55q15 75 -76 75q-19 0 -34.5 -1.5t-26.5 -3.5q-13 -2 -24 -4
q-2 4 0 11l25 5q11 2 26.5 3.5t34.5 1.5q105 0 87 -87q-6 -29 -26 -51.5t-52 -29.5q29 -5 45.5 -27.5t7.5 -63.5z" />
    <glyph glyph-name="threequarters" unicode="&#xbe;" horiz-adv-x="680" 
d="M655 700l-539 -709q0 -1 -1 -1h-5h-6q-1 0 -1 1l539 709l2 1q1 0 2.5 0.5t3.5 0.5t2.5 -0.5t1.5 -0.5zM295 435q9 41 -7.5 63.5t-45.5 27.5q32 7 52 29.5t26 51.5q18 87 -87 87q-19 0 -34.5 -1.5t-26.5 -3.5l-25 -5q-2 -6 0 -11q11 2 24 4q11 2 26.5 3.5t34.5 1.5
q91 0 76 -75q-8 -35 -34 -55t-67 -20h-42q-5 -5 -3 -12h42q20 0 36.5 -4.5t27.5 -15t15.5 -26.5t-0.5 -39q-8 -38 -42 -60t-91 -22q-32 0 -55 5q-12 2 -22 5q-5 -3 -5 -11q10 -3 22 -6q23 -5 57 -5q62 0 100.5 24.5t47.5 69.5zM547 116l48 226q-1 1 -3 1q-5 0 -8 -1
l-233 -231q0 -1 -1 -2q-3 -3 -1 -5h183l-22 -103q6 -3 12 0l22 103h37q4 7 3 12h-37zM578 321l-43 -205h-165z" />
    <glyph glyph-name="threesuperior" unicode="&#xb3;" horiz-adv-x="305" 
d="M284 435q-9 -45 -47.5 -69.5t-100.5 -24.5q-34 0 -57 5q-12 3 -22 6q0 8 5 11q10 -3 22 -5q23 -5 55 -5q57 0 91 22t42 60q5 23 0.5 39t-15.5 26.5t-27.5 15t-36.5 4.5h-42q-2 7 3 12h42q41 0 67 20t34 55q15 75 -76 75q-19 0 -34.5 -1.5t-26.5 -3.5q-13 -2 -24 -4
q-2 5 0 11l25 5q11 2 26.5 3.5t34.5 1.5q105 0 87 -87q-6 -29 -26 -51.5t-52 -29.5q29 -5 45.5 -27.5t7.5 -63.5z" />
    <glyph glyph-name="tilde" unicode="&#x2dc;" horiz-adv-x="327" 
d="M214 632q23 0 35.5 12.5t17.5 20.5q9 -2 12 -7q-7 -12 -17 -21q-8 -8 -21 -14t-31 -6q-17 0 -29 6t-23 13.5t-22.5 14t-25.5 6.5q-13 0 -22 -5.5t-15 -11.5q-7 -8 -13 -17q-9 2 -12 7q5 11 15 20q8 8 21 14.5t31 6.5q14 0 25 -6t22 -13.5t23 -13.5t29 -6z" />
    <glyph glyph-name="trademark" unicode="&#x2122;" horiz-adv-x="633" 
d="M333 720q2 -2 0 -8q0 -3 -3 -7h-93l-58 -270l-2 -2q-1 -1 -6 -1q-4 0 -5 1l-2 2l58 270h-95q-1 2 -1 4v3q1 2 1.5 4t2.5 4h203zM389 717q11 3 19 0l55 -195l143 195q11 4 18 0l-60 -282q-1 -1 -2 -1q-1 -1 -5 -1q-5 0 -6 1q-1 0 -2 1l29 136l27 124l-135 -183q0 -1 -2 -2
t-8 -1t-7 1t-1 2l-53 183l-26 -123l-30 -137q-1 -1 -2 -1q-1 -1 -5 -1t-5 1q-1 0 -2 1z" />
    <glyph glyph-name="two" unicode="2" horiz-adv-x="521" 
d="M166 641q-4 4 -2 13q22 10 51 18q25 7 59.5 12.5t76.5 5.5q38 0 70 -9.5t53.5 -30t29.5 -52.5t-1 -78q-9 -41 -27.5 -70.5t-48 -53.5t-70 -46.5l-92.5 -49.5q-32 -17 -68.5 -32.5t-69.5 -40t-59.5 -62t-39.5 -98.5q-5 -22 -6 -37.5t-1 -14.5h362q3 -8 -3 -15h-375
q0 9 1 20q1 9 2.5 21t4.5 26q13 60 38 98.5t58 64.5t71.5 44l77.5 38l80 41t68.5 44t52 55t30.5 73q4 22 4 48t-13.5 48.5t-44.5 38t-89 15.5q-60 0 -104 -10.5t-76 -23.5z" />
    <glyph glyph-name="two.denom" horiz-adv-x="301" 
d="M-14 41q7 34 26.5 55.5t45 36t54 25.5t53.5 23.5t43.5 30.5t24.5 47q3 13 2 27t-10 25t-26.5 18t-47.5 7q-30 -1 -50.5 -5t-28.5 -6q-2 6 1 12q-2 0 21.5 5.5t60.5 5.5q32 0 51.5 -7.5t29.5 -20t11.5 -29t-2.5 -33.5q-7 -31 -26 -50.5t-44.5 -33t-53.5 -24.5t-53.5 -24.5
t-44.5 -33.5t-25 -51q-2 -7 -3 -14t-1 -15h199q0 -1 0.5 -2.5t-0.5 -3.5q0 -3 -3 -6h-208v12q0 13 4 29z" />
    <glyph glyph-name="two.num" horiz-adv-x="301" 
d="M59 387q7 34 26.5 55.5t45 36t54 25.5t53.5 23.5t44 30.5t25 47q3 13 1.5 27t-10 25t-26 18t-47.5 7q-30 -1 -50.5 -5t-28.5 -6q-3 5 0 12q-2 0 21.5 5.5t60.5 5.5q32 0 51.5 -7.5t29.5 -20t11.5 -29t-2.5 -33.5q-7 -31 -25.5 -50.5t-44 -33t-53.5 -24.5t-53.5 -24.5
t-44.5 -33.5t-26 -51q-2 -7 -3 -14t-1 -15h199q1 -1 1 -6l-3 -6h-208v12q0 5 0.5 12.5t2.5 16.5z" />
    <glyph glyph-name="twoinferior" unicode="&#x2082;" horiz-adv-x="301" 
d="M-35 -55q7 34 26.5 55.5t45 36t54 25.5t53.5 23.5t44 30.5t25 47q3 13 1.5 27t-10 25t-26 18t-47.5 7q-30 -1 -50.5 -5t-28.5 -6q-3 5 0 12q-2 0 22 5.5t61 5.5q32 0 51.5 -7.5t29 -20t11 -29t-2.5 -33.5q-6 -31 -25 -50.5t-44.5 -33t-53.5 -24.5t-53.5 -24.5
t-44.5 -33.5t-26 -51q-2 -7 -3 -14t-1 -15h199q1 -1 1 -6l-3 -6h-208v12q0 5 0.5 12.5t2.5 16.5z" />
    <glyph glyph-name="twosuperior" unicode="&#xb2;" horiz-adv-x="301" 
d="M59 387q7 34 26.5 55.5t45 36t54 25.5t53.5 23.5t44 30.5t25 47q3 13 1.5 27t-10 25t-26 18t-47.5 7q-30 -1 -50.5 -5t-28.5 -6q-3 5 0 12q-2 0 21.5 5.5t60.5 5.5q32 0 51.5 -7.5t29.5 -20t11.5 -29t-2.5 -33.5q-7 -31 -25.5 -50.5t-44 -33t-53.5 -24.5t-53.5 -24.5
t-44.5 -33.5t-26 -51q-2 -7 -3 -14t-1 -15h199q1 -1 1 -6l-3 -6h-208v12q0 5 0.5 12.5t2.5 16.5z" />
    <glyph glyph-name="u" unicode="u" horiz-adv-x="551" 
d="M139 524q9 5 14 0l-80 -380q-14 -65 14 -102.5t93 -37.5q28 0 57.5 7.5t59 25t58 46.5t54.5 71l78 370q9 5 14 0l-111 -522q-7 -5 -14 0l26 121q-47 -68 -104 -100.5t-121 -32.5q-70 0 -101.5 42t-17.5 111z" />
    <glyph glyph-name="uacute" unicode="&#xfa;" horiz-adv-x="551" 
d="M435 769q5 -1 6 -3.5t3 -6.5l-148 -141q-6 2 -8 8zM139 524q9 5 14 0l-80 -380q-14 -65 15 -102.5t94 -37.5q28 0 57 7.5t58 25t57.5 46.5t54.5 71l78 370q9 5 14 0l-111 -522q-7 -5 -14 0l26 121q-47 -68 -104 -100.5t-121 -32.5q-70 0 -101.5 42t-17.5 111z" />
    <glyph glyph-name="ubreve" unicode="&#x16d;" horiz-adv-x="551" 
d="M139 524q9 5 14 0l-80 -380q-14 -65 15 -102.5t94 -37.5q28 0 57 7.5t58 25t57.5 46.5t54.5 71l78 370q9 5 14 0l-111 -522q-7 -5 -14 0l26 121q-47 -68 -104 -100.5t-121 -32.5q-70 0 -101.5 42t-17.5 111zM350 662q25 0 45.5 5.5t36.5 13.5t26.5 16t16.5 13q6 -4 7 -10
q-17 -15 -37 -26q-18 -10 -42.5 -18t-55.5 -8t-52 8t-35 18q-16 11 -26 26q2 4 4 6t7 3q3 -4 10.5 -11.5t20 -15.5t31 -14t43.5 -6z" />
    <glyph glyph-name="ucircumflex" unicode="&#xfb;" horiz-adv-x="551" 
d="M139 524q9 5 14 0l-80 -380q-14 -65 15 -102.5t94 -37.5q28 0 57 7.5t58 25t57.5 46.5t54.5 71l78 370q9 5 14 0l-111 -522q-7 -5 -14 0l26 121q-47 -68 -104 -100.5t-121 -32.5q-70 0 -101.5 42t-17.5 111zM225 610q-6 2 -6 10l134 92h13l98 -95q-2 -8 -10 -10l-96 92z
" />
    <glyph glyph-name="udieresis" unicode="&#xfc;" horiz-adv-x="551" 
d="M139 524q9 5 14 0l-80 -380q-14 -65 15 -102.5t94 -37.5q28 0 57 7.5t58 25t57.5 46.5t54.5 71l78 370q9 5 14 0l-111 -522q-7 -5 -14 0l26 121q-47 -68 -104 -100.5t-121 -32.5q-70 0 -101.5 42t-17.5 111zM295 681q-1 -1 -4 -2q-6 -2 -11 -2q-6 0 -10 2q-2 1 -3 2l4 20
q1 1 4 2q6 2 11 2q6 0 10 -2q2 -1 3 -2zM429 681q-1 -1 -4 -2q-6 -2 -11 -2q-6 0 -10 2q-2 1 -3 2l4 20q1 1 4 2q6 2 11 2q6 0 10 -2q2 -1 3 -2z" />
    <glyph glyph-name="ugrave" unicode="&#xf9;" horiz-adv-x="551" 
d="M139 524q9 5 14 0l-80 -380q-14 -65 15 -102.5t94 -37.5q28 0 57 7.5t58 25t57.5 46.5t54.5 71l78 370q9 5 14 0l-111 -522q-7 -5 -14 0l26 121q-47 -68 -104 -100.5t-121 -32.5q-70 0 -101.5 42t-17.5 111zM280 761q3 4 5.5 6t7.5 4l92 -152q-5 -7 -12 -8z" />
    <glyph glyph-name="uhungarumlaut" unicode="&#x171;" horiz-adv-x="551" 
d="M267 623q-8 1 -10 8l113 114q7 -1 9.5 -2.5t7.5 -5.5zM378 623q-10 2 -10 8l112 114q8 -1 11 -2.5t7 -5.5zM139 524q9 5 14 0l-80 -380q-14 -65 15 -102.5t94 -37.5q28 0 57 7.5t58 25t57.5 46.5t54.5 71l78 370q9 5 14 0l-111 -522q-7 -5 -14 0l26 121
q-47 -68 -104 -100.5t-121 -32.5q-70 0 -101.5 42t-17.5 111z" />
    <glyph glyph-name="umacron" unicode="&#x16b;" horiz-adv-x="551" 
d="M139 524q9 5 14 0l-80 -380q-14 -65 15 -102.5t94 -37.5q28 0 57 7.5t58 25t57.5 46.5t54.5 71l78 370q9 5 14 0l-111 -522q-7 -5 -14 0l26 121q-47 -68 -104 -100.5t-121 -32.5q-70 0 -101.5 42t-17.5 111zM246 669q-2 7 3 15h214q1 -6 -3 -15h-214z" />
    <glyph glyph-name="underscore" unicode="_" horiz-adv-x="491" 
d="M-17 -35q-2 7 3 15h392q1 -8 -3 -15h-392z" />
    <glyph glyph-name="uni00AD" unicode="&#xad;" horiz-adv-x="284" 
 />
    <glyph glyph-name="Tcommaaccent" unicode="&#x162;" horiz-adv-x="522" 
d="M574 720q1 0 1 -1v-6q-2 -5 -3 -6t-1 -2h-215l-150 -703q-1 -1 -2 -1q-1 -1 -6 -1q-4 0 -5 1q-1 0 -2 1l150 703h-221q-1 1 -1 2q0 3 1 6q0 4 2 6l1 1h451zM137 -165q9 8 16 19q6 8 12 19.5t9 23.5q-5 0 -7 1q-2 0 -3 1l5 20q1 0 3 1q2 0 3.5 0.5t5.5 0.5q3 0 5 -0.5
t4 -0.5q2 -1 3 -1l-4 -17q-4 -17 -11 -30t-15 -23q-9 -11 -19 -20z" />
    <glyph glyph-name="Tcommaaccent" unicode="&#x21a;" horiz-adv-x="522" 
d="M574 720q1 0 1 -1v-6q-2 -5 -3 -6t-1 -2h-215l-150 -703q-1 -1 -2 -1q-1 -1 -6 -1q-4 0 -5 1q-1 0 -2 1l150 703h-221q-1 1 -1 2q0 3 1 6q0 4 2 6l1 1h451zM137 -165q9 8 16 19q6 8 12 19.5t9 23.5q-5 0 -7 1q-2 0 -3 1l5 20q1 0 3 1q2 0 3.5 0.5t5.5 0.5q3 0 5 -0.5
t4 -0.5q2 -1 3 -1l-4 -17q-4 -17 -11 -30t-15 -23q-9 -11 -19 -20z" />
    <glyph glyph-name="tcommaaccent" unicode="&#x163;" horiz-adv-x="330" 
d="M245 10q2 -5 0 -12q-14 -4 -29.5 -6t-38.5 -2q-40 0 -63 12t-33 34.5t-9 55.5t10 75l74 345h-81q-1 1 -1 2t-0.5 2t0.5 3q1 4 3 6l1 1h81l22 105q5 6 15 6l-23 -111h170v-2v-5l-2 -5q-1 -1 -1 -2h-170l-74 -345q-8 -40 -9.5 -70.5t7.5 -51t29.5 -31t56.5 -10.5q29 0 47 3
q10 1 18 3zM85 -181q8 8 16 19q7 8 13 19.5t9 23.5q-5 0 -7 1q-2 0 -3 1l4 20q1 0 3 1q2 0 4 0.5t6 0.5q3 0 4.5 -0.5t3.5 -0.5q2 -1 3 -1l-3 -17q-4 -17 -11.5 -30t-15.5 -23q-9 -11 -19 -20z" />
    <glyph glyph-name="tcommaaccent" unicode="&#x21b;" horiz-adv-x="330" 
d="M245 10q2 -5 0 -12q-14 -4 -29.5 -6t-38.5 -2q-40 0 -63 12t-33 34.5t-9 55.5t10 75l74 345h-81q-1 1 -1 2t-0.5 2t0.5 3q1 4 3 6l1 1h81l22 105q5 6 15 6l-23 -111h170v-2v-5l-2 -5q-1 -1 -1 -2h-170l-74 -345q-8 -40 -9.5 -70.5t7.5 -51t29.5 -31t56.5 -10.5q29 0 47 3
q10 1 18 3zM85 -181q8 8 16 19q7 8 13 19.5t9 23.5q-5 0 -7 1q-2 0 -3 1l4 20q1 0 3 1q2 0 4 0.5t6 0.5q3 0 4.5 -0.5t3.5 -0.5q2 -1 3 -1l-3 -17q-4 -17 -11.5 -30t-15.5 -23q-9 -11 -19 -20z" />
    <glyph glyph-name="uni0401" unicode="&#x401;" 
d="M581 720q1 -8 -3 -15h-364l-71 -332h314q1 -8 -3 -15h-314l-73 -343h374q1 -8 -3 -15h-389l153 720h379zM362 821l-4 -2q-4 -2 -10 -2t-10 2q-3 1 -4 2l5 20q1 1 4 2q6 2 11 2q6 0 10 -2q2 -1 3 -2zM496 821l-4 -2q-4 -2 -10 -2t-10 2q-3 1 -4 2l5 20q1 1 4 2q6 2 11 2
q6 0 10 -2q2 -1 3 -2z" />
    <glyph glyph-name="uni0410" unicode="&#x410;" horiz-adv-x="631" 
d="M544 1q-1 -1 -2 -1q-1 -1 -6 -1q-4 0 -5 1q-1 0 -2 1l-44 227h-371l-139 -227q-4 -2 -9 -2t-9 2l445 722q2 2 4 0zM482 243l-84 446l-274 -446h358z" />
    <glyph glyph-name="uni0411" unicode="&#x411;" horiz-adv-x="607" 
d="M562 720v-2v-6l-2 -5q-1 -1 -1 -2h-345l-67 -314h224q91 0 132 -53.5t22 -142.5q-19 -90 -81.5 -142.5t-153.5 -52.5h-241l153 720h360zM67 15h226q42 0 78 13.5t64 37.5t47 57.5t28 73.5q17 81 -20 130t-122 49h-224z" />
    <glyph glyph-name="uni0412" unicode="&#x412;" horiz-adv-x="627" 
d="M579 535q-10 -48 -29.5 -79.5t-42.5 -50.5t-48.5 -28.5t-47.5 -13.5q19 -1 44 -9t45 -27.5t29.5 -53.5t-2.5 -88q-20 -96 -80.5 -140.5t-171.5 -44.5h-226l153 720h222q96 0 135 -47t20 -138zM350 370q178 0 214 167q17 83 -17.5 125.5t-129.5 42.5h-203l-71 -335h207z
M282 15q55 0 94.5 12t67 34t44 53.5t24.5 70.5q18 85 -19.5 128t-138.5 43h-214l-73 -341h215z" />
    <glyph glyph-name="uni0413" unicode="&#x413;" horiz-adv-x="494" 
d="M548 720v-2v-6l-2 -5q-1 -1 -1 -2h-331l-150 -703q-1 -1 -2 -1q-1 -1 -5 -1q-5 0 -6 1q-1 0 -2 1l153 718h346z" />
    <glyph glyph-name="uni0414" unicode="&#x414;" horiz-adv-x="665" 
d="M549 15l-32 -153q-9 -3 -15 0l29 138h-559l-29 -138q-9 -3 -15 0l32 153h65q31 35 53.5 73.5t40 82t32 92l30.5 104.5l102 353h338l-150 -705h78zM195 362l-32 -103.5t-34 -94t-39 -82t-48 -67.5h414l147 690h-309z" />
    <glyph glyph-name="uni0415" unicode="&#x415;" 
d="M581 720q1 -8 -3 -15h-364l-71 -332h314q1 -8 -3 -15h-314l-73 -343h374q1 -8 -3 -15h-389l153 720h379z" />
    <glyph glyph-name="uni0416" unicode="&#x416;" horiz-adv-x="935" 
d="M842 2q-1 0 -3 -1t-6 -1q-6 0 -7 1q-1 0 -2 1l-178 364h-156l-78 -364q-1 -1 -2 -1q-1 -1 -5 -1q-5 0 -6 1q-1 0 -2 1l78 364h-156l-332 -364q-6 -2 -11 -2q-4 0 -6 1t-3 1l341 374l-160 342l6 2q6 2 12 -2l156 -337h156l72 337q1 0 2 1q1 0 2.5 0.5t3.5 0.5t3 -0.5
t2 -0.5q1 -1 2 -1l-72 -337h154l301 337q7 4 14 2q3 -1 5 -2l-308 -346z" />
    <glyph glyph-name="uni0417" unicode="&#x417;" horiz-adv-x="538" 
d="M495 549q-11 -49 -32 -81.5t-47.5 -53t-56.5 -31.5t-57 -15q25 -4 53.5 -14t50.5 -32t32 -57t-1 -88q-8 -36 -26.5 -70t-51.5 -60t-82.5 -41.5t-119.5 -15.5q-39 0 -70 4.5t-54 9.5q-26 6 -47 14q1 9 9 15q23 -8 61.5 -18t103.5 -10t111.5 14.5t77.5 38.5t48.5 55.5
t24.5 64.5q13 61 -2.5 97t-46 55t-70 24.5t-75.5 5.5h-45q-1 8 4 15h45q32 0 70 6t73 24.5t63.5 53t40.5 91.5q7 34 2.5 64.5t-22.5 52.5t-52 35t-85 13q-35 0 -67 -5t-56 -11q-28 -7 -53 -15q-8 6 -3 15q24 8 53 15q25 6 57.5 11t70.5 5q53 0 89.5 -14t57.5 -38.5
t26.5 -57.5t-2.5 -71z" />
    <glyph glyph-name="uni0418" unicode="&#x418;" horiz-adv-x="686" 
d="M645 719q1 0 3 0.5t4 0.5t3.5 -0.5t2.5 -0.5q1 -1 2 -1l-153 -716q-1 -1 -2 -1q-1 -1 -6 -1q-4 0 -5 1q-1 0 -2 1l147 690l-574 -690q-1 -1 -2 -1q-1 -1 -6 -1t-6 1q-1 0 -2 1l153 716q1 0 2 1q1 0 2.5 0.5t3.5 0.5t3.5 -0.5t2.5 -0.5l1 -1l-145 -684l571 684z" />
    <glyph glyph-name="uni0419" unicode="&#x419;" horiz-adv-x="686" 
d="M465 832q24 0 47.5 6.5t41.5 14.5q21 9 40 21q9 -3 6 -11q-18 -13 -39 -23q-19 -8 -44 -15t-54 -7t-51 7t-38 15q-18 10 -32 23q4 6 12 9q12 -11 29 -20q14 -8 34.5 -14t47.5 -6zM645 719q1 0 3 0.5t4 0.5t3.5 -0.5t2.5 -0.5q1 -1 2 -1l-153 -716q-1 -1 -2 -1
q-1 -1 -6 -1q-4 0 -5 1q-1 0 -2 1l147 690l-574 -690q-1 -1 -2 -1q-1 -1 -6 -1t-6 1q-1 0 -2 1l153 716q1 0 2 1q1 0 2.5 0.5t3.5 0.5t3.5 -0.5t2.5 -0.5l1 -1l-145 -684l571 684z" />
    <glyph glyph-name="uni041A" unicode="&#x41a;" horiz-adv-x="604" 
d="M617 718q7 4 14 2q3 -1 5 -2l-316 -346l191 -370q-1 0 -3 -1t-6 -1q-6 0 -7 1q-1 0 -2 1l-186 364h-165l-78 -364q-1 -1 -2 -1q-1 -1 -5 -1q-5 0 -6 1q-1 0 -2 1l153 716q1 0 2 1q1 0 2 0.5t3 0.5t3.5 -0.5t2.5 -0.5q1 -1 2 -1l-72 -337h164z" />
    <glyph glyph-name="uni041B" unicode="&#x41b;" horiz-adv-x="647" 
d="M-12 -4q-4 0 -14.5 1t-15.5 3q-1 7 3 14q5 -2 14 -3t16 0q14 1 26.5 4.5t26 15.5t28.5 36t33 66t39.5 105.5t47.5 154.5l95 327h334l-153 -718q-1 -1 -2 -1q-1 -1 -6 -1q-3 0 -5.5 1t-1.5 1l150 703h-305l-91 -314q-27 -93 -49 -158.5t-41 -109t-35 -68.5t-31.5 -38
t-30.5 -16.5t-32 -4.5z" />
    <glyph glyph-name="uni041C" unicode="&#x41c;" horiz-adv-x="864" 
d="M816 718q11 5 22 0l-153 -716q-1 -1 -2 -1q-1 -1 -6 -1t-6 1q-1 0 -1 1l139 647l13 56l-398 -488q-13 -5 -22 0l-188 488l-12 -56l-138 -647q0 -1 -1 -1q-1 -1 -6 -1t-6 1q-1 0 -2 1l153 716q11 5 22 0l190 -491z" />
    <glyph glyph-name="uni041D" unicode="&#x41d;" horiz-adv-x="676" 
d="M635 718q1 0 2 1q1 0 2 0.5t3 0.5t3.5 -0.5t2.5 -0.5q1 -1 2 -1l-153 -716q-1 -1 -2 -1q-1 -1 -6 -1t-6 1q-1 0 -1 1l77 360h-418l-77 -360q-1 -1 -2 -1q-1 -1 -5 -1q-6 0 -7 1q-1 0 -1 1l153 716q1 0 2 1q1 0 2.5 0.5t3.5 0.5t3 -0.5t2 -0.5q1 -1 2 -1l-73 -341h418z
" />
    <glyph glyph-name="uni041E" unicode="&#x41e;" horiz-adv-x="675" 
d="M89 360q21 97 53.5 167t75.5 115t96 66.5t114 21.5q126 0 173.5 -93.5t7.5 -276.5q-21 -97 -53.5 -167t-75.5 -115t-95.5 -66.5t-113.5 -21.5q-128 0 -174.5 93.5t-7.5 276.5zM594 360q39 183 -5 269t-164 86q-56 0 -105.5 -20t-91 -63t-73 -110.5t-51.5 -161.5
q-38 -183 6 -269t164 -86q56 0 105.5 20t90.5 63t72.5 110t51.5 162z" />
    <glyph glyph-name="uni041F" unicode="&#x41f;" horiz-adv-x="664" 
d="M485 2q-1 -1 -2 -1q-1 -1 -5 -1q-5 0 -6 1q-1 0 -2 1l150 703h-406l-150 -703q-1 -1 -2 -1q-1 -1 -5 -1q-5 0 -6 1q-2 0 -2 1l153 718h436z" />
    <glyph glyph-name="uni0420" unicode="&#x420;" horiz-adv-x="598" 
d="M64 2q-1 -1 -2 -1q-1 -1 -6 -1q-4 0 -5 1q-1 0 -2 1l153 718h241q88 0 124.5 -53t16.5 -149q-20 -95 -79.5 -148t-147.5 -53h-226zM362 332q79 0 133.5 48.5t73.5 136.5q19 89 -12.5 139t-114.5 50h-227l-80 -374h227z" />
    <glyph glyph-name="uni0421" unicode="&#x421;" horiz-adv-x="552" 
d="M90 359q41 193 121.5 282t211.5 89q41 0 70.5 -5t49.5 -11q23 -7 39 -16q-2 -8 -9 -12q-17 8 -39 14q-19 5 -47 10t-64 5q-125 0 -202 -86.5t-116 -269.5t-2 -268.5t162 -85.5q39 0 66.5 2.5t47.5 6.5t34.5 10t29.5 13q8 -3 6 -14l-29 -13t-34.5 -10.5t-49.5 -7t-72 -2.5
q-131 0 -173 89.5t-1 279.5z" />
    <glyph glyph-name="uni0422" unicode="&#x422;" horiz-adv-x="522" 
d="M574 720q1 0 1 -1v-6q-2 -5 -3 -6t-1 -2h-215l-150 -703q-1 -1 -2 -1q-1 -1 -6 -1q-4 0 -5 1q-1 0 -2 1l150 703h-221q-1 1 -1 2q0 3 1 6q0 4 2 6l1 1h451z" />
    <glyph glyph-name="uni0423" unicode="&#x423;" horiz-adv-x="602" 
d="M641 719q1 0 2.5 0.5t4.5 0.5t4.5 -0.5t2.5 -0.5q1 -1 2 -1l-320 -525q-39 -63 -67 -101.5t-52.5 -58.5t-48.5 -26.5t-55 -6.5q-11 0 -20 0.5t-15 1.5q-7 1 -13 3q0 7 5 13q7 -1 15 -2q7 -1 15 -1.5t16 -0.5q20 0 38 3t37 14.5t39.5 33t44.5 58.5h-2l-163 595l1 1
q1 0 2.5 0.5t4.5 0.5q2 0 3 -0.5t3 -0.5q2 -1 3 -1l147 -549l8 -33h2l24 37l331 545z" />
    <glyph glyph-name="uni0424" unicode="&#x424;" horiz-adv-x="786" 
d="M474 726q1 0 3 1q2 0 3 0.5t3 0.5t3 -0.5t2 -0.5l1 -1l-17 -83q66 0 122.5 -12t94.5 -42.5t53 -83t-2 -132.5t-54 -131.5t-88 -81t-112.5 -41t-127.5 -11.5l-23 -106q-1 -1 -2 -1q-1 -1 -5 -1q-5 0 -6 1q-1 0 -2 1l23 106q-66 0 -122 12t-93.5 42.5t-51.5 83t3 132.5
t53 131.5t86.5 81t111.5 41t127 11.5zM453 628q-68 0 -126.5 -11.5t-105 -40t-79.5 -77t-49 -123.5t-4 -124t46.5 -77.5t88.5 -40t122 -11.5zM361 123q67 0 126.5 11.5t107 40.5t81 77.5t49.5 123.5t3 123.5t-48.5 77t-90 40t-121.5 11.5z" />
    <glyph glyph-name="uni0425" unicode="&#x425;" horiz-adv-x="566" 
d="M303 361l158 -360q-1 -1 -2 -1h-7q-4 0 -5 1q-1 0 -2 1l-152 346l-297 -346q-2 -2 -5.5 -2h-6.5t-7 2l309 361l-156 355q1 0 2 1q1 0 2.5 0.5t4.5 0.5q1 0 2.5 -0.5t2.5 -0.5q1 -1 2 -1l151 -343l293 343q11 5 19 0z" />
    <glyph glyph-name="uni0426" unicode="&#x426;" horiz-adv-x="693" 
d="M202 718l2 1q1 0 2.5 0.5t3.5 0.5t3 -0.5t2 -0.5q1 -1 2 -1l-150 -703h418l150 703q1 0 2 1q1 0 2 0.5t3 0.5t3.5 -0.5t2.5 -0.5q1 -1 2 -1l-150 -703h77l-32 -153q-4 -2 -8 -2q-7 0 -7 2l29 138h-510z" />
    <glyph glyph-name="uni0427" unicode="&#x427;" horiz-adv-x="627" 
d="M586 718q1 0 2 1q1 0 2 0.5t3 0.5t3.5 -0.5t2.5 -0.5q1 -1 2 -1l-153 -716q-1 -1 -2 -1q-1 -1 -6 -1q-4 0 -5 1q-1 0 -2 1l76 356q-2 -1 -20 -7.5t-49 -14t-71.5 -13.5t-85.5 -6q-47 0 -84 10.5t-60 36t-29 69.5t8 111l37 174l2 1q1 0 2.5 0.5t3.5 0.5t3 -0.5t2 -0.5
q1 -1 2 -1l-37 -173q-13 -60 -9.5 -101t23 -66t55.5 -35.5t90 -10.5q48 0 89.5 7t71.5 15t46 15t14 6z" />
    <glyph glyph-name="uni0428" unicode="&#x428;" horiz-adv-x="961" 
d="M202 718q1 0 2 1q1 0 2.5 0.5t3.5 0.5t3.5 -0.5t2.5 -0.5l1 -1l-150 -703h344l150 703l1 1q1 0 2 0.5t4 0.5t4.5 -0.5t2.5 -0.5l1 -1l-150 -703h344l150 703q1 0 2 1q1 0 2 0.5t3 0.5t3.5 -0.5t2.5 -0.5q1 -1 2 -1l-153 -718h-733z" />
    <glyph glyph-name="uni0429" unicode="&#x429;" horiz-adv-x="978" 
d="M202 718q1 0 2 1q1 0 2.5 0.5t3.5 0.5t3 -0.5t2 -0.5q1 -1 2 -1l-150 -703h344l150 703q1 0 2 1q1 0 2 0.5t3 0.5t3.5 -0.5t2.5 -0.5q1 -1 2 -1l-150 -703h344l150 703q1 0 2 1q1 0 2 0.5t3 0.5t3.5 -0.5t2.5 -0.5q1 -1 2 -1l-150 -703h77l-32 -153q-3 -1 -4 -1.5
t-4 -0.5q-5 0 -7 2l29 138h-795z" />
    <glyph glyph-name="uni042A" unicode="&#x42a;" horiz-adv-x="671" 
d="M438 390q90 0 131 -53t22 -142q-9 -45 -30.5 -81t-52.5 -61.5t-69.5 -39t-83.5 -13.5h-240l150 705h-154q-1 1 -1 2t-0.5 2t0.5 3q2 6 3 7l1 1h169l-70 -330h225zM133 15h225q43 0 79 13t63.5 37t46.5 57.5t28 73.5q17 81 -18.5 130t-121.5 49h-225z" />
    <glyph glyph-name="uni042B" unicode="&#x42b;" horiz-adv-x="852" 
d="M202 718q1 0 2 1q1 0 2 0.5t3 0.5t3.5 -0.5t2.5 -0.5q1 -1 2 -1l-70 -328h225q90 0 131 -52t22 -141q-9 -45 -30.5 -81t-52.5 -62t-69.5 -40t-83.5 -14h-240zM811 718q1 0 2 1q1 0 2.5 0.5t3.5 0.5t3.5 -0.5t2.5 -0.5l1 -1l-153 -716q0 -1 -1 -1q-1 -1 -6 -1t-6 1
q-1 0 -2 1zM67 15h225q43 0 79 13t63.5 37t46.5 57.5t28 73.5q17 81 -18.5 130t-121.5 49h-225z" />
    <glyph glyph-name="uni042C" unicode="&#x42c;" horiz-adv-x="605" 
d="M372 390q90 0 131 -53t22 -142q-9 -45 -30.5 -81t-52.5 -61.5t-69.5 -39t-83.5 -13.5h-240l153 718q1 0 2 1q1 0 2 0.5t3 0.5t3.5 -0.5t2.5 -0.5q1 -1 2 -1l-70 -328h225zM292 15q43 0 79 13t63.5 37t46.5 57.5t28 73.5q17 81 -18.5 130t-121.5 49h-225l-77 -360h225z
" />
    <glyph glyph-name="uni042D" unicode="&#x42d;" horiz-adv-x="575" 
d="M142 699q21 8 48 15q23 6 57 11t76 5q134 0 179.5 -92t5.5 -278q-40 -190 -124.5 -280t-217.5 -90q-47 0 -80.5 5t-55.5 11q-26 7 -43 17q3 7 9 13q19 -9 45 -16q22 -6 53.5 -10.5t73.5 -4.5q57 0 106.5 17t90.5 57.5t73.5 108.5t53.5 170h-304v2q0 1 -0.5 2.5t0.5 3.5
q0 4 2 6q1 1 1 2h304q19 97 14.5 162.5t-28.5 105.5t-66 56.5t-97 16.5q-38 0 -69.5 -5t-54.5 -10q-26 -6 -48 -14q-5 4 -4 13z" />
    <glyph glyph-name="uni042E" unicode="&#x42e;" horiz-adv-x="944" 
d="M358 368q21 95 53 163.5t75 112.5t95.5 65t114.5 21t106 -21.5t67.5 -66.5t26 -115t-18.5 -167q-41 -194 -127.5 -282t-210.5 -88q-61 0 -105 21t-68 65t-27.5 113t16.5 164h-216l-75 -351q-1 -1 -2 -1q-1 -1 -6 -1q-4 0 -5 1q-1 0 -2 1l153 716q1 0 2 1q1 0 2.5 0.5
t3.5 0.5t3 -0.5t2 -0.5q1 -1 2 -1l-75 -350h216zM373 360q-20 -95 -17.5 -162t25 -110t63.5 -63t98 -20t106.5 20t90 63t71.5 110t51 162q20 94 18 161.5t-24.5 110.5t-63.5 63t-98 20t-106.5 -20t-90 -63t-72 -110.5t-51.5 -161.5z" />
    <glyph glyph-name="uni042F" unicode="&#x42f;" horiz-adv-x="620" 
d="M594 720l-153 -718q-1 -1 -2 -1q-1 -1 -5 -1q-5 0 -6 1q-1 0 -2 1l70 327h-237l-241 -327q-1 -1 -3 -1q-2 -1 -8 -1q-4 0 -5 1q-1 0 -2 1l242 329q-72 11 -102 62t-13 131q9 44 29.5 80.5t50.5 62t68.5 39.5t83.5 14h235zM576 705h-226q-78 0 -134 -48t-74 -133
q-17 -85 16.5 -132.5t109.5 -47.5h231z" />
    <glyph glyph-name="uni0430" unicode="&#x430;" 
d="M310 536q61 0 101.5 -32t51.5 -97l26 119q1 0 2 1q1 0 2 0.5t3 0.5t3.5 -0.5t2.5 -0.5q1 -1 2 -1l-112 -524q-1 -1 -2 -1q-1 -1 -6 -1t-6 1q-1 0 -1 1l26 121q-32 -57 -82.5 -95t-119.5 -38q-98 0 -134 69t-7 204t92 204t158 69zM449 341q6 32 1 64t-22.5 58t-47 42
t-71.5 16q-88 0 -147.5 -65t-86.5 -193t4.5 -193t123.5 -65q43 0 80 18t65 46.5t46 63t25 67.5z" />
    <glyph glyph-name="uni0431" unicode="&#x431;" horiz-adv-x="570" 
d="M102 377q21 101 51.5 160t75 92.5t105.5 49.5t145 31q58 11 73 47q11 2 14 -4q-6 -10 -12 -18.5t-15.5 -15.5t-24.5 -13t-37 -10q-75 -15 -131.5 -28.5t-98.5 -42.5t-72.5 -81t-52.5 -145l-14 -59q20 51 46 84.5t56.5 53.5t64.5 28t70 8q97 0 134 -66t10 -196
q-28 -130 -90 -196t-167 -66q-99 0 -140 65.5t-14 195.5q3 11 6 27l6 33.5l6 34.5t6 31zM342 499q-39 0 -76.5 -11.5t-70.5 -39.5t-59 -75.5t-41 -120.5q-26 -122 8.5 -184.5t129.5 -62.5q98 0 156.5 62.5t84.5 184.5t-6 184.5t-126 62.5z" />
    <glyph glyph-name="uni0432" unicode="&#x432;" horiz-adv-x="513" 
d="M444 391q-11 -51 -41 -81t-79 -41q55 -8 76 -45.5t10 -90.5q-15 -69 -61.5 -101t-120.5 -32h-196l112 526h184q67 0 98.5 -34t17.5 -101zM104 275h172q61 0 102 30.5t52 87.5q14 61 -14 90t-89 29h-172zM236 14q64 0 105 29.5t55 91.5q11 56 -14.5 91t-93.5 35h-187
l-52 -247h187z" />
    <glyph glyph-name="uni0433" unicode="&#x433;" horiz-adv-x="394" 
d="M408 526v-2q0 -1 -0.5 -2t-0.5 -3t-0.5 -3t-0.5 -2q-1 -1 -1 -2h-250l-109 -510q-6 -4 -10 -2q-3 1 -4 2l112 524h264z" />
    <glyph glyph-name="uni0434" unicode="&#x434;" horiz-adv-x="558" 
d="M19 14q13 17 25 37t25 51t28 75.5t34 110.5l70 238h292l-109 -512h63l-30 -140q-7 -3 -14 0l27 126h-451l-27 -126q-7 -3 -14 0l30 140h51zM144 284q-18 -60 -32.5 -104t-28 -75.5t-25 -53t-23.5 -37.5h335l106 498h-265z" />
    <glyph glyph-name="uni0435" unicode="&#x435;" horiz-adv-x="505" 
d="M75 259q-24 -132 5.5 -193t123.5 -61q32 0 59.5 7t47.5 15q23 10 42 22q9 -2 7 -11q-18 -13 -43 -24q-21 -9 -51 -16.5t-68 -7.5q-100 0 -133 69.5t-4 206.5q15 71 41 122t60 84t73.5 48.5t83.5 15.5q82 0 117.5 -47t18.5 -132q-5 -23 -10.5 -41t-10.5 -31
q-5 -15 -11 -26h-348zM440 360q17 76 -15.5 118.5t-107.5 42.5q-83 0 -146.5 -60.5t-92.5 -187.5h336q0 -2 9 21.5t17 65.5z" />
    <glyph glyph-name="uni0436" unicode="&#x436;" horiz-adv-x="753" 
d="M661 3l-2 -2q-1 -1 -7 -1t-7 1t-1 2l-131 265h-136l-57 -266q0 -1 -1 -1q-1 -1 -6 -1t-6 1q-1 0 -1 1l57 266h-136l-241 -265q0 -1 -2 -2t-10 -1q-5 0 -6 1t-1 2l251 275l-116 247q8 3 17 0l112 -243h135l51 242l1 1q1 0 2.5 0.5t4.5 0.5q2 0 3.5 -0.5t2.5 -0.5
q1 -1 0 -1l-51 -242h135l216 243q8 3 17 0l-222 -251z" />
    <glyph glyph-name="uni0437" unicode="&#x437;" horiz-adv-x="447" 
d="M384 394q-10 -47 -44.5 -82t-97.5 -45q63 -9 87 -45.5t14 -84.5q-6 -30 -20 -57t-40 -47.5t-66.5 -32t-100.5 -11.5q-35 0 -59.5 4t-41.5 9q-19 5 -32 13q3 8 8 12q15 -7 34 -12q17 -5 40.5 -8.5t53.5 -3.5q51 0 87.5 9.5t62 26.5t40 42t21.5 57q13 61 -28.5 92
t-121.5 31h-48v2q0 1 -0.5 2t0.5 3q0 3 2 5q1 1 1 2h48q33 0 64 5.5t55.5 19.5t42 37t25.5 58q6 27 3 50.5t-17 40.5t-41 26.5t-69 9.5q-29 0 -54 -3.5t-44 -7.5q-22 -4 -40 -10q-8 4 -1 13q17 6 39 11q19 4 44.5 7.5t57.5 3.5q45 0 74.5 -10.5t45 -29.5t19 -45t-2.5 -57z
" />
    <glyph glyph-name="uni0438" unicode="&#x438;" horiz-adv-x="580" 
d="M510 524l2 1q1 0 3 0.5t6 0.5q5 0 6.5 -0.5t2.5 -0.5q1 -1 0 -1l-111 -522q0 -1 -1 -1q-1 -1 -6 -1q-4 0 -5 1q-1 0 -2 1l108 506l-459 -506l-2 -2q-1 -1 -8 -1t-9 1t-2 2l111 522l1 1q1 0 3 0.5t5 0.5q2 0 3 -0.5t2 -0.5v-1l-108 -508z" />
    <glyph glyph-name="uni0439" unicode="&#x439;" horiz-adv-x="580" 
d="M496 688q-16 -14 -35 -25q-17 -10 -40.5 -17.5t-52.5 -7.5t-49.5 7.5t-33.5 17.5q-15 11 -25 25q3 8 11 9q2 -4 9 -11.5t19.5 -15t30.5 -13t41 -5.5q48 0 76 16t42 29q8 0 7 -9zM510 524l2 1q1 0 3 0.5t6 0.5q5 0 6.5 -0.5t2.5 -0.5q1 -1 0 -1l-111 -522q0 -1 -1 -1
q-1 -1 -6 -1q-4 0 -5 1q-1 0 -2 1l108 506l-459 -506l-2 -2q-1 -1 -8 -1t-9 1t-2 2l111 522l1 1q1 0 3 0.5t5 0.5q2 0 3 -0.5t2 -0.5v-1l-108 -508z" />
    <glyph glyph-name="uni043A" unicode="&#x43a;" horiz-adv-x="494" 
d="M471 525q9 3 18 0l-232 -251l145 -271l-2 -2q-1 -1 -7 -1t-7 1t-1 2l-141 265h-141l-57 -267q-7 -4 -14 0l112 525q7 3 14 0l-52 -244h140z" />
    <glyph glyph-name="uni043B" unicode="&#x43b;" horiz-adv-x="551" 
d="M159 290q-30 -104 -54.5 -163.5t-45.5 -89t-39.5 -36.5t-36.5 -7q-11 0 -15 1t-6 2q-1 2 0 4.5t2 4.5l2 4q10 -3 20 -3q24 0 43.5 16t37.5 51t37 89t41 131l68 232h288l-112 -524q-5 -4 -10 -2q-3 1 -4 2l109 510h-261l-64 -222v0z" />
    <glyph glyph-name="uni043C" unicode="&#x43c;" horiz-adv-x="677" 
d="M612 525q2 0 3.5 0.5t4.5 0.5q2 0 3.5 -0.5t2.5 -0.5l1 -1l-111 -522q0 -1 -1 -1q-1 -1 -7 -1q-4 0 -5 1q-1 0 -1 1l106 499l-305 -364q-1 -1 -2 -1h-5h-5q-1 0 -2 1l-136 362l-106 -497q0 -1 -1 -1q-1 -1 -5 -1q-6 0 -7 1q-1 0 -1 1l111 522l1 1q1 0 2.5 0.5t3.5 0.5
t3.5 -0.5t2.5 -0.5l1 -1l140 -374l312 374z" />
    <glyph glyph-name="uni043D" unicode="&#x43d;" horiz-adv-x="562" 
d="M47 2q0 -1 -1 -1q-1 -1 -6 -1t-6 1q-1 0 -1 1l111 522q1 0 2 1q1 0 2.5 0.5t3.5 0.5q3 0 4 -0.5t2 -0.5v-1l-52 -245h340l52 245l1 1q1 0 2.5 0.5t4.5 0.5t4 -0.5t2 -0.5v-1l-111 -522q0 -1 -1 -1q-1 -1 -5 -1q-6 0 -7 1q-1 0 -1 1l56 263h-340z" />
    <glyph glyph-name="uni043E" unicode="&#x43e;" horiz-adv-x="536" 
d="M61 263q16 74 40.5 126t56.5 84.5t72 47.5t87 15t80.5 -15t52 -47.5t21 -84.5t-13.5 -126t-40.5 -126t-56.5 -84.5t-72 -47.5t-87 -15t-80.5 15t-52 47.5t-21 84.5t13.5 126zM443 263q15 73 13.5 122.5t-18.5 80t-48 43.5t-74 13q-42 0 -79 -13t-68 -43.5t-55 -80
t-39 -122.5q-16 -73 -14 -122.5t19.5 -80t48.5 -43.5t73 -13t79 13t67.5 43.5t54.5 80t40 122.5z" />
    <glyph glyph-name="uni043F" unicode="&#x43f;" horiz-adv-x="551" 
d="M46 2q0 -1 -1 -1q-1 -1 -6 -1t-6 1q-1 0 -1 1l112 524h357l-112 -524v-1q-1 -1 -5 -1q-7 0 -8 1q-1 0 -1 1l109 510h-329z" />
    <glyph glyph-name="uni0440" unicode="&#x440;" 
d="M226 -10q-57 0 -99 33t-55 95l-78 -367q-1 -1 -2 -1q-1 -1 -5 -1q-5 0 -6 1q-1 0 -2 1l164 773l2 1q1 0 3 0.5t4 0.5t3 -0.5t2 -0.5l1 -1l-25 -121q16 28 38 52.5t48 42.5t55.5 28t60.5 10q99 0 134.5 -66.5t6.5 -206.5q-29 -138 -92 -205.5t-158 -67.5zM86 184
q-6 -32 1 -64t25 -57.5t46.5 -41.5t67.5 -16q88 0 147.5 63.5t87.5 194.5q28 133 -3.5 195.5t-124.5 62.5q-41 0 -77 -18t-65 -46.5t-48.5 -63t-26.5 -67.5z" />
    <glyph glyph-name="uni0441" unicode="&#x441;" horiz-adv-x="442" 
d="M323 521q-95 0 -157.5 -65t-89.5 -193t6 -193t131 -65q25 0 46.5 4t37.5 9q18 6 33 14q6 -3 6 -13q-16 -9 -35 -15q-17 -5 -40.5 -9.5t-51.5 -4.5q-102 0 -139.5 70t-8.5 205t95 203t166 68q26 0 46 -3.5t34 -7.5q16 -5 26 -11q-2 -10 -10 -13q-10 6 -24 10q-12 4 -30 7
t-41 3z" />
    <glyph glyph-name="uni0442" unicode="&#x442;" horiz-adv-x="412" 
d="M429 526l1 -1q0 -1 0.5 -2.5t-0.5 -3.5l-2 -6q-1 -1 -2 -1h-169l-109 -510q0 -1 -1 -1q-1 -1 -6 -1t-6 1q-1 0 -1 1l109 510h-169l-1 1q-2 2 -1 6t3 6q1 1 2 1h352z" />
    <glyph glyph-name="uni0443" unicode="&#x443;" horiz-adv-x="551" 
d="M487 524q9 5 14 0l-106 -498q-17 -80 -38 -133t-52 -85t-74 -45t-104 -13q-27 0 -51 3t-41 7q-20 4 -37 11q0 8 8 13q18 -6 38 -10q17 -4 39.5 -7t46.5 -3q58 0 98.5 12.5t69 42.5t48 80.5t35.5 126.5l21 97q-47 -68 -104 -100.5t-121 -32.5q-70 0 -101.5 42t-17.5 111
l81 381q9 5 14 0l-80 -380q-14 -65 14 -103t93 -38q28 0 57.5 7.5t59 25.5t58 47t54.5 71z" />
    <glyph glyph-name="uni0444" unicode="&#x444;" horiz-adv-x="774" 
d="M437 507q42 19 76.5 24t64.5 5q90 0 118 -67t-2 -208t-86 -206t-146 -65q-42 0 -74 8t-54 22l-57 -268q0 -1 -1 -1q-1 -1 -6 -1t-6 1q-1 0 -1 1l57 268q-28 -14 -62.5 -22t-76.5 -8q-90 0 -119 67t1 208t86 206t146 65q30 0 62 -5t66 -24l51 241q1 0 2 1q1 0 2.5 0.5
t3.5 0.5t3 -0.5t2 -0.5l1 -1zM77 263q-29 -134 -3.5 -196.5t108.5 -62.5q38 0 72 7t69 24l97 457q-27 17 -58.5 23.5t-69.5 6.5q-83 0 -134.5 -62.5t-80.5 -196.5zM337 35q28 -17 59 -24t69 -7q83 0 134.5 62.5t80.5 196.5t4 196.5t-108 62.5q-38 0 -73 -6.5t-69 -23.5z" />
    <glyph glyph-name="uni0445" unicode="&#x445;" horiz-adv-x="474" 
d="M237 263l134 -261q-2 -1 -5 -2q-6 -2 -12 2l-128 250l-232 -250q-8 -4 -15 -2q-4 1 -5 2l245 263l-132 259q8 3 12 2q3 -1 4 -2l127 -248l231 248q2 1 6 2q6 1 13 -2z" />
    <glyph glyph-name="uni0446" unicode="&#x446;" horiz-adv-x="569" 
d="M490 525q1 0 3 0.5t5 0.5q2 0 3 -0.5t2 -0.5v-1l-108 -510h63l-30 -140q-7 -3 -14 0l27 126h-409l111 524l1 1q1 0 2.5 0.5t4.5 0.5q2 0 3 -0.5t2 -0.5l1 -1l-108 -510h332l108 510z" />
    <glyph glyph-name="uni0447" unicode="&#x447;" horiz-adv-x="515" 
d="M354 2q0 -1 -1 -1q-1 -1 -5 -1q-6 0 -7 1q-1 0 -1 1l55 258q-13 -8 -31 -17t-41.5 -17t-52 -13.5t-61.5 -5.5q-48 0 -77.5 12t-44.5 33.5t-17.5 51t4.5 63.5l33 157l1 1q1 0 2.5 0.5t4.5 0.5q2 0 3.5 -0.5t2.5 -0.5q1 -1 0 -1l-33 -158q-15 -69 12.5 -107t113.5 -38
q30 0 57.5 5.5t51.5 13.5t43 18l33 18l52 248l1 1q1 0 3 0.5t5 0.5q2 0 2.5 -0.5t1.5 -0.5l1 -1z" />
    <glyph glyph-name="uni0448" unicode="&#x448;" horiz-adv-x="815" 
d="M143 524q1 0 2 1q1 0 2.5 0.5t3.5 0.5t3.5 -0.5t2.5 -0.5q1 -1 0 -1l-108 -510h289l108 510q1 0 2 1q1 0 2.5 0.5t3.5 0.5t3 -0.5t2 -0.5v-1l-108 -510h292l108 510q1 0 2 1q1 0 2.5 0.5t4.5 0.5q2 0 3 -0.5t2 -0.5v-1l-111 -524h-622z" />
    <glyph glyph-name="uni0449" unicode="&#x449;" horiz-adv-x="831" 
d="M690 -126q-7 -3 -14 0l27 126h-671l111 524q1 0 2 1q1 0 2.5 0.5t3.5 0.5t3.5 -0.5t2.5 -0.5q1 -1 0 -1l-108 -510h289l108 510q1 0 2 1q1 0 2.5 0.5t3.5 0.5t3 -0.5t2 -0.5v-1l-108 -510h292l108 510q1 0 2 1q1 0 2.5 0.5t4.5 0.5q2 0 3 -0.5t2 -0.5v-1l-108 -510h63z
" />
    <glyph glyph-name="uni044A" unicode="&#x44a;" horiz-adv-x="550" 
d="M294 14q66 0 103.5 34.5t50.5 94.5t-10 95.5t-89 35.5h-195l-55 -260h195zM352 288q71 0 97.5 -40t12.5 -105t-57 -104t-114 -39h-209l109 512h-119q-2 3 0 10q1 3 3 4h123q5 0 8 -3q1 -1 1 -2l-50 -233h195z" />
    <glyph glyph-name="uni044B" unicode="&#x44b;" horiz-adv-x="703" 
d="M639 524q6 4 10 2l4 -2l-111 -522q-6 -4 -10 -2q-3 1 -4 2zM302 288q71 0 97.5 -40t12.5 -105t-57 -104t-114 -39h-209l111 524q6 3 10 2l4 -2l-50 -236h195zM244 14q66 0 103.5 34.5t50.5 94.5t-10 95.5t-89 35.5h-195l-55 -260h195z" />
    <glyph glyph-name="uni044C" unicode="&#x44c;" horiz-adv-x="500" 
d="M302 288q71 0 97.5 -40t12.5 -105t-57 -104t-114 -39h-209l111 524q6 3 10 2l4 -2l-50 -236h195zM244 14q66 0 103.5 34.5t50.5 94.5t-10 95.5t-89 35.5h-195l-55 -260h195z" />
    <glyph glyph-name="uni044D" unicode="&#x44d;" horiz-adv-x="446" 
d="M103 514q14 6 32 11q16 4 37.5 7.5t48.5 3.5q95 0 135.5 -67t11.5 -206q-30 -142 -99 -207.5t-164 -65.5q-29 0 -51 4.5t-37 9.5q-18 6 -31 15q3 8 11 12q11 -8 39 -17.5t70 -9.5q101 0 160.5 67t86.5 188h-232q-1 5 -1 7q0 1 1 2t1 2t2 3h232q24 118 -9 183.5t-130 65.5
q-38 0 -64.5 -6t-45.5 -14q-4 2 -4.5 4.5t0.5 7.5z" />
    <glyph glyph-name="uni044E" unicode="&#x44e;" horiz-adv-x="769" 
d="M286 266q16 73 40.5 124.5t57.5 84t73.5 47t88.5 14.5t82 -15t53 -47.5t22 -84.5t-13 -126t-40.5 -126t-57.5 -84.5t-73.5 -47.5t-88.5 -15q-47 0 -81.5 14t-53.5 45.5t-22.5 81.5t10.5 122h-182l-54 -251q-6 -3 -10 -2q-3 0 -4 2l111 522q7 3 10 2l4 -2l-55 -258h183z
M299 263q-16 -73 -13 -122.5t21 -79.5t50.5 -43t75.5 -13t80.5 13t68.5 43t54.5 79.5t39.5 122.5q15 73 12.5 122.5t-20.5 79.5t-50 43t-75 13t-81 -13t-69 -43t-55 -79.5t-39 -122.5z" />
    <glyph glyph-name="uni044F" unicode="&#x44f;" horiz-adv-x="519" 
d="M469 526l-112 -524q-6 -4 -10 -2q-3 1 -4 2l49 230h-174q-9 0 -17 0.5t-16 1.5l-176 -232q-6 -4 -12 -2q-3 1 -5 2l179 235q-49 10 -70.5 45t-8.5 95q32 149 189 149h188zM452 512h-174q-143 0 -172 -135q-14 -65 12.5 -98t97.5 -33h179z" />
    <glyph glyph-name="uni0451" unicode="&#x451;" horiz-adv-x="505" 
d="M290 671q-2 -1 -5 -2q-6 -2 -12 -2t-10 2l-4 2l4 22q2 1 5 2q6 2 11 2t11 -2l4 -2zM437 671q-1 -1 -4 -2q-6 -2 -12 -2q-5 0 -11 2q-3 1 -4 2l4 22q2 1 5 2q6 2 12 2q7 0 11 -2q2 -1 3 -2zM75 259q-24 -132 5.5 -193t123.5 -61q32 0 59.5 7t47.5 15q23 10 42 22
q9 -2 7 -11q-18 -13 -43 -24q-21 -9 -51 -16.5t-68 -7.5q-100 0 -133 69.5t-4 206.5q15 71 41 122t60 84t73.5 48.5t83.5 15.5q82 0 117.5 -47t18.5 -132q-5 -23 -10.5 -41t-10.5 -31q-5 -15 -11 -26h-348zM440 360q17 76 -15.5 118.5t-107.5 42.5q-83 0 -146.5 -60.5
t-92.5 -187.5h336q0 -2 9 21.5t17 65.5z" />
    <glyph glyph-name="uni2113" unicode="&#x2113;" horiz-adv-x="445" 
d="M182 5q27 0 54 9t49 20q26 12 48 29q3 2 6 -1.5t2 -6.5q-21 -19 -47 -33q-23 -12 -53 -22t-65 -10q-56 0 -78 36t-7 106l23 110q-9 -5 -22 -11l-26 -12l-24.5 -11l-18.5 -8q-4 5 -4 7.5t2 5.5l49 21.5t48 22.5l61 289q23 106 66.5 155t115.5 49q122 0 90 -149
q-11 -49 -38.5 -97t-69.5 -93t-96 -86t-116 -75l-25 -118q-28 -127 76 -127zM435 600q29 135 -75 135q-65 0 -105 -44.5t-60 -141.5l-60 -283q50 30 99.5 66.5t90.5 79.5t70 90t40 98z" />
    <glyph glyph-name="uni2117" unicode="&#x2117;" horiz-adv-x="809" 
d="M80 340q15 69 54 129t93.5 105t120.5 71t135 26t123.5 -26t89.5 -71t48.5 -105t-1.5 -129t-53.5 -129.5t-93 -105.5t-120 -71t-134.5 -26t-124 26t-90.5 71t-49 105.5t1.5 129.5zM728 340q14 66 1.5 123.5t-46.5 100t-86 67.5t-118 25t-129 -25t-115.5 -67.5t-89.5 -100
t-51 -123.5t-1 -123.5t47 -101t86.5 -68.5t118.5 -25t128.5 25t114.5 68.5t89 101t51 123.5zM482 523q60 0 86.5 -34t13.5 -94q-13 -61 -54 -95t-101 -34h-113l-26 -126q-10 -5 -15 0l81 383h128zM317 280h111q54 0 91 30.5t48 84.5t-12.5 84t-77.5 30h-111z" />
    <glyph glyph-name="uni2153" unicode="&#x2153;" horiz-adv-x="690" 
d="M592 700q1 0 2 1q1 0 2.5 0.5t3.5 0.5t2.5 -0.5t1.5 -0.5l1 -1l-539 -709q0 -1 -1 -1h-5h-6q-1 0 -1 1zM108 613q37 8 73.5 27.5t65.5 49.5q6 2 13 0l-73 -341q-3 -1 -6 -1t-6 1l69 324q-53 -51 -135 -71q-2 1 -2.5 5t1.5 6zM588 89q-10 -45 -48 -69.5t-100 -24.5
q-34 0 -57 5l-23 6q0 8 6 11q9 -3 21 -5q22 -5 55 -5q57 0 91.5 22t42.5 60q5 23 0.5 39t-15.5 26.5t-27.5 15t-36.5 4.5h-42q-2 6 2 12h42q41 0 67 20t34 55q8 37 -11.5 56t-64.5 19q-19 0 -34.5 -1.5t-26.5 -3.5q-13 -2 -24 -4q-2 6 1 11l25 5q11 2 26.5 3.5t34.5 1.5
q106 0 86 -87q-6 -29 -26 -51.5t-52 -29.5q29 -5 45.5 -27.5t8.5 -63.5z" />
    <glyph glyph-name="uni2154" unicode="&#x2154;" horiz-adv-x="754" 
d="M73 387q7 34 26.5 55.5t45 36t54 25.5t53.5 23.5t44 30.5t25 47q3 13 1.5 27t-10 25t-26 18t-47.5 7q-30 -1 -50.5 -5t-28.5 -6q-3 5 0 12q-2 0 21.5 5.5t60.5 5.5q32 0 51.5 -7.5t29.5 -20t11.5 -29t-2.5 -33.5q-6 -31 -25 -50.5t-44.5 -33t-53.5 -24.5t-53.5 -24.5
t-44.5 -33.5t-26 -51q-2 -7 -3 -14t-1 -15h199q1 -1 1 -6l-3 -6h-208v12q0 5 0.5 12.5t2.5 16.5zM653 89q-10 -45 -48 -69.5t-100 -24.5q-34 0 -57 5l-23 6q0 8 6 11q9 -3 21 -5q22 -5 55 -5q57 0 91.5 22t42.5 60q5 23 0.5 39t-15.5 26.5t-27.5 15t-36.5 4.5h-42q-2 6 2 12
h42q41 0 67 20t34 55q8 37 -11.5 56t-64.5 19q-19 0 -34.5 -1.5t-26.5 -3.5q-13 -2 -24 -4q-2 6 1 11l25 5q11 2 26.5 3.5t34.5 1.5q106 0 86 -87q-6 -29 -26 -51.5t-52 -29.5q29 -5 45.5 -27.5t8.5 -63.5zM654 700l2 1q1 0 2.5 0.5t3.5 0.5t2.5 -0.5t1.5 -0.5l1 -1
l-539 -709q0 -1 -1 -1h-5h-6q-1 0 -1 1z" />
    <glyph glyph-name="uni2196" unicode="&#x2196;" horiz-adv-x="513" 
d="M410 525q3 -6 -3 -14h-253l271 -328l-2.5 -2.5l-3.5 -3.5q-4 -4 -7 -5.5t0 0.5l-270 328l-52 -251q-6 -3 -9 -3t-6 2l58 277h277v0z" />
    <glyph glyph-name="uni2197" unicode="&#x2197;" horiz-adv-x="515" 
d="M193 511q-3 8 3 14h277l-60 -277q-5 -2 -7.5 -2t-7.5 3l54 251l-408 -328q2 -2 -0.5 -0.5t-4.5 5.5q-3 3 -4 5t0 1l411 328h-253z" />
    <glyph glyph-name="uni2198" unicode="&#x2198;" horiz-adv-x="505" 
d="M104 150q-3 6 3 14h253l-271 328l6 6q4 4 6.5 5.5t0.5 -0.5l269 -328l53 251q5 3 8 3t7 -2l-58 -277h-277v0z" />
    <glyph glyph-name="uni2199" unicode="&#x2199;" horiz-adv-x="513" 
d="M338 164q3 -8 -3 -14h-277l60 277q4 2 7 2t8 -3l-55 -251l409 328q-2 2 0.5 0.5t4.5 -5.5q3 -5 3 -7l-410 -327h253zM496 492q0 -1 -1 -1z" />
    <glyph glyph-name="uni2215" unicode="&#x2215;" horiz-adv-x="458" 
d="M497 700l1 1q1 0 3 0.5t5 0.5q2 0 4 -0.5t3 -0.5l1 -1l-540 -707q-1 -1 -2 -1q-1 -1 -6 -1q-6 0 -7 1q-1 0 -1 1z" />
    <glyph glyph-name="uni2219" unicode="&#x2219;" horiz-adv-x="208" 
d="M106 321q-5 0 -9.5 3.5t-2.5 11.5t8 11.5t11 3.5t9 -3.5t2 -11.5t-7.5 -11.5t-10.5 -3.5z" />
    <glyph glyph-name="uogonek" unicode="&#x173;" horiz-adv-x="551" 
d="M139 524q9 5 14 0l-80 -380q-14 -65 14 -102.5t93 -37.5q28 0 57.5 7.5t59 25t58 46.5t54.5 71l78 370q9 5 14 0l-111 -522q-35 -19 -69 -43.5t-61 -50.5t-42.5 -52.5t-12.5 -50.5q5 -26 20 -34t40 -8q14 0 34.5 3.5t40.5 14.5q6 -3 4 -10q-15 -9 -37 -15t-45 -6
q-31 0 -49.5 12t-22.5 40q-3 30 15.5 60.5t47.5 57.5t63 49.5t61 37.5l25 116q-47 -68 -104 -100.5t-121 -32.5q-70 0 -101.5 42t-17.5 111z" />
    <glyph glyph-name="uring" unicode="&#x16f;" horiz-adv-x="551" 
d="M139 524q9 5 14 0l-80 -380q-14 -65 15 -102.5t94 -37.5q28 0 57 7.5t58 25t57.5 46.5t54.5 71l78 370q9 5 14 0l-111 -522q-7 -5 -14 0l26 121q-47 -68 -104 -100.5t-121 -32.5q-70 0 -101.5 42t-17.5 111zM336 604q-42 0 -65 24t-13 70q5 23 17 40t28.5 28.5t35.5 17.5
t38 6t35.5 -5.5t28.5 -17t16.5 -29t-0.5 -40.5q-10 -46 -44.5 -70t-76.5 -24zM443 698q7 31 -9.5 55t-60.5 24q-43 0 -68.5 -24.5t-32.5 -54.5q-3 -15 -1 -30t10 -26.5t22.5 -18.5t35.5 -7q22 0 39.5 7t31 19t22 26.5t11.5 29.5z" />
    <glyph glyph-name="utilde" unicode="&#x169;" horiz-adv-x="551" 
d="M139 524q9 5 14 0l-80 -380q-14 -65 15 -102.5t94 -37.5q28 0 57 7.5t58 25t57.5 46.5t54.5 71l78 370q9 5 14 0l-111 -522q-7 -5 -14 0l26 121q-47 -68 -104 -100.5t-121 -32.5q-70 0 -101.5 42t-17.5 111zM410 674q23 0 35.5 12.5t17.5 20.5q8 -2 11 -7q-7 -12 -17 -21
q-8 -8 -21 -14t-31 -6q-17 0 -28.5 6t-22 13.5t-21 14t-24.5 6.5t-24 -5.5t-17 -11.5q-8 -8 -13 -17q-8 2 -10 6q6 11 16 21q8 8 21 15t33 7q14 0 24.5 -6.5t20.5 -14t21.5 -13.5t28.5 -6z" />
    <glyph glyph-name="v" unicode="v" horiz-adv-x="490" 
d="M485 524q1 0 3 1q2 0 3.5 0.5t3.5 0.5t3 -0.5t2 -0.5l1 -1l-320 -528h-1l-99 528l2 1q1 0 3 0.5t4 0.5t2.5 -0.5t1.5 -0.5l1 -1l76 -404l16 -92l52 89l246 407v0z" />
    <glyph glyph-name="w" unicode="w" horiz-adv-x="782" 
d="M775 524q1 0 3 1q2 0 3 0.5t3 0.5t3.5 -0.5t2.5 -0.5l1 -1l-291 -527h-1l-69 493l-278 -493h-1l-67 527l2 1q1 0 3 0.5t4 0.5t2.5 -0.5t1.5 -0.5l1 -1l54 -421l6 -72l39 72l237 421h5l59 -421l8 -72l37 72l232 421v0z" />
    <glyph glyph-name="wacute" unicode="&#x1e83;" horiz-adv-x="782" 
d="M553 774q5 -1 6 -3.5t3 -6.5l-157 -150q-6 2 -8 8zM775 524q1 0 3 1q2 0 3 0.5t3 0.5t3.5 -0.5t2.5 -0.5l1 -1l-291 -527h-1l-69 493l-278 -493h-1l-67 527l2 1q1 0 3 0.5t4 0.5t2.5 -0.5t1.5 -0.5l1 -1l54 -421l6 -72l39 72l237 421h5l59 -421l8 -72l37 72z" />
    <glyph glyph-name="wcircumflex" unicode="&#x175;" horiz-adv-x="782" 
d="M328 602q-6 2 -6 10l149 101h13l103 -101q-2 -8 -9 -9l-101 98zM775 524q1 0 3 1q2 0 3 0.5t3 0.5t3.5 -0.5t2.5 -0.5l1 -1l-291 -527h-1l-69 493l-278 -493h-1l-67 527l2 1q1 0 3 0.5t4 0.5t2.5 -0.5t1.5 -0.5l1 -1l54 -421l6 -72l39 72l237 421h5l59 -421l8 -72l37 72z
" />
    <glyph glyph-name="wdieresis" unicode="&#x1e85;" horiz-adv-x="782" 
d="M415 674q-1 -1 -4 -2q-6 -2 -11 -2q-6 0 -10 2q-2 1 -3 2l4 20q1 1 4 2q6 2 11 2q6 0 10 -2q2 -1 3 -2zM549 674q-1 -1 -4 -2q-6 -2 -11 -2q-6 0 -10 2q-2 1 -3 2l4 20q1 1 4 2q6 2 11 2q6 0 10 -2q2 -1 3 -2zM775 524q1 0 3 1q2 0 3 0.5t3 0.5t3.5 -0.5t2.5 -0.5l1 -1
l-291 -527h-1l-69 493l-278 -493h-1l-67 527l2 1q1 0 3 0.5t4 0.5t2.5 -0.5t1.5 -0.5l1 -1l54 -421l6 -72l39 72l237 421h5l59 -421l8 -72l37 72z" />
    <glyph glyph-name="wgrave" unicode="&#x1e81;" horiz-adv-x="782" 
d="M384 764q6 8 13 10l92 -152q-5 -7 -12 -8zM775 524q1 0 3 1q2 0 3 0.5t3 0.5t3.5 -0.5t2.5 -0.5l1 -1l-291 -527h-1l-69 493l-278 -493h-1l-67 527l2 1q1 0 3 0.5t4 0.5t2.5 -0.5t1.5 -0.5l1 -1l54 -421l6 -72l39 72l237 421h5l59 -421l8 -72l37 72z" />
    <glyph glyph-name="x" unicode="x" horiz-adv-x="474" 
d="M237 263l134 -261q-2 -1 -5 -2q-6 -2 -12 2l-128 250l-232 -250q-8 -4 -15 -2q-4 1 -5 2l245 263l-132 259q8 3 12 2q3 -1 4 -2l127 -248l231 248q2 1 6 2q6 1 13 -2z" />
    <glyph glyph-name="y" unicode="y" horiz-adv-x="551" 
d="M487 524q9 5 14 0l-106 -498q-17 -80 -38 -133t-52 -85t-74 -45t-104 -13q-27 0 -51 3t-41 7q-20 4 -37 11q0 8 8 13q18 -6 38 -10q17 -4 39.5 -7t46.5 -3q58 0 98.5 12.5t69 42.5t48 80.5t35.5 126.5l21 97q-47 -68 -104 -100.5t-121 -32.5q-70 0 -101.5 42t-17.5 111
l81 381q9 5 14 0l-80 -380q-14 -65 14 -103t93 -38q28 0 57.5 7.5t59 25.5t58 47t54.5 71z" />
    <glyph glyph-name="yacute" unicode="&#xfd;" horiz-adv-x="551" 
d="M460 772q5 -1 6 -3.5t3 -6.5l-157 -150q-6 1 -8 8zM487 524q9 5 14 0l-106 -498q-17 -80 -38 -133t-52 -85t-74 -45t-104 -13q-27 0 -51 3t-41 7q-20 4 -37 11q0 8 8 13q18 -6 38 -10q17 -4 39.5 -7t46.5 -3q58 0 98.5 12.5t69 42.5t48 80.5t35.5 126.5l21 97
q-47 -68 -104 -100.5t-121 -32.5q-70 0 -101.5 42t-17.5 111l81 381q9 5 14 0l-80 -380q-14 -65 15 -102.5t94 -37.5q28 0 57 7.5t58 25t57.5 46.5t54.5 71z" />
    <glyph glyph-name="ycircumflex" unicode="&#x177;" horiz-adv-x="551" 
d="M214 602q-6 2 -6 10l149 101h13l103 -101q-2 -8 -10 -10l-102 98zM487 524q9 5 14 0l-106 -498q-17 -80 -38 -133t-52 -85t-74 -45t-104 -13q-27 0 -51 3t-41 7q-20 4 -37 11q0 8 8 13q18 -6 38 -10q17 -4 39.5 -7t46.5 -3q58 0 98.5 12.5t69 42.5t48 80.5t35.5 126.5
l21 97q-47 -68 -104 -100.5t-121 -32.5q-70 0 -101.5 42t-17.5 111l81 381q9 5 14 0l-80 -380q-14 -65 15 -102.5t94 -37.5q28 0 57 7.5t58 25t57.5 46.5t54.5 71z" />
    <glyph glyph-name="ydieresis" unicode="&#xff;" horiz-adv-x="551" 
d="M296 683q-1 -1 -4 -2q-6 -2 -11 -2q-6 0 -10 2q-2 1 -3 2l4 20q1 1 4 2q6 2 11 2q6 0 10 -2q2 -1 3 -2zM440 683q-1 -1 -4 -2q-6 -2 -11 -2q-6 0 -10 2q-2 1 -3 2l4 20q1 1 4 2q6 2 11 2q6 0 10 -2q2 -1 3 -2zM487 524q9 5 14 0l-106 -498q-17 -80 -38 -133t-52 -85
t-74 -45t-104 -13q-27 0 -51 3t-41 7q-20 4 -37 11q0 8 8 13q18 -6 38 -10q17 -4 39.5 -7t46.5 -3q58 0 98.5 12.5t69 42.5t48 80.5t35.5 126.5l21 97q-47 -68 -104 -100.5t-121 -32.5q-70 0 -101.5 42t-17.5 111l81 381q9 5 14 0l-80 -380q-14 -65 15 -102.5t94 -37.5
q28 0 57 7.5t58 25t57.5 46.5t54.5 71z" />
    <glyph glyph-name="yen" unicode="&#xa5;" horiz-adv-x="597" 
d="M288 269l-18 -87h177q2 -8 -4 -15h-177l-35 -165q-7 -3 -14 0l35 165h-175q0 8 4 15h175l18 87h-175q-2 7 3 15h175l-157 399h1q1 0 2 0.5t3 0.5q3 0 5 -0.5t3 -0.5q1 -1 2 -1l151 -385l331 385l1 1q1 0 2.5 0.5t3.5 0.5q3 0 4.5 -0.5t2.5 -0.5q1 -1 2 -1l-342 -398h176
q1 -8 -3 -15h-177z" />
    <glyph glyph-name="ygrave" unicode="&#x1ef3;" horiz-adv-x="551" 
d="M281 749q6 8 13 10l92 -152q-5 -7 -12 -8zM487 524q9 5 14 0l-106 -498q-17 -80 -38 -133t-52 -85t-74 -45t-104 -13q-27 0 -51 3t-41 7q-20 4 -37 11q0 8 8 13q18 -6 38 -10q17 -4 39.5 -7t46.5 -3q58 0 98.5 12.5t69 42.5t48 80.5t35.5 126.5l21 97
q-47 -68 -104 -100.5t-121 -32.5q-70 0 -101.5 42t-17.5 111l81 381q9 5 14 0l-80 -380q-14 -65 15 -102.5t94 -37.5q28 0 57 7.5t58 25t57.5 46.5t54.5 71z" />
    <glyph glyph-name="z" unicode="z" horiz-adv-x="437" 
d="M325 14q1 -7 -3 -14h-343q-2 7 3 15l427 497h-296q-1 7 3 14h313q1 -8 -3 -15l-427 -497h326z" />
    <glyph glyph-name="zacute" unicode="&#x17a;" horiz-adv-x="437" 
d="M325 14q1 -7 -3 -14h-343q-2 7 3 15l428 497h-297q-1 7 3 14h313q1 -8 -3 -15l-428 -497h327zM412 772q5 -1 6 -3.5t3 -6.5l-157 -150q-6 1 -8 8z" />
    <glyph glyph-name="zcaron" unicode="&#x17e;" horiz-adv-x="437" 
d="M325 14q1 -7 -3 -14h-343q-2 7 3 15l427 497h-296q-1 7 3 14h313q1 -8 -3 -15l-427 -497h326zM188 692q3 7 9 9l95 -88l131 88q9 -2 7 -10l-133 -91h-13z" />
    <glyph glyph-name="zdotaccent" unicode="&#x17c;" horiz-adv-x="437" 
d="M325 14q1 -7 -3 -14h-343q-2 7 3 15l428 497h-297q-1 7 3 14h313q1 -8 -3 -15l-428 -497h327zM320 674q-1 -1 -4 -2q-6 -2 -11 -2q-6 0 -10 2q-2 1 -3 2l4 20q1 1 4 2q6 2 11 2q6 0 10 -2q2 -1 3 -2z" />
    <glyph glyph-name="zero" unicode="0" horiz-adv-x="621" 
d="M243 -10q-56 0 -94.5 19.5t-59 62t-21.5 109t19 159.5q40 184 115.5 267t188.5 83q56 0 95.5 -19.5t60 -62t21.5 -109t-19 -159.5t-49 -159.5t-67.5 -109t-86 -62t-103.5 -19.5zM391 676q-111 0 -182 -82.5t-107 -253.5q-36 -170 -2.5 -252.5t144.5 -82.5q112 0 183 82.5
t107 252.5q36 171 2.5 253.5t-145.5 82.5z" />
    <glyph glyph-name="zero.denom" horiz-adv-x="346" 
d="M105 -5q-63 0 -83.5 43t-0.5 134q19 91 57.5 133.5t101.5 42.5t84 -42.5t2 -133.5q-20 -91 -59 -134t-102 -43zM177 336q-57 0 -92 -39.5t-52 -124.5q-18 -85 -0.5 -125t74.5 -40t93 40t54 125q17 85 -1.5 124.5t-75.5 39.5z" />
    <glyph glyph-name="zero.num" horiz-adv-x="345" 
d="M178 341q-63 0 -83.5 43t-0.5 134t58 133.5t101 42.5t84.5 -42.5t1.5 -133.5t-59 -134t-102 -43zM251 682q-57 0 -92 -39.5t-53 -124.5t0 -125t75 -40t92.5 40t53.5 125t-0.5 124.5t-75.5 39.5z" />
    <glyph glyph-name="zeroinferior" unicode="&#x2080;" horiz-adv-x="345" 
d="M84 -101q-63 0 -83.5 43t-0.5 134t58.5 133.5t101.5 42.5t84 -42.5t1 -133.5t-59 -134t-102 -43zM157 240q-57 0 -92 -39.5t-53 -124.5t0 -125t75 -40t92.5 40t53.5 125t-0.5 124.5t-75.5 39.5z" />
    <glyph glyph-name="Rouble" unicode="&#x20bd;" horiz-adv-x="595" 
d="M443 168q1 -1 1 -2v-6q-1 -2 -1 -3t-1 -2l-2 -2h-338l-32 -151q-1 -1 -2 -1q-1 -1 -6 -1q-4 0 -5 1q-1 0 -2 1l32 151h-87v2q0 1 -0.5 2t0.5 3q0 4 2 6q1 1 1 2h87l110 516h235q88 0 125.5 -48.5t17.5 -144.5q-20 -95 -79.5 -147.5t-147.5 -52.5h-220l-26 -123h338z
M356 306q80 0 134 48t73 136q19 89 -15.5 134t-114.5 45h-221l-77 -363h221z" />
    <glyph glyph-name="afii61352" unicode="&#x2116;" horiz-adv-x="1015" 
d="M705 463q-9 -43 -4 -72t20 -47t37 -25.5t47 -7.5t50.5 7.5t48 25.5t40 47t26.5 72t4 72.5t-20 47.5t-37.5 25.5t-47.5 7.5q-24 0 -49 -7.5t-47.5 -25.5t-40.5 -47.5t-27 -72.5zM691 463q16 81 65 124t115 43t97.5 -43t15.5 -124q-17 -83 -65.5 -124.5t-115.5 -41.5
q-65 0 -97 43t-15 123zM188 657l-23 -118l-114 -537q-2 -1 -3 -1q-2 -1 -5 -1q-4 0 -5 1q-1 0 -2 1l144 676q1 0 2 1q1 0 2.5 0.5t3.5 0.5t3 -0.5t2 -0.5q1 -1 2 -1l260 -577l33 -78l5 29q2 14 6 34l9 45l117 547q1 0 2 1q1 0 2.5 0.5t3.5 0.5t3 -0.5t2 -0.5q1 -1 2 -1
l-144 -676q-1 -1 -2 -1q-1 -1 -5 -1h-6q-1 0 -1 1zM911 170v-6q0 -3 -2 -5q-1 -1 -1 -2h-270q-1 1 -1 2v5q0 4 2 6l2 2h270v-2z" />
    </font>
</defs>
</svg>
