<?xml version="1.0" standalone="no"?>
<!DOCTYPE svg PUBLIC "-//W3C//DTD SVG 1.1//EN" "http://www.w3.org/Graphics/SVG/1.1/DTD/svg11.dtd" >
<svg>
<metadata>
Created by FontForge 20090622 at Fri Jan 29 10:58:31 2016
 By deploy user
Copyright (c) 2014 by Fontfabric LLC. All rights reserved.
</metadata>
<defs>
<font id="GloberxBoldItalic" horiz-adv-x="558" >
  <font-face 
    font-family="Glober xBold Italic"
    font-weight="800"
    font-style="italic"
    font-stretch="normal"
    units-per-em="1000"
    panose-1="0 0 0 0 0 0 0 0 0 0"
    ascent="750"
    descent="-250"
    x-height="530"
    cap-height="720"
    bbox="-245 -349 1113.45 1079.89"
    underline-thickness="50"
    underline-position="-50"
    unicode-range="U+0020-U+FB02"
  />
<missing-glyph horiz-adv-x="618" 
d="M-116 0l153 720h538l-153 -720h-538zM416 487q9 40 1 68t-27.5 45.5t-48.5 25t-63 7.5q-32 0 -57 -5t-43 -10q-21 -6 -37 -14q-14 -45 16 -72q11 5 24 9q11 4 27.5 7t36.5 3q16 0 30.5 -3t24 -10.5t13 -20.5t-0.5 -34q-6 -27 -18 -43t-27 -28.5t-32 -23.5t-33 -28
t-30 -43t-23 -67q5 -3 10 -5q10 -5 28 -5t30 5q6 2 10 5q6 28 20 46t32.5 31.5t39 25.5t39.5 29t34.5 41.5t23.5 63.5zM224 179q-6 1 -13 3q-6 2 -15.5 3t-21.5 1q-14 0 -23.5 -1t-15.5 -3l-12 -3l-20 -92q4 -2 11 -3q12 -3 38 -3q24 0 38 3q8 1 14 3z" />
    <glyph glyph-name="fi" unicode="fi" horiz-adv-x="600" 
d="M152 586q17 78 75.5 121t167.5 43q55 0 97.5 -6t72.5 -13q34 -8 61 -18q-8 -32 -25 -57.5t-38 -45.5q-22 6 -49 11q-23 4 -55.5 7.5t-70.5 3.5t-58 -12t-26 -40l-10 -50h221q19 0 32.5 -1t23.5 -3q11 -2 19 -4l-109 -514l-21 -4t-25 -3t-33 -1q-20 0 -34 1t-23 3
q-11 2 -18 4l86 408h-144l-86 -408l-21 -4t-25 -3t-33 -1q-20 0 -34 1t-23 3q-11 2 -18 4l86 408h-64q-1 7 0 16q1 8 2.5 18t4.5 24q2 13 5.5 23l6.5 18l6 15h64l12 56v0z" />
    <glyph glyph-name="fl" unicode="fl" horiz-adv-x="601" 
d="M152 586q17 78 75.5 121t167.5 43q47 0 90 -6t75 -13q38 -8 71 -18l-150 -705l-21 -4t-25 -3t-33 -1q-20 0 -34 1t-23 3q-11 2 -18 4l132 621l-33.5 2t-37.5 1q-38 0 -58 -12t-26 -40l-10 -50h73q0 -13 -1.5 -27.5t-5.5 -29.5q-3 -15 -7.5 -29.5t-10.5 -27.5h-73
l-86 -408l-21 -4t-25 -3t-33 -1q-20 0 -34 1t-23 3q-11 2 -18 4l86 408h-64q1 13 2.5 27.5t4.5 28.5l8 30.5t10 27.5h64l12 56v0z" />
    <glyph glyph-name=".notdef" horiz-adv-x="618" 
d="M-116 0l153 720h538l-153 -720h-538zM416 487q9 40 1 68t-27.5 45.5t-48.5 25t-63 7.5q-32 0 -57 -5t-43 -10q-21 -6 -37 -14q-14 -45 16 -72q11 5 24 9q11 4 27.5 7t36.5 3q16 0 30.5 -3t24 -10.5t13 -20.5t-0.5 -34q-6 -27 -18 -43t-27 -28.5t-32 -23.5t-33 -28
t-30 -43t-23 -67q5 -3 10 -5q10 -5 28 -5t30 5q6 2 10 5q6 28 20 46t32.5 31.5t39 25.5t39.5 29t34.5 41.5t23.5 63.5zM224 179q-6 1 -13 3q-6 2 -15.5 3t-21.5 1q-14 0 -23.5 -1t-15.5 -3l-12 -3l-20 -92q4 -2 11 -3q12 -3 38 -3q24 0 38 3q8 1 14 3z" />
    <glyph glyph-name="A" unicode="A" horiz-adv-x="672" 
d="M321 711q12 2 28 4q14 2 32.5 3.5t42.5 1.5q25 0 43 -1.5t31 -3.5q14 -2 25 -4l79 -702q-10 -3 -22 -5q-11 -2 -27 -3t-37 -1q-20 0 -33.5 1t-21.5 3q-10 2 -15 5l-16 146h-251l-78 -146q-11 -3 -24 -5q-11 -2 -27 -3t-34 -1t-31.5 1t-22.5 3q-11 2 -18 5zM390 570
q-5 -17 -13 -35l-16.5 -37.5t-22.5 -44.5l-97 -181h177l-20 181q-3 24 -4 45t-1 37q0 18 1 35h-4z" />
    <glyph glyph-name="AE" unicode="&#xc6;" horiz-adv-x="891" 
d="M930 720q5 -28 -3 -61.5t-23 -58.5h-247l-37 -176h197q4 -28 -3 -61.5t-23 -59.5h-197l-38 -182h257q4 -29 -3 -62.5t-23 -58.5h-400l34 159h-200l-120 -149q-16 -5 -40.5 -7.5t-47.5 -2.5t-45.5 2.5t-34.5 7.5l584 710h413zM446 279l46 217l-175 -217h129z" />
    <glyph glyph-name="AEacute" unicode="&#x1fc;" horiz-adv-x="891" 
d="M669 756q-25 5 -45 15.5t-30 28.5l122 148q19 2 38 -1.5t35.5 -10.5t29 -17.5t17.5 -22.5zM101 10q-15 -5 -39.5 -7.5t-47.5 -2.5t-45.5 2.5t-35.5 7.5l584 710h413q3 -27 -4 -61t-22 -59h-247l-37 -176h197q4 -29 -3 -62t-23 -59h-197l-38 -182h257q4 -29 -2.5 -61
t-23.5 -60h-400l34 159h-200zM318 279h129l46 217z" />
    <glyph glyph-name="Aacute" unicode="&#xc1;" horiz-adv-x="672" 
d="M494 941q19 2 38 -1t35.5 -10t29 -17.5t17.5 -23.5l-167 -139q-25 4 -45.5 14.5t-29.5 29.5zM322 711q12 2 28 4q14 2 32.5 3.5t41.5 1.5q25 0 44 -1.5t31 -3.5q14 -2 24 -4l79 -702q-10 -3 -22 -5q-11 -2 -27 -3t-37 -1q-20 0 -33 1t-21 3q-10 2 -16 5l-16 146h-251
l-78 -146q-11 -3 -24 -5q-11 -2 -26.5 -3t-33.5 -1t-32 1t-23 3q-11 2 -18 5zM391 570q-6 -17 -14 -35l-16.5 -37.5t-21.5 -44.5l-98 -181h177l-20 181q-2 24 -3 45t-1 37q0 18 1 35h-4z" />
    <glyph glyph-name="Abreve" unicode="&#x102;" horiz-adv-x="672" 
d="M444 879q26 0 46.5 4t35.5 9q18 5 31 13q21 -8 34.5 -26.5t17.5 -38.5q-19 -20 -45 -35q-23 -13 -56 -23.5t-78 -10.5t-77 10.5t-52 23.5q-24 15 -39 35q12 20 33 38.5t46 26.5q11 -8 26 -13q13 -5 32 -9t45 -4zM321 711q12 2 28 4q14 2 33 3.5t42 1.5q25 0 44 -1.5
t31 -3.5q14 -2 24 -4l79 -702q-10 -3 -22 -5q-11 -2 -27 -3t-37 -1q-20 0 -33 1t-21 3q-10 2 -16 5l-16 146h-251l-78 -146q-11 -3 -24 -5q-11 -2 -26.5 -3t-33.5 -1t-32 1t-23 3q-11 2 -18 5zM390 570q-5 -17 -13 -35l-16.5 -37.5t-21.5 -44.5l-98 -181h177l-20 181
q-3 24 -4 45t-1 37q0 18 1 35h-4z" />
    <glyph glyph-name="Acircumflex" unicode="&#xc2;" horiz-adv-x="673" 
d="M615 818q-17 -23 -37.5 -41t-45.5 -27l-92 67l-119 -66q-21 9 -35 26.5t-20 40.5l176 126h36zM322 711q12 2 28 4q14 2 32.5 3.5t42.5 1.5q25 0 43.5 -1.5t30.5 -3.5q14 -2 24 -4l80 -702q-9 -3 -22 -5q-11 -2 -27.5 -3t-36.5 -1t-33.5 1t-21.5 3q-10 2 -16 5l-16 146
h-251l-78 -146q-11 -3 -24 -5q-11 -2 -26.5 -3t-33.5 -1t-31.5 1t-22.5 3q-11 2 -19 5zM391 570q-5 -17 -13 -35l-16.5 -37.5t-22.5 -44.5l-98 -181h177l-20 181q-2 24 -3 45t-1 37q0 18 1 35h-4z" />
    <glyph glyph-name="Adieresis" unicode="&#xc4;" horiz-adv-x="672" 
d="M287 882q6 1 17 3q8 2 21 3t30 1q16 0 28 -1t20 -3q10 -2 16 -3l-24 -115q-7 -2 -18 -4q-18 -3 -50 -3t-48 3q-10 2 -16 4zM484 882q6 1 17 3q8 2 21 3t30 1q16 0 28 -1t20 -3q10 -2 16 -3l-24 -115q-7 -2 -18 -4q-18 -3 -50 -3q-34 0 -49 3q-10 2 -15 4zM321 711
q12 2 28 4q14 2 33 3.5t42 1.5q25 0 44 -1.5t31 -3.5q14 -2 24 -4l79 -702q-10 -3 -22 -5q-11 -2 -27 -3t-37 -1q-20 0 -33 1t-21 3q-10 2 -16 5l-16 146h-251l-78 -146q-11 -3 -24 -5q-11 -2 -26.5 -3t-33.5 -1t-32 1t-23 3q-11 2 -18 5zM390 570q-5 -17 -13 -35
l-16.5 -37.5t-21.5 -44.5l-98 -181h177l-20 181q-3 24 -4 45t-1 37q0 18 1 35h-4z" />
    <glyph glyph-name="Agrave" unicode="&#xc0;" horiz-adv-x="672" 
d="M521 793q-18 -19 -43 -29t-52 -15l-107 139q10 13 27 23.5t36.5 17.5t40 10t38.5 1zM321 711q12 2 28 4q14 2 33 3.5t42 1.5q25 0 44 -1.5t31 -3.5q14 -2 24 -4l79 -702q-10 -3 -22 -5q-11 -2 -27 -3t-37 -1q-20 0 -33 1t-21 3q-10 2 -16 5l-16 146h-251l-78 -146
q-11 -3 -24 -5q-11 -2 -26.5 -3t-33.5 -1t-32 1t-23 3q-11 2 -18 5zM390 570q-5 -17 -13 -35l-16.5 -37.5t-21.5 -44.5l-98 -181h177l-20 181q-3 24 -4 45t-1 37q0 18 1 35h-4z" />
    <glyph glyph-name="Amacron" unicode="&#x100;" horiz-adv-x="672" 
d="M604 867q1 -20 -5 -45t-14 -45h-312q-1 21 4.5 46t14.5 44h312zM322 711q12 2 28 4q14 2 32.5 3.5t41.5 1.5q25 0 44 -1.5t31 -3.5q14 -2 24 -4l79 -702q-10 -3 -22 -5q-11 -2 -27 -3t-37 -1q-20 0 -33 1t-21 3q-10 2 -16 5l-16 146h-251l-78 -146q-11 -3 -24 -5
q-11 -2 -26.5 -3t-33.5 -1t-32 1t-23 3q-11 2 -18 5zM391 570q-5 -17 -13 -35l-16.5 -37.5t-22.5 -44.5l-98 -181h177l-20 181q-2 24 -3 45t-1 37q0 18 1 35h-4z" />
    <glyph glyph-name="Aogonek" unicode="&#x104;" horiz-adv-x="672" 
d="M321 711q12 2 28 4q14 2 32.5 3.5t42.5 1.5q25 0 43 -1.5t31 -3.5q14 -2 25 -4l79 -702q-19 -12 -37.5 -30t-33.5 -37.5t-23.5 -38.5t-8.5 -31q2 -34 46 -14q5 -6 8.5 -16.5t5 -22.5t1 -24t-2.5 -20q-20 -12 -50 -18.5t-61 -6.5q-47 0 -66.5 22.5t-19.5 52.5
q0 46 33.5 90t91.5 86q-19 1 -30 5l-9 3l-16 146h-251l-78 -146q-11 -3 -24 -5q-11 -2 -27 -3t-34 -1t-31.5 1t-22.5 3q-11 2 -18 5zM390 570q-5 -17 -13 -35l-16.5 -37.5t-22.5 -44.5l-97 -181h177l-20 181q-3 24 -4 45t-1 37q0 18 1 35h-4z" />
    <glyph glyph-name="Aring" unicode="&#xc5;" horiz-adv-x="674" 
d="M604 9q-10 -3 -23 -5q-11 -2 -27 -3t-37 -1q-20 0 -33 1t-21 3q-10 2 -16 5l-16 146h-251l-78 -146q-11 -3 -24 -5q-11 -2 -26.5 -3t-33.5 -1t-32 1t-23 3q-11 2 -19 5l370 679q-32 33 -20 89q7 32 24 56t40 40.5t50.5 24.5t54.5 8t50.5 -8t40 -24t24 -40.5t0.5 -56.5
q-6 -28 -20.5 -50t-34.5 -37zM487 777q4 19 -5.5 34t-36.5 15q-26 0 -41.5 -15.5t-19.5 -33.5q-4 -19 5 -34t35 -15q27 0 43 15.5t20 33.5zM398 449q-3 24 -4 45t-1 37q0 18 1 35h-4q-5 -17 -13 -35l-16.5 -37.5t-22.5 -44.5l-96 -177h177z" />
    <glyph glyph-name="Aringacute" unicode="&#x1fa;" horiz-adv-x="675" 
d="M497 937q-24 3 -43.5 11t-29.5 22l108 109q18 2 36 -0.5t33.5 -8t27.5 -13.5t18 -17zM605 9q-10 -3 -23 -5q-11 -2 -27 -3t-37 -1q-20 0 -33 1t-21 3q-10 2 -16 5l-16 146h-251l-78 -146q-11 -3 -24 -5q-11 -2 -26.5 -3t-33.5 -1t-32 1t-24 3q-11 2 -19 5l370 677
q-32 33 -20 91q7 32 24 56t40 40.5t50.5 24.5t54.5 8q26 0 49.5 -8t40 -24t24 -40.5t0.5 -56.5q-12 -53 -53 -86zM486 777q4 19 -5.5 34t-35.5 15t-42 -15.5t-20 -33.5q-4 -19 5.5 -34t35.5 -15t42 15.5t20 33.5zM399 449q-3 24 -4 45.5t-1 37.5q0 18 1 34h-4
q-6 -17 -13 -35l-16 -37.5t-22 -44.5l-97 -177h177z" />
    <glyph glyph-name="Atilde" unicode="&#xc3;" horiz-adv-x="672" 
d="M269 808q3 7 11.5 19t22 24t32.5 21.5t43 10.5t41 -5t31.5 -13.5t28.5 -13.5t33 -5q11 1 20.5 5t16.5 9q8 5 14 12q19 -7 34 -21t20 -31q-4 -6 -13 -17t-22.5 -21.5t-32 -19t-42.5 -9.5q-25 -1 -42 4t-31 12t-27.5 12.5t-31.5 4.5q-13 -1 -23 -4.5t-17 -8.5
q-8 -5 -14 -13q-21 5 -35 17t-17 31zM321 711q12 2 28 4q14 2 32.5 3.5t42.5 1.5q25 0 43 -1.5t31 -3.5q14 -2 25 -4l79 -702q-10 -3 -22 -5q-11 -2 -27 -3t-37 -1q-20 0 -33.5 1t-21.5 3q-10 2 -15 5l-16 146h-252l-78 -146q-11 -3 -24 -5q-11 -2 -26.5 -3t-33.5 -1
t-31.5 1t-22.5 3q-11 2 -18 5zM390 570q-5 -17 -13 -35l-16.5 -37.5t-22.5 -44.5l-97 -181h177l-21 181q-2 24 -3 45t-1 37q0 18 1 35h-4z" />
    <glyph glyph-name="B" unicode="B" horiz-adv-x="632" 
d="M453 720q49 0 84 -15.5t56 -43.5t27 -67t-4 -86q-11 -51 -39.5 -84t-72.5 -56q42 -20 61 -65.5t6 -105.5q-21 -101 -91.5 -149t-175.5 -48h-298l153 720h294zM358 423q41 0 66.5 24.5t33.5 66.5q9 43 -5.5 67t-55.5 24h-103l-39 -182h103zM298 116q93 0 114 96
q11 51 -8 73.5t-66 22.5h-108l-40 -192h108z" />
    <glyph glyph-name="C" unicode="C" horiz-adv-x="566" 
d="M58 378q39 181 137.5 267.5t251.5 86.5q45 0 77.5 -6t54.5 -14q26 -9 43 -19q-5 -34 -24 -61.5t-45 -48.5q-15 6 -33 10q-15 4 -36 7t-44 3q-38 0 -71.5 -11.5t-61 -39t-49.5 -74.5t-37 -119t-13 -118.5t18 -73.5t44.5 -38t66.5 -11q26 0 49.5 3t41.5 8q21 4 40 11
q18 -20 24 -50.5t-1 -62.5q-23 -11 -54 -20q-26 -8 -63.5 -13.5t-85.5 -5.5q-77 0 -129.5 27t-81 77.5t-33.5 122.5t14 163z" />
    <glyph glyph-name="nonmarkingreturn" horiz-adv-x="322" 
 />
    <glyph glyph-name="Cacute" unicode="&#x106;" horiz-adv-x="566" 
d="M431 750q-25 5 -45.5 15.5t-30.5 28.5l122 148q19 2 38 -1.5t35.5 -10.5t29 -17.5t17.5 -22.5zM58 378q39 181 137.5 267.5t251.5 86.5q45 0 77.5 -6t54.5 -14q26 -9 43 -19q-5 -34 -24 -61.5t-45 -48.5q-15 6 -33 10q-15 4 -36 7t-44 3q-38 0 -71.5 -11.5t-61 -39
t-49.5 -74.5t-37 -119t-13 -118.5t18 -73.5t44.5 -38t66.5 -11q26 0 49.5 3t41.5 8q21 4 40 11q18 -20 24 -50.5t-1 -62.5q-23 -11 -54 -20q-26 -8 -63.5 -13.5t-85.5 -5.5q-77 0 -129.5 27t-81 77.5t-33.5 122.5t14 163z" />
    <glyph glyph-name="Ccaron" unicode="&#x10c;" horiz-adv-x="566" 
d="M293 882q16 23 37 41t46 27l93 -67l119 66q20 -9 34 -26.5t19 -40.5l-173 -122h-36zM58 378q39 181 137.5 267.5t251.5 86.5q45 0 77.5 -6t54.5 -14q26 -9 43 -19q-5 -34 -24 -61.5t-45 -48.5q-15 6 -33 10q-15 4 -36 7t-44 3q-38 0 -71.5 -11.5t-61 -39t-49.5 -74.5
t-37 -119t-13 -118.5t18 -73.5t44.5 -38t66.5 -11q26 0 49.5 3t41.5 8q21 4 40 11q18 -20 24 -50.5t-1 -62.5q-23 -11 -54 -20q-26 -8 -63.5 -13.5t-85.5 -5.5q-77 0 -129.5 27t-81 77.5t-33.5 122.5t14 163z" />
    <glyph glyph-name="Ccedilla" unicode="&#xc7;" horiz-adv-x="563" 
d="M487 90q3 -13 3.5 -24t-0.5 -19q-1 -10 -3 -18q-21 -10 -48 -18q-23 -7 -56.5 -12.5t-76.5 -7.5l-16 -39q58 0 75.5 -28t8.5 -71q-11 -52 -52 -77.5t-101 -25.5q-26 0 -45 3.5t-31 8.5q-15 5 -24 12q2 16 12.5 33t24.5 25q11 -5 28 -9t35 -4q23 -1 43 7t25 31
q3 16 -5 25.5t-31 9.5h-53l-11 16l36 87q-60 9 -100 40t-60.5 81t-22 117.5t15.5 148.5q39 181 135 264.5t249 83.5q45 0 78 -6t55 -13q26 -9 43 -19q-1 -7 -4 -17q-5 -17 -20 -43q-8 -14 -16 -23.5t-15 -15.5q-8 -7 -15 -11q-15 6 -33 10q-15 4 -35.5 7t-43.5 3
q-38 0 -71.5 -11t-61 -39t-49.5 -74.5t-37 -118.5t-13 -118.5t18 -73.5t44.5 -37.5t66.5 -10.5q26 0 49 3t41 8q21 4 40 11q5 -5 9 -12q4 -6 8 -15.5t7 -23.5z" />
    <glyph glyph-name="Ccircumflex" unicode="&#x108;" horiz-adv-x="566" 
d="M633 821q-17 -23 -38 -41t-45 -27l-92 67l-120 -66q-20 9 -34 26.5t-20 40.5l174 129h36zM58 378q39 181 137.5 267.5t251.5 86.5q45 0 77.5 -6t54.5 -14q26 -9 43 -19q-5 -34 -24 -61.5t-45 -48.5q-15 6 -33 10q-15 4 -36 7t-44 3q-38 0 -71.5 -11.5t-61 -39
t-49.5 -74.5t-37 -119t-13 -118.5t18 -73.5t44.5 -38t66.5 -11q26 0 49.5 3t41.5 8q21 4 40 11q18 -20 24 -50.5t-1 -62.5q-23 -11 -54 -20q-26 -8 -63.5 -13.5t-85.5 -5.5q-77 0 -129.5 27t-81 77.5t-33.5 122.5t14 163z" />
    <glyph glyph-name="Cdotaccent" unicode="&#x10a;" horiz-adv-x="566" 
d="M524 780q-8 -2 -19 -4q-18 -3 -53 -3q-36 0 -52 3q-10 2 -16 4l27 128l18 3q9 2 22.5 3t31.5 1q17 0 30 -1t21 -3q10 -2 17 -3zM58 378q39 181 137.5 267.5t251.5 86.5q45 0 77.5 -6t54.5 -14q26 -9 43 -19q-5 -34 -24 -61.5t-45 -48.5q-15 6 -33 10q-15 4 -36 7t-44 3
q-38 0 -71.5 -11.5t-61 -39t-49.5 -74.5t-37 -119t-13 -118.5t18 -73.5t44.5 -38t66.5 -11q26 0 49.5 3t41.5 8q21 4 40 11q18 -20 24 -50.5t-1 -62.5q-23 -11 -54 -20q-26 -8 -63.5 -13.5t-85.5 -5.5q-77 0 -129.5 27t-81 77.5t-33.5 122.5t14 163z" />
    <glyph glyph-name="D" unicode="D" horiz-adv-x="666" 
d="M406 720q147 0 207 -92t18 -286q-21 -97 -55 -162.5t-81 -105.5t-108 -57t-134 -17h-247l153 720h247zM274 125q34 0 63 9.5t53 35.5t44 72t35 118q16 73 15.5 119t-14 71.5t-38.5 35t-59 9.5h-81l-99 -470h81z" />
    <glyph glyph-name="Dcaron" unicode="&#x10e;" horiz-adv-x="666" 
d="M246 882q17 23 38 41t46 27l92 -67l120 66q20 -9 34 -26.5t19 -40.5l-183 -132h-37zM406 720q147 0 207 -92t18 -286q-21 -97 -55 -162.5t-81 -105.5t-108 -57t-134 -17h-247l153 720h247zM274 125q34 0 63 9.5t53 35.5t44 72t35 118q16 73 15.5 119t-14 71.5t-38.5 35
t-59 9.5h-81l-99 -470h81z" />
    <glyph glyph-name="Dcroat" unicode="&#x110;" horiz-adv-x="687" 
d="M427 720q147 0 207.5 -90.5t18.5 -284.5q-21 -97 -55 -163t-81.5 -106.5t-108.5 -58t-134 -17.5h-247l65 305h-74q-1 11 0.5 24.5t4.5 28t7.5 27.5t9.5 23h74l66 312h247zM273 408h109q1 -10 -0.5 -24t-4.5 -28t-7.5 -27.5t-9.5 -23.5h-109l-38 -180h82q34 0 63 9.5
t53 35.5t44 72t35 118q16 73 15.5 119t-14 71.5t-38.5 35t-59 9.5h-82z" />
    <glyph glyph-name="Delta" unicode="&#x2206;" horiz-adv-x="676" 
d="M353 712q34 8 76 8q41 0 75 -8l102 -633q-24 -48 -66 -79h-531q-36 32 -33 78zM380 524l-33.5 -66.5l-36.5 -68.5l-156 -268h284l-42 269q-5 30 -8 67t-4 67h-4z" />
    <glyph glyph-name="E" unicode="E" horiz-adv-x="559" 
d="M597 720q2 -11 1.5 -26t-3.5 -32q-4 -18 -10 -34.5t-14 -29.5h-278l-37 -174h228q1 -13 1.5 -27t-3.5 -32q-5 -19 -10.5 -33.5t-13.5 -28.5h-228l-38 -181h288q2 -12 1.5 -27.5t-4.5 -32.5t-9.5 -32.5t-13.5 -29.5h-448l153 720h438z" />
    <glyph glyph-name="Eacute" unicode="&#xc9;" 
d="M377 750q-25 5 -45.5 15.5t-30.5 28.5l122 148q19 2 38 -1.5t35.5 -10.5t29 -17.5t17.5 -22.5zM596 720q2 -11 1.5 -26t-3.5 -32q-4 -18 -10 -34.5t-14 -29.5h-278l-37 -174h228q2 -13 2 -27t-4 -32q-9 -37 -24 -62h-228l-38 -181h288q2 -12 1.5 -27.5t-4.5 -32.5
t-9.5 -32.5t-13.5 -29.5h-447l153 720h437z" />
    <glyph glyph-name="Ebreve" unicode="&#x114;" horiz-adv-x="559" 
d="M571 840q-21 -20 -49 -36q-24 -14 -59 -24.5t-80 -10.5t-75.5 10.5t-48.5 24.5q-22 16 -34 36q11 20 32.5 38.5t46.5 26.5q11 -8 26 -13q13 -5 32 -9t45 -4t46.5 4t35.5 9q18 5 31 13q21 -8 34.5 -26.5t16.5 -38.5zM597 720q2 -11 1.5 -26t-3.5 -32q-4 -18 -10 -34.5
t-14 -29.5h-278l-37 -174h228q1 -13 1.5 -27t-3.5 -32q-5 -19 -10.5 -33.5t-13.5 -28.5h-228l-38 -181h288q2 -12 1.5 -27.5t-4.5 -32.5t-9.5 -32.5t-13.5 -29.5h-448l153 720h438z" />
    <glyph glyph-name="Ecaron" unicode="&#x11a;" horiz-adv-x="559" 
d="M227 882q16 23 37 41t46 27l93 -67l119 66q20 -9 34 -26.5t19 -40.5l-183 -132h-36zM597 720q2 -11 1.5 -26t-3.5 -32q-4 -18 -10 -34.5t-14 -29.5h-278l-37 -174h228q1 -13 1.5 -27t-3.5 -32q-5 -19 -10.5 -33.5t-13.5 -28.5h-228l-38 -181h288q2 -12 1.5 -27.5
t-4.5 -32.5t-9.5 -32.5t-13.5 -29.5h-448l153 720h438z" />
    <glyph glyph-name="Ecircumflex" unicode="&#xca;" horiz-adv-x="559" 
d="M575 818q-17 -23 -38 -41t-45 -27l-92 67l-120 -66q-21 9 -34.5 26.5t-19.5 40.5l184 132h36zM597 720q2 -11 1.5 -26t-3.5 -32q-4 -18 -10 -34.5t-14 -29.5h-278l-37 -174h228q1 -13 1.5 -27t-3.5 -32q-5 -19 -10.5 -33.5t-13.5 -28.5h-228l-38 -181h288
q2 -12 1.5 -27.5t-4.5 -32.5t-9.5 -32.5t-13.5 -29.5h-448l153 720h438z" />
    <glyph glyph-name="Edieresis" unicode="&#xcb;" horiz-adv-x="559" 
d="M349 757q-7 -2 -18 -4q-18 -3 -50 -3q-34 0 -49 3q-10 2 -15 4l24 115q6 1 17 3q8 2 21 3t30 1q16 0 28 -1t20 -3q10 -2 16 -3zM545 757q-7 -2 -18 -4q-18 -3 -50 -3t-48 3q-10 2 -16 4l24 115q6 1 17 3q8 2 21 3t30 1q16 0 28 -1t20 -3q10 -2 16 -3zM597 720
q2 -11 1.5 -26t-3.5 -32q-4 -18 -10 -34.5t-14 -29.5h-278l-37 -174h228q1 -13 1.5 -27t-3.5 -32q-5 -19 -10.5 -33.5t-13.5 -28.5h-228l-38 -181h288q2 -12 1.5 -27.5t-4.5 -32.5t-9.5 -32.5t-13.5 -29.5h-448l153 720h438z" />
    <glyph glyph-name="Edotaccent" unicode="&#x116;" horiz-adv-x="559" 
d="M456 776q-8 -2 -19 -4q-18 -3 -53 -3t-51 3q-10 2 -16 4l27 128l18 3q9 2 22 3t31 1q17 0 30 -1t21 -3q10 -2 17 -3zM597 720q2 -11 1.5 -26t-3.5 -32q-4 -18 -10 -34.5t-14 -29.5h-278l-37 -174h228q1 -13 1.5 -27t-3.5 -32q-5 -19 -10.5 -33.5t-13.5 -28.5h-228
l-38 -181h288q2 -12 1.5 -27.5t-4.5 -32.5t-9.5 -32.5t-13.5 -29.5h-448l153 720h438z" />
    <glyph glyph-name="Egrave" unicode="&#xc8;" 
d="M267 888q10 13 27 23.5t36.5 17.5t40 10t38.5 1l60 -147q-18 -19 -43 -29t-52 -15zM596 720q2 -11 1.5 -26t-3.5 -32q-4 -18 -10 -34.5t-14 -29.5h-278l-37 -174h228q2 -13 2 -27t-4 -32q-9 -37 -24 -62h-228l-38 -181h288q2 -12 1.5 -27.5t-4.5 -32.5t-9.5 -32.5
t-13.5 -29.5h-447l153 720h437z" />
    <glyph glyph-name="Emacron" unicode="&#x112;" 
d="M228 771q-2 21 3.5 46t15.5 44h311q2 -20 -4 -45t-15 -45h-311zM597 720q2 -11 1.5 -26t-3.5 -32q-4 -18 -10 -34.5t-14 -29.5h-278l-37 -174h228q1 -13 1.5 -27t-3.5 -32q-5 -19 -10.5 -33.5t-13.5 -28.5h-228l-38 -181h288q2 -12 1.5 -27.5t-4.5 -32.5t-9.5 -32.5
t-13.5 -29.5h-448l153 720h438z" />
    <glyph glyph-name="Eng" unicode="&#x14a;" horiz-adv-x="706" 
d="M581 711q9 2 20 4q10 2 23.5 3.5t30.5 1.5t30 -1.5t21 -3.5q10 -2 16 -4l-159 -749q-18 -84 -61.5 -130.5t-120.5 -68.5q-23 16 -30 42t0 57q27 11 41.5 32.5t24.5 67.5l8 40q-14 1 -23.5 2.5t-16.5 2.5q-8 1 -13 2l-83 365q-8 32 -13.5 62.5t-10.5 53.5q-5 27 -9 52h-5
q-2 -25 -6 -55q-4 -26 -10 -60.5t-14 -75.5l-73 -342q-8 -3 -19 -5q-9 -2 -22.5 -3t-31.5 -1t-30.5 1t-20.5 3q-10 2 -16 5l149 702q10 2 26 4q13 2 32.5 3.5t45.5 1.5t44 -1.5t30 -3.5q14 -2 23 -4l83 -362q7 -32 12.5 -63.5t9.5 -57.5l8 -58h4q3 28 8 61l11 64.5t15 77.5
l72 338v0z" />
    <glyph glyph-name="Eogonek" unicode="&#x118;" 
d="M597 720q2 -11 1.5 -26t-3.5 -32q-4 -18 -10 -34.5t-14 -29.5h-278l-37 -174h228q1 -13 1.5 -27t-3.5 -32q-5 -19 -10.5 -33.5t-13.5 -28.5h-228l-38 -181h288q2 -12 1.5 -27.5t-4.5 -32.5t-9.5 -32.5t-13.5 -29.5q-19 -12 -37 -28.5t-31.5 -34.5t-21.5 -35.5t-8 -29.5
q2 -34 46 -14q5 -6 8.5 -16.5t5 -22.5t1 -24t-2.5 -20q-20 -12 -50 -18.5t-61 -6.5q-47 0 -66.5 22.5t-19.5 52.5q0 46 33.5 89.5t93.5 85.5h-338l153 720h438z" />
    <glyph glyph-name="Eth" unicode="&#xd0;" horiz-adv-x="687" 
d="M427 720q147 0 207.5 -90.5t18.5 -284.5q-21 -97 -55 -163t-81.5 -106.5t-108.5 -58t-134 -17.5h-247l65 305h-74q-1 11 0.5 24.5t4.5 28t7.5 27.5t9.5 23h74l66 312h247zM273 408h109q1 -10 -0.5 -24t-4.5 -28t-7.5 -27.5t-9.5 -23.5h-109l-38 -180h82q34 0 63 9.5
t53 35.5t44 72t35 118q16 73 15.5 119t-14 71.5t-38.5 35t-59 9.5h-82z" />
    <glyph glyph-name="Euro" unicode="&#x20ac;" horiz-adv-x="592" 
d="M151 461q46 108 125 163.5t191 55.5q40 0 69 -5.5t49 -12.5q23 -8 39 -18q-7 -32 -24 -58t-42 -43q-13 5 -29 9q-14 4 -32 7t-38 3q-48 0 -86 -22t-67 -79h218q0 -20 -9.5 -46.5t-23.5 -44.5h-218q-3 -9 -5 -17.5t-4 -18.5q-5 -18 -6 -33h191q0 -20 -9.5 -46.5
t-23.5 -44.5h-163q3 -58 33.5 -78.5t77.5 -20.5q22 0 43 2.5t38 6.5q19 4 36 10q19 -17 23 -46t-2 -57q-22 -11 -49 -19q-23 -7 -56.5 -12.5t-75.5 -5.5q-112 0 -168 55.5t-55 164.5h-84q-1 20 9 47t24 44h58l7 34l8 35h-72q-1 20 9 47t24 44h70v0z" />
    <glyph glyph-name="F" unicode="F" horiz-adv-x="539" 
d="M168 9q-11 -3 -23 -5q-11 -2 -26 -3t-34 -1t-33 1t-24 3q-11 2 -20 5l151 711h428q2 -12 1.5 -27.5t-4.5 -32.5q-7 -35 -23 -62h-268l-40 -187h238q2 -11 2 -26.5t-4 -32.5q-10 -40 -24 -63h-238z" />
    <glyph glyph-name="G" unicode="G" horiz-adv-x="635" 
d="M56 378q39 181 141.5 266.5t263.5 85.5q50 0 86.5 -6t60.5 -14q28 -9 48 -20q-8 -32 -25.5 -61t-43.5 -50q-19 7 -40 12q-19 5 -43 8.5t-52 3.5q-41 0 -77 -11.5t-66.5 -39.5t-54 -75t-38.5 -118t-13.5 -117.5t18 -73.5t48 -38t76.5 -11h19t18 1q10 1 19 2l37 176h-115
q-2 6 -2 15q0 8 1 19t4 26t7 26.5t8 19.5l8 16h259l-83 -390q-26 -11 -59 -20q-29 -8 -70 -14t-92 -6q-81 0 -137 26.5t-87 77t-37 122.5t13 162z" />
    <glyph glyph-name="Gbreve" unicode="&#x11e;" horiz-adv-x="635" 
d="M654 843q-19 -20 -45 -36q-23 -14 -56 -24.5t-78 -10.5t-77 10.5t-52 24.5q-24 16 -39 36q12 20 33 38.5t46 26.5q11 -8 26 -13q13 -5 32 -9t45 -4t46.5 4t35.5 9q18 5 31 13q21 -8 34.5 -26.5t17.5 -38.5zM56 378q39 181 141.5 266.5t263.5 85.5q50 0 86.5 -6t60.5 -14
q28 -9 48 -20q-8 -32 -25.5 -61t-43.5 -50q-19 7 -40 12q-19 5 -43 8.5t-52 3.5q-41 0 -77 -11.5t-66.5 -39.5t-54 -75t-38.5 -118t-13.5 -117.5t18 -73.5t48 -38t76.5 -11h19t18 1q10 1 19 2l37 176h-115q-2 6 -2 15q0 8 1 19t4 26t7 26.5t8 19.5l8 16h259l-83 -390
q-26 -11 -59 -20q-29 -8 -70 -14t-92 -6q-81 0 -137 26.5t-87 77t-37 122.5t13 162z" />
    <glyph glyph-name="Gcircumflex" unicode="&#x11c;" horiz-adv-x="635" 
d="M653 823q-17 -23 -38 -41t-45 -27l-92 67l-120 -66q-21 9 -34.5 26.5t-19.5 40.5l181 121h36zM56 378q39 181 141.5 266.5t263.5 85.5q50 0 86.5 -6t60.5 -14q28 -9 48 -20q-8 -32 -25.5 -61t-43.5 -50q-19 7 -40 12q-19 5 -43 8.5t-52 3.5q-41 0 -77 -11.5t-66.5 -39.5
t-54 -75t-38.5 -118t-13.5 -117.5t18 -73.5t48 -38t76.5 -11h19t18 1q10 1 19 2l37 176h-115q-2 6 -2 15q0 8 1 19t4 26t7 26.5t8 19.5l8 16h259l-83 -390q-26 -11 -59 -20q-29 -8 -70 -14t-92 -6q-81 0 -137 26.5t-87 77t-37 122.5t13 162z" />
    <glyph glyph-name="Gcommaaccent" unicode="&#x122;" horiz-adv-x="635" 
d="M176 -293q13 11 24 27q10 13 20.5 32t17.5 44q-12 1 -21.5 1.5t-16.5 2.5q-8 1 -13 3l29 134q9 2 21 4q11 2 26 3t35 1t34.5 -1t25.5 -3q12 -2 21 -4l-21 -96q-10 -45 -31 -79t-44 -57q-26 -27 -57 -47zM56 378q39 181 141.5 266.5t263.5 85.5q50 0 86.5 -6t60.5 -14
q28 -9 48 -20q-8 -32 -25.5 -61t-43.5 -50q-19 7 -40 12q-19 5 -43 8.5t-52 3.5q-41 0 -77 -11.5t-66.5 -39.5t-54 -75t-38.5 -118t-13.5 -117.5t18 -73.5t48 -38t76.5 -11h19t18 1q10 1 19 2l37 176h-115q-2 6 -2 15q0 8 1 19t4 26t7 26.5t8 19.5l8 16h259l-83 -390
q-26 -11 -59 -20q-29 -8 -70 -14t-92 -6q-81 0 -137 26.5t-87 77t-37 122.5t13 162z" />
    <glyph glyph-name="Gdotaccent" unicode="&#x120;" horiz-adv-x="635" 
d="M540 776q-8 -2 -19 -4q-18 -3 -52 -3q-36 0 -52 3q-10 2 -16 4l27 128l18 3q9 2 22.5 3t31.5 1q17 0 29.5 -1t20.5 -3q10 -2 17 -3zM56 378q39 181 141.5 266.5t263.5 85.5q50 0 86.5 -6t60.5 -14q28 -9 48 -20q-8 -32 -25.5 -61t-43.5 -50q-19 7 -40 12q-19 5 -43 8.5
t-52 3.5q-41 0 -77 -11.5t-66.5 -39.5t-54 -75t-38.5 -118t-13.5 -117.5t18 -73.5t48 -38t76.5 -11h19t18 1q10 1 19 2l37 176h-115q-2 6 -2 15q0 8 1 19t4 26t7 26.5t8 19.5l8 16h259l-83 -390q-26 -11 -59 -20q-29 -8 -70 -14t-92 -6q-81 0 -137 26.5t-87 77t-37 122.5
t13 162z" />
    <glyph glyph-name="H" unicode="H" horiz-adv-x="685" 
d="M541 711l23 4q11 2 25.5 3.5t33.5 1.5q18 0 32.5 -1.5t24.5 -3.5l21 -4l-149 -702q-10 -3 -22 -5q-11 -2 -26 -3t-33 -1q-20 0 -35 1t-25 3q-11 2 -19 5l63 295h-225l-63 -295q-11 -3 -23 -5q-11 -2 -26 -3t-33 -1q-20 0 -34.5 1t-24.5 3q-11 2 -19 5l149 702q10 2 22 4
q11 2 25.5 3.5t33.5 1.5t33 -1.5t25 -3.5l21 -4l-59 -277h225z" />
    <glyph glyph-name="Hbar" unicode="&#x126;" horiz-adv-x="714" 
d="M761 622q2 -20 -3.5 -46.5t-16.5 -46.5h-64l-110 -520q-10 -3 -22 -5q-11 -2 -26 -3t-33 -1q-20 0 -35 1t-25 3q-11 2 -19 5l63 295h-225l-63 -295q-11 -3 -23 -5q-11 -2 -26 -3t-33 -1q-20 0 -34.5 1t-24.5 3q-11 2 -19 5l110 520h-65q-1 23 4.5 48t15.5 45h65l19 89
q10 2 22 4q11 2 25.5 3.5t33.5 1.5t33 -1.5t25 -3.5l21 -4l-19 -89h225l19 89l23 4q11 2 25.5 3.5t33.5 1.5q18 0 32.5 -1.5t24.5 -3.5l21 -4l-19 -89h64zM272 434h225l20 95h-225z" />
    <glyph glyph-name="Hcircumflex" unicode="&#x124;" horiz-adv-x="684" 
d="M632 818q-17 -23 -38 -41t-46 -27l-91 67l-120 -66q-21 9 -35 26.5t-19 40.5l184 132h36zM541 711q10 2 22 4q11 2 25.5 3.5t33.5 1.5q18 0 32.5 -1.5t24.5 -3.5l21 -4l-149 -702q-10 -3 -22 -5q-11 -2 -26 -3t-33 -1q-20 0 -34.5 1t-24.5 3q-11 2 -19 5l63 295h-226
l-63 -295q-11 -3 -23 -5q-11 -2 -26 -3t-33 -1q-20 0 -34 1t-24 3q-11 2 -19 5l149 702q10 2 22 4q11 2 25 3.5t33 1.5t33 -1.5t25 -3.5l21 -4l-59 -277h226z" />
    <glyph glyph-name="I" unicode="I" horiz-adv-x="300" 
d="M156 711q10 2 22 4q11 2 25.5 3.5t33.5 1.5t33 -1.5t25 -3.5l21 -4l-149 -702q-11 -3 -23 -5q-11 -2 -26 -3t-33 -1q-20 0 -34.5 1t-24.5 3q-11 2 -19 5z" />
    <glyph glyph-name="IJ" unicode="&#x132;" horiz-adv-x="753" 
d="M157 711q10 2 22 4q11 2 25.5 3.5t33.5 1.5t33 -1.5t25 -3.5l21 -4l-149 -702q-11 -3 -23 -5q-11 -2 -26 -3t-33 -1q-20 0 -34.5 1t-24.5 3q-11 2 -19 5zM613 711q9 2 21 4q11 2 26 3.5t35 1.5q19 0 33.5 -1.5t24.5 -3.5q11 -2 20 -4l-108 -510q-23 -106 -94.5 -158.5
t-171.5 -52.5q-38 0 -68 5t-50 12q-25 7 -42 17q6 31 23 62t43 53q11 -4 25 -8q11 -3 27 -5.5t33 -2.5q44 0 75.5 21t43.5 75z" />
    <glyph glyph-name="Iacute" unicode="&#xcd;" horiz-adv-x="300" 
d="M235 750q-25 5 -45 15.5t-30 28.5l122 148q19 2 38 -1.5t35.5 -10.5t29 -17.5t17.5 -22.5zM156 711q10 2 22 4q11 2 25.5 3.5t33.5 1.5t33 -1.5t25 -3.5l21 -4l-149 -702q-11 -3 -23 -5q-11 -2 -26 -3t-33 -1q-20 0 -34.5 1t-24.5 3q-11 2 -19 5z" />
    <glyph glyph-name="Ibreve" unicode="&#x12c;" horiz-adv-x="300" 
d="M435 840q-22 -20 -50 -36q-24 -14 -59 -24.5t-80 -10.5t-75.5 10.5t-48.5 24.5q-22 16 -34 36q11 20 32.5 38.5t46.5 26.5q11 -8 26 -13q13 -5 32 -9t45 -4t46.5 4t35.5 9q18 5 31 13q21 -8 34.5 -26.5t17.5 -38.5zM156 711q10 2 22 4q11 2 25.5 3.5t33.5 1.5t33 -1.5
t25 -3.5l21 -4l-149 -702q-11 -3 -23 -5q-11 -2 -26 -3t-33 -1q-20 0 -34.5 1t-24.5 3q-11 2 -19 5z" />
    <glyph glyph-name="Icircumflex" unicode="&#xce;" horiz-adv-x="299" 
d="M434 818q-16 -23 -37 -41t-46 -27l-91 67l-120 -66q-21 9 -35 26.5t-19 40.5l183 132h36zM156 711q10 2 22 4q11 2 25 3.5t33 1.5t33 -1.5t25 -3.5l21 -4l-149 -702q-11 -3 -23 -5q-11 -2 -26 -3t-33 -1q-20 0 -34 1t-24 3q-11 2 -19 5z" />
    <glyph glyph-name="Idieresis" unicode="&#xcf;" horiz-adv-x="299" 
d="M211 763q-7 -2 -18 -4q-18 -3 -50 -3t-48 3q-10 2 -16 4l24 115q6 1 17 3q8 2 21 3t30 1q16 0 28 -1t20 -3q10 -2 16 -3zM408 763q-7 -2 -18 -4q-18 -3 -50 -3q-34 0 -49 3q-10 2 -15 4l24 115q6 1 17 3q8 2 21 3t30 1q16 0 28 -1t20 -3q10 -2 16 -3zM156 711q10 2 22 4
q11 2 25.5 3.5t33.5 1.5t33.5 -1.5t24.5 -3.5q11 -2 20 -4l-149 -702q-11 -3 -23 -5q-11 -2 -25.5 -3t-32.5 -1q-20 0 -34.5 1t-24.5 3q-11 2 -19 5z" />
    <glyph glyph-name="Idotaccent" unicode="&#x130;" horiz-adv-x="300" 
d="M197 886q9 2 20 4q10 2 24.5 3t34.5 1q18 0 32 -1t24 -3q11 -2 19 -4l-28 -123q-9 -2 -21 -4q-11 -2 -25.5 -3t-32.5 -1q-20 0 -34 1t-23 3q-11 2 -18 4zM156 711q10 2 22 4q11 2 25.5 3.5t33.5 1.5t33 -1.5t25 -3.5l21 -4l-149 -702q-11 -3 -23 -5q-11 -2 -26 -3t-33 -1
q-20 0 -34.5 1t-24.5 3q-11 2 -19 5z" />
    <glyph glyph-name="Igrave" unicode="&#xcc;" horiz-adv-x="300" 
d="M139 888q10 13 27 23.5t36.5 17.5t40 10t38.5 1l60 -147q-18 -19 -43 -29t-52 -15zM156 711q10 2 22 4q11 2 25.5 3.5t33.5 1.5t33 -1.5t25 -3.5l21 -4l-149 -702q-11 -3 -23 -5q-11 -2 -26 -3t-33 -1q-20 0 -34.5 1t-24.5 3q-11 2 -19 5z" />
    <glyph glyph-name="Imacron" unicode="&#x12a;" horiz-adv-x="300" 
d="M83 760q-1 22 4 47t16 44h311q2 -20 -4 -45.5t-16 -45.5h-311zM156 711q10 2 22 4q11 2 25.5 3.5t33.5 1.5t33 -1.5t25 -3.5l21 -4l-149 -702q-11 -3 -23 -5q-11 -2 -26 -3t-33 -1q-20 0 -34.5 1t-24.5 3q-11 2 -19 5z" />
    <glyph glyph-name="Iogonek" unicode="&#x12e;" horiz-adv-x="301" 
d="M168 9q-19 -12 -35 -30t-27.5 -37.5t-17.5 -38.5t-6 -31q2 -34 46 -14q5 -6 8.5 -16.5t5 -22.5t1 -24t-2.5 -20q-20 -12 -50 -18.5t-61 -6.5q-47 0 -66.5 22.5t-19.5 52.5q0 45 31 91t85 84q-14 1 -27.5 3t-23.5 6l149 702q10 2 22 4q11 2 25.5 3.5t33.5 1.5t33 -1.5
t25 -3.5l21 -4z" />
    <glyph glyph-name="Itilde" unicode="&#x128;" horiz-adv-x="300" 
d="M324 854q13 0 23 3.5t18 8.5q9 5 16 13q19 -11 27.5 -31.5t6.5 -42.5q-12 -14 -27 -25q-13 -10 -32 -17.5t-43 -7.5t-40 5t-29.5 10.5l-27 10.5t-31.5 5q-13 0 -22.5 -4t-17.5 -9q-9 -5 -16 -12q-20 12 -28.5 31.5t-6.5 42.5q12 14 28 25q14 9 32.5 17t41.5 8q24 0 40 -5
t29.5 -10.5l27 -10.5t31.5 -5zM156 711q10 2 22 4q11 2 25.5 3.5t33.5 1.5t33 -1.5t25 -3.5l21 -4l-149 -702q-11 -3 -23 -5q-11 -2 -26 -3t-33 -1q-20 0 -34.5 1t-24.5 3q-11 2 -19 5z" />
    <glyph glyph-name="J" unicode="J" horiz-adv-x="467" 
d="M327 711q9 2 21 4q11 2 26 3.5t35 1.5q19 0 33.5 -1.5t24.5 -3.5q11 -2 20 -4l-108 -507q-23 -107 -95 -160.5t-172 -53.5q-38 0 -67.5 5t-49.5 12q-24 7 -42 17q6 31 23 62t43 53l25 -8q11 -3 26.5 -5.5t32.5 -2.5q45 0 76.5 21t43.5 75z" />
    <glyph glyph-name="Jcircumflex" unicode="&#x134;" horiz-adv-x="467" 
d="M605 818q-17 -23 -38 -41t-45 -27l-92 67l-120 -66q-20 9 -34 26.5t-20 40.5l184 132h36zM327 711q9 2 21 4q11 2 26 3.5t35 1.5q19 0 33.5 -1.5t24.5 -3.5q11 -2 20 -4l-108 -507q-23 -107 -95 -160.5t-172 -53.5q-38 0 -67.5 5t-49.5 12q-24 7 -42 17q6 31 23 62t43 53
l25 -8q11 -3 26.5 -5.5t32.5 -2.5q45 0 76.5 21t43.5 75z" />
    <glyph glyph-name="K" unicode="K" horiz-adv-x="630" 
d="M523 711q17 4 38 6.5t47 2.5t46 -2.5t37 -6.5l-276 -339l158 -363q-12 -3 -27 -5q-13 -2 -30.5 -3t-38.5 -1t-35.5 1t-23.5 3q-11 2 -17 5l-121 305h-48l-65 -305q-8 -3 -20 -5q-11 -2 -26.5 -3t-35.5 -1t-34 1t-24 3q-11 2 -20 5l149 702q10 2 22 4q11 2 26 3.5t35 1.5
q19 0 33.5 -1.5t24.5 -3.5q11 -2 19 -4l-59 -277h39z" />
    <glyph glyph-name="Kcommaaccent" unicode="&#x136;" horiz-adv-x="630" 
d="M153 -308q13 12 24 29q10 14 20.5 34.5t18.5 46.5q-22 1 -36 5q-8 2 -13 3l31 143l21 4q10 2 24 3t33 1q18 0 32 -1t24 -3q11 -2 20 -4l-22 -103q-11 -48 -32 -84.5t-43 -61.5q-26 -29 -55 -50zM523 711q17 4 38 6.5t47 2.5t46 -2.5t37 -6.5l-276 -339l158 -363
q-12 -3 -27 -5q-13 -2 -30.5 -3t-38.5 -1t-35.5 1t-23.5 3q-11 2 -17 5l-121 305h-48l-65 -305q-8 -3 -20 -5q-11 -2 -26.5 -3t-35.5 -1t-34 1t-24 3q-11 2 -20 5l149 702q10 2 22 4q11 2 26 3.5t35 1.5q19 0 33.5 -1.5t24.5 -3.5q11 -2 19 -4l-59 -277h39z" />
    <glyph glyph-name="L" unicode="L" horiz-adv-x="530" 
d="M157 711q10 2 22 4q11 2 25.5 3.5t33.5 1.5t33 -1.5t25 -3.5l21 -4l-123 -581h280q2 -15 0.5 -31.5t-4.5 -33.5q-4 -17 -10 -33t-14 -32h-440z" />
    <glyph glyph-name="Lacute" unicode="&#x139;" horiz-adv-x="529" 
d="M235 750q-25 5 -45 15.5t-30 28.5l122 148q19 2 38 -1.5t35.5 -10.5t29 -17.5t17.5 -22.5zM157 711q10 2 22 4q11 2 25.5 3.5t33.5 1.5t33.5 -1.5t24.5 -3.5q11 -2 20 -4l-123 -581h280q2 -15 0.5 -31.5t-4.5 -33.5q-4 -17 -10 -33t-14 -32h-439z" />
    <glyph glyph-name="Lcaron" unicode="&#x13d;" horiz-adv-x="529" 
d="M389 571q-20 2 -35.5 12t-21.5 25q20 16 34.5 31.5t25 31.5t18 35t13.5 43q36 2 66 -4t47 -23q-11 -27 -27 -51t-35.5 -44t-41 -34.5t-43.5 -21.5zM157 711q10 2 22 4q11 2 25.5 3.5t33.5 1.5t33.5 -1.5t24.5 -3.5q11 -2 20 -4l-123 -581h280q2 -15 0.5 -31.5t-4.5 -33.5
q-4 -17 -10 -33t-14 -32h-439z" />
    <glyph glyph-name="Lcommaaccent" unicode="&#x13b;" horiz-adv-x="529" 
d="M157 711q10 2 22 4q11 2 25.5 3.5t33.5 1.5t33.5 -1.5t24.5 -3.5q11 -2 20 -4l-123 -581h280q2 -15 0.5 -31.5t-4.5 -33.5q-4 -17 -10 -33t-14 -32h-439zM96 -309q13 12 24 29q10 14 20.5 34.5t18.5 46.5q-22 1 -36 5q-8 2 -13 3l31 143l21 4q10 2 24 3t33 1q18 0 32 -1
t24 -3q11 -2 20 -4l-22 -103q-11 -48 -32 -84.5t-43 -61.5q-26 -29 -55 -50z" />
    <glyph glyph-name="Ldot" unicode="&#x13f;" horiz-adv-x="540" 
d="M157 711q10 2 22 4q11 2 25.5 3.5t33.5 1.5t33.5 -1.5t24.5 -3.5q11 -2 20 -4l-123 -581h280q2 -15 0.5 -31.5t-4.5 -33.5q-4 -17 -10 -33t-14 -32h-439zM462 273q-8 -2 -19 -4q-9 -2 -21.5 -3t-29.5 -1t-29.5 1t-20.5 3q-10 2 -15 4l26 124q6 2 17 4q8 2 21.5 3t30.5 1
t29 -1t20 -3q10 -2 17 -4z" />
    <glyph glyph-name="Lslash" unicode="&#x141;" horiz-adv-x="555" 
d="M183 711q10 2 22 4q11 2 25.5 3.5t33.5 1.5t33.5 -1.5t24.5 -3.5q11 -2 20 -4l-49 -232l104 54q12 -17 19.5 -36t9.5 -42l-155 -80l-52 -245h280q2 -15 0.5 -31.5t-4.5 -33.5q-4 -17 -10 -33t-14 -32h-439l60 283l-68 -35q-24 33 -29 78l119 61l69 324v0z" />
    <glyph glyph-name="M" unicode="M" horiz-adv-x="833" 
d="M647 711q14 3 40 6t59 3q16 0 32.5 -1t31 -2.5t25 -3t14.5 -2.5l-149 -702q-10 -3 -21 -5q-10 -2 -24.5 -3t-32.5 -1q-19 0 -33 1t-24 3q-11 2 -19 5l45 210q9 44 20 91.5l22 91t21 79t17 55.5h-6q-8 -16 -23 -43l-34 -59.5l-40 -66.5l-40 -65l-97 -153q-7 -2 -16 -4
q-15 -3 -43 -3q-27 0 -39 3q-7 2 -12 4l-16.5 73.5t-15.5 73.5q-8 33 -14.5 68.5t-12 68.5t-8.5 60t-4 43h-6q0 -18 -4 -50.5t-10.5 -74t-15 -87.5t-17.5 -89l-48 -226q-9 -3 -20 -5q-10 -2 -23 -3t-30 -1t-29.5 1t-21.5 3q-11 2 -18 5l149 702q14 2 42 5.5t58 3.5
q20 0 37.5 -1.5t29.5 -3.5q14 -2 26 -4l40 -184q11 -54 19 -104.5t9 -88.5h5q10 24 24 52.5t34 61.5l82.5 131z" />
    <glyph glyph-name="N" unicode="N" horiz-adv-x="705" 
d="M288 374q-8 32 -13.5 62.5t-10.5 53.5q-5 27 -9 52h-5q-2 -25 -6 -55q-4 -26 -10 -60.5t-14 -75.5l-73 -342q-8 -3 -19 -5q-9 -2 -22.5 -3t-31.5 -1t-30.5 1t-20.5 3q-10 2 -16 5l149 702q10 2 26 4q13 2 32.5 3.5t45.5 1.5t44 -1.5t30 -3.5q14 -2 23 -4l79 -362
q7 -32 13 -63.5l11 -57.5l10 -58h4q3 28 8 61l11 64.5t15 77.5l72 338q9 2 20 4q10 2 23.5 3.5t30.5 1.5t30 -1.5t21 -3.5q10 -2 16 -4l-149 -702q-10 -3 -25 -5q-13 -2 -32 -3t-45 -1q-24 0 -42.5 1t-31.5 3q-15 2 -25 5z" />
    <glyph glyph-name="Nacute" unicode="&#x143;" horiz-adv-x="704" 
d="M460 750q-25 5 -45.5 15.5t-30.5 28.5l122 148q19 2 38 -1.5t35.5 -10.5t29 -17.5t17.5 -22.5zM288 374q-8 32 -13.5 62.5t-10.5 53.5l-10 52h-4q-2 -25 -6 -55q-4 -26 -10 -60.5t-14 -75.5l-73 -342q-8 -3 -19 -5q-10 -2 -23.5 -3t-31.5 -1t-30.5 1t-20.5 3q-10 2 -15 5
l149 702q11 2 26 4q13 2 32 3.5t45 1.5t44 -1.5t30 -3.5q14 -2 23 -4l79 -362l13.5 -63.5l11.5 -57.5l10 -58h4q3 28 8 61l11 64.5t15 77.5l72 338q9 2 20 4q10 2 23 3.5t30 1.5q18 0 30.5 -1.5t20.5 -3.5q10 -2 16 -4l-149 -702q-10 -3 -25 -5q-13 -2 -31.5 -3t-44.5 -1
q-25 0 -43 1t-31 3q-15 2 -25 5z" />
    <glyph glyph-name="Ncaron" unicode="&#x147;" horiz-adv-x="704" 
d="M300 875q16 23 37 41t46 27l93 -67l119 66q20 -9 34 -26.5t19 -40.5l-177 -126h-36zM288 374q-8 32 -13.5 62.5t-10.5 53.5l-10 52h-4q-2 -25 -6 -55q-4 -26 -10 -60.5t-14 -75.5l-73 -342q-8 -3 -19 -5q-10 -2 -23.5 -3t-31.5 -1t-30.5 1t-20.5 3q-10 2 -15 5l149 702
q11 2 26 4q13 2 32 3.5t45 1.5t44 -1.5t30 -3.5q14 -2 23 -4l79 -362l13.5 -63.5l11.5 -57.5l10 -58h4q3 28 8 61l11 64.5t15 77.5l72 338q9 2 20 4q10 2 23 3.5t30 1.5q18 0 30.5 -1.5t20.5 -3.5q10 -2 16 -4l-149 -702q-10 -3 -25 -5q-13 -2 -31.5 -3t-44.5 -1
q-25 0 -43 1t-31 3q-15 2 -25 5z" />
    <glyph glyph-name="Ncommaaccent" unicode="&#x145;" horiz-adv-x="704" 
d="M288 374q-8 32 -13.5 62.5t-10.5 53.5l-10 52h-4q-2 -25 -6 -55q-4 -26 -10 -60.5t-14 -75.5l-73 -342q-8 -3 -19 -5q-10 -2 -23.5 -3t-31.5 -1t-30.5 1t-20.5 3q-10 2 -15 5l149 702q11 2 26 4q13 2 32 3.5t45 1.5t44 -1.5t30 -3.5q14 -2 23 -4l82 -362
q7 -32 12.5 -63.5t10.5 -57.5q5 -30 9 -58h4q3 28 8 61l11 64.5t15 77.5l72 338q9 2 20 4q10 2 23 3.5t30 1.5q18 0 30.5 -1.5t20.5 -3.5q10 -2 16 -4l-149 -702q-10 -3 -25 -5q-13 -2 -31.5 -3t-44.5 -1q-25 0 -43 1t-31 3q-15 2 -25 5zM161 -309q13 12 24 29
q10 14 20.5 34.5t18.5 46.5q-22 1 -36 5q-8 2 -13 3l31 143l21 4q10 2 24 3t33 1q18 0 32 -1t24 -3q11 -2 20 -4l-22 -103q-11 -48 -32 -84.5t-43 -61.5q-26 -29 -55 -50z" />
    <glyph glyph-name="Ntilde" unicode="&#xd1;" horiz-adv-x="704" 
d="M536 869q14 0 24.5 4t18.5 9q9 5 16 13q19 -11 27.5 -32.5t6.5 -44.5q-11 -15 -27 -26q-14 -10 -33.5 -17.5t-44.5 -7.5q-24 0 -40.5 5t-30.5 11t-28 11t-32 5q-13 0 -23 -4t-18 -9q-9 -6 -16 -13q-41 25 -35 77q12 14 28 25q14 10 33 18t43 8t41 -5t30.5 -11t27.5 -11
t32 -5zM288 374q-8 32 -13.5 62.5t-10.5 53.5l-10 52h-5q-2 -25 -6 -55q-3 -26 -9 -60.5t-14 -75.5l-73 -342q-8 -3 -19 -5q-10 -2 -23.5 -3t-31.5 -1t-30.5 1t-20.5 3q-10 2 -15 5l149 702q11 2 26 4q13 2 32 3.5t45 1.5t44 -1.5t30 -3.5q14 -2 23 -4l82 -362
q7 -32 13 -63.5t10 -57.5l8 -58h5q3 28 8 61l11 64.5t15 77.5l72 338q9 2 20 4q10 2 23 3.5t30 1.5t30 -1.5t21 -3.5q10 -2 16 -4l-149 -702q-10 -3 -25 -5q-13 -2 -31.5 -3t-44.5 -1q-25 0 -43 1t-31 3q-15 2 -26 5z" />
    <glyph glyph-name="O" unicode="O" horiz-adv-x="687" 
d="M57 377q21 96 55 163.5t81 109.5t106 61t128 19t121 -24t82 -72t37 -120.5t-14 -169.5q-21 -98 -55 -165.5t-80.5 -109.5t-105 -60.5t-128.5 -18.5t-122 24t-82 72t-37 120.5t14 170.5zM488 360q16 75 17 122.5t-10.5 74.5t-34 37.5t-53.5 10.5t-57.5 -10.5t-49.5 -37.5
t-42.5 -74.5t-35.5 -122.5q-16 -74 -16.5 -121.5t10.5 -74.5t33.5 -37.5t53.5 -10.5t58 10.5t50 37.5t42 74.5t35 121.5z" />
    <glyph glyph-name="OE" unicode="&#x152;" horiz-adv-x="880" 
d="M59 381q21 97 56 163.5t82.5 108t107.5 59.5t131 18q49 0 89 -10h395q5 -26 -3 -60q-3 -17 -9 -32.5t-14 -27.5h-248l-37 -176h198q5 -26 -3 -60q-3 -17 -9 -33t-14 -28h-198l-38 -182h258q3 -27 -3 -61q-4 -17 -10 -32.5t-13 -27.5h-406q-23 -5 -46 -7.5t-46 -2.5
q-71 0 -122 25t-79.5 74.5t-33.5 122.5t15 169zM497 585q-41 22 -87 22q-33 0 -61.5 -10.5t-53 -38t-44.5 -75.5t-36 -123t-16 -123t12.5 -75.5t36.5 -37.5t57 -10q23 0 47.5 5t49.5 16z" />
    <glyph glyph-name="Oacute" unicode="&#xd3;" horiz-adv-x="687" 
d="M488 961q19 2 38 -1t35.5 -10t29 -17.5t17.5 -23.5l-165 -139q-26 5 -46.5 15t-30.5 29zM57 377q21 96 55.5 163.5t81.5 110t106 62t128 19.5t120.5 -24t82 -72.5t37 -121.5t-14.5 -170q-21 -98 -55 -165.5t-80.5 -110t-105 -61.5t-128.5 -19t-122 24t-82 73t-37 121.5
t14 170.5zM488 360q16 75 17 122.5t-10 75.5t-33.5 38.5t-53.5 10.5t-57.5 -10.5t-50 -38.5t-43 -75.5t-35.5 -122.5q-16 -74 -16.5 -122t10.5 -75.5t33.5 -38t53.5 -10.5t58 10.5t50 38t42 75.5t35 122z" />
    <glyph glyph-name="Obreve" unicode="&#x14e;" horiz-adv-x="686" 
d="M455 884q26 0 46.5 4t35.5 9q18 5 31 13q21 -8 34.5 -26.5t17.5 -38.5q-19 -20 -45 -36q-23 -14 -56 -24.5t-78 -10.5t-77 10.5t-52 24.5q-24 16 -39 36q11 20 32.5 38.5t46.5 26.5q11 -8 26 -13q13 -5 32 -9t45 -4zM57 377q21 96 55.5 163.5t81.5 110t106 62t128 19.5
t120.5 -24t82 -72.5t37 -121.5t-14.5 -170q-21 -98 -55 -165.5t-80.5 -110t-105 -61.5t-128.5 -19t-122 24t-82 73t-37 121.5t14 170.5zM488 360q16 75 17 122.5t-10 75.5t-33.5 38.5t-53.5 10.5t-57.5 -10.5t-50 -38.5t-43 -75.5t-35.5 -122.5q-16 -74 -16.5 -122
t10.5 -75.5t33.5 -38t53.5 -10.5t58 10.5t50 38t42 75.5t35 122z" />
    <glyph glyph-name="Ocircumflex" unicode="&#xd4;" horiz-adv-x="687" 
d="M617 820q-16 -23 -37 -41t-46 -27l-92 67l-119 -66q-21 9 -35 26.5t-19 40.5l173 128h36zM57 377q21 96 55.5 163.5t81.5 110t106 62t128 19.5t120.5 -24t82 -72.5t37 -121.5t-14.5 -170q-21 -98 -55 -165.5t-80.5 -110t-105 -61.5t-128.5 -19t-122 24t-82 73t-37 121.5
t14 170.5zM488 360q16 75 17 122.5t-10 75.5t-33.5 38.5t-53.5 10.5t-57.5 -10.5t-50 -38.5t-43 -75.5t-35.5 -122.5q-16 -74 -16.5 -122t10.5 -75.5t33.5 -38t53.5 -10.5t58 10.5t50 38t42 75.5t35 122z" />
    <glyph glyph-name="Odieresis" unicode="&#xd6;" horiz-adv-x="687" 
d="M300 893q7 1 17 3q8 2 20.5 3t29.5 1q16 0 28 -1t20 -3q10 -2 17 -3l-25 -115q-8 -2 -18 -4q-18 -3 -49 -3q-33 0 -49 3q-10 2 -16 4zM496 893q7 1 17 3q8 2 20.5 3t29.5 1q16 0 28.5 -1t20.5 -3q10 -2 16 -3l-25 -115q-7 -2 -17 -4q-17 -3 -50 -3t-49 3q-10 2 -16 4z
M57 377q21 96 55.5 163.5t81.5 110t106 62t128 19.5t120.5 -24t82 -72.5t37 -121.5t-14.5 -170q-21 -98 -55 -165.5t-80.5 -110t-105 -61.5t-128.5 -19t-122 24t-82 73t-37 121.5t14 170.5zM488 360q16 75 17 122.5t-10 75.5t-33.5 38.5t-53.5 10.5t-57.5 -10.5t-50 -38.5
t-43 -75.5t-35.5 -122.5q-16 -74 -16.5 -122t10.5 -75.5t33.5 -38t53.5 -10.5t58 10.5t50 38t42 75.5t35 122z" />
    <glyph glyph-name="Ograve" unicode="&#xd2;" horiz-adv-x="687" 
d="M526 800q-17 -18 -42 -28.5t-52 -14.5l-107 139q10 13 27 23.5t36.5 17.5t40 10t38.5 1zM57 377q21 96 55.5 163.5t81.5 110t106 62t128 19.5t120.5 -24t82 -72.5t37 -121.5t-14.5 -170q-21 -98 -55 -165.5t-80.5 -110t-105 -61.5t-128.5 -19t-122 24t-82 73t-37 121.5
t14 170.5zM488 360q16 75 17 122.5t-10 75.5t-33.5 38.5t-53.5 10.5t-57.5 -10.5t-50 -38.5t-43 -75.5t-35.5 -122.5q-16 -74 -16.5 -122t10.5 -75.5t33.5 -38t53.5 -10.5t58 10.5t50 38t42 75.5t35 122z" />
    <glyph glyph-name="Ohungarumlaut" unicode="&#x150;" horiz-adv-x="687" 
d="M397 937q18 2 36 -1t34 -10t28 -17t17 -22l-160 -133q-24 4 -43.5 14t-28.5 27zM582 937q18 2 36 -1t34 -10t27.5 -17t16.5 -22l-158 -133q-24 4 -44 14t-29 27zM57 377q21 96 55.5 163.5t81.5 110t106 62t128 19.5t120.5 -24t82 -72.5t37 -121.5t-14.5 -170
q-21 -98 -55 -165.5t-80.5 -110t-105 -61.5t-128.5 -19t-122 24t-82 73t-37 121.5t14 170.5zM488 360q16 75 17 122.5t-10 75.5t-33.5 38.5t-53.5 10.5t-57.5 -10.5t-50 -38.5t-43 -75.5t-35.5 -122.5q-16 -74 -16.5 -122t10.5 -75.5t33.5 -38t53.5 -10.5t58 10.5t50 38
t42 75.5t35 122z" />
    <glyph glyph-name="Omacron" unicode="&#x14c;" horiz-adv-x="687" 
d="M603 875q1 -20 -5 -45.5t-14 -45.5h-299q-1 22 4 46.5t15 44.5h299zM57 377q21 96 55.5 163.5t81.5 110t106 62t128 19.5t120.5 -24t82 -72.5t37 -121.5t-14.5 -170q-21 -98 -55 -165.5t-80.5 -110t-105 -61.5t-128.5 -19t-122 24t-82 73t-37 121.5t14 170.5zM488 360
q16 75 17 122.5t-10 75.5t-33.5 38.5t-53.5 10.5t-57.5 -10.5t-50 -38.5t-43 -75.5t-35.5 -122.5q-16 -74 -16.5 -122t10.5 -75.5t33.5 -38t53.5 -10.5t58 10.5t50 38t42 75.5t35 122z" />
    <glyph glyph-name="Omega" unicode="&#x2126;" horiz-adv-x="735" 
d="M80 380q19 92 54 158.5t83.5 109t109 62.5t131.5 20t123 -20t82.5 -62.5t37.5 -109t-12 -158.5q-17 -81 -54.5 -143.5t-83.5 -108.5h97q3 -32 -3 -64q-4 -17 -10 -33t-14 -31h-267q-5 27 2.5 63.5t24.5 64.5q23 18 44.5 41.5t40.5 54t34.5 69t26.5 87.5q14 68 13.5 112
t-13.5 69.5t-37.5 35.5t-57.5 10t-61.5 -10t-52.5 -35.5t-43 -69.5t-33 -112q-11 -49 -11.5 -87.5t5.5 -69t17.5 -54t26.5 -41.5q4 -28 -3.5 -63t-23.5 -65h-267q-3 14 -2.5 30t3.5 33q4 17 10 33.5t16 31.5h96q-27 46 -36.5 108.5t7.5 143.5z" />
    <glyph glyph-name="Oslash" unicode="&#xd8;" horiz-adv-x="687" 
d="M635 629q27 -49 32.5 -119.5t-14.5 -165.5q-21 -98 -55 -165.5t-80.5 -110t-105 -61.5t-128.5 -19q-88 0 -146 38l-64 -79q-29 1 -54.5 14t-38.5 36l89 106q-24 49 -28 117t15 157q21 96 55.5 163.5t81.5 110t106 62t128 19.5q79 0 134 -31l59 72q30 -1 54.5 -15
t37.5 -34zM477 586q-24 21 -69 21q-31 0 -57.5 -10.5t-50 -38.5t-43 -75.5t-35.5 -122.5q-7 -30 -10.5 -55.5t-5.5 -47.5zM229 141q13 -15 32 -21t42 -6q31 0 58 10.5t50 38t42 75.5t35 122q8 36 12 65.5t5 53.5z" />
    <glyph glyph-name="Oslashacute" unicode="&#x1fe;" horiz-adv-x="687" 
d="M454 770q-26 5 -46.5 15t-30.5 29l122 147q19 2 38 -1t35.5 -10t29 -17.5t17.5 -23.5zM635 629q27 -49 32.5 -119.5t-14.5 -165.5q-21 -98 -55 -165.5t-80.5 -110t-105 -61.5t-128.5 -19q-88 0 -146 38l-64 -79q-29 1 -54.5 14t-38.5 36l89 106q-24 49 -28 117t15 157
q21 96 55.5 163.5t81.5 110t106 62t128 19.5q79 0 134 -31l59 72q30 -1 54.5 -15t37.5 -34zM477 586q-24 21 -69 21q-31 0 -57.5 -10.5t-50 -38.5t-43 -75.5t-35.5 -122.5q-7 -30 -10.5 -55.5t-5.5 -47.5zM229 141q13 -15 32 -21t42 -6q31 0 58 10.5t50 38t42 75.5t35 122
q8 36 12 65.5t5 53.5z" />
    <glyph glyph-name="Otilde" unicode="&#xd5;" horiz-adv-x="687" 
d="M522 880q13 1 23.5 5.5t18.5 9.5q9 6 15 13q20 -10 29.5 -31t8.5 -43q-12 -16 -27 -27q-14 -11 -32.5 -19t-44.5 -9q-21 -1 -37.5 3.5t-31.5 10t-30 10t-34 4.5q-13 -1 -23 -5t-18 -9q-9 -6 -16 -14q-43 23 -38 75q12 15 28 26q14 10 32.5 18.5t43.5 9.5q24 1 41 -3.5
t31 -10t28.5 -10t32.5 -4.5zM57 377q21 96 55.5 163.5t81.5 110t106 62t128 19.5t120.5 -24t82 -72.5t37 -121.5t-14.5 -170q-21 -98 -55 -165.5t-80.5 -110t-105 -61.5t-128.5 -19t-122 24t-82 73t-37 121.5t14 170.5zM488 360q16 75 17 122.5t-10 75.5t-33.5 38.5
t-53.5 10.5t-57.5 -10.5t-50 -38.5t-43 -75.5t-35.5 -122.5q-16 -74 -16.5 -122t10.5 -75.5t33.5 -38t53.5 -10.5t58 10.5t50 38t42 75.5t35 122z" />
    <glyph glyph-name="P" unicode="P" horiz-adv-x="605" 
d="M168 9q-10 -3 -22 -5q-11 -2 -26 -3t-34 -1q-20 0 -34.5 1t-24.5 3q-11 2 -19 5l151 711h277q54 0 93.5 -18t62 -50t29 -76.5t-5.5 -98.5q-23 -107 -95.5 -161.5t-181.5 -54.5h-117zM342 385q45 0 74.5 27t40.5 78q11 52 -7.5 78.5t-63.5 26.5h-94l-44 -210h94z" />
    <glyph glyph-name="Q" unicode="Q" horiz-adv-x="687" 
d="M428 732q69 0 120.5 -24t82 -72.5t37 -121.5t-14.5 -170q-22 -105 -59.5 -175t-89.5 -112q23 -18 52.5 -30t64.5 -19q-13 -44 -43 -77.5t-61 -47.5q-48 18 -80 49.5t-51 66.5q-50 -11 -102 -11q-70 0 -122 24t-82 73t-37 121.5t14 170.5q21 96 55.5 163.5t81.5 110
t106 62t128 19.5zM303 114q31 0 58 10.5t50 38t42 75.5t35 122q16 75 17 122.5t-10 75.5t-33.5 38.5t-53.5 10.5t-57.5 -10.5t-50 -38.5t-43 -75.5t-35.5 -122.5q-16 -74 -16.5 -122t10.5 -75.5t33.5 -38t53.5 -10.5z" />
    <glyph glyph-name="R" unicode="R" horiz-adv-x="637" 
d="M434 720q57 0 97 -18.5t63 -50.5t29 -75.5t-4 -92.5q-15 -71 -56.5 -115.5t-106.5 -68.5l101 -290q-11 -3 -25 -5q-12 -2 -29 -3t-39 -1q-21 0 -36 1t-25 3q-11 2 -18 5l-88 270h-72l-57 -270q-10 -3 -22 -5q-11 -2 -26 -3t-33 -1q-20 0 -35 1t-25 3q-11 2 -19 5l151 711
h275zM252 403h92q46 0 74 25t38 71q10 47 -7.5 72t-63.5 25h-92z" />
    <glyph glyph-name="Racute" unicode="&#x154;" horiz-adv-x="636" 
d="M425 942q19 2 38 -1.5t35.5 -10.5t29 -17.5t17.5 -22.5l-167 -140q-25 5 -45 15.5t-30 28.5zM433 720q57 0 97 -18.5t63 -50.5t29 -75.5t-4 -92.5q-15 -71 -56.5 -115.5t-106.5 -68.5l101 -290q-11 -3 -25 -5q-12 -2 -29 -3t-39 -1q-21 0 -36 1t-25 3q-11 2 -18 5
l-88 270h-72l-57 -270q-10 -3 -22 -5q-11 -2 -26 -3t-33 -1q-20 0 -35 1t-25 3q-11 2 -19 5l151 711h275zM251 403h92q46 0 74 25t38 71q10 47 -7.5 72t-63.5 25h-92z" />
    <glyph glyph-name="Rcaron" unicode="&#x158;" horiz-adv-x="636" 
d="M531 949q20 -9 33.5 -26.5t19.5 -40.5l-184 -132h-36l-129 132q17 23 38 41t45 27l93 -67zM433 720q57 0 97 -18.5t63 -50.5t29 -75.5t-4 -92.5q-15 -71 -56.5 -115.5t-106.5 -68.5l101 -290q-11 -3 -25 -5q-12 -2 -29 -3t-39 -1q-21 0 -36 1t-25 3q-11 2 -18 5l-88 270
h-72l-57 -270q-10 -3 -22 -5q-11 -2 -26 -3t-33 -1q-20 0 -35 1t-25 3q-11 2 -19 5l151 711h275zM251 403h92q46 0 74 25t38 71q10 47 -7.5 72t-63.5 25h-92z" />
    <glyph glyph-name="Rcommaaccent" unicode="&#x156;" horiz-adv-x="637" 
d="M195 -42l21 4q10 2 24 3t33 1q18 0 32 -1t24 -3q11 -2 20 -4l-22 -103q-11 -48 -32 -84.5t-43 -61.5q-26 -29 -55 -50l-47 38q13 12 24 29q10 14 20 34.5t18 46.5q-11 1 -20 2t-15 3q-7 2 -13 3zM434 720q57 0 97 -18.5t63 -50.5t29 -75.5t-4 -92.5q-15 -71 -56.5 -115.5
t-106.5 -68.5l101 -290q-11 -3 -25 -5q-12 -2 -29 -3t-39 -1q-21 0 -36 1t-25 3q-11 2 -18 5l-88 270h-72l-57 -270q-10 -3 -22 -5q-11 -2 -26 -3t-33 -1q-20 0 -35 1t-25 3q-11 2 -19 5l151 711h275zM252 403h92q46 0 74 25t38 71q10 47 -7.5 72t-63.5 25h-92z" />
    <glyph glyph-name="S" unicode="S" horiz-adv-x="573" 
d="M94 537q20 97 93 146t209 49q49 0 86.5 -5.5t63.5 -11.5q30 -8 52 -17q-7 -32 -23 -63.5t-42 -54.5q-19 6 -41 10q-19 4 -45 7t-55 3q-65 0 -100 -19.5t-43 -57.5q-5 -21 6.5 -35t33 -25t49.5 -20.5t57 -20.5q30 -12 57 -32t45 -49t24.5 -67.5t-4.5 -87.5
q-23 -102 -97.5 -150t-211.5 -48q-56 0 -98 7.5t-71 16.5q-34 11 -59 25q7 32 24 65t40 57q25 -9 54 -16q25 -6 58 -10.5t71 -4.5q60 0 92 19.5t40 57.5q3 17 -2 30.5t-16 24t-28 18.5t-37 16q-35 12 -72.5 29.5t-66 45t-42 68t-1.5 100.5z" />
    <glyph glyph-name="Sacute" unicode="&#x15a;" horiz-adv-x="573" 
d="M391 763q-24 5 -44 16.5t-29 30.5l126 142q38 3 72.5 -14t44.5 -43zM94 537q20 97 93 146t209 49q49 0 86.5 -5.5t63.5 -11.5q30 -8 52 -17q-7 -32 -23 -63.5t-42 -54.5q-19 6 -41 10q-19 4 -45 7t-55 3q-65 0 -100 -19.5t-43 -57.5q-5 -21 6.5 -35t33 -25t49.5 -20.5
t57 -20.5q30 -12 57 -32t45 -49t24.5 -67.5t-4.5 -87.5q-23 -102 -97.5 -150t-211.5 -48q-56 0 -98 7.5t-71 16.5q-34 11 -59 25q7 32 24 65t40 57q25 -9 54 -16q25 -6 58 -10.5t71 -4.5q60 0 92 19.5t40 57.5q3 17 -2 30.5t-16 24t-28 18.5t-37 16q-35 12 -72.5 29.5
t-66 45t-42 68t-1.5 100.5z" />
    <glyph glyph-name="Scaron" unicode="&#x160;" horiz-adv-x="573" 
d="M244 886q16 22 37.5 40t45.5 27l93 -65l119 64q21 -9 34 -26.5t20 -39.5l-171 -119h-36zM94 537q20 97 93 146t209 49q49 0 86.5 -5.5t63.5 -11.5q30 -8 52 -17q-7 -32 -23 -63.5t-42 -54.5q-19 6 -41 10q-19 4 -45 7t-55 3q-65 0 -100 -19.5t-43 -57.5q-5 -21 6.5 -35
t33 -25t49.5 -20.5t57 -20.5q30 -12 57 -32t45 -49t24.5 -67.5t-4.5 -87.5q-23 -102 -97.5 -150t-211.5 -48q-56 0 -98 7.5t-71 16.5q-34 11 -59 25q7 32 24 65t40 57q25 -9 54 -16q25 -6 58 -10.5t71 -4.5q60 0 92 19.5t40 57.5q3 17 -2 30.5t-16 24t-28 18.5t-37 16
q-35 12 -72.5 29.5t-66 45t-42 68t-1.5 100.5z" />
    <glyph glyph-name="Scedilla" unicode="&#x15e;" horiz-adv-x="573" 
d="M93 537q20 97 93 146t209 49q49 0 86.5 -5.5t63.5 -11.5q30 -8 52 -17q-7 -32 -23 -63.5t-42 -54.5q-19 6 -41 10q-19 4 -45 7t-55 3q-65 0 -100 -19.5t-43 -57.5q-5 -21 6.5 -35t33 -25t49.5 -20.5t57 -20.5q30 -12 57 -32t45 -49t24.5 -67.5t-4.5 -87.5
q-20 -93 -84 -141t-179 -56l-18 -44q58 0 75.5 -28t8.5 -71q-11 -52 -52 -77.5t-101 -25.5q-26 0 -45 3.5t-31 8.5q-15 5 -24 12q3 16 13.5 33t24.5 25q10 -5 27 -9t35 -4q24 -1 43.5 7t24.5 31q4 16 -4 25.5t-31 9.5h-53l-11 16l38 88q-48 2 -83.5 10.5t-60.5 16.5
q-29 10 -50 21q7 32 24 65t40 57q25 -9 54 -16q25 -6 58 -10.5t71 -4.5q60 0 92 19.5t40 57.5q3 17 -2 30.5t-16 24t-28 18.5t-37 16q-35 12 -72.5 29.5t-66 45t-42 68t-1.5 100.5z" />
    <glyph glyph-name="Scircumflex" unicode="&#x15c;" horiz-adv-x="573" 
d="M586 826q-17 -22 -38 -40t-44 -26l-93 69l-120 -68q-20 8 -34 25.5t-20 39.5l174 129h36zM94 537q20 97 93 146t209 49q49 0 86.5 -5.5t63.5 -11.5q30 -8 52 -17q-7 -32 -23 -63.5t-42 -54.5q-19 6 -41 10q-19 4 -45 7t-55 3q-65 0 -100 -19.5t-43 -57.5q-5 -21 6.5 -35
t33 -25t49.5 -20.5t57 -20.5q30 -12 57 -32t45 -49t24.5 -67.5t-4.5 -87.5q-23 -102 -97.5 -150t-211.5 -48q-56 0 -98 7.5t-71 16.5q-34 11 -59 25q7 32 24 65t40 57q25 -9 54 -16q25 -6 58 -10.5t71 -4.5q60 0 92 19.5t40 57.5q3 17 -2 30.5t-16 24t-28 18.5t-37 16
q-35 12 -72.5 29.5t-66 45t-42 68t-1.5 100.5z" />
    <glyph glyph-name="Scommaaccent" unicode="&#x218;" horiz-adv-x="573" 
d="M95 -311q13 12 24 29q10 14 20 34.5t18 46.5q-11 1 -20 2t-15 3q-7 2 -13 3l31 143l21 4q10 2 24 3t33 1q18 0 32 -1t24 -3q11 -2 20 -4l-22 -103q-11 -48 -32 -84.5t-43 -61.5q-26 -29 -55 -50zM94 537q20 97 93 146t209 49q49 0 86.5 -5.5t63.5 -11.5q30 -8 52 -17
q-7 -32 -23 -63.5t-42 -54.5q-19 6 -41 10q-19 4 -45 7t-55 3q-65 0 -100 -19.5t-43 -57.5q-5 -21 6.5 -35t33 -25t49.5 -20.5t57 -20.5q30 -12 57 -32t45 -49t24.5 -67.5t-4.5 -87.5q-23 -102 -97.5 -150t-211.5 -48q-56 0 -98 7.5t-71 16.5q-34 11 -59 25q7 32 24 65
t40 57q25 -9 54 -16q25 -6 58 -10.5t71 -4.5q60 0 92 19.5t40 57.5q3 17 -2 30.5t-16 24t-28 18.5t-37 16q-35 12 -72.5 29.5t-66 45t-42 68t-1.5 100.5z" />
    <glyph glyph-name="T" unicode="T" horiz-adv-x="564" 
d="M626 720q1 -8 1 -19q0 -9 -1 -21t-4 -26q-3 -15 -7 -27.5t-8 -21.5q-4 -11 -9 -19h-174l-123 -577q-11 -3 -23 -5q-11 -2 -26 -3t-33 -1q-20 0 -34 1t-24 3q-11 2 -19 5l123 577h-179q-1 7 -1 18q0 8 0.5 20.5t4.5 27.5q3 15 7 27.5t8 21.5q4 11 9 19h512z" />
    <glyph glyph-name="Tbar" unicode="&#x166;" horiz-adv-x="581" 
d="M514 390q2 -20 -3.5 -46.5t-16.5 -46.5h-124l-61 -288q-11 -3 -23 -5q-11 -2 -26 -3t-33 -1q-20 0 -34.5 1t-24.5 3q-11 2 -19 5l61 288h-130q-2 23 3.5 48t16.5 45h130l42 196h-178q-1 7 -1 18q0 8 0.5 20.5t4.5 27.5q3 15 7 27.5t8 21.5q4 11 9 19h511q1 -8 1 -19
q0 -9 -1 -21t-4 -26q-3 -15 -7 -27.5t-8 -21.5q-4 -11 -9 -19h-173l-42 -196h124z" />
    <glyph glyph-name="Tcaron" unicode="&#x164;" horiz-adv-x="564" 
d="M232 882q17 23 37.5 41t45.5 27l93 -67l119 66q20 -9 34 -26.5t20 -40.5l-183 -128h-36zM625 720q1 -8 1 -19q0 -9 -1 -21t-4 -26q-3 -15 -7 -27.5t-8 -21.5q-4 -11 -9 -19h-173l-123 -577q-11 -3 -23 -5q-11 -2 -26 -3t-33 -1q-20 0 -34.5 1t-24.5 3q-11 2 -19 5
l123 577h-178q-1 7 -1 18q0 8 0.5 20.5t4.5 27.5q3 15 7 27.5t8 21.5q4 11 9 19h511z" />
    <glyph glyph-name="Thorn" unicode="&#xde;" horiz-adv-x="607" 
d="M156 711q9 2 21 4q11 2 25 3.5t33 1.5t33 -1.5t24 -3.5q11 -2 20 -4l-24 -112h126q53 0 91.5 -19t61 -52t28.5 -77.5t-5 -96.5q-23 -104 -94.5 -157.5t-178.5 -53.5h-126l-28 -134q-10 -3 -22 -5q-11 -2 -25.5 -3t-32.5 -1q-20 0 -34.5 1t-23.5 3q-11 2 -18 5zM218 267
h94q50 0 80.5 25t41.5 79t-8.5 79t-69.5 25h-94z" />
    <glyph glyph-name="U" unicode="U" horiz-adv-x="675" 
d="M599 251q-13 -63 -41.5 -112t-70 -82.5t-94 -51t-114.5 -17.5t-110 17.5t-78 51.5t-40.5 83t2.5 111l98 460q9 2 21 4q11 2 25.5 3.5t34.5 1.5q19 0 33.5 -1.5t24.5 -3.5q11 -2 20 -4l-100 -472q-12 -57 11 -86.5t79 -29.5q57 0 92 29.5t47 86.5l100 472q9 2 21 4
q11 2 25 3.5t34 1.5q19 0 33.5 -1.5t24.5 -3.5q11 -2 20 -4z" />
    <glyph glyph-name="Uacute" unicode="&#xda;" horiz-adv-x="675" 
d="M426 750q-25 5 -45 15.5t-30 28.5l122 148q19 2 38 -1.5t35.5 -10.5t29 -17.5t17.5 -22.5zM599 251q-13 -63 -41.5 -112t-70 -82.5t-94 -51t-114.5 -17.5t-110 17.5t-78 51.5t-40.5 83t2.5 111l98 460q9 2 21 4q11 2 25.5 3.5t34.5 1.5q19 0 33.5 -1.5t24.5 -3.5
q11 -2 20 -4l-100 -472q-12 -57 11 -86.5t79 -29.5q57 0 92 29.5t47 86.5l100 472q9 2 21 4q11 2 25 3.5t34 1.5q19 0 33.5 -1.5t24.5 -3.5q11 -2 20 -4z" />
    <glyph glyph-name="Ubreve" unicode="&#x16c;" horiz-adv-x="675" 
d="M615 842q-19 -20 -45 -36q-23 -14 -56.5 -25t-78.5 -11t-77 11t-52 25q-24 16 -38 36q12 20 33 38.5t46 26.5q11 -8 26 -13q13 -5 32 -9t45 -4t46.5 4t35.5 9q18 5 31 13q21 -8 34.5 -26.5t17.5 -38.5zM599 251q-13 -63 -41.5 -112t-70 -82.5t-94 -51t-114.5 -17.5
t-110 17.5t-78 51.5t-40.5 83t2.5 111l98 460q9 2 21 4q11 2 25.5 3.5t34.5 1.5q19 0 33.5 -1.5t24.5 -3.5q11 -2 20 -4l-100 -472q-12 -57 11 -86.5t79 -29.5q57 0 92 29.5t47 86.5l100 472q9 2 21 4q11 2 25 3.5t34 1.5q19 0 33.5 -1.5t24.5 -3.5q11 -2 20 -4z" />
    <glyph glyph-name="Ucircumflex" unicode="&#xdb;" horiz-adv-x="675" 
d="M631 818q-17 -23 -38 -41t-45 -27l-92 67l-119 -66q-21 9 -35 26.5t-20 40.5l174 126h36zM599 251q-13 -63 -41.5 -112t-69.5 -82.5t-93.5 -51t-114.5 -17.5t-110 17.5t-78.5 51.5t-41 83t2.5 111l98 460q9 2 21 4q11 2 25.5 3.5t34.5 1.5t34.5 -1.5t24.5 -3.5
q11 -2 20 -4l-100 -472q-12 -57 10.5 -86.5t79.5 -29.5q56 0 91.5 29.5t47.5 86.5l100 472q9 2 20 4q10 2 24.5 3.5t34.5 1.5q19 0 33.5 -1.5t24.5 -3.5q11 -2 20 -4z" />
    <glyph glyph-name="Udieresis" unicode="&#xdc;" horiz-adv-x="675" 
d="M404 777q-7 -2 -18 -4q-18 -3 -50 -3q-34 0 -49 3q-10 2 -15 4l24 115q6 1 17 3q8 2 21 3t30 1q16 0 28 -1t20 -3q10 -2 16 -3zM600 777q-7 -2 -18 -4q-18 -3 -50 -3q-34 0 -49 3q-10 2 -15 4l24 115q6 1 17 3q8 2 21 3t30 1q16 0 28 -1t20 -3q10 -2 16 -3zM599 251
q-13 -63 -41.5 -112t-70 -82.5t-94 -51t-114.5 -17.5t-110 17.5t-78 51.5t-40.5 83t2.5 111l98 460q9 2 21 4q11 2 25.5 3.5t34.5 1.5q19 0 33.5 -1.5t24.5 -3.5q11 -2 20 -4l-100 -472q-12 -57 11 -86.5t79 -29.5q57 0 92 29.5t47 86.5l100 472q9 2 21 4q11 2 25 3.5
t34 1.5q19 0 33.5 -1.5t24.5 -3.5q11 -2 20 -4z" />
    <glyph glyph-name="Ugrave" unicode="&#xd9;" horiz-adv-x="675" 
d="M310 888q10 13 27 23.5t36.5 17.5t40 10t38.5 1l60 -147q-18 -19 -43 -29t-52 -15zM599 251q-13 -63 -41.5 -112t-70 -82.5t-94 -51t-114.5 -17.5t-110 17.5t-78 51.5t-40.5 83t2.5 111l98 460q9 2 21 4q11 2 25.5 3.5t34.5 1.5q19 0 33.5 -1.5t24.5 -3.5q11 -2 20 -4
l-100 -472q-12 -57 11 -86.5t79 -29.5q57 0 92 29.5t47 86.5l100 472q9 2 21 4q11 2 25 3.5t34 1.5q19 0 33.5 -1.5t24.5 -3.5q11 -2 20 -4z" />
    <glyph glyph-name="Uhungarumlaut" unicode="&#x170;" horiz-adv-x="675" 
d="M351 759q-25 2 -44.5 12t-28.5 28l113 147q18 3 36.5 0.5t34.5 -9t28 -16.5t17 -22zM533 760q-24 4 -44 14.5t-28 28.5l117 143q18 2 37 -1t34.5 -10t27.5 -17.5t17 -22.5zM599 251q-13 -63 -41.5 -112t-70 -82.5t-94 -51t-114.5 -17.5t-110 17.5t-78 51.5t-40.5 83
t2.5 111l98 460q9 2 21 4q11 2 25.5 3.5t34.5 1.5q19 0 33.5 -1.5t24.5 -3.5q11 -2 20 -4l-100 -472q-12 -57 11 -86.5t79 -29.5q57 0 92 29.5t47 86.5l100 472q9 2 21 4q11 2 25 3.5t34 1.5q19 0 33.5 -1.5t24.5 -3.5q11 -2 20 -4z" />
    <glyph glyph-name="Umacron" unicode="&#x16a;" horiz-adv-x="674" 
d="M285 781q-1 22 4.5 46.5t14.5 44.5h312q2 -20 -4 -45.5t-15 -45.5h-312zM598 251q-13 -63 -41.5 -112t-69.5 -82.5t-93.5 -51t-114.5 -17.5t-110 17.5t-78 51.5t-40.5 83t2.5 111l98 460q9 2 21 4q11 2 25.5 3.5t33.5 1.5q20 0 34.5 -1.5t24.5 -3.5q11 -2 20 -4
l-100 -472q-12 -57 10.5 -86.5t79.5 -29.5t92 29.5t47 86.5l100 472q9 2 21 4q11 2 25 3.5t34 1.5q19 0 33 -1.5t24 -3.5q11 -2 20 -4z" />
    <glyph glyph-name="Uogonek" unicode="&#x172;" horiz-adv-x="675" 
d="M599 251q-14 -68 -46 -120t-77 -86q-69 -52 -101.5 -100t-31.5 -73q2 -34 46 -14q5 -6 8.5 -16.5t5 -22.5t1 -24t-2.5 -20q-20 -12 -50 -18.5t-61 -6.5q-47 0 -66.5 22.5t-19.5 52.5q0 42 28 83.5t79 80.5q-8 -1 -16 -1h-16q-62 0 -110 17.5t-78 51.5t-40.5 83t2.5 111
l98 460q9 2 21 4q11 2 25.5 3.5t34.5 1.5q19 0 33.5 -1.5t24.5 -3.5q11 -2 20 -4l-100 -472q-12 -57 11 -86.5t79 -29.5q57 0 92 29.5t47 86.5l100 472q9 2 21 4q11 2 25 3.5t34 1.5q19 0 33.5 -1.5t24.5 -3.5q11 -2 20 -4z" />
    <glyph glyph-name="Uring" unicode="&#x16e;" horiz-adv-x="675" 
d="M444 750q-60 0 -94.5 34.5t-25.5 97.5q5 32 21 56t38 40.5t48.5 24.5t53.5 8q26 0 50.5 -8t42 -24t26 -40.5t3.5 -56.5t-20 -56.5t-37 -41.5t-49.5 -25.5t-56.5 -8.5zM516 882q5 19 -5 34t-36 15t-41.5 -15.5t-20.5 -33.5q-4 -19 5.5 -34t35.5 -15t42 15.5t20 33.5z
M599 251q-13 -63 -41.5 -112t-70 -82.5t-94 -51t-114.5 -17.5t-110 17.5t-78 51.5t-40.5 83t2.5 111l98 460q9 2 21 4q11 2 25.5 3.5t34.5 1.5q19 0 33.5 -1.5t24.5 -3.5q11 -2 20 -4l-100 -472q-12 -57 11 -86.5t79 -29.5q57 0 92 29.5t47 86.5l100 472q9 2 21 4
q11 2 25 3.5t34 1.5q19 0 33.5 -1.5t24.5 -3.5q11 -2 20 -4z" />
    <glyph glyph-name="Utilde" unicode="&#x168;" horiz-adv-x="674" 
d="M513 879q14 0 24.5 3.5t18.5 8.5q9 5 16 13q20 -11 28.5 -31.5t6.5 -42.5q-11 -14 -27 -25q-14 -9 -33.5 -16.5t-44.5 -7.5q-24 0 -40.5 5t-30.5 10.5l-28 10.5t-32 5q-13 0 -23 -4t-18 -9q-9 -5 -16 -12q-21 12 -29.5 31t-6.5 42q12 13 28 24q14 9 33 17t43 8t41 -4.5
t30.5 -10.5t27.5 -10.5t32 -4.5zM598 251q-13 -63 -41.5 -112t-69.5 -82.5t-93.5 -51t-114.5 -17.5t-110 17.5t-78 51.5t-40.5 83t2.5 111l98 460q9 2 21 4q11 2 25.5 3.5t33.5 1.5q20 0 34.5 -1.5t24.5 -3.5q11 -2 20 -4l-100 -472q-12 -57 10.5 -86.5t79.5 -29.5t92 29.5
t47 86.5l100 472q9 2 21 4q11 2 25 3.5t34 1.5q19 0 33 -1.5t24 -3.5q11 -2 20 -4z" />
    <glyph glyph-name="V" unicode="V" horiz-adv-x="665" 
d="M292 312q3 -35 4 -64.5t1 -50.5q0 -25 -1 -45h4q7 19 18 45l22.5 51t32.5 65l209 397q10 2 22 5q11 2 26 3.5t35 1.5q19 0 33.5 -1.5t24.5 -3.5q11 -3 20 -5l-371 -702q-13 -2 -29 -4q-14 -2 -33 -3t-42 -1q-24 0 -42.5 1t-31.5 3q-15 2 -27 4l-73 700q11 3 25 6
q12 2 28.5 4t36.5 2q19 0 32 -1.5t21 -3.5q10 -3 15 -5z" />
    <glyph glyph-name="W" unicode="W" horiz-adv-x="984" 
d="M536 392q1 40 3.5 73t5.5 57q4 28 8 50h-5q-5 -22 -14 -50l-19.5 -57t-28.5 -73l-158 -383q-19 -4 -48.5 -6.5t-59.5 -2.5t-56 2.5t-42 6.5l-22 702q10 2 22 4q11 2 26 3.5t35 1.5q19 0 33 -1.5t23 -3.5q11 -2 18 -4l11 -400q0 -29 -1 -57.5t-2 -51.5q-2 -26 -3 -51h4
q7 24 16 50l18 51t23 58l168 401q9 2 23 4q12 2 29.5 3.5t41.5 1.5q23 0 40.5 -1.5t28.5 -3.5q13 -2 22 -4l-3 -400q-1 -32 -3 -61t-4 -51q-3 -26 -6 -48h4q6 21 16 47q8 22 19.5 50.5t26.5 61.5l183 401q9 2 20 4q10 2 23.5 3.5t30.5 1.5t29.5 -1.5t22.5 -3.5q11 -2 20 -4
l-322 -702q-12 -3 -27 -5q-13 -2 -31.5 -3t-41.5 -1q-24 0 -43 1t-32 3q-15 2 -26 5z" />
    <glyph glyph-name="Wacute" unicode="&#x1e82;" horiz-adv-x="984" 
d="M584 750q-25 5 -45 15.5t-30 28.5l122 148q19 2 38 -1.5t35.5 -10.5t29 -17.5t17.5 -22.5zM536 392q1 40 3.5 73t5.5 57q4 28 8 50h-5q-6 -22 -15 -50l-19 -57t-28 -73l-159 -383q-18 -4 -47.5 -6.5t-59.5 -2.5t-56 2.5t-42 6.5l-22 702q10 2 22 4q11 2 26 3.5t35 1.5
q19 0 32.5 -1.5t22.5 -3.5q11 -2 18 -4l12 -400q0 -29 -1 -57.5t-3 -51.5q-2 -26 -3 -51h4l17 50l18 51t23 58l168 401q9 2 23 4q11 2 29 3.5t41 1.5t40.5 -1.5t28.5 -3.5q13 -2 22 -4l-3 -400q-1 -32 -2.5 -61t-3.5 -51q-3 -26 -6 -48h4q6 21 16 47q8 22 19.5 50.5
t26.5 61.5l183 401q9 2 20 4q10 2 23.5 3.5t30.5 1.5t29.5 -1.5t22.5 -3.5q11 -2 20 -4l-322 -702q-12 -3 -27 -5q-13 -2 -31.5 -3t-41.5 -1q-24 0 -43 1t-32 3q-15 2 -26 5z" />
    <glyph glyph-name="Wcircumflex" unicode="&#x174;" horiz-adv-x="984" 
d="M782 818q-17 -23 -38 -41t-45 -27l-92 67l-120 -66q-21 9 -34.5 26.5t-19.5 40.5l184 132h36zM536 392q1 40 3.5 73t5.5 57q4 28 8 50h-5q-6 -22 -15 -50l-19 -57t-28 -73l-159 -383q-18 -4 -47.5 -6.5t-59.5 -2.5t-56 2.5t-42 6.5l-22 702q10 2 22 4q11 2 25.5 3.5
t34.5 1.5q19 0 33 -1.5t23 -3.5q11 -2 18 -4l12 -400q0 -29 -1 -57.5t-3 -51.5q-2 -26 -3 -51h4l17 50l18 51t23 58l168 401q9 2 23 4q11 2 29 3.5t41 1.5t40.5 -1.5t28.5 -3.5q13 -2 22 -4l-3 -400q-1 -32 -2.5 -61t-3.5 -51q-3 -26 -6 -48h4q6 21 16 47q8 22 19.5 50.5
t26.5 61.5l183 401q9 2 20 4q10 2 23.5 3.5t30.5 1.5t29.5 -1.5t22.5 -3.5q11 -2 20 -4l-322 -702q-12 -3 -27 -5q-13 -2 -31.5 -3t-41.5 -1q-24 0 -43 1t-32 3q-15 2 -26 5z" />
    <glyph glyph-name="Wdieresis" unicode="&#x1e84;" horiz-adv-x="984" 
d="M561 773q-8 -2 -18 -4q-18 -3 -49 -3q-33 0 -49 3q-10 2 -16 4l25 115q7 1 17 3q8 2 20.5 3t29.5 1q16 0 28 -1t20 -3q10 -2 17 -3zM761 773q-7 -2 -17 -4q-17 -3 -49 -3q-33 0 -49 3q-10 2 -16 4l25 115q7 1 17 3q8 2 20.5 3t29.5 1q16 0 28 -1t20 -3q10 -2 16 -3z
M536 392q1 40 3.5 73t5.5 57q4 28 8 50h-5q-6 -22 -15 -50l-19 -57t-28 -73l-159 -383q-18 -4 -47.5 -6.5t-59.5 -2.5t-56 2.5t-42 6.5l-22 702q10 2 22 4q11 2 26 3.5t35 1.5q19 0 32.5 -1.5t22.5 -3.5q11 -2 18 -4l12 -400q0 -29 -1 -57.5t-3 -51.5q-2 -26 -3 -51h4l17 50
l18 51t23 58l168 401q9 2 23 4q11 2 29 3.5t41 1.5t40.5 -1.5t28.5 -3.5q13 -2 22 -4l-3 -400q-1 -32 -2.5 -61t-3.5 -51q-3 -26 -6 -48h4q6 21 16 47q8 22 19.5 50.5t26.5 61.5l183 401q9 2 20 4q10 2 23.5 3.5t30.5 1.5t29.5 -1.5t22.5 -3.5q11 -2 20 -4l-322 -702
q-12 -3 -27 -5q-13 -2 -31.5 -3t-41.5 -1q-24 0 -43 1t-32 3q-15 2 -26 5z" />
    <glyph glyph-name="Wgrave" unicode="&#x1e80;" horiz-adv-x="984" 
d="M471 888q10 13 27 23.5t36.5 17.5t40 10t38.5 1l60 -147q-18 -19 -43 -29t-52 -15zM536 392q1 40 3.5 73t5.5 57q4 28 8 50h-5q-6 -22 -15 -50l-19 -57t-28 -73l-159 -383q-18 -4 -47.5 -6.5t-59.5 -2.5t-56 2.5t-42 6.5l-22 702q10 2 22 4q11 2 26 3.5t35 1.5
q19 0 32.5 -1.5t22.5 -3.5q11 -2 18 -4l12 -400q0 -29 -1 -57.5t-3 -51.5q-2 -26 -3 -51h4l17 50l18 51t23 58l168 401q9 2 23 4q11 2 29 3.5t41 1.5t40.5 -1.5t28.5 -3.5q13 -2 22 -4l-3 -400q-1 -32 -2.5 -61t-3.5 -51q-3 -26 -6 -48h4q6 21 16 47q8 22 19.5 50.5
t26.5 61.5l183 401q9 2 20 4q10 2 23.5 3.5t30.5 1.5t29.5 -1.5t22.5 -3.5q11 -2 20 -4l-322 -702q-12 -3 -27 -5q-13 -2 -31.5 -3t-41.5 -1q-24 0 -43 1t-32 3q-15 2 -26 5z" />
    <glyph glyph-name="X" unicode="X" horiz-adv-x="642" 
d="M534 711q20 5 45 7t48 2q44 0 82 -9l-273 -339l144 -361q-11 -3 -24 -6q-12 -2 -28.5 -3.5t-38.5 -1.5t-36.5 1.5t-23.5 3.5q-11 2 -17 5l-103 241l-188 -243q-9 -2 -21 -3.5t-25 -2.5t-26.5 -1.5t-23.5 -0.5q-25 0 -48 1.5t-41 6.5l300 374l-125 329q10 2 24 4
q12 2 30 3.5t41 1.5q20 0 34.5 -1.5t24.5 -3.5q11 -2 18 -4l84 -207l167 207v0z" />
    <glyph glyph-name="Y" unicode="Y" horiz-adv-x="647" 
d="M553 711q13 2 28 4q13 2 29.5 3.5t36.5 1.5t35 -1.5t26 -3.5l23 -4l-333 -426l-59 -276q-9 -3 -21 -5q-11 -2 -25.5 -3t-33.5 -1q-22 0 -36.5 1t-24.5 3q-11 2 -18 5l58 275l-145 427q11 2 25 4q12 2 30 3.5t41 1.5q20 0 34.5 -1.5t23.5 -3.5q11 -2 17 -4l88 -261
l201 261v0z" />
    <glyph glyph-name="Yacute" unicode="&#xdd;" horiz-adv-x="648" 
d="M460 942q19 2 38 -1.5t35.5 -10.5t29 -17.5t17.5 -22.5l-167 -140q-25 5 -45 15.5t-30 28.5zM555 711q12 2 27 4q13 2 29.5 3.5t36.5 1.5q19 0 34.5 -1.5t26.5 -3.5q13 -2 23 -4l-333 -426l-59 -276q-9 -3 -21 -5q-11 -2 -25.5 -3t-33.5 -1q-22 0 -36.5 1t-24.5 3
q-11 2 -18 5l58 275l-146 427q10 2 25 4q12 2 30.5 3.5t41.5 1.5q20 0 34.5 -1.5t24.5 -3.5q11 -2 18 -4l88 -261z" />
    <glyph glyph-name="Ycircumflex" unicode="&#x176;" horiz-adv-x="647" 
d="M616 818q-17 -23 -37.5 -41t-45.5 -27l-92 67l-119 -66q-21 9 -35 26.5t-19 40.5l183 132h36zM555 711q12 2 27 4q13 2 29 3.5t36 1.5q19 0 34.5 -1.5t26.5 -3.5q13 -2 23 -4l-333 -426l-59 -276q-9 -3 -21 -5q-11 -2 -25.5 -3t-33.5 -1q-22 0 -36.5 1t-24.5 3
q-11 2 -18 5l58 275l-145 427q11 2 25 4q12 2 30 3.5t41 1.5q20 0 34.5 -1.5t24.5 -3.5q11 -2 19 -4l88 -261z" />
    <glyph glyph-name="Ydieresis" unicode="&#x178;" horiz-adv-x="648" 
d="M281 893q7 1 17 3q8 2 20.5 3t29.5 1q16 0 28.5 -1t20.5 -3q10 -2 16 -3l-25 -115q-7 -2 -17 -4q-17 -3 -50 -3t-49 3q-10 2 -16 4zM478 893q7 1 17 3q8 2 20.5 3t29.5 1q16 0 28 -1t20 -3q10 -2 17 -3l-25 -115q-8 -2 -18 -4q-18 -3 -49 -3q-33 0 -49 3q-10 2 -16 4z
M553 711q13 2 28 4q13 2 30 3.5t37 1.5q19 0 34.5 -1.5t26.5 -3.5q13 -2 23 -4l-333 -426l-59 -276q-9 -3 -21 -5q-11 -2 -25.5 -3t-33.5 -1q-22 0 -36.5 1t-24.5 3q-11 2 -18 5l58 275l-146 427q10 2 25 4q12 2 30.5 3.5t41.5 1.5q20 0 34.5 -1.5t23.5 -3.5q11 -2 17 -4
l88 -261z" />
    <glyph glyph-name="Ygrave" unicode="&#x1ef2;" horiz-adv-x="648" 
d="M496 793q-18 -19 -43 -29t-52 -15l-107 139q10 13 27 23.5t36.5 17.5t40 10t38.5 1zM554 711q13 2 28 4q13 2 29.5 3.5t36.5 1.5q19 0 34.5 -1.5t26.5 -3.5q13 -2 23 -4l-333 -426l-59 -276q-9 -3 -21 -5q-11 -2 -25.5 -3t-33.5 -1q-22 0 -36.5 1t-24.5 3q-11 2 -18 5
l58 275l-146 427q10 2 25 4q12 2 30.5 3.5t41.5 1.5q20 0 34.5 -1.5t23.5 -3.5q11 -2 18 -4l88 -261z" />
    <glyph glyph-name="Z" unicode="Z" horiz-adv-x="609" 
d="M645 720q5 -27 -3 -62q-7 -37 -25 -69l-436 -457h352q2 -31 -6 -64q-4 -18 -9 -35t-13 -33h-534q-2 16 -0.5 33.5t4.5 34.5q4 17 10 33.5t14 30.5l430 457h-305q-2 33 6 69q6 31 22 62h493z" />
    <glyph glyph-name="Zacute" unicode="&#x179;" horiz-adv-x="609" 
d="M448 942q19 2 38 -1.5t35.5 -10.5t29 -17.5t17.5 -22.5l-167 -140q-25 5 -45 15.5t-30 28.5zM645 720q5 -27 -3 -62q-7 -37 -25 -69l-436 -457h352q2 -31 -6 -64q-4 -18 -9 -35t-13 -33h-534q-2 16 -0.5 33.5t4.5 34.5q4 17 10 33.5t14 30.5l430 457h-305q-2 33 6 69
q6 31 22 62h493z" />
    <glyph glyph-name="Zcaron" unicode="&#x17d;" horiz-adv-x="609" 
d="M552 949q20 -9 33.5 -26.5t19.5 -40.5l-183 -128h-36l-130 128q17 23 38 41t45 27l93 -67zM645 720q5 -27 -3 -62q-7 -37 -25 -69l-436 -457h352q2 -31 -6 -64q-4 -18 -9 -35t-13 -33h-534q-2 16 -0.5 33.5t4.5 34.5q4 17 10 33.5t14 30.5l430 457h-305q-2 33 6 69
q6 31 22 62h493z" />
    <glyph glyph-name="Zdotaccent" unicode="&#x17b;" horiz-adv-x="610" 
d="M387 936q9 2 22 3t31 1q17 0 30 -1t21 -3q10 -2 17 -3l-27 -128q-8 -2 -19 -4q-18 -3 -53 -3t-51 3q-10 2 -16 4l27 128zM645 720q2 -13 1.5 -29t-4.5 -33q-4 -19 -10.5 -36.5t-14.5 -32.5l-437 -457h353q0 -14 -1.5 -30.5t-5.5 -33.5q-8 -37 -21 -68h-535q-2 16 0 33.5
t5 34.5q8 37 23 64l430 457h-305q0 16 1.5 33.5t5.5 35.5q3 17 8.5 32.5t12.5 29.5h494z" />
    <glyph glyph-name="_0020" horiz-adv-x="0" 
 />
    <glyph glyph-name="_375" horiz-adv-x="646" 
d="M249 712q34 8 76 8q41 0 75 -8l102 -633q-24 -48 -66 -79h-531q-36 32 -33 78zM276 524l-33.5 -66.5l-36.5 -68.5l-156 -268h284l-42 269q-5 30 -8 67t-4 67h-4z" />
    <glyph glyph-name="_376" horiz-adv-x="700" 
d="M247 0q-5 27 2.5 63.5t24.5 64.5q23 18 44.5 41.5t40.5 54t34.5 69t26.5 87.5q14 68 13.5 112t-13.5 69.5t-37.5 35.5t-57.5 10t-61.5 -10t-52.5 -35.5t-43 -69.5t-33 -112q-11 -49 -11.5 -87.5t5.5 -69t17.5 -54t26.5 -41.5q4 -28 -3.5 -63t-23.5 -65h-267
q-3 14 -2.5 30t3.5 33q4 17 10 33.5t16 31.5h96q-27 46 -36.5 108.5t7.5 143.5q19 92 54 158.5t83.5 109t109 62.5t131.5 20t123 -20t82.5 -62.5t37.5 -109t-12 -158.5q-17 -81 -54.5 -143.5t-83.5 -108.5h97q3 -32 -3 -64q-4 -17 -10 -33t-14 -31h-267z" />
    <glyph glyph-name="a" unicode="a" 
d="M407 523q6 1 16 3q8 1 20.5 2t31.5 1q18 0 32 -1t23 -2q11 -2 19 -3l-109 -515q-9 -2 -20 -4q-10 -2 -23 -3t-28 -1q-16 0 -28.5 1t-21.5 3q-11 2 -18 4l1 41q-26 -28 -61 -43.5t-83 -15.5q-42 0 -73.5 16.5t-49 51t-20 89t14.5 131.5q16 76 40 126.5t54.5 80.5t68 42
t81.5 12t71.5 -11t46.5 -40zM355 336q7 36 -7 59.5t-47 23.5q-20 0 -36.5 -6.5t-30.5 -24t-25.5 -48t-21.5 -78.5q-10 -46 -11 -75.5t5 -46.5t20 -23.5t34 -6.5q34 0 58 24t32 60z" />
    <glyph glyph-name="aacute" unicode="&#xe1;" 
d="M373 776q19 2 38 -1t35.5 -10t29 -17.5t17.5 -23.5l-166 -139q-25 5 -46 15t-30 29zM407 530q6 1 16 3q8 1 21 2t32 1q18 0 32 -1t23 -3q11 -2 19 -4l-110 -520q-9 -2 -20 -4q-10 -2 -23 -3t-28 -1q-16 0 -28.5 1t-21.5 3q-11 2 -18 4l1 41q-26 -28 -61 -43.5t-83 -15.5
q-42 0 -73.5 16.5t-49 51t-20 89t14.5 131.5q16 76 40 126.5t54.5 80.5t68 42.5t81.5 12.5t71.5 -11.5t46.5 -40.5zM355 336q7 36 -7 59.5t-47 23.5q-20 0 -36.5 -6.5t-30.5 -24t-25.5 -48t-21.5 -78.5q-10 -46 -11 -75.5t5 -46.5t20 -23.5t34 -6.5q34 0 58 24t32 60z" />
    <glyph glyph-name="abreve" unicode="&#x103;" 
d="M363 710q25 0 46 4.5t35 9.5q17 6 30 14q20 -9 33 -28t16 -41q-18 -20 -44 -36q-22 -14 -54.5 -25t-76.5 -11t-74.5 11t-50.5 25q-23 16 -37 36q12 22 33 41t45 28q10 -8 24 -14q12 -5 30.5 -9.5t44.5 -4.5zM407 530q6 1 16 3q8 1 21 2t32 1q18 0 32 -1t23 -3
q11 -2 19 -4l-110 -520q-9 -2 -20 -4q-10 -2 -23 -3t-28 -1q-16 0 -28.5 1t-21.5 3q-11 2 -18 4l1 41q-26 -28 -61 -43.5t-83 -15.5q-42 0 -73.5 16.5t-49 51t-20 89t14.5 131.5q16 76 40 126.5t54.5 80.5t68 42.5t81.5 12.5t71.5 -11.5t46.5 -40.5zM355 336q7 36 -7 59.5
t-47 23.5q-20 0 -36.5 -6.5t-30.5 -24t-25.5 -48t-21.5 -78.5q-10 -46 -11 -75.5t5 -46.5t20 -23.5t34 -6.5q34 0 58 24t32 60z" />
    <glyph glyph-name="acircumflex" unicode="&#xe2;" 
d="M528 658q-16 -22 -37 -40t-44 -26l-90 65l-117 -64q-21 8 -34 25.5t-19 39.5l176 119h35zM407 530q6 1 16 3q8 1 21 2t32 1q18 0 32 -1t23 -3q11 -2 19 -4l-110 -520q-9 -2 -20 -4q-10 -2 -23 -3t-28 -1q-16 0 -28.5 1t-21.5 3q-11 2 -18 4l1 41q-26 -28 -61 -43.5
t-83 -15.5q-42 0 -73.5 16.5t-49 51t-20 89t14.5 131.5q16 76 40 126.5t54.5 80.5t68 42.5t81.5 12.5t71.5 -11.5t46.5 -40.5zM355 336q7 36 -7 59.5t-47 23.5q-20 0 -36.5 -6.5t-30.5 -24t-25.5 -48t-21.5 -78.5q-10 -46 -11 -75.5t5 -46.5t20 -23.5t34 -6.5q34 0 58 24
t32 60z" />
    <glyph glyph-name="acute" unicode="&#xb4;" horiz-adv-x="224" 
d="M70 628q-25 5 -46 15t-30 29l122 147q19 2 38 -1t35.5 -10t29 -17.5t17.5 -23.5z" />
    <glyph glyph-name="adieresis" unicode="&#xe4;" 
d="M222 717q6 1 17 3q8 2 21 3t30 1q16 0 28 -1t20 -3q10 -2 16 -3l-24 -115q-7 -2 -18 -4q-18 -3 -50 -3t-48 3q-10 2 -16 4zM419 717q6 1 17 3q8 2 21 3t30 1q16 0 28 -1t20 -3q10 -2 16 -3l-24 -115q-7 -2 -18 -4q-18 -3 -50 -3q-34 0 -49 3q-10 2 -15 4zM407 530
q6 1 16 3q8 1 21 2t32 1q18 0 32 -1t23 -3q11 -2 19 -4l-110 -520q-9 -2 -20 -4q-10 -2 -23 -3t-28 -1q-16 0 -28.5 1t-21.5 3q-11 2 -18 4l1 41q-26 -28 -61 -43.5t-83 -15.5q-42 0 -73.5 16.5t-49 51t-20 89t14.5 131.5q16 76 40 126.5t54.5 80.5t68 42.5t81.5 12.5
t71.5 -11.5t46.5 -40.5zM355 336q7 36 -7 59.5t-47 23.5q-20 0 -36.5 -6.5t-30.5 -24t-25.5 -48t-21.5 -78.5q-10 -46 -11 -75.5t5 -46.5t20 -23.5t34 -6.5q34 0 58 24t32 60z" />
    <glyph glyph-name="ae" unicode="&#xe6;" horiz-adv-x="786" 
d="M630 540q82 0 118 -50.5t13 -158.5q-5 -23 -11 -43t-11 -34q-6 -17 -12 -31h-270q-6 -60 16.5 -86t67.5 -26q22 0 42 3t34 8q17 5 31 12q15 -15 22 -42t2 -57q-15 -13 -36 -23q-19 -8 -47 -15t-68 -7t-66 14.5t-41 38.5l-11 -36q-6 -2 -15 -4q-15 -3 -46 -3
q-16 0 -27.5 1t-19.5 3q-10 2 -16 4l3 41q-26 -28 -57.5 -43.5t-79.5 -15.5q-38 0 -67 16t-45 50.5t-17.5 88.5t15.5 131q16 76 39.5 127t53.5 81.5t65 43t75 12.5q43 0 66 -11.5t42 -40.5l15 42l15 3q8 1 20.5 2t31.5 1q18 0 29.5 -1t18.5 -3l12 -3l-4 -33q29 23 60 33.5
t60 10.5zM612 318q1 5 3 9t2.5 9t2.5 10q7 35 -0.5 58.5t-41.5 23.5q-30 0 -56 -24t-45 -86h135zM335 336q7 36 -2 59.5t-42 23.5q-17 0 -31.5 -6.5t-27 -24t-24 -48t-21.5 -78.5q-10 -46 -11.5 -75.5t4 -46.5t17 -23.5t28.5 -6.5q34 0 53 24t27 60z" />
    <glyph glyph-name="aeacute" unicode="&#x1fd;" horiz-adv-x="785" 
d="M448 585q-25 5 -45.5 15t-29.5 29l122 147q19 2 38 -1t35.5 -10t29 -17.5t17.5 -23.5zM629 540q82 0 118 -50.5t13 -158.5q-5 -23 -11 -43t-11 -34q-6 -17 -12 -31h-270q-6 -60 16.5 -86t67.5 -26q22 0 42 3t34 8q17 5 31 12q15 -15 22 -42t2 -57q-15 -13 -36 -23
q-19 -8 -47 -15t-68 -7t-66 14.5t-41 38.5l-11 -36q-6 -2 -15 -4q-15 -3 -46 -3q-16 0 -27.5 1t-19.5 3q-10 2 -16 4l3 41q-26 -28 -57.5 -43.5t-79.5 -15.5q-38 0 -67 16t-45 50.5t-17.5 88.5t15.5 131q16 76 39.5 127t53.5 81.5t65 43t75 12.5q43 0 66 -11.5t42 -40.5
l15 42l15 3q8 1 20.5 2t31.5 1q18 0 29.5 -1t18.5 -3l12 -3l-4 -33q29 23 60 33.5t60 10.5zM611 318q1 5 3 9t2.5 9t2.5 10q7 35 -0.5 58.5t-41.5 23.5q-30 0 -56 -24t-45 -86h135zM334 336q7 36 -2 59.5t-42 23.5q-17 0 -31.5 -6.5t-27 -24t-24 -48t-21.5 -78.5
q-10 -46 -11.5 -75.5t4 -46.5t17 -23.5t28.5 -6.5q34 0 53 24t27 60z" />
    <glyph glyph-name="agrave" unicode="&#xe0;" 
d="M420 629q-18 -19 -42.5 -29t-52.5 -15l-107 139q10 13 27 23.5t36.5 17.5t40 10t38.5 1zM407 530q6 1 16 3q8 1 21 2t32 1q18 0 32 -1t23 -3q11 -2 19 -4l-110 -520q-9 -2 -20 -4q-10 -2 -23 -3t-28 -1q-16 0 -28.5 1t-21.5 3q-11 2 -18 4l1 41q-26 -28 -61 -43.5
t-83 -15.5q-42 0 -73.5 16.5t-49 51t-20 89t14.5 131.5q16 76 40 126.5t54.5 80.5t68 42.5t81.5 12.5t71.5 -11.5t46.5 -40.5zM355 336q7 36 -7 59.5t-47 23.5q-20 0 -36.5 -6.5t-30.5 -24t-25.5 -48t-21.5 -78.5q-10 -46 -11 -75.5t5 -46.5t20 -23.5t34 -6.5q34 0 58 24
t32 60z" />
    <glyph glyph-name="amacron" unicode="&#x101;" 
d="M526 701q2 -18 -3.5 -42t-14.5 -44h-303q0 21 5 45t13 41h303zM407 530q6 1 16 3q8 1 21 2t32 1q18 0 32 -1t23 -3q11 -2 19 -4l-110 -520q-9 -2 -20 -4q-10 -2 -23 -3t-28 -1q-16 0 -28.5 1t-21.5 3q-11 2 -18 4l1 41q-26 -28 -61 -43.5t-83 -15.5q-42 0 -73.5 16.5
t-49 51t-20 89t14.5 131.5q16 76 40 126.5t54.5 80.5t68 42.5t81.5 12.5t71.5 -11.5t46.5 -40.5zM355 336q7 36 -7 59.5t-47 23.5q-20 0 -36.5 -6.5t-30.5 -24t-25.5 -48t-21.5 -78.5q-10 -46 -11 -75.5t5 -46.5t20 -23.5t34 -6.5q34 0 58 24t32 60z" />
    <glyph glyph-name="ampersand" unicode="&#x26;" horiz-adv-x="647" 
d="M399 690q77 0 115.5 -34t25.5 -97q-8 -36 -27 -66t-46 -54.5t-59 -45.5t-65 -40q15 -32 37 -63.5t50 -61.5q16 19 29.5 39.5l26.5 41.5q33 1 59.5 -13t37.5 -37q-14 -20 -33 -44t-44 -50q44 -31 97 -55q-5 -18 -15.5 -35.5t-24 -32.5t-29 -26t-30.5 -17q-64 27 -115 65
q-17 -12 -39 -25t-50 -24t-61 -18t-71 -7q-41 0 -76.5 10t-59.5 31t-34 54t0 78q9 42 31 75.5t49.5 60t56 45t50.5 30.5q-8 40 -8.5 78t6.5 72q16 74 69 120t147 46zM373 599q-21 0 -36.5 -15t-22.5 -48q-9 -46 1 -95q34 22 58.5 48t32.5 65q4 20 -4 32.5t-29 12.5zM213 103
q32 0 58 9t44 19q-32 35 -57 73t-42 79q-22 -17 -44 -41.5t-29 -58.5q-8 -36 11.5 -58t58.5 -22z" />
    <glyph glyph-name="aogonek" unicode="&#x105;" horiz-adv-x="559" 
d="M407 523q6 1 16 3q8 1 20.5 2t31.5 1q18 0 32 -1t23 -2q11 -2 19 -3l-109 -515q-19 -12 -37 -30t-32 -37.5t-22 -38t-8 -30.5q2 -34 46 -14q5 -6 8.5 -16.5t5 -22.5t1 -24t-2.5 -20q-20 -12 -50 -18.5t-61 -6.5q-47 0 -66.5 22.5t-19.5 52.5q0 45 31.5 89t86.5 86l-18 49
q-26 -28 -61 -43.5t-83 -15.5q-42 0 -73.5 16.5t-49 51t-20 89t14.5 131.5q16 76 40 126.5t54.5 80.5t68 42t81.5 12t71.5 -11t46.5 -40zM355 336q7 36 -7 59.5t-47 23.5q-20 0 -36.5 -6.5t-30.5 -24t-25.5 -48t-21.5 -78.5q-10 -46 -11 -75.5t5 -46.5t20 -23.5t34 -6.5
q34 0 58 24t32 60z" />
    <glyph glyph-name="approxequal" unicode="&#x2248;" horiz-adv-x="521" 
d="M190 347q-18 0 -31.5 -5.5t-23.5 -12.5q-11 -8 -20 -18q-23 10 -37 29t-14 45q16 20 37 36q18 14 44.5 25.5t61.5 11.5q28 0 47 -8t35.5 -17.5t33 -17.5t40.5 -8q17 0 30.5 5t23.5 12q11 8 20 18q24 -9 38 -28.5t13 -45.5q-15 -20 -36 -36q-18 -14 -45 -25t-62 -11
q-28 0 -47 8t-35.5 17.5t-33 17.5t-39.5 8zM151 163q-18 0 -31.5 -5.5t-23.5 -12.5q-11 -8 -20 -17q-23 9 -37 28.5t-14 45.5q16 20 37 36q18 14 44.5 25.5t61.5 11.5q28 0 47.5 -8t35.5 -17.5t33 -17.5t41 -8q17 0 30.5 5t23.5 12q11 8 19 18q24 -9 38.5 -28.5t12.5 -45.5
q-15 -21 -36 -37q-18 -14 -45 -25t-62 -11q-28 0 -47 8t-35.5 17.5t-33 17.5t-39.5 8z" />
    <glyph glyph-name="aring" unicode="&#xe5;" 
d="M238 699q5 29 20 51t37 37t48 22.5t53 7.5q26 0 49.5 -7.5t40.5 -22t25 -36.5t4 -52q-5 -29 -20.5 -51.5t-37 -38t-48.5 -23.5t-55 -8q-29 0 -53 8t-39.5 23.5t-22 38t-1.5 51.5zM424 699q3 17 -6.5 29.5t-34.5 12.5q-23 0 -37.5 -13t-17.5 -29q-4 -17 5.5 -29.5
t32.5 -12.5q25 0 39.5 13t18.5 29zM407 530q6 1 16 3q8 1 21 2t32 1q18 0 32 -1t23 -3q11 -2 19 -4l-110 -520q-9 -2 -20 -4q-10 -2 -23 -3t-28 -1q-16 0 -28.5 1t-21.5 3q-11 2 -18 4l1 41q-26 -28 -61 -43.5t-83 -15.5q-42 0 -73.5 16.5t-49 51t-20 89t14.5 131.5
q16 76 40 126.5t54.5 80.5t68 42.5t81.5 12.5t71.5 -11.5t46.5 -40.5zM355 336q7 36 -7 59.5t-47 23.5q-20 0 -36.5 -6.5t-30.5 -24t-25.5 -48t-21.5 -78.5q-10 -46 -11 -75.5t5 -46.5t20 -23.5t34 -6.5q34 0 58 24t32 60z" />
    <glyph glyph-name="aringacute" unicode="&#x1fb;" 
d="M427 975q18 1 36 -1t33.5 -7.5t27.5 -13.5t18 -17l-150 -103q-24 3 -43.5 10.5t-29.5 21.5zM235 692q5 30 20 53.5t37 39t48 23.5t52 8q25 0 48.5 -8t40 -23.5t24.5 -38.5t3 -54t-20 -54.5t-37 -39.5t-48.5 -24.5t-54.5 -8.5q-29 0 -52 8.5t-38.5 24.5t-21.5 40t-1 54z
M419 692q4 17 -5 31t-34 14q-24 0 -39 -14t-19 -31t5 -31.5t33 -14.5q25 0 40 14.5t19 31.5zM407 530q6 1 16 3q8 1 21 2t32 1q18 0 32 -1t23 -3q11 -2 19 -4l-110 -520q-9 -2 -20 -4q-10 -2 -23 -3t-28 -1q-16 0 -28.5 1t-21.5 3q-11 2 -18 4l1 41q-26 -28 -61 -43.5
t-83 -15.5q-42 0 -73.5 16.5t-49 51t-20 89t14.5 131.5q16 76 40 126.5t54.5 80.5t68 42.5t81.5 12.5t71.5 -11.5t46.5 -40.5zM355 336q7 36 -7 59.5t-47 23.5q-20 0 -36.5 -6.5t-30.5 -24t-25.5 -48t-21.5 -78.5q-10 -46 -11 -75.5t5 -46.5t20 -23.5t34 -6.5q34 0 58 24
t32 60z" />
    <glyph glyph-name="arrowdown" unicode="&#x2193;" horiz-adv-x="520" 
d="M278 630q13 3 25.5 5t26.5 2q13 0 26 -1.5t24 -5.5l-85 -398l153 128q20 -8 33.5 -23.5t16.5 -35.5l-290 -238l-188 238q11 19 31 35t42 24l100 -128l85 398v0z" />
    <glyph glyph-name="arrowleft" unicode="&#x2190;" horiz-adv-x="624" 
d="M318 589q18 -7 31 -24t15 -37l-155 -127h398q2 -12 0.5 -24.5t-4.5 -26.5q-5 -26 -17 -51h-398l101 -126q-12 -21 -32 -38t-40 -24l-188 239z" />
    <glyph glyph-name="arrowright" unicode="&#x2192;" horiz-adv-x="623" 
d="M324 111q-18 7 -30.5 24t-15.5 38l155 126h-398q-2 25 3 51q6 27 18 51h398l-101 127q12 20 31.5 37t40.5 24l187 -239z" />
    <glyph glyph-name="arrowup" unicode="&#x2191;" horiz-adv-x="520" 
d="M519 399q-11 -20 -31.5 -36t-43.5 -23l-99 127l-84 -397q-13 -4 -26.5 -5.5t-26.5 -1.5q-28 0 -49 7l84 397l-154 -127q-19 8 -32.5 24t-15.5 35l289 238z" />
    <glyph glyph-name="asciicircum" unicode="^" horiz-adv-x="533" 
d="M539 449q-8 -2 -18 -4q-17 -3 -45 -3q-30 0 -46 3q-10 2 -18 4l-78 165l-147 -165q-9 -2 -20 -4q-18 -3 -47 -3q-28 0 -44 3q-10 2 -17 4l238 264q6 1 16 3q8 2 19 3t25 1t24.5 -1t18.5 -3q9 -2 16 -3z" />
    <glyph glyph-name="asciitilde" unicode="~" horiz-adv-x="510" 
d="M162 245q-18 0 -31.5 -5.5t-23.5 -12.5q-11 -8 -19 -17q-24 9 -37.5 28.5t-13.5 45.5q16 20 37 36q18 14 44.5 25.5t61.5 11.5q28 0 47 -8t35.5 -17.5t33 -17.5t40.5 -8q17 0 30.5 5t23.5 12q11 8 19 18q25 -9 39 -28.5t13 -45.5q-16 -21 -37 -37q-18 -14 -44.5 -25
t-61.5 -11q-29 0 -48 8t-35.5 17.5t-33 17.5t-39.5 8z" />
    <glyph glyph-name="asterisk" unicode="*" horiz-adv-x="327" 
d="M212 715q20 6 39 5.5t36 -6.5l-16 -72l76 22q8 -13 9.5 -31.5t-3.5 -38.5l-74 -23l32 -61q-14 -13 -33 -25t-39 -17l-29 59l-55 -59q-18 5 -32 17t-22 25l56 60l-63 24q5 20 14 38.5t24 31.5l64 -22z" />
    <glyph glyph-name="at" unicode="@" horiz-adv-x="911" 
d="M868 303q-11 -54 -34 -94.5t-54.5 -68t-70 -41.5t-80.5 -14q-55 0 -86.5 14.5t-42.5 40.5q-23 -26 -56.5 -40.5t-83.5 -14.5q-35 0 -61.5 10t-42 32.5t-19 59.5t8.5 91q12 55 31 92t44 59.5t55.5 32.5t65.5 10q74 0 103 -32l6 27q5 2 15 5q8 2 20 3.5t29 1.5t28 -1.5
t18 -3.5l13 -5l-50 -236q-5 -26 1.5 -39t29.5 -13q33 0 57 29t38 95q14 65 7 118t-35 90t-75.5 57t-114.5 20q-71 0 -131.5 -20.5t-108 -60t-80 -97t-48.5 -131.5q-17 -83 -4 -140t47.5 -92t85 -51t109.5 -16q63 0 130.5 16t133.5 50q17 -9 23.5 -29.5t4.5 -43.5
q-84 -49 -162 -70.5t-156 -21.5q-80 0 -150.5 27.5t-119 81t-68 131.5t1.5 180q20 96 67.5 167.5t115 119t152 71.5t177.5 24t161 -27t108.5 -76.5t52.5 -119.5t-6 -157zM379 278q-14 -62 -2 -83.5t48 -21.5q28 0 49 17t29 49l17 82q5 32 -9 48t-41 16q-18 0 -32 -4.5
t-24.5 -16.5t-19 -32.5t-15.5 -53.5z" />
    <glyph glyph-name="atilde" unicode="&#xe3;" 
d="M197 681q12 14 28 25q14 10 33.5 18t43.5 8t40.5 -5t30.5 -11t28 -11t32 -5q13 0 23.5 4t18.5 9q9 5 16 13q19 -11 28 -32.5t6 -44.5q-11 -15 -27 -26q-14 -10 -33 -17.5t-44 -7.5q-24 0 -41 5t-30.5 11t-27.5 11t-32 5q-13 0 -23.5 -4t-18.5 -9q-9 -6 -16 -13
q-41 26 -35 77zM407 530q6 1 16 3q8 1 21 2t32 1q18 0 32 -1t23 -3q11 -2 19 -4l-110 -520q-9 -2 -20 -4q-10 -2 -23 -3t-28 -1q-16 0 -28.5 1t-21.5 3q-11 2 -18 4l1 41q-26 -28 -61 -43.5t-83 -15.5q-42 0 -73.5 16.5t-49 51t-20 89t14.5 131.5q16 76 40 126.5t54.5 80.5
t68 42.5t81.5 12.5t71.5 -11.5t46.5 -40.5zM355 336q7 36 -7 59.5t-47 23.5q-20 0 -36.5 -6.5t-30.5 -24t-25.5 -48t-21.5 -78.5q-10 -46 -11 -75.5t5 -46.5t20 -23.5t34 -6.5q34 0 58 24t32 60z" />
    <glyph glyph-name="b" unicode="b" horiz-adv-x="562" 
d="M248 488q26 25 60 38.5t79 13.5q42 0 73.5 -16t48.5 -50.5t19 -89.5t-14 -132t-40.5 -127.5t-55.5 -80.5t-68.5 -42t-79.5 -12q-45 0 -73 13t-45 37l-6 -32q-10 -2 -22 -4q-11 -2 -25.5 -3t-32.5 -1q-19 0 -32.5 1t-22.5 3q-11 2 -19 4l156 734q9 2 20 4q10 2 24 3t33 1
q18 0 32.5 -1t24.5 -3q11 -2 20 -4zM353 264q10 47 11.5 77t-5 47.5t-20 24t-33.5 6.5q-33 0 -58 -24.5t-34 -66.5l-28 -128q-8 -42 6.5 -66t47.5 -24q20 0 36.5 6.5t30 23.5t25 47t21.5 77z" />
    <glyph glyph-name="backslash" unicode="\" horiz-adv-x="525" 
d="M435 -38q-11 -3 -23 -5q-11 -2 -26 -3t-33 -1q-17 0 -31 1t-24 3q-11 2 -21 5l-168 779q10 2 23 4q11 2 26 3.5t33 1.5q17 0 31.5 -1.5t24.5 -3.5q11 -2 20 -4z" />
    <glyph glyph-name="bar" unicode="|" horiz-adv-x="308" 
d="M176 782q9 2 21 4q11 2 25.5 3t34.5 1q18 0 32 -1t24 -3l21 -4l-206 -971l-23 -4q-11 -2 -25.5 -3t-32.5 -1q-20 0 -34 1t-24 3q-11 2 -19 4l206 971v0z" />
    <glyph glyph-name="braceleft" unicode="{" horiz-adv-x="375" 
d="M449 810q2 -12 0 -26.5t-5 -29.5q-6 -30 -19 -56h-48q-26 0 -40 -13t-19 -36l-43 -201q-8 -37 -26.5 -66t-47.5 -47q22 -18 28 -47t-2 -67l-43 -201q-5 -23 4 -36t35 -13h48q2 -26 -6 -58q-6 -32 -18 -54h-105q-69 0 -96.5 38.5t-13.5 101.5l49 231q5 23 -4 36t-35 13
h-26q-2 11 -0.5 26t4.5 30t8.5 29.5t11.5 25.5h26q26 0 40 13t19 36l49 231q14 63 57.5 101.5t112.5 38.5h105z" />
    <glyph glyph-name="braceright" unicode="}" horiz-adv-x="375" 
d="M245 810q69 0 96.5 -38.5t13.5 -101.5l-49 -231q-5 -23 4 -36t35 -13h26q2 -11 0.5 -25.5t-4.5 -29.5t-8 -30t-12 -26h-26q-26 0 -40 -13t-19 -36l-49 -231q-14 -63 -57.5 -101.5t-112.5 -38.5h-105q-2 11 -0.5 25t4.5 29q4 16 8.5 30.5t11.5 27.5h48q26 0 40 13t19 36
l43 201q8 38 26 67t48 47q-23 18 -28.5 47t2.5 66l43 201q5 23 -4 36t-35 13h-48q0 12 1 26.5t4 29.5q6 30 19 56h105z" />
    <glyph glyph-name="bracketleft" unicode="[" horiz-adv-x="343" 
d="M418 810v-14q0 -7 -1 -17.5t-4 -24.5q-6 -28 -12 -41q-4 -8 -6 -13h-90l-162 -760h90q1 -6 1 -14q0 -7 -1.5 -17l-3.5 -24q-3 -14 -6.5 -24t-6.5 -17q-4 -8 -6 -14h-234l208 980h234z" />
    <glyph glyph-name="bracketright" unicode="]" horiz-adv-x="344" 
d="M-68 -170q-1 6 -1 14q0 12 6 41q2 14 5.5 24t6.5 17q4 8 6 14h90l162 760h-90q-1 5 -1 13q0 7 1 17t4 24t6 24.5t6 17.5l7 14h234l-208 -980h-234z" />
    <glyph glyph-name="breve" unicode="&#x2d8;" horiz-adv-x="324" 
d="M317 663q-21 -21 -49 -37q-24 -14 -58 -25.5t-78 -11.5t-73.5 11.5t-46.5 25.5q-21 16 -32 37q12 22 33 41t45 28q10 -8 24 -14q12 -5 30.5 -9.5t44.5 -4.5q25 0 46 4.5t35 9.5q17 6 30 14q20 -9 33 -28t16 -41z" />
    <glyph glyph-name="brokenbar" unicode="&#xa6;" horiz-adv-x="302" 
d="M174 786q9 2 21 4q11 2 25.5 3t34.5 1q18 0 32 -1t24 -3l21 -4l-91 -428l-23 -4q-11 -2 -25.5 -3t-32.5 -1q-20 0 -34 1t-24 3q-11 2 -19 4zM59 246q9 2 21 4q11 2 25.5 3t34.5 1q18 0 32 -1t24 -3l21 -4l-93 -439l-23 -4q-11 -2 -25.5 -3t-32.5 -1q-20 0 -34 1t-24 3
q-11 2 -19 4z" />
    <glyph glyph-name="bullet" unicode="&#x2022;" horiz-adv-x="364" 
d="M296 282q-6 -26 -19.5 -47.5t-32.5 -36.5t-42.5 -23.5t-48.5 -8.5q-51 0 -78.5 31.5t-16.5 84.5q6 27 19.5 48.5t33 37t43 24t49.5 8.5q51 0 77.5 -32t15.5 -86z" />
    <glyph glyph-name="c" unicode="c" horiz-adv-x="446" 
d="M322 418q-57 0 -88.5 -36t-48.5 -118q-17 -81 1.5 -114.5t75.5 -33.5q18 0 33.5 2t26.5 5l25 8q15 -18 20.5 -46.5t0.5 -59.5q-17 -10 -42 -18q-21 -7 -52 -12t-73 -5q-118 0 -161 66.5t-14 206.5q59 277 292 277q39 0 66 -5t44 -11q20 -7 33 -15q-7 -29 -25 -57.5
t-41 -47.5l-20 7l-23 4.5t-30 2.5z" />
    <glyph glyph-name="cacute" unicode="&#x107;" horiz-adv-x="446" 
d="M309 595q-24 5 -45 15t-30 29l122 147q19 2 38 -1t35.5 -10t29 -17.5t17.5 -23.5zM321 418q-56 0 -87.5 -36t-48.5 -118q-17 -81 1 -114.5t75 -33.5q18 0 33.5 2t27.5 5l25 8q15 -18 20.5 -46.5t0.5 -59.5q-18 -10 -43 -18q-21 -7 -52 -12t-72 -5q-118 0 -161.5 66.5
t-14.5 206.5q59 277 293 277q38 0 65.5 -5t44.5 -11q20 -7 33 -15q-8 -29 -25.5 -57.5t-40.5 -47.5l-20 7l-23.5 4.5t-30.5 2.5z" />
    <glyph glyph-name="caron" unicode="&#x2c7;" horiz-adv-x="404" 
d="M12 670q17 22 38 40.5t45 26.5l93 -66l119 65q21 -8 34.5 -26t19.5 -40l-184 -132h-36z" />
    <glyph glyph-name="ccaron" unicode="&#x10d;" horiz-adv-x="446" 
d="M196 717q14 20 33.5 37.5t42.5 25.5l84 -62l110 61q19 -8 31.5 -25t17.5 -37l-169 -122h-32zM321 418q-56 0 -87.5 -36t-48.5 -118q-17 -81 1 -114.5t75 -33.5q18 0 33.5 2t26.5 5l25 8q16 -18 21.5 -46.5t0.5 -59.5q-18 -10 -43 -18q-21 -7 -52 -12t-72 -5
q-118 0 -161.5 66.5t-14.5 206.5q59 277 292 277q39 0 66.5 -5t44.5 -11q20 -7 33 -15q-8 -29 -25.5 -57.5t-41.5 -47.5l-19 7l-23.5 4.5t-30.5 2.5z" />
    <glyph glyph-name="ccedilla" unicode="&#xe7;" horiz-adv-x="446" 
d="M201 -48q29 0 47 -7.5t27.5 -20.5t11 -31.5t-2.5 -39.5q-11 -52 -52 -77.5t-100 -25.5q-26 0 -45 3.5t-31 8.5q-15 5 -24 12q2 16 12.5 33t24.5 25q11 -5 27 -9t35 -4q23 -1 43.5 7t25.5 31q3 16 -5.5 25.5t-31.5 9.5h-52l-11 16l35 88q-80 18 -107 83.5t-2 183.5
q59 277 293 277q38 0 65.5 -5t44.5 -11q20 -7 33 -15q-8 -29 -25 -54.5t-40 -44.5q-9 3 -20 6l-23.5 4.5t-30.5 2.5q-57 0 -88.5 -38.5t-48.5 -120.5q-17 -81 0 -117.5t74 -36.5q18 0 33.5 2t27.5 5q14 4 26 8q30 -36 22 -100q-16 -9 -39 -16q-20 -6 -48 -12t-66 -7z" />
    <glyph glyph-name="ccircumflex" unicode="&#x109;" horiz-adv-x="446" 
d="M499 661q-14 -21 -34.5 -38.5t-43.5 -25.5l-89 64l-114 -63q-20 8 -33 25t-20 38l176 127h35zM321 418q-56 0 -87.5 -36t-48.5 -118q-17 -81 1 -114.5t75 -33.5q18 0 33.5 2t27.5 5l25 8q15 -18 20.5 -46.5t0.5 -59.5q-18 -10 -43 -18q-21 -7 -52 -12t-72 -5
q-118 0 -161.5 66.5t-14.5 206.5q59 277 293 277q38 0 65.5 -5t44.5 -11q20 -7 33 -15q-8 -29 -25.5 -57.5t-40.5 -47.5l-20 7l-23.5 4.5t-30.5 2.5z" />
    <glyph glyph-name="cdotaccent" unicode="&#x10b;" horiz-adv-x="446" 
d="M394 606q-8 -2 -19 -4q-9 -2 -22 -3t-30 -1q-18 0 -31 1t-21 3q-10 2 -16 4l26 125l18 3q9 2 22.5 3t31.5 1q17 0 29.5 -1t20.5 -3q10 -2 17 -3zM321 418q-56 0 -87.5 -36t-48.5 -118q-17 -81 1 -114.5t75 -33.5q18 0 33.5 2t27.5 5l25 8q15 -18 20.5 -46.5t0.5 -59.5
q-18 -10 -43 -18q-21 -7 -52 -12t-72 -5q-118 0 -161.5 66.5t-14.5 206.5q59 277 293 277q38 0 65.5 -5t44.5 -11q20 -7 33 -15q-8 -29 -25.5 -57.5t-40.5 -47.5l-20 7l-23.5 4.5t-30.5 2.5z" />
    <glyph glyph-name="cedilla" unicode="&#xb8;" horiz-adv-x="296" 
d="M31 35l-23 -58q58 0 75.5 -28t8.5 -71q-11 -52 -52 -77.5t-101 -25.5q-26 0 -45 3.5t-31 8.5q-15 5 -24 12q3 16 13.5 33t24.5 25q10 -5 27 -9t35 -4q24 -1 43.5 7t24.5 31q3 16 -5 25.5t-31 9.5h-53l-10 16l47 120z" />
    <glyph glyph-name="cent" unicode="&#xa2;" horiz-adv-x="462" 
d="M299 632q9 2 21 3.5t26 1.5q15 0 27 -1.5t20 -3.5l17 -5l-29 -93q23 -3 39 -7t27 -8t19 -10q-8 -29 -25 -54.5t-40 -44.5q-9 3 -20 6l-23.5 4.5t-30.5 2.5q-57 0 -88.5 -38.5t-48.5 -120.5q-17 -81 0 -117.5t74 -36.5q18 0 33.5 2t27.5 5q14 4 26 8q30 -36 22 -100
q-11 -7 -27 -12q-14 -5 -33.5 -10t-45.5 -8l-12 -96q-8 -3 -19 -5q-20 -5 -49 -5q-27 0 -45 5q-10 2 -18 5l29 95q-175 27 -123 269q51 244 238 272l11 92z" />
    <glyph glyph-name="circumflex" unicode="&#x2c6;" horiz-adv-x="396" 
d="M351 620q-17 -23 -38 -41t-46 -27l-91 67l-120 -66q-21 9 -35 26.5t-19 40.5l183 132h37z" />
    <glyph glyph-name="colon" unicode=":" horiz-adv-x="263" 
d="M223 375l-21 -4t-25 -3t-33 -1q-20 0 -34 1t-23 3q-11 2 -18 4l30 143q9 2 20 4q10 2 24.5 3t34.5 1q19 0 32.5 -1t23.5 -3q11 -2 19 -4zM145 8l-21 -4t-25 -3t-33 -1q-20 0 -34 1t-23 3q-11 2 -18 4l30 143q9 2 20 4q10 2 24.5 3t34.5 1q19 0 32.5 -1t23.5 -3
q11 -2 19 -4z" />
    <glyph glyph-name="comma" unicode="," horiz-adv-x="254" 
d="M-26 -110q13 12 24 29q10 14 20 34.5t18 46.5q-12 1 -21 2t-15 3l-12 3l30 143q9 2 21 4q11 2 25 3t33 1q18 0 31.5 -1t23.5 -3q11 -2 20 -4l-22 -103q-11 -48 -32 -84.5t-43 -61.5q-26 -29 -54 -50z" />
    <glyph glyph-name="commaaccentcomb" unicode="&#xf6c3;" horiz-adv-x="0" 
d="M-135 -110q13 12 24 29q10 14 20 34.5t18 46.5q-12 1 -21 2t-15 3l-12 3l30 143q9 2 20 4q10 2 24.5 3t34.5 1q18 0 31.5 -1t23.5 -3q11 -2 20 -4l-22 -103q-11 -48 -32 -84.5t-43 -61.5q-26 -29 -54 -50z" />
    <glyph glyph-name="commaaccentcomb.alt" horiz-adv-x="0" 
d="M155 683q-13 -12 -24 -29q-10 -14 -20.5 -35t-17.5 -47q11 -1 20 -2t15 -2q7 -2 13 -3l-30 -143q-9 -2 -20 -4q-10 -2 -25 -3t-34 -1q-18 0 -32 1t-24 3q-11 2 -19 4l22 103q10 48 31 84t43 61q26 29 55 50z" />
    <glyph glyph-name="copyright" unicode="&#xa9;" horiz-adv-x="791" 
d="M327 -17q-74 0 -133 28t-97.5 76.5t-52.5 113.5t2 139t57.5 139t100.5 113.5t130 76.5t145 28t133 -28t97.5 -76.5t52.5 -113.5t-2 -139t-57.5 -139t-100.5 -113.5t-130 -76.5t-145 -28zM458 599q-54 0 -105.5 -20t-93.5 -55.5t-72 -82.5t-42 -101q-11 -54 -1 -101
t37.5 -82.5t70 -55.5t96.5 -20t105.5 20t94 55.5t72.5 82.5t41 101q12 54 2 101t-37.5 82.5t-70.5 55.5t-97 20zM366 146q-88 0 -122.5 51.5t-13.5 148.5q20 99 76.5 149t144.5 50q26 0 46 -4.5t34 -9.5q16 -6 28 -14q-12 -47 -54 -74l-17 7q-8 2 -19 4.5t-23 2.5
q-36 0 -63.5 -24t-41.5 -88q-7 -32 -5.5 -52.5t10 -32.5t22.5 -17t32 -5q28 0 48 5q11 3 20 6q17 -11 22 -32t1 -43q-16 -8 -35 -14q-17 -5 -40 -9.5t-50 -4.5z" />
    <glyph glyph-name="currency" unicode="&#xa4;" horiz-adv-x="600" 
d="M363 83q-27 -14 -57 -22t-60 -8q-60 0 -104 30l-86 -71q-7 0 -15 4q-7 3 -15 8t-16 16q-8 10 -11 18.5t-4 15.5q-1 8 0 15l87 72q-9 23 -11.5 51t4.5 59q6 30 20 58t34 52l-57 72q2 7 7 15q5 7 12 16t19 19q23 19 40 24q9 3 16 3l55 -72q57 31 118 31q30 0 56 -8.5
t47 -22.5l88 72q7 0 14 -3q14 -5 30 -24q7 -10 10 -19t5 -16q2 -8 1 -15l-87 -72q9 -24 11.5 -52t-3.5 -58q-7 -31 -21 -59t-34 -52l57 -71q-3 -8 -7 -16q-8 -16 -30 -35q-13 -11 -22.5 -16.5t-17.5 -7.5q-9 -3 -16 -2zM316 381q-23 0 -45 -8.5t-40 -23.5t-30.5 -35
t-17.5 -43t-1 -43t16 -35t30 -23.5t41 -8.5t45 8.5t40 23.5t31 35t18 43q10 47 -15 78.5t-72 31.5z" />
    <glyph glyph-name="d" unicode="d" horiz-adv-x="559" 
d="M442 742q9 2 21 4q11 2 25 3t33 1q18 0 32 -1t24 -3q11 -2 19 -4l-156 -734q-9 -2 -20 -4q-10 -2 -23 -3t-28 -1q-16 0 -28.5 1t-21.5 3q-11 2 -18 4l1 41q-26 -28 -62.5 -43.5t-84.5 -15.5q-42 0 -73 16t-48 51t-18.5 89t14.5 131q16 76 39.5 127t54 81t67.5 42.5
t81 12.5t72 -13.5t44 -38.5zM355 336q7 36 -7 59.5t-47 23.5q-20 0 -36.5 -6.5t-30.5 -24t-25.5 -47.5t-21.5 -78q-10 -46 -11 -75.5t5 -47t20 -24t34 -6.5q34 0 58 24t32 60z" />
    <glyph glyph-name="dagger" unicode="&#x2020;" horiz-adv-x="566" 
d="M139 -101l115 505l-207 -7q0 8 1 17q1 8 2.5 18t3.5 21q6 27 11 41q3 8 6 14l203 -7l36 199q8 1 19 2q9 1 20.5 2t24.5 1t24.5 -1t19.5 -2q10 -1 17 -2l-50 -199l195 7q1 -7 0 -16q-1 -8 -2.5 -18t-3.5 -21q-4 -24 -11 -40l-7 -16l-191 7l-101 -505l-68 -34z" />
    <glyph glyph-name="daggerdbl" unicode="&#x2021;" horiz-adv-x="623" 
d="M548 182q0 -7 -1 -16q-1 -8 -2.5 -18.5t-3.5 -21.5q-6 -24 -11 -40q-3 -9 -6 -15l-203 7l-36 -199q-8 -2 -19 -3q-9 -1 -20.5 -1.5t-24.5 -0.5q-14 0 -25 0.5t-19 1.5q-10 1 -17 3l50 199l-206 -7q-1 7 0 16q1 8 2 18t4 21q2 12 5.5 22l6.5 18q4 9 6 16l202 -7l17 114
l32 115l-207 -7q0 8 1 17q1 8 2.5 18t3.5 21q2 13 5.5 22.5t5.5 17.5q3 8 6 15l203 -7l36 199q8 1 19 2q9 1 20.5 2t24.5 1t24.5 -1t19.5 -2q10 -1 17 -2l-50 -199l206 7q1 -7 0 -16q-1 -8 -2.5 -18t-3.5 -21q-4 -24 -11 -40l-7 -16l-202 7l-18 -115l-31 -114z" />
    <glyph glyph-name="dcaron" unicode="&#x10f;" horiz-adv-x="576" 
d="M600 599q18 18 31 34t22.5 33t15 36t8.5 43q37 7 67.5 3.5t49.5 -17.5q-16 -54 -52 -98.5t-80 -63.5q-20 1 -37 8.5t-25 21.5zM442 742q9 2 21 4q11 2 25 3t33 1q18 0 32 -1t24 -3q11 -2 19 -4l-156 -734q-9 -2 -20 -4q-10 -2 -23 -3t-28 -1q-16 0 -28.5 1t-21.5 3
q-11 2 -18 4l1 41q-26 -28 -62.5 -43.5t-84.5 -15.5q-42 0 -73 16t-48 51t-18.5 89t14.5 131q16 76 39.5 127t54 81t67.5 42.5t81 12.5t72 -13.5t44 -38.5zM355 336q7 36 -7 59.5t-47 23.5q-20 0 -36.5 -6.5t-30.5 -24t-25.5 -47.5t-21.5 -78q-10 -46 -11 -75.5t5 -47
t20 -24t34 -6.5q34 0 58 24t32 60z" />
    <glyph glyph-name="dcroat" unicode="&#x111;" horiz-adv-x="560" 
d="M644 675q0 -13 -3 -32q-2 -11 -5 -19t-5 -14q-3 -7 -6 -12h-59l-125 -590q-9 -2 -20 -4q-10 -2 -23 -3t-28 -1q-17 0 -29 1t-21 3q-11 2 -18 4v41q-26 -28 -62 -43.5t-85 -15.5q-42 0 -72.5 16t-47.5 51t-18.5 89t14.5 131q16 76 39.5 127t54 81t67.5 42.5t80 12.5
q45 0 72.5 -13.5t44.5 -38.5l23 110h-103v12q0 14 4 33q2 10 4.5 18l4.5 14q3 7 6 12h103l12 55q9 2 21 4q11 2 25 3t33 1q18 0 32 -1t24 -3q11 -2 19 -4l-12 -55h59v-12zM356 336q6 36 -7.5 59.5t-46.5 23.5q-20 0 -36.5 -6.5t-30.5 -24t-25.5 -47.5t-21.5 -78
q-10 -46 -11 -75.5t5 -47t20 -24t34 -6.5q34 0 58 24t32 60z" />
    <glyph glyph-name="degree" unicode="&#xb0;" horiz-adv-x="353" 
d="M95 604q6 27 21 52.5t37.5 45.5t52.5 32.5t66 12.5t60 -12t37.5 -31.5t17.5 -45t-2 -51.5t-20 -51.5t-36.5 -45t-51.5 -31.5t-65 -12q-37 0 -62 11.5t-39 31t-17.5 44t1.5 50.5zM291 606q4 20 -5 36t-34 16q-26 0 -42.5 -16.5t-20.5 -36.5q-5 -18 5 -34t36 -16
q25 0 40.5 16t20.5 35z" />
    <glyph glyph-name="dieresis" unicode="&#xa8;" horiz-adv-x="455" 
d="M168 613q-7 -2 -17 -4q-17 -3 -50 -3t-49 3q-10 2 -16 4l25 115q7 1 17 3q8 2 20.5 3t29.5 1q16 0 28.5 -1t20.5 -3q10 -2 16 -3zM365 613q-8 -2 -18 -4q-18 -3 -49 -3q-33 0 -49 3q-10 2 -16 4l25 115q7 1 17 3q8 2 20.5 3t29.5 1q16 0 28 -1t20 -3q10 -2 17 -3z" />
    <glyph glyph-name="divide" unicode="&#xf7;" horiz-adv-x="505" 
d="M346 396q-9 -2 -20 -4q-10 -2 -24.5 -3t-31.5 -1q-19 0 -32 1t-22 3q-11 2 -17 4l29 136q8 2 19 4q9 2 23 3t33 1q17 0 31 -1t23 -3q11 -2 18 -4zM24 235q-1 6 -1 15q0 14 6 40q2 13 5.5 22.5l6.5 17.5q4 8 6 15h427q1 -7 1 -15q0 -17 -4 -40q-3 -13 -6.5 -23t-6.5 -17
q-4 -9 -7 -15h-427zM272 48q-9 -2 -20 -4q-10 -2 -24.5 -3t-31.5 -1q-19 0 -32 1t-22 3q-11 2 -17 4l29 136q8 2 19 4q9 2 23 3t33 1q17 0 31 -1t23 -3q11 -2 18 -4z" />
    <glyph glyph-name="dollar" unicode="$" horiz-adv-x="566" 
d="M326 781q7 2 17 4q8 2 20 3t26 1q15 0 26.5 -1t19.5 -3q9 -2 15 -4l-33 -113q34 -2 62.5 -6.5t48.5 -9.5q24 -5 43 -12q-1 -7 -4 -17q-5 -19 -18 -42q-6 -12 -13 -21t-13 -16q-7 -8 -13 -14q-20 5 -42 9q-19 4 -44 7t-52 3q-57 0 -94 -14t-45 -49q-6 -26 17 -40.5t59 -26
l78 -24t75.5 -35.5t51.5 -60.5t5 -97.5q-19 -87 -79.5 -137t-164.5 -61l-17 -125q-6 -2 -16 -4q-8 -2 -20 -3t-27 -1q-14 0 -25.5 1t-19.5 3q-10 2 -16 4l35 123q-43 2 -76.5 9t-57.5 15q-28 9 -49 19q0 7 3 16q2 8 5.5 18.5t10.5 23.5q6 13 13 23l12 17q6 8 13 14
q26 -8 56 -14q26 -5 59 -9.5t70 -4.5q54 0 89 13.5t43 49.5q5 22 -7 36.5t-34 24.5t-51 18t-59 17.5t-58 23t-47.5 34.5t-27.5 51.5t1 74.5q17 81 76.5 130.5t156.5 62.5l16 116v0z" />
    <glyph glyph-name="dotaccent" unicode="&#x2d9;" horiz-adv-x="190" 
d="M139 601q-8 -2 -19 -4q-18 -3 -52 -3q-36 0 -52 3q-10 2 -16 4l27 128l18 3q9 2 22 3t31 1q17 0 29 -1t21 -3q10 -2 18 -3z" />
    <glyph glyph-name="dotlessi" unicode="&#x131;" horiz-adv-x="265" 
d="M146 8l-21 -4t-25 -3t-33 -1q-20 0 -34 1t-23 3q-11 2 -18 4l109 514q9 2 20 4q10 2 24.5 3t34.5 1q19 0 32.5 -1t23.5 -3q11 -2 19 -4z" />
    <glyph glyph-name="dotlessj" unicode="&#x237;" horiz-adv-x="266" 
d="M102 522q9 2 20 4q10 2 24.5 3t34.5 1q18 0 31.5 -1t23.5 -3q11 -2 20 -4l-130 -610q-17 -78 -65 -120t-132 -42q-22 0 -38.5 2.5t-27.5 5.5q-13 4 -23 8v10q0 10 3 24q4 19 10 33.5t11 24.5q6 11 13 19l10 -2t10.5 -1.5t12.5 -0.5q26 0 43 14t24 47z" />
    <glyph glyph-name="e" unicode="e" horiz-adv-x="509" 
d="M174 219q-5 -31 -0.5 -51t16 -31.5t29.5 -16t41 -4.5t43.5 3.5t35.5 8.5q18 5 32 12q14 -16 22 -45.5t2 -59.5q-18 -13 -44 -23q-23 -8 -55.5 -15t-77.5 -7q-124 0 -171.5 74t-18.5 214q15 71 41.5 121t63.5 81.5t83 45.5t100 14q43 0 78.5 -13.5t59.5 -40.5t32.5 -67.5
t-2.5 -94.5q-5 -25 -10.5 -44t-10.5 -33q-5 -16 -11 -28h-278zM344 346q7 35 -2 58.5t-45 23.5q-31 0 -57.5 -25t-46.5 -88h142z" />
    <glyph glyph-name="eacute" unicode="&#xe9;" horiz-adv-x="509" 
d="M174 219q-5 -31 -0.5 -51t16 -31.5t29.5 -16t41 -4.5t43.5 3.5t35.5 8.5q18 5 32 12q14 -16 22 -45.5t2 -59.5q-18 -13 -44 -23q-23 -8 -55.5 -15t-77.5 -7q-124 0 -171.5 74t-18.5 214q15 71 41.5 121t63.5 81.5t83 45.5t100 14q43 0 78.5 -13.5t59.5 -40.5t32.5 -67.5
t-2.5 -94.5q-5 -25 -10.5 -44t-10.5 -33q-5 -16 -11 -28h-278zM305 585q-25 5 -46 15t-30 29l122 147q19 2 38 -1t35.5 -10t29 -17.5t17.5 -23.5zM344 346q7 35 -2 58.5t-45 23.5q-31 0 -57.5 -25t-46.5 -88h142z" />
    <glyph glyph-name="ebreve" unicode="&#x115;" horiz-adv-x="509" 
d="M174 219q-5 -31 -0.5 -51t16 -31.5t29.5 -16t41 -4.5t43.5 3.5t35.5 8.5q18 5 32 12q14 -16 22 -45.5t2 -59.5q-18 -13 -44 -23q-23 -8 -55.5 -15t-77.5 -7q-124 0 -171.5 74t-18.5 214q15 71 41.5 121t63.5 81.5t83 45.5t100 14q43 0 78.5 -13.5t59.5 -40.5t32.5 -67.5
t-2.5 -94.5q-5 -25 -10.5 -44t-10.5 -33q-5 -16 -11 -28h-278zM501 667q-18 -20 -44 -36q-22 -14 -54.5 -24.5t-76.5 -10.5t-74.5 10.5t-50.5 24.5q-23 16 -37 36q12 22 33 41t45 28q10 -8 24 -14q12 -5 30.5 -9.5t44.5 -4.5q25 0 46 4.5t35 9.5q17 6 30 14q20 -9 33 -28
t16 -41zM344 346q7 35 -2 58.5t-45 23.5q-31 0 -57.5 -25t-46.5 -88h142z" />
    <glyph glyph-name="ecaron" unicode="&#x11b;" horiz-adv-x="509" 
d="M174 219q-5 -31 -0.5 -51t16 -31.5t29.5 -16t41 -4.5t43.5 3.5t35.5 8.5q18 5 32 12q14 -16 22 -45.5t2 -59.5q-18 -13 -44 -23q-23 -8 -55.5 -15t-77.5 -7q-124 0 -171.5 74t-18.5 214q15 71 41.5 121t63.5 81.5t83 45.5t100 14q43 0 78.5 -13.5t59.5 -40.5t32.5 -67.5
t-2.5 -94.5q-5 -25 -10.5 -44t-10.5 -33q-5 -16 -11 -28h-278zM177 701q15 21 35 38.5t43 25.5l89 -64l114 63q20 -8 32.5 -25t18.5 -38l-175 -126h-35zM344 346q7 35 -2 58.5t-45 23.5q-31 0 -57.5 -25t-46.5 -88h142z" />
    <glyph glyph-name="ecircumflex" unicode="&#xea;" horiz-adv-x="509" 
d="M174 219q-5 -31 -0.5 -51t16 -31.5t29.5 -16t41 -4.5t43.5 3.5t35.5 8.5q18 5 32 12q14 -16 22 -45.5t2 -59.5q-18 -13 -44 -23q-23 -8 -55.5 -15t-77.5 -7q-124 0 -171.5 74t-18.5 214q15 71 41.5 121t63.5 81.5t83 45.5t100 14q43 0 78.5 -13.5t59.5 -40.5t32.5 -67.5
t-2.5 -94.5q-5 -25 -10.5 -44t-10.5 -33q-5 -16 -11 -28h-278zM497 641q-16 -22 -36.5 -40t-44.5 -26l-90 65l-116 -64q-21 8 -34.5 25.5t-19.5 39.5l180 129h35zM344 346q7 35 -2 58.5t-45 23.5q-31 0 -57.5 -25t-46.5 -88h142z" />
    <glyph glyph-name="edieresis" unicode="&#xeb;" horiz-adv-x="509" 
d="M174 219q-5 -31 -0.5 -51t16 -31.5t29.5 -16t41 -4.5t43.5 3.5t35.5 8.5q18 5 32 12q14 -16 22 -45.5t2 -59.5q-18 -13 -44 -23q-23 -8 -55.5 -15t-77.5 -7q-124 0 -171.5 74t-18.5 214q15 71 41.5 121t63.5 81.5t83 45.5t100 14q43 0 78.5 -13.5t59.5 -40.5t32.5 -67.5
t-2.5 -94.5q-5 -25 -10.5 -44t-10.5 -33q-5 -16 -11 -28h-278zM291 602q-7 -2 -18 -4q-18 -3 -50 -3t-48 3q-10 2 -16 4l24 115q6 1 17 3q8 2 21 3t30 1q16 0 28 -1t20 -3q10 -2 16 -3zM488 602q-7 -2 -18 -4q-18 -3 -50 -3q-34 0 -49 3q-10 2 -15 4l24 115q6 1 17 3
q8 2 21 3t30 1q16 0 28 -1t20 -3q10 -2 16 -3zM344 346q7 35 -2 58.5t-45 23.5q-31 0 -57.5 -25t-46.5 -88h142z" />
    <glyph glyph-name="edotaccent" unicode="&#x117;" horiz-adv-x="509" 
d="M174 219q-5 -31 -0.5 -51t16 -31.5t29.5 -16t41 -4.5t43.5 3.5t35.5 8.5q18 5 32 12q14 -16 22 -45.5t2 -59.5q-18 -13 -44 -23q-23 -8 -55.5 -15t-77.5 -7q-124 0 -171.5 74t-18.5 214q15 71 41.5 121t63.5 81.5t83 45.5t100 14q43 0 78.5 -13.5t59.5 -40.5t32.5 -67.5
t-2.5 -94.5q-5 -25 -10.5 -44t-10.5 -33q-5 -16 -11 -28h-278zM395 603q-8 -2 -19 -4q-9 -2 -22 -3t-30 -1q-18 0 -31 1t-21 3q-10 2 -16 4l27 128l18 3q9 2 22.5 3t31.5 1q17 0 29.5 -1t20.5 -3q10 -2 17 -3zM344 346q7 35 -2 58.5t-45 23.5q-31 0 -57.5 -25t-46.5 -88h142
z" />
    <glyph glyph-name="egrave" unicode="&#xe8;" horiz-adv-x="509" 
d="M174 219q-5 -31 -0.5 -51t16 -31.5t29.5 -16t41 -4.5t43.5 3.5t35.5 8.5q18 5 32 12q14 -16 22 -45.5t2 -59.5q-18 -13 -44 -23q-23 -8 -55.5 -15t-77.5 -7q-124 0 -171.5 74t-18.5 214q15 71 41.5 121t63.5 81.5t83 45.5t100 14q43 0 78.5 -13.5t59.5 -40.5t32.5 -67.5
t-2.5 -94.5q-5 -25 -10.5 -44t-10.5 -33q-5 -16 -11 -28h-278zM205 724q10 13 27 23.5t36.5 17.5t40 10t38.5 1l60 -147q-18 -19 -42.5 -29t-52.5 -15zM344 346q7 35 -2 58.5t-45 23.5q-31 0 -57.5 -25t-46.5 -88h142z" />
    <glyph glyph-name="eight" unicode="8" horiz-adv-x="582" 
d="M219 -14q-56 0 -99 12t-70 35t-36.5 58t-0.5 80q7 33 23 59.5t37 47.5t45 37.5t48 28.5q-18 13 -32 29.5t-23 37t-11 45.5t5 57q9 41 31 74.5t56.5 57t80 36.5t99.5 13q104 0 154 -44.5t33 -125.5q-12 -58 -46.5 -96t-72.5 -62q21 -14 38 -31.5t28 -40t14 -50.5t-4 -63
q-20 -93 -97.5 -144t-199.5 -51zM350 584q-38 0 -62 -17.5t-31 -47.5q-4 -19 2 -33.5t19 -26.5t31.5 -22.5t39.5 -20.5q22 16 41 39t27 57q15 72 -67 72zM248 102q45 0 74.5 20.5t37.5 55.5q4 21 -3.5 37t-23 29t-36.5 24l-44 23q-13 -8 -27 -18.5t-26.5 -24.5t-22.5 -31
t-14 -38q-8 -36 13.5 -56.5t71.5 -20.5z" />
    <glyph glyph-name="eight.denom" horiz-adv-x="327" 
d="M24 253q9 45 47.5 70t101.5 25q60 0 87.5 -23.5t18.5 -65.5q-5 -26 -21.5 -45.5t-36.5 -31.5q21 -13 32 -33.5t4 -52.5q-10 -48 -50.5 -74.5t-109.5 -26.5q-65 0 -96 24t-21 72q6 29 25.5 49.5t46.5 32.5q-40 25 -28 80zM187 252q5 28 -29 28q-16 0 -25.5 -7t-11.5 -18
q-3 -14 9.5 -23.5t32.5 -16.5q18 13 24 37zM160 95q2 9 -2 15.5t-11.5 12t-17.5 9.5t-19 9q-8 -6 -15 -12q-6 -5 -11 -13t-7 -17q-6 -33 37 -33q18 0 30.5 7.5t15.5 21.5z" />
    <glyph glyph-name="eight.num" horiz-adv-x="327" 
d="M97 599q10 45 48 70t101 25q60 0 87.5 -23.5t19.5 -65.5q-6 -26 -22 -45.5t-37 -31.5q22 -13 33 -33.5t4 -52.5q-11 -48 -51.5 -74.5t-109.5 -26.5q-65 0 -96 24t-20 72q6 29 25.5 49.5t45.5 32.5q-18 12 -26 31.5t-2 48.5zM260 598q7 28 -28 28q-16 0 -25.5 -7
t-11.5 -18q-3 -14 9 -23.5t32 -16.5q19 13 24 37zM234 441q2 9 -2 15.5t-11.5 12t-17.5 9.5t-20 9q-8 -6 -14 -12q-5 -5 -10.5 -13t-7.5 -17q-8 -33 37 -33q18 0 30.5 7.5t15.5 21.5z" />
    <glyph glyph-name="eightinferior" unicode="&#x2088;" horiz-adv-x="327" 
d="M3 157q10 45 48.5 70t101.5 25q60 0 87.5 -23.5t18.5 -65.5q-6 -26 -22 -45.5t-37 -31.5q22 -13 33 -33.5t4 -52.5q-11 -48 -51.5 -74.5t-109.5 -26.5q-65 0 -95.5 24t-20.5 72q6 29 25.5 49.5t45.5 32.5q-18 12 -26 31.5t-2 48.5zM166 156q7 28 -28 28q-16 0 -25.5 -7
t-11.5 -18q-3 -14 9 -23.5t32 -16.5q19 13 24 37zM140 -1q2 9 -2 15.5t-11.5 12t-17.5 9.5t-19 9q-8 -6 -15 -12q-6 -5 -11 -13t-7 -17q-8 -33 37 -33q18 0 30.5 7.5t15.5 21.5z" />
    <glyph glyph-name="ellipsis" unicode="&#x2026;" horiz-adv-x="713" 
d="M142 8l-21 -4t-25 -3t-33 -1q-20 0 -34 1t-23 3q-11 2 -18 4l30 143q9 2 20 4q10 2 24.5 3t34.5 1q19 0 32.5 -1t23.5 -3q11 -2 19 -4zM372 8l-21 -4t-25 -3t-33 -1q-20 0 -34 1t-23 3q-11 2 -18 4l30 143q9 2 20 4q10 2 24.5 3t34.5 1q19 0 32.5 -1t23.5 -3q11 -2 19 -4
zM601 8l-21 -4t-25 -3t-33 -1q-20 0 -34 1t-23 3q-11 2 -18 4l30 143q9 2 20 4q10 2 24.5 3t34.5 1q19 0 32.5 -1t23.5 -3q11 -2 19 -4z" />
    <glyph glyph-name="emacron" unicode="&#x113;" horiz-adv-x="509" 
d="M174 219q-5 -31 -0.5 -51t16 -31.5t29.5 -16t41 -4.5t43.5 3.5t35.5 8.5q18 5 32 12q14 -16 22 -45.5t2 -59.5q-18 -13 -44 -23q-23 -8 -55.5 -15t-77.5 -7q-124 0 -171.5 74t-18.5 214q15 71 41.5 121t63.5 81.5t83 45.5t100 14q43 0 78.5 -13.5t59.5 -40.5t32.5 -67.5
t-2.5 -94.5q-5 -25 -10.5 -44t-10.5 -33q-5 -16 -11 -28h-278zM180 615q-1 20 4.5 45.5t14.5 42.5h278q2 -18 -3 -43.5t-16 -44.5h-278zM344 346q7 35 -2 58.5t-45 23.5q-31 0 -57.5 -25t-46.5 -88h142z" />
    <glyph glyph-name="emdash" unicode="&#x2014;" horiz-adv-x="805" 
d="M49 235q-1 6 -1 15q0 14 6 40q2 13 5.5 22.5l6.5 17.5q4 8 6 15h677q1 -7 1 -15t-1.5 -17.5l-3.5 -22.5q-3 -13 -6.5 -23t-6.5 -17l-6 -15h-677z" />
    <glyph glyph-name="endash" unicode="&#x2013;" horiz-adv-x="555" 
d="M49 235q-1 6 -1 15q0 14 6 40q2 13 5.5 22.5l6.5 17.5q4 8 6 15h427q1 -7 1 -15t-1.5 -17.5l-3.5 -22.5q-3 -13 -6.5 -23t-6.5 -17l-6 -15h-427z" />
    <glyph glyph-name="eng" unicode="&#x14b;" horiz-adv-x="548" 
d="M247 480q69 60 146 60t105 -45.5t11 -128.5l-86 -404q-18 -84 -65.5 -130.5t-125.5 -68.5q-23 17 -28.5 43t1.5 57q26 11 40 32t24 67l84 397q6 28 -5 44t-46 16q-38 0 -75 -28l-81 -383l-21 -4t-25 -3t-33 -1q-20 0 -34 1t-23 3q-11 2 -18 4l109 514q9 2 20 4
q10 2 24.5 3t34.5 1q19 0 31.5 -1t20.5 -3q9 -2 15 -4v-42v0z" />
    <glyph glyph-name="eogonek" unicode="&#x119;" horiz-adv-x="509" 
d="M174 219q-5 -31 -0.5 -51t16 -31.5t29.5 -16t41 -4.5t43.5 3.5t35.5 8.5q18 5 32 12q14 -16 22 -45.5t2 -59.5q-1 -2 -3 -3q-2 -2 -4.5 -2.5t-4.5 -2.5q-62 -48 -94 -89t-31 -66q2 -34 46 -14q5 -6 8.5 -16.5t5 -22.5t1 -24t-2.5 -20q-20 -12 -50 -18.5t-61 -6.5
q-47 0 -66.5 22.5t-19.5 52.5q0 45 30.5 85t84.5 80h-16q-124 0 -171.5 74t-18.5 214q15 71 41.5 121t63.5 81.5t83 45.5t100 14q43 0 78.5 -13.5t59.5 -40.5t32.5 -67.5t-2.5 -94.5q-5 -25 -10.5 -44t-10.5 -33q-5 -16 -11 -28h-278zM344 346q7 35 -2 58.5t-45 23.5
q-31 0 -57.5 -25t-46.5 -88h142z" />
    <glyph glyph-name="equal" unicode="=" horiz-adv-x="515" 
d="M70 331q-1 26 5.5 56.5t18.5 53.5h384q2 -23 -5 -54.5t-19 -55.5h-384zM29 138q-1 26 5.5 56.5t18.5 53.5h384q2 -23 -5 -54.5t-19 -55.5h-384z" />
    <glyph glyph-name="estimated" unicode="&#x212e;" horiz-adv-x="770" 
d="M602 95q-59 -51 -129 -78t-147 -27q-73 0 -131 27.5t-96 75.5t-52 112t2 137q15 73 56.5 137t99 112t127.5 75.5t143 27.5t131 -27.5t96 -75.5t52 -112t-1 -137l-5 -24h-544l-47 -218q35 -31 80.5 -49t97.5 -18q51 0 102 16.5t98 45.5h67zM644 583q-34 31 -79.5 49.5
t-98.5 18.5q-52 0 -105 -18.5t-101 -48.5l-47 -222h384z" />
    <glyph glyph-name="eth" unicode="&#xf0;" horiz-adv-x="557" 
d="M458 643q50 -57 67.5 -141.5t-5.5 -194.5q-20 -92 -50 -153t-69.5 -97.5t-87.5 -51.5t-104 -15q-53 0 -94 15.5t-66 48.5t-32 84.5t8 123.5t42 119.5t63.5 75t80.5 39t94 11.5q53 0 87 -23q-9 58 -49 99l-109 -58q-16 15 -23.5 35t-8.5 42l65 34q-35 15 -76 24
q3 27 14 50t31 40q89 -12 153 -51l103 54q14 -14 22 -34.5t8 -42.5zM229 104q19 0 36 6t31.5 22t26.5 45t22 75q10 47 10 76.5t-7.5 45.5t-22 21.5t-33.5 5.5q-20 0 -36 -6t-30 -22.5t-25.5 -45.5t-21.5 -75t-11 -75t6 -45t21 -22t34 -6z" />
    <glyph glyph-name="exclam" unicode="!" horiz-adv-x="297" 
d="M151 712q9 2 22 4q11 2 27 3t36 1t34.5 -1t25.5 -3q12 -2 22 -4l-126 -494q-7 -3 -17 -5q-8 -2 -20.5 -3t-26.5 -1q-15 0 -26 1t-19 3q-9 2 -16 5zM163 8q-9 -2 -21 -4q-11 -2 -25.5 -3t-32.5 -1q-20 0 -34 1t-23 3q-11 2 -18 4l30 143q9 2 20 4q10 2 24.5 3t34.5 1
q18 0 32 -1t24 -3q11 -2 19 -4z" />
    <glyph glyph-name="exclamdown" unicode="&#xa1;" horiz-adv-x="282" 
d="M107 510q9 2 21 4q10 2 24.5 3t33.5 1t33.5 -1t23.5 -3q11 -2 18 -4l-30 -143q-9 -2 -20 -4q-10 -2 -24.5 -3t-34.5 -1q-19 0 -33 1t-23 3q-11 2 -19 4zM78 300q6 1 16 3q8 2 19.5 3t26.5 1q14 0 26 -1t20 -3q10 -2 16 -3l-84 -494q-10 -2 -22 -4q-11 -2 -27 -3t-36 -1
t-34.5 1t-25.5 3q-12 2 -21 4z" />
    <glyph glyph-name="f" unicode="f" horiz-adv-x="365" 
d="M152 586q8 38 24 68.5t42.5 51.5t64.5 32.5t89 11.5q31 0 54 -4.5t40 -9.5q18 -6 33 -13q-9 -32 -26 -57.5t-38 -45.5q-7 3 -18 6q-9 2 -22 4t-30 2q-26 0 -40.5 -12t-20.5 -40l-11 -54h100q1 -25 -5 -55q-3 -14 -7.5 -28.5t-11.5 -26.5h-100l-86 -408l-21 -4t-25 -3
t-33 -1q-20 0 -34 1t-23 3q-11 2 -18 4l86 408h-64q1 13 2 27.5t4 29.5l8 27.5t10 25.5h64l13 60v0z" />
    <glyph glyph-name="five" unicode="5" horiz-adv-x="528" 
d="M250 421q26 0 55 -3q100 -7 143.5 -57.5t21.5 -153.5q-23 -106 -103 -161.5t-216 -55.5q-47 0 -80.5 5.5t-55.5 12.5q-26 8 -43 18q6 31 20.5 59t38.5 50q18 -6 39 -10q18 -4 43 -6.5t54 -2.5q63 0 99 21.5t46 69.5q11 54 -14.5 74t-95.5 20q-32 0 -64 -1t-64 -3l82 387
h382q4 -30 -3.5 -65t-23.5 -63h-232z" />
    <glyph glyph-name="five.denom" horiz-adv-x="306" 
d="M123 226q140 0 116 -115q-13 -58 -54.5 -87t-120.5 -29q-26 0 -45.5 3t-32.5 8q-15 4 -26 11q3 19 13 37.5t25 31.5q10 -3 21 -5q22 -5 49 -5q29 0 45 8t21 28q5 22 -6.5 29.5t-43.5 7.5h-72l41 194h216q2 -18 -3 -40.5t-14 -39.5h-121z" />
    <glyph glyph-name="five.num" horiz-adv-x="306" 
d="M198 572q139 0 115 -115q-12 -58 -54 -87t-121 -29q-26 0 -45.5 3t-32.5 8q-15 4 -26 11q3 19 13 37.5t26 31.5q10 -3 21 -5q22 -5 49 -5q29 0 45 8t20 28q5 22 -6.5 29.5t-43.5 7.5h-72l41 194h216q2 -18 -3 -40.5t-14 -39.5h-121z" />
    <glyph glyph-name="fiveeighths" unicode="&#x215d;" horiz-adv-x="771" 
d="M600 695q5 1 14 3q8 2 18.5 3t25.5 1q14 0 25 -1t18 -3q8 -2 14 -3l-535 -698q-7 -2 -16 -4q-15 -3 -43 -3q-25 0 -40 3q-9 2 -15 4zM349 689q2 -18 -3 -40.5t-14 -39.5h-121l-7 -37q139 0 115 -115q-12 -58 -54 -87t-121 -29q-26 0 -45.5 3t-32.5 8q-15 4 -26 11
q3 19 13 37.5t26 31.5q10 -3 21 -5q22 -5 49 -5q29 0 45 8t20 28q5 22 -6.5 29.5t-43.5 7.5h-72l41 194h216zM467 253q9 45 47.5 70t101.5 25q60 0 87.5 -23.5t18.5 -65.5q-5 -26 -21.5 -45.5t-36.5 -31.5q21 -13 32 -33.5t4 -52.5q-10 -48 -50.5 -74.5t-109.5 -26.5
q-65 0 -96 24t-21 72q6 29 25.5 49.5t46.5 32.5q-40 25 -28 80zM630 252q5 28 -29 28q-16 0 -25.5 -7t-11.5 -18q-3 -14 9.5 -23.5t32.5 -16.5q18 13 24 37zM603 95q2 9 -2 15.5t-11.5 12t-17.5 9.5t-19 9q-8 -6 -15 -12q-6 -5 -11 -13t-7 -17q-6 -33 37 -33q18 0 30.5 7.5
t15.5 21.5z" />
    <glyph glyph-name="fiveinferior" unicode="&#x2085;" horiz-adv-x="306" 
d="M104 130q139 0 115 -115q-12 -58 -54 -87t-121 -29q-26 0 -45.5 3t-32.5 8q-15 4 -26 11q3 19 13 37.5t26 31.5q9 -3 20 -6q20 -5 49 -5q59 0 66 37q5 22 -6.5 29.5t-43.5 7.5h-72l41 194h216q2 -18 -3 -40.5t-14 -39.5h-121z" />
    <glyph glyph-name="florin" unicode="&#x192;" horiz-adv-x="505" 
d="M215 16q-11 -35 -28 -63.5t-42.5 -49t-61 -32t-82.5 -11.5q-31 0 -54 4t-39 9q-18 5 -32 13q16 58 55 96q8 -3 19 -6q20 -5 50 -5q29 0 45 13.5t26 44.5l106 344h-72q-1 6 -1 14q0 13 6 39q4 23 11 38l7 14h82l18 57q10 34 27 63t42.5 49.5t61 32t82.5 11.5q31 0 54.5 -4
t39.5 -9q18 -6 32 -13q-15 -58 -56 -96q-8 2 -19 5q-9 2 -22 4t-29 2q-27 0 -43 -13.5t-26 -43.5l-13 -45h78q1 -6 1 -14q0 -7 -1 -16.5t-3 -21.5q-3 -13 -6.5 -22.5t-6.5 -16.5l-7 -14h-89z" />
    <glyph glyph-name="four" unicode="4" horiz-adv-x="589" 
d="M399 675q10 2 22 4q11 2 25.5 3.5t33.5 1.5t33 -1.5t23 -3.5q11 -2 18 -4l-84 -399h78q1 -7 1 -16q0 -8 -1 -19.5t-4 -25.5q-4 -15 -7.5 -26t-6.5 -19q-4 -9 -8 -15h-78l-31 -146q-9 -3 -20 -5q-10 -2 -23.5 -3t-30.5 -1q-18 0 -31.5 1t-22.5 3q-11 2 -19 5l31 146h-300
q-2 6 -2 15q0 8 0.5 19t4.5 26q6 29 14 45q4 9 9 16zM171 276h152l44 207z" />
    <glyph glyph-name="four.denom" horiz-adv-x="334" 
d="M271 142q1 -18 -3 -36q-2 -9 -4.5 -17t-7.5 -17h-37l-14 -67q-14 -3 -26 -4t-20 -1t-20 1t-23 4l14 67h-161v17t2 17t4.5 15t6.5 15l199 201q22 6 49 6q25 0 46 -6l-42 -195h37zM78 142h67l19 88z" />
    <glyph glyph-name="four.num" horiz-adv-x="334" 
d="M346 488q1 -18 -3 -36q-2 -9 -5 -17t-7 -17h-37l-14 -67q-14 -3 -26 -4t-20 -1t-20 1t-23 4l14 67h-161q-1 15 2 34q3 16 10 30l199 201q24 6 49 6q26 0 46 -6l-41 -195h37zM153 488h67l18 88z" />
    <glyph glyph-name="fourinferior" unicode="&#x2084;" horiz-adv-x="333" 
d="M251 46q1 -18 -3 -36q-2 -9 -5 -17t-7 -17h-37l-14 -67q-14 -3 -26 -4t-20 -1t-20 1t-23 4l14 67h-161q-1 15 2 34q3 16 10 30l199 201q24 6 49 6q26 0 46 -6l-41 -195h37zM58 46h67l18 88z" />
    <glyph glyph-name="fraction" unicode="&#x2044;" horiz-adv-x="147" 
d="M290 695q5 1 14 3q8 2 18.5 3t25.5 1q14 0 25 -1t18 -3q8 -2 14 -3l-536 -698q-7 -2 -16 -4q-15 -3 -42 -3q-25 0 -40 3q-9 2 -16 4z" />
    <glyph glyph-name="g" unicode="g" horiz-adv-x="559" 
d="M294 41q-27 -25 -61 -38t-77 -13q-42 0 -73 16t-48 50.5t-19 88.5t14 131q16 76 40 127t54.5 81.5t67 43t78.5 12.5q46 0 74.5 -13t44.5 -38l7 33q10 2 22 4q11 2 25 3t33 1q18 0 32 -1t23 -3q11 -2 19 -4l-106 -496q-31 -146 -109 -211t-198 -65q-42 0 -74 6t-53 14
q-25 9 -42 21q8 29 22.5 54.5t37.5 44.5q13 -7 30 -12q14 -5 33.5 -8t42.5 -3q25 0 48.5 5.5t43.5 22t36.5 48t27.5 83.5zM187 263q-10 -48 -11 -77.5t5.5 -46.5t20 -23t33.5 -6q33 0 57.5 25t34.5 62l28 132q8 40 -5.5 65t-48.5 25q-20 0 -36 -6t-30 -23t-26 -47.5
t-22 -79.5z" />
    <glyph glyph-name="g.alt" horiz-adv-x="541" 
d="M107 190q-44 22 -56.5 69.5t-0.5 105.5q18 86 80.5 130.5t169.5 44.5q73 0 117 -25l152 25q3 -11 2 -25.5t-4.5 -30.5t-9 -31t-12.5 -26l-69 10q5 -17 3.5 -44.5t-6.5 -50.5q-36 -174 -252 -174h-15t-14 1q-18 -20 -17 -39q0 -14 13.5 -21.5t34.5 -13t48 -9.5t54 -10.5
t51.5 -17t42 -28t24 -44.5t-1.5 -67q-18 -83 -102.5 -126t-214.5 -43q-120 0 -165.5 39t-31.5 108q6 27 19 46.5t28.5 33.5t32 23l29.5 16q-7 11 -10.5 29t0.5 38q8 35 30 61t51 46zM279 443q-31 0 -53 -20.5t-33 -68.5q-10 -48 3.5 -68.5t44.5 -20.5t53.5 20.5t32.5 68.5
q11 48 -3 68.5t-45 20.5zM149 -146q66 0 100.5 16.5t40.5 44.5q4 20 -13 30t-44.5 15t-62 8.5t-64.5 11.5q-11 -10 -22 -26t-16 -36q-6 -29 12 -46.5t69 -17.5z" />
    <glyph glyph-name="gbreve" unicode="&#x11f;" horiz-adv-x="561" 
d="M531 668q-21 -21 -49 -37q-24 -14 -58 -25.5t-78 -11.5t-73.5 11.5t-46.5 25.5q-21 16 -32 37q12 22 33 41t45 28q10 -8 24 -14q12 -5 30.5 -9.5t44.5 -4.5q25 0 46 4.5t35 9.5q17 6 30 14q20 -9 33 -28t16 -41zM296 41q-27 -25 -61 -38t-77 -13q-42 0 -73.5 15.5t-49 49
t-20 87t13.5 130.5q16 76 40.5 127.5t55.5 83t68 44.5t79 13q46 0 74.5 -13t44.5 -38l7 33q10 2 22 4q11 2 25 3t33 1q18 0 32 -1t23 -3q11 -2 19 -4l-106 -496q-31 -146 -109 -211t-198 -65q-42 0 -74 6t-53 14q-25 9 -42 21q8 29 22.5 54.5t37.5 44.5q13 -7 30 -12
q14 -5 33.5 -8t42.5 -3q25 0 48.5 5.5t43.5 22t36.5 48t27.5 83.5zM189 263q-10 -48 -11 -77.5t5.5 -46.5t20 -23t33.5 -6q33 0 57.5 25t34.5 62l28 132q8 40 -5.5 65t-48.5 25q-20 0 -36 -6t-30 -23t-26 -47.5t-22 -79.5z" />
    <glyph glyph-name="gbreve.alt" horiz-adv-x="541" 
d="M498 669q-21 -21 -49 -37q-24 -14 -58 -25.5t-78 -11.5t-73.5 11.5t-46.5 25.5q-21 16 -32 37q12 22 33 41t45 28q10 -8 24 -14q12 -5 30.5 -9.5t44.5 -4.5q25 0 46 4.5t35 9.5q17 6 30 14q20 -9 33 -28t16 -41zM107 190q-44 22 -56.5 69.5t-0.5 105.5q18 86 80.5 130.5
t169.5 44.5q73 0 117 -25l152 25q3 -11 2 -25.5t-4.5 -30.5t-9 -31t-12.5 -26l-69 10q5 -17 3.5 -44.5t-6.5 -50.5q-36 -174 -252 -174h-15t-14 1q-18 -20 -17 -39q0 -14 13.5 -21.5t34.5 -13t48 -9.5t54 -10.5t51.5 -17t42 -28t24 -44.5t-1.5 -67q-18 -83 -102.5 -127
t-214.5 -44q-120 0 -165.5 40t-31.5 109q6 27 19 46.5t28.5 33.5t32 23l29.5 16q-7 11 -10.5 29t0.5 38q8 35 30 61t51 46zM279 443q-31 0 -53 -20.5t-33 -68.5q-10 -48 3.5 -68.5t44.5 -20.5t53.5 20.5t32.5 68.5q11 48 -3 68.5t-45 20.5zM149 -148q66 0 100.5 17t40.5 45
q4 20 -13 29.5t-44.5 14.5t-62 8t-64.5 11q-11 -10 -22 -25t-16 -35q-6 -29 12 -47t69 -18z" />
    <glyph glyph-name="gcircumflex" unicode="&#x11d;" horiz-adv-x="557" 
d="M522 647q-16 -22 -36.5 -40t-44.5 -26l-90 65l-116 -64q-21 8 -34.5 25.5t-19.5 39.5l170 127h35zM292 41q-27 -25 -61 -38t-77 -13q-42 0 -72.5 16t-47.5 50t-18.5 88t14.5 131q16 76 39.5 127t53.5 82t66.5 43.5t78.5 12.5q46 0 74.5 -13t44.5 -38l7 33q10 2 22 4
q11 2 25 3t33 1q18 0 32 -1t23 -3q11 -2 19 -4l-106 -496q-31 -146 -109 -211t-198 -65q-42 0 -74 6t-53 14q-25 9 -42 21q8 29 22.5 54.5t37.5 44.5q13 -7 30 -12q14 -5 33.5 -8t42.5 -3q25 0 48.5 5.5t43.5 22t36.5 48t27.5 83.5zM185 263q-10 -48 -11 -77.5t5.5 -46.5
t20 -23t33.5 -6q33 0 57.5 25t34.5 62l28 132q8 40 -5.5 65t-48.5 25q-20 0 -36 -6t-30 -23t-26 -47.5t-22 -79.5z" />
    <glyph glyph-name="gcircumflex.alt" horiz-adv-x="541" 
d="M494 661q-16 -22 -36.5 -40t-44.5 -26l-90 65l-116 -64q-21 8 -34.5 25.5t-19.5 39.5l180 129h35zM107 190q-44 22 -56.5 69.5t-0.5 105.5q18 86 80.5 130.5t169.5 44.5q73 0 117 -25l152 25q3 -11 2 -25.5t-4.5 -30.5t-9 -31t-12.5 -26l-69 10q5 -17 3.5 -44.5
t-6.5 -50.5q-36 -174 -252 -174h-15t-14 1q-18 -20 -17 -39q0 -14 13.5 -21.5t34.5 -13t48 -9.5t54 -10.5t51.5 -17t42 -28t24 -44.5t-1.5 -67q-18 -83 -102.5 -127t-214.5 -44q-120 0 -165.5 40t-31.5 109q6 27 19 46.5t28.5 33.5t32 23l29.5 16q-7 11 -10.5 29t0.5 38
q8 35 30 61t51 46zM279 443q-31 0 -53 -20.5t-33 -68.5q-10 -48 3.5 -68.5t44.5 -20.5t53.5 20.5t32.5 68.5q11 48 -3 68.5t-45 20.5zM149 -148q66 0 100.5 17t40.5 45q4 20 -13 29.5t-44.5 14.5t-62 8t-64.5 11q-11 -10 -22 -25t-16 -35q-6 -29 12 -47t69 -18z" />
    <glyph glyph-name="gcommaaccent" unicode="&#x123;" horiz-adv-x="557" 
d="M450 822q-13 -12 -24 -26q-10 -13 -20.5 -30t-16.5 -40q11 -1 20.5 -2t15.5 -2q7 -2 13 -3l-27 -124l-21 -4q-20 -3 -57 -3t-56 3q-11 2 -20 4l20 90q8 41 28.5 72.5t41.5 52.5q25 25 53 43zM292 41q-27 -25 -61 -38t-77 -13q-42 0 -72.5 16t-47.5 50.5t-18.5 88.5
t14.5 131q16 76 39.5 127t53.5 81.5t66.5 43t78.5 12.5q46 0 74.5 -13t44.5 -38l7 33q10 2 22 4q11 2 25 3t33 1q18 0 32 -1t23 -3q11 -2 19 -4l-106 -496q-31 -146 -109 -211t-198 -65q-42 0 -74 6t-53 14q-25 9 -42 21q8 29 22.5 54.5t37.5 44.5q13 -7 30 -12
q14 -5 33.5 -8t42.5 -3q25 0 48.5 5.5t43.5 22t36.5 48t27.5 83.5zM185 263q-10 -48 -11 -77.5t5.5 -46.5t20 -23t33.5 -6q33 0 57.5 25t34.5 62l28 132q8 40 -5.5 65t-48.5 25q-20 0 -36 -6t-30 -23t-26 -47.5t-22 -79.5z" />
    <glyph glyph-name="gcommaaccent.alt" horiz-adv-x="541" 
d="M431 834q-13 -11 -24 -26q-10 -13 -20.5 -31t-16.5 -41q11 -1 20.5 -2t16.5 -2q8 -2 13 -3l-27 -127q-10 -2 -22 -4q-21 -3 -59 -3t-57 3q-11 2 -20 4l19 92q9 42 29.5 74t42.5 54q26 26 55 44zM107 190q-44 22 -56.5 69.5t-0.5 105.5q18 86 80.5 130.5t169.5 44.5
q73 0 117 -25l152 25q3 -11 2 -25.5t-4.5 -30.5t-9 -31t-12.5 -26l-69 10q5 -17 3.5 -44.5t-6.5 -50.5q-36 -174 -252 -174h-15t-14 1q-18 -20 -17 -39q0 -14 13.5 -21.5t34.5 -13t48 -9.5t54 -10.5t51.5 -17t42 -28t24 -44.5t-1.5 -67q-18 -83 -102.5 -127t-214.5 -44
q-120 0 -165.5 40t-31.5 109q6 27 19 46.5t28.5 33.5t32 23l29.5 16q-7 11 -10.5 29t0.5 38q8 35 30 61t51 46zM279 443q-31 0 -53 -20.5t-33 -68.5q-10 -48 3.5 -68.5t44.5 -20.5t53.5 20.5t32.5 68.5q11 48 -3 68.5t-45 20.5zM149 -148q66 0 100.5 17t40.5 45
q4 20 -13 29.5t-44.5 14.5t-62 8t-64.5 11q-11 -10 -22 -25t-16 -35q-6 -29 12 -47t69 -18z" />
    <glyph glyph-name="gdotaccent" unicode="&#x121;" horiz-adv-x="561" 
d="M410 603q-8 -2 -19 -4q-9 -2 -22.5 -3t-30.5 -1t-30 1t-21 3q-10 2 -16 4l27 128l18 3q9 2 22 3t31 1q17 0 30 -1t21 -3q10 -2 17 -3zM296 41q-27 -25 -61 -38t-77 -13q-42 0 -73.5 16t-49 50t-19.5 88t14 131q16 76 40 127t55 82t68 43.5t79 12.5q46 0 74.5 -13
t44.5 -38l7 33q10 2 22 4q11 2 25 3t33 1q18 0 32 -1t23 -3q11 -2 19 -4l-106 -496q-31 -146 -109 -211t-198 -65q-42 0 -74 6t-53 14q-25 9 -42 21q8 29 22.5 54.5t37.5 44.5q13 -7 30 -12q14 -5 33.5 -8t42.5 -3q25 0 48.5 5.5t43.5 22t36.5 48t27.5 83.5zM189 263
q-10 -48 -11 -77.5t5.5 -46.5t20 -23t33.5 -6q33 0 57.5 25t34.5 62l28 132q8 40 -5.5 65t-48.5 25q-20 0 -36 -6t-30 -23t-26 -47.5t-22 -79.5z" />
    <glyph glyph-name="gdotaccent.alt" horiz-adv-x="541" 
d="M385 603q-8 -2 -19 -4q-9 -2 -22.5 -3t-30.5 -1t-30 1t-21 3q-10 2 -16 4l27 128l18 3q9 2 22 3t31 1q17 0 30 -1t21 -3q10 -2 17 -3zM107 190q-44 22 -56.5 69.5t-0.5 105.5q18 86 80.5 130.5t169.5 44.5q73 0 117 -25l152 25q3 -11 2 -25.5t-4.5 -30.5t-9 -31
t-12.5 -26l-69 10q5 -17 3.5 -44.5t-6.5 -50.5q-36 -174 -252 -174h-15t-14 1q-18 -20 -17 -39q0 -14 13.5 -21.5t34.5 -13t48 -9.5t54 -10.5t51.5 -17t42 -28t24 -44.5t-1.5 -67q-18 -83 -102.5 -127t-214.5 -44q-120 0 -165.5 40t-31.5 109q6 27 19 46.5t28.5 33.5t32 23
l29.5 16q-7 11 -10.5 29t0.5 38q8 35 30 61t51 46zM279 443q-31 0 -53 -20.5t-33 -68.5q-10 -48 3.5 -68.5t44.5 -20.5t53.5 20.5t32.5 68.5q11 48 -3 68.5t-45 20.5zM149 -148q66 0 100.5 17t40.5 45q4 20 -13 29.5t-44.5 14.5t-62 8t-64.5 11q-11 -10 -22 -25t-16 -35
q-6 -29 12 -47t69 -18z" />
    <glyph glyph-name="germandbls" unicode="&#xdf;" horiz-adv-x="584" 
d="M108 553q21 100 92 148.5t183 48.5q53 0 90 -14t59 -39t28.5 -59t-1.5 -73q-9 -44 -35 -91q-8 -1 -23 -4.5t-31 -12t-29.5 -22.5t-17.5 -35q-5 -23 3.5 -40.5t23 -33.5t32 -33t30.5 -39t19 -50t-2 -66q-9 -41 -28.5 -69t-48 -45.5t-64.5 -25.5t-76 -8q-29 0 -51.5 3
t-38.5 7q-18 4 -32 10q7 61 52 104q14 -5 31 -8t35 -3q26 0 47 10.5t27 36.5q4 18 -4 33t-22 30.5l-30 32.5t-28.5 38.5t-18.5 48.5t2 62q8 38 26 62t37 38q22 17 47 26q13 26 17 45q6 29 -7 48.5t-45 19.5q-41 0 -65 -20.5t-34 -67.5l-114 -538q-10 -2 -22 -4
q-11 -2 -25 -3t-32 -1q-20 0 -33 1t-22 3q-11 2 -17 4z" />
    <glyph glyph-name="grave" unicode="`" horiz-adv-x="238" 
d="M18 767q10 13 27 23.5t36.5 17.5t40 10t38.5 1l60 -147q-18 -19 -42.5 -29t-52.5 -15z" />
    <glyph glyph-name="greater" unicode="&#x3e;" horiz-adv-x="425" 
d="M14 90q-1 6 -1 14q0 14 6 41q6 28 12 41q3 8 6 14l223 88l-184 91q-1 5 -1 14q0 7 1 17.5t4 24.5q6 28 12 41l7 14l297 -143v-15q0 -13 -5 -41q-3 -13 -6.5 -23.5t-6.5 -18.5l-7 -16z" />
    <glyph glyph-name="greaterequal" unicode="&#x2265;" horiz-adv-x="444" 
d="M41 202q-1 6 -1 14q0 14 6 41q2 14 5.5 24t6.5 17q4 8 6 14l199 60l-173 63q-1 6 -1 14q0 14 6 41q6 28 12 41l7 14l302 -115q1 -6 1 -14q0 -13 -5 -41q-3 -13 -6.5 -23.5t-6.5 -18.5l-7 -17zM11 68q-1 6 -1 14q0 13 6 39q2 13 5.5 22.5t6.5 16.5q4 8 6 14h327
q1 -6 1 -14q0 -11 -5 -39q-3 -13 -6.5 -22.5t-6.5 -16.5q-4 -8 -6 -14h-327z" />
    <glyph glyph-name="guillemotleft" unicode="&#xab;" horiz-adv-x="545" 
d="M296 514q14 -17 20.5 -41.5t4.5 -50.5l-167 -153l102 -152q-10 -27 -25.5 -50.5t-38.5 -41.5l-169 182q-2 6 -2 15q-2 17 4 44q3 14 7 26t8 20q4 10 9 17zM507 502q13 -15 19 -38.5t4 -47.5l-158 -147l96 -146q-10 -26 -24.5 -47.5t-35.5 -38.5l-161 174q-1 6 -2 15
q-1 7 -0.5 17t3.5 23q6 29 14 44q4 9 9 16z" />
    <glyph glyph-name="guillemotright" unicode="&#xbb;" horiz-adv-x="545" 
d="M507 329q1 -7 1 -17q0 -8 -1 -20t-4 -26t-7 -25l-7 -19q-4 -9 -8 -15l-247 -182q-14 18 -20 41.5t-4 50.5l166 152l-101 153q9 26 26 50.5t37 41.5zM283 326q1 -7 1 -16q0 -8 -0.5 -19t-3.5 -25q-3 -13 -6.5 -23t-6.5 -17q-4 -9 -8 -15l-235 -174q-14 17 -19.5 38.5
t-4.5 47.5l158 146l-96 147q9 24 25 47.5t36 38.5z" />
    <glyph glyph-name="guilsinglleft" unicode="&#x2039;" horiz-adv-x="337" 
d="M300 514q14 -17 20.5 -41.5t4.5 -50.5l-167 -153l102 -152q-11 -27 -26.5 -50.5t-37.5 -41.5l-176 182q-2 6 -2 15q0 8 1 18.5t4 24.5q3 15 7 27t8 20q4 10 8 17z" />
    <glyph glyph-name="guilsinglright" unicode="&#x203a;" horiz-adv-x="337" 
d="M301 329q1 -7 1 -17q0 -17 -6 -47q-3 -14 -7 -24.5l-7 -18.5q-4 -9 -7 -15l-254 -182q-15 18 -20.5 41.5t-3.5 50.5l166 152l-101 153q8 26 25 50.5t38 41.5z" />
    <glyph glyph-name="h" unicode="h" horiz-adv-x="548" 
d="M433 8q-9 -2 -20 -4q-10 -2 -25 -3t-34 -1q-20 0 -34 1t-23 3q-11 2 -18 4l74 351q6 28 -5 44t-46 16q-38 0 -75 -28l-81 -383l-21 -4t-25 -3t-33 -1q-20 0 -34 1t-23 3q-11 2 -18 4l156 734q8 2 19 4q10 2 24.5 3t34.5 1q19 0 33 -1t24 -3q11 -2 19 -4l-53 -250
q31 24 67.5 36t76.5 12q76 0 104.5 -46.5t13.5 -118.5z" />
    <glyph glyph-name="hbar" unicode="&#x127;" horiz-adv-x="548" 
d="M249 492q61 48 143 48q77 0 105.5 -46.5t12.5 -121.5l-77 -364l-21 -4t-25 -3t-33 -1q-20 0 -34 1t-23 3q-11 2 -18 4l74 351q6 28 -5.5 44t-45.5 16q-39 0 -75 -28l-81 -383q-9 -2 -21 -4q-11 -2 -25.5 -3t-32.5 -1q-20 0 -34 1t-23 3q-11 2 -18 4l125 591h-64
q-2 20 3 44t16 44h64l12 55q8 2 19 4q10 2 24.5 3t34.5 1q18 0 32 -1t24 -3q11 -2 20 -4l-12 -55h126q2 -20 -3 -43.5t-16 -44.5h-126l-22 -107v0z" />
    <glyph glyph-name="hcircumflex" unicode="&#x125;" horiz-adv-x="548" 
d="M412 831q-16 -21 -36.5 -38.5t-43.5 -26.5l-89 65l-115 -64q-20 8 -32.5 25.5t-19.5 38.5l167 118h35zM433 8l-21 -4t-25 -3t-33 -1q-20 0 -34 1t-23 3q-11 2 -18 4l74 351q6 28 -5.5 44.5t-45.5 16.5q-19 0 -38.5 -7.5t-36.5 -20.5l-81 -384q-9 -2 -21 -4
q-11 -2 -25.5 -3t-32.5 -1q-20 0 -34 1t-23 3q-11 2 -18 4l156 734q8 2 19 4q10 2 24.5 3t34.5 1q18 0 32 -1t24 -3q11 -2 20 -4l-53 -250q61 48 143 48q77 0 105.5 -46.5t12.5 -123.5z" />
    <glyph glyph-name="hungarumlaut" unicode="&#x2dd;" horiz-adv-x="386" 
d="M51 623q-26 4 -46 14.5t-30 29.5l123 147q19 2 38 -1t35.5 -10t29 -17.5t17.5 -23.5zM240 623q-25 4 -45.5 14.5t-29.5 29.5l122 147q19 2 38 -1t35.5 -10t29 -17.5t17.5 -23.5z" />
    <glyph glyph-name="hyphen" unicode="-" horiz-adv-x="350" 
d="M46 235q-1 6 -1 15q0 14 6 40q2 13 5.5 22.5l6.5 17.5q4 8 6 15h227q1 -7 1 -15t-1.5 -17.5l-3.5 -22.5q-3 -13 -6.5 -23t-6.5 -17l-6 -15h-227z" />
    <glyph glyph-name="i" unicode="i" horiz-adv-x="265" 
d="M273 607q-9 -2 -21 -4q-11 -2 -25.5 -3t-32.5 -1q-20 0 -34 1t-23 3q-11 2 -18 4l29 135q8 2 19 4q10 2 24.5 3t34.5 1q18 0 32 -1t24 -3q11 -2 20 -4zM146 8q-9 -2 -21 -4q-11 -2 -25.5 -3t-32.5 -1q-20 0 -34 1t-23 3q-11 2 -18 4l109 514q9 2 20 4q10 2 24.5 3t34.5 1
q18 0 32 -1t24 -3q11 -2 19 -4z" />
    <glyph glyph-name="iacute" unicode="&#xed;" horiz-adv-x="265" 
d="M187 595q-25 5 -45.5 15t-29.5 29l122 147q19 2 38 -1t35.5 -10t29 -17.5t17.5 -23.5zM146 8l-21 -4t-25 -3t-33 -1q-20 0 -34 1t-23 3q-11 2 -18 4l109 514q9 2 20 4q10 2 24.5 3t34.5 1q19 0 32.5 -1t23.5 -3q11 -2 19 -4z" />
    <glyph glyph-name="ibreve" unicode="&#x12d;" horiz-adv-x="265" 
d="M377 669q-21 -21 -49 -37q-24 -14 -58 -25.5t-78 -11.5q-45 0 -73.5 11.5t-46.5 25.5q-21 16 -33 37q13 22 34 41t45 28q10 -8 24 -14q12 -5 30.5 -9.5t44.5 -4.5q25 0 46 4.5t35 9.5q17 6 30 14q20 -9 33 -28t16 -41zM146 8l-21 -4t-25 -3t-33 -1q-20 0 -34 1t-23 3
q-11 2 -18 4l109 514q9 2 20 4q10 2 24.5 3t34.5 1q19 0 32.5 -1t23.5 -3q11 -2 19 -4z" />
    <glyph glyph-name="icircumflex" unicode="&#xee;" horiz-adv-x="265" 
d="M379 661q-16 -22 -36.5 -40t-44.5 -26l-90 65l-117 -64q-20 8 -33.5 25.5t-20.5 39.5l181 129h35zM146 8l-21 -4t-25 -3t-33 -1q-20 0 -34 1t-23 3q-11 2 -18 4l109 514q9 2 20 4q10 2 24.5 3t34.5 1q19 0 32.5 -1t23.5 -3q11 -2 19 -4z" />
    <glyph glyph-name="idieresis" unicode="&#xef;" horiz-adv-x="265" 
d="M162 602q-7 -2 -18 -4q-18 -3 -50 -3t-48 3q-10 2 -16 4l24 115q6 1 17 3q8 2 21 3t30 1q16 0 28 -1t20 -3q10 -2 16 -3zM359 602q-7 -2 -18 -4q-18 -3 -50 -3q-34 0 -49 3q-10 2 -15 4l24 115q6 1 17 3q8 2 21 3t30 1q16 0 28 -1t20 -3q10 -2 16 -3zM146 8l-21 -4
t-25 -3t-33 -1q-20 0 -34 1t-23 3q-11 2 -18 4l109 514q9 2 20 4q10 2 24.5 3t34.5 1q19 0 32.5 -1t23.5 -3q11 -2 19 -4z" />
    <glyph glyph-name="igrave" unicode="&#xec;" horiz-adv-x="265" 
d="M82 736q11 13 28 23.5t36.5 17.5t39.5 10t38 1l60 -147q-17 -19 -42.5 -29.5t-51.5 -14.5zM146 8l-21 -4t-25 -3t-33 -1q-20 0 -34 1t-23 3q-11 2 -18 4l109 514q9 2 20 4q10 2 24.5 3t34.5 1q19 0 32.5 -1t23.5 -3q11 -2 19 -4z" />
    <glyph glyph-name="ij" unicode="&#x133;" horiz-adv-x="524" 
d="M274 607q-9 -2 -21 -4q-11 -2 -25.5 -3t-32.5 -1q-20 0 -34 1t-23 3q-11 2 -18 4l29 135q8 2 19 4q10 2 24.5 3t34.5 1q18 0 32 -1t24 -3q11 -2 20 -4zM147 8q-9 -2 -21 -4q-11 -2 -25.5 -3t-32.5 -1q-20 0 -34 1t-23 3q-11 2 -18 4l109 514q9 2 20 4q10 2 24.5 3t34.5 1
q18 0 32 -1t24 -3q11 -2 19 -4zM532 605l-21 -4t-25 -3t-33 -1q-20 0 -34 1t-23 3q-11 2 -18 4l28 136q9 2 20 4q10 2 24.5 3t34.5 1q19 0 32.5 -1t23.5 -3q11 -2 19 -4zM360 522q9 2 20 4q10 2 24.5 3t34.5 1q18 0 31.5 -1t23.5 -3q11 -2 20 -4l-130 -610q-17 -78 -65 -120
t-132 -42q-22 0 -38.5 2.5t-27.5 5.5q-13 4 -23 8v10q0 10 3 24q4 19 10 33.5t11 24.5q6 11 13 19l10 -2t10.5 -1.5t12.5 -0.5q26 0 43 14t24 47z" />
    <glyph glyph-name="imacron" unicode="&#x12b;" horiz-adv-x="265" 
d="M96 613q1 20 5.5 44t12.5 41h204q0 -18 -5 -42t-13 -43h-204zM146 8l-21 -4t-25 -3t-33 -1q-20 0 -34 1t-23 3q-11 2 -18 4l109 514q9 2 20 4q10 2 24.5 3t34.5 1q19 0 32.5 -1t23.5 -3q11 -2 19 -4z" />
    <glyph glyph-name="infinity" unicode="&#x221e;" horiz-adv-x="804" 
d="M537 142q-42 0 -70 15t-46 34q-21 21 -34 49q-24 -28 -54 -49q-26 -19 -61 -34t-77 -15q-48 0 -81 15.5t-51.5 41t-24 58.5t2.5 68q7 35 26.5 68t49 59t69 41.5t87.5 15.5q42 0 70.5 -15.5t46.5 -34.5q21 -22 33 -50q25 28 55 50q26 19 60.5 34.5t76.5 15.5
q48 0 81 -15.5t52 -41.5t24 -59t-2 -68q-8 -35 -27 -68t-49 -58.5t-69.5 -41t-87.5 -15.5zM220 258q23 0 43 10t35 23q18 15 32 34q-7 19 -18 34q-10 13 -25.5 23.5t-38.5 10.5q-38 0 -60 -22t-27 -46t8 -45.5t51 -21.5zM590 393q-23 0 -43 -10.5t-35 -23.5q-18 -15 -32 -34
q7 -19 18 -34q10 -13 25.5 -23t38.5 -10q38 0 60 21.5t27 45.5q3 12 1 24t-9 22t-19.5 16t-31.5 6z" />
    <glyph glyph-name="integral" unicode="&#x222b;" horiz-adv-x="515" 
d="M235 530q18 88 75.5 139t148.5 51q31 0 55.5 -8t42.5 -18q20 -11 37 -26q-10 -24 -29.5 -48t-38.5 -38q-16 14 -39.5 22.5t-46.5 6.5q-27 -2 -49.5 -23t-33.5 -68l-110 -521q-19 -87 -71.5 -139t-142.5 -52q-31 0 -54.5 8t-40.5 18q-19 11 -34 26q10 23 28 47t40 38
q17 -14 37.5 -23t41.5 -6q23 2 42.5 23.5t30.5 69.5z" />
    <glyph glyph-name="iogonek" unicode="&#x12f;" horiz-adv-x="266" 
d="M149 744q9 2 20 4q10 2 24.5 3t34.5 1q19 0 32.5 -1t23.5 -3q11 -2 19 -4l-29 -136l-21 -4t-25 -3t-33 -1q-20 0 -34 1t-23 3q-11 2 -18 4zM148 12q-19 -12 -34.5 -30.5t-26 -39t-16 -39.5t-5.5 -31q2 -34 46 -14q5 -6 8.5 -16.5t5 -22.5t1 -24t-2.5 -20
q-20 -12 -50 -18.5t-61 -6.5q-47 0 -66.5 22.5t-19.5 52.5q0 45 29 91.5t84 87.5q-12 1 -23.5 3t-22.5 5l108 510q9 2 20 4q10 2 24.5 3t34.5 1q19 0 32.5 -1t23.5 -3q11 -2 19 -4z" />
    <glyph glyph-name="itilde" unicode="&#x129;" horiz-adv-x="265" 
d="M261 690q11 0 20 3.5t15 8.5q7 5 13 13q15 -11 23.5 -31t4.5 -42q-10 -13 -23 -24q-11 -9 -27.5 -16.5t-36.5 -7.5t-33.5 4.5t-24.5 10.5t-22.5 10.5t-26.5 4.5q-11 0 -19 -4t-15 -9q-8 -5 -14 -12q-15 12 -23.5 30.5t-4.5 42.5q11 13 24 24q11 9 27 17t36 8
q19 0 32.5 -5t25 -10.5l23 -10.5t26.5 -5zM146 8l-21 -4t-25 -3t-33 -1q-20 0 -34 1t-23 3q-11 2 -18 4l109 514q9 2 20 4q10 2 24.5 3t34.5 1q19 0 32.5 -1t23.5 -3q11 -2 19 -4z" />
    <glyph glyph-name="j" unicode="j" horiz-adv-x="266" 
d="M274 605l-21 -4t-25 -3t-33 -1q-20 0 -34 1t-23 3q-11 2 -18 4l28 136q9 2 20 4q10 2 24.5 3t34.5 1q19 0 32.5 -1t23.5 -3q11 -2 19 -4zM102 522q9 2 20 4q10 2 24.5 3t34.5 1q18 0 31.5 -1t23.5 -3q11 -2 20 -4l-130 -610q-17 -78 -65 -120t-132 -42q-22 0 -38.5 2.5
t-27.5 5.5q-13 4 -23 8v10q0 10 3 24q4 19 10 33.5t11 24.5q6 11 13 19l10 -2t10.5 -1.5t12.5 -0.5q26 0 43 14t24 47z" />
    <glyph glyph-name="jcircumflex" unicode="&#x135;" horiz-adv-x="266" 
d="M375 641q-16 -23 -36.5 -40.5t-44.5 -25.5l-90 65l-118 -65q-20 9 -33 26t-20 40l179 128h36zM102 522q9 2 20 4q10 2 24.5 3t34.5 1q18 0 31.5 -1t23.5 -3q11 -2 20 -4l-130 -610q-17 -78 -65 -120t-132 -42q-22 0 -38.5 2.5t-27.5 5.5q-13 4 -23 8v10q0 10 3 24
q4 19 10 33.5t11 24.5q6 11 13 19l10 -2t10.5 -1.5t12.5 -0.5q26 0 43 14t24 47z" />
    <glyph glyph-name="k" unicode="k" horiz-adv-x="519" 
d="M380 522q11 2 24 4q11 2 26 3t34 1q17 0 31 -1t25 -3l21 -4l-179 -250l93 -264q-12 -3 -25 -5q-12 -2 -27.5 -3t-35.5 -1q-19 0 -32.5 1t-22.5 3q-11 2 -17 5l-69 213h-35l-45 -213l-21 -4q-10 -2 -24.5 -3t-32.5 -1q-19 0 -32.5 1t-23.5 3q-11 2 -20 4l156 736l21 3
q11 1 25.5 2t32.5 1q17 0 30.5 -1t23.5 -2q11 -2 21 -3l-87 -412h34z" />
    <glyph glyph-name="kcommaaccent" unicode="&#x137;" horiz-adv-x="519" 
d="M101 -295q12 12 23 28q9 14 19 33.5t17 45.5q-20 1 -34 5l-12 3l30 139q9 1 20 3q10 2 24 3t32 1q17 0 31 -1t23 -3q11 -2 19 -3l-20 -100q-10 -47 -31 -82.5t-42 -59.5q-25 -28 -53 -48zM380 522q11 2 24 4q11 2 26 3t34 1q17 0 31 -1t25 -3l21 -4l-179 -250l93 -264
q-12 -3 -25 -5q-12 -2 -27.5 -3t-35.5 -1q-19 0 -32.5 1t-22.5 3q-11 2 -17 5l-69 213h-35l-45 -213l-21 -4q-10 -2 -24.5 -3t-32.5 -1q-19 0 -32.5 1t-23.5 3q-11 2 -20 4l156 736l21 3q11 1 25.5 2t32.5 1q17 0 30.5 -1t23.5 -2q11 -2 21 -3l-87 -412h34z" />
    <glyph glyph-name="kgreenlandic" unicode="&#x138;" horiz-adv-x="527" 
d="M345 316l125 -302q-10 -4 -23 -7q-11 -3 -28.5 -5t-40.5 -2q-21 0 -34.5 1.5t-21.5 3.5q-10 2 -14 5l-79 191l-54 -53l-29 -139q-17 -5 -37 -7t-41 -2q-22 0 -42 2t-34 7l108 511q16 3 37.5 4.5t43.5 1.5q21 0 40 -1.5t33 -4.5l-33 -163l160 163q17 3 42.5 4.5t46.5 1.5
t42 -1.5t39 -6.5z" />
    <glyph glyph-name="l" unicode="l" horiz-adv-x="268" 
d="M148 8l-21 -4t-25 -3t-33 -1q-20 0 -34 1t-23 3q-11 2 -18 4l156 734q8 2 19 4q10 2 24.5 3t34.5 1q19 0 33 -1t24 -3q11 -2 19 -4z" />
    <glyph glyph-name="lacute" unicode="&#x13a;" horiz-adv-x="268" 
d="M226 772q-26 5 -46 15t-30 29l123 147q19 2 38 -1t35.5 -10t29 -17.5t17.5 -23.5zM148 8l-21 -4t-25 -3t-33 -1q-20 0 -34 1t-23 3q-11 2 -18 4l156 734q8 2 19 4q10 2 24.5 3t34.5 1q19 0 33 -1t24 -3q11 -2 19 -4z" />
    <glyph glyph-name="lcaron" unicode="&#x13e;" horiz-adv-x="283" 
d="M369 569q-20 1 -37 8.5t-25 21.5q18 18 31 34t22.5 33t15 36t8.5 43q37 7 67.5 3.5t49.5 -17.5q-16 -54 -52 -98.5t-80 -63.5zM148 8l-21 -4t-25 -3t-33 -1q-20 0 -34 1t-23 3q-11 2 -18 4l156 734q8 2 19 4q10 2 24.5 3t34.5 1q19 0 33 -1t24 -3q11 -2 19 -4z" />
    <glyph glyph-name="lcommaaccent" unicode="&#x13c;" horiz-adv-x="268" 
d="M148 8l-21 -4t-25 -3t-33 -1q-20 0 -34 1t-23 3q-11 2 -18 4l156 734q8 2 19 4q10 2 24.5 3t34.5 1q19 0 33 -1t24 -3q11 -2 19 -4zM-62 -309q13 12 24 29q10 14 20 34.5t18 46.5q-11 1 -20 2t-15 3q-7 2 -13 3l31 143l21 4q10 2 24 3t33 1q18 0 32 -1t24 -3q11 -2 20 -4
l-22 -103q-11 -48 -32 -84.5t-43 -61.5q-26 -29 -55 -50z" />
    <glyph glyph-name="ldot" unicode="&#x140;" horiz-adv-x="427" 
d="M148 8l-21 -4t-25 -3t-33 -1q-20 0 -34 1t-23 3q-11 2 -18 4l156 734q8 2 19 4q10 2 24.5 3t34.5 1q19 0 33 -1t24 -3q11 -2 19 -4zM409 273q-8 -2 -19 -4q-9 -2 -21.5 -3t-29.5 -1t-29.5 1t-20.5 3q-10 2 -16 4l26 124q7 2 18 4q9 2 22 3t30 1t29 -1t20 -3q10 -2 17 -4z
" />
    <glyph glyph-name="less" unicode="&#x3c;" horiz-adv-x="425" 
d="M23 233q-1 7 0 16q1 8 2 18.5t4 23.5q2 13 5.5 23l6.5 18q4 9 7 15l357 143v-14q0 -7 -1 -17t-4 -24t-6 -24.5t-6 -17.5q-4 -9 -6 -14l-225 -91l186 -88q1 -6 1 -14q0 -7 -1 -17t-4 -24t-6.5 -24t-6.5 -17q-4 -8 -6 -14z" />
    <glyph glyph-name="lessequal" unicode="&#x2264;" horiz-adv-x="447" 
d="M60 316q-1 7 0 17q0 16 6 42q2 13 5.5 23.5t6.5 17.5q4 8 6 14l352 115v-14q0 -7 -1 -17t-4 -24t-6.5 -24t-6.5 -17q-4 -8 -6 -14l-200 -63l174 -60q1 -6 1 -14q0 -7 -1.5 -17l-3.5 -24q-3 -14 -6.5 -24t-6.5 -17q-4 -8 -6 -14zM7 68q-1 6 -1 14q0 13 6 39q2 13 5.5 22.5
t6.5 16.5q4 8 6 14h327q1 -6 1 -14q0 -16 -4 -39q-3 -13 -6.5 -22.5t-6.5 -16.5l-7 -14h-327z" />
    <glyph glyph-name="logicalnot" unicode="&#xac;" horiz-adv-x="601" 
d="M510 162q-7 -3 -17 -6q-18 -5 -47 -5q-28 0 -45 5q-9 3 -15 6l35 161h-370q-2 7 -2 17q-2 18 4 44q3 14 7 25.5t8 19.5q4 10 9 17h494z" />
    <glyph glyph-name="longs" unicode="&#x17f;" horiz-adv-x="321" 
d="M183 8l-21 -4t-25 -3t-33 -1q-20 0 -34 1t-23 3q-11 2 -18 4l86 408h-64q0 27 6.5 56t17.5 54h64l13 60q8 38 24 68.5t42.5 51.5t64.5 32.5t89 11.5q31 0 54 -4.5t40 -9.5q18 -6 33 -13q-9 -32 -26 -57.5t-38 -45.5q-7 3 -18 6q-9 2 -22 4t-30 2q-26 0 -40.5 -12
t-20.5 -40z" />
    <glyph glyph-name="lozenge" unicode="&#x25ca;" horiz-adv-x="566" 
d="M31 352l289 344h83l146 -344l-293 -345h-83zM330 542l-154 -191l73 -191l157 191z" />
    <glyph glyph-name="lslash" unicode="&#x142;" horiz-adv-x="365" 
d="M198 742q8 2 19 4q10 2 24.5 3t34.5 1q19 0 33 -1t24 -3q11 -2 19 -4l-52 -243l65 34q2 -3 6 -8q3 -5 6 -11.5t8 -16.5q7 -21 9 -32q1 -6 0 -11l-116 -60l-82 -386l-21 -4t-25 -3t-33 -1q-20 0 -34 1t-23 3q-11 2 -18 4l63 298l-62 -32q-3 3 -6 8t-6 11t-7 17
q-5 11 -6.5 18.5l-2.5 12.5q-1 6 -1 11l113 57l71 333v0z" />
    <glyph glyph-name="m" unicode="m" horiz-adv-x="821" 
d="M502 479q73 61 167 61q73 0 101 -48t12 -123l-76 -361q-10 -2 -22 -4q-11 -2 -25 -3t-32 -1q-20 0 -34 1t-23 3q-11 2 -18 4l74 351q6 27 -4 43.5t-44 16.5q-37 0 -71 -28l-81 -383q-10 -2 -22 -4q-11 -2 -25 -3t-32 -1q-20 0 -34 1t-23 3q-11 2 -18 4l74 351
q6 27 -4 43.5t-43 16.5q-37 0 -72 -27l-81 -384q-10 -2 -22 -4q-11 -2 -25 -3t-32 -1q-20 0 -34 1t-23 3q-11 2 -18 4l109 514q9 2 20 4q10 2 24.5 3t34.5 1q18 0 30.5 -1t20.5 -3q9 -2 15 -4v-39q27 23 65 40t78 17q42 0 70 -14.5t43 -46.5z" />
    <glyph glyph-name="macron" unicode="&#xaf;" horiz-adv-x="407" 
d="M12 625q-2 21 3.5 46t15.5 43h330q2 -19 -4 -44t-15 -45h-330z" />
    <glyph glyph-name="minus" unicode="&#x2212;" horiz-adv-x="458" 
d="M58 275v15q0 7 1 17t4 23q2 13 5.5 22.5l6.5 17.5q4 8 7 15h327v-15q0 -8 -1.5 -17.5l-3.5 -22.5q-7 -28 -12 -40q-4 -9 -7 -15h-327z" />
    <glyph glyph-name="mu" unicode="&#xb5;" horiz-adv-x="589" 
d="M407 522q9 2 21 4q11 2 25.5 3t32.5 1q19 0 33.5 -1t23.5 -3q11 -2 18 -4l-109 -514q-9 -2 -20 -4q-10 -2 -25 -3t-34 -1q-18 0 -32 1t-24 3q-11 2 -19 4l5 23q-46 -41 -108 -41q-21 0 -35.5 6t-24.5 14q-5 -54 -4 -95.5t3 -70.5q3 -34 8 -60q-18 -13 -40 -21t-45 -11
t-45.5 -1.5t-41.5 6.5q0 20 4 52q3 27 10.5 70.5t21.5 106.5l114 536q9 2 21 4q11 2 25.5 3t32.5 1q19 0 33.5 -1t23.5 -3q11 -2 18 -4l-75 -351q-6 -29 5.5 -45t44.5 -16q37 0 77 29l81 383v0z" />
    <glyph glyph-name="multiply" unicode="&#xd7;" horiz-adv-x="469" 
d="M77 97l-12 8l-12 10t-14 16q-8 9 -12 17l-7 14q-4 7 -5 13l138 114l-89 114q4 6 10 13q5 6 13 14t19 17t20.5 15t16.5 11q8 4 15 8l90 -115l138 115q5 -4 11 -8q11 -8 26 -26q8 -9 12 -17l7 -14q3 -7 5 -13l-139 -114l90 -114q-4 -7 -10 -14q-5 -6 -13 -14t-19 -17
q-22 -18 -37 -26l-14 -7l-90 114z" />
    <glyph glyph-name="n" unicode="n" horiz-adv-x="548" 
d="M433 8q-9 -2 -20 -4q-10 -2 -25 -3t-34 -1q-20 0 -34 1t-23 3q-11 2 -18 4l74 351q6 28 -5 44t-46 16q-38 0 -75 -28l-81 -383l-21 -4t-25 -3t-33 -1q-20 0 -34 1t-23 3q-11 2 -18 4l109 514q9 2 20 4q10 2 24.5 3t34.5 1q19 0 31.5 -1t20.5 -3q9 -2 15 -4v-42
q35 31 70.5 45t75.5 14q77 0 105 -45t11 -128z" />
    <glyph glyph-name="nacute" unicode="&#x144;" horiz-adv-x="548" 
d="M313 595q-25 5 -46 15t-30 29l122 147q19 2 38 -1t35.5 -10t29 -17.5t17.5 -23.5zM433 8q-9 -2 -20 -4q-10 -2 -25 -3t-34 -1q-20 0 -34 1t-23 3q-11 2 -18 4l74 351q6 28 -5 44t-46 16q-38 0 -75 -28l-81 -383l-21 -4t-25 -3t-33 -1q-20 0 -34 1t-23 3q-11 2 -18 4
l109 514q9 2 20 4q10 2 24.5 3t34.5 1q19 0 31.5 -1t20.5 -3q9 -2 15 -4v-42q69 60 146 60t105 -45.5t11 -128.5z" />
    <glyph glyph-name="napostrophe" unicode="&#x149;" horiz-adv-x="548" 
d="M173 571q-19 2 -34.5 12t-22.5 25q20 16 35 31.5t25.5 31.5t17.5 35t13 43q36 2 66 -4t47 -23q-11 -27 -27 -51t-35.5 -44t-41 -34.5t-43.5 -21.5zM433 8q-9 -2 -20 -4q-10 -2 -25 -3t-34 -1q-20 0 -34 1t-23 3q-11 2 -18 4l74 351q6 28 -5 44t-46 16q-38 0 -75 -28
l-81 -383l-21 -4t-25 -3t-33 -1q-20 0 -34 1t-23 3q-11 2 -18 4l109 514q9 2 20 4q10 2 24.5 3t34.5 1q19 0 31.5 -1t20.5 -3q9 -2 15 -4v-42q69 60 146 60t105 -45.5t11 -128.5z" />
    <glyph glyph-name="ncaron" unicode="&#x148;" horiz-adv-x="548" 
d="M456 762q20 -8 32 -24.5t17 -36.5l-158 -111h-33l-127 111q14 20 33.5 37t41.5 25l84 -62zM433 8q-9 -2 -20 -4q-10 -2 -25 -3t-34 -1q-20 0 -34 1t-23 3q-11 2 -18 4l74 351q6 28 -5 44t-46 16q-38 0 -75 -28l-81 -383l-21 -4t-25 -3t-33 -1q-20 0 -34 1t-23 3
q-11 2 -18 4l109 514q9 2 20 4q10 2 24.5 3t34.5 1q19 0 31.5 -1t20.5 -3q9 -2 15 -4v-42q69 60 146 60t105 -45.5t11 -128.5z" />
    <glyph glyph-name="ncommaaccent" unicode="&#x146;" horiz-adv-x="548" 
d="M96 -297q13 12 24 28q10 14 20 34t18 46q-12 1 -21 2t-15 3l-12 3l30 140q9 2 20 4q10 2 24.5 3t32.5 1q17 0 31 -1t24 -3q11 -2 19 -4l-22 -101q-10 -47 -31 -83t-42 -60q-26 -29 -54 -49zM433 8q-9 -2 -20 -4q-10 -2 -25 -3t-34 -1q-20 0 -34 1t-23 3q-11 2 -18 4
l74 351q6 28 -5 44t-46 16q-38 0 -75 -28l-81 -383l-21 -4t-25 -3t-33 -1q-20 0 -34 1t-23 3q-11 2 -18 4l109 514q9 2 20 4q10 2 24.5 3t34.5 1q19 0 31.5 -1t20.5 -3q9 -2 15 -4v-42q69 60 146 60t105 -45.5t11 -128.5z" />
    <glyph glyph-name="nine" unicode="9" horiz-adv-x="552" 
d="M43 0q-4 30 3 62t23 59q91 8 151.5 42.5t99.5 103.5q-20 -5 -41 -7.5t-46 -2.5q-44 0 -80.5 12.5t-59.5 39t-31 68t4 100.5q24 112 99 164.5t187 52.5q55 0 96.5 -15.5t66 -48.5t30.5 -84t-9 -121q-22 -102 -65.5 -179.5t-106 -130t-143.5 -81t-178 -34.5zM224 477
q-13 -60 6 -82.5t57 -22.5q23 0 44.5 4t37.5 9l6 22t5 22q9 43 9.5 72t-7 46.5t-21.5 25t-33 7.5q-38 0 -65 -24.5t-39 -78.5z" />
    <glyph glyph-name="nine.denom" horiz-adv-x="315" 
d="M6 234q12 57 53.5 85.5t104.5 28.5q64 0 92.5 -33.5t12.5 -105.5q-22 -104 -92.5 -154.5t-174.5 -57.5q-5 14 0 36t16 38q31 2 62 13t53 43q-14 -3 -35 -3q-23 0 -43 6t-33 19t-17.5 34t1.5 51zM165 196q8 41 5 61t-21 20q-15 0 -26 -10.5t-16 -32.5t2.5 -31.5t22.5 -9.5
q18 0 33 3z" />
    <glyph glyph-name="nine.num" horiz-adv-x="315" 
d="M79 580q12 57 53.5 85.5t104.5 28.5q64 0 92.5 -33.5t13.5 -105.5q-23 -105 -92.5 -154.5t-174.5 -57.5q-5 14 -0.5 36t16.5 38q31 2 62 13t52 43q-14 -3 -34 -3q-23 0 -43 6t-33 19t-18 34t1 51zM238 542q18 81 -16 81q-15 0 -26 -10.5t-16 -32.5t3 -31.5t23 -9.5
q18 0 32 3z" />
    <glyph glyph-name="nineinferior" unicode="&#x2089;" horiz-adv-x="315" 
d="M-15 138q12 57 54 85.5t105 28.5q64 0 92 -33.5t13 -105.5q-23 -105 -92.5 -154.5t-174.5 -57.5q-5 14 -0.5 36t16.5 38q31 2 62 13.5t53 42.5q-15 -3 -35 -3q-23 0 -43 6t-33 19t-18 34t1 51zM144 100q18 81 -16 81q-15 0 -26 -10.5t-16 -32.5t3 -31.5t23 -9.5
q18 0 32 3z" />
    <glyph glyph-name="notequal" unicode="&#x2260;" horiz-adv-x="497" 
d="M120 59q-14 -4 -28.5 -5.5t-29.5 -1.5q-13 0 -24.5 2t-20.5 5l58 79h-55q0 13 1 26.5t4 27.5q3 15 7.5 29.5t11.5 26.5h114l61 83h-158q-2 28 6 58q3 14 8 27.5t10 24.5h216l54 70q12 4 26 5.5t28 1.5t26.5 -2t23.5 -5l-54 -70h64q2 -11 0.5 -24.5t-4.5 -27.5
q-4 -15 -8.5 -30t-11.5 -28h-123l-61 -83h167q1 -22 -5 -53q-3 -15 -7.5 -29.5t-11.5 -27.5h-226z" />
    <glyph glyph-name="ntilde" unicode="&#xf1;" horiz-adv-x="548" 
d="M178 676q12 14 28 25q14 10 33 18t43 8t40.5 -5t31 -11t28.5 -11t32 -5q13 0 23.5 4t18.5 9q9 5 15 13q20 -11 28.5 -32.5t6.5 -43.5q-11 -15 -27 -26q-14 -10 -33 -17.5t-44 -7.5q-24 0 -41 5t-30.5 11t-27.5 11t-32 5q-13 0 -23.5 -4t-18.5 -9q-10 -6 -17 -13
q-40 25 -34 76zM433 8q-9 -2 -20 -4q-10 -2 -25 -3t-34 -1q-20 0 -34 1t-23 3q-11 2 -18 4l74 351q6 28 -5 44t-46 16q-38 0 -75 -28l-81 -383l-21 -4t-25 -3t-33 -1q-20 0 -34 1t-23 3q-11 2 -18 4l109 514q9 2 20 4q10 2 24.5 3t34.5 1q19 0 31.5 -1t20.5 -3q9 -2 15 -4
v-42q69 60 146 60t105 -45.5t11 -128.5z" />
    <glyph glyph-name="_300" horiz-adv-x="0" 
 />
    <glyph glyph-name="numbersign" unicode="#" horiz-adv-x="675" 
d="M542 614q30 9 66 9q35 0 59 -9l-52 -106h69q1 -13 0.5 -26t-4.5 -28q-3 -17 -8.5 -33t-12.5 -30h-102l-83 -168h66q1 -7 1 -16q0 -8 -1 -18.5t-4 -24.5t-7 -24.5l-7 -18.5l-7 -16h-99l-47 -96q-29 -9 -63 -9q-37 0 -62 9l46 96h-101l-46 -96q-30 -9 -67 -9q-34 0 -59 9
l47 96h-73q-1 6 -1 15q0 14 6 43q3 15 6.5 26t6.5 19q4 9 7 15h106l83 168h-70q-2 14 -0.5 28t5.5 31q6 33 20 58h103l52 106q30 9 63 9q37 0 63 -9l-52 -106h101zM247 223h101l83 168h-101z" />
    <glyph glyph-name="o" unicode="o" horiz-adv-x="550" 
d="M29 279q16 75 43 125t64 80t83.5 43t101.5 13t97 -16.5t66.5 -51.5t30 -89t-10.5 -129t-42.5 -125.5t-63.5 -81t-83.5 -44t-101.5 -13.5t-96.5 17t-66.5 52.5t-31 90t10 129.5zM348 265q10 47 11 77.5t-5.5 48.5t-20 25t-32.5 7q-20 0 -36.5 -7t-31 -25t-26.5 -48.5
t-22 -77.5t-11 -78t5.5 -49t20 -25t33.5 -7q19 0 36 7t31 25t26 49t22 78z" />
    <glyph glyph-name="oacute" unicode="&#xf3;" horiz-adv-x="550" 
d="M364 786q19 2 38 -1t35.5 -10t29 -17.5t17.5 -23.5l-168 -142q-25 5 -45 16.5t-29 30.5zM29 279q16 75 43 125t64 80t83.5 43t101.5 13t97 -16.5t66.5 -51.5t30 -89t-10.5 -129t-42.5 -125.5t-63.5 -81t-83.5 -44t-101.5 -13.5t-96.5 17t-66.5 52.5t-31 90t10 129.5z
M348 265q10 47 11 77.5t-5.5 48.5t-20 25t-32.5 7q-20 0 -36.5 -7t-31 -25t-26.5 -48.5t-22 -77.5t-11 -78t5.5 -49t20 -25t33.5 -7q19 0 36 7t31 25t26 49t22 78z" />
    <glyph glyph-name="obreve" unicode="&#x14f;" horiz-adv-x="550" 
d="M351 708q25 0 46 4.5t35 9.5q17 6 30 14q20 -9 33 -28t15 -41q-18 -20 -44 -36q-22 -14 -54 -24.5t-76 -10.5q-45 0 -75 10.5t-50 24.5q-23 16 -38 36q12 22 33 41t46 28q10 -8 24 -14q12 -5 30.5 -9.5t44.5 -4.5zM29 279q16 75 43 125t64 80t83.5 43t101.5 13t97 -16.5
t66.5 -51.5t30 -89t-10.5 -129t-42.5 -125.5t-63.5 -81t-83.5 -44t-101.5 -13.5t-96.5 17t-66.5 52.5t-31 90t10 129.5zM348 265q10 47 11 77.5t-5.5 48.5t-20 25t-32.5 7q-20 0 -36.5 -7t-31 -25t-26.5 -48.5t-22 -77.5t-11 -78t5.5 -49t20 -25t33.5 -7q19 0 36 7t31 25
t26 49t22 78z" />
    <glyph glyph-name="ocircumflex" unicode="&#xf4;" horiz-adv-x="550" 
d="M516 653q-16 -22 -37 -39.5t-44 -25.5l-90 65l-117 -64q-21 8 -34 25t-19 39l177 119h35zM29 279q16 75 43 125t64 80t83.5 43t101.5 13t97 -16.5t66.5 -51.5t30 -89t-10.5 -129t-42.5 -125.5t-63.5 -81t-83.5 -44t-101.5 -13.5t-96.5 17t-66.5 52.5t-31 90t10 129.5z
M348 265q10 47 11 77.5t-5.5 48.5t-20 25t-32.5 7q-20 0 -36.5 -7t-31 -25t-26.5 -48.5t-22 -77.5t-11 -78t5.5 -49t20 -25t33.5 -7q19 0 36 7t31 25t26 49t22 78z" />
    <glyph glyph-name="odieresis" unicode="&#xf6;" horiz-adv-x="550" 
d="M191 717q6 1 17 3q8 2 21 3t30 1q16 0 28 -1t20 -3q10 -2 16 -3l-24 -115q-7 -2 -18 -4q-18 -3 -50 -3t-48 3q-10 2 -16 4zM388 717q6 1 17 3q8 2 21 3t30 1q16 0 28 -1t20 -3q10 -2 16 -3l-24 -115q-7 -2 -18 -4q-18 -3 -50 -3q-34 0 -49 3q-10 2 -15 4zM29 279
q16 75 43 125t64 80t83.5 43t101.5 13t97 -16.5t66.5 -51.5t30 -89t-10.5 -129t-42.5 -125.5t-63.5 -81t-83.5 -44t-101.5 -13.5t-96.5 17t-66.5 52.5t-31 90t10 129.5zM348 265q10 47 11 77.5t-5.5 48.5t-20 25t-32.5 7q-20 0 -36.5 -7t-31 -25t-26.5 -48.5t-22 -77.5
t-11 -78t5.5 -49t20 -25t33.5 -7q19 0 36 7t31 25t26 49t22 78z" />
    <glyph glyph-name="oe" unicode="&#x153;" horiz-adv-x="805" 
d="M475 219q-7 -61 13 -84.5t65 -23.5q23 0 43.5 3t35.5 8q18 5 33 12q14 -14 21.5 -42t2.5 -57q-20 -13 -48 -23q-24 -8 -59 -15t-80 -7q-48 0 -82.5 16t-54.5 45q-34 -27 -74 -44t-84 -17q-55 0 -95.5 17.5t-64 53.5t-28.5 90.5t11 129.5t43.5 124.5t64.5 79.5t84 42.5
t102 12.5q45 0 78.5 -15.5t53.5 -47.5q33 32 73 47.5t83 15.5q49 0 86 -13t59 -39t28.5 -65.5t-4.5 -93.5q-5 -25 -11 -45.5t-11 -34.5q-6 -17 -12 -30h-272zM299 423q-20 0 -36.5 -7t-31 -25t-26.5 -48.5t-22 -77.5t-11 -78t5.5 -49t20 -25t33.5 -7q19 0 34.5 7t28.5 25
t24 49t21 78t12 77.5t-3 48.5t-17.5 25t-31.5 7zM637 346q7 35 -1.5 58.5t-44.5 23.5q-31 0 -54.5 -25t-42.5 -88h134z" />
    <glyph glyph-name="ogonek" unicode="&#x2db;" horiz-adv-x="283" 
d="M248 0q-19 -12 -36 -28.5t-30 -34.5t-20 -35.5t-7 -29.5q2 -34 46 -14q5 -6 8.5 -16.5t5 -22.5t1 -24t-2.5 -20q-20 -12 -50 -18.5t-61 -6.5q-47 0 -66.5 22.5t-19.5 52.5q0 47 34 89.5t95 85.5h103z" />
    <glyph glyph-name="ograve" unicode="&#xf2;" horiz-adv-x="550" 
d="M401 639q-19 -19 -43.5 -29t-52.5 -15l-107 139q10 13 27 23.5t36.5 17.5t40 10t38.5 1zM29 279q16 75 43 125t64 80t83.5 43t101.5 13t97 -16.5t66.5 -51.5t30 -89t-10.5 -129t-42.5 -125.5t-63.5 -81t-83.5 -44t-101.5 -13.5t-96.5 17t-66.5 52.5t-31 90t10 129.5z
M348 265q10 47 11 77.5t-5.5 48.5t-20 25t-32.5 7q-20 0 -36.5 -7t-31 -25t-26.5 -48.5t-22 -77.5t-11 -78t5.5 -49t20 -25t33.5 -7q19 0 36 7t31 25t26 49t22 78z" />
    <glyph glyph-name="ohungarumlaut" unicode="&#x151;" horiz-adv-x="550" 
d="M293 743q17 3 34.5 1.5t33.5 -6.5t28 -13t18 -18l-138 -125q-25 2 -44 9t-30 21zM476 743q17 2 35 -0.5t33 -8.5t26.5 -15t16.5 -19l-150 -116q-23 4 -42.5 12.5t-28.5 23.5zM29 279q16 75 43 125t64 80t83.5 43t101.5 13t97 -16.5t66.5 -51.5t30 -89t-10.5 -129
t-42.5 -125.5t-63.5 -81t-83.5 -44t-101.5 -13.5t-96.5 17t-66.5 52.5t-31 90t10 129.5zM348 265q10 47 11 77.5t-5.5 48.5t-20 25t-32.5 7q-20 0 -36.5 -7t-31 -25t-26.5 -48.5t-22 -77.5t-11 -78t5.5 -49t20 -25t33.5 -7q19 0 36 7t31 25t26 49t22 78z" />
    <glyph glyph-name="omacron" unicode="&#x14d;" horiz-adv-x="550" 
d="M491 700q1 -19 -4.5 -43.5t-14.5 -44.5h-266q1 21 6 45.5t13 42.5h266zM29 280q16 75 43 125t64 80t83.5 43t101.5 13t97 -16.5t66.5 -51.5t30 -89t-10.5 -129t-42.5 -125.5t-63.5 -81t-83.5 -44t-101.5 -13.5t-96.5 17t-66.5 52.5t-31 90t10 129.5zM348 266
q10 47 11 77.5t-5.5 48.5t-20 25t-32.5 7q-20 0 -36.5 -7t-31 -25t-26.5 -48.5t-22 -77.5t-11 -78t5.5 -49t20 -25t33.5 -7q19 0 36 7t31 25t26 49t22 78z" />
    <glyph glyph-name="one" unicode="1" horiz-adv-x="428" 
d="M67 549q66 18 113.5 48t90.5 78q9 2 21 4q11 2 25.5 3.5t33.5 1.5q18 0 32.5 -1.5t24.5 -3.5q11 -2 20 -4l-141 -666q-9 -3 -21 -5q-11 -2 -25.5 -3t-33.5 -1q-18 0 -32.5 1t-24.5 3q-12 2 -21 5l82 387q6 27 12 50.5l11 43.5q-37 -25 -75.5 -40.5t-76.5 -23.5
q-19 20 -23.5 53t8.5 70z" />
    <glyph glyph-name="one.denom" horiz-adv-x="257" 
d="M6 281q36 9 62.5 22.5t49.5 34.5q11 3 24.5 4t27.5 1q24 0 47 -5l-71 -333q-12 -2 -24 -3.5t-25 -1.5q-14 0 -28 1t-26 4l38 181l11 44q-17 -10 -37.5 -17t-40.5 -9q-10 13 -12 34.5t4 42.5z" />
    <glyph glyph-name="one.num" horiz-adv-x="272" 
d="M79 627q37 9 63 22.5t49 34.5q11 3 24.5 4t27.5 1q25 0 47 -5l-70 -333q-12 -2 -24 -3.5t-25 -1.5q-14 0 -28 1t-26 4l38 181q2 12 4.5 22.5t5.5 21.5q-16 -10 -36.5 -17t-40.5 -9q-11 13 -13 34.5t4 42.5z" />
    <glyph glyph-name="oneeighth" unicode="&#x215b;" horiz-adv-x="742" 
d="M569 695q5 1 14 3q8 2 18.5 3t25.5 1q14 0 25 -1t18 -3q8 -2 14 -3l-535 -698q-7 -2 -16 -4q-15 -3 -43 -3q-25 0 -40 3q-9 2 -15 4zM203 683q11 3 24.5 4t28.5 1q24 0 46 -5l-71 -333q-23 -5 -49 -5q-14 0 -27 1t-27 4l39 181q2 12 4.5 22.5t6.5 21.5q-17 -10 -37.5 -17
t-40.5 -9q-11 13 -13 34.5t4 42.5q37 9 63 22.5t49 34.5zM436 253q9 45 47.5 70t101.5 25q60 0 87.5 -23.5t18.5 -65.5q-5 -26 -21.5 -45.5t-36.5 -31.5q21 -13 32 -33.5t4 -52.5q-10 -48 -50.5 -74.5t-109.5 -26.5q-65 0 -96 24t-21 72q6 29 25.5 49.5t46.5 32.5
q-40 25 -28 80zM599 252q5 28 -29 28q-16 0 -25.5 -7t-11.5 -18q-3 -14 9.5 -23.5t32.5 -16.5q18 13 24 37zM572 95q2 9 -2 15.5t-11.5 12t-17.5 9.5t-19 9q-8 -6 -15 -12q-6 -5 -11 -13t-7 -17q-6 -33 37 -33q18 0 30.5 7.5t15.5 21.5z" />
    <glyph glyph-name="onehalf" unicode="&#xbd;" horiz-adv-x="736" 
d="M569 695q5 1 14 3q8 2 18.5 3t25.5 1q14 0 25 -1t18 -3q8 -2 14 -3l-535 -698q-7 -2 -16 -4q-15 -3 -43 -3q-25 0 -40 3q-9 2 -15 4zM203 683q11 3 24.5 4t28.5 1q24 0 46 -5l-71 -333q-23 -5 -49 -5q-14 0 -27 1t-27 4l39 181q2 12 4.5 22.5t6.5 21.5q-17 -10 -37.5 -17
t-40.5 -9q-11 13 -13 34.5t4 42.5q37 9 63 22.5t49 34.5zM474 331q15 4 33 8q15 3 35 6t43 3q57 0 88 -24t20 -78q-9 -41 -31.5 -63t-50.5 -37t-57.5 -28t-51.5 -34h140q3 -19 -2 -43q-5 -23 -16 -41h-236q-1 5 0 13q0 12 5 35q7 33 23.5 56t37.5 39t43.5 27l42 21
t33.5 20.5t17 25.5q4 17 -9 24t-33 7q-17 1 -35.5 -2t-32.5 -7q-9 14 -10.5 33t4.5 39z" />
    <glyph glyph-name="oneinferior" unicode="&#x2081;" horiz-adv-x="257" 
d="M-15 185q37 9 63 22.5t49 34.5q11 3 24.5 4t27.5 1q25 0 47 -5l-70 -333q-12 -2 -24 -3.5t-25 -1.5q-14 0 -28 1t-26 4l38 181q2 12 4.5 22.5t5.5 21.5q-16 -10 -36.5 -17t-40.5 -9q-10 13 -12.5 34.5t3.5 42.5z" />
    <glyph glyph-name="onequarter" unicode="&#xbc;" horiz-adv-x="693" 
d="M569 695q5 1 14 3q8 2 18.5 3t25.5 1q14 0 25 -1t18 -3q8 -2 14 -3l-535 -698q-7 -2 -16 -4q-15 -3 -43 -3q-25 0 -40 3q-9 2 -15 4zM91 626q37 9 63 22.5t49 34.5q11 3 24.5 4t28.5 1q24 0 46 -5l-71 -333q-23 -5 -49 -5q-14 0 -27 1t-27 4l39 181q2 12 4.5 22.5
t6.5 21.5q-17 -10 -37.5 -17t-40.5 -9q-11 13 -13 34.5t4 42.5zM626 142q1 -18 -3 -36q-2 -9 -4.5 -17t-7.5 -17h-37l-14 -67q-14 -3 -26 -4t-20 -1t-20 1t-23 4l14 67h-161v16.5t2 16.5t4.5 15.5t6.5 15.5l199 201q22 6 49 6q25 0 46 -6l-42 -195h37zM433 142h67l19 88z
" />
    <glyph glyph-name="onesuperior" unicode="&#xb9;" horiz-adv-x="258" 
d="M80 626q37 9 63 22.5t49 34.5q11 3 24.5 4t28.5 1q24 0 46 -5l-71 -333q-23 -5 -49 -5q-14 0 -27 1t-27 4l39 181q2 12 4.5 22.5t6.5 21.5q-17 -10 -37.5 -17t-40.5 -9q-11 13 -13 34.5t4 42.5z" />
    <glyph glyph-name="ordfeminine" unicode="&#xaa;" horiz-adv-x="359" 
d="M125 603q18 7 39 13q18 5 41 9.5t49 4.5q70 0 93 -29t10 -86l-44 -207q-5 -2 -12 -4q-6 -2 -14 -3t-19 -1q-10 0 -17.5 1t-12.5 3l-12 4l-3 22q-16 -16 -38.5 -25.5t-51.5 -9.5q-45 0 -65.5 26.5t-9.5 80.5q12 54 50.5 77.5t93.5 23.5q11 0 19.5 -0.5t15.5 -0.5
q8 -1 14 -1l3 12q3 16 -4.5 25.5t-29.5 9.5q-15 0 -30 -2.5t-26 -5.5q-13 -4 -25 -7q-9 14 -13 32t-1 38zM228 436q-5 0 -10.5 0.5t-13.5 0.5q-34 0 -42 -35q-4 -20 2.5 -27.5t20.5 -7.5q20 0 32 16.5t17 37.5l4 15h-10zM297 244q2 -18 -3.5 -41t-14.5 -41h-264
q-1 20 4 42.5t14 39.5h264z" />
    <glyph glyph-name="ordmasculine" unicode="&#xba;" horiz-adv-x="370" 
d="M71 463q19 90 65 128.5t118 38.5q71 0 101 -38t11 -129t-65 -129.5t-118 -38.5t-101.5 38.5t-10.5 129.5zM258 463q6 28 7 45.5t-2 27t-9.5 12.5t-16.5 3t-18.5 -3t-15.5 -12.5t-13 -27t-12 -45.5t-7 -45t2 -26t10 -12t17 -3t18 3t15 12t13 26t12 45zM303 244
q2 -19 -3 -40q-5 -23 -15 -42h-264q-1 10 0.5 20.5t3.5 21.5t5.5 21t8.5 19h264z" />
    <glyph glyph-name="oslash" unicode="&#xf8;" horiz-adv-x="550" 
d="M485 470q24 -35 29.5 -88t-10.5 -128t-42.5 -125.5t-63.5 -81t-83.5 -44t-101.5 -13.5q-62 0 -105 21l-57 -67q-49 2 -70 38l67 80q-23 36 -29 89.5t10 127.5q16 75 43 125t64 80t83.5 43t101.5 13q60 0 105 -20l49 59q23 -1 41.5 -12.5t27.5 -25.5zM341 410
q-12 13 -40 13q-20 0 -36.5 -7t-31 -25t-26.5 -48.5t-22 -77.5q-6 -32 -9 -55zM190 121q14 -15 43 -15q19 0 36 7t31 25t26 49t22 78q4 17 6 31t4 26z" />
    <glyph glyph-name="oslashacute" unicode="&#x1ff;" horiz-adv-x="550" 
d="M316 583q-25 5 -46 15t-30 29l122 147q19 2 38 -1t35.5 -10t29 -17.5t17.5 -23.5zM485 470q24 -35 29.5 -88t-10.5 -128t-42.5 -125.5t-63.5 -81t-83.5 -44t-101.5 -13.5q-62 0 -105 21l-57 -67q-49 2 -70 38l67 80q-23 36 -29 89.5t10 127.5q16 75 43 125t64 80t83.5 43
t101.5 13q60 0 105 -20l49 59q23 -1 41.5 -12.5t27.5 -25.5zM341 410q-12 13 -40 13q-20 0 -36.5 -7t-31 -25t-26.5 -48.5t-22 -77.5q-6 -32 -9 -55zM190 121q14 -15 43 -15q19 0 36 7t31 25t26 49t22 78q4 17 6 31t4 26z" />
    <glyph glyph-name="otilde" unicode="&#xf5;" horiz-adv-x="550" 
d="M171 677q12 14 28 25q14 10 33.5 18t43.5 8t40.5 -5t30.5 -11t28 -11t32 -5q13 0 23.5 4t18.5 9q9 5 15 13q20 -11 29 -32t6 -44q-11 -15 -27 -26q-14 -10 -33 -17.5t-44 -7.5q-24 0 -41 5t-30.5 11t-27.5 11t-32 5q-13 0 -23.5 -4t-18.5 -9q-9 -6 -16 -13q-20 12 -29 32
t-6 44zM29 279q16 75 43 125t64 80t83.5 43t101.5 13t97 -16.5t66.5 -51.5t30 -89t-10.5 -129t-42.5 -125.5t-63.5 -81t-83.5 -44t-101.5 -13.5t-96.5 17t-66.5 52.5t-31 90t10 129.5zM348 265q10 47 11 77.5t-5.5 48.5t-20 25t-32.5 7q-20 0 -36.5 -7t-31 -25t-26.5 -48.5
t-22 -77.5t-11 -78t5.5 -49t20 -25t33.5 -7q19 0 36 7t31 25t26 49t22 78z" />
    <glyph glyph-name="p" unicode="p" horiz-adv-x="561" 
d="M248 489q26 25 61 38t80 13q40 0 71 -15t48.5 -49t19.5 -88t-14 -132q-16 -77 -40.5 -128t-55.5 -82t-68 -43.5t-79 -12.5q-45 0 -73.5 13t-44.5 38l-55 -257q-10 -2 -22 -4q-11 -2 -25.5 -3t-32.5 -1q-19 0 -32.5 1t-22.5 3q-11 2 -19 4l157 738l21 4q10 2 24 3t33 1
q18 0 32 -1t24 -3q11 -2 20 -4zM353 265q10 47 11.5 77t-5 47t-20.5 23.5t-33 6.5q-33 0 -57.5 -24t-34.5 -64l-27 -127q-8 -38 4.5 -66t48.5 -28q19 0 35 6t30 22.5t25.5 47t22.5 79.5z" />
    <glyph glyph-name="paragraph" unicode="&#xb6;" horiz-adv-x="692" 
d="M235 224q-58 1 -97 22t-60.5 54t-26.5 75t5 86q10 45 34.5 88t61.5 76t85 53.5t107 20.5h118l-196 -920q-7 -2 -17 -3q-17 -3 -47 -3q-31 0 -46 3q-9 1 -16 3zM495 -221q-7 -2 -17 -3q-17 -3 -47 -3q-31 0 -46 3q-9 1 -16 3l194 914q7 1 17 3q8 1 20 2t28 1q14 0 25.5 -1
t19.5 -2q9 -2 16 -3z" />
    <glyph glyph-name="parenleft" unicode="(" horiz-adv-x="302" 
d="M332 795q11 -7 18 -14t12 -13q4 -7 7 -14q-38 -51 -73 -117q-30 -57 -62 -136.5t-53 -180.5q-22 -101 -23.5 -181t4.5 -137q7 -66 23 -116q-5 -8 -13 -15q-7 -6 -17.5 -13.5t-24.5 -13.5t-26.5 -9l-20.5 -5q-11 -2 -18 -1q-23 66 -34 144q-11 67 -12 155.5t21 191.5
q11 51 26.5 99t34 92t38.5 83.5t39 72.5q45 78 95 144q8 1 18 -1q8 -2 19 -5t22 -10z" />
    <glyph glyph-name="parenright" unicode=")" horiz-adv-x="302" 
d="M127 320q21 101 23 180.5t-4 136.5q-7 66 -24 117q5 7 13 14q7 6 17.5 13t24.5 14t26 10t21 5q10 2 18 1q22 -66 34 -144q10 -67 11.5 -156t-20.5 -191q-11 -51 -26.5 -99t-34 -92t-38.5 -83.5t-39 -72.5q-45 -78 -95 -144q-8 -1 -18 1q-8 2 -19 5t-22 9q-13 6 -20 13.5
t-11 13.5q-4 7 -6 15q38 50 73 116q30 57 62 137t54 181z" />
    <glyph glyph-name="partialdiff" unicode="&#x2202;" horiz-adv-x="559" 
d="M188 625q0 32 11 66.5t31 58.5q103 -8 169 -37t100 -82t38 -130t-18 -180q-21 -97 -51 -160.5t-69.5 -101.5t-87.5 -53.5t-103 -15.5q-56 0 -97 14t-65.5 45t-30.5 81t9 122t41.5 122t62.5 81t80 45t94 14q20 0 37 -3t31 -8q-12 52 -53.5 81.5t-128.5 40.5zM370 381
q-11 8 -29 14t-45 6q-20 0 -37 -6t-31 -22.5t-25.5 -45.5t-20.5 -75q-10 -45 -10.5 -74t6 -45.5t21 -22.5t34.5 -6t37 6t31 22.5t25.5 45.5t21.5 74q8 38 13.5 69t8.5 60z" />
    <glyph glyph-name="percent" unicode="%" horiz-adv-x="765" 
d="M185 -3q-6 -2 -15 -4q-15 -3 -44 -3t-42 3q-8 2 -14 4l534 698q5 1 14 3q8 2 18.5 3t25.5 1q14 0 24.5 -1t18.5 -3t14 -3zM181 344q-35 0 -60 9.5t-39.5 30.5t-17.5 54t7 80q19 93 67 133.5t117 40.5t100 -40t11 -134q-10 -47 -27.5 -80t-41 -54t-53 -30.5t-63.5 -9.5z
M238 612q-10 0 -18.5 -3.5t-15.5 -13.5t-13.5 -28.5t-12.5 -48.5t-7.5 -48.5t1.5 -28t10 -12.5t17 -3t18 3t15 12.5t13.5 28t12.5 48.5t7.5 48.5t-1.5 28.5t-9.5 13.5t-16.5 3.5zM524 -10q-35 0 -60 9.5t-39.5 30.5t-17.5 54t7 80q19 93 67 133.5t117 40.5t100 -40t11 -134
q-10 -47 -27.5 -80t-41 -54t-53 -30.5t-63.5 -9.5zM581 258q-10 0 -18.5 -3.5t-15.5 -13.5t-13.5 -28.5t-12.5 -48.5t-7.5 -48.5t1 -28t9.5 -12.5t17 -3t18 3t15.5 12.5t14 28t12.5 48.5t7.5 48.5t-1.5 28.5t-9.5 13.5t-16.5 3.5z" />
    <glyph glyph-name="period" unicode="." horiz-adv-x="254" 
d="M142 8l-21 -4t-25 -3t-33 -1q-20 0 -34 1t-23 3q-11 2 -18 4l30 143q9 2 20 4q10 2 24.5 3t34.5 1q19 0 32.5 -1t23.5 -3q11 -2 19 -4z" />
    <glyph glyph-name="periodcentered" unicode="&#xb7;" horiz-adv-x="244" 
d="M171 223q-7 -2 -18 -4q-9 -2 -21.5 -3t-28.5 -1q-17 0 -30 1t-21 3q-10 2 -16 4l27 124q6 2 17 4q8 2 21.5 3t30.5 1q16 0 28.5 -1t20.5 -3q10 -2 17 -4z" />
    <glyph glyph-name="perthousand" unicode="&#x2030;" horiz-adv-x="1101" 
d="M185 -3q-6 -2 -15 -4q-15 -3 -44 -3t-42 3q-8 2 -14 4l534 698q5 1 14 3q8 2 18.5 3t25.5 1q14 0 24.5 -1t18.5 -3t14 -3zM181 344q-35 0 -60 9.5t-39.5 30.5t-17.5 54t7 80q19 93 67 133.5t117 40.5t100 -40t11 -134q-10 -47 -27.5 -80t-41 -54t-53 -30.5t-63.5 -9.5z
M238 612q-10 0 -18.5 -3.5t-15.5 -13.5t-13.5 -28.5t-12.5 -48.5t-7.5 -48.5t1.5 -28t10 -12.5t17 -3t18 3t15 12.5t13.5 28t12.5 48.5t7.5 48.5t-1.5 28.5t-9.5 13.5t-16.5 3.5zM524 -10q-35 0 -60 9.5t-39.5 30.5t-17.5 54t7 80q19 93 67 133.5t117 40.5t100 -40t11 -134
q-10 -47 -27.5 -80t-41 -54t-53 -30.5t-63.5 -9.5zM861 -10q-35 0 -60 9.5t-39.5 30.5t-17.5 54t7 80q19 93 67 133.5t117 40.5t100 -40t11 -134q-10 -47 -27.5 -80t-41 -54t-53 -30.5t-63.5 -9.5zM581 258q-10 0 -18.5 -3.5t-15.5 -13.5t-13.5 -28.5t-12.5 -48.5
t-7.5 -48.5t1 -28t9.5 -12.5t17 -3t18 3t15.5 12.5t14 28t12.5 48.5t7.5 48.5t-1.5 28.5t-9.5 13.5t-16.5 3.5zM918 258q-10 0 -18.5 -3.5t-15.5 -13.5t-13.5 -28.5t-12.5 -48.5t-7.5 -48.5t1 -28t9.5 -12.5t17 -3t18 3t15.5 12.5t14 28t12.5 48.5t7.5 48.5t-1.5 28.5
t-9.5 13.5t-16.5 3.5z" />
    <glyph glyph-name="pi" unicode="&#x3c0;" horiz-adv-x="634" 
d="M650 526q2 -13 1.5 -28t-4.5 -32q-3 -16 -9 -32t-14 -28h-69l-35 -168q-12 -54 -16 -93.5t-5 -65.5q-1 -31 2 -52q-22 -15 -52 -21t-55 -6q-11 0 -30 1.5t-27 5.5q-2 17 0 48q2 26 8 70t20 111l36 170h-131l-84 -397q-9 -3 -21 -5q-11 -2 -25.5 -3t-33.5 -1
q-20 0 -33.5 1t-22.5 3q-11 2 -18 5l83 389q-18 -2 -31 -4t-22 -4q-11 -2 -17 -4q-4 24 2 58q4 17 10 33t14 29q22 6 53 10q26 4 64 7t89 3h373z" />
    <glyph glyph-name="plus" unicode="+" horiz-adv-x="454" 
d="M24 235q-1 6 -1 15q0 14 6 40q2 13 5.5 22.5l6.5 17.5q4 8 6 15h133l29 134l15 3q8 2 18 3t23 1t23 -1t17 -3q8 -2 14 -3l-29 -134h134q1 -7 1 -15t-1.5 -17.5l-3.5 -22.5q-3 -13 -6.5 -23t-6.5 -17l-6 -15h-134l-28 -133q-7 -2 -16 -4q-8 -2 -18 -3t-23 -1t-22.5 1
t-16.5 3q-8 2 -14 4l28 133h-133z" />
    <glyph glyph-name="plusminus" unicode="&#xb1;" horiz-adv-x="492" 
d="M68 347q-1 6 -1 15q0 7 1 17t4 23q6 24 12 40q4 8 7 15h133l21 100q7 1 16 3q8 2 18 3t23 1t22.5 -1t16.5 -3q8 -2 14 -3l-21 -100h134v-15q0 -8 -1 -17.5t-4 -22.5q-7 -28 -12 -40l-6 -15h-134l-22 -100q-6 -2 -15 -4q-15 -3 -41 -3q-27 0 -40 3q-8 2 -14 4l22 100h-133
zM16 102q-1 6 -1 15q0 7 1 17t4 23q6 24 12 40q4 8 7 15h377v-15q0 -8 -1 -17.5t-4 -22.5q-7 -28 -12 -40l-6 -15h-377z" />
    <glyph glyph-name="product" unicode="&#x220f;" horiz-adv-x="719" 
d="M532 -197q-9 -3 -20 -5q-22 -5 -53 -5t-51 5q-11 2 -18 5l163 766h-274l-163 -766q-9 -3 -20 -5q-22 -5 -54 -5q-30 0 -50 5q-11 2 -18 5l189 890h558z" />
    <glyph glyph-name="q" unicode="q" horiz-adv-x="559" 
d="M294 41q-26 -25 -60 -38t-79 -13q-42 0 -72.5 16.5t-47.5 52t-18.5 90t14.5 131.5q16 76 40 126.5t54.5 80t67 41.5t79.5 12q45 0 73 -13t44 -38l7 33l21 4q10 2 24 3t33 1q18 0 32 -1t24 -3q11 -2 20 -4l-157 -738l-21 -4q-10 -2 -24.5 -3t-32.5 -1q-19 0 -32.5 1
t-23.5 3q-11 2 -20 4zM187 265q-10 -48 -11 -78t5.5 -47t20 -23.5t33.5 -6.5q34 0 58.5 26t33.5 64l28 130q9 41 -5.5 65t-48.5 24q-20 0 -36 -6t-30 -23t-26 -47t-22 -78z" />
    <glyph glyph-name="question" unicode="?" horiz-adv-x="449" 
d="M465 512q-10 -47 -29.5 -77t-43 -51t-49.5 -35.5t-48.5 -30.5t-39.5 -36.5t-24 -52.5q-7 -3 -17 -6q-8 -2 -20 -4t-28 -2q-15 0 -26 2t-19 4q-9 3 -15 6q11 51 28 83t37 53t41.5 34.5t40 27t32.5 30.5t20 45q8 41 -13.5 54.5t-60.5 13.5q-23 0 -43.5 -3.5t-34.5 -8.5
q-18 -5 -31 -11q-22 18 -27.5 46t4.5 61q22 10 50 18q24 7 57 12.5t74 5.5q45 0 83.5 -8.5t65 -29.5t37 -55t-0.5 -85zM199 8q-9 -2 -21 -4q-11 -2 -25.5 -3t-32.5 -1q-20 0 -34 1t-23 3q-11 2 -18 4l30 143q9 2 20 4q10 2 24.5 3t34.5 1q18 0 32 -1t24 -3q11 -2 19 -4z" />
    <glyph glyph-name="questiondown" unicode="&#xbf;" horiz-adv-x="445" 
d="M230 512q9 2 20 4q10 2 24.5 3t33.5 1t33 -1t24 -3q11 -2 19 -4l-31 -143q-9 -2 -20 -4q-10 -2 -24 -3t-34 -1q-19 0 -33 1t-24 3q-11 2 -19 4zM-36 9q10 47 29.5 77t43 51t49.5 35.5t48.5 30.5t39.5 36.5t24 52.5q6 2 16 4q8 2 19.5 3t27.5 1q15 0 26.5 -1t19.5 -3
q9 -2 16 -4q-11 -51 -28 -83.5t-37 -53.5t-41.5 -34.5t-40 -27t-32.5 -30.5t-20 -45q-5 -20 -1 -33.5t13.5 -21t25 -10.5t34.5 -3q23 0 43 3t35 8q18 5 32 12q21 -18 27 -46t-4 -61q-22 -10 -50 -18q-24 -7 -57 -12.5t-74 -5.5q-45 0 -83.5 8.5t-64.5 29.5t-36.5 55.5
t0.5 85.5z" />
    <glyph glyph-name="quotedbl" unicode="&#x22;" horiz-adv-x="395" 
d="M123 712q8 2 19 4q9 2 22.5 3t32.5 1q17 0 30.5 -1t22.5 -3q11 -2 18 -4l-69 -219q-6 -2 -14 -4q-14 -3 -38 -3t-36 3q-7 2 -11 4zM296 712q8 2 19 4q10 2 23.5 3t32.5 1q17 0 30 -1t22 -3q11 -2 18 -4l-69 -219q-6 -2 -14 -4q-14 -3 -37 -3q-24 0 -36 3q-7 2 -12 4z" />
    <glyph glyph-name="quotedblbase" unicode="&#x201e;" horiz-adv-x="441" 
d="M-26 -110q13 12 24 29q10 14 20 34.5t18 46.5q-12 1 -21 2t-15 3l-12 3l30 143q9 2 20 4q10 2 24.5 3t34.5 1q18 0 31.5 -1t23.5 -3q11 -2 20 -4l-22 -103q-11 -48 -32 -84.5t-43 -61.5q-26 -29 -54 -50zM161 -110q12 12 23 29q10 14 20 34.5t18 46.5q-11 1 -20 2t-15 3
l-12 3l30 143q9 2 20 4q10 2 24.5 3t34.5 1q18 0 31.5 -1t23.5 -3q11 -2 20 -4l-22 -103q-11 -48 -32 -84.5t-43 -61.5q-26 -29 -54 -50z" />
    <glyph glyph-name="quotedblleft" unicode="&#x201c;" horiz-adv-x="433" 
d="M268 683q-13 -12 -24 -29q-10 -14 -20.5 -35t-17.5 -47q11 -1 20 -2t15 -2q7 -2 13 -3l-30 -143q-9 -2 -20 -4q-10 -2 -25 -3t-34 -1q-18 0 -32 1t-24 3q-11 2 -19 4l22 103q10 48 31 84t43 61q26 29 55 50zM454 683q-13 -12 -24 -29q-10 -14 -20.5 -35t-17.5 -47
q11 -1 20 -2t16 -2q7 -2 13 -3l-30 -143q-9 -2 -20 -4q-10 -2 -25 -3t-34 -1q-18 0 -32 1t-24 3q-11 2 -19 4l22 103q10 48 31 84t43 61q26 29 55 50z" />
    <glyph glyph-name="quotedblright" unicode="&#x201d;" horiz-adv-x="424" 
d="M84 451q13 12 24 29q10 14 20 34.5t18 46.5q-11 1 -20 2t-15 3q-7 2 -13 3l30 143q9 2 20 4q10 2 24.5 3t34.5 1q18 0 31.5 -1t23.5 -3q11 -2 20 -4l-22 -103q-10 -48 -31 -84t-43 -61q-26 -29 -55 -50zM271 451q12 12 23 29q10 14 20 34.5t18 46.5q-11 1 -19.5 2
t-14.5 3q-7 2 -13 3l30 143q9 2 20 4q10 2 24.5 3t34.5 1q18 0 31.5 -1t23.5 -3q11 -2 20 -4l-22 -103q-10 -48 -31 -84t-43 -61q-26 -29 -55 -50z" />
    <glyph glyph-name="quoteleft" unicode="&#x2018;" horiz-adv-x="246" 
d="M268 683q-13 -12 -24 -29q-10 -14 -20.5 -35t-17.5 -47q11 -1 20 -2t15 -2q7 -2 13 -3l-30 -143q-9 -2 -20 -4q-10 -2 -25 -3t-34 -1q-18 0 -32 1t-24 3q-11 2 -19 4l22 103q10 48 31 84t43 61q26 29 55 50z" />
    <glyph glyph-name="quoteright" unicode="&#x2019;" horiz-adv-x="237" 
d="M84 451q13 12 24 29q10 14 20 34.5t18 46.5q-11 1 -20 2t-15 3q-7 2 -13 3l30 143q9 2 20 4q10 2 24.5 3t34.5 1q18 0 31.5 -1t23.5 -3q11 -2 20 -4l-22 -103q-10 -48 -31 -84t-43 -61q-26 -29 -55 -50z" />
    <glyph glyph-name="quotesinglbase" unicode="&#x201a;" horiz-adv-x="254" 
d="M-26 -110q13 12 24 29q10 14 20 34.5t18 46.5q-12 1 -21 2t-15 3l-12 3l30 143q9 2 20 4q10 2 24.5 3t34.5 1q18 0 31.5 -1t23.5 -3q11 -2 20 -4l-22 -103q-11 -48 -32 -84.5t-43 -61.5q-26 -29 -54 -50z" />
    <glyph glyph-name="quotesingle" unicode="'" horiz-adv-x="222" 
d="M123 712q8 2 19 4q9 2 22.5 3t32.5 1q17 0 30.5 -1t22.5 -3q11 -2 18 -4l-69 -219q-6 -2 -14 -4q-14 -3 -38 -3t-36 3q-7 2 -12 4z" />
    <glyph glyph-name="r" unicode="r" horiz-adv-x="412" 
d="M235 467q33 43 69 57.5t65 14.5q23 0 44.5 -6.5t41.5 -21.5q-12 -36 -31.5 -66t-51.5 -56q-9 10 -28 14t-33 4q-46 0 -90 -46l-75 -353q-10 -2 -22 -4q-11 -2 -25 -3t-32 -1q-20 0 -34 1t-23 3q-11 2 -18 4l109 514q9 2 20 4q10 2 24.5 3t34.5 1q19 0 30.5 -1t17.5 -3
q7 -2 10 -4l-3 -55v0z" />
    <glyph glyph-name="racute" unicode="&#x155;" horiz-adv-x="412" 
d="M313 776q19 2 38 -1t35.5 -10t29 -17.5t17.5 -23.5l-166 -139q-25 5 -46 15t-30 29zM235 467q33 43 69 57.5t65 14.5q23 0 44.5 -6.5t41.5 -21.5q-12 -36 -31.5 -66t-51.5 -56q-9 10 -28 14t-33 4q-46 0 -90 -46l-75 -353q-10 -2 -22 -4q-11 -2 -25 -3t-32 -1
q-20 0 -34 1t-23 3q-11 2 -18 4l109 514q9 2 20 4q10 2 24.5 3t34.5 1q19 0 30.5 -1t17.5 -3q7 -2 10 -4z" />
    <glyph glyph-name="radical" unicode="&#x221a;" horiz-adv-x="650" 
d="M137 317l-97 -39q-15 14 -21.5 39t1.5 54l222 89l65 -298l316 568q30 4 59 -3t45 -24l-394 -718h-118z" />
    <glyph glyph-name="rcaron" unicode="&#x159;" horiz-adv-x="412" 
d="M408 775q19 -8 31 -24.5t18 -36.5l-168 -122h-33l-118 122q14 20 33.5 37t42.5 25l84 -62zM235 467q33 43 69 57.5t65 14.5q23 0 44.5 -6.5t41.5 -21.5q-12 -36 -31.5 -66t-51.5 -56q-9 10 -28 14t-33 4q-46 0 -90 -46l-75 -353q-10 -2 -22 -4q-11 -2 -25 -3t-32 -1
q-20 0 -34 1t-23 3q-11 2 -18 4l109 514q9 2 20 4q10 2 24.5 3t34.5 1q19 0 30.5 -1t17.5 -3q7 -2 10 -4z" />
    <glyph glyph-name="rcommaaccent" unicode="&#x157;" horiz-adv-x="412" 
d="M-16 -48l21 4q10 2 24 3t33 1q18 0 32 -1t24 -3q11 -2 20 -4l-22 -103q-11 -48 -32 -84.5t-43 -61.5q-26 -29 -55 -50l-47 38q13 12 24 29q10 14 20 34.5t18 46.5q-11 1 -20 2t-15 3q-7 2 -13 3zM235 467q33 43 69 57.5t65 14.5q23 0 44.5 -6.5t41.5 -21.5
q-12 -36 -31.5 -66t-51.5 -56q-9 10 -28 14t-33 4q-46 0 -90 -46l-75 -353q-10 -2 -22 -4q-11 -2 -25 -3t-32 -1q-20 0 -34 1t-23 3q-11 2 -18 4l109 514q9 2 20 4q10 2 24.5 3t34.5 1q19 0 30.5 -1t17.5 -3q7 -2 10 -4z" />
    <glyph glyph-name="registered" unicode="&#xae;" horiz-adv-x="533" 
d="M255 248q-46 0 -83 17.5t-61 48t-33 71t1 86.5t36 86.5t62.5 71t81 48t90.5 17.5t83 -17.5t61 -48t33 -71t-1 -86.5t-36 -86.5t-62.5 -71t-81 -48t-90.5 -17.5zM337 634q-34 0 -66.5 -12.5t-59.5 -34.5t-46.5 -52t-26.5 -64t-0.5 -64t24 -52t44.5 -35t61 -13t66.5 13
t59.5 35t46 52t26 64t0.5 64t-23.5 52t-44 34.5t-61 12.5zM345 589q36 0 54 -19.5t11 -51.5q-5 -23 -20 -40t-38 -25l36 -84l-10 -4t-11.5 -3t-14.5 -1q-11 0 -21 2q-4 1 -7 3l-37 81h-12l-17 -81q-4 -2 -9 -3t-10.5 -1.5t-11.5 -0.5q-8 0 -13 0.5t-9 1.5t-7 3l47 223h100z
M316 495q28 0 32 23q4 24 -22 24h-31l-10 -47h31z" />
    <glyph glyph-name="ring" unicode="&#x2da;" horiz-adv-x="344" 
d="M120 483q-30 0 -54 9t-39 25.5t-20.5 41t1.5 56.5t24 56t40 40.5t50 24.5t54 8q26 0 50 -8t40.5 -24t24 -40.5t0.5 -56.5t-23.5 -56.5t-39.5 -41.5t-51 -25.5t-57 -8.5zM200 615q4 19 -6 34t-36 15t-41.5 -15.5t-19.5 -33.5q-5 -19 4.5 -34t35.5 -15t42.5 15.5t20.5 33.5
z" />
    <glyph glyph-name="s" unicode="s" horiz-adv-x="450" 
d="M55 385q17 72 73 113.5t160 41.5q42 0 71 -5t48 -11q22 -7 36 -15q-5 -28 -19 -56t-38 -47q-14 4 -31 8q-14 3 -34 5.5t-42 2.5q-40 0 -60 -11.5t-25 -32.5q-3 -13 6.5 -21.5t25.5 -15t36.5 -12.5t41.5 -14q25 -10 44.5 -24t31 -34t14 -47t-5.5 -63q-17 -81 -74.5 -119
t-164.5 -38q-44 0 -77 6t-55 14q-26 9 -44 20q14 66 60 105q18 -7 38 -12q17 -5 40.5 -8t49.5 -3q39 0 58 11t24 33q3 13 -4 22t-20.5 15.5t-31.5 12t-37 12.5q-22 7 -43 20t-35.5 33t-20 48t3.5 66z" />
    <glyph glyph-name="sacute" unicode="&#x15b;" horiz-adv-x="450" 
d="M275 586q-25 6 -46 17t-29 30l127 143q38 3 68.5 -14.5t39.5 -43.5zM55 385q17 72 73 113.5t160 41.5q42 0 71 -5t48 -11q22 -7 36 -15q-5 -28 -19 -56t-38 -47q-14 4 -31 8q-14 3 -34 5.5t-42 2.5q-40 0 -60 -11.5t-25 -32.5q-3 -13 6.5 -21.5t25.5 -15t36.5 -12.5
t41.5 -14q25 -10 44.5 -24t31 -34t14 -47t-5.5 -63q-17 -81 -74.5 -119t-164.5 -38q-44 0 -77 6t-55 14q-26 9 -44 20q14 66 60 105q18 -7 38 -12q17 -5 40.5 -8t49.5 -3q39 0 58 11t24 33q3 13 -4 22t-20.5 15.5t-31.5 12t-37 12.5q-22 7 -43 20t-35.5 33t-20 48t3.5 66z
" />
    <glyph glyph-name="scaron" unicode="&#x161;" horiz-adv-x="450" 
d="M157 693q14 20 33 36t41 24l84 -60l108 60q19 -8 31 -24t18 -36l-166 -120h-33zM55 385q17 72 73 113.5t160 41.5q42 0 71 -5t48 -11q22 -7 36 -15q-5 -28 -19 -56t-38 -47q-14 4 -31 8q-14 3 -34 5.5t-42 2.5q-40 0 -60 -11.5t-25 -32.5q-3 -13 6.5 -21.5t25.5 -15
t36.5 -12.5t41.5 -14q25 -10 44.5 -24t31 -34t14 -47t-5.5 -63q-17 -81 -74.5 -119t-164.5 -38q-44 0 -77 6t-55 14q-26 9 -44 20q14 66 60 105q18 -7 38 -12q17 -5 40.5 -8t49.5 -3q39 0 58 11t24 33q3 13 -4 22t-20.5 15.5t-31.5 12t-37 12.5q-22 7 -43 20t-35.5 33
t-20 48t3.5 66z" />
    <glyph glyph-name="scedilla" unicode="&#x15f;" horiz-adv-x="450" 
d="M386 406q-14 4 -31 8q-14 3 -34 5.5t-42 2.5q-40 0 -60 -11.5t-25 -32.5q-3 -13 6.5 -21.5t25.5 -15t36.5 -12.5t41.5 -14q25 -10 44.5 -24t31 -34t14 -47t-5.5 -63q-15 -71 -61 -109t-129 -46l-17 -42q57 0 74 -27t8 -68q-11 -50 -50.5 -74.5t-97.5 -24.5q-26 0 -44 3
t-30 8q-14 5 -24 12q2 15 12.5 31.5t23.5 24.5q10 -5 27 -9t34 -4q23 -1 42.5 7t24.5 30q3 15 -5 24.5t-30 9.5h-52l-10 15l33 83q-36 2 -63 8.5t-45 13.5q-21 8 -36 17q14 66 60 105q18 -7 38 -12q17 -5 40.5 -8t49.5 -3q39 0 58 11t24 33q3 13 -4 22t-20.5 15.5t-31.5 12
t-37 12.5q-22 7 -43 20t-35.5 33t-20 48t3.5 66q17 72 73 113.5t160 41.5q42 0 71 -5t48 -11q22 -7 36 -15q-5 -28 -19 -56t-38 -47z" />
    <glyph glyph-name="scircumflex" unicode="&#x15d;" horiz-adv-x="450" 
d="M474 637q-16 -22 -36.5 -39.5t-43.5 -25.5l-91 65l-117 -64q-20 8 -33.5 25t-19.5 39l170 119h35zM55 385q17 72 73 113.5t160 41.5q42 0 71 -5t48 -11q22 -7 36 -15q-5 -28 -19 -56t-38 -47q-14 4 -31 8q-14 3 -34 5.5t-42 2.5q-40 0 -60 -11.5t-25 -32.5
q-3 -13 6.5 -21.5t25.5 -15t36.5 -12.5t41.5 -14q25 -10 44.5 -24t31 -34t14 -47t-5.5 -63q-17 -81 -74.5 -119t-164.5 -38q-44 0 -77 6t-55 14q-26 9 -44 20q14 66 60 105q18 -7 38 -12q17 -5 40.5 -8t49.5 -3q39 0 58 11t24 33q3 13 -4 22t-20.5 15.5t-31.5 12t-37 12.5
q-22 7 -43 20t-35.5 33t-20 48t3.5 66z" />
    <glyph glyph-name="scommaaccent" unicode="&#x219;" horiz-adv-x="450" 
d="M47 -310q13 11 24 28q10 14 20 34t18 46q-12 1 -21 2t-15 3l-12 3l30 140q9 2 20 4q10 2 24.5 3t32.5 1q17 0 31 -1t24 -3q11 -2 19 -4l-22 -101q-10 -47 -31 -83t-42 -60q-26 -29 -54 -49zM55 385q17 72 73 113.5t160 41.5q42 0 71 -5t48 -11q22 -7 36 -15
q-5 -28 -19 -56t-38 -47q-14 4 -31 8q-14 3 -34 5.5t-42 2.5q-40 0 -60 -11.5t-25 -32.5q-3 -13 6.5 -21.5t25.5 -15t36.5 -12.5t41.5 -14q25 -10 44.5 -24t31 -34t14 -47t-5.5 -63q-17 -81 -74.5 -119t-164.5 -38q-44 0 -77 6t-55 14q-26 9 -44 20q14 66 60 105
q18 -7 38 -12q17 -5 40.5 -8t49.5 -3q39 0 58 11t24 33q3 13 -4 22t-20.5 15.5t-31.5 12t-37 12.5q-22 7 -43 20t-35.5 33t-20 48t3.5 66z" />
    <glyph glyph-name="section" unicode="&#xa7;" horiz-adv-x="489" 
d="M267 141q4 18 -13 27t-44 15.5l-58.5 14t-56.5 22t-39 39t-5 66.5q8 37 30 64t47 46q-16 17 -22.5 41.5t1.5 65.5q16 75 78.5 111.5t150.5 36.5q43 0 80.5 -7t69.5 -19q-5 -24 -18 -50.5t-34 -43.5q-15 4 -39 8t-50 6q-18 1 -35 -0.5t-31 -7t-23.5 -14.5t-12.5 -23
q-4 -18 12.5 -27t42.5 -15.5t56.5 -13t55 -21t37 -39.5t3.5 -68q-8 -35 -29 -60.5t-44 -42.5q21 -17 31.5 -44.5t1.5 -72.5q-8 -39 -31.5 -66.5t-57 -45t-74.5 -25.5t-85 -8q-37 0 -68 4.5t-54 10.5q-27 6 -49 15q2 26 15.5 53t38.5 44q18 -6 51 -12t68 -7q37 -1 67 8t36 35
zM212 395q-21 -21 -27 -46q-3 -16 5.5 -25.5t24 -15.5t36 -10.5t40.5 -10.5q11 11 16.5 22t8.5 23q3 16 -5.5 25.5t-24 15.5t-35.5 11t-39 11z" />
    <glyph glyph-name="semicolon" unicode=";" horiz-adv-x="263" 
d="M223 375l-21 -4t-25 -3t-33 -1q-20 0 -34 1t-23 3q-11 2 -18 4l30 143q9 2 20 4q10 2 24.5 3t34.5 1q19 0 32.5 -1t23.5 -3q11 -2 19 -4zM-23 -110q13 12 24 29q10 14 20 34.5t18 46.5q-12 1 -21 2t-15 3l-12 3l30 143q9 2 20 4q10 2 24.5 3t34.5 1q18 0 31.5 -1t23.5 -3
q11 -2 20 -4l-22 -103q-11 -48 -32 -84.5t-43 -61.5q-26 -29 -54 -50z" />
    <glyph glyph-name="seven" unicode="7" horiz-adv-x="501" 
d="M552 684q1 -20 -1.5 -39.5t-7.5 -39.5q-14 -58 -42 -103.5t-63.5 -86.5t-74.5 -81.5t-75.5 -88t-66 -105.5t-45.5 -134q-14 -3 -34 -4.5t-41 -1.5t-41 1.5t-33 4.5q17 79 44 139.5t59.5 108.5t67.5 86.5l68.5 73t62 68t48.5 72.5h-292q-1 7 -1 18q0 8 1 20.5t5 27.5
q6 29 14 47q4 10 8 17h440z" />
    <glyph glyph-name="seven.denom" horiz-adv-x="288" 
d="M13 259q0 10 1 20.5t3 21.5t5.5 21t8.5 21h245v-13q0 -6 -1 -12.5t-3 -14.5q-7 -31 -21.5 -55t-33.5 -45.5t-39.5 -41.5t-39.5 -43t-33.5 -50.5t-21.5 -63.5q-23 -4 -52 -4q-13 0 -25.5 1t-22.5 3q13 56 32.5 91.5t43 62t47.5 49t46 52.5h-139z" />
    <glyph glyph-name="seven.num" horiz-adv-x="290" 
d="M350 689q2 -10 0.5 -20t-3.5 -20q-7 -31 -21.5 -55t-33.5 -45.5t-39.5 -41.5t-39.5 -43t-34 -50.5t-22 -63.5q-23 -4 -51 -4.5t-49 4.5q13 56 32.5 91.5t43 62t48 49t46.5 52.5h-139q-2 20 3 42t14 42h245z" />
    <glyph glyph-name="seveneighths" unicode="&#x215e;" horiz-adv-x="698" 
d="M527 695q5 1 14 3q8 2 18.5 3t25.5 1q14 0 25 -1t18 -3q8 -2 14 -3l-535 -698q-7 -2 -16 -4q-15 -3 -43 -3q-25 0 -40 3q-9 2 -15 4zM363 689v-13q0 -12 -3 -27q-7 -31 -21.5 -55t-33.5 -45.5t-40 -41.5t-40 -43t-34 -50.5t-22 -63.5q-23 -4 -50.5 -4.5t-48.5 4.5
q13 56 32.5 91.5t43 62t48 49t46.5 52.5h-139q-2 20 3 42t14 42h245zM394 253q9 45 47.5 70t101.5 25q60 0 87.5 -23.5t18.5 -65.5q-5 -26 -21.5 -45.5t-36.5 -31.5q21 -13 32 -33.5t4 -52.5q-10 -48 -50.5 -74.5t-109.5 -26.5q-65 0 -96 24t-21 72q6 29 25.5 49.5
t46.5 32.5q-40 25 -28 80zM557 252q5 28 -29 28q-16 0 -25.5 -7t-11.5 -18q-3 -14 9.5 -23.5t32.5 -16.5q18 13 24 37zM530 95q2 9 -2 15.5t-11.5 12t-17.5 9.5t-19 9q-8 -6 -15 -12q-6 -5 -11 -13t-7 -17q-6 -33 37 -33q18 0 30.5 7.5t15.5 21.5z" />
    <glyph glyph-name="seveninferior" unicode="&#x2087;" horiz-adv-x="291" 
d="M-4 163q-2 20 3 42t14 42h245v-13q0 -12 -3 -27q-7 -31 -22.5 -55t-35.5 -45.5t-42.5 -41.5t-42.5 -42.5t-35.5 -50.5t-21.5 -64q-23 -4 -51 -4.5t-49 4.5q13 57 34.5 92.5t46.5 61.5t51 48.5t48 52.5h-139z" />
    <glyph glyph-name="six" unicode="6" horiz-adv-x="552" 
d="M525 684q5 -26 -2.5 -60.5t-22.5 -60.5q-93 -10 -154 -44t-100 -103q20 5 41.5 8t47.5 3q45 0 81 -12.5t59.5 -39.5t31 -69t-4.5 -101q-24 -112 -99.5 -163.5t-187.5 -51.5q-56 0 -97 15.5t-65 48.5t-30 84t9 121q22 102 65.5 179.5t106 130t143.5 81t178 34.5zM344 205
q13 60 -6.5 83t-57.5 23q-23 0 -44 -4.5t-38 -9.5q-3 -10 -5.5 -20.5t-4.5 -21.5q-9 -43 -9 -72t7 -46.5t20.5 -25t32.5 -7.5q38 0 65.5 23.5t39.5 77.5z" />
    <glyph glyph-name="six.denom" horiz-adv-x="316" 
d="M-11 134q23 105 92.5 154.5t175.5 57.5q5 -15 0 -37.5t-16 -36.5q-31 -2 -62 -13.5t-54 -42.5q15 3 36 3q23 0 43 -6t33 -19t17.5 -34t-1.5 -51q-12 -57 -53.5 -85.5t-104.5 -28.5q-64 0 -92.5 33.5t-13.5 105.5zM152 109q5 22 -2.5 31.5t-22.5 9.5q-8 0 -17 -1t-16 -2
q-19 -81 16 -81q15 0 26 10.5t16 32.5z" />
    <glyph glyph-name="six.num" horiz-adv-x="315" 
d="M62 480q23 105 92.5 154.5t174.5 57.5q5 -14 0.5 -36t-16.5 -38q-30 -2 -61.5 -13.5t-54.5 -42.5q16 3 36 3q23 0 43 -6t33 -19t18 -34t-1 -51q-12 -57 -54 -85.5t-105 -28.5q-64 0 -92 33.5t-13 105.5zM225 455q5 22 -3 31.5t-23 9.5q-8 0 -16.5 -1t-15.5 -2
q-19 -81 16 -81q15 0 26 10.5t16 32.5z" />
    <glyph glyph-name="sixinferior" unicode="&#x2086;" horiz-adv-x="315" 
d="M-32 38q23 105 92.5 154.5t174.5 57.5q5 -14 0.5 -36t-16.5 -38q-30 -2 -61.5 -13.5t-54.5 -42.5q16 3 36 3q23 0 43 -6t33 -19t18 -34t-1 -51q-12 -57 -54 -85.5t-105 -28.5q-64 0 -92 33.5t-13 105.5zM131 13q5 22 -3 31.5t-23 9.5q-8 0 -16.5 -1t-15.5 -2
q-19 -81 16 -81q15 0 26 10.5t16 32.5z" />
    <glyph glyph-name="slash" unicode="/" horiz-adv-x="527" 
d="M445 741q10 2 22 4q11 2 25.5 3.5t31.5 1.5q18 0 32 -1.5t24 -3.5l21 -4l-498 -779q-10 -3 -22 -5q-11 -2 -25.5 -3t-31.5 -1q-18 0 -32.5 1t-24.5 3q-11 2 -20 5z" />
    <glyph glyph-name="space" unicode=" " horiz-adv-x="201" 
 />
    <glyph glyph-name="sterling" unicode="&#xa3;" horiz-adv-x="540" 
d="M271 284q-5 -38 -24.5 -76.5t-68.5 -76.5h279v-18q0 -8 -1 -20t-4 -27t-7 -27t-8 -21q-4 -11 -8 -18h-436l28 131q56 46 77.5 82.5t24.5 70.5h-80q-1 6 -1 15q0 7 1 17t4 22q2 12 5.5 21.5t6.5 16.5l7 14h53q-2 24 -2 51t7 60q11 51 36.5 87t61.5 59t80 33.5t91 10.5
q60 0 101.5 -10.5t75.5 -26.5q-5 -32 -22.5 -59.5t-43.5 -46.5q-23 9 -51 15t-56 7q-42 0 -74.5 -18.5t-43.5 -68.5q-5 -24 -6 -47t1 -46h173q1 -6 1 -14q0 -7 -1.5 -16l-3.5 -21q-3 -12 -6 -22t-6 -18q-4 -9 -7 -15h-153z" />
    <glyph glyph-name="summation" unicode="&#x2211;" horiz-adv-x="614" 
d="M241 261l-129 377l11 56h528q1 -7 1 -17q0 -8 -1 -19t-3 -25q-3 -13 -7 -23.5l-7 -18.5q-4 -10 -8 -17h-338l110 -315l-263 -343h357q1 -8 1 -18q0 -8 -1 -19t-4 -25q-6 -25 -14 -43q-4 -10 -8 -18h-551l13 61z" />
    <glyph glyph-name="t" unicode="t" horiz-adv-x="389" 
d="M220 193q-11 -52 6 -68.5t57 -16.5q8 0 15 0.5t13 1.5q7 1 13 2q1 -7 2 -16q1 -8 0.5 -19.5t-3.5 -25.5q-6 -23 -12 -37q-4 -8 -6 -13q-23 -6 -46 -8.5t-46 -2.5q-102 0 -136 47t-12 152l48 227h-72v15q0 7 1 16.5t4 22.5q3 14 6 24.5t6 17.5l7 14h72l19 89
q32 16 75.5 22.5t83.5 2.5l-24 -114h108v-14q0 -7 -1 -17.5t-4 -23.5q-3 -12 -6 -22t-6 -18q-4 -9 -7 -15h-108z" />
    <glyph glyph-name="tbar" unicode="&#x167;" horiz-adv-x="390" 
d="M285 108q7 0 14.5 0.5t13.5 1.5q7 1 13 2q1 -7 2 -16q0 -8 -0.5 -19.5t-3.5 -25.5q-6 -23 -12 -37q-4 -8 -6 -13q-23 -6 -46 -8.5t-46 -2.5q-101 0 -135 47.5t-12 151.5l10 48h-63q-1 23 4 46t15 42h63l19 91h-73v15q0 7 1 16.5t4 22.5q3 14 6 24.5t6 17.5l7 14h73l19 89
q32 16 75.5 22.5t83.5 2.5l-24 -114h107v-14q0 -7 -1 -17.5t-4 -23.5q-3 -12 -6 -22t-6 -18q-4 -9 -7 -15h-107l-19 -91h97q3 -20 -2.5 -44t-16.5 -44h-97l-9 -44q-11 -52 5.5 -68.5t57.5 -16.5z" />
    <glyph glyph-name="tcaron" unicode="&#x165;" horiz-adv-x="389" 
d="M400 571q-20 2 -35.5 12t-21.5 25q20 16 34.5 31.5t25 31.5t18 35t13.5 43q36 2 66 -4t47 -23q-11 -27 -27 -51t-35.5 -44t-41 -34.5t-43.5 -21.5zM222 193q-11 -52 5.5 -68.5t57.5 -16.5q7 0 14.5 0.5t13.5 1.5q7 1 13 2q1 -7 2 -16q0 -8 -0.5 -19.5t-3.5 -25.5
q-6 -23 -12 -37q-4 -8 -6 -13q-23 -6 -46 -8.5t-46 -2.5q-101 0 -135 47.5t-12 151.5l48 227h-73v15q0 7 1 16.5t4 22.5q3 14 6 24.5t6 17.5l7 14h73l19 89q32 16 75.5 22.5t83.5 2.5l-24 -114h107v-14q0 -7 -1 -17.5t-4 -23.5q-3 -12 -6 -22t-6 -18q-4 -9 -7 -15h-107z" />
    <glyph glyph-name="thorn" unicode="&#xfe;" horiz-adv-x="562" 
d="M149 746l21 4q10 2 24 3t33 1q18 0 32 -1t24 -3q11 -2 20 -4l-55 -257q26 25 61 38t80 13q40 0 71 -15.5t48.5 -50t19.5 -89t-14 -132.5q-16 -77 -40.5 -127.5t-55.5 -80.5t-68 -42.5t-79 -12.5q-45 0 -73.5 13t-44.5 38l-55 -257q-9 -2 -21 -4q-11 -2 -25.5 -3t-32.5 -1
q-19 0 -32.5 1t-23.5 3q-11 2 -19 4zM353 265q10 47 11.5 77t-5 47t-20 23.5t-33.5 6.5q-33 0 -57.5 -24t-34.5 -64l-27 -127q-8 -38 4.5 -66t48.5 -28q19 0 35 6t30 22.5t25.5 47t22.5 79.5z" />
    <glyph glyph-name="three" unicode="3" horiz-adv-x="532" 
d="M466 188q-10 -47 -33 -84t-60.5 -62.5t-91.5 -38.5t-126 -13q-45 0 -79 5.5t-57 12.5q-26 8 -45 19q5 29 22.5 60t38.5 49q20 -6 42 -10q19 -4 43.5 -7t52.5 -3q63 0 95.5 20.5t43.5 70.5q10 46 -9 68t-77 22h-91q-4 27 3 59.5t22 58.5h91q48 0 71 21t30 55
q9 43 -12.5 61.5t-71.5 18.5q-28 0 -51.5 -3t-40.5 -7q-20 -4 -36 -10q-20 17 -26.5 45.5t1.5 59.5q24 10 55 19q26 7 61.5 13t77.5 6q112 0 167 -46.5t36 -138.5q-11 -50 -38.5 -88.5t-79.5 -60.5q51 -22 68.5 -65.5t3.5 -106.5z" />
    <glyph glyph-name="three.denom" horiz-adv-x="304" 
d="M234 97q-5 -23 -16.5 -42t-31.5 -32.5t-49.5 -20.5t-70.5 -7q-27 0 -46.5 3t-33.5 8q-16 4 -26 11q3 17 13.5 36t25.5 30q9 -3 20 -6q20 -5 48 -5q59 0 66 36q4 18 -5 26t-35 8h-48q-2 17 2 37t14 37h48q21 0 30.5 6.5t11.5 19.5q7 30 -39 30q-14 0 -25.5 -1.5
t-21.5 -3.5l-21 -4q-9 10 -12.5 28t1.5 38q14 5 32 9q15 4 34.5 7t42.5 3q67 0 96 -24t19 -69q-10 -53 -60 -74q23 -10 33.5 -30t3.5 -54z" />
    <glyph glyph-name="three.num" horiz-adv-x="304" 
d="M307 443q-10 -47 -48 -74.5t-120 -27.5q-27 0 -46.5 3t-33.5 8q-16 4 -26 11q4 17 14.5 36t24.5 30q9 -3 20 -6q20 -5 49 -5q58 0 65 36q5 18 -4 26t-35 8h-48q-3 17 1.5 37t13.5 37h48q21 0 30.5 6.5t12.5 19.5q6 30 -40 30q-14 0 -25.5 -1.5t-21.5 -3.5l-21 -4
q-9 10 -12 28t1 38q14 5 32 9q15 4 34.5 7t42.5 3q67 0 96 -24t20 -69q-12 -54 -60 -74q22 -10 33 -30t3 -54z" />
    <glyph glyph-name="threeeighths" unicode="&#x215c;" horiz-adv-x="771" 
d="M600 695q5 1 14 3q8 2 18.5 3t25.5 1q14 0 25 -1t18 -3q8 -2 14 -3l-535 -698q-7 -2 -16 -4q-15 -3 -43 -3q-25 0 -40 3q-9 2 -15 4zM113 675q14 5 32 9q15 4 34.5 7t42.5 3q67 0 96 -24t20 -69q-12 -54 -60 -74q22 -10 33 -30t3 -54q-10 -47 -48 -74.5t-120 -27.5
q-27 0 -46.5 3t-33.5 8q-16 4 -26 11q4 17 14.5 36t24.5 30q9 -3 20 -6q20 -5 49 -5q58 0 65 36q5 18 -4 26t-35 8h-48q-3 17 1.5 37t13.5 37h48q21 0 30.5 6.5t12.5 19.5q6 30 -40 30q-14 0 -25.5 -1.5t-21.5 -3.5l-21 -4q-9 10 -12 28t1 38zM467 253q9 45 47.5 70
t101.5 25q60 0 87.5 -23.5t18.5 -65.5q-5 -26 -21.5 -45.5t-36.5 -31.5q21 -13 32 -33.5t4 -52.5q-10 -48 -50.5 -74.5t-109.5 -26.5q-65 0 -96 24t-21 72q6 29 25.5 49.5t46.5 32.5q-40 25 -28 80zM630 252q5 28 -29 28q-16 0 -25.5 -7t-11.5 -18q-3 -14 9.5 -23.5
t32.5 -16.5q18 13 24 37zM603 95q2 9 -2 15.5t-11.5 12t-17.5 9.5t-19 9q-8 -6 -15 -12q-6 -5 -11 -13t-7 -17q-6 -33 37 -33q18 0 30.5 7.5t15.5 21.5z" />
    <glyph glyph-name="threeinferior" unicode="&#x2083;" horiz-adv-x="304" 
d="M213 1q-10 -47 -48 -74.5t-120 -27.5q-27 0 -46.5 3t-33.5 8q-16 4 -26 11q4 17 14.5 36t24.5 30q9 -3 20 -6q20 -5 49 -5q30 0 45.5 8.5t20.5 27.5q4 18 -5 26t-35 8h-48q-3 17 1.5 37t13.5 37h48q21 0 30.5 6.5t12.5 19.5q6 30 -40 30q-14 0 -25.5 -1.5t-21.5 -3.5
l-21 -4q-9 10 -12 28t1 38q14 5 32 9q15 4 35 7t43 3q67 0 95.5 -24t19.5 -69q-12 -54 -60 -74q22 -10 33 -30t3 -54z" />
    <glyph glyph-name="threequarters" unicode="&#xbe;" horiz-adv-x="722" 
d="M600 695q5 1 14 3q8 2 18.5 3t25.5 1q14 0 25 -1t18 -3q8 -2 14 -3l-535 -698q-7 -2 -16 -4q-15 -3 -43 -3q-25 0 -40 3q-9 2 -15 4zM113 675q14 5 32 9q15 4 34.5 7t42.5 3q67 0 96 -24t20 -69q-12 -54 -60 -74q22 -10 33 -30t3 -54q-10 -47 -48 -74.5t-120 -27.5
q-27 0 -46.5 3t-33.5 8q-16 4 -26 11q4 17 14.5 36t24.5 30q9 -3 20 -6q20 -5 49 -5q58 0 65 36q5 18 -4 26t-35 8h-48q-3 17 1.5 37t13.5 37h48q21 0 30.5 6.5t12.5 19.5q6 30 -40 30q-14 0 -25.5 -1.5t-21.5 -3.5l-21 -4q-9 10 -12 28t1 38zM567 337q22 6 49 6q25 0 46 -6
l-42 -195h37q1 -18 -3 -36q-2 -9 -4.5 -17t-7.5 -17h-37l-14 -67q-14 -3 -26 -4t-20 -1t-20 1t-23 4l14 67h-161v17t2 17t4.5 15t6.5 15zM531 142l19 88l-86 -88h67z" />
    <glyph glyph-name="threesuperior" unicode="&#xb3;" horiz-adv-x="304" 
d="M307 443q-10 -47 -48 -74.5t-120 -27.5q-27 0 -46.5 3t-33.5 8q-16 4 -26 11q4 17 14.5 36t24.5 30q9 -3 20 -6q20 -5 49 -5q58 0 65 36q5 18 -4 26t-35 8h-48q-3 17 1.5 37t13.5 37h48q21 0 30.5 6.5t12.5 19.5q6 30 -40 30q-14 0 -25.5 -1.5t-21.5 -3.5l-21 -4
q-9 10 -12 28t1 38q14 5 32 9q15 4 34.5 7t42.5 3q67 0 96 -24t20 -69q-12 -54 -60 -74q22 -10 33 -30t3 -54z" />
    <glyph glyph-name="tilde" unicode="&#x2dc;" horiz-adv-x="327" 
d="M227 714q13 0 23.5 4t18.5 9q9 5 15 13q20 -11 28.5 -32.5t6.5 -43.5q-14 -15 -32 -26q-15 -10 -36 -17.5t-46 -7.5q-24 0 -39.5 5t-27.5 11t-24 11t-30 5q-13 0 -23.5 -4t-18.5 -9q-9 -6 -16 -13q-41 24 -35 76q15 14 33 25q16 10 37 18t45 8t39 -5t27 -11t24.5 -11
t30.5 -5z" />
    <glyph glyph-name="trademark" unicode="&#x2122;" horiz-adv-x="613" 
d="M330 720q2 -5 1 -12t-3 -14q-1 -6 -3.5 -13t-5.5 -12h-74l-49 -233q-4 -1 -9 -2t-10.5 -1.5t-13.5 -0.5t-13.5 0.5t-9.5 1.5t-7 2l49 233h-76v11.5t1 12.5l4 14t6 13h213zM362 716q5 1 16.5 2.5t23.5 1.5q26 0 37 -4l17 -73q5 -26 7.5 -46t2.5 -30l18 30.5t25 39.5l48 79
q6 1 13 2q6 1 13 1.5t15 0.5t16 -0.5t13 -1.5l12 -2l-59 -280l-8 -2q-10 -2 -23 -2t-23 2l-8 2l23 108l12.5 57t9.5 39q-8 -16 -17.5 -31.5l-16.5 -26.5l-48 -74l-8 -2q-10 -2 -21 -2q-12 0 -20 2q-4 1 -7 2l-14 83q-5 15 -7 26l-4 23q-2 -15 -5.5 -36.5t-11.5 -59.5
l-23 -108l-8 -2q-10 -2 -22 -2q-7 0 -11.5 0.5t-8.5 1.5t-7 2z" />
    <glyph glyph-name="two" unicode="2" horiz-adv-x="538" 
d="M150 543q-19 17 -24.5 47t4.5 62q29 11 62 21q29 8 67.5 14.5t84.5 6.5q53 0 94.5 -12t67.5 -36t35.5 -61t-0.5 -87q-10 -45 -29 -79t-48 -61.5t-68 -51.5t-88 -50q-22 -12 -45.5 -23t-44 -23t-36 -27t-21.5 -35q-1 -4 -1 -8v-8h283q4 -14 3.5 -31t-4.5 -35
q-4 -17 -10.5 -34.5t-16.5 -31.5h-436q0 10 1 22q1 10 2 23.5t5 28.5q12 57 38 98.5t60.5 74t74 57.5l78.5 48q37 22 62 39.5t41.5 33.5t25 32.5t13.5 36.5q8 38 -16 56.5t-72 18.5q-26 0 -51.5 -4t-45.5 -9q-24 -6 -45 -13z" />
    <glyph glyph-name="two.denom" horiz-adv-x="304" 
d="M-34 48q7 33 23.5 56t37.5 39t43.5 27l42 21t33.5 20.5t17 25.5q4 17 -9 23.5t-33 7.5q-17 1 -35.5 -2t-32.5 -7q-9 14 -10.5 33t4.5 39q15 4 33 8q15 3 35 6t43 3q57 0 88 -24t20 -78q-9 -41 -31.5 -63t-50.5 -37t-57.5 -28t-51.5 -34h140q3 -19 -2 -43q-5 -23 -16 -41
h-236q-1 5 0 13q0 12 5 35z" />
    <glyph glyph-name="two.num" horiz-adv-x="304" 
d="M40 394q7 33 23.5 56t37 39t43.5 27l42.5 20.5t33.5 20.5t17 26q4 17 -9 24t-33 7q-17 0 -35 -2.5t-33 -6.5q-10 14 -11.5 33t5.5 39q14 4 32 8q15 3 35 6t43 3q28 0 50.5 -6t37.5 -18.5t21 -31.5t0 -46q-9 -41 -31.5 -63t-51 -37t-58 -28t-51.5 -34h140q3 -19 -2 -43
q-5 -22 -15 -41h-236q-1 5 0 13q0 12 5 35z" />
    <glyph glyph-name="twoinferior" unicode="&#x2082;" horiz-adv-x="304" 
d="M-54 -48q7 33 23.5 56t37 39t43.5 27l42.5 21t33.5 20.5t17 25.5q4 17 -9.5 24t-33.5 7q-16 1 -34.5 -2t-32.5 -7q-10 14 -11.5 33t5.5 39q15 4 33 8q15 3 35 6t43 3q57 0 88 -24t20 -78q-9 -41 -31.5 -63t-50.5 -37t-58 -28t-52 -35h140q3 -18 -2 -42q-5 -22 -15 -41
h-236q-1 5 0 13q0 12 5 35z" />
    <glyph glyph-name="twosuperior" unicode="&#xb2;" horiz-adv-x="303" 
d="M40 394q7 33 23.5 56t37 39t43 27l42 20.5t33.5 20.5t17 26q4 18 -10 24.5t-35 6.5q-16 0 -33 -2.5t-31 -6.5q-10 14 -11.5 33t5.5 39q14 4 32 8q15 3 35 6t43 3q57 0 88 -24t20 -78q-9 -41 -31.5 -63t-50.5 -37t-57.5 -28t-51.5 -34h139q3 -19 -2 -43q-5 -22 -15 -41
h-235q-1 5 0 13q0 12 5 35z" />
    <glyph glyph-name="u" unicode="u" horiz-adv-x="547" 
d="M97 522q9 2 20 4q10 2 24.5 3t34.5 1t34 -1t23 -3q11 -2 18 -4l-75 -352q-6 -27 5 -43.5t45 -16.5q19 0 39.5 9t38.5 28l80 375q9 2 21 4q10 2 24.5 3t33.5 1t33.5 -1t23.5 -3q11 -2 18 -4l-109 -514q-9 -2 -20 -4q-10 -2 -24.5 -3t-34.5 -1q-17 0 -28 1t-19 3
q-9 2 -14 4v40q-32 -28 -70.5 -43t-77.5 -15q-77 0 -107 46.5t-13 127.5z" />
    <glyph glyph-name="uacute" unicode="&#xfa;" horiz-adv-x="547" 
d="M322 585q-25 5 -46 15t-30 29l122 147q19 2 38 -1t35.5 -10t29 -17.5t17.5 -23.5zM97 522q9 2 20 4q10 2 24.5 3t34.5 1t34 -1t23 -3q11 -2 18 -4l-75 -352q-6 -27 5 -43.5t45 -16.5q19 0 39.5 9t38.5 28l80 375q9 2 21 4q10 2 24.5 3t33.5 1t33.5 -1t23.5 -3
q11 -2 18 -4l-109 -514q-9 -2 -20 -4q-10 -2 -24.5 -3t-34.5 -1q-17 0 -28 1t-19 3q-9 2 -14 4v40q-32 -28 -70.5 -43t-77.5 -15q-77 0 -107 46.5t-13 127.5z" />
    <glyph glyph-name="ubreve" unicode="&#x16d;" horiz-adv-x="547" 
d="M346 708q25 0 46 4.5t35 9.5q17 6 30 14q20 -9 33 -28t16 -41q-18 -20 -44 -36q-22 -14 -54.5 -24.5t-76.5 -10.5t-74.5 10.5t-50.5 24.5q-23 16 -37 36q12 22 33 41t45 28q10 -8 24 -14q12 -5 30.5 -9.5t44.5 -4.5zM97 522q9 2 20 4q10 2 24.5 3t34.5 1t34 -1t23 -3
q11 -2 18 -4l-75 -352q-6 -27 5 -43.5t45 -16.5q19 0 39.5 9t38.5 28l80 375q9 2 21 4q10 2 24.5 3t33.5 1t33.5 -1t23.5 -3q11 -2 18 -4l-109 -514q-9 -2 -20 -4q-10 -2 -24.5 -3t-34.5 -1q-17 0 -28 1t-19 3q-9 2 -14 4v40q-32 -28 -70.5 -43t-77.5 -15q-77 0 -107 46.5
t-13 127.5z" />
    <glyph glyph-name="ucircumflex" unicode="&#xfb;" horiz-adv-x="547" 
d="M511 641q-16 -22 -36.5 -40t-44.5 -26l-90 65l-116 -64q-21 8 -34.5 25.5t-19.5 39.5l171 119h35zM97 522q9 2 20 4q10 2 24.5 3t34.5 1t34 -1t23 -3q11 -2 18 -4l-75 -352q-6 -27 5 -43.5t45 -16.5q19 0 39.5 9t38.5 28l80 375q9 2 21 4q10 2 24.5 3t33.5 1t33.5 -1
t23.5 -3q11 -2 18 -4l-109 -514q-9 -2 -20 -4q-10 -2 -24.5 -3t-34.5 -1q-17 0 -28 1t-19 3q-9 2 -14 4v40q-32 -28 -70.5 -43t-77.5 -15q-77 0 -107 46.5t-13 127.5z" />
    <glyph glyph-name="udieresis" unicode="&#xfc;" horiz-adv-x="547" 
d="M197 717q6 1 17 3q8 2 21 3t30 1q16 0 28 -1t20 -3q10 -2 16 -3l-24 -115q-7 -2 -18 -4q-18 -3 -50 -3t-48 3q-10 2 -16 4zM394 717q6 1 17 3q8 2 21 3t30 1q16 0 28 -1t20 -3q10 -2 16 -3l-24 -115q-7 -2 -18 -4q-18 -3 -50 -3q-34 0 -49 3q-10 2 -15 4zM97 522
q9 2 20 4q10 2 24.5 3t34.5 1t34 -1t23 -3q11 -2 18 -4l-75 -352q-6 -27 5 -43.5t45 -16.5q19 0 39.5 9t38.5 28l80 375q9 2 21 4q10 2 24.5 3t33.5 1t33.5 -1t23.5 -3q11 -2 18 -4l-109 -514q-9 -2 -20 -4q-10 -2 -24.5 -3t-34.5 -1q-17 0 -28 1t-19 3q-9 2 -14 4v40
q-32 -28 -70.5 -43t-77.5 -15q-77 0 -107 46.5t-13 127.5z" />
    <glyph glyph-name="ugrave" unicode="&#xf9;" horiz-adv-x="547" 
d="M412 619q-18 -19 -42.5 -29t-52.5 -15l-107 139q10 13 27 23.5t36.5 17.5t40 10t38.5 1zM97 522q9 2 20 4q10 2 24.5 3t34.5 1t34 -1t23 -3q11 -2 18 -4l-75 -352q-6 -27 5 -43.5t45 -16.5q19 0 39.5 9t38.5 28l80 375q9 2 21 4q10 2 24.5 3t33.5 1t33.5 -1t23.5 -3
q11 -2 18 -4l-109 -514q-9 -2 -20 -4q-10 -2 -24.5 -3t-34.5 -1q-17 0 -28 1t-19 3q-9 2 -14 4v40q-32 -28 -70.5 -43t-77.5 -15q-77 0 -107 46.5t-13 127.5z" />
    <glyph glyph-name="uhungarumlaut" unicode="&#x171;" horiz-adv-x="547" 
d="M250 584q-23 2 -42 11t-28 26l108 139q17 3 34.5 1t33 -8t27 -15.5t17.5 -20.5zM422 585q-23 4 -42 13.5t-28 26.5l113 135q35 5 67.5 -9.5t43.5 -37.5zM97 522q9 2 20 4q10 2 24.5 3t34.5 1t34 -1t23 -3q11 -2 18 -4l-75 -352q-6 -27 5 -43.5t45 -16.5q19 0 39.5 9
t38.5 28l80 375q9 2 21 4q10 2 24.5 3t33.5 1t33.5 -1t23.5 -3q11 -2 18 -4l-109 -514q-9 -2 -20 -4q-10 -2 -24.5 -3t-34.5 -1q-17 0 -28 1t-19 3q-9 2 -14 4v40q-32 -28 -70.5 -43t-77.5 -15q-77 0 -107 46.5t-13 127.5z" />
    <glyph glyph-name="umacron" unicode="&#x16b;" horiz-adv-x="547" 
d="M488 701q2 -17 -3.5 -40.5t-14.5 -42.5h-255q1 20 5.5 43t12.5 40h255zM97 522q9 2 20 4q10 2 24.5 3t34.5 1t34 -1t23 -3q11 -2 18 -4l-75 -352q-6 -27 5 -43.5t45 -16.5q19 0 39.5 9t38.5 28l80 375q9 2 21 4q10 2 24.5 3t33.5 1t33.5 -1t23.5 -3q11 -2 18 -4
l-109 -514q-9 -2 -20 -4q-10 -2 -24.5 -3t-34.5 -1q-17 0 -28 1t-19 3q-9 2 -14 4v40q-32 -28 -70.5 -43t-77.5 -15q-77 0 -107 46.5t-13 127.5z" />
    <glyph glyph-name="underscore" unicode="_" horiz-adv-x="543" 
d="M-41 -116q-1 4 -1 11q0 6 1 15t4 22q2 13 5.5 22t5.5 15q3 7 6 11h447q1 -4 1 -11q0 -14 -4 -37q-3 -13 -6.5 -22t-5.5 -15q-4 -7 -6 -11h-447z" />
    <glyph glyph-name="uni00AD" unicode="&#xad;" horiz-adv-x="287" 
 />
    <glyph glyph-name="Tcommaaccent" unicode="&#x162;" horiz-adv-x="564" 
d="M626 720q1 -8 1 -19q0 -9 -1 -21t-4 -26q-3 -15 -7 -27.5t-8 -21.5q-4 -11 -9 -19h-174l-123 -577q-11 -3 -23 -5q-11 -2 -26 -3t-33 -1q-20 0 -34 1t-24 3q-11 2 -19 5l123 577h-179q-1 7 -1 18q0 8 0.5 20.5t4.5 27.5q3 15 7 27.5t8 21.5q4 11 9 19h512zM86 -311
q13 12 24 29q10 14 20 34.5t18 46.5q-11 1 -20 2t-15 3q-7 2 -13 3l31 143l21 4q10 2 24 3t33 1q18 0 32 -1t24 -3q11 -2 20 -4l-22 -103q-11 -48 -32 -84.5t-43 -61.5q-26 -29 -55 -50z" />
    <glyph glyph-name="Tcommaaccent" unicode="&#x21a;" horiz-adv-x="564" 
d="M626 720q1 -8 1 -19q0 -9 -1 -21t-4 -26q-3 -15 -7 -27.5t-8 -21.5q-4 -11 -9 -19h-174l-123 -577q-11 -3 -23 -5q-11 -2 -26 -3t-33 -1q-20 0 -34 1t-24 3q-11 2 -19 5l123 577h-179q-1 7 -1 18q0 8 0.5 20.5t4.5 27.5q3 15 7 27.5t8 21.5q4 11 9 19h512zM86 -311
q13 12 24 29q10 14 20 34.5t18 46.5q-11 1 -20 2t-15 3q-7 2 -13 3l31 143l21 4q10 2 24 3t33 1q18 0 32 -1t24 -3q11 -2 20 -4l-22 -103q-11 -48 -32 -84.5t-43 -61.5q-26 -29 -55 -50z" />
    <glyph glyph-name="tcommaaccent" unicode="&#x163;" horiz-adv-x="389" 
d="M220 193q-11 -52 6 -68.5t57 -16.5q8 0 15 0.5t13 1.5q7 1 13 2q1 -7 2 -16q1 -8 0.5 -19.5t-3.5 -25.5q-6 -23 -12 -37q-4 -8 -6 -13q-23 -6 -46 -8.5t-46 -2.5q-102 0 -136 47t-12 152l48 227h-72v15q0 7 1 16.5t4 22.5q3 14 6 24.5t6 17.5l7 14h72l19 89
q32 16 75.5 22.5t83.5 2.5l-24 -114h108v-14q0 -7 -1 -17.5t-4 -23.5q-3 -12 -6 -22t-6 -18q-4 -9 -7 -15h-108zM46 -310q13 11 24 28q10 14 20 34t18 46q-12 1 -21 2t-15 3l-12 3l30 140q9 2 20 4q10 2 24.5 3t32.5 1q17 0 31 -1t24 -3q11 -2 19 -4l-22 -101
q-10 -47 -31 -83t-42 -60q-26 -29 -54 -49z" />
    <glyph glyph-name="tcommaaccent" unicode="&#x21b;" horiz-adv-x="389" 
d="M220 193q-11 -52 6 -68.5t57 -16.5q8 0 15 0.5t13 1.5q7 1 13 2q1 -7 2 -16q1 -8 0.5 -19.5t-3.5 -25.5q-6 -23 -12 -37q-4 -8 -6 -13q-23 -6 -46 -8.5t-46 -2.5q-102 0 -136 47t-12 152l48 227h-72v15q0 7 1 16.5t4 22.5q3 14 6 24.5t6 17.5l7 14h72l19 89
q32 16 75.5 22.5t83.5 2.5l-24 -114h108v-14q0 -7 -1 -17.5t-4 -23.5q-3 -12 -6 -22t-6 -18q-4 -9 -7 -15h-108zM46 -310q13 11 24 28q10 14 20 34t18 46q-12 1 -21 2t-15 3l-12 3l30 140q9 2 20 4q10 2 24.5 3t32.5 1q17 0 31 -1t24 -3q11 -2 19 -4l-22 -101
q-10 -47 -31 -83t-42 -60q-26 -29 -54 -49z" />
    <glyph glyph-name="uni0401" unicode="&#x401;" horiz-adv-x="559" 
d="M259 896q6 1 17 3q8 2 21 3t30 1q16 0 28 -1t20 -3q10 -2 16 -3l-24 -115q-7 -2 -18 -4q-18 -3 -50 -3t-48 3q-10 2 -16 4zM456 896q6 1 17 3q8 2 21 3t30 1q16 0 27.5 -1t19.5 -3q9 -2 16 -3l-24 -115q-8 -2 -18 -4q-18 -3 -49 -3q-34 0 -49 3q-10 2 -15 4zM597 720
q2 -11 1.5 -26t-3.5 -32q-4 -18 -10 -34.5t-14 -29.5h-278l-37 -174h228q1 -13 1.5 -27t-3.5 -32q-5 -19 -10.5 -33.5t-13.5 -28.5h-228l-38 -181h288q2 -12 1.5 -27.5t-4.5 -32.5t-9.5 -32.5t-13.5 -29.5h-448l153 720h438z" />
    <glyph glyph-name="uni0410" unicode="&#x410;" horiz-adv-x="672" 
d="M321 711q12 2 28 4q14 2 32.5 3.5t42.5 1.5q25 0 43 -1.5t31 -3.5q14 -2 25 -4l79 -702q-10 -3 -22 -5q-11 -2 -27 -3t-37 -1q-20 0 -33.5 1t-21.5 3q-10 2 -15 5l-16 146h-251l-78 -146q-11 -3 -24 -5q-11 -2 -27 -3t-34 -1t-31.5 1t-22.5 3q-11 2 -18 5zM390 570
q-5 -17 -13 -35l-16.5 -37.5t-22.5 -44.5l-97 -181h177l-20 181q-3 24 -4 45t-1 37q0 18 1 35h-4z" />
    <glyph glyph-name="uni0411" unicode="&#x411;" horiz-adv-x="624" 
d="M614 720q2 -6 3 -16q1 -8 0 -20t-5 -29q-3 -15 -7.5 -27t-8.5 -20q-4 -10 -9 -17h-295l-32 -148h138q55 0 93.5 -18.5t61 -51t28 -76t-4.5 -93.5q-21 -101 -91.5 -152.5t-180.5 -51.5h-298l153 720h455zM191 117h107q49 0 79 27t41 78t-8 77.5t-68 26.5h-107z" />
    <glyph glyph-name="uni0412" unicode="&#x412;" horiz-adv-x="632" 
d="M453 720q49 0 84 -15.5t56 -43.5t27 -67t-4 -86q-11 -51 -39.5 -84t-72.5 -56q42 -20 61 -65.5t6 -105.5q-21 -101 -91.5 -149t-175.5 -48h-298l153 720h294zM358 423q41 0 66.5 24.5t33.5 66.5q9 43 -5.5 67t-55.5 24h-103l-39 -182h103zM298 116q93 0 114 96
q11 51 -8 73.5t-66 22.5h-108l-40 -192h108z" />
    <glyph glyph-name="uni0413" unicode="&#x413;" horiz-adv-x="506" 
d="M571 720q1 -6 1 -16q0 -8 -1 -20.5t-4 -28.5q-3 -14 -7 -26t-8 -20q-4 -10 -8 -18h-252l-124 -582q-11 -3 -23 -5q-11 -2 -26 -3t-34 -1t-33 1t-24 3q-11 2 -20 5l151 711h412z" />
    <glyph glyph-name="uni0414" unicode="&#x414;" horiz-adv-x="720" 
d="M650 122l-55 -260q-17 -5 -34.5 -7.5t-38.5 -2.5q-44 0 -73 10l29 138h-382l-29 -138q-18 -5 -36 -7t-39 -2q-43 0 -71 9l55 260h54q35 20 67.5 77.5t64.5 167.5l102 353h435l-127 -598h78zM314 361q-24 -83 -50 -141t-55 -98h204l103 484h-133z" />
    <glyph glyph-name="uni0415" unicode="&#x415;" 
d="M597 720q2 -11 1.5 -26t-3.5 -32q-4 -18 -10 -34.5t-14 -29.5h-278l-36 -172h228q1 -13 1 -27t-4 -32q-4 -19 -9.5 -33.5t-13.5 -28.5h-228l-39 -183h288q2 -12 1.5 -27.5t-4.5 -32.5t-9.5 -32.5t-13.5 -29.5h-448l153 720h438z" />
    <glyph glyph-name="uni0416" unicode="&#x416;" horiz-adv-x="932" 
d="M825 711q17 4 37.5 6.5t46.5 2.5t46 -2.5t37 -6.5l-262 -336l144 -366q-11 -3 -26 -5q-13 -2 -30.5 -3t-38.5 -1q-22 0 -36.5 1t-23.5 3q-11 2 -18 5l-113 305h-39l-65 -305q-9 -3 -20 -5t-26 -3t-36 -1q-20 0 -34 1t-24 3q-11 2 -20 5l65 305h-29l-242 -305
q-11 -3 -25 -5q-12 -2 -29 -3t-38 -1q-22 0 -38.5 1t-28.5 3q-14 2 -24 5l302 384l-123 318q19 4 40 6.5t47 2.5t43.5 -2.5t32.5 -6.5l105 -277h32l59 277q10 2 22 4q11 2 26 3.5t35 1.5q19 0 33.5 -1.5t24.5 -3.5q11 -2 19 -4l-59 -277h31l220 277v0z" />
    <glyph glyph-name="uni0417" unicode="&#x417;" horiz-adv-x="560" 
d="M115 693q27 10 61 19q29 8 68.5 14t87.5 6q64 0 109 -15.5t71.5 -44t33.5 -68t-3 -88.5q-11 -53 -36.5 -87.5t-77.5 -56.5l-1 -4q97 -45 69 -175q-10 -47 -34.5 -85t-65.5 -64.5t-99 -41t-134 -14.5q-52 0 -89.5 5.5t-62.5 13.5q-29 9 -49 20q6 32 23 63t43 52
q23 -8 61 -15t79 -7q72 0 115 21t54 72t-16.5 71.5t-95.5 20.5h-81q-2 12 -1 28.5t4.5 33.5t9 33t13.5 27h81q61 0 91 21t40 66q10 49 -18.5 69.5t-80.5 20.5q-30 0 -56.5 -3.5t-46.5 -7.5q-23 -4 -42 -10q-21 18 -26.5 48t2.5 62z" />
    <glyph glyph-name="uni0418" unicode="&#x418;" horiz-adv-x="698" 
d="M529 711q10 2 24 4q12 2 29.5 3.5t40.5 1.5t40.5 -1.5t28.5 -3.5q13 -2 22 -4l-149 -702q-10 -3 -22 -5q-11 -2 -26 -3t-33 -1q-20 0 -34.5 1t-24.5 3q-11 2 -19 5l50 234q14 66 27 117.5t24 87.5q12 42 23 75h-5l-32 -58l-44 -73l-67 -104l-184 -279q-1 0 -25.5 -4.5
t-72.5 -4.5q-26 0 -43.5 1t-28.5 3q-13 2 -21 5l149 702q10 2 22 4q11 2 25.5 3.5t33.5 1.5q38 0 58.5 -4.5t21.5 -4.5l-49 -233q-14 -65 -27.5 -118.5t-24.5 -91.5q-13 -45 -25 -80h5q21 44 60 107l89 138l184 278v0z" />
    <glyph glyph-name="uni0419" unicode="&#x419;" horiz-adv-x="698" 
d="M478 907q28 0 52 5.5t41 12.5q20 8 36 19q20 -11 33 -34t15 -50q-23 -21 -54 -38q-26 -14 -63.5 -26t-85.5 -12t-80.5 12t-52.5 26q-24 17 -38 38q12 27 35.5 50t48.5 34q11 -11 28 -19q14 -7 35 -12.5t50 -5.5zM529 711q10 2 24 4q12 2 29.5 3.5t40.5 1.5t40.5 -1.5
t28.5 -3.5q13 -2 22 -4l-149 -702q-10 -3 -22 -5q-11 -2 -26 -3t-33 -1q-20 0 -34.5 1t-24.5 3q-11 2 -19 5l50 234q14 66 27 117.5t24 87.5q12 42 23 75h-5l-32 -58l-44 -73l-67 -104l-184 -279q-1 0 -25.5 -4.5t-72.5 -4.5q-26 0 -43.5 1t-28.5 3q-13 2 -21 5l149 702
q10 2 22 4q11 2 25.5 3.5t33.5 1.5q38 0 58.5 -4.5t21.5 -4.5l-49 -233q-14 -65 -27.5 -118.5t-24.5 -91.5q-13 -45 -25 -80h5q21 44 60 107l89 138z" />
    <glyph glyph-name="uni041A" unicode="&#x41a;" horiz-adv-x="630" 
d="M523 711q17 4 38 6.5t47 2.5t46 -2.5t37 -6.5l-276 -339l158 -363q-12 -3 -27 -5q-13 -2 -30.5 -3t-38.5 -1t-35.5 1t-23.5 3q-11 2 -17 5l-121 305h-48l-65 -305q-8 -3 -20 -5q-11 -2 -26.5 -3t-35.5 -1t-34 1t-24 3q-11 2 -20 5l149 702q10 2 22 4q11 2 26 3.5t35 1.5
q19 0 33.5 -1.5t24.5 -3.5q11 -2 19 -4l-59 -277h39z" />
    <glyph glyph-name="uni041B" unicode="&#x41b;" horiz-adv-x="690" 
d="M29 -7q-25 0 -41 3t-28 8q-5 27 2 56q6 31 22 59q8 -1 17.5 -1t23.5 2q13 2 31 13.5t39.5 42t46 84t49.5 140.5l93 320h424l-151 -711q-10 -3 -22 -5q-11 -2 -25.5 -3t-32.5 -1q-41 0 -60 4.5t-18 4.5l125 589h-132l-56 -200q-37 -129 -77.5 -208.5t-81 -123t-78.5 -58.5
t-70 -15z" />
    <glyph glyph-name="uni041C" unicode="&#x41c;" horiz-adv-x="833" 
d="M647 711q14 3 40 6t59 3q15 0 31.5 -1t31 -2.5t25.5 -3t15 -2.5l-149 -702q-10 -3 -21 -5q-10 -2 -24.5 -3t-32.5 -1q-19 0 -33 1t-24 3q-11 2 -19 5l45 210q9 44 20 91.5l22 91t21 79t17 55.5h-6q-8 -16 -23 -43l-34 -59.5l-40 -66.5l-40 -65l-97 -153q-7 -2 -16 -4
q-15 -3 -43 -3q-27 0 -39 3q-7 2 -12 4l-16.5 73.5t-15.5 73.5q-8 33 -14.5 68.5t-12 68.5t-8.5 60t-4 43h-6q0 -18 -4 -50.5t-10.5 -74t-15 -87.5t-17.5 -89l-48 -226q-9 -3 -20 -5q-10 -2 -23 -3t-30 -1t-29.5 1t-21.5 3q-11 2 -18 5l149 702q12 2 40.5 5.5t59.5 3.5
q20 0 37.5 -1.5t29.5 -3.5q14 -2 26 -4l40 -184q11 -54 19 -104.5t9 -88.5h5q10 24 24 52.5t34 61.5l82.5 131z" />
    <glyph glyph-name="uni041D" unicode="&#x41d;" horiz-adv-x="685" 
d="M541 711l23 4q11 2 25.5 3.5t33.5 1.5q18 0 32.5 -1.5t24.5 -3.5l21 -4l-149 -702q-10 -3 -22 -5q-11 -2 -26 -3t-33 -1q-20 0 -35 1t-25 3q-11 2 -19 5l63 295h-225l-63 -295q-11 -3 -23 -5q-11 -2 -26 -3t-33 -1q-20 0 -34.5 1t-24.5 3q-11 2 -19 5l149 702q10 2 22 4
q11 2 25.5 3.5t33.5 1.5t33 -1.5t25 -3.5l21 -4l-59 -277h225z" />
    <glyph glyph-name="uni041E" unicode="&#x41e;" horiz-adv-x="687" 
d="M57 377q21 96 55.5 163.5t81.5 110t106 62t128 19.5t120.5 -24t82 -72.5t37 -121.5t-14.5 -170q-21 -98 -55 -165.5t-80.5 -110t-105 -61.5t-128.5 -19t-122 24t-82 73t-37 121.5t14 170.5zM488 360q16 75 17 122.5t-10 75.5t-33.5 38.5t-53.5 10.5t-57.5 -10.5
t-50 -38.5t-43 -75.5t-35.5 -122.5q-16 -74 -16.5 -122t10.5 -75.5t33.5 -38t53.5 -10.5t58 10.5t50 38t42 75.5t35 122z" />
    <glyph glyph-name="uni041F" unicode="&#x41f;" horiz-adv-x="674" 
d="M541 9q-9 -3 -21 -5q-11 -2 -25.5 -3t-34.5 -1q-22 0 -37 1t-24 3q-11 2 -18 5l124 582h-213l-124 -582q-10 -3 -22 -5q-11 -2 -26 -3t-34 -1q-22 0 -36.5 1t-23.5 3q-11 2 -18 5l151 711h533z" />
    <glyph glyph-name="uni0420" unicode="&#x420;" horiz-adv-x="605" 
d="M168 9q-10 -3 -22 -5q-11 -2 -26 -3t-34 -1q-20 0 -34.5 1t-24.5 3q-11 2 -19 5l151 711h277q54 0 93.5 -18t62 -50t29 -76.5t-5.5 -98.5q-23 -107 -95.5 -161.5t-181.5 -54.5h-117zM342 385q45 0 74.5 27t40.5 78q11 52 -7.5 78.5t-63.5 26.5h-94l-44 -210h94z" />
    <glyph glyph-name="uni0421" unicode="&#x421;" horiz-adv-x="566" 
d="M58 378q39 181 137.5 267.5t251.5 86.5q45 0 77.5 -6t54.5 -14q26 -9 43 -19q-5 -34 -24 -61.5t-45 -48.5q-15 6 -33 10q-15 4 -36 7t-44 3q-38 0 -71.5 -11.5t-61 -39t-49.5 -74.5t-37 -119t-13 -118.5t18 -73.5t44.5 -38t66.5 -11q26 0 49.5 3t41.5 8q21 4 40 11
q18 -20 24 -50.5t-1 -62.5q-23 -11 -54 -20q-26 -8 -63.5 -13.5t-85.5 -5.5q-77 0 -129.5 27t-81 77.5t-33.5 122.5t14 163z" />
    <glyph glyph-name="uni0422" unicode="&#x422;" horiz-adv-x="564" 
d="M626 720q1 -8 1 -19q0 -9 -1 -21t-4 -26q-3 -15 -7 -27.5t-8 -21.5q-4 -11 -9 -19h-174l-123 -577q-11 -3 -23 -5q-11 -2 -26 -3t-33 -1q-20 0 -34 1t-24 3q-11 2 -19 5l123 577h-179q-1 7 -1 18q0 8 0.5 20.5t4.5 27.5q3 15 7 27.5t8 21.5q4 11 9 19h512z" />
    <glyph glyph-name="uni0423" unicode="&#x423;" horiz-adv-x="622" 
d="M540 711q10 2 22 4q11 2 25.5 3.5t32.5 1.5q16 0 29.5 -1.5t24.5 -3.5q12 -2 22 -4l-295 -518q-34 -59 -70 -96.5t-72.5 -59t-72 -29.5t-68.5 -8q-18 0 -32 2t-25 4q-12 3 -22 6q-1 7 -2 17q-1 8 -0.5 18.5t3.5 24.5q2 13 6 24l7 19l7 18q8 -1 18 -2q8 -1 18.5 -1.5
t21.5 -0.5q15 0 30 3.5t31 13t32.5 26.5t34.5 43h-26l-133 496q11 2 24 4q11 2 27.5 3.5t36.5 1.5q22 0 37.5 -1.5t26.5 -3.5q12 -2 20 -4l60 -247q5 -23 7.5 -43.5t4.5 -34.5q2 -18 3 -31h4l15 31l19 35.5l25 44.5l143 245v0z" />
    <glyph glyph-name="uni0424" unicode="&#x424;" horiz-adv-x="815" 
d="M423 726q9 2 21 4q11 2 25.5 3.5t34.5 1.5t34.5 -1.5t24.5 -3.5q11 -2 20 -4l-13 -62q66 0 117 -17.5t82 -54.5t40 -95t-8 -138t-49.5 -132.5t-78 -83t-102.5 -42.5t-123 -12l-17 -80q-10 -3 -22 -5q-11 -2 -26 -3t-34 -1q-20 0 -34.5 1t-24.5 3q-11 2 -19 5l17 80
q-66 0 -117 17.5t-82 54.5t-40 94.5t8 137.5t49.5 132.5t77.5 83t102.5 43t123.5 12.5zM389 547q-31 0 -58.5 -7.5t-51 -26.5t-41 -52t-28.5 -85t-7.5 -85.5t19 -52.5t40 -26t55.5 -7zM469 205q30 0 58 7.5t51.5 26.5t41.5 52t29 85t7 85.5t-19.5 52.5t-40 26t-55.5 7z" />
    <glyph glyph-name="uni0425" unicode="&#x425;" horiz-adv-x="642" 
d="M534 711q20 5 45 7t48 2q44 0 82 -9l-273 -339l144 -361q-11 -3 -24 -6q-12 -2 -28.5 -3.5t-38.5 -1.5t-36.5 1.5t-23.5 3.5q-11 2 -17 5l-103 241l-188 -243q-9 -2 -21 -3.5t-25 -2.5t-26.5 -1.5t-23.5 -0.5q-25 0 -48 1.5t-41 6.5l300 374l-125 329q10 2 24 4
q12 2 30 3.5t41 1.5q20 0 34.5 -1.5t24.5 -3.5q11 -2 18 -4l84 -207l167 207v0z" />
    <glyph glyph-name="uni0426" unicode="&#x426;" horiz-adv-x="713" 
d="M157 711q9 2 21 4q11 2 26 3.5t35 1.5q18 0 32 -1.5t25 -3.5l21 -4l-124 -582h213l124 582q9 2 21 4q11 2 26.5 3.5t35.5 1.5q18 0 32.5 -1.5t24.5 -3.5q11 -2 20 -4l-124 -582h77l-56 -267q-17 -5 -35.5 -7.5t-37.5 -2.5q-20 0 -38.5 2.5t-34.5 7.5l29 138h-464z" />
    <glyph glyph-name="uni0427" unicode="&#x427;" horiz-adv-x="645" 
d="M502 711l23 4q11 2 25.5 3.5t33.5 1.5q18 0 32.5 -1.5t24.5 -3.5q11 -2 20 -4l-149 -702q-10 -3 -22 -5q-11 -2 -25.5 -3t-32.5 -1q-20 0 -35 1t-25 3q-11 2 -19 5l57 271q-24 -8 -61.5 -16t-88.5 -8q-54 0 -94 12.5t-63.5 40t-30 71.5t7.5 108l47 223q10 2 22 4
q11 2 25.5 3.5t33.5 1.5t33.5 -1.5t24.5 -3.5q11 -2 20 -4l-47 -221q-13 -61 9 -83.5t73 -22.5q37 0 66.5 8t50.5 16z" />
    <glyph glyph-name="uni0428" unicode="&#x428;" horiz-adv-x="961" 
d="M157 711q9 2 21 4q11 2 26 3.5t35 1.5q18 0 32 -1.5t25 -3.5l21 -4l-124 -582h170l124 582q9 2 21 4q11 2 26.5 3.5t35.5 1.5q18 0 32.5 -1.5t24.5 -3.5q11 -2 20 -4l-124 -582h170l124 582q9 2 21 4q11 2 26.5 3.5t35.5 1.5q18 0 32.5 -1.5t24.5 -3.5q11 -2 20 -4
l-151 -711h-820z" />
    <glyph glyph-name="uni0429" unicode="&#x429;" horiz-adv-x="1000" 
d="M157 711q9 2 21 4q11 2 26 3.5t35 1.5q18 0 32 -1.5t25 -3.5l21 -4l-124 -582h170l124 582q9 2 21 4q11 2 26.5 3.5t35.5 1.5q18 0 32.5 -1.5t24.5 -3.5q11 -2 20 -4l-124 -582h170l124 582q9 2 21 4q11 2 26.5 3.5t35.5 1.5q18 0 32.5 -1.5t24.5 -3.5q11 -2 20 -4
l-124 -582h77l-56 -267q-17 -6 -36 -8t-39 -2t-38 2.5t-33 7.5l29 138h-751z" />
    <glyph glyph-name="uni042A" unicode="&#x42a;" horiz-adv-x="718" 
d="M489 447q54 0 94 -17.5t64 -49t31 -75.5t-4 -96q-23 -106 -97 -157.5t-183 -51.5h-292l125 586h-142q-1 7 -1 18q0 8 0.5 20.5t4.5 27.5q3 15 7 27.5t8 21.5q4 11 9 19h301l-58 -273h133zM288 125h109q45 0 74 24.5t40 74.5q20 99 -72 99h-109z" />
    <glyph glyph-name="uni042B" unicode="&#x42b;" horiz-adv-x="898" 
d="M157 711q9 2 21 4q11 2 26 3.5t35 1.5q19 0 33.5 -1.5t24.5 -3.5q11 -2 20 -4l-56 -264h132q54 0 94 -18t63 -50t29.5 -76t-6.5 -96q-26 -106 -96 -156.5t-179 -50.5h-292zM754 711l23 4q11 2 25.5 3.5t33.5 1.5t33.5 -1.5t24.5 -3.5q11 -2 20 -4l-149 -702
q-11 -3 -23 -5q-11 -2 -26 -3t-33 -1q-20 0 -34.5 1t-24.5 3q-11 2 -19 5zM193 125h109q45 0 74 24.5t40 74.5q10 49 -8.5 74t-63.5 25h-109z" />
    <glyph glyph-name="uni042C" unicode="&#x42c;" horiz-adv-x="621" 
d="M393 447q54 0 93.5 -17t62.5 -48t30 -74.5t-4 -95.5q-23 -106 -95.5 -159t-181.5 -53h-292l151 711q9 2 21 4q11 2 26 3.5t35 1.5q19 0 33.5 -1.5t24.5 -3.5q11 -2 20 -4l-56 -264h132zM302 125q45 0 74 24.5t40 74.5q10 49 -8.5 74t-63.5 25h-109l-42 -198h109z" />
    <glyph glyph-name="uni042D" unicode="&#x42d;" horiz-adv-x="591" 
d="M113 693q25 10 57 19q27 8 64.5 14t84.5 6q80 0 134.5 -28t84 -79.5t34 -124.5t-14.5 -164q-38 -182 -137.5 -265t-259.5 -83q-48 0 -85 5.5t-63 13.5q-30 9 -51 20q7 32 24.5 63.5t42.5 50.5q18 -7 40 -11q19 -5 44 -8t54 -3q34 0 65.5 8t59 29t50 57t39.5 92h-239
q-2 6 -2 16q0 8 1 19.5t4 26.5q6 28 14 44q4 9 9 15h237q5 52 -2.5 86t-26 54t-45.5 28.5t-61 8.5q-26 0 -50 -3t-43 -7q-22 -4 -41 -10q-19 20 -23.5 50t1.5 60z" />
    <glyph glyph-name="uni042E" unicode="&#x42e;" horiz-adv-x="966" 
d="M157 711l23 4q11 2 25.5 3.5t33.5 1.5t33.5 -1.5t24.5 -3.5q11 -2 20 -4l-61 -289h92q47 160 139.5 235t220.5 75q70 0 122 -22.5t82 -70t36 -120t-15 -171.5q-21 -98 -55 -166t-80.5 -111.5t-105.5 -63t-129 -19.5q-64 0 -114 18t-82 56t-44.5 96.5t-1.5 139.5h-92
l-61 -289q-11 -3 -23 -5q-11 -2 -26 -3t-33 -1q-20 0 -34.5 1t-24.5 3q-11 2 -19 5zM687 607q-31 0 -57.5 -10.5t-50 -38.5t-43 -75.5t-35.5 -122.5q-16 -74 -16.5 -122t10.5 -75.5t33.5 -38t53.5 -10.5t58 10.5t50 38t42 75.5t35 122q16 75 17 122.5t-10 75.5t-33.5 38.5
t-53.5 10.5z" />
    <glyph glyph-name="uni042F" unicode="&#x42f;" horiz-adv-x="634" 
d="M501 9q-9 -3 -21 -5q-11 -2 -26 -3t-35 -1q-19 0 -33.5 1t-24.5 3q-11 2 -20 5l55 258h-74l-189 -258q-11 -3 -24 -5q-11 -2 -27.5 -3t-37.5 -1q-22 0 -38 1t-27 3q-12 2 -21 5l211 282q-27 12 -44.5 35t-26.5 53t-9.5 64.5t7.5 69.5q45 207 275 207h281zM368 596
q-93 0 -115 -103q-11 -50 7 -76t64 -26h98l44 205h-98z" />
    </font>
</defs>
</svg>
