<?xml version="1.0" standalone="no"?>
<!DOCTYPE svg PUBLIC "-//W3C//DTD SVG 1.1//EN" "http://www.w3.org/Graphics/SVG/1.1/DTD/svg11.dtd" >
<svg>
<metadata>
Created by FontForge 20090622 at Fri Jan 29 10:54:12 2016
 By deploy user
Copyright (c) 2014 by Fontfabric LLC. All rights reserved.
</metadata>
<defs>
<font id="GloberBookItalic" horiz-adv-x="550" >
  <font-face 
    font-family="Glober Book Italic"
    font-weight="400"
    font-style="italic"
    font-stretch="normal"
    units-per-em="1000"
    panose-1="0 0 0 0 0 0 0 0 0 0"
    ascent="750"
    descent="-250"
    x-height="526"
    cap-height="720"
    bbox="-219 -250.286 1005.02 1052.17"
    underline-thickness="50"
    underline-position="-50"
    unicode-range="U+0020-U+FB02"
  />
<missing-glyph horiz-adv-x="618" 
d="M-116 0l153 720h538l-153 -720h-538zM409 505q12 55 -16.5 91.5t-104.5 36.5q-28 0 -51.5 -4t-40.5 -9q-20 -6 -36 -13q-7 -19 7 -30q13 6 30 10q14 4 34 7t45 3q59 0 78.5 -27t11.5 -68q-7 -34 -22.5 -56.5t-34.5 -39.5t-40.5 -32.5t-42 -36t-37 -50.5t-26.5 -75
q1 -1 4 -2q4 -2 11 -2t13 2q3 1 5 2q8 39 25 65t37.5 45.5t44 35.5t44 35.5t37.5 45.5t25 66zM187 129q-2 0 -6 1q-8 2 -18 2q-11 0 -19 -2q-4 -1 -7 -1l-9 -45q2 -1 6 -2t18 -1h11t8 1q4 1 7 2z" />
    <glyph glyph-name="fi" unicode="fi" horiz-adv-x="561" 
d="M168 586q8 39 23 69.5t40.5 51.5t62 32t87.5 11q36 0 67.5 -4.5t54.5 -9.5q27 -6 50 -14q-2 -24 -21 -40q-20 7 -45 12q-21 5 -49 9t-61 4q-78 0 -112 -29t-46 -87l-14 -65h284q7 0 15 -1t13 -1l-110 -520q-3 -1 -7 -2q-8 -2 -19 -2q-8 0 -12 0.5t-7 1.5q-4 1 -5 2
l102 480h-263l-102 -480q-2 -1 -6 -2q-8 -2 -20 -2q-11 0 -19 2q-4 1 -5 2l102 480h-64q-1 1 -1 5q0 2 -0.5 6.5t1.5 9.5q1 5 2.5 9t3.5 7t3 5h64l13 60v0z" />
    <glyph glyph-name="fl" unicode="fl" horiz-adv-x="563" 
d="M168 586q7 37 22 67t40 51.5t60 33.5t83 12q38 0 72 -5.5t59 -11.5q29 -8 54 -17l-151 -712q-3 -1 -7 -2q-8 -2 -19 -2q-8 0 -12 0.5t-7 1.5q-4 1 -5 2l145 682q-20 7 -54 14t-79 7q-73 0 -106 -30.5t-44 -85.5l-14 -65h124q0 -2 0.5 -7t-1.5 -14q-2 -8 -4.5 -13.5
t-3.5 -7.5h-124l-102 -480q-2 -1 -6 -2q-8 -2 -20 -2q-11 0 -19 2q-4 1 -5 2l102 480h-64q-1 2 -1.5 7t1.5 14t4.5 14t4.5 7h64l13 60v0z" />
    <glyph glyph-name=".notdef" horiz-adv-x="618" 
d="M-116 0l153 720h538l-153 -720h-538zM409 505q12 55 -16.5 91.5t-104.5 36.5q-28 0 -51.5 -4t-40.5 -9q-20 -6 -36 -13q-7 -19 7 -30q13 6 30 10q14 4 34 7t45 3q59 0 78.5 -27t11.5 -68q-7 -34 -22.5 -56.5t-34.5 -39.5t-40.5 -32.5t-42 -36t-37 -50.5t-26.5 -75
q1 -1 4 -2q4 -2 11 -2t13 2q3 1 5 2q8 39 25 65t37.5 45.5t44 35.5t44 35.5t37.5 45.5t25 66zM187 129q-2 0 -6 1q-8 2 -18 2q-11 0 -19 -2q-4 -1 -7 -1l-9 -45q2 -1 6 -2t18 -1h11t8 1q4 1 7 2z" />
    <glyph glyph-name="A" unicode="A" horiz-adv-x="640" 
d="M381 716q3 1 7 2t8.5 1.5t11.5 0.5q11 0 19 -2q4 -1 6 -2l124 -712q-3 -1 -7 -2q-10 -2 -22 -2q-9 0 -17 2q-4 1 -6 2l-36 204h-337l-123 -204q-3 -1 -7 -2q-10 -2 -24 -2q-7 0 -11 0.5t-7 1.5q-4 1 -5 2zM395 653l-7 -14q-4 -7 -9 -17l-11 -21l-210 -347h304l-60 347
q-2 12 -2.5 21.5t-1.5 16.5q-1 8 -1 14h-2z" />
    <glyph glyph-name="AE" unicode="&#xc6;" horiz-adv-x="851" 
d="M878 720q3 -10 0 -23t-10 -23h-286l-61 -286h236q2 -11 -0.5 -23.5t-8.5 -22.5h-236l-63 -296h296q2 -11 -0.5 -23.5t-9.5 -22.5h-344l42 198h-267l-158 -194q-7 -2 -15 -3t-16 -1t-15.5 1t-12.5 3l585 716h344zM443 244l84 398l-324 -398h240z" />
    <glyph glyph-name="AEacute" unicode="&#x1fc;" horiz-adv-x="852" 
d="M679 757q-23 3 -29 19l142 148q15 1 26 -5.5t16 -17.5zM8 4q-7 -2 -15.5 -3t-16.5 -1t-15.5 1t-11.5 3l585 716h344q2 -10 -0.5 -23t-9.5 -23h-287l-61 -286h237q2 -11 -0.5 -23.5t-8.5 -22.5h-237l-63 -296h297q5 -23 -10 -46h-344l42 198h-268zM203 244h240l84 398z
" />
    <glyph glyph-name="Aacute" unicode="&#xc1;" horiz-adv-x="640" 
d="M516 923q14 1 25.5 -5.5t16.5 -17.5l-155 -144q-23 3 -29 19zM381 716q3 1 7 2t8.5 1.5t11.5 0.5q11 0 19 -2q4 -1 6 -2l124 -712q-3 -1 -7 -2q-10 -2 -22 -2q-7 0 -11 0.5t-7 1.5q-4 1 -5 2l-36 204h-337l-123 -204l-8 -2q-10 -2 -23 -2q-7 0 -11 0.5t-7 1.5q-4 1 -5 2z
M395 653l-7 -14q-4 -7 -9 -17l-11 -21l-210 -347h304l-60 347q-2 12 -2.5 21.5t-1.5 16.5q-1 8 -1 14h-2z" />
    <glyph glyph-name="Abreve" unicode="&#x102;" horiz-adv-x="640" 
d="M427 826q26 0 48 5.5t39 13.5q19 9 35 20q19 -6 19 -26q0 -3 -10 -11.5t-29.5 -17.5t-47 -16.5t-61.5 -7.5q-35 0 -59.5 8t-40.5 19q-18 11 -30 27q11 18 31 25q11 -11 27 -20q14 -8 33.5 -13.5t45.5 -5.5zM381 716q3 1 7 2t8.5 1.5t11.5 0.5q11 0 19 -2q4 -1 6 -2
l124 -712q-3 -1 -7 -2q-10 -2 -22 -2q-7 0 -11 0.5t-7 1.5q-4 1 -5 2l-36 204h-337l-123 -204l-8 -2q-10 -2 -23 -2q-7 0 -11 0.5t-7 1.5q-4 1 -5 2zM395 653l-7 -14q-4 -7 -9 -17l-11 -21l-210 -347h304l-60 347q-2 12 -2.5 21.5t-1.5 16.5q-1 8 -1 14h-2z" />
    <glyph glyph-name="Acircumflex" unicode="&#xc2;" horiz-adv-x="640" 
d="M563 795q-5 -10 -12.5 -17t-17.5 -9l-96 84l-132 -87q-9 4 -15.5 11t-7.5 18l150 104h26zM381 716q3 1 7 2t8.5 1.5t11.5 0.5q11 0 19 -2q4 -1 6 -2l124 -712q-3 -1 -7 -2q-10 -2 -22 -2q-9 0 -17 2q-4 1 -6 2l-36 204h-337l-123 -204q-3 -1 -7 -2q-10 -2 -24 -2
q-7 0 -11 0.5t-7 1.5q-4 1 -5 2zM395 653l-7 -14q-4 -7 -9 -17l-11 -21l-210 -347h304l-60 347q-2 12 -2.5 21.5t-1.5 16.5q-1 8 -1 14h-2z" />
    <glyph glyph-name="Adieresis" unicode="&#xc4;" horiz-adv-x="640" 
d="M327 831q3 0 7 1t9.5 1.5t13.5 0.5q12 0 22 -2q4 -1 7 -1l-12 -53l-8 -2q-10 -2 -22 -2q-8 0 -13 0.5t-9 1.5t-7 2zM475 831q3 0 7 1q10 2 23 2q8 0 13 -0.5t9 -1.5t8 -1l-12 -53l-8 -2q-10 -2 -23 -2q-8 0 -13 0.5t-9 1.5t-7 2zM381 716q3 1 7 2t8.5 1.5t11.5 0.5
q11 0 19 -2q4 -1 6 -2l124 -712q-3 -1 -7 -2q-10 -2 -22 -2q-9 0 -17 2q-4 1 -6 2l-36 204h-337l-123 -204q-3 -1 -7 -2q-10 -2 -24 -2q-7 0 -11 0.5t-7 1.5q-4 1 -5 2zM395 653l-7 -14q-4 -7 -9 -17l-11 -21l-210 -347h304l-60 347q-2 12 -2.5 21.5t-1.5 16.5q-1 8 -1 14
h-2z" />
    <glyph glyph-name="Agrave" unicode="&#xc0;" horiz-adv-x="640" 
d="M472 774q-13 -16 -37 -19l-94 144q8 10 23 17t29 6zM381 716q3 1 7 2t8.5 1.5t11.5 0.5q11 0 19 -2q4 -1 6 -2l124 -712q-3 -1 -7 -2q-10 -2 -22 -2q-9 0 -17 2q-4 1 -6 2l-36 204h-337l-123 -204q-3 -1 -7 -2q-10 -2 -24 -2q-7 0 -11 0.5t-7 1.5q-4 1 -5 2zM395 653
l-7 -14q-4 -7 -9 -17l-11 -21l-210 -347h304l-60 347q-2 12 -2.5 21.5t-1.5 16.5q-1 8 -1 14h-2z" />
    <glyph glyph-name="Amacron" unicode="&#x100;" horiz-adv-x="640" 
d="M565 832q2 -8 -0.5 -19.5t-8.5 -20.5h-275q-2 9 0 20t9 20h275zM381 716q3 1 7 2t8.5 1.5t11.5 0.5q11 0 19 -2q4 -1 6 -2l124 -712q-3 -1 -7 -2q-10 -2 -22 -2q-9 0 -17 2q-4 1 -6 2l-36 204h-337l-123 -204q-3 -1 -7 -2q-10 -2 -24 -2q-7 0 -11 0.5t-7 1.5q-4 1 -5 2z
M395 653l-7 -14q-4 -7 -9 -17l-11 -21l-210 -347h304l-60 347q-2 12 -2.5 21.5t-1.5 16.5q-1 8 -1 14h-2z" />
    <glyph glyph-name="Aogonek" unicode="&#x104;" horiz-adv-x="639" 
d="M381 716q3 1 7 2t8.5 1.5t11.5 0.5q11 0 19 -2q4 -1 6 -2l124 -712q-28 -15 -57.5 -36t-52.5 -45t-37 -49t-12 -47q2 -20 14 -27.5t29 -8.5q14 0 27.5 4t30.5 11q5 -5 8.5 -16t1.5 -19q-15 -9 -37 -15t-45 -6q-28 0 -50.5 12.5t-27.5 44.5q-3 28 9.5 56.5t35 55.5
t51.5 49.5t59 38.5l-35 201h-337l-123 -204q-3 -1 -7 -2q-10 -2 -24 -2q-7 0 -11 0.5t-7 1.5q-4 1 -5 2zM395 653l-7 -14q-4 -7 -9 -17l-11 -21l-210 -347h304l-60 347q-2 12 -2.5 21.5t-1.5 16.5q-1 8 -1 14h-2z" />
    <glyph glyph-name="Aring" unicode="&#xc5;" horiz-adv-x="640" 
d="M557 4q-3 -1 -7 -2q-10 -2 -22 -2q-7 0 -11 0.5t-7 1.5q-4 1 -5 2l-36 204h-337l-123 -204q-3 -1 -7 -2q-10 -2 -24 -2q-7 0 -11 0.5t-7 1.5q-4 1 -5 2l414 691q-34 8 -51.5 33.5t-8.5 67.5q6 26 20 45.5t32.5 33t40.5 20.5t44 7q21 0 40.5 -6.5t33 -20t19.5 -33.5t0 -46
q-9 -42 -37.5 -67t-64.5 -33zM500 796q6 28 -9 49.5t-54 21.5q-38 0 -60.5 -22t-28.5 -49q-5 -27 7.5 -49.5t51.5 -22.5q19 0 35 6.5t28 16.5t19.5 23t10.5 26zM402 601q-2 12 -2.5 21.5t-1.5 16.5q-1 8 -1 14h-2l-7 -14q-4 -7 -9 -17l-11 -21l-210 -347h304z" />
    <glyph glyph-name="Aringacute" unicode="&#x1fa;" horiz-adv-x="640" 
d="M451 929q-19 1 -27 13l127 110q14 1 24.5 -4t15.5 -13zM557 4q-3 -1 -7 -2q-10 -2 -22 -2q-9 0 -17 2q-4 1 -6 2l-36 204h-337l-123 -204l-8 -2q-10 -2 -23 -2q-7 0 -11 0.5t-7 1.5q-4 1 -5 2l413 691q-13 3 -25.5 11t-21.5 21t-13.5 30.5t0.5 38.5q6 26 20 45.5t32.5 33
t41 20.5t44.5 7q21 0 40.5 -6.5t32.5 -20t19 -33.5t0 -46q-8 -41 -37 -66.5t-64 -33.5zM499 796q6 28 -9 49.5t-53 21.5t-61 -22t-29 -49q-5 -27 8.5 -49.5t51.5 -22.5q19 0 35 6.5t27.5 16.5t19 23t10.5 26zM402 601q-2 12 -2.5 21.5t-1.5 16.5q-1 8 -1 14h-2l-7 -14
q-4 -7 -9 -17l-11 -21l-210 -347h304z" />
    <glyph glyph-name="Atilde" unicode="&#xc3;" horiz-adv-x="640" 
d="M298 800q6 14 17 25q9 10 23 17.5t34 8.5q19 0 33.5 -5.5t27 -12.5t24.5 -12.5t27 -5.5q11 0 19 4.5t14 9.5q7 6 12 14q22 0 29 -17q-7 -13 -18 -24q-9 -9 -23.5 -17t-34.5 -8q-19 0 -33 5.5t-26.5 12t-24.5 12t-27 5.5q-11 0 -19.5 -5t-14.5 -10q-7 -6 -12 -14
q-11 0 -18 4.5t-9 12.5zM381 716q3 1 7 2t8.5 1.5t11.5 0.5q11 0 19 -2q4 -1 6 -2l124 -712q-3 -1 -7 -2q-10 -2 -22 -2q-9 0 -17 2q-4 1 -6 2l-36 204h-337l-123 -204l-8 -2q-10 -2 -23 -2q-7 0 -11 0.5t-7 1.5q-4 1 -5 2zM395 653l-7 -14q-4 -7 -9 -17l-11 -21l-210 -347
h304l-60 347q-2 12 -2.5 21.5t-1.5 16.5q-1 8 -1 14h-2z" />
    <glyph glyph-name="B" unicode="B" horiz-adv-x="629" 
d="M434 720q54 0 87.5 -16.5t51 -43.5t20 -62.5t-5.5 -73.5q-9 -45 -27.5 -74t-38 -46.5t-36 -26t-23.5 -11.5q4 -2 20.5 -11t32.5 -29t25 -54t-2 -86q-9 -43 -27.5 -77.5t-48.5 -58.5t-73.5 -37t-103.5 -13h-246l153 720h242zM353 386q82 0 124.5 40t56.5 105q7 33 5 59.5
t-16 45t-41 29t-70 10.5h-178l-61 -289h180zM289 45q91 0 135.5 39t59.5 109q17 77 -15 113t-118 36h-187l-63 -297h188z" />
    <glyph glyph-name="C" unicode="C" horiz-adv-x="553" 
d="M83 369q40 185 124.5 273t221.5 88q41 0 71 -5.5t50 -11.5q23 -7 39 -16q-6 -22 -25 -40q-16 7 -37 13q-18 5 -43.5 9.5t-57.5 4.5q-50 0 -94 -15.5t-81 -53t-66.5 -100t-49.5 -156.5t-17 -156t24 -99t59 -52t88 -15q35 0 64.5 4t50.5 9q25 6 45 14q11 -16 8 -41
q-21 -10 -48 -17q-24 -6 -58 -11t-79 -5q-136 0 -182 95.5t-7 283.5z" />
    <glyph glyph-name="nonmarkingreturn" horiz-adv-x="322" 
 />
    <glyph glyph-name="Cacute" unicode="&#x106;" horiz-adv-x="553" 
d="M394 760q-23 6 -27 22l151 140q31 -2 39 -27zM83 369q40 185 124.5 273t221.5 88q41 0 71 -5.5t50 -11.5q23 -7 39 -16q-6 -22 -25 -40q-16 7 -37 13q-18 5 -43.5 9.5t-57.5 4.5q-50 0 -94 -15.5t-81 -53t-66.5 -100t-49.5 -156.5t-17 -156t24 -99t59 -52t88 -15
q35 0 64.5 4t50.5 9q25 6 45 14q11 -16 8 -41q-21 -10 -48 -17q-24 -6 -58 -11t-79 -5q-136 0 -182 95.5t-7 283.5z" />
    <glyph glyph-name="Ccaron" unicode="&#x10c;" horiz-adv-x="553" 
d="M316 871q5 11 10.5 17.5t16.5 10.5l99 -86l133 85q8 -2 14.5 -9.5t7.5 -17.5l-149 -104h-26zM83 369q40 185 124.5 273t221.5 88q41 0 71 -5.5t50 -11.5q23 -7 39 -16q-6 -22 -25 -40q-16 7 -37 13q-18 5 -43.5 9.5t-57.5 4.5q-50 0 -94 -15.5t-81 -53t-66.5 -100
t-49.5 -156.5t-17 -156t24 -99t59 -52t88 -15q35 0 64.5 4t50.5 9q25 6 45 14q11 -16 8 -41q-21 -10 -48 -17q-24 -6 -58 -11t-79 -5q-136 0 -182 95.5t-7 283.5z" />
    <glyph glyph-name="Ccedilla" unicode="&#xc7;" horiz-adv-x="552" 
d="M455 47q2 -11 0 -17q-1 -4 -2 -7q-21 -10 -48 -17q-23 -6 -57 -11t-78 -5l-30 -57q59 0 79 -23t11 -65q-10 -49 -44 -72t-91 -23q-20 0 -35 3t-26 8q-12 5 -22 12q6 18 20 28q2 -1 21 -9t49 -8q35 0 57.5 13.5t29.5 46.5q12 56 -57 56h-32l-6 10l44 82
q-117 11 -155.5 107t-1.5 272q40 184 124 271.5t220 87.5q41 0 71 -5.5t50 -11.5q23 -7 39 -16q0 -2 -1 -6q-2 -6 -6 -15q-3 -5 -6.5 -9t-5.5 -6q-4 -3 -6 -4q-16 7 -37 13q-18 5 -43.5 9.5t-57.5 4.5q-50 0 -94 -15.5t-81 -53t-66.5 -100t-49.5 -156.5t-17 -156t24 -99
t59 -52t88 -15q35 0 64.5 4t50.5 9q25 6 45 14q2 -1 4 -4q3 -5 6 -13z" />
    <glyph glyph-name="Ccircumflex" unicode="&#x108;" horiz-adv-x="553" 
d="M586 778q-5 -9 -12 -16t-16 -9l-97 84l-132 -86q-9 4 -15.5 10.5t-8.5 16.5l151 105h26zM83 369q40 185 124.5 273t221.5 88q41 0 71 -5.5t50 -11.5q23 -7 39 -16q-6 -22 -25 -40q-16 7 -37 13q-18 5 -43.5 9.5t-57.5 4.5q-50 0 -94 -15.5t-81 -53t-66.5 -100
t-49.5 -156.5t-17 -156t24 -99t59 -52t88 -15q35 0 64.5 4t50.5 9q25 6 45 14q11 -16 8 -41q-21 -10 -48 -17q-24 -6 -58 -11t-79 -5q-136 0 -182 95.5t-7 283.5z" />
    <glyph glyph-name="Cdotaccent" unicode="&#x10a;" horiz-adv-x="553" 
d="M473 791q-5 -1 -9 -2q-5 -1 -10 -1.5t-13 -0.5t-13 0.5t-9 1.5t-7 2l12 54q3 1 7 2t9.5 1.5t13.5 0.5q13 0 23 -2l8 -2zM83 369q40 185 124.5 273t221.5 88q41 0 71 -5.5t50 -11.5q23 -7 39 -16q-6 -22 -25 -40q-16 7 -37 13q-18 5 -43.5 9.5t-57.5 4.5q-50 0 -94 -15.5
t-81 -53t-66.5 -100t-49.5 -156.5t-17 -156t24 -99t59 -52t88 -15q35 0 64.5 4t50.5 9q25 6 45 14q11 -16 8 -41q-21 -10 -48 -17q-24 -6 -58 -11t-79 -5q-136 0 -182 95.5t-7 283.5z" />
    <glyph glyph-name="D" unicode="D" horiz-adv-x="662" 
d="M384 720q71 0 122 -19t79.5 -62.5t33 -114.5t-17.5 -174t-54 -170.5t-75.5 -107.5t-100.5 -56t-128 -16h-204l153 720h192zM242 46q57 0 104.5 14t85 49t66 96t48.5 155t17.5 155t-25.5 96.5t-64.5 49t-98.5 13.5h-141l-133 -628h141z" />
    <glyph glyph-name="Dcaron" unicode="&#x10e;" horiz-adv-x="662" 
d="M270 871q5 11 10.5 16.5t16.5 9.5l97 -86l135 85q8 -2 14.5 -8.5t7.5 -16.5l-149 -104h-26zM384 720q71 0 122 -19t79.5 -62.5t33 -114.5t-17.5 -174t-54 -170.5t-75.5 -107.5t-100.5 -56t-128 -16h-204l153 720h192zM242 46q57 0 104.5 14t85 49t66 96t48.5 155
t17.5 155t-25.5 96.5t-64.5 49t-98.5 13.5h-141l-133 -628h141z" />
    <glyph glyph-name="Dcroat" unicode="&#x110;" horiz-adv-x="668" 
d="M390 720q71 0 122 -19t79.5 -62.5t33 -114.5t-17.5 -174t-54 -170.5t-75.5 -107.5t-100.5 -56t-128 -16h-204l72 337h-85q-1 10 1.5 20.5t6.5 19.5h85l73 343h192zM248 46q57 0 104.5 14t85 49t66 96t48.5 155t17.5 155t-25.5 96.5t-64.5 49t-98.5 13.5h-141l-63 -297
h146q1 -9 -1.5 -20t-6.5 -20h-146l-62 -291h141z" />
    <glyph glyph-name="Delta" unicode="&#x2206;" horiz-adv-x="641" 
d="M386 716q3 1 10 2.5t18 1.5t17 -1.5t9 -2.5l117 -685q-11 -20 -27 -31h-544q-13 13 -12 31zM398 657q-3 -5 -14.5 -28.5t-34.5 -61.5l-315 -521h467l-91 522q-8 35 -9 59.5t-1 29.5h-2z" />
    <glyph glyph-name="E" unicode="E" horiz-adv-x="556" 
d="M583 720q2 -10 -1 -22l-3.5 -13.5t-5.5 -10.5h-339l-61 -286h289q1 -10 0 -22q-3 -12 -9 -23h-289l-63 -297h349q0 -5 0.5 -10.5t-1.5 -11.5q-3 -14 -9 -24h-401l153 720h391z" />
    <glyph glyph-name="Eacute" unicode="&#xc9;" horiz-adv-x="556" 
d="M351 757q-23 3 -29 19l142 148q15 1 26 -5.5t16 -17.5zM583 720q2 -10 -1 -22l-3.5 -13.5t-5.5 -10.5h-339l-61 -286h289q1 -10 0 -22q-3 -12 -9 -23h-289l-63 -297h349q0 -5 0.5 -10.5t-1.5 -11.5q-3 -14 -9 -24h-401l153 720h391z" />
    <glyph glyph-name="Ebreve" unicode="&#x114;" horiz-adv-x="556" 
d="M552 847q-18 -16 -41 -27q-20 -10 -47.5 -18t-62.5 -8t-59 8t-40 18q-18 11 -30 27q11 20 32 27q11 -11 27 -20q14 -8 33 -13.5t45 -5.5t48 5.5t39 13.5q19 9 36 20q18 -6 20 -27zM583 720q2 -10 -1 -22l-3.5 -13.5t-5.5 -10.5h-339l-61 -286h289q1 -10 0 -22
q-3 -12 -9 -23h-289l-63 -297h349q0 -5 0.5 -10.5t-1.5 -11.5q-3 -14 -9 -24h-401l153 720h391z" />
    <glyph glyph-name="Ecaron" unicode="&#x11a;" horiz-adv-x="556" 
d="M266 871q5 11 10.5 17.5t16.5 10.5l99 -86l133 85q8 -2 14.5 -9.5t7.5 -17.5l-149 -104h-26zM583 720q2 -10 -1 -22l-3.5 -13.5t-5.5 -10.5h-339l-61 -286h289q1 -10 0 -22q-3 -12 -9 -23h-289l-63 -297h349q0 -5 0.5 -10.5t-1.5 -11.5q-3 -14 -9 -24h-401l153 720h391z
" />
    <glyph glyph-name="Ecircumflex" unicode="&#xca;" horiz-adv-x="556" 
d="M540 795q-5 -10 -12.5 -17.5t-17.5 -9.5l-99 85l-133 -86q-18 7 -19 28l150 104h26zM583 720q2 -10 -1 -22l-3.5 -13.5t-5.5 -10.5h-339l-61 -286h289q1 -10 0 -22q-3 -12 -9 -23h-289l-63 -297h349q0 -5 0.5 -10.5t-1.5 -11.5q-3 -14 -9 -24h-401l153 720h391z" />
    <glyph glyph-name="Edieresis" unicode="&#xcb;" horiz-adv-x="556" 
d="M358 770l-8 -2q-10 -2 -22 -2q-8 0 -13 0.5t-9 1.5t-7 2l11 53q4 0 8 1q10 2 23 2q11 0 21 -2q4 -1 7 -1zM507 770l-8 -2q-10 -2 -23 -2q-14 0 -22 2q-4 1 -6 2l11 53q3 0 7 1q10 2 23 2q8 0 13 -0.5t9 -1.5t7 -1zM583 720q2 -10 -1 -22l-3.5 -13.5t-5.5 -10.5h-339
l-61 -286h289q1 -10 0 -22q-3 -12 -9 -23h-289l-63 -297h349q0 -5 0.5 -10.5t-1.5 -11.5q-3 -14 -9 -24h-401l153 720h391z" />
    <glyph glyph-name="Edotaccent" unicode="&#x116;" horiz-adv-x="556" 
d="M435 788l-8 -2q-10 -2 -23 -2q-8 0 -13.5 0.5t-9.5 1.5t-7 2l12 54l8 2t9.5 1.5t13.5 0.5t13 -0.5t9 -1.5l8 -2zM583 720q2 -10 -1 -22l-3.5 -13.5t-5.5 -10.5h-339l-61 -286h289q1 -10 0 -22q-3 -12 -9 -23h-289l-63 -297h349q0 -5 0.5 -10.5t-1.5 -11.5q-3 -14 -9 -24
h-401l153 720h391z" />
    <glyph glyph-name="Egrave" unicode="&#xc8;" horiz-adv-x="556" 
d="M311 899q8 10 23 17t29 6l79 -148q-13 -16 -37 -19zM583 720q2 -10 -1 -22l-3.5 -13.5t-5.5 -10.5h-339l-61 -286h289q1 -10 0 -22q-3 -12 -9 -23h-289l-63 -297h349q0 -5 0.5 -10.5t-1.5 -11.5q-3 -14 -9 -24h-401l153 720h391z" />
    <glyph glyph-name="Emacron" unicode="&#x112;" horiz-adv-x="556" 
d="M264 792q-1 9 1.5 20t7.5 20h275q2 -8 -1 -19.5t-8 -20.5h-275zM583 720q2 -10 -1 -22l-3.5 -13.5t-5.5 -10.5h-339l-61 -286h289q1 -10 0 -22q-3 -12 -9 -23h-289l-63 -297h349q0 -5 0.5 -10.5t-1.5 -11.5q-3 -14 -9 -24h-401l153 720h391z" />
    <glyph glyph-name="Eng" unicode="&#x14a;" horiz-adv-x="697" 
d="M631 716q3 1 7 2q8 2 20 2q10 0 18 -2q4 -1 5 -2l-163 -768q-7 -34 -17.5 -62t-27.5 -49.5t-42 -37.5t-61 -27q-8 6 -10 16.5t3 22.5q45 14 67.5 44t35.5 91l12 56q-2 0 -4 0.5t-3 0.5q-2 0 -2 1l-243 648h-2q-2 -14 -6 -34l-7.5 -43.5t-12.5 -62.5l-108 -508
q-3 -1 -7 -2t-8.5 -1.5t-11.5 -0.5t-11 0.5t-7 1.5q-4 1 -5 2l151 712q3 1 8 2q10 2 24 2q8 0 13 -0.5t9 -1.5t7 -2l245 -640h2q1 15 5 34l7 40t11 52l109 514v0z" />
    <glyph glyph-name="Eogonek" unicode="&#x118;" horiz-adv-x="556" 
d="M39 0l153 720h391q2 -10 -1 -22l-3.5 -13.5t-5.5 -10.5h-339l-61 -286h289q1 -10 0 -22q-3 -12 -9 -23h-289l-63 -297h349q0 -5 0.5 -10.5t-1.5 -11.5q-3 -14 -9 -24q-28 -15 -57 -35.5t-51.5 -44t-36 -47.5t-11.5 -46q2 -20 14 -27.5t29 -8.5q14 0 27.5 4t30.5 11
q5 -5 8.5 -16t1.5 -19q-15 -9 -37 -15t-45 -6q-28 0 -50.5 12.5t-27.5 44.5q-3 28 8.5 55t32.5 52t48.5 47t56.5 39h-342z" />
    <glyph glyph-name="Eth" unicode="&#xd0;" horiz-adv-x="668" 
d="M390 720q71 0 122 -19t79.5 -62.5t33 -114.5t-17.5 -174t-54 -170.5t-75.5 -107.5t-100.5 -56t-128 -16h-204l72 337h-85q-1 10 1.5 20.5t6.5 19.5h85l73 343h192zM248 46q57 0 104.5 14t85 49t66 96t48.5 155t17.5 155t-25.5 96.5t-64.5 49t-98.5 13.5h-141l-63 -297
h146q1 -9 -1.5 -20t-6.5 -20h-146l-62 -291h141z" />
    <glyph glyph-name="Euro" unicode="&#x20ac;" horiz-adv-x="581" 
d="M164 435q42 122 113 183.5t174 61.5q38 0 64.5 -5t43.5 -11q20 -7 33 -15q-6 -22 -24 -36q-13 7 -31 12q-15 5 -37.5 8.5t-50.5 3.5q-38 0 -71.5 -10t-62.5 -33.5t-54 -62.5t-45 -96h270q0 -9 -3.5 -19.5t-11.5 -18.5h-268q-4 -15 -7 -30.5t-7 -32.5q-7 -30 -12 -59h234
q0 -8 -3.5 -18.5t-10.5 -18.5h-223q-6 -59 2 -98t27.5 -62.5t49.5 -33.5t68 -10q31 0 56 3.5t44 8.5q21 5 39 12q6 -7 8 -16.5t0 -20.5q-17 -9 -42 -16q-21 -6 -51.5 -10.5t-69.5 -4.5q-205 0 -183 248h-82q0 9 4 19t9 18h73l11 60q4 16 7 30.5t8 31.5h-79q1 9 5 19.5
t9 18.5h77v0z" />
    <glyph glyph-name="F" unicode="F" horiz-adv-x="538" 
d="M92 4q-3 -1 -7 -2t-8.5 -1.5t-11.5 -0.5q-11 0 -19 2q-4 1 -6 2l152 716h389q0 -2 0.5 -7.5t-1.5 -15.5q-2 -9 -4.5 -15t-4.5 -8h-337l-63 -296h293q1 -2 1.5 -7.5t-1.5 -14.5t-5 -15l-4 -8h-293z" />
    <glyph glyph-name="G" unicode="G" horiz-adv-x="620" 
d="M83 373q40 184 130.5 270.5t226.5 86.5q43 0 75.5 -5.5t55.5 -11.5q26 -7 45 -16q-4 -11 -10.5 -21t-14.5 -18q-20 7 -44 13q-21 5 -49 9t-61 4q-50 0 -96 -15.5t-85 -53t-70.5 -100t-51.5 -156.5t-15.5 -156t28 -99t63.5 -52t90 -15q46 0 83 6t56 10l60 282h-180
q-1 2 -1 6v7.5t2 9.5q1 6 2.5 10t3.5 7l3 6h231l-76 -358q-25 -10 -56 -17q-26 -6 -63 -11t-82 -5q-136 0 -187.5 97.5t-12.5 285.5z" />
    <glyph glyph-name="Gbreve" unicode="&#x11e;" horiz-adv-x="620" 
d="M605 839q-18 -16 -41 -27q-20 -11 -47 -19t-62 -8t-59 8t-40 19q-18 11 -30 27q11 19 31 26q12 -11 28 -20q14 -8 33.5 -13.5t45.5 -5.5t48 5.5t39 13.5q19 9 35 20q19 -6 19 -26zM83 373q40 184 130.5 270.5t226.5 86.5q43 0 75.5 -5.5t55.5 -11.5q26 -7 45 -16
q-4 -11 -10.5 -21t-14.5 -18q-20 7 -44 13q-21 5 -49 9t-61 4q-50 0 -96 -15.5t-85 -53t-70.5 -100t-51.5 -156.5t-15.5 -156t28 -99t63.5 -52t90 -15q46 0 83 6t56 10l60 282h-180q-1 2 -1 6v7.5t2 9.5q1 6 2.5 10t3.5 7l3 6h231l-76 -358q-25 -10 -56 -17q-26 -6 -63 -11
t-82 -5q-136 0 -187.5 97.5t-12.5 285.5z" />
    <glyph glyph-name="Gcircumflex" unicode="&#x11c;" horiz-adv-x="620" 
d="M608 795q-5 -10 -11 -17.5t-16 -9.5l-99 85l-133 -86q-9 4 -15 10.5t-7 17.5l150 104h26zM83 373q40 184 130.5 270.5t226.5 86.5q43 0 75.5 -5.5t55.5 -11.5q26 -7 45 -16q-4 -11 -10.5 -21t-14.5 -18q-20 7 -44 13q-21 5 -49 9t-61 4q-50 0 -96 -15.5t-85 -53
t-70.5 -100t-51.5 -156.5t-15.5 -156t28 -99t63.5 -52t90 -15q46 0 83 6t56 10l60 282h-180q-1 2 -1 6v7.5t2 9.5q1 6 2.5 10t3.5 7l3 6h231l-76 -358q-25 -10 -56 -17q-26 -6 -63 -11t-82 -5q-136 0 -187.5 97.5t-12.5 285.5z" />
    <glyph glyph-name="Gcommaaccent" unicode="&#x122;" horiz-adv-x="620" 
d="M83 373q40 184 130.5 270.5t226.5 86.5q43 0 75.5 -5.5t55.5 -11.5q26 -7 45 -16q-4 -11 -10.5 -21t-14.5 -18q-20 7 -44 13q-21 5 -49 9t-61 4q-50 0 -96 -15.5t-85 -53t-70.5 -100t-51.5 -156.5t-15.5 -156t28 -99t63.5 -52t90 -15q46 0 83 6t56 10l60 282h-180
q-1 2 -1 6v7.5t2 9.5q1 6 2.5 10t3.5 7l3 6h231l-76 -358q-25 -10 -56 -17q-26 -6 -63 -11t-82 -5q-136 0 -187.5 97.5t-12.5 285.5zM199 -205q1 1 7 6.5t14.5 16t17 25t14.5 34.5q-6 0 -10 0.5t-7 1.5q-4 1 -5 2l11 52q4 1 9 2t11.5 1.5t14.5 0.5q14 0 24 -2l8 -2l-8 -38
q-6 -29 -19.5 -50t-27.5 -35q-16 -17 -34 -29z" />
    <glyph glyph-name="Gdotaccent" unicode="&#x120;" horiz-adv-x="620" 
d="M484 788l-8 -2t-9 -1.5t-13 -0.5t-13.5 0.5t-9.5 1.5l-8 2l12 54l8 2q10 2 24 2q8 0 13 -0.5t9 -1.5t7 -2zM83 373q40 184 130.5 270.5t226.5 86.5q43 0 75.5 -5.5t55.5 -11.5q26 -7 45 -16q-4 -11 -10.5 -21t-14.5 -18q-20 7 -44 13q-21 5 -49 9t-61 4q-50 0 -96 -15.5
t-85 -53t-70.5 -100t-51.5 -156.5t-15.5 -156t28 -99t63.5 -52t90 -15q46 0 83 6t56 10l60 282h-180q-1 2 -1 6v7.5t2 9.5q1 6 2.5 10t3.5 7l3 6h231l-76 -358q-25 -10 -56 -17q-26 -6 -63 -11t-82 -5q-136 0 -187.5 97.5t-12.5 285.5z" />
    <glyph glyph-name="H" unicode="H" horiz-adv-x="679" 
d="M611 716q3 1 7 2t8.5 1.5t11.5 0.5q11 0 19 -2q4 -1 6 -2l-151 -712q-3 -1 -7 -2t-8.5 -1.5t-11.5 -0.5q-8 0 -12.5 0.5t-7.5 1.5q-4 1 -5 2l72 341h-368l-72 -341q-3 -1 -7 -2q-10 -2 -20 -2q-8 0 -12.5 0.5t-7.5 1.5q-4 1 -5 2l151 712q3 1 7 2t8.5 1.5t11.5 0.5
q11 0 19 -2q4 -1 6 -2l-69 -323h368z" />
    <glyph glyph-name="Hbar" unicode="&#x126;" horiz-adv-x="688" 
d="M718 592q2 -8 -0.5 -19t-7.5 -18h-75l-117 -551q-3 -1 -7 -2t-8.5 -1.5t-11.5 -0.5q-8 0 -12.5 0.5t-7.5 1.5q-4 1 -5 2l72 341h-368l-72 -341q-3 -1 -7 -2q-10 -2 -20 -2q-8 0 -12.5 0.5t-7.5 1.5q-4 1 -5 2l117 551h-65q-2 9 0.5 19t7.5 18h65l26 124q3 1 7 2t8.5 1.5
t11.5 0.5q11 0 19 -2q4 -1 6 -2l-26 -124h368l26 124q3 1 7 2t8.5 1.5t11.5 0.5q11 0 19 -2q4 -1 6 -2l-26 -124h75zM180 393h368l35 162h-368z" />
    <glyph glyph-name="Hcircumflex" unicode="&#x124;" horiz-adv-x="679" 
d="M591 795q-5 -10 -12.5 -17.5t-17.5 -9.5l-94 85l-138 -86q-18 7 -19 28l150 104h26zM611 716q3 1 7 2t8.5 1.5t11.5 0.5q11 0 19 -2q4 -1 6 -2l-151 -712q-3 -1 -7 -2t-8.5 -1.5t-11.5 -0.5q-8 0 -12.5 0.5t-7.5 1.5q-4 1 -5 2l72 341h-368l-72 -341q-3 -1 -7 -2
q-10 -2 -20 -2q-8 0 -12.5 0.5t-7.5 1.5q-4 1 -5 2l151 712q3 1 7 2t8.5 1.5t11.5 0.5q11 0 19 -2q4 -1 6 -2l-69 -323h368z" />
    <glyph glyph-name="I" unicode="I" horiz-adv-x="259" 
d="M191 716q3 1 7 2q8 2 20 2q11 0 19 -2q4 -1 6 -2l-151 -712q-3 -1 -7 -2t-8.5 -1.5t-11.5 -0.5q-8 0 -12.5 0.5t-7.5 1.5q-4 1 -5 2z" />
    <glyph glyph-name="IJ" unicode="&#x132;" horiz-adv-x="641" 
d="M191 716q3 1 7 2q8 2 20 2q11 0 19 -2q4 -1 6 -2l-151 -712q-3 -1 -7 -2t-8.5 -1.5t-11.5 -0.5q-8 0 -12.5 0.5t-7.5 1.5q-4 1 -5 2zM578 716q2 1 6 2q8 2 21 2q11 0 19 -2q4 -1 6 -2l-117 -553q-20 -90 -69 -131.5t-131 -41.5q-29 0 -53 4.5t-41 10.5q-20 6 -37 15
q5 28 24 41q15 -7 33 -12q15 -5 35 -8.5t43 -3.5q26 0 49 6.5t41.5 21t32 38.5t21.5 60z" />
    <glyph glyph-name="Iacute" unicode="&#xcd;" horiz-adv-x="259" 
d="M187 757q-23 3 -29 19l142 148q15 1 26 -5.5t16 -17.5zM191 716q3 1 7 2q8 2 20 2q11 0 19 -2q4 -1 6 -2l-151 -712q-3 -1 -7 -2t-8.5 -1.5t-11.5 -0.5q-8 0 -12.5 0.5t-7.5 1.5q-4 1 -5 2z" />
    <glyph glyph-name="Ibreve" unicode="&#x12c;" horiz-adv-x="259" 
d="M380 839q-18 -16 -41 -27q-20 -11 -47 -19t-62 -8t-59 8t-40 19q-18 11 -30 27q11 19 32 26q11 -11 27 -20q14 -8 33.5 -13.5t45.5 -5.5t48 5.5t39 13.5q19 9 35 20q19 -6 19 -26zM191 716q3 1 7 2q8 2 20 2q11 0 19 -2q4 -1 6 -2l-151 -712q-3 -1 -7 -2t-8.5 -1.5
t-11.5 -0.5q-8 0 -12.5 0.5t-7.5 1.5q-4 1 -5 2z" />
    <glyph glyph-name="Icircumflex" unicode="&#xce;" horiz-adv-x="259" 
d="M374 795q-5 -10 -11 -17.5t-16 -9.5l-99 85l-133 -86q-9 4 -15 10.5t-7 17.5l150 104h26zM191 716q3 1 7 2q8 2 20 2q11 0 19 -2q4 -1 6 -2l-151 -712q-3 -1 -7 -2t-8.5 -1.5t-11.5 -0.5q-8 0 -12.5 0.5t-7.5 1.5q-4 1 -5 2z" />
    <glyph glyph-name="Idieresis" unicode="&#xcf;" horiz-adv-x="259" 
d="M185 770l-8 -2q-10 -2 -23 -2q-8 0 -13 0.5t-9 1.5t-7 2l11 53q4 0 8 1q10 2 23 2q8 0 13 -0.5t9 -1.5t7 -1zM334 770l-8 -2q-10 -2 -23 -2q-8 0 -13 0.5t-9 1.5t-7 2l11 53q4 0 8 1q10 2 23 2q8 0 13 -0.5t9 -1.5t7 -1zM191 716q3 1 7 2q8 2 20 2q11 0 19 -2q4 -1 6 -2
l-151 -712q-3 -1 -7 -2t-8.5 -1.5t-11.5 -0.5q-8 0 -12.5 0.5t-7.5 1.5q-4 1 -5 2z" />
    <glyph glyph-name="Idotaccent" unicode="&#x130;" horiz-adv-x="259" 
d="M213 840l8 2t9.5 1.5t13.5 0.5q14 0 24 -2l8 -2l-12 -56q-4 -1 -9 -2t-10.5 -1.5t-13.5 -0.5t-13.5 0.5t-9.5 1.5t-7 2zM191 716q3 1 7 2q8 2 20 2q11 0 19 -2q4 -1 6 -2l-151 -712q-3 -1 -7 -2t-8.5 -1.5t-11.5 -0.5q-8 0 -12.5 0.5t-7.5 1.5q-4 1 -5 2z" />
    <glyph glyph-name="Igrave" unicode="&#xcc;" horiz-adv-x="259" 
d="M157 899q8 10 23 17t29 6l79 -148q-13 -16 -37 -19zM191 716q3 1 7 2q8 2 20 2q11 0 19 -2q4 -1 6 -2l-151 -712q-3 -1 -7 -2t-8.5 -1.5t-11.5 -0.5q-8 0 -12.5 0.5t-7.5 1.5q-4 1 -5 2z" />
    <glyph glyph-name="Imacron" unicode="&#x12a;" horiz-adv-x="259" 
d="M104 777q-2 9 0 20t9 20h255q2 -8 -0.5 -19.5t-8.5 -20.5h-255zM191 716q3 1 7 2q8 2 20 2q11 0 19 -2q4 -1 6 -2l-151 -712q-3 -1 -7 -2t-8.5 -1.5t-11.5 -0.5q-8 0 -12.5 0.5t-7.5 1.5q-4 1 -5 2z" />
    <glyph glyph-name="Iogonek" unicode="&#x12e;" horiz-adv-x="259" 
d="M92 0q-27 -18 -47 -40.5t-33 -45.5t-18.5 -45.5t-2.5 -41.5q3 -20 16 -27.5t30 -8.5q14 0 27.5 4t30.5 11q5 -5 8.5 -16t1.5 -19q-15 -9 -37 -15t-45 -6q-28 0 -51 12t-30 45q-5 25 1 51.5t20 52.5t34.5 49.5t43.5 43.5l150 712q3 1 7 2q8 2 20 2q11 0 19 -2q4 -1 6 -2
l-151 -716v0z" />
    <glyph glyph-name="Itilde" unicode="&#x128;" horiz-adv-x="259" 
d="M299 804q11 0 19.5 4t15.5 9q8 6 15 14q13 -5 15 -21q-1 -3 -7 -10t-16.5 -14.5t-24.5 -13.5t-30 -6q-18 0 -30.5 5.5t-23 12t-20.5 12t-24 5.5q-11 0 -19.5 -4t-14.5 -9q-7 -6 -13 -13q-17 8 -18 22q8 11 19 21q10 8 24.5 14.5t34.5 6.5q18 0 30.5 -5.5t23 -12t20.5 -12
t24 -5.5zM191 716q3 1 7 2q8 2 20 2q11 0 19 -2q4 -1 6 -2l-151 -712q-3 -1 -7 -2t-8.5 -1.5t-11.5 -0.5q-8 0 -12.5 0.5t-7.5 1.5q-4 1 -5 2z" />
    <glyph glyph-name="J" unicode="J" horiz-adv-x="427" 
d="M364 716q2 1 6 2q8 2 21 2q11 0 19 -2q4 -1 6 -2l-117 -552q-19 -90 -68.5 -132t-131.5 -42q-29 0 -53 4.5t-41 10.5q-20 6 -37 15q5 28 24 41q15 -7 33 -12q15 -5 35 -8.5t43 -3.5q26 0 49 6.5t41.5 21t32 38.5t21.5 60z" />
    <glyph glyph-name="Jcircumflex" unicode="&#x134;" horiz-adv-x="427" 
d="M547 795q-5 -10 -12.5 -17.5t-17.5 -9.5l-99 85l-133 -86q-18 7 -19 28l150 104h26zM364 716q2 1 6 2q8 2 21 2q11 0 19 -2q4 -1 6 -2l-117 -552q-19 -90 -68.5 -132t-131.5 -42q-29 0 -53 4.5t-41 10.5q-20 6 -37 15q5 28 24 41q15 -7 33 -12q15 -5 35 -8.5t43 -3.5
q26 0 49 6.5t41.5 21t32 38.5t21.5 60z" />
    <glyph glyph-name="K" unicode="K" horiz-adv-x="608" 
d="M588 716q2 1 10.5 2.5t19.5 1.5t18.5 -1.5t10.5 -2.5l-309 -345l187 -367l-8 -2q-10 -2 -23 -2q-11 0 -21 2l-8 2l-173 347h-127l-74 -347q-3 -1 -7 -2t-8.5 -1.5t-11.5 -0.5q-11 0 -19 2q-4 1 -6 2l151 712q3 1 7 2q10 2 21 2q10 0 18 -2q4 -1 6 -2l-68 -319h124z" />
    <glyph glyph-name="Kcommaaccent" unicode="&#x136;" horiz-adv-x="608" 
d="M588 716q2 1 10.5 2.5t19.5 1.5t18.5 -1.5t10.5 -2.5l-309 -345l187 -367l-8 -2q-10 -2 -23 -2q-11 0 -21 2l-8 2l-173 347h-127l-74 -347q-3 -1 -7 -2t-8.5 -1.5t-11.5 -0.5q-11 0 -19 2q-4 1 -6 2l151 712q3 1 7 2q10 2 21 2q10 0 18 -2q4 -1 6 -2l-68 -319h124z
M169 -191l7 7t14 17t17 26.5t15 36.5q-10 0 -16 2q-4 1 -5 2l12 56l8 2q10 2 24 2t24 -2l8 -2l-9 -40q-7 -31 -19.5 -53.5t-26.5 -38.5q-16 -18 -34 -31z" />
    <glyph glyph-name="L" unicode="L" horiz-adv-x="505" 
d="M191 716q3 1 7 2t8.5 1.5t11.5 0.5q11 0 19 -2q4 -1 6 -2l-142 -669h323q0 -2 0.5 -8.5t-1.5 -14.5q-2 -9 -4.5 -15t-4.5 -9h-375z" />
    <glyph glyph-name="Lacute" unicode="&#x139;" horiz-adv-x="505" 
d="M211 757q-23 3 -29 19l142 148q15 1 26 -5.5t16 -17.5zM191 716q3 1 7 2t8.5 1.5t11.5 0.5q11 0 19 -2q4 -1 6 -2l-142 -669h323q0 -2 0.5 -8.5t-1.5 -14.5q-2 -9 -4.5 -15t-4.5 -9h-375z" />
    <glyph glyph-name="Lcaron" unicode="&#x13d;" horiz-adv-x="505" 
d="M346 588q-17 3 -21 17q39 27 62 62t34 82q33 3 45 -10q-7 -22 -18.5 -44.5t-27 -42.5t-34.5 -37t-40 -27zM191 716q3 1 7 2t8.5 1.5t11.5 0.5q11 0 19 -2q4 -1 6 -2l-142 -669h323q0 -2 0.5 -8.5t-1.5 -14.5q-2 -9 -4.5 -15t-4.5 -9h-375z" />
    <glyph glyph-name="Lcommaaccent" unicode="&#x13b;" horiz-adv-x="505" 
d="M191 716q3 1 7 2t8.5 1.5t11.5 0.5q11 0 19 -2q4 -1 6 -2l-142 -669h323q0 -2 0.5 -8.5t-1.5 -14.5q-2 -9 -4.5 -15t-4.5 -9h-375zM148 -202l7 7t14 17t17 26.5t15 36.5q-6 0 -10 0.5t-7 1.5q-4 1 -5 2l12 56l8 2q10 2 24 2t24 -2l8 -2l-9 -40q-7 -31 -19.5 -53.5
t-26.5 -38.5q-16 -18 -34 -31z" />
    <glyph glyph-name="Ldot" unicode="&#x13f;" horiz-adv-x="507" 
d="M191 716q3 1 7 2t8.5 1.5t11.5 0.5q11 0 19 -2q4 -1 6 -2l-142 -669h323q0 -2 0.5 -8.5t-1.5 -14.5q-2 -9 -4.5 -15t-4.5 -9h-375zM368 308l-8 -2t-9 -1.5t-13 -0.5q-13 0 -23 2q-4 1 -7 2l11 52l8 2q10 2 23 2q8 0 13 -0.5t9 -1.5t7 -2z" />
    <glyph glyph-name="Lslash" unicode="&#x141;" horiz-adv-x="520" 
d="M207 716q3 1 7 2t8.5 1.5t11.5 0.5q11 0 19 -2q4 -1 6 -2l-65 -308l116 61q14 -11 12 -34l-138 -72l-67 -316h323q0 -2 0.5 -8.5t-1.5 -14.5q-2 -9 -4.5 -15t-4.5 -9h-375l71 333l-80 -40q-6 5 -10 14t-2 19l101 52l72 338v0z" />
    <glyph glyph-name="M" unicode="M" horiz-adv-x="844" 
d="M755 716q4 1 14.5 2.5t24.5 1.5q8 0 14.5 -0.5t11.5 -1.5t8 -2l-151 -712q-3 -1 -7 -2t-8.5 -1.5t-11.5 -0.5q-11 0 -19 2q-4 1 -6 2l108 507q12 57 22 96.5t14 51.5h-3q-5 -9 -24 -38t-49 -67l-281 -356q-2 -1 -6 -2q-8 -2 -15 -2q-8 0 -14 2q-3 1 -5 2l-60.5 177
l-60.5 178q-13 36 -20.5 66.5t-7.5 39.5h-3q0 -11 -6 -51t-19 -101l-107 -503q-2 -1 -6 -2q-8 -2 -19 -2q-7 0 -11 0.5t-7 1.5q-4 1 -6 2l151 712q4 1 9 2t11 1.5t14 0.5q11 0 21 -2q4 -1 7 -2l150 -454h2l351 454v0z" />
    <glyph glyph-name="N" unicode="N" horiz-adv-x="696" 
d="M225 643h-2q-2 -12 -6 -30l-7.5 -40.5t-12.5 -60.5l-108 -508q-3 -1 -7 -2t-8.5 -1.5t-11.5 -0.5q-10 0 -18 2q-4 1 -5 2l151 712q3 1 8 2q10 2 24 2q8 0 13 -0.5t9 -1.5t7 -2l245 -647h2q2 16 6 37q3 17 7 42t11 54l109 514q2 1 6 2q8 2 20 2q10 0 18 -2q4 -1 5 -2
l-151 -712l-8 -2q-10 -2 -23 -2q-8 0 -13.5 0.5t-9.5 1.5t-7 2z" />
    <glyph glyph-name="Nacute" unicode="&#x143;" horiz-adv-x="696" 
d="M446 757q-23 3 -29 19l142 148q15 1 26 -5.5t16 -17.5zM225 643h-2q-2 -12 -6 -30l-7.5 -40.5t-12.5 -60.5l-108 -508q-3 -1 -7 -2t-8.5 -1.5t-11.5 -0.5q-10 0 -18 2q-4 1 -5 2l151 712q3 1 8 2q10 2 24 2q8 0 13 -0.5t9 -1.5t7 -2l245 -647h2q2 16 6 37q3 17 7 42
t11 54l109 514q2 1 6 2q8 2 20 2q10 0 18 -2q4 -1 5 -2l-151 -712l-8 -2q-10 -2 -23 -2q-8 0 -13.5 0.5t-9.5 1.5t-7 2z" />
    <glyph glyph-name="Ncaron" unicode="&#x147;" horiz-adv-x="696" 
d="M335 871q5 11 11 17.5t17 10.5l99 -86l130 87q8 -2 15.5 -10.5t8.5 -18.5l-149 -104h-26zM225 643h-2q-2 -12 -6 -30l-7.5 -40.5t-12.5 -60.5l-108 -508q-3 -1 -7 -2t-8.5 -1.5t-11.5 -0.5q-10 0 -18 2q-4 1 -5 2l151 712q3 1 8 2q10 2 24 2q8 0 13 -0.5t9 -1.5t7 -2
l245 -647h2q2 16 6 37q3 17 7 42t11 54l109 514q2 1 6 2q8 2 20 2q10 0 18 -2q4 -1 5 -2l-151 -712l-8 -2q-10 -2 -23 -2q-8 0 -13.5 0.5t-9.5 1.5t-7 2z" />
    <glyph glyph-name="Ncommaaccent" unicode="&#x145;" horiz-adv-x="696" 
d="M225 643h-2q-2 -12 -6 -30l-7.5 -40.5t-12.5 -60.5l-108 -508q-3 -1 -7 -2t-8.5 -1.5t-11.5 -0.5q-10 0 -18 2q-4 1 -5 2l151 712q3 1 8 2q10 2 24 2q8 0 13 -0.5t9 -1.5t7 -2l245 -647h2q2 16 6 37q3 17 7 42t11 54l109 514q2 1 6 2q8 2 20 2q10 0 18 -2q4 -1 5 -2
l-151 -712l-8 -2q-10 -2 -23 -2q-8 0 -13.5 0.5t-9.5 1.5t-7 2zM198 -195l7 7t14 17t17 26.5t15 36.5q-10 0 -16 2q-4 1 -5 2l12 56l8 2q10 2 24 2t24 -2l8 -2l-9 -40q-7 -31 -19.5 -53.5t-26.5 -38.5q-16 -18 -34 -31z" />
    <glyph glyph-name="Ntilde" unicode="&#xd1;" horiz-adv-x="696" 
d="M519 806q11 0 20 4t16 9q8 5 14 13q8 -2 15 -9.5t6 -16.5q-2 -3 -8 -10t-15 -13.5t-22 -11.5t-29 -5q-19 0 -33 5.5t-26.5 12.5t-24 12.5t-26.5 5.5q-11 0 -20 -5t-16 -10q-8 -6 -14 -14q-8 4 -14 10.5t-7 14.5q6 11 17 21q9 8 23 15t34 7q19 0 33.5 -5.5t26.5 -12
t24 -12t26 -5.5zM225 643h-2q-2 -12 -6 -30l-7.5 -40.5t-12.5 -60.5l-108 -508q-3 -1 -7 -2t-8.5 -1.5t-11.5 -0.5q-10 0 -18 2q-4 1 -5 2l151 712q3 1 8 2q10 2 24 2q8 0 13 -0.5t9 -1.5t7 -2l245 -647h2q2 16 6 37q3 17 7 42t11 54l109 514q2 1 6 2q8 2 20 2q10 0 18 -2
q4 -1 5 -2l-151 -712l-8 -2q-10 -2 -23 -2q-8 0 -13.5 0.5t-9.5 1.5t-7 2z" />
    <glyph glyph-name="O" unicode="O" horiz-adv-x="676" 
d="M83 373q21 97 53 164.5t75 110.5t96 62.5t116 19.5t108.5 -22.5t71 -69t29.5 -118t-17 -168.5t-52 -166t-73 -112.5t-94.5 -63.5t-115.5 -20t-109.5 23.5t-72.5 71t-31 119.5t16 169zM563 360q19 90 16 152t-23.5 100.5t-56 55.5t-80.5 17q-49 0 -92.5 -17t-79.5 -55.5
t-64.5 -100.5t-47.5 -152q-19 -89 -14.5 -151t26 -100.5t56.5 -56t77 -17.5q49 0 92.5 17.5t79.5 56t64 100.5t47 151z" />
    <glyph glyph-name="OE" unicode="&#x152;" horiz-adv-x="837" 
d="M84 374q21 97 54.5 165t78.5 110.5t100 61.5t120 19q26 0 47.5 -3t36.5 -7h342q2 -7 -1 -23q-3 -14 -9 -23h-297l-61 -286h247q2 -5 1.5 -10.5t-1.5 -11.5q-3 -12 -9 -23h-247l-63 -297h307q2 -11 -1 -22q-3 -13 -9 -24h-353q-17 -4 -38.5 -7t-48.5 -3q-65 0 -111 23.5
t-71.5 71.5t-29.5 120t16 169zM508 672q-14 5 -34.5 9t-45.5 4q-51 0 -96 -17.5t-82.5 -56t-67 -100.5t-48.5 -151q-19 -90 -16 -152t24 -100.5t58.5 -55.5t88.5 -17q25 0 48 4t38 10z" />
    <glyph glyph-name="Oacute" unicode="&#xd3;" horiz-adv-x="676" 
d="M565 929q15 1 26.5 -5.5t16.5 -17.5l-149 -136q-24 3 -30 18zM83 373q21 97 53 164.5t75 110.5t96 62.5t116 19.5t108.5 -22.5t71 -69t29.5 -118t-17 -168.5t-52 -166t-73 -112.5t-94.5 -63.5t-115.5 -20t-109.5 23.5t-72.5 71t-31 119.5t16 169zM563 360q19 90 16 152
t-23.5 100.5t-56 55.5t-80.5 17q-49 0 -92.5 -17t-79.5 -55.5t-64.5 -100.5t-47.5 -152q-19 -89 -14.5 -151t26 -100.5t56.5 -56t77 -17.5q49 0 92.5 17.5t79.5 56t64 100.5t47 151z" />
    <glyph glyph-name="Obreve" unicode="&#x14e;" horiz-adv-x="676" 
d="M451 826q26 0 48 5.5t39 13.5q19 9 35 20q19 -6 19 -26q-16 -16 -37 -27q-18 -11 -44.5 -19t-61.5 -8t-60.5 8t-42.5 19q-19 11 -33 27q11 19 32 26q11 -11 27 -20q14 -8 33.5 -13.5t45.5 -5.5zM83 373q21 97 53 164.5t75 110.5t96 62.5t116 19.5t108.5 -22.5t71 -69
t29.5 -118t-17 -168.5t-52 -166t-73 -112.5t-94.5 -63.5t-115.5 -20t-109.5 23.5t-72.5 71t-31 119.5t16 169zM563 360q19 90 16 152t-23.5 100.5t-56 55.5t-80.5 17q-49 0 -92.5 -17t-79.5 -55.5t-64.5 -100.5t-47.5 -152q-19 -89 -14.5 -151t26 -100.5t56.5 -56t77 -17.5
q49 0 92.5 17.5t79.5 56t64 100.5t47 151z" />
    <glyph glyph-name="Ocircumflex" unicode="&#xd4;" horiz-adv-x="676" 
d="M584 795q-5 -10 -11 -17.5t-16 -9.5l-99 85l-133 -86q-9 4 -15 10.5t-7 17.5l150 104h26zM83 373q21 97 53 164.5t75 110.5t96 62.5t116 19.5t108.5 -22.5t71 -69t29.5 -118t-17 -168.5t-52 -166t-73 -112.5t-94.5 -63.5t-115.5 -20t-109.5 23.5t-72.5 71t-31 119.5
t16 169zM563 360q19 90 16 152t-23.5 100.5t-56 55.5t-80.5 17q-49 0 -92.5 -17t-79.5 -55.5t-64.5 -100.5t-47.5 -152q-19 -89 -14.5 -151t26 -100.5t56.5 -56t77 -17.5q49 0 92.5 17.5t79.5 56t64 100.5t47 151z" />
    <glyph glyph-name="Odieresis" unicode="&#xd6;" horiz-adv-x="676" 
d="M347 843q4 0 8 1q10 2 23 2q8 0 13 -0.5t9 -1.5t7 -1l-11 -53l-8 -2q-10 -2 -23 -2q-8 0 -13 0.5t-9 1.5t-7 2zM496 843q4 0 8 1q10 2 23 2q12 0 22 -2q4 -1 7 -1l-11 -53l-8 -2q-10 -2 -23 -2q-8 0 -13 0.5t-9 1.5t-7 2zM83 373q21 97 53 164.5t75 110.5t96 62.5
t116 19.5t108.5 -22.5t71 -69t29.5 -118t-17 -168.5t-52 -166t-73 -112.5t-94.5 -63.5t-115.5 -20t-109.5 23.5t-72.5 71t-31 119.5t16 169zM563 360q19 90 16 152t-23.5 100.5t-56 55.5t-80.5 17q-49 0 -92.5 -17t-79.5 -55.5t-64.5 -100.5t-47.5 -152q-19 -89 -14.5 -151
t26 -100.5t56.5 -56t77 -17.5q49 0 92.5 17.5t79.5 56t64 100.5t47 151z" />
    <glyph glyph-name="Ograve" unicode="&#xd2;" horiz-adv-x="676" 
d="M506 781q-13 -17 -37 -18l-89 136q8 10 23 17t29 6zM83 373q21 97 53 164.5t75 110.5t96 62.5t116 19.5t108.5 -22.5t71 -69t29.5 -118t-17 -168.5t-52 -166t-73 -112.5t-94.5 -63.5t-115.5 -20t-109.5 23.5t-72.5 71t-31 119.5t16 169zM563 360q19 90 16 152
t-23.5 100.5t-56 55.5t-80.5 17q-49 0 -92.5 -17t-79.5 -55.5t-64.5 -100.5t-47.5 -152q-19 -89 -14.5 -151t26 -100.5t56.5 -56t77 -17.5q49 0 92.5 17.5t79.5 56t64 100.5t47 151z" />
    <glyph glyph-name="Ohungarumlaut" unicode="&#x150;" horiz-adv-x="676" 
d="M451 916q15 1 27.5 -5t17.5 -17l-129 -120q-23 3 -27 18zM599 916q15 1 26.5 -5t17.5 -17l-129 -120q-22 3 -28 18zM83 373q21 97 53 164.5t75 110.5t96 62.5t116 19.5t108.5 -22.5t71 -69t29.5 -118t-17 -168.5t-52 -166t-73 -112.5t-94.5 -63.5t-115.5 -20t-109.5 23.5
t-72.5 71t-31 119.5t16 169zM563 360q19 90 16 152t-23.5 100.5t-56 55.5t-80.5 17q-49 0 -92.5 -17t-79.5 -55.5t-64.5 -100.5t-47.5 -152q-19 -89 -14.5 -151t26 -100.5t56.5 -56t77 -17.5q49 0 92.5 17.5t79.5 56t64 100.5t47 151z" />
    <glyph glyph-name="Omacron" unicode="&#x14c;" horiz-adv-x="676" 
d="M587 845q2 -8 -1 -19.5t-8 -20.5h-270q-2 11 1 20.5t8 19.5h270zM83 373q21 97 53 164.5t75 110.5t96 62.5t116 19.5t108.5 -22.5t71 -69t29.5 -118t-17 -168.5t-52 -166t-73 -112.5t-94.5 -63.5t-115.5 -20t-109.5 23.5t-72.5 71t-31 119.5t16 169zM563 360
q19 90 16 152t-23.5 100.5t-56 55.5t-80.5 17q-49 0 -92.5 -17t-79.5 -55.5t-64.5 -100.5t-47.5 -152q-19 -89 -14.5 -151t26 -100.5t56.5 -56t77 -17.5q49 0 92.5 17.5t79.5 56t64 100.5t47 151z" />
    <glyph glyph-name="Omega" unicode="&#x2126;" horiz-adv-x="715" 
d="M95 380q19 92 53.5 158.5t80 109t101.5 62.5t118 20t109 -20t75 -62.5t34 -109t-13 -158.5q-11 -49 -30 -91.5t-42 -78t-47.5 -64t-46 -49t-37 -33.5l-20.5 -17h165q1 -6 1.5 -11.5t-1.5 -11.5q-2 -7 -5 -13t-5 -11h-231q-4 11 -1 25t12 25q22 16 56 44.5t68.5 70
t64.5 95.5t44 120q16 79 12.5 136.5t-25 95t-58.5 55.5t-88 18t-96 -18t-82.5 -55.5t-66 -95t-44.5 -136.5q-14 -66 -7 -120t24 -95.5t39 -70t37 -44.5q5 -25 -11 -50h-231q-3 11 0 23q2 7 3.5 13t6.5 11h165q-5 7 -24 32t-37 67.5t-27 101t7 132.5z" />
    <glyph glyph-name="Oslash" unicode="&#xd8;" horiz-adv-x="675" 
d="M593 654q32 -47 38.5 -121.5t-16.5 -180.5q-21 -97 -52 -166t-73 -112.5t-94.5 -63.5t-115.5 -20q-103 0 -158 60l-74 -95q-11 2 -20 7t-15 13l85 109q-26 48 -31 119.5t16 169.5q21 97 53 164.5t75 110.5t96 62.5t116 19.5q89 0 142 -45l61 79q22 -4 37 -21zM419 685
q-49 0 -92.5 -17t-79.5 -55.5t-64.5 -100.5t-47.5 -152q-16 -77 -15 -133t15 -94l398 511q-22 21 -50.5 31t-63.5 10zM280 35q49 0 92.5 17.5t79.5 56t64 100.5t47 151q19 88 16.5 148.5t-21.5 99.5l-402 -515q22 -31 54 -44.5t70 -13.5z" />
    <glyph glyph-name="Oslashacute" unicode="&#x1fe;" horiz-adv-x="675" 
d="M402 766q-22 4 -27 21l150 140q32 -2 40 -27zM593 654q32 -47 38.5 -121.5t-16.5 -180.5q-21 -97 -52 -166t-73 -112.5t-94.5 -63.5t-115.5 -20q-103 0 -158 60l-74 -95q-11 2 -20 7t-15 13l85 109q-26 48 -31 119.5t16 169.5q21 97 53 164.5t75 110.5t96 62.5t116 19.5
q89 0 142 -45l61 79q22 -4 37 -21zM419 685q-49 0 -92.5 -17t-79.5 -55.5t-64.5 -100.5t-47.5 -152q-16 -77 -15 -133t15 -94l398 511q-22 21 -50.5 31t-63.5 10zM280 35q49 0 92.5 17.5t79.5 56t64 100.5t47 151q19 88 16.5 148.5t-21.5 99.5l-402 -515q22 -31 54 -44.5
t70 -13.5z" />
    <glyph glyph-name="Otilde" unicode="&#xd5;" horiz-adv-x="676" 
d="M508 830q11 0 20 5t16 10q8 6 14 14q16 -5 18 -23q-5 -12 -15 -22q-8 -8 -21.5 -15.5t-33.5 -8.5q-18 -1 -32.5 4t-27.5 11.5t-25 11.5t-27 5q-11 -1 -20.5 -5.5t-15.5 -9.5q-8 -6 -13 -14q-16 9 -19 23q5 12 15 22q8 8 21.5 15t33.5 8q19 1 33.5 -4t27.5 -11t25 -11
t26 -5zM83 373q21 97 53 164.5t75 110.5t96 62.5t116 19.5t108.5 -22.5t71 -69t29.5 -118t-17 -168.5t-52 -166t-73 -112.5t-94.5 -63.5t-115.5 -20t-109.5 23.5t-72.5 71t-31 119.5t16 169zM563 360q19 90 16 152t-23.5 100.5t-56 55.5t-80.5 17q-49 0 -92.5 -17
t-79.5 -55.5t-64.5 -100.5t-47.5 -152q-19 -89 -14.5 -151t26 -100.5t56.5 -56t77 -17.5q49 0 92.5 17.5t79.5 56t64 100.5t47 151z" />
    <glyph glyph-name="P" unicode="P" horiz-adv-x="599" 
d="M92 4q-3 -1 -7 -2q-8 -2 -19 -2q-8 0 -12.5 0.5t-7.5 1.5q-4 1 -6 2l152 716h247q47 0 80.5 -17t52.5 -46.5t23.5 -69.5t-5.5 -87q-20 -94 -82.5 -146.5t-157.5 -52.5h-195zM358 348q71 0 118 43t63 118q17 78 -12 121.5t-100 43.5h-193l-69 -326h193z" />
    <glyph glyph-name="Q" unicode="Q" horiz-adv-x="676" 
d="M423 730q63 0 108.5 -22.5t71 -69t29.5 -118t-17 -168.5q-25 -118 -65 -193.5t-97 -116.5q22 -26 52 -42.5t58 -24.5q-10 -31 -40 -45q-33 9 -64 32.5t-49 53.5q-56 -26 -130 -26q-63 0 -109.5 23.5t-72.5 71t-31 119.5t16 169t53 164.5t75 110.5t96 62.5t116 19.5z
M419 685q-49 0 -92.5 -17t-79.5 -55.5t-64.5 -100.5t-47.5 -152q-19 -89 -14.5 -151t26 -100.5t56.5 -56t77 -17.5q49 0 92.5 17.5t79.5 56t64 100.5t47 151q19 90 16 152t-23.5 100.5t-56 55.5t-80.5 17z" />
    <glyph glyph-name="R" unicode="R" horiz-adv-x="620" 
d="M433 720q47 0 81 -16t54 -44.5t25.5 -67t-4.5 -83.5q-16 -76 -64.5 -122.5t-121.5 -61.5l105 -321l-8 -2q-10 -2 -23 -2q-8 0 -13 0.5t-9 1.5l-8 2l-101 315h-187l-67 -315q-3 -1 -7 -2q-8 -2 -19 -2q-8 0 -12.5 0.5t-7.5 1.5q-4 1 -6 2l152 716h241zM169 365h188
q68 0 116 40.5t63 113.5q16 74 -15 114.5t-99 40.5h-188z" />
    <glyph glyph-name="Racute" unicode="&#x154;" horiz-adv-x="620" 
d="M464 924q15 1 26 -5.5t16 -17.5l-155 -144q-23 3 -29 19zM433 720q47 0 81 -16t54 -44.5t25.5 -67t-4.5 -83.5q-16 -76 -64.5 -122.5t-121.5 -61.5l105 -321l-8 -2q-10 -2 -23 -2q-8 0 -13 0.5t-9 1.5l-8 2l-101 315h-187l-67 -315q-3 -1 -7 -2q-8 -2 -19 -2
q-8 0 -12.5 0.5t-7.5 1.5q-4 1 -6 2l152 716h241zM169 365h188q68 0 116 40.5t63 113.5q16 74 -15 114.5t-99 40.5h-188z" />
    <glyph glyph-name="Rcaron" unicode="&#x158;" horiz-adv-x="620" 
d="M529 898q8 -2 14.5 -9.5t7.5 -17.5l-149 -104h-26l-106 104q5 11 10.5 17.5t16.5 10.5l99 -86zM433 720q47 0 81 -16t54 -44.5t25.5 -67t-4.5 -83.5q-16 -76 -64.5 -122.5t-121.5 -61.5l105 -321l-8 -2q-10 -2 -23 -2q-8 0 -13 0.5t-9 1.5l-8 2l-101 315h-187l-67 -315
q-3 -1 -7 -2q-8 -2 -19 -2q-8 0 -12.5 0.5t-7.5 1.5q-4 1 -6 2l152 716h241zM169 365h188q68 0 116 40.5t63 113.5q16 74 -15 114.5t-99 40.5h-188z" />
    <glyph glyph-name="Rcommaaccent" unicode="&#x156;" horiz-adv-x="620" 
d="M433 720q47 0 81 -16t54 -44.5t25.5 -67t-4.5 -83.5q-16 -76 -64.5 -122.5t-121.5 -61.5l105 -321l-8 -2q-10 -2 -23 -2q-8 0 -13 0.5t-9 1.5l-8 2l-101 315h-187l-67 -315q-3 -1 -7 -2q-8 -2 -19 -2q-8 0 -12.5 0.5t-7.5 1.5q-4 1 -6 2l152 716h241zM169 365h188
q68 0 116 40.5t63 113.5q16 74 -15 114.5t-99 40.5h-188zM234 -54l8 2q10 2 24 2t24 -2l8 -2l-9 -40q-7 -31 -19.5 -53.5t-26.5 -38.5q-16 -18 -34 -31l-19 16l7 7t14 17t17 26.5t15 36.5q-10 0 -16 2q-4 1 -5 2z" />
    <glyph glyph-name="S" unicode="S" horiz-adv-x="560" 
d="M118 548q19 89 87 135.5t180 46.5q42 0 75 -4t56 -9q27 -5 48 -12q-3 -12 -8.5 -23t-14.5 -19q-21 6 -47 10q-22 4 -50.5 7.5t-61.5 3.5q-94 0 -147 -39t-67 -106q-8 -38 0.5 -63t29 -42t51.5 -28t68 -22q35 -11 68.5 -25.5t57 -38t34 -59t-0.5 -86.5q-20 -93 -90.5 -139
t-184.5 -46q-47 0 -83 5.5t-61 13.5q-29 8 -51 19q2 11 8.5 23t14.5 20q25 -9 53 -16q24 -6 56 -11t68 -5q91 0 148 37.5t72 109.5q8 38 0 63t-26.5 42t-46 28t-58.5 20q-38 12 -74.5 26t-63 37t-38.5 58t-1 88z" />
    <glyph glyph-name="Sacute" unicode="&#x15a;" horiz-adv-x="560" 
d="M374 770q-23 3 -28 20l134 136q14 1 25.5 -6t16.5 -18zM118 548q19 89 87 135.5t180 46.5q42 0 75 -4t56 -9q27 -5 48 -12q-3 -12 -8.5 -23t-14.5 -19q-21 6 -47 10q-22 4 -50.5 7.5t-61.5 3.5q-94 0 -147 -39t-67 -106q-8 -38 0.5 -63t29 -42t51.5 -28t68 -22
q35 -11 68.5 -25.5t57 -38t34 -59t-0.5 -86.5q-20 -93 -90.5 -139t-184.5 -46q-47 0 -83 5.5t-61 13.5q-29 8 -51 19q2 11 8.5 23t14.5 20q25 -9 53 -16q24 -6 56 -11t68 -5q91 0 148 37.5t72 109.5q8 38 0 63t-26.5 42t-46 28t-58.5 20q-38 12 -74.5 26t-63 37t-38.5 58
t-1 88z" />
    <glyph glyph-name="Scaron" unicode="&#x160;" horiz-adv-x="560" 
d="M279 881q5 11 11 17.5t17 10.5l99 -86l132 85q20 -5 22 -27l-149 -103h-26zM118 548q19 89 87 135.5t180 46.5q42 0 75 -4t56 -9q27 -5 48 -12q-3 -12 -8.5 -23t-14.5 -19q-21 6 -47 10q-22 4 -50.5 7.5t-61.5 3.5q-94 0 -147 -39t-67 -106q-8 -38 0.5 -63t29 -42
t51.5 -28t68 -22q35 -11 68.5 -25.5t57 -38t34 -59t-0.5 -86.5q-20 -93 -90.5 -139t-184.5 -46q-47 0 -83 5.5t-61 13.5q-29 8 -51 19q2 11 8.5 23t14.5 20q25 -9 53 -16q24 -6 56 -11t68 -5q91 0 148 37.5t72 109.5q8 38 0 63t-26.5 42t-46 28t-58.5 20q-38 12 -74.5 26
t-63 37t-38.5 58t-1 88z" />
    <glyph glyph-name="Scedilla" unicode="&#x15e;" horiz-adv-x="560" 
d="M118 548q19 89 87 135.5t180 46.5q42 0 75 -4t56 -9q27 -5 48 -12q-3 -12 -8.5 -23t-14.5 -19q-21 6 -47 10q-22 4 -50.5 7.5t-61.5 3.5q-94 0 -147 -39t-67 -106q-8 -38 0.5 -63t29 -42t51.5 -28t68 -22q35 -11 68.5 -25.5t57 -38t34 -59t-0.5 -86.5q-19 -88 -84 -134
t-170 -51l-21 -52q59 0 79 -25.5t12 -67.5q-20 -95 -135 -95q-20 0 -35 3t-26 8q-12 5 -22 12q4 19 20 28q2 -1 21 -9t49 -8q35 0 57.5 16t30.5 49q11 56 -57 56h-32l-6 10l29 75q-43 1 -76.5 7t-56.5 13q-27 8 -47 18q2 11 8.5 23t14.5 20q25 -9 53 -16q24 -6 56 -11t68 -5
q91 0 148 37.5t72 109.5q8 38 0 63t-26.5 42t-46 28t-58.5 20q-38 12 -74.5 26t-63 37t-38.5 58t-1 88z" />
    <glyph glyph-name="Scircumflex" unicode="&#x15c;" horiz-adv-x="560" 
d="M537 800q-7 -23 -26 -27l-99 85l-133 -86q-8 4 -14.5 10.5t-8.5 17.5l150 104h26zM118 548q19 89 87 135.5t180 46.5q42 0 75 -4t56 -9q27 -5 48 -12q-3 -12 -8.5 -23t-14.5 -19q-21 6 -47 10q-22 4 -50.5 7.5t-61.5 3.5q-94 0 -147 -39t-67 -106q-8 -38 0.5 -63t29 -42
t51.5 -28t68 -22q35 -11 68.5 -25.5t57 -38t34 -59t-0.5 -86.5q-20 -93 -90.5 -139t-184.5 -46q-47 0 -83 5.5t-61 13.5q-29 8 -51 19q2 11 8.5 23t14.5 20q25 -9 53 -16q24 -6 56 -11t68 -5q91 0 148 37.5t72 109.5q8 38 0 63t-26.5 42t-46 28t-58.5 20q-38 12 -74.5 26
t-63 37t-38.5 58t-1 88z" />
    <glyph glyph-name="Scommaaccent" unicode="&#x218;" horiz-adv-x="560" 
d="M118 548q19 89 87 135.5t180 46.5q42 0 75 -4t56 -9q27 -5 48 -12q-3 -12 -8.5 -23t-14.5 -19q-21 6 -47 10q-22 4 -50.5 7.5t-61.5 3.5q-94 0 -147 -39t-67 -106q-8 -38 0.5 -63t29 -42t51.5 -28t68 -22q35 -11 68.5 -25.5t57 -38t34 -59t-0.5 -86.5q-20 -93 -90.5 -139
t-184.5 -46q-47 0 -83 5.5t-61 13.5q-29 8 -51 19q2 11 8.5 23t14.5 20q25 -9 53 -16q24 -6 56 -11t68 -5q91 0 148 37.5t72 109.5q8 38 0 63t-26.5 42t-46 28t-58.5 20q-38 12 -74.5 26t-63 37t-38.5 58t-1 88zM133 -207q1 1 6.5 7t13.5 17t17 26.5t15 36.5q-10 0 -16 2
q-3 1 -5 2l12 56q4 1 9 2t10.5 1.5t13.5 0.5q13 0 23 -2q4 -1 7 -2l-8 -40q-7 -31 -20 -53.5t-26 -38.5q-16 -18 -33 -31z" />
    <glyph glyph-name="T" unicode="T" horiz-adv-x="529" 
d="M583 720q1 -2 1 -6q0 -3 -0.5 -7.5t-1.5 -9.5q-3 -12 -6 -17l-3 -6h-203l-142 -670q-3 -1 -7 -2t-8.5 -1.5t-11.5 -0.5q-8 0 -12.5 0.5t-7.5 1.5q-4 1 -5 2l142 670h-208q-1 2 -1 6v7.5t2 9.5q1 5 2.5 9.5t3.5 7.5l3 6h463z" />
    <glyph glyph-name="Tbar" unicode="&#x166;" horiz-adv-x="545" 
d="M442 363q2 -19 -8 -38h-131l-68 -321q-3 -1 -7 -2t-8.5 -1.5t-11.5 -0.5q-8 0 -12.5 0.5t-7.5 1.5q-4 1 -5 2l68 321h-132q0 19 8 38h132l66 311h-208q-1 2 -1 6v7.5t2 9.5q1 5 2.5 9.5t3.5 7.5l3 6h463q1 -2 1 -6q0 -3 -0.5 -7.5t-1.5 -9.5q-3 -12 -6 -17l-3 -6h-203
l-66 -311h131z" />
    <glyph glyph-name="Tcaron" unicode="&#x164;" horiz-adv-x="529" 
d="M246 871q5 11 10.5 17t16.5 11l99 -86l133 85q8 -2 14.5 -9.5t7.5 -17.5l-149 -104h-26zM583 720q1 -2 1 -6q0 -3 -0.5 -7.5t-1.5 -9.5q-3 -12 -6 -17l-3 -6h-203l-142 -670q-3 -1 -7 -2t-8.5 -1.5t-11.5 -0.5q-8 0 -12.5 0.5t-7.5 1.5q-4 1 -5 2l142 670h-208q-1 2 -1 6
v7.5t2 9.5q1 5 2.5 9.5t3.5 7.5l3 6h463z" />
    <glyph glyph-name="Thorn" unicode="&#xde;" horiz-adv-x="604" 
d="M191 716q2 1 6 2q8 2 21 2q12 0 20 -2q4 -1 5 -2l-30 -141h195q47 0 81 -16.5t54 -45.5t25.5 -68.5t-4.5 -85.5q-20 -91 -83.5 -141t-158.5 -50h-195l-35 -164q-2 -1 -6 -2q-8 -2 -21 -2q-8 0 -12.5 0.5t-7.5 1.5q-4 1 -5 2zM137 215h193q71 0 117.5 41t62.5 114
q16 75 -13.5 116.5t-100.5 41.5h-193z" />
    <glyph glyph-name="U" unicode="U" horiz-adv-x="668" 
d="M554 228q-24 -115 -97 -176.5t-180 -61.5q-53 0 -95 16t-68.5 46.5t-35.5 74.5t3 101l104 488q3 1 7 2t8.5 1.5t11.5 0.5q12 0 20 -2q4 -1 6 -2l-105 -495q-19 -89 19 -137.5t126 -48.5t146.5 48.5t77.5 137.5l105 495q3 1 7 2q8 2 19 2t19 -2q4 -1 6 -2z" />
    <glyph glyph-name="Uacute" unicode="&#xda;" horiz-adv-x="668" 
d="M401 757q-23 3 -29 19l142 148q15 1 26 -5.5t16 -17.5zM554 228q-24 -115 -97 -176.5t-180 -61.5q-53 0 -95 16t-68.5 46.5t-35.5 74.5t3 101l104 488q3 1 7 2t8.5 1.5t11.5 0.5q12 0 20 -2q4 -1 6 -2l-105 -495q-19 -89 19 -137.5t126 -48.5t146.5 48.5t77.5 137.5
l105 495q3 1 7 2q8 2 19 2t19 -2q4 -1 6 -2z" />
    <glyph glyph-name="Ubreve" unicode="&#x16c;" horiz-adv-x="668" 
d="M585 839q-15 -16 -36 -27q-18 -11 -44 -19t-61 -8t-61 8t-43 19q-20 11 -34 27q9 19 31 26q11 -11 27 -20q14 -8 33.5 -13.5t45.5 -5.5t48 5.5t39 13.5q19 9 35 20q18 -6 20 -26zM554 228q-24 -115 -97 -176.5t-180 -61.5q-53 0 -95 16t-68.5 46.5t-35.5 74.5t3 101
l104 488q3 1 7 2t8.5 1.5t11.5 0.5q12 0 20 -2q4 -1 6 -2l-105 -495q-19 -89 19 -137.5t126 -48.5t146.5 48.5t77.5 137.5l105 495q3 1 7 2q8 2 19 2t19 -2q4 -1 6 -2z" />
    <glyph glyph-name="Ucircumflex" unicode="&#xdb;" horiz-adv-x="668" 
d="M582 795q-5 -10 -10.5 -17.5t-15.5 -9.5l-99 85l-133 -86q-9 4 -15.5 10.5t-7.5 17.5l150 104h26zM554 228q-24 -115 -97 -176.5t-180 -61.5q-53 0 -95 16t-68.5 46.5t-35.5 74.5t3 101l104 488q3 1 7 2t8.5 1.5t11.5 0.5q12 0 20 -2q4 -1 6 -2l-105 -495
q-19 -89 19 -137.5t126 -48.5t146.5 48.5t77.5 137.5l105 495q3 1 7 2q8 2 19 2t19 -2q4 -1 6 -2z" />
    <glyph glyph-name="Udieresis" unicode="&#xdc;" horiz-adv-x="668" 
d="M391 786l-8 -2q-10 -2 -23 -2q-8 0 -13 0.5t-9 1.5t-7 2l11 53q4 0 8 1q10 2 23 2q8 0 13 -0.5t9 -1.5t7 -1zM540 786l-8 -2q-10 -2 -23 -2q-8 0 -13 0.5t-9 1.5t-7 2l11 53q4 0 8 1q10 2 23 2q8 0 13 -0.5t9 -1.5t7 -1zM554 228q-24 -115 -97 -176.5t-180 -61.5
q-53 0 -95 16t-68.5 46.5t-35.5 74.5t3 101l104 488q3 1 7 2t8.5 1.5t11.5 0.5q12 0 20 -2q4 -1 6 -2l-105 -495q-19 -89 19 -137.5t126 -48.5t146.5 48.5t77.5 137.5l105 495q3 1 7 2q8 2 19 2t19 -2q4 -1 6 -2z" />
    <glyph glyph-name="Ugrave" unicode="&#xd9;" horiz-adv-x="668" 
d="M351 899q8 10 23 17t29 6l73 -139q-12 -16 -37 -19zM554 228q-24 -115 -97 -176.5t-180 -61.5q-53 0 -95 16t-68.5 46.5t-35.5 74.5t3 101l104 488q3 1 7 2t8.5 1.5t11.5 0.5q12 0 20 -2q4 -1 6 -2l-105 -495q-19 -89 19 -137.5t126 -48.5t146.5 48.5t77.5 137.5l105 495
q3 1 7 2q8 2 19 2t19 -2q4 -1 6 -2z" />
    <glyph glyph-name="Uhungarumlaut" unicode="&#x170;" horiz-adv-x="668" 
d="M354 763q-21 3 -27 19l126 137q16 1 28 -5.5t17 -17.5zM503 763q-22 3 -28 19l127 137q16 1 27.5 -5.5t17.5 -17.5zM554 228q-24 -115 -97 -176.5t-180 -61.5q-53 0 -95 16t-68.5 46.5t-35.5 74.5t3 101l104 488q3 1 7 2t8.5 1.5t11.5 0.5q12 0 20 -2q4 -1 6 -2
l-105 -495q-19 -89 19 -137.5t126 -48.5t146.5 48.5t77.5 137.5l105 495q3 1 7 2q8 2 19 2t19 -2q4 -1 6 -2z" />
    <glyph glyph-name="Umacron" unicode="&#x16a;" horiz-adv-x="668" 
d="M304 800q-3 21 8 40h274q2 -8 -0.5 -19.5t-7.5 -20.5h-274zM554 228q-24 -115 -97 -176.5t-180 -61.5q-53 0 -95 16t-68.5 46.5t-35.5 74.5t3 101l104 488q3 1 7 2t8.5 1.5t11.5 0.5q12 0 20 -2q4 -1 6 -2l-105 -495q-19 -89 19 -137.5t126 -48.5t146.5 48.5t77.5 137.5
l105 495q3 1 7 2q8 2 19 2t19 -2q4 -1 6 -2z" />
    <glyph glyph-name="Uogonek" unicode="&#x172;" horiz-adv-x="668" 
d="M554 228q-16 -74 -49.5 -123t-90.5 -83q-34 -20 -63 -45t-50 -51t-31.5 -51.5t-8.5 -47.5q2 -20 14 -27.5t29 -8.5q14 0 27.5 4t30.5 11q5 -5 8.5 -16t1.5 -19q-15 -9 -37 -15t-45 -6q-28 0 -50.5 12.5t-27.5 44.5q-6 48 24 95t82 92q-10 -2 -20 -3t-21 -1q-53 0 -95 16
t-68.5 46.5t-35.5 74.5t3 101l104 488q3 1 7 2t8.5 1.5t11.5 0.5q12 0 20 -2q4 -1 6 -2l-105 -495q-19 -89 19 -137.5t126 -48.5t146.5 48.5t77.5 137.5l105 495q3 1 7 2q8 2 19 2t19 -2q4 -1 6 -2z" />
    <glyph glyph-name="Uring" unicode="&#x16e;" horiz-adv-x="668" 
d="M436 767q-22 0 -41.5 7.5t-33 22t-19 34.5t0.5 44q6 26 19.5 45.5t31.5 33t39.5 20.5t43.5 7q20 0 39.5 -7.5t34 -21t21 -33.5t0.5 -44q-12 -52 -50 -80t-86 -28zM533 875q6 28 -8.5 49.5t-53.5 21.5q-38 0 -60.5 -22t-28.5 -49q-6 -28 7.5 -50t51.5 -22q39 0 62.5 22.5
t29.5 49.5zM554 228q-24 -115 -97 -176.5t-180 -61.5q-53 0 -95 16t-68.5 46.5t-35.5 74.5t3 101l104 488q3 1 7 2t8.5 1.5t11.5 0.5q12 0 20 -2q4 -1 6 -2l-105 -495q-19 -89 19 -137.5t126 -48.5t146.5 48.5t77.5 137.5l105 495q3 1 7 2q8 2 19 2t19 -2q4 -1 6 -2z" />
    <glyph glyph-name="Utilde" unicode="&#x168;" horiz-adv-x="668" 
d="M503 821q11 0 20 4t15 9q7 6 13 14q17 -6 19 -24q-5 -12 -15 -21q-8 -8 -21.5 -14t-33.5 -6q-18 0 -32 5.5t-26.5 12t-24.5 12t-27 5.5q-11 0 -19.5 -5t-15.5 -10q-8 -6 -14 -14q-17 8 -19 24q6 11 16 21q8 8 22 15t34 7q19 0 33 -5.5t26 -12t23.5 -12t26.5 -5.5z
M554 228q-24 -115 -97 -176.5t-180 -61.5q-53 0 -95 16t-68.5 46.5t-35.5 74.5t3 101l104 488q3 1 7 2t8.5 1.5t11.5 0.5q12 0 20 -2q4 -1 6 -2l-105 -495q-19 -89 19 -137.5t126 -48.5t146.5 48.5t77.5 137.5l105 495q3 1 7 2q8 2 19 2t19 -2q4 -1 6 -2z" />
    <glyph glyph-name="V" unicode="V" horiz-adv-x="613" 
d="M247 141q2 -16 3 -29t2 -23v-21h3q4 10 9 21q9 19 27 51l329 576q3 1 7 2t9.5 1.5t13.5 0.5q12 0 20 -2q4 -1 6 -2l-407 -712l-8 -2t-8.5 -1.5t-10.5 -0.5q-11 0 -19 2q-4 1 -6 2l-105 711q3 1 7 2t9 2t13 1t16 -2q3 -1 5 -2z" />
    <glyph glyph-name="W" unicode="W" horiz-adv-x="947" 
d="M552 549q-2 26 -2 44.5t1 31.5q1 15 2 25h-3q-3 -10 -8 -25l-12.5 -32t-20.5 -44l-278 -545q-3 -1 -11 -2.5t-18 -1.5t-16 1.5t-9 2.5l-61 712q3 1 7 2q8 2 20 2t20 -2q4 -1 6 -2l44 -546q3 -44 3 -73q0 -17 -1 -30h3q4 13 10 30q5 14 13.5 32.5l19.5 40.5l279 546
q2 1 6 2q8 2 20 2q11 0 19 -2q4 -1 5 -2l40 -546q2 -23 2 -41.5v-32.5q0 -16 -1 -29h2q4 13 10 29q5 14 13 32.5t19 41.5l273 546q3 1 7 2t9 1.5t13 0.5q10 0 18 -2q4 -1 6 -2l-355 -712q-3 -1 -7 -2q-10 -2 -20 -2q-11 0 -19 2q-4 1 -6 2z" />
    <glyph glyph-name="Wacute" unicode="&#x1e82;" horiz-adv-x="947" 
d="M537 764q-23 3 -29 19l136 141q15 1 26 -5.5t16 -17.5zM552 549q-2 26 -2 44.5t1 31.5q1 15 2 25h-3q-3 -10 -8 -25l-12.5 -32t-20.5 -44l-278 -545q-3 -1 -11 -2.5t-18 -1.5t-16 1.5t-9 2.5l-61 712q3 1 7 2q8 2 20 2t20 -2q4 -1 6 -2l44 -546q3 -44 3 -73q0 -17 -1 -30
h3q4 13 10 30q5 14 13.5 32.5l19.5 40.5l279 546q2 1 6 2q8 2 20 2q11 0 19 -2q4 -1 5 -2l40 -546q2 -23 2 -41.5v-32.5q0 -16 -1 -29h2q4 13 10 29q5 14 13 32.5t19 41.5l273 546q3 1 7 2t9 1.5t13 0.5q10 0 18 -2q4 -1 6 -2l-355 -712q-3 -1 -7 -2q-10 -2 -20 -2
q-11 0 -19 2q-4 1 -6 2z" />
    <glyph glyph-name="Wcircumflex" unicode="&#x174;" horiz-adv-x="947" 
d="M722 795q-5 -10 -11 -17.5t-16 -9.5l-99 85l-133 -86q-9 4 -15 10.5t-7 17.5l150 104h26zM552 549q-2 26 -2 44.5t1 31.5q1 15 2 25h-3q-3 -10 -8 -25l-12.5 -32t-20.5 -44l-278 -545q-3 -1 -11 -2.5t-18 -1.5t-16 1.5t-9 2.5l-61 712q3 1 7 2q8 2 20 2t20 -2q4 -1 6 -2
l44 -546q3 -44 3 -73q0 -17 -1 -30h3q4 13 10 30q5 14 13.5 32.5l19.5 40.5l279 546q2 1 6 2q8 2 20 2q11 0 19 -2q4 -1 5 -2l40 -546q2 -23 2 -41.5v-32.5q0 -16 -1 -29h2q4 13 10 29q5 14 13 32.5t19 41.5l273 546q3 1 7 2t9 1.5t13 0.5q10 0 18 -2q4 -1 6 -2l-355 -712
q-3 -1 -7 -2q-10 -2 -20 -2q-11 0 -19 2q-4 1 -6 2z" />
    <glyph glyph-name="Wdieresis" unicode="&#x1e84;" horiz-adv-x="947" 
d="M535 790l-8 -2q-10 -2 -23 -2q-8 0 -13 0.5t-9 1.5t-7 2l11 53q4 0 8 1q10 2 23 2q8 0 13 -0.5t9 -1.5t7 -1zM684 790l-8 -2q-10 -2 -23 -2q-8 0 -13 0.5t-9 1.5t-7 2l11 53q4 0 8 1q10 2 23 2q8 0 13 -0.5t9 -1.5t7 -1zM552 549q-2 26 -2 44.5t1 31.5q1 15 2 25h-3
q-3 -10 -8 -25l-12.5 -32t-20.5 -44l-278 -545q-3 -1 -11 -2.5t-18 -1.5t-16 1.5t-9 2.5l-61 712q3 1 7 2q8 2 20 2t20 -2q4 -1 6 -2l44 -546q3 -44 3 -73q0 -17 -1 -30h3q4 13 10 30q5 14 13.5 32.5l19.5 40.5l279 546q2 1 6 2q8 2 20 2q11 0 19 -2q4 -1 5 -2l40 -546
q2 -23 2 -41.5v-32.5q0 -16 -1 -29h2q4 13 10 29q5 14 13 32.5t19 41.5l273 546q3 1 7 2t9 1.5t13 0.5q10 0 18 -2q4 -1 6 -2l-355 -712q-3 -1 -7 -2q-10 -2 -20 -2q-11 0 -19 2q-4 1 -6 2z" />
    <glyph glyph-name="Wgrave" unicode="&#x1e80;" horiz-adv-x="947" 
d="M492 899q8 10 23 17t29 6l74 -141q-13 -17 -37 -18zM552 549q-2 26 -2 44.5t1 31.5q1 15 2 25h-3q-3 -10 -8 -25l-12.5 -32t-20.5 -44l-278 -545q-3 -1 -11 -2.5t-18 -1.5t-16 1.5t-9 2.5l-61 712q3 1 7 2q8 2 20 2t20 -2q4 -1 6 -2l44 -546q3 -44 3 -73q0 -17 -1 -30h3
q4 13 10 30q5 14 13.5 32.5l19.5 40.5l279 546q2 1 6 2q8 2 20 2q11 0 19 -2q4 -1 5 -2l40 -546q2 -23 2 -41.5v-32.5q0 -16 -1 -29h2q4 13 10 29q5 14 13 32.5t19 41.5l273 546q3 1 7 2t9 1.5t13 0.5q10 0 18 -2q4 -1 6 -2l-355 -712q-3 -1 -7 -2q-10 -2 -20 -2
q-11 0 -19 2q-4 1 -6 2z" />
    <glyph glyph-name="X" unicode="X" horiz-adv-x="597" 
d="M580 716q3 1 13.5 2.5t22.5 1.5t19 -1.5t10 -2.5l-298 -344l158 -367q-4 -2 -9 -3t-10.5 -1.5t-13.5 -0.5q-10 0 -18 2q-4 1 -6 2l-141 328l-275 -328q-3 -1 -14.5 -2.5t-22.5 -1.5q-12 0 -19 1.5t-10 2.5l308 366l-147 346q3 1 8 2q10 2 25 2q9 0 17 -2q4 -1 7 -2
l131 -308l265 308v0z" />
    <glyph glyph-name="Y" unicode="Y" horiz-adv-x="614" 
d="M619 716q3 1 8 2q10 2 26 2q13 0 23 -2q4 -1 7 -2l-351 -412l-64 -300q-3 -1 -7 -2q-10 -2 -20 -2q-11 0 -19 2q-4 1 -6 2l63 299l-169 413q4 1 9 2t10.5 1.5t13.5 0.5q10 0 18 -2q4 -1 6 -2l147 -357l305 357v0z" />
    <glyph glyph-name="Yacute" unicode="&#xdd;" horiz-adv-x="614" 
d="M496 924q15 1 26 -5.5t16 -17.5l-155 -144q-23 3 -29 19zM619 716q3 1 8 2q10 2 26 2q13 0 23 -2q4 -1 7 -2l-351 -412l-64 -300q-3 -1 -7 -2q-10 -2 -20 -2q-11 0 -19 2q-4 1 -6 2l63 299l-169 413q4 1 9 2t10.5 1.5t13.5 0.5q10 0 18 -2q4 -1 6 -2l147 -357z" />
    <glyph glyph-name="Ycircumflex" unicode="&#x176;" horiz-adv-x="614" 
d="M559 795q-5 -10 -10.5 -16t-16.5 -11l-98 85l-133 -86q-9 4 -15.5 10.5t-7.5 17.5l150 104h26zM619 716q3 1 8 2q10 2 26 2q13 0 23 -2q4 -1 7 -2l-351 -412l-64 -300q-3 -1 -7 -2q-10 -2 -20 -2q-11 0 -19 2q-4 1 -6 2l63 299l-169 413q4 1 9 2t10.5 1.5t13.5 0.5
q10 0 18 -2q4 -1 6 -2l147 -357z" />
    <glyph glyph-name="Ydieresis" unicode="&#x178;" horiz-adv-x="614" 
d="M317 840q3 0 7 1q10 2 23 2q8 0 13 -0.5t9 -1.5t8 -1l-12 -53l-8 -2q-10 -2 -23 -2q-8 0 -13 0.5t-9 1.5t-7 2zM466 840q3 0 7 1q10 2 23 2q8 0 13 -0.5t9 -1.5t8 -1l-12 -53l-8 -2q-10 -2 -23 -2q-8 0 -13 0.5t-9 1.5t-7 2zM619 716q3 1 8 2q10 2 26 2q13 0 23 -2
q4 -1 7 -2l-351 -412l-64 -300q-3 -1 -7 -2q-10 -2 -20 -2q-11 0 -19 2q-4 1 -6 2l63 299l-169 413q4 1 9 2t10.5 1.5t13.5 0.5q10 0 18 -2q4 -1 6 -2l147 -357z" />
    <glyph glyph-name="Ygrave" unicode="&#x1ef2;" horiz-adv-x="614" 
d="M454 774q-13 -16 -37 -19l-94 144q8 10 23 17t29 6zM619 716q3 1 8 2q10 2 26 2q13 0 23 -2q4 -1 7 -2l-351 -412l-64 -300q-3 -1 -7 -2q-10 -2 -20 -2q-11 0 -19 2q-4 1 -6 2l63 299l-169 413q4 1 9 2t10.5 1.5t13.5 0.5q10 0 18 -2q4 -1 6 -2l147 -357z" />
    <glyph glyph-name="Z" unicode="Z" horiz-adv-x="577" 
d="M605 720q0 -2 0.5 -8t-1.5 -15t-4.5 -15.5t-4.5 -9.5l-545 -624h425q1 -2 1 -8t-2 -16q-2 -9 -4.5 -15t-4.5 -9h-485q0 3 -0.5 9t1.5 15t4.5 15t4.5 9l545 624h-385q0 3 -0.5 9t1.5 16t4.5 15.5t4.5 7.5h445z" />
    <glyph glyph-name="Zacute" unicode="&#x179;" horiz-adv-x="577" 
d="M477 924q15 1 26 -5.5t16 -17.5l-146 -135q-25 3 -29 19zM605 720q0 -2 0.5 -8t-1.5 -15t-4.5 -15.5t-4.5 -9.5l-545 -624h425q1 -2 1 -8t-2 -16q-2 -9 -4.5 -15t-4.5 -9h-485q0 3 -0.5 9t1.5 15t4.5 15t4.5 9l545 624h-385q0 3 -0.5 9t1.5 16t4.5 15.5t4.5 7.5h445z" />
    <glyph glyph-name="Zcaron" unicode="&#x17d;" horiz-adv-x="577" 
d="M533 900q8 -2 14 -10.5t7 -18.5l-149 -104h-26l-106 104q10 21 31 28l94 -86zM605 720q0 -2 0.5 -8t-1.5 -15t-4.5 -15.5t-4.5 -9.5l-545 -624h425q1 -2 1 -8t-2 -16q-2 -9 -4.5 -15t-4.5 -9h-485q0 3 -0.5 9t1.5 15t4.5 15t4.5 9l545 624h-385q0 3 -0.5 9t1.5 16
t4.5 15.5t4.5 7.5h445z" />
    <glyph glyph-name="Zdotaccent" unicode="&#x17b;" horiz-adv-x="577" 
d="M383 876l8 2t9.5 1.5t13.5 0.5t13 -0.5t9 -1.5t7 -2l-12 -54l-8 -2t-9 -1.5t-13 -0.5t-13.5 0.5t-9.5 1.5t-7 2zM605 720q0 -2 0.5 -8t-1.5 -15t-4.5 -15.5t-4.5 -9.5l-545 -624h425q1 -2 1 -8t-2 -16q-2 -9 -4.5 -15t-4.5 -9h-485q0 3 -0.5 9t1.5 15t4.5 15t4.5 9
l545 624h-385q0 3 -0.5 9t1.5 16t4.5 15.5t4.5 7.5h445z" />
    <glyph glyph-name="_0020" horiz-adv-x="0" 
 />
    <glyph glyph-name="_375" horiz-adv-x="646" 
d="M298 716q3 1 10 2.5t18 1.5t17 -1.5t9 -2.5l117 -685q-11 -20 -27 -31h-544q-13 13 -12 31zM310 657q-3 -5 -14.5 -28.5t-34.5 -61.5l-315 -521h467l-91 522q-8 35 -9 59.5t-1 29.5h-2z" />
    <glyph glyph-name="_376" horiz-adv-x="700" 
d="M257 0q-4 11 -1 25t12 25q22 16 56 44.5t68.5 70t64.5 95.5t44 120q16 79 12.5 136.5t-25 95t-58.5 55.5t-88 18t-96 -18t-82.5 -55.5t-66 -95t-44.5 -136.5q-14 -66 -7 -120t24 -95.5t39 -70t37 -44.5q5 -25 -11 -50h-231q-3 11 0 23q2 7 3.5 13t6.5 11h165q-5 7 -24 32
t-37 67.5t-27 101t7 132.5q19 92 53.5 158.5t80 109t101.5 62.5t118 20t109 -20t75 -62.5t34 -109t-13 -158.5q-11 -49 -30 -91.5t-42 -78t-47.5 -64t-46 -49t-37 -33.5l-20.5 -17h165q1 -6 1.5 -11.5t-1.5 -11.5q-2 -7 -5 -13t-5 -11h-231z" />
    <glyph glyph-name="a" unicode="a" horiz-adv-x="554" 
d="M467 524q2 1 6 2q3 1 7 1.5t10 0.5q7 0 11 -0.5t7 -1.5t5 -2l-110 -520q-2 -1 -6 -2q-8 -2 -16 -2q-5 0 -8.5 0.5t-6.5 1.5q-4 1 -6 2l13 77q-32 -42 -77.5 -66.5t-106.5 -24.5q-44 0 -76.5 15.5t-50.5 49.5t-20.5 87.5t13.5 130.5q16 76 40.5 127t56.5 81t70.5 42.5
t82.5 12.5q58 0 92.5 -24.5t50.5 -66.5zM421 327q6 29 2 58.5t-18 53t-38.5 38.5t-59.5 15q-41 0 -72.5 -12.5t-56 -40t-42.5 -71t-31 -105.5t-14 -105.5t11.5 -71t38.5 -40t67 -12.5q35 0 66.5 15t56 38.5t41 53t22.5 59.5z" />
    <glyph glyph-name="aacute" unicode="&#xe1;" horiz-adv-x="554" 
d="M410 775q14 1 25.5 -5.5t16.5 -17.5l-156 -144q-23 3 -29 19zM467 524q2 1 6 2q3 1 7 1.5t10 0.5q7 0 11 -0.5t7 -1.5t5 -2l-110 -520q-2 -1 -6 -2q-8 -2 -16 -2q-5 0 -8.5 0.5t-6.5 1.5q-4 1 -6 2l13 77q-32 -42 -77.5 -66.5t-106.5 -24.5q-44 0 -76.5 15.5t-50.5 49.5
t-20.5 87.5t13.5 130.5q16 76 40.5 127t56.5 81t70.5 42.5t82.5 12.5q58 0 92.5 -24.5t50.5 -66.5zM421 327q6 29 2 58.5t-18 53t-38.5 38.5t-59.5 15q-41 0 -72.5 -12.5t-56 -40t-42.5 -71t-31 -105.5t-14 -105.5t11.5 -71t38.5 -40t67 -12.5q35 0 66.5 15t56 38.5t41 53
t22.5 59.5z" />
    <glyph glyph-name="abreve" unicode="&#x103;" horiz-adv-x="554" 
d="M357 671q25 0 47 6t38 14q18 9 34 20q17 -7 19 -30q-15 -16 -35 -27q-17 -10 -43 -18t-60 -8t-58.5 8.5t-41.5 19.5q-19 12 -33 28q11 20 30 27q11 -11 26 -20q13 -8 32 -14t45 -6zM467 524q2 1 6 2q3 1 7 1.5t10 0.5q7 0 11 -0.5t7 -1.5t5 -2l-110 -520q-2 -1 -6 -2
q-8 -2 -16 -2q-5 0 -8.5 0.5t-6.5 1.5q-4 1 -6 2l13 77q-32 -42 -77.5 -66.5t-106.5 -24.5q-44 0 -76.5 15.5t-50.5 49.5t-20.5 87.5t13.5 130.5q16 76 40.5 127t56.5 81t70.5 42.5t82.5 12.5q58 0 92.5 -24.5t50.5 -66.5zM421 327q6 29 2 58.5t-18 53t-38.5 38.5t-59.5 15
q-41 0 -72.5 -12.5t-56 -40t-42.5 -71t-31 -105.5t-14 -105.5t11.5 -71t38.5 -40t67 -12.5q35 0 66.5 15t56 38.5t41 53t22.5 59.5z" />
    <glyph glyph-name="acircumflex" unicode="&#xe2;" horiz-adv-x="554" 
d="M485 627q-5 -8 -12 -15.5t-17 -9.5l-92 83l-132 -84q-19 8 -22 26l147 103h25zM467 524q2 1 6 2q3 1 7 1.5t10 0.5q7 0 11 -0.5t7 -1.5t5 -2l-110 -520q-2 -1 -6 -2q-8 -2 -16 -2q-5 0 -8.5 0.5t-6.5 1.5q-4 1 -6 2l13 77q-32 -42 -77.5 -66.5t-106.5 -24.5
q-44 0 -76.5 15.5t-50.5 49.5t-20.5 87.5t13.5 130.5q16 76 40.5 127t56.5 81t70.5 42.5t82.5 12.5q58 0 92.5 -24.5t50.5 -66.5zM421 327q6 29 2 58.5t-18 53t-38.5 38.5t-59.5 15q-41 0 -72.5 -12.5t-56 -40t-42.5 -71t-31 -105.5t-14 -105.5t11.5 -71t38.5 -40t67 -12.5
q35 0 66.5 15t56 38.5t41 53t22.5 59.5z" />
    <glyph glyph-name="acute" unicode="&#xb4;" horiz-adv-x="224" 
d="M46 641q-23 3 -29 19l143 148q14 1 25.5 -5.5t16.5 -17.5z" />
    <glyph glyph-name="adieresis" unicode="&#xe4;" horiz-adv-x="554" 
d="M261 704q3 0 7 1q10 2 23 2q8 0 13 -0.5t9 -1.5t8 -1l-12 -53l-8 -2q-10 -2 -23 -2q-8 0 -13 0.5t-9 1.5t-7 2zM410 704q3 0 7 1q10 2 23 2q8 0 13 -0.5t9 -1.5t8 -1l-12 -53l-8 -2q-10 -2 -23 -2q-8 0 -13 0.5t-9 1.5t-7 2zM467 524q2 1 6 2q3 1 7 1.5t10 0.5
q7 0 11 -0.5t7 -1.5t5 -2l-110 -520q-2 -1 -6 -2q-8 -2 -16 -2q-5 0 -8.5 0.5t-6.5 1.5q-4 1 -6 2l13 77q-32 -42 -77.5 -66.5t-106.5 -24.5q-44 0 -76.5 15.5t-50.5 49.5t-20.5 87.5t13.5 130.5q16 76 40.5 127t56.5 81t70.5 42.5t82.5 12.5q58 0 92.5 -24.5t50.5 -66.5z
M421 327q6 29 2 58.5t-18 53t-38.5 38.5t-59.5 15q-41 0 -72.5 -12.5t-56 -40t-42.5 -71t-31 -105.5t-14 -105.5t11.5 -71t38.5 -40t67 -12.5q35 0 66.5 15t56 38.5t41 53t22.5 59.5z" />
    <glyph glyph-name="ae" unicode="&#xe6;" horiz-adv-x="805" 
d="M631 536q85 0 116.5 -52t13.5 -136q-5 -20 -10 -37.5t-10 -29.5q-5 -15 -11 -26h-298q-19 -113 5 -166.5t95 -53.5q28 0 50.5 5.5t39.5 12.5q19 8 34 18q17 -12 12 -36q-17 -13 -40 -23q-20 -8 -48 -15t-64 -7q-53 0 -82 22.5t-40 62.5l-15 -71q-2 -1 -6 -2q-8 -2 -14 -2
q-5 0 -8.5 0.5t-6.5 1.5q-4 1 -6 2l9 68q-31 -42 -69 -62t-94 -20q-41 0 -72 15.5t-49 50t-21 88t13 130.5q16 76 41 126.5t57 80.5t69 42.5t78 12.5q54 0 83.5 -19t44.5 -61l17 68q2 1 6 2q3 1 7 1.5t10 0.5q10 0 16 -2q3 -1 5 -2l-14 -69q63 81 156 81zM696 296q2 5 5 14
q2 7 5.5 18t6.5 26q6 28 5.5 53t-10 44t-30 30.5t-53.5 11.5q-29 0 -56 -10.5t-51 -34t-44 -61t-33 -91.5h255zM401 327q6 29 3.5 58.5t-14 53t-33 38.5t-54.5 15q-74 0 -123 -52.5t-75 -176.5t-0.5 -176.5t99.5 -52.5q35 0 64 15t50.5 38.5t35.5 53t20 59.5z" />
    <glyph glyph-name="aeacute" unicode="&#x1fd;" horiz-adv-x="805" 
d="M448 608q-23 3 -29 19l143 148q14 1 25.5 -5.5t16.5 -17.5zM631 536q85 0 116.5 -52t13.5 -136q-5 -20 -10 -37.5t-10 -29.5q-5 -15 -11 -26h-298q-19 -113 5 -166.5t95 -53.5q28 0 50.5 5.5t39.5 12.5q19 8 34 18q17 -12 12 -36q-17 -13 -40 -23q-20 -8 -48 -15t-64 -7
q-53 0 -82 22.5t-40 62.5l-15 -71q-2 -1 -6 -2q-8 -2 -14 -2q-5 0 -8.5 0.5t-6.5 1.5q-4 1 -6 2l9 68q-31 -42 -69 -62t-94 -20q-41 0 -72 15.5t-49 50t-21 88t13 130.5q16 76 41 126.5t57 80.5t69 42.5t78 12.5q54 0 83.5 -19t44.5 -61l17 68q2 1 6 2q3 1 7 1.5t10 0.5
q10 0 16 -2q3 -1 5 -2l-14 -69q63 81 156 81zM696 296q2 5 5 14q2 7 5.5 18t6.5 26q6 28 5.5 53t-10 44t-30 30.5t-53.5 11.5q-29 0 -56 -10.5t-51 -34t-44 -61t-33 -91.5h255zM401 327q6 29 3.5 58.5t-14 53t-33 38.5t-54.5 15q-74 0 -123 -52.5t-75 -176.5t-0.5 -176.5
t99.5 -52.5q35 0 64 15t50.5 38.5t35.5 53t20 59.5z" />
    <glyph glyph-name="agrave" unicode="&#xe0;" horiz-adv-x="554" 
d="M395 626q-13 -16 -37 -19l-94 144q8 10 22.5 17t28.5 6zM467 524q2 1 6 2q3 1 7 1.5t10 0.5q7 0 11 -0.5t7 -1.5t5 -2l-110 -520q-2 -1 -6 -2q-8 -2 -16 -2q-5 0 -8.5 0.5t-6.5 1.5q-4 1 -6 2l13 77q-32 -42 -77.5 -66.5t-106.5 -24.5q-44 0 -76.5 15.5t-50.5 49.5
t-20.5 87.5t13.5 130.5q16 76 40.5 127t56.5 81t70.5 42.5t82.5 12.5q58 0 92.5 -24.5t50.5 -66.5zM421 327q6 29 2 58.5t-18 53t-38.5 38.5t-59.5 15q-41 0 -72.5 -12.5t-56 -40t-42.5 -71t-31 -105.5t-14 -105.5t11.5 -71t38.5 -40t67 -12.5q35 0 66.5 15t56 38.5t41 53
t22.5 59.5z" />
    <glyph glyph-name="amacron" unicode="&#x101;" horiz-adv-x="554" 
d="M482 652h-249q-2 9 0.5 21t7.5 20h249q2 -9 -1 -21t-7 -20zM467 524l-19 -79q-16 42 -50.5 66.5t-92.5 24.5q-44 0 -82.5 -12.5t-70.5 -42.5t-56.5 -81t-40.5 -127q-16 -77 -13.5 -130.5t20.5 -87.5t50.5 -49.5t76.5 -15.5q61 0 106.5 24.5t77.5 66.5l-13 -77q2 -1 6 -2
q3 -1 6.5 -1.5t8.5 -0.5q8 0 16 2q4 1 6 2l110 520q-2 1 -5 2t-7 1.5t-11 0.5q-6 0 -10 -0.5t-7 -1.5q-4 -1 -6 -2zM421 327l-27 -127q-6 -30 -22.5 -59.5t-41 -53t-56 -38.5t-66.5 -15q-41 0 -67 12.5t-38.5 40t-11.5 71t14 105.5t31 105.5t42.5 71t56 40t72.5 12.5
q35 0 59.5 -15t38.5 -38.5t18 -53t-2 -58.5z" />
    <glyph glyph-name="ampersand" unicode="&#x26;" horiz-adv-x="632" 
d="M404 690q33 0 57 -10t38 -26.5t18 -38t-1 -45.5q-8 -39 -29.5 -70t-54 -57t-74 -49t-90.5 -47q17 -57 52.5 -111t87.5 -100q37 35 62 73t41 71q14 1 25 -4.5t15 -14.5q-14 -31 -42.5 -70t-72.5 -80q25 -20 53 -37t60 -31q-2 -14 -11 -26t-20 -18q-35 15 -65.5 34
t-58.5 41q-7 -6 -26 -20t-47.5 -28t-66.5 -25t-83 -11q-36 0 -68 9.5t-54 30.5t-31 53t1 77q9 42 32.5 75.5t52.5 58.5t58 42t50 26q-20 80 -3 155q17 79 66.5 126t128.5 47zM391 650q-49 0 -83.5 -32.5t-48.5 -96.5q-15 -68 0 -137q41 19 76 38.5t62 41t44.5 45.5t23.5 54
q8 40 -10.5 63.5t-63.5 23.5zM187 34q32 0 60.5 7.5t51.5 18t40.5 21.5t26.5 18q-54 49 -90 107t-55 120q-17 -9 -39.5 -23t-44.5 -34t-39.5 -46t-24.5 -58q-13 -62 18 -96.5t96 -34.5z" />
    <glyph glyph-name="aogonek" unicode="&#x105;" horiz-adv-x="556" 
d="M467 524q2 1 6 2q3 1 7 1.5t10 0.5q7 0 11 -0.5t7 -1.5t5 -2l-110 -520l-2 -1q-28 -15 -56.5 -36t-51 -45t-36 -48.5t-11.5 -46.5q2 -20 14 -27.5t29 -8.5q14 0 27.5 4t30.5 11q5 -5 8.5 -16t1.5 -19q-15 -9 -37 -15t-45 -6q-28 0 -50.5 12.5t-27.5 44.5q-3 27 9.5 56
t35.5 56t54 51t65 43l12 68q-32 -42 -77.5 -66.5t-106.5 -24.5q-44 0 -76.5 15.5t-50.5 49.5t-20.5 87.5t13.5 130.5q16 76 40.5 127t56.5 81t70.5 42.5t82.5 12.5q58 0 92.5 -24.5t50.5 -66.5zM421 327q6 29 2 58.5t-18 53t-38.5 38.5t-59.5 15q-41 0 -72.5 -12.5t-56 -40
t-42.5 -71t-31 -105.5t-14 -105.5t11.5 -71t38.5 -40t67 -12.5q35 0 66.5 15t56 38.5t41 53t22.5 59.5z" />
    <glyph glyph-name="approxequal" unicode="&#x2248;" horiz-adv-x="541" 
d="M203 370q-18 0 -33.5 -5.5t-26.5 -12.5q-13 -8 -24 -18q-11 2 -16.5 10t-5.5 19q13 15 31 26q15 10 37 18t51 8q25 0 42 -8t32 -17.5t31.5 -17.5t40.5 -8q18 0 33.5 5.5t26.5 12.5q13 8 24 18q22 -4 24 -28q-13 -16 -31 -27q-15 -10 -38 -18t-52 -8q-25 0 -42 8t-32 17.5
t-31.5 17.5t-40.5 8zM168 207q-18 0 -33.5 -5.5t-26.5 -12.5q-13 -8 -24 -18q-11 2 -16.5 10t-5.5 19q13 15 31 26q15 10 37.5 18t51.5 8q25 0 42 -8t32 -17.5t31.5 -17.5t40.5 -8q18 0 33 5.5t26 12.5q13 8 24 18q12 -2 17.5 -9.5t6.5 -18.5q-13 -16 -31 -27
q-15 -10 -38 -18t-52 -8q-25 0 -42 8t-32 17.5t-31.5 17.5t-40.5 8z" />
    <glyph glyph-name="aring" unicode="&#xe5;" horiz-adv-x="554" 
d="M254 697q11 48 48.5 72.5t78.5 24.5q20 0 38 -6t30.5 -18.5t17.5 -30.5t0 -42q-10 -48 -47 -73t-82 -25t-69.5 25t-14.5 73zM429 697q5 26 -8 44.5t-48 18.5q-34 0 -55 -19t-26 -44t7.5 -44.5t46.5 -19.5q35 0 56.5 20t26.5 44zM467 524q2 1 6 2q3 1 7 1.5t10 0.5
q7 0 11 -0.5t7 -1.5t5 -2l-110 -520q-2 -1 -6 -2q-8 -2 -16 -2q-5 0 -8.5 0.5t-6.5 1.5q-4 1 -6 2l13 77q-32 -42 -77.5 -66.5t-106.5 -24.5q-44 0 -76.5 15.5t-50.5 49.5t-20.5 87.5t13.5 130.5q16 76 40.5 127t56.5 81t70.5 42.5t82.5 12.5q58 0 92.5 -24.5t50.5 -66.5z
M421 327q6 29 2 58.5t-18 53t-38.5 38.5t-59.5 15q-41 0 -72.5 -12.5t-56 -40t-42.5 -71t-31 -105.5t-14 -105.5t11.5 -71t38.5 -40t67 -12.5q35 0 66.5 15t56 38.5t41 53t22.5 59.5z" />
    <glyph glyph-name="aringacute" unicode="&#x1fb;" horiz-adv-x="554" 
d="M459 930q14 1 24.5 -4t15.5 -13l-140 -106q-19 1 -27 13zM253 680q5 24 18 41.5t31 29.5t38.5 18t40.5 6t38 -6t30.5 -18t18 -29.5t0.5 -41.5q-10 -47 -47 -71.5t-82 -24.5t-70.5 24.5t-15.5 71.5zM430 680q5 24 -8 43.5t-49 19.5q-35 0 -56 -20t-26 -43t7.5 -43
t47.5 -20q36 0 57.5 20t26.5 43zM467 524q2 1 6 2q3 1 7 1.5t10 0.5q7 0 11 -0.5t7 -1.5t5 -2l-110 -520q-2 -1 -6 -2q-8 -2 -16 -2q-5 0 -8.5 0.5t-6.5 1.5q-4 1 -6 2l13 77q-32 -42 -77.5 -66.5t-106.5 -24.5q-44 0 -76.5 15.5t-50.5 49.5t-20.5 87.5t13.5 130.5
q16 76 40.5 127t56.5 81t70.5 42.5t82.5 12.5q58 0 92.5 -24.5t50.5 -66.5zM421 327q6 29 2 58.5t-18 53t-38.5 38.5t-59.5 15q-41 0 -72.5 -12.5t-56 -40t-42.5 -71t-31 -105.5t-14 -105.5t11.5 -71t38.5 -40t67 -12.5q35 0 66.5 15t56 38.5t41 53t22.5 59.5z" />
    <glyph glyph-name="arrowdown" unicode="&#x2193;" horiz-adv-x="488" 
d="M288 607q2 1 7.5 2t13.5 1t12.5 -1t6.5 -2l-95 -447l198 163q8 -3 13 -10.5t6 -15.5l-252 -208l-164 208q5 8 13 15.5t19 10.5l127 -163l95 447v0z" />
    <glyph glyph-name="arrowleft" unicode="&#x2190;" horiz-adv-x="619" 
d="M309 558q8 -3 13.5 -9.5t6.5 -16.5l-197 -162h447v-7t-2 -13q-3 -16 -7 -20h-447l128 -163q-5 -9 -13.5 -16t-17.5 -9l-164 208z" />
    <glyph glyph-name="arrowright" unicode="&#x2192;" horiz-adv-x="618" 
d="M329 142q-16 5 -21 25l198 163h-447q0 2 -0.5 7t1.5 13q4 16 8 20h447l-129 162q12 19 32 26l163 -208z" />
    <glyph glyph-name="arrowup" unicode="&#x2191;" horiz-adv-x="487" 
d="M473 402q-8 -18 -30 -26l-128 163l-95 -447q-2 -1 -7.5 -2t-13.5 -1t-12.5 1t-6.5 2l95 447l-197 -163q-18 7 -21 26l253 208z" />
    <glyph glyph-name="asciicircum" unicode="^" horiz-adv-x="510" 
d="M489 456q-2 -1 -6 -2q-8 -2 -19 -2t-19 2q-4 1 -6 2l-104 224l-197 -224q-2 -1 -6 -2q-8 -2 -20 -2t-18 2q-4 1 -5 2l230 260q2 1 6 2q8 2 20 2q11 0 19 -2q4 -1 5 -2z" />
    <glyph glyph-name="asciitilde" unicode="~" horiz-adv-x="540" 
d="M187 303q-18 0 -33.5 -5.5t-26.5 -12.5q-13 -8 -23 -18q-11 2 -16.5 10t-5.5 19q13 15 31 26q15 10 37 18t51 8q25 0 42 -8t32 -17.5t31.5 -17.5t40.5 -8q18 0 33.5 5.5t26.5 12.5q13 8 24 18q22 -4 24 -28q-13 -16 -31 -27q-15 -10 -38 -18t-52 -8q-25 0 -42 8
t-32.5 17.5t-32 17.5t-40.5 8z" />
    <glyph glyph-name="asterisk" unicode="*" horiz-adv-x="345" 
d="M237 703q19 6 33 0l-18 -87l90 28q8 -11 3 -32l-91 -27l39 -74q-6 -5 -14 -10.5t-16 -7.5l-39 72l-67 -73q-8 2 -14 7.5t-10 10.5l69 75l-78 27q5 21 17 32l78 -28z" />
    <glyph glyph-name="at" unicode="@" horiz-adv-x="915" 
d="M845 303q-21 -102 -77 -160t-137 -58q-38 0 -62 17t-28 54q-23 -31 -58 -51t-86 -20q-33 0 -59.5 10t-43.5 32.5t-22 59.5t7 91q12 55 32.5 92t46.5 59.5t57 32.5t64 10q46 0 72 -16t37 -42l12 55q2 1 6 2q8 2 16 2q9 0 17 -2q4 -1 6 -2l-53 -249q-11 -52 2 -75t47 -23
q24 0 48 10t45.5 32t39 56.5t27.5 82.5q16 76 7 139t-43.5 107.5t-92.5 69t-139 24.5q-76 0 -145.5 -25t-126 -72.5t-97 -115t-58.5 -151.5q-20 -93 -6 -160.5t52 -111t95.5 -64t125.5 -20.5q82 0 157.5 24.5t136.5 59.5q18 -8 13 -29q-78 -49 -159.5 -71.5t-165.5 -22.5
q-76 0 -139.5 24.5t-105 73.5t-56.5 123t6 174q20 93 65.5 167t109 126t142 80t163.5 28q93 0 159 -27.5t104.5 -77.5t49 -119.5t-7.5 -152.5zM328 278q-10 -47 -6.5 -77t16.5 -48t34 -25t45 -7q25 0 47 9t39 24t28.5 34.5t16.5 39.5l21 98q4 21 1.5 40.5t-13 35t-29 25
t-44.5 9.5q-24 0 -47.5 -6.5t-44 -24t-37.5 -48t-27 -79.5z" />
    <glyph glyph-name="atilde" unicode="&#xe3;" horiz-adv-x="554" 
d="M234 665q2 2 7.5 9t14 14.5t21 13.5t29.5 6q19 0 33 -5.5t26.5 -12l24 -12t26.5 -5.5q21 0 33 9.5t17 16.5q17 -5 17 -24q-1 -2 -6 -9t-13.5 -14t-21 -12.5t-28.5 -5.5q-19 0 -33.5 5.5t-27 12t-24.5 12t-26 5.5q-11 0 -20 -4.5t-16 -9.5q-8 -6 -15 -14q-9 5 -12.5 10.5
t-5.5 13.5zM467 524q2 1 6 2q3 1 7 1.5t10 0.5q7 0 11 -0.5t7 -1.5t5 -2l-110 -520q-2 -1 -6 -2q-8 -2 -16 -2q-5 0 -8.5 0.5t-6.5 1.5q-4 1 -6 2l13 77q-32 -42 -77.5 -66.5t-106.5 -24.5q-44 0 -76.5 15.5t-50.5 49.5t-20.5 87.5t13.5 130.5q16 76 40.5 127t56.5 81
t70.5 42.5t82.5 12.5q58 0 92.5 -24.5t50.5 -66.5zM421 327q6 29 2 58.5t-18 53t-38.5 38.5t-59.5 15q-41 0 -72.5 -12.5t-56 -40t-42.5 -71t-31 -105.5t-14 -105.5t11.5 -71t38.5 -40t67 -12.5q35 0 66.5 15t56 38.5t41 53t22.5 59.5z" />
    <glyph glyph-name="b" unicode="b" horiz-adv-x="557" 
d="M167 448q32 41 75.5 64.5t104.5 23.5q45 0 78 -15.5t51 -49t20.5 -87.5t-13.5 -130q-16 -77 -40.5 -127.5t-56.5 -81t-71 -43t-84 -12.5q-61 0 -95 25t-48 63l-16 -74q-2 -1 -6 -2q-8 -2 -19 -2t-19 2q-4 1 -5 2l158 742q2 1 6 2q8 2 19 2t19 -2q4 -1 6 -2zM431 263
q13 62 14 105.5t-11.5 71t-39 40t-68.5 12.5q-33 0 -63 -14.5t-54.5 -37.5t-42 -51.5t-24.5 -57.5l-28 -131q-6 -30 -2 -59.5t17.5 -53t37.5 -38.5t58 -15q42 0 74.5 12.5t57 40t43 71t31.5 105.5z" />
    <glyph glyph-name="backslash" unicode="\" horiz-adv-x="436" 
d="M340 -42q-3 -2 -7 -3q-10 -2 -21 -2q-12 0 -20 2q-4 1 -7 3l-169 787q3 1 7 2t9 2t12 1t12.5 -1t8.5 -2q4 -1 6 -2z" />
    <glyph glyph-name="bar" unicode="|" horiz-adv-x="254" 
d="M204 786q2 1 6 2q8 2 20 2q11 0 19 -2q4 -1 5 -2l-208 -979q-2 -1 -6 -2q-8 -2 -20 -2q-11 0 -19 2q-4 1 -5 2l208 979v0z" />
    <glyph glyph-name="braceleft" unicode="{" horiz-adv-x="340" 
d="M406 810q0 -2 0.5 -8t-1.5 -14t-4.5 -14t-3.5 -8h-39q-49 0 -75.5 -23.5t-36.5 -67.5l-53 -250q-7 -33 -18 -54.5t-34 -35.5q17 -14 19 -36t-5 -55l-53 -250q-10 -44 6.5 -67.5t65.5 -23.5h39q1 -2 1.5 -7t-1.5 -15t-4.5 -15t-4.5 -7h-48q-67 0 -92.5 36.5t-12.5 96.5
l58 270q4 20 -2.5 35t-29.5 15h-33q0 2 -0.5 8t1.5 14q2 9 4.5 15t4.5 8h33q23 0 35.5 15t16.5 35l58 270q13 60 53.5 96.5t107.5 36.5h48z" />
    <glyph glyph-name="braceright" unicode="}" horiz-adv-x="339" 
d="M195 810q67 0 92.5 -36.5t12.5 -96.5l-58 -270q-4 -20 2.5 -35t29.5 -15h33q0 -2 0.5 -8t-1.5 -14q-2 -9 -4.5 -15t-4.5 -8h-33q-23 0 -35.5 -15t-16.5 -35l-58 -270q-13 -60 -53.5 -96.5t-107.5 -36.5h-48v7.5t2 14.5q2 8 4 14t3 8h39q50 0 76 23.5t36 67.5l53 250
q7 33 18 54.5t34 35.5q-17 14 -19 36t5 55l53 250q10 44 -6 67.5t-66 23.5h-39q0 2 -0.5 7t1.5 14q2 11 4 16t4 7h48z" />
    <glyph glyph-name="bracketleft" unicode="[" horiz-adv-x="316" 
d="M382 810q1 -2 1 -6v-7t-2 -10q-3 -12 -6 -18q-2 -4 -3 -5h-123l-188 -888h123q1 -2 1 -6q0 -3 -0.5 -7.5t-1.5 -9.5q-3 -12 -6 -18q-2 -4 -3 -5h-173l208 980h173z" />
    <glyph glyph-name="bracketright" unicode="]" horiz-adv-x="316" 
d="M-60 -170q-1 1 -1 5v7.5t2 10.5q1 5 2.5 9.5t3.5 7.5l3 6h123l188 888h-123q-1 1 -1 5v7.5t2 10.5q2 10 6 17l3 6h173l-208 -980h-173z" />
    <glyph glyph-name="breve" unicode="&#x2d8;" horiz-adv-x="324" 
d="M286 678q-18 -16 -40 -28q-20 -11 -46.5 -19.5t-60.5 -8.5t-57.5 8.5t-37.5 19.5q-18 12 -28 28q11 20 30 27q11 -11 26 -20q13 -8 31.5 -14t44.5 -6q25 0 46.5 6t38.5 14q19 9 35 20q18 -6 18 -27z" />
    <glyph glyph-name="brokenbar" unicode="&#xa6;" horiz-adv-x="256" 
d="M205 786q2 1 6 2q8 2 19 2t19 -2q4 -1 6 -2l-93 -437q-2 -1 -6 -2q-8 -2 -20 -2q-11 0 -19 2q-4 1 -5 2zM89 244q2 1 6 2q8 2 20 2q11 0 19 -2q4 -1 5 -2l-93 -437q-2 -1 -6 -2q-8 -2 -19 -2t-19 2q-4 1 -6 2z" />
    <glyph glyph-name="bullet" unicode="&#x2022;" horiz-adv-x="299" 
d="M189 282q-5 -20 -19.5 -32t-34.5 -12q-19 0 -30 12t-6 32q5 21 20 33t34 12q20 0 30.5 -12t5.5 -33z" />
    <glyph glyph-name="c" unicode="c" horiz-adv-x="442" 
d="M318 491q-88 0 -140 -56t-76 -170q-49 -228 124 -228q23 0 41.5 3t32.5 7q16 4 28 11q8 -5 12 -16t2 -23q-15 -9 -35 -15q-17 -5 -41.5 -9.5t-56.5 -4.5q-102 0 -143 75.5t-12 209.5t95.5 197.5t168.5 63.5q30 0 52 -3.5t36 -8.5q17 -5 28 -12q-2 -11 -8.5 -21.5
t-17.5 -17.5q-10 5 -23 9q-11 3 -28 6t-39 3z" />
    <glyph glyph-name="cacute" unicode="&#x107;" horiz-adv-x="442" 
d="M281 606q-11 2 -19 9t-11 15l144 145q14 1 25.5 -5.5t16.5 -17.5zM318 491q-88 0 -140 -56t-76 -170q-49 -228 124 -228q23 0 41.5 3t32.5 7q16 4 28 11q8 -5 12 -16t2 -23q-15 -9 -35 -15q-17 -5 -41.5 -9.5t-56.5 -4.5q-102 0 -143 75.5t-12 209.5t95.5 197.5
t168.5 63.5q30 0 52 -3.5t36 -8.5q17 -5 28 -12q-2 -11 -8.5 -21.5t-17.5 -17.5q-10 5 -23 9q-11 3 -28 6t-39 3z" />
    <glyph glyph-name="caron" unicode="&#x2c7;" horiz-adv-x="404" 
d="M43 654q10 21 31 28l99 -86l133 85q8 -2 12.5 -9.5t5.5 -17.5l-149 -104h-26z" />
    <glyph glyph-name="ccaron" unicode="&#x10d;" horiz-adv-x="442" 
d="M220 698q5 10 10.5 15.5t15.5 9.5l90 -79l122 78q18 -5 20 -24l-137 -96h-23zM318 491q-88 0 -140 -56t-76 -170q-49 -228 124 -228q23 0 41.5 3t32.5 7q16 4 28 11q8 -5 12 -16t2 -23q-15 -9 -35 -15q-17 -5 -41.5 -9.5t-56.5 -4.5q-102 0 -143 75.5t-12 209.5
t95.5 197.5t168.5 63.5q30 0 52 -3.5t36 -8.5q17 -5 28 -12q-2 -11 -8.5 -21.5t-17.5 -17.5q-10 5 -23 9q-11 3 -28 6t-39 3z" />
    <glyph glyph-name="ccedilla" unicode="&#xe7;" horiz-adv-x="442" 
d="M54 275q29 134 95.5 197.5t168.5 63.5q30 0 52 -3.5t36 -8.5q17 -5 28 -12q-2 -11 -8.5 -21.5t-17.5 -17.5q-10 5 -23 9q-11 3 -28 6t-39 3q-88 0 -140 -56t-76 -170q-49 -228 124 -228q23 0 41.5 3t32.5 7q16 4 28 11q8 -5 12 -16t2 -23q-15 -8 -34 -14q-17 -5 -41 -10
t-55 -5l-24 -62q59 0 79.5 -24.5t12.5 -65.5q-11 -48 -43.5 -68t-89.5 -20q-20 0 -35 3t-26 8q-12 5 -22 12q6 18 20 28q2 -1 21 -9t49 -8q35 0 57.5 13t29.5 46q12 54 -58 54h-32l-5 10l31 85q-85 12 -117 86t-6 197z" />
    <glyph glyph-name="ccircumflex" unicode="&#x109;" horiz-adv-x="442" 
d="M465 631q-5 -9 -12.5 -16.5t-16.5 -9.5l-93 83l-133 -83q-17 5 -19 26l146 102h25zM318 491q-88 0 -140 -56t-76 -170q-49 -228 124 -228q23 0 41.5 3t32.5 7q16 4 28 11q8 -5 12 -16t2 -23q-15 -9 -35 -15q-17 -5 -41.5 -9.5t-56.5 -4.5q-102 0 -143 75.5t-12 209.5
t95.5 197.5t168.5 63.5q30 0 52 -3.5t36 -8.5q17 -5 28 -12q-2 -11 -8.5 -21.5t-17.5 -17.5q-10 5 -23 9q-11 3 -28 6t-39 3z" />
    <glyph glyph-name="cdotaccent" unicode="&#x10b;" horiz-adv-x="442" 
d="M363 649q-5 -1 -9 -2q-5 -1 -10 -1.5t-13 -0.5t-13 0.5t-9 1.5t-7 2l11 54l8 2q10 2 23 2q8 0 13 -0.5t9 -1.5l8 -2zM318 491q-88 0 -140 -56t-76 -170q-49 -228 124 -228q23 0 41.5 3t32.5 7q16 4 28 11q8 -5 12 -16t2 -23q-15 -9 -35 -15q-17 -5 -41.5 -9.5t-56.5 -4.5
q-102 0 -143 75.5t-12 209.5t95.5 197.5t168.5 63.5q30 0 52 -3.5t36 -8.5q17 -5 28 -12q-2 -11 -8.5 -21.5t-17.5 -17.5q-10 5 -23 9q-11 3 -28 6t-39 3z" />
    <glyph glyph-name="cedilla" unicode="&#xb8;" horiz-adv-x="296" 
d="M7 37l-25 -63q59 0 80 -24t12 -66q-21 -98 -136 -98q-20 0 -35 3t-26 8q-12 5 -22 12q6 18 20 28q2 -1 21.5 -9t49.5 -8q35 0 57.5 16t30.5 49q11 56 -58 56h-32l-5 10l35 91z" />
    <glyph glyph-name="cent" unicode="&#xa2;" horiz-adv-x="460" 
d="M315 627q5 2 11.5 3t14.5 1q17 0 23 -4l-24 -91q26 -2 45 -5t31 -8q14 -5 24 -11q-5 -25 -25 -38q-10 5 -23 9q-11 3 -28 6t-39 3q-88 0 -140.5 -57.5t-76.5 -171.5q-49 -227 124 -227q23 0 42 3t33 7q16 4 29 11q8 -5 10 -15.5t0 -22.5q-15 -7 -33 -13q-16 -5 -38.5 -10
t-50.5 -6l-15 -91q-4 -2 -11 -3.5t-15 -1.5t-14 1.5t-9 3.5l25 92q-90 8 -123 76.5t-6 195.5t89.5 195.5t155.5 76.5l14 92v0z" />
    <glyph glyph-name="circumflex" unicode="&#x2c6;" horiz-adv-x="396" 
d="M310 588q-5 -9 -12.5 -16.5t-17.5 -9.5l-99 85l-133 -86q-17 7 -19 27l150 105h26z" />
    <glyph glyph-name="colon" unicode=":" horiz-adv-x="224" 
d="M164 399q-4 -1 -9 -2t-10.5 -1.5t-13.5 -0.5t-13.5 0.5t-9.5 1.5l-8 2l12 56q4 1 9 2t10.5 1.5t13.5 0.5q13 0 23 -2l8 -2zM80 4q-4 -1 -9 -2t-10.5 -1.5t-13.5 -0.5t-13.5 0.5t-9.5 1.5l-8 2l12 56q4 1 9 2t10.5 1.5t13.5 0.5q13 0 23 -2l8 -2z" />
    <glyph glyph-name="comma" unicode="," horiz-adv-x="220" 
d="M-13 -87l7 7t14 17t16.5 26.5t14.5 36.5q-10 0 -16 2q-4 1 -5 2l12 56q4 1 9 2t10.5 1.5t13.5 0.5q13 0 23 -2l8 -2l-9 -40q-7 -31 -19.5 -53.5t-26.5 -37.5q-16 -18 -34 -31z" />
    <glyph glyph-name="commaaccentcomb" unicode="&#xf6c3;" horiz-adv-x="0" 
d="M-125 -87l7 7t14 17t16.5 26.5t14.5 36.5q-10 0 -16 2q-4 1 -5 2l12 56q4 1 9 2t10.5 1.5t13.5 0.5q13 0 23 -2l8 -2l-9 -40q-7 -31 -19.5 -53.5t-26.5 -37.5q-16 -18 -34 -31z" />
    <glyph glyph-name="commaaccentcomb.alt" horiz-adv-x="0" 
d="M118 704q-1 -1 -7 -6.5t-14.5 -16.5t-17 -27t-14.5 -37q6 -1 10 -1t7 -1q4 -1 6 -1l-12 -57l-8 -2q-10 -2 -24 -2t-24 2l-8 2l9 41q6 30 19 52.5t27 38.5q16 18 34 31z" />
    <glyph glyph-name="copyright" unicode="&#xa9;" horiz-adv-x="806" 
d="M339 2q-70 0 -126 26.5t-92 72.5t-49.5 107.5t1.5 131.5t54.5 131.5t95 107t123 72t137.5 26.5t126 -26.5t92 -72t49 -107t-2 -131.5t-54.5 -131.5t-95 -107.5t-122.5 -72.5t-137 -26.5zM475 639q-62 0 -121.5 -23.5t-109 -64t-85 -95t-48.5 -116.5t-1 -116.5t44 -95.5
t81.5 -64.5t111.5 -23.5t121.5 23.5t109 64.5t84.5 95.5t48 116.5t1 116.5t-43.5 95t-81 64t-111.5 23.5zM372 147q-85 0 -116 51.5t-11 148.5q43 199 212 199q25 0 43 -3.5t30 -7.5q14 -5 23 -11q-3 -18 -21 -31q-10 5 -22 9q-11 3 -25 6t-30 3q-68 0 -108 -37.5
t-59 -126.5q-18 -84 6.5 -123.5t90.5 -39.5q17 0 33.5 2.5t28.5 5.5l27 8q8 -5 9.5 -13t-0.5 -17q-13 -7 -30 -12q-14 -5 -34.5 -8t-46.5 -3z" />
    <glyph glyph-name="currency" unicode="&#xa4;" horiz-adv-x="588" 
d="M376 120q-29 -20 -62 -31.5t-68 -11.5t-63.5 11.5t-49.5 31.5l-89 -74q-2 0 -5 1q-7 2 -12 10q-6 7 -6 13q-1 3 0 5l90 74q-14 25 -19.5 56t2.5 66q7 35 25 66t44 56l-59 74l3 6q2 2 4 5.5t7 7.5q11 8 16 9q3 1 5 1l61 -74q29 20 61.5 31.5t67.5 11.5q34 0 62 -11.5
t49 -31.5l88 74q2 0 5 -1q4 -2 12 -9q3 -4 4 -7.5t2 -5.5q1 -4 1 -6l-89 -74q15 -26 20.5 -56.5t-1.5 -65.5q-8 -35 -26 -66t-44 -56l59 -74q-1 -3 -3 -6q-2 -2 -4.5 -5.5t-6.5 -6.5q-10 -9 -15 -10q-4 -1 -6 -1zM320 424q-32 0 -62.5 -12t-55.5 -32.5t-42.5 -48.5
t-24.5 -60t-1 -60t22 -48.5t41.5 -32.5t57.5 -12t62.5 12t55.5 32.5t43 48.5t25 60t1 60t-22.5 48.5t-42 32.5t-57.5 12z" />
    <glyph glyph-name="d" unicode="d" horiz-adv-x="554" 
d="M511 746q2 1 6 2q8 2 19 2t19 -2q4 -1 6 -2l-158 -742q-2 -1 -6 -2q-8 -2 -16 -2q-5 0 -8.5 0.5t-6.5 1.5q-4 1 -6 2l13 77q-32 -42 -73 -66.5t-104 -24.5q-45 0 -78.5 15.5t-53 49t-22.5 87t13 130.5q16 76 41 127t57.5 81.5t71 43t80.5 12.5q61 0 94.5 -25.5
t47.5 -62.5zM421 327q6 29 3 58.5t-16 53t-37 38.5t-60 15q-80 0 -130 -52.5t-76 -176.5q-13 -62 -13.5 -105.5t12.5 -71t40 -40t69 -12.5q36 0 66.5 15t54 38.5t39 53t21.5 59.5z" />
    <glyph glyph-name="dagger" unicode="&#x2020;" horiz-adv-x="574" 
d="M175 -109l123 545l-238 -6q-1 2 -1 6v7.5t2 9.5q1 5 2.5 9.5t3.5 7.5q2 4 3 5l235 -6l41 229q3 0 7 1q8 2 19 2q9 0 17 -2q4 -1 6 -1l-55 -229l236 6q1 -2 1 -6q0 -3 -0.5 -7t-1.5 -9q-3 -12 -6 -17l-3 -6l-233 6l-109 -545l-28 -18z" />
    <glyph glyph-name="daggerdbl" unicode="&#x2021;" horiz-adv-x="631" 
d="M536 149v-6q0 -3 -0.5 -7t-1.5 -10l-3.5 -10.5t-2.5 -6.5q-2 -4 -2 -5l-234 7l-42 -230q-3 -1 -7 -2q-3 -1 -8 -1h-11q-14 0 -18 1t-5 2l56 230l-237 -7q-1 1 -1 5v7t2 10q1 6 2.5 10t3.5 7l3 6l233 -7l24 147l39 147l-238 -6v5v7.5t2 10.5t2.5 10t2.5 7q1 3 3 5l235 -6
l41 229q3 0 7 1q8 2 19 2q10 0 18 -2q4 -1 5 -1l-55 -229l236 6q1 -1 1 -5q0 -3 -0.5 -7.5t-1.5 -9.5q-3 -12 -6 -18q-2 -4 -3 -5l-233 6l-25 -147l-38 -147z" />
    <glyph glyph-name="dcaron" unicode="&#x10f;" horiz-adv-x="566" 
d="M584 599q38 31 57 67.5t26 82.5q31 8 46 -4q-8 -45 -36 -90t-70 -70q-17 1 -23 14zM511 746q2 1 6 2q8 2 19 2t19 -2q4 -1 6 -2l-158 -742q-2 -1 -6 -2q-8 -2 -16 -2q-5 0 -8.5 0.5t-6.5 1.5q-4 1 -6 2l13 77q-32 -42 -73 -66.5t-104 -24.5q-45 0 -78.5 15.5t-53 49
t-22.5 87t13 130.5q16 76 41 127t57.5 81.5t71 43t80.5 12.5q61 0 94.5 -25.5t47.5 -62.5zM421 327q6 29 3 58.5t-16 53t-37 38.5t-60 15q-80 0 -130 -52.5t-76 -176.5q-13 -62 -13.5 -105.5t12.5 -71t40 -40t69 -12.5q36 0 66.5 15t54 38.5t39 53t21.5 59.5z" />
    <glyph glyph-name="dcroat" unicode="&#x111;" horiz-adv-x="555" 
d="M615 662q1 -1 1 -4q0 -2 -0.5 -5.5t-1.5 -8.5q-2 -5 -3 -8.5t-2 -5.5q-1 -3 -2 -4h-71l-132 -622q-2 -1 -6 -2q-8 -2 -16 -2q-5 0 -8.5 0.5t-6.5 1.5q-4 1 -6 2l11 77q-32 -42 -75.5 -66.5t-106.5 -24.5q-45 0 -78 14t-51.5 46t-21 84t13.5 129q16 76 40.5 128.5t57 84.5
t71.5 46t84 14q61 0 94.5 -23.5t47.5 -64.5l38 178h-117q-1 1 -1 4v5.5t2 8.5q1 5 2.5 8.5t2.5 5.5q1 3 2 4h117l18 84q2 1 6 2q8 2 19 2t19 -2q4 -1 6 -2l-18 -84h71zM422 327q6 29 3 58.5t-16 53t-37 38.5t-60 15q-42 0 -74.5 -12.5t-57 -40t-43 -71t-31.5 -105.5
t-13.5 -105.5t12.5 -71t40 -40t69 -12.5q36 0 66.5 15t54 38.5t39 53t21.5 59.5z" />
    <glyph glyph-name="degree" unicode="&#xb0;" horiz-adv-x="360" 
d="M122 617q5 22 17.5 43.5t31.5 39t44.5 28t55.5 10.5t50 -10.5t31.5 -27t14 -37.5t-1.5 -43q-5 -22 -17 -43.5t-30.5 -38t-43 -27t-54.5 -10.5q-32 0 -52.5 10t-32.5 26.5t-15 37t2 42.5zM334 619q3 17 1 33.5t-10 29t-23 20.5t-38 8t-41.5 -8t-33 -21t-23.5 -29.5
t-13 -33.5q-3 -17 -1 -33t10 -28.5t23.5 -20t39.5 -7.5q23 0 41.5 7.5t32 20t22.5 29t13 33.5z" />
    <glyph glyph-name="dieresis" unicode="&#xa8;" horiz-adv-x="455" 
d="M157 615l-8 -2q-10 -2 -23 -2q-8 0 -13 0.5t-9 1.5t-7 2l11 53q4 0 8 1q10 2 23 2q8 0 13 -0.5t9 -1.5t7 -1zM306 615l-8 -2q-10 -2 -23 -2q-8 0 -13 0.5t-9 1.5t-7 2l11 53q4 0 8 1q10 2 23 2q8 0 13 -0.5t9 -1.5t7 -1z" />
    <glyph glyph-name="divide" unicode="&#xf7;" horiz-adv-x="559" 
d="M336 423q-4 -1 -9 -2t-10.5 -1.5t-13.5 -0.5t-13.5 0.5t-9.5 1.5l-8 2l12 56q4 1 9 2t10.5 1.5t13.5 0.5q13 0 23 -2l8 -2zM76 269q-1 1 -1 5v6.5t2 9.5q1 8 5 16q2 3 3 5h389q1 -2 1 -5v-7t-1 -9q-4 -12 -6 -16t-3 -5h-389zM267 101l-8 -2q-10 -2 -24 -2t-24 2l-8 2
l12 56q4 1 9 2t10.5 1.5t13.5 0.5q13 0 23 -2l8 -2z" />
    <glyph glyph-name="dollar" unicode="$" horiz-adv-x="560" 
d="M356 785q3 1 7 2q8 2 19 2t19 -2q4 -1 6 -2l-31 -117q39 -1 69.5 -4t51.5 -8q25 -5 42 -11q-1 -3 -2 -8.5t-6 -13.5t-9 -12l-6 -6q-19 5 -42 9q-20 4 -47.5 7t-59.5 3q-93 0 -145 -33.5t-65 -93.5q-8 -35 4 -57.5t36 -37.5t56.5 -24l67 -18.5t66.5 -21.5t55 -32t33.5 -50
t0.5 -76q-17 -78 -79.5 -124.5t-162.5 -52.5l-21 -128q-2 -1 -6 -2q-8 -2 -19 -2q-12 0 -20 2q-4 1 -6 2l33 127q-45 0 -79.5 5.5t-58.5 11.5q-28 7 -50 17q0 3 1 8.5t5 13.5t8.5 12t6.5 6q24 -8 53 -14q25 -5 57 -9t68 -4q90 0 146.5 31t70.5 97q8 37 -3.5 61t-35.5 39.5
t-57 25t-67.5 18.5t-66.5 20.5t-55.5 30.5t-34 48t-0.5 73q16 75 76 121t158 53l19 118v0z" />
    <glyph glyph-name="dotaccent" unicode="&#x2d9;" horiz-adv-x="176" 
d="M93 607l-8 -2q-10 -2 -23 -2q-8 0 -13 0.5t-9 1.5t-7 2l11 54l8 2t9.5 1.5t13.5 0.5t13 -0.5t9 -1.5t7 -2z" />
    <glyph glyph-name="dotlessi" unicode="&#x131;" horiz-adv-x="230" 
d="M76 4q-2 -1 -6 -2q-8 -2 -20 -2q-11 0 -19 2q-4 1 -5 2l110 518q2 1 6 2q8 2 20 2q11 0 19 -2q4 -1 5 -2z" />
    <glyph glyph-name="dotlessj" unicode="&#x237;" horiz-adv-x="230" 
d="M136 522q2 1 6 2q3 1 7.5 1.5t12.5 0.5q10 0 18 -2q4 -1 6 -2l-130 -610q-17 -84 -61.5 -123t-107.5 -39q-16 0 -26.5 1t-17.5 3q-8 2 -13 5v3q0 2 -0.5 4t0.5 5q3 15 7 20q2 4 5 6q5 -1 11 -2q5 -1 12.5 -1.5t18.5 -0.5q49 0 78.5 26.5t42.5 88.5z" />
    <glyph glyph-name="e" unicode="e" horiz-adv-x="505" 
d="M99 247q-19 -107 11 -159t111 -52q29 0 54.5 5.5t43.5 13.5q21 8 38 19q7 -6 11.5 -16.5t2.5 -22.5q-18 -13 -42 -23q-20 -8 -50.5 -15t-69.5 -7q-51 0 -87.5 19.5t-56.5 57t-23 91t13 121.5q30 131 97.5 194t158.5 63q44 0 76 -14.5t51 -40.5t24.5 -61.5t-3.5 -77.5
q-5 -23 -10 -41t-10 -30q-5 -14 -10 -24h-330zM415 353q6 28 3 53t-15.5 44.5t-36 31t-59.5 11.5q-69 0 -120.5 -48.5t-78.5 -156.5h287q1 2 7.5 18.5t12.5 46.5z" />
    <glyph glyph-name="eacute" unicode="&#xe9;" horiz-adv-x="505" 
d="M288 608q-23 3 -29 19l143 148q14 1 25.5 -5.5t16.5 -17.5zM99 247q-19 -107 11 -159t111 -52q29 0 54.5 5.5t43.5 13.5q21 8 38 19q7 -6 11.5 -16.5t2.5 -22.5q-18 -13 -42 -23q-20 -8 -50.5 -15t-69.5 -7q-51 0 -87.5 19.5t-56.5 57t-23 91t13 121.5q30 131 97.5 194
t158.5 63q44 0 76 -14.5t51 -40.5t24.5 -61.5t-3.5 -77.5q-5 -23 -10 -41t-10 -30q-5 -14 -10 -24h-330zM415 353q6 28 3 53t-15.5 44.5t-36 31t-59.5 11.5q-69 0 -120.5 -48.5t-78.5 -156.5h287q1 2 7.5 18.5t12.5 46.5z" />
    <glyph glyph-name="ebreve" unicode="&#x115;" horiz-adv-x="505" 
d="M484 684q-16 -16 -36 -28q-18 -11 -43.5 -19.5t-59.5 -8.5t-58.5 8.5t-41.5 19.5q-19 12 -33 28q11 20 30 27q11 -11 26 -20q13 -8 32 -14t45 -6q25 0 47 6t38 14q18 9 34 20q20 -6 20 -27zM99 247q-19 -107 11 -159t111 -52q29 0 54.5 5.5t43.5 13.5q21 8 38 19
q7 -6 11.5 -16.5t2.5 -22.5q-18 -13 -42 -23q-20 -8 -50.5 -15t-69.5 -7q-51 0 -87.5 19.5t-56.5 57t-23 91t13 121.5q30 131 97.5 194t158.5 63q44 0 76 -14.5t51 -40.5t24.5 -61.5t-3.5 -77.5q-5 -23 -10 -41t-10 -30q-5 -14 -10 -24h-330zM415 353q6 28 3 53t-15.5 44.5
t-36 31t-59.5 11.5q-69 0 -120.5 -48.5t-78.5 -156.5h287q1 2 7.5 18.5t12.5 46.5z" />
    <glyph glyph-name="ecaron" unicode="&#x11b;" horiz-adv-x="505" 
d="M245 727l91 -82l127 81q19 -5 21 -25l-142 -99h-25l-101 99q11 20 29 26zM429 247q5 10 10 24q5 12 10 30t10 41q9 42 3.5 77.5t-24.5 61.5t-51 40.5t-76 14.5q-91 0 -158.5 -63t-97.5 -194q-16 -68 -13 -121.5t23 -91t56.5 -57t87.5 -19.5q39 0 69.5 7t50.5 15
q24 10 42 23q2 12 -2.5 22.5t-11.5 16.5q-17 -11 -38 -19q-18 -8 -43.5 -13.5t-54.5 -5.5q-81 0 -111 52t-11 159h330zM415 353q-6 -30 -12.5 -46.5t-7.5 -18.5h-287q27 108 78.5 156.5t120.5 48.5q36 0 59.5 -11.5t36 -31t15.5 -44.5t-3 -53z" />
    <glyph glyph-name="ecircumflex" unicode="&#xea;" horiz-adv-x="505" 
d="M473 628q-5 -8 -12 -15.5t-17 -9.5l-93 83l-129 -84q-20 8 -23 26l146 103h25zM99 247q-19 -107 11 -159t111 -52q29 0 54.5 5.5t43.5 13.5q21 8 38 19q7 -6 11.5 -16.5t2.5 -22.5q-18 -13 -42 -23q-20 -8 -50.5 -15t-69.5 -7q-51 0 -87.5 19.5t-56.5 57t-23 91t13 121.5
q30 131 97.5 194t158.5 63q44 0 76 -14.5t51 -40.5t24.5 -61.5t-3.5 -77.5q-5 -23 -10 -41t-10 -30q-5 -14 -10 -24h-330zM415 353q6 28 3 53t-15.5 44.5t-36 31t-59.5 11.5q-69 0 -120.5 -48.5t-78.5 -156.5h287q1 2 7.5 18.5t12.5 46.5z" />
    <glyph glyph-name="edieresis" unicode="&#xeb;" horiz-adv-x="505" 
d="M295 638l-8 -2q-10 -2 -23 -2q-8 0 -13 0.5t-9 1.5t-7 2l11 53q3 0 7 1q10 2 23 2q8 0 13 -0.5t9 -1.5t8 -1zM444 638l-8 -2q-10 -2 -23 -2q-8 0 -13 0.5t-9 1.5t-7 2l11 53q3 0 7 1q10 2 23 2q8 0 13 -0.5t9 -1.5t8 -1zM99 247q-19 -107 11 -159t111 -52q29 0 54.5 5.5
t43.5 13.5q21 8 38 19q7 -6 11.5 -16.5t2.5 -22.5q-18 -13 -42 -23q-20 -8 -50.5 -15t-69.5 -7q-51 0 -87.5 19.5t-56.5 57t-23 91t13 121.5q30 131 97.5 194t158.5 63q44 0 76 -14.5t51 -40.5t24.5 -61.5t-3.5 -77.5q-5 -23 -10 -41t-10 -30q-5 -14 -10 -24h-330zM415 353
q6 28 3 53t-15.5 44.5t-36 31t-59.5 11.5q-69 0 -120.5 -48.5t-78.5 -156.5h287q1 2 7.5 18.5t12.5 46.5z" />
    <glyph glyph-name="edotaccent" unicode="&#x117;" horiz-adv-x="505" 
d="M371 647l-8 -2t-9 -1.5t-13 -0.5t-13.5 0.5t-9.5 1.5t-7 2l12 54l8 2t9.5 1.5t13.5 0.5t13 -0.5t9 -1.5t7 -2zM99 247q-19 -107 11 -159t111 -52q29 0 54.5 5.5t43.5 13.5q21 8 38 19q7 -6 11.5 -16.5t2.5 -22.5q-18 -13 -42 -23q-20 -8 -50.5 -15t-69.5 -7
q-51 0 -87.5 19.5t-56.5 57t-23 91t13 121.5q30 131 97.5 194t158.5 63q44 0 76 -14.5t51 -40.5t24.5 -61.5t-3.5 -77.5q-5 -23 -10 -41t-10 -30q-5 -14 -10 -24h-330zM415 353q6 28 3 53t-15.5 44.5t-36 31t-59.5 11.5q-69 0 -120.5 -48.5t-78.5 -156.5h287q1 2 7.5 18.5
t12.5 46.5z" />
    <glyph glyph-name="egrave" unicode="&#xe8;" horiz-adv-x="505" 
d="M258 752q8 10 23 17t29 6l79 -148q-13 -16 -37 -19zM99 247q-19 -107 11 -159t111 -52q29 0 54.5 5.5t43.5 13.5q21 8 38 19q7 -6 11.5 -16.5t2.5 -22.5q-18 -13 -42 -23q-20 -8 -50.5 -15t-69.5 -7q-51 0 -87.5 19.5t-56.5 57t-23 91t13 121.5q30 131 97.5 194t158.5 63
q44 0 76 -14.5t51 -40.5t24.5 -61.5t-3.5 -77.5q-5 -23 -10 -41t-10 -30q-5 -14 -10 -24h-330zM415 353q6 28 3 53t-15.5 44.5t-36 31t-59.5 11.5q-69 0 -120.5 -48.5t-78.5 -156.5h287q1 2 7.5 18.5t12.5 46.5z" />
    <glyph glyph-name="eight" unicode="8" horiz-adv-x="584" 
d="M372 690q93 0 137 -47.5t29 -123.5q-7 -36 -24.5 -64t-39 -49t-44.5 -35.5t-41 -23.5q25 -14 46.5 -32.5t35.5 -41.5t19 -52.5t-3 -66.5q-17 -79 -85 -121.5t-180 -42.5q-54 0 -92.5 14.5t-61.5 39t-31 57.5t0 70q9 42 31.5 75t49.5 57t54.5 40.5t46.5 26.5
q-21 12 -38.5 28.5t-29 37t-15.5 46t3 56.5q15 73 78 112.5t155 39.5zM190 533q-8 -36 3 -60.5t33.5 -43.5t53.5 -33l63 -29q16 9 38 22.5t43 33.5t38 45.5t24 58.5q12 57 -21.5 88.5t-102.5 31.5t-115 -31t-57 -83zM235 34q84 0 136.5 36.5t64.5 92.5q9 40 -4.5 68t-40 48
t-61 35.5t-68.5 32.5q-12 -6 -37.5 -21t-53 -38t-51 -54t-31.5 -70q-12 -56 22.5 -93t123.5 -37z" />
    <glyph glyph-name="eight.denom" horiz-adv-x="323" 
d="M45 265q8 37 40 60t86 23q50 0 74 -21.5t15 -61.5q-7 -33 -28 -54.5t-47 -35.5q25 -14 40.5 -34t8.5 -54q-9 -44 -45 -68t-92 -24q-54 0 -82.5 23t-18.5 68q8 38 33.5 62t53.5 38q-20 13 -32 31t-6 48zM225 263q12 56 -61 56q-34 0 -55.5 -14t-26.5 -38q-4 -17 1.5 -28.5
t17 -20.5t27 -16.5t32.5 -14.5q25 14 42.5 32.5t22.5 43.5zM198 85q4 19 -3 32t-20.5 23t-31 17.5t-33.5 15.5q-8 -4 -19.5 -11t-23.5 -17.5t-21.5 -24.5t-13.5 -32q-8 -33 11.5 -48t60.5 -15q34 0 60.5 14.5t33.5 45.5z" />
    <glyph glyph-name="eight.num" horiz-adv-x="322" 
d="M118 611q8 37 39.5 60t85.5 23q50 0 74 -21.5t16 -61.5q-8 -33 -28.5 -54.5t-46.5 -35.5q25 -14 40.5 -34t8.5 -54q-9 -44 -45.5 -68t-92.5 -24q-54 0 -82 23t-18 68q8 38 33.5 62t53.5 38q-20 13 -32.5 31t-5.5 48zM297 609q12 56 -61 56q-34 0 -55.5 -14t-26.5 -38
q-3 -17 2.5 -28.5t17 -20.5t27 -16.5t31.5 -14.5q25 14 42.5 32.5t22.5 43.5zM271 431q4 19 -3.5 32t-21 23t-31 17.5t-33.5 15.5q-8 -4 -19.5 -11t-23.5 -17.5t-21.5 -24.5t-13.5 -32q-7 -33 12.5 -48t60.5 -15q34 0 60.5 14.5t33.5 45.5z" />
    <glyph glyph-name="eightinferior" unicode="&#x2088;" horiz-adv-x="323" 
d="M25 169q8 37 40 60t86 23q50 0 73.5 -21.5t15.5 -61.5q-7 -33 -28 -54.5t-47 -35.5q25 -14 40.5 -34t8.5 -54q-9 -44 -45.5 -68t-92.5 -24q-54 0 -82 23t-18 68q8 38 33.5 62t53.5 38q-20 13 -32.5 31t-5.5 48zM204 167q12 56 -61 56q-34 0 -55.5 -14t-26.5 -38
q-3 -17 2.5 -28.5t17 -20.5t27 -16.5t31.5 -14.5q25 14 42.5 32.5t22.5 43.5zM178 -11q4 19 -3.5 32t-21 23t-31 17.5t-33.5 15.5q-8 -4 -19.5 -11t-23.5 -17.5t-21.5 -24.5t-13.5 -32q-7 -33 12.5 -48t60.5 -15q34 0 60.5 14.5t33.5 45.5z" />
    <glyph glyph-name="ellipsis" unicode="&#x2026;" horiz-adv-x="546" 
d="M81 4q-4 -1 -9 -2t-10.5 -1.5t-13.5 -0.5t-13.5 0.5t-9.5 1.5l-8 2l12 56q4 1 9 2t10.5 1.5t13.5 0.5q13 0 23 -2l8 -2zM244 4q-4 -1 -9 -2t-10.5 -1.5t-13.5 -0.5t-13.5 0.5t-9.5 1.5t-7 2l12 56l8 2q10 2 24 2q13 0 23 -2l8 -2zM407 4q-4 -1 -9 -2t-10.5 -1.5
t-13.5 -0.5t-13.5 0.5t-9.5 1.5t-7 2l12 56l8 2q10 2 24 2q13 0 23 -2l8 -2z" />
    <glyph glyph-name="emacron" unicode="&#x113;" horiz-adv-x="505" 
d="M223 646q-3 20 9 39h241q1 -8 -1.5 -19.5t-7.5 -19.5h-241zM99 247q-19 -107 11 -159t111 -52q29 0 54.5 5.5t43.5 13.5q21 8 38 19q7 -6 11.5 -16.5t2.5 -22.5q-18 -13 -42 -23q-20 -8 -50.5 -15t-69.5 -7q-51 0 -87.5 19.5t-56.5 57t-23 91t13 121.5q30 131 97.5 194
t158.5 63q44 0 76 -14.5t51 -40.5t24.5 -61.5t-3.5 -77.5q-5 -23 -10 -41t-10 -30q-5 -14 -10 -24h-330zM415 353q6 28 3 53t-15.5 44.5t-36 31t-59.5 11.5q-69 0 -120.5 -48.5t-78.5 -156.5h287q1 2 7.5 18.5t12.5 46.5z" />
    <glyph glyph-name="emdash" unicode="&#x2014;" horiz-adv-x="820" 
d="M82 269q-1 1 -1 5v6.5t2 9.5q1 8 5 16q2 3 3 5h638q1 -2 1 -5v-7t-1 -9q-4 -12 -6 -16t-3 -5h-638z" />
    <glyph glyph-name="endash" unicode="&#x2013;" horiz-adv-x="570" 
d="M82 269q-1 1 -1 5v6.5t2 9.5q1 8 5 16q2 3 3 5h388q1 -2 1 -5v-7t-1 -9q-4 -12 -6 -16t-3 -5h-388z" />
    <glyph glyph-name="eng" unicode="&#x14b;" horiz-adv-x="551" 
d="M167 445q41 43 85 67t102 24q36 0 63 -11.5t44 -32t22.5 -50t-1.5 -65.5l-91 -429q-7 -34 -17.5 -62t-27.5 -49.5t-42 -37.5t-61 -27q-15 13 -7 38q46 15 69.5 46t35.5 90l91 430q13 60 -11 88.5t-84 28.5q-48 0 -98 -29.5t-86 -83.5l-80 -376q-3 -1 -7 -2q-8 -2 -19 -2
q-7 0 -11 0.5t-7 1.5q-4 1 -6 2l110 518q3 1 7 2q8 2 19 2q10 0 18 -2q4 -1 6 -2l-16 -77v0z" />
    <glyph glyph-name="eogonek" unicode="&#x119;" horiz-adv-x="503" 
d="M99 247q-19 -107 11 -159t111 -52q29 0 54.5 5.5t43.5 13.5q21 8 38 19q7 -6 11.5 -16.5t2.5 -22.5q-2 -2 -5 -4q-2 -2 -6 -4l-8 -4q-32 -18 -64 -42.5t-57 -51.5t-39.5 -53.5t-12.5 -48.5q2 -20 14 -27.5t29 -8.5q14 0 27.5 4t30.5 11q5 -5 8.5 -16t1.5 -19
q-15 -9 -37 -15t-45 -6q-28 0 -50.5 12.5t-27.5 44.5q-3 26 6 51.5t26.5 49t41.5 45.5t50 40q-21 -3 -45 -3q-51 0 -87.5 19.5t-56.5 57t-23 91t13 121.5q30 131 97.5 194t158.5 63q44 0 76 -14.5t51 -40.5t24.5 -61.5t-3.5 -77.5q-5 -23 -10 -41t-10 -30q-5 -14 -10 -24
h-330zM415 353q6 28 3 53t-15.5 44.5t-36 31t-59.5 11.5q-69 0 -120.5 -48.5t-78.5 -156.5h287q1 2 7.5 18.5t12.5 46.5z" />
    <glyph glyph-name="equal" unicode="=" horiz-adv-x="511" 
d="M97 354q0 22 9 42h336q1 -11 -1.5 -21.5t-7.5 -20.5h-336zM61 184q-2 22 9 42h336q1 -10 -1.5 -20.5t-7.5 -21.5h-336z" />
    <glyph glyph-name="estimated" unicode="&#x212e;" horiz-adv-x="814" 
d="M626 95q-59 -51 -129 -78t-147 -27q-73 0 -131 27.5t-96 75.5t-52 112t2 137q15 73 56.5 137t99 112t127.5 75.5t143 27.5t131 -27.5t96 -75.5t52 -112t-1 -137l-5 -24h-544l-47 -218q35 -31 80.5 -49t97.5 -18q51 0 102 16.5t98 45.5h67zM668 583q-34 32 -79.5 50
t-98.5 18q-52 0 -105 -17.5t-101 -49.5l-47 -222h384z" />
    <glyph glyph-name="eth" unicode="&#xf0;" horiz-adv-x="554" 
d="M419 660q55 -57 74 -145.5t-7 -207.5q-19 -91 -46 -152t-62 -97.5t-78.5 -52t-94.5 -15.5q-97 0 -139.5 66t-12.5 207q15 70 39 118.5t56 77.5t71.5 42t84.5 13q54 0 94 -25.5t54 -65.5q1 75 -17.5 123.5t-57.5 88.5l-117 -64q-8 5 -13 13.5t-4 17.5l103 58
q-49 38 -121 53q0 22 18 37q86 -16 148 -64l85 47q16 -12 15 -34zM211 32q35 0 66.5 10.5t58 36t47 68t34.5 105.5q13 63 8.5 105t-22 67.5t-45.5 36t-60 10.5q-35 0 -65.5 -10.5t-55 -36t-44 -67.5t-32.5 -105q-14 -63 -11.5 -105.5t18 -68t42 -36t61.5 -10.5z" />
    <glyph glyph-name="exclam" unicode="!" horiz-adv-x="250" 
d="M185 716q0 1 4 2q3 1 8.5 1.5t15.5 0.5q17 0 23 -2q3 -1 3 -2l-125 -552q-2 -2 -5 -3q-6 -2 -15 -2q-8 0 -14 2q-3 1 -4 3zM91 4l-8 -2q-10 -2 -23 -2q-8 0 -13 0.5t-9 1.5t-7 2l12 56l8 2t9.5 1.5t13.5 0.5t13 -0.5t9 -1.5t7 -2z" />
    <glyph glyph-name="exclamdown" unicode="&#xa1;" horiz-adv-x="239" 
d="M132 514q4 1 9 2t10.5 1.5t13.5 0.5q13 0 23 -2l8 -2l-12 -56q-4 -1 -9 -2t-10.5 -1.5t-13.5 -0.5t-13.5 0.5t-9.5 1.5l-8 2zM111 354q2 1 5 2q2 1 6 2t9 1t8.5 -1t5.5 -2q3 -1 4 -2l-109 -552q0 -1 -4 -2q-3 -1 -8.5 -1.5t-15.5 -0.5q-17 0 -23 2q-3 1 -3 2z" />
    <glyph glyph-name="f" unicode="f" horiz-adv-x="340" 
d="M167 586q7 36 20 66.5t35 52t53.5 33.5t76.5 12q20 0 37 -2.5t29 -4.5q14 -4 26 -7q-3 -24 -22 -40q-9 2 -20 5q-10 2 -23 4t-30 2q-33 0 -55.5 -7.5t-37.5 -22.5t-23.5 -36.5t-14.5 -49.5l-14 -65h154q0 -2 0.5 -7t-1.5 -14q-2 -8 -4.5 -13.5t-3.5 -7.5h-154l-102 -480
q-2 -1 -6 -2q-8 -2 -20 -2q-11 0 -19 2q-4 1 -5 2l102 480h-70q-1 2 -1.5 7t1.5 14t4.5 14t4.5 7h70l13 60v0z" />
    <glyph glyph-name="five" unicode="5" horiz-adv-x="520" 
d="M163 381q2 0 25 3t57 3q119 0 163.5 -54.5t23.5 -153.5q-20 -95 -89.5 -142t-197.5 -47q-41 0 -68.5 4t-45.5 9q-21 6 -34 14q1 11 6.5 22t14.5 17q16 -7 36 -11q17 -4 41 -7t53 -3q100 0 156.5 36.5t73.5 114.5q7 34 5 62.5t-19.5 49.5t-51.5 32.5t-91 11.5
q-21 0 -41 -1.5t-36.5 -3t-27.5 -3.5t-14 -2l73 348h333q5 -24 -9 -47h-282z" />
    <glyph glyph-name="five.denom" horiz-adv-x="300" 
d="M77 206q38 0 67 -5t47 -17.5t25 -33t0 -51.5q-11 -54 -51.5 -79t-103.5 -25q-20 0 -35.5 2t-26.5 5q-13 4 -23 8q1 7 4.5 14.5t10.5 12.5l21 -6q22 -5 52 -5q54 0 80.5 18.5t34.5 53.5q10 45 -17.5 60.5t-92.5 15.5h-34l36 169h178q3 -17 -7 -33h-143z" />
    <glyph glyph-name="five.num" horiz-adv-x="300" 
d="M150 552q38 0 67 -5t47.5 -17.5t25 -33t0.5 -51.5q-12 -54 -52.5 -79t-103.5 -25q-20 0 -35.5 2t-26.5 5q-13 4 -22 8q2 16 14 27l22 -6q22 -5 52 -5q54 0 80.5 18.5t33.5 53.5q10 45 -17.5 60.5t-92.5 15.5h-34l36 169h178q3 -17 -7 -33h-143z" />
    <glyph glyph-name="fiveeighths" unicode="&#x215d;" horiz-adv-x="746" 
d="M628 698q1 1 5 2q6 2 16 2q7 0 13 -2q3 -1 4 -2l-537 -705q-2 -1 -5 -2q-2 -1 -6 -1h-9q-11 0 -14 1t-5 2zM335 689q3 -17 -7 -33h-143l-22 -104q38 0 67 -5t47.5 -17.5t25 -33t0.5 -51.5q-12 -54 -52.5 -79t-103.5 -25q-20 0 -35.5 2t-26.5 5q-13 4 -22 8q2 7 5 14.5
t9 12.5l22 -6q22 -5 52 -5q54 0 80.5 18.5t33.5 53.5q10 45 -17.5 60.5t-92.5 15.5h-34l36 169h178zM463 265q8 37 39.5 60t85.5 23q50 0 74 -21.5t15 -61.5q-7 -33 -28 -54.5t-47 -35.5q25 -14 40.5 -34t8.5 -54q-9 -44 -45 -68t-92 -24q-53 0 -82 23t-19 68q8 38 33.5 62
t53.5 38q-20 13 -31.5 31t-5.5 48zM642 263q12 56 -61 56q-34 0 -55.5 -14t-26.5 -38q-4 -17 1.5 -28.5t17 -20.5t27 -16.5t32.5 -14.5q25 14 42.5 32.5t22.5 43.5zM616 85q4 19 -3.5 32t-21 23t-31 17.5t-33.5 15.5q-8 -4 -19.5 -11t-23.5 -17.5t-21.5 -24.5t-13.5 -32
q-8 -33 11.5 -48t60.5 -15q34 0 61 14.5t34 45.5z" />
    <glyph glyph-name="fiveinferior" unicode="&#x2085;" horiz-adv-x="300" 
d="M56 110q38 0 67 -5t47.5 -17.5t25 -33t0.5 -51.5q-12 -54 -52.5 -79t-103.5 -25q-20 0 -35.5 2t-26.5 5q-13 4 -22 8q2 16 14 27l22 -6q22 -5 52 -5q54 0 80.5 18.5t33.5 53.5q10 45 -17 60.5t-92 15.5h-34l35 169h178q3 -17 -7 -33h-143z" />
    <glyph glyph-name="florin" unicode="&#x192;" horiz-adv-x="441" 
d="M130 12q-26 -80 -67.5 -116.5t-107.5 -36.5q-18 0 -33 2.5t-26 6.5q-13 4 -23 10q3 22 20 35q9 -3 20 -6q20 -5 48 -5q40 0 69.5 23t49.5 85l126 404h-95q-1 1 -1 5q0 2 -0.5 6.5t1.5 9.5q1 9 5 14q2 3 3 5h99l26 83q26 81 66 117.5t107 36.5q20 0 35 -3t26 -6
q12 -4 22 -8q-5 -21 -20 -35q-10 2 -21 5q-10 2 -22.5 4t-26.5 2q-42 0 -69.5 -24t-46.5 -87l-27 -85h99q1 -2 1 -5v-6t-1 -9q-2 -5 -2.5 -9t-2.5 -6q-2 -3 -3 -5h-103z" />
    <glyph glyph-name="four" unicode="4" horiz-adv-x="571" 
d="M452 676q2 1 6 2q8 2 21 2q11 0 19 -2q4 -1 6 -2l-96 -451h102q1 -1 1 -5q0 -3 -0.5 -7.5t-1.5 -9.5q-3 -10 -6 -17q-2 -4 -3 -5h-102l-37 -177q-3 -1 -7 -2q-8 -2 -19 -2q-7 0 -11 0.5t-7 1.5q-4 1 -6 2l37 177h-334q-1 1 -1 5v7t2 10q1 5 2.5 9.5t3.5 7.5q2 4 3 5z
M80 225h278l80 378z" />
    <glyph glyph-name="four.denom" horiz-adv-x="324" 
d="M248 124q2 -7 0 -15q-2 -7 -3.5 -10.5t-2.5 -5.5h-42l-19 -90q-2 -1 -6 -2t-10 -1q-13 0 -16 3l19 90h-180q-2 4 -1 12q1 4 2.5 6.5t3.5 4.5l224 224q2 1 6.5 2t12.5 1q7 0 10.5 -1t5.5 -2l-46 -216h42zM38 124h136l37 171z" />
    <glyph glyph-name="four.num" horiz-adv-x="324" 
d="M322 470q0 -2 0.5 -6t-0.5 -9q-3 -12 -7 -16h-42l-19 -90q-2 -1 -5.5 -2t-9.5 -1q-7 0 -11 1t-6 2l19 90h-180q0 2 -0.5 4.5t0.5 7.5q1 4 2.5 6.5t2.5 4.5l225 224q2 1 6 2t12 1q7 0 11 -1t6 -2l-46 -216h42zM112 470h136l36 171z" />
    <glyph glyph-name="fourinferior" unicode="&#x2084;" horiz-adv-x="324" 
d="M228 28q0 -2 0.5 -6t-0.5 -9q-3 -12 -7 -16h-42l-19 -90q-2 -1 -5.5 -2t-9.5 -1q-7 0 -11 1t-6 2l19 90h-180q0 2 -0.5 4.5t0.5 7.5q1 4 2.5 6.5t2.5 4.5l225 224q2 1 6 2t12 1q7 0 11 -1t6 -2l-46 -216h42zM18 28h136l36 171z" />
    <glyph glyph-name="fraction" unicode="&#x2044;" horiz-adv-x="127" 
d="M317 698q2 1 6 2q8 2 19 2q10 0 16 -2q3 -1 5 -2l-537 -703q-3 -2 -7 -3q-8 -2 -18 -2q-9 0 -15 2q-3 1 -5 3z" />
    <glyph glyph-name="g" unicode="g" horiz-adv-x="555" 
d="M371 79q-30 -39 -70.5 -64t-104.5 -25q-45 0 -78.5 16t-52.5 51t-22 89t13 131q16 76 40.5 126.5t56.5 79.5t70 41t82 12q32 0 56 -7.5t40.5 -20t27.5 -29t18 -33.5l16 76q2 1 6 2q8 2 20 2q11 0 19 -2q4 -1 6 -2l-105 -496q-15 -69 -35.5 -121t-53 -86.5t-79 -51.5
t-112.5 -17q-32 0 -57.5 4t-42.5 9q-20 6 -35 14q2 11 7.5 21.5t15.5 16.5q16 -6 34 -10q16 -4 37.5 -7t45.5 -3q47 0 83 10t62.5 36t46 71t33.5 114zM105 263q-13 -62 -13.5 -105.5t12.5 -71t40 -40t69 -12.5q39 0 70 16.5t53.5 40.5t36.5 52t20 52l29 135q4 24 2.5 52.5
t-13.5 52.5t-36 40.5t-64 16.5q-42 0 -74.5 -12.5t-57 -40t-43 -71t-31.5 -105.5z" />
    <glyph glyph-name="g.alt" horiz-adv-x="518" 
d="M134 210q-39 20 -52.5 64.5t-2.5 99.5q17 81 73 121.5t144 40.5q32 0 57 -6.5t44 -17.5l137 23q2 -11 -0.5 -23.5t-9.5 -23.5l-97 -7q15 -22 17 -56t-6 -71q-17 -80 -71.5 -121.5t-143.5 -41.5q-17 0 -30.5 2t-25.5 5q-14 -14 -31 -38.5t-23 -52.5q-4 -21 8 -32t34 -17.5
t51 -9.5t59 -7t57.5 -11.5t47.5 -23t29 -40t1 -63.5q-14 -66 -80.5 -109.5t-188.5 -43.5q-55 0 -91.5 13t-57.5 35t-26.5 50t1.5 58q7 28 20.5 50t30 38.5t34 28.5t31.5 20q-9 10 -13 24t0 34q8 32 26.5 59t47.5 50zM287 496q-59 0 -102.5 -33t-57.5 -99q-14 -67 15.5 -100
t88.5 -33q60 0 103 33t57 100q14 66 -15 99t-89 33zM132 -208q89 0 148 31.5t70 84.5q6 29 -3.5 47t-29.5 28t-48 14.5t-57 8l-57.5 7t-50.5 12.5q-38 -23 -64.5 -56t-34.5 -66q-11 -51 21 -81t106 -30z" />
    <glyph glyph-name="gbreve" unicode="&#x11f;" horiz-adv-x="555" 
d="M495 681q-16 -16 -36 -28q-18 -11 -43.5 -19.5t-59.5 -8.5t-58.5 8.5t-40.5 19.5q-19 12 -32 28q9 20 29 27q11 -11 26 -20q13 -8 32 -14t45 -6q25 0 47 6t38 14q18 9 34 20q19 -5 19 -27zM371 79q-30 -39 -70.5 -64t-104.5 -25q-45 0 -78.5 16t-52.5 51t-22 89t13 131
q16 76 40.5 126.5t56.5 79.5t70 41t82 12q32 0 56 -7.5t40.5 -20t27.5 -29t18 -33.5l16 76q2 1 6 2q8 2 20 2q11 0 19 -2q4 -1 6 -2l-105 -496q-15 -69 -35.5 -121t-53 -86.5t-79 -51.5t-112.5 -17q-32 0 -57.5 4t-42.5 9q-20 6 -35 14q2 11 7.5 21.5t15.5 16.5
q16 -6 34 -10q16 -4 37.5 -7t45.5 -3q47 0 83 10t62.5 36t46 71t33.5 114zM105 263q-13 -62 -13.5 -105.5t12.5 -71t40 -40t69 -12.5q39 0 70 16.5t53.5 40.5t36.5 52t20 52l29 135q4 24 2.5 52.5t-13.5 52.5t-36 40.5t-64 16.5q-42 0 -74.5 -12.5t-57 -40t-43 -71
t-31.5 -105.5z" />
    <glyph glyph-name="gbreve.alt" horiz-adv-x="518" 
d="M465 684q-16 -16 -36 -28q-18 -11 -43.5 -19.5t-59.5 -8.5t-58.5 8.5t-40.5 19.5q-19 12 -32 28q11 20 30 27q11 -11 26 -20q13 -8 32 -14t45 -6q25 0 47 6t38 14q18 9 34 20q18 -6 18 -27zM134 210q-39 20 -52.5 64.5t-2.5 99.5q17 81 73 121.5t144 40.5q32 0 57 -6.5
t44 -17.5l137 23q2 -11 -0.5 -23.5t-9.5 -23.5l-97 -7q15 -22 17 -56t-6 -71q-17 -80 -71.5 -121.5t-143.5 -41.5q-17 0 -30.5 2t-25.5 5q-14 -14 -31 -38.5t-23 -52.5q-4 -21 8 -32t34 -17.5t51 -9.5t59 -7t57.5 -11.5t47.5 -23t29 -40t1 -63.5q-14 -66 -80.5 -109.5
t-188.5 -43.5q-55 0 -91.5 13t-57.5 35t-26.5 50t1.5 58q7 28 20.5 50t30 38.5t34 28.5t31.5 20q-9 10 -13 24t0 34q8 32 26.5 59t47.5 50zM287 496q-59 0 -102.5 -33t-57.5 -99q-14 -67 15.5 -100t88.5 -33q60 0 103 33t57 100q14 66 -15 99t-89 33zM132 -208
q89 0 148 31.5t70 84.5q6 29 -3.5 47t-29.5 28t-48 14.5t-57 8l-57.5 7t-50.5 12.5q-38 -23 -64.5 -56t-34.5 -66q-11 -51 21 -81t106 -30z" />
    <glyph glyph-name="gcircumflex" unicode="&#x11d;" horiz-adv-x="555" 
d="M481 628q-5 -8 -12 -15.5t-17 -9.5l-92 83l-132 -86q-19 8 -22 28l147 103h25zM371 79q-30 -39 -70.5 -64t-104.5 -25q-45 0 -78.5 16t-52.5 51t-22 89t13 131q16 76 40.5 126.5t56.5 79.5t70 41t82 12q32 0 56 -7.5t40.5 -20t27.5 -29t18 -33.5l16 76q2 1 6 2q8 2 20 2
q11 0 19 -2q4 -1 6 -2l-105 -496q-15 -69 -35.5 -121t-53 -86.5t-79 -51.5t-112.5 -17q-32 0 -57.5 4t-42.5 9q-20 6 -35 14q2 11 7.5 21.5t15.5 16.5q16 -6 34 -10q16 -4 37.5 -7t45.5 -3q47 0 83 10t62.5 36t46 71t33.5 114zM105 263q-13 -62 -13.5 -105.5t12.5 -71
t40 -40t69 -12.5q39 0 70 16.5t53.5 40.5t36.5 52t20 52l29 135q4 24 2.5 52.5t-13.5 52.5t-36 40.5t-64 16.5q-42 0 -74.5 -12.5t-57 -40t-43 -71t-31.5 -105.5z" />
    <glyph glyph-name="gcircumflex.alt" horiz-adv-x="518" 
d="M451 628q-5 -8 -12 -15.5t-17 -9.5l-96 83l-131 -84q-16 7 -19 26l144 103h25zM134 210q-39 20 -52.5 64.5t-2.5 99.5q17 81 73 121.5t144 40.5q32 0 57 -6.5t44 -17.5l137 23q2 -11 -0.5 -23.5t-9.5 -23.5l-97 -7q15 -22 17 -56t-6 -71q-17 -80 -71.5 -121.5
t-143.5 -41.5q-17 0 -30.5 2t-25.5 5q-14 -14 -31 -38.5t-23 -52.5q-4 -21 8 -32t34 -17.5t51 -9.5t59 -7t57.5 -11.5t47.5 -23t29 -40t1 -63.5q-14 -66 -80.5 -109.5t-188.5 -43.5q-55 0 -91.5 13t-57.5 35t-26.5 50t1.5 58q7 28 20.5 50t30 38.5t34 28.5t31.5 20
q-9 10 -13 24t0 34q8 32 26.5 59t47.5 50zM287 496q-59 0 -102.5 -33t-57.5 -99q-14 -67 15.5 -100t88.5 -33q60 0 103 33t57 100q14 66 -15 99t-89 33zM132 -208q89 0 148 31.5t70 84.5q6 29 -3.5 47t-29.5 28t-48 14.5t-57 8l-57.5 7t-50.5 12.5q-38 -23 -64.5 -56
t-34.5 -66q-11 -51 21 -81t106 -30z" />
    <glyph glyph-name="gcommaaccent" unicode="&#x123;" horiz-adv-x="555" 
d="M371 79q-30 -39 -70.5 -64t-104.5 -25q-45 0 -78.5 16t-52.5 51t-22 89t13 131q16 76 40.5 126.5t56.5 79.5t70 41t82 12q32 0 56 -7.5t40.5 -20t27.5 -29t18 -33.5l16 76q2 1 6 2q8 2 20 2q11 0 19 -2q4 -1 6 -2l-105 -496q-15 -69 -35.5 -121t-53 -86.5t-79 -51.5
t-112.5 -17q-32 0 -57.5 4t-42.5 9q-20 6 -35 14q2 11 7.5 21.5t15.5 16.5q16 -6 34 -10q16 -4 37.5 -7t45.5 -3q47 0 83 10t62.5 36t46 71t33.5 114zM105 263q-13 -62 -13.5 -105.5t12.5 -71t40 -40t69 -12.5q39 0 70 16.5t53.5 40.5t36.5 52t20 52l29 135q4 24 2.5 52.5
t-13.5 52.5t-36 40.5t-64 16.5q-42 0 -74.5 -12.5t-57 -40t-43 -71t-31.5 -105.5zM404 737q-1 -1 -7 -6t-14 -15t-16 -24t-14 -32q9 0 17 -2q4 -1 5 -2l-10 -49q-4 -1 -9 -2t-10.5 -1h-13.5q-19 0 -24 1l-8 2l8 36q5 26 18 46t26 34q15 16 33 27z" />
    <glyph glyph-name="gcommaaccent.alt" horiz-adv-x="518" 
d="M134 210q-39 20 -52.5 64.5t-2.5 99.5q17 81 73 121.5t144 40.5q32 0 57 -6.5t44 -17.5l137 23q2 -11 -0.5 -23.5t-9.5 -23.5l-97 -7q15 -22 17 -56t-6 -71q-17 -80 -71.5 -121.5t-143.5 -41.5q-17 0 -30.5 2t-25.5 5q-14 -14 -31 -38.5t-23 -52.5q-4 -21 8 -32t34 -17.5
t51 -9.5t59 -7t57.5 -11.5t47.5 -23t29 -40t1 -63.5q-14 -66 -80.5 -109.5t-188.5 -43.5q-55 0 -91.5 13t-57.5 35t-26.5 50t1.5 58q7 28 20.5 50t30 38.5t34 28.5t31.5 20q-9 10 -13 24t0 34q8 32 26.5 59t47.5 50zM132 -208q89 0 148 31.5t70 84.5q6 29 -3.5 47t-29.5 28
t-48 14.5t-57 8l-57.5 7t-50.5 12.5q-38 -23 -64.5 -56t-34.5 -66q-11 -51 21 -81t106 -30zM287 496q-59 0 -102.5 -33t-57.5 -99q-14 -67 15.5 -100t88.5 -33q60 0 103 33t57 100q14 66 -15 99t-89 33zM384 737q-1 -1 -7 -6t-14 -15t-16 -24t-14 -32q9 0 17 -2q4 -1 5 -2
l-10 -49q-4 -1 -9 -2t-10.5 -1h-13.5q-19 0 -24 1l-8 2l8 36q5 26 18 46t26 34q15 16 33 27z" />
    <glyph glyph-name="gdotaccent" unicode="&#x121;" horiz-adv-x="555" 
d="M381 645l-8 -2q-10 -2 -23 -2q-8 0 -13 0.5t-9 1.5t-7 2l12 54q3 1 7 2t9.5 1.5t13.5 0.5t13 -0.5t9 -1.5l8 -2zM371 79q-30 -39 -70.5 -64t-104.5 -25q-45 0 -78.5 16t-52.5 51t-22 89t13 131q16 76 40.5 126.5t56.5 79.5t70 41t82 12q32 0 56 -7.5t40.5 -20t27.5 -29
t18 -33.5l16 76q2 1 6 2q8 2 20 2q11 0 19 -2q4 -1 6 -2l-105 -496q-15 -69 -35.5 -121t-53 -86.5t-79 -51.5t-112.5 -17q-32 0 -57.5 4t-42.5 9q-20 6 -35 14q2 11 7.5 21.5t15.5 16.5q16 -6 34 -10q16 -4 37.5 -7t45.5 -3q47 0 83 10t62.5 36t46 71t33.5 114zM105 263
q-13 -62 -13.5 -105.5t12.5 -71t40 -40t69 -12.5q39 0 70 16.5t53.5 40.5t36.5 52t20 52l29 135q4 24 2.5 52.5t-13.5 52.5t-36 40.5t-64 16.5q-42 0 -74.5 -12.5t-57 -40t-43 -71t-31.5 -105.5z" />
    <glyph glyph-name="gdotaccent.alt" horiz-adv-x="518" 
d="M353 645l-8 -2q-10 -2 -23 -2q-8 0 -13 0.5t-9 1.5t-7 2l12 54q3 1 7 2t9.5 1.5t13.5 0.5t13 -0.5t9 -1.5l8 -2zM134 210q-39 20 -52.5 64.5t-2.5 99.5q17 81 73 121.5t144 40.5q32 0 57 -6.5t44 -17.5l137 23q2 -11 -0.5 -23.5t-9.5 -23.5l-97 -7q15 -22 17 -56t-6 -71
q-17 -80 -71.5 -121.5t-143.5 -41.5q-17 0 -30.5 2t-25.5 5q-14 -14 -31 -38.5t-23 -52.5q-4 -21 8 -32t34 -17.5t51 -9.5t59 -7t57.5 -11.5t47.5 -23t29 -40t1 -63.5q-14 -66 -80.5 -109.5t-188.5 -43.5q-55 0 -91.5 13t-57.5 35t-26.5 50t1.5 58q7 28 20.5 50t30 38.5
t34 28.5t31.5 20q-9 10 -13 24t0 34q8 32 26.5 59t47.5 50zM287 496q-59 0 -102.5 -33t-57.5 -99q-14 -67 15.5 -100t88.5 -33q60 0 103 33t57 100q14 66 -15 99t-89 33zM132 -208q89 0 148 31.5t70 84.5q6 29 -3.5 47t-29.5 28t-48 14.5t-57 8l-57.5 7t-50.5 12.5
q-38 -23 -64.5 -56t-34.5 -66q-11 -51 21 -81t106 -30z" />
    <glyph glyph-name="germandbls" unicode="&#xdf;" horiz-adv-x="570" 
d="M140 556q21 100 80 147t156 47q48 0 80.5 -14.5t50.5 -38.5t23 -55t-2 -63q-4 -20 -10.5 -36.5t-13 -29t-11.5 -20.5t-6 -10q-34 -1 -62 -12q-24 -9 -46.5 -28.5t-30.5 -54.5q-6 -27 4.5 -46.5t29 -35t40 -31.5t39 -36.5t26 -49t-0.5 -69.5q-14 -66 -62 -98t-126 -32
q-26 0 -44.5 2.5t-30.5 6.5q-14 4 -23 9q1 11 6 22t13 17q13 -5 36.5 -9.5t43.5 -4.5q63 0 96.5 27.5t41.5 68.5q7 34 -2.5 57t-27 41t-39.5 33t-40 33t-27.5 42t-1.5 59q9 44 34 68t51 36q31 14 68 18q2 2 10 19t13 43q5 25 2.5 48.5t-14.5 41.5t-34.5 28.5t-57.5 10.5
q-81 0 -123.5 -39.5t-57.5 -111.5l-117 -552q-2 -1 -6 -2q-8 -2 -20 -2q-11 0 -19 2q-4 1 -5 2z" />
    <glyph glyph-name="grave" unicode="`" horiz-adv-x="238" 
d="M58 785q8 10 23 17t29 6l79 -148q-13 -16 -37 -19z" />
    <glyph glyph-name="greater" unicode="&#x3e;" horiz-adv-x="464" 
d="M45 116q-1 2 -1 6v7t2 10q1 6 2 10t3 7l3 6l307 127l-252 129q-1 2 -1 6v7t2 10q1 6 2 10t3 7t3 5l289 -147q1 -3 1 -7t-0.5 -8.5t-1.5 -10.5q-2 -6 -3.5 -11t-3.5 -9t-3 -7z" />
    <glyph glyph-name="greaterequal" unicode="&#x2265;" horiz-adv-x="469" 
d="M72 226q-1 2 -1 6v7t2 10q1 6 2.5 10t3.5 7l3 6l269 97l-228 99q-1 2 -1 6v7t2 10q2 10 6 17q2 3 3 5l269 -117q1 -3 1 -7t-0.5 -8.5t-1.5 -10.5q-2 -6 -3.5 -11t-3.5 -9t-3 -7zM49 119q-1 1 -1 5v6.5t2 9.5q1 8 5 16q2 3 3 5h294q1 -2 1 -5v-7t-1 -9q-3 -11 -6 -16
q-2 -3 -3 -5h-294z" />
    <glyph glyph-name="guillemotleft" unicode="&#xab;" horiz-adv-x="495" 
d="M307 509q8 -5 10.5 -14.5t0.5 -19.5l-227 -205l140 -206q-3 -11 -9.5 -20t-16.5 -14l-159 218q-1 2 -1 6q0 3 -0.5 6.5t1.5 8.5q1 5 2.5 9t3.5 7l3 6zM454 489q7 -5 9.5 -14t0.5 -19l-204 -186l125 -187q-3 -11 -9.5 -19.5t-14.5 -13.5l-146 199q-1 2 -1 5v6t2 9
q1 8 5 16q2 3 3 5z" />
    <glyph glyph-name="guillemotright" unicode="&#xbb;" horiz-adv-x="495" 
d="M434 291q1 -2 1 -6q0 -3 -0.5 -7t-1.5 -9q-2 -5 -2.5 -8.5t-2.5 -6.5l-3 -6l-253 -218q-13 12 -10 34l226 206l-139 205q7 22 25 34zM265 290v-5q0 -3 -0.5 -7t-1.5 -9q-2 -5 -3 -9t-2 -6q-1 -3 -2 -5l-230 -199q-7 5 -9.5 13.5t-0.5 19.5l204 187l-125 186q3 10 9.5 19
t14.5 14z" />
    <glyph glyph-name="guilsinglleft" unicode="&#x2039;" horiz-adv-x="340" 
d="M307 509q8 -5 10.5 -14.5t0.5 -19.5l-227 -205l140 -206q-3 -11 -9.5 -20t-16.5 -14l-159 218q-1 2 -1 6q0 3 -0.5 6.5t1.5 8.5q1 5 2.5 9t3.5 7l3 6z" />
    <glyph glyph-name="guilsinglright" unicode="&#x203a;" horiz-adv-x="339" 
d="M279 291q1 -2 1 -6q0 -3 -0.5 -7t-1.5 -9q-2 -5 -2.5 -8.5t-2.5 -6.5l-3 -6l-253 -218q-7 5 -9.5 14t-0.5 20l226 206l-139 205q3 10 9.5 19.5t15.5 14.5z" />
    <glyph glyph-name="h" unicode="h" horiz-adv-x="551" 
d="M403 4q-3 -1 -7 -2q-8 -2 -19 -2t-19 2q-4 1 -5 2l79 372q13 60 -11 88.5t-84 28.5q-48 0 -98 -29.5t-86 -83.5l-80 -376q-3 -1 -7 -2q-8 -2 -19 -2q-7 0 -11 0.5t-7 1.5q-4 1 -6 2l158 742q2 1 6 2q8 2 19 2t19 -2q4 -1 6 -2l-64 -297q39 43 85.5 65t104.5 22
q72 0 107 -42.5t19 -116.5z" />
    <glyph glyph-name="hbar" unicode="&#x127;" horiz-adv-x="551" 
d="M167 449q39 43 85.5 65t104.5 22q72 0 107 -42.5t19 -116.5l-80 -373q-3 -1 -7 -2q-8 -2 -19 -2t-19 2q-4 1 -5 2l79 372q13 60 -11 88.5t-84 28.5q-48 0 -98 -29.5t-86 -83.5l-80 -376q-3 -1 -7 -2q-8 -2 -19 -2q-7 0 -11 0.5t-7 1.5q-4 1 -6 2l132 621h-71
q-2 8 0.5 18.5t7.5 18.5h71l18 84q2 1 6 2q8 2 19 2t19 -2q4 -1 6 -2l-18 -84h153q2 -8 -0.5 -18t-7.5 -19h-153l-38 -176v0z" />
    <glyph glyph-name="hcircumflex" unicode="&#x125;" horiz-adv-x="551" 
d="M356 791q-5 -10 -12.5 -17t-16.5 -9l-95 82l-127 -82q-18 5 -19 26l135 100h25zM403 4q-3 -1 -7 -2q-8 -2 -19 -2t-19 2q-4 1 -5 2l79 372q13 60 -11 88.5t-84 28.5q-48 0 -98 -29.5t-86 -83.5l-80 -376q-3 -1 -7 -2q-8 -2 -19 -2q-7 0 -11 0.5t-7 1.5q-4 1 -6 2l158 742
q2 1 6 2q8 2 19 2t19 -2q4 -1 6 -2l-64 -297q39 43 85.5 65t104.5 22q72 0 107 -42.5t19 -116.5z" />
    <glyph glyph-name="hungarumlaut" unicode="&#x2dd;" horiz-adv-x="386" 
d="M44 641q-23 3 -29 19l138 148q16 1 28.5 -5.5t18.5 -17.5zM197 641q-21 3 -29 19l139 148q16 1 28.5 -5.5t17.5 -17.5z" />
    <glyph glyph-name="hyphen" unicode="-" horiz-adv-x="357" 
d="M75 269q-1 1 -1 5v6.5t2 9.5q1 8 5 16q2 3 3 5h188q1 -2 1 -5v-7t-1 -9q-4 -12 -6 -16t-3 -5h-188z" />
    <glyph glyph-name="i" unicode="i" horiz-adv-x="230" 
d="M220 650q-4 -1 -9 -2t-10.5 -1.5t-13.5 -0.5t-13.5 0.5t-9.5 1.5l-8 2l12 56q4 1 9 2t10.5 1.5t13.5 0.5q13 0 23 -2l8 -2zM76 4q-2 -1 -6 -2q-8 -2 -20 -2q-11 0 -19 2q-4 1 -5 2l110 518q2 1 6 2q8 2 20 2q11 0 19 -2q4 -1 5 -2z" />
    <glyph glyph-name="iacute" unicode="&#xed;" horiz-adv-x="230" 
d="M150 608q-23 3 -29 19l143 148q14 1 25.5 -5.5t16.5 -17.5zM76 4q-2 -1 -6 -2q-8 -2 -20 -2q-11 0 -19 2q-4 1 -5 2l110 518q2 1 6 2q8 2 20 2q11 0 19 -2q4 -1 5 -2z" />
    <glyph glyph-name="ibreve" unicode="&#x12d;" horiz-adv-x="230" 
d="M330 687q-16 -17 -36 -29q-18 -11 -43.5 -19.5t-59.5 -8.5t-58.5 8.5t-40.5 19.5q-19 12 -32 29q11 21 30 26q11 -11 26 -20q13 -8 31.5 -14t44.5 -6q25 0 46.5 6t38.5 14q19 9 35 20q18 -6 18 -26zM76 4q-2 -1 -6 -2q-8 -2 -20 -2q-11 0 -19 2q-4 1 -5 2l110 518
q2 1 6 2q8 2 20 2q11 0 19 -2q4 -1 5 -2z" />
    <glyph glyph-name="icircumflex" unicode="&#xee;" horiz-adv-x="230" 
d="M322 628q-5 -8 -12 -15.5t-17 -9.5l-96 83l-131 -84q-16 7 -19 26l140 103h25zM76 4q-2 -1 -6 -2q-8 -2 -20 -2q-11 0 -19 2q-4 1 -5 2l110 518q2 1 6 2q8 2 20 2q11 0 19 -2q4 -1 5 -2z" />
    <glyph glyph-name="idieresis" unicode="&#xef;" horiz-adv-x="230" 
d="M140 644l-8 -2t-9.5 -1h-13.5q-17 0 -22 1q-4 1 -7 2l11 53l8 2q10 2 23 2q8 0 13 -0.5t9 -1.5t7 -2zM289 644l-8 -2t-9.5 -1h-13.5q-17 0 -22 1q-4 1 -7 2l11 53l8 2q10 2 23 2q8 0 13 -0.5t9 -1.5t7 -2zM76 4q-2 -1 -6 -2q-8 -2 -20 -2q-11 0 -19 2q-4 1 -5 2l110 518
q2 1 6 2q8 2 20 2q11 0 19 -2q4 -1 5 -2z" />
    <glyph glyph-name="igrave" unicode="&#xec;" horiz-adv-x="230" 
d="M105 754q8 10 23 17t29 6l80 -148q-13 -16 -37 -19zM76 4q-2 -1 -6 -2q-8 -2 -20 -2q-11 0 -19 2q-4 1 -5 2l110 518q2 1 6 2q8 2 20 2q11 0 19 -2q4 -1 5 -2z" />
    <glyph glyph-name="ij" unicode="&#x133;" horiz-adv-x="428" 
d="M220 650q-4 -1 -9 -2t-10.5 -1.5t-13.5 -0.5t-13.5 0.5t-9.5 1.5l-8 2l12 56q4 1 9 2t10.5 1.5t13.5 0.5q13 0 23 -2l8 -2zM76 4q-2 -1 -6 -2q-8 -2 -20 -2q-11 0 -19 2q-4 1 -5 2l110 518q2 1 6 2q8 2 20 2q11 0 19 -2q4 -1 5 -2zM418 653l-8 -2q-10 -2 -24 -2t-24 2
q-4 1 -7 2l12 56q3 1 8 2q10 2 25 2q13 0 23 -2q4 -1 7 -2zM334 522q2 1 6 2q3 1 7.5 1.5t12.5 0.5q10 0 18 -2q4 -1 6 -2l-130 -610q-17 -84 -61.5 -123t-107.5 -39q-16 0 -26.5 1t-17.5 3q-8 2 -13 5v3q0 2 -0.5 4t0.5 5q3 15 7 20q2 4 5 6q5 -1 11 -2q5 -1 12.5 -1.5
t18.5 -0.5q49 0 78.5 26.5t42.5 88.5z" />
    <glyph glyph-name="imacron" unicode="&#x12b;" horiz-adv-x="230" 
d="M100 656q-1 8 0.5 17.5t7.5 19.5h180q2 -8 0 -18.5t-8 -18.5h-180zM76 4q-2 -1 -6 -2q-8 -2 -20 -2q-11 0 -19 2q-4 1 -5 2l110 518q2 1 6 2q8 2 20 2q11 0 19 -2q4 -1 5 -2z" />
    <glyph glyph-name="infinity" unicode="&#x221e;" horiz-adv-x="822" 
d="M556 160q-49 0 -78 19.5t-45 43.5q-18 27 -26 63q-22 -36 -53 -63q-26 -24 -64 -43.5t-86 -19.5q-44 0 -73 14t-45 37.5t-19.5 53t2.5 60.5t22.5 60.5t42.5 52.5t61 37.5t79 14.5q48 0 77.5 -20t45.5 -44q18 -28 26 -63q24 35 56 63q27 24 64 44t83 20q44 0 73 -14.5
t45 -37.5t19.5 -52.5t-2.5 -60.5t-22.5 -60.5t-42.5 -53t-61 -37.5t-79 -14zM212 202q41 0 73 19t55 42q26 27 47 62q-6 34 -21 61q-13 23 -37 42.5t-65 19.5q-35 0 -61 -11t-44.5 -28.5t-30 -39.5t-15.5 -44q-5 -22 -3 -44t13 -39.5t32.5 -28.5t56.5 -11zM618 448
q-42 0 -73.5 -19.5t-54.5 -42.5q-26 -27 -47 -61q6 -35 21 -62q13 -23 36.5 -42t65.5 -19q35 0 61 11t44.5 28.5t29.5 39.5t16 44q4 22 2.5 44t-12.5 39.5t-32.5 28.5t-56.5 11z" />
    <glyph glyph-name="integral" unicode="&#x222b;" horiz-adv-x="499" 
d="M283 570q15 72 56.5 111.5t107.5 39.5q42 0 70 -12t46 -24q-8 -22 -27 -32q-20 13 -43.5 20.5t-52.5 7.5q-42 -1 -71.5 -26t-41.5 -83l-131 -613q-9 -42 -25.5 -70.5t-38.5 -46.5t-48.5 -25.5t-54.5 -7.5q-34 0 -61.5 11.5t-47.5 25.5q7 21 27 32q14 -11 39 -20.5
t57 -8.5q16 0 33 5t32 17.5t26.5 33.5t18.5 54z" />
    <glyph glyph-name="iogonek" unicode="&#x12f;" horiz-adv-x="230" 
d="M159 666l8 2q10 2 24 2t24 -2l8 -2l-12 -56q-4 -1 -9 -2t-10.5 -1.5t-13.5 -0.5t-13.5 0.5t-9.5 1.5l-8 2zM135 522q2 1 6 2q8 2 20 2q11 0 19 -2q4 -1 5 -2l-112 -522q-27 -18 -46.5 -40.5t-32 -45.5t-18 -45.5t-2.5 -41.5q3 -20 16 -27.5t30 -8.5q14 0 27.5 4t30.5 11
q5 -5 8.5 -16t1.5 -19q-15 -9 -37 -15t-45 -6q-28 0 -51 12t-30 45q-5 25 1 51.5t20 52.5t34.5 49.5t43.5 43.5z" />
    <glyph glyph-name="itilde" unicode="&#x129;" horiz-adv-x="230" 
d="M239 671q8 0 16 4.5t14 10.5q7 6 12 15q6 -3 11.5 -9.5t4.5 -15.5q-3 -4 -7 -11t-11 -14t-17.5 -12.5t-25.5 -5.5t-26.5 5.5t-21.5 11.5l-20 11.5t-22 5.5q-9 0 -16.5 -4.5t-13.5 -9.5q-7 -6 -12 -14q-6 4 -11 10t-4 15q2 3 6 10t11 14t17.5 12t25.5 5t27 -5.5t22 -11.5
l19.5 -11.5t21.5 -5.5zM76 4q-2 -1 -6 -2q-8 -2 -20 -2q-11 0 -19 2q-4 1 -5 2l110 518q2 1 6 2q8 2 20 2q11 0 19 -2q4 -1 5 -2z" />
    <glyph glyph-name="j" unicode="j" horiz-adv-x="230" 
d="M220 653l-8 -2q-10 -2 -24 -2t-24 2q-4 1 -7 2l12 56q3 1 8 2q10 2 25 2q13 0 23 -2q4 -1 7 -2zM136 522q2 1 6 2q3 1 7.5 1.5t12.5 0.5q10 0 18 -2q4 -1 6 -2l-130 -610q-17 -84 -61.5 -123t-107.5 -39q-16 0 -26.5 1t-17.5 3q-8 2 -13 5v3q0 2 -0.5 4t0.5 5q3 15 7 20
q2 4 5 6q5 -1 11 -2q5 -1 12.5 -1.5t18.5 -0.5q49 0 78.5 26.5t42.5 88.5z" />
    <glyph glyph-name="jcircumflex" unicode="&#x135;" horiz-adv-x="230" 
d="M317 610q-5 -9 -12.5 -16.5t-17.5 -9.5l-96 83l-131 -84q-17 7 -18 27l141 102h26zM136 522q2 1 6 2q3 1 7.5 1.5t12.5 0.5q10 0 18 -2q4 -1 6 -2l-130 -610q-17 -84 -61.5 -123t-107.5 -39q-16 0 -26.5 1t-17.5 3q-8 2 -13 5v3q0 2 -0.5 4t0.5 5q3 15 7 20q2 4 5 6
q5 -1 11 -2q5 -1 12.5 -1.5t18.5 -0.5q49 0 78.5 26.5t42.5 88.5z" />
    <glyph glyph-name="k" unicode="k" horiz-adv-x="495" 
d="M443 522q3 1 7 2t9 1.5t13 0.5q7 0 11.5 -0.5t8.5 -1.5t7 -1l-225 -253l139 -265q-4 -2 -8 -3q-10 -2 -22 -2q-10 0 -18 2q-4 1 -6 3l-128 249h-105l-53 -250q-3 -1 -7 -2q-8 -2 -19 -2q-7 0 -11 0.5t-7 1.5q-4 1 -6 2l158 742q2 1 6 2q8 2 19 2t19 -2q4 -1 6 -2
l-96 -450h106z" />
    <glyph glyph-name="kcommaaccent" unicode="&#x137;" horiz-adv-x="495" 
d="M443 522q3 1 7 2t9 1.5t13 0.5q7 0 11.5 -0.5t8.5 -1.5t7 -1l-225 -253l139 -265q-4 -2 -8 -3q-10 -2 -22 -2q-10 0 -18 2q-4 1 -6 3l-128 249h-105l-53 -250q-3 -1 -7 -2q-8 -2 -19 -2q-7 0 -11 0.5t-7 1.5q-4 1 -6 2l158 742q2 1 6 2q8 2 19 2t19 -2q4 -1 6 -2
l-96 -450h106zM119 -192l7 7t14 17t17 26.5t15 36.5q-6 0 -10 0.5t-7 1.5q-4 1 -5 2l12 56q4 1 9 2t10.5 1.5t13.5 0.5q13 0 23 -2l8 -2l-8 -40q-7 -31 -19.5 -53.5t-26.5 -37.5q-16 -18 -34 -31z" />
    <glyph glyph-name="kgreenlandic" unicode="&#x138;" horiz-adv-x="500" 
d="M265 299l153 -294q-4 -2 -8 -3q-10 -2 -21 -2q-14 0 -22 2q-4 1 -6 2l-135 260l-121 -110l-32 -150q-9 -4 -26 -4q-16 0 -24 4l110 519q10 3 27 3q8 0 14.5 -0.5t8.5 -2.5l-61 -294l320 293q12 4 32 4q8 0 18.5 -1t16.5 -3z" />
    <glyph glyph-name="l" unicode="l" horiz-adv-x="234" 
d="M78 4q-2 -1 -6 -2q-8 -2 -20 -2q-11 0 -19 2q-4 1 -5 2l158 742q2 1 6 2q8 2 19 2t19 -2q4 -1 6 -2z" />
    <glyph glyph-name="lacute" unicode="&#x13a;" horiz-adv-x="234" 
d="M187 778q-23 3 -29 19l143 148q14 1 25.5 -5.5t16.5 -17.5zM78 4q-2 -1 -6 -2q-8 -2 -20 -2q-11 0 -19 2q-4 1 -5 2l158 742q2 1 6 2q8 2 19 2t19 -2q4 -1 6 -2z" />
    <glyph glyph-name="lcaron" unicode="&#x13e;" horiz-adv-x="241" 
d="M282 585q-17 1 -23 14q38 31 57 67.5t26 82.5q31 8 46 -4q-8 -45 -36 -90t-70 -70zM78 4q-2 -1 -6 -2q-8 -2 -20 -2q-11 0 -19 2q-4 1 -5 2l158 742q2 1 6 2q8 2 19 2t19 -2q4 -1 6 -2z" />
    <glyph glyph-name="lcommaaccent" unicode="&#x13c;" horiz-adv-x="234" 
d="M79 4q-2 -1 -6 -2q-8 -2 -20 -2q-11 0 -19 2q-4 1 -5 2l158 742q2 1 6 2q8 2 19 2t19 -2q4 -1 6 -2zM-30 -191q1 1 6.5 7t13.5 17t17 26.5t15 36.5q-10 0 -16 2q-3 1 -5 2l12 56l8 2t9.5 1.5t13.5 0.5q14 0 24 -2l8 -2l-9 -40q-7 -31 -19.5 -53.5t-26.5 -38.5
q-16 -18 -34 -31z" />
    <glyph glyph-name="ldot" unicode="&#x140;" horiz-adv-x="284" 
d="M78 4q-2 -1 -6 -2q-8 -2 -20 -2q-11 0 -19 2q-4 1 -5 2l158 742q2 1 6 2q8 2 19 2t19 -2q4 -1 6 -2zM288 308l-8 -2t-9 -1.5t-13 -0.5q-13 0 -23 2q-4 1 -7 2l11 52l8 2q10 2 23 2q8 0 13 -0.5t9 -1.5t7 -2z" />
    <glyph glyph-name="less" unicode="&#x3c;" horiz-adv-x="465" 
d="M51 263q-1 3 -1 7q0 8 3 20q1 6 2.5 10.5t3.5 8.5t3 7l351 147q1 -2 1 -5v-7t-1 -10q-3 -10 -6 -17l-3 -6l-308 -129l253 -127q1 -2 1 -6v-7t-1 -10q-3 -10 -6 -17l-3 -6z" />
    <glyph glyph-name="lessequal" unicode="&#x2264;" horiz-adv-x="472" 
d="M95 343q-1 3 -1 7q0 8 3 20q1 6 2.5 10.5t3.5 8.5t3 7l319 117q1 -2 1 -5v-7t-2 -10q-3 -10 -6 -17l-3 -6l-270 -99l229 -97q1 -2 1 -6q0 -3 -0.5 -7t-1.5 -10q-3 -10 -6 -17l-3 -6zM47 119q-1 2 -1 5v6t2 10q1 8 5 16q2 3 3 5h294q1 -2 1 -5v-7t-1 -9q-4 -12 -6 -16
t-3 -5h-294z" />
    <glyph glyph-name="logicalnot" unicode="&#xac;" horiz-adv-x="598" 
d="M485 185q-2 -1 -6 -2q-8 -2 -18 -2t-16 2q-3 1 -5 2l45 209h-403q-1 2 -1 6q0 3 -0.5 7t1.5 9q3 12 6 17l3 6h448z" />
    <glyph glyph-name="longs" unicode="&#x17f;" horiz-adv-x="265" 
d="M94 4q-2 -1 -6 -2q-8 -2 -20 -2q-11 0 -19 2q-4 1 -5 2l102 480h-74q0 21 9 42h74l13 60q7 36 20 66.5t35 52t53.5 33.5t76.5 12q20 0 37 -2.5t29 -4.5q14 -4 26 -7q-3 -24 -22 -40q-9 2 -20 5q-10 2 -23 4t-30 2q-33 0 -55.5 -7.5t-37.5 -22.5t-23.5 -36.5t-14.5 -49.5z
" />
    <glyph glyph-name="lozenge" unicode="&#x25ca;" 
d="M62 352l283 344h23l140 -344l-287 -345h-23zM344 633l-229 -282l109 -282l232 282z" />
    <glyph glyph-name="lslash" unicode="&#x142;" horiz-adv-x="304" 
d="M211 746q2 1 6 2q8 2 19 2t19 -2q4 -1 6 -2l-66 -306l93 47q2 -2 5 -5.5t5 -8.5q5 -12 3 -20l-115 -59l-83 -390q-2 -1 -6 -2q-8 -2 -20 -2q-11 0 -19 2q-4 1 -5 2l77 361l-84 -43q-3 2 -10 14q-2 7 -2 11.5t1 8.5l104 54l72 336v0z" />
    <glyph glyph-name="m" unicode="m" horiz-adv-x="842" 
d="M467 438q40 46 86 72t102 26q34 0 60 -10.5t41.5 -30.5t20.5 -49t-3 -67l-80 -375q-3 -1 -7 -2q-8 -2 -19 -2t-19 2q-4 1 -5 2l79 372q13 61 -8.5 89t-76.5 28q-44 0 -92.5 -29t-83.5 -86l-79 -374q-3 -1 -7 -2q-8 -2 -19 -2q-7 0 -11 0.5t-7 1.5q-4 1 -6 2l79 372
q13 61 -8.5 89t-76.5 28q-44 0 -91.5 -29.5t-81.5 -83.5l-80 -376q-3 -1 -7 -2q-10 -2 -20 -2q-7 0 -11 0.5t-7 1.5q-4 1 -6 2l110 518q3 1 7 2q8 2 19 2t19 -2q4 -1 6 -2l-16 -76q37 42 80.5 66t95.5 24q48 0 84 -23.5t39 -74.5z" />
    <glyph glyph-name="macron" unicode="&#xaf;" horiz-adv-x="407" 
d="M32 630q-3 9 -0.5 20t8.5 20h291q3 -8 0 -19.5t-8 -20.5h-291z" />
    <glyph glyph-name="minus" unicode="&#x2212;" horiz-adv-x="466" 
d="M87 307q-1 1 -1 5v7.5t2 10.5q2 10 6 17l3 6h288q1 -2 1 -6v-7t-2 -10q-3 -12 -6 -18q-2 -4 -3 -5h-288z" />
    <glyph glyph-name="mu" unicode="&#xb5;" horiz-adv-x="581" 
d="M475 522q2 1 6 2q8 2 20 2q11 0 19 -2q4 -1 5 -2l-110 -518q-2 -1 -6 -2q-8 -2 -20 -2q-11 0 -19 2q-4 1 -5 2l16 75q-39 -42 -86.5 -65.5t-100.5 -23.5q-48 0 -72 14.5t-35 32.5q-15 -81 -21 -133t-8 -84q-2 -37 1 -57q-12 -9 -28 -12t-30 1q-2 21 1 54q2 29 8.5 73
t20.5 107l114 536q3 1 7 2q8 2 19 2t19 -2q4 -1 5 -2l-80 -374q-5 -24 -3.5 -45t12.5 -36.5t32 -24.5t56 -9q28 0 54.5 9.5t50.5 25.5t44 36t34 41l80 377v0z" />
    <glyph glyph-name="multiply" unicode="&#xd7;" horiz-adv-x="456" 
d="M77 141q-2 1 -5 3q-7 4 -10 11q-4 3 -5.5 6.5t-2.5 5.5l-2 6l139 116l-90 116q1 3 4 6q2 2 5.5 5l8.5 7q7 7 15 11l6 3l91 -115l141 115q2 -1 5 -3t10 -11t8 -12l2 -6l-140 -116l91 -116q-1 -3 -4 -6l-5.5 -5.5t-8.5 -6.5q-7 -7 -15 -11l-6 -3l-92 115z" />
    <glyph glyph-name="n" unicode="n" 
d="M403 4q-3 -1 -7 -2q-8 -2 -19 -2t-19 2q-4 1 -5 2l79 372q13 60 -11 88.5t-84 28.5q-48 0 -98 -29.5t-86 -83.5l-80 -376q-3 -1 -7 -2q-8 -2 -19 -2q-7 0 -11 0.5t-7 1.5q-4 1 -6 2l110 518q3 1 7 2q8 2 19 2q10 0 18 -2q4 -1 6 -2l-16 -77q41 43 85 67t102 24
q36 0 63 -11.5t44 -32t22.5 -50t-1.5 -65.5z" />
    <glyph glyph-name="nacute" unicode="&#x144;" 
d="M294 608q-23 3 -29 19l143 148q14 1 25.5 -5.5t16.5 -17.5zM403 4q-3 -1 -7 -2q-8 -2 -19 -2t-19 2q-4 1 -5 2l79 372q13 60 -11 88.5t-84 28.5q-48 0 -98 -29.5t-86 -83.5l-80 -376q-3 -1 -7 -2q-8 -2 -19 -2q-7 0 -11 0.5t-7 1.5q-4 1 -6 2l110 518q3 1 7 2q8 2 19 2
q10 0 18 -2q4 -1 6 -2l-16 -77q41 43 85 67t102 24q36 0 63 -11.5t44 -32t22.5 -50t-1.5 -65.5z" />
    <glyph glyph-name="napostrophe" unicode="&#x149;" 
d="M163 588q-17 3 -21 17q39 27 62 62t34 82q33 3 45 -10q-7 -22 -18.5 -44.5t-27 -42.5t-34.5 -37t-40 -27zM403 4q-3 -1 -7 -2q-8 -2 -19 -2t-19 2q-4 1 -5 2l79 372q13 60 -11 88.5t-84 28.5q-48 0 -98 -29.5t-86 -83.5l-80 -376q-3 -1 -7 -2q-8 -2 -19 -2q-7 0 -11 0.5
t-7 1.5q-4 1 -6 2l110 518q3 1 7 2q8 2 19 2q10 0 18 -2q4 -1 6 -2l-16 -77q41 43 85 67t102 24q36 0 63 -11.5t44 -32t22.5 -50t-1.5 -65.5z" />
    <glyph glyph-name="ncaron" unicode="&#x148;" 
d="M477 729q15 -4 18 -24l-133 -97h-23l-101 97q10 19 27 25l90 -79zM403 4q-3 -1 -7 -2q-8 -2 -19 -2t-19 2q-4 1 -5 2l79 372q13 60 -11 88.5t-84 28.5q-48 0 -98 -29.5t-86 -83.5l-80 -376q-3 -1 -7 -2q-8 -2 -19 -2q-7 0 -11 0.5t-7 1.5q-4 1 -6 2l110 518q3 1 7 2
q8 2 19 2q10 0 18 -2q4 -1 6 -2l-16 -77q41 43 85 67t102 24q36 0 63 -11.5t44 -32t22.5 -50t-1.5 -65.5z" />
    <glyph glyph-name="ncommaaccent" unicode="&#x146;" 
d="M403 4q-3 -1 -7 -2q-8 -2 -19 -2t-19 2q-4 1 -5 2l79 372q13 60 -11 88.5t-84 28.5q-48 0 -98 -29.5t-86 -83.5l-80 -376q-3 -1 -7 -2q-8 -2 -19 -2q-7 0 -11 0.5t-7 1.5q-4 1 -6 2l110 518q3 1 7 2q8 2 19 2q10 0 18 -2q4 -1 6 -2l-16 -77q41 43 85 67t102 24
q36 0 63 -11.5t44 -32t22.5 -50t-1.5 -65.5zM131 -198q1 1 6.5 7t13.5 17t17 26.5t15 36.5q-10 0 -16 2q-4 1 -5 2l12 57q4 1 9 2t10.5 1.5t13.5 0.5q13 0 23 -2q4 -1 7 -2l-8 -41q-7 -30 -19.5 -53t-26.5 -38q-16 -18 -33 -31z" />
    <glyph glyph-name="nine" unicode="9" horiz-adv-x="549" 
d="M59 0q-3 10 -0.5 23.5t8.5 22.5q60 6 112.5 23t97 48.5t80 78.5t61.5 113q-26 -14 -71 -29.5t-101 -15.5q-42 0 -75.5 14t-54.5 41.5t-27.5 70t5.5 99.5q11 52 36 90t58.5 63t75 36.5t85.5 11.5q47 0 83 -15.5t57.5 -48t26.5 -83t-10 -120.5q-23 -105 -65 -182.5
t-100 -129t-129.5 -79t-152.5 -32.5zM143 477q-9 -44 -4.5 -76t20.5 -53t42 -31t60 -10q28 0 55.5 6t50.5 15t41 18t29 15q5 16 9 32t8 34q12 58 8.5 99.5t-19 68.5t-42.5 39.5t-62 12.5q-70 0 -123.5 -42t-72.5 -128z" />
    <glyph glyph-name="nine.denom" horiz-adv-x="309" 
d="M22 242q12 54 51.5 80t84.5 26q57 0 79.5 -37t6.5 -111q-9 -41 -27.5 -76t-48 -62t-69 -44t-89.5 -21q-2 5 -1 13.5t5 15.5q69 9 115.5 43t66.5 93q-13 -7 -35 -14.5t-53 -7.5q-50 0 -73 27t-13 75zM208 197q24 121 -56 121q-35 0 -60 -20t-33 -56q-6 -31 9 -51t50 -20
q36 0 58.5 10t31.5 16z" />
    <glyph glyph-name="nine.num" horiz-adv-x="308" 
d="M95 588q6 27 19 47t31.5 33t40 19.5t44.5 6.5q57 0 80 -37t7 -111q-9 -41 -28 -76t-48 -62t-68.5 -44t-89.5 -21q-3 5 -2 13.5t6 15.5q69 9 115.5 43t66.5 93q-13 -7 -35.5 -14.5t-53.5 -7.5q-50 0 -72.5 27t-12.5 75zM280 543q24 121 -56 121q-35 0 -59.5 -20t-32.5 -56
q-7 -31 8.5 -51t50.5 -20q36 0 58.5 10t30.5 16z" />
    <glyph glyph-name="nineinferior" unicode="&#x2089;" horiz-adv-x="308" 
d="M1 146q6 27 19.5 47t32 33t40 19.5t44.5 6.5q57 0 79.5 -37t6.5 -111q-9 -41 -28 -76t-48 -62t-68.5 -44t-89.5 -21q-3 5 -2 13.5t6 15.5q69 9 115.5 43.5t66.5 92.5q-13 -7 -35.5 -14.5t-53.5 -7.5q-50 0 -72.5 27t-12.5 75zM186 101q24 121 -56 121q-35 0 -59.5 -20
t-32.5 -56q-7 -31 8.5 -51t50.5 -20q36 0 58.5 10t30.5 16z" />
    <glyph glyph-name="notequal" unicode="&#x2260;" horiz-adv-x="472" 
d="M95 89q-2 -1 -8.5 -2.5t-15.5 -1.5q-7 0 -12 1.5t-7 2.5l73 95h-84q0 2 -0.5 6.5t1.5 14.5q2 9 4 14t4 7h107l97 128h-177q0 2 -0.5 7t1.5 14t4 14t4 7h201l67 87q2 1 8 2.5t14 1.5t13.5 -1.5t7.5 -2.5l-68 -87h93q0 -2 1 -7t-1 -14t-4.5 -14t-4.5 -7h-116l-98 -128h187
q0 -2 1 -7t-1 -14t-4.5 -14t-4.5 -7h-210z" />
    <glyph glyph-name="ntilde" unicode="&#xf1;" 
d="M230 671q6 12 16 22q8 8 22 15.5t34 7.5q19 0 33.5 -5.5t27 -12t24.5 -12t27 -5.5q11 0 19.5 4.5t15.5 10.5q8 7 14 16q9 -2 15.5 -9t5.5 -17q-6 -13 -17 -23q-9 -8 -23.5 -15t-34.5 -7q-19 0 -33 5.5t-26 12.5t-24 12.5t-27 5.5q-11 0 -20 -5.5t-16 -11.5q-8 -7 -14 -16
q-9 4 -14.5 11t-4.5 16zM403 4q-3 -1 -7 -2q-8 -2 -19 -2t-19 2q-4 1 -5 2l79 372q13 60 -11 88.5t-84 28.5q-48 0 -98 -29.5t-86 -83.5l-80 -376q-3 -1 -7 -2q-8 -2 -19 -2q-7 0 -11 0.5t-7 1.5q-4 1 -6 2l110 518q3 1 7 2q8 2 19 2q10 0 18 -2q4 -1 6 -2l-16 -77
q41 43 85 67t102 24q36 0 63 -11.5t44 -32t22.5 -50t-1.5 -65.5z" />
    <glyph glyph-name="_300" horiz-adv-x="0" 
 />
    <glyph glyph-name="numbersign" unicode="#" horiz-adv-x="648" 
d="M564 619q11 4 24 4q6 0 12 -1t11 -3l-72 -145h98q0 -5 0.5 -10t-1.5 -11q-3 -12 -9 -23h-110l-121 -245h95q1 -3 1.5 -8.5t-1.5 -13.5q-4 -16 -9 -22h-108l-67 -136q-2 -1 -8.5 -3t-16.5 -2t-15 2t-7 3l67 136h-167l-67 -136q-2 -1 -8.5 -3t-17.5 -2q-9 0 -14 2t-7 3
l67 136h-102v8t2 14l3.5 13.5t3.5 8.5h115l121 245h-100q0 5 -0.5 10.5t1.5 11.5q3 11 9 22h112l72 145q11 4 24 4q6 0 12 -1t11 -3l-72 -145h167zM182 185h167l121 245h-167z" />
    <glyph glyph-name="o" unicode="o" horiz-adv-x="538" 
d="M55 274q16 74 42 124.5t59.5 81t74 43.5t84.5 13q49 0 84.5 -16t55.5 -50t23.5 -87.5t-12.5 -127.5t-41.5 -125t-59.5 -82t-74.5 -44.5t-85.5 -13.5q-49 0 -84.5 16.5t-55.5 51t-23 88.5t13 128zM416 263q14 66 12.5 110.5t-16 71.5t-41 38t-62.5 11q-32 0 -63 -11
t-58 -38t-48.5 -71.5t-35.5 -110.5t-12.5 -110.5t16 -71.5t41 -38t62.5 -11q32 0 63 11t57.5 38t48.5 71.5t36 110.5z" />
    <glyph glyph-name="oacute" unicode="&#xf3;" horiz-adv-x="538" 
d="M400 775q14 1 25.5 -5.5t16.5 -17.5l-156 -144q-23 3 -29 19zM55 274q16 74 42 124.5t59.5 81t74 43.5t84.5 13q49 0 84.5 -16t55.5 -50t23.5 -87.5t-12.5 -127.5t-41.5 -125t-59.5 -82t-74.5 -44.5t-85.5 -13.5q-49 0 -84.5 16.5t-55.5 51t-23 88.5t13 128zM416 263
q14 66 12.5 110.5t-16 71.5t-41 38t-62.5 11q-32 0 -63 -11t-58 -38t-48.5 -71.5t-35.5 -110.5t-12.5 -110.5t16 -71.5t41 -38t62.5 -11q32 0 63 11t57.5 38t48.5 71.5t36 110.5z" />
    <glyph glyph-name="obreve" unicode="&#x14f;" horiz-adv-x="538" 
d="M347 678q25 0 46.5 6t38.5 14q19 9 35 20q18 -6 18 -26q-16 -16 -36 -28q-18 -11 -43.5 -19.5t-59.5 -8.5t-58.5 8.5t-40.5 19.5q-19 12 -32 28q11 19 30 26q11 -11 26 -20q13 -8 31.5 -14t44.5 -6zM55 274q16 74 42 124.5t59.5 81t74 43.5t84.5 13q49 0 84.5 -16
t55.5 -50t23.5 -87.5t-12.5 -127.5t-41.5 -125t-59.5 -82t-74.5 -44.5t-85.5 -13.5q-49 0 -84.5 16.5t-55.5 51t-23 88.5t13 128zM416 263q14 66 12.5 110.5t-16 71.5t-41 38t-62.5 11q-32 0 -63 -11t-58 -38t-48.5 -71.5t-35.5 -110.5t-12.5 -110.5t16 -71.5t41 -38
t62.5 -11q32 0 63 11t57.5 38t48.5 71.5t36 110.5z" />
    <glyph glyph-name="ocircumflex" unicode="&#xf4;" horiz-adv-x="538" 
d="M473 628q-5 -8 -12 -15.5t-17 -9.5l-96 83l-131 -84q-16 7 -19 26l141 103h25zM55 274q16 74 42 124.5t59.5 81t74 43.5t84.5 13q49 0 84.5 -16t55.5 -50t23.5 -87.5t-12.5 -127.5t-41.5 -125t-59.5 -82t-74.5 -44.5t-85.5 -13.5q-49 0 -84.5 16.5t-55.5 51t-23 88.5
t13 128zM416 263q14 66 12.5 110.5t-16 71.5t-41 38t-62.5 11q-32 0 -63 -11t-58 -38t-48.5 -71.5t-35.5 -110.5t-12.5 -110.5t16 -71.5t41 -38t62.5 -11q32 0 63 11t57.5 38t48.5 71.5t36 110.5z" />
    <glyph glyph-name="odieresis" unicode="&#xf6;" horiz-adv-x="538" 
d="M248 703l8 2q10 2 23 2q12 0 22 -2q4 -1 7 -2l-11 -53l-8 -2q-10 -2 -23 -2q-8 0 -13 0.5t-9 1.5t-7 2zM397 703l8 2t9.5 1.5t13.5 0.5q11 0 21 -2q4 -1 7 -2l-11 -53l-8 -2q-10 -2 -22 -2q-8 0 -13 0.5t-9 1.5t-7 2zM55 274q16 74 42 124.5t59.5 81t74 43.5t84.5 13
q49 0 84.5 -16t55.5 -50t23.5 -87.5t-12.5 -127.5t-41.5 -125t-59.5 -82t-74.5 -44.5t-85.5 -13.5q-49 0 -84.5 16.5t-55.5 51t-23 88.5t13 128zM416 263q14 66 12.5 110.5t-16 71.5t-41 38t-62.5 11q-32 0 -63 -11t-58 -38t-48.5 -71.5t-35.5 -110.5t-12.5 -110.5t16 -71.5
t41 -38t62.5 -11q32 0 63 11t57.5 38t48.5 71.5t36 110.5z" />
    <glyph glyph-name="oe" unicode="&#x153;" horiz-adv-x="825" 
d="M443 247q-19 -114 6 -163t99 -49q26 0 49.5 5.5t40.5 12.5q20 8 36 18q8 -5 11.5 -15t1.5 -21q-18 -13 -42 -23q-20 -8 -50 -15t-68 -7q-118 0 -135 125q-35 -66 -80.5 -95.5t-110.5 -29.5q-48 0 -83 16t-54.5 50.5t-22.5 88t13 127.5t40 124.5t56.5 81.5t73 44.5
t88.5 13.5q64 0 98.5 -29.5t41.5 -96.5q37 66 86 96t106 30q87 0 120.5 -52t15.5 -136q-5 -23 -10.5 -42t-10.5 -32q-6 -16 -12 -27h-304zM305 494q-35 0 -65.5 -11t-55.5 -38t-45 -71.5t-34 -110.5t-13 -110.5t15 -71.5t39.5 -38t60.5 -11t63.5 11.5t51.5 38.5t41.5 71.5
t32.5 111.5q14 66 15 110.5t-11 70.5t-36 37t-59 11zM733 354q6 28 5.5 53t-10.5 44t-31 30.5t-55 11.5q-62 0 -112.5 -49t-77.5 -156h262q1 2 7 19t12 47z" />
    <glyph glyph-name="ogonek" unicode="&#x2db;" horiz-adv-x="283" 
d="M230 0q-28 -15 -56.5 -35.5t-51 -44t-36 -47.5t-11.5 -46q2 -20 14 -27.5t29 -8.5q14 0 27.5 4t30.5 11q5 -5 8.5 -16t1.5 -19q-15 -9 -37 -15t-45 -6q-28 0 -50.5 12.5t-27.5 44.5q-3 28 8 55t32 52t48.5 47t56.5 39h59z" />
    <glyph glyph-name="ograve" unicode="&#xf2;" horiz-adv-x="538" 
d="M378 627q-13 -16 -37 -19l-94 144q8 10 23 17t29 6zM55 274q16 74 42 124.5t59.5 81t74 43.5t84.5 13q49 0 84.5 -16t55.5 -50t23.5 -87.5t-12.5 -127.5t-41.5 -125t-59.5 -82t-74.5 -44.5t-85.5 -13.5q-49 0 -84.5 16.5t-55.5 51t-23 88.5t13 128zM416 263
q14 66 12.5 110.5t-16 71.5t-41 38t-62.5 11q-32 0 -63 -11t-58 -38t-48.5 -71.5t-35.5 -110.5t-12.5 -110.5t16 -71.5t41 -38t62.5 -11q32 0 63 11t57.5 38t48.5 71.5t36 110.5z" />
    <glyph glyph-name="ohungarumlaut" unicode="&#x151;" horiz-adv-x="538" 
d="M363 745q33 2 43 -19l-140 -119q-21 1 -27 16zM504 745q15 1 27 -4t17 -15l-140 -119q-22 2 -27 16zM55 274q16 74 42 124.5t59.5 81t74 43.5t84.5 13q49 0 84.5 -16t55.5 -50t23.5 -87.5t-12.5 -127.5t-41.5 -125t-59.5 -82t-74.5 -44.5t-85.5 -13.5q-49 0 -84.5 16.5
t-55.5 51t-23 88.5t13 128zM416 263q14 66 12.5 110.5t-16 71.5t-41 38t-62.5 11q-32 0 -63 -11t-58 -38t-48.5 -71.5t-35.5 -110.5t-12.5 -110.5t16 -71.5t41 -38t62.5 -11q32 0 63 11t57.5 38t48.5 71.5t36 110.5z" />
    <glyph glyph-name="omacron" unicode="&#x14d;" horiz-adv-x="538" 
d="M467 694q2 -8 0 -19.5t-8 -20.5h-234q-1 9 1 20.5t7 19.5h234zM55 274q16 74 42 124.5t59.5 81t74 43.5t84.5 13q49 0 84.5 -16t55.5 -50t23.5 -87.5t-12.5 -127.5t-41.5 -125t-59.5 -82t-74.5 -44.5t-85.5 -13.5q-49 0 -84.5 16.5t-55.5 51t-23 88.5t13 128zM416 263
q14 66 12.5 110.5t-16 71.5t-41 38t-62.5 11q-32 0 -63 -11t-58 -38t-48.5 -71.5t-35.5 -110.5t-12.5 -110.5t16 -71.5t41 -38t62.5 -11q32 0 63 11t57.5 38t48.5 71.5t36 110.5z" />
    <glyph glyph-name="one" unicode="1" horiz-adv-x="392" 
d="M79 524q66 17 126 55t109 97q2 1 6 2q8 2 19 2q10 0 18 -2q4 -1 6 -2l-143 -672q-2 -1 -6 -2q-8 -2 -21 -2q-11 0 -19 2q-4 1 -6 2l98 460q9 45 17.5 80t16.5 58q-45 -48 -102.5 -78t-114.5 -44q-14 17 -4 44z" />
    <glyph glyph-name="one.denom" horiz-adv-x="241" 
d="M22 271q36 9 70.5 28.5t57.5 40.5q7 3 19 3q5 0 9 -0.5t6 -2.5l-71 -337q-8 -3 -18 -3q-11 0 -17 3l53 252q3 12 5 22t5 19q-51 -39 -118 -55q-4 5 -4.5 13.5t3.5 16.5z" />
    <glyph glyph-name="one.num" horiz-adv-x="257" 
d="M94 617q37 9 71.5 28.5t57.5 40.5q6 3 18 3q11 0 16 -3l-72 -337q-6 -3 -16 -3q-5 0 -9.5 0.5t-9.5 2.5l54 252q2 12 4.5 22t4.5 19q-51 -38 -117 -55q-9 11 -2 30z" />
    <glyph glyph-name="oneeighth" unicode="&#x215b;" horiz-adv-x="703" 
d="M585 698q1 1 5 2q6 2 16 2q7 0 13 -2q3 -1 4 -2l-537 -705q-2 -1 -5 -2q-2 -1 -6 -1h-9q-11 0 -14 1t-5 2zM232 686q6 3 18 3q11 0 16 -3l-72 -338q-8 -2 -16 -2h-9.5t-9.5 2l54 253q2 12 4.5 21.5t4.5 18.5q-25 -18 -54.5 -32t-62.5 -22q-9 11 -2 30q37 9 71.5 28.5
t57.5 40.5zM420 265q8 37 39.5 60t85.5 23q50 0 74 -21.5t15 -61.5q-7 -33 -28 -54.5t-47 -35.5q25 -14 40.5 -34t8.5 -54q-9 -44 -45 -68t-92 -24q-53 0 -82 23t-19 68q8 38 33.5 62t53.5 38q-20 13 -31.5 31t-5.5 48zM599 263q12 56 -61 56q-34 0 -55.5 -14t-26.5 -38
q-4 -17 1.5 -28.5t17 -20.5t27 -16.5t32.5 -14.5q25 14 42.5 32.5t22.5 43.5zM573 85q4 19 -3.5 32t-21 23t-31 17.5t-33.5 15.5q-8 -4 -19.5 -11t-23.5 -17.5t-21.5 -24.5t-13.5 -32q-8 -33 11.5 -48t60.5 -15q34 0 61 14.5t34 45.5z" />
    <glyph glyph-name="onehalf" unicode="&#xbd;" horiz-adv-x="699" 
d="M580 698q1 1 5 2q6 2 16 2q7 0 13 -2q3 -1 4 -2l-537 -705q-2 -1 -5 -2q-2 -1 -6 -1h-9q-11 0 -14 1t-5 2zM232 686q7 3 18 3t17 -3l-72 -338q-8 -2 -17 -2h-9t-9 2l54 253q2 12 4.5 21.5t4.5 18.5q-25 -18 -54.5 -32t-62.5 -22q-9 11 -2 30q37 9 71 28.5t57 40.5z
M456 335q11 3 25 6l28 4.5t36 2.5q60 0 81.5 -25.5t12.5 -66.5q-7 -32 -25 -52.5t-42.5 -34.5t-51 -25.5t-50.5 -25.5t-41.5 -34t-23.5 -51h182q3 -8 0 -17q-2 -9 -7 -16h-214q0 6 1 12q1 5 1.5 12.5t2.5 16.5q7 34 25.5 56t42.5 37.5t51 26.5t50 23t40.5 28t22.5 41
q3 13 1 24.5t-10 20.5t-23 14t-39 5q-13 0 -26 -1.5t-23.5 -3t-17 -3.5t-7.5 -2q-8 13 -2 28z" />
    <glyph glyph-name="oneinferior" unicode="&#x2081;" horiz-adv-x="241" 
d="M0 175q37 9 71.5 28.5t57.5 40.5q6 3 18 3q11 0 16 -3l-72 -337q-6 -3 -16 -3q-5 0 -9.5 0.5t-9.5 2.5l54 252q2 12 4.5 22t4.5 19q-51 -38 -117 -55q-9 11 -2 30z" />
    <glyph glyph-name="onequarter" unicode="&#xbc;" horiz-adv-x="643" 
d="M580 698q1 1 5 2q6 2 16 2q7 0 13 -2q3 -1 4 -2l-537 -705q-2 -1 -5 -2q-2 -1 -6 -1h-9q-11 0 -14 1t-5 2zM104 617q37 9 71 28.5t57 40.5q7 3 18 3t17 -3l-72 -338q-8 -2 -17 -2h-9t-9 2l54 253q2 12 4.5 21.5t4.5 18.5q-25 -18 -54.5 -32t-62.5 -22q-9 11 -2 30z
M557 124q2 -7 0 -15q-2 -7 -3.5 -10.5t-2.5 -5.5h-42l-19 -90q-2 -1 -6 -2t-10 -1q-13 0 -16 3l19 90h-180q-2 4 -1 11q1 5 2.5 7.5t3.5 4.5l224 224q2 1 6.5 2t12.5 1q7 0 10.5 -1t5.5 -2l-46 -216h42zM346 124h137l37 171z" />
    <glyph glyph-name="onesuperior" unicode="&#xb9;" horiz-adv-x="242" 
d="M94 617q37 9 71.5 28.5t57.5 40.5q6 3 18 3q11 0 16 -3l-72 -338q-8 -2 -16 -2h-9.5t-9.5 2l54 253q2 12 4.5 21.5t4.5 18.5q-25 -18 -54.5 -32t-62.5 -22q-9 11 -2 30z" />
    <glyph glyph-name="ordfeminine" unicode="&#xaa;" horiz-adv-x="361" 
d="M149 610q14 6 32 10q15 4 34 7t40 3q56 0 75.5 -26.5t8.5 -78.5l-47 -219q-1 -1 -4 -2q-6 -2 -11 -2q-7 0 -11 2q-2 1 -3 2l4 42q-20 -25 -50 -38.5t-65 -13.5q-42 0 -63.5 25t-11.5 71q10 45 43 69.5t91 24.5q29 0 51.5 -2t31.5 -3l8 39q9 42 -6 60t-53 18
q-17 0 -33 -2.5t-29 -5.5q-15 -4 -28 -8q-4 5 -5 13t1 15zM288 453q-9 1 -31 2.5t-47 1.5q-83 0 -97 -65q-7 -35 7.5 -50t45.5 -15q41 0 73 25.5t43 71.5zM276 244q1 -14 -7 -31h-226q-1 14 7 31h226z" />
    <glyph glyph-name="ordmasculine" unicode="&#xba;" horiz-adv-x="379" 
d="M93 463q19 88 59 127.5t105 39.5q64 0 88 -39t5 -128q-19 -90 -59 -129t-105 -39t-88.5 39t-4.5 129zM313 463q16 73 0.5 104.5t-63.5 31.5q-49 0 -76.5 -31.5t-43.5 -104.5q-16 -75 -1.5 -105.5t63.5 -30.5q48 0 76.5 31t44.5 105zM290 244q0 -2 0.5 -5.5t-0.5 -9.5
q-3 -12 -7 -16h-230q0 2 -0.5 6t1.5 10q1 5 2.5 9t3.5 6h230z" />
    <glyph glyph-name="oslash" unicode="&#xf8;" horiz-adv-x="536" 
d="M451 475q23 -34 27 -88t-13 -132q-16 -74 -41.5 -125t-59.5 -82t-74.5 -44.5t-85.5 -13.5q-67 0 -106 30l-50 -64q-22 5 -31 20l55 70q-25 34 -30 90.5t12 137.5q16 74 42 124.5t59.5 81t74 43.5t84.5 13q72 0 112 -33l53 67q11 -2 19 -7t13 -12zM308 494q-32 0 -63 -11
t-58 -38t-48.5 -71.5t-35.5 -110.5q-14 -63 -13 -106.5t14 -69.5l293 377q-16 17 -38 23.5t-51 6.5zM210 32q32 0 63 11t57.5 38t48.5 71.5t36 110.5q12 60 12.5 101t-10.5 68l-291 -376q30 -24 84 -24z" />
    <glyph glyph-name="oslashacute" unicode="&#x1ff;" horiz-adv-x="536" 
d="M288 608q-23 3 -29 19l143 148q14 1 25.5 -5.5t16.5 -17.5zM451 475q23 -34 27 -88t-13 -132q-16 -74 -41.5 -125t-59.5 -82t-74.5 -44.5t-85.5 -13.5q-67 0 -106 30l-50 -64q-22 5 -31 20l55 70q-25 34 -30 90.5t12 137.5q16 74 42 124.5t59.5 81t74 43.5t84.5 13
q72 0 112 -33l53 67q11 -2 19 -7t13 -12zM308 494q-32 0 -63 -11t-58 -38t-48.5 -71.5t-35.5 -110.5q-14 -63 -13 -106.5t14 -69.5l293 377q-16 17 -38 23.5t-51 6.5zM210 32q32 0 63 11t57.5 38t48.5 71.5t36 110.5q12 60 12.5 101t-10.5 68l-291 -376q30 -24 84 -24z" />
    <glyph glyph-name="otilde" unicode="&#xf5;" horiz-adv-x="538" 
d="M219 663q6 12 17 22q9 8 22.5 15.5t33.5 7.5q19 0 33.5 -5.5t27 -12t24.5 -12t27 -5.5q11 0 20 4.5t16 10.5q8 7 14 16q18 -6 20 -26q-6 -13 -17 -23q-9 -8 -23 -15t-34 -7q-19 0 -33 5.5t-26.5 12.5t-24.5 12.5t-27 5.5q-11 0 -20 -5t-16 -11q-8 -7 -15 -15
q-19 7 -19 25zM55 274q16 74 42 124.5t59.5 81t74 43.5t84.5 13q49 0 84.5 -16t55.5 -50t23.5 -87.5t-12.5 -127.5t-41.5 -125t-59.5 -82t-74.5 -44.5t-85.5 -13.5q-49 0 -84.5 16.5t-55.5 51t-23 88.5t13 128zM416 263q14 66 12.5 110.5t-16 71.5t-41 38t-62.5 11
q-32 0 -63 -11t-58 -38t-48.5 -71.5t-35.5 -110.5t-12.5 -110.5t16 -71.5t41 -38t62.5 -11q32 0 63 11t57.5 38t48.5 71.5t36 110.5z" />
    <glyph glyph-name="p" unicode="p" horiz-adv-x="555" 
d="M167 448q32 41 75.5 64.5t104.5 23.5q45 0 77.5 -15.5t50.5 -49.5t20 -88t-14 -130q-16 -77 -40.5 -127.5t-56 -80.5t-70 -42.5t-83.5 -12.5q-26 0 -48 8t-40 21.5t-31.5 31.5t-20.5 37l-70 -329q-2 -1 -6 -2q-8 -2 -20 -2q-11 0 -19 2q-4 1 -5 2l162 763q2 1 6 2
q8 2 20 2q11 0 19 -2q4 -1 5 -2zM431 263q13 62 14 105.5t-11.5 71t-39 40t-68.5 12.5q-36 0 -66.5 -14t-54.5 -37t-40.5 -52t-22.5 -58l-26 -121q-6 -30 -0.5 -61t21.5 -56.5t40.5 -42t55.5 -16.5q42 0 73 12.5t54.5 40t40.5 71t30 105.5z" />
    <glyph glyph-name="paragraph" unicode="&#xb6;" horiz-adv-x="469" 
d="M181 467q-28 1 -47 11t-29.5 26.5t-13 37t2.5 41.5q5 22 17 42.5t30 37t41.5 26.5t52.5 10h39l-196 -922q-2 -1 -6 -2q-8 -2 -17 -2q-10 0 -16 2q-3 1 -4 2zM249 -223q-1 -1 -5 -2q-8 -2 -17 -2q-11 0 -17 2q-3 1 -4 2l195 918q1 1 5 2q8 2 18 2t16 -2q3 -1 4 -2z" />
    <glyph glyph-name="parenleft" unicode="(" horiz-adv-x="284" 
d="M338 805q8 -6 11 -11q2 -3 2 -5q-50 -56 -95 -128q-19 -31 -39.5 -68t-39 -80t-35 -91.5t-27.5 -101.5q-23 -108 -20.5 -193.5t15.5 -147.5q15 -72 41 -128l-5 -5l-5.5 -5.5t-8.5 -5.5q-5 -3 -9.5 -4t-7.5 -2q-4 -1 -6 0q-28 61 -45 138q-14 66 -18.5 155t18.5 198
q23 108 65 197.5t84 155.5q49 77 104 138q3 1 7 0q7 -2 14 -6z" />
    <glyph glyph-name="parenright" unicode=")" horiz-adv-x="283" 
d="M173 320q23 107 20 193t-15 148q-14 72 -40 128q1 2 4 5q6 6 15 11q11 5 16 6q4 1 6 0q28 -61 45 -138q14 -66 18.5 -155.5t-18.5 -197.5q-23 -109 -65 -198t-84 -155q-49 -77 -104 -138q-3 -1 -7 0q-3 1 -6.5 2t-7.5 4q-5 2 -6.5 5.5t-3.5 5.5q-2 3 -2 5q50 56 95 128
q38 62 77.5 147.5t62.5 193.5z" />
    <glyph glyph-name="partialdiff" unicode="&#x2202;" horiz-adv-x="556" 
d="M226 707q1 12 5 23.5t12 19.5q156 -26 221 -136.5t24 -303.5q-19 -90 -47 -151.5t-63.5 -99t-79 -53.5t-94.5 -16q-48 0 -84 14.5t-56.5 46t-24.5 81t11 120.5q15 70 40 120t58 81.5t73 46t85 14.5q57 0 92.5 -22t53.5 -54q0 50 -14 94.5t-41.5 79.5t-70 59.5
t-100.5 35.5zM445 372q-14 50 -54.5 74.5t-90.5 24.5q-35 0 -65 -10.5t-55 -35.5t-44.5 -67.5t-32.5 -105.5q-14 -63 -11.5 -105.5t18 -68t42 -36t61.5 -10.5q46 0 80.5 17t59.5 46.5t42 69.5t27 87l12.5 60t10.5 60z" />
    <glyph glyph-name="percent" unicode="%" horiz-adv-x="745" 
d="M139 -6q-3 -1 -7 -2t-8.5 -1.5t-11.5 -0.5q-6 0 -10 0.5t-7 1.5q-4 1 -5 2l537 704q2 1 6 2q8 2 20 2q10 0 18 -2q4 -1 5 -2zM188 345q-61 0 -86.5 39.5t-5.5 133.5q20 93 62.5 133t103.5 40q60 0 87 -39.5t7 -133.5t-64 -133.5t-104 -39.5zM254 653q-38 0 -67.5 -29
t-45.5 -106q-8 -39 -7.5 -65t8 -41t22 -21.5t33.5 -6.5t36 6.5t31 21.5t25.5 41t19.5 65q8 38 7.5 64t-8 41.5t-21.5 22.5t-33 7zM498 -10q-61 0 -86.5 39.5t-5.5 133.5q20 93 62 133t103 40q60 0 87 -39.5t8 -133.5q-20 -94 -64 -133.5t-104 -39.5zM563 298q-38 0 -67 -29
t-45 -106q-8 -39 -7.5 -65t8 -41t21.5 -21.5t33 -6.5t36 6.5t31.5 21.5t26 41t19.5 65q8 38 7.5 64t-8.5 41.5t-22 22.5t-33 7z" />
    <glyph glyph-name="period" unicode="." horiz-adv-x="216" 
d="M81 4q-4 -1 -9 -2t-10.5 -1.5t-13.5 -0.5t-13.5 0.5t-9.5 1.5l-8 2l12 56q4 1 9 2t10.5 1.5t13.5 0.5q13 0 23 -2l8 -2z" />
    <glyph glyph-name="periodcentered" unicode="&#xb7;" horiz-adv-x="221" 
d="M130 258l-8 -2q-10 -2 -23 -2q-8 0 -13 0.5t-9 1.5t-7 2l11 52l8 2q10 2 23 2q8 0 13 -0.5t9 -1.5t7 -2z" />
    <glyph glyph-name="perthousand" unicode="&#x2030;" horiz-adv-x="1064" 
d="M139 -6q-3 -1 -7 -2t-8.5 -1.5t-11.5 -0.5q-6 0 -10 0.5t-7 1.5q-4 1 -5 2l537 704q2 1 6 2q8 2 20 2q10 0 18 -2q4 -1 5 -2zM188 345q-61 0 -86.5 39.5t-5.5 133.5q20 93 62.5 133t103.5 40q60 0 87 -39.5t7 -133.5t-64 -133.5t-104 -39.5zM254 653q-38 0 -67.5 -29
t-45.5 -106q-8 -39 -7.5 -65t8 -41t22 -21.5t33.5 -6.5t36 6.5t31 21.5t25.5 41t19.5 65q8 38 7.5 64t-8 41.5t-21.5 22.5t-33 7zM498 -10q-61 0 -86.5 39.5t-5.5 133.5q20 93 62 133t103 40q60 0 87 -39.5t8 -133.5q-20 -94 -64 -133.5t-104 -39.5zM820 -10
q-61 0 -86.5 39.5t-5.5 133.5q20 93 62 133t103 40q60 0 87 -39.5t8 -133.5q-20 -94 -64 -133.5t-104 -39.5zM563 298q-38 0 -67 -29t-45 -106q-8 -39 -7.5 -65t8 -41t21.5 -21.5t33 -6.5t36 6.5t31.5 21.5t26 41t19.5 65q8 38 7.5 64t-8.5 41.5t-22 22.5t-33 7zM885 298
q-38 0 -67 -29t-45 -106q-8 -39 -7.5 -65t8 -41t21.5 -21.5t33 -6.5t36 6.5t31.5 21.5t26 41t19.5 65q8 38 7.5 64t-8.5 41.5t-22 22.5t-33 7z" />
    <glyph glyph-name="pi" unicode="&#x3c0;" horiz-adv-x="601" 
d="M606 526q2 -11 -1 -22q-2 -6 -3.5 -11.5t-5.5 -10.5h-73l-52 -246q-14 -64 -18 -106.5t-2 -68.5q1 -31 8 -48q-15 -13 -40 -13h-8.5t-7.5 2q-5 19 -5 51q0 27 4 71.5t18 111.5l52 246h-277l-101 -478q-2 -1 -6 -2q-8 -2 -20 -2q-11 0 -19 2q-4 1 -5 2l101 476
q-17 -2 -30.5 -3t-22.5 -3q-11 -2 -19 -3q-3 8 1 22q2 13 8 21q14 3 35 6q18 2 46 4t67 2h376z" />
    <glyph glyph-name="plus" unicode="+" horiz-adv-x="460" 
d="M52 269q-1 1 -1 5v6.5t2 9.5q1 8 5 16q2 3 3 5h148l32 148q1 1 5 2q6 2 16 2q8 0 16 -2q3 -1 5 -2l-32 -148h148q1 -2 1 -5v-7t-1 -9q-4 -12 -6 -16t-3 -5h-148l-31 -148q-2 -1 -6 -2q-8 -2 -16 -2q-9 0 -15 2q-3 1 -5 2l31 148h-148z" />
    <glyph glyph-name="plusminus" unicode="&#xb1;" horiz-adv-x="516" 
d="M104 381q-1 1 -1 5q0 2 -0.5 6.5t1.5 9.5q1 5 2.5 9t3.5 7t3 5h148l25 118q2 1 6 2q8 2 16 2q9 0 15 -2q3 -1 5 -2l-25 -118h148q1 -2 1 -5t-0.5 -7t-1.5 -9q-2 -5 -2.5 -9.5t-2.5 -6.5q-2 -4 -3 -5h-148l-25 -118q-2 -1 -6 -2q-8 -2 -16 -2q-9 0 -15 2q-3 1 -5 2l25 118
h-148zM53 143q-1 1 -1 5v6.5t2 9.5q1 8 5 16q2 3 3 5h338q1 -2 1 -5v-7t-1 -9q-4 -12 -6 -16t-3 -5h-338z" />
    <glyph glyph-name="product" unicode="&#x220f;" horiz-adv-x="711" 
d="M496 -203q-2 -1 -6 -2q-8 -2 -21 -2q-10 0 -18 2q-4 1 -5 2l180 849h-397l-180 -849q-2 -1 -6 -2q-8 -2 -21 -2q-7 0 -11 0.5t-7 1.5q-4 1 -5 2l190 896h497z" />
    <glyph glyph-name="q" unicode="q" horiz-adv-x="556" 
d="M371 78q-32 -41 -74 -64.5t-103 -23.5q-45 0 -78.5 15.5t-52 50t-21.5 88t13 130.5q16 76 41 126.5t57.5 80.5t72 42.5t84.5 12.5q55 0 90.5 -26t48.5 -62l16 74q2 1 6 2q8 2 19 2t19 -2q4 -1 6 -2l-162 -763q-2 -1 -6 -2q-8 -2 -20 -2q-11 0 -19 2q-4 1 -5 2zM107 263
q-13 -62 -14.5 -105.5t10.5 -71t38 -40t68 -12.5q35 0 65.5 14t55 36.5t41.5 51.5t24 58l29 137q5 28 0.5 57t-18.5 52t-37.5 37.5t-55.5 14.5q-42 0 -74.5 -12.5t-57 -40t-43 -71t-31.5 -105.5z" />
    <glyph glyph-name="question" unicode="?" horiz-adv-x="426" 
d="M424 530q-11 -50 -32 -82.5t-46.5 -57t-54 -44.5t-54.5 -44t-47 -56.5t-31 -81.5q-2 -2 -6 -3q-8 -2 -17 -2t-15 2q-3 1 -5 3q12 57 33 94t46 63t52 45t51.5 40.5t43.5 49.5t28 71q5 25 2 47t-16 37.5t-37 24.5t-61 9q-31 0 -56 -4t-43 -9q-21 -5 -38 -12q-8 6 -10 16.5
t2 21.5q20 9 45 16q21 6 50.5 11t65.5 5q47 0 79 -12t50 -33.5t23 -51t-2 -63.5zM136 4q-4 -1 -9 -2t-10.5 -1.5t-13.5 -0.5t-13.5 0.5t-9.5 1.5l-8 2l12 56q4 1 9 2t10.5 1.5t13.5 0.5q13 0 23 -2l8 -2z" />
    <glyph glyph-name="questiondown" unicode="&#xbf;" horiz-adv-x="418" 
d="M269 516l8 2q10 2 24 2q13 0 23 -2l8 -2l-12 -56l-8 -2q-10 -2 -24 -2q-8 0 -13.5 0.5t-9.5 1.5l-8 2zM-20 -10q10 50 31 82.5t47 57t55 44.5t55 44t46.5 56.5t31.5 81.5q1 1 5 2q6 2 16 2q8 0 16 -2q3 -1 5 -2q-12 -57 -33 -94t-46.5 -63t-52 -45t-51 -40.5t-43.5 -49.5
t-28 -71q-5 -26 -2 -47.5t16 -37t37 -24.5t61 -9q31 0 56.5 3.5t43.5 8.5q21 5 38 13q8 -6 10 -16.5t-2 -21.5q-20 -9 -45 -16q-22 -6 -51.5 -11t-64.5 -5q-47 0 -79 12t-50.5 33.5t-24 51t2.5 63.5z" />
    <glyph glyph-name="quotedbl" unicode="&#x22;" horiz-adv-x="311" 
d="M156 716q3 1 7 2t8.5 1.5t11.5 0.5q11 0 19 -2q4 -1 6 -2l-51 -194q-1 -1 -4 -2t-13 -1t-12 1t-3 2zM272 716q3 1 7 2q8 2 20 2q11 0 19 -2q4 -1 6 -2l-51 -194q-1 -1 -4 -2t-13 -1t-12 1t-3 2z" />
    <glyph glyph-name="quotedblbase" unicode="&#x201e;" horiz-adv-x="330" 
d="M-13 -87q1 1 6.5 7t13.5 17t17 26.5t15 36.5q-10 0 -16 2q-3 1 -5 2l12 56q3 1 8 2q10 2 25 2q13 0 23 -2q4 -1 7 -2l-9 -40q-7 -31 -19.5 -53.5t-26.5 -37.5q-16 -18 -33 -31zM100 -87l7 7t14 17t17 26.5t15 36.5q-10 0 -16 2q-3 1 -5 2l12 56q3 1 8 2q10 2 25 2
q13 0 23 -2q4 -1 7 -2l-9 -40q-7 -31 -19.5 -53.5t-26.5 -37.5q-16 -18 -33 -31z" />
    <glyph glyph-name="quotedblleft" unicode="&#x201c;" horiz-adv-x="317" 
d="M223 703q0 -1 -6 -7t-14 -17t-16.5 -26.5t-14.5 -36.5q10 0 16 -2q3 -1 5 -2l-12 -56l-8 -2q-5 -1 -11 -1.5t-14 -0.5q-13 0 -23 2q-4 1 -7 2l8 40q7 30 19.5 53t26.5 39q15 18 33 31zM335 703l-7 -7t-14 -17t-16 -26.5t-14 -36.5q10 0 16 -2q3 -1 5 -2l-12 -56l-8 -2
q-5 -1 -11 -1.5t-14 -0.5t-13.5 0.5t-9.5 1.5t-7 2l8 40q7 30 19.5 53t26.5 39q15 18 33 31z" />
    <glyph glyph-name="quotedblright" unicode="&#x201d;" horiz-adv-x="317" 
d="M232 569q1 0 6.5 6t13.5 17t17 27t15 37q-10 0 -16 2q-3 1 -5 2l12 56q3 1 8 2q10 2 25 2q8 0 13 -0.5t9 -1.5l8 -2l-8 -40q-7 -31 -20 -53.5t-26 -38.5q-16 -18 -33 -31zM120 569q1 0 7 6t14 17t16.5 27t14.5 37q-10 0 -16 2q-3 1 -5 2l12 56q3 1 8 2q10 2 25 2
q13 0 23 -2q4 -1 7 -2l-8 -40q-7 -31 -20 -53.5t-26 -38.5q-16 -18 -33 -31z" />
    <glyph glyph-name="quoteleft" unicode="&#x2018;" horiz-adv-x="211" 
d="M228 704q-1 -1 -7 -6.5t-14.5 -16.5t-17 -27t-14.5 -37q6 -1 10 -1t7 -1q4 -1 6 -1l-12 -57l-8 -2q-10 -2 -24 -2t-24 2l-8 2l9 41q6 30 19 52.5t27 38.5q16 18 34 31z" />
    <glyph glyph-name="quoteright" unicode="&#x2019;" horiz-adv-x="204" 
d="M120 569q1 0 6.5 6t13.5 17t17 27t15 37q-10 0 -16 2q-3 1 -5 2l12 56l8 2q10 2 24 2q13 0 23 -2l8 -2l-8 -40q-7 -31 -20 -53.5t-27 -38.5q-16 -18 -33 -31z" />
    <glyph glyph-name="quotesinglbase" unicode="&#x201a;" horiz-adv-x="217" 
d="M-13 -87l7 7t14 17t16.5 26.5t14.5 36.5q-10 0 -16 2q-4 1 -5 2l12 56q4 1 9 2t10.5 1.5t13.5 0.5q13 0 23 -2l8 -2l-9 -40q-7 -31 -19.5 -53.5t-26.5 -37.5q-16 -18 -34 -31z" />
    <glyph glyph-name="quotesingle" unicode="'" horiz-adv-x="195" 
d="M156 716q3 1 7 2q8 2 20 2q11 0 19 -2q4 -1 6 -2l-51 -194q-1 -1 -4 -2t-13 -1t-12 1t-3 2z" />
    <glyph glyph-name="r" unicode="r" horiz-adv-x="388" 
d="M165 441q24 35 48 54t45.5 28t40 10.5t32.5 1.5q33 0 54 -10t25 -13q-8 -29 -33 -42q-16 9 -32 13.5t-36 4.5q-35 0 -76.5 -27t-82.5 -92l-77 -365q-2 -1 -6 -2q-8 -2 -20 -2q-11 0 -19 2q-4 1 -5 2l110 518q2 1 6 2q8 2 20 2q11 0 19 -2q4 -1 5 -2l-18 -81v0z" />
    <glyph glyph-name="racute" unicode="&#x155;" horiz-adv-x="388" 
d="M358 775q14 1 25.5 -5.5t16.5 -17.5l-156 -144q-23 3 -29 19zM165 441q24 35 48 54t45.5 28t40 10.5t32.5 1.5q33 0 54 -10t25 -13q-8 -29 -33 -42q-16 9 -32 13.5t-36 4.5q-35 0 -76.5 -27t-82.5 -92l-77 -365q-2 -1 -6 -2q-8 -2 -20 -2q-11 0 -19 2q-4 1 -5 2l110 518
q2 1 6 2q8 2 20 2q11 0 19 -2q4 -1 5 -2z" />
    <glyph glyph-name="radical" unicode="&#x221a;" horiz-adv-x="628" 
d="M166 365l-118 -46q-8 5 -10.5 15.5t2.5 22.5l163 65l73 -371l372 679q12 2 22.5 -0.5t15.5 -10.5l-401 -734h-44z" />
    <glyph glyph-name="rcaron" unicode="&#x159;" horiz-adv-x="388" 
d="M398 723q8 -2 12 -9t5 -16l-131 -96h-23l-104 96q10 19 29 26l90 -79zM165 441q24 35 48 54t45.5 28t40 10.5t32.5 1.5q33 0 54 -10t25 -13q-8 -29 -33 -42q-16 9 -32 13.5t-36 4.5q-35 0 -76.5 -27t-82.5 -92l-77 -365q-2 -1 -6 -2q-8 -2 -20 -2q-11 0 -19 2q-4 1 -5 2
l110 518q2 1 6 2q8 2 20 2q11 0 19 -2q4 -1 5 -2z" />
    <glyph glyph-name="rcommaaccent" unicode="&#x157;" horiz-adv-x="388" 
d="M166 441q24 35 48 54t45.5 28t40 10.5t32.5 1.5q33 0 54 -10t25 -13q-8 -29 -33 -42q-16 9 -32 13.5t-36 4.5q-35 0 -76.5 -27t-82.5 -92l-77 -365q-2 -1 -6 -2q-8 -2 -20 -2q-11 0 -19 2q-4 1 -5 2l110 518q2 1 6 2q8 2 20 2q11 0 19 -2q4 -1 5 -2zM8 -44l8 2q10 2 23 2
q14 0 24 -2l8 -2l-9 -40q-7 -31 -19.5 -53.5t-26.5 -38.5q-16 -18 -34 -31l-17 16q1 1 6.5 7t13.5 17t17 26.5t15 36.5q-10 0 -16 2q-3 1 -5 2z" />
    <glyph glyph-name="registered" unicode="&#xae;" horiz-adv-x="537" 
d="M259 263q-43 0 -77.5 16.5t-56.5 44.5t-30.5 66t0.5 81t33.5 81t58.5 66t75.5 44.5t84.5 16.5t77.5 -16.5t57 -44.5t30.5 -66t-1 -81t-33.5 -81t-58.5 -66t-75.5 -44.5t-84.5 -16.5zM342 655q-38 0 -74.5 -14.5t-66.5 -39.5t-51.5 -58.5t-29.5 -71.5t-1 -71.5t26.5 -58.5
t50 -39.5t68.5 -14.5t74.5 14.5t66.5 39.5t51.5 58.5t29.5 71.5t1 71.5t-26.5 58.5t-50 39.5t-68.5 14.5zM344 589q36 0 50.5 -17t7.5 -49q-5 -23 -18 -38t-39 -23l38 -97q-1 -1 -4 -2q-6 -2 -11 -2q-8 0 -10 1l-4 2l-36 95h-63l-21 -95q-1 -1 -3 -2t-9 -1q-8 0 -10 1t-3 2
l48 225h87zM321 481q26 0 38 11t17 31q5 22 -3 33t-34 11h-62l-18 -86h62z" />
    <glyph glyph-name="ring" unicode="&#x2da;" horiz-adv-x="344" 
d="M125 507q-48 0 -74.5 28t-15.5 80q5 26 19 45.5t32.5 33t40.5 20.5t44 7q21 0 40.5 -6.5t33 -20t19.5 -33.5t0 -46t-19.5 -46t-32 -34t-41 -21t-46.5 -7zM225 615q6 28 -8.5 49.5t-53.5 21.5q-38 0 -61 -22t-28 -49q-6 -28 7 -50t51 -22q39 0 63 22.5t30 49.5z" />
    <glyph glyph-name="s" unicode="s" horiz-adv-x="442" 
d="M82 405q14 65 62.5 98t138.5 33q30 0 53.5 -3.5t39.5 -8.5q18 -5 32 -11q-2 -11 -8.5 -22t-14.5 -17q-13 5 -30 9q-14 3 -33.5 6t-42.5 3q-65 0 -102 -23t-48 -73q-5 -23 1.5 -40t20.5 -29.5t33.5 -21t42.5 -15.5q26 -8 52 -19.5t45 -29.5t28 -45t1 -67
q-30 -139 -208 -139q-37 0 -64 5t-46 11q-22 7 -38 16q3 25 22 39q17 -8 38 -13q18 -5 42 -9t51 -4q56 0 98.5 24t53.5 78q6 28 0 47t-21 31.5t-36 20.5t-45 15t-48.5 19.5t-42.5 30.5t-26.5 43.5t-0.5 60.5z" />
    <glyph glyph-name="sacute" unicode="&#x15b;" horiz-adv-x="442" 
d="M250 608q-23 3 -29 19l143 148q14 1 25.5 -5.5t16.5 -17.5zM82 405q14 65 62.5 98t138.5 33q30 0 53.5 -3.5t39.5 -8.5q18 -5 32 -11q-2 -11 -8.5 -22t-14.5 -17q-13 5 -30 9q-14 3 -33.5 6t-42.5 3q-65 0 -102 -23t-48 -73q-5 -23 1.5 -40t20.5 -29.5t33.5 -21
t42.5 -15.5q26 -8 52 -19.5t45 -29.5t28 -45t1 -67q-30 -139 -208 -139q-37 0 -64 5t-46 11q-22 7 -38 16q3 25 22 39q17 -8 38 -13q18 -5 42 -9t51 -4q56 0 98.5 24t53.5 78q6 28 0 47t-21 31.5t-36 20.5t-45 15t-48.5 19.5t-42.5 30.5t-26.5 43.5t-0.5 60.5z" />
    <glyph glyph-name="scaron" unicode="&#x161;" horiz-adv-x="442" 
d="M192 702q10 20 28 24l89 -77l116 78q8 -3 14 -10t7 -15l-131 -94h-24zM82 405q14 65 62.5 98t138.5 33q30 0 53.5 -3.5t39.5 -8.5q18 -5 32 -11q-2 -11 -8.5 -22t-14.5 -17q-13 5 -30 9q-14 3 -33.5 6t-42.5 3q-65 0 -102 -23t-48 -73q-5 -23 1.5 -40t20.5 -29.5
t33.5 -21t42.5 -15.5q26 -8 52 -19.5t45 -29.5t28 -45t1 -67q-30 -139 -208 -139q-37 0 -64 5t-46 11q-22 7 -38 16q3 25 22 39q17 -8 38 -13q18 -5 42 -9t51 -4q56 0 98.5 24t53.5 78q6 28 0 47t-21 31.5t-36 20.5t-45 15t-48.5 19.5t-42.5 30.5t-26.5 43.5t-0.5 60.5z" />
    <glyph glyph-name="scedilla" unicode="&#x15f;" horiz-adv-x="442" 
d="M82 405q14 65 62.5 98t138.5 33q30 0 53.5 -3.5t39.5 -8.5q18 -5 32 -11q-2 -11 -8.5 -22t-14.5 -17q-13 5 -30 9q-14 3 -33.5 6t-42.5 3q-65 0 -102 -23t-48 -73q-5 -23 1.5 -40t20.5 -29.5t33.5 -21t42.5 -15.5q26 -8 52 -19.5t45 -29.5t28 -45t1 -67
q-27 -127 -179 -138l-23 -61q57 0 77.5 -23t12.5 -63q-10 -47 -44 -70.5t-88 -23.5q-20 0 -34.5 3t-25.5 8q-12 4 -21 11q2 9 7 15.5t12 11.5q2 -1 20.5 -9t47.5 -8q35 0 57 15.5t29 47.5q6 26 -8 40t-47 14h-32l-6 9l31 82q-35 0 -61.5 5t-44.5 11q-21 7 -36 16q3 25 22 39
q17 -8 38 -13q18 -5 42 -9t51 -4q56 0 98.5 24t53.5 78q6 28 0 47t-21 31.5t-36 20.5t-45 15t-48.5 19.5t-42.5 30.5t-26.5 43.5t-0.5 60.5z" />
    <glyph glyph-name="scircumflex" unicode="&#x15d;" horiz-adv-x="442" 
d="M433 626q-5 -9 -12.5 -16.5t-17.5 -9.5l-96 83l-131 -84q-16 7 -18 27l141 102h25zM82 405q14 65 62.5 98t138.5 33q30 0 53.5 -3.5t39.5 -8.5q18 -5 32 -11q-2 -11 -8.5 -22t-14.5 -17q-13 5 -30 9q-14 3 -33.5 6t-42.5 3q-65 0 -102 -23t-48 -73q-5 -23 1.5 -40
t20.5 -29.5t33.5 -21t42.5 -15.5q26 -8 52 -19.5t45 -29.5t28 -45t1 -67q-30 -139 -208 -139q-37 0 -64 5t-46 11q-22 7 -38 16q3 25 22 39q17 -8 38 -13q18 -5 42 -9t51 -4q56 0 98.5 24t53.5 78q6 28 0 47t-21 31.5t-36 20.5t-45 15t-48.5 19.5t-42.5 30.5t-26.5 43.5
t-0.5 60.5z" />
    <glyph glyph-name="scommaaccent" unicode="&#x219;" horiz-adv-x="442" 
d="M82 405q14 65 62.5 98t138.5 33q30 0 53.5 -3.5t39.5 -8.5q18 -5 32 -11q-2 -11 -8.5 -22t-14.5 -17q-13 5 -30 9q-14 3 -33.5 6t-42.5 3q-65 0 -102 -23t-48 -73q-5 -23 1.5 -40t20.5 -29.5t33.5 -21t42.5 -15.5q26 -8 52 -19.5t45 -29.5t28 -45t1 -67
q-30 -139 -208 -139q-37 0 -64 5t-46 11q-22 7 -38 16q3 25 22 39q17 -8 38 -13q18 -5 42 -9t51 -4q56 0 98.5 24t53.5 78q6 28 0 47t-21 31.5t-36 20.5t-45 15t-48.5 19.5t-42.5 30.5t-26.5 43.5t-0.5 60.5zM68 -227q1 1 6.5 7t13.5 17t17 26.5t15 36.5q-6 0 -10 0.5
t-7 1.5q-4 1 -5 2l12 56q4 1 9 2t10.5 1.5t13.5 0.5q13 0 23 -2l8 -2l-9 -41q-7 -30 -19.5 -53t-26.5 -38q-16 -18 -34 -31z" />
    <glyph glyph-name="section" unicode="&#xa7;" horiz-adv-x="485" 
d="M329 121q6 29 -12.5 45.5t-49 28t-66.5 21.5t-65.5 25.5t-46.5 39t-8 63.5q5 24 17.5 43t27.5 34t30.5 25.5t27.5 16.5q-25 15 -39.5 39t-6.5 64q14 63 65 93.5t129 30.5q55 0 90 -9.5t40 -11.5q0 -10 -5.5 -21t-14.5 -16q-1 0 -11 3t-25 6t-34 5.5t-38 2.5
q-72 0 -105.5 -22t-41.5 -60q-6 -30 11 -47t46 -29t63 -22.5t62.5 -25.5t44 -38.5t7.5 -62.5q-5 -24 -17 -42.5t-26 -32.5t-28.5 -24t-24.5 -16q29 -16 46 -40t9 -66q-8 -38 -28 -63t-49 -40t-64.5 -21.5t-75.5 -6.5q-34 0 -61 3.5t-47 8.5q-23 5 -41 12q1 11 5.5 21.5
t14.5 17.5q1 0 13 -3t30.5 -6.5t40.5 -6.5t45 -3q75 0 115.5 20t50.5 67zM221 444q-11 -6 -25 -14.5t-27 -20t-23 -26t-14 -32.5q-6 -27 6.5 -44t35.5 -28t52.5 -18.5t58.5 -17.5q10 5 23 13.5t25.5 20t22.5 26.5t14 33q6 26 -6.5 42t-35 27.5t-51.5 19.5t-56 19z" />
    <glyph glyph-name="semicolon" unicode=";" horiz-adv-x="238" 
d="M-4 -87q1 1 6.5 7t13.5 17t16.5 26.5t14.5 36.5q-10 0 -16 2q-4 1 -5 2l12 56q4 1 9 2t10.5 1.5t13.5 0.5q13 0 23 -2l8 -2l-9 -40q-7 -31 -19.5 -53.5t-26.5 -37.5q-16 -18 -34 -31zM174 399q-4 -1 -9 -2t-10.5 -1.5t-13.5 -0.5t-13.5 0.5t-9.5 1.5l-8 2l12 56q4 1 9 2
t10.5 1.5t13.5 0.5q13 0 23 -2l8 -2z" />
    <glyph glyph-name="seven" unicode="7" horiz-adv-x="492" 
d="M524 680q1 -13 -2 -30q-14 -63 -43 -111t-66.5 -91t-79.5 -85.5t-81 -93.5t-71.5 -115t-50.5 -150q-3 -1 -9.5 -2.5t-16.5 -1.5t-16.5 1.5t-8.5 2.5q18 87 49.5 152.5t69 117.5t78 94l77.5 82.5t67 84t46 97.5h-359q-1 2 -1 6v7.5t2 10.5q3 12 6 18l3 6h407z" />
    <glyph glyph-name="seven.denom" horiz-adv-x="275" 
d="M32 310q-2 5 0 16q2 7 3.5 11t3.5 6h209v-7q0 -3 -0.5 -7.5t-1.5 -9.5q-7 -35 -22 -60t-34 -46t-40 -40.5t-40.5 -43t-35.5 -54t-25 -73.5q-4 -1 -8.5 -1.5t-10.5 -0.5q-9 0 -17 2q9 45 25 77t34.5 56t38.5 43.5l38 38.5t33 41t24 52h-174z" />
    <glyph glyph-name="seven.num" horiz-adv-x="275" 
d="M321 689q1 -10 -2 -24q-7 -35 -22 -60t-33.5 -46t-39.5 -40.5t-40.5 -43t-35.5 -54t-25 -73.5q-20 -5 -36 0q9 45 24.5 77t34 56t38.5 43.5l38 38.5t33 41t24 52h-174q-2 8 0 16.5t7 16.5h209z" />
    <glyph glyph-name="seveneighths" unicode="&#x215e;" horiz-adv-x="660" 
d="M542 698q1 1 5 2q6 2 16 2q7 0 13 -2q3 -1 4 -2l-537 -705q-2 -1 -5 -2q-2 -1 -6 -1h-9q-11 0 -14 1t-5 2zM343 689v-7q0 -3 -0.5 -7.5t-1.5 -9.5q-7 -35 -22 -60t-33.5 -46t-39.5 -40.5t-40.5 -43t-35.5 -54t-25 -73.5q-20 -5 -36 0q9 44 24.5 76t34 56.5t38.5 43.5
t38 38.5t33 41.5t24 52h-174q-1 8 0.5 16.5t6.5 16.5h209zM377 265q8 37 39.5 60t85.5 23q50 0 74 -21.5t15 -61.5q-7 -33 -28 -54.5t-47 -35.5q25 -14 40.5 -34t8.5 -54q-9 -44 -45 -68t-92 -24q-53 0 -82 23t-19 68q8 38 33.5 62t53.5 38q-20 13 -31.5 31t-5.5 48z
M556 263q12 56 -61 56q-34 0 -55.5 -14t-26.5 -38q-4 -17 1.5 -28.5t17 -20.5t27 -16.5t32.5 -14.5q25 14 42.5 32.5t22.5 43.5zM530 85q4 19 -3.5 32t-21 23t-31 17.5t-33.5 15.5q-8 -4 -19.5 -11t-23.5 -17.5t-21.5 -24.5t-13.5 -32q-8 -33 11.5 -48t60.5 -15
q34 0 61 14.5t34 45.5z" />
    <glyph glyph-name="seveninferior" unicode="&#x2087;" horiz-adv-x="275" 
d="M11 214q-2 8 0 16.5t7 16.5h209v-7q0 -3 -0.5 -7.5t-1.5 -9.5q-11 -52 -38 -84t-58 -62t-60 -68.5t-42 -102.5q-20 -5 -36 0q9 45 25 77t34.5 56.5t38.5 43.5l38.5 38t33.5 41t24 52h-174z" />
    <glyph glyph-name="six" unicode="6" horiz-adv-x="551" 
d="M505 681q2 -10 -0.5 -22.5t-7.5 -22.5q-60 -6 -113 -23.5t-97.5 -49t-80.5 -79t-61 -113.5q27 14 71.5 29.5t100.5 15.5q42 0 76 -13t55.5 -40.5t28.5 -70t-5 -100.5q-11 -53 -34 -91t-56 -62.5t-74.5 -36.5t-88.5 -12t-83.5 15.5t-59 48t-28 83t9.5 120.5
q22 105 64.5 182.5t100.5 129.5t129.5 79.5t152.5 32.5zM420 203q9 44 4.5 76t-20.5 53t-42 31t-60 10q-29 0 -56 -6.5t-50 -15t-41 -17.5t-28 -15q-5 -16 -9 -32.5l-8 -33.5q-12 -58 -9 -99.5t18.5 -68.5t42.5 -39.5t62 -12.5q70 0 124 42t72 128z" />
    <glyph glyph-name="six.denom" horiz-adv-x="309" 
d="M8 143q9 41 28.5 76t49 62t69.5 43.5t90 21.5q2 -6 0 -14.5t-7 -14.5q-68 -9 -115 -43.5t-67 -92.5q12 6 34.5 14t54.5 8q50 0 73 -27t12 -75q-6 -27 -19 -47t-31.5 -33t-40 -19.5t-43.5 -6.5q-57 0 -80 37t-8 111zM193 101q7 31 -7.5 51t-50.5 20t-58.5 -10.5
t-30.5 -15.5q-25 -121 56 -121q34 0 58.5 20t32.5 56z" />
    <glyph glyph-name="six.num" horiz-adv-x="309" 
d="M82 491q9 40 28 75t48.5 62t69.5 44t90 22q2 -7 0.5 -15t-6.5 -15q-68 -8 -115 -42.5t-67 -93.5q12 7 34.5 15t54.5 8q50 0 73 -27t12 -75q-6 -27 -19 -47t-31.5 -33t-40 -19.5t-43.5 -6.5q-57 0 -80.5 37t-7.5 111zM267 449q7 31 -8 51t-51 20t-58 -10.5t-30 -16.5
q-26 -121 56 -121q34 0 58.5 20.5t32.5 56.5z" />
    <glyph glyph-name="sixinferior" unicode="&#x2086;" horiz-adv-x="309" 
d="M-12 47q17 82 76.5 138t159.5 65q2 -15 -6 -29q-69 -9 -115.5 -43.5t-66.5 -92.5q12 6 34.5 14t54.5 8q50 0 72.5 -27t12.5 -75q-6 -27 -19.5 -47t-31.5 -33t-40 -19.5t-44 -6.5q-57 0 -80 37t-7 111zM173 5q7 31 -8 51t-51 20t-58 -10.5t-30 -15.5q-26 -121 56 -121
q34 0 58.5 20t32.5 56z" />
    <glyph glyph-name="slash" unicode="/" horiz-adv-x="440" 
d="M456 746q3 1 7 2q8 2 19 2q13 0 21 -2q4 -1 6 -2l-506 -789l-8 -2q-10 -2 -21 -2q-7 0 -11 0.5t-7 1.5q-4 1 -6 2z" />
    <glyph glyph-name="space" unicode=" " horiz-adv-x="253" 
 />
    <glyph glyph-name="sterling" unicode="&#xa3;" horiz-adv-x="515" 
d="M207 316q2 -32 -0.5 -65t-15 -66.5t-37.5 -68t-68 -68.5h313q2 -2 2 -9t-2 -15q-3 -19 -10 -24h-379l10 48q49 36 76.5 70t40.5 67t14.5 65.5t-1.5 65.5h-83q0 2 -0.5 7.5t1.5 13.5q3 16 8 21h70q-5 38 -7.5 76t5.5 79q10 47 32 80.5t53.5 55.5t71 32t84.5 10
q30 0 55.5 -3.5t44.5 -8.5t31.5 -9.5t15.5 -5.5q-2 -12 -8 -23t-17 -17q-2 1 -12.5 4.5t-27.5 7.5t-39.5 7t-47.5 3q-74 0 -120.5 -33.5t-61.5 -102.5q-8 -37 -4 -74.5t9 -77.5h195q1 -2 2 -7t-1 -13q-3 -15 -10 -22h-182z" />
    <glyph glyph-name="summation" unicode="&#x2211;" horiz-adv-x="573" 
d="M256 261l-123 409l5 24h467q1 -2 1 -6v-7.5t-1 -9.5q-3 -10 -6 -17l-3 -6h-400l116 -387l-305 -422h423q1 -2 1 -6q0 -3 -0.5 -7.5t-1.5 -9.5q-3 -10 -6 -17l-3 -6h-490l6 29z" />
    <glyph glyph-name="t" unicode="t" horiz-adv-x="351" 
d="M132 176q-8 -37 -10 -64t5.5 -44t25.5 -25.5t50 -8.5q11 0 22 0.5t21 1.5q11 1 22 3q1 -2 2 -6q1 -3 0.5 -7t-1.5 -9q-2 -5 -3 -8.5t-2 -5.5q-1 -3 -2 -5q-5 -1 -24 -4.5t-46 -3.5q-43 0 -69 12.5t-38 36t-12 58t9 78.5l66 309h-80q-1 2 -1 5q0 2 -0.5 6t1.5 10
q1 5 2.5 9.5t3.5 6.5q2 3 3 5h80l21 99q11 7 25 10.5t27 1.5l-23 -111h153q1 -2 1 -5v-7t-1 -9q-4 -12 -6 -16t-3 -5h-153z" />
    <glyph glyph-name="tbar" unicode="&#x167;" horiz-adv-x="355" 
d="M206 34q11 0 22 0.5t21 1.5q11 1 22 3q1 -2 2 -6q1 -3 0.5 -7t-1.5 -9q-2 -5 -3 -8.5t-2 -5.5q-1 -3 -2 -5q-5 -1 -24 -4.5t-46 -3.5q-43 0 -69 12.5t-38 36t-12 58t9 78.5l19 90h-67q0 19 8 37h67l39 182h-80q-1 2 -1 5q0 2 -0.5 6t1.5 10q1 5 2.5 9.5t3.5 6.5q2 3 3 5
h80l21 99q11 7 25 10.5t27 1.5l-23 -111h153q1 -2 1 -5v-7t-1 -9q-4 -12 -6 -16t-3 -5h-153l-39 -182h126q2 -18 -8 -37h-126l-19 -89q-8 -37 -10 -64t5.5 -44t25.5 -25.5t50 -8.5z" />
    <glyph glyph-name="tcaron" unicode="&#x165;" horiz-adv-x="350" 
d="M348 588q-17 3 -21 17q39 27 62 62t34 82q33 3 45 -10q-7 -22 -18.5 -44.5t-27 -42.5t-34.5 -37t-40 -27zM132 176q-8 -37 -10 -64t5.5 -44t25.5 -25.5t50 -8.5q11 0 22 0.5t21 1.5q11 1 22 3q1 -2 2 -6q1 -3 0.5 -7t-1.5 -9q-2 -5 -3 -8.5t-2 -5.5q-1 -3 -2 -5
q-5 -1 -24 -4.5t-46 -3.5q-43 0 -69 12.5t-38 36t-12 58t9 78.5l66 309h-80q-1 2 -1 5q0 2 -0.5 6t1.5 10q1 5 2.5 9.5t3.5 6.5q2 3 3 5h80l21 99q11 7 25 10.5t27 1.5l-23 -111h153q1 -2 1 -5v-7t-1 -9q-4 -12 -6 -16t-3 -5h-153z" />
    <glyph glyph-name="thorn" unicode="&#xfe;" horiz-adv-x="557" 
d="M181 746q2 1 6 2q8 2 19 2t19 -2q4 -1 6 -2l-64 -298q32 41 75.5 64.5t104.5 23.5q45 0 78 -15.5t51 -49t20.5 -87.5t-13.5 -130q-16 -77 -40.5 -127.5t-56.5 -81t-71 -43t-84 -12.5q-54 0 -91 23.5t-51 64.5l-68 -319q-2 -1 -6 -2q-8 -2 -20 -2q-11 0 -19 2q-4 1 -5 2z
M431 263q13 62 14 105.5t-11 71t-38 40t-68 12.5q-36 0 -66.5 -14.5t-55 -37.5t-41 -51.5t-23.5 -57.5l-28 -131q-6 -30 -1 -59.5t20 -53t39 -38.5t56 -15q42 0 74 12.5t56 40t42 71t31 105.5z" />
    <glyph glyph-name="three" unicode="3" horiz-adv-x="514" 
d="M419 173q-8 -36 -27 -69t-51.5 -58.5t-79.5 -40.5t-111 -15q-38 0 -67 5t-49 11q-24 7 -41 17q2 10 8 21.5t14 16.5q16 -5 51.5 -15t90.5 -10q50 0 87 10.5t62 30t40 46t22 58.5q10 48 0.5 78t-31.5 47t-52.5 23t-62.5 6h-53q-3 22 9 43h53q28 0 57.5 5.5t55.5 20.5
t46.5 42t29.5 70q13 61 -17.5 95.5t-110.5 34.5q-31 0 -57 -4t-46 -9q-23 -5 -42 -12q-8 5 -10.5 15.5t0.5 21.5q22 9 49 16q23 6 54 11t67 5q51 0 85.5 -14t54.5 -38.5t25.5 -57t-2.5 -69.5q-12 -57 -43 -95t-96 -62q65 -26 83.5 -69t4.5 -112z" />
    <glyph glyph-name="three.denom" horiz-adv-x="302" 
d="M214 93q-5 -20 -15 -38t-28 -31.5t-45 -21t-65 -7.5q-20 0 -35.5 2t-26.5 5q-13 4 -23 8q1 7 4.5 14t10.5 12q10 -3 21 -5q22 -5 53 -5t51 5.5t33 15t19.5 22t9.5 26.5q8 37 -11.5 53t-54.5 16h-44q-4 16 6 31h44q35 0 56 16.5t26 44.5q7 30 -9.5 45.5t-54.5 15.5
q-17 0 -31.5 -1.5t-25.5 -3.5q-13 -2 -23 -4q-7 10 -2 27q12 3 26 6q12 2 28.5 4.5t36.5 2.5q55 0 78.5 -23t14.5 -66q-6 -29 -21 -47.5t-43 -30.5q24 -11 36 -30t4 -58z" />
    <glyph glyph-name="three.num" horiz-adv-x="302" 
d="M287 439q-8 -41 -42.5 -69.5t-110.5 -28.5q-20 0 -35.5 2t-26.5 5q-13 4 -22 8q1 7 4.5 14t9.5 12q10 -3 22 -5q22 -5 53 -5t51 5.5t33 15t19.5 22t9.5 26.5q8 37 -12 53t-55 16h-44q-3 15 7 31h44q35 0 55.5 16.5t26.5 44.5q12 61 -64 61q-17 0 -31.5 -1.5t-25.5 -3.5
q-13 -2 -23 -4q-8 10 -2 27q11 3 25 6q12 2 28.5 4.5t36.5 2.5q55 0 79 -23t15 -66q-7 -29 -22 -47.5t-42 -30.5q24 -11 35.5 -30t3.5 -58z" />
    <glyph glyph-name="threeeighths" unicode="&#x215c;" horiz-adv-x="747" 
d="M629 698q1 1 5 2q6 2 16 2q7 0 13 -2q3 -1 4 -2l-537 -705q-2 -1 -5 -2q-2 -1 -6 -1h-9q-11 0 -14 1t-5 2zM140 681q11 3 25 6q12 2 28.5 4.5t36.5 2.5q55 0 79 -23t15 -66q-7 -29 -22 -47.5t-42 -30.5q24 -11 35.5 -30t3.5 -58q-8 -41 -42.5 -69.5t-110.5 -28.5
q-20 0 -35.5 2t-26.5 5q-13 4 -22 8q1 7 4.5 14t9.5 12q10 -3 22 -5q22 -5 53 -5t51 5.5t33 15t19.5 22t9.5 26.5q8 37 -12 53t-55 16h-44q-3 15 7 31h44q35 0 56 16.5t27 44.5q12 61 -65 61q-17 0 -31.5 -1.5t-25.5 -3.5q-13 -2 -23 -4q-8 10 -2 27zM464 265q8 37 39.5 60
t85.5 23q50 0 74 -21.5t15 -61.5q-7 -33 -28 -54.5t-47 -35.5q25 -14 40.5 -34t8.5 -54q-9 -44 -45 -68t-92 -24q-53 0 -82 23t-19 68q8 38 33.5 62t53.5 38q-20 13 -31.5 31t-5.5 48zM643 263q12 56 -61 56q-34 0 -55.5 -14t-26.5 -38q-4 -17 1.5 -28.5t17 -20.5t27 -16.5
t32.5 -14.5q25 14 42.5 32.5t22.5 43.5zM617 85q4 19 -3.5 32t-21 23t-31 17.5t-33.5 15.5q-8 -4 -19.5 -11t-23.5 -17.5t-21.5 -24.5t-13.5 -32q-8 -33 11.5 -48t60.5 -15q34 0 61 14.5t34 45.5z" />
    <glyph glyph-name="threeinferior" unicode="&#x2083;" horiz-adv-x="302" 
d="M193 -3q-8 -41 -42.5 -69.5t-110.5 -28.5q-20 0 -35.5 2t-26.5 5q-13 4 -22 8q1 7 4.5 14t9.5 12q10 -3 22 -5q22 -5 53 -5t51 5.5t33 15t19.5 22t9.5 26.5q8 37 -12 53t-55 16h-44q-3 15 7 31h44q35 0 55.5 16.5t26.5 44.5q12 61 -64 61q-17 0 -31.5 -1.5t-25.5 -3.5
q-13 -2 -23 -4q-8 10 -2 27q12 3 26 6q12 2 28.5 4.5t36.5 2.5q55 0 78.5 -23t14.5 -66q-12 -55 -64 -78q24 -11 35.5 -30t3.5 -58z" />
    <glyph glyph-name="threequarters" unicode="&#xbe;" horiz-adv-x="696" 
d="M633 698q1 1 5 2q6 2 16 2q7 0 13 -2q3 -1 4 -2l-537 -705q-2 -1 -5 -2q-2 -1 -6 -1h-9q-11 0 -14 1t-5 2zM140 681q11 3 25 6q12 2 28.5 4.5t36.5 2.5q55 0 79 -23t15 -66q-7 -29 -22 -47.5t-42 -30.5q24 -11 35.5 -30t3.5 -58q-8 -41 -42.5 -69.5t-110.5 -28.5
q-20 0 -35.5 2t-26.5 5q-13 4 -22 8q1 7 4.5 14t9.5 12q10 -3 22 -5q22 -5 53 -5t51 5.5t33 15t19.5 22t9.5 26.5q8 37 -12 53t-55 16h-44q-3 15 7 31h44q35 0 55.5 16.5t26.5 44.5q12 61 -64 61q-17 0 -31.5 -1.5t-25.5 -3.5q-13 -2 -23 -4q-8 10 -2 27zM579 340q2 1 6.5 2
t12.5 1q7 0 10.5 -1t5.5 -2l-46 -216h42q2 -7 0 -15q-2 -7 -3.5 -10.5t-2.5 -5.5h-42l-19 -90q-2 -1 -6 -2t-10 -1q-13 0 -16 3l19 90h-180q-2 4 -1 12q1 4 2.5 6.5t3.5 4.5zM536 124l37 171l-174 -171h137z" />
    <glyph glyph-name="threesuperior" unicode="&#xb3;" horiz-adv-x="302" 
d="M287 439q-8 -41 -42.5 -69.5t-110.5 -28.5q-20 0 -35.5 2t-26.5 5q-13 4 -22 8q1 7 4.5 14t9.5 12q10 -3 22 -5q22 -5 53 -5t51 5.5t33 15t19.5 22t9.5 26.5q8 37 -12 53t-55 16h-44q-3 15 7 31h44q35 0 55.5 16.5t26.5 44.5q12 61 -64 61q-17 0 -31.5 -1.5t-25.5 -3.5
q-13 -2 -23 -4q-8 10 -2 27q11 3 25 6q12 2 28.5 4.5t36.5 2.5q55 0 79 -23t15 -66q-7 -29 -22 -47.5t-42 -30.5q24 -11 35.5 -30t3.5 -58z" />
    <glyph glyph-name="tilde" unicode="&#x2dc;" horiz-adv-x="327" 
d="M217 657q11 0 20 4.5t16 10.5q8 6 15 15q8 -3 13 -9.5t5 -15.5q-9 -13 -21 -23q-11 -8 -26.5 -15t-35.5 -7q-19 0 -31.5 5.5t-23 12t-21 12t-24.5 5.5q-11 0 -20 -5t-16 -10q-8 -7 -15 -15q-20 8 -20 24q10 12 22 23q11 8 26.5 15.5t35.5 7.5q19 0 32 -5.5t23.5 -12
t21 -12t24.5 -5.5z" />
    <glyph glyph-name="trademark" unicode="&#x2122;" horiz-adv-x="625" 
d="M330 720q2 -7 0 -12q-1 -7 -5 -13h-87l-56 -260q-1 -1 -3 -2t-11 -1q-8 0 -10 1t-3 2l56 260h-89q0 3 -0.5 6t0.5 7q2 8 5 12h203zM382 717q1 0 4 1q6 2 13 2t9.5 -1t4.5 -2l32 -108q6 -19 11 -37.5t8 -35.5q10 16 22 33.5t28 36.5l79 111q2 0 5 1q6 2 12 2q8 0 12 -2
q2 -1 3 -1l-60 -282q-1 -1 -3 -2t-9 -1q-8 0 -10 1t-3 2l28 128l24 117l-21.5 -31.5t-22.5 -30.5l-77 -106l-4 -2q-2 -1 -10 -1q-7 0 -9 1t-3 2l-30 106l-9.5 31.5l-9.5 30.5q-4 -26 -9.5 -55t-12.5 -61l-28 -129q-1 -1 -3 -2t-9 -1t-9 1t-3 2z" />
    <glyph glyph-name="two" unicode="2" horiz-adv-x="526" 
d="M165 616q-15 14 -7 42q24 9 54 16q26 6 60.5 11t76.5 5q41 0 75.5 -10.5t57 -33t30.5 -57t-2 -81.5q-9 -42 -28.5 -72t-49.5 -54.5t-70 -47l-90 -49.5l-62 -33t-63 -39.5t-53.5 -53.5t-32.5 -75q-4 -16 -5 -25.5t-1 -10.5h343q1 -2 1 -7.5t-2 -16.5t-4.5 -16.5t-4.5 -7.5
h-389q0 9 1 20q1 9 2.5 21t4.5 26q12 58 37.5 97.5t59.5 67.5t73 49l78 43l74 41.5t60 40.5t43.5 47.5t25.5 62.5q5 23 3.5 46t-15 42t-41 30.5t-75.5 11.5q-32 0 -61.5 -5t-52.5 -10q-27 -7 -51 -15z" />
    <glyph glyph-name="two.denom" horiz-adv-x="300" 
d="M-20 41q7 34 25.5 56t42.5 37.5t51 26.5t50 23t40.5 28t22.5 41q5 26 -9 44.5t-61 19.5q-27 0 -50 -4.5t-25 -5.5q-8 13 -2 28q11 3 25 6l28 4.5t36 2.5q60 0 81.5 -25.5t12.5 -66.5q-7 -32 -25 -52.5t-42.5 -34.5t-51 -25.5t-50.5 -25.5t-41.5 -34t-23.5 -51h182
q3 -8 0 -17q-2 -9 -7 -16h-214q0 6 1 12q1 5 1.5 12.5t2.5 16.5z" />
    <glyph glyph-name="two.num" horiz-adv-x="302" 
d="M55 387q7 34 25.5 56t42.5 37.5t51 26.5t50 23t40.5 28t22.5 41q3 13 1.5 24.5t-9.5 20.5t-23 14t-38 5q-27 0 -50 -4.5t-25 -5.5q-9 11 -2 28q11 3 25 6l27.5 4.5t35.5 2.5q60 0 81.5 -25.5t13.5 -66.5q-7 -32 -25.5 -52.5t-42.5 -34.5t-51 -25.5t-50.5 -25.5t-41.5 -34
t-23 -51h182q2 -8 0 -17t-7 -16h-214v12q0 13 4 29z" />
    <glyph glyph-name="twoinferior" unicode="&#x2082;" horiz-adv-x="302" 
d="M-39 -55q7 34 25.5 56t42.5 37.5t51 26.5t50 23t40.5 28t22.5 41q3 13 1.5 24.5t-9.5 20.5t-23 14t-39 5q-13 0 -26 -1.5t-23.5 -3t-17 -3.5t-7.5 -2q-8 13 -2 28q11 3 25 6l28 4.5t36 2.5q60 0 81 -25.5t13 -66.5q-7 -32 -25.5 -52.5t-42.5 -34.5t-51 -25.5t-50.5 -25.5
t-41.5 -34t-23 -51h182q2 -4 1.5 -8t-1.5 -9q-2 -9 -7 -16h-214v12q0 13 4 29z" />
    <glyph glyph-name="twosuperior" unicode="&#xb2;" horiz-adv-x="302" 
d="M55 387q7 34 25.5 56t42.5 37.5t51 26.5t50 23t40.5 28t22.5 41q3 13 1.5 24.5t-9.5 20.5t-23 14t-39 5q-13 0 -26 -1.5t-23.5 -3t-17 -3.5t-7.5 -2q-9 11 -2 28q11 3 25 6l27.5 4.5t35.5 2.5q60 0 81.5 -25.5t13.5 -66.5q-7 -32 -25.5 -52.5t-42.5 -34.5t-51 -25.5
t-50.5 -25.5t-41.5 -34t-23 -51h182q2 -8 0 -17t-7 -16h-214v12q0 13 4 29z" />
    <glyph glyph-name="u" unicode="u" 
d="M129 522q3 1 7 2q8 2 19 2t19 -2q4 -1 5 -2l-79 -372q-13 -60 11 -88.5t84 -28.5q47 0 97.5 29.5t86.5 83.5l80 376q3 1 7 2q8 2 19 2q10 0 18 -2q4 -1 6 -2l-110 -518q-3 -1 -7 -2q-8 -2 -19 -2q-7 0 -11 0.5t-7 1.5q-4 1 -6 2l16 72q-40 -42 -85 -64t-102 -22
q-36 0 -63 12t-43.5 33t-22.5 51t2 66z" />
    <glyph glyph-name="uacute" unicode="&#xfa;" 
d="M300 608q-23 3 -29 19l143 148q14 1 25.5 -5.5t16.5 -17.5zM129 522q3 1 7 2q8 2 19 2t19 -2q4 -1 5 -2l-79 -372q-13 -60 11 -88.5t84 -28.5q47 0 97.5 29.5t86.5 83.5l80 376q3 1 7 2q8 2 19 2q10 0 18 -2q4 -1 6 -2l-110 -518q-3 -1 -7 -2q-8 -2 -19 -2q-7 0 -11 0.5
t-7 1.5q-4 1 -6 2l16 72q-40 -42 -85 -64t-102 -22q-36 0 -63 12t-43.5 33t-22.5 51t2 66z" />
    <glyph glyph-name="ubreve" unicode="&#x16d;" 
d="M352 675q25 0 47 6t38 14q18 9 34 20q19 -5 19 -27q-15 -16 -35 -28q-17 -11 -42.5 -19.5t-59.5 -8.5t-59 8.5t-42 19.5q-19 12 -33 28q11 20 31 27q11 -11 26 -20q13 -8 31.5 -14t44.5 -6zM129 522q3 1 7 2q8 2 19 2t19 -2q4 -1 5 -2l-79 -372q-13 -60 11 -88.5
t84 -28.5q47 0 97.5 29.5t86.5 83.5l80 376q3 1 7 2q8 2 19 2q10 0 18 -2q4 -1 6 -2l-110 -518q-3 -1 -7 -2q-8 -2 -19 -2q-7 0 -11 0.5t-7 1.5q-4 1 -6 2l16 72q-40 -42 -85 -64t-102 -22q-36 0 -63 12t-43.5 33t-22.5 51t2 66z" />
    <glyph glyph-name="ucircumflex" unicode="&#xfb;" 
d="M479 628q-5 -8 -12 -15.5t-17 -9.5l-96 83l-131 -84q-16 7 -19 26l143 104h25zM129 522q3 1 7 2q8 2 19 2t19 -2q4 -1 5 -2l-79 -372q-13 -60 11 -88.5t84 -28.5q47 0 97.5 29.5t86.5 83.5l80 376q3 1 7 2q8 2 19 2q10 0 18 -2q4 -1 6 -2l-110 -518q-3 -1 -7 -2
q-8 -2 -19 -2q-7 0 -11 0.5t-7 1.5q-4 1 -6 2l16 72q-40 -42 -85 -64t-102 -22q-36 0 -63 12t-43.5 33t-22.5 51t2 66z" />
    <glyph glyph-name="udieresis" unicode="&#xfc;" 
d="M251 705l8 2q10 2 23 2q12 0 22 -2q4 -1 7 -2l-11 -53l-8 -2t-10 -1h-13q-17 0 -22 1q-4 1 -7 2zM400 705q3 1 7 2q10 2 23 2q8 0 13 -0.5t9 -1.5t7 -2l-11 -53l-8 -2t-9.5 -1h-13.5h-13.5t-8.5 1q-4 1 -6 2zM129 522q3 1 7 2q8 2 19 2t19 -2q4 -1 5 -2l-79 -372
q-13 -60 11 -88.5t84 -28.5q47 0 97.5 29.5t86.5 83.5l80 376q3 1 7 2q8 2 19 2q10 0 18 -2q4 -1 6 -2l-110 -518q-3 -1 -7 -2q-8 -2 -19 -2q-7 0 -11 0.5t-7 1.5q-4 1 -6 2l16 72q-40 -42 -85 -64t-102 -22q-36 0 -63 12t-43.5 33t-22.5 51t2 66z" />
    <glyph glyph-name="ugrave" unicode="&#xf9;" 
d="M393 627q-13 -16 -37 -19l-94 144q8 10 23 17t29 6zM129 522q3 1 7 2q8 2 19 2t19 -2q4 -1 5 -2l-79 -372q-13 -60 11 -88.5t84 -28.5q47 0 97.5 29.5t86.5 83.5l80 376q3 1 7 2q8 2 19 2q10 0 18 -2q4 -1 6 -2l-110 -518q-3 -1 -7 -2q-8 -2 -19 -2q-7 0 -11 0.5t-7 1.5
q-4 1 -6 2l16 72q-40 -42 -85 -64t-102 -22q-36 0 -63 12t-43.5 33t-22.5 51t2 66z" />
    <glyph glyph-name="uhungarumlaut" unicode="&#x171;" 
d="M258 608q-20 1 -26 17l127 135q15 1 26.5 -4.5t16.5 -15.5zM401 608q-21 1 -27 17l127 135q30 2 43 -20zM129 522q3 1 7 2q8 2 19 2t19 -2q4 -1 5 -2l-79 -372q-13 -60 11 -88.5t84 -28.5q47 0 97.5 29.5t86.5 83.5l80 376q3 1 7 2q8 2 19 2q10 0 18 -2q4 -1 6 -2
l-110 -518q-3 -1 -7 -2q-8 -2 -19 -2q-7 0 -11 0.5t-7 1.5q-4 1 -6 2l16 72q-40 -42 -85 -64t-102 -22q-36 0 -63 12t-43.5 33t-22.5 51t2 66z" />
    <glyph glyph-name="umacron" unicode="&#x16b;" 
d="M472 699q2 -8 -0.5 -18.5t-7.5 -18.5h-225q-3 19 8 37h225zM129 522q3 1 7 2q8 2 19 2t19 -2q4 -1 5 -2l-79 -372q-13 -60 11 -88.5t84 -28.5q47 0 97.5 29.5t86.5 83.5l80 376q3 1 7 2q8 2 19 2q10 0 18 -2q4 -1 6 -2l-110 -518q-3 -1 -7 -2q-8 -2 -19 -2q-7 0 -11 0.5
t-7 1.5q-4 1 -6 2l16 72q-40 -42 -85 -64t-102 -22q-36 0 -63 12t-43.5 33t-22.5 51t2 66z" />
    <glyph glyph-name="underscore" unicode="_" horiz-adv-x="531" 
d="M-12 -59q-1 1 -1 4v6t2 10q1 10 5 15q2 3 3 4h408q1 -1 1 -4v-6t-1 -9q-3 -11 -6 -16q-2 -3 -3 -4h-408z" />
    <glyph glyph-name="uni00AD" unicode="&#xad;" horiz-adv-x="268" 
 />
    <glyph glyph-name="Tcommaaccent" unicode="&#x162;" horiz-adv-x="529" 
d="M583 720q1 -2 1 -6q0 -3 -0.5 -7.5t-1.5 -9.5q-3 -12 -6 -17l-3 -6h-203l-142 -670q-3 -1 -7 -2t-8.5 -1.5t-11.5 -0.5q-8 0 -12.5 0.5t-7.5 1.5q-4 1 -5 2l142 670h-208q-1 2 -1 6v7.5t2 9.5q1 5 2.5 9.5t3.5 7.5l3 6h463zM118 -207q1 1 6.5 7t13.5 17t17 26.5t15 36.5
q-10 0 -16 2q-3 1 -5 2l12 56q4 1 9 2t10.5 1.5t13.5 0.5q13 0 23 -2q4 -1 7 -2l-8 -40q-7 -31 -20 -53.5t-26 -38.5q-16 -18 -33 -31z" />
    <glyph glyph-name="Tcommaaccent" unicode="&#x21a;" horiz-adv-x="529" 
d="M583 720q1 -2 1 -6q0 -3 -0.5 -7.5t-1.5 -9.5q-3 -12 -6 -17l-3 -6h-203l-142 -670q-3 -1 -7 -2t-8.5 -1.5t-11.5 -0.5q-8 0 -12.5 0.5t-7.5 1.5q-4 1 -5 2l142 670h-208q-1 2 -1 6v7.5t2 9.5q1 5 2.5 9.5t3.5 7.5l3 6h463zM118 -207q1 1 6.5 7t13.5 17t17 26.5t15 36.5
q-10 0 -16 2q-3 1 -5 2l12 56q4 1 9 2t10.5 1.5t13.5 0.5q13 0 23 -2q4 -1 7 -2l-8 -40q-7 -31 -20 -53.5t-26 -38.5q-16 -18 -33 -31z" />
    <glyph glyph-name="tcommaaccent" unicode="&#x163;" horiz-adv-x="351" 
d="M132 176q-8 -37 -10 -64t5.5 -44t25.5 -25.5t50 -8.5q11 0 22 0.5t21 1.5q11 1 22 3q1 -2 2 -6q1 -3 0.5 -7t-1.5 -9q-2 -5 -3 -8.5t-2 -5.5q-1 -3 -2 -5q-5 -1 -24 -4.5t-46 -3.5q-43 0 -69 12.5t-38 36t-12 58t9 78.5l66 309h-80q-1 2 -1 5q0 2 -0.5 6t1.5 10
q1 5 2.5 9.5t3.5 6.5q2 3 3 5h80l21 99q11 7 25 10.5t27 1.5l-23 -111h153q1 -2 1 -5v-7t-1 -9q-4 -12 -6 -16t-3 -5h-153zM59 -227q1 1 6.5 7t13.5 17t17 26.5t15 36.5q-6 0 -10 0.5t-7 1.5q-4 1 -5 2l12 56q4 1 9 2t10.5 1.5t13.5 0.5q13 0 23 -2l8 -2l-9 -41
q-7 -30 -19.5 -53t-26.5 -38q-16 -18 -34 -31z" />
    <glyph glyph-name="tcommaaccent" unicode="&#x21b;" horiz-adv-x="351" 
d="M132 176q-8 -37 -10 -64t5.5 -44t25.5 -25.5t50 -8.5q11 0 22 0.5t21 1.5q11 1 22 3q1 -2 2 -6q1 -3 0.5 -7t-1.5 -9q-2 -5 -3 -8.5t-2 -5.5q-1 -3 -2 -5q-5 -1 -24 -4.5t-46 -3.5q-43 0 -69 12.5t-38 36t-12 58t9 78.5l66 309h-80q-1 2 -1 5q0 2 -0.5 6t1.5 10
q1 5 2.5 9.5t3.5 6.5q2 3 3 5h80l21 99q11 7 25 10.5t27 1.5l-23 -111h153q1 -2 1 -5v-7t-1 -9q-4 -12 -6 -16t-3 -5h-153zM59 -227q1 1 6.5 7t13.5 17t17 26.5t15 36.5q-6 0 -10 0.5t-7 1.5q-4 1 -5 2l12 56q4 1 9 2t10.5 1.5t13.5 0.5q13 0 23 -2l8 -2l-9 -41
q-7 -30 -19.5 -53t-26.5 -38q-16 -18 -34 -31z" />
    <glyph glyph-name="uni0401" unicode="&#x401;" horiz-adv-x="556" 
d="M320 857l8 2q10 2 23 2q8 0 13 -0.5t9 -1.5t7 -2l-11 -53l-8 -2q-10 -2 -23 -2q-8 0 -13 0.5t-9 1.5t-7 2zM469 857l8 2q10 2 23 2q8 0 13 -0.5t9 -1.5t7 -2l-11 -53l-8 -2q-10 -2 -23 -2q-8 0 -13 0.5t-9 1.5t-7 2zM583 720q2 -10 -1 -22q-3 -13 -9 -24h-339l-61 -286
h289q1 -10 0 -22q-2 -7 -4.5 -12.5t-4.5 -10.5h-289l-63 -297h349q0 -5 0.5 -10.5t-1.5 -11.5q-2 -7 -4.5 -13l-4.5 -11h-401l153 720h391z" />
    <glyph glyph-name="uni0410" unicode="&#x410;" horiz-adv-x="640" 
d="M381 716q3 1 7 2t8.5 1.5t11.5 0.5q11 0 19 -2q4 -1 6 -2l124 -712q-3 -1 -7 -2q-10 -2 -22 -2q-9 0 -17 2q-4 1 -6 2l-36 204h-337l-123 -204q-3 -1 -7 -2q-10 -2 -24 -2q-7 0 -11 0.5t-7 1.5q-4 1 -5 2zM395 653l-7 -14q-4 -7 -9 -17l-11 -21l-210 -347h304l-60 347
q-2 12 -2.5 21.5t-1.5 16.5q-1 8 -1 14h-2z" />
    <glyph glyph-name="uni0411" unicode="&#x411;" horiz-adv-x="612" 
d="M575 720q1 -2 1 -6v-8t-1 -10q-3 -12 -6 -17q-2 -4 -4 -6h-331l-57 -268h203q46 0 80 -16t54 -44.5t26 -67t-4 -84.5q-20 -93 -84 -143t-158 -50h-255l153 720h383zM100 44h195q76 0 125.5 43.5t64.5 115.5q16 73 -15 115.5t-107 42.5h-195z" />
    <glyph glyph-name="uni0412" unicode="&#x412;" horiz-adv-x="629" 
d="M434 720q54 0 87.5 -16.5t51 -43.5t20 -62.5t-5.5 -73.5q-9 -45 -27.5 -74t-38 -46.5t-36 -26t-23.5 -11.5q4 -2 20.5 -11t32.5 -29t25 -54t-2 -86q-9 -43 -27.5 -77.5t-48.5 -58.5t-73.5 -37t-103.5 -13h-246l153 720h242zM353 386q82 0 124.5 40t56.5 105q7 33 5 59.5
t-16 45t-41 29t-70 10.5h-178l-61 -289h180zM289 45q91 0 135.5 39t59.5 109q17 77 -15 113t-118 36h-187l-63 -297h188z" />
    <glyph glyph-name="uni0413" unicode="&#x413;" horiz-adv-x="499" 
d="M556 720q1 -2 1 -6q0 -3 -0.5 -7.5t-1.5 -9.5q-3 -12 -6 -17q-2 -4 -3 -7h-312l-142 -669q-3 -1 -7 -2q-10 -2 -20 -2q-11 0 -19 2q-4 1 -6 2l152 716h364z" />
    <glyph glyph-name="uni0414" unicode="&#x414;" horiz-adv-x="680" 
d="M575 46l-39 -184q-3 -1 -9.5 -2.5t-15.5 -1.5q-10 0 -16 1.5t-8 2.5l29 138h-511l-29 -138l-10 -2.5t-16 -1.5q-9 0 -15 1.5t-8 2.5l39 184h61q45 45 80 125t69 196l102 353h362l-143 -674h78zM225 361q-30 -107 -65.5 -188.5t-73.5 -126.5h359l134 631h-264z" />
    <glyph glyph-name="uni0415" unicode="&#x415;" horiz-adv-x="556" 
d="M583 720q2 -10 -1 -22l-3.5 -13.5t-5.5 -10.5h-339l-61 -286h289q2 -9 0 -22q-3 -13 -9 -23h-289l-63 -297h349q0 -5 0.5 -10.5t-1.5 -11.5q-3 -14 -9 -24h-401l153 720h391z" />
    <glyph glyph-name="uni0416" unicode="&#x416;" horiz-adv-x="941" 
d="M918 716q2 1 10.5 2.5t23.5 1.5q11 0 17.5 -1.5t8.5 -2.5l-286 -346l166 -366q-5 -1 -9 -2q-5 -1 -10 -1.5t-13 -0.5q-11 0 -21 2l-8 2l-153 347h-135l-74 -347q-3 -1 -7 -2t-8.5 -1.5t-11.5 -0.5q-11 0 -19 2q-4 1 -6 2l74 347h-140l-297 -347q-5 -1 -9 -2
q-5 -1 -10 -1.5t-13 -0.5q-14 0 -22 2q-4 1 -6 2l320 379l-140 333q3 1 10.5 2.5t18.5 1.5t18 -1.5t9 -2.5l135 -320h135l68 320q3 1 7 2t8.5 1.5t11.5 0.5q11 0 19 -2q4 -1 6 -2l-68 -320h133l267 320v0z" />
    <glyph glyph-name="uni0417" unicode="&#x417;" horiz-adv-x="544" 
d="M136 697q24 9 54 16q25 6 59 11.5t74 5.5q56 0 94.5 -14.5t60.5 -40t28.5 -61.5t-0.5 -78q-8 -47 -28.5 -78t-44.5 -50t-46 -28t-33 -12l-1 -2q12 -3 32.5 -14t38.5 -33t27.5 -57t-1.5 -87q-9 -40 -29.5 -74t-55.5 -58.5t-87 -38.5t-122 -14q-42 0 -74.5 4.5t-55.5 10.5
q-26 6 -45 15q2 11 8.5 23t16.5 18q23 -8 60.5 -16t93.5 -8t97.5 11t70.5 31t45.5 47.5t23.5 59.5q11 51 -0.5 82t-37 48t-60.5 23t-71 6h-54q-3 11 -0.5 23.5t10.5 22.5h54q32 0 65.5 5.5t63 22t52.5 45.5t33 77q14 66 -21.5 104t-122.5 38q-34 0 -63.5 -4t-51.5 -9
q-26 -6 -47 -13q-10 7 -12 17.5t2 22.5z" />
    <glyph glyph-name="uni0418" unicode="&#x418;" horiz-adv-x="688" 
d="M612 716l8 2t9.5 1.5t13.5 0.5t13 -0.5t9 -1.5t7 -2l-151 -712q-3 -1 -7 -2t-8.5 -1.5t-11.5 -0.5q-8 0 -12.5 0.5t-7.5 1.5q-4 1 -5 2l103 484l17 76.5t12 49.5q5 22 10 35h-3l-19 -29q-20 -29 -66 -87l-422 -529q-1 0 -9.5 -2t-23.5 -2q-8 0 -13 0.5t-9 1.5t-7 2
l151 712q3 1 7 2t8.5 1.5t11.5 0.5q12 0 20 -2q4 -1 6 -2l-104 -490l-15 -63.5l-12 -49.5l-11 -44h2q5 10 30.5 45.5t59.5 78.5l419 523v0z" />
    <glyph glyph-name="uni0419" unicode="&#x419;" horiz-adv-x="688" 
d="M475 868q26 0 49.5 5.5t41.5 13.5q21 9 40 20q9 -4 14 -12.5t6 -19.5q-19 -15 -43 -26q-20 -10 -48.5 -18t-63.5 -8t-61.5 8t-44.5 19q-21 12 -36 28q12 21 32 29q13 -11 31 -20q15 -8 36 -13.5t47 -5.5zM612 716l8 2t9.5 1.5t13.5 0.5t13 -0.5t9 -1.5t7 -2l-151 -712
q-3 -1 -7 -2t-8.5 -1.5t-11.5 -0.5q-8 0 -12.5 0.5t-7.5 1.5q-4 1 -5 2l103 484l17 76.5t12 49.5q5 22 10 35h-3l-20 -29l-27 -36t-39 -51l-421 -529q-1 0 -9.5 -2t-23.5 -2q-8 0 -13 0.5t-9 1.5t-7 2l151 712q3 1 7 2t8.5 1.5t11.5 0.5q12 0 20 -2q4 -1 6 -2l-104 -490
l-15 -63.5l-12 -49.5l-11 -44h2q5 10 31 45.5l60 78.5z" />
    <glyph glyph-name="uni041A" unicode="&#x41a;" horiz-adv-x="608" 
d="M588 716q2 1 10.5 2.5t19.5 1.5t18.5 -1.5t10.5 -2.5l-309 -345l187 -367l-8 -2q-10 -2 -23 -2q-11 0 -21 2l-8 2l-173 347h-127l-74 -347q-3 -1 -7 -2t-8.5 -1.5t-11.5 -0.5q-11 0 -19 2q-4 1 -6 2l151 712q3 1 7 2q10 2 21 2q10 0 18 -2q4 -1 6 -2l-68 -319h124z" />
    <glyph glyph-name="uni041B" unicode="&#x41b;" horiz-adv-x="660" 
d="M-10 -6q-8 0 -17 2t-15 4q0 2 -1 7t1 13t4.5 13.5t4.5 7.5q5 0 10.5 -0.5t12.5 -0.5q20 0 40.5 8t44.5 42.5t52.5 106t65.5 198.5l94 325h356l-152 -716q-3 -1 -7 -2q-10 -2 -20 -2q-14 0 -20 2t-5 2l142 671h-258l-81 -282q-40 -138 -74 -218t-64 -120t-58 -50.5
t-56 -10.5z" />
    <glyph glyph-name="uni041C" unicode="&#x41c;" horiz-adv-x="844" 
d="M755 716q4 1 14.5 2.5t24.5 1.5q8 0 14.5 -0.5t11.5 -1.5t8 -2l-151 -712q-3 -1 -7 -2t-8.5 -1.5t-11.5 -0.5q-11 0 -19 2q-4 1 -6 2l108 507q12 57 22 96.5t14 51.5h-3q-5 -9 -24 -38t-49 -67l-281 -356q-2 -1 -6 -2q-8 -2 -15 -2q-8 0 -14 2q-3 1 -5 2l-60.5 177
l-60.5 178q-13 36 -20.5 66.5t-7.5 39.5h-3q0 -11 -6 -51t-19 -101l-107 -503q-2 -1 -6 -2q-8 -2 -19 -2q-7 0 -11 0.5t-7 1.5q-4 1 -6 2l151 712q4 1 9 2t11 1.5t14 0.5q11 0 21 -2q4 -1 7 -2l150 -454h2l351 454v0z" />
    <glyph glyph-name="uni041D" unicode="&#x41d;" horiz-adv-x="679" 
d="M611 716q3 1 7 2t8.5 1.5t11.5 0.5q11 0 19 -2q4 -1 6 -2l-151 -712q-3 -1 -7 -2t-8.5 -1.5t-11.5 -0.5q-8 0 -12.5 0.5t-7.5 1.5q-4 1 -5 2l72 341h-368l-72 -341q-3 -1 -7 -2q-10 -2 -20 -2q-8 0 -12.5 0.5t-7.5 1.5q-4 1 -5 2l151 712q3 1 7 2t8.5 1.5t11.5 0.5
q11 0 19 -2q4 -1 6 -2l-69 -323h368z" />
    <glyph glyph-name="uni041E" unicode="&#x41e;" horiz-adv-x="676" 
d="M83 373q21 97 53 164.5t75 110.5t96 62.5t116 19.5t108.5 -22.5t71 -69t29.5 -118t-17 -168.5t-52 -166t-73 -112.5t-94.5 -63.5t-115.5 -20t-109.5 23.5t-72.5 71t-31 119.5t16 169zM563 360q19 90 16 152t-23.5 100.5t-56 55.5t-80.5 17q-49 0 -92.5 -17t-79.5 -55.5
t-64.5 -100.5t-47.5 -152q-19 -89 -14.5 -151t26 -100.5t56.5 -56t77 -17.5q49 0 92.5 17.5t79.5 56t64 100.5t47 151z" />
    <glyph glyph-name="uni041F" unicode="&#x41f;" horiz-adv-x="668" 
d="M500 4q-3 -1 -7 -2t-8.5 -1.5t-10.5 -0.5q-8 0 -12.5 0.5t-7.5 1.5q-4 1 -6 2l142 669h-355l-142 -669l-8 -2q-10 -2 -20 -2q-11 0 -19 2q-4 1 -6 2l152 716h460z" />
    <glyph glyph-name="uni0420" unicode="&#x420;" horiz-adv-x="599" 
d="M92 4q-3 -1 -7 -2q-8 -2 -19 -2q-8 0 -12.5 0.5t-7.5 1.5q-4 1 -6 2l152 716h247q47 0 80.5 -17t52.5 -46.5t23.5 -69.5t-5.5 -87q-20 -94 -82.5 -146.5t-157.5 -52.5h-195zM358 348q71 0 118 43t63 118q17 78 -12 121.5t-100 43.5h-193l-69 -326h193z" />
    <glyph glyph-name="uni0421" unicode="&#x421;" horiz-adv-x="553" 
d="M83 369q40 185 124.5 273t221.5 88q41 0 71 -5.5t50 -11.5q23 -7 39 -16q-6 -22 -25 -40q-16 7 -37 13q-18 5 -43.5 9.5t-57.5 4.5q-50 0 -94 -15.5t-81 -53t-66.5 -100t-49.5 -156.5t-17 -156t24 -99t59 -52t88 -15q35 0 64.5 4t50.5 9q25 6 45 14q11 -16 8 -41
q-21 -10 -48 -17q-24 -6 -58 -11t-79 -5q-136 0 -182 95.5t-7 283.5z" />
    <glyph glyph-name="uni0422" unicode="&#x422;" horiz-adv-x="529" 
d="M583 720q1 -2 1 -6q0 -3 -0.5 -7.5t-1.5 -9.5q-3 -12 -6 -17l-3 -6h-203l-142 -670q-3 -1 -7 -2t-8.5 -1.5t-11.5 -0.5q-8 0 -12.5 0.5t-7.5 1.5q-4 1 -5 2l142 670h-208q-1 2 -1 6v7.5t2 9.5q1 5 2.5 9.5t3.5 7.5l3 6h463z" />
    <glyph glyph-name="uni0423" unicode="&#x423;" horiz-adv-x="609" 
d="M610 716q3 1 7 2q8 2 20 2q14 0 24 -2q4 -1 7 -2l-317 -525q-38 -63 -70 -101t-60.5 -58t-55 -26t-54.5 -6q-26 0 -39 3q-8 2 -14 4q-2 8 1 23t9 21q6 -1 13 -2q6 -1 13 -1.5t14 -0.5q20 0 38.5 2.5t37 13t39.5 32t45 58.5h-5l-158 563q3 1 7 2q10 2 23 2q11 0 19 -2
q4 -1 6 -2l126 -460q5 -19 8 -36.5t5 -24.5h2q5 7 12.5 25t20.5 39l276 457v0z" />
    <glyph glyph-name="uni0424" unicode="&#x424;" horiz-adv-x="796" 
d="M462 726q3 1 7 2t8.5 1.5t11.5 0.5q11 0 19 -2q4 -1 6 -2l-16 -77q66 0 121.5 -14t91.5 -47t49.5 -87.5t-3.5 -134.5t-53 -131.5t-85.5 -81t-110 -40.5t-126.5 -11l-21 -98l-8 -2t-8.5 -1.5t-10.5 -0.5q-11 0 -19 2q-4 1 -6 2l21 98q-66 0 -121 14t-90.5 46.5t-48.5 86.5
t4 134t52.5 131.5t84 81.5t109 41.5t126.5 11.5zM437 606q-57 0 -107 -10t-90.5 -36t-69.5 -70.5t-44 -113.5t-4.5 -113.5t39.5 -70.5t75 -36t103 -10zM391 146q57 0 107.5 10t91 36t69.5 70.5t44 113.5t4.5 113.5t-39.5 70.5t-75.5 36t-103.5 10z" />
    <glyph glyph-name="uni0425" unicode="&#x425;" horiz-adv-x="597" 
d="M580 716q3 1 13.5 2.5t22.5 1.5t19 -1.5t10 -2.5l-298 -344l158 -367q-4 -2 -9 -3t-10.5 -1.5t-13.5 -0.5q-10 0 -18 2q-4 1 -6 2l-141 328l-275 -328q-3 -1 -14.5 -2.5t-22.5 -1.5q-12 0 -19 1.5t-10 2.5l308 366l-147 346q3 1 8 2q10 2 25 2q9 0 17 -2q4 -1 7 -2
l131 -308l265 308v0z" />
    <glyph glyph-name="uni0426" unicode="&#x426;" horiz-adv-x="700" 
d="M191 716q3 1 7 2q8 2 20 2q11 0 19 -2q4 -1 6 -2l-142 -669h364l142 669q3 1 7 2q8 2 20 2q11 0 19 -2q4 -1 6 -2l-142 -669h77l-39 -185q-11 -4 -26 -4t-23 4l29 138h-496z" />
    <glyph glyph-name="uni0427" unicode="&#x427;" horiz-adv-x="632" 
d="M564 716q3 1 7 2t8.5 1.5t11.5 0.5q11 0 19 -2q4 -1 6 -2l-151 -712q-3 -1 -7 -2q-10 -2 -20 -2q-11 0 -19 2q-4 1 -6 2l70 332q-2 -1 -19 -6.5t-44 -12t-63 -12t-77 -5.5q-50 0 -88 10.5t-61 37t-29.5 70.5t7.5 111l40 187q3 1 7 2q8 2 19 2q12 0 20 -2q4 -1 6 -2
l-40 -187q-11 -52 -7.5 -87t20.5 -56t49 -30t78 -9q39 0 73 5.5t60 12.5t41.5 13t18.5 7z" />
    <glyph glyph-name="uni0428" unicode="&#x428;" horiz-adv-x="958" 
d="M191 716q3 1 7 2q8 2 20 2q11 0 19 -2q4 -1 6 -2l-142 -669h297l142 669q2 1 6 2q8 2 22 2q12 0 20 -2q4 -1 5 -2l-142 -669h297l142 669q2 1 6 2q8 2 21 2q11 0 19 -2q4 -1 6 -2l-152 -716h-751z" />
    <glyph glyph-name="uni0429" unicode="&#x429;" horiz-adv-x="983" 
d="M191 716q3 1 7 2q8 2 20 2q11 0 19 -2q4 -1 6 -2l-142 -669h297l142 669q3 1 7 2q10 2 21 2t19 -2q4 -1 6 -2l-142 -669h297l142 669q3 1 7 2q8 2 20 2q11 0 19 -2q4 -1 6 -2l-142 -669h77l-39 -185q-11 -4 -25 -4q-15 0 -24 4l29 138h-779z" />
    <glyph glyph-name="uni042A" unicode="&#x42a;" horiz-adv-x="690" 
d="M456 406q47 0 81.5 -15.5t55 -43.5t26.5 -68t-3 -88q-9 -46 -31 -81.5t-54 -60t-73 -37t-88 -12.5h-254l143 673h-154q-1 2 -1 6v7.5t2 9.5q1 5 2.5 10t3.5 8l3 6h206l-67 -314h202zM178 46h196q75 0 124 43t64 115q16 72 -15.5 114t-106.5 42h-196z" />
    <glyph glyph-name="uni042B" unicode="&#x42b;" horiz-adv-x="862" 
d="M191 716q3 1 7 2t8.5 1.5t12.5 0.5q10 0 18 -2q4 -1 6 -2l-66 -310h202q47 0 81.5 -15.5t55.5 -43.5t27 -66.5t-3 -84.5t-31.5 -82.5t-54.5 -61.5t-73 -38.5t-88 -13.5h-254zM794 716q3 1 7 2q8 2 20 2q11 0 19 -2q4 -1 6 -2l-151 -712q-3 -1 -7 -2t-8.5 -1.5t-11.5 -0.5
q-11 0 -19 2q-4 1 -6 2zM101 46h196q75 0 124 43t64 115q16 72 -15.5 114t-106.5 42h-196z" />
    <glyph glyph-name="uni042C" unicode="&#x42c;" horiz-adv-x="611" 
d="M379 406q47 0 81.5 -16t55 -44.5t26.5 -67.5t-3 -85q-20 -93 -86 -143t-160 -50h-254l152 716q3 1 7 2t8.5 1.5t12.5 0.5q10 0 18 -2q4 -1 6 -2l-66 -310h202zM297 46q75 0 124 43t64 115q16 72 -15.5 114t-106.5 42h-196l-66 -314h196z" />
    <glyph glyph-name="uni042D" unicode="&#x42d;" horiz-adv-x="578" 
d="M135 697q21 9 49 16q24 6 58 11.5t77 5.5q140 0 189.5 -98.5t9.5 -283.5q-39 -187 -128 -272.5t-228 -85.5q-47 0 -80.5 5t-56.5 11q-26 7 -44 17q7 26 25 40q18 -8 43 -13q20 -5 49.5 -9t66.5 -4q51 0 96 14.5t82.5 49.5t67.5 94t51 148h-285q-1 2 -1 6v7.5t2 9.5
q1 5 2.5 9.5t3.5 7.5l3 6h284q15 85 9.5 141.5t-29 90.5t-62 48.5t-87.5 14.5q-34 0 -63 -4t-50 -9q-25 -6 -45 -13q-14 15 -9 39z" />
    <glyph glyph-name="uni042E" unicode="&#x42e;" horiz-adv-x="949" 
d="M191 716q3 1 7 2t8.5 1.5t11.5 0.5q12 0 20 -2q4 -1 6 -2l-71 -333h184q43 181 130.5 264t210.5 83q63 0 109 -22.5t71 -69t28.5 -118t-17.5 -168.5t-53.5 -166t-76 -112.5t-97.5 -63.5t-117 -20q-62 0 -107 20t-70.5 62.5t-31 108t11.5 156.5h-184l-71 -333l-8 -2
t-8.5 -1.5t-10.5 -0.5q-12 0 -20 2q-4 1 -6 2zM691 685q-50 0 -93 -17t-79 -55.5t-64.5 -100.5t-47.5 -152q-19 -89 -17 -151t21.5 -100.5t55 -56t85.5 -17.5t93.5 17.5t79.5 56t63.5 100.5t46.5 151q19 90 17.5 152t-20.5 100.5t-55 55.5t-86 17z" />
    <glyph glyph-name="uni042F" unicode="&#x42f;" horiz-adv-x="624" 
d="M456 4q-3 -1 -7 -2q-10 -2 -21 -2t-19 2q-4 1 -6 2l65 307h-189l-230 -307q-4 -1 -9 -2t-10.5 -1.5t-12.5 -0.5q-8 0 -12.5 0.5t-8.5 1.5t-7 2l234 313q-67 15 -94.5 67.5t-10.5 131.5q10 46 31.5 83.5t53 64.5t71.5 41.5t87 14.5h247zM353 674q-69 0 -116.5 -41.5
t-63.5 -116.5q-17 -75 8.5 -116.5t94.5 -41.5h202l67 316h-192z" />
    <glyph glyph-name="uni0430" unicode="&#x430;" horiz-adv-x="554" 
d="M467 524q2 1 6 2q3 1 7 1.5t10 0.5q7 0 11 -0.5t7 -1.5t5 -2l-110 -520q-2 -1 -6 -2q-8 -2 -16 -2q-5 0 -8.5 0.5t-6.5 1.5q-4 1 -6 2l13 77q-32 -42 -77.5 -66.5t-106.5 -24.5q-44 0 -76.5 15.5t-50.5 49.5t-20.5 87.5t13.5 130.5q16 76 40.5 127t56.5 81t70.5 42.5
t82.5 12.5q58 0 92.5 -24.5t50.5 -66.5zM421 327q6 29 2 58.5t-18 53t-38.5 38.5t-59.5 15q-41 0 -72.5 -12.5t-56 -40t-42.5 -71t-31 -105.5t-14 -105.5t11.5 -71t38.5 -40t67 -12.5q35 0 66.5 15t56 38.5t41 53t22.5 59.5z" />
    <glyph glyph-name="uni0431" unicode="&#x431;" horiz-adv-x="568" 
d="M86 351q24 112 56 178t77.5 104t108 56t146.5 33l24.5 5t17 6t13.5 9.5t14 14.5q26 -2 33 -18q-7 -14 -15 -24t-19.5 -17.5t-27.5 -12.5t-38 -9q-74 -14 -128 -29t-93 -43.5t-66.5 -76.5t-49.5 -127h4q14 22 33.5 43t45 36.5t57 25t69.5 9.5q93 0 134 -65t12 -203
q-30 -138 -94 -197t-164 -59q-48 0 -86.5 13.5t-60.5 52.5t-24.5 110t21.5 185zM331 472q-33 0 -64 -9.5t-57.5 -34.5t-48 -67.5t-35.5 -108.5q-14 -65 -11 -107t19 -67.5t43 -35.5t61 -10t65.5 10t58 35.5t47.5 67.5t35 107q13 64 10 106.5t-19 68t-43 35.5t-61 10z" />
    <glyph glyph-name="uni0432" unicode="&#x432;" horiz-adv-x="515" 
d="M338 526q67 0 98 -38t17 -105q-9 -44 -34.5 -73.5t-60.5 -44.5q42 -14 57 -48.5t5 -82.5q-15 -69 -63 -101.5t-123 -32.5h-212l112 526h204zM277 287q51 0 83.5 26t42.5 74q11 49 -11 73t-73 24h-144l-42 -197h144zM236 42q54 0 87.5 24.5t44.5 75.5q11 48 -10.5 76
t-78.5 28h-155l-43 -204h155z" />
    <glyph glyph-name="uni0433" unicode="&#x433;" horiz-adv-x="398" 
d="M416 526q1 -2 1 -6q0 -3 -0.5 -7t-1.5 -9q-3 -9 -6 -16l-3 -6h-232l-101 -478q-2 -1 -6 -2q-8 -2 -20 -2q-11 0 -19 2q-4 1 -5 2l111 522h282z" />
    <glyph glyph-name="uni0434" unicode="&#x434;" horiz-adv-x="569" 
d="M14 42q12 12 24.5 29.5t26 46t28.5 70t32 100.5l70 238h312l-103 -484h63l-35 -166q-3 -1 -8.5 -2.5t-14.5 -1.5q-10 0 -16 1.5t-8 2.5l26 124h-403l-26 -124q-3 -1 -8.5 -2.5t-16.5 -1.5q-10 0 -15 1.5t-7 2.5l35 166h44zM171 284q-14 -51 -27 -89t-25.5 -66.5
t-24 -49.5t-23.5 -37h283l94 441h-219z" />
    <glyph glyph-name="uni0435" unicode="&#x435;" horiz-adv-x="505" 
d="M99 247q-19 -107 11 -159t111 -52q29 0 54.5 5.5t43.5 13.5q21 8 38 19q7 -6 11.5 -16.5t2.5 -22.5q-18 -13 -42 -23q-20 -8 -50.5 -15t-69.5 -7q-51 0 -87.5 19.5t-56.5 57t-23 91t13 121.5q30 131 97.5 194t158.5 63q44 0 76 -14.5t51 -40.5t24.5 -61.5t-3.5 -77.5
q-5 -23 -10 -41t-10 -30q-5 -14 -10 -24h-330zM415 353q6 28 3 53t-15.5 44.5t-36 31t-59.5 11.5q-69 0 -120.5 -48.5t-78.5 -156.5h287q1 2 7.5 18.5t12.5 46.5z" />
    <glyph glyph-name="uni0436" unicode="&#x436;" horiz-adv-x="769" 
d="M712 522q3 1 8 2t11 1.5t15 0.5q11 0 19 -2q4 -1 5 -2l-209 -250l124 -267q-4 -2 -8 -3q-10 -2 -23 -2q-11 0 -19 2q-4 1 -6 3l-115 249h-113l-53 -250q-3 -1 -7 -2q-8 -2 -19 -2q-7 0 -11 0.5t-7 1.5q-4 1 -6 2l53 250h-113l-215 -249q-4 -2 -9 -3t-11 -1.5t-14 -0.5
q-14 0 -22 2q-4 1 -6 3l240 278l-106 239q3 1 7 2t8.5 1.5t12.5 0.5q11 0 19 -2q4 -1 7 -2l98 -226h113l48 226q3 1 7 2q8 2 19 2q10 0 18 -2q4 -1 6 -2l-48 -226h113l189 226v0z" />
    <glyph glyph-name="uni0437" unicode="&#x437;" horiz-adv-x="449" 
d="M98 512q17 7 40 12q20 5 47.5 8.5t64.5 3.5q47 0 77.5 -12.5t47 -33t20 -47.5t-2.5 -57q-9 -45 -33 -75t-69 -45v-1q43 -15 57 -51t5 -81q-7 -32 -21.5 -58.5t-41.5 -45t-68.5 -29t-101.5 -10.5q-36 0 -62.5 4t-43.5 9q-20 6 -35 14q5 24 23 38q14 -7 32 -11
q16 -4 39.5 -7t53.5 -3q84 0 125.5 28.5t53.5 81.5q11 52 -22.5 77t-102.5 25h-57q-1 2 -1 6q0 3 -0.5 7t1.5 9q1 7 5 15q2 4 4 6h57q58 0 99.5 21t54.5 79q11 53 -15 78.5t-99 25.5q-28 0 -50.5 -3t-39.5 -7q-19 -4 -35 -9q-8 6 -8.5 16.5t2.5 21.5z" />
    <glyph glyph-name="uni0438" unicode="&#x438;" horiz-adv-x="578" 
d="M482 522q3 1 7 2t8.5 1.5t12.5 0.5q13 0 21 -2q4 -1 6 -2l-110 -518q-3 -1 -7 -2t-8.5 -1.5t-10.5 -0.5q-11 0 -19 2q-4 1 -6 2l74 348l18 78t8 29h-3l-6 -8.5t-17 -22l-24.5 -30l-28.5 -33.5l-320 -361q-3 -1 -7 -2q-10 -2 -22 -2t-20 2q-4 1 -6 2l110 518q3 1 7 2
q8 2 19 2t19 -2q4 -1 5 -2l-75 -353l-9 -40t-8 -32q-4 -16 -8 -30h2q7 10 16 21l18.5 23l24.5 29z" />
    <glyph glyph-name="uni0439" unicode="&#x439;" horiz-adv-x="578" 
d="M367 671q25 0 47 6t38 14q18 9 34 20q20 -6 20 -29q-17 -16 -38 -27q-19 -11 -45 -19t-60 -8t-58 8.5t-40 19.5q-18 12 -31 28q11 20 30 27q11 -11 26 -20q13 -8 32 -14t45 -6zM482 522q3 1 7 2t8.5 1.5t12.5 0.5q13 0 21 -2q4 -1 6 -2l-110 -518q-3 -1 -7 -2t-8.5 -1.5
t-10.5 -0.5q-11 0 -19 2q-4 1 -6 2l74 348q10 48 17 77t9 30h-3q-8 -12 -18 -24q-8 -11 -19.5 -25t-25.5 -29l-333 -377q-3 -1 -7 -2q-10 -2 -22 -2t-20 2q-4 1 -6 2l110 518q3 1 7 2q8 2 19 2t19 -2q4 -1 5 -2l-75 -353l-9 -40t-8 -32q-4 -16 -8 -30h2q7 10 16 21l18.5 23
l24.5 29z" />
    <glyph glyph-name="uni043A" unicode="&#x43a;" horiz-adv-x="496" 
d="M440 522q3 1 7 2t9.5 1.5t14.5 0.5q7 0 11.5 -0.5t8.5 -1.5t7 -1l-225 -253l139 -265q-4 -2 -8 -3q-10 -2 -22 -2q-10 0 -18 2q-4 1 -6 3l-128 249h-105l-53 -250q-3 -1 -7 -2q-8 -2 -19 -2q-7 0 -11 0.5t-7 1.5q-4 1 -6 2l110 518q2 1 6 2q8 2 19 2t19 -2q4 -1 6 -2
l-48 -226h106z" />
    <glyph glyph-name="uni043B" unicode="&#x43b;" horiz-adv-x="551" 
d="M184 290q-30 -99 -54.5 -158t-47 -89.5t-44.5 -39.5t-47 -9q-7 0 -12 0.5t-10 1.5t-9 3q-1 1 -1 4q0 2 -0.5 5.5t1.5 8.5q1 5 2 8t3 6t3 6q3 -1 7 -1t9 -0.5t11 0.5q19 0 36 14t34 45t34.5 79.5t37.5 119.5l68 232h306l-111 -522q-3 -1 -7 -2t-8.5 -1.5t-10.5 -0.5
q-7 0 -11 0.5t-7 1.5q-4 1 -6 2l102 479h-212l-56 -193v0z" />
    <glyph glyph-name="uni043C" unicode="&#x43c;" horiz-adv-x="672" 
d="M571 522q4 1 9 2t10.5 1.5t13.5 0.5q10 0 20 -2q4 -1 7 -2l-110 -518q-2 -1 -6 -2q-8 -2 -19 -2q-7 0 -11 0.5t-7 1.5q-4 1 -6 2l76 357q8 36 14.5 60l9.5 35h-2l-19.5 -28.5t-34.5 -45.5l-209 -255q-2 -1 -5 -2t-11 -1t-10 1l-4 2l-93 250q-10 28 -14.5 48t-6.5 30h-3
l-3.5 -34.5t-10.5 -59.5l-76 -357q-3 -1 -7 -2q-8 -2 -18 -2t-18 2q-4 1 -5 2l110 518l8 2t8.5 1.5t11.5 0.5q10 0 18 -2q4 -1 6 -2l118 -334h2l267 334v0z" />
    <glyph glyph-name="uni043D" unicode="&#x43d;" horiz-adv-x="561" 
d="M72 4q-2 -1 -6 -2q-8 -2 -20 -2q-7 0 -11 0.5t-7 1.5q-4 1 -6 2l110 518q2 1 6 2q8 2 20 2q11 0 19 -2q4 -1 5 -2l-49 -229h288l49 229q3 1 7 2q8 2 19 2t19 -2q4 -1 5 -2l-110 -518q-3 -1 -7 -2q-8 -2 -19 -2t-19 2q-4 1 -5 2l52 245h-288z" />
    <glyph glyph-name="uni043E" unicode="&#x43e;" horiz-adv-x="538" 
d="M55 274q16 74 42 124.5t59.5 81t74 43.5t84.5 13q49 0 84.5 -16t55.5 -50t23.5 -87.5t-12.5 -127.5t-41.5 -125t-59.5 -82t-74.5 -44.5t-85.5 -13.5q-49 0 -84.5 16.5t-55.5 51t-23 88.5t13 128zM416 263q14 66 12.5 110.5t-16 71.5t-41 38t-62.5 11q-32 0 -63 -11
t-58 -38t-48.5 -71.5t-35.5 -110.5t-12.5 -110.5t16 -71.5t41 -38t62.5 -11q32 0 63 11t57.5 38t48.5 71.5t36 110.5z" />
    <glyph glyph-name="uni043F" unicode="&#x43f;" horiz-adv-x="551" 
d="M73 4q-3 -1 -7 -2q-8 -2 -19 -2q-7 0 -11 0.5t-7 1.5q-4 1 -6 2l111 522h377l-111 -522q-2 -1 -6 -2q-8 -2 -19 -2t-19 2q-4 1 -6 2l101 478h-277z" />
    <glyph glyph-name="uni0440" unicode="&#x440;" horiz-adv-x="555" 
d="M167 448q32 41 75.5 64.5t104.5 23.5q45 0 77.5 -15.5t50.5 -49.5t20 -88t-14 -130q-16 -77 -40.5 -127.5t-56 -80.5t-70 -42.5t-83.5 -12.5q-26 0 -48 8t-40 21.5t-31.5 31.5t-20.5 37l-70 -329q-2 -1 -6 -2q-8 -2 -20 -2q-11 0 -19 2q-4 1 -5 2l162 763q2 1 6 2
q8 2 20 2q11 0 19 -2q4 -1 5 -2zM431 263q13 62 14 105.5t-11.5 71t-39 40t-68.5 12.5q-36 0 -66.5 -14t-54.5 -37t-40.5 -52t-22.5 -58l-26 -121q-6 -30 -0.5 -61t21.5 -56.5t40.5 -42t55.5 -16.5q42 0 73 12.5t54.5 40t40.5 71t30 105.5z" />
    <glyph glyph-name="uni0441" unicode="&#x441;" horiz-adv-x="442" 
d="M318 491q-88 0 -140 -56t-76 -170q-49 -228 124 -228q23 0 41.5 3t32.5 7q16 4 28 11q8 -5 12 -16t2 -23q-15 -9 -35 -15q-17 -5 -41.5 -9.5t-56.5 -4.5q-102 0 -143 75.5t-12 209.5t95.5 197.5t168.5 63.5q30 0 52 -3.5t36 -8.5q17 -5 28 -12q-2 -11 -8.5 -21.5
t-17.5 -17.5q-10 5 -23 9q-11 3 -28 6t-39 3z" />
    <glyph glyph-name="uni0442" unicode="&#x442;" horiz-adv-x="429" 
d="M448 526q1 -1 1 -5v-7.5t-1 -9.5q-3 -10 -6 -17q-2 -4 -4 -6h-161l-101 -477q-2 -1 -6 -2q-8 -2 -20 -2q-11 0 -19 2q-4 1 -5 2l101 477h-161q-1 2 -1 6q0 3 -0.5 7t1.5 10q1 5 2.5 9.5t3.5 7.5q2 4 4 5h372z" />
    <glyph glyph-name="uni0443" unicode="&#x443;" 
d="M459 522q3 1 7 2q8 2 19 2q10 0 18 -2q4 -1 6 -2l-106 -500q-15 -69 -35 -120t-52 -85t-78.5 -50.5t-112.5 -16.5q-32 0 -57.5 4t-42.5 9q-20 6 -35 14q2 11 7.5 21.5t15.5 16.5q16 -6 34 -10q16 -4 37.5 -7t45.5 -3q47 0 82.5 9.5t62.5 34.5t47 69.5t35 113.5l12 54
q-40 -42 -84 -64t-101 -22q-80 0 -114.5 46t-18.5 121l78 365q3 1 7 2q8 2 19 2t19 -2q4 -1 5 -2l-79 -372q-13 -60 11 -88.5t84 -28.5q47 0 97.5 29.5t86.5 83.5l80 376v0z" />
    <glyph glyph-name="uni0444" unicode="&#x444;" horiz-adv-x="778" 
d="M458 746q2 1 6 2q8 2 19 2t19 -2q4 -1 6 -2l-50 -232q16 6 36 11q17 5 40 8t49 3q49 -1 79.5 -19.5t44.5 -54t12.5 -87t-15.5 -118.5t-34 -117t-48.5 -83.5t-66.5 -50t-88 -16.5q-29 0 -50.5 3.5t-35.5 8.5q-17 5 -29 13l-55 -261q-2 -1 -6 -2q-8 -2 -20 -2q-11 0 -19 2
q-4 1 -5 2l55 261q-15 -8 -34 -13q-17 -5 -40 -8.5t-51 -3.5q-50 0 -80.5 18.5t-44 54t-12 87.5t15.5 119t34 117t48.5 83.5t66.5 50t88 16.5q26 0 47 -3.5t36 -7.5q18 -5 32 -11zM400 470l-7 3.5t-20.5 8t-33.5 8t-47 3.5q-75 0 -117.5 -56.5t-67.5 -173.5
q-25 -118 -6.5 -173.5t93.5 -55.5q25 0 46 4t38 9q18 6 35 14zM653 263q25 118 6.5 174t-93.5 56q-27 0 -48.5 -3.5t-37 -8t-24 -8l-8.5 -3.5l-87 -409q12 -8 29 -14q14 -5 33.5 -9t44.5 -4q75 0 117.5 56t67.5 173z" />
    <glyph glyph-name="uni0445" unicode="&#x445;" horiz-adv-x="488" 
d="M81 522q3 1 7 2t9 1.5t13 0.5q10 0 18 -2q4 -1 6 -2l108 -218l198 218q1 1 5 2q3 1 8.5 1.5t15.5 0.5q13 0 23 -2l8 -2l-233 -255l129 -263q-3 -1 -7 -2q-10 -2 -22 -2q-6 0 -10 0.5t-7 1.5q-4 1 -6 2l-113 226l-205 -226q-1 -2 -5 -3q-8 -2 -26 -2q-11 0 -21 2
q-4 1 -9 3l240 264z" />
    <glyph glyph-name="uni0446" unicode="&#x446;" horiz-adv-x="576" 
d="M462 522q3 1 7 2q8 2 19 2t19 -2q4 -1 6 -2l-102 -478h63l-35 -168q-3 -1 -8.5 -2.5t-15.5 -1.5t-15.5 1.5t-7.5 2.5l26 124h-396l111 522q3 1 7 2q8 2 19 2q12 0 20 -2q4 -1 5 -2l-102 -478h278l102 478v0z" />
    <glyph glyph-name="uni0447" unicode="&#x447;" horiz-adv-x="519" 
d="M367 4q-2 -1 -6 -2q-8 -2 -20 -2q-11 0 -19 2q-4 1 -5 2l50 234q-18 -9 -58 -22t-100 -13q-94 0 -127.5 41.5t-16.5 118.5l34 159q3 1 7 2q8 2 19 2q10 0 18 -2q4 -1 6 -2l-34 -160q-13 -60 12 -88t97 -28q54 0 94.5 14t57.5 24l51 238q2 1 6 2q8 2 20 2q11 0 19 -2
q4 -1 5 -2z" />
    <glyph glyph-name="uni0448" unicode="&#x448;" horiz-adv-x="792" 
d="M133 522q2 1 6 2q8 2 20 2q11 0 19 -2q4 -1 5 -2l-102 -478h233l102 478q2 1 6 2q8 2 20 2q11 0 19 -2q4 -1 6 -2l-102 -478h234l102 478q2 1 6 2q8 2 20 2q11 0 19 -2q4 -1 5 -2l-111 -522h-618z" />
    <glyph glyph-name="uni0449" unicode="&#x449;" horiz-adv-x="814" 
d="M677 -124q-3 -1 -8.5 -2.5t-15.5 -1.5t-15.5 1.5t-7.5 2.5l26 124h-634l111 522q2 1 6 2q8 2 20 2q11 0 19 -2q4 -1 5 -2l-102 -478h233l102 478q2 1 6 2q8 2 20 2q11 0 19 -2q4 -1 6 -2l-102 -478h234l102 478q2 1 6 2q8 2 20 2q11 0 19 -2q4 -1 5 -2l-102 -478h63z" />
    </font>
</defs>
</svg>
