<svg id="b94dfb5e-25c1-49a2-b721-7787e035b426" data-name="Clipboard" xmlns="http://www.w3.org/2000/svg" viewBox="0 0 120 174"><title>Clipboard-done</title><style>@-webkit-keyframes popinanim{ 0% { opacity:0; -webkit-transform: scale(0.75); } 73% { opacity:0; -webkit-transform: scale(0.75); } 98% { opacity:1; -webkit-transform: scale(1.2); } 100% { opacity:1; -webkit-transform: scale(1); } } @-moz-keyframes popinanim{ 0% { opacity:0; -moz-transform: scale(0.75); } 73% { opacity:0; -moz-transform: scale(0.75); } 98% { opacity:1; -moz-transform: scale(1.2); } 100% { opacity:1; -moz-transform: scale(1); } } @-o-keyframes popinanim{ 0% { opacity:0; -o-transform: scale(0.75); } 73% { opacity:0; -o-transform: scale(0.75); } 98% { opacity:1; -o-transform: scale(1.2); } 100% { opacity:1; -o-transform: scale(1); } } @keyframes popinanim{ 0% { opacity:0; transform: scale(0.75); } 73% { opacity:0; transform: scale(0.75); } 98% { opacity:1; transform: scale(1.2); } 100% { opacity:1; transform: scale(1); } } /*-----------*/ #checkmark { -webkit-animation: popinanim 1s ease; -moz-animation: popinanim 1s ease; -o-animation: popinanim 1s ease; animation: popinanim 1s ease; transform-origin: center; }</style><path id="1b82837b-8595-4bdf-a254-11b1c410144b" data-name="clipboard" d="M108 17.14l-10.29 26H22.29L12 17.14A12.09 12.09 0 0 0 0 29.28V161a12.1 12.1 0 0 0 12 12.13h96A12.11 12.11 0 0 0 120 161V29.28a12.09 12.09 0 0 0-12-12.13zM90.86 34.29l7.71-17.14H79.88L73.72 0H46.29l-6.17 17.14H21.43l7.71 17.14z" fill="#fff"/><g data-name="Done" id="checkmark"><path d="M60 62a42 42 0 1 1-42 42 42 42 0 0 1 42-42m0-6a48 48 0 1 0 48 48 48 48 0 0 0-48-48z" data-name="Circle"/><path id="eba9e0bc-3d78-439e-b595-b37e5d818695" data-name="Check" d="M55.63 125a4.38 4.38 0 0 1-3.5-1.74l-11.24-14.84a4.38 4.38 0 0 1 7-5.28l7.4 9.76 18.6-29.83a4.39 4.39 0 0 1 7.45 4.64l-22 35.23a4.37 4.37 0 0 1-3.51 2.06z"/></g></svg>